<?xml version="1.0" encoding="UTF-8"?>
<svg xmlns="http://www.w3.org/2000/svg" xmlns:xlink="http://www.w3.org/1999/xlink" width="11" height="10.601474" viewBox="0 0 11 10.601474">
<path fill-rule="nonzero" fill="rgb(30%,30%,30%)" fill-opacity="1" d="M 9.441406 0.863281 C 9.441406 1.335938 9.0625 1.71875 8.59375 1.71875 C 8.128906 1.71875 7.75 1.335938 7.75 0.863281 C 7.746094 0.394531 8.125 0.015625 8.59375 0.0117188 C 8.59375 0.0117188 8.597656 0.0117188 8.597656 0.0117188 C 9.0625 0.0117188 9.441406 0.394531 9.441406 0.863281 M 3.265625 0.863281 C 3.265625 1.335938 2.886719 1.71875 2.417969 1.71875 C 1.949219 1.71875 1.574219 1.335938 1.574219 0.863281 C 1.570312 0.394531 1.949219 0.015625 2.417969 0.0117188 C 2.417969 0.0117188 2.421875 0.0117188 2.421875 0.0117188 C 2.886719 0.0117188 3.265625 0.394531 3.265625 0.863281 M 10.980469 5.429688 L 9.742188 2 C 9.726562 1.960938 9.691406 1.9375 9.652344 1.9375 L 7.535156 1.9375 C 7.496094 1.9375 7.460938 1.960938 7.449219 1.996094 L 6.207031 5.433594 C 6.148438 5.585938 6.230469 5.757812 6.382812 5.816406 C 6.539062 5.875 6.710938 5.792969 6.765625 5.636719 L 7.746094 2.921875 L 7.746094 10.21875 C 7.746094 10.429688 7.914062 10.601562 8.125 10.601562 C 8.335938 10.601562 8.507812 10.433594 8.507812 10.222656 C 8.507812 10.222656 8.507812 10.21875 8.507812 10.21875 L 8.507812 5.859375 L 8.675781 5.859375 L 8.675781 10.21875 C 8.675781 10.429688 8.84375 10.601562 9.054688 10.601562 C 9.265625 10.601562 9.4375 10.433594 9.4375 10.222656 C 9.4375 10.222656 9.4375 10.21875 9.4375 10.21875 L 9.4375 2.917969 L 10.421875 5.636719 C 10.476562 5.789062 10.644531 5.867188 10.796875 5.8125 L 10.804688 5.8125 C 10.957031 5.753906 11.035156 5.585938 10.980469 5.429688 M 4.792969 5.429688 L 3.554688 2 C 3.539062 1.960938 3.503906 1.9375 3.464844 1.9375 L 1.347656 1.9375 C 1.308594 1.9375 1.273438 1.960938 1.257812 2 L 0.0195312 5.433594 C -0.0390625 5.585938 0.0429688 5.757812 0.195312 5.816406 C 0.351562 5.875 0.523438 5.792969 0.578125 5.636719 L 1.574219 2.886719 L 1.574219 4.855469 L 0.71875 7.097656 L 1.574219 7.097656 L 1.574219 10.21875 C 1.570312 10.429688 1.742188 10.601562 1.949219 10.601562 C 2.160156 10.601562 2.332031 10.433594 2.335938 10.222656 C 2.335938 10.222656 2.335938 10.21875 2.335938 10.21875 L 2.335938 7.097656 L 2.5 7.097656 L 2.5 10.21875 C 2.5 10.429688 2.667969 10.601562 2.878906 10.601562 C 3.089844 10.605469 3.261719 10.433594 3.261719 10.222656 C 3.261719 10.222656 3.261719 10.222656 3.261719 10.21875 L 3.261719 7.097656 L 4.09375 7.097656 L 3.265625 4.855469 L 3.265625 2.957031 L 4.234375 5.636719 C 4.289062 5.789062 4.460938 5.867188 4.613281 5.8125 L 4.617188 5.8125 C 4.769531 5.753906 4.851562 5.582031 4.792969 5.429688 M 5.621094 10.570312 C 5.6875 10.566406 5.738281 10.511719 5.738281 10.449219 L 5.589844 0.117188 C 5.585938 0.0507812 5.535156 0 5.46875 0 C 5.402344 0 5.351562 0.0546875 5.351562 0.121094 L 5.5 10.453125 C 5.503906 10.515625 5.554688 10.570312 5.621094 10.570312 Z M 5.621094 10.570312 "/>
</svg>
