<?xml version="1.0" encoding="UTF-8"?>
<svg xmlns="http://www.w3.org/2000/svg" xmlns:xlink="http://www.w3.org/1999/xlink" width="9.339777" height="11" viewBox="0 0 9.339777 11">
<path fill-rule="nonzero" fill="rgb(30%,30%,30%)" fill-opacity="1" d="M 6.648438 0.636719 L 5.339844 0.632812 L 5.339844 0.3125 C 5.339844 0.140625 5.066406 0 4.726562 0 C 4.386719 0 4.113281 0.140625 4.113281 0.3125 L 4.113281 0.628906 L 2.789062 0.621094 L 0 2.640625 L 0 11 L 9.339844 11 L 9.339844 2.640625 Z M 2.605469 9.886719 C 2.519531 9.765625 2.425781 9.644531 2.351562 9.515625 C 2.058594 9 1.773438 8.480469 1.480469 7.964844 C 1.382812 7.785156 1.394531 7.621094 1.503906 7.453125 C 1.625 7.261719 1.738281 7.0625 1.863281 6.859375 L 1.398438 6.574219 L 1.398438 6.558594 C 1.480469 6.546875 1.5625 6.539062 1.640625 6.53125 C 2.074219 6.492188 2.507812 6.453125 2.9375 6.414062 C 3.003906 6.410156 3.039062 6.425781 3.066406 6.488281 C 3.289062 6.960938 3.511719 7.433594 3.738281 7.90625 C 3.746094 7.925781 3.753906 7.945312 3.765625 7.980469 C 3.609375 7.898438 3.464844 7.828125 3.3125 7.753906 C 3.199219 7.957031 3.089844 8.15625 2.976562 8.355469 C 2.886719 8.519531 2.777344 8.679688 2.703125 8.851562 C 2.558594 9.179688 2.515625 9.523438 2.632812 9.875 C 2.625 9.878906 2.617188 9.882812 2.605469 9.886719 Z M 4.601562 10.074219 C 4.414062 10.074219 4.242188 10.074219 4.070312 10.074219 C 3.707031 10.070312 3.34375 10.066406 2.980469 10.058594 C 2.816406 10.058594 2.765625 10.015625 2.714844 9.863281 C 2.597656 9.53125 2.640625 9.203125 2.769531 8.886719 C 2.824219 8.757812 2.898438 8.636719 2.96875 8.515625 C 2.988281 8.488281 3.019531 8.472656 3.054688 8.46875 C 3.5625 8.472656 4.074219 8.476562 4.582031 8.484375 C 4.589844 8.484375 4.597656 8.488281 4.601562 8.488281 Z M 4.507812 5.234375 C 4.292969 5.574219 4.078125 5.910156 3.867188 6.246094 C 3.847656 6.269531 3.832031 6.292969 3.8125 6.324219 C 3.367188 6.042969 2.925781 5.761719 2.46875 5.472656 C 2.765625 5.003906 3.058594 4.542969 3.351562 4.085938 C 3.414062 3.988281 3.5 3.949219 3.621094 3.976562 C 4.015625 4.0625 4.289062 4.304688 4.5 4.628906 C 4.703125 4.929688 4.699219 4.933594 4.507812 5.234375 Z M 4.691406 5.875 C 4.839844 5.78125 4.980469 5.695312 5.121094 5.609375 C 5.09375 5.558594 5.070312 5.511719 5.042969 5.46875 C 4.925781 5.242188 4.804688 5.011719 4.683594 4.785156 C 4.464844 4.371094 4.164062 4.046875 3.695312 3.890625 C 3.777344 3.878906 3.855469 3.859375 3.933594 3.859375 C 4.132812 3.863281 4.332031 3.878906 4.527344 3.886719 C 4.984375 3.90625 5.445312 3.921875 5.902344 3.941406 C 6.109375 3.945312 6.246094 4.039062 6.332031 4.230469 C 6.429688 4.433594 6.539062 4.632812 6.644531 4.84375 L 7.152344 4.589844 C 7.136719 4.632812 7.128906 4.660156 7.117188 4.679688 C 6.890625 5.125 6.667969 5.570312 6.445312 6.015625 C 6.421875 6.0625 6.398438 6.074219 6.351562 6.070312 C 5.828125 6.007812 5.304688 5.949219 4.78125 5.886719 C 4.753906 5.886719 4.730469 5.878906 4.691406 5.875 Z M 8.140625 8.15625 C 7.875 8.664062 7.601562 9.167969 7.328125 9.675781 C 7.308594 9.71875 7.28125 9.761719 7.261719 9.804688 C 7.175781 9.972656 7.035156 10.050781 6.84375 10.046875 C 6.613281 10.042969 6.378906 10.046875 6.140625 10.046875 L 6.140625 10.613281 L 6.117188 10.636719 C 6.109375 10.613281 6.101562 10.589844 6.085938 10.570312 C 5.78125 10.175781 5.472656 9.777344 5.167969 9.378906 C 5.140625 9.34375 5.128906 9.316406 5.15625 9.273438 C 5.445312 8.816406 5.734375 8.355469 6.023438 7.898438 C 6.027344 7.886719 6.035156 7.878906 6.050781 7.859375 C 6.070312 8.035156 6.085938 8.199219 6.105469 8.359375 C 6.28125 8.351562 6.453125 8.339844 6.621094 8.332031 C 6.855469 8.320312 7.089844 8.324219 7.320312 8.292969 C 7.6875 8.242188 8.007812 8.089844 8.253906 7.800781 L 8.277344 7.8125 C 8.230469 7.925781 8.199219 8.046875 8.140625 8.15625 Z M 8.195312 7.746094 C 7.957031 8.03125 7.640625 8.167969 7.285156 8.21875 C 7.167969 8.234375 7.046875 8.234375 6.929688 8.238281 C 6.898438 8.234375 6.871094 8.222656 6.851562 8.199219 C 6.574219 7.757812 6.300781 7.320312 6.023438 6.871094 C 6.472656 6.589844 6.914062 6.3125 7.363281 6.03125 C 7.484375 6.21875 7.601562 6.398438 7.71875 6.582031 C 7.890625 6.851562 8.0625 7.121094 8.226562 7.394531 C 8.316406 7.542969 8.304688 7.613281 8.195312 7.746094 Z M 8.195312 7.746094 "/>
</svg>
