<?xml version="1.0" encoding="UTF-8"?>
<svg xmlns="http://www.w3.org/2000/svg" xmlns:xlink="http://www.w3.org/1999/xlink" width="8.610507" height="11" viewBox="0 0 8.610507 11">
<path fill-rule="nonzero" fill="rgb(30%,30%,30%)" fill-opacity="1" d="M 8.261719 6.890625 L 7.585938 6.882812 C 7.542969 5.441406 6.125 4.394531 4.191406 4.386719 C 3.171875 4.386719 2.230469 4.746094 1.605469 5.382812 C 1.164062 5.828125 0.925781 6.367188 0.925781 6.894531 L 0.351562 6.890625 C 0.15625 6.890625 0 7.050781 0 7.242188 C 0 7.425781 0.0273438 7.636719 0.625 7.683594 C 0.410156 7.925781 0.390625 8.199219 0.390625 8.484375 C 0.390625 8.785156 0.5 9.234375 0.738281 9.535156 C 0.726562 9.570312 0.722656 9.609375 0.722656 9.648438 L 0.722656 10.484375 C 0.722656 10.769531 0.957031 11 1.238281 11 L 1.542969 11 C 1.828125 11 2.058594 10.769531 2.058594 10.484375 L 2.058594 10.074219 C 2.0625 10.074219 2.0625 10.074219 2.066406 10.074219 C 2.664062 10.125 5.816406 10.125 6.566406 10.0625 L 6.566406 10.484375 C 6.566406 10.769531 6.796875 11 7.082031 11 L 7.386719 11 C 7.671875 11 7.902344 10.769531 7.902344 10.484375 L 7.902344 9.648438 C 7.902344 9.617188 7.898438 9.585938 7.894531 9.558594 C 8.117188 9.289062 8.203125 8.773438 8.203125 8.484375 C 8.203125 8.21875 8.183594 7.921875 7.988281 7.691406 C 8.066406 7.671875 8.136719 7.652344 8.199219 7.632812 C 8.496094 7.539062 8.609375 7.433594 8.609375 7.242188 C 8.609375 7.050781 8.453125 6.890625 8.261719 6.890625 Z M 1.878906 9.589844 C 1.535156 9.589844 1.257812 9.3125 1.257812 8.972656 C 1.257812 8.628906 1.535156 8.355469 1.878906 8.355469 C 2.21875 8.355469 2.496094 8.628906 2.496094 8.972656 C 2.496094 9.3125 2.21875 9.589844 1.878906 9.589844 Z M 4.207031 8.160156 C 3.972656 8.167969 3.527344 8.175781 3.292969 8.132812 C 2.371094 8.042969 1.84375 7.777344 1.546875 7.550781 C 1.324219 7.390625 1.296875 7.3125 1.28125 7.289062 C 1.253906 7.167969 1.238281 7.042969 1.234375 6.917969 C 1.226562 6.464844 1.4375 5.996094 1.828125 5.597656 C 2.390625 5.027344 3.246094 4.699219 4.175781 4.699219 C 4.179688 4.699219 4.183594 4.699219 4.191406 4.699219 C 5.96875 4.703125 7.265625 5.644531 7.28125 6.933594 C 7.28125 7.070312 7.265625 7.207031 7.230469 7.339844 C 7.183594 7.375 7.074219 7.480469 6.832031 7.597656 C 6.472656 7.785156 5.910156 7.992188 5.058594 8.097656 C 4.570312 8.15625 4.414062 8.15625 4.207031 8.160156 Z M 6.792969 9.589844 C 6.449219 9.589844 6.175781 9.3125 6.175781 8.972656 C 6.175781 8.628906 6.449219 8.355469 6.792969 8.355469 C 7.132812 8.355469 7.410156 8.628906 7.410156 8.972656 C 7.410156 9.3125 7.132812 9.589844 6.792969 9.589844 Z M 6.792969 9.589844 "/>
<path fill-rule="nonzero" fill="rgb(30%,30%,30%)" fill-opacity="1" d="M 5.828125 3.332031 C 5.8125 3.300781 5.769531 3.214844 5.746094 3.1875 C 5.574219 2.898438 5.3125 2.414062 5.226562 2.101562 C 5.109375 2.417969 4.730469 3.121094 4.628906 3.328125 C 4.585938 3.410156 4.582031 3.523438 4.582031 3.605469 C 4.582031 3.960938 4.871094 4.25 5.226562 4.25 C 5.582031 4.25 5.871094 3.960938 5.871094 3.605469 C 5.871094 3.53125 5.859375 3.417969 5.828125 3.332031 Z M 5.828125 3.332031 "/>
<path fill-rule="nonzero" fill="rgb(30%,30%,30%)" fill-opacity="1" d="M 7.921875 3.34375 C 7.910156 3.308594 7.867188 3.226562 7.84375 3.195312 C 7.671875 2.910156 7.40625 2.425781 7.324219 2.113281 C 7.207031 2.429688 6.824219 3.132812 6.726562 3.339844 C 6.683594 3.421875 6.679688 3.53125 6.679688 3.617188 C 6.679688 3.972656 6.964844 4.261719 7.324219 4.261719 C 7.679688 4.261719 7.964844 3.972656 7.964844 3.617188 C 7.964844 3.542969 7.957031 3.429688 7.921875 3.34375 Z M 7.921875 3.34375 "/>
<path fill-rule="nonzero" fill="rgb(30%,30%,30%)" fill-opacity="1" d="M 3.730469 3.332031 C 3.71875 3.300781 3.671875 3.214844 3.648438 3.1875 C 3.476562 2.898438 3.214844 2.414062 3.128906 2.101562 C 3.011719 2.417969 2.632812 3.121094 2.53125 3.328125 C 2.488281 3.410156 2.484375 3.523438 2.484375 3.605469 C 2.484375 3.960938 2.773438 4.25 3.128906 4.25 C 3.484375 4.25 3.773438 3.960938 3.773438 3.605469 C 3.773438 3.53125 3.761719 3.417969 3.730469 3.332031 Z M 3.730469 3.332031 "/>
<path fill-rule="nonzero" fill="rgb(30%,30%,30%)" fill-opacity="1" d="M 2.734375 1.242188 C 2.722656 1.210938 2.679688 1.125 2.65625 1.097656 C 2.484375 0.808594 2.21875 0.324219 2.132812 0.0117188 C 2.019531 0.328125 1.636719 1.03125 1.539062 1.238281 C 1.496094 1.320312 1.492188 1.433594 1.492188 1.515625 C 1.492188 1.871094 1.777344 2.160156 2.132812 2.160156 C 2.492188 2.160156 2.777344 1.871094 2.777344 1.515625 C 2.777344 1.441406 2.769531 1.328125 2.734375 1.242188 Z M 2.734375 1.242188 "/>
<path fill-rule="nonzero" fill="rgb(30%,30%,30%)" fill-opacity="1" d="M 4.777344 1.230469 C 4.765625 1.199219 4.722656 1.117188 4.699219 1.085938 C 4.527344 0.796875 4.261719 0.3125 4.175781 0 C 4.0625 0.320312 3.679688 1.019531 3.582031 1.226562 C 3.539062 1.308594 3.535156 1.421875 3.535156 1.503906 C 3.535156 1.859375 3.820312 2.148438 4.175781 2.148438 C 4.53125 2.148438 4.820312 1.859375 4.820312 1.503906 C 4.820312 1.429688 4.8125 1.316406 4.777344 1.230469 Z M 4.777344 1.230469 "/>
<path fill-rule="nonzero" fill="rgb(30%,30%,30%)" fill-opacity="1" d="M 6.820312 1.242188 C 6.808594 1.210938 6.765625 1.125 6.742188 1.097656 C 6.570312 0.808594 6.304688 0.324219 6.21875 0.0117188 C 6.105469 0.328125 5.722656 1.03125 5.625 1.238281 C 5.582031 1.320312 5.578125 1.433594 5.578125 1.515625 C 5.578125 1.871094 5.863281 2.160156 6.21875 2.160156 C 6.574219 2.160156 6.863281 1.871094 6.863281 1.515625 C 6.863281 1.441406 6.855469 1.328125 6.820312 1.242188 Z M 6.820312 1.242188 "/>
<path fill-rule="nonzero" fill="rgb(30%,30%,30%)" fill-opacity="1" d="M 1.632812 3.332031 C 1.621094 3.300781 1.574219 3.214844 1.550781 3.1875 C 1.378906 2.898438 1.117188 2.414062 1.03125 2.101562 C 0.914062 2.417969 0.535156 3.121094 0.433594 3.328125 C 0.394531 3.410156 0.386719 3.523438 0.386719 3.605469 C 0.386719 3.960938 0.675781 4.25 1.03125 4.25 C 1.386719 4.25 1.675781 3.960938 1.675781 3.605469 C 1.675781 3.53125 1.667969 3.417969 1.632812 3.332031 Z M 1.632812 3.332031 "/>
</svg>
