<?xml version="1.0" encoding="UTF-8"?>
<svg xmlns="http://www.w3.org/2000/svg" xmlns:xlink="http://www.w3.org/1999/xlink" width="10.961935" height="11" viewBox="0 0 10.961935 11">
<path fill-rule="nonzero" fill="rgb(30%,30%,30%)" fill-opacity="1" d="M 10.960938 0.746094 L 10.957031 0.570312 L 10.957031 0.015625 L 10.945312 0.015625 L 0 0 L 0.015625 0.730469 L 0.015625 2.386719 L 0.792969 2.386719 L 0.792969 0.730469 L 10.183594 0.746094 L 10.183594 2.386719 L 10.957031 2.386719 L 10.957031 0.746094 Z M 10.960938 0.746094 "/>
<path fill-rule="nonzero" fill="rgb(30%,30%,30%)" fill-opacity="1" d="M 10.171875 11 L 9.414062 9.449219 L 9.414062 1.566406 L 1.554688 1.566406 L 1.554688 9.496094 L 0.792969 10.984375 Z M 8.636719 10.003906 L 8.417969 10.265625 L 2.589844 10.257812 L 2.328125 10.003906 L 2.328125 3.90625 L 8.636719 3.917969 Z M 8.636719 2.320312 L 8.636719 3.1875 L 2.328125 3.175781 L 2.328125 2.308594 Z M 8.636719 2.320312 "/>
<path fill-rule="nonzero" fill="rgb(30%,30%,30%)" fill-opacity="1" d="M 7.03125 7.839844 L 6.441406 7.839844 C 6.769531 7.824219 7.03125 7.550781 7.03125 7.21875 L 7.03125 7.105469 C 7.03125 6.675781 6.683594 6.328125 6.253906 6.324219 L 6.242188 6.324219 C 6.257812 6.09375 6.261719 5.699219 6.152344 5.433594 C 5.9375 4.917969 5.421875 4.703125 5.421875 4.703125 C 5.421875 4.703125 5.585938 5.542969 5.191406 5.90625 C 5.003906 6.082031 4.824219 6.222656 4.691406 6.324219 C 4.28125 6.328125 3.949219 6.65625 3.949219 7.066406 L 3.949219 7.21875 C 3.949219 7.550781 4.210938 7.824219 4.539062 7.839844 L 3.886719 7.839844 C 3.46875 7.839844 3.113281 8.164062 3.089844 8.582031 C 3.082031 8.796875 3.160156 9.007812 3.308594 9.164062 C 3.453125 9.320312 3.660156 9.410156 3.875 9.410156 L 7.042969 9.410156 C 7.257812 9.410156 7.460938 9.320312 7.609375 9.164062 C 7.757812 9.007812 7.835938 8.796875 7.824219 8.582031 C 7.804688 8.164062 7.449219 7.839844 7.03125 7.839844 Z M 7.03125 7.839844 "/>
</svg>
