<?xml version="1.0" encoding="UTF-8" standalone="no"?>
<!-- Created with Inkscape (http://www.inkscape.org/) -->

<svg
   xmlns:dc="http://purl.org/dc/elements/1.1/"
   xmlns:cc="http://creativecommons.org/ns#"
   xmlns:rdf="http://www.w3.org/1999/02/22-rdf-syntax-ns#"
   xmlns:svg="http://www.w3.org/2000/svg"
   xmlns="http://www.w3.org/2000/svg"
   xmlns:xlink="http://www.w3.org/1999/xlink"
   xmlns:sodipodi="http://sodipodi.sourceforge.net/DTD/sodipodi-0.dtd"
   xmlns:inkscape="http://www.inkscape.org/namespaces/inkscape"
   width="30px"
   height="30px"
   version="1.1"
   id="svg8"
   inkscape:version="0.92.4 5da689c313, 2019-01-14"
   sodipodi:docname="container.svg">
  <defs
     id="defs2" />
  <sodipodi:namedview
     id="base"
     pagecolor="#ffffff"
     bordercolor="#666666"
     borderopacity="1.0"
     inkscape:pageopacity="0.0"
     inkscape:pageshadow="2"
     inkscape:zoom="13.049334"
     inkscape:cx="18.679046"
     inkscape:cy="12.165829"
     inkscape:document-units="px"
     inkscape:current-layer="layer1"
     showgrid="false"
     inkscape:snap-page="false"
     units="px"
     inkscape:window-width="1884"
     inkscape:window-height="1061"
     inkscape:window-x="0"
     inkscape:window-y="0"
     inkscape:window-maximized="1"
     fit-margin-top="0"
     fit-margin-left="0"
     fit-margin-right="0"
     fit-margin-bottom="0" />
  <metadata
     id="metadata5">
    <rdf:RDF>
      <cc:Work
         rdf:about="">
        <dc:format>image/svg+xml</dc:format>
        <dc:type
           rdf:resource="http://purl.org/dc/dcmitype/StillImage" />
        <dc:title></dc:title>
      </cc:Work>
    </rdf:RDF>
  </metadata>
    <circle
       style="color:#000000;clip-rule:nonzero;display:inline;overflow:visible;visibility:visible;opacity:1;isolation:auto;mix-blend-mode:normal;color-interpolation:sRGB;color-interpolation-filters:linearRGB;solid-color:#000000;solid-opacity:1;vector-effect:none;fill:#ffffff;fill-opacity:1;fill-rule:evenodd;stroke:#2a62ac;stroke-width:1;stroke-linecap:butt;stroke-linejoin:miter;stroke-miterlimit:4;stroke-dasharray:none;stroke-dashoffset:0;stroke-opacity:1;marker:none;color-rendering:auto;image-rendering:auto;shape-rendering:auto;text-rendering:auto;enable-background:accumulate"
       id="path815"
       cx="15"
       cy="15"
       r="14.5" />
<g transform="translate(6.5,10.5)"><path fill-rule="nonzero" fill="rgb(30%,30%,30%)" fill-opacity="1" d="M 3.894531 0.5625 L 3.128906 0.558594 L 3.128906 0.273438 C 3.128906 0.121094 2.96875 0 2.769531 0 C 2.570312 0 2.410156 0.121094 2.410156 0.273438 L 2.410156 0.550781 L 1.632812 0.546875 L 0.527344 2.6875 L 0 2.6875 L 0 9.398438 L 5.472656 9.398438 L 5.472656 2.6875 L 5.03125 2.6875 Z M 1.636719 1.722656 L 3.898438 1.722656 L 3.890625 2.714844 L 1.628906 2.714844 Z M 1.636719 1.722656 "/>
<path fill-rule="nonzero" fill="rgb(30%,30%,30%)" fill-opacity="1" d="M 9.660156 0.5625 L 8.894531 0.558594 L 8.894531 0.273438 C 8.894531 0.121094 8.730469 0 8.535156 0 C 8.335938 0 8.175781 0.121094 8.175781 0.273438 L 8.175781 0.550781 L 7.398438 0.546875 L 6.292969 2.6875 L 5.765625 2.6875 L 5.765625 9.398438 L 11.234375 9.398438 L 11.234375 2.6875 L 10.796875 2.6875 Z M 7.402344 1.722656 L 9.664062 1.722656 L 9.65625 2.714844 L 7.394531 2.714844 Z M 7.402344 1.722656 "/>
<path fill-rule="nonzero" fill="rgb(30%,30%,30%)" fill-opacity="1" d="M 15.421875 0.5625 L 14.65625 0.558594 L 14.65625 0.273438 C 14.65625 0.121094 14.496094 0 14.296875 0 C 14.097656 0 13.9375 0.121094 13.9375 0.273438 L 13.9375 0.550781 L 13.160156 0.546875 L 12.054688 2.6875 L 11.527344 2.6875 L 11.527344 9.398438 L 17 9.398438 L 17 2.6875 L 16.558594 2.6875 Z M 13.167969 1.722656 L 15.429688 1.722656 L 15.417969 2.714844 L 13.15625 2.714844 Z M 13.167969 1.722656 "/>
</g>
</svg>
