<?xml version="1.0" encoding="UTF-8"?>
<svg xmlns="http://www.w3.org/2000/svg" xmlns:xlink="http://www.w3.org/1999/xlink" width="10.998078" height="11" viewBox="0 0 10.998078 11">
<path fill-rule="nonzero" fill="rgb(30%,30%,30%)" fill-opacity="1" d="M 8.398438 5.5 C 8.398438 7.101562 7.101562 8.398438 5.5 8.398438 C 3.898438 8.398438 2.601562 7.101562 2.601562 5.5 C 2.601562 3.898438 3.898438 2.601562 5.5 2.601562 C 7.101562 2.601562 8.398438 3.898438 8.398438 5.5 Z M 8.398438 5.5 "/>
<path fill-rule="nonzero" fill="rgb(30%,30%,30%)" fill-opacity="1" d="M 2.3125 4.03125 L 0.574219 3.027344 C 0.238281 3.695312 0.0429688 4.425781 0 5.171875 L 2.007812 5.171875 C 2.042969 4.777344 2.148438 4.390625 2.3125 4.03125 Z M 2.3125 4.03125 "/>
<path fill-rule="nonzero" fill="rgb(30%,30%,30%)" fill-opacity="1" d="M 2.640625 7.53125 L 0.902344 8.535156 C 1.304688 9.148438 1.828125 9.671875 2.441406 10.082031 L 3.445312 8.34375 C 3.132812 8.117188 2.863281 7.84375 2.640625 7.53125 Z M 2.640625 7.53125 "/>
<path fill-rule="nonzero" fill="rgb(30%,30%,30%)" fill-opacity="1" d="M 2.007812 5.824219 L 0 5.824219 C 0.0429688 6.570312 0.238281 7.300781 0.574219 7.96875 L 2.3125 6.964844 C 2.144531 6.605469 2.042969 6.21875 2.007812 5.824219 Z M 2.007812 5.824219 "/>
<path fill-rule="nonzero" fill="rgb(30%,30%,30%)" fill-opacity="1" d="M 6.933594 2.300781 L 7.9375 0.558594 C 7.273438 0.230469 6.550781 0.0390625 5.808594 0 L 5.808594 2.007812 C 6.199219 2.039062 6.578125 2.140625 6.933594 2.300781 Z M 6.933594 2.300781 "/>
<path fill-rule="nonzero" fill="rgb(30%,30%,30%)" fill-opacity="1" d="M 3.472656 2.640625 L 2.46875 0.898438 C 1.847656 1.308594 1.316406 1.839844 0.902344 2.460938 L 2.640625 3.464844 C 2.871094 3.144531 3.152344 2.867188 3.472656 2.640625 Z M 3.472656 2.640625 "/>
<path fill-rule="nonzero" fill="rgb(30%,30%,30%)" fill-opacity="1" d="M 8.992188 5.171875 L 10.996094 5.171875 C 10.953125 4.425781 10.761719 3.699219 10.425781 3.035156 L 8.6875 4.039062 C 8.851562 4.394531 8.953125 4.777344 8.992188 5.171875 Z M 8.992188 5.171875 "/>
<path fill-rule="nonzero" fill="rgb(30%,30%,30%)" fill-opacity="1" d="M 5.15625 2.011719 L 5.15625 0.00390625 C 4.417969 0.046875 3.695312 0.242188 3.035156 0.570312 L 4.039062 2.3125 C 4.390625 2.148438 4.769531 2.046875 5.15625 2.011719 Z M 5.15625 2.011719 "/>
<path fill-rule="nonzero" fill="rgb(30%,30%,30%)" fill-opacity="1" d="M 5.808594 8.992188 L 5.808594 11 C 6.5625 10.957031 7.296875 10.761719 7.96875 10.425781 L 6.964844 8.6875 C 6.597656 8.855469 6.210938 8.957031 5.808594 8.992188 Z M 5.808594 8.992188 "/>
<path fill-rule="nonzero" fill="rgb(30%,30%,30%)" fill-opacity="1" d="M 8.992188 5.824219 C 8.953125 6.21875 8.851562 6.597656 8.691406 6.957031 L 10.429688 7.960938 C 10.761719 7.296875 10.957031 6.570312 11 5.824219 Z M 8.992188 5.824219 "/>
<path fill-rule="nonzero" fill="rgb(30%,30%,30%)" fill-opacity="1" d="M 7.53125 8.359375 L 8.535156 10.097656 C 9.15625 9.683594 9.691406 9.152344 10.101562 8.527344 L 8.363281 7.523438 C 8.132812 7.847656 7.851562 8.128906 7.53125 8.359375 Z M 7.53125 8.359375 "/>
<path fill-rule="nonzero" fill="rgb(30%,30%,30%)" fill-opacity="1" d="M 8.359375 3.472656 L 10.097656 2.46875 C 9.683594 1.835938 9.140625 1.296875 8.507812 0.886719 L 7.503906 2.621094 C 7.835938 2.855469 8.125 3.140625 8.359375 3.472656 Z M 8.359375 3.472656 "/>
<path fill-rule="nonzero" fill="rgb(30%,30%,30%)" fill-opacity="1" d="M 4.011719 8.675781 L 3.007812 10.414062 C 3.675781 10.753906 4.40625 10.953125 5.15625 10.996094 L 5.15625 8.988281 C 4.757812 8.953125 4.371094 8.84375 4.011719 8.675781 Z M 4.011719 8.675781 "/>
</svg>
