<?xml version="1.0" encoding="UTF-8" standalone="no"?>
<!-- Created with Inkscape (http://www.inkscape.org/) -->

<svg
   xmlns:dc="http://purl.org/dc/elements/1.1/"
   xmlns:cc="http://creativecommons.org/ns#"
   xmlns:rdf="http://www.w3.org/1999/02/22-rdf-syntax-ns#"
   xmlns:svg="http://www.w3.org/2000/svg"
   xmlns="http://www.w3.org/2000/svg"
   xmlns:xlink="http://www.w3.org/1999/xlink"
   xmlns:sodipodi="http://sodipodi.sourceforge.net/DTD/sodipodi-0.dtd"
   xmlns:inkscape="http://www.inkscape.org/namespaces/inkscape"
   width="30px"
   height="30px"
   version="1.1"
   id="svg8"
   inkscape:version="0.92.4 5da689c313, 2019-01-14"
   sodipodi:docname="container.svg">
  <defs
     id="defs2" />
  <sodipodi:namedview
     id="base"
     pagecolor="#ffffff"
     bordercolor="#666666"
     borderopacity="1.0"
     inkscape:pageopacity="0.0"
     inkscape:pageshadow="2"
     inkscape:zoom="13.049334"
     inkscape:cx="18.679046"
     inkscape:cy="12.165829"
     inkscape:document-units="px"
     inkscape:current-layer="layer1"
     showgrid="false"
     inkscape:snap-page="false"
     units="px"
     inkscape:window-width="1884"
     inkscape:window-height="1061"
     inkscape:window-x="0"
     inkscape:window-y="0"
     inkscape:window-maximized="1"
     fit-margin-top="0"
     fit-margin-left="0"
     fit-margin-right="0"
     fit-margin-bottom="0" />
  <metadata
     id="metadata5">
    <rdf:RDF>
      <cc:Work
         rdf:about="">
        <dc:format>image/svg+xml</dc:format>
        <dc:type
           rdf:resource="http://purl.org/dc/dcmitype/StillImage" />
        <dc:title></dc:title>
      </cc:Work>
    </rdf:RDF>
  </metadata>
    <circle
       style="color:#000000;clip-rule:nonzero;display:inline;overflow:visible;visibility:visible;opacity:1;isolation:auto;mix-blend-mode:normal;color-interpolation:sRGB;color-interpolation-filters:linearRGB;solid-color:#000000;solid-opacity:1;vector-effect:none;fill:#ffffff;fill-opacity:1;fill-rule:evenodd;stroke:#2a62ac;stroke-width:1;stroke-linecap:butt;stroke-linejoin:miter;stroke-miterlimit:4;stroke-dasharray:none;stroke-dashoffset:0;stroke-opacity:1;marker:none;color-rendering:auto;image-rendering:auto;shape-rendering:auto;text-rendering:auto;enable-background:accumulate"
       id="path815"
       cx="15"
       cy="15"
       r="14.5" />
<g transform="translate(10.0,6.5)"><path fill-rule="nonzero" fill="rgb(30%,30%,30%)" fill-opacity="1" d="M 10.3125 9.605469 L 10.3125 1.566406 C 10.3125 1.347656 10.132812 1.167969 9.914062 1.167969 L 4.339844 1.179688 L 4.339844 0.613281 L 5.996094 0.613281 L 5.996094 0.00390625 L 1.480469 0 L 1.519531 16.164062 L 0 16.164062 L 0 17 L 4.195312 17 L 4.195312 16.164062 L 2.535156 16.164062 L 2.535156 10.976562 L 5.996094 10.976562 L 5.996094 10.371094 L 4.386719 10.394531 L 4.386719 10.113281 L 9.839844 10.078125 C 10.101562 10.078125 10.3125 9.867188 10.3125 9.605469 Z M 9.246094 9.1875 L 4.175781 9.195312 C 3.984375 9.195312 3.828125 9.042969 3.828125 8.851562 L 3.828125 2.417969 C 3.828125 2.226562 3.984375 2.070312 4.175781 2.070312 L 9.246094 2.0625 C 9.4375 2.0625 9.59375 2.214844 9.59375 2.410156 L 9.59375 8.839844 C 9.59375 9.035156 9.4375 9.1875 9.246094 9.1875 Z M 3.691406 10.371094 L 2.535156 10.371094 L 2.535156 0.613281 L 3.691406 0.613281 L 3.691406 1.179688 L 3.503906 1.179688 C 3.285156 1.179688 3.109375 1.359375 3.109375 1.578125 L 3.109375 9.589844 C 3.109375 9.863281 3.332031 10.089844 3.609375 10.089844 L 3.691406 10.089844 Z M 3.691406 10.371094 "/>
<path fill-rule="nonzero" fill="rgb(30%,30%,30%)" fill-opacity="1" d="M 4.574219 3.011719 L 7.695312 3.011719 L 7.695312 3.839844 L 4.574219 3.839844 Z M 4.574219 3.011719 "/>
<path fill-rule="nonzero" fill="rgb(30%,30%,30%)" fill-opacity="1" d="M 4.65625 4.574219 L 6.882812 4.574219 L 6.882812 5.265625 L 4.65625 5.265625 Z M 4.65625 4.574219 "/>
</g>
</svg>
