<?xml version="1.0" encoding="UTF-8"?>
<svg xmlns="http://www.w3.org/2000/svg" xmlns:xlink="http://www.w3.org/1999/xlink" width="6.672673" height="11" viewBox="0 0 6.672673 11">
<path fill-rule="nonzero" fill="rgb(30%,30%,30%)" fill-opacity="1" d="M 6.671875 6.214844 L 6.671875 1.015625 C 6.671875 0.871094 6.558594 0.757812 6.414062 0.757812 L 2.808594 0.761719 L 2.808594 0.394531 L 3.878906 0.394531 L 3.878906 0.00390625 L 0.957031 0 L 0.984375 10.457031 L 0 10.457031 L 0 11 L 2.714844 11 L 2.714844 10.457031 L 1.640625 10.457031 L 1.640625 7.101562 L 3.878906 7.101562 L 3.878906 6.710938 L 2.835938 6.726562 L 2.835938 6.542969 L 6.367188 6.523438 C 6.535156 6.519531 6.671875 6.382812 6.671875 6.214844 Z M 5.980469 5.945312 L 2.703125 5.949219 C 2.578125 5.949219 2.476562 5.851562 2.476562 5.726562 L 2.476562 1.5625 C 2.476562 1.441406 2.578125 1.339844 2.703125 1.339844 L 5.980469 1.332031 C 6.105469 1.332031 6.207031 1.433594 6.207031 1.558594 L 6.207031 5.722656 C 6.207031 5.84375 6.105469 5.945312 5.980469 5.945312 Z M 2.386719 6.710938 L 1.640625 6.710938 L 1.640625 0.394531 L 2.386719 0.394531 L 2.386719 0.761719 L 2.269531 0.761719 C 2.125 0.761719 2.011719 0.878906 2.011719 1.019531 L 2.011719 6.203125 C 2.011719 6.382812 2.15625 6.527344 2.335938 6.527344 L 2.386719 6.527344 Z M 2.386719 6.710938 "/>
<path fill-rule="nonzero" fill="rgb(30%,30%,30%)" fill-opacity="1" d="M 2.960938 1.949219 L 4.980469 1.949219 L 4.980469 2.484375 L 2.960938 2.484375 Z M 2.960938 1.949219 "/>
<path fill-rule="nonzero" fill="rgb(30%,30%,30%)" fill-opacity="1" d="M 3.011719 2.960938 L 4.453125 2.960938 L 4.453125 3.40625 L 3.011719 3.40625 Z M 3.011719 2.960938 "/>
</svg>
