<?xml version="1.0" encoding="UTF-8"?>
<svg xmlns="http://www.w3.org/2000/svg" xmlns:xlink="http://www.w3.org/1999/xlink" width="10.990426" height="11" viewBox="0 0 10.990426 11">
<path fill-rule="nonzero" fill="rgb(30%,30%,30%)" fill-opacity="1" d="M 8.644531 2.34375 L 9.4375 2.34375 L 9.4375 8.488281 C 9.4375 8.996094 9.023438 9.40625 8.519531 9.40625 L 2.507812 9.40625 C 2.003906 9.40625 1.59375 8.996094 1.59375 8.488281 L 1.59375 2.34375 L 2.363281 2.34375 L 2.402344 7.046875 C 3.148438 7.035156 3.914062 7.71875 3.953125 8.585938 L 7.089844 8.597656 C 7.089844 7.65625 7.917969 7.054688 8.644531 7.054688 Z M 2.507812 10.292969 C 2.152344 10.292969 1.855469 10.117188 1.710938 9.8125 C 1.703125 9.796875 1.683594 9.789062 1.667969 9.792969 C 1.648438 9.796875 1.636719 9.8125 1.636719 9.828125 L 1.636719 10.121094 C 1.636719 10.605469 2.007812 11 2.457031 11 L 8.570312 11 C 9.023438 11 9.390625 10.605469 9.390625 10.121094 L 9.390625 9.898438 C 9.390625 9.882812 9.378906 9.867188 9.363281 9.863281 C 9.347656 9.859375 9.328125 9.863281 9.320312 9.878906 C 9.15625 10.148438 8.851562 10.292969 8.519531 10.292969 Z M 7.734375 4.703125 C 7.734375 3.863281 6.738281 3.183594 5.515625 3.183594 C 4.289062 3.183594 3.296875 3.863281 3.296875 4.703125 C 3.296875 5.542969 4.289062 6.222656 5.515625 6.222656 C 6.738281 6.222656 7.734375 5.542969 7.734375 4.703125 Z M 0.96875 0 C 0.433594 0 0 0.433594 0 0.96875 L 0 2.285156 C 0 2.75 0.332031 3.148438 0.785156 3.238281 L 0.792969 3.148438 L 0.8125 1.558594 L 10.234375 1.558594 L 10.234375 3.230469 C 10.675781 3.132812 10.988281 2.738281 10.992188 2.285156 L 10.992188 0.96875 C 10.988281 0.433594 10.554688 0 10.023438 0 Z M 0.96875 0 "/>
</svg>
