<?xml version="1.0" encoding="UTF-8" standalone="no"?>
<!-- Created with Inkscape (http://www.inkscape.org/) -->

<svg
   xmlns:dc="http://purl.org/dc/elements/1.1/"
   xmlns:cc="http://creativecommons.org/ns#"
   xmlns:rdf="http://www.w3.org/1999/02/22-rdf-syntax-ns#"
   xmlns:svg="http://www.w3.org/2000/svg"
   xmlns="http://www.w3.org/2000/svg"
   xmlns:xlink="http://www.w3.org/1999/xlink"
   xmlns:sodipodi="http://sodipodi.sourceforge.net/DTD/sodipodi-0.dtd"
   xmlns:inkscape="http://www.inkscape.org/namespaces/inkscape"
   width="30px"
   height="30px"
   version="1.1"
   id="svg8"
   inkscape:version="0.92.4 5da689c313, 2019-01-14"
   sodipodi:docname="container.svg">
  <defs
     id="defs2" />
  <sodipodi:namedview
     id="base"
     pagecolor="#ffffff"
     bordercolor="#666666"
     borderopacity="1.0"
     inkscape:pageopacity="0.0"
     inkscape:pageshadow="2"
     inkscape:zoom="13.049334"
     inkscape:cx="18.679046"
     inkscape:cy="12.165829"
     inkscape:document-units="px"
     inkscape:current-layer="layer1"
     showgrid="false"
     inkscape:snap-page="false"
     units="px"
     inkscape:window-width="1884"
     inkscape:window-height="1061"
     inkscape:window-x="0"
     inkscape:window-y="0"
     inkscape:window-maximized="1"
     fit-margin-top="0"
     fit-margin-left="0"
     fit-margin-right="0"
     fit-margin-bottom="0" />
  <metadata
     id="metadata5">
    <rdf:RDF>
      <cc:Work
         rdf:about="">
        <dc:format>image/svg+xml</dc:format>
        <dc:type
           rdf:resource="http://purl.org/dc/dcmitype/StillImage" />
        <dc:title></dc:title>
      </cc:Work>
    </rdf:RDF>
  </metadata>
    <circle
       style="color:#000000;clip-rule:nonzero;display:inline;overflow:visible;visibility:visible;opacity:1;isolation:auto;mix-blend-mode:normal;color-interpolation:sRGB;color-interpolation-filters:linearRGB;solid-color:#000000;solid-opacity:1;vector-effect:none;fill:#ffffff;fill-opacity:1;fill-rule:evenodd;stroke:#2a62ac;stroke-width:1;stroke-linecap:butt;stroke-linejoin:miter;stroke-miterlimit:4;stroke-dasharray:none;stroke-dashoffset:0;stroke-opacity:1;marker:none;color-rendering:auto;image-rendering:auto;shape-rendering:auto;text-rendering:auto;enable-background:accumulate"
       id="path815"
       cx="15"
       cy="15"
       r="14.5" />
<g transform="translate(6.5,8.0)"><path fill-rule="nonzero" fill="rgb(30%,30%,30%)" fill-opacity="1" d="M 10.109375 7.4375 C 10.109375 8.222656 9.472656 8.859375 8.6875 8.859375 C 7.902344 8.859375 7.265625 8.222656 7.265625 7.4375 C 7.265625 6.652344 7.902344 6.015625 8.6875 6.015625 C 9.472656 6.015625 10.109375 6.652344 10.109375 7.4375 M 9.199219 7.4375 C 9.199219 7.152344 8.96875 6.925781 8.6875 6.925781 C 8.40625 6.925781 8.175781 7.152344 8.175781 7.4375 C 8.175781 7.71875 8.40625 7.949219 8.6875 7.949219 C 8.96875 7.949219 9.199219 7.71875 9.199219 7.4375 "/>
<path fill-rule="nonzero" fill="rgb(30%,30%,30%)" fill-opacity="1" d="M 16.457031 6.789062 L 15.21875 6.789062 L 15.21875 2.359375 C 15.21875 1.054688 14.164062 0 12.859375 0 L 4.5 0 C 3.199219 0 2.144531 1.054688 2.144531 2.359375 L 2.144531 5.507812 C 2.144531 6.5 2.949219 7.304688 3.941406 7.304688 L 6.839844 7.304688 C 6.882812 6.296875 7.707031 5.492188 8.722656 5.492188 C 9.742188 5.492188 10.566406 6.320312 10.605469 7.328125 L 17 7.328125 C 17 7.03125 16.757812 6.789062 16.457031 6.789062 M 8.777344 2.832031 C 8.777344 3.125 8.539062 3.363281 8.246094 3.363281 L 4.542969 3.363281 C 4.246094 3.363281 4.007812 3.125 4.007812 2.832031 L 4.007812 2.023438 C 4.007812 1.730469 4.246094 1.492188 4.542969 1.492188 L 8.246094 1.492188 C 8.539062 1.492188 8.777344 1.730469 8.777344 2.023438 Z M 13.734375 2.742188 C 13.734375 3.085938 13.457031 3.363281 13.117188 3.363281 L 11.585938 3.363281 C 11.246094 3.363281 10.964844 3.085938 10.964844 2.742188 L 10.964844 2.109375 C 10.964844 1.769531 11.246094 1.492188 11.585938 1.492188 L 13.117188 1.492188 C 13.457031 1.492188 13.734375 1.769531 13.734375 2.109375 Z M 13.734375 2.742188 "/>
<path fill-rule="nonzero" fill="rgb(30%,30%,30%)" fill-opacity="1" d="M 5.648438 8.855469 L 5.648438 9.648438 L 8.382812 9.648438 L 8.382812 12.515625 C 8.382812 13.070312 7.929688 13.523438 7.375 13.523438 L 1.894531 13.523438 C 1.347656 13.523438 0.902344 13.078125 0.902344 12.527344 L 0.902344 9.648438 L 3.367188 9.648438 L 3.367188 8.855469 L 0 8.855469 L 0 13.273438 C 0 13.910156 0.515625 14.425781 1.148438 14.425781 L 15.71875 14.425781 C 16.351562 14.425781 16.867188 13.910156 16.867188 13.273438 L 16.867188 8.855469 Z M 5.648438 8.855469 "/>
<path fill-rule="nonzero" fill="rgb(30%,30%,30%)" fill-opacity="1" d="M 4.808594 10.898438 L 4.808594 7.953125 L 4.207031 7.953125 L 4.207031 10.898438 L 3.234375 10.898438 L 4.507812 12.964844 L 5.839844 10.898438 Z M 4.808594 10.898438 "/>
</g>
</svg>
