<?xml version="1.0" encoding="UTF-8"?>
<svg xmlns="http://www.w3.org/2000/svg" xmlns:xlink="http://www.w3.org/1999/xlink" width="7.624328" height="11" viewBox="0 0 7.624328 11">
<path fill-rule="nonzero" fill="rgb(30%,30%,30%)" fill-opacity="1" d="M 7.480469 0.96875 L 5.3125 0.246094 C 5.199219 0.210938 5.082031 0.273438 5.046875 0.386719 L 3.589844 4.929688 L 2.667969 0.175781 C 2.644531 0.0585938 2.53125 -0.0195312 2.417969 0.00390625 L 0.171875 0.410156 C 0.0546875 0.433594 -0.0195312 0.546875 0.00390625 0.660156 L 1.925781 10.570312 C 1.949219 10.6875 2.058594 10.761719 2.175781 10.742188 L 3.046875 10.582031 L 3.402344 10.703125 L 4.265625 10.988281 C 4.378906 11.027344 4.496094 10.964844 4.53125 10.851562 L 7.613281 1.238281 C 7.648438 1.125 7.589844 1.007812 7.480469 0.96875 Z M 1.011719 2.976562 L 0.636719 1.019531 C 0.628906 0.976562 0.65625 0.929688 0.703125 0.921875 L 2.121094 0.648438 C 2.167969 0.640625 2.210938 0.671875 2.222656 0.714844 L 2.597656 2.671875 C 2.605469 2.71875 2.578125 2.761719 2.53125 2.769531 L 1.113281 3.042969 C 1.066406 3.054688 1.023438 3.023438 1.011719 2.976562 Z M 1.460938 5.296875 L 1.082031 3.339844 C 1.074219 3.292969 1.105469 3.25 1.148438 3.238281 L 2.570312 2.96875 C 2.613281 2.957031 2.660156 2.988281 2.667969 3.035156 L 3.042969 4.988281 C 3.054688 5.035156 3.023438 5.082031 2.976562 5.089844 L 1.558594 5.363281 C 1.511719 5.371094 1.46875 5.339844 1.460938 5.296875 Z M 1.910156 7.636719 L 1.535156 5.679688 C 1.523438 5.632812 1.554688 5.589844 1.601562 5.582031 L 3.019531 5.308594 C 3.066406 5.300781 3.109375 5.328125 3.117188 5.375 L 3.496094 7.332031 C 3.503906 7.378906 3.472656 7.421875 3.429688 7.429688 L 2.007812 7.703125 C 1.964844 7.710938 1.917969 7.683594 1.910156 7.636719 Z M 2.363281 9.980469 L 1.984375 8.023438 C 1.976562 7.976562 2.007812 7.933594 2.050781 7.925781 L 3.472656 7.652344 C 3.515625 7.640625 3.5625 7.671875 3.570312 7.71875 L 3.945312 9.675781 C 3.957031 9.71875 3.925781 9.765625 3.878906 9.773438 L 2.460938 10.046875 C 2.414062 10.054688 2.371094 10.023438 2.363281 9.980469 Z M 4.097656 10.574219 C 4.09375 10.578125 4.085938 10.578125 4.078125 10.578125 C 4.085938 10.578125 4.09375 10.578125 4.097656 10.574219 Z M 4.148438 10.550781 Z M 4.132812 10.5625 C 4.132812 10.5625 4.128906 10.5625 4.128906 10.5625 C 4.128906 10.5625 4.132812 10.5625 4.132812 10.5625 Z M 4.117188 10.566406 C 4.113281 10.570312 4.109375 10.570312 4.105469 10.570312 C 4.109375 10.570312 4.113281 10.570312 4.117188 10.566406 Z M 4.777344 8.289062 L 4.441406 9.328125 L 4.1875 8.007812 L 4.722656 8.179688 C 4.765625 8.195312 4.792969 8.242188 4.777344 8.289062 Z M 5.507812 6.015625 L 4.898438 7.914062 C 4.882812 7.957031 4.835938 7.980469 4.792969 7.96875 L 4.136719 7.757812 L 3.804688 6.042969 L 3.972656 5.523438 C 3.988281 5.476562 4.035156 5.453125 4.078125 5.46875 L 5.453125 5.910156 C 5.5 5.925781 5.523438 5.972656 5.507812 6.015625 Z M 6.238281 3.746094 L 5.628906 5.644531 C 5.613281 5.6875 5.566406 5.710938 5.523438 5.699219 L 4.148438 5.253906 C 4.101562 5.242188 4.078125 5.191406 4.09375 5.148438 L 4.703125 3.253906 C 4.71875 3.207031 4.765625 3.183594 4.808594 3.199219 L 6.183594 3.640625 C 6.230469 3.65625 6.253906 3.703125 6.238281 3.746094 Z M 6.964844 1.5 L 6.351562 3.394531 C 6.339844 3.441406 6.289062 3.464844 6.246094 3.449219 L 4.871094 3.007812 C 4.828125 2.992188 4.800781 2.945312 4.816406 2.902344 L 5.425781 1.003906 C 5.441406 0.960938 5.488281 0.9375 5.535156 0.949219 L 6.910156 1.394531 C 6.953125 1.40625 6.976562 1.457031 6.964844 1.5 Z M 6.964844 1.5 "/>
</svg>
