<?xml version="1.0" encoding="UTF-8" standalone="no"?>
<!-- Created with Inkscape (http://www.inkscape.org/) -->

<svg
   xmlns:dc="http://purl.org/dc/elements/1.1/"
   xmlns:cc="http://creativecommons.org/ns#"
   xmlns:rdf="http://www.w3.org/1999/02/22-rdf-syntax-ns#"
   xmlns:svg="http://www.w3.org/2000/svg"
   xmlns="http://www.w3.org/2000/svg"
   xmlns:xlink="http://www.w3.org/1999/xlink"
   xmlns:sodipodi="http://sodipodi.sourceforge.net/DTD/sodipodi-0.dtd"
   xmlns:inkscape="http://www.inkscape.org/namespaces/inkscape"
   width="30px"
   height="30px"
   version="1.1"
   id="svg8"
   inkscape:version="0.92.4 5da689c313, 2019-01-14"
   sodipodi:docname="container.svg">
  <defs
     id="defs2" />
  <sodipodi:namedview
     id="base"
     pagecolor="#ffffff"
     bordercolor="#666666"
     borderopacity="1.0"
     inkscape:pageopacity="0.0"
     inkscape:pageshadow="2"
     inkscape:zoom="13.049334"
     inkscape:cx="18.679046"
     inkscape:cy="12.165829"
     inkscape:document-units="px"
     inkscape:current-layer="layer1"
     showgrid="false"
     inkscape:snap-page="false"
     units="px"
     inkscape:window-width="1884"
     inkscape:window-height="1061"
     inkscape:window-x="0"
     inkscape:window-y="0"
     inkscape:window-maximized="1"
     fit-margin-top="0"
     fit-margin-left="0"
     fit-margin-right="0"
     fit-margin-bottom="0" />
  <metadata
     id="metadata5">
    <rdf:RDF>
      <cc:Work
         rdf:about="">
        <dc:format>image/svg+xml</dc:format>
        <dc:type
           rdf:resource="http://purl.org/dc/dcmitype/StillImage" />
        <dc:title></dc:title>
      </cc:Work>
    </rdf:RDF>
  </metadata>
    <circle
       style="color:#000000;clip-rule:nonzero;display:inline;overflow:visible;visibility:visible;opacity:1;isolation:auto;mix-blend-mode:normal;color-interpolation:sRGB;color-interpolation-filters:linearRGB;solid-color:#000000;solid-opacity:1;vector-effect:none;fill:#2a62ac;fill-opacity:1;fill-rule:evenodd;stroke:#ffffff;stroke-width:1;stroke-linecap:butt;stroke-linejoin:miter;stroke-miterlimit:4;stroke-dasharray:none;stroke-dashoffset:0;stroke-opacity:1;marker:none;color-rendering:auto;image-rendering:auto;shape-rendering:auto;text-rendering:auto;enable-background:accumulate"
       id="path815"
       cx="15"
       cy="15"
       r="14.5" />
<g transform="translate(9.0,6.5)"><path fill-rule="nonzero" fill="#FFFFFF" fill-opacity="1" d="M 11.558594 1.5 L 8.210938 0.382812 C 8.039062 0.324219 7.851562 0.421875 7.796875 0.597656 L 5.546875 7.617188 L 4.121094 0.269531 C 4.085938 0.0898438 3.914062 -0.0273438 3.738281 0.00390625 L 0.265625 0.636719 C 0.0859375 0.671875 -0.0273438 0.84375 0.0078125 1.023438 L 2.976562 16.335938 C 3.011719 16.515625 3.183594 16.632812 3.359375 16.597656 L 4.707031 16.355469 L 5.261719 16.539062 L 6.59375 16.984375 C 6.765625 17.039062 6.949219 16.941406 7.003906 16.769531 L 11.765625 1.914062 C 11.824219 1.742188 11.730469 1.554688 11.558594 1.5 Z M 1.566406 4.601562 L 0.984375 1.578125 C 0.96875 1.507812 1.015625 1.4375 1.085938 1.425781 L 3.28125 1.003906 C 3.351562 0.988281 3.417969 1.035156 3.433594 1.105469 L 4.015625 4.128906 C 4.027344 4.199219 3.984375 4.269531 3.910156 4.28125 L 1.71875 4.703125 C 1.648438 4.71875 1.578125 4.671875 1.566406 4.601562 Z M 2.257812 8.183594 L 1.675781 5.160156 C 1.660156 5.089844 1.707031 5.019531 1.777344 5.007812 L 3.96875 4.585938 C 4.042969 4.570312 4.109375 4.617188 4.125 4.6875 L 4.707031 7.710938 C 4.71875 7.78125 4.671875 7.851562 4.601562 7.863281 L 2.410156 8.289062 C 2.339844 8.300781 2.269531 8.253906 2.257812 8.183594 Z M 2.953125 11.800781 L 2.371094 8.777344 C 2.355469 8.707031 2.402344 8.640625 2.472656 8.625 L 4.667969 8.203125 C 4.738281 8.191406 4.804688 8.238281 4.820312 8.308594 L 5.402344 11.332031 C 5.414062 11.402344 5.371094 11.46875 5.300781 11.484375 L 3.105469 11.90625 C 3.035156 11.917969 2.96875 11.871094 2.953125 11.800781 Z M 3.652344 15.421875 L 3.066406 12.398438 C 3.054688 12.328125 3.101562 12.261719 3.171875 12.246094 L 5.363281 11.824219 C 5.433594 11.8125 5.503906 11.855469 5.515625 11.925781 L 6.097656 14.949219 C 6.113281 15.023438 6.066406 15.089844 5.996094 15.105469 L 3.804688 15.527344 C 3.734375 15.539062 3.664062 15.492188 3.652344 15.421875 Z M 6.335938 16.34375 C 6.324219 16.34375 6.316406 16.347656 6.304688 16.347656 C 6.316406 16.347656 6.324219 16.34375 6.335938 16.34375 Z M 6.414062 16.308594 C 6.414062 16.308594 6.410156 16.308594 6.410156 16.308594 C 6.410156 16.308594 6.414062 16.308594 6.414062 16.308594 Z M 6.386719 16.320312 C 6.386719 16.320312 6.382812 16.324219 6.378906 16.324219 C 6.382812 16.324219 6.386719 16.320312 6.386719 16.320312 Z M 6.363281 16.332031 C 6.355469 16.335938 6.351562 16.335938 6.347656 16.335938 C 6.351562 16.335938 6.355469 16.335938 6.363281 16.332031 Z M 7.382812 12.808594 L 6.867188 14.414062 L 6.46875 12.375 L 7.296875 12.644531 C 7.367188 12.664062 7.40625 12.738281 7.382812 12.808594 Z M 8.511719 9.296875 L 7.570312 12.230469 C 7.546875 12.296875 7.472656 12.335938 7.40625 12.3125 L 6.394531 11.988281 L 5.878906 9.335938 L 6.140625 8.535156 C 6.160156 8.464844 6.234375 8.425781 6.304688 8.449219 L 8.429688 9.132812 C 8.496094 9.15625 8.535156 9.230469 8.511719 9.296875 Z M 9.644531 5.789062 L 8.699219 8.722656 C 8.675781 8.789062 8.601562 8.828125 8.535156 8.804688 L 6.410156 8.121094 C 6.339844 8.097656 6.304688 8.023438 6.324219 7.957031 L 7.269531 5.027344 C 7.292969 4.957031 7.363281 4.917969 7.433594 4.941406 L 9.558594 5.625 C 9.628906 5.648438 9.664062 5.722656 9.644531 5.789062 Z M 10.761719 2.316406 L 9.816406 5.25 C 9.796875 5.316406 9.722656 5.355469 9.652344 5.332031 L 7.527344 4.648438 C 7.460938 4.625 7.421875 4.550781 7.445312 4.484375 L 8.386719 1.554688 C 8.410156 1.484375 8.484375 1.445312 8.550781 1.46875 L 10.675781 2.152344 C 10.746094 2.175781 10.785156 2.25 10.761719 2.316406 Z M 10.761719 2.316406 "/>
</g>
</svg>
