<?xml version="1.0" encoding="UTF-8" standalone="no"?>
<!-- Created with Inkscape (http://www.inkscape.org/) -->

<svg
   xmlns:dc="http://purl.org/dc/elements/1.1/"
   xmlns:cc="http://creativecommons.org/ns#"
   xmlns:rdf="http://www.w3.org/1999/02/22-rdf-syntax-ns#"
   xmlns:svg="http://www.w3.org/2000/svg"
   xmlns="http://www.w3.org/2000/svg"
   xmlns:xlink="http://www.w3.org/1999/xlink"
   xmlns:sodipodi="http://sodipodi.sourceforge.net/DTD/sodipodi-0.dtd"
   xmlns:inkscape="http://www.inkscape.org/namespaces/inkscape"
   width="30px"
   height="30px"
   version="1.1"
   id="svg8"
   inkscape:version="0.92.4 5da689c313, 2019-01-14"
   sodipodi:docname="container.svg">
  <defs
     id="defs2" />
  <sodipodi:namedview
     id="base"
     pagecolor="#ffffff"
     bordercolor="#666666"
     borderopacity="1.0"
     inkscape:pageopacity="0.0"
     inkscape:pageshadow="2"
     inkscape:zoom="13.049334"
     inkscape:cx="18.679046"
     inkscape:cy="12.165829"
     inkscape:document-units="px"
     inkscape:current-layer="layer1"
     showgrid="false"
     inkscape:snap-page="false"
     units="px"
     inkscape:window-width="1884"
     inkscape:window-height="1061"
     inkscape:window-x="0"
     inkscape:window-y="0"
     inkscape:window-maximized="1"
     fit-margin-top="0"
     fit-margin-left="0"
     fit-margin-right="0"
     fit-margin-bottom="0" />
  <metadata
     id="metadata5">
    <rdf:RDF>
      <cc:Work
         rdf:about="">
        <dc:format>image/svg+xml</dc:format>
        <dc:type
           rdf:resource="http://purl.org/dc/dcmitype/StillImage" />
        <dc:title></dc:title>
      </cc:Work>
    </rdf:RDF>
  </metadata>
    <circle
       style="color:#000000;clip-rule:nonzero;display:inline;overflow:visible;visibility:visible;opacity:1;isolation:auto;mix-blend-mode:normal;color-interpolation:sRGB;color-interpolation-filters:linearRGB;solid-color:#000000;solid-opacity:1;vector-effect:none;fill:#2a62ac;fill-opacity:1;fill-rule:evenodd;stroke:#ffffff;stroke-width:1;stroke-linecap:butt;stroke-linejoin:miter;stroke-miterlimit:4;stroke-dasharray:none;stroke-dashoffset:0;stroke-opacity:1;marker:none;color-rendering:auto;image-rendering:auto;shape-rendering:auto;text-rendering:auto;enable-background:accumulate"
       id="path815"
       cx="15"
       cy="15"
       r="14.5" />
<g transform="translate(9.0,6.5)"><path fill-rule="nonzero" fill="#FFFFFF" fill-opacity="1" d="M 0.53125 1.804688 L 11.84375 1.804688 C 12.148438 1.804688 12.394531 2.046875 12.394531 2.351562 L 12.394531 2.371094 C 12.394531 2.664062 12.15625 2.902344 11.863281 2.902344 L 0.550781 2.902344 C 0.246094 2.902344 0 2.65625 0 2.351562 L 0 2.332031 C 0 2.039062 0.238281 1.804688 0.53125 1.804688 Z M 0.53125 1.804688 "/>
<path fill-rule="nonzero" fill="#FFFFFF" fill-opacity="1" d="M 3.589844 0 L 8.78125 0 C 9.074219 0 9.308594 0.238281 9.308594 0.53125 L 9.308594 0.714844 C 9.308594 0.925781 9.140625 1.097656 8.929688 1.097656 L 3.589844 1.097656 C 3.296875 1.097656 3.0625 0.863281 3.0625 0.570312 L 3.0625 0.53125 C 3.0625 0.238281 3.296875 0 3.589844 0 Z M 3.589844 0 "/>
<path fill-rule="nonzero" fill="#FFFFFF" fill-opacity="1" d="M 11.449219 4.234375 C 11.449219 3.941406 11.210938 3.699219 10.914062 3.699219 C 10.605469 3.699219 10.351562 3.953125 10.351562 4.261719 L 10.351562 15.867188 C 10.351562 15.886719 10.335938 15.902344 10.320312 15.902344 L 9.105469 15.902344 C 9.089844 15.902344 9.074219 15.886719 9.074219 15.867188 L 9.074219 4.261719 C 9.074219 3.953125 8.820312 3.699219 8.511719 3.699219 C 8.214844 3.699219 7.976562 3.941406 7.976562 4.234375 L 7.976562 15.867188 C 7.976562 15.886719 7.960938 15.902344 7.941406 15.902344 L 6.769531 15.902344 C 6.75 15.902344 6.734375 15.886719 6.734375 15.867188 L 6.734375 4.261719 C 6.734375 3.953125 6.484375 3.699219 6.171875 3.699219 C 5.878906 3.699219 5.636719 3.941406 5.636719 4.234375 L 5.636719 15.867188 C 5.636719 15.886719 5.621094 15.902344 5.605469 15.902344 L 4.457031 15.902344 C 4.4375 15.902344 4.421875 15.886719 4.421875 15.867188 L 4.421875 4.234375 C 4.421875 3.941406 4.183594 3.699219 3.886719 3.699219 C 3.574219 3.699219 3.324219 3.953125 3.324219 4.261719 L 3.324219 15.867188 C 3.324219 15.886719 3.308594 15.902344 3.292969 15.902344 L 2.074219 15.902344 C 2.058594 15.902344 2.042969 15.886719 2.042969 15.867188 L 2.042969 4.246094 C 2.042969 3.945312 1.796875 3.699219 1.496094 3.699219 L 1.480469 3.699219 C 1.183594 3.699219 0.945312 3.941406 0.945312 4.234375 L 0.945312 15.902344 L 0.929688 15.902344 L 0.929688 16.46875 C 0.929688 16.761719 1.167969 17 1.460938 17 L 10.917969 17 C 11.210938 17 11.445312 16.761719 11.445312 16.46875 L 11.445312 16.457031 C 11.445312 16.457031 11.445312 16.453125 11.445312 16.453125 C 11.449219 16.433594 11.449219 16.414062 11.449219 16.394531 Z M 11.449219 4.234375 "/>
</g>
</svg>
