<?xml version="1.0" encoding="UTF-8"?>
<svg xmlns="http://www.w3.org/2000/svg" xmlns:xlink="http://www.w3.org/1999/xlink" width="11" height="6.081067" viewBox="0 0 11 6.081067">
<path fill-rule="nonzero" fill="rgb(30%,30%,30%)" fill-opacity="1" d="M 2.519531 0.363281 L 2.023438 0.359375 L 2.023438 0.175781 C 2.023438 0.078125 1.921875 0 1.792969 0 C 1.664062 0 1.558594 0.078125 1.558594 0.175781 L 1.558594 0.355469 L 1.058594 0.355469 L 0.339844 1.738281 L 0 1.738281 L 0 6.082031 L 3.539062 6.082031 L 3.539062 1.738281 L 3.253906 1.738281 Z M 1.058594 1.113281 L 2.523438 1.113281 L 2.515625 1.757812 L 1.054688 1.757812 Z M 1.058594 1.113281 "/>
<path fill-rule="nonzero" fill="rgb(30%,30%,30%)" fill-opacity="1" d="M 6.25 0.363281 L 5.753906 0.359375 L 5.753906 0.175781 C 5.753906 0.078125 5.648438 0 5.523438 0 C 5.394531 0 5.289062 0.078125 5.289062 0.175781 L 5.289062 0.355469 L 4.785156 0.355469 L 4.070312 1.738281 L 3.730469 1.738281 L 3.730469 6.082031 L 7.269531 6.082031 L 7.269531 1.738281 L 6.984375 1.738281 Z M 4.789062 1.113281 L 6.253906 1.113281 L 6.246094 1.757812 L 4.785156 1.757812 Z M 4.789062 1.113281 "/>
<path fill-rule="nonzero" fill="rgb(30%,30%,30%)" fill-opacity="1" d="M 9.980469 0.363281 L 9.484375 0.359375 L 9.484375 0.175781 C 9.484375 0.078125 9.378906 0 9.25 0 C 9.121094 0 9.019531 0.078125 9.019531 0.175781 L 9.019531 0.355469 L 8.515625 0.355469 L 7.800781 1.738281 L 7.460938 1.738281 L 7.460938 6.082031 L 11 6.082031 L 11 1.738281 L 10.714844 1.738281 Z M 8.519531 1.113281 L 9.984375 1.113281 L 9.976562 1.757812 L 8.511719 1.757812 Z M 8.519531 1.113281 "/>
</svg>
