<?xml version="1.0" encoding="UTF-8" standalone="no"?>
<!-- Created with Inkscape (http://www.inkscape.org/) -->

<svg
   xmlns:dc="http://purl.org/dc/elements/1.1/"
   xmlns:cc="http://creativecommons.org/ns#"
   xmlns:rdf="http://www.w3.org/1999/02/22-rdf-syntax-ns#"
   xmlns:svg="http://www.w3.org/2000/svg"
   xmlns="http://www.w3.org/2000/svg"
   xmlns:xlink="http://www.w3.org/1999/xlink"
   xmlns:sodipodi="http://sodipodi.sourceforge.net/DTD/sodipodi-0.dtd"
   xmlns:inkscape="http://www.inkscape.org/namespaces/inkscape"
   width="30px"
   height="30px"
   version="1.1"
   id="svg8"
   inkscape:version="0.92.4 5da689c313, 2019-01-14"
   sodipodi:docname="container.svg">
  <defs
     id="defs2" />
  <sodipodi:namedview
     id="base"
     pagecolor="#ffffff"
     bordercolor="#666666"
     borderopacity="1.0"
     inkscape:pageopacity="0.0"
     inkscape:pageshadow="2"
     inkscape:zoom="13.049334"
     inkscape:cx="18.679046"
     inkscape:cy="12.165829"
     inkscape:document-units="px"
     inkscape:current-layer="layer1"
     showgrid="false"
     inkscape:snap-page="false"
     units="px"
     inkscape:window-width="1884"
     inkscape:window-height="1061"
     inkscape:window-x="0"
     inkscape:window-y="0"
     inkscape:window-maximized="1"
     fit-margin-top="0"
     fit-margin-left="0"
     fit-margin-right="0"
     fit-margin-bottom="0" />
  <metadata
     id="metadata5">
    <rdf:RDF>
      <cc:Work
         rdf:about="">
        <dc:format>image/svg+xml</dc:format>
        <dc:type
           rdf:resource="http://purl.org/dc/dcmitype/StillImage" />
        <dc:title></dc:title>
      </cc:Work>
    </rdf:RDF>
  </metadata>
    <circle
       style="color:#000000;clip-rule:nonzero;display:inline;overflow:visible;visibility:visible;opacity:1;isolation:auto;mix-blend-mode:normal;color-interpolation:sRGB;color-interpolation-filters:linearRGB;solid-color:#000000;solid-opacity:1;vector-effect:none;fill:#2a62ac;fill-opacity:1;fill-rule:evenodd;stroke:#ffffff;stroke-width:1;stroke-linecap:butt;stroke-linejoin:miter;stroke-miterlimit:4;stroke-dasharray:none;stroke-dashoffset:0;stroke-opacity:1;marker:none;color-rendering:auto;image-rendering:auto;shape-rendering:auto;text-rendering:auto;enable-background:accumulate"
       id="path815"
       cx="15"
       cy="15"
       r="14.5" />
<g transform="translate(6.5,6.5)"><path fill-rule="nonzero" fill="#FFFFFF" fill-opacity="1" d="M 16.941406 1.152344 L 16.9375 0.882812 L 16.9375 0.0234375 L 16.917969 0.0234375 L 0 0 L 0.0234375 1.128906 L 0.0234375 3.6875 L 1.226562 3.6875 L 1.226562 1.132812 L 15.734375 1.152344 L 15.734375 3.6875 L 16.9375 3.6875 L 16.9375 1.152344 Z M 16.941406 1.152344 "/>
<path fill-rule="nonzero" fill="#FFFFFF" fill-opacity="1" d="M 15.71875 17 L 14.546875 14.605469 L 14.546875 2.421875 L 2.398438 2.421875 L 2.398438 14.675781 L 1.222656 16.976562 Z M 13.347656 15.457031 L 13.011719 15.867188 L 4 15.851562 L 3.601562 15.457031 L 3.601562 6.039062 L 13.347656 6.054688 Z M 13.347656 3.585938 L 13.347656 4.925781 L 3.601562 4.90625 L 3.601562 3.566406 Z M 13.347656 3.585938 "/>
<path fill-rule="nonzero" fill="#FFFFFF" fill-opacity="1" d="M 10.863281 12.117188 L 9.953125 12.117188 C 10.464844 12.089844 10.863281 11.667969 10.867188 11.160156 L 10.867188 10.980469 C 10.863281 10.316406 10.328125 9.777344 9.664062 9.777344 L 9.648438 9.777344 C 9.671875 9.417969 9.675781 8.808594 9.507812 8.398438 C 9.175781 7.601562 8.375 7.269531 8.375 7.269531 C 8.375 7.269531 8.636719 8.566406 8.023438 9.128906 C 7.730469 9.398438 7.457031 9.617188 7.25 9.777344 C 6.617188 9.777344 6.105469 10.289062 6.105469 10.921875 L 6.105469 11.160156 C 6.105469 11.667969 6.507812 12.089844 7.015625 12.117188 L 6.007812 12.117188 C 5.359375 12.117188 4.8125 12.617188 4.777344 13.265625 C 4.761719 13.597656 4.882812 13.921875 5.109375 14.164062 C 5.339844 14.402344 5.65625 14.539062 5.988281 14.542969 L 10.882812 14.542969 C 11.214844 14.539062 11.53125 14.402344 11.761719 14.164062 C 11.988281 13.921875 12.109375 13.597656 12.09375 13.265625 C 12.058594 12.617188 11.511719 12.117188 10.863281 12.117188 Z M 10.863281 12.117188 "/>
</g>
</svg>
