<?xml version="1.0" encoding="UTF-8"?>
<svg xmlns="http://www.w3.org/2000/svg" xmlns:xlink="http://www.w3.org/1999/xlink" width="10.951111" height="11" viewBox="0 0 10.951111 11">
<path fill-rule="nonzero" fill="rgb(30%,30%,30%)" fill-opacity="1" d="M 8.175781 11 L 3.5625 6.414062 L 8.175781 1.878906 L 1.6875 1.878906 L 1.6875 11 Z M 4.730469 6.414062 C 4.773438 6.453125 8.789062 10.394531 8.9375 10.539062 L 8.9375 2.273438 C 8.738281 2.46875 4.785156 6.355469 4.730469 6.414062 Z M 4.730469 6.414062 "/>
<path fill-rule="nonzero" fill="rgb(30%,30%,30%)" fill-opacity="1" d="M 10.320312 0 L 0.628906 0 C 0.28125 0 0 0.28125 0 0.628906 L 0 2.207031 C 0 2.554688 0.28125 2.835938 0.628906 2.835938 L 0.929688 2.835938 L 0.929688 1.027344 L 9.925781 1.027344 L 9.925781 2.835938 L 10.320312 2.835938 C 10.667969 2.835938 10.949219 2.554688 10.949219 2.207031 L 10.949219 0.628906 C 10.949219 0.28125 10.667969 0 10.320312 0 Z M 10.320312 0 "/>
</svg>
