<?xml version="1.0" encoding="UTF-8" standalone="no"?>
<!-- Created with Inkscape (http://www.inkscape.org/) -->

<svg
   xmlns:dc="http://purl.org/dc/elements/1.1/"
   xmlns:cc="http://creativecommons.org/ns#"
   xmlns:rdf="http://www.w3.org/1999/02/22-rdf-syntax-ns#"
   xmlns:svg="http://www.w3.org/2000/svg"
   xmlns="http://www.w3.org/2000/svg"
   xmlns:xlink="http://www.w3.org/1999/xlink"
   xmlns:sodipodi="http://sodipodi.sourceforge.net/DTD/sodipodi-0.dtd"
   xmlns:inkscape="http://www.inkscape.org/namespaces/inkscape"
   width="30px"
   height="30px"
   version="1.1"
   id="svg8"
   inkscape:version="0.92.4 5da689c313, 2019-01-14"
   sodipodi:docname="container.svg">
  <defs
     id="defs2" />
  <sodipodi:namedview
     id="base"
     pagecolor="#ffffff"
     bordercolor="#666666"
     borderopacity="1.0"
     inkscape:pageopacity="0.0"
     inkscape:pageshadow="2"
     inkscape:zoom="13.049334"
     inkscape:cx="18.679046"
     inkscape:cy="12.165829"
     inkscape:document-units="px"
     inkscape:current-layer="layer1"
     showgrid="false"
     inkscape:snap-page="false"
     units="px"
     inkscape:window-width="1884"
     inkscape:window-height="1061"
     inkscape:window-x="0"
     inkscape:window-y="0"
     inkscape:window-maximized="1"
     fit-margin-top="0"
     fit-margin-left="0"
     fit-margin-right="0"
     fit-margin-bottom="0" />
  <metadata
     id="metadata5">
    <rdf:RDF>
      <cc:Work
         rdf:about="">
        <dc:format>image/svg+xml</dc:format>
        <dc:type
           rdf:resource="http://purl.org/dc/dcmitype/StillImage" />
        <dc:title></dc:title>
      </cc:Work>
    </rdf:RDF>
  </metadata>
    <circle
       style="color:#000000;clip-rule:nonzero;display:inline;overflow:visible;visibility:visible;opacity:1;isolation:auto;mix-blend-mode:normal;color-interpolation:sRGB;color-interpolation-filters:linearRGB;solid-color:#000000;solid-opacity:1;vector-effect:none;fill:#2a62ac;fill-opacity:1;fill-rule:evenodd;stroke:#ffffff;stroke-width:1;stroke-linecap:butt;stroke-linejoin:miter;stroke-miterlimit:4;stroke-dasharray:none;stroke-dashoffset:0;stroke-opacity:1;marker:none;color-rendering:auto;image-rendering:auto;shape-rendering:auto;text-rendering:auto;enable-background:accumulate"
       id="path815"
       cx="15"
       cy="15"
       r="14.5" />
<g transform="translate(6.5,6.5)"><path fill-rule="nonzero" fill="#FFFFFF" fill-opacity="1" d="M 9.679688 11.507812 C 10.265625 11.507812 10.738281 11.984375 10.738281 12.566406 C 10.738281 13.152344 10.265625 13.628906 9.679688 13.628906 C 9.097656 13.628906 8.621094 13.152344 8.621094 12.566406 C 8.621094 11.984375 9.09375 11.507812 9.679688 11.507812 Z M 9.679688 8.175781 C 10.265625 8.175781 10.738281 8.652344 10.738281 9.234375 C 10.738281 9.820312 10.265625 10.296875 9.679688 10.296875 C 9.097656 10.296875 8.621094 9.820312 8.621094 9.234375 C 8.621094 8.652344 9.09375 8.175781 9.679688 8.175781 Z M 9.679688 14.839844 C 10.265625 14.839844 10.738281 15.3125 10.738281 15.898438 C 10.738281 16.480469 10.265625 16.957031 9.679688 16.957031 C 9.097656 16.957031 8.621094 16.480469 8.621094 15.898438 C 8.621094 15.3125 9.09375 14.839844 9.679688 14.839844 Z M 6.046875 11.507812 C 6.632812 11.507812 7.105469 11.984375 7.105469 12.566406 C 7.105469 13.152344 6.628906 13.628906 6.046875 13.628906 C 5.460938 13.628906 4.988281 13.152344 4.988281 12.566406 C 4.988281 11.984375 5.460938 11.507812 6.046875 11.507812 Z M 6.714844 8.246094 C 7.300781 8.246094 7.773438 8.71875 7.773438 9.304688 C 7.773438 9.886719 7.296875 10.363281 6.714844 10.363281 C 6.128906 10.363281 5.65625 9.886719 5.65625 9.304688 C 5.65625 8.71875 6.128906 8.246094 6.714844 8.246094 Z M 5.375 14.773438 C 5.960938 14.773438 6.4375 15.246094 6.4375 15.832031 C 6.4375 16.414062 5.960938 16.890625 5.375 16.890625 C 4.792969 16.890625 4.316406 16.414062 4.316406 15.832031 C 4.316406 15.246094 4.792969 14.773438 5.375 14.773438 Z M 2.414062 10.296875 C 3 10.296875 3.472656 10.773438 3.472656 11.355469 C 3.472656 11.941406 2.996094 12.417969 2.414062 12.417969 C 1.828125 12.417969 1.351562 11.941406 1.351562 11.355469 C 1.351562 10.773438 1.828125 10.296875 2.414062 10.296875 Z M 3.765625 7.25 C 4.351562 7.25 4.824219 7.726562 4.824219 8.3125 C 4.824219 8.894531 4.347656 9.371094 3.765625 9.371094 C 3.179688 9.371094 2.703125 8.894531 2.703125 8.3125 C 2.703125 7.726562 3.179688 7.25 3.765625 7.25 Z M 1.058594 13.339844 C 1.644531 13.339844 2.117188 13.816406 2.117188 14.398438 C 2.117188 14.984375 1.644531 15.460938 1.058594 15.460938 C 0.472656 15.460938 0 14.988281 0 14.402344 C 0 13.816406 0.476562 13.339844 1.058594 13.339844 Z M 17 1.816406 L 17 0 L 8.21875 0 L 8.21875 0.0429688 C 7.808594 0.0507812 7.453125 0.335938 7.351562 0.730469 L 6.871094 2.707031 C 5.320312 2.863281 3.988281 4.027344 3.75 5.617188 L 10.636719 6.660156 C 10.875 5.097656 10.042969 3.621094 8.671875 3 L 8.960938 1.816406 Z M 17 1.816406 "/>
</g>
</svg>
