<?xml version="1.0" encoding="UTF-8" standalone="no"?>
<!-- Created with Inkscape (http://www.inkscape.org/) -->

<svg
   xmlns:dc="http://purl.org/dc/elements/1.1/"
   xmlns:cc="http://creativecommons.org/ns#"
   xmlns:rdf="http://www.w3.org/1999/02/22-rdf-syntax-ns#"
   xmlns:svg="http://www.w3.org/2000/svg"
   xmlns="http://www.w3.org/2000/svg"
   xmlns:xlink="http://www.w3.org/1999/xlink"
   xmlns:sodipodi="http://sodipodi.sourceforge.net/DTD/sodipodi-0.dtd"
   xmlns:inkscape="http://www.inkscape.org/namespaces/inkscape"
   width="30px"
   height="30px"
   version="1.1"
   id="svg8"
   inkscape:version="0.92.4 5da689c313, 2019-01-14"
   sodipodi:docname="container.svg">
  <defs
     id="defs2" />
  <sodipodi:namedview
     id="base"
     pagecolor="#ffffff"
     bordercolor="#666666"
     borderopacity="1.0"
     inkscape:pageopacity="0.0"
     inkscape:pageshadow="2"
     inkscape:zoom="13.049334"
     inkscape:cx="18.679046"
     inkscape:cy="12.165829"
     inkscape:document-units="px"
     inkscape:current-layer="layer1"
     showgrid="false"
     inkscape:snap-page="false"
     units="px"
     inkscape:window-width="1884"
     inkscape:window-height="1061"
     inkscape:window-x="0"
     inkscape:window-y="0"
     inkscape:window-maximized="1"
     fit-margin-top="0"
     fit-margin-left="0"
     fit-margin-right="0"
     fit-margin-bottom="0" />
  <metadata
     id="metadata5">
    <rdf:RDF>
      <cc:Work
         rdf:about="">
        <dc:format>image/svg+xml</dc:format>
        <dc:type
           rdf:resource="http://purl.org/dc/dcmitype/StillImage" />
        <dc:title></dc:title>
      </cc:Work>
    </rdf:RDF>
  </metadata>
    <circle
       style="color:#000000;clip-rule:nonzero;display:inline;overflow:visible;visibility:visible;opacity:1;isolation:auto;mix-blend-mode:normal;color-interpolation:sRGB;color-interpolation-filters:linearRGB;solid-color:#000000;solid-opacity:1;vector-effect:none;fill:#2a62ac;fill-opacity:1;fill-rule:evenodd;stroke:#ffffff;stroke-width:1;stroke-linecap:butt;stroke-linejoin:miter;stroke-miterlimit:4;stroke-dasharray:none;stroke-dashoffset:0;stroke-opacity:1;marker:none;color-rendering:auto;image-rendering:auto;shape-rendering:auto;text-rendering:auto;enable-background:accumulate"
       id="path815"
       cx="15"
       cy="15"
       r="14.5" />
<g transform="translate(6.5,6.5)"><path fill-rule="nonzero" fill="#FFFFFF" fill-opacity="1" d="M 16.476562 13.476562 L 12.894531 11.625 C 12.398438 11.375 11.839844 11.691406 11.535156 11.992188 L 11.066406 12.464844 L 16.65625 15.226562 C 17.109375 14.578125 17.117188 13.796875 16.476562 13.476562 Z M 16.476562 13.476562 "/>
<path fill-rule="nonzero" fill="#FFFFFF" fill-opacity="1" d="M 8.851562 12.472656 L 4.570312 8.191406 C 4.050781 7.671875 3.964844 6.863281 4.363281 6.246094 L 1.5625 0.597656 L 1.476562 0.683594 C 0.363281 1.796875 -0.167969 3.136719 0.046875 4.582031 C 0.207031 5.640625 2.515625 8.78125 3.382812 9.648438 L 6.71875 13.105469 C 7.542969 13.933594 11.203125 16.769531 12.277344 16.933594 C 13.882812 17.183594 15.203125 16.722656 16.363281 15.566406 L 16.40625 15.523438 C 16.40625 15.519531 16.410156 15.519531 16.410156 15.519531 L 10.679688 12.683594 C 10.113281 12.882812 9.210938 12.871094 8.851562 12.472656 Z M 8.851562 12.472656 "/>
<path fill-rule="nonzero" fill="#FFFFFF" fill-opacity="1" d="M 5.113281 5.449219 C 5.414062 5.144531 5.605469 4.460938 5.234375 3.839844 L 3.628906 0.628906 C 3.175781 -0.167969 2.421875 -0.136719 1.84375 0.328125 L 4.625 5.9375 Z M 5.113281 5.449219 "/>
</g>
</svg>
