<?xml version="1.0" encoding="UTF-8" standalone="no"?>
<!-- Created with Inkscape (http://www.inkscape.org/) -->

<svg
   xmlns:dc="http://purl.org/dc/elements/1.1/"
   xmlns:cc="http://creativecommons.org/ns#"
   xmlns:rdf="http://www.w3.org/1999/02/22-rdf-syntax-ns#"
   xmlns:svg="http://www.w3.org/2000/svg"
   xmlns="http://www.w3.org/2000/svg"
   xmlns:xlink="http://www.w3.org/1999/xlink"
   xmlns:sodipodi="http://sodipodi.sourceforge.net/DTD/sodipodi-0.dtd"
   xmlns:inkscape="http://www.inkscape.org/namespaces/inkscape"
   width="30px"
   height="30px"
   version="1.1"
   id="svg8"
   inkscape:version="0.92.4 5da689c313, 2019-01-14"
   sodipodi:docname="container.svg">
  <defs
     id="defs2" />
  <sodipodi:namedview
     id="base"
     pagecolor="#ffffff"
     bordercolor="#666666"
     borderopacity="1.0"
     inkscape:pageopacity="0.0"
     inkscape:pageshadow="2"
     inkscape:zoom="13.049334"
     inkscape:cx="18.679046"
     inkscape:cy="12.165829"
     inkscape:document-units="px"
     inkscape:current-layer="layer1"
     showgrid="false"
     inkscape:snap-page="false"
     units="px"
     inkscape:window-width="1884"
     inkscape:window-height="1061"
     inkscape:window-x="0"
     inkscape:window-y="0"
     inkscape:window-maximized="1"
     fit-margin-top="0"
     fit-margin-left="0"
     fit-margin-right="0"
     fit-margin-bottom="0" />
  <metadata
     id="metadata5">
    <rdf:RDF>
      <cc:Work
         rdf:about="">
        <dc:format>image/svg+xml</dc:format>
        <dc:type
           rdf:resource="http://purl.org/dc/dcmitype/StillImage" />
        <dc:title></dc:title>
      </cc:Work>
    </rdf:RDF>
  </metadata>
    <circle
       style="color:#000000;clip-rule:nonzero;display:inline;overflow:visible;visibility:visible;opacity:1;isolation:auto;mix-blend-mode:normal;color-interpolation:sRGB;color-interpolation-filters:linearRGB;solid-color:#000000;solid-opacity:1;vector-effect:none;fill:#ffffff;fill-opacity:1;fill-rule:evenodd;stroke:#2a62ac;stroke-width:1;stroke-linecap:butt;stroke-linejoin:miter;stroke-miterlimit:4;stroke-dasharray:none;stroke-dashoffset:0;stroke-opacity:1;marker:none;color-rendering:auto;image-rendering:auto;shape-rendering:auto;text-rendering:auto;enable-background:accumulate"
       id="path815"
       cx="15"
       cy="15"
       r="14.5" />
<g transform="translate(8.5,6.5)"><path fill-rule="nonzero" fill="rgb(30%,30%,30%)" fill-opacity="1" d="M 12.765625 10.652344 L 11.726562 10.640625 C 11.65625 8.410156 9.464844 6.792969 6.476562 6.78125 C 4.90625 6.777344 3.449219 7.335938 2.480469 8.316406 C 1.800781 9.007812 1.429688 9.839844 1.429688 10.65625 L 0.542969 10.652344 C 0.242188 10.652344 0 10.894531 0 11.191406 C 0 11.476562 0.0429688 11.800781 0.96875 11.875 C 0.632812 12.25 0.605469 12.671875 0.605469 13.113281 C 0.605469 13.574219 0.769531 14.273438 1.136719 14.734375 C 1.125 14.789062 1.117188 14.847656 1.117188 14.910156 L 1.117188 16.203125 C 1.117188 16.640625 1.476562 17 1.914062 17 L 2.386719 17 C 2.824219 17 3.179688 16.640625 3.179688 16.203125 L 3.179688 15.570312 C 3.183594 15.570312 3.1875 15.570312 3.191406 15.570312 C 4.117188 15.648438 8.988281 15.648438 10.148438 15.550781 L 10.148438 16.203125 C 10.148438 16.640625 10.507812 17 10.945312 17 L 11.417969 17 C 11.855469 17 12.210938 16.640625 12.210938 16.203125 L 12.210938 14.910156 C 12.210938 14.863281 12.207031 14.816406 12.199219 14.773438 C 12.546875 14.355469 12.679688 13.554688 12.679688 13.113281 C 12.679688 12.703125 12.644531 12.242188 12.347656 11.882812 C 12.464844 11.855469 12.574219 11.824219 12.671875 11.792969 C 13.128906 11.652344 13.308594 11.488281 13.308594 11.191406 C 13.308594 10.894531 13.0625 10.652344 12.765625 10.652344 Z M 2.902344 14.820312 C 2.375 14.820312 1.945312 14.394531 1.945312 13.867188 C 1.945312 13.339844 2.375 12.910156 2.902344 12.910156 C 3.429688 12.910156 3.855469 13.339844 3.855469 13.867188 C 3.855469 14.394531 3.429688 14.820312 2.902344 14.820312 Z M 6.5 12.613281 C 6.140625 12.625 5.453125 12.636719 5.085938 12.570312 C 3.664062 12.433594 2.847656 12.019531 2.390625 11.671875 C 2.042969 11.421875 2.007812 11.300781 1.980469 11.269531 C 1.9375 11.078125 1.914062 10.886719 1.910156 10.691406 C 1.894531 9.988281 2.21875 9.265625 2.824219 8.652344 C 3.695312 7.765625 5.019531 7.261719 6.453125 7.261719 C 6.460938 7.261719 6.46875 7.261719 6.476562 7.261719 C 9.222656 7.269531 11.230469 8.726562 11.25 10.71875 C 11.253906 10.929688 11.226562 11.136719 11.171875 11.34375 C 11.105469 11.398438 10.929688 11.5625 10.558594 11.742188 C 10.003906 12.03125 9.136719 12.355469 7.820312 12.515625 C 7.0625 12.605469 6.824219 12.601562 6.5 12.613281 Z M 10.496094 14.820312 C 9.96875 14.820312 9.542969 14.394531 9.542969 13.867188 C 9.542969 13.339844 9.96875 12.910156 10.496094 12.910156 C 11.023438 12.910156 11.453125 13.339844 11.453125 13.867188 C 11.453125 14.394531 11.023438 14.820312 10.496094 14.820312 Z M 10.496094 14.820312 "/>
<path fill-rule="nonzero" fill="rgb(30%,30%,30%)" fill-opacity="1" d="M 9.003906 5.148438 C 8.984375 5.097656 8.917969 4.972656 8.878906 4.921875 C 8.613281 4.480469 8.207031 3.730469 8.074219 3.246094 C 7.894531 3.738281 7.308594 4.824219 7.152344 5.140625 C 7.089844 5.269531 7.082031 5.441406 7.082031 5.570312 C 7.082031 6.121094 7.527344 6.566406 8.074219 6.566406 C 8.625 6.566406 9.070312 6.121094 9.070312 5.570312 C 9.070312 5.457031 9.054688 5.28125 9.003906 5.148438 Z M 9.003906 5.148438 "/>
<path fill-rule="nonzero" fill="rgb(30%,30%,30%)" fill-opacity="1" d="M 12.246094 5.164062 C 12.226562 5.117188 12.15625 4.988281 12.121094 4.941406 C 11.855469 4.5 11.449219 3.746094 11.316406 3.265625 C 11.136719 3.757812 10.546875 4.839844 10.394531 5.160156 C 10.328125 5.289062 10.320312 5.460938 10.320312 5.589844 C 10.320312 6.136719 10.765625 6.582031 11.316406 6.582031 C 11.867188 6.582031 12.3125 6.136719 12.3125 5.589844 C 12.3125 5.476562 12.296875 5.300781 12.246094 5.164062 Z M 12.246094 5.164062 "/>
<path fill-rule="nonzero" fill="rgb(30%,30%,30%)" fill-opacity="1" d="M 5.765625 5.148438 C 5.746094 5.097656 5.675781 4.972656 5.640625 4.921875 C 5.375 4.480469 4.96875 3.730469 4.835938 3.246094 C 4.65625 3.738281 4.066406 4.824219 3.910156 5.140625 C 3.847656 5.269531 3.839844 5.441406 3.839844 5.570312 C 3.839844 6.121094 4.285156 6.566406 4.835938 6.566406 C 5.382812 6.566406 5.828125 6.121094 5.828125 5.570312 C 5.828125 5.457031 5.816406 5.28125 5.765625 5.148438 Z M 5.765625 5.148438 "/>
<path fill-rule="nonzero" fill="rgb(30%,30%,30%)" fill-opacity="1" d="M 4.226562 1.917969 C 4.210938 1.867188 4.140625 1.742188 4.101562 1.695312 C 3.839844 1.25 3.433594 0.5 3.300781 0.015625 C 3.121094 0.507812 2.53125 1.59375 2.375 1.910156 C 2.3125 2.042969 2.304688 2.214844 2.304688 2.339844 C 2.304688 2.890625 2.75 3.335938 3.300781 3.335938 C 3.847656 3.335938 4.292969 2.890625 4.292969 2.339844 C 4.292969 2.226562 4.28125 2.050781 4.226562 1.917969 Z M 4.226562 1.917969 "/>
<path fill-rule="nonzero" fill="rgb(30%,30%,30%)" fill-opacity="1" d="M 7.386719 1.902344 C 7.367188 1.851562 7.296875 1.722656 7.261719 1.675781 C 6.996094 1.234375 6.589844 0.484375 6.457031 0 C 6.277344 0.492188 5.6875 1.578125 5.53125 1.894531 C 5.46875 2.023438 5.460938 2.195312 5.460938 2.324219 C 5.460938 2.875 5.90625 3.320312 6.457031 3.320312 C 7.003906 3.320312 7.453125 2.875 7.453125 2.324219 C 7.453125 2.210938 7.4375 2.035156 7.386719 1.902344 Z M 7.386719 1.902344 "/>
<path fill-rule="nonzero" fill="rgb(30%,30%,30%)" fill-opacity="1" d="M 10.542969 1.917969 C 10.523438 1.867188 10.453125 1.742188 10.417969 1.695312 C 10.152344 1.25 9.746094 0.5 9.613281 0.015625 C 9.433594 0.507812 8.847656 1.59375 8.691406 1.910156 C 8.625 2.042969 8.617188 2.214844 8.617188 2.339844 C 8.617188 2.890625 9.0625 3.335938 9.613281 3.335938 C 10.164062 3.335938 10.609375 2.890625 10.609375 2.339844 C 10.609375 2.226562 10.59375 2.050781 10.542969 1.917969 Z M 10.542969 1.917969 "/>
<path fill-rule="nonzero" fill="rgb(30%,30%,30%)" fill-opacity="1" d="M 2.523438 5.148438 C 2.503906 5.097656 2.433594 4.972656 2.398438 4.921875 C 2.132812 4.480469 1.726562 3.730469 1.59375 3.246094 C 1.414062 3.738281 0.828125 4.824219 0.671875 5.140625 C 0.609375 5.269531 0.597656 5.441406 0.597656 5.570312 C 0.597656 6.121094 1.046875 6.566406 1.59375 6.566406 C 2.144531 6.566406 2.589844 6.121094 2.589844 5.570312 C 2.589844 5.457031 2.574219 5.28125 2.523438 5.148438 Z M 2.523438 5.148438 "/>
</g>
</svg>
