<?xml version="1.0" encoding="UTF-8" standalone="no"?>
<!-- Created with Inkscape (http://www.inkscape.org/) -->

<svg
   xmlns:dc="http://purl.org/dc/elements/1.1/"
   xmlns:cc="http://creativecommons.org/ns#"
   xmlns:rdf="http://www.w3.org/1999/02/22-rdf-syntax-ns#"
   xmlns:svg="http://www.w3.org/2000/svg"
   xmlns="http://www.w3.org/2000/svg"
   xmlns:xlink="http://www.w3.org/1999/xlink"
   xmlns:sodipodi="http://sodipodi.sourceforge.net/DTD/sodipodi-0.dtd"
   xmlns:inkscape="http://www.inkscape.org/namespaces/inkscape"
   width="30px"
   height="30px"
   version="1.1"
   id="svg8"
   inkscape:version="0.92.4 5da689c313, 2019-01-14"
   sodipodi:docname="container.svg">
  <defs
     id="defs2" />
  <sodipodi:namedview
     id="base"
     pagecolor="#ffffff"
     bordercolor="#666666"
     borderopacity="1.0"
     inkscape:pageopacity="0.0"
     inkscape:pageshadow="2"
     inkscape:zoom="13.049334"
     inkscape:cx="18.679046"
     inkscape:cy="12.165829"
     inkscape:document-units="px"
     inkscape:current-layer="layer1"
     showgrid="false"
     inkscape:snap-page="false"
     units="px"
     inkscape:window-width="1884"
     inkscape:window-height="1061"
     inkscape:window-x="0"
     inkscape:window-y="0"
     inkscape:window-maximized="1"
     fit-margin-top="0"
     fit-margin-left="0"
     fit-margin-right="0"
     fit-margin-bottom="0" />
  <metadata
     id="metadata5">
    <rdf:RDF>
      <cc:Work
         rdf:about="">
        <dc:format>image/svg+xml</dc:format>
        <dc:type
           rdf:resource="http://purl.org/dc/dcmitype/StillImage" />
        <dc:title></dc:title>
      </cc:Work>
    </rdf:RDF>
  </metadata>
    <circle
       style="color:#000000;clip-rule:nonzero;display:inline;overflow:visible;visibility:visible;opacity:1;isolation:auto;mix-blend-mode:normal;color-interpolation:sRGB;color-interpolation-filters:linearRGB;solid-color:#000000;solid-opacity:1;vector-effect:none;fill:#ffffff;fill-opacity:1;fill-rule:evenodd;stroke:#2a62ac;stroke-width:1;stroke-linecap:butt;stroke-linejoin:miter;stroke-miterlimit:4;stroke-dasharray:none;stroke-dashoffset:0;stroke-opacity:1;marker:none;color-rendering:auto;image-rendering:auto;shape-rendering:auto;text-rendering:auto;enable-background:accumulate"
       id="path815"
       cx="15"
       cy="15"
       r="14.5" />
<g transform="translate(10.0,6.5)"><path fill-rule="nonzero" fill="rgb(30%,30%,30%)" fill-opacity="1" d="M 5.46875 15.882812 L 5.46875 10.761719 L 6.730469 10.761719 C 7.523438 10.761719 8.179688 10.152344 8.242188 9.363281 L 8.832031 2.59375 L 0.980469 2.59375 L 1.539062 9.359375 C 1.601562 10.148438 2.261719 10.761719 3.054688 10.761719 L 4.347656 10.761719 L 4.347656 15.882812 C 1.902344 15.910156 0 16.125 0 16.4375 C 0 16.808594 2.25 17 4.941406 17 C 7.632812 17 9.8125 16.789062 9.8125 16.4375 C 9.8125 16.195312 7.882812 15.925781 5.46875 15.882812 Z M 7.515625 5.460938 C 7.515625 5.570312 7.472656 5.671875 7.394531 5.75 L 7.175781 5.96875 C 7.175781 5.96875 6.925781 5.796875 6.757812 5.796875 C 6.589844 5.796875 6.421875 6.050781 6.421875 6.050781 L 5.683594 5.351562 L 6.898438 4.089844 L 6.925781 4.703125 L 7.515625 5.292969 Z M 1.242188 2.921875 C 1.199219 2.925781 1.160156 2.902344 1.136719 2.867188 C 1.117188 2.832031 1.117188 2.789062 1.136719 2.753906 C 1.160156 2.71875 1.199219 2.695312 1.242188 2.699219 L 8.574219 2.699219 C 8.617188 2.695312 8.65625 2.71875 8.675781 2.753906 C 8.699219 2.789062 8.699219 2.832031 8.675781 2.867188 C 8.65625 2.902344 8.617188 2.925781 8.574219 2.921875 Z M 4.371094 7.089844 C 4.285156 7.074219 4.199219 7.101562 4.140625 7.167969 L 3.726562 7.648438 L 3.726562 8.410156 C 3.726562 8.546875 3.617188 8.660156 3.476562 8.660156 L 3.472656 8.660156 C 3.335938 8.660156 3.222656 8.546875 3.222656 8.410156 L 3.222656 6.976562 L 3.308594 6.640625 L 3.398438 6.355469 C 3.394531 6.355469 2.769531 5.910156 2.769531 5.910156 C 2.707031 5.867188 2.667969 5.796875 2.664062 5.722656 C 2.660156 5.648438 2.6875 5.574219 2.742188 5.519531 C 2.832031 5.4375 2.96875 5.4375 3.070312 5.507812 L 3.511719 5.820312 L 5.410156 5.546875 L 6.253906 6.304688 L 6.253906 8.410156 C 6.253906 8.546875 6.140625 8.660156 6 8.660156 L 5.996094 8.660156 C 5.859375 8.660156 5.746094 8.546875 5.746094 8.410156 L 5.746094 7.398438 Z M 4.371094 7.089844 "/>
<path fill-rule="nonzero" fill="rgb(30%,30%,30%)" fill-opacity="1" d="M 8.40625 2.699219 L 1.40625 2.699219 C 0.996094 2.699219 0.664062 2.367188 0.664062 1.957031 L 0.664062 0.476562 C 0.664062 0.214844 0.878906 0 1.144531 0 L 8.550781 0 C 8.882812 0 9.148438 0.265625 9.148438 0.597656 L 9.148438 1.957031 C 9.148438 2.367188 8.816406 2.699219 8.40625 2.699219 Z M 7.960938 1.789062 L 7.960938 0.808594 C 7.960938 0.570312 7.769531 0.378906 7.53125 0.378906 L 2.195312 0.378906 C 2.007812 0.378906 1.855469 0.53125 1.855469 0.722656 L 1.855469 1.789062 C 1.855469 2.082031 2.09375 2.320312 2.386719 2.320312 L 7.425781 2.320312 C 7.722656 2.320312 7.960938 2.082031 7.960938 1.789062 Z M 7.960938 1.789062 "/>
</g>
</svg>
