<?xml version="1.0" encoding="UTF-8"?>
<svg xmlns="http://www.w3.org/2000/svg" xmlns:xlink="http://www.w3.org/1999/xlink" width="11" height="10.97354" viewBox="0 0 11 10.97354">
<path fill-rule="nonzero" fill="rgb(30%,30%,30%)" fill-opacity="1" d="M 6.261719 7.445312 C 6.644531 7.445312 6.949219 7.753906 6.949219 8.132812 C 6.949219 8.511719 6.640625 8.816406 6.261719 8.816406 C 5.886719 8.816406 5.578125 8.511719 5.578125 8.132812 C 5.578125 7.753906 5.882812 7.445312 6.261719 7.445312 Z M 6.261719 5.289062 C 6.644531 5.289062 6.949219 5.597656 6.949219 5.976562 C 6.949219 6.355469 6.640625 6.660156 6.261719 6.660156 C 5.886719 6.660156 5.578125 6.355469 5.578125 5.976562 C 5.578125 5.597656 5.882812 5.289062 6.261719 5.289062 Z M 6.261719 9.601562 C 6.644531 9.601562 6.949219 9.910156 6.949219 10.285156 C 6.949219 10.664062 6.640625 10.972656 6.261719 10.972656 C 5.886719 10.972656 5.578125 10.664062 5.578125 10.285156 C 5.578125 9.910156 5.882812 9.601562 6.261719 9.601562 Z M 3.914062 7.445312 C 4.292969 7.445312 4.597656 7.753906 4.597656 8.132812 C 4.597656 8.511719 4.289062 8.816406 3.914062 8.816406 C 3.535156 8.816406 3.226562 8.511719 3.226562 8.132812 C 3.226562 7.753906 3.53125 7.445312 3.914062 7.445312 Z M 4.34375 5.335938 C 4.722656 5.335938 5.03125 5.640625 5.03125 6.019531 C 5.03125 6.398438 4.722656 6.707031 4.34375 6.707031 C 3.964844 6.707031 3.660156 6.398438 3.660156 6.019531 C 3.660156 5.640625 3.964844 5.335938 4.34375 5.335938 Z M 3.480469 9.558594 C 3.859375 9.558594 4.164062 9.867188 4.164062 10.242188 C 4.164062 10.621094 3.855469 10.929688 3.480469 10.929688 C 3.101562 10.929688 2.792969 10.621094 2.792969 10.242188 C 2.792969 9.867188 3.101562 9.558594 3.480469 9.558594 Z M 1.5625 6.664062 C 1.941406 6.664062 2.246094 6.96875 2.246094 7.347656 C 2.246094 7.726562 1.9375 8.035156 1.5625 8.035156 C 1.183594 8.035156 0.875 7.726562 0.875 7.347656 C 0.875 6.96875 1.183594 6.664062 1.5625 6.664062 Z M 2.4375 4.691406 C 2.816406 4.691406 3.121094 5 3.121094 5.378906 C 3.121094 5.753906 2.8125 6.0625 2.4375 6.0625 C 2.058594 6.0625 1.75 5.753906 1.75 5.378906 C 1.75 5 2.054688 4.691406 2.4375 4.691406 Z M 0.683594 8.632812 C 1.066406 8.632812 1.371094 8.941406 1.371094 9.316406 C 1.371094 9.695312 1.066406 10.003906 0.683594 10.003906 C 0.304688 10.003906 0 9.695312 0 9.320312 C 0 8.941406 0.308594 8.632812 0.683594 8.632812 Z M 11 1.175781 L 11 0 L 5.316406 0 L 5.316406 0.0273438 C 5.050781 0.03125 4.820312 0.214844 4.757812 0.472656 L 4.445312 1.75 C 3.441406 1.851562 2.582031 2.605469 2.425781 3.636719 L 6.882812 4.308594 C 7.039062 3.296875 6.5 2.34375 5.609375 1.941406 L 5.796875 1.175781 Z M 11 1.175781 "/>
</svg>
