<?xml version="1.0" encoding="UTF-8" standalone="no"?>
<!-- Created with Inkscape (http://www.inkscape.org/) -->

<svg
   xmlns:dc="http://purl.org/dc/elements/1.1/"
   xmlns:cc="http://creativecommons.org/ns#"
   xmlns:rdf="http://www.w3.org/1999/02/22-rdf-syntax-ns#"
   xmlns:svg="http://www.w3.org/2000/svg"
   xmlns="http://www.w3.org/2000/svg"
   xmlns:xlink="http://www.w3.org/1999/xlink"
   xmlns:sodipodi="http://sodipodi.sourceforge.net/DTD/sodipodi-0.dtd"
   xmlns:inkscape="http://www.inkscape.org/namespaces/inkscape"
   width="30px"
   height="30px"
   version="1.1"
   id="svg8"
   inkscape:version="0.92.4 5da689c313, 2019-01-14"
   sodipodi:docname="container.svg">
  <defs
     id="defs2" />
  <sodipodi:namedview
     id="base"
     pagecolor="#ffffff"
     bordercolor="#666666"
     borderopacity="1.0"
     inkscape:pageopacity="0.0"
     inkscape:pageshadow="2"
     inkscape:zoom="13.049334"
     inkscape:cx="18.679046"
     inkscape:cy="12.165829"
     inkscape:document-units="px"
     inkscape:current-layer="layer1"
     showgrid="false"
     inkscape:snap-page="false"
     units="px"
     inkscape:window-width="1884"
     inkscape:window-height="1061"
     inkscape:window-x="0"
     inkscape:window-y="0"
     inkscape:window-maximized="1"
     fit-margin-top="0"
     fit-margin-left="0"
     fit-margin-right="0"
     fit-margin-bottom="0" />
  <metadata
     id="metadata5">
    <rdf:RDF>
      <cc:Work
         rdf:about="">
        <dc:format>image/svg+xml</dc:format>
        <dc:type
           rdf:resource="http://purl.org/dc/dcmitype/StillImage" />
        <dc:title></dc:title>
      </cc:Work>
    </rdf:RDF>
  </metadata>
    <circle
       style="color:#000000;clip-rule:nonzero;display:inline;overflow:visible;visibility:visible;opacity:1;isolation:auto;mix-blend-mode:normal;color-interpolation:sRGB;color-interpolation-filters:linearRGB;solid-color:#000000;solid-opacity:1;vector-effect:none;fill:#ffffff;fill-opacity:1;fill-rule:evenodd;stroke:#2a62ac;stroke-width:1;stroke-linecap:butt;stroke-linejoin:miter;stroke-miterlimit:4;stroke-dasharray:none;stroke-dashoffset:0;stroke-opacity:1;marker:none;color-rendering:auto;image-rendering:auto;shape-rendering:auto;text-rendering:auto;enable-background:accumulate"
       id="path815"
       cx="15"
       cy="15"
       r="14.5" />
<g transform="translate(6.5,6.5)"><path fill-rule="nonzero" fill="rgb(30%,30%,30%)" fill-opacity="1" d="M 13.359375 3.625 L 14.582031 3.625 L 14.582031 13.117188 C 14.582031 13.902344 13.949219 14.535156 13.167969 14.535156 L 3.878906 14.535156 C 3.097656 14.535156 2.460938 13.902344 2.460938 13.117188 L 2.460938 3.625 L 3.65625 3.625 L 3.714844 10.886719 C 4.867188 10.875 6.050781 11.925781 6.109375 13.273438 L 10.957031 13.285156 C 10.957031 11.828125 12.234375 10.902344 13.359375 10.902344 Z M 3.878906 15.90625 C 3.328125 15.90625 2.867188 15.632812 2.640625 15.164062 C 2.628906 15.140625 2.601562 15.125 2.574219 15.132812 C 2.550781 15.136719 2.53125 15.164062 2.53125 15.191406 L 2.53125 15.640625 C 2.53125 16.386719 3.101562 17 3.796875 17 L 13.246094 17 C 13.945312 17 14.515625 16.386719 14.515625 15.640625 L 14.515625 15.296875 C 14.515625 15.273438 14.496094 15.25 14.472656 15.242188 C 14.445312 15.234375 14.417969 15.246094 14.40625 15.265625 C 14.152344 15.683594 13.679688 15.90625 13.167969 15.90625 Z M 11.949219 7.269531 C 11.949219 5.972656 10.414062 4.921875 8.523438 4.921875 C 6.628906 4.921875 5.09375 5.972656 5.09375 7.269531 C 5.09375 8.566406 6.628906 9.617188 8.523438 9.617188 C 10.414062 9.617188 11.949219 8.566406 11.949219 7.269531 Z M 1.496094 0 C 0.671875 0.00390625 0.00390625 0.671875 0 1.496094 L 0 3.535156 C 0.00390625 4.25 0.511719 4.867188 1.214844 5.003906 L 1.226562 4.867188 L 1.257812 2.410156 L 15.816406 2.410156 L 15.816406 4.992188 C 16.5 4.839844 16.984375 4.234375 16.984375 3.535156 L 16.984375 1.496094 C 16.984375 0.671875 16.3125 0.00390625 15.488281 0 Z M 1.496094 0 "/>
</g>
</svg>
