<?xml version="1.0" encoding="UTF-8"?>
<svg xmlns="http://www.w3.org/2000/svg" xmlns:xlink="http://www.w3.org/1999/xlink" width="10.986159" height="11" viewBox="0 0 10.986159 11">
<path fill-rule="nonzero" fill="rgb(30%,30%,30%)" fill-opacity="1" d="M 10.660156 8.71875 L 8.34375 7.519531 C 8.023438 7.359375 7.660156 7.566406 7.464844 7.761719 L 7.160156 8.0625 L 10.777344 9.851562 C 11.070312 9.433594 11.074219 8.925781 10.660156 8.71875 Z M 10.660156 8.71875 "/>
<path fill-rule="nonzero" fill="rgb(30%,30%,30%)" fill-opacity="1" d="M 5.730469 8.070312 L 2.957031 5.300781 C 2.621094 4.964844 2.566406 4.441406 2.824219 4.042969 L 1.011719 0.386719 L 0.957031 0.441406 C 0.234375 1.164062 -0.109375 2.027344 0.03125 2.964844 C 0.132812 3.648438 1.628906 5.679688 2.1875 6.242188 L 4.347656 8.480469 C 4.882812 9.015625 7.25 10.851562 7.945312 10.957031 C 8.984375 11.117188 9.839844 10.820312 10.585938 10.074219 L 10.617188 10.042969 L 6.910156 8.207031 C 6.546875 8.335938 5.960938 8.328125 5.730469 8.070312 Z M 5.730469 8.070312 "/>
<path fill-rule="nonzero" fill="rgb(30%,30%,30%)" fill-opacity="1" d="M 3.308594 3.523438 C 3.503906 3.328125 3.628906 2.886719 3.386719 2.484375 L 2.347656 0.40625 C 2.054688 -0.109375 1.566406 -0.0898438 1.195312 0.214844 L 2.992188 3.839844 Z M 3.308594 3.523438 "/>
</svg>
