<?xml version="1.0" encoding="UTF-8" standalone="no"?>
<!-- Created with Inkscape (http://www.inkscape.org/) -->

<svg
   xmlns:dc="http://purl.org/dc/elements/1.1/"
   xmlns:cc="http://creativecommons.org/ns#"
   xmlns:rdf="http://www.w3.org/1999/02/22-rdf-syntax-ns#"
   xmlns:svg="http://www.w3.org/2000/svg"
   xmlns="http://www.w3.org/2000/svg"
   xmlns:xlink="http://www.w3.org/1999/xlink"
   xmlns:sodipodi="http://sodipodi.sourceforge.net/DTD/sodipodi-0.dtd"
   xmlns:inkscape="http://www.inkscape.org/namespaces/inkscape"
   width="30px"
   height="30px"
   version="1.1"
   id="svg8"
   inkscape:version="0.92.4 5da689c313, 2019-01-14"
   sodipodi:docname="container.svg">
  <defs
     id="defs2" />
  <sodipodi:namedview
     id="base"
     pagecolor="#ffffff"
     bordercolor="#666666"
     borderopacity="1.0"
     inkscape:pageopacity="0.0"
     inkscape:pageshadow="2"
     inkscape:zoom="13.049334"
     inkscape:cx="18.679046"
     inkscape:cy="12.165829"
     inkscape:document-units="px"
     inkscape:current-layer="layer1"
     showgrid="false"
     inkscape:snap-page="false"
     units="px"
     inkscape:window-width="1884"
     inkscape:window-height="1061"
     inkscape:window-x="0"
     inkscape:window-y="0"
     inkscape:window-maximized="1"
     fit-margin-top="0"
     fit-margin-left="0"
     fit-margin-right="0"
     fit-margin-bottom="0" />
  <metadata
     id="metadata5">
    <rdf:RDF>
      <cc:Work
         rdf:about="">
        <dc:format>image/svg+xml</dc:format>
        <dc:type
           rdf:resource="http://purl.org/dc/dcmitype/StillImage" />
        <dc:title></dc:title>
      </cc:Work>
    </rdf:RDF>
  </metadata>
    <circle
       style="color:#000000;clip-rule:nonzero;display:inline;overflow:visible;visibility:visible;opacity:1;isolation:auto;mix-blend-mode:normal;color-interpolation:sRGB;color-interpolation-filters:linearRGB;solid-color:#000000;solid-opacity:1;vector-effect:none;fill:#2a62ac;fill-opacity:1;fill-rule:evenodd;stroke:#ffffff;stroke-width:1;stroke-linecap:butt;stroke-linejoin:miter;stroke-miterlimit:4;stroke-dasharray:none;stroke-dashoffset:0;stroke-opacity:1;marker:none;color-rendering:auto;image-rendering:auto;shape-rendering:auto;text-rendering:auto;enable-background:accumulate"
       id="path815"
       cx="15"
       cy="15"
       r="14.5" />
<g transform="translate(8.0,6.5)"><path fill-rule="nonzero" fill="#FFFFFF" fill-opacity="1" d="M 10.277344 0.984375 L 8.253906 0.976562 L 8.253906 0.480469 C 8.253906 0.214844 7.828125 0 7.304688 0 C 6.78125 0 6.359375 0.214844 6.359375 0.480469 L 6.359375 0.96875 L 4.308594 0.960938 L 0 4.082031 L 0 17 L 14.433594 17 L 14.433594 4.082031 Z M 4.027344 15.28125 C 3.898438 15.089844 3.75 14.90625 3.632812 14.707031 C 3.179688 13.910156 2.742188 13.105469 2.289062 12.304688 C 2.136719 12.03125 2.152344 11.777344 2.324219 11.515625 C 2.515625 11.222656 2.6875 10.917969 2.878906 10.601562 L 2.160156 10.164062 L 2.164062 10.132812 C 2.289062 10.121094 2.414062 10.101562 2.539062 10.089844 C 3.207031 10.03125 3.875 9.976562 4.542969 9.914062 C 4.640625 9.902344 4.695312 9.929688 4.742188 10.027344 C 5.082031 10.757812 5.429688 11.488281 5.777344 12.214844 C 5.789062 12.246094 5.800781 12.277344 5.820312 12.332031 C 5.578125 12.210938 5.351562 12.097656 5.121094 11.984375 C 4.945312 12.300781 4.773438 12.605469 4.601562 12.914062 C 4.457031 13.167969 4.292969 13.410156 4.175781 13.679688 C 3.953125 14.1875 3.890625 14.71875 4.066406 15.257812 C 4.054688 15.265625 4.042969 15.273438 4.027344 15.28125 Z M 7.113281 15.570312 C 6.824219 15.570312 6.554688 15.570312 6.289062 15.566406 C 5.726562 15.5625 5.164062 15.558594 4.605469 15.546875 C 4.355469 15.542969 4.273438 15.480469 4.195312 15.242188 C 4.015625 14.730469 4.082031 14.226562 4.28125 13.734375 C 4.363281 13.535156 4.480469 13.347656 4.589844 13.160156 C 4.621094 13.121094 4.667969 13.09375 4.71875 13.089844 C 5.507812 13.09375 6.292969 13.101562 7.082031 13.113281 C 7.09375 13.113281 7.105469 13.117188 7.113281 13.121094 Z M 6.964844 8.09375 C 6.632812 8.613281 6.304688 9.132812 5.972656 9.652344 C 5.949219 9.6875 5.921875 9.726562 5.890625 9.773438 C 5.203125 9.339844 4.523438 8.90625 3.816406 8.460938 C 4.277344 7.734375 4.726562 7.023438 5.179688 6.316406 C 5.277344 6.164062 5.410156 6.105469 5.597656 6.148438 C 6.203125 6.28125 6.625 6.65625 6.957031 7.152344 C 7.269531 7.621094 7.261719 7.621094 6.964844 8.09375 Z M 7.25 9.078125 C 7.480469 8.933594 7.695312 8.800781 7.914062 8.667969 C 7.871094 8.589844 7.832031 8.519531 7.796875 8.449219 C 7.609375 8.097656 7.425781 7.746094 7.238281 7.394531 C 6.902344 6.753906 6.4375 6.253906 5.710938 6.015625 C 5.835938 5.996094 5.960938 5.964844 6.082031 5.964844 C 6.386719 5.972656 6.691406 5.996094 7 6.007812 C 7.707031 6.035156 8.414062 6.0625 9.121094 6.089844 C 9.4375 6.101562 9.652344 6.246094 9.789062 6.535156 C 9.933594 6.855469 10.105469 7.164062 10.269531 7.488281 L 11.054688 7.09375 C 11.027344 7.164062 11.015625 7.199219 11 7.234375 C 10.652344 7.921875 10.304688 8.609375 9.960938 9.300781 C 9.925781 9.367188 9.886719 9.386719 9.8125 9.378906 C 9.007812 9.285156 8.199219 9.191406 7.390625 9.101562 C 7.347656 9.097656 7.308594 9.085938 7.25 9.078125 Z M 12.582031 12.605469 C 12.171875 13.390625 11.746094 14.167969 11.328125 14.953125 C 11.292969 15.019531 11.253906 15.085938 11.222656 15.152344 C 11.085938 15.414062 10.871094 15.53125 10.578125 15.527344 C 10.21875 15.523438 9.859375 15.527344 9.488281 15.527344 L 9.488281 16.402344 L 9.457031 16.4375 C 9.4375 16.402344 9.425781 16.367188 9.40625 16.339844 C 8.933594 15.722656 8.460938 15.109375 7.984375 14.496094 C 7.941406 14.441406 7.929688 14.398438 7.972656 14.332031 C 8.417969 13.625 8.863281 12.914062 9.304688 12.203125 C 9.316406 12.191406 9.324219 12.179688 9.351562 12.148438 C 9.378906 12.417969 9.40625 12.667969 9.4375 12.921875 C 9.707031 12.90625 9.972656 12.890625 10.234375 12.875 C 10.59375 12.859375 10.957031 12.863281 11.3125 12.816406 C 11.878906 12.738281 12.375 12.503906 12.757812 12.054688 L 12.792969 12.074219 C 12.722656 12.25 12.671875 12.4375 12.582031 12.605469 Z M 12.664062 11.972656 C 12.296875 12.410156 11.8125 12.621094 11.257812 12.699219 C 11.078125 12.726562 10.890625 12.726562 10.707031 12.730469 C 10.660156 12.726562 10.617188 12.707031 10.589844 12.667969 C 10.160156 11.992188 9.738281 11.3125 9.304688 10.621094 C 10 10.183594 10.683594 9.753906 11.378906 9.320312 C 11.566406 9.609375 11.75 9.886719 11.929688 10.171875 C 12.195312 10.589844 12.460938 11.003906 12.714844 11.429688 C 12.851562 11.65625 12.835938 11.765625 12.664062 11.972656 Z M 12.664062 11.972656 "/>
</g>
</svg>
