<?xml version="1.0" encoding="UTF-8"?>
<svg xmlns="http://www.w3.org/2000/svg" xmlns:xlink="http://www.w3.org/1999/xlink" width="8.222661" height="11" viewBox="0 0 8.222661 11">
<path fill-rule="nonzero" fill="rgb(30%,30%,30%)" fill-opacity="1" d="M 7.859375 1.007812 L 6.1875 1.007812 L 6.1875 0 L 2.089844 0 L 2.078125 1.007812 L 0.351562 1.007812 C 0.15625 1.007812 0 1.167969 0 1.359375 L 0 1.375 C 0 1.574219 0.164062 1.738281 0.363281 1.738281 L 7.871094 1.738281 C 8.066406 1.738281 8.222656 1.582031 8.222656 1.386719 L 8.222656 1.375 C 8.222656 1.171875 8.058594 1.007812 7.859375 1.007812 Z M 2.804688 0.597656 L 5.457031 0.597656 L 5.457031 1.007812 L 2.804688 1.007812 Z M 2.804688 0.597656 "/>
<path fill-rule="nonzero" fill="rgb(30%,30%,30%)" fill-opacity="1" d="M 7.28125 2.277344 C 7.078125 2.242188 6.882812 2.375 6.847656 2.578125 L 5.433594 9.566406 L 5.34375 9.566406 L 6.070312 2.683594 C 6.089844 2.472656 5.941406 2.289062 5.734375 2.265625 C 5.539062 2.246094 5.367188 2.394531 5.347656 2.59375 L 4.609375 9.566406 C 4.609375 9.570312 4.460938 9.5625 4.46875 9.566406 L 4.46875 2.640625 C 4.46875 2.433594 4.300781 2.269531 4.09375 2.269531 C 3.898438 2.269531 3.738281 2.425781 3.738281 2.625 L 3.738281 9.566406 C 3.726562 9.566406 3.710938 9.566406 3.695312 9.566406 C 3.609375 9.570312 3.675781 9.5625 3.589844 9.566406 C 3.632812 9.5625 2.957031 2.605469 2.957031 2.605469 C 2.941406 2.410156 2.769531 2.261719 2.574219 2.277344 C 2.476562 2.277344 2.382812 2.316406 2.316406 2.390625 C 2.25 2.460938 2.21875 2.554688 2.230469 2.652344 L 2.84375 9.566406 C 2.800781 9.566406 2.761719 9.566406 2.71875 9.566406 C 2.699219 9.496094 1.398438 2.578125 1.398438 2.578125 C 1.367188 2.378906 1.179688 2.246094 0.980469 2.28125 L 0.96875 2.28125 C 0.777344 2.316406 0.644531 2.5 0.679688 2.691406 L 2.09375 11 C 2.09375 11 6.074219 11.003906 6.074219 11 L 6.1875 10.289062 C 6.183594 10.289062 6.183594 10.289062 6.183594 10.289062 L 7.566406 2.691406 C 7.601562 2.496094 7.472656 2.3125 7.28125 2.277344 Z M 7.28125 2.277344 "/>
</svg>
