<?xml version="1.0" encoding="UTF-8"?>
<svg xmlns="http://www.w3.org/2000/svg" xmlns:xlink="http://www.w3.org/1999/xlink" width="6.350516" height="11" viewBox="0 0 6.350516 11">
<path fill-rule="nonzero" fill="rgb(30%,30%,30%)" fill-opacity="1" d="M 3.539062 10.277344 L 3.539062 6.960938 L 4.355469 6.960938 C 4.867188 6.960938 5.292969 6.570312 5.335938 6.058594 L 5.714844 1.679688 L 0.636719 1.679688 L 0.996094 6.054688 C 1.035156 6.566406 1.460938 6.960938 1.976562 6.960938 L 2.8125 6.960938 L 2.8125 10.277344 C 1.230469 10.296875 0 10.433594 0 10.636719 C 0 10.875 1.457031 11 3.199219 11 C 4.9375 11 6.351562 10.863281 6.351562 10.636719 C 6.351562 10.476562 5.101562 10.304688 3.539062 10.277344 Z M 4.863281 3.535156 C 4.863281 3.605469 4.835938 3.671875 4.785156 3.71875 L 4.644531 3.859375 C 4.644531 3.859375 4.480469 3.753906 4.371094 3.753906 C 4.261719 3.753906 4.152344 3.914062 4.152344 3.914062 L 3.679688 3.464844 L 4.460938 2.644531 L 4.480469 3.042969 L 4.863281 3.425781 Z M 0.800781 1.890625 C 0.777344 1.890625 0.75 1.878906 0.734375 1.855469 C 0.722656 1.832031 0.722656 1.804688 0.734375 1.78125 C 0.75 1.757812 0.777344 1.746094 0.800781 1.746094 L 5.546875 1.746094 C 5.574219 1.746094 5.601562 1.757812 5.613281 1.78125 C 5.628906 1.804688 5.628906 1.832031 5.613281 1.855469 C 5.601562 1.878906 5.574219 1.890625 5.546875 1.890625 Z M 2.828125 4.589844 C 2.773438 4.578125 2.714844 4.59375 2.679688 4.636719 L 2.414062 4.949219 L 2.414062 5.441406 C 2.414062 5.53125 2.339844 5.601562 2.25 5.601562 L 2.246094 5.601562 C 2.160156 5.601562 2.085938 5.53125 2.085938 5.441406 L 2.085938 4.515625 L 2.140625 4.296875 L 2.199219 4.113281 C 2.195312 4.113281 1.792969 3.824219 1.792969 3.824219 C 1.75 3.796875 1.726562 3.75 1.722656 3.703125 C 1.71875 3.652344 1.738281 3.605469 1.773438 3.574219 C 1.832031 3.519531 1.921875 3.515625 1.988281 3.5625 L 2.273438 3.765625 L 3.5 3.589844 L 4.046875 4.078125 L 4.046875 5.441406 C 4.046875 5.53125 3.972656 5.601562 3.882812 5.601562 C 3.792969 5.601562 3.71875 5.53125 3.71875 5.441406 L 3.71875 4.785156 Z M 2.828125 4.589844 "/>
<path fill-rule="nonzero" fill="rgb(30%,30%,30%)" fill-opacity="1" d="M 5.441406 1.746094 L 0.910156 1.746094 C 0.644531 1.746094 0.429688 1.53125 0.429688 1.265625 L 0.429688 0.308594 C 0.429688 0.136719 0.570312 0 0.738281 0 L 5.53125 0 C 5.746094 0 5.917969 0.171875 5.917969 0.386719 L 5.917969 1.265625 C 5.917969 1.53125 5.703125 1.746094 5.441406 1.746094 Z M 5.152344 1.15625 L 5.152344 0.523438 C 5.152344 0.367188 5.027344 0.246094 4.871094 0.246094 L 1.421875 0.246094 C 1.296875 0.246094 1.199219 0.34375 1.199219 0.464844 L 1.199219 1.15625 C 1.199219 1.347656 1.355469 1.5 1.542969 1.5 L 4.804688 1.5 C 4.996094 1.5 5.152344 1.347656 5.152344 1.15625 Z M 5.152344 1.15625 "/>
</svg>
