<?xml version="1.0" encoding="UTF-8" standalone="no"?>
<!-- Created with Inkscape (http://www.inkscape.org/) -->

<svg
   xmlns:dc="http://purl.org/dc/elements/1.1/"
   xmlns:cc="http://creativecommons.org/ns#"
   xmlns:rdf="http://www.w3.org/1999/02/22-rdf-syntax-ns#"
   xmlns:svg="http://www.w3.org/2000/svg"
   xmlns="http://www.w3.org/2000/svg"
   xmlns:xlink="http://www.w3.org/1999/xlink"
   xmlns:sodipodi="http://sodipodi.sourceforge.net/DTD/sodipodi-0.dtd"
   xmlns:inkscape="http://www.inkscape.org/namespaces/inkscape"
   width="30px"
   height="30px"
   version="1.1"
   id="svg8"
   inkscape:version="0.92.4 5da689c313, 2019-01-14"
   sodipodi:docname="container.svg">
  <defs
     id="defs2" />
  <sodipodi:namedview
     id="base"
     pagecolor="#ffffff"
     bordercolor="#666666"
     borderopacity="1.0"
     inkscape:pageopacity="0.0"
     inkscape:pageshadow="2"
     inkscape:zoom="13.049334"
     inkscape:cx="18.679046"
     inkscape:cy="12.165829"
     inkscape:document-units="px"
     inkscape:current-layer="layer1"
     showgrid="false"
     inkscape:snap-page="false"
     units="px"
     inkscape:window-width="1884"
     inkscape:window-height="1061"
     inkscape:window-x="0"
     inkscape:window-y="0"
     inkscape:window-maximized="1"
     fit-margin-top="0"
     fit-margin-left="0"
     fit-margin-right="0"
     fit-margin-bottom="0" />
  <metadata
     id="metadata5">
    <rdf:RDF>
      <cc:Work
         rdf:about="">
        <dc:format>image/svg+xml</dc:format>
        <dc:type
           rdf:resource="http://purl.org/dc/dcmitype/StillImage" />
        <dc:title></dc:title>
      </cc:Work>
    </rdf:RDF>
  </metadata>
    <circle
       style="color:#000000;clip-rule:nonzero;display:inline;overflow:visible;visibility:visible;opacity:1;isolation:auto;mix-blend-mode:normal;color-interpolation:sRGB;color-interpolation-filters:linearRGB;solid-color:#000000;solid-opacity:1;vector-effect:none;fill:#2a62ac;fill-opacity:1;fill-rule:evenodd;stroke:#ffffff;stroke-width:1;stroke-linecap:butt;stroke-linejoin:miter;stroke-miterlimit:4;stroke-dasharray:none;stroke-dashoffset:0;stroke-opacity:1;marker:none;color-rendering:auto;image-rendering:auto;shape-rendering:auto;text-rendering:auto;enable-background:accumulate"
       id="path815"
       cx="15"
       cy="15"
       r="14.5" />
<g transform="translate(6.5,7.0)"><path fill-rule="nonzero" fill="#FFFFFF" fill-opacity="1" d="M 14.589844 1.335938 C 14.589844 2.0625 14.003906 2.652344 13.285156 2.652344 C 12.558594 2.652344 11.976562 2.0625 11.976562 1.335938 C 11.972656 0.613281 12.558594 0.0234375 13.285156 0.0195312 C 14.003906 0.0195312 14.589844 0.609375 14.589844 1.335938 M 5.046875 1.335938 C 5.046875 2.0625 4.460938 2.652344 3.738281 2.652344 C 3.015625 2.652344 2.429688 2.0625 2.429688 1.335938 C 2.429688 0.613281 3.011719 0.0234375 3.738281 0.0195312 C 3.738281 0.0195312 3.742188 0.0195312 3.742188 0.0195312 C 4.460938 0.0195312 5.046875 0.609375 5.046875 1.335938 M 16.972656 8.394531 L 15.054688 3.089844 C 15.03125 3.03125 14.976562 2.996094 14.914062 2.996094 L 11.644531 2.996094 C 11.585938 2.996094 11.535156 3.03125 11.515625 3.085938 L 9.589844 8.394531 C 9.503906 8.636719 9.628906 8.898438 9.867188 8.988281 C 10.105469 9.078125 10.371094 8.953125 10.457031 8.710938 L 11.972656 4.519531 L 11.972656 15.789062 C 11.96875 16.117188 12.230469 16.382812 12.554688 16.382812 C 12.882812 16.386719 13.148438 16.125 13.148438 15.800781 C 13.148438 15.796875 13.148438 15.792969 13.148438 15.789062 L 13.148438 9.058594 L 13.410156 9.058594 L 13.410156 15.789062 C 13.40625 16.117188 13.667969 16.382812 13.992188 16.382812 C 14.320312 16.386719 14.585938 16.125 14.585938 15.800781 C 14.585938 15.796875 14.585938 15.792969 14.585938 15.789062 L 14.585938 4.511719 L 16.105469 8.710938 C 16.1875 8.945312 16.453125 9.070312 16.6875 8.984375 L 16.695312 8.980469 C 16.933594 8.894531 17.054688 8.632812 16.96875 8.394531 C 16.972656 8.394531 16.972656 8.394531 16.972656 8.394531 M 7.410156 8.394531 L 5.492188 3.089844 C 5.46875 3.03125 5.414062 2.996094 5.351562 2.996094 L 2.082031 2.996094 C 2.023438 2.996094 1.96875 3.03125 1.945312 3.089844 L 0.0273438 8.394531 C -0.0585938 8.636719 0.0625 8.898438 0.300781 8.988281 C 0.542969 9.078125 0.808594 8.953125 0.890625 8.710938 L 2.429688 4.460938 L 2.429688 7.503906 L 1.109375 10.96875 L 2.429688 10.96875 L 2.429688 15.789062 C 2.429688 16.117188 2.691406 16.382812 3.015625 16.382812 C 3.339844 16.386719 3.605469 16.125 3.609375 15.800781 C 3.609375 15.796875 3.609375 15.792969 3.609375 15.789062 L 3.609375 10.972656 L 3.867188 10.972656 L 3.867188 15.792969 C 3.863281 16.117188 4.125 16.382812 4.449219 16.386719 C 4.777344 16.386719 5.042969 16.125 5.042969 15.800781 C 5.042969 15.796875 5.042969 15.796875 5.042969 15.792969 L 5.042969 10.972656 L 6.324219 10.972656 L 5.046875 7.503906 L 5.046875 4.570312 L 6.542969 8.710938 C 6.628906 8.945312 6.890625 9.070312 7.128906 8.984375 L 7.136719 8.980469 C 7.375 8.894531 7.496094 8.628906 7.410156 8.394531 M 8.6875 16.332031 C 8.789062 16.332031 8.867188 16.25 8.867188 16.148438 L 8.636719 0.179688 C 8.636719 0.078125 8.550781 0 8.449219 0 C 8.347656 0 8.269531 0.0859375 8.269531 0.1875 L 8.503906 16.15625 C 8.503906 16.253906 8.585938 16.332031 8.683594 16.332031 C 8.683594 16.332031 8.6875 16.332031 8.6875 16.332031 Z M 8.6875 16.332031 "/>
</g>
</svg>
