<?xml version="1.0" encoding="UTF-8"?>
<svg xmlns="http://www.w3.org/2000/svg" xmlns:xlink="http://www.w3.org/1999/xlink" width="10.40948" height="11" viewBox="0 0 10.40948 11">
<path fill-rule="nonzero" fill="rgb(30%,30%,30%)" fill-opacity="1" d="M 2.652344 3.375 L 2.15625 3.503906 L 2.140625 2.316406 L 2.621094 2.160156 Z M 2.652344 3.375 "/>
<path fill-rule="nonzero" fill="rgb(30%,30%,30%)" fill-opacity="1" d="M 4.148438 2.976562 L 3.652344 3.132812 L 3.644531 2.617188 L 4.117188 2.613281 Z M 4.148438 2.976562 "/>
<path fill-rule="nonzero" fill="rgb(30%,30%,30%)" fill-opacity="1" d="M 5.285156 2.675781 L 4.710938 2.832031 L 4.550781 2.027344 L 5.164062 1.90625 Z M 5.285156 2.675781 "/>
<path fill-rule="nonzero" fill="rgb(30%,30%,30%)" fill-opacity="1" d="M 6.121094 2.433594 L 5.40625 2.621094 L 5.277344 1.695312 L 5.992188 1.535156 Z M 6.121094 2.433594 "/>
<path fill-rule="nonzero" fill="rgb(30%,30%,30%)" fill-opacity="1" d="M 1.90625 4.5 L 2.039062 5.519531 L 2.910156 5.417969 L 2.675781 4.304688 Z M 1.90625 4.5 "/>
<path fill-rule="nonzero" fill="rgb(30%,30%,30%)" fill-opacity="1" d="M 3.007812 4.21875 L 3.421875 4.105469 L 3.878906 5.296875 L 3.253906 5.375 Z M 3.007812 4.21875 "/>
<path fill-rule="nonzero" fill="rgb(30%,30%,30%)" fill-opacity="1" d="M 3.777344 3.738281 L 4.382812 3.574219 L 4.484375 4.542969 L 4.1875 4.585938 Z M 3.777344 3.738281 "/>
<path fill-rule="nonzero" fill="rgb(30%,30%,30%)" fill-opacity="1" d="M 6.636719 5.480469 C 6.636719 5.683594 6.472656 5.84375 6.273438 5.84375 C 6.074219 5.84375 5.910156 5.683594 5.910156 5.480469 C 5.910156 5.28125 6.074219 5.117188 6.273438 5.117188 C 6.472656 5.117188 6.636719 5.28125 6.636719 5.480469 Z M 6.636719 5.480469 "/>
<path fill-rule="nonzero" fill="rgb(30%,30%,30%)" fill-opacity="1" d="M 5.644531 3.242188 L 6.078125 3.109375 L 6.28125 4.144531 L 5.800781 4.316406 Z M 5.644531 3.242188 "/>
<path fill-rule="nonzero" fill="rgb(30%,30%,30%)" fill-opacity="1" d="M 4.855469 4.140625 L 5.46875 3.839844 L 5.777344 5.261719 L 5.117188 5.320312 Z M 4.855469 4.140625 "/>
<path fill-rule="nonzero" fill="rgb(30%,30%,30%)" fill-opacity="1" d="M 7.019531 3.863281 L 7.824219 4.0625 L 8.035156 3.085938 L 7.292969 2.941406 Z M 7.019531 3.863281 "/>
<path fill-rule="nonzero" fill="rgb(30%,30%,30%)" fill-opacity="1" d="M 3.964844 6.121094 L 4.246094 6.101562 L 4.726562 7.25 L 4.136719 7.386719 Z M 3.964844 6.121094 "/>
<path fill-rule="nonzero" fill="rgb(30%,30%,30%)" fill-opacity="1" d="M 2.691406 6.246094 L 3.632812 6.160156 L 3.871094 7.664062 L 3.222656 7.664062 L 3.136719 6.679688 L 1.972656 6.742188 L 1.914062 6.289062 Z M 2.691406 6.246094 "/>
<path fill-rule="nonzero" fill="rgb(30%,30%,30%)" fill-opacity="1" d="M 7.234375 6.839844 L 7.328125 7.773438 L 6.941406 7.78125 L 6.925781 7.226562 L 6.550781 7.183594 L 6.414062 7.839844 L 6.128906 7.773438 L 6.394531 6.761719 Z M 7.234375 6.839844 "/>
<path fill-rule="nonzero" fill="rgb(30%,30%,30%)" fill-opacity="1" d="M 6.6875 5.949219 L 6.507812 6.574219 L 7.191406 6.617188 L 7.046875 5.8125 Z M 6.6875 5.949219 "/>
<path fill-rule="nonzero" fill="rgb(30%,30%,30%)" fill-opacity="1" d="M 6.742188 4.828125 L 7.003906 5.089844 L 8.039062 5.03125 L 8.007812 4.691406 L 7.082031 4.722656 L 7.21875 4.246094 L 6.953125 4.203125 Z M 6.742188 4.828125 "/>
<path fill-rule="nonzero" fill="rgb(30%,30%,30%)" fill-opacity="1" d="M 8.570312 0.453125 L 8.570312 0 L 7.75 0 L 7.75 0.453125 L 2.707031 0.453125 L 2.707031 0 L 1.886719 0 L 1.886719 0.453125 L 0 0.453125 L 0 8.734375 L 1.886719 8.734375 L 1.886719 11 L 2.707031 11 L 2.707031 8.734375 L 7.75 8.734375 L 7.75 11 L 8.570312 11 L 8.570312 8.734375 L 10.410156 8.734375 L 10.410156 0.453125 Z M 4.847656 5.75 L 5.03125 6.792969 L 4.582031 5.773438 Z M 4.488281 5.5625 L 3.617188 3.609375 C 3.855469 3.542969 4.121094 3.464844 4.417969 3.382812 L 4.808594 5.535156 Z M 5.027344 5.515625 L 4.632812 3.320312 C 5.25 3.144531 5.992188 2.933594 6.894531 2.675781 L 6.15625 5.417969 Z M 4.59375 3.105469 L 4.265625 1.28125 L 7.269531 1.28125 L 6.960938 2.429688 C 6.210938 2.644531 5.375 2.882812 4.59375 3.105469 Z M 9.382812 7.90625 L 1.027344 7.90625 L 1.027344 1.28125 L 4.042969 1.28125 L 4.378906 3.164062 C 4.085938 3.25 3.796875 3.332031 3.527344 3.40625 L 2.652344 1.4375 L 2.453125 1.523438 L 3.316406 3.464844 C 2.371094 3.734375 1.683594 3.925781 1.628906 3.9375 L 1.648438 4.046875 L 1.648438 4.15625 C 1.660156 4.15625 1.683594 4.15625 3.40625 3.667969 L 4.257812 5.582031 L 1.785156 5.800781 L 1.800781 6.019531 L 4.351562 5.792969 L 5.203125 7.707031 C 5.21875 7.75 5.257812 7.773438 5.300781 7.773438 C 5.3125 7.773438 5.324219 7.773438 5.332031 7.769531 C 5.386719 7.753906 5.417969 7.699219 5.410156 7.644531 L 5.066406 5.730469 L 6.09375 5.640625 L 5.507812 7.8125 L 5.71875 7.871094 L 6.328125 5.621094 L 9 5.386719 L 8.984375 5.167969 L 6.386719 5.394531 L 7.140625 2.609375 C 7.464844 2.515625 7.808594 2.417969 8.175781 2.3125 L 8.117188 2.101562 C 7.839844 2.179688 7.53125 2.269531 7.207031 2.363281 L 7.496094 1.28125 L 9.382812 1.28125 Z M 9.382812 7.90625 "/>
</svg>
