<?xml version="1.0" encoding="UTF-8"?>
<svg xmlns="http://www.w3.org/2000/svg" xmlns:xlink="http://www.w3.org/1999/xlink" width="8.019884" height="11" viewBox="0 0 8.019884 11">
<path fill-rule="nonzero" fill="rgb(30%,30%,30%)" fill-opacity="1" d="M 0.34375 1.167969 L 7.664062 1.167969 C 7.859375 1.167969 8.019531 1.324219 8.019531 1.523438 L 8.019531 1.535156 C 8.019531 1.722656 7.867188 1.878906 7.675781 1.878906 L 0.355469 1.878906 C 0.160156 1.878906 0 1.71875 0 1.523438 L 0 1.507812 C 0 1.320312 0.152344 1.167969 0.34375 1.167969 Z M 0.34375 1.167969 "/>
<path fill-rule="nonzero" fill="rgb(30%,30%,30%)" fill-opacity="1" d="M 2.324219 0 L 5.679688 0 C 5.871094 0 6.023438 0.152344 6.023438 0.34375 L 6.023438 0.464844 C 6.023438 0.601562 5.914062 0.710938 5.777344 0.710938 L 2.324219 0.710938 C 2.132812 0.710938 1.980469 0.558594 1.980469 0.367188 L 1.980469 0.34375 C 1.980469 0.152344 2.132812 0 2.324219 0 Z M 2.324219 0 "/>
<path fill-rule="nonzero" fill="rgb(30%,30%,30%)" fill-opacity="1" d="M 7.410156 2.742188 C 7.410156 2.550781 7.253906 2.394531 7.0625 2.394531 C 6.863281 2.394531 6.699219 2.558594 6.699219 2.757812 L 6.699219 10.269531 C 6.699219 10.28125 6.6875 10.289062 6.675781 10.289062 L 5.894531 10.289062 C 5.882812 10.289062 5.871094 10.28125 5.871094 10.269531 L 5.871094 2.757812 C 5.871094 2.558594 5.707031 2.394531 5.507812 2.394531 C 5.316406 2.394531 5.160156 2.550781 5.160156 2.742188 L 5.160156 10.269531 C 5.160156 10.28125 5.152344 10.289062 5.140625 10.289062 L 4.378906 10.289062 C 4.367188 10.289062 4.359375 10.28125 4.359375 10.269531 L 4.359375 2.757812 C 4.359375 2.558594 4.195312 2.394531 3.996094 2.394531 C 3.804688 2.394531 3.648438 2.550781 3.648438 2.742188 L 3.648438 10.269531 C 3.648438 10.28125 3.636719 10.289062 3.625 10.289062 L 2.882812 10.289062 C 2.871094 10.289062 2.863281 10.28125 2.863281 10.269531 L 2.863281 2.742188 C 2.863281 2.550781 2.707031 2.394531 2.515625 2.394531 C 2.3125 2.394531 2.152344 2.558594 2.152344 2.757812 L 2.152344 10.269531 C 2.152344 10.28125 2.140625 10.289062 2.128906 10.289062 L 1.34375 10.289062 C 1.332031 10.289062 1.320312 10.28125 1.320312 10.269531 L 1.320312 2.746094 C 1.320312 2.550781 1.164062 2.394531 0.96875 2.394531 L 0.957031 2.394531 C 0.765625 2.394531 0.609375 2.550781 0.609375 2.742188 L 0.609375 10.289062 L 0.601562 10.289062 L 0.601562 10.65625 C 0.601562 10.847656 0.753906 11 0.945312 11 L 7.0625 11 C 7.253906 11 7.40625 10.847656 7.40625 10.65625 L 7.40625 10.648438 C 7.410156 10.632812 7.410156 10.621094 7.410156 10.609375 Z M 7.410156 2.742188 "/>
</svg>
