<?xml version="1.0" encoding="UTF-8"?>
<svg xmlns="http://www.w3.org/2000/svg" xmlns:xlink="http://www.w3.org/1999/xlink" width="7.821626" height="11" viewBox="0 0 7.821626 11">
<path fill-rule="nonzero" fill="rgb(30%,30%,30%)" fill-opacity="1" d="M 3.511719 0 L 4.855469 0 C 4.925781 0 4.980469 0.0546875 4.980469 0.125 L 4.980469 0.6875 C 4.980469 0.753906 4.925781 0.8125 4.855469 0.8125 L 3.511719 0.8125 C 3.441406 0.8125 3.382812 0.757812 3.382812 0.6875 L 3.382812 0.125 C 3.386719 0.0546875 3.441406 0 3.511719 0 Z M 6.078125 2.472656 C 5.675781 2.46875 5.269531 2.46875 4.859375 2.464844 C 4.789062 2.464844 4.730469 2.40625 4.730469 2.335938 L 4.730469 1.304688 C 4.730469 1.234375 4.671875 1.175781 4.601562 1.175781 L 3.851562 1.175781 C 3.777344 1.175781 3.71875 1.234375 3.71875 1.304688 L 3.71875 2.335938 C 3.71875 2.40625 3.664062 2.464844 3.589844 2.464844 C 3.1875 2.46875 2.78125 2.472656 2.375 2.484375 C 2.046875 2.484375 1.757812 2.628906 1.601562 2.867188 L 1.589844 2.886719 C 1.378906 3.234375 1.335938 4.148438 1.324219 4.613281 C 1.324219 4.761719 1.4375 4.882812 1.585938 4.886719 C 1.589844 4.886719 1.59375 4.886719 1.597656 4.886719 L 2.023438 4.878906 C 2.171875 4.875 2.285156 4.757812 2.285156 4.609375 C 2.28125 4.234375 2.296875 3.582031 2.441406 3.492188 C 2.628906 3.371094 6.746094 3.441406 7.6875 3.453125 C 7.761719 3.453125 7.820312 3.394531 7.820312 3.324219 C 7.820312 3.324219 7.820312 3.320312 7.820312 3.320312 L 7.820312 2.613281 C 7.820312 2.542969 7.765625 2.484375 7.691406 2.484375 C 7.152344 2.484375 6.605469 2.480469 6.078125 2.472656 Z M 3.433594 11 L 0.667969 11 C 0.605469 11 0.550781 10.953125 0.542969 10.886719 L 0 5.675781 C -0.0078125 5.605469 0.0429688 5.546875 0.113281 5.539062 C 0.117188 5.539062 0.121094 5.535156 0.125 5.535156 L 3.820312 5.535156 C 3.890625 5.535156 3.945312 5.59375 3.945312 5.664062 C 3.945312 5.667969 3.945312 5.667969 3.945312 5.671875 L 3.5625 10.882812 C 3.558594 10.949219 3.5 11 3.433594 11 Z M 3.230469 6.882812 C 3.285156 6.859375 3.308594 6.800781 3.285156 6.746094 C 3.261719 6.691406 3.199219 6.667969 3.148438 6.691406 C 3.140625 6.691406 2.636719 6.90625 1.996094 6.652344 C 1.285156 6.371094 0.933594 6.53125 0.761719 6.609375 C 0.742188 6.617188 0.722656 6.628906 0.710938 6.632812 C 0.65625 6.648438 0.625 6.707031 0.640625 6.761719 C 0.660156 6.820312 0.71875 6.847656 0.773438 6.832031 C 0.800781 6.824219 0.824219 6.8125 0.851562 6.800781 C 0.996094 6.734375 1.292969 6.597656 1.917969 6.847656 C 2.148438 6.941406 2.390625 6.988281 2.636719 6.988281 C 2.984375 6.988281 3.214844 6.890625 3.230469 6.882812 Z M 3.230469 7.660156 C 3.285156 7.636719 3.308594 7.574219 3.285156 7.519531 C 3.261719 7.46875 3.199219 7.441406 3.148438 7.464844 C 3.140625 7.46875 2.636719 7.679688 1.996094 7.425781 C 1.285156 7.144531 0.933594 7.304688 0.761719 7.382812 C 0.742188 7.394531 0.722656 7.402344 0.710938 7.40625 C 0.65625 7.421875 0.625 7.480469 0.640625 7.539062 C 0.660156 7.59375 0.71875 7.625 0.773438 7.605469 C 0.800781 7.597656 0.824219 7.585938 0.851562 7.574219 C 0.996094 7.507812 1.292969 7.375 1.917969 7.621094 C 2.148438 7.714844 2.390625 7.761719 2.636719 7.761719 C 2.984375 7.765625 3.214844 7.667969 3.230469 7.660156 Z M 3.230469 7.660156 "/>
</svg>
