<?xml version="1.0" encoding="UTF-8" standalone="no"?>
<!-- Created with Inkscape (http://www.inkscape.org/) -->

<svg
   xmlns:dc="http://purl.org/dc/elements/1.1/"
   xmlns:cc="http://creativecommons.org/ns#"
   xmlns:rdf="http://www.w3.org/1999/02/22-rdf-syntax-ns#"
   xmlns:svg="http://www.w3.org/2000/svg"
   xmlns="http://www.w3.org/2000/svg"
   xmlns:xlink="http://www.w3.org/1999/xlink"
   xmlns:sodipodi="http://sodipodi.sourceforge.net/DTD/sodipodi-0.dtd"
   xmlns:inkscape="http://www.inkscape.org/namespaces/inkscape"
   width="30px"
   height="30px"
   version="1.1"
   id="svg8"
   inkscape:version="0.92.4 5da689c313, 2019-01-14"
   sodipodi:docname="container.svg">
  <defs
     id="defs2" />
  <sodipodi:namedview
     id="base"
     pagecolor="#ffffff"
     bordercolor="#666666"
     borderopacity="1.0"
     inkscape:pageopacity="0.0"
     inkscape:pageshadow="2"
     inkscape:zoom="13.049334"
     inkscape:cx="18.679046"
     inkscape:cy="12.165829"
     inkscape:document-units="px"
     inkscape:current-layer="layer1"
     showgrid="false"
     inkscape:snap-page="false"
     units="px"
     inkscape:window-width="1884"
     inkscape:window-height="1061"
     inkscape:window-x="0"
     inkscape:window-y="0"
     inkscape:window-maximized="1"
     fit-margin-top="0"
     fit-margin-left="0"
     fit-margin-right="0"
     fit-margin-bottom="0" />
  <metadata
     id="metadata5">
    <rdf:RDF>
      <cc:Work
         rdf:about="">
        <dc:format>image/svg+xml</dc:format>
        <dc:type
           rdf:resource="http://purl.org/dc/dcmitype/StillImage" />
        <dc:title></dc:title>
      </cc:Work>
    </rdf:RDF>
  </metadata>
    <circle
       style="color:#000000;clip-rule:nonzero;display:inline;overflow:visible;visibility:visible;opacity:1;isolation:auto;mix-blend-mode:normal;color-interpolation:sRGB;color-interpolation-filters:linearRGB;solid-color:#000000;solid-opacity:1;vector-effect:none;fill:#2a62ac;fill-opacity:1;fill-rule:evenodd;stroke:#ffffff;stroke-width:1;stroke-linecap:butt;stroke-linejoin:miter;stroke-miterlimit:4;stroke-dasharray:none;stroke-dashoffset:0;stroke-opacity:1;marker:none;color-rendering:auto;image-rendering:auto;shape-rendering:auto;text-rendering:auto;enable-background:accumulate"
       id="path815"
       cx="15"
       cy="15"
       r="14.5" />
<g transform="translate(6.5,6.5)"><path fill-rule="nonzero" fill="#FFFFFF" fill-opacity="1" d="M 12.980469 8.5 C 12.980469 10.972656 10.972656 12.980469 8.5 12.980469 C 6.023438 12.980469 4.019531 10.972656 4.019531 8.5 C 4.019531 6.027344 6.023438 4.019531 8.5 4.019531 C 10.972656 4.019531 12.980469 6.027344 12.980469 8.5 Z M 12.980469 8.5 "/>
<path fill-rule="nonzero" fill="#FFFFFF" fill-opacity="1" d="M 3.574219 6.230469 L 0.886719 4.679688 C 0.371094 5.710938 0.0664062 6.839844 0 7.992188 L 3.101562 7.992188 C 3.160156 7.382812 3.320312 6.789062 3.574219 6.230469 Z M 3.574219 6.230469 "/>
<path fill-rule="nonzero" fill="#FFFFFF" fill-opacity="1" d="M 4.078125 11.636719 L 1.390625 13.191406 C 2.019531 14.136719 2.828125 14.949219 3.773438 15.582031 L 5.324219 12.894531 C 4.84375 12.546875 4.421875 12.121094 4.078125 11.636719 Z M 4.078125 11.636719 "/>
<path fill-rule="nonzero" fill="#FFFFFF" fill-opacity="1" d="M 3.101562 9.003906 L 0 9.003906 C 0.0664062 10.15625 0.367188 11.28125 0.886719 12.3125 L 3.570312 10.761719 C 3.316406 10.207031 3.15625 9.613281 3.101562 9.003906 Z M 3.101562 9.003906 "/>
<path fill-rule="nonzero" fill="#FFFFFF" fill-opacity="1" d="M 10.714844 3.554688 L 12.269531 0.863281 C 11.242188 0.355469 10.121094 0.0625 8.980469 0 L 8.980469 3.101562 C 9.578125 3.152344 10.167969 3.308594 10.714844 3.554688 Z M 10.714844 3.554688 "/>
<path fill-rule="nonzero" fill="#FFFFFF" fill-opacity="1" d="M 5.363281 4.078125 L 3.8125 1.390625 C 2.855469 2.023438 2.03125 2.847656 1.394531 3.804688 L 4.082031 5.355469 C 4.4375 4.863281 4.871094 4.429688 5.363281 4.078125 Z M 5.363281 4.078125 "/>
<path fill-rule="nonzero" fill="#FFFFFF" fill-opacity="1" d="M 13.894531 7.992188 L 16.996094 7.992188 C 16.929688 6.84375 16.628906 5.71875 16.113281 4.691406 L 13.425781 6.242188 C 13.679688 6.792969 13.839844 7.386719 13.894531 7.992188 Z M 13.894531 7.992188 "/>
<path fill-rule="nonzero" fill="#FFFFFF" fill-opacity="1" d="M 7.964844 3.105469 L 7.964844 0.00390625 C 6.824219 0.0742188 5.710938 0.371094 4.691406 0.882812 L 6.242188 3.570312 C 6.785156 3.320312 7.371094 3.164062 7.964844 3.105469 Z M 7.964844 3.105469 "/>
<path fill-rule="nonzero" fill="#FFFFFF" fill-opacity="1" d="M 8.980469 13.898438 L 8.980469 17 C 10.140625 16.9375 11.273438 16.632812 12.3125 16.113281 L 10.761719 13.425781 C 10.199219 13.683594 9.597656 13.84375 8.980469 13.898438 Z M 8.980469 13.898438 "/>
<path fill-rule="nonzero" fill="#FFFFFF" fill-opacity="1" d="M 13.894531 9.003906 C 13.839844 9.609375 13.683594 10.199219 13.429688 10.75 L 16.117188 12.304688 C 16.632812 11.273438 16.929688 10.152344 16.996094 9.003906 Z M 13.894531 9.003906 "/>
<path fill-rule="nonzero" fill="#FFFFFF" fill-opacity="1" d="M 11.636719 12.917969 L 13.191406 15.605469 C 14.152344 14.96875 14.976562 14.144531 15.609375 13.179688 L 12.921875 11.628906 C 12.570312 12.128906 12.136719 12.5625 11.636719 12.917969 Z M 11.636719 12.917969 "/>
<path fill-rule="nonzero" fill="#FFFFFF" fill-opacity="1" d="M 12.917969 5.363281 L 15.605469 3.8125 C 14.960938 2.839844 14.125 2.007812 13.148438 1.367188 L 11.597656 4.054688 C 12.109375 4.410156 12.558594 4.855469 12.917969 5.363281 Z M 12.917969 5.363281 "/>
<path fill-rule="nonzero" fill="#FFFFFF" fill-opacity="1" d="M 6.195312 13.40625 L 4.644531 16.09375 C 5.679688 16.617188 6.808594 16.925781 7.964844 16.996094 L 7.964844 13.894531 C 7.351562 13.832031 6.753906 13.667969 6.195312 13.40625 Z M 6.195312 13.40625 "/>
</g>
</svg>
