<?xml version="1.0" encoding="UTF-8" standalone="no"?>
<!-- Created with Inkscape (http://www.inkscape.org/) -->

<svg
   xmlns:dc="http://purl.org/dc/elements/1.1/"
   xmlns:cc="http://creativecommons.org/ns#"
   xmlns:rdf="http://www.w3.org/1999/02/22-rdf-syntax-ns#"
   xmlns:svg="http://www.w3.org/2000/svg"
   xmlns="http://www.w3.org/2000/svg"
   xmlns:xlink="http://www.w3.org/1999/xlink"
   xmlns:sodipodi="http://sodipodi.sourceforge.net/DTD/sodipodi-0.dtd"
   xmlns:inkscape="http://www.inkscape.org/namespaces/inkscape"
   width="30px"
   height="30px"
   version="1.1"
   id="svg8"
   inkscape:version="0.92.4 5da689c313, 2019-01-14"
   sodipodi:docname="container.svg">
  <defs
     id="defs2" />
  <sodipodi:namedview
     id="base"
     pagecolor="#ffffff"
     bordercolor="#666666"
     borderopacity="1.0"
     inkscape:pageopacity="0.0"
     inkscape:pageshadow="2"
     inkscape:zoom="13.049334"
     inkscape:cx="18.679046"
     inkscape:cy="12.165829"
     inkscape:document-units="px"
     inkscape:current-layer="layer1"
     showgrid="false"
     inkscape:snap-page="false"
     units="px"
     inkscape:window-width="1884"
     inkscape:window-height="1061"
     inkscape:window-x="0"
     inkscape:window-y="0"
     inkscape:window-maximized="1"
     fit-margin-top="0"
     fit-margin-left="0"
     fit-margin-right="0"
     fit-margin-bottom="0" />
  <metadata
     id="metadata5">
    <rdf:RDF>
      <cc:Work
         rdf:about="">
        <dc:format>image/svg+xml</dc:format>
        <dc:type
           rdf:resource="http://purl.org/dc/dcmitype/StillImage" />
        <dc:title></dc:title>
      </cc:Work>
    </rdf:RDF>
  </metadata>
    <circle
       style="color:#000000;clip-rule:nonzero;display:inline;overflow:visible;visibility:visible;opacity:1;isolation:auto;mix-blend-mode:normal;color-interpolation:sRGB;color-interpolation-filters:linearRGB;solid-color:#000000;solid-opacity:1;vector-effect:none;fill:#ffffff;fill-opacity:1;fill-rule:evenodd;stroke:#2a62ac;stroke-width:1;stroke-linecap:butt;stroke-linejoin:miter;stroke-miterlimit:4;stroke-dasharray:none;stroke-dashoffset:0;stroke-opacity:1;marker:none;color-rendering:auto;image-rendering:auto;shape-rendering:auto;text-rendering:auto;enable-background:accumulate"
       id="path815"
       cx="15"
       cy="15"
       r="14.5" />
<g transform="translate(7.0,6.5)"><path fill-rule="nonzero" fill="rgb(30%,30%,30%)" fill-opacity="1" d="M 4.101562 5.214844 L 3.335938 5.414062 L 3.308594 3.578125 L 4.046875 3.339844 Z M 4.101562 5.214844 "/>
<path fill-rule="nonzero" fill="rgb(30%,30%,30%)" fill-opacity="1" d="M 6.414062 4.597656 L 5.648438 4.84375 L 5.632812 4.042969 L 6.359375 4.035156 Z M 6.414062 4.597656 "/>
<path fill-rule="nonzero" fill="rgb(30%,30%,30%)" fill-opacity="1" d="M 8.167969 4.136719 L 7.285156 4.375 L 7.03125 3.132812 L 7.984375 2.949219 Z M 8.167969 4.136719 "/>
<path fill-rule="nonzero" fill="rgb(30%,30%,30%)" fill-opacity="1" d="M 9.457031 3.761719 L 8.355469 4.046875 L 8.15625 2.617188 L 9.261719 2.375 Z M 9.457031 3.761719 "/>
<path fill-rule="nonzero" fill="rgb(30%,30%,30%)" fill-opacity="1" d="M 2.945312 6.953125 L 3.148438 8.53125 L 4.496094 8.371094 L 4.132812 6.652344 Z M 2.945312 6.953125 "/>
<path fill-rule="nonzero" fill="rgb(30%,30%,30%)" fill-opacity="1" d="M 4.652344 6.515625 L 5.285156 6.34375 L 5.992188 8.1875 L 5.027344 8.304688 Z M 4.652344 6.515625 "/>
<path fill-rule="nonzero" fill="rgb(30%,30%,30%)" fill-opacity="1" d="M 5.835938 5.777344 L 6.773438 5.527344 L 6.933594 7.019531 L 6.472656 7.085938 Z M 5.835938 5.777344 "/>
<path fill-rule="nonzero" fill="rgb(30%,30%,30%)" fill-opacity="1" d="M 10.257812 8.472656 C 10.257812 8.78125 10.003906 9.035156 9.695312 9.035156 C 9.386719 9.035156 9.132812 8.78125 9.132812 8.472656 C 9.132812 8.164062 9.386719 7.910156 9.695312 7.910156 C 10.003906 7.910156 10.257812 8.164062 10.257812 8.472656 Z M 10.257812 8.472656 "/>
<path fill-rule="nonzero" fill="rgb(30%,30%,30%)" fill-opacity="1" d="M 8.722656 5.011719 L 9.394531 4.804688 L 9.707031 6.402344 L 8.960938 6.671875 Z M 8.722656 5.011719 "/>
<path fill-rule="nonzero" fill="rgb(30%,30%,30%)" fill-opacity="1" d="M 7.5 6.398438 L 8.453125 5.933594 L 8.929688 8.128906 L 7.910156 8.222656 Z M 7.5 6.398438 "/>
<path fill-rule="nonzero" fill="rgb(30%,30%,30%)" fill-opacity="1" d="M 10.847656 5.972656 L 12.089844 6.277344 L 12.421875 4.769531 L 11.269531 4.546875 Z M 10.847656 5.972656 "/>
<path fill-rule="nonzero" fill="rgb(30%,30%,30%)" fill-opacity="1" d="M 6.128906 9.460938 L 6.566406 9.433594 L 7.304688 11.203125 L 6.394531 11.414062 Z M 6.128906 9.460938 "/>
<path fill-rule="nonzero" fill="rgb(30%,30%,30%)" fill-opacity="1" d="M 4.160156 9.652344 L 5.613281 9.519531 L 5.980469 11.84375 L 4.976562 11.84375 L 4.84375 10.324219 L 3.046875 10.417969 L 2.957031 9.71875 Z M 4.160156 9.652344 "/>
<path fill-rule="nonzero" fill="rgb(30%,30%,30%)" fill-opacity="1" d="M 11.179688 10.570312 L 11.324219 12.011719 L 10.730469 12.023438 L 10.703125 11.164062 L 10.121094 11.097656 L 9.910156 12.117188 L 9.472656 12.011719 L 9.882812 10.453125 Z M 11.179688 10.570312 "/>
<path fill-rule="nonzero" fill="rgb(30%,30%,30%)" fill-opacity="1" d="M 10.332031 9.195312 L 10.054688 10.160156 L 11.113281 10.226562 L 10.886719 8.984375 Z M 10.332031 9.195312 "/>
<path fill-rule="nonzero" fill="rgb(30%,30%,30%)" fill-opacity="1" d="M 10.417969 7.460938 L 10.828125 7.867188 L 12.425781 7.777344 L 12.375 7.246094 L 10.945312 7.300781 L 11.15625 6.5625 L 10.746094 6.496094 Z M 10.417969 7.460938 "/>
<path fill-rule="nonzero" fill="rgb(30%,30%,30%)" fill-opacity="1" d="M 13.246094 0.699219 L 13.246094 0 L 11.976562 0 L 11.976562 0.699219 L 4.183594 0.699219 L 4.183594 0 L 2.914062 0 L 2.914062 0.699219 L 0 0.699219 L 0 13.5 L 2.914062 13.5 L 2.914062 17 L 4.183594 17 L 4.183594 13.5 L 11.976562 13.5 L 11.976562 17 L 13.246094 17 L 13.246094 13.5 L 16.085938 13.5 L 16.085938 0.699219 Z M 7.488281 8.886719 L 7.777344 10.496094 L 7.078125 8.925781 Z M 6.933594 8.597656 L 5.59375 5.578125 C 5.960938 5.472656 6.371094 5.355469 6.832031 5.226562 L 7.429688 8.554688 Z M 7.765625 8.523438 L 7.15625 5.132812 C 8.109375 4.863281 9.261719 4.535156 10.65625 4.136719 L 9.511719 8.371094 Z M 7.097656 4.796875 L 6.589844 1.980469 L 11.238281 1.980469 L 10.757812 3.757812 C 9.597656 4.089844 8.304688 4.457031 7.097656 4.796875 Z M 14.5 12.21875 L 1.585938 12.21875 L 1.585938 1.980469 L 6.246094 1.980469 L 6.769531 4.890625 C 6.3125 5.019531 5.871094 5.148438 5.453125 5.265625 L 4.101562 2.21875 L 3.792969 2.355469 L 5.125 5.355469 C 3.664062 5.769531 2.605469 6.066406 2.519531 6.085938 L 2.546875 6.253906 L 2.546875 6.421875 C 2.566406 6.421875 2.601562 6.421875 5.265625 5.667969 L 6.578125 8.628906 L 2.757812 8.964844 L 2.785156 9.300781 L 6.722656 8.957031 L 8.039062 11.914062 C 8.066406 11.976562 8.128906 12.015625 8.191406 12.015625 C 8.210938 12.015625 8.226562 12.011719 8.242188 12.007812 C 8.324219 11.980469 8.375 11.898438 8.359375 11.816406 L 7.828125 8.859375 L 9.421875 8.71875 L 8.515625 12.074219 L 8.839844 12.164062 L 9.777344 8.6875 L 13.910156 8.324219 L 13.882812 7.988281 L 9.871094 8.339844 L 11.035156 4.03125 C 11.539062 3.886719 12.070312 3.734375 12.636719 3.574219 L 12.542969 3.25 C 12.117188 3.371094 11.640625 3.503906 11.136719 3.648438 L 11.585938 1.980469 L 14.5 1.980469 Z M 14.5 12.21875 "/>
</g>
</svg>
