<?xml version="1.0" encoding="UTF-8" standalone="no"?>
<!-- Created with Inkscape (http://www.inkscape.org/) -->

<svg
   xmlns:dc="http://purl.org/dc/elements/1.1/"
   xmlns:cc="http://creativecommons.org/ns#"
   xmlns:rdf="http://www.w3.org/1999/02/22-rdf-syntax-ns#"
   xmlns:svg="http://www.w3.org/2000/svg"
   xmlns="http://www.w3.org/2000/svg"
   xmlns:xlink="http://www.w3.org/1999/xlink"
   xmlns:sodipodi="http://sodipodi.sourceforge.net/DTD/sodipodi-0.dtd"
   xmlns:inkscape="http://www.inkscape.org/namespaces/inkscape"
   width="30px"
   height="30px"
   version="1.1"
   id="svg8"
   inkscape:version="0.92.4 5da689c313, 2019-01-14"
   sodipodi:docname="container.svg">
  <defs
     id="defs2" />
  <sodipodi:namedview
     id="base"
     pagecolor="#ffffff"
     bordercolor="#666666"
     borderopacity="1.0"
     inkscape:pageopacity="0.0"
     inkscape:pageshadow="2"
     inkscape:zoom="13.049334"
     inkscape:cx="18.679046"
     inkscape:cy="12.165829"
     inkscape:document-units="px"
     inkscape:current-layer="layer1"
     showgrid="false"
     inkscape:snap-page="false"
     units="px"
     inkscape:window-width="1884"
     inkscape:window-height="1061"
     inkscape:window-x="0"
     inkscape:window-y="0"
     inkscape:window-maximized="1"
     fit-margin-top="0"
     fit-margin-left="0"
     fit-margin-right="0"
     fit-margin-bottom="0" />
  <metadata
     id="metadata5">
    <rdf:RDF>
      <cc:Work
         rdf:about="">
        <dc:format>image/svg+xml</dc:format>
        <dc:type
           rdf:resource="http://purl.org/dc/dcmitype/StillImage" />
        <dc:title></dc:title>
      </cc:Work>
    </rdf:RDF>
  </metadata>
    <circle
       style="color:#000000;clip-rule:nonzero;display:inline;overflow:visible;visibility:visible;opacity:1;isolation:auto;mix-blend-mode:normal;color-interpolation:sRGB;color-interpolation-filters:linearRGB;solid-color:#000000;solid-opacity:1;vector-effect:none;fill:#ffffff;fill-opacity:1;fill-rule:evenodd;stroke:#2a62ac;stroke-width:1;stroke-linecap:butt;stroke-linejoin:miter;stroke-miterlimit:4;stroke-dasharray:none;stroke-dashoffset:0;stroke-opacity:1;marker:none;color-rendering:auto;image-rendering:auto;shape-rendering:auto;text-rendering:auto;enable-background:accumulate"
       id="path815"
       cx="15"
       cy="15"
       r="14.5" />
<g transform="translate(9.0,6.5)"><path fill-rule="nonzero" fill="rgb(30%,30%,30%)" fill-opacity="1" d="M 5.425781 0 L 7.503906 0 C 7.609375 0 7.699219 0.0859375 7.699219 0.195312 L 7.699219 1.058594 C 7.699219 1.167969 7.613281 1.257812 7.503906 1.257812 L 5.425781 1.257812 C 5.320312 1.257812 5.230469 1.167969 5.230469 1.058594 L 5.230469 0.195312 C 5.230469 0.0859375 5.320312 0 5.425781 0 Z M 9.394531 3.824219 C 8.769531 3.816406 8.140625 3.8125 7.511719 3.808594 C 7.398438 3.808594 7.3125 3.71875 7.3125 3.609375 L 7.3125 2.019531 C 7.3125 1.90625 7.222656 1.816406 7.109375 1.816406 L 5.953125 1.816406 C 5.839844 1.816406 5.75 1.90625 5.75 2.019531 L 5.75 3.609375 C 5.75 3.71875 5.660156 3.808594 5.550781 3.808594 C 4.921875 3.8125 4.296875 3.824219 3.671875 3.835938 C 3.167969 3.839844 2.71875 4.0625 2.472656 4.429688 L 2.453125 4.460938 C 2.132812 4.996094 2.0625 6.414062 2.046875 7.132812 C 2.042969 7.359375 2.222656 7.550781 2.449219 7.550781 C 2.457031 7.550781 2.460938 7.550781 2.46875 7.550781 L 3.128906 7.539062 C 3.355469 7.535156 3.535156 7.351562 3.53125 7.125 C 3.527344 6.546875 3.550781 5.539062 3.773438 5.394531 C 4.0625 5.210938 10.421875 5.320312 11.882812 5.335938 C 11.992188 5.335938 12.085938 5.246094 12.085938 5.136719 C 12.085938 5.136719 12.085938 5.132812 12.085938 5.132812 L 12.089844 4.039062 C 12.089844 3.929688 12 3.839844 11.886719 3.839844 C 11.054688 3.839844 10.210938 3.832031 9.394531 3.824219 Z M 5.308594 17 L 1.035156 17 C 0.933594 17 0.847656 16.925781 0.839844 16.824219 L 0 8.773438 C -0.0078125 8.664062 0.0664062 8.570312 0.175781 8.558594 C 0.183594 8.558594 0.1875 8.554688 0.195312 8.554688 L 5.902344 8.554688 C 6.011719 8.554688 6.097656 8.644531 6.097656 8.753906 C 6.097656 8.757812 6.097656 8.761719 6.097656 8.765625 L 5.507812 16.820312 C 5.496094 16.921875 5.410156 17 5.308594 17 Z M 4.992188 10.640625 C 5.074219 10.605469 5.113281 10.507812 5.078125 10.425781 C 5.042969 10.34375 4.945312 10.304688 4.863281 10.339844 C 4.855469 10.34375 4.074219 10.671875 3.082031 10.28125 C 1.988281 9.84375 1.441406 10.09375 1.179688 10.214844 C 1.148438 10.230469 1.117188 10.242188 1.101562 10.246094 C 1.011719 10.273438 0.964844 10.363281 0.992188 10.453125 C 1.019531 10.539062 1.109375 10.585938 1.195312 10.558594 C 1.234375 10.546875 1.273438 10.527344 1.316406 10.507812 C 1.535156 10.40625 2 10.199219 2.964844 10.582031 C 3.320312 10.726562 3.695312 10.800781 4.074219 10.800781 C 4.613281 10.800781 4.96875 10.652344 4.992188 10.640625 Z M 4.992188 11.835938 C 5.074219 11.800781 5.113281 11.707031 5.078125 11.621094 C 5.042969 11.539062 4.945312 11.503906 4.863281 11.539062 C 4.855469 11.542969 4.074219 11.871094 3.082031 11.476562 C 1.988281 11.042969 1.441406 11.292969 1.179688 11.410156 C 1.148438 11.425781 1.117188 11.441406 1.101562 11.445312 C 1.011719 11.472656 0.964844 11.5625 0.992188 11.648438 C 1.019531 11.734375 1.109375 11.78125 1.195312 11.757812 C 1.234375 11.742188 1.273438 11.726562 1.316406 11.707031 C 1.535156 11.605469 2 11.398438 2.964844 11.78125 C 3.320312 11.925781 3.695312 11.996094 4.074219 11.996094 C 4.613281 12 4.96875 11.847656 4.992188 11.835938 Z M 4.992188 11.835938 "/>
</g>
</svg>
