<?xml version="1.0" encoding="UTF-8"?>
<svg xmlns="http://www.w3.org/2000/svg" xmlns:xlink="http://www.w3.org/1999/xlink" width="11" height="9.333345" viewBox="0 0 11 9.333345">
<path fill-rule="nonzero" fill="rgb(30%,30%,30%)" fill-opacity="1" d="M 6.542969 4.8125 C 6.542969 5.320312 6.128906 5.730469 5.621094 5.730469 C 5.113281 5.730469 4.703125 5.320312 4.703125 4.8125 C 4.703125 4.304688 5.113281 3.890625 5.621094 3.890625 C 6.128906 3.890625 6.542969 4.304688 6.542969 4.8125 M 5.953125 4.8125 C 5.953125 4.628906 5.804688 4.480469 5.621094 4.480469 C 5.4375 4.480469 5.289062 4.628906 5.289062 4.8125 C 5.289062 4.996094 5.4375 5.144531 5.621094 5.144531 C 5.804688 5.144531 5.953125 4.996094 5.953125 4.8125 "/>
<path fill-rule="nonzero" fill="rgb(30%,30%,30%)" fill-opacity="1" d="M 10.648438 4.390625 L 9.847656 4.390625 L 9.847656 1.527344 C 9.847656 0.683594 9.164062 0 8.320312 0 L 2.914062 0 C 2.070312 0 1.386719 0.683594 1.386719 1.527344 L 1.386719 3.5625 C 1.386719 4.207031 1.90625 4.726562 2.550781 4.726562 L 4.425781 4.726562 C 4.453125 4.074219 4.984375 3.550781 5.644531 3.550781 C 6.304688 3.550781 6.835938 4.089844 6.863281 4.742188 L 11 4.742188 C 11 4.550781 10.84375 4.390625 10.648438 4.390625 M 5.679688 1.832031 C 5.679688 2.023438 5.523438 2.175781 5.335938 2.175781 L 2.9375 2.175781 C 2.75 2.175781 2.59375 2.023438 2.59375 1.832031 L 2.59375 1.308594 C 2.59375 1.121094 2.75 0.964844 2.9375 0.964844 L 5.335938 0.964844 C 5.523438 0.964844 5.679688 1.121094 5.679688 1.308594 Z M 8.886719 1.773438 C 8.886719 1.996094 8.707031 2.175781 8.488281 2.175781 L 7.496094 2.175781 C 7.277344 2.175781 7.097656 1.996094 7.097656 1.773438 L 7.097656 1.367188 C 7.097656 1.144531 7.277344 0.964844 7.496094 0.964844 L 8.488281 0.964844 C 8.707031 0.964844 8.886719 1.144531 8.886719 1.367188 Z M 8.886719 1.773438 "/>
<path fill-rule="nonzero" fill="rgb(30%,30%,30%)" fill-opacity="1" d="M 3.65625 5.730469 L 3.65625 6.246094 L 5.421875 6.246094 L 5.421875 8.097656 C 5.421875 8.457031 5.132812 8.75 4.773438 8.75 L 1.226562 8.75 C 0.871094 8.75 0.582031 8.460938 0.582031 8.105469 L 0.582031 6.246094 L 2.179688 6.246094 L 2.179688 5.730469 L 0 5.730469 L 0 8.589844 C 0 9 0.332031 9.332031 0.742188 9.332031 L 10.171875 9.332031 C 10.582031 9.332031 10.914062 9 10.914062 8.589844 L 10.914062 5.730469 Z M 3.65625 5.730469 "/>
<path fill-rule="nonzero" fill="rgb(30%,30%,30%)" fill-opacity="1" d="M 3.113281 7.050781 L 3.113281 5.144531 L 2.722656 5.144531 L 2.722656 7.050781 L 2.09375 7.050781 L 2.917969 8.390625 L 3.78125 7.050781 Z M 3.113281 7.050781 "/>
</svg>
