<?xml version="1.0" encoding="UTF-8"?>
<svg xmlns="http://www.w3.org/2000/svg" xmlns:xlink="http://www.w3.org/1999/xlink" width="11" height="6.540136" viewBox="0 0 11 6.540136">
<path fill-rule="nonzero" fill="rgb(30%,30%,30%)" fill-opacity="1" d="M 2.074219 3.082031 C 1.382812 3.082031 0.789062 3.21875 0.535156 3.414062 L 0.535156 0.265625 C 0.535156 0.121094 0.414062 0 0.265625 0 C 0.121094 0 0 0.121094 0 0.265625 L 0 6.273438 C 0 6.421875 0.121094 6.539062 0.265625 6.539062 C 0.414062 6.539062 0.535156 6.421875 0.535156 6.273438 L 0.535156 3.84375 C 0.789062 4.039062 1.382812 4.175781 2.074219 4.175781 C 2.515625 4.175781 2.917969 4.117188 3.214844 4.027344 L 3.214844 6.296875 C 3.214844 6.433594 3.324219 6.539062 3.457031 6.539062 L 3.507812 6.539062 C 3.640625 6.539062 3.75 6.433594 3.75 6.296875 L 3.75 3.714844 C 3.75 3.703125 3.75 3.644531 3.75 3.628906 C 3.75 3.324219 3 3.082031 2.074219 3.082031 Z M 2.074219 3.082031 "/>
<path fill-rule="nonzero" fill="rgb(30%,30%,30%)" fill-opacity="1" d="M 10.734375 0 C 10.585938 0 10.464844 0.121094 10.464844 0.265625 L 10.464844 3.414062 C 10.210938 3.21875 9.617188 3.082031 8.925781 3.082031 C 8 3.082031 7.25 3.324219 7.25 3.628906 C 7.25 3.644531 7.25 3.703125 7.25 3.714844 L 7.25 6.296875 C 7.25 6.433594 7.359375 6.539062 7.492188 6.539062 L 7.542969 6.539062 C 7.675781 6.539062 7.785156 6.433594 7.785156 6.296875 L 7.785156 4.027344 C 8.082031 4.117188 8.484375 4.175781 8.925781 4.175781 C 9.617188 4.175781 10.210938 4.039062 10.464844 3.84375 L 10.464844 6.273438 C 10.464844 6.421875 10.585938 6.539062 10.734375 6.539062 C 10.878906 6.539062 11 6.421875 11 6.273438 L 11 0.265625 C 11 0.121094 10.878906 0 10.734375 0 Z M 10.734375 0 "/>
<path fill-rule="nonzero" fill="rgb(30%,30%,30%)" fill-opacity="1" d="M 6.609375 6.117188 L 5.796875 6.117188 L 5.796875 2.945312 C 7.472656 2.90625 8.792969 2.5 8.792969 1.996094 C 8.792969 1.472656 7.335938 1.042969 5.542969 1.042969 C 3.746094 1.042969 2.289062 1.472656 2.289062 1.996094 C 2.289062 2.496094 3.59375 2.902344 5.257812 2.945312 L 5.257812 3.046875 L 5.261719 3.046875 L 5.261719 6.117188 L 4.398438 6.117188 C 4.285156 6.117188 4.191406 6.207031 4.191406 6.324219 C 4.191406 6.4375 4.285156 6.53125 4.398438 6.53125 L 6.609375 6.53125 C 6.722656 6.53125 6.816406 6.4375 6.816406 6.324219 C 6.816406 6.207031 6.722656 6.117188 6.609375 6.117188 Z M 6.609375 6.117188 "/>
</svg>
