<?xml version="1.0" encoding="UTF-8"?>
<svg xmlns="http://www.w3.org/2000/svg" xmlns:xlink="http://www.w3.org/1999/xlink" width="11" height="10.80481" viewBox="0 0 11 10.80481">
<path fill-rule="nonzero" fill="rgb(30%,30%,30%)" fill-opacity="1" d="M 5.386719 0 C 5.5625 0 5.707031 0.140625 5.707031 0.316406 C 5.707031 0.570312 5.816406 0.6875 6.027344 0.890625 C 6.261719 1.113281 6.546875 1.386719 6.546875 1.925781 C 6.546875 2.460938 6.257812 2.734375 6.027344 2.957031 C 5.816406 3.160156 5.707031 3.277344 5.707031 3.53125 C 5.707031 3.707031 5.5625 3.847656 5.386719 3.847656 C 5.214844 3.847656 5.070312 3.707031 5.070312 3.53125 C 5.070312 2.992188 5.359375 2.71875 5.589844 2.496094 C 5.804688 2.296875 5.914062 2.179688 5.914062 1.925781 C 5.914062 1.671875 5.804688 1.550781 5.589844 1.351562 C 5.359375 1.128906 5.070312 0.855469 5.070312 0.316406 C 5.070312 0.140625 5.214844 0 5.386719 0 Z M 5.386719 0 "/>
<path fill-rule="nonzero" fill="rgb(30%,30%,30%)" fill-opacity="1" d="M 4.480469 1.351562 C 4.25 1.128906 3.960938 0.855469 3.960938 0.316406 C 3.960938 0.140625 4.105469 0 4.28125 0 C 4.453125 0 4.597656 0.140625 4.597656 0.316406 C 4.597656 0.570312 4.707031 0.6875 4.917969 0.890625 C 5.152344 1.113281 5.4375 1.386719 5.4375 1.925781 C 5.4375 2.460938 5.152344 2.734375 4.917969 2.957031 C 4.707031 3.160156 4.597656 3.277344 4.597656 3.53125 C 4.597656 3.707031 4.453125 3.847656 4.28125 3.847656 C 4.105469 3.847656 3.960938 3.707031 3.960938 3.53125 C 3.960938 2.992188 4.25 2.71875 4.480469 2.496094 C 4.695312 2.296875 4.804688 2.179688 4.804688 1.925781 C 4.804688 1.671875 4.695312 1.550781 4.480469 1.351562 Z M 4.480469 1.351562 "/>
<path fill-rule="nonzero" fill="rgb(30%,30%,30%)" fill-opacity="1" d="M 9.117188 10.804688 L 0.527344 10.804688 C 0.238281 10.804688 0 10.632812 0 10.421875 C 0 10.210938 0.238281 10.039062 0.527344 10.039062 L 9.117188 10.039062 C 9.410156 10.039062 9.644531 10.210938 9.644531 10.421875 C 9.644531 10.632812 9.410156 10.804688 9.117188 10.804688 Z M 9.117188 10.804688 "/>
<path fill-rule="nonzero" fill="rgb(30%,30%,30%)" fill-opacity="1" d="M 11 6.167969 C 11 6.753906 10.640625 7.285156 10.089844 7.496094 C 9.542969 7.707031 8.917969 7.558594 8.523438 7.121094 C 7.898438 8.613281 6.4375 9.582031 4.824219 9.582031 C 2.605469 9.582031 0.808594 7.785156 0.808594 5.566406 C 0.808594 5.0625 0.90625 4.558594 1.09375 4.089844 L 8.550781 4.089844 C 8.664062 4.375 8.742188 4.675781 8.789062 4.980469 C 9.226562 4.6875 9.785156 4.664062 10.25 4.910156 C 10.710938 5.160156 11 5.640625 11 6.167969 Z M 9.59375 5.339844 C 9.128906 5.339844 8.753906 5.714844 8.753906 6.179688 C 8.753906 6.648438 9.128906 7.023438 9.59375 7.023438 C 10.0625 7.023438 10.4375 6.648438 10.4375 6.179688 C 10.4375 5.714844 10.0625 5.339844 9.59375 5.339844 Z M 9.59375 5.339844 "/>
</svg>
