<?xml version="1.0" encoding="UTF-8" standalone="no"?>
<!-- Created with Inkscape (http://www.inkscape.org/) -->

<svg
   xmlns:dc="http://purl.org/dc/elements/1.1/"
   xmlns:cc="http://creativecommons.org/ns#"
   xmlns:rdf="http://www.w3.org/1999/02/22-rdf-syntax-ns#"
   xmlns:svg="http://www.w3.org/2000/svg"
   xmlns="http://www.w3.org/2000/svg"
   xmlns:xlink="http://www.w3.org/1999/xlink"
   xmlns:sodipodi="http://sodipodi.sourceforge.net/DTD/sodipodi-0.dtd"
   xmlns:inkscape="http://www.inkscape.org/namespaces/inkscape"
   width="30px"
   height="30px"
   version="1.1"
   id="svg8"
   inkscape:version="0.92.4 5da689c313, 2019-01-14"
   sodipodi:docname="container.svg">
  <defs
     id="defs2" />
  <sodipodi:namedview
     id="base"
     pagecolor="#ffffff"
     bordercolor="#666666"
     borderopacity="1.0"
     inkscape:pageopacity="0.0"
     inkscape:pageshadow="2"
     inkscape:zoom="13.049334"
     inkscape:cx="18.679046"
     inkscape:cy="12.165829"
     inkscape:document-units="px"
     inkscape:current-layer="layer1"
     showgrid="false"
     inkscape:snap-page="false"
     units="px"
     inkscape:window-width="1884"
     inkscape:window-height="1061"
     inkscape:window-x="0"
     inkscape:window-y="0"
     inkscape:window-maximized="1"
     fit-margin-top="0"
     fit-margin-left="0"
     fit-margin-right="0"
     fit-margin-bottom="0" />
  <metadata
     id="metadata5">
    <rdf:RDF>
      <cc:Work
         rdf:about="">
        <dc:format>image/svg+xml</dc:format>
        <dc:type
           rdf:resource="http://purl.org/dc/dcmitype/StillImage" />
        <dc:title></dc:title>
      </cc:Work>
    </rdf:RDF>
  </metadata>
    <circle
       style="color:#000000;clip-rule:nonzero;display:inline;overflow:visible;visibility:visible;opacity:1;isolation:auto;mix-blend-mode:normal;color-interpolation:sRGB;color-interpolation-filters:linearRGB;solid-color:#000000;solid-opacity:1;vector-effect:none;fill:#f5b700;fill-opacity:1;fill-rule:evenodd;stroke:#ffffff;stroke-width:1;stroke-linecap:butt;stroke-linejoin:miter;stroke-miterlimit:4;stroke-dasharray:none;stroke-dashoffset:0;stroke-opacity:1;marker:none;color-rendering:auto;image-rendering:auto;shape-rendering:auto;text-rendering:auto;enable-background:accumulate"
       id="path815"
       cx="15"
       cy="15"
       r="14.5" />
<g transform="translate(6.5,8.0)"><path fill-rule="nonzero" fill="#FFFFFF" fill-opacity="1" d="M 15.925781 9.121094 L 1.074219 9.121094 C 0.480469 9.121094 0 8.640625 0 8.050781 C 0 7.457031 0.480469 6.976562 1.074219 6.976562 L 15.925781 6.976562 C 16.519531 6.976562 17 7.457031 17 8.050781 C 17 8.640625 16.519531 9.121094 15.925781 9.121094 Z M 8.5 0 C 4.261719 0 0.746094 1.585938 0.433594 5.601562 C 0.421875 5.742188 0.472656 5.878906 0.566406 5.984375 C 0.664062 6.085938 0.796875 6.144531 0.9375 6.144531 L 15.960938 6.144531 C 16.101562 6.144531 16.234375 6.085938 16.332031 5.984375 C 16.425781 5.878906 16.476562 5.742188 16.464844 5.601562 C 16.160156 1.585938 12.738281 0 8.5 0 Z M 1.84375 5.019531 C 1.84375 5.019531 1.128906 5.074219 1.132812 5 C 1.1875 3.515625 3.8125 1.003906 6.777344 1.054688 C 3.121094 1.773438 2.34375 4.207031 1.84375 5.019531 Z M 0.714844 9.972656 L 0.671875 10.011719 C 0.667969 13.484375 4.582031 13.683594 8.5 13.683594 C 12.871094 13.683594 16.460938 13.582031 16.429688 9.972656 Z M 0.714844 9.972656 "/>
</g>
</svg>
