<?xml version="1.0" encoding="UTF-8" standalone="no"?>
<!-- Created with Inkscape (http://www.inkscape.org/) -->

<svg
   xmlns:dc="http://purl.org/dc/elements/1.1/"
   xmlns:cc="http://creativecommons.org/ns#"
   xmlns:rdf="http://www.w3.org/1999/02/22-rdf-syntax-ns#"
   xmlns:svg="http://www.w3.org/2000/svg"
   xmlns="http://www.w3.org/2000/svg"
   xmlns:xlink="http://www.w3.org/1999/xlink"
   xmlns:sodipodi="http://sodipodi.sourceforge.net/DTD/sodipodi-0.dtd"
   xmlns:inkscape="http://www.inkscape.org/namespaces/inkscape"
   width="30px"
   height="30px"
   version="1.1"
   id="svg8"
   inkscape:version="0.92.4 5da689c313, 2019-01-14"
   sodipodi:docname="container.svg">
  <defs
     id="defs2" />
  <sodipodi:namedview
     id="base"
     pagecolor="#ffffff"
     bordercolor="#666666"
     borderopacity="1.0"
     inkscape:pageopacity="0.0"
     inkscape:pageshadow="2"
     inkscape:zoom="13.049334"
     inkscape:cx="18.679046"
     inkscape:cy="12.165829"
     inkscape:document-units="px"
     inkscape:current-layer="layer1"
     showgrid="false"
     inkscape:snap-page="false"
     units="px"
     inkscape:window-width="1884"
     inkscape:window-height="1061"
     inkscape:window-x="0"
     inkscape:window-y="0"
     inkscape:window-maximized="1"
     fit-margin-top="0"
     fit-margin-left="0"
     fit-margin-right="0"
     fit-margin-bottom="0" />
  <metadata
     id="metadata5">
    <rdf:RDF>
      <cc:Work
         rdf:about="">
        <dc:format>image/svg+xml</dc:format>
        <dc:type
           rdf:resource="http://purl.org/dc/dcmitype/StillImage" />
        <dc:title></dc:title>
      </cc:Work>
    </rdf:RDF>
  </metadata>
    <circle
       style="color:#000000;clip-rule:nonzero;display:inline;overflow:visible;visibility:visible;opacity:1;isolation:auto;mix-blend-mode:normal;color-interpolation:sRGB;color-interpolation-filters:linearRGB;solid-color:#000000;solid-opacity:1;vector-effect:none;fill:#ffffff;fill-opacity:1;fill-rule:evenodd;stroke:#f09007;stroke-width:1;stroke-linecap:butt;stroke-linejoin:miter;stroke-miterlimit:4;stroke-dasharray:none;stroke-dashoffset:0;stroke-opacity:1;marker:none;color-rendering:auto;image-rendering:auto;shape-rendering:auto;text-rendering:auto;enable-background:accumulate"
       id="path815"
       cx="15"
       cy="15"
       r="14.5" />
<g transform="translate(6.5,8.5)"><path fill-rule="nonzero" fill="rgb(30%,30%,30%)" fill-opacity="1" d="M 8.832031 12.667969 C 5.570312 12.667969 2.917969 10.015625 2.917969 6.753906 C 2.917969 3.492188 5.570312 0.835938 8.832031 0.835938 C 12.09375 0.835938 14.75 3.492188 14.75 6.753906 C 14.75 10.015625 12.09375 12.667969 8.832031 12.667969 Z M 8.832031 1.398438 C 5.882812 1.398438 3.480469 3.800781 3.480469 6.753906 C 3.480469 9.703125 5.882812 12.105469 8.832031 12.105469 C 11.785156 12.105469 14.183594 9.703125 14.183594 6.753906 C 14.183594 3.800781 11.785156 1.398438 8.832031 1.398438 Z M 8.832031 10.882812 C 6.550781 10.882812 4.703125 9.035156 4.703125 6.753906 C 4.703125 4.472656 6.550781 2.621094 8.832031 2.621094 C 11.113281 2.621094 12.964844 4.472656 12.964844 6.753906 C 12.964844 9.035156 11.113281 10.882812 8.832031 10.882812 Z M 3.015625 0.421875 C 2.992188 0.371094 2.957031 0.371094 2.933594 0.421875 L 2.789062 0.769531 C 2.761719 0.832031 2.75 0.902344 2.746094 0.972656 L 2.746094 3.542969 L 2.289062 3.542969 L 2.289062 0.972656 C 2.285156 0.902344 2.273438 0.832031 2.246094 0.769531 L 2.101562 0.421875 C 2.078125 0.371094 2.042969 0.371094 2.019531 0.421875 L 1.871094 0.769531 C 1.847656 0.832031 1.832031 0.902344 1.832031 0.972656 L 1.832031 3.542969 L 1.375 3.542969 L 1.375 0.972656 C 1.371094 0.902344 1.355469 0.832031 1.332031 0.769531 L 1.183594 0.421875 C 1.164062 0.371094 1.125 0.371094 1.105469 0.421875 L 0.957031 0.769531 C 0.929688 0.832031 0.917969 0.902344 0.914062 0.972656 L 0.914062 3.542969 L 0.457031 3.542969 L 0.457031 0.972656 C 0.457031 0.902344 0.441406 0.832031 0.417969 0.769531 L 0.269531 0.421875 C 0.246094 0.371094 0.210938 0.371094 0.1875 0.421875 L 0.0390625 0.769531 C 0.015625 0.832031 0 0.902344 0 0.972656 L 0.0273438 3.527344 C 0.0273438 3.527344 0.105469 4.605469 1.140625 4.96875 L 1.152344 12.617188 C 1.132812 13.058594 1.421875 13.195312 1.640625 13.203125 C 1.863281 13.210938 2.121094 12.960938 2.09375 12.636719 L 2.101562 4.972656 C 3.285156 4.617188 3.222656 3.550781 3.222656 3.550781 L 3.222656 0.988281 C 3.222656 0.929688 3.1875 0.820312 3.164062 0.765625 Z M 17 6.421875 L 17 12.449219 C 17 12.722656 16.777344 12.945312 16.507812 12.945312 C 16.234375 12.945312 16.011719 12.722656 16.011719 12.449219 L 16.011719 7.765625 C 15.507812 7.742188 15.109375 7.328125 15.109375 6.824219 L 15.109375 0.945312 C 15.109375 0.421875 15.53125 0 16.054688 0 C 16.578125 0 17 0.421875 17 0.945312 Z M 17 6.421875 "/>
</g>
</svg>
