<?xml version="1.0" encoding="UTF-8" standalone="no"?>
<!-- Created with Inkscape (http://www.inkscape.org/) -->

<svg
   xmlns:dc="http://purl.org/dc/elements/1.1/"
   xmlns:cc="http://creativecommons.org/ns#"
   xmlns:rdf="http://www.w3.org/1999/02/22-rdf-syntax-ns#"
   xmlns:svg="http://www.w3.org/2000/svg"
   xmlns="http://www.w3.org/2000/svg"
   xmlns:xlink="http://www.w3.org/1999/xlink"
   xmlns:sodipodi="http://sodipodi.sourceforge.net/DTD/sodipodi-0.dtd"
   xmlns:inkscape="http://www.inkscape.org/namespaces/inkscape"
   width="30px"
   height="30px"
   version="1.1"
   id="svg8"
   inkscape:version="0.92.4 5da689c313, 2019-01-14"
   sodipodi:docname="container.svg">
  <defs
     id="defs2" />
  <sodipodi:namedview
     id="base"
     pagecolor="#ffffff"
     bordercolor="#666666"
     borderopacity="1.0"
     inkscape:pageopacity="0.0"
     inkscape:pageshadow="2"
     inkscape:zoom="13.049334"
     inkscape:cx="18.679046"
     inkscape:cy="12.165829"
     inkscape:document-units="px"
     inkscape:current-layer="layer1"
     showgrid="false"
     inkscape:snap-page="false"
     units="px"
     inkscape:window-width="1884"
     inkscape:window-height="1061"
     inkscape:window-x="0"
     inkscape:window-y="0"
     inkscape:window-maximized="1"
     fit-margin-top="0"
     fit-margin-left="0"
     fit-margin-right="0"
     fit-margin-bottom="0" />
  <metadata
     id="metadata5">
    <rdf:RDF>
      <cc:Work
         rdf:about="">
        <dc:format>image/svg+xml</dc:format>
        <dc:type
           rdf:resource="http://purl.org/dc/dcmitype/StillImage" />
        <dc:title></dc:title>
      </cc:Work>
    </rdf:RDF>
  </metadata>
    <circle
       style="color:#000000;clip-rule:nonzero;display:inline;overflow:visible;visibility:visible;opacity:1;isolation:auto;mix-blend-mode:normal;color-interpolation:sRGB;color-interpolation-filters:linearRGB;solid-color:#000000;solid-opacity:1;vector-effect:none;fill:#f5b700;fill-opacity:1;fill-rule:evenodd;stroke:#ffffff;stroke-width:1;stroke-linecap:butt;stroke-linejoin:miter;stroke-miterlimit:4;stroke-dasharray:none;stroke-dashoffset:0;stroke-opacity:1;marker:none;color-rendering:auto;image-rendering:auto;shape-rendering:auto;text-rendering:auto;enable-background:accumulate"
       id="path815"
       cx="15"
       cy="15"
       r="14.5" />
<g transform="translate(10.0,6.5)"><path fill-rule="nonzero" fill="#FFFFFF" fill-opacity="1" d="M 4.902344 17 L 0.40625 6.972656 L 9.390625 6.972656 Z M 7.296875 2.457031 C 7.296875 2.441406 7.292969 2.484375 7.292969 2.464844 C 7.292969 1.136719 6.226562 0 4.894531 0 C 3.570312 0 2.492188 1.078125 2.492188 2.40625 C 2.492188 2.429688 2.496094 2.449219 2.496094 2.46875 C 4.683594 2.480469 4.867188 4.414062 4.867188 4.398438 C 4.886719 3.601562 5.636719 2.652344 7.296875 2.457031 Z M 4.8125 5.363281 C 4.8125 5.34375 4.808594 5.324219 4.808594 5.304688 C 4.777344 4.050781 3.789062 3.035156 2.535156 2.96875 C 2.492188 2.964844 2.449219 2.957031 2.40625 2.957031 C 1.078125 2.957031 0 4.035156 0 5.363281 C 0 5.765625 0.101562 6.160156 0.300781 6.511719 L 4.515625 6.511719 C 4.710938 6.160156 4.8125 5.761719 4.8125 5.363281 Z M 7.382812 2.957031 C 7.367188 2.957031 7.355469 2.960938 7.339844 2.960938 C 6.046875 2.984375 5.007812 4.019531 4.980469 5.3125 C 4.980469 5.332031 4.972656 5.347656 4.972656 5.363281 C 4.972656 5.765625 5.078125 6.160156 5.273438 6.511719 L 9.488281 6.511719 C 9.683594 6.160156 9.785156 5.765625 9.785156 5.363281 C 9.789062 4.035156 8.710938 2.957031 7.382812 2.957031 Z M 7.382812 2.957031 "/>
</g>
</svg>
