<?xml version="1.0" encoding="UTF-8"?>
<svg xmlns="http://www.w3.org/2000/svg" xmlns:xlink="http://www.w3.org/1999/xlink" width="6.334269" height="11" viewBox="0 0 6.334269 11">
<path fill-rule="nonzero" fill="rgb(30%,30%,30%)" fill-opacity="1" d="M 3.171875 11 L 0.261719 4.511719 L 6.078125 4.511719 Z M 4.722656 1.589844 C 4.722656 1.578125 4.71875 1.605469 4.71875 1.59375 C 4.71875 0.734375 4.027344 0 3.167969 0 C 2.308594 0 1.613281 0.699219 1.613281 1.558594 C 1.613281 1.570312 1.613281 1.582031 1.613281 1.597656 C 3.03125 1.605469 3.148438 2.855469 3.148438 2.847656 C 3.160156 2.332031 3.644531 1.71875 4.722656 1.589844 Z M 3.113281 3.46875 C 3.113281 3.457031 3.109375 3.445312 3.109375 3.429688 C 3.089844 2.621094 2.449219 1.964844 1.640625 1.921875 C 1.613281 1.917969 1.585938 1.914062 1.558594 1.914062 C 0.699219 1.914062 0 2.609375 0 3.46875 C 0 3.730469 0.0664062 3.984375 0.195312 4.214844 L 2.921875 4.214844 C 3.046875 3.984375 3.113281 3.730469 3.113281 3.46875 Z M 4.777344 1.914062 C 4.765625 1.914062 4.757812 1.914062 4.75 1.914062 C 3.914062 1.929688 3.238281 2.601562 3.222656 3.4375 C 3.222656 3.449219 3.21875 3.460938 3.21875 3.46875 C 3.21875 3.730469 3.285156 3.984375 3.410156 4.214844 L 6.140625 4.214844 C 6.265625 3.984375 6.332031 3.730469 6.332031 3.46875 C 6.335938 2.609375 5.636719 1.914062 4.777344 1.914062 Z M 4.777344 1.914062 "/>
</svg>
