<?xml version="1.0" encoding="UTF-8"?>
<svg xmlns="http://www.w3.org/2000/svg" xmlns:xlink="http://www.w3.org/1999/xlink" width="7.100104" height="11" viewBox="0 0 7.100104 11">
<path fill-rule="nonzero" fill="rgb(30%,30%,30%)" fill-opacity="1" d="M 7.101562 0.40625 L 7.101562 10.542969 C 7.101562 10.792969 6.898438 11 6.65625 11 L 6.210938 11 C 5.96875 11 5.769531 10.792969 5.769531 10.542969 L 5.769531 6.886719 C 5.769531 6.886719 4.4375 6.472656 4.4375 5.511719 L 4.4375 2.230469 C 4.4375 1.851562 4.6875 1.371094 4.992188 1.164062 L 6.546875 0.09375 C 6.851562 -0.109375 7.101562 0.0273438 7.101562 0.40625 Z M 2.925781 0.113281 C 2.902344 0.0703125 2.867188 0.0703125 2.847656 0.113281 L 2.703125 0.410156 C 2.679688 0.464844 2.667969 0.523438 2.664062 0.582031 L 2.664062 2.777344 L 2.21875 2.777344 L 2.21875 0.582031 C 2.21875 0.523438 2.203125 0.464844 2.179688 0.410156 L 2.039062 0.113281 C 2.015625 0.0703125 1.980469 0.0703125 1.957031 0.113281 L 1.816406 0.410156 C 1.792969 0.464844 1.777344 0.523438 1.777344 0.582031 L 1.777344 2.777344 L 1.332031 2.777344 L 1.332031 0.582031 C 1.328125 0.523438 1.316406 0.464844 1.292969 0.410156 L 1.148438 0.113281 C 1.128906 0.0703125 1.09375 0.0703125 1.070312 0.113281 L 0.925781 0.410156 C 0.902344 0.464844 0.890625 0.523438 0.886719 0.582031 L 0.886719 2.777344 L 0.445312 2.777344 L 0.445312 0.582031 C 0.441406 0.523438 0.429688 0.464844 0.40625 0.410156 L 0.261719 0.113281 C 0.238281 0.0703125 0.203125 0.0703125 0.183594 0.113281 L 0.0390625 0.410156 C 0.015625 0.464844 0 0.523438 0 0.582031 L 0 3.460938 C 0 3.585938 0.0429688 3.785156 0.0976562 3.894531 L 0.886719 5.519531 L 0.886719 10.542969 C 0.886719 10.792969 1.089844 11 1.332031 11 L 1.777344 11 C 2.019531 11 2.21875 10.792969 2.21875 10.542969 L 2.21875 5.515625 L 3.007812 3.894531 C 3.0625 3.78125 3.109375 3.585938 3.109375 3.460938 L 3.109375 0.582031 C 3.105469 0.519531 3.09375 0.460938 3.070312 0.40625 Z M 2.925781 0.113281 "/>
</svg>
