<?xml version="1.0" encoding="UTF-8"?>
<svg xmlns="http://www.w3.org/2000/svg" xmlns:xlink="http://www.w3.org/1999/xlink" width="11" height="10.340671" viewBox="0 0 11 10.340671">
<path fill-rule="nonzero" fill="rgb(30%,30%,30%)" fill-opacity="1" d="M 10.183594 7.078125 C 10.140625 7.148438 10.09375 7.339844 10.0625 7.472656 C 9.96875 7.859375 9.859375 8.300781 9.496094 8.367188 C 9.222656 8.417969 8.980469 8.164062 8.699219 7.867188 C 8.578125 7.742188 8.367188 7.519531 8.257812 7.46875 C 8.199219 7.550781 8.113281 7.769531 8.0625 7.90625 C 7.914062 8.292969 7.765625 8.6875 7.433594 8.710938 C 7.140625 8.730469 6.917969 8.425781 6.664062 8.070312 C 6.558594 7.925781 6.390625 7.691406 6.292969 7.617188 C 6.214844 7.703125 6.09375 7.945312 6.019531 8.09375 C 5.804688 8.511719 5.625 8.875 5.304688 8.875 C 4.984375 8.875 4.796875 8.511719 4.582031 8.09375 C 4.503906 7.941406 4.375 7.695312 4.296875 7.613281 C 4.199219 7.679688 4.019531 7.921875 3.910156 8.070312 C 3.652344 8.425781 3.425781 8.730469 3.132812 8.707031 C 2.800781 8.683594 2.644531 8.285156 2.496094 7.902344 C 2.441406 7.761719 2.351562 7.535156 2.289062 7.457031 C 2.191406 7.5 1.972656 7.730469 1.851562 7.859375 C 1.570312 8.15625 1.324219 8.410156 1.050781 8.359375 C 0.691406 8.289062 0.589844 7.847656 0.5 7.457031 C 0.472656 7.328125 0.429688 7.136719 0.390625 7.066406 C 0.382812 7.066406 0.375 7.066406 0.367188 7.066406 C 0.167969 8.4375 0.00390625 9.605469 0 9.625 C 0.296875 9.753906 0.738281 9.886719 1.402344 10.007812 C 2.535156 10.21875 4.015625 10.339844 5.464844 10.339844 C 6.914062 10.339844 8.402344 10.21875 9.546875 10.007812 C 10.246094 9.882812 10.703125 9.742188 11 9.605469 C 10.988281 9.527344 10.835938 8.523438 10.652344 7.304688 C 10.640625 7.296875 10.632812 7.289062 10.625 7.28125 C 10.480469 7.15625 10.339844 7.046875 10.183594 7.078125 Z M 10.183594 7.078125 "/>
<path fill-rule="nonzero" fill="rgb(30%,30%,30%)" fill-opacity="1" d="M 10.222656 4.515625 C 10.179688 4.535156 10.128906 4.542969 10.082031 4.542969 C 9.839844 4.542969 9.640625 4.347656 9.640625 4.101562 C 9.640625 3.859375 9.839844 3.664062 10.082031 3.664062 C 10.085938 3.664062 10.089844 3.664062 10.09375 3.664062 C 10.011719 3.144531 9.957031 2.773438 9.941406 2.667969 C 9.746094 2.886719 9.308594 3.054688 8.601562 3.191406 C 7.761719 3.351562 6.648438 3.441406 5.464844 3.441406 C 4.285156 3.441406 3.171875 3.351562 2.332031 3.191406 C 1.625 3.054688 1.1875 2.886719 0.992188 2.667969 C 0.976562 2.785156 0.914062 3.214844 0.828125 3.8125 C 0.835938 3.8125 0.84375 3.808594 0.851562 3.808594 C 1.09375 3.808594 1.289062 4.007812 1.289062 4.25 C 1.289062 4.492188 1.09375 4.6875 0.851562 4.6875 C 0.800781 4.6875 0.753906 4.679688 0.707031 4.664062 C 0.621094 5.265625 0.527344 5.9375 0.433594 6.585938 C 0.484375 6.59375 0.53125 6.605469 0.578125 6.621094 C 0.824219 6.703125 0.894531 7.003906 0.972656 7.351562 C 1.003906 7.496094 1.070312 7.78125 1.136719 7.871094 C 1.226562 7.816406 1.394531 7.636719 1.5 7.527344 C 1.789062 7.222656 2.0625 6.9375 2.367188 6.972656 C 2.664062 7.011719 2.800781 7.359375 2.945312 7.726562 C 3 7.871094 3.097656 8.125 3.171875 8.210938 C 3.261719 8.140625 3.421875 7.921875 3.523438 7.785156 C 3.777344 7.4375 4.019531 7.109375 4.324219 7.117188 C 4.625 7.128906 4.804688 7.476562 5.011719 7.875 C 5.089844 8.03125 5.21875 8.277344 5.300781 8.371094 C 5.386719 8.277344 5.507812 8.03125 5.585938 7.878906 C 5.789062 7.476562 5.964844 7.128906 6.265625 7.121094 C 6.566406 7.109375 6.792969 7.425781 7.054688 7.789062 C 7.152344 7.921875 7.304688 8.136719 7.394531 8.210938 C 7.464844 8.117188 7.558594 7.875 7.609375 7.734375 C 7.753906 7.367188 7.886719 7.015625 8.183594 6.980469 C 8.484375 6.945312 8.757812 7.234375 9.046875 7.535156 C 9.15625 7.652344 9.332031 7.835938 9.421875 7.882812 C 9.484375 7.8125 9.558594 7.507812 9.59375 7.359375 C 9.679688 7.011719 9.753906 6.710938 10 6.628906 C 10.210938 6.5625 10.398438 6.589844 10.550781 6.65625 C 10.441406 5.933594 10.324219 5.175781 10.222656 4.515625 Z M 2.167969 5.128906 C 1.925781 5.128906 1.730469 4.933594 1.730469 4.6875 C 1.730469 4.445312 1.925781 4.25 2.167969 4.25 C 2.410156 4.25 2.609375 4.445312 2.609375 4.6875 C 2.609375 4.933594 2.410156 5.128906 2.167969 5.128906 Z M 3.632812 5.421875 C 3.390625 5.421875 3.195312 5.226562 3.195312 4.980469 C 3.195312 4.738281 3.390625 4.542969 3.632812 4.542969 C 3.875 4.542969 4.074219 4.738281 4.074219 4.980469 C 4.074219 5.226562 3.875 5.421875 3.632812 5.421875 Z M 5.390625 5.570312 C 5.148438 5.570312 4.953125 5.371094 4.953125 5.128906 C 4.953125 4.886719 5.148438 4.6875 5.390625 4.6875 C 5.636719 4.6875 5.832031 4.886719 5.832031 5.128906 C 5.832031 5.371094 5.636719 5.570312 5.390625 5.570312 Z M 7.152344 5.421875 C 6.910156 5.421875 6.710938 5.226562 6.710938 4.980469 C 6.710938 4.738281 6.910156 4.542969 7.152344 4.542969 C 7.394531 4.542969 7.589844 4.738281 7.589844 4.980469 C 7.589844 5.226562 7.394531 5.421875 7.152344 5.421875 Z M 8.761719 5.128906 C 8.519531 5.128906 8.324219 4.933594 8.324219 4.6875 C 8.324219 4.445312 8.519531 4.25 8.761719 4.25 C 9.003906 4.25 9.203125 4.445312 9.203125 4.6875 C 9.203125 4.933594 9.003906 5.128906 8.761719 5.128906 Z M 8.761719 5.128906 "/>
<path fill-rule="nonzero" fill="rgb(30%,30%,30%)" fill-opacity="1" d="M 6.496094 1.5625 C 6.671875 1.074219 6.503906 0.53125 6.089844 0.226562 C 5.671875 -0.0820312 5.105469 -0.078125 4.691406 0.230469 C 4.277344 0.539062 4.113281 1.082031 4.289062 1.570312 C 2.445312 1.667969 1.089844 1.992188 1.089844 2.378906 C 1.089844 2.84375 3.050781 3.222656 5.464844 3.222656 C 7.882812 3.222656 9.839844 2.84375 9.839844 2.378906 C 9.839844 1.984375 8.414062 1.652344 6.496094 1.5625 Z M 6.496094 1.5625 "/>
</svg>
