<?xml version="1.0" encoding="UTF-8"?>
<svg xmlns="http://www.w3.org/2000/svg" xmlns:xlink="http://www.w3.org/1999/xlink" width="11" height="8.855" viewBox="0 0 11 8.855">
<path fill-rule="nonzero" fill="rgb(30%,30%,30%)" fill-opacity="1" d="M 10.304688 5.902344 L 0.695312 5.902344 C 0.3125 5.902344 0 5.589844 0 5.207031 C 0 4.824219 0.3125 4.515625 0.695312 4.515625 L 10.304688 4.515625 C 10.6875 4.515625 11 4.824219 11 5.207031 C 11 5.589844 10.6875 5.902344 10.304688 5.902344 Z M 5.5 0 C 2.757812 0 0.484375 1.027344 0.28125 3.625 C 0.273438 3.714844 0.304688 3.804688 0.367188 3.871094 C 0.429688 3.9375 0.515625 3.976562 0.609375 3.976562 L 10.328125 3.976562 C 10.417969 3.976562 10.503906 3.9375 10.566406 3.871094 C 10.628906 3.804688 10.660156 3.714844 10.652344 3.625 C 10.457031 1.027344 8.242188 0 5.5 0 Z M 1.191406 3.246094 C 1.191406 3.246094 0.730469 3.28125 0.730469 3.234375 C 0.769531 2.273438 2.46875 0.648438 4.386719 0.683594 C 2.019531 1.148438 1.519531 2.722656 1.191406 3.246094 Z M 0.460938 6.453125 L 0.433594 6.480469 C 0.429688 8.726562 2.964844 8.855469 5.5 8.855469 C 8.328125 8.855469 10.652344 8.789062 10.628906 6.453125 Z M 0.460938 6.453125 "/>
</svg>
