<?xml version="1.0" encoding="UTF-8"?>
<svg xmlns="http://www.w3.org/2000/svg" xmlns:xlink="http://www.w3.org/1999/xlink" width="11" height="8.607144" viewBox="0 0 11 8.607144">
<path fill-rule="nonzero" fill="rgb(30%,30%,30%)" fill-opacity="1" d="M 10.324219 4.066406 C 10.101562 2.160156 8.746094 0.699219 6.824219 0.542969 C 6.828125 0.519531 6.828125 0.5 6.832031 0.476562 C 6.832031 0.214844 6.65625 0 6.445312 0 C 6.230469 0 6.058594 0.214844 6.058594 0.476562 C 6.058594 0.5 6.058594 0.523438 6.0625 0.546875 C 4.171875 0.738281 2.800781 2.175781 2.585938 4.066406 L 1.882812 4.066406 C 1.941406 4.34375 2.183594 4.539062 2.464844 4.542969 L 2.871094 4.542969 L 1.757812 5.417969 L 3.128906 7.175781 L 3.675781 6.839844 C 3.800781 6.742188 3.957031 6.691406 4.113281 6.691406 L 6.871094 6.667969 C 7.007812 6.667969 7.140625 6.609375 7.238281 6.511719 L 9.167969 4.542969 L 10.421875 4.542969 C 10.703125 4.539062 10.945312 4.34375 11 4.066406 Z M 6.734375 5.664062 L 5.335938 5.6875 L 4.957031 5.40625 C 4.855469 5.332031 4.90625 5.171875 5.03125 5.171875 L 6.183594 5.171875 C 6.332031 5.171875 6.480469 5.117188 6.59375 5.011719 L 7.023438 4.542969 L 8.308594 4.542969 L 6.996094 5.574219 C 6.921875 5.632812 6.832031 5.664062 6.734375 5.664062 Z M 6.734375 5.664062 "/>
<path fill-rule="nonzero" fill="rgb(30%,30%,30%)" fill-opacity="1" d="M 1.578125 5.539062 L 0 6.285156 L 1.816406 8.605469 L 2.980469 7.335938 Z M 2.191406 7.683594 C 2.191406 7.890625 2.027344 8.054688 1.820312 8.054688 C 1.613281 8.054688 1.449219 7.890625 1.449219 7.683594 C 1.449219 7.476562 1.613281 7.3125 1.820312 7.3125 C 2.027344 7.3125 2.191406 7.476562 2.191406 7.683594 Z M 2.191406 7.683594 "/>
</svg>
