<?xml version="1.0" encoding="UTF-8" standalone="no"?>
<!-- Created with Inkscape (http://www.inkscape.org/) -->

<svg
   xmlns:dc="http://purl.org/dc/elements/1.1/"
   xmlns:cc="http://creativecommons.org/ns#"
   xmlns:rdf="http://www.w3.org/1999/02/22-rdf-syntax-ns#"
   xmlns:svg="http://www.w3.org/2000/svg"
   xmlns="http://www.w3.org/2000/svg"
   xmlns:xlink="http://www.w3.org/1999/xlink"
   xmlns:sodipodi="http://sodipodi.sourceforge.net/DTD/sodipodi-0.dtd"
   xmlns:inkscape="http://www.inkscape.org/namespaces/inkscape"
   width="30px"
   height="30px"
   version="1.1"
   id="svg8"
   inkscape:version="0.92.4 5da689c313, 2019-01-14"
   sodipodi:docname="container.svg">
  <defs
     id="defs2" />
  <sodipodi:namedview
     id="base"
     pagecolor="#ffffff"
     bordercolor="#666666"
     borderopacity="1.0"
     inkscape:pageopacity="0.0"
     inkscape:pageshadow="2"
     inkscape:zoom="13.049334"
     inkscape:cx="18.679046"
     inkscape:cy="12.165829"
     inkscape:document-units="px"
     inkscape:current-layer="layer1"
     showgrid="false"
     inkscape:snap-page="false"
     units="px"
     inkscape:window-width="1884"
     inkscape:window-height="1061"
     inkscape:window-x="0"
     inkscape:window-y="0"
     inkscape:window-maximized="1"
     fit-margin-top="0"
     fit-margin-left="0"
     fit-margin-right="0"
     fit-margin-bottom="0" />
  <metadata
     id="metadata5">
    <rdf:RDF>
      <cc:Work
         rdf:about="">
        <dc:format>image/svg+xml</dc:format>
        <dc:type
           rdf:resource="http://purl.org/dc/dcmitype/StillImage" />
        <dc:title></dc:title>
      </cc:Work>
    </rdf:RDF>
  </metadata>
    <circle
       style="color:#000000;clip-rule:nonzero;display:inline;overflow:visible;visibility:visible;opacity:1;isolation:auto;mix-blend-mode:normal;color-interpolation:sRGB;color-interpolation-filters:linearRGB;solid-color:#000000;solid-opacity:1;vector-effect:none;fill:#ffffff;fill-opacity:1;fill-rule:evenodd;stroke:#f09007;stroke-width:1;stroke-linecap:butt;stroke-linejoin:miter;stroke-miterlimit:4;stroke-dasharray:none;stroke-dashoffset:0;stroke-opacity:1;marker:none;color-rendering:auto;image-rendering:auto;shape-rendering:auto;text-rendering:auto;enable-background:accumulate"
       id="path815"
       cx="15"
       cy="15"
       r="14.5" />
<g transform="translate(6.5,6.5)"><path fill-rule="nonzero" fill="rgb(30%,30%,30%)" fill-opacity="1" d="M 8.328125 0 C 8.597656 0 8.816406 0.21875 8.816406 0.488281 C 8.816406 0.882812 8.988281 1.066406 9.316406 1.378906 C 9.675781 1.71875 10.121094 2.144531 10.121094 2.972656 C 10.121094 3.804688 9.675781 4.230469 9.316406 4.570312 C 8.988281 4.882812 8.816406 5.066406 8.816406 5.457031 C 8.816406 5.726562 8.597656 5.945312 8.328125 5.945312 C 8.058594 5.945312 7.839844 5.726562 7.839844 5.457031 C 7.839844 4.625 8.285156 4.203125 8.640625 3.859375 C 8.96875 3.546875 9.140625 3.367188 9.140625 2.972656 C 9.140625 2.582031 8.96875 2.398438 8.640625 2.085938 C 8.285156 1.746094 7.839844 1.320312 7.839844 0.488281 C 7.839844 0.21875 8.058594 0 8.328125 0 Z M 8.328125 0 "/>
<path fill-rule="nonzero" fill="rgb(30%,30%,30%)" fill-opacity="1" d="M 6.925781 2.085938 C 6.570312 1.746094 6.125 1.320312 6.125 0.488281 C 6.125 0.21875 6.34375 0 6.613281 0 C 6.882812 0 7.105469 0.21875 7.105469 0.488281 C 7.105469 0.882812 7.273438 1.066406 7.601562 1.378906 C 7.960938 1.71875 8.40625 2.144531 8.40625 2.972656 C 8.40625 3.804688 7.960938 4.230469 7.601562 4.570312 C 7.273438 4.882812 7.105469 5.066406 7.105469 5.457031 C 7.105469 5.726562 6.882812 5.945312 6.613281 5.945312 C 6.34375 5.945312 6.125 5.726562 6.125 5.457031 C 6.125 4.625 6.570312 4.203125 6.925781 3.859375 C 7.253906 3.546875 7.425781 3.367188 7.425781 2.972656 C 7.425781 2.582031 7.253906 2.398438 6.925781 2.085938 Z M 6.925781 2.085938 "/>
<path fill-rule="nonzero" fill="rgb(30%,30%,30%)" fill-opacity="1" d="M 14.09375 16.699219 L 0.816406 16.699219 C 0.367188 16.699219 0 16.433594 0 16.105469 C 0 15.78125 0.367188 15.515625 0.816406 15.515625 L 14.09375 15.515625 C 14.542969 15.515625 14.90625 15.78125 14.90625 16.105469 C 14.90625 16.433594 14.542969 16.699219 14.09375 16.699219 Z M 14.09375 16.699219 "/>
<path fill-rule="nonzero" fill="rgb(30%,30%,30%)" fill-opacity="1" d="M 17 9.53125 C 17 10.4375 16.441406 11.257812 15.59375 11.582031 C 14.746094 11.910156 13.78125 11.683594 13.171875 11.007812 C 12.203125 13.308594 9.949219 14.808594 7.453125 14.808594 C 4.027344 14.808594 1.25 12.03125 1.25 8.605469 C 1.25 7.820312 1.402344 7.046875 1.691406 6.320312 L 13.214844 6.320312 C 13.390625 6.761719 13.511719 7.226562 13.582031 7.695312 C 14.257812 7.246094 15.125 7.207031 15.839844 7.589844 C 16.554688 7.972656 17 8.71875 17 9.53125 Z M 14.828125 8.25 C 14.109375 8.25 13.527344 8.832031 13.527344 9.554688 C 13.527344 10.273438 14.109375 10.855469 14.828125 10.855469 C 15.546875 10.855469 16.132812 10.273438 16.132812 9.554688 C 16.132812 8.832031 15.546875 8.25 14.828125 8.25 Z M 14.828125 8.25 "/>
</g>
</svg>
