<?xml version="1.0" encoding="UTF-8" standalone="no"?>
<!-- Created with Inkscape (http://www.inkscape.org/) -->

<svg
   xmlns:dc="http://purl.org/dc/elements/1.1/"
   xmlns:cc="http://creativecommons.org/ns#"
   xmlns:rdf="http://www.w3.org/1999/02/22-rdf-syntax-ns#"
   xmlns:svg="http://www.w3.org/2000/svg"
   xmlns="http://www.w3.org/2000/svg"
   xmlns:xlink="http://www.w3.org/1999/xlink"
   xmlns:sodipodi="http://sodipodi.sourceforge.net/DTD/sodipodi-0.dtd"
   xmlns:inkscape="http://www.inkscape.org/namespaces/inkscape"
   width="30px"
   height="30px"
   version="1.1"
   id="svg8"
   inkscape:version="0.92.4 5da689c313, 2019-01-14"
   sodipodi:docname="container.svg">
  <defs
     id="defs2" />
  <sodipodi:namedview
     id="base"
     pagecolor="#ffffff"
     bordercolor="#666666"
     borderopacity="1.0"
     inkscape:pageopacity="0.0"
     inkscape:pageshadow="2"
     inkscape:zoom="13.049334"
     inkscape:cx="18.679046"
     inkscape:cy="12.165829"
     inkscape:document-units="px"
     inkscape:current-layer="layer1"
     showgrid="false"
     inkscape:snap-page="false"
     units="px"
     inkscape:window-width="1884"
     inkscape:window-height="1061"
     inkscape:window-x="0"
     inkscape:window-y="0"
     inkscape:window-maximized="1"
     fit-margin-top="0"
     fit-margin-left="0"
     fit-margin-right="0"
     fit-margin-bottom="0" />
  <metadata
     id="metadata5">
    <rdf:RDF>
      <cc:Work
         rdf:about="">
        <dc:format>image/svg+xml</dc:format>
        <dc:type
           rdf:resource="http://purl.org/dc/dcmitype/StillImage" />
        <dc:title></dc:title>
      </cc:Work>
    </rdf:RDF>
  </metadata>
    <circle
       style="color:#000000;clip-rule:nonzero;display:inline;overflow:visible;visibility:visible;opacity:1;isolation:auto;mix-blend-mode:normal;color-interpolation:sRGB;color-interpolation-filters:linearRGB;solid-color:#000000;solid-opacity:1;vector-effect:none;fill:#f5b700;fill-opacity:1;fill-rule:evenodd;stroke:#ffffff;stroke-width:1;stroke-linecap:butt;stroke-linejoin:miter;stroke-miterlimit:4;stroke-dasharray:none;stroke-dashoffset:0;stroke-opacity:1;marker:none;color-rendering:auto;image-rendering:auto;shape-rendering:auto;text-rendering:auto;enable-background:accumulate"
       id="path815"
       cx="15"
       cy="15"
       r="14.5" />
<g transform="translate(9.5,6.5)"><path fill-rule="nonzero" fill="#FFFFFF" fill-opacity="1" d="M 10.972656 0.625 L 10.972656 16.292969 C 10.972656 16.679688 10.664062 17 10.285156 17 L 9.601562 17 C 9.222656 17 8.914062 16.679688 8.914062 16.292969 L 8.914062 10.640625 C 8.914062 10.640625 6.859375 10 6.859375 8.519531 L 6.859375 3.445312 C 6.859375 2.859375 7.242188 2.121094 7.714844 1.796875 L 10.117188 0.148438 C 10.589844 -0.167969 10.972656 0.0429688 10.972656 0.625 Z M 4.523438 0.175781 C 4.488281 0.109375 4.433594 0.109375 4.398438 0.175781 L 4.179688 0.632812 C 4.140625 0.71875 4.121094 0.808594 4.117188 0.902344 L 4.117188 4.292969 L 3.429688 4.292969 L 3.429688 0.902344 C 3.429688 0.808594 3.40625 0.71875 3.371094 0.632812 L 3.148438 0.175781 C 3.113281 0.109375 3.0625 0.109375 3.027344 0.175781 L 2.804688 0.632812 C 2.769531 0.71875 2.746094 0.808594 2.746094 0.902344 L 2.746094 4.292969 L 2.058594 4.292969 L 2.058594 0.902344 C 2.054688 0.808594 2.035156 0.71875 1.996094 0.632812 L 1.777344 0.175781 C 1.742188 0.109375 1.6875 0.109375 1.65625 0.175781 L 1.433594 0.632812 C 1.394531 0.71875 1.375 0.808594 1.371094 0.902344 L 1.371094 4.292969 L 0.6875 4.292969 L 0.6875 0.902344 C 0.683594 0.808594 0.664062 0.71875 0.625 0.632812 L 0.402344 0.175781 C 0.371094 0.109375 0.316406 0.109375 0.28125 0.175781 L 0.0625 0.632812 C 0.0234375 0.71875 0.00390625 0.808594 0 0.902344 L 0 5.351562 C 0 5.542969 0.0664062 5.847656 0.152344 6.019531 L 1.371094 8.527344 L 1.371094 16.292969 C 1.371094 16.679688 1.679688 17 2.058594 17 L 2.746094 17 C 3.121094 17 3.429688 16.679688 3.429688 16.292969 L 3.429688 8.523438 L 4.652344 6.015625 C 4.734375 5.84375 4.804688 5.542969 4.804688 5.347656 L 4.804688 0.898438 C 4.800781 0.804688 4.78125 0.714844 4.742188 0.628906 Z M 4.523438 0.175781 "/>
</g>
</svg>
