<?xml version="1.0" encoding="UTF-8"?>
<svg xmlns="http://www.w3.org/2000/svg" xmlns:xlink="http://www.w3.org/1999/xlink" width="8.866684" height="11" viewBox="0 0 8.866684 11">
<path fill-rule="nonzero" fill="rgb(30%,30%,30%)" fill-opacity="1" d="M 7.84375 4.484375 L 7.015625 4.484375 L 7.015625 4.378906 C 7.035156 4.367188 7.074219 4.296875 7.074219 4.296875 C 7.085938 4.285156 7.097656 4.273438 7.109375 4.257812 C 7.433594 3.910156 7.613281 3.453125 7.613281 2.976562 C 7.613281 1.867188 6.65625 0.96875 5.523438 1.09375 C 5.210938 0.425781 4.542969 0 3.808594 0 C 3.070312 0 2.402344 0.425781 2.089844 1.09375 C 0.960938 0.96875 0 1.867188 0 2.976562 C 0 3.453125 0.179688 3.910156 0.503906 4.257812 C 0.515625 4.273438 0.53125 4.289062 0.542969 4.300781 L 0.539062 9.964844 C 0.539062 10.535156 1.003906 11 1.574219 11 L 6.035156 11 C 6.609375 11 7.074219 10.535156 7.074219 9.964844 L 7.097656 9.519531 L 7.828125 9.507812 C 8.402344 9.507812 8.867188 9.042969 8.867188 8.472656 L 8.867188 5.507812 C 8.867188 4.941406 8.410156 4.484375 7.84375 4.484375 Z M 0.8125 3.605469 L 0.707031 3.613281 C 0.597656 3.417969 0.542969 3.199219 0.539062 2.976562 C 0.539062 2.128906 1.316406 1.453125 2.199219 1.660156 L 2.445312 1.714844 L 2.519531 1.480469 C 2.699219 0.921875 3.21875 0.539062 3.808594 0.539062 C 4.394531 0.539062 4.914062 0.921875 5.09375 1.480469 L 5.171875 1.714844 L 5.414062 1.660156 C 6.300781 1.453125 7.074219 2.128906 7.074219 2.976562 C 7.074219 3.203125 7.011719 3.417969 6.910156 3.605469 Z M 1.96875 9.871094 C 1.96875 10.023438 1.847656 10.144531 1.695312 10.144531 C 1.546875 10.144531 1.425781 10.023438 1.425781 9.871094 L 1.425781 4.800781 C 1.425781 4.691406 1.488281 4.59375 1.589844 4.554688 C 1.785156 4.476562 1.96875 4.621094 1.96875 4.804688 Z M 3.015625 9.871094 C 3.015625 10.023438 2.894531 10.144531 2.746094 10.144531 C 2.597656 10.144531 2.476562 10.023438 2.476562 9.871094 L 2.476562 4.800781 C 2.472656 4.691406 2.539062 4.59375 2.636719 4.554688 C 2.832031 4.476562 3.015625 4.621094 3.015625 4.804688 Z M 4.0625 9.871094 C 4.0625 10.023438 3.941406 10.144531 3.792969 10.144531 C 3.644531 10.144531 3.523438 10.023438 3.523438 9.871094 L 3.523438 4.800781 C 3.523438 4.683594 3.597656 4.582031 3.707031 4.546875 C 3.894531 4.488281 4.0625 4.625 4.0625 4.804688 Z M 5.113281 9.871094 C 5.113281 10.023438 4.992188 10.144531 4.84375 10.144531 C 4.691406 10.144531 4.570312 10.023438 4.570312 9.871094 L 4.570312 4.800781 C 4.570312 4.691406 4.636719 4.59375 4.734375 4.554688 C 4.929688 4.476562 5.113281 4.621094 5.113281 4.804688 Z M 6.160156 9.871094 C 6.160156 10.023438 6.039062 10.144531 5.890625 10.144531 C 5.742188 10.144531 5.621094 10.023438 5.621094 9.871094 L 5.621094 4.800781 C 5.617188 4.683594 5.691406 4.582031 5.804688 4.546875 C 5.992188 4.488281 6.160156 4.625 6.160156 4.804688 Z M 8.324219 8.5 C 8.324219 8.773438 8.101562 8.996094 7.828125 8.996094 L 7.015625 8.996094 L 7.015625 5.050781 L 7.828125 5.050781 C 8.101562 5.054688 8.324219 5.273438 8.324219 5.546875 Z M 8.324219 8.5 "/>
</svg>
