<?xml version="1.0" encoding="UTF-8"?>
<svg xmlns="http://www.w3.org/2000/svg" xmlns:xlink="http://www.w3.org/1999/xlink" width="11" height="8.54389" viewBox="0 0 11 8.54389">
<path fill-rule="nonzero" fill="rgb(30%,30%,30%)" fill-opacity="1" d="M 5.714844 8.195312 C 3.605469 8.195312 1.886719 6.480469 1.886719 4.371094 C 1.886719 2.257812 3.605469 0.542969 5.714844 0.542969 C 7.824219 0.542969 9.542969 2.257812 9.542969 4.371094 C 9.542969 6.480469 7.824219 8.195312 5.714844 8.195312 Z M 5.714844 0.90625 C 3.804688 0.90625 2.253906 2.460938 2.253906 4.371094 C 2.253906 6.277344 3.804688 7.832031 5.714844 7.832031 C 7.625 7.832031 9.179688 6.277344 9.179688 4.371094 C 9.179688 2.460938 7.625 0.90625 5.714844 0.90625 Z M 5.714844 7.042969 C 4.238281 7.042969 3.042969 5.847656 3.042969 4.371094 C 3.042969 2.894531 4.238281 1.695312 5.714844 1.695312 C 7.191406 1.695312 8.390625 2.894531 8.390625 4.371094 C 8.390625 5.847656 7.191406 7.042969 5.714844 7.042969 Z M 1.953125 0.273438 C 1.9375 0.242188 1.914062 0.242188 1.898438 0.273438 L 1.804688 0.496094 C 1.789062 0.539062 1.777344 0.582031 1.777344 0.628906 L 1.777344 2.292969 L 1.480469 2.292969 L 1.480469 0.628906 C 1.480469 0.582031 1.46875 0.539062 1.453125 0.496094 L 1.359375 0.273438 C 1.34375 0.242188 1.320312 0.242188 1.304688 0.273438 L 1.210938 0.496094 C 1.195312 0.539062 1.1875 0.582031 1.183594 0.628906 L 1.183594 2.292969 L 0.886719 2.292969 L 0.886719 0.628906 C 0.886719 0.582031 0.878906 0.539062 0.863281 0.496094 L 0.765625 0.273438 C 0.753906 0.242188 0.730469 0.242188 0.714844 0.273438 L 0.617188 0.496094 C 0.601562 0.539062 0.59375 0.582031 0.59375 0.628906 L 0.59375 2.292969 L 0.296875 2.292969 L 0.296875 0.628906 C 0.292969 0.582031 0.285156 0.539062 0.269531 0.496094 L 0.175781 0.273438 C 0.160156 0.242188 0.136719 0.242188 0.121094 0.273438 L 0.0273438 0.496094 C 0.0117188 0.539062 0 0.582031 0 0.628906 L 0.015625 2.285156 C 0.015625 2.285156 0.0703125 2.980469 0.738281 3.214844 L 0.746094 8.164062 C 0.734375 8.449219 0.917969 8.539062 1.0625 8.542969 C 1.203125 8.546875 1.371094 8.386719 1.355469 8.179688 L 1.359375 3.21875 C 2.125 2.988281 2.085938 2.296875 2.085938 2.296875 L 2.085938 0.640625 C 2.085938 0.601562 2.0625 0.53125 2.046875 0.496094 Z M 11 4.15625 L 11 8.054688 C 11 8.230469 10.855469 8.375 10.679688 8.375 C 10.503906 8.375 10.359375 8.230469 10.359375 8.054688 L 10.359375 5.023438 C 10.035156 5.011719 9.777344 4.742188 9.777344 4.414062 L 9.777344 0.613281 C 9.777344 0.273438 10.050781 0 10.386719 0 C 10.726562 0 11 0.273438 11 0.613281 Z M 11 4.15625 "/>
</svg>
