<?xml version="1.0" encoding="UTF-8" standalone="no"?>
<!-- Created with Inkscape (http://www.inkscape.org/) -->

<svg
   xmlns:dc="http://purl.org/dc/elements/1.1/"
   xmlns:cc="http://creativecommons.org/ns#"
   xmlns:rdf="http://www.w3.org/1999/02/22-rdf-syntax-ns#"
   xmlns:svg="http://www.w3.org/2000/svg"
   xmlns="http://www.w3.org/2000/svg"
   xmlns:xlink="http://www.w3.org/1999/xlink"
   xmlns:sodipodi="http://sodipodi.sourceforge.net/DTD/sodipodi-0.dtd"
   xmlns:inkscape="http://www.inkscape.org/namespaces/inkscape"
   width="30px"
   height="30px"
   version="1.1"
   id="svg8"
   inkscape:version="0.92.4 5da689c313, 2019-01-14"
   sodipodi:docname="container.svg">
  <defs
     id="defs2" />
  <sodipodi:namedview
     id="base"
     pagecolor="#ffffff"
     bordercolor="#666666"
     borderopacity="1.0"
     inkscape:pageopacity="0.0"
     inkscape:pageshadow="2"
     inkscape:zoom="13.049334"
     inkscape:cx="18.679046"
     inkscape:cy="12.165829"
     inkscape:document-units="px"
     inkscape:current-layer="layer1"
     showgrid="false"
     inkscape:snap-page="false"
     units="px"
     inkscape:window-width="1884"
     inkscape:window-height="1061"
     inkscape:window-x="0"
     inkscape:window-y="0"
     inkscape:window-maximized="1"
     fit-margin-top="0"
     fit-margin-left="0"
     fit-margin-right="0"
     fit-margin-bottom="0" />
  <metadata
     id="metadata5">
    <rdf:RDF>
      <cc:Work
         rdf:about="">
        <dc:format>image/svg+xml</dc:format>
        <dc:type
           rdf:resource="http://purl.org/dc/dcmitype/StillImage" />
        <dc:title></dc:title>
      </cc:Work>
    </rdf:RDF>
  </metadata>
    <circle
       style="color:#000000;clip-rule:nonzero;display:inline;overflow:visible;visibility:visible;opacity:1;isolation:auto;mix-blend-mode:normal;color-interpolation:sRGB;color-interpolation-filters:linearRGB;solid-color:#000000;solid-opacity:1;vector-effect:none;fill:#ffffff;fill-opacity:1;fill-rule:evenodd;stroke:#f09007;stroke-width:1;stroke-linecap:butt;stroke-linejoin:miter;stroke-miterlimit:4;stroke-dasharray:none;stroke-dashoffset:0;stroke-opacity:1;marker:none;color-rendering:auto;image-rendering:auto;shape-rendering:auto;text-rendering:auto;enable-background:accumulate"
       id="path815"
       cx="15"
       cy="15"
       r="14.5" />
<g transform="translate(6.5,7.0)"><path fill-rule="nonzero" fill="rgb(30%,30%,30%)" fill-opacity="1" d="M 15.734375 10.941406 C 15.675781 11.046875 15.601562 11.347656 15.550781 11.550781 C 15.40625 12.148438 15.238281 12.828125 14.679688 12.933594 C 14.253906 13.011719 13.878906 12.617188 13.445312 12.160156 C 13.257812 11.964844 12.929688 11.621094 12.761719 11.542969 C 12.667969 11.667969 12.539062 12.007812 12.460938 12.21875 C 12.234375 12.8125 12 13.425781 11.484375 13.464844 C 11.035156 13.496094 10.695312 13.019531 10.300781 12.472656 C 10.136719 12.246094 9.875 11.882812 9.722656 11.773438 C 9.601562 11.90625 9.417969 12.277344 9.300781 12.507812 C 8.972656 13.15625 8.691406 13.714844 8.199219 13.714844 C 7.699219 13.714844 7.414062 13.15625 7.082031 12.511719 C 6.957031 12.273438 6.765625 11.894531 6.640625 11.765625 C 6.488281 11.871094 6.214844 12.242188 6.046875 12.472656 C 5.644531 13.019531 5.296875 13.492188 4.84375 13.457031 C 4.324219 13.421875 4.085938 12.804688 3.855469 12.210938 C 3.769531 11.996094 3.632812 11.648438 3.539062 11.527344 C 3.386719 11.59375 3.046875 11.949219 2.859375 12.148438 C 2.425781 12.601562 2.046875 12.996094 1.625 12.917969 C 1.066406 12.8125 0.914062 12.128906 0.773438 11.523438 C 0.730469 11.324219 0.664062 11.03125 0.605469 10.921875 C 0.589844 10.917969 0.578125 10.917969 0.566406 10.917969 C 0.261719 13.042969 0.00390625 14.84375 0 14.871094 C 0.457031 15.078125 1.140625 15.28125 2.164062 15.46875 C 3.917969 15.792969 6.207031 15.980469 8.445312 15.980469 C 10.6875 15.980469 12.988281 15.792969 14.753906 15.46875 C 15.832031 15.269531 16.539062 15.058594 17 14.84375 C 16.984375 14.722656 16.75 13.175781 16.460938 11.289062 C 16.445312 11.277344 16.433594 11.265625 16.417969 11.253906 C 16.199219 11.058594 15.980469 10.886719 15.734375 10.941406 Z M 15.734375 10.941406 "/>
<path fill-rule="nonzero" fill="rgb(30%,30%,30%)" fill-opacity="1" d="M 15.800781 6.980469 C 15.730469 7.007812 15.65625 7.019531 15.582031 7.019531 C 15.207031 7.019531 14.902344 6.714844 14.902344 6.339844 C 14.902344 5.964844 15.207031 5.660156 15.582031 5.660156 C 15.585938 5.660156 15.59375 5.664062 15.597656 5.664062 C 15.476562 4.859375 15.386719 4.289062 15.363281 4.125 C 15.058594 4.460938 14.382812 4.722656 13.292969 4.929688 C 11.996094 5.179688 10.273438 5.320312 8.445312 5.320312 C 6.621094 5.320312 4.898438 5.179688 3.601562 4.929688 C 2.511719 4.722656 1.835938 4.460938 1.53125 4.125 C 1.507812 4.304688 1.414062 4.96875 1.28125 5.890625 C 1.292969 5.890625 1.300781 5.886719 1.3125 5.886719 C 1.6875 5.886719 1.992188 6.191406 1.992188 6.566406 C 1.992188 6.941406 1.6875 7.246094 1.3125 7.246094 C 1.238281 7.246094 1.164062 7.234375 1.09375 7.207031 C 0.960938 8.136719 0.8125 9.175781 0.671875 10.179688 C 0.746094 10.1875 0.820312 10.207031 0.894531 10.230469 C 1.273438 10.359375 1.378906 10.824219 1.5 11.359375 C 1.550781 11.582031 1.652344 12.023438 1.757812 12.164062 C 1.894531 12.078125 2.15625 11.804688 2.320312 11.632812 C 2.765625 11.164062 3.191406 10.722656 3.660156 10.777344 C 4.117188 10.832031 4.328125 11.371094 4.550781 11.941406 C 4.636719 12.164062 4.789062 12.554688 4.898438 12.691406 C 5.042969 12.578125 5.289062 12.242188 5.445312 12.03125 C 5.839844 11.496094 6.210938 10.984375 6.683594 11.003906 C 7.148438 11.019531 7.425781 11.550781 7.742188 12.171875 C 7.867188 12.410156 8.0625 12.792969 8.195312 12.933594 C 8.324219 12.789062 8.515625 12.414062 8.632812 12.171875 C 8.945312 11.554688 9.21875 11.019531 9.679688 11.003906 C 10.148438 10.988281 10.5 11.472656 10.902344 12.039062 C 11.054688 12.246094 11.289062 12.570312 11.429688 12.6875 C 11.539062 12.546875 11.679688 12.171875 11.761719 11.957031 C 11.980469 11.382812 12.1875 10.84375 12.644531 10.789062 C 13.113281 10.734375 13.535156 11.179688 13.984375 11.648438 C 14.152344 11.824219 14.421875 12.109375 14.558594 12.183594 C 14.65625 12.074219 14.769531 11.605469 14.828125 11.371094 C 14.957031 10.835938 15.070312 10.371094 15.457031 10.246094 C 15.777344 10.140625 16.066406 10.1875 16.308594 10.289062 C 16.136719 9.167969 15.957031 8 15.800781 6.980469 Z M 3.351562 7.925781 C 2.976562 7.925781 2.671875 7.621094 2.671875 7.246094 C 2.671875 6.871094 2.976562 6.566406 3.351562 6.566406 C 3.726562 6.566406 4.03125 6.871094 4.03125 7.246094 C 4.03125 7.621094 3.726562 7.925781 3.351562 7.925781 Z M 5.617188 8.378906 C 5.242188 8.378906 4.9375 8.074219 4.9375 7.699219 C 4.9375 7.324219 5.242188 7.019531 5.617188 7.019531 C 5.992188 7.019531 6.296875 7.324219 6.296875 7.699219 C 6.296875 8.074219 5.992188 8.378906 5.617188 8.378906 Z M 8.332031 8.605469 C 7.957031 8.605469 7.65625 8.300781 7.65625 7.925781 C 7.65625 7.550781 7.957031 7.246094 8.332031 7.246094 C 8.710938 7.246094 9.011719 7.550781 9.011719 7.925781 C 9.011719 8.300781 8.710938 8.605469 8.332031 8.605469 Z M 11.050781 8.378906 C 10.675781 8.378906 10.371094 8.074219 10.371094 7.699219 C 10.371094 7.324219 10.675781 7.019531 11.050781 7.019531 C 11.425781 7.019531 11.730469 7.324219 11.730469 7.699219 C 11.730469 8.074219 11.425781 8.378906 11.050781 8.378906 Z M 13.542969 7.925781 C 13.167969 7.925781 12.863281 7.621094 12.863281 7.246094 C 12.863281 6.871094 13.167969 6.566406 13.542969 6.566406 C 13.917969 6.566406 14.222656 6.871094 14.222656 7.246094 C 14.222656 7.621094 13.917969 7.925781 13.542969 7.925781 Z M 13.542969 7.925781 "/>
<path fill-rule="nonzero" fill="rgb(30%,30%,30%)" fill-opacity="1" d="M 10.042969 2.414062 C 10.308594 1.660156 10.050781 0.820312 9.410156 0.347656 C 8.765625 -0.125 7.890625 -0.121094 7.25 0.355469 C 6.609375 0.832031 6.359375 1.671875 6.628906 2.425781 C 3.777344 2.578125 1.683594 3.082031 1.683594 3.679688 C 1.683594 4.398438 4.710938 4.980469 8.445312 4.980469 C 12.183594 4.980469 15.210938 4.398438 15.210938 3.679688 C 15.210938 3.066406 13.007812 2.550781 10.042969 2.414062 Z M 10.042969 2.414062 "/>
</g>
</svg>
