<?xml version="1.0" encoding="UTF-8" standalone="no"?>
<!-- Created with Inkscape (http://www.inkscape.org/) -->

<svg
   xmlns:dc="http://purl.org/dc/elements/1.1/"
   xmlns:cc="http://creativecommons.org/ns#"
   xmlns:rdf="http://www.w3.org/1999/02/22-rdf-syntax-ns#"
   xmlns:svg="http://www.w3.org/2000/svg"
   xmlns="http://www.w3.org/2000/svg"
   xmlns:xlink="http://www.w3.org/1999/xlink"
   xmlns:sodipodi="http://sodipodi.sourceforge.net/DTD/sodipodi-0.dtd"
   xmlns:inkscape="http://www.inkscape.org/namespaces/inkscape"
   width="30px"
   height="30px"
   version="1.1"
   id="svg8"
   inkscape:version="0.92.4 5da689c313, 2019-01-14"
   sodipodi:docname="container.svg">
  <defs
     id="defs2" />
  <sodipodi:namedview
     id="base"
     pagecolor="#ffffff"
     bordercolor="#666666"
     borderopacity="1.0"
     inkscape:pageopacity="0.0"
     inkscape:pageshadow="2"
     inkscape:zoom="13.049334"
     inkscape:cx="18.679046"
     inkscape:cy="12.165829"
     inkscape:document-units="px"
     inkscape:current-layer="layer1"
     showgrid="false"
     inkscape:snap-page="false"
     units="px"
     inkscape:window-width="1884"
     inkscape:window-height="1061"
     inkscape:window-x="0"
     inkscape:window-y="0"
     inkscape:window-maximized="1"
     fit-margin-top="0"
     fit-margin-left="0"
     fit-margin-right="0"
     fit-margin-bottom="0" />
  <metadata
     id="metadata5">
    <rdf:RDF>
      <cc:Work
         rdf:about="">
        <dc:format>image/svg+xml</dc:format>
        <dc:type
           rdf:resource="http://purl.org/dc/dcmitype/StillImage" />
        <dc:title></dc:title>
      </cc:Work>
    </rdf:RDF>
  </metadata>
    <circle
       style="color:#000000;clip-rule:nonzero;display:inline;overflow:visible;visibility:visible;opacity:1;isolation:auto;mix-blend-mode:normal;color-interpolation:sRGB;color-interpolation-filters:linearRGB;solid-color:#000000;solid-opacity:1;vector-effect:none;fill:#ffffff;fill-opacity:1;fill-rule:evenodd;stroke:#f09007;stroke-width:1;stroke-linecap:butt;stroke-linejoin:miter;stroke-miterlimit:4;stroke-dasharray:none;stroke-dashoffset:0;stroke-opacity:1;marker:none;color-rendering:auto;image-rendering:auto;shape-rendering:auto;text-rendering:auto;enable-background:accumulate"
       id="path815"
       cx="15"
       cy="15"
       r="14.5" />
<g transform="translate(6.5,10.0)"><path fill-rule="nonzero" fill="rgb(30%,30%,30%)" fill-opacity="1" d="M 3.207031 4.761719 C 2.136719 4.761719 1.21875 4.972656 0.824219 5.277344 L 0.824219 0.414062 C 0.824219 0.183594 0.640625 0 0.414062 0 C 0.183594 0 0 0.183594 0 0.414062 L 0 9.695312 C 0 9.921875 0.183594 10.105469 0.414062 10.105469 C 0.640625 10.105469 0.824219 9.921875 0.824219 9.695312 L 0.824219 5.9375 C 1.21875 6.242188 2.136719 6.453125 3.207031 6.453125 C 3.890625 6.453125 4.507812 6.367188 4.96875 6.226562 L 4.96875 9.734375 C 4.96875 9.941406 5.136719 10.109375 5.34375 10.109375 L 5.421875 10.109375 C 5.628906 10.109375 5.796875 9.941406 5.796875 9.734375 L 5.796875 5.742188 C 5.796875 5.722656 5.792969 5.632812 5.792969 5.605469 C 5.792969 5.140625 4.636719 4.761719 3.207031 4.761719 Z M 3.207031 4.761719 "/>
<path fill-rule="nonzero" fill="rgb(30%,30%,30%)" fill-opacity="1" d="M 16.585938 0 C 16.359375 0 16.175781 0.183594 16.175781 0.414062 L 16.175781 5.277344 C 15.78125 4.972656 14.863281 4.761719 13.792969 4.761719 C 12.363281 4.761719 11.207031 5.140625 11.207031 5.605469 C 11.207031 5.632812 11.203125 5.722656 11.203125 5.742188 L 11.203125 9.734375 C 11.203125 9.941406 11.371094 10.109375 11.578125 10.109375 L 11.65625 10.109375 C 11.863281 10.109375 12.03125 9.941406 12.03125 9.734375 L 12.03125 6.226562 C 12.492188 6.367188 13.109375 6.453125 13.792969 6.453125 C 14.863281 6.453125 15.78125 6.242188 16.175781 5.9375 L 16.175781 9.695312 C 16.175781 9.921875 16.359375 10.105469 16.585938 10.105469 C 16.816406 10.105469 17 9.921875 17 9.695312 L 17 0.414062 C 17 0.183594 16.816406 0 16.585938 0 Z M 16.585938 0 "/>
<path fill-rule="nonzero" fill="rgb(30%,30%,30%)" fill-opacity="1" d="M 10.214844 9.449219 L 8.957031 9.449219 L 8.957031 4.550781 C 11.546875 4.492188 13.589844 3.859375 13.589844 3.085938 C 13.589844 2.273438 11.339844 1.613281 8.5625 1.613281 C 5.789062 1.613281 3.539062 2.273438 3.539062 3.085938 C 3.539062 3.855469 5.558594 4.488281 8.128906 4.550781 L 8.128906 9.449219 L 6.800781 9.449219 C 6.621094 9.449219 6.480469 9.59375 6.480469 9.773438 C 6.480469 9.949219 6.621094 10.09375 6.800781 10.09375 L 10.214844 10.09375 C 10.390625 10.09375 10.535156 9.949219 10.535156 9.773438 C 10.535156 9.59375 10.390625 9.449219 10.214844 9.449219 Z M 10.214844 9.449219 "/>
</g>
</svg>
