<?xml version="1.0" encoding="UTF-8"?>
<svg xmlns="http://www.w3.org/2000/svg" xmlns:xlink="http://www.w3.org/1999/xlink" width="8.247366" height="11" viewBox="0 0 8.247366 11">
<path fill-rule="nonzero" fill="rgb(30%,30%,30%)" fill-opacity="1" d="M 3.058594 4.535156 L 1.511719 3.953125 C 1.382812 3.902344 1.238281 3.96875 1.1875 4.097656 C 1.140625 4.230469 1.207031 4.375 1.335938 4.421875 L 1.691406 4.570312 L 0 8.667969 C -0.0195312 8.734375 0.21875 9.195312 0.21875 9.195312 C 0.269531 9.195312 0.660156 9.0625 0.746094 8.980469 L 2.449219 4.855469 L 2.878906 5.007812 C 3.011719 5.054688 3.15625 4.988281 3.207031 4.859375 C 3.253906 4.730469 3.1875 4.582031 3.058594 4.535156 Z M 3.058594 4.535156 "/>
<path fill-rule="nonzero" fill="rgb(30%,30%,30%)" fill-opacity="1" d="M 8.210938 9.972656 L 6.179688 3.59375 C 6.175781 3.582031 6.171875 3.574219 6.167969 3.5625 L 8.015625 3.019531 L 7.09375 0 L 2.207031 1.429688 L 3.214844 4.429688 L 4.660156 4.003906 C 4.664062 4.027344 4.671875 4.050781 4.675781 4.074219 L 6.707031 10.453125 C 6.839844 10.863281 7.285156 11.09375 7.699219 10.964844 C 8.113281 10.832031 8.34375 10.386719 8.210938 9.972656 Z M 8.210938 9.972656 "/>
</svg>
