<?xml version="1.0" encoding="UTF-8" standalone="no"?>
<!-- Created with Inkscape (http://www.inkscape.org/) -->

<svg
   xmlns:dc="http://purl.org/dc/elements/1.1/"
   xmlns:cc="http://creativecommons.org/ns#"
   xmlns:rdf="http://www.w3.org/1999/02/22-rdf-syntax-ns#"
   xmlns:svg="http://www.w3.org/2000/svg"
   xmlns="http://www.w3.org/2000/svg"
   xmlns:xlink="http://www.w3.org/1999/xlink"
   xmlns:sodipodi="http://sodipodi.sourceforge.net/DTD/sodipodi-0.dtd"
   xmlns:inkscape="http://www.inkscape.org/namespaces/inkscape"
   width="30px"
   height="30px"
   version="1.1"
   id="svg8"
   inkscape:version="0.92.4 5da689c313, 2019-01-14"
   sodipodi:docname="container.svg">
  <defs
     id="defs2" />
  <sodipodi:namedview
     id="base"
     pagecolor="#ffffff"
     bordercolor="#666666"
     borderopacity="1.0"
     inkscape:pageopacity="0.0"
     inkscape:pageshadow="2"
     inkscape:zoom="13.049334"
     inkscape:cx="18.679046"
     inkscape:cy="12.165829"
     inkscape:document-units="px"
     inkscape:current-layer="layer1"
     showgrid="false"
     inkscape:snap-page="false"
     units="px"
     inkscape:window-width="1884"
     inkscape:window-height="1061"
     inkscape:window-x="0"
     inkscape:window-y="0"
     inkscape:window-maximized="1"
     fit-margin-top="0"
     fit-margin-left="0"
     fit-margin-right="0"
     fit-margin-bottom="0" />
  <metadata
     id="metadata5">
    <rdf:RDF>
      <cc:Work
         rdf:about="">
        <dc:format>image/svg+xml</dc:format>
        <dc:type
           rdf:resource="http://purl.org/dc/dcmitype/StillImage" />
        <dc:title></dc:title>
      </cc:Work>
    </rdf:RDF>
  </metadata>
    <circle
       style="color:#000000;clip-rule:nonzero;display:inline;overflow:visible;visibility:visible;opacity:1;isolation:auto;mix-blend-mode:normal;color-interpolation:sRGB;color-interpolation-filters:linearRGB;solid-color:#000000;solid-opacity:1;vector-effect:none;fill:#c58511;fill-opacity:1;fill-rule:evenodd;stroke:#ffffff;stroke-width:1;stroke-linecap:butt;stroke-linejoin:miter;stroke-miterlimit:4;stroke-dasharray:none;stroke-dashoffset:0;stroke-opacity:1;marker:none;color-rendering:auto;image-rendering:auto;shape-rendering:auto;text-rendering:auto;enable-background:accumulate"
       id="path815"
       cx="15"
       cy="15"
       r="14.5" />
<g transform="translate(7.0,6.5)"><path fill-rule="nonzero" fill="#FFFFFF" fill-opacity="1" d="M 15.078125 15.914062 C 11.871094 18.84375 8.386719 14.933594 8.398438 14.757812 C 8.410156 14.585938 8.171875 13.808594 7.933594 13.554688 C 7.859375 13.480469 7.78125 13.414062 7.699219 13.351562 C 7.625 13.296875 7.378906 13.164062 6.949219 12.964844 L 7.011719 12.902344 C 7.476562 13.078125 8.050781 13.125 8.351562 12.839844 C 8.839844 12.378906 8.707031 11.449219 8.058594 10.761719 C 7.410156 10.074219 6.511719 9.785156 6.027344 10.246094 C 5.867188 10.394531 5.699219 10.671875 5.636719 10.734375 C 5.492188 10.871094 5.914062 9.804688 5.609375 9.542969 C 4.347656 8.472656 4.804688 7.164062 5.3125 6.445312 L 2.304688 3.117188 L 2.238281 3.175781 L 1.753906 2.964844 C 1.667969 2.925781 1.59375 2.859375 1.546875 2.777344 L 1.394531 2.507812 L 1.105469 2.78125 C 1.195312 2.90625 1.207031 3.046875 1.132812 3.121094 C 1.046875 3.203125 0.863281 3.15625 0.730469 3.011719 C 0.597656 2.871094 0.558594 2.6875 0.648438 2.605469 C 0.722656 2.535156 0.863281 2.558594 0.984375 2.652344 L 1.308594 2.347656 L 0.90625 1.632812 L 0.550781 1.964844 C 0.597656 2.070312 0.59375 2.167969 0.535156 2.226562 C 0.445312 2.308594 0.265625 2.261719 0.128906 2.121094 C -0.00390625 1.976562 -0.0390625 1.792969 0.046875 1.710938 C 0.136719 1.625 0.316406 1.671875 0.453125 1.816406 L 0.816406 1.472656 L 0.773438 1.394531 L 0.613281 1.542969 L 0.0820312 0.339844 L 0.445312 0 L 1.578125 0.632812 L 1.386719 0.816406 L 1.464844 0.863281 L 1.871094 0.480469 C 1.734375 0.339844 1.699219 0.15625 1.789062 0.0703125 C 1.875 -0.0117188 2.058594 0.0351562 2.191406 0.175781 C 2.324219 0.320312 2.363281 0.503906 2.273438 0.585938 C 2.214844 0.640625 2.113281 0.636719 2.011719 0.589844 L 1.621094 0.957031 L 2.332031 1.382812 L 2.734375 1 C 2.648438 0.875 2.632812 0.730469 2.710938 0.660156 C 2.796875 0.578125 2.980469 0.625 3.113281 0.765625 C 3.246094 0.910156 3.285156 1.09375 3.195312 1.175781 C 3.121094 1.246094 2.980469 1.222656 2.855469 1.128906 L 2.488281 1.476562 L 2.75 1.632812 C 2.8125 1.667969 2.855469 1.726562 2.875 1.792969 L 3.042969 2.417969 L 3.003906 2.457031 L 6.128906 5.652344 C 6.566406 5.355469 7.011719 5.265625 7.859375 5.414062 C 8.144531 5.464844 8.84375 5.945312 9.085938 6.203125 C 9.332031 6.460938 10.277344 6.175781 10.273438 6.300781 C 10.269531 6.425781 10.039062 6.519531 9.886719 6.664062 C 9.402344 7.125 9.679688 7.992188 10.328125 8.679688 C 10.976562 9.371094 11.8125 9.617188 12.277344 9.136719 C 12.613281 8.792969 12.625 8.285156 12.421875 7.804688 L 12.484375 7.742188 C 12.839844 8.503906 14.058594 9.097656 14.445312 9.179688 C 14.832031 9.257812 17.957031 13.289062 15.078125 15.914062 Z M 10.6875 13.730469 C 10.6875 13.507812 10.585938 12.933594 9.613281 12.386719 C 9.539062 12.34375 9.507812 12.289062 9.511719 12.210938 C 9.515625 12.082031 9.609375 11.933594 9.703125 11.859375 C 9.703125 11.925781 9.6875 12.011719 9.664062 12.042969 C 9.59375 12.113281 9.59375 12.222656 9.660156 12.292969 C 9.726562 12.363281 9.839844 12.367188 9.910156 12.300781 C 10.066406 12.152344 10.105469 11.78125 9.984375 11.601562 C 9.898438 11.476562 9.75 11.4375 9.601562 11.507812 C 9.398438 11.601562 9.171875 11.890625 9.15625 12.195312 C 9.148438 12.410156 9.25 12.585938 9.441406 12.691406 C 10.269531 13.164062 10.335938 13.605469 10.335938 13.730469 C 10.335938 13.835938 10.296875 13.898438 10.273438 13.910156 C 10.238281 13.933594 10.203125 13.945312 10.164062 13.953125 C 10.171875 13.878906 10.132812 13.804688 10.066406 13.773438 C 10 13.738281 9.917969 13.75 9.867188 13.800781 C 9.773438 13.886719 9.769531 14.042969 9.855469 14.160156 C 9.949219 14.289062 10.160156 14.378906 10.445312 14.21875 C 10.472656 14.203125 10.5 14.183594 10.523438 14.164062 C 10.625 14.066406 10.6875 13.90625 10.6875 13.730469 Z M 13.609375 11.238281 C 13.785156 10.960938 13.707031 10.746094 13.585938 10.644531 C 13.472656 10.550781 13.316406 10.546875 13.226562 10.632812 C 13.171875 10.683594 13.15625 10.765625 13.183594 10.832031 C 13.214844 10.902344 13.285156 10.945312 13.359375 10.9375 C 13.351562 10.976562 13.335938 11.011719 13.3125 11.046875 C 13.292969 11.074219 13.246094 11.105469 13.164062 11.101562 C 13.050781 11.097656 12.652344 11.019531 12.140625 10.132812 C 12.027344 9.941406 11.847656 9.835938 11.628906 9.839844 C 11.363281 9.84375 11.070312 10.011719 10.949219 10.238281 C 10.875 10.378906 10.902344 10.53125 11.019531 10.621094 C 11.195312 10.753906 11.570312 10.734375 11.726562 10.589844 C 11.796875 10.523438 11.800781 10.410156 11.734375 10.335938 C 11.703125 10.304688 11.65625 10.285156 11.609375 10.28125 C 11.5625 10.28125 11.519531 10.296875 11.484375 10.328125 C 11.453125 10.351562 11.363281 10.363281 11.296875 10.355469 C 11.371094 10.273438 11.507812 10.195312 11.632812 10.191406 C 11.722656 10.191406 11.785156 10.226562 11.832031 10.308594 C 12.398438 11.292969 12.902344 11.449219 13.152344 11.457031 C 13.308594 11.460938 13.445312 11.410156 13.542969 11.320312 C 13.566406 11.292969 13.589844 11.265625 13.609375 11.238281 Z M 13.609375 11.238281 "/>
</g>
</svg>
