<?xml version="1.0" encoding="UTF-8" standalone="no"?>
<!-- Created with Inkscape (http://www.inkscape.org/) -->

<svg
   xmlns:dc="http://purl.org/dc/elements/1.1/"
   xmlns:cc="http://creativecommons.org/ns#"
   xmlns:rdf="http://www.w3.org/1999/02/22-rdf-syntax-ns#"
   xmlns:svg="http://www.w3.org/2000/svg"
   xmlns="http://www.w3.org/2000/svg"
   xmlns:xlink="http://www.w3.org/1999/xlink"
   xmlns:sodipodi="http://sodipodi.sourceforge.net/DTD/sodipodi-0.dtd"
   xmlns:inkscape="http://www.inkscape.org/namespaces/inkscape"
   width="30px"
   height="30px"
   version="1.1"
   id="svg8"
   inkscape:version="0.92.4 5da689c313, 2019-01-14"
   sodipodi:docname="container.svg">
  <defs
     id="defs2" />
  <sodipodi:namedview
     id="base"
     pagecolor="#ffffff"
     bordercolor="#666666"
     borderopacity="1.0"
     inkscape:pageopacity="0.0"
     inkscape:pageshadow="2"
     inkscape:zoom="13.049334"
     inkscape:cx="18.679046"
     inkscape:cy="12.165829"
     inkscape:document-units="px"
     inkscape:current-layer="layer1"
     showgrid="false"
     inkscape:snap-page="false"
     units="px"
     inkscape:window-width="1884"
     inkscape:window-height="1061"
     inkscape:window-x="0"
     inkscape:window-y="0"
     inkscape:window-maximized="1"
     fit-margin-top="0"
     fit-margin-left="0"
     fit-margin-right="0"
     fit-margin-bottom="0" />
  <metadata
     id="metadata5">
    <rdf:RDF>
      <cc:Work
         rdf:about="">
        <dc:format>image/svg+xml</dc:format>
        <dc:type
           rdf:resource="http://purl.org/dc/dcmitype/StillImage" />
        <dc:title></dc:title>
      </cc:Work>
    </rdf:RDF>
  </metadata>
    <circle
       style="color:#000000;clip-rule:nonzero;display:inline;overflow:visible;visibility:visible;opacity:1;isolation:auto;mix-blend-mode:normal;color-interpolation:sRGB;color-interpolation-filters:linearRGB;solid-color:#000000;solid-opacity:1;vector-effect:none;fill:#ffffff;fill-opacity:1;fill-rule:evenodd;stroke:#c58511;stroke-width:1;stroke-linecap:butt;stroke-linejoin:miter;stroke-miterlimit:4;stroke-dasharray:none;stroke-dashoffset:0;stroke-opacity:1;marker:none;color-rendering:auto;image-rendering:auto;shape-rendering:auto;text-rendering:auto;enable-background:accumulate"
       id="path815"
       cx="15"
       cy="15"
       r="14.5" />
<g transform="translate(6.5,7.5)"><path fill-rule="nonzero" fill="rgb(30%,30%,30%)" fill-opacity="1" d="M 16.996094 5.597656 C 16.980469 5.226562 16.519531 3.691406 15.082031 1.992188 C 14.546875 1.359375 13.90625 0.703125 12.878906 0 L 11.511719 1.675781 L 12.425781 2.460938 C 12.480469 2.308594 12.628906 2.195312 12.808594 2.195312 C 13.027344 2.195312 13.207031 2.367188 13.207031 2.578125 C 13.207031 2.734375 13.109375 2.867188 12.96875 2.925781 L 13.25 3.167969 L 11.996094 5.007812 L 13.046875 5.878906 L 14.738281 4.257812 C 14.738281 4.257812 15.910156 4.8125 16.527344 5.78125 C 16.890625 6.351562 16.777344 6.882812 16.777344 6.882812 C 16.777344 6.882812 17.039062 6.652344 16.996094 5.597656 Z M 16.996094 5.597656 "/>
<path fill-rule="nonzero" fill="rgb(30%,30%,30%)" fill-opacity="1" d="M 13.292969 14.078125 L 10.257812 10.4375 L 10.140625 10.535156 L 9.480469 9.78125 L 12.652344 5.992188 L 11.929688 5.339844 L 8.859375 9.042969 L 5.757812 5.367188 L 5.042969 5.980469 L 8.230469 9.796875 L 7.59375 10.539062 L 7.464844 10.421875 L 4.449219 14.054688 C 4.375 14.277344 4.390625 14.488281 4.53125 14.605469 L 4.925781 14.9375 C 5.0625 15.054688 5.273438 15.039062 5.390625 14.898438 L 8.460938 11.292969 L 8.308594 11.160156 L 8.847656 10.539062 L 9.382812 11.152344 L 9.234375 11.277344 L 12.300781 14.863281 C 12.507812 14.972656 12.71875 14.992188 12.855469 14.875 L 13.253906 14.542969 C 13.390625 14.425781 13.410156 14.21875 13.292969 14.078125 Z M 13.292969 14.078125 "/>
<path fill-rule="nonzero" fill="rgb(30%,30%,30%)" fill-opacity="1" d="M 5.765625 0.789062 L 6.171875 1.867188 L 4.46875 3.3125 L 5.714844 5.019531 L 4.683594 5.921875 L 3.125 4.429688 L 0 7.777344 L 2.714844 2.378906 Z M 5.765625 0.789062 "/>
</g>
</svg>
