<?xml version="1.0" encoding="UTF-8"?>
<svg xmlns="http://www.w3.org/2000/svg" xmlns:xlink="http://www.w3.org/1999/xlink" width="10.613571" height="11" viewBox="0 0 10.613571 11">
<path fill-rule="nonzero" fill="rgb(30%,30%,30%)" fill-opacity="1" d="M 0.285156 5.449219 L 3.433594 5.449219 L 4.84375 11 Z M 5.371094 10.890625 L 6.824219 5.449219 L 4.050781 5.449219 Z M 6.144531 11 L 10.570312 5.449219 L 7.488281 5.449219 Z M 10.613281 4.878906 L 8.828125 2.699219 L 7.773438 4.878906 Z M 7.246094 4.59375 L 8.324219 2.410156 L 5.878906 2.410156 Z M 3.722656 4.59375 L 5.0625 2.410156 L 2.621094 2.410156 Z M 0.308594 4.878906 L 3.191406 4.878906 L 2.003906 2.699219 Z M 4.226562 4.878906 L 6.761719 4.878906 L 5.371094 2.960938 Z M 1.980469 1.515625 L 2.578125 0.835938 L 1.675781 0.777344 L 1.214844 0 L 0.878906 0.835938 L 0 1.035156 L 0.691406 1.613281 L 0.609375 2.511719 L 1.375 2.03125 L 2.203125 2.390625 Z M 1.980469 1.515625 "/>
</svg>
