<?xml version="1.0" encoding="UTF-8"?>
<svg xmlns="http://www.w3.org/2000/svg" xmlns:xlink="http://www.w3.org/1999/xlink" width="9.424409" height="11" viewBox="0 0 9.424409 11">
<path fill-rule="nonzero" fill="rgb(30%,30%,30%)" fill-opacity="1" d="M 9.386719 5.1875 C 9.359375 5.089844 9.289062 5.019531 9.207031 5 C 9.167969 2.191406 7.207031 0 4.703125 0 C 2.222656 0 0.269531 2.15625 0.207031 4.9375 C 0.125 4.949219 0.0546875 5.007812 0.0195312 5.097656 C -0.03125 5.234375 0.0234375 5.398438 0.144531 5.457031 C 0.835938 5.804688 2.726562 5.960938 4.640625 5.960938 C 6.515625 5.960938 8.414062 5.808594 9.226562 5.53125 C 9.355469 5.484375 9.425781 5.332031 9.386719 5.1875 Z M 0.683594 5.082031 C 0.683594 5.078125 0.683594 5.078125 0.683594 5.078125 C 0.683594 2.539062 2.449219 0.546875 4.703125 0.546875 C 6.960938 0.546875 8.726562 2.539062 8.726562 5.078125 C 8.726562 5.085938 8.726562 5.09375 8.726562 5.101562 C 6.960938 5.488281 2.3125 5.53125 0.683594 5.082031 Z M 9.355469 7.578125 C 9.351562 7.582031 9.351562 7.585938 9.351562 7.585938 C 9.351562 7.585938 9.351562 7.582031 9.355469 7.578125 Z M 0.148438 8.03125 C 0.351562 8.90625 0.765625 9.6875 1.289062 10.332031 C 1.449219 10.527344 1.625 10.714844 1.8125 10.886719 C 2.640625 10.964844 3.632812 11 4.628906 11 C 5.691406 11 6.761719 10.957031 7.648438 10.878906 C 7.835938 10.707031 8.011719 10.519531 8.171875 10.320312 C 8.707031 9.660156 9.109375 8.941406 9.300781 8.035156 L 9.191406 8.015625 C 9.144531 8.015625 9.164062 8.027344 9.113281 8.027344 C 8.710938 8.027344 8.386719 8.015625 8.386719 7.800781 C 8.382812 7.578125 8.710938 7.574219 9.113281 7.574219 C 9.195312 7.574219 9.277344 7.578125 9.355469 7.578125 C 9.441406 7.015625 9.449219 6.445312 9.375 5.878906 C 8.496094 6.117188 6.585938 6.25 4.695312 6.25 C 2.753906 6.25 0.839844 6.113281 0.0859375 5.8125 C 0.046875 6.089844 0.0273438 6.367188 0.0273438 6.648438 C 0.03125 6.960938 0.0546875 7.269531 0.101562 7.578125 L 0.152344 7.582031 C 0.273438 7.578125 0.386719 7.574219 0.496094 7.574219 C 0.894531 7.574219 1.222656 7.585938 1.222656 7.800781 C 1.21875 8.015625 0.894531 8.027344 0.496094 8.027344 C 0.421875 8.027344 0.296875 8.023438 0.199219 8.023438 Z M 8.035156 6.5 C 8.4375 6.5 8.765625 6.507812 8.761719 6.722656 C 8.761719 6.9375 8.4375 6.949219 8.035156 6.949219 C 7.632812 6.949219 7.308594 6.9375 7.308594 6.722656 C 7.304688 6.5 7.632812 6.5 8.035156 6.5 Z M 5.878906 6.5 C 6.28125 6.5 6.609375 6.507812 6.609375 6.722656 C 6.605469 6.9375 6.28125 6.949219 5.878906 6.949219 C 5.480469 6.949219 5.15625 6.9375 5.152344 6.722656 C 5.152344 6.5 5.480469 6.5 5.878906 6.5 Z M 4.804688 7.574219 C 5.207031 7.574219 5.53125 7.585938 5.53125 7.800781 C 5.527344 8.015625 5.207031 8.027344 4.804688 8.027344 C 4.402344 8.027344 4.078125 8.015625 4.078125 7.800781 C 4.074219 7.578125 4.402344 7.574219 4.804688 7.574219 Z M 6.9375 7.574219 C 7.339844 7.574219 7.667969 7.585938 7.664062 7.800781 C 7.664062 8.015625 7.339844 8.027344 6.9375 8.027344 C 6.535156 8.027344 6.210938 8.015625 6.210938 7.800781 C 6.207031 7.578125 6.535156 7.574219 6.9375 7.574219 Z M 3.726562 6.5 C 4.128906 6.5 4.457031 6.507812 4.453125 6.722656 C 4.453125 6.9375 4.128906 6.949219 3.726562 6.949219 C 3.324219 6.949219 3 6.9375 3 6.722656 C 2.996094 6.5 3.324219 6.5 3.726562 6.5 Z M 3.375 7.800781 C 3.375 8.015625 3.050781 8.027344 2.648438 8.027344 C 2.246094 8.027344 1.921875 8.015625 1.921875 7.800781 C 1.917969 7.578125 2.246094 7.574219 2.648438 7.574219 C 3.050781 7.574219 3.378906 7.585938 3.375 7.800781 Z M 1.570312 6.5 C 1.972656 6.5 2.300781 6.507812 2.300781 6.722656 C 2.296875 6.9375 1.972656 6.949219 1.570312 6.949219 C 1.171875 6.949219 0.847656 6.9375 0.84375 6.722656 C 0.84375 6.5 1.171875 6.5 1.570312 6.5 Z M 1.570312 9.191406 C 1.171875 9.191406 0.847656 9.183594 0.84375 8.96875 C 0.84375 8.742188 1.171875 8.742188 1.570312 8.742188 C 1.972656 8.742188 2.300781 8.75 2.300781 8.96875 C 2.296875 9.183594 1.972656 9.191406 1.570312 9.191406 Z M 2.648438 10.269531 C 2.246094 10.269531 1.921875 10.257812 1.921875 10.042969 C 1.917969 9.820312 2.246094 9.820312 2.648438 9.820312 C 3.050781 9.820312 3.378906 9.828125 3.375 10.042969 C 3.375 10.257812 3.050781 10.269531 2.648438 10.269531 Z M 3 8.96875 C 2.996094 8.742188 3.324219 8.742188 3.726562 8.742188 C 4.128906 8.742188 4.457031 8.75 4.453125 8.96875 C 4.453125 9.183594 4.128906 9.191406 3.726562 9.191406 C 3.324219 9.191406 3 9.183594 3 8.96875 Z M 4.804688 10.269531 C 4.402344 10.269531 4.078125 10.257812 4.078125 10.042969 C 4.074219 9.820312 4.402344 9.820312 4.804688 9.820312 C 5.207031 9.820312 5.53125 9.828125 5.53125 10.042969 C 5.527344 10.257812 5.207031 10.269531 4.804688 10.269531 Z M 7.027344 10.269531 C 6.625 10.269531 6.300781 10.257812 6.296875 10.042969 C 6.296875 9.820312 6.625 9.820312 7.027344 9.820312 C 7.425781 9.820312 7.753906 9.828125 7.753906 10.042969 C 7.75 10.257812 7.425781 10.269531 7.027344 10.269531 Z M 5.152344 8.96875 C 5.152344 8.742188 5.480469 8.742188 5.878906 8.742188 C 6.28125 8.742188 6.609375 8.75 6.609375 8.96875 C 6.605469 9.183594 6.28125 9.191406 5.878906 9.191406 C 5.480469 9.191406 5.15625 9.183594 5.152344 8.96875 Z M 8.035156 9.191406 C 7.632812 9.191406 7.308594 9.183594 7.308594 8.96875 C 7.304688 8.742188 7.632812 8.742188 8.035156 8.742188 C 8.4375 8.742188 8.765625 8.75 8.761719 8.96875 C 8.761719 9.183594 8.4375 9.191406 8.035156 9.191406 Z M 8.035156 9.191406 "/>
</svg>
