<?xml version="1.0" encoding="UTF-8"?>
<svg xmlns="http://www.w3.org/2000/svg" xmlns:xlink="http://www.w3.org/1999/xlink" width="11" height="10.413014" viewBox="0 0 11 10.413014">
<path fill-rule="nonzero" fill="rgb(30%,30%,30%)" fill-opacity="1" d="M 6.148438 9.140625 L 6.148438 7.445312 L 8.933594 7.445312 C 9.355469 7.445312 9.695312 7.105469 9.695312 6.683594 C 9.695312 6.433594 9.492188 6.226562 9.238281 6.226562 L 2.101562 6.226562 C 1.847656 6.226562 1.640625 6.433594 1.640625 6.683594 C 1.640625 7.105469 1.984375 7.445312 2.402344 7.445312 L 5.035156 7.445312 L 5.035156 9.140625 L 0 9.140625 L 0 10.414062 L 11 10.414062 L 11 9.140625 Z M 6.148438 9.140625 "/>
<path fill-rule="nonzero" fill="rgb(30%,30%,30%)" fill-opacity="1" d="M 7.457031 0.585938 C 7.636719 0.542969 7.796875 0.480469 7.796875 0.382812 C 7.796875 0.265625 7.496094 0.167969 6.878906 0.09375 C 6.425781 0.0351562 5.875 0 5.46875 0 C 5.066406 0 4.511719 0.0351562 4.0625 0.09375 C 3.445312 0.167969 3.144531 0.265625 3.144531 0.382812 C 3.144531 0.476562 3.296875 0.539062 3.472656 0.578125 C 4.765625 2.285156 2.09375 1.964844 2.09375 3.027344 C 2.09375 4.773438 3.640625 6.203125 5.578125 6.203125 C 7.511719 6.203125 9.097656 4.773438 9.097656 3.027344 C 9.097656 1.941406 6.257812 2.28125 7.457031 0.585938 Z M 4.246094 0.238281 C 4.671875 0.191406 5.179688 0.160156 5.542969 0.160156 C 5.90625 0.160156 6.414062 0.191406 6.839844 0.238281 C 7.390625 0.300781 7.570312 0.367188 7.59375 0.386719 C 7.585938 0.402344 7.480469 0.453125 7.085938 0.492188 C 6.710938 0.53125 6.183594 0.550781 5.5625 0.550781 C 4.945312 0.550781 4.394531 0.53125 4.015625 0.492188 C 3.601562 0.449219 3.5 0.402344 3.492188 0.386719 C 3.515625 0.367188 3.695312 0.300781 4.246094 0.238281 Z M 6.78125 0.671875 C 6.714844 0.675781 6.652344 0.679688 6.585938 0.683594 C 6.652344 0.679688 6.714844 0.675781 6.78125 0.671875 Z M 6.78125 0.671875 "/>
</svg>
