<?xml version="1.0" encoding="UTF-8" standalone="no"?>
<!-- Created with Inkscape (http://www.inkscape.org/) -->

<svg
   xmlns:dc="http://purl.org/dc/elements/1.1/"
   xmlns:cc="http://creativecommons.org/ns#"
   xmlns:rdf="http://www.w3.org/1999/02/22-rdf-syntax-ns#"
   xmlns:svg="http://www.w3.org/2000/svg"
   xmlns="http://www.w3.org/2000/svg"
   xmlns:xlink="http://www.w3.org/1999/xlink"
   xmlns:sodipodi="http://sodipodi.sourceforge.net/DTD/sodipodi-0.dtd"
   xmlns:inkscape="http://www.inkscape.org/namespaces/inkscape"
   width="30px"
   height="30px"
   version="1.1"
   id="svg8"
   inkscape:version="0.92.4 5da689c313, 2019-01-14"
   sodipodi:docname="container.svg">
  <defs
     id="defs2" />
  <sodipodi:namedview
     id="base"
     pagecolor="#ffffff"
     bordercolor="#666666"
     borderopacity="1.0"
     inkscape:pageopacity="0.0"
     inkscape:pageshadow="2"
     inkscape:zoom="13.049334"
     inkscape:cx="18.679046"
     inkscape:cy="12.165829"
     inkscape:document-units="px"
     inkscape:current-layer="layer1"
     showgrid="false"
     inkscape:snap-page="false"
     units="px"
     inkscape:window-width="1884"
     inkscape:window-height="1061"
     inkscape:window-x="0"
     inkscape:window-y="0"
     inkscape:window-maximized="1"
     fit-margin-top="0"
     fit-margin-left="0"
     fit-margin-right="0"
     fit-margin-bottom="0" />
  <metadata
     id="metadata5">
    <rdf:RDF>
      <cc:Work
         rdf:about="">
        <dc:format>image/svg+xml</dc:format>
        <dc:type
           rdf:resource="http://purl.org/dc/dcmitype/StillImage" />
        <dc:title></dc:title>
      </cc:Work>
    </rdf:RDF>
  </metadata>
    <circle
       style="color:#000000;clip-rule:nonzero;display:inline;overflow:visible;visibility:visible;opacity:1;isolation:auto;mix-blend-mode:normal;color-interpolation:sRGB;color-interpolation-filters:linearRGB;solid-color:#000000;solid-opacity:1;vector-effect:none;fill:#ffffff;fill-opacity:1;fill-rule:evenodd;stroke:#c58511;stroke-width:1;stroke-linecap:butt;stroke-linejoin:miter;stroke-miterlimit:4;stroke-dasharray:none;stroke-dashoffset:0;stroke-opacity:1;marker:none;color-rendering:auto;image-rendering:auto;shape-rendering:auto;text-rendering:auto;enable-background:accumulate"
       id="path815"
       cx="15"
       cy="15"
       r="14.5" />
<g transform="translate(6.5,8.5)"><path fill-rule="nonzero" fill="rgb(30%,30%,30%)" fill-opacity="1" d="M 10.992188 7.695312 C 10.992188 9.078125 9.871094 10.203125 8.488281 10.203125 C 7.101562 10.203125 5.980469 9.078125 5.980469 7.695312 C 5.980469 6.3125 7.101562 5.1875 8.488281 5.1875 C 9.871094 5.1875 10.992188 6.3125 10.992188 7.695312 Z M 10.992188 7.695312 "/>
<path fill-rule="nonzero" fill="rgb(30%,30%,30%)" fill-opacity="1" d="M 15.3125 2.046875 L 13.035156 2.046875 L 13.035156 1.4375 C 13.035156 0.644531 12.390625 0 11.597656 0 L 5.402344 0 C 4.609375 0 3.964844 0.644531 3.964844 1.4375 L 3.964844 2.046875 L 1.6875 2.046875 C 0.757812 2.046875 0 2.800781 0 3.734375 L 0 11.734375 C 0 12.667969 0.757812 13.421875 1.6875 13.421875 L 15.3125 13.421875 C 16.242188 13.421875 17 12.667969 17 11.734375 L 17 3.734375 C 17 2.800781 16.242188 2.046875 15.3125 2.046875 Z M 8.46875 11.949219 C 6.15625 11.949219 4.28125 10.074219 4.28125 7.761719 C 4.28125 5.449219 6.15625 3.574219 8.46875 3.574219 C 10.78125 3.574219 12.652344 5.449219 12.652344 7.761719 C 12.652344 10.074219 10.78125 11.949219 8.46875 11.949219 Z M 15.515625 4.351562 C 15.515625 4.617188 15.300781 4.832031 15.039062 4.832031 L 13.289062 4.832031 C 13.023438 4.832031 12.808594 4.617188 12.808594 4.351562 L 12.808594 3.863281 C 12.808594 3.597656 13.023438 3.382812 13.289062 3.382812 L 15.039062 3.382812 C 15.300781 3.382812 15.515625 3.597656 15.515625 3.863281 Z M 15.515625 4.351562 "/>
</g>
</svg>
