<?xml version="1.0" encoding="UTF-8" standalone="no"?>
<!-- Created with Inkscape (http://www.inkscape.org/) -->

<svg
   xmlns:dc="http://purl.org/dc/elements/1.1/"
   xmlns:cc="http://creativecommons.org/ns#"
   xmlns:rdf="http://www.w3.org/1999/02/22-rdf-syntax-ns#"
   xmlns:svg="http://www.w3.org/2000/svg"
   xmlns="http://www.w3.org/2000/svg"
   xmlns:xlink="http://www.w3.org/1999/xlink"
   xmlns:sodipodi="http://sodipodi.sourceforge.net/DTD/sodipodi-0.dtd"
   xmlns:inkscape="http://www.inkscape.org/namespaces/inkscape"
   width="30px"
   height="30px"
   version="1.1"
   id="svg8"
   inkscape:version="0.92.4 5da689c313, 2019-01-14"
   sodipodi:docname="container.svg">
  <defs
     id="defs2" />
  <sodipodi:namedview
     id="base"
     pagecolor="#ffffff"
     bordercolor="#666666"
     borderopacity="1.0"
     inkscape:pageopacity="0.0"
     inkscape:pageshadow="2"
     inkscape:zoom="13.049334"
     inkscape:cx="18.679046"
     inkscape:cy="12.165829"
     inkscape:document-units="px"
     inkscape:current-layer="layer1"
     showgrid="false"
     inkscape:snap-page="false"
     units="px"
     inkscape:window-width="1884"
     inkscape:window-height="1061"
     inkscape:window-x="0"
     inkscape:window-y="0"
     inkscape:window-maximized="1"
     fit-margin-top="0"
     fit-margin-left="0"
     fit-margin-right="0"
     fit-margin-bottom="0" />
  <metadata
     id="metadata5">
    <rdf:RDF>
      <cc:Work
         rdf:about="">
        <dc:format>image/svg+xml</dc:format>
        <dc:type
           rdf:resource="http://purl.org/dc/dcmitype/StillImage" />
        <dc:title></dc:title>
      </cc:Work>
    </rdf:RDF>
  </metadata>
    <circle
       style="color:#000000;clip-rule:nonzero;display:inline;overflow:visible;visibility:visible;opacity:1;isolation:auto;mix-blend-mode:normal;color-interpolation:sRGB;color-interpolation-filters:linearRGB;solid-color:#000000;solid-opacity:1;vector-effect:none;fill:#c58511;fill-opacity:1;fill-rule:evenodd;stroke:#ffffff;stroke-width:1;stroke-linecap:butt;stroke-linejoin:miter;stroke-miterlimit:4;stroke-dasharray:none;stroke-dashoffset:0;stroke-opacity:1;marker:none;color-rendering:auto;image-rendering:auto;shape-rendering:auto;text-rendering:auto;enable-background:accumulate"
       id="path815"
       cx="15"
       cy="15"
       r="14.5" />
<g transform="translate(7.5,6.5)"><path fill-rule="nonzero" fill="#FFFFFF" fill-opacity="1" d="M 14.507812 8.019531 C 14.46875 7.863281 14.355469 7.757812 14.226562 7.726562 C 14.171875 3.382812 11.136719 0 7.269531 0 C 3.433594 0 0.417969 3.332031 0.316406 7.628906 C 0.195312 7.648438 0.0859375 7.738281 0.03125 7.875 C -0.0507812 8.089844 0.0351562 8.339844 0.222656 8.433594 C 1.292969 8.96875 4.214844 9.214844 7.167969 9.214844 C 10.070312 9.214844 13.003906 8.976562 14.257812 8.546875 C 14.457031 8.480469 14.566406 8.242188 14.507812 8.019531 Z M 1.058594 7.851562 C 1.058594 7.851562 1.058594 7.847656 1.058594 7.847656 C 1.058594 3.921875 3.789062 0.847656 7.269531 0.847656 C 10.753906 0.847656 13.484375 3.921875 13.484375 7.847656 C 13.484375 7.859375 13.484375 7.871094 13.488281 7.886719 C 10.757812 8.480469 3.578125 8.546875 1.058594 7.851562 Z M 14.457031 11.714844 C 14.457031 11.71875 14.453125 11.722656 14.453125 11.726562 C 14.453125 11.722656 14.453125 11.71875 14.457031 11.714844 Z M 0.230469 12.410156 C 0.539062 13.765625 1.1875 14.972656 1.992188 15.964844 C 2.238281 16.273438 2.507812 16.558594 2.800781 16.824219 C 4.082031 16.945312 5.613281 17 7.152344 17 C 8.796875 17 10.449219 16.9375 11.820312 16.8125 C 12.113281 16.546875 12.382812 16.257812 12.628906 15.953125 C 13.453125 14.929688 14.078125 13.820312 14.375 12.417969 L 14.203125 12.386719 C 14.132812 12.386719 14.160156 12.402344 14.082031 12.402344 C 13.460938 12.402344 12.960938 12.386719 12.957031 12.054688 C 12.957031 11.710938 13.460938 11.707031 14.082031 11.707031 C 14.214844 11.707031 14.339844 11.710938 14.457031 11.714844 C 14.589844 10.84375 14.601562 9.960938 14.492188 9.085938 C 13.132812 9.457031 10.179688 9.660156 7.257812 9.660156 C 4.257812 9.660156 1.296875 9.445312 0.128906 8.980469 C 0.0742188 9.410156 0.0429688 9.84375 0.0429688 10.273438 C 0.046875 10.757812 0.0820312 11.234375 0.15625 11.710938 L 0.238281 11.71875 C 0.421875 11.710938 0.601562 11.707031 0.765625 11.707031 C 1.386719 11.707031 1.890625 11.722656 1.886719 12.054688 C 1.886719 12.386719 1.386719 12.402344 0.765625 12.402344 C 0.648438 12.402344 0.460938 12.402344 0.308594 12.398438 Z M 12.417969 10.042969 C 13.039062 10.042969 13.546875 10.058594 13.542969 10.390625 C 13.539062 10.722656 13.039062 10.738281 12.417969 10.738281 C 11.796875 10.738281 11.296875 10.722656 11.292969 10.390625 C 11.289062 10.042969 11.796875 10.042969 12.417969 10.042969 Z M 9.089844 10.042969 C 9.710938 10.042969 10.214844 10.058594 10.210938 10.390625 C 10.210938 10.722656 9.710938 10.738281 9.089844 10.738281 C 8.46875 10.738281 7.96875 10.722656 7.964844 10.390625 C 7.960938 10.042969 8.46875 10.042969 9.089844 10.042969 Z M 7.421875 11.707031 C 8.042969 11.707031 8.550781 11.722656 8.546875 12.054688 C 8.542969 12.386719 8.042969 12.402344 7.421875 12.402344 C 6.804688 12.402344 6.300781 12.386719 6.300781 12.054688 C 6.296875 11.710938 6.804688 11.707031 7.421875 11.707031 Z M 10.722656 11.707031 C 11.34375 11.707031 11.847656 11.722656 11.84375 12.054688 C 11.84375 12.386719 11.34375 12.402344 10.722656 12.402344 C 10.101562 12.402344 9.601562 12.386719 9.597656 12.054688 C 9.59375 11.710938 10.101562 11.707031 10.722656 11.707031 Z M 5.757812 10.042969 C 6.378906 10.042969 6.886719 10.058594 6.882812 10.390625 C 6.878906 10.722656 6.378906 10.738281 5.757812 10.738281 C 5.136719 10.738281 4.636719 10.722656 4.636719 10.390625 C 4.632812 10.042969 5.136719 10.042969 5.757812 10.042969 Z M 5.21875 12.054688 C 5.214844 12.386719 4.714844 12.402344 4.09375 12.402344 C 3.472656 12.402344 2.972656 12.386719 2.96875 12.054688 C 2.96875 11.710938 3.472656 11.707031 4.09375 11.707031 C 4.714844 11.707031 5.222656 11.722656 5.21875 12.054688 Z M 2.429688 10.042969 C 3.050781 10.042969 3.554688 10.058594 3.554688 10.390625 C 3.550781 10.722656 3.050781 10.738281 2.429688 10.738281 C 1.808594 10.738281 1.308594 10.722656 1.304688 10.390625 C 1.300781 10.042969 1.808594 10.042969 2.429688 10.042969 Z M 2.429688 14.207031 C 1.808594 14.207031 1.308594 14.191406 1.304688 13.859375 C 1.300781 13.511719 1.808594 13.511719 2.429688 13.511719 C 3.050781 13.511719 3.554688 13.527344 3.554688 13.859375 C 3.550781 14.191406 3.050781 14.207031 2.429688 14.207031 Z M 4.09375 15.871094 C 3.472656 15.871094 2.972656 15.855469 2.96875 15.523438 C 2.96875 15.175781 3.472656 15.175781 4.09375 15.175781 C 4.714844 15.175781 5.222656 15.191406 5.21875 15.523438 C 5.214844 15.855469 4.714844 15.871094 4.09375 15.871094 Z M 4.636719 13.859375 C 4.632812 13.511719 5.136719 13.511719 5.757812 13.511719 C 6.378906 13.511719 6.886719 13.527344 6.882812 13.859375 C 6.878906 14.191406 6.378906 14.207031 5.757812 14.207031 C 5.136719 14.207031 4.636719 14.191406 4.636719 13.859375 Z M 7.421875 15.871094 C 6.804688 15.871094 6.300781 15.855469 6.300781 15.523438 C 6.296875 15.175781 6.804688 15.175781 7.421875 15.175781 C 8.042969 15.175781 8.550781 15.191406 8.546875 15.523438 C 8.542969 15.855469 8.042969 15.871094 7.421875 15.871094 Z M 10.859375 15.871094 C 10.238281 15.871094 9.738281 15.855469 9.734375 15.523438 C 9.730469 15.175781 10.238281 15.175781 10.859375 15.175781 C 11.480469 15.175781 11.984375 15.191406 11.980469 15.523438 C 11.980469 15.855469 11.480469 15.871094 10.859375 15.871094 Z M 7.964844 13.859375 C 7.960938 13.511719 8.46875 13.511719 9.089844 13.511719 C 9.710938 13.511719 10.214844 13.527344 10.210938 13.859375 C 10.210938 14.191406 9.710938 14.207031 9.089844 14.207031 C 8.46875 14.207031 7.96875 14.191406 7.964844 13.859375 Z M 12.417969 14.207031 C 11.796875 14.207031 11.296875 14.191406 11.292969 13.859375 C 11.289062 13.511719 11.796875 13.511719 12.417969 13.511719 C 13.039062 13.511719 13.546875 13.527344 13.542969 13.859375 C 13.539062 14.191406 13.039062 14.207031 12.417969 14.207031 Z M 12.417969 14.207031 "/>
</g>
</svg>
