<?xml version="1.0" encoding="UTF-8" standalone="no"?>
<!-- Created with Inkscape (http://www.inkscape.org/) -->

<svg
   xmlns:dc="http://purl.org/dc/elements/1.1/"
   xmlns:cc="http://creativecommons.org/ns#"
   xmlns:rdf="http://www.w3.org/1999/02/22-rdf-syntax-ns#"
   xmlns:svg="http://www.w3.org/2000/svg"
   xmlns="http://www.w3.org/2000/svg"
   xmlns:xlink="http://www.w3.org/1999/xlink"
   xmlns:sodipodi="http://sodipodi.sourceforge.net/DTD/sodipodi-0.dtd"
   xmlns:inkscape="http://www.inkscape.org/namespaces/inkscape"
   width="30px"
   height="30px"
   version="1.1"
   id="svg8"
   inkscape:version="0.92.4 5da689c313, 2019-01-14"
   sodipodi:docname="container.svg">
  <defs
     id="defs2" />
  <sodipodi:namedview
     id="base"
     pagecolor="#ffffff"
     bordercolor="#666666"
     borderopacity="1.0"
     inkscape:pageopacity="0.0"
     inkscape:pageshadow="2"
     inkscape:zoom="13.049334"
     inkscape:cx="18.679046"
     inkscape:cy="12.165829"
     inkscape:document-units="px"
     inkscape:current-layer="layer1"
     showgrid="false"
     inkscape:snap-page="false"
     units="px"
     inkscape:window-width="1884"
     inkscape:window-height="1061"
     inkscape:window-x="0"
     inkscape:window-y="0"
     inkscape:window-maximized="1"
     fit-margin-top="0"
     fit-margin-left="0"
     fit-margin-right="0"
     fit-margin-bottom="0" />
  <metadata
     id="metadata5">
    <rdf:RDF>
      <cc:Work
         rdf:about="">
        <dc:format>image/svg+xml</dc:format>
        <dc:type
           rdf:resource="http://purl.org/dc/dcmitype/StillImage" />
        <dc:title></dc:title>
      </cc:Work>
    </rdf:RDF>
  </metadata>
    <circle
       style="color:#000000;clip-rule:nonzero;display:inline;overflow:visible;visibility:visible;opacity:1;isolation:auto;mix-blend-mode:normal;color-interpolation:sRGB;color-interpolation-filters:linearRGB;solid-color:#000000;solid-opacity:1;vector-effect:none;fill:#ffffff;fill-opacity:1;fill-rule:evenodd;stroke:#c58511;stroke-width:1;stroke-linecap:butt;stroke-linejoin:miter;stroke-miterlimit:4;stroke-dasharray:none;stroke-dashoffset:0;stroke-opacity:1;marker:none;color-rendering:auto;image-rendering:auto;shape-rendering:auto;text-rendering:auto;enable-background:accumulate"
       id="path815"
       cx="15"
       cy="15"
       r="14.5" />
<g transform="translate(7.5,6.5)"><path fill-rule="nonzero" fill="rgb(30%,30%,30%)" fill-opacity="1" d="M 12.347656 8.519531 C 12.390625 5.207031 14.832031 4.21875 14.832031 4.21875 L 13.292969 2.050781 C 13.292969 2.050781 12.699219 2.761719 11.082031 2.683594 C 9.464844 2.601562 9.070312 0 9.070312 0 L 6.191406 0 C 6.191406 0 6.3125 2.089844 4.261719 2.5625 C 3.195312 2.957031 1.855469 2.011719 1.855469 2.011719 L 0.472656 4.339844 C 0.472656 4.339844 3.039062 5.167969 2.878906 8.480469 C 2.761719 11.398438 0 12.503906 0 12.503906 L 1.695312 15.027344 C 1.695312 15.027344 3.667969 14.316406 5.285156 14.871094 C 6.902344 15.421875 7.652344 17 7.652344 17 C 7.652344 17 8.558594 15.539062 10.058594 14.910156 C 11.730469 14.203125 13.609375 15.066406 13.609375 15.066406 L 15.066406 12.503906 C 15.066406 12.503906 12.304688 11.558594 12.347656 8.519531 Z M 13.648438 12.195312 L 13.410156 12.457031 C 13.328125 12.382812 13.238281 12.300781 13.148438 12.207031 L 13.398438 11.957031 C 13.488281 12.042969 13.570312 12.125 13.648438 12.195312 Z M 12.800781 11.261719 L 12.511719 11.472656 C 12.441406 11.378906 12.371094 11.277344 12.304688 11.171875 L 12.601562 10.976562 C 12.664062 11.078125 12.730469 11.171875 12.800781 11.261719 Z M 12.996094 5.050781 L 12.746094 4.800781 C 12.832031 4.714844 12.925781 4.628906 13.023438 4.550781 L 13.25 4.824219 C 13.160156 4.894531 13.078125 4.972656 12.996094 5.050781 Z M 13.492188 4.640625 L 13.289062 4.347656 C 13.394531 4.277344 13.5 4.210938 13.605469 4.148438 L 13.777344 4.460938 C 13.683594 4.515625 13.585938 4.574219 13.492188 4.640625 Z M 14.203125 4.105469 L 13.957031 4.273438 L 13.707031 3.972656 L 13.957031 3.804688 Z M 13.851562 3.554688 L 13.5625 3.757812 L 13.34375 3.429688 L 13.632812 3.226562 Z M 13.277344 2.617188 L 13.441406 2.894531 L 13.152344 3.097656 L 12.984375 2.820312 Z M 12.863281 2.796875 L 13.03125 3.109375 C 12.925781 3.167969 12.808594 3.21875 12.691406 3.265625 L 12.558594 2.933594 C 12.667969 2.894531 12.769531 2.847656 12.863281 2.796875 Z M 12.824219 5.238281 C 12.75 5.324219 12.675781 5.410156 12.609375 5.503906 L 12.324219 5.292969 C 12.394531 5.191406 12.472656 5.097656 12.554688 5.003906 Z M 12.320312 3.019531 L 12.421875 3.359375 C 12.304688 3.394531 12.183594 3.425781 12.058594 3.449219 L 11.992188 3.097656 C 12.105469 3.078125 12.214844 3.050781 12.320312 3.019531 Z M 12.164062 5.523438 L 12.464844 5.714844 C 12.40625 5.808594 12.347656 5.910156 12.296875 6.007812 L 11.980469 5.84375 C 12.039062 5.734375 12.101562 5.628906 12.164062 5.523438 Z M 11.84375 7.4375 C 11.824219 7.546875 11.8125 7.660156 11.800781 7.78125 L 11.445312 7.746094 C 11.457031 7.621094 11.472656 7.5 11.492188 7.382812 Z M 11.539062 7.113281 C 11.5625 6.992188 11.59375 6.871094 11.625 6.753906 L 11.96875 6.851562 C 11.9375 6.957031 11.910156 7.070312 11.886719 7.183594 Z M 11.78125 8.089844 C 11.777344 8.179688 11.773438 8.269531 11.773438 8.363281 L 11.773438 8.433594 L 11.417969 8.441406 L 11.417969 8.363281 C 11.417969 8.265625 11.421875 8.167969 11.425781 8.074219 Z M 11.785156 8.691406 C 11.796875 8.804688 11.808594 8.917969 11.824219 9.03125 L 11.472656 9.085938 C 11.457031 8.964844 11.441406 8.839844 11.433594 8.71875 Z M 11.871094 9.28125 C 11.894531 9.394531 11.925781 9.503906 11.957031 9.613281 L 11.617188 9.714844 C 11.582031 9.597656 11.550781 9.476562 11.523438 9.355469 Z M 12.054688 9.90625 C 12.09375 10.011719 12.136719 10.121094 12.183594 10.222656 L 11.859375 10.371094 C 11.808594 10.257812 11.761719 10.144531 11.71875 10.03125 Z M 12.164062 6.285156 C 12.121094 6.390625 12.078125 6.496094 12.042969 6.605469 L 11.707031 6.492188 C 11.746094 6.375 11.789062 6.257812 11.839844 6.144531 Z M 11.355469 3.152344 L 11.40625 3.152344 C 11.5 3.152344 11.597656 3.148438 11.695312 3.140625 L 11.726562 3.496094 C 11.621094 3.503906 11.511719 3.511719 11.402344 3.511719 L 11.351562 3.507812 Z M 10.769531 3.089844 C 10.882812 3.113281 10.992188 3.128906 11.105469 3.140625 L 11.070312 3.492188 C 10.949219 3.484375 10.824219 3.464844 10.703125 3.441406 Z M 10.25 2.886719 C 10.34375 2.945312 10.441406 2.992188 10.539062 3.027344 L 10.417969 3.359375 C 10.300781 3.316406 10.183594 3.261719 10.066406 3.191406 Z M 10.011719 2.71875 L 9.785156 2.996094 C 9.691406 2.917969 9.597656 2.832031 9.507812 2.738281 L 9.765625 2.492188 C 9.84375 2.574219 9.925781 2.652344 10.011719 2.71875 Z M 9.644531 2.34375 L 9.367188 2.566406 C 9.292969 2.472656 9.21875 2.375 9.144531 2.269531 L 9.441406 2.070312 C 9.507812 2.164062 9.574219 2.257812 9.644531 2.34375 Z M 9.042969 5.949219 C 8.394531 5.53125 7.367188 5.1875 6.15625 5.929688 C 6.058594 5.992188 5.929688 5.960938 5.871094 5.863281 C 5.808594 5.765625 5.839844 5.636719 5.9375 5.574219 C 7.332031 4.71875 8.539062 5.105469 9.289062 5.585938 C 9.3125 5.601562 9.0625 5.960938 9.042969 5.949219 Z M 9.113281 1.585938 C 9.167969 1.6875 9.222656 1.789062 9.28125 1.886719 L 8.972656 2.070312 C 8.914062 1.964844 8.851562 1.855469 8.796875 1.746094 Z M 9.039062 1.402344 L 8.734375 1.585938 C 8.671875 1.480469 8.613281 1.375 8.554688 1.261719 L 8.875 1.101562 C 8.925781 1.207031 8.980469 1.308594 9.039062 1.402344 Z M 8.257812 0.769531 L 8.617188 0.769531 L 8.617188 1.125 L 8.257812 1.125 Z M 7.433594 0.78125 L 7.792969 0.78125 L 7.792969 1.140625 L 7.433594 1.140625 Z M 7.683594 1.972656 C 7.96875 1.972656 8.203125 2.203125 8.203125 2.492188 C 8.203125 2.777344 7.96875 3.011719 7.683594 3.011719 C 7.394531 3.011719 7.164062 2.777344 7.164062 2.492188 C 7.164062 2.203125 7.394531 1.972656 7.683594 1.972656 Z M 6.757812 0.78125 L 7.113281 0.78125 L 7.113281 1.140625 L 6.757812 1.140625 Z M 6.519531 1.195312 L 6.851562 1.320312 C 6.808594 1.433594 6.757812 1.550781 6.703125 1.664062 L 6.382812 1.503906 C 6.433594 1.402344 6.480469 1.296875 6.519531 1.195312 Z M 6.234375 1.769531 L 6.535156 1.957031 C 6.46875 2.0625 6.398438 2.167969 6.320312 2.265625 L 6.042969 2.042969 C 6.109375 1.957031 6.175781 1.863281 6.234375 1.769531 Z M 5.875 2.230469 L 6.136719 2.476562 C 6.046875 2.570312 5.953125 2.65625 5.859375 2.734375 L 5.632812 2.460938 C 5.71875 2.390625 5.800781 2.3125 5.875 2.230469 Z M 5.433594 2.605469 L 5.628906 2.902344 C 5.523438 2.972656 5.414062 3.035156 5.300781 3.09375 L 5.144531 2.773438 C 5.242188 2.722656 5.339844 2.667969 5.433594 2.605469 Z M 4.867188 2.890625 L 4.988281 3.226562 C 4.871094 3.265625 4.75 3.300781 4.628906 3.332031 L 4.546875 2.984375 C 4.65625 2.957031 4.765625 2.925781 4.867188 2.890625 Z M 4.296875 3.054688 L 4.363281 3.402344 C 4.246094 3.425781 4.117188 3.441406 3.984375 3.445312 L 3.96875 3.089844 C 4.085938 3.085938 4.195312 3.074219 4.296875 3.054688 Z M 3.851562 8.253906 L 3.496094 8.257812 C 3.496094 8.140625 3.488281 8.027344 3.480469 7.914062 L 3.835938 7.886719 C 3.84375 8.003906 3.851562 8.128906 3.851562 8.253906 Z M 3.320312 9.753906 L 3.660156 9.851562 C 3.628906 9.96875 3.589844 10.085938 3.546875 10.203125 L 3.210938 10.078125 C 3.253906 9.972656 3.289062 9.863281 3.320312 9.753906 Z M 3.246094 6.738281 L 3.582031 6.625 C 3.621094 6.742188 3.65625 6.863281 3.6875 6.980469 L 3.339844 7.066406 C 3.3125 6.957031 3.28125 6.847656 3.246094 6.738281 Z M 3.382812 9.503906 C 3.40625 9.394531 3.429688 9.28125 3.445312 9.167969 L 3.796875 9.222656 C 3.777344 9.34375 3.757812 9.464844 3.730469 9.582031 Z M 3.472656 8.914062 C 3.480469 8.824219 3.488281 8.730469 3.492188 8.632812 L 3.492188 8.570312 L 3.847656 8.582031 L 3.847656 8.648438 C 3.84375 8.746094 3.835938 8.847656 3.828125 8.945312 Z M 3.804688 7.613281 L 3.453125 7.65625 C 3.4375 7.542969 3.421875 7.429688 3.398438 7.320312 L 3.746094 7.25 C 3.769531 7.367188 3.789062 7.492188 3.804688 7.613281 Z M 3.378906 3.058594 C 3.496094 3.074219 3.613281 3.085938 3.71875 3.089844 L 3.703125 3.445312 C 3.585938 3.4375 3.460938 3.425781 3.332031 3.410156 Z M 3.46875 6.316406 L 3.136719 6.449219 C 3.09375 6.34375 3.046875 6.238281 2.996094 6.136719 L 3.316406 5.980469 C 3.371094 6.089844 3.421875 6.203125 3.46875 6.316406 Z M 2.738281 2.925781 C 2.84375 2.953125 2.957031 2.980469 3.074219 3.003906 L 3.003906 3.355469 C 2.878906 3.328125 2.757812 3.300781 2.648438 3.269531 Z M 2.117188 2.679688 C 2.195312 2.730469 2.277344 2.796875 2.414062 2.851562 L 2.222656 3.117188 C 2.085938 3.046875 2.035156 3.023438 1.929688 2.953125 Z M 1.71875 3.117188 L 1.953125 3.289062 L 1.75 3.582031 L 1.515625 3.414062 Z M 1.070312 3.996094 L 1.292969 3.660156 L 1.53125 3.820312 L 1.34375 4.148438 Z M 1.683594 4.503906 C 1.589844 4.429688 1.5 4.359375 1.410156 4.296875 L 1.609375 4.003906 C 1.707031 4.070312 1.808594 4.144531 1.90625 4.226562 Z M 1.878906 4.671875 L 2.117188 4.40625 C 2.207031 4.488281 2.296875 4.574219 2.382812 4.660156 L 2.125 4.910156 C 2.046875 4.828125 1.964844 4.746094 1.878906 4.671875 Z M 2.335938 5.136719 L 2.605469 4.90625 C 2.683594 5 2.761719 5.097656 2.835938 5.195312 L 2.550781 5.40625 C 2.480469 5.316406 2.410156 5.226562 2.335938 5.136719 Z M 2.875 5.910156 C 2.820312 5.8125 2.761719 5.710938 2.695312 5.617188 L 2.992188 5.421875 C 3.0625 5.523438 3.125 5.628906 3.1875 5.734375 Z M 2.8125 10.890625 L 3.117188 11.078125 C 3.050781 11.183594 2.984375 11.285156 2.910156 11.386719 L 2.621094 11.179688 C 2.6875 11.085938 2.753906 10.988281 2.8125 10.890625 Z M 2.027344 11.867188 L 2.273438 12.121094 C 2.179688 12.210938 2.089844 12.296875 2.003906 12.371094 L 1.769531 12.097656 C 1.851562 12.03125 1.9375 11.953125 2.027344 11.867188 Z M 1.570312 12.261719 L 1.789062 12.542969 C 1.6875 12.621094 1.589844 12.695312 1.488281 12.761719 L 1.292969 12.464844 C 1.382812 12.402344 1.476562 12.335938 1.570312 12.261719 Z M 0.871094 12.808594 L 1.183594 12.636719 L 1.382812 12.933594 L 1.074219 13.105469 Z M 1.273438 13.371094 L 1.585938 13.199219 L 1.785156 13.511719 L 1.476562 13.683594 Z M 1.773438 14.203125 L 1.613281 13.902344 L 1.921875 13.730469 L 2.085938 14.035156 Z M 2.238281 14.449219 L 2.144531 14.105469 C 2.230469 14.082031 2.351562 14.050781 2.5 14.019531 L 2.574219 14.367188 C 2.433594 14.398438 2.320312 14.425781 2.238281 14.449219 Z M 2.503906 11.882812 L 2.242188 11.644531 C 2.316406 11.5625 2.390625 11.476562 2.464844 11.382812 L 2.742188 11.605469 C 2.667969 11.699219 2.585938 11.792969 2.503906 11.882812 Z M 2.882812 14.308594 L 2.820312 13.957031 C 2.933594 13.9375 3.054688 13.921875 3.183594 13.90625 L 3.226562 14.257812 C 3.105469 14.273438 2.988281 14.289062 2.882812 14.308594 Z M 3.253906 10.839844 L 2.941406 10.671875 C 2.996094 10.570312 3.046875 10.46875 3.09375 10.363281 L 3.417969 10.511719 C 3.367188 10.621094 3.3125 10.734375 3.253906 10.839844 Z M 3.484375 14.234375 L 3.457031 13.878906 C 3.574219 13.867188 3.695312 13.863281 3.820312 13.859375 L 3.828125 14.214844 C 3.710938 14.21875 3.59375 14.222656 3.484375 14.234375 Z M 4.429688 14.238281 C 4.320312 14.226562 4.203125 14.21875 4.085938 14.21875 L 4.097656 13.859375 C 4.222656 13.863281 4.347656 13.871094 4.464844 13.886719 Z M 5.0625 14.355469 C 4.957031 14.328125 4.847656 14.300781 4.734375 14.28125 L 4.796875 13.929688 C 4.921875 13.953125 5.042969 13.980469 5.160156 14.011719 Z M 5.617188 14.566406 C 5.511719 14.515625 5.40625 14.472656 5.304688 14.433594 L 5.425781 14.101562 C 5.542969 14.140625 5.65625 14.191406 5.769531 14.246094 Z M 6.132812 14.863281 C 6.039062 14.796875 5.941406 14.738281 5.84375 14.683594 L 6.015625 14.375 C 6.121094 14.433594 6.230469 14.5 6.332031 14.566406 Z M 6.644531 15.265625 C 6.558594 15.1875 6.472656 15.113281 6.382812 15.042969 L 6.601562 14.761719 C 6.695312 14.839844 6.792969 14.917969 6.882812 15 Z M 6.832031 15.441406 L 7.085938 15.191406 C 7.171875 15.277344 7.253906 15.367188 7.335938 15.457031 L 7.070312 15.691406 C 7 15.613281 6.921875 15.53125 6.832031 15.441406 Z M 7.546875 16.191406 C 7.546875 16.1875 7.355469 16.046875 7.296875 15.953125 L 7.578125 15.734375 C 7.648438 15.839844 7.800781 15.964844 7.800781 15.964844 Z M 7.953125 15.863281 L 7.683594 15.628906 C 7.722656 15.59375 7.804688 15.503906 7.902344 15.402344 L 8.15625 15.652344 C 8.058594 15.746094 7.980469 15.832031 7.953125 15.863281 Z M 8.339844 15.46875 L 8.097656 15.210938 C 8.179688 15.132812 8.269531 15.050781 8.367188 14.964844 L 8.597656 15.238281 C 8.507812 15.316406 8.421875 15.394531 8.339844 15.46875 Z M 8.800781 15.074219 L 8.582031 14.792969 C 8.675781 14.71875 8.773438 14.648438 8.878906 14.578125 L 9.078125 14.871094 C 8.980469 14.9375 8.886719 15.003906 8.800781 15.074219 Z M 9.339844 14.703125 L 9.15625 14.398438 C 9.265625 14.335938 9.375 14.277344 9.480469 14.222656 L 9.640625 14.539062 C 9.539062 14.589844 9.4375 14.644531 9.339844 14.703125 Z M 9.875 14.433594 L 9.730469 14.105469 C 9.847656 14.058594 9.964844 14.015625 10.085938 13.976562 L 10.191406 14.320312 C 10.082031 14.351562 9.976562 14.390625 9.875 14.433594 Z M 10.4375 14.253906 L 10.355469 13.90625 C 10.472656 13.878906 10.59375 13.855469 10.71875 13.835938 L 10.769531 14.1875 C 10.65625 14.207031 10.542969 14.226562 10.4375 14.253906 Z M 11.078125 14.152344 L 11.046875 13.796875 C 11.171875 13.789062 11.292969 13.78125 11.414062 13.777344 L 11.421875 14.136719 C 11.308594 14.136719 11.195312 14.144531 11.078125 14.152344 Z M 11.558594 11.242188 C 11.4375 11.230469 11.320312 11.21875 11.210938 11.210938 C 10.546875 11.164062 9.972656 11.121094 9.71875 10.351562 C 9.546875 9.835938 9.757812 9.488281 9.960938 9.148438 C 10.210938 8.742188 10.492188 8.277344 10.253906 7.300781 C 10.242188 7.265625 10.230469 7.230469 10.214844 7.195312 C 8.457031 8.800781 5.214844 11.679688 3.796875 12.695312 C 3.675781 12.78125 3.535156 12.628906 3.59375 12.515625 L 10.300781 5.011719 C 10.628906 4.71875 11.109375 4.71875 11.402344 5.011719 C 11.695312 5.308594 11.695312 5.785156 11.402344 6.082031 C 11.414062 6.085938 11.078125 6.40625 10.535156 6.90625 C 10.59375 7.015625 10.636719 7.117188 10.65625 7.199219 C 10.9375 8.347656 10.578125 8.9375 10.316406 9.367188 C 10.125 9.679688 10 9.886719 10.113281 10.21875 C 10.273438 10.707031 10.558594 10.746094 11.242188 10.796875 C 11.351562 10.804688 11.46875 10.816406 11.589844 10.828125 C 11.695312 10.835938 11.78125 10.921875 11.785156 11.027344 C 11.785156 11.027344 11.785156 11.03125 11.785156 11.035156 C 11.785156 11.148438 11.691406 11.242188 11.578125 11.242188 C 11.570312 11.242188 11.5625 11.242188 11.558594 11.242188 Z M 12.027344 14.152344 C 11.917969 14.144531 11.800781 14.136719 11.679688 14.136719 L 11.6875 13.777344 C 11.816406 13.78125 11.9375 13.789062 12.054688 13.796875 Z M 11.980469 10.621094 L 12.296875 10.457031 C 12.347656 10.5625 12.40625 10.660156 12.460938 10.757812 L 12.15625 10.941406 C 12.09375 10.835938 12.035156 10.730469 11.980469 10.621094 Z M 12.632812 14.222656 C 12.527344 14.207031 12.410156 14.1875 12.285156 14.175781 L 12.324219 13.820312 C 12.457031 13.835938 12.578125 13.851562 12.6875 13.871094 Z M 12.992188 11.507812 C 13.066406 11.597656 13.144531 11.6875 13.21875 11.765625 L 12.957031 12.007812 C 12.878906 11.921875 12.796875 11.832031 12.71875 11.734375 Z M 13.296875 14.347656 C 13.164062 14.332031 13.082031 14.308594 12.9375 14.277344 L 13.011719 13.929688 C 13.167969 13.964844 13.378906 14.023438 13.378906 14.023438 Z M 13.558594 13.921875 L 13.25 13.746094 L 13.429688 13.4375 L 13.738281 13.617188 Z M 13.871094 13.386719 L 13.5625 13.207031 L 13.742188 12.898438 L 14.050781 13.078125 Z M 13.710938 12.675781 L 13.925781 12.414062 C 13.976562 12.472656 14.070312 12.542969 14.269531 12.621094 L 14.0625 12.910156 C 13.863281 12.832031 13.769531 12.738281 13.710938 12.675781 Z M 13.710938 12.675781 "/>
<path fill-rule="nonzero" fill="rgb(30%,30%,30%)" fill-opacity="1" d="M 11.003906 5.386719 C 10.855469 5.242188 10.617188 5.242188 10.472656 5.386719 L 8.792969 7.417969 C 8.59375 7.640625 8.804688 7.765625 9.042969 7.582031 C 9.382812 7.320312 9.703125 7.058594 9.984375 6.820312 C 9.929688 6.75 9.871094 6.675781 9.800781 6.597656 C 9.769531 6.566406 10.078125 6.289062 10.109375 6.320312 C 10.179688 6.398438 10.242188 6.472656 10.300781 6.550781 C 10.730469 6.179688 11.003906 5.921875 11.003906 5.921875 C 11.152344 5.773438 11.152344 5.535156 11.003906 5.386719 Z M 11.003906 5.386719 "/>
</g>
</svg>
