<?xml version="1.0" encoding="UTF-8" standalone="no"?>
<!-- Created with Inkscape (http://www.inkscape.org/) -->

<svg
   xmlns:dc="http://purl.org/dc/elements/1.1/"
   xmlns:cc="http://creativecommons.org/ns#"
   xmlns:rdf="http://www.w3.org/1999/02/22-rdf-syntax-ns#"
   xmlns:svg="http://www.w3.org/2000/svg"
   xmlns="http://www.w3.org/2000/svg"
   xmlns:xlink="http://www.w3.org/1999/xlink"
   xmlns:sodipodi="http://sodipodi.sourceforge.net/DTD/sodipodi-0.dtd"
   xmlns:inkscape="http://www.inkscape.org/namespaces/inkscape"
   width="30px"
   height="30px"
   version="1.1"
   id="svg8"
   inkscape:version="0.92.4 5da689c313, 2019-01-14"
   sodipodi:docname="container.svg">
  <defs
     id="defs2" />
  <sodipodi:namedview
     id="base"
     pagecolor="#ffffff"
     bordercolor="#666666"
     borderopacity="1.0"
     inkscape:pageopacity="0.0"
     inkscape:pageshadow="2"
     inkscape:zoom="13.049334"
     inkscape:cx="18.679046"
     inkscape:cy="12.165829"
     inkscape:document-units="px"
     inkscape:current-layer="layer1"
     showgrid="false"
     inkscape:snap-page="false"
     units="px"
     inkscape:window-width="1884"
     inkscape:window-height="1061"
     inkscape:window-x="0"
     inkscape:window-y="0"
     inkscape:window-maximized="1"
     fit-margin-top="0"
     fit-margin-left="0"
     fit-margin-right="0"
     fit-margin-bottom="0" />
  <metadata
     id="metadata5">
    <rdf:RDF>
      <cc:Work
         rdf:about="">
        <dc:format>image/svg+xml</dc:format>
        <dc:type
           rdf:resource="http://purl.org/dc/dcmitype/StillImage" />
        <dc:title></dc:title>
      </cc:Work>
    </rdf:RDF>
  </metadata>
    <circle
       style="color:#000000;clip-rule:nonzero;display:inline;overflow:visible;visibility:visible;opacity:1;isolation:auto;mix-blend-mode:normal;color-interpolation:sRGB;color-interpolation-filters:linearRGB;solid-color:#000000;solid-opacity:1;vector-effect:none;fill:#ffffff;fill-opacity:1;fill-rule:evenodd;stroke:#c58511;stroke-width:1;stroke-linecap:butt;stroke-linejoin:miter;stroke-miterlimit:4;stroke-dasharray:none;stroke-dashoffset:0;stroke-opacity:1;marker:none;color-rendering:auto;image-rendering:auto;shape-rendering:auto;text-rendering:auto;enable-background:accumulate"
       id="path815"
       cx="15"
       cy="15"
       r="14.5" />
<g transform="translate(7.5,6.5)"><path fill-rule="nonzero" fill="rgb(30%,30%,30%)" fill-opacity="1" d="M 6.191406 0 L 9.070312 0 C 9.070312 0 9.464844 2.601562 11.082031 2.683594 C 12.699219 2.761719 13.292969 2.050781 13.292969 2.050781 L 14.832031 4.21875 C 14.832031 4.21875 12.390625 5.207031 12.347656 8.519531 C 12.304688 11.558594 15.066406 12.503906 15.066406 12.503906 L 13.609375 15.066406 C 13.609375 15.066406 11.730469 14.203125 10.058594 14.910156 C 8.558594 15.539062 7.652344 17 7.652344 17 C 7.652344 17 6.902344 15.421875 5.285156 14.871094 C 3.667969 14.316406 1.695312 15.027344 1.695312 15.027344 L 0 12.503906 C 0 12.503906 2.761719 11.398438 2.878906 8.480469 C 3.039062 5.167969 0.472656 4.339844 0.472656 4.339844 L 1.855469 2.011719 C 1.855469 2.011719 3.195312 2.957031 4.261719 2.5625 C 6.3125 2.089844 6.191406 0 6.191406 0 Z M 7.722656 15.957031 C 7.71875 15.953125 7.648438 15.839844 7.511719 15.667969 L 7.234375 15.890625 C 7.355469 16.046875 7.421875 16.148438 7.421875 16.148438 Z M 8.15625 15.652344 L 7.902344 15.402344 C 7.804688 15.503906 7.722656 15.59375 7.652344 15.671875 L 7.921875 15.90625 C 7.984375 15.832031 8.066406 15.746094 8.15625 15.652344 Z M 7.335938 15.457031 C 7.253906 15.367188 7.171875 15.277344 7.085938 15.191406 L 6.832031 15.441406 C 6.921875 15.53125 7 15.613281 7.070312 15.691406 Z M 8.597656 15.238281 L 8.367188 14.964844 C 8.269531 15.050781 8.179688 15.132812 8.097656 15.210938 L 8.339844 15.46875 C 8.421875 15.394531 8.507812 15.316406 8.597656 15.238281 Z M 6.882812 15 C 6.792969 14.917969 6.695312 14.839844 6.601562 14.761719 L 6.382812 15.042969 C 6.472656 15.113281 6.558594 15.1875 6.644531 15.265625 Z M 9.078125 14.871094 L 8.878906 14.578125 C 8.773438 14.648438 8.675781 14.71875 8.582031 14.792969 L 8.800781 15.074219 C 8.886719 15.003906 8.980469 14.9375 9.078125 14.871094 Z M 6.332031 14.566406 C 6.230469 14.5 6.121094 14.433594 6.015625 14.375 L 5.84375 14.683594 C 5.941406 14.738281 6.039062 14.796875 6.132812 14.863281 Z M 9.640625 14.539062 L 9.480469 14.222656 C 9.375 14.277344 9.265625 14.335938 9.15625 14.398438 L 9.339844 14.703125 C 9.4375 14.644531 9.539062 14.589844 9.640625 14.539062 Z M 5.769531 14.246094 C 5.65625 14.191406 5.542969 14.140625 5.425781 14.101562 L 5.304688 14.433594 C 5.40625 14.472656 5.511719 14.515625 5.617188 14.566406 Z M 2.574219 14.367188 L 2.5 14.019531 C 2.351562 14.050781 2.230469 14.082031 2.144531 14.105469 L 2.238281 14.449219 C 2.320312 14.425781 2.433594 14.398438 2.574219 14.367188 Z M 10.191406 14.320312 L 10.085938 13.976562 C 9.964844 14.015625 9.847656 14.058594 9.730469 14.105469 L 9.875 14.433594 C 9.976562 14.390625 10.082031 14.351562 10.191406 14.320312 Z M 5.160156 14.011719 C 5.042969 13.980469 4.921875 13.953125 4.796875 13.929688 L 4.734375 14.28125 C 4.847656 14.300781 4.957031 14.328125 5.0625 14.355469 Z M 13.378906 14.023438 C 13.378906 14.023438 13.167969 13.964844 13.011719 13.929688 L 12.9375 14.277344 C 13.082031 14.308594 13.164062 14.332031 13.296875 14.347656 Z M 3.226562 14.257812 L 3.183594 13.90625 C 3.054688 13.921875 2.933594 13.9375 2.820312 13.957031 L 2.882812 14.308594 C 2.988281 14.289062 3.105469 14.273438 3.226562 14.257812 Z M 2.085938 14.035156 L 1.921875 13.730469 L 1.613281 13.902344 L 1.773438 14.203125 Z M 10.769531 14.1875 L 10.71875 13.835938 C 10.59375 13.855469 10.472656 13.878906 10.355469 13.90625 L 10.4375 14.253906 C 10.542969 14.226562 10.65625 14.207031 10.769531 14.1875 Z M 4.464844 13.886719 C 4.347656 13.871094 4.222656 13.863281 4.097656 13.859375 L 4.085938 14.21875 C 4.203125 14.21875 4.320312 14.226562 4.429688 14.238281 Z M 3.828125 14.214844 L 3.820312 13.859375 C 3.695312 13.863281 3.574219 13.867188 3.457031 13.878906 L 3.484375 14.234375 C 3.59375 14.222656 3.710938 14.21875 3.828125 14.214844 Z M 12.6875 13.871094 C 12.578125 13.851562 12.457031 13.835938 12.324219 13.820312 L 12.285156 14.175781 C 12.410156 14.1875 12.527344 14.207031 12.632812 14.222656 Z M 11.421875 14.136719 L 11.414062 13.777344 C 11.292969 13.78125 11.171875 13.789062 11.046875 13.796875 L 11.078125 14.152344 C 11.195312 14.144531 11.308594 14.136719 11.421875 14.136719 Z M 12.054688 13.796875 C 11.9375 13.789062 11.816406 13.78125 11.6875 13.777344 L 11.679688 14.136719 C 11.800781 14.136719 11.917969 14.144531 12.027344 14.152344 Z M 13.738281 13.617188 L 13.429688 13.4375 L 13.25 13.746094 L 13.558594 13.921875 Z M 1.785156 13.511719 L 1.585938 13.199219 L 1.273438 13.371094 L 1.476562 13.683594 Z M 14.050781 13.078125 L 13.742188 12.898438 L 13.5625 13.207031 L 13.871094 13.386719 Z M 1.382812 12.933594 L 1.183594 12.636719 L 0.871094 12.808594 L 1.074219 13.105469 Z M 14.269531 12.621094 C 14.070312 12.542969 13.976562 12.472656 13.925781 12.414062 L 13.710938 12.675781 C 13.769531 12.738281 13.863281 12.832031 14.0625 12.910156 Z M 1.789062 12.542969 L 1.570312 12.261719 C 1.476562 12.335938 1.382812 12.402344 1.292969 12.464844 L 1.488281 12.761719 C 1.589844 12.695312 1.6875 12.621094 1.789062 12.542969 Z M 13.648438 12.195312 C 13.570312 12.125 13.488281 12.042969 13.398438 11.957031 L 13.148438 12.207031 C 13.238281 12.300781 13.328125 12.382812 13.410156 12.457031 Z M 2.273438 12.121094 L 2.027344 11.867188 C 1.9375 11.953125 1.851562 12.03125 1.769531 12.097656 L 2.003906 12.371094 C 2.089844 12.296875 2.179688 12.210938 2.273438 12.121094 Z M 13.21875 11.765625 C 13.144531 11.6875 13.066406 11.597656 12.992188 11.507812 L 12.71875 11.734375 C 12.796875 11.832031 12.878906 11.921875 12.957031 12.007812 Z M 2.742188 11.605469 L 2.464844 11.382812 C 2.390625 11.476562 2.316406 11.5625 2.242188 11.644531 L 2.503906 11.882812 C 2.585938 11.792969 2.667969 11.699219 2.742188 11.605469 Z M 12.800781 11.261719 C 12.730469 11.171875 12.664062 11.078125 12.601562 10.976562 L 12.304688 11.171875 C 12.371094 11.277344 12.441406 11.378906 12.511719 11.472656 Z M 3.117188 11.078125 L 2.8125 10.890625 C 2.753906 10.988281 2.6875 11.085938 2.621094 11.179688 L 2.910156 11.386719 C 2.984375 11.285156 3.050781 11.183594 3.117188 11.078125 Z M 12.460938 10.757812 C 12.40625 10.660156 12.347656 10.5625 12.296875 10.457031 L 11.980469 10.621094 C 12.035156 10.730469 12.09375 10.835938 12.15625 10.941406 Z M 3.417969 10.511719 L 3.09375 10.363281 C 3.046875 10.46875 2.996094 10.570312 2.941406 10.671875 L 3.253906 10.839844 C 3.3125 10.734375 3.367188 10.621094 3.417969 10.511719 Z M 12.183594 10.222656 C 12.136719 10.121094 12.09375 10.011719 12.054688 9.90625 L 11.71875 10.03125 C 11.761719 10.144531 11.808594 10.257812 11.859375 10.371094 Z M 3.660156 9.851562 L 3.320312 9.753906 C 3.289062 9.863281 3.253906 9.972656 3.210938 10.078125 L 3.546875 10.203125 C 3.589844 10.085938 3.628906 9.96875 3.660156 9.851562 Z M 11.957031 9.613281 C 11.925781 9.503906 11.894531 9.394531 11.871094 9.28125 L 11.523438 9.355469 C 11.550781 9.476562 11.582031 9.597656 11.617188 9.714844 Z M 3.796875 9.222656 L 3.445312 9.167969 C 3.429688 9.28125 3.40625 9.394531 3.382812 9.503906 L 3.730469 9.582031 C 3.757812 9.464844 3.777344 9.34375 3.796875 9.222656 Z M 11.824219 9.03125 C 11.808594 8.917969 11.796875 8.804688 11.785156 8.691406 L 11.433594 8.71875 C 11.441406 8.839844 11.457031 8.964844 11.472656 9.085938 Z M 3.847656 8.648438 L 3.847656 8.582031 L 3.492188 8.570312 L 3.492188 8.632812 C 3.488281 8.730469 3.480469 8.824219 3.472656 8.914062 L 3.828125 8.945312 C 3.835938 8.847656 3.84375 8.746094 3.847656 8.648438 Z M 11.773438 8.433594 L 11.773438 8.363281 C 11.773438 8.269531 11.777344 8.179688 11.78125 8.089844 L 11.425781 8.074219 C 11.421875 8.167969 11.417969 8.265625 11.417969 8.363281 L 11.417969 8.441406 Z M 3.851562 8.253906 C 3.851562 8.128906 3.84375 8.003906 3.835938 7.886719 L 3.480469 7.914062 C 3.488281 8.027344 3.496094 8.140625 3.496094 8.257812 Z M 11.84375 7.4375 L 11.492188 7.382812 C 11.472656 7.5 11.457031 7.621094 11.445312 7.746094 L 11.800781 7.78125 C 11.8125 7.660156 11.824219 7.546875 11.84375 7.4375 Z M 3.804688 7.613281 C 3.789062 7.492188 3.769531 7.367188 3.746094 7.25 L 3.398438 7.320312 C 3.421875 7.429688 3.4375 7.542969 3.453125 7.65625 Z M 11.96875 6.851562 L 11.625 6.753906 C 11.59375 6.871094 11.5625 6.992188 11.539062 7.113281 L 11.886719 7.183594 C 11.910156 7.070312 11.9375 6.957031 11.96875 6.851562 Z M 3.6875 6.980469 C 3.65625 6.863281 3.621094 6.742188 3.582031 6.625 L 3.246094 6.738281 C 3.28125 6.847656 3.3125 6.957031 3.339844 7.066406 Z M 12.164062 6.285156 L 11.839844 6.144531 C 11.789062 6.257812 11.746094 6.375 11.707031 6.492188 L 12.042969 6.605469 C 12.078125 6.496094 12.121094 6.390625 12.164062 6.285156 Z M 3.46875 6.316406 C 3.421875 6.203125 3.371094 6.089844 3.316406 5.980469 L 2.996094 6.136719 C 3.046875 6.238281 3.09375 6.34375 3.136719 6.449219 Z M 12.464844 5.714844 L 12.164062 5.523438 C 12.101562 5.628906 12.039062 5.734375 11.980469 5.84375 L 12.296875 6.007812 C 12.347656 5.910156 12.40625 5.808594 12.464844 5.714844 Z M 3.1875 5.734375 C 3.125 5.628906 3.0625 5.523438 2.992188 5.421875 L 2.695312 5.617188 C 2.761719 5.710938 2.820312 5.8125 2.875 5.910156 Z M 12.824219 5.238281 L 12.554688 5.003906 C 12.472656 5.097656 12.394531 5.191406 12.324219 5.292969 L 12.609375 5.503906 C 12.675781 5.410156 12.75 5.324219 12.824219 5.238281 Z M 2.835938 5.195312 C 2.761719 5.097656 2.683594 5 2.605469 4.90625 L 2.335938 5.136719 C 2.410156 5.226562 2.480469 5.316406 2.550781 5.40625 Z M 13.25 4.824219 L 13.023438 4.550781 C 12.925781 4.628906 12.832031 4.714844 12.746094 4.800781 L 12.996094 5.054688 C 13.078125 4.972656 13.160156 4.894531 13.25 4.824219 Z M 2.382812 4.660156 C 2.296875 4.574219 2.207031 4.488281 2.117188 4.40625 L 1.878906 4.671875 C 1.964844 4.746094 2.046875 4.828125 2.125 4.910156 Z M 13.777344 4.460938 L 13.605469 4.148438 C 13.5 4.210938 13.394531 4.277344 13.289062 4.347656 L 13.492188 4.640625 C 13.585938 4.574219 13.683594 4.515625 13.777344 4.460938 Z M 1.90625 4.226562 C 1.808594 4.144531 1.707031 4.070312 1.609375 4.003906 L 1.410156 4.296875 C 1.5 4.359375 1.589844 4.429688 1.683594 4.503906 Z M 14.203125 4.105469 L 13.957031 3.804688 L 13.707031 3.972656 L 13.957031 4.273438 Z M 1.53125 3.820312 L 1.292969 3.660156 L 1.070312 3.996094 L 1.34375 4.148438 Z M 13.851562 3.554688 L 13.632812 3.226562 L 13.34375 3.429688 L 13.5625 3.757812 Z M 1.953125 3.289062 L 1.71875 3.117188 L 1.515625 3.414062 L 1.75 3.582031 Z M 11.726562 3.496094 L 11.695312 3.140625 C 11.597656 3.148438 11.5 3.152344 11.40625 3.152344 L 11.355469 3.152344 L 11.351562 3.507812 L 11.402344 3.511719 C 11.511719 3.511719 11.621094 3.503906 11.726562 3.496094 Z M 11.105469 3.140625 C 10.992188 3.128906 10.882812 3.113281 10.769531 3.089844 L 10.703125 3.441406 C 10.824219 3.464844 10.945312 3.480469 11.070312 3.492188 Z M 12.421875 3.359375 L 12.320312 3.019531 C 12.214844 3.050781 12.105469 3.078125 11.992188 3.097656 L 12.058594 3.449219 C 12.183594 3.425781 12.304688 3.394531 12.421875 3.359375 Z M 4.363281 3.402344 L 4.296875 3.054688 C 4.1875 3.074219 4.078125 3.085938 3.96875 3.089844 L 3.984375 3.445312 C 4.113281 3.441406 4.238281 3.425781 4.363281 3.402344 Z M 3.71875 3.089844 C 3.613281 3.085938 3.496094 3.074219 3.378906 3.058594 L 3.332031 3.410156 C 3.460938 3.425781 3.585938 3.4375 3.703125 3.445312 Z M 10.539062 3.027344 C 10.441406 2.988281 10.34375 2.941406 10.25 2.886719 L 10.066406 3.191406 C 10.179688 3.257812 10.296875 3.316406 10.417969 3.359375 Z M 3.074219 3.003906 C 2.957031 2.980469 2.84375 2.953125 2.738281 2.925781 L 2.648438 3.269531 C 2.757812 3.300781 2.878906 3.328125 3.003906 3.355469 Z M 4.988281 3.226562 L 4.867188 2.890625 C 4.761719 2.925781 4.65625 2.957031 4.546875 2.984375 L 4.628906 3.332031 C 4.75 3.300781 4.871094 3.265625 4.988281 3.226562 Z M 13.441406 2.894531 L 13.277344 2.617188 L 12.984375 2.820312 L 13.152344 3.097656 Z M 13.03125 3.109375 L 12.863281 2.796875 C 12.765625 2.847656 12.664062 2.894531 12.558594 2.933594 L 12.691406 3.265625 C 12.804688 3.21875 12.921875 3.167969 13.03125 3.109375 Z M 2.433594 2.859375 C 2.277344 2.832031 2.195312 2.730469 2.117188 2.679688 L 1.929688 2.953125 C 2.035156 3.023438 2.085938 3.046875 2.242188 3.125 Z M 5.628906 2.902344 L 5.433594 2.605469 C 5.339844 2.667969 5.242188 2.722656 5.144531 2.773438 L 5.300781 3.09375 C 5.414062 3.035156 5.523438 2.972656 5.628906 2.902344 Z M 10.011719 2.71875 C 9.925781 2.648438 9.84375 2.570312 9.765625 2.492188 L 9.507812 2.738281 C 9.59375 2.828125 9.6875 2.914062 9.785156 2.996094 Z M 6.136719 2.476562 L 5.875 2.230469 C 5.800781 2.3125 5.71875 2.386719 5.632812 2.460938 L 5.859375 2.734375 C 5.957031 2.65625 6.046875 2.570312 6.136719 2.476562 Z M 9.597656 2.300781 C 9.53125 2.214844 9.460938 2.125 9.398438 2.027344 L 9.101562 2.226562 C 9.171875 2.332031 9.246094 2.433594 9.324219 2.527344 Z M 6.535156 1.957031 L 6.234375 1.769531 C 6.175781 1.863281 6.109375 1.957031 6.042969 2.042969 L 6.320312 2.265625 C 6.398438 2.164062 6.46875 2.0625 6.535156 1.957031 Z M 9.261719 1.808594 C 9.203125 1.714844 9.148438 1.613281 9.09375 1.507812 L 8.777344 1.667969 C 8.832031 1.78125 8.894531 1.890625 8.953125 1.992188 Z M 6.851562 1.320312 L 6.519531 1.195312 C 6.480469 1.300781 6.433594 1.402344 6.382812 1.503906 L 6.703125 1.664062 C 6.757812 1.550781 6.808594 1.4375 6.851562 1.320312 Z M 8.976562 1.28125 C 8.902344 1.085938 8.859375 0.976562 8.84375 0.960938 L 8.507812 1.082031 C 8.527344 1.101562 8.570312 1.21875 8.652344 1.421875 Z M 8.449219 0.71875 L 8.09375 0.71875 L 8.09375 1.074219 L 8.449219 1.074219 Z M 7.824219 0.71875 L 7.46875 0.71875 L 7.46875 1.074219 L 7.824219 1.074219 Z M 7.148438 0.71875 L 6.792969 0.71875 L 6.792969 1.074219 L 7.148438 1.074219 Z M 7.148438 0.71875 "/>
</g>
</svg>
