<?xml version="1.0" encoding="UTF-8" standalone="no"?>
<!-- Created with Inkscape (http://www.inkscape.org/) -->

<svg
   xmlns:dc="http://purl.org/dc/elements/1.1/"
   xmlns:cc="http://creativecommons.org/ns#"
   xmlns:rdf="http://www.w3.org/1999/02/22-rdf-syntax-ns#"
   xmlns:svg="http://www.w3.org/2000/svg"
   xmlns="http://www.w3.org/2000/svg"
   xmlns:xlink="http://www.w3.org/1999/xlink"
   xmlns:sodipodi="http://sodipodi.sourceforge.net/DTD/sodipodi-0.dtd"
   xmlns:inkscape="http://www.inkscape.org/namespaces/inkscape"
   width="30px"
   height="30px"
   version="1.1"
   id="svg8"
   inkscape:version="0.92.4 5da689c313, 2019-01-14"
   sodipodi:docname="container.svg">
  <defs
     id="defs2" />
  <sodipodi:namedview
     id="base"
     pagecolor="#ffffff"
     bordercolor="#666666"
     borderopacity="1.0"
     inkscape:pageopacity="0.0"
     inkscape:pageshadow="2"
     inkscape:zoom="13.049334"
     inkscape:cx="18.679046"
     inkscape:cy="12.165829"
     inkscape:document-units="px"
     inkscape:current-layer="layer1"
     showgrid="false"
     inkscape:snap-page="false"
     units="px"
     inkscape:window-width="1884"
     inkscape:window-height="1061"
     inkscape:window-x="0"
     inkscape:window-y="0"
     inkscape:window-maximized="1"
     fit-margin-top="0"
     fit-margin-left="0"
     fit-margin-right="0"
     fit-margin-bottom="0" />
  <metadata
     id="metadata5">
    <rdf:RDF>
      <cc:Work
         rdf:about="">
        <dc:format>image/svg+xml</dc:format>
        <dc:type
           rdf:resource="http://purl.org/dc/dcmitype/StillImage" />
        <dc:title></dc:title>
      </cc:Work>
    </rdf:RDF>
  </metadata>
    <circle
       style="color:#000000;clip-rule:nonzero;display:inline;overflow:visible;visibility:visible;opacity:1;isolation:auto;mix-blend-mode:normal;color-interpolation:sRGB;color-interpolation-filters:linearRGB;solid-color:#000000;solid-opacity:1;vector-effect:none;fill:#c58511;fill-opacity:1;fill-rule:evenodd;stroke:#ffffff;stroke-width:1;stroke-linecap:butt;stroke-linejoin:miter;stroke-miterlimit:4;stroke-dasharray:none;stroke-dashoffset:0;stroke-opacity:1;marker:none;color-rendering:auto;image-rendering:auto;shape-rendering:auto;text-rendering:auto;enable-background:accumulate"
       id="path815"
       cx="15"
       cy="15"
       r="14.5" />
<g transform="translate(6.5,7.0)"><path fill-rule="nonzero" fill="#FFFFFF" fill-opacity="1" d="M 9.5 14.128906 L 9.5 11.507812 L 13.808594 11.507812 C 14.457031 11.507812 14.984375 10.980469 14.984375 10.332031 C 14.984375 9.941406 14.667969 9.625 14.277344 9.625 L 3.246094 9.625 C 2.855469 9.625 2.539062 9.941406 2.539062 10.332031 C 2.539062 10.980469 3.066406 11.507812 3.714844 11.507812 L 7.777344 11.507812 L 7.777344 14.128906 L 0 14.128906 L 0 16.09375 L 17 16.09375 L 17 14.128906 Z M 9.5 14.128906 "/>
<path fill-rule="nonzero" fill="#FFFFFF" fill-opacity="1" d="M 11.527344 0.902344 C 11.800781 0.839844 12.050781 0.742188 12.050781 0.59375 C 12.050781 0.410156 11.585938 0.261719 10.632812 0.144531 C 9.933594 0.0546875 9.078125 0 8.453125 0 C 7.828125 0 6.976562 0.0546875 6.277344 0.144531 C 5.324219 0.261719 4.859375 0.410156 4.859375 0.59375 C 4.859375 0.738281 5.09375 0.832031 5.363281 0.894531 C 7.367188 3.53125 3.234375 3.035156 3.234375 4.679688 C 3.234375 7.375 5.628906 9.589844 8.617188 9.589844 C 11.609375 9.589844 14.058594 7.375 14.058594 4.679688 C 14.058594 3 9.671875 3.527344 11.527344 0.902344 Z M 6.5625 0.367188 C 7.21875 0.292969 8.003906 0.246094 8.566406 0.246094 C 9.128906 0.246094 9.914062 0.292969 10.566406 0.367188 C 11.421875 0.464844 11.695312 0.566406 11.734375 0.597656 C 11.722656 0.625 11.5625 0.699219 10.953125 0.761719 C 10.371094 0.820312 9.554688 0.851562 8.59375 0.851562 C 7.640625 0.851562 6.792969 0.820312 6.207031 0.761719 C 5.566406 0.695312 5.410156 0.621094 5.398438 0.597656 C 5.4375 0.566406 5.710938 0.464844 6.5625 0.367188 Z M 10.476562 1.035156 C 10.378906 1.042969 10.277344 1.050781 10.175781 1.054688 C 10.28125 1.050781 10.378906 1.042969 10.476562 1.035156 Z M 10.476562 1.035156 "/>
</g>
</svg>
