<?xml version="1.0" encoding="UTF-8"?>
<svg xmlns="http://www.w3.org/2000/svg" xmlns:xlink="http://www.w3.org/1999/xlink" width="10.843938" height="11" viewBox="0 0 10.843938 11">
<path fill-rule="nonzero" fill="rgb(30%,30%,30%)" fill-opacity="1" d="M 6.460938 9.160156 C 6.449219 9.03125 6.421875 8.90625 6.378906 8.789062 L 6.644531 8.449219 L 6.238281 7.933594 L 5.84375 8.117188 C 5.738281 8.046875 5.625 7.992188 5.5 7.953125 L 5.398438 7.53125 L 4.746094 7.53125 L 4.644531 7.953125 C 4.519531 7.992188 4.40625 8.046875 4.300781 8.117188 L 3.910156 7.933594 L 3.5 8.445312 L 3.765625 8.789062 C 3.722656 8.90625 3.695312 9.027344 3.683594 9.15625 L 3.292969 9.351562 L 3.4375 9.988281 L 3.875 9.996094 C 3.9375 10.105469 4.019531 10.203125 4.109375 10.289062 L 4.015625 10.714844 L 4.609375 11 L 4.882812 10.664062 C 4.945312 10.671875 5.007812 10.675781 5.070312 10.675781 C 5.136719 10.675781 5.199219 10.671875 5.261719 10.664062 L 5.535156 11 L 6.125 10.714844 L 6.035156 10.292969 C 6.125 10.203125 6.207031 10.105469 6.269531 9.996094 L 6.703125 9.992188 L 6.851562 9.351562 Z M 4.617188 9.386719 C 4.519531 9.484375 4.394531 9.609375 4.339844 9.664062 C 4.296875 9.707031 4.21875 9.71875 4.1875 9.648438 C 4.136719 9.527344 4.109375 9.394531 4.109375 9.265625 C 4.109375 9.136719 4.136719 9.007812 4.1875 8.882812 C 4.21875 8.8125 4.296875 8.824219 4.339844 8.867188 C 4.394531 8.921875 4.519531 9.046875 4.617188 9.144531 C 4.605469 9.183594 4.601562 9.222656 4.601562 9.265625 C 4.601562 9.308594 4.605469 9.347656 4.617188 9.386719 Z M 5.453125 10.148438 C 5.332031 10.199219 5.203125 10.226562 5.070312 10.226562 C 4.941406 10.226562 4.8125 10.199219 4.691406 10.148438 C 4.621094 10.117188 4.632812 10.039062 4.671875 10 C 4.730469 9.941406 4.855469 9.816406 4.949219 9.722656 C 4.988281 9.730469 5.03125 9.738281 5.070312 9.738281 C 5.113281 9.738281 5.15625 9.730469 5.195312 9.722656 C 5.289062 9.816406 5.414062 9.941406 5.472656 10 C 5.511719 10.039062 5.523438 10.117188 5.453125 10.148438 Z M 4.851562 9.3125 C 4.851562 9.191406 4.949219 9.09375 5.070312 9.09375 C 5.195312 9.09375 5.292969 9.191406 5.292969 9.3125 C 5.292969 9.433594 5.195312 9.53125 5.070312 9.53125 C 4.949219 9.53125 4.851562 9.433594 4.851562 9.3125 Z M 5.472656 8.53125 C 5.414062 8.589844 5.289062 8.714844 5.195312 8.808594 C 5.15625 8.800781 5.113281 8.792969 5.070312 8.792969 C 5.03125 8.792969 4.988281 8.800781 4.949219 8.808594 C 4.855469 8.714844 4.730469 8.589844 4.671875 8.53125 C 4.632812 8.492188 4.621094 8.414062 4.691406 8.382812 C 4.8125 8.332031 4.941406 8.304688 5.070312 8.304688 C 5.203125 8.304688 5.332031 8.332031 5.453125 8.382812 C 5.523438 8.414062 5.511719 8.492188 5.472656 8.53125 Z M 5.957031 9.648438 C 5.925781 9.71875 5.847656 9.707031 5.804688 9.664062 C 5.75 9.609375 5.625 9.484375 5.527344 9.386719 C 5.539062 9.347656 5.542969 9.308594 5.542969 9.265625 C 5.542969 9.222656 5.539062 9.183594 5.527344 9.144531 C 5.625 9.046875 5.75 8.921875 5.804688 8.867188 C 5.847656 8.824219 5.925781 8.8125 5.957031 8.882812 C 6.007812 9.007812 6.035156 9.136719 6.035156 9.265625 C 6.035156 9.394531 6.007812 9.527344 5.957031 9.648438 Z M 5.957031 9.648438 "/>
<path fill-rule="nonzero" fill="rgb(30%,30%,30%)" fill-opacity="1" d="M 10.78125 7.488281 C 10.746094 7.476562 10.738281 7.472656 10.707031 7.464844 C 10.691406 7.457031 10.679688 7.453125 10.667969 7.445312 C 10.660156 7.4375 10.652344 7.433594 10.648438 7.425781 C 10.640625 7.414062 10.636719 7.402344 10.636719 7.402344 C 10.636719 7.402344 10.636719 7.390625 10.648438 7.378906 C 10.65625 7.367188 10.675781 7.351562 10.707031 7.339844 C 10.738281 7.332031 10.746094 7.328125 10.78125 7.316406 C 10.820312 7.304688 10.84375 7.289062 10.84375 7.261719 C 10.84375 7.230469 10.816406 7.222656 10.777344 7.210938 C 10.738281 7.203125 10.730469 7.203125 10.699219 7.199219 C 10.664062 7.191406 10.644531 7.179688 10.632812 7.167969 C 10.628906 7.164062 10.625 7.15625 10.625 7.152344 C 10.621094 7.148438 10.621094 7.148438 10.621094 7.148438 C 10.621094 7.148438 10.621094 7.105469 10.683594 7.078125 C 10.710938 7.0625 10.71875 7.058594 10.753906 7.042969 C 10.789062 7.023438 10.8125 7.007812 10.808594 6.980469 C 10.800781 6.949219 10.773438 6.945312 10.734375 6.941406 C 10.695312 6.9375 10.6875 6.9375 10.65625 6.9375 C 10.585938 6.933594 10.570312 6.894531 10.570312 6.894531 C 10.570312 6.894531 10.570312 6.894531 10.570312 6.886719 C 10.570312 6.882812 10.574219 6.878906 10.574219 6.871094 C 10.582031 6.855469 10.59375 6.835938 10.621094 6.820312 C 10.648438 6.800781 10.65625 6.796875 10.6875 6.777344 C 10.722656 6.753906 10.742188 6.734375 10.734375 6.707031 C 10.722656 6.675781 10.695312 6.675781 10.65625 6.675781 C 10.617188 6.679688 10.609375 6.679688 10.578125 6.683594 C 10.558594 6.683594 10.546875 6.683594 10.535156 6.679688 C 10.523438 6.679688 10.515625 6.675781 10.507812 6.671875 C 10.492188 6.664062 10.488281 6.652344 10.488281 6.652344 C 10.488281 6.652344 10.484375 6.644531 10.488281 6.628906 C 10.492188 6.613281 10.503906 6.589844 10.53125 6.570312 C 10.554688 6.550781 10.5625 6.542969 10.589844 6.519531 C 10.621094 6.492188 10.636719 6.472656 10.625 6.445312 C 10.613281 6.417969 10.582031 6.417969 10.542969 6.425781 C 10.503906 6.433594 10.496094 6.433594 10.464844 6.441406 C 10.398438 6.457031 10.375 6.421875 10.375 6.421875 C 10.375 6.421875 10.359375 6.386719 10.40625 6.335938 C 10.425781 6.3125 10.433594 6.308594 10.457031 6.277344 C 10.484375 6.246094 10.5 6.222656 10.484375 6.199219 C 10.464844 6.171875 10.4375 6.179688 10.398438 6.191406 C 10.363281 6.203125 10.355469 6.207031 10.328125 6.214844 C 10.292969 6.230469 10.269531 6.226562 10.253906 6.222656 C 10.238281 6.21875 10.234375 6.210938 10.234375 6.210938 C 10.234375 6.210938 10.226562 6.203125 10.226562 6.1875 C 10.226562 6.179688 10.226562 6.167969 10.230469 6.15625 C 10.234375 6.144531 10.242188 6.132812 10.25 6.121094 C 10.269531 6.09375 10.273438 6.085938 10.296875 6.054688 C 10.316406 6.019531 10.332031 5.996094 10.3125 5.972656 C 10.289062 5.949219 10.265625 5.960938 10.226562 5.976562 C 10.191406 5.992188 10.183594 5.996094 10.15625 6.011719 C 10.128906 6.027344 10.105469 6.03125 10.089844 6.027344 C 10.082031 6.027344 10.074219 6.023438 10.070312 6.023438 C 10.066406 6.019531 10.066406 6.019531 10.066406 6.019531 C 10.066406 6.019531 10.039062 5.984375 10.070312 5.925781 C 10.085938 5.898438 10.089844 5.890625 10.105469 5.855469 C 10.125 5.820312 10.132812 5.792969 10.109375 5.773438 C 10.085938 5.753906 10.0625 5.765625 10.027344 5.785156 C 9.996094 5.808594 9.988281 5.8125 9.964844 5.832031 C 9.90625 5.871094 9.871094 5.847656 9.871094 5.847656 C 9.871094 5.847656 9.871094 5.847656 9.867188 5.84375 C 9.867188 5.839844 9.863281 5.835938 9.859375 5.828125 C 9.855469 5.8125 9.855469 5.789062 9.867188 5.757812 C 9.878906 5.726562 9.878906 5.71875 9.890625 5.683594 C 9.90625 5.644531 9.910156 5.617188 9.886719 5.601562 C 9.859375 5.582031 9.835938 5.597656 9.804688 5.625 C 9.777344 5.648438 9.769531 5.65625 9.746094 5.675781 C 9.722656 5.699219 9.699219 5.707031 9.683594 5.710938 C 9.667969 5.710938 9.660156 5.707031 9.660156 5.707031 C 9.660156 5.707031 9.652344 5.703125 9.644531 5.6875 C 9.640625 5.679688 9.636719 5.671875 9.636719 5.660156 C 9.636719 5.648438 9.636719 5.632812 9.640625 5.617188 C 9.648438 5.585938 9.648438 5.578125 9.65625 5.539062 C 9.664062 5.5 9.667969 5.472656 9.640625 5.457031 C 9.613281 5.445312 9.589844 5.464844 9.5625 5.492188 C 9.539062 5.523438 9.53125 5.527344 9.511719 5.554688 C 9.492188 5.578125 9.46875 5.589844 9.457031 5.59375 C 9.441406 5.597656 9.429688 5.59375 9.429688 5.59375 C 9.429688 5.59375 9.390625 5.574219 9.398438 5.507812 C 9.402344 5.472656 9.402344 5.464844 9.40625 5.425781 C 9.40625 5.386719 9.40625 5.359375 9.378906 5.351562 C 9.347656 5.339844 9.332031 5.359375 9.308594 5.394531 C 9.285156 5.425781 9.28125 5.433594 9.265625 5.460938 C 9.226562 5.519531 9.1875 5.511719 9.1875 5.511719 C 9.1875 5.511719 9.148438 5.496094 9.144531 5.429688 C 9.144531 5.398438 9.144531 5.390625 9.140625 5.351562 C 9.140625 5.308594 9.132812 5.28125 9.101562 5.277344 C 9.074219 5.269531 9.058594 5.292969 9.039062 5.328125 C 9.023438 5.363281 9.019531 5.371094 9.007812 5.402344 C 8.976562 5.464844 8.9375 5.460938 8.9375 5.460938 C 8.9375 5.460938 8.925781 5.460938 8.914062 5.449219 C 8.902344 5.4375 8.890625 5.417969 8.882812 5.386719 C 8.878906 5.355469 8.878906 5.34375 8.871094 5.308594 C 8.863281 5.269531 8.851562 5.242188 8.824219 5.238281 C 8.792969 5.238281 8.78125 5.261719 8.765625 5.300781 C 8.753906 5.335938 8.75 5.34375 8.742188 5.375 C 8.738281 5.390625 8.730469 5.402344 8.722656 5.414062 C 8.71875 5.421875 8.710938 5.429688 8.703125 5.433594 C 8.691406 5.445312 8.679688 5.445312 8.679688 5.445312 C 8.679688 5.445312 8.671875 5.445312 8.65625 5.433594 C 8.644531 5.425781 8.628906 5.40625 8.621094 5.375 C 8.609375 5.34375 8.609375 5.335938 8.59375 5.300781 C 8.582031 5.261719 8.570312 5.238281 8.539062 5.238281 C 8.507812 5.242188 8.5 5.269531 8.492188 5.308594 C 8.484375 5.34375 8.480469 5.351562 8.476562 5.382812 C 8.472656 5.417969 8.457031 5.4375 8.445312 5.449219 C 8.441406 5.453125 8.4375 5.457031 8.433594 5.457031 C 8.425781 5.460938 8.425781 5.460938 8.425781 5.460938 C 8.425781 5.460938 8.382812 5.464844 8.355469 5.398438 C 8.34375 5.371094 8.339844 5.363281 8.320312 5.328125 C 8.304688 5.292969 8.289062 5.269531 8.257812 5.277344 C 8.226562 5.28125 8.222656 5.308594 8.21875 5.347656 C 8.214844 5.386719 8.214844 5.398438 8.214844 5.429688 C 8.214844 5.496094 8.175781 5.511719 8.175781 5.511719 C 8.175781 5.511719 8.171875 5.511719 8.167969 5.511719 C 8.164062 5.511719 8.15625 5.511719 8.148438 5.507812 C 8.132812 5.503906 8.113281 5.488281 8.097656 5.460938 C 8.082031 5.433594 8.074219 5.425781 8.054688 5.394531 C 8.03125 5.359375 8.011719 5.339844 7.984375 5.347656 C 7.957031 5.359375 7.953125 5.386719 7.957031 5.425781 C 7.957031 5.464844 7.957031 5.476562 7.960938 5.507812 C 7.964844 5.523438 7.960938 5.535156 7.960938 5.546875 C 7.957031 5.558594 7.953125 5.570312 7.949219 5.574219 C 7.941406 5.589844 7.933594 5.59375 7.933594 5.59375 C 7.933594 5.59375 7.921875 5.597656 7.90625 5.59375 C 7.890625 5.589844 7.871094 5.578125 7.847656 5.554688 C 7.828125 5.527344 7.824219 5.523438 7.796875 5.492188 C 7.769531 5.464844 7.75 5.445312 7.722656 5.457031 C 7.695312 5.472656 7.695312 5.5 7.703125 5.539062 C 7.710938 5.578125 7.714844 5.585938 7.71875 5.617188 C 7.738281 5.683594 7.703125 5.707031 7.703125 5.707031 C 7.703125 5.707031 7.664062 5.726562 7.613281 5.679688 C 7.589844 5.65625 7.585938 5.652344 7.554688 5.625 C 7.523438 5.597656 7.5 5.582031 7.476562 5.601562 C 7.453125 5.617188 7.457031 5.644531 7.46875 5.683594 C 7.480469 5.71875 7.484375 5.726562 7.496094 5.757812 C 7.507812 5.789062 7.507812 5.8125 7.5 5.828125 C 7.496094 5.84375 7.488281 5.851562 7.488281 5.851562 C 7.488281 5.851562 7.480469 5.855469 7.464844 5.855469 C 7.457031 5.855469 7.445312 5.855469 7.433594 5.851562 C 7.425781 5.847656 7.410156 5.839844 7.398438 5.832031 C 7.371094 5.8125 7.367188 5.808594 7.332031 5.785156 C 7.300781 5.765625 7.273438 5.753906 7.25 5.773438 C 7.226562 5.792969 7.238281 5.820312 7.253906 5.855469 C 7.273438 5.890625 7.277344 5.898438 7.289062 5.925781 C 7.308594 5.957031 7.308594 5.980469 7.304688 5.996094 C 7.304688 6 7.300781 6.007812 7.300781 6.011719 C 7.296875 6.015625 7.296875 6.019531 7.296875 6.019531 C 7.296875 6.019531 7.265625 6.046875 7.203125 6.011719 C 7.175781 5.996094 7.167969 5.992188 7.132812 5.976562 C 7.097656 5.957031 7.070312 5.949219 7.050781 5.972656 C 7.03125 5.996094 7.042969 6.019531 7.066406 6.054688 C 7.085938 6.085938 7.089844 6.09375 7.109375 6.121094 C 7.148438 6.175781 7.128906 6.210938 7.128906 6.210938 C 7.128906 6.210938 7.125 6.210938 7.121094 6.214844 C 7.117188 6.21875 7.113281 6.21875 7.105469 6.222656 C 7.089844 6.226562 7.066406 6.230469 7.035156 6.21875 C 7.003906 6.207031 6.996094 6.203125 6.960938 6.191406 C 6.921875 6.179688 6.894531 6.171875 6.878906 6.199219 C 6.863281 6.222656 6.875 6.246094 6.902344 6.277344 C 6.929688 6.304688 6.933594 6.3125 6.957031 6.335938 C 6.980469 6.359375 6.988281 6.382812 6.988281 6.398438 C 6.992188 6.414062 6.984375 6.421875 6.984375 6.421875 C 6.984375 6.421875 6.980469 6.433594 6.964844 6.4375 C 6.957031 6.441406 6.949219 6.445312 6.9375 6.445312 C 6.925781 6.445312 6.910156 6.445312 6.894531 6.441406 C 6.863281 6.433594 6.855469 6.433594 6.816406 6.425781 C 6.777344 6.417969 6.75 6.417969 6.738281 6.445312 C 6.722656 6.472656 6.742188 6.492188 6.773438 6.519531 C 6.800781 6.542969 6.808594 6.550781 6.832031 6.570312 C 6.859375 6.589844 6.867188 6.613281 6.871094 6.628906 C 6.875 6.644531 6.871094 6.652344 6.871094 6.652344 C 6.871094 6.652344 6.851562 6.691406 6.785156 6.683594 C 6.753906 6.679688 6.746094 6.679688 6.707031 6.675781 C 6.664062 6.675781 6.636719 6.675781 6.628906 6.707031 C 6.617188 6.734375 6.640625 6.753906 6.671875 6.777344 C 6.703125 6.796875 6.710938 6.800781 6.738281 6.820312 C 6.796875 6.855469 6.789062 6.894531 6.789062 6.894531 C 6.789062 6.894531 6.777344 6.933594 6.707031 6.9375 C 6.675781 6.9375 6.667969 6.9375 6.628906 6.941406 C 6.585938 6.945312 6.5625 6.949219 6.554688 6.980469 C 6.550781 7.007812 6.570312 7.023438 6.609375 7.042969 C 6.640625 7.058594 6.648438 7.0625 6.679688 7.078125 C 6.742188 7.105469 6.742188 7.148438 6.742188 7.148438 C 6.742188 7.148438 6.738281 7.15625 6.726562 7.167969 C 6.714844 7.179688 6.695312 7.191406 6.664062 7.199219 C 6.632812 7.203125 6.625 7.203125 6.585938 7.214844 C 6.546875 7.222656 6.519531 7.230469 6.515625 7.261719 C 6.515625 7.289062 6.539062 7.304688 6.578125 7.316406 C 6.617188 7.328125 6.625 7.332031 6.652344 7.339844 C 6.667969 7.347656 6.683594 7.351562 6.691406 7.359375 C 6.703125 7.367188 6.707031 7.371094 6.714844 7.378906 C 6.722656 7.390625 6.722656 7.402344 6.722656 7.402344 C 6.722656 7.402344 6.722656 7.414062 6.714844 7.425781 C 6.703125 7.4375 6.6875 7.453125 6.652344 7.464844 C 6.625 7.472656 6.617188 7.476562 6.578125 7.488281 C 6.539062 7.5 6.515625 7.515625 6.515625 7.542969 C 6.519531 7.574219 6.546875 7.582031 6.585938 7.589844 C 6.625 7.601562 6.632812 7.601562 6.664062 7.605469 C 6.695312 7.613281 6.714844 7.625 6.726562 7.636719 C 6.730469 7.640625 6.734375 7.648438 6.738281 7.652344 C 6.738281 7.65625 6.738281 7.65625 6.738281 7.65625 C 6.738281 7.65625 6.742188 7.699219 6.679688 7.726562 C 6.648438 7.742188 6.640625 7.746094 6.605469 7.761719 C 6.570312 7.78125 6.546875 7.796875 6.554688 7.824219 C 6.5625 7.855469 6.585938 7.859375 6.628906 7.863281 C 6.667969 7.867188 6.675781 7.867188 6.707031 7.867188 C 6.777344 7.871094 6.789062 7.910156 6.789062 7.910156 C 6.789062 7.910156 6.789062 7.910156 6.789062 7.914062 C 6.789062 7.921875 6.789062 7.925781 6.785156 7.933594 C 6.78125 7.949219 6.769531 7.96875 6.738281 7.984375 C 6.710938 8.003906 6.703125 8.007812 6.671875 8.027344 C 6.640625 8.050781 6.617188 8.070312 6.628906 8.097656 C 6.636719 8.128906 6.664062 8.128906 6.707031 8.128906 C 6.746094 8.125 6.753906 8.125 6.785156 8.121094 C 6.800781 8.121094 6.816406 8.121094 6.828125 8.125 C 6.839844 8.125 6.847656 8.128906 6.855469 8.132812 C 6.867188 8.140625 6.871094 8.152344 6.871094 8.152344 C 6.871094 8.152344 6.875 8.160156 6.871094 8.175781 C 6.867188 8.191406 6.859375 8.214844 6.832031 8.234375 C 6.808594 8.253906 6.800781 8.261719 6.773438 8.285156 C 6.742188 8.3125 6.722656 8.332031 6.738281 8.359375 C 6.75 8.386719 6.777344 8.386719 6.816406 8.378906 C 6.855469 8.371094 6.863281 8.371094 6.894531 8.363281 C 6.960938 8.347656 6.984375 8.382812 6.984375 8.382812 C 6.984375 8.382812 7.003906 8.417969 6.957031 8.46875 C 6.933594 8.492188 6.929688 8.496094 6.902344 8.527344 C 6.875 8.558594 6.859375 8.582031 6.878906 8.605469 C 6.894531 8.632812 6.921875 8.625 6.960938 8.613281 C 6.996094 8.601562 7.003906 8.597656 7.035156 8.589844 C 7.066406 8.574219 7.089844 8.578125 7.105469 8.582031 C 7.121094 8.585938 7.128906 8.59375 7.128906 8.59375 C 7.128906 8.59375 7.132812 8.601562 7.132812 8.617188 C 7.132812 8.625 7.132812 8.636719 7.128906 8.648438 C 7.125 8.660156 7.121094 8.671875 7.109375 8.683594 C 7.089844 8.710938 7.085938 8.71875 7.066406 8.75 C 7.042969 8.785156 7.03125 8.808594 7.050781 8.832031 C 7.070312 8.855469 7.097656 8.84375 7.132812 8.828125 C 7.167969 8.8125 7.175781 8.808594 7.203125 8.792969 C 7.234375 8.777344 7.257812 8.773438 7.273438 8.777344 C 7.28125 8.777344 7.285156 8.78125 7.289062 8.78125 C 7.292969 8.785156 7.296875 8.785156 7.296875 8.785156 C 7.296875 8.785156 7.324219 8.820312 7.289062 8.878906 C 7.273438 8.90625 7.273438 8.914062 7.253906 8.949219 C 7.238281 8.984375 7.230469 9.011719 7.25 9.03125 C 7.273438 9.050781 7.300781 9.039062 7.332031 9.019531 C 7.367188 8.996094 7.371094 8.992188 7.398438 8.972656 C 7.453125 8.933594 7.488281 8.957031 7.488281 8.957031 C 7.488281 8.957031 7.492188 8.957031 7.492188 8.960938 C 7.496094 8.964844 7.5 8.96875 7.5 8.976562 C 7.507812 8.992188 7.507812 9.015625 7.496094 9.046875 C 7.484375 9.078125 7.480469 9.085938 7.46875 9.121094 C 7.457031 9.160156 7.449219 9.1875 7.476562 9.203125 C 7.5 9.222656 7.523438 9.207031 7.554688 9.179688 C 7.585938 9.15625 7.589844 9.148438 7.613281 9.128906 C 7.636719 9.105469 7.660156 9.097656 7.675781 9.09375 C 7.691406 9.09375 7.703125 9.097656 7.703125 9.097656 C 7.703125 9.097656 7.710938 9.101562 7.71875 9.117188 C 7.71875 9.125 7.722656 9.132812 7.722656 9.144531 C 7.726562 9.15625 7.722656 9.171875 7.71875 9.1875 C 7.710938 9.21875 7.710938 9.226562 7.703125 9.265625 C 7.695312 9.304688 7.695312 9.332031 7.722656 9.347656 C 7.75 9.359375 7.769531 9.339844 7.796875 9.3125 C 7.824219 9.28125 7.828125 9.277344 7.847656 9.25 C 7.871094 9.226562 7.890625 9.214844 7.90625 9.210938 C 7.921875 9.207031 7.933594 9.210938 7.933594 9.210938 C 7.933594 9.210938 7.96875 9.230469 7.960938 9.296875 C 7.957031 9.332031 7.957031 9.339844 7.957031 9.378906 C 7.953125 9.417969 7.957031 9.445312 7.984375 9.453125 C 8.011719 9.464844 8.03125 9.445312 8.054688 9.410156 C 8.074219 9.378906 8.082031 9.371094 8.097656 9.34375 C 8.132812 9.285156 8.175781 9.292969 8.175781 9.292969 C 8.175781 9.292969 8.214844 9.308594 8.214844 9.375 C 8.214844 9.40625 8.214844 9.414062 8.21875 9.453125 C 8.222656 9.496094 8.226562 9.523438 8.257812 9.527344 C 8.289062 9.535156 8.304688 9.511719 8.320312 9.476562 C 8.339844 9.441406 8.34375 9.433594 8.355469 9.402344 C 8.382812 9.339844 8.425781 9.34375 8.425781 9.34375 C 8.425781 9.34375 8.4375 9.34375 8.445312 9.355469 C 8.457031 9.367188 8.472656 9.386719 8.476562 9.417969 C 8.480469 9.449219 8.484375 9.460938 8.492188 9.496094 C 8.5 9.535156 8.507812 9.5625 8.539062 9.566406 C 8.570312 9.566406 8.582031 9.542969 8.59375 9.503906 C 8.609375 9.46875 8.609375 9.460938 8.621094 9.429688 C 8.625 9.414062 8.628906 9.402344 8.636719 9.390625 C 8.644531 9.382812 8.652344 9.375 8.65625 9.371094 C 8.671875 9.359375 8.679688 9.359375 8.679688 9.359375 C 8.679688 9.359375 8.691406 9.359375 8.703125 9.371094 C 8.71875 9.378906 8.730469 9.398438 8.742188 9.429688 C 8.75 9.460938 8.753906 9.46875 8.765625 9.503906 C 8.78125 9.542969 8.792969 9.566406 8.824219 9.566406 C 8.851562 9.5625 8.863281 9.535156 8.871094 9.496094 C 8.878906 9.460938 8.878906 9.453125 8.882812 9.421875 C 8.890625 9.386719 8.902344 9.367188 8.914062 9.355469 C 8.921875 9.351562 8.925781 9.347656 8.929688 9.347656 C 8.933594 9.34375 8.9375 9.34375 8.9375 9.34375 C 8.9375 9.34375 8.976562 9.339844 9.007812 9.40625 C 9.019531 9.433594 9.023438 9.441406 9.039062 9.476562 C 9.058594 9.511719 9.074219 9.535156 9.105469 9.527344 C 9.132812 9.523438 9.140625 9.496094 9.140625 9.457031 C 9.144531 9.417969 9.144531 9.40625 9.144531 9.375 C 9.148438 9.308594 9.1875 9.292969 9.1875 9.292969 C 9.1875 9.292969 9.191406 9.292969 9.195312 9.292969 C 9.199219 9.292969 9.207031 9.292969 9.210938 9.296875 C 9.226562 9.300781 9.246094 9.316406 9.265625 9.34375 C 9.28125 9.371094 9.285156 9.378906 9.308594 9.410156 C 9.332031 9.445312 9.347656 9.464844 9.378906 9.457031 C 9.40625 9.445312 9.410156 9.417969 9.40625 9.378906 C 9.402344 9.339844 9.402344 9.328125 9.398438 9.296875 C 9.398438 9.28125 9.398438 9.269531 9.402344 9.257812 C 9.402344 9.246094 9.40625 9.234375 9.410156 9.230469 C 9.421875 9.214844 9.429688 9.210938 9.429688 9.210938 C 9.429688 9.210938 9.441406 9.207031 9.453125 9.210938 C 9.46875 9.214844 9.492188 9.226562 9.511719 9.25 C 9.53125 9.277344 9.539062 9.28125 9.5625 9.3125 C 9.589844 9.339844 9.613281 9.359375 9.640625 9.347656 C 9.667969 9.332031 9.664062 9.304688 9.65625 9.265625 C 9.648438 9.226562 9.648438 9.21875 9.640625 9.1875 C 9.625 9.121094 9.660156 9.097656 9.660156 9.097656 C 9.660156 9.097656 9.695312 9.078125 9.746094 9.125 C 9.769531 9.148438 9.777344 9.152344 9.804688 9.179688 C 9.835938 9.207031 9.859375 9.222656 9.882812 9.203125 C 9.910156 9.1875 9.90625 9.160156 9.890625 9.121094 C 9.878906 9.085938 9.878906 9.078125 9.867188 9.046875 C 9.855469 9.015625 9.855469 8.992188 9.859375 8.976562 C 9.863281 8.960938 9.871094 8.953125 9.871094 8.953125 C 9.871094 8.953125 9.882812 8.949219 9.898438 8.949219 C 9.90625 8.949219 9.914062 8.949219 9.925781 8.953125 C 9.9375 8.957031 9.949219 8.964844 9.964844 8.972656 C 9.988281 8.992188 9.996094 8.996094 10.027344 9.019531 C 10.0625 9.039062 10.085938 9.050781 10.109375 9.03125 C 10.132812 9.011719 10.125 8.984375 10.105469 8.949219 C 10.089844 8.914062 10.085938 8.90625 10.070312 8.878906 C 10.054688 8.847656 10.054688 8.824219 10.054688 8.808594 C 10.058594 8.800781 10.058594 8.796875 10.0625 8.792969 C 10.0625 8.789062 10.066406 8.785156 10.066406 8.785156 C 10.066406 8.785156 10.097656 8.757812 10.15625 8.792969 C 10.183594 8.808594 10.191406 8.8125 10.226562 8.828125 C 10.265625 8.847656 10.289062 8.855469 10.308594 8.832031 C 10.332031 8.808594 10.320312 8.785156 10.296875 8.75 C 10.273438 8.71875 10.269531 8.710938 10.25 8.683594 C 10.210938 8.628906 10.234375 8.59375 10.234375 8.59375 C 10.234375 8.59375 10.234375 8.59375 10.238281 8.589844 C 10.242188 8.585938 10.25 8.585938 10.257812 8.582031 C 10.269531 8.578125 10.292969 8.574219 10.328125 8.585938 C 10.355469 8.597656 10.363281 8.601562 10.402344 8.613281 C 10.4375 8.625 10.46875 8.632812 10.484375 8.605469 C 10.5 8.582031 10.484375 8.558594 10.457031 8.527344 C 10.433594 8.5 10.425781 8.492188 10.40625 8.46875 C 10.382812 8.445312 10.375 8.421875 10.371094 8.40625 C 10.371094 8.390625 10.375 8.382812 10.375 8.382812 C 10.375 8.382812 10.382812 8.371094 10.394531 8.367188 C 10.402344 8.363281 10.414062 8.359375 10.425781 8.359375 C 10.4375 8.359375 10.449219 8.359375 10.46875 8.363281 C 10.496094 8.371094 10.503906 8.371094 10.542969 8.378906 C 10.582031 8.386719 10.609375 8.386719 10.625 8.359375 C 10.636719 8.332031 10.621094 8.3125 10.589844 8.285156 C 10.558594 8.261719 10.554688 8.253906 10.53125 8.234375 C 10.503906 8.214844 10.492188 8.191406 10.488281 8.175781 C 10.484375 8.160156 10.488281 8.152344 10.488281 8.152344 C 10.488281 8.152344 10.507812 8.113281 10.578125 8.121094 C 10.609375 8.125 10.617188 8.125 10.65625 8.128906 C 10.695312 8.128906 10.722656 8.128906 10.734375 8.097656 C 10.742188 8.070312 10.722656 8.050781 10.6875 8.027344 C 10.65625 8.007812 10.648438 8.003906 10.621094 7.984375 C 10.5625 7.949219 10.570312 7.910156 10.570312 7.910156 C 10.570312 7.910156 10.585938 7.871094 10.652344 7.867188 C 10.6875 7.867188 10.695312 7.867188 10.734375 7.863281 C 10.773438 7.859375 10.800781 7.855469 10.804688 7.824219 C 10.8125 7.796875 10.789062 7.78125 10.753906 7.761719 C 10.71875 7.742188 10.710938 7.742188 10.683594 7.726562 C 10.621094 7.699219 10.621094 7.65625 10.621094 7.65625 C 10.621094 7.65625 10.625 7.648438 10.632812 7.636719 C 10.644531 7.625 10.664062 7.613281 10.699219 7.605469 C 10.730469 7.601562 10.738281 7.597656 10.777344 7.589844 C 10.816406 7.582031 10.839844 7.574219 10.84375 7.542969 C 10.84375 7.515625 10.820312 7.5 10.78125 7.488281 Z M 8.910156 7.402344 C 8.910156 7.550781 8.789062 7.671875 8.644531 7.671875 C 8.496094 7.671875 8.375 7.550781 8.375 7.402344 C 8.375 7.253906 8.496094 7.132812 8.644531 7.132812 C 8.789062 7.132812 8.910156 7.253906 8.910156 7.402344 Z M 8.910156 7.402344 "/>
<path fill-rule="nonzero" fill="rgb(30%,30%,30%)" fill-opacity="1" d="M 7.710938 3.84375 C 7.707031 3.8125 7.707031 3.832031 7.710938 3.84375 C 7.6875 3.625 7.472656 3.484375 7.269531 3.464844 C 7.261719 3.460938 7.265625 3.4375 7.261719 3.429688 C 7.261719 3.40625 7.257812 3.378906 7.253906 3.355469 C 7.246094 3.292969 7.234375 3.230469 7.222656 3.167969 C 7.214844 3.117188 7.199219 3.066406 7.1875 3.015625 C 7.183594 2.996094 7.175781 2.992188 7.195312 2.984375 C 7.222656 2.964844 7.253906 2.953125 7.285156 2.941406 C 7.363281 2.910156 7.460938 2.898438 7.539062 2.933594 C 7.578125 2.953125 7.601562 2.9375 7.589844 2.894531 C 7.589844 2.875 7.582031 2.855469 7.578125 2.839844 C 7.566406 2.808594 7.558594 2.777344 7.550781 2.746094 C 7.523438 2.652344 7.5 2.542969 7.441406 2.464844 C 7.386719 2.390625 7.304688 2.34375 7.214844 2.320312 C 7.171875 2.308594 7.121094 2.300781 7.074219 2.300781 C 7.046875 2.300781 7.019531 2.304688 6.992188 2.308594 C 6.972656 2.3125 6.9375 2.332031 6.929688 2.3125 C 6.878906 2.214844 6.824219 2.117188 6.765625 2.019531 C 6.738281 1.984375 6.714844 1.945312 6.691406 1.90625 C 6.679688 1.890625 6.789062 1.804688 6.804688 1.792969 C 6.839844 1.769531 6.878906 1.75 6.917969 1.742188 C 6.9375 1.734375 6.957031 1.730469 6.980469 1.730469 C 6.996094 1.726562 7.019531 1.734375 7.039062 1.726562 C 7.074219 1.710938 7.035156 1.667969 7.023438 1.648438 C 6.988281 1.597656 6.949219 1.546875 6.914062 1.5 C 6.851562 1.421875 6.792969 1.335938 6.703125 1.292969 C 6.621094 1.253906 6.507812 1.253906 6.421875 1.273438 C 6.367188 1.285156 6.3125 1.308594 6.265625 1.335938 C 6.25 1.34375 6.230469 1.367188 6.21875 1.355469 C 6.199219 1.335938 6.179688 1.320312 6.160156 1.300781 C 6.074219 1.226562 5.988281 1.148438 5.894531 1.082031 C 5.886719 1.074219 5.859375 1.0625 5.855469 1.054688 C 5.863281 1.027344 5.875 1 5.886719 0.976562 C 5.90625 0.933594 5.933594 0.890625 5.96875 0.855469 C 6 0.828125 6.035156 0.800781 6.074219 0.785156 C 6.097656 0.777344 6.148438 0.765625 6.121094 0.730469 C 6.101562 0.703125 6.058594 0.683594 6.03125 0.664062 C 5.980469 0.628906 5.929688 0.59375 5.875 0.5625 C 5.804688 0.519531 5.726562 0.46875 5.640625 0.472656 C 5.542969 0.472656 5.445312 0.507812 5.363281 0.566406 C 5.320312 0.597656 5.28125 0.632812 5.25 0.675781 C 5.230469 0.703125 5.234375 0.699219 5.203125 0.6875 C 5.179688 0.675781 5.15625 0.664062 5.128906 0.65625 C 5.023438 0.613281 4.914062 0.574219 4.804688 0.542969 C 4.785156 0.539062 4.777344 0.542969 4.777344 0.523438 C 4.777344 0.496094 4.78125 0.46875 4.785156 0.441406 C 4.789062 0.394531 4.800781 0.347656 4.824219 0.304688 C 4.839844 0.269531 4.867188 0.234375 4.894531 0.207031 C 4.914062 0.191406 4.957031 0.167969 4.917969 0.144531 C 4.890625 0.125 4.839844 0.117188 4.804688 0.109375 C 4.746094 0.09375 4.691406 0.0820312 4.632812 0.0664062 C 4.546875 0.0507812 4.457031 0.03125 4.375 0.0664062 C 4.28125 0.105469 4.199219 0.175781 4.144531 0.257812 C 4.113281 0.304688 4.09375 0.351562 4.078125 0.402344 C 4.070312 0.425781 4.050781 0.417969 4.03125 0.414062 C 4.003906 0.414062 3.976562 0.414062 3.949219 0.414062 C 3.851562 0.410156 3.75 0.410156 3.652344 0.417969 C 3.632812 0.417969 3.613281 0.417969 3.59375 0.421875 C 3.585938 0.421875 3.574219 0.375 3.570312 0.363281 C 3.558594 0.316406 3.550781 0.261719 3.550781 0.210938 C 3.554688 0.167969 3.5625 0.125 3.582031 0.0859375 C 3.589844 0.0664062 3.625 0.0351562 3.605469 0.0117188 C 3.589844 -0.0078125 3.53125 0.00390625 3.507812 0.00390625 C 3.453125 0.0117188 3.394531 0.0195312 3.335938 0.0234375 C 3.242188 0.0351562 3.136719 0.046875 3.058594 0.109375 C 2.992188 0.164062 2.941406 0.242188 2.914062 0.324219 C 2.898438 0.375 2.886719 0.425781 2.886719 0.476562 C 2.886719 0.488281 2.890625 0.546875 2.886719 0.550781 C 2.863281 0.554688 2.839844 0.5625 2.816406 0.570312 C 2.707031 0.609375 2.597656 0.644531 2.492188 0.691406 C 2.472656 0.699219 2.457031 0.707031 2.441406 0.714844 C 2.429688 0.71875 2.40625 0.679688 2.398438 0.671875 C 2.367188 0.628906 2.34375 0.582031 2.328125 0.53125 C 2.3125 0.492188 2.308594 0.449219 2.3125 0.40625 C 2.316406 0.382812 2.332031 0.339844 2.3125 0.328125 C 2.285156 0.3125 2.238281 0.34375 2.214844 0.355469 C 2.160156 0.378906 2.101562 0.410156 2.046875 0.4375 C 1.964844 0.480469 1.875 0.527344 1.828125 0.609375 C 1.785156 0.679688 1.765625 0.765625 1.765625 0.847656 C 1.765625 0.902344 1.777344 0.957031 1.792969 1.007812 C 1.792969 1.015625 1.820312 1.078125 1.816406 1.078125 C 1.796875 1.09375 1.777344 1.109375 1.757812 1.125 C 1.667969 1.195312 1.578125 1.269531 1.496094 1.347656 C 1.480469 1.363281 1.46875 1.375 1.453125 1.386719 C 1.445312 1.394531 1.410156 1.367188 1.402344 1.363281 C 1.359375 1.332031 1.320312 1.300781 1.289062 1.261719 C 1.261719 1.226562 1.242188 1.1875 1.230469 1.144531 C 1.226562 1.125 1.226562 1.070312 1.199219 1.066406 C 1.164062 1.066406 1.125 1.121094 1.105469 1.144531 C 1.0625 1.1875 1.019531 1.230469 0.980469 1.277344 C 0.921875 1.34375 0.855469 1.410156 0.84375 1.503906 C 0.824219 1.605469 0.847656 1.71875 0.898438 1.8125 C 0.925781 1.859375 0.957031 1.902344 0.996094 1.941406 C 0.996094 1.949219 0.980469 1.964844 0.976562 1.972656 C 0.960938 1.996094 0.945312 2.023438 0.929688 2.046875 C 0.867188 2.140625 0.816406 2.242188 0.765625 2.34375 C 0.753906 2.367188 0.742188 2.359375 0.714844 2.351562 C 0.6875 2.347656 0.664062 2.339844 0.636719 2.332031 C 0.597656 2.316406 0.558594 2.292969 0.523438 2.265625 C 0.492188 2.242188 0.460938 2.210938 0.445312 2.171875 C 0.429688 2.136719 0.398438 2.136719 0.378906 2.175781 C 0.335938 2.269531 0.292969 2.363281 0.257812 2.460938 C 0.230469 2.53125 0.207031 2.605469 0.222656 2.683594 C 0.246094 2.785156 0.308594 2.886719 0.390625 2.953125 C 0.402344 2.964844 0.515625 3.035156 0.515625 3.035156 C 0.507812 3.078125 0.496094 3.125 0.488281 3.167969 C 0.464844 3.277344 0.445312 3.390625 0.4375 3.5 C 0.433594 3.527344 0.324219 3.523438 0.296875 3.523438 C 0.253906 3.519531 0.210938 3.511719 0.167969 3.496094 C 0.128906 3.480469 0.101562 3.457031 0.0703125 3.429688 C 0.0351562 3.402344 0.0195312 3.445312 0.015625 3.472656 C 0.0078125 3.582031 0.00390625 3.6875 0 3.796875 C 0 3.875 0.0117188 3.949219 0.0585938 4.015625 C 0.121094 4.105469 0.226562 4.171875 0.328125 4.203125 C 0.355469 4.210938 0.382812 4.21875 0.410156 4.222656 C 0.4375 4.226562 0.441406 4.21875 0.441406 4.242188 C 0.449219 4.296875 0.457031 4.351562 0.464844 4.40625 C 0.476562 4.460938 0.484375 4.519531 0.5 4.578125 C 0.503906 4.601562 0.511719 4.628906 0.515625 4.652344 C 0.519531 4.664062 0.53125 4.691406 0.527344 4.699219 C 0.441406 4.75 0.34375 4.785156 0.242188 4.773438 C 0.222656 4.773438 0.203125 4.769531 0.183594 4.761719 C 0.167969 4.757812 0.15625 4.746094 0.140625 4.746094 C 0.09375 4.746094 0.121094 4.816406 0.128906 4.839844 C 0.179688 5.023438 0.214844 5.246094 0.40625 5.335938 C 0.496094 5.378906 0.601562 5.398438 0.703125 5.382812 C 0.710938 5.382812 0.777344 5.367188 0.777344 5.371094 C 0.785156 5.382812 0.789062 5.398438 0.796875 5.410156 C 0.824219 5.464844 0.855469 5.515625 0.882812 5.570312 C 0.910156 5.617188 0.941406 5.664062 0.972656 5.714844 C 0.984375 5.730469 0.996094 5.75 1.007812 5.769531 C 1.007812 5.769531 1.019531 5.78125 1.019531 5.785156 C 1.007812 5.800781 0.996094 5.816406 0.980469 5.832031 C 0.917969 5.898438 0.832031 5.953125 0.738281 5.960938 C 0.714844 5.964844 0.65625 5.949219 0.65625 5.988281 C 0.660156 6.023438 0.707031 6.070312 0.726562 6.097656 C 0.757812 6.144531 0.796875 6.191406 0.832031 6.238281 C 0.863281 6.277344 0.890625 6.316406 0.925781 6.347656 C 1 6.40625 1.082031 6.429688 1.179688 6.429688 C 1.234375 6.429688 1.289062 6.421875 1.339844 6.402344 C 1.359375 6.394531 1.484375 6.328125 1.488281 6.332031 C 1.566406 6.40625 1.648438 6.480469 1.734375 6.546875 C 1.769531 6.574219 1.808594 6.605469 1.847656 6.632812 C 1.871094 6.648438 1.808594 6.746094 1.792969 6.769531 C 1.75 6.835938 1.691406 6.886719 1.613281 6.910156 C 1.570312 6.921875 1.578125 6.957031 1.609375 6.976562 C 1.648438 7.007812 1.691406 7.039062 1.734375 7.066406 C 1.820312 7.121094 1.90625 7.1875 2.007812 7.210938 C 2.085938 7.230469 2.171875 7.210938 2.246094 7.179688 C 2.296875 7.160156 2.34375 7.128906 2.382812 7.09375 C 2.40625 7.074219 2.421875 7.058594 2.441406 7.035156 C 2.449219 7.027344 2.460938 7.015625 2.46875 7.003906 C 2.480469 6.988281 2.476562 6.992188 2.496094 7 C 2.597656 7.046875 2.703125 7.082031 2.8125 7.117188 C 2.851562 7.132812 2.890625 7.140625 2.929688 7.152344 C 2.945312 7.15625 2.917969 7.292969 2.914062 7.308594 C 2.894531 7.382812 2.855469 7.445312 2.800781 7.492188 C 2.761719 7.519531 2.777344 7.546875 2.816406 7.558594 C 2.863281 7.570312 2.914062 7.585938 2.964844 7.597656 C 3.0625 7.617188 3.171875 7.65625 3.273438 7.640625 C 3.359375 7.628906 3.4375 7.574219 3.496094 7.515625 C 3.535156 7.476562 3.566406 7.433594 3.589844 7.386719 C 3.601562 7.363281 3.613281 7.339844 3.621094 7.3125 C 3.628906 7.300781 3.632812 7.285156 3.636719 7.273438 C 3.640625 7.269531 3.660156 7.273438 3.667969 7.273438 C 3.761719 7.28125 3.855469 7.28125 3.949219 7.277344 C 4 7.277344 4.050781 7.273438 4.101562 7.269531 C 4.125 7.269531 4.121094 7.273438 4.128906 7.296875 C 4.140625 7.328125 4.148438 7.359375 4.152344 7.390625 C 4.164062 7.46875 4.15625 7.5625 4.113281 7.632812 C 4.09375 7.65625 4.089844 7.6875 4.132812 7.691406 C 4.171875 7.691406 4.21875 7.683594 4.257812 7.679688 C 4.359375 7.667969 4.46875 7.664062 4.5625 7.628906 C 4.648438 7.597656 4.699219 7.539062 4.746094 7.464844 C 4.804688 7.371094 4.832031 7.253906 4.820312 7.140625 C 4.828125 7.132812 4.859375 7.128906 4.871094 7.128906 C 4.894531 7.121094 4.917969 7.113281 4.941406 7.105469 C 5 7.082031 5.058594 7.0625 5.121094 7.039062 C 5.167969 7.019531 5.210938 7 5.257812 6.980469 C 5.277344 6.972656 5.277344 6.976562 5.292969 6.996094 C 5.3125 7.023438 5.332031 7.046875 5.347656 7.078125 C 5.386719 7.148438 5.410156 7.234375 5.390625 7.316406 C 5.367188 7.417969 5.519531 7.324219 5.554688 7.308594 C 5.644531 7.261719 5.75 7.21875 5.828125 7.148438 C 5.96875 7.019531 5.964844 6.773438 5.890625 6.613281 C 5.894531 6.601562 5.921875 6.589844 5.929688 6.582031 C 5.949219 6.566406 5.96875 6.550781 5.988281 6.535156 C 6.039062 6.496094 6.085938 6.453125 6.136719 6.414062 C 6.171875 6.378906 6.207031 6.34375 6.246094 6.3125 C 6.261719 6.296875 6.261719 6.300781 6.28125 6.3125 C 6.308594 6.328125 6.335938 6.347656 6.359375 6.367188 C 6.421875 6.421875 6.476562 6.496094 6.484375 6.578125 C 6.488281 6.621094 6.511719 6.636719 6.546875 6.605469 C 6.585938 6.574219 6.621094 6.53125 6.65625 6.496094 C 6.71875 6.429688 6.796875 6.355469 6.839844 6.273438 C 6.882812 6.179688 6.878906 6.078125 6.851562 5.980469 C 6.835938 5.929688 6.8125 5.878906 6.785156 5.835938 C 6.769531 5.8125 6.753906 5.789062 6.734375 5.769531 C 6.714844 5.746094 6.710938 5.75 6.726562 5.726562 C 6.789062 5.628906 6.847656 5.53125 6.902344 5.429688 C 6.914062 5.40625 6.925781 5.386719 6.933594 5.363281 C 6.945312 5.347656 6.945312 5.328125 6.96875 5.332031 C 7.019531 5.339844 7.074219 5.359375 7.121094 5.382812 C 7.15625 5.402344 7.191406 5.425781 7.21875 5.453125 C 7.234375 5.46875 7.246094 5.484375 7.257812 5.503906 C 7.265625 5.519531 7.269531 5.539062 7.289062 5.546875 C 7.316406 5.558594 7.332031 5.511719 7.339844 5.492188 C 7.363281 5.441406 7.390625 5.390625 7.410156 5.335938 C 7.445312 5.253906 7.484375 5.171875 7.492188 5.082031 C 7.496094 4.984375 7.449219 4.890625 7.394531 4.816406 C 7.363281 4.773438 7.324219 4.738281 7.277344 4.707031 C 7.253906 4.691406 7.230469 4.675781 7.207031 4.664062 C 7.183594 4.652344 7.195312 4.644531 7.199219 4.621094 C 7.230469 4.492188 7.25 4.363281 7.265625 4.230469 C 7.269531 4.207031 7.265625 4.183594 7.289062 4.179688 C 7.320312 4.171875 7.351562 4.167969 7.386719 4.167969 C 7.4375 4.167969 7.492188 4.175781 7.539062 4.195312 C 7.566406 4.207031 7.585938 4.21875 7.609375 4.234375 C 7.625 4.242188 7.636719 4.261719 7.65625 4.269531 C 7.695312 4.28125 7.691406 4.207031 7.695312 4.183594 C 7.703125 4.070312 7.714844 3.957031 7.710938 3.84375 Z M 2.675781 4.789062 C 2.644531 4.953125 2.582031 5.265625 2.523438 5.558594 C 2.445312 5.964844 2.140625 6.085938 1.929688 5.890625 C 1.734375 5.707031 1.5625 5.492188 1.421875 5.25 C 1.28125 5.007812 1.183594 4.75 1.121094 4.488281 C 1.058594 4.210938 1.3125 4.007812 1.707031 4.140625 C 1.988281 4.238281 2.289062 4.339844 2.449219 4.394531 C 2.535156 4.421875 2.605469 4.476562 2.648438 4.542969 C 2.683594 4.613281 2.695312 4.699219 2.675781 4.789062 Z M 2.648438 3.148438 C 2.605469 3.214844 2.535156 3.265625 2.449219 3.296875 C 2.289062 3.351562 1.988281 3.453125 1.707031 3.546875 C 1.3125 3.683594 1.058594 3.480469 1.121094 3.199219 C 1.183594 2.941406 1.28125 2.683594 1.421875 2.4375 C 1.5625 2.195312 1.734375 1.984375 1.929688 1.800781 C 2.140625 1.605469 2.445312 1.722656 2.523438 2.132812 C 2.582031 2.425781 2.644531 2.738281 2.675781 2.902344 C 2.695312 2.992188 2.683594 3.078125 2.648438 3.148438 Z M 4.664062 6.535156 C 4.40625 6.613281 4.136719 6.65625 3.855469 6.65625 C 3.574219 6.65625 3.304688 6.613281 3.046875 6.535156 C 2.773438 6.449219 2.722656 6.128906 3.039062 5.855469 C 3.261719 5.65625 3.5 5.449219 3.625 5.335938 C 3.695312 5.277344 3.777344 5.242188 3.855469 5.238281 C 3.933594 5.242188 4.015625 5.277344 4.085938 5.335938 C 4.210938 5.449219 4.449219 5.65625 4.671875 5.855469 C 4.984375 6.128906 4.9375 6.449219 4.664062 6.535156 Z M 2.945312 3.84375 C 2.945312 3.34375 3.351562 2.9375 3.855469 2.9375 C 4.355469 2.9375 4.765625 3.34375 4.765625 3.84375 C 4.765625 4.347656 4.355469 4.753906 3.855469 4.753906 C 3.351562 4.753906 2.945312 4.347656 2.945312 3.84375 Z M 4.671875 1.835938 C 4.449219 2.03125 4.210938 2.242188 4.085938 2.351562 C 4.015625 2.414062 3.933594 2.445312 3.855469 2.449219 C 3.777344 2.445312 3.695312 2.414062 3.625 2.351562 C 3.5 2.242188 3.261719 2.03125 3.039062 1.835938 C 2.722656 1.5625 2.773438 1.238281 3.046875 1.15625 C 3.304688 1.078125 3.574219 1.035156 3.855469 1.035156 C 4.136719 1.035156 4.40625 1.078125 4.664062 1.15625 C 4.9375 1.238281 4.984375 1.5625 4.671875 1.835938 Z M 6.589844 4.488281 C 6.527344 4.75 6.429688 5.007812 6.289062 5.25 C 6.148438 5.492188 5.976562 5.707031 5.78125 5.890625 C 5.570312 6.085938 5.265625 5.964844 5.1875 5.558594 C 5.128906 5.265625 5.066406 4.953125 5.035156 4.789062 C 5.015625 4.699219 5.027344 4.613281 5.0625 4.542969 C 5.105469 4.476562 5.175781 4.421875 5.261719 4.394531 C 5.421875 4.339844 5.722656 4.238281 6.003906 4.140625 C 6.398438 4.007812 6.652344 4.210938 6.589844 4.488281 Z M 6.003906 3.546875 C 5.722656 3.453125 5.421875 3.351562 5.261719 3.296875 C 5.175781 3.265625 5.105469 3.214844 5.0625 3.148438 C 5.027344 3.078125 5.015625 2.992188 5.035156 2.902344 C 5.066406 2.738281 5.128906 2.425781 5.1875 2.132812 C 5.265625 1.722656 5.570312 1.605469 5.78125 1.800781 C 5.976562 1.984375 6.148438 2.195312 6.289062 2.4375 C 6.429688 2.683594 6.527344 2.941406 6.589844 3.199219 C 6.652344 3.480469 6.398438 3.683594 6.003906 3.546875 Z M 6.003906 3.546875 "/>
</svg>
