<?xml version="1.0" encoding="UTF-8"?>
<svg xmlns="http://www.w3.org/2000/svg" xmlns:xlink="http://www.w3.org/1999/xlink" width="10.537953" height="11" viewBox="0 0 10.537953 11">
<path fill-rule="nonzero" fill="rgb(30%,30%,30%)" fill-opacity="1" d="M 9.757812 10.296875 C 7.679688 12.195312 5.425781 9.660156 5.433594 9.550781 C 5.441406 9.4375 5.285156 8.9375 5.132812 8.773438 C 5.085938 8.722656 5.035156 8.679688 4.984375 8.640625 C 4.933594 8.605469 4.773438 8.519531 4.496094 8.386719 L 4.535156 8.347656 C 4.839844 8.464844 5.207031 8.492188 5.402344 8.308594 C 5.71875 8.011719 5.632812 7.410156 5.214844 6.964844 C 4.792969 6.519531 4.214844 6.332031 3.898438 6.628906 C 3.796875 6.726562 3.6875 6.90625 3.648438 6.945312 C 3.554688 7.035156 3.828125 6.34375 3.628906 6.175781 C 2.8125 5.484375 3.109375 4.636719 3.4375 4.167969 L 1.492188 2.015625 L 1.449219 2.054688 L 1.132812 1.917969 C 1.078125 1.894531 1.03125 1.851562 1 1.796875 L 0.902344 1.621094 L 0.714844 1.796875 C 0.773438 1.882812 0.78125 1.972656 0.734375 2.019531 C 0.675781 2.074219 0.558594 2.042969 0.472656 1.949219 C 0.386719 1.859375 0.363281 1.738281 0.417969 1.683594 C 0.46875 1.640625 0.558594 1.65625 0.636719 1.714844 L 0.84375 1.519531 L 0.585938 1.054688 L 0.355469 1.273438 C 0.386719 1.339844 0.382812 1.402344 0.34375 1.441406 C 0.289062 1.492188 0.171875 1.464844 0.0859375 1.371094 C -0.00390625 1.28125 -0.0273438 1.160156 0.03125 1.105469 C 0.0898438 1.050781 0.207031 1.082031 0.292969 1.175781 L 0.527344 0.953125 L 0.5 0.902344 L 0.394531 1 L 0.0546875 0.21875 L 0.285156 0 L 1.019531 0.410156 L 0.898438 0.527344 L 0.949219 0.558594 L 1.210938 0.3125 C 1.121094 0.21875 1.097656 0.101562 1.15625 0.046875 C 1.214844 -0.0078125 1.332031 0.0234375 1.417969 0.113281 C 1.503906 0.207031 1.527344 0.324219 1.472656 0.378906 C 1.433594 0.414062 1.367188 0.414062 1.300781 0.378906 L 1.050781 0.617188 L 1.507812 0.894531 L 1.769531 0.648438 C 1.714844 0.566406 1.703125 0.472656 1.753906 0.429688 C 1.808594 0.375 1.925781 0.40625 2.015625 0.496094 C 2.101562 0.589844 2.125 0.707031 2.066406 0.761719 C 2.019531 0.808594 1.929688 0.792969 1.847656 0.730469 L 1.609375 0.957031 L 1.78125 1.054688 C 1.820312 1.078125 1.847656 1.117188 1.859375 1.160156 L 1.96875 1.5625 L 1.941406 1.589844 L 3.96875 3.65625 C 4.246094 3.464844 4.539062 3.40625 5.085938 3.503906 C 5.269531 3.535156 5.722656 3.847656 5.878906 4.011719 C 6.039062 4.179688 6.652344 3.996094 6.648438 4.078125 C 6.644531 4.15625 6.496094 4.21875 6.398438 4.3125 C 6.082031 4.609375 6.265625 5.171875 6.683594 5.617188 C 7.105469 6.0625 7.644531 6.222656 7.945312 5.910156 C 8.160156 5.691406 8.167969 5.363281 8.039062 5.050781 L 8.078125 5.011719 C 8.308594 5.503906 9.097656 5.886719 9.347656 5.9375 C 9.597656 5.992188 11.617188 8.597656 9.757812 10.296875 Z M 6.917969 8.882812 C 6.917969 8.742188 6.847656 8.367188 6.222656 8.015625 C 6.171875 7.988281 6.152344 7.953125 6.15625 7.898438 C 6.15625 7.816406 6.214844 7.722656 6.277344 7.675781 C 6.277344 7.714844 6.269531 7.773438 6.253906 7.792969 C 6.207031 7.835938 6.207031 7.910156 6.25 7.953125 C 6.292969 8 6.367188 8.003906 6.410156 7.957031 C 6.511719 7.863281 6.539062 7.621094 6.460938 7.503906 C 6.40625 7.425781 6.308594 7.402344 6.214844 7.445312 C 6.082031 7.507812 5.933594 7.695312 5.925781 7.890625 C 5.921875 8.027344 5.984375 8.144531 6.109375 8.214844 C 6.644531 8.515625 6.6875 8.804688 6.6875 8.882812 C 6.6875 8.953125 6.660156 8.992188 6.644531 9 C 6.625 9.015625 6.601562 9.023438 6.574219 9.027344 C 6.582031 8.980469 6.558594 8.933594 6.511719 8.910156 C 6.46875 8.890625 6.417969 8.898438 6.382812 8.929688 C 6.324219 8.988281 6.320312 9.085938 6.378906 9.164062 C 6.4375 9.246094 6.574219 9.304688 6.757812 9.203125 C 6.777344 9.191406 6.792969 9.179688 6.808594 9.164062 C 6.875 9.101562 6.917969 9 6.917969 8.882812 Z M 8.808594 7.269531 C 8.921875 7.09375 8.871094 6.953125 8.789062 6.886719 C 8.71875 6.828125 8.617188 6.824219 8.558594 6.878906 C 8.523438 6.914062 8.511719 6.964844 8.53125 7.007812 C 8.550781 7.054688 8.59375 7.082031 8.644531 7.078125 C 8.640625 7.101562 8.628906 7.125 8.613281 7.148438 C 8.601562 7.164062 8.570312 7.183594 8.515625 7.183594 C 8.445312 7.183594 8.1875 7.132812 7.855469 6.554688 C 7.78125 6.433594 7.664062 6.363281 7.523438 6.367188 C 7.351562 6.367188 7.164062 6.480469 7.085938 6.625 C 7.035156 6.714844 7.054688 6.8125 7.132812 6.871094 C 7.242188 6.957031 7.484375 6.945312 7.585938 6.851562 C 7.632812 6.808594 7.636719 6.734375 7.59375 6.6875 C 7.570312 6.667969 7.542969 6.652344 7.511719 6.652344 C 7.484375 6.652344 7.453125 6.664062 7.429688 6.683594 C 7.410156 6.699219 7.351562 6.703125 7.308594 6.699219 C 7.355469 6.648438 7.449219 6.597656 7.527344 6.59375 C 7.585938 6.59375 7.625 6.617188 7.65625 6.671875 C 8.023438 7.308594 8.347656 7.410156 8.511719 7.414062 C 8.609375 7.414062 8.699219 7.382812 8.761719 7.324219 C 8.78125 7.308594 8.792969 7.289062 8.808594 7.269531 Z M 8.808594 7.269531 "/>
</svg>
