<?xml version="1.0" encoding="UTF-8"?>
<svg xmlns="http://www.w3.org/2000/svg" xmlns:xlink="http://www.w3.org/1999/xlink" width="11" height="8.576356" viewBox="0 0 11 8.576356">
<path fill-rule="nonzero" fill="rgb(30%,30%,30%)" fill-opacity="1" d="M 10.503906 5.878906 C 10.507812 5.878906 10.507812 5.878906 10.507812 5.878906 L 10.507812 5.53125 C 10.507812 3.527344 9.289062 1.800781 7.554688 1.046875 L 7.554688 5.023438 C 7.554688 5.28125 7.371094 5.492188 7.144531 5.492188 C 6.914062 5.492188 6.730469 5.28125 6.730469 5.023438 L 6.730469 0.53125 C 6.507812 0.210938 6.144531 0 5.730469 0 L 5.269531 0 C 4.855469 0 4.492188 0.210938 4.269531 0.53125 L 4.269531 5.023438 C 4.269531 5.28125 4.085938 5.492188 3.855469 5.492188 C 3.628906 5.492188 3.445312 5.28125 3.445312 5.023438 L 3.445312 1.046875 C 1.710938 1.800781 0.492188 3.527344 0.492188 5.53125 L 0.492188 5.878906 C 0.492188 5.878906 0.492188 5.878906 0.496094 5.878906 C 0.179688 6.117188 0 6.382812 0 6.664062 C 0 7.722656 2.460938 8.578125 5.5 8.578125 C 8.539062 8.578125 11 7.722656 11 6.664062 C 11 6.382812 10.820312 6.117188 10.503906 5.878906 Z M 10.503906 5.878906 "/>
</svg>
