<?xml version="1.0" encoding="UTF-8" standalone="no"?>
<!-- Created with Inkscape (http://www.inkscape.org/) -->

<svg
   xmlns:dc="http://purl.org/dc/elements/1.1/"
   xmlns:cc="http://creativecommons.org/ns#"
   xmlns:rdf="http://www.w3.org/1999/02/22-rdf-syntax-ns#"
   xmlns:svg="http://www.w3.org/2000/svg"
   xmlns="http://www.w3.org/2000/svg"
   xmlns:xlink="http://www.w3.org/1999/xlink"
   xmlns:sodipodi="http://sodipodi.sourceforge.net/DTD/sodipodi-0.dtd"
   xmlns:inkscape="http://www.inkscape.org/namespaces/inkscape"
   width="30px"
   height="30px"
   version="1.1"
   id="svg8"
   inkscape:version="0.92.4 5da689c313, 2019-01-14"
   sodipodi:docname="container.svg">
  <defs
     id="defs2" />
  <sodipodi:namedview
     id="base"
     pagecolor="#ffffff"
     bordercolor="#666666"
     borderopacity="1.0"
     inkscape:pageopacity="0.0"
     inkscape:pageshadow="2"
     inkscape:zoom="13.049334"
     inkscape:cx="18.679046"
     inkscape:cy="12.165829"
     inkscape:document-units="px"
     inkscape:current-layer="layer1"
     showgrid="false"
     inkscape:snap-page="false"
     units="px"
     inkscape:window-width="1884"
     inkscape:window-height="1061"
     inkscape:window-x="0"
     inkscape:window-y="0"
     inkscape:window-maximized="1"
     fit-margin-top="0"
     fit-margin-left="0"
     fit-margin-right="0"
     fit-margin-bottom="0" />
  <metadata
     id="metadata5">
    <rdf:RDF>
      <cc:Work
         rdf:about="">
        <dc:format>image/svg+xml</dc:format>
        <dc:type
           rdf:resource="http://purl.org/dc/dcmitype/StillImage" />
        <dc:title></dc:title>
      </cc:Work>
    </rdf:RDF>
  </metadata>
    <circle
       style="color:#000000;clip-rule:nonzero;display:inline;overflow:visible;visibility:visible;opacity:1;isolation:auto;mix-blend-mode:normal;color-interpolation:sRGB;color-interpolation-filters:linearRGB;solid-color:#000000;solid-opacity:1;vector-effect:none;fill:#ffffff;fill-opacity:1;fill-rule:evenodd;stroke:#c58511;stroke-width:1;stroke-linecap:butt;stroke-linejoin:miter;stroke-miterlimit:4;stroke-dasharray:none;stroke-dashoffset:0;stroke-opacity:1;marker:none;color-rendering:auto;image-rendering:auto;shape-rendering:auto;text-rendering:auto;enable-background:accumulate"
       id="path815"
       cx="15"
       cy="15"
       r="14.5" />
<g transform="translate(6.5,6.5)"><path fill-rule="nonzero" fill="rgb(30%,30%,30%)" fill-opacity="1" d="M 12.140625 11.519531 L 10.089844 7.921875 C 10.34375 7.574219 10.535156 7.175781 10.636719 6.730469 C 11.035156 4.996094 9.953125 3.265625 8.21875 2.867188 C 6.484375 2.46875 4.753906 3.550781 4.355469 5.285156 C 3.957031 7.019531 5.039062 8.75 6.773438 9.148438 C 7.183594 9.242188 7.59375 9.25 7.988281 9.191406 L 8.226562 9.714844 L 8.996094 9.925781 L 8.765625 10.539062 L 9.359375 10.65625 L 9.265625 11.328125 L 10.339844 12.804688 L 11.875 12.957031 Z M 6.789062 6.003906 C 6.335938 5.898438 6.050781 5.445312 6.15625 4.992188 C 6.261719 4.535156 6.714844 4.253906 7.167969 4.355469 C 7.621094 4.460938 7.90625 4.914062 7.800781 5.367188 C 7.695312 5.824219 7.242188 6.105469 6.789062 6.003906 Z M 6.789062 6.003906 "/>
<path fill-rule="nonzero" fill="rgb(30%,30%,30%)" fill-opacity="1" d="M 0.960938 17 C 0.679688 17 0.347656 16.941406 0.15625 16.648438 C -0.0273438 16.363281 -0.015625 15.917969 0.445312 15.609375 C 0.457031 15.601562 0.75 15.394531 0.996094 14.226562 C 1.117188 13.65625 1.175781 13.082031 1.207031 12.738281 C 0.417969 11.429688 0 9.9375 0 8.402344 C 0 7.269531 0.222656 6.167969 0.660156 5.132812 C 1.082031 4.132812 1.691406 3.230469 2.460938 2.460938 C 3.230469 1.691406 4.132812 1.082031 5.132812 0.660156 C 6.167969 0.222656 7.269531 0 8.402344 0 C 9.535156 0 10.636719 0.222656 11.671875 0.660156 C 12.671875 1.082031 13.570312 1.691406 14.34375 2.460938 C 15.113281 3.230469 15.722656 4.132812 16.144531 5.132812 C 16.582031 6.167969 16.804688 7.269531 16.804688 8.402344 C 16.804688 9.535156 16.582031 10.636719 16.144531 11.671875 C 15.722656 12.671875 15.113281 13.570312 14.34375 14.34375 C 13.570312 15.113281 12.671875 15.722656 11.671875 16.144531 C 10.636719 16.582031 9.535156 16.804688 8.402344 16.804688 C 7.136719 16.804688 5.878906 16.515625 4.746094 15.96875 C 3.90625 16.410156 2.878906 16.679688 2.4375 16.78125 C 2.007812 16.878906 1.59375 16.953125 1.273438 16.980469 C 1.1875 16.988281 1.078125 17 0.960938 17 Z M 8.402344 1.304688 C 6.507812 1.304688 4.722656 2.042969 3.382812 3.382812 C 2.042969 4.722656 1.304688 6.507812 1.304688 8.402344 C 1.304688 9.761719 1.691406 11.082031 2.421875 12.222656 L 2.539062 12.40625 L 2.523438 12.621094 C 2.503906 12.921875 2.4375 13.703125 2.273438 14.496094 C 2.1875 14.898438 2.085938 15.25 1.972656 15.546875 C 2.105469 15.519531 2.246094 15.484375 2.394531 15.449219 C 3.210938 15.238281 3.933594 14.957031 4.378906 14.675781 L 4.703125 14.472656 L 5.039062 14.652344 C 6.066406 15.207031 7.226562 15.5 8.402344 15.5 C 10.296875 15.5 12.082031 14.761719 13.421875 13.421875 C 14.761719 12.082031 15.5 10.296875 15.5 8.402344 C 15.5 6.507812 14.761719 4.722656 13.421875 3.382812 C 12.082031 2.042969 10.296875 1.304688 8.402344 1.304688 Z M 8.402344 1.304688 "/>
</g>
</svg>
