<?xml version="1.0" encoding="UTF-8"?>
<svg xmlns="http://www.w3.org/2000/svg" xmlns:xlink="http://www.w3.org/1999/xlink" width="7.074057" height="11" viewBox="0 0 7.074057 11">
<path fill-rule="nonzero" fill="rgb(30%,30%,30%)" fill-opacity="1" d="M 1.921875 8.828125 L 5.230469 8.828125 C 5.367188 8.828125 5.476562 8.9375 5.476562 9.074219 L 5.476562 9.117188 C 5.476562 9.253906 5.367188 9.363281 5.230469 9.363281 L 1.921875 9.363281 C 1.785156 9.363281 1.675781 9.253906 1.675781 9.117188 L 1.675781 9.074219 C 1.675781 8.9375 1.785156 8.828125 1.921875 8.828125 Z M 1.921875 8.828125 "/>
<path fill-rule="nonzero" fill="rgb(30%,30%,30%)" fill-opacity="1" d="M 4.839844 9.527344 L 2.269531 9.527344 C 2.140625 9.527344 2.035156 9.632812 2.035156 9.761719 L 2.035156 9.902344 C 2.035156 10.03125 2.140625 10.136719 2.269531 10.136719 L 2.414062 10.136719 C 2.414062 10.140625 2.414062 10.144531 2.414062 10.152344 C 2.414062 10.621094 2.933594 11 3.578125 11 C 4.21875 11 4.742188 10.621094 4.742188 10.152344 C 4.742188 10.144531 4.742188 10.140625 4.738281 10.136719 L 4.839844 10.136719 C 4.96875 10.136719 5.074219 10.03125 5.074219 9.902344 L 5.074219 9.761719 C 5.074219 9.632812 4.96875 9.527344 4.839844 9.527344 Z M 4.839844 9.527344 "/>
<path fill-rule="nonzero" fill="rgb(30%,30%,30%)" fill-opacity="1" d="M 7.074219 3.308594 C 7.074219 2.246094 6.101562 0.0507812 3.714844 0 C 1.292969 -0.046875 0.195312 1.675781 0.046875 3.015625 C -0.0742188 4.164062 -0.0546875 5.394531 1.277344 6.46875 C 1.761719 6.859375 1.886719 8.652344 1.886719 8.652344 L 5.171875 8.652344 C 5.171875 8.652344 5.035156 7.277344 5.949219 6.28125 C 6.851562 5.300781 7.074219 4.859375 7.074219 3.308594 Z M 3.59375 7.589844 L 3.511719 4.367188 L 2.058594 4.722656 L 3.316406 0.675781 L 3.394531 3.386719 L 5.203125 3.269531 Z M 3.59375 7.589844 "/>
</svg>
