<?xml version="1.0" encoding="UTF-8"?>
<svg xmlns="http://www.w3.org/2000/svg" xmlns:xlink="http://www.w3.org/1999/xlink" width="7.685463" height="11" viewBox="0 0 7.685463 11">
<path fill-rule="nonzero" fill="rgb(30%,30%,30%)" fill-opacity="1" d="M 2.363281 0.710938 C 3.203125 0.710938 2.71875 3.011719 2.761719 3.5 C 2.777344 3.691406 2.761719 4.164062 2.761719 4.476562 C 2.761719 4.828125 3.160156 4.828125 3.203125 4.5625 C 3.222656 4.445312 3.292969 3.679688 3.292969 2.480469 C 3.292969 1.816406 3.160156 0.0273438 3.914062 0 C 4.535156 -0.0234375 4.535156 0.886719 4.488281 2.660156 C 4.460938 3.839844 4.445312 4.207031 4.445312 4.476562 C 4.445312 4.875 4.71875 4.8125 4.753906 4.652344 C 4.847656 4.265625 4.839844 3.335938 4.933594 2.613281 C 5.023438 1.890625 5.109375 1.375 5.421875 1.375 C 6.171875 1.375 6.085938 2.171875 6.039062 3.457031 C 5.992188 4.828125 5.773438 6.46875 5.773438 6.46875 C 5.773438 6.46875 6.71875 4.554688 7.371094 4.742188 C 7.679688 4.828125 7.777344 5.351562 7.589844 5.847656 C 6.925781 7.621094 5.992188 9.640625 5.152344 10.324219 C 4.179688 11.121094 2.050781 11.433594 1.035156 10.015625 C 0.667969 9.503906 0.21875 8.089844 0.0585938 6.601562 C -0.117188 4.964844 0.101562 2.082031 0.765625 2.082031 C 0.917969 2.082031 1.035156 2.152344 1.078125 2.347656 C 1.234375 3.074219 0.820312 4.828125 1.34375 4.828125 C 2.050781 4.828125 1.121094 0.710938 2.363281 0.710938 Z M 2.363281 0.710938 "/>
</svg>
