<?xml version="1.0" encoding="UTF-8" standalone="no"?>
<!-- Created with Inkscape (http://www.inkscape.org/) -->

<svg
   xmlns:dc="http://purl.org/dc/elements/1.1/"
   xmlns:cc="http://creativecommons.org/ns#"
   xmlns:rdf="http://www.w3.org/1999/02/22-rdf-syntax-ns#"
   xmlns:svg="http://www.w3.org/2000/svg"
   xmlns="http://www.w3.org/2000/svg"
   xmlns:xlink="http://www.w3.org/1999/xlink"
   xmlns:sodipodi="http://sodipodi.sourceforge.net/DTD/sodipodi-0.dtd"
   xmlns:inkscape="http://www.inkscape.org/namespaces/inkscape"
   width="30px"
   height="30px"
   version="1.1"
   id="svg8"
   inkscape:version="0.92.4 5da689c313, 2019-01-14"
   sodipodi:docname="container.svg">
  <defs
     id="defs2" />
  <sodipodi:namedview
     id="base"
     pagecolor="#ffffff"
     bordercolor="#666666"
     borderopacity="1.0"
     inkscape:pageopacity="0.0"
     inkscape:pageshadow="2"
     inkscape:zoom="13.049334"
     inkscape:cx="18.679046"
     inkscape:cy="12.165829"
     inkscape:document-units="px"
     inkscape:current-layer="layer1"
     showgrid="false"
     inkscape:snap-page="false"
     units="px"
     inkscape:window-width="1884"
     inkscape:window-height="1061"
     inkscape:window-x="0"
     inkscape:window-y="0"
     inkscape:window-maximized="1"
     fit-margin-top="0"
     fit-margin-left="0"
     fit-margin-right="0"
     fit-margin-bottom="0" />
  <metadata
     id="metadata5">
    <rdf:RDF>
      <cc:Work
         rdf:about="">
        <dc:format>image/svg+xml</dc:format>
        <dc:type
           rdf:resource="http://purl.org/dc/dcmitype/StillImage" />
        <dc:title></dc:title>
      </cc:Work>
    </rdf:RDF>
  </metadata>
    <circle
       style="color:#000000;clip-rule:nonzero;display:inline;overflow:visible;visibility:visible;opacity:1;isolation:auto;mix-blend-mode:normal;color-interpolation:sRGB;color-interpolation-filters:linearRGB;solid-color:#000000;solid-opacity:1;vector-effect:none;fill:#c58511;fill-opacity:1;fill-rule:evenodd;stroke:#ffffff;stroke-width:1;stroke-linecap:butt;stroke-linejoin:miter;stroke-miterlimit:4;stroke-dasharray:none;stroke-dashoffset:0;stroke-opacity:1;marker:none;color-rendering:auto;image-rendering:auto;shape-rendering:auto;text-rendering:auto;enable-background:accumulate"
       id="path815"
       cx="15"
       cy="15"
       r="14.5" />
<g transform="translate(6.5,6.5)"><path fill-rule="nonzero" fill="#FFFFFF" fill-opacity="1" d="M 9.988281 14.15625 C 9.96875 13.957031 9.925781 13.765625 9.855469 13.585938 L 10.269531 13.054688 L 9.640625 12.261719 L 9.03125 12.546875 C 8.867188 12.4375 8.691406 12.351562 8.5 12.292969 L 8.34375 11.640625 L 7.332031 11.640625 L 7.175781 12.292969 C 6.988281 12.351562 6.808594 12.4375 6.648438 12.546875 L 6.039062 12.261719 L 5.410156 13.054688 L 5.820312 13.582031 C 5.753906 13.761719 5.707031 13.953125 5.691406 14.152344 L 5.089844 14.449219 L 5.316406 15.4375 L 5.984375 15.445312 C 6.085938 15.613281 6.210938 15.769531 6.351562 15.902344 L 6.207031 16.558594 L 7.121094 17 L 7.546875 16.480469 C 7.640625 16.492188 7.738281 16.5 7.839844 16.5 C 7.9375 16.5 8.035156 16.492188 8.128906 16.480469 L 8.554688 17 L 9.46875 16.5625 L 9.324219 15.90625 C 9.46875 15.769531 9.589844 15.617188 9.691406 15.449219 L 10.363281 15.441406 L 10.589844 14.453125 Z M 7.132812 14.507812 C 6.988281 14.65625 6.792969 14.847656 6.703125 14.9375 C 6.640625 15 6.523438 15.019531 6.472656 14.910156 C 6.394531 14.722656 6.351562 14.519531 6.351562 14.320312 C 6.351562 14.117188 6.394531 13.917969 6.472656 13.730469 C 6.523438 13.621094 6.640625 13.636719 6.703125 13.703125 C 6.792969 13.789062 6.988281 13.984375 7.132812 14.128906 C 7.117188 14.191406 7.109375 14.253906 7.109375 14.320312 C 7.109375 14.386719 7.117188 14.449219 7.132812 14.507812 Z M 8.429688 15.683594 C 8.242188 15.765625 8.039062 15.804688 7.839844 15.804688 C 7.636719 15.804688 7.4375 15.765625 7.25 15.683594 C 7.140625 15.636719 7.15625 15.515625 7.21875 15.453125 C 7.308594 15.363281 7.503906 15.171875 7.648438 15.023438 C 7.710938 15.039062 7.773438 15.050781 7.839844 15.050781 C 7.90625 15.050781 7.96875 15.039062 8.027344 15.023438 C 8.175781 15.171875 8.367188 15.363281 8.457031 15.453125 C 8.519531 15.515625 8.539062 15.636719 8.429688 15.683594 Z M 7.5 14.394531 C 7.5 14.207031 7.652344 14.054688 7.839844 14.054688 C 8.027344 14.054688 8.179688 14.207031 8.179688 14.394531 C 8.179688 14.582031 8.027344 14.734375 7.839844 14.734375 C 7.652344 14.734375 7.5 14.582031 7.5 14.394531 Z M 8.457031 13.1875 C 8.367188 13.273438 8.175781 13.46875 8.027344 13.613281 C 7.96875 13.597656 7.90625 13.589844 7.839844 13.589844 C 7.773438 13.589844 7.710938 13.597656 7.648438 13.613281 C 7.503906 13.46875 7.308594 13.273438 7.21875 13.1875 C 7.15625 13.121094 7.140625 13.003906 7.25 12.953125 C 7.4375 12.875 7.636719 12.832031 7.839844 12.832031 C 8.039062 12.832031 8.242188 12.875 8.429688 12.953125 C 8.539062 13.003906 8.519531 13.121094 8.457031 13.1875 Z M 9.203125 14.910156 C 9.15625 15.019531 9.035156 15 8.972656 14.9375 C 8.882812 14.847656 8.691406 14.65625 8.542969 14.507812 C 8.558594 14.449219 8.570312 14.386719 8.570312 14.320312 C 8.570312 14.253906 8.558594 14.191406 8.542969 14.128906 C 8.691406 13.984375 8.882812 13.789062 8.972656 13.703125 C 9.035156 13.636719 9.15625 13.621094 9.203125 13.730469 C 9.285156 13.917969 9.324219 14.117188 9.324219 14.320312 C 9.324219 14.519531 9.285156 14.722656 9.203125 14.910156 Z M 9.203125 14.910156 "/>
<path fill-rule="nonzero" fill="#FFFFFF" fill-opacity="1" d="M 16.664062 11.574219 C 16.605469 11.550781 16.59375 11.546875 16.546875 11.535156 C 16.523438 11.527344 16.503906 11.515625 16.488281 11.507812 C 16.472656 11.496094 16.464844 11.484375 16.457031 11.476562 C 16.441406 11.457031 16.441406 11.441406 16.441406 11.441406 C 16.441406 11.441406 16.441406 11.421875 16.457031 11.402344 C 16.46875 11.382812 16.5 11.359375 16.550781 11.34375 C 16.59375 11.332031 16.609375 11.328125 16.664062 11.308594 C 16.722656 11.285156 16.761719 11.269531 16.757812 11.222656 C 16.757812 11.175781 16.714844 11.160156 16.652344 11.148438 C 16.59375 11.136719 16.582031 11.132812 16.535156 11.125 C 16.480469 11.117188 16.453125 11.097656 16.433594 11.078125 C 16.425781 11.070312 16.421875 11.0625 16.417969 11.054688 C 16.414062 11.050781 16.414062 11.046875 16.414062 11.046875 C 16.414062 11.046875 16.410156 10.980469 16.507812 10.9375 C 16.554688 10.917969 16.566406 10.910156 16.621094 10.882812 C 16.675781 10.855469 16.710938 10.832031 16.703125 10.785156 C 16.691406 10.742188 16.652344 10.730469 16.589844 10.726562 C 16.527344 10.722656 16.515625 10.722656 16.464844 10.71875 C 16.359375 10.71875 16.335938 10.65625 16.335938 10.65625 C 16.335938 10.65625 16.335938 10.652344 16.335938 10.644531 C 16.335938 10.640625 16.339844 10.628906 16.34375 10.617188 C 16.351562 10.59375 16.371094 10.566406 16.417969 10.539062 C 16.457031 10.511719 16.46875 10.503906 16.519531 10.472656 C 16.570312 10.4375 16.605469 10.40625 16.589844 10.363281 C 16.570312 10.320312 16.53125 10.316406 16.46875 10.320312 C 16.40625 10.324219 16.394531 10.324219 16.347656 10.328125 C 16.320312 10.332031 16.296875 10.328125 16.28125 10.324219 C 16.261719 10.324219 16.25 10.316406 16.238281 10.308594 C 16.21875 10.296875 16.210938 10.28125 16.210938 10.28125 C 16.210938 10.28125 16.203125 10.265625 16.210938 10.242188 C 16.214844 10.21875 16.234375 10.1875 16.273438 10.152344 C 16.3125 10.121094 16.320312 10.113281 16.367188 10.074219 C 16.410156 10.03125 16.441406 10 16.417969 9.957031 C 16.398438 9.914062 16.355469 9.917969 16.292969 9.929688 C 16.234375 9.941406 16.222656 9.945312 16.175781 9.957031 C 16.070312 9.980469 16.035156 9.925781 16.035156 9.925781 C 16.035156 9.925781 16.007812 9.867188 16.082031 9.792969 C 16.113281 9.757812 16.121094 9.746094 16.164062 9.699219 C 16.203125 9.652344 16.226562 9.617188 16.199219 9.578125 C 16.175781 9.539062 16.132812 9.546875 16.074219 9.566406 C 16.015625 9.585938 16.003906 9.589844 15.957031 9.609375 C 15.910156 9.625 15.871094 9.625 15.847656 9.617188 C 15.824219 9.609375 15.816406 9.597656 15.816406 9.597656 C 15.816406 9.597656 15.804688 9.585938 15.804688 9.558594 C 15.804688 9.546875 15.808594 9.53125 15.8125 9.515625 C 15.820312 9.5 15.828125 9.480469 15.84375 9.457031 C 15.871094 9.417969 15.878906 9.40625 15.914062 9.355469 C 15.945312 9.304688 15.964844 9.265625 15.933594 9.230469 C 15.902344 9.195312 15.863281 9.210938 15.804688 9.238281 C 15.753906 9.261719 15.742188 9.269531 15.699219 9.292969 C 15.652344 9.316406 15.617188 9.320312 15.589844 9.316406 C 15.578125 9.3125 15.570312 9.308594 15.5625 9.304688 C 15.558594 9.304688 15.554688 9.300781 15.554688 9.300781 C 15.554688 9.300781 15.511719 9.25 15.5625 9.15625 C 15.585938 9.113281 15.59375 9.101562 15.621094 9.046875 C 15.648438 8.992188 15.660156 8.953125 15.625 8.921875 C 15.589844 8.890625 15.550781 8.910156 15.5 8.941406 C 15.449219 8.976562 15.4375 8.984375 15.398438 9.011719 C 15.3125 9.074219 15.257812 9.039062 15.257812 9.039062 C 15.257812 9.039062 15.253906 9.039062 15.25 9.03125 C 15.246094 9.023438 15.242188 9.015625 15.238281 9.003906 C 15.230469 8.980469 15.230469 8.945312 15.246094 8.898438 C 15.265625 8.851562 15.269531 8.839844 15.289062 8.78125 C 15.308594 8.722656 15.316406 8.679688 15.277344 8.652344 C 15.238281 8.628906 15.203125 8.652344 15.15625 8.691406 C 15.109375 8.730469 15.097656 8.742188 15.0625 8.773438 C 15.027344 8.808594 14.992188 8.824219 14.96875 8.824219 C 14.941406 8.828125 14.929688 8.820312 14.929688 8.820312 C 14.929688 8.820312 14.914062 8.8125 14.90625 8.789062 C 14.898438 8.777344 14.894531 8.761719 14.894531 8.746094 C 14.894531 8.726562 14.894531 8.707031 14.898438 8.679688 C 14.910156 8.632812 14.914062 8.621094 14.925781 8.558594 C 14.9375 8.5 14.9375 8.457031 14.898438 8.433594 C 14.855469 8.414062 14.820312 8.445312 14.78125 8.488281 C 14.742188 8.535156 14.730469 8.542969 14.703125 8.582031 C 14.667969 8.625 14.636719 8.640625 14.613281 8.644531 C 14.589844 8.652344 14.574219 8.644531 14.574219 8.644531 C 14.574219 8.644531 14.515625 8.617188 14.527344 8.507812 C 14.53125 8.460938 14.53125 8.449219 14.535156 8.386719 C 14.539062 8.324219 14.535156 8.285156 14.492188 8.269531 C 14.449219 8.253906 14.417969 8.285156 14.382812 8.335938 C 14.351562 8.386719 14.34375 8.398438 14.316406 8.4375 C 14.261719 8.53125 14.199219 8.519531 14.199219 8.519531 C 14.199219 8.519531 14.136719 8.496094 14.132812 8.390625 C 14.132812 8.339844 14.132812 8.328125 14.128906 8.269531 C 14.125 8.207031 14.113281 8.164062 14.070312 8.15625 C 14.023438 8.144531 14 8.179688 13.972656 8.238281 C 13.945312 8.289062 13.9375 8.300781 13.917969 8.347656 C 13.875 8.445312 13.808594 8.441406 13.808594 8.441406 C 13.808594 8.441406 13.792969 8.4375 13.777344 8.421875 C 13.757812 8.402344 13.738281 8.375 13.730469 8.320312 C 13.722656 8.273438 13.71875 8.261719 13.707031 8.203125 C 13.695312 8.140625 13.679688 8.101562 13.632812 8.097656 C 13.589844 8.09375 13.570312 8.132812 13.546875 8.191406 C 13.527344 8.25 13.523438 8.261719 13.511719 8.308594 C 13.503906 8.332031 13.492188 8.351562 13.484375 8.367188 C 13.472656 8.382812 13.460938 8.390625 13.453125 8.398438 C 13.429688 8.414062 13.414062 8.414062 13.414062 8.414062 C 13.414062 8.414062 13.398438 8.414062 13.378906 8.398438 C 13.359375 8.386719 13.335938 8.355469 13.320312 8.304688 C 13.308594 8.261719 13.304688 8.246094 13.28125 8.191406 C 13.261719 8.132812 13.242188 8.09375 13.195312 8.097656 C 13.148438 8.097656 13.136719 8.140625 13.121094 8.203125 C 13.109375 8.261719 13.109375 8.273438 13.101562 8.320312 C 13.09375 8.375 13.070312 8.402344 13.054688 8.421875 C 13.046875 8.429688 13.035156 8.433594 13.03125 8.4375 C 13.023438 8.441406 13.019531 8.441406 13.019531 8.441406 C 13.019531 8.441406 12.957031 8.445312 12.914062 8.347656 C 12.894531 8.300781 12.886719 8.289062 12.859375 8.234375 C 12.832031 8.179688 12.808594 8.144531 12.761719 8.152344 C 12.714844 8.164062 12.707031 8.207031 12.703125 8.265625 C 12.699219 8.328125 12.699219 8.339844 12.695312 8.390625 C 12.695312 8.496094 12.632812 8.519531 12.632812 8.519531 C 12.632812 8.519531 12.628906 8.519531 12.621094 8.519531 C 12.613281 8.519531 12.605469 8.515625 12.59375 8.511719 C 12.570312 8.503906 12.542969 8.484375 12.511719 8.4375 C 12.488281 8.398438 12.480469 8.386719 12.445312 8.335938 C 12.410156 8.285156 12.382812 8.25 12.339844 8.265625 C 12.292969 8.285156 12.292969 8.324219 12.292969 8.386719 C 12.296875 8.449219 12.300781 8.460938 12.304688 8.507812 C 12.308594 8.535156 12.304688 8.558594 12.300781 8.574219 C 12.296875 8.59375 12.292969 8.605469 12.285156 8.617188 C 12.273438 8.636719 12.257812 8.644531 12.257812 8.644531 C 12.257812 8.644531 12.242188 8.652344 12.21875 8.644531 C 12.195312 8.640625 12.164062 8.621094 12.128906 8.582031 C 12.097656 8.542969 12.089844 8.535156 12.050781 8.488281 C 12.007812 8.445312 11.976562 8.414062 11.933594 8.4375 C 11.890625 8.457031 11.894531 8.5 11.90625 8.5625 C 11.917969 8.621094 11.921875 8.632812 11.929688 8.679688 C 11.957031 8.785156 11.902344 8.820312 11.902344 8.820312 C 11.902344 8.820312 11.84375 8.847656 11.765625 8.773438 C 11.730469 8.742188 11.722656 8.734375 11.675781 8.691406 C 11.628906 8.652344 11.59375 8.628906 11.554688 8.65625 C 11.515625 8.679688 11.523438 8.722656 11.542969 8.78125 C 11.5625 8.839844 11.566406 8.851562 11.582031 8.898438 C 11.601562 8.945312 11.601562 8.984375 11.59375 9.007812 C 11.585938 9.03125 11.574219 9.039062 11.574219 9.039062 C 11.574219 9.039062 11.558594 9.050781 11.535156 9.050781 C 11.523438 9.050781 11.507812 9.046875 11.492188 9.042969 C 11.472656 9.035156 11.453125 9.027344 11.433594 9.011719 C 11.394531 8.984375 11.382812 8.976562 11.332031 8.941406 C 11.28125 8.910156 11.242188 8.890625 11.207031 8.921875 C 11.171875 8.953125 11.183594 8.992188 11.210938 9.050781 C 11.238281 9.105469 11.242188 9.113281 11.265625 9.15625 C 11.292969 9.203125 11.292969 9.238281 11.289062 9.265625 C 11.289062 9.277344 11.285156 9.285156 11.28125 9.292969 C 11.277344 9.296875 11.277344 9.300781 11.277344 9.300781 C 11.277344 9.300781 11.226562 9.34375 11.132812 9.292969 C 11.089844 9.269531 11.078125 9.261719 11.023438 9.234375 C 10.96875 9.207031 10.929688 9.195312 10.898438 9.230469 C 10.867188 9.265625 10.882812 9.304688 10.917969 9.355469 C 10.953125 9.40625 10.957031 9.417969 10.988281 9.457031 C 11.050781 9.542969 11.015625 9.597656 11.015625 9.597656 C 11.015625 9.597656 11.011719 9.601562 11.007812 9.605469 C 11 9.609375 10.992188 9.613281 10.980469 9.617188 C 10.957031 9.625 10.921875 9.625 10.871094 9.609375 C 10.828125 9.589844 10.816406 9.585938 10.757812 9.566406 C 10.699219 9.546875 10.65625 9.539062 10.628906 9.578125 C 10.605469 9.617188 10.628906 9.652344 10.667969 9.699219 C 10.707031 9.746094 10.714844 9.757812 10.75 9.792969 C 10.785156 9.828125 10.796875 9.863281 10.800781 9.886719 C 10.804688 9.914062 10.796875 9.925781 10.796875 9.925781 C 10.796875 9.925781 10.785156 9.941406 10.765625 9.949219 C 10.753906 9.957031 10.738281 9.960938 10.71875 9.960938 C 10.703125 9.960938 10.679688 9.960938 10.65625 9.957031 C 10.609375 9.945312 10.59375 9.941406 10.535156 9.929688 C 10.476562 9.917969 10.433594 9.917969 10.410156 9.957031 C 10.390625 10 10.417969 10.035156 10.464844 10.074219 C 10.511719 10.113281 10.519531 10.125 10.558594 10.152344 C 10.597656 10.1875 10.613281 10.21875 10.621094 10.242188 C 10.625 10.265625 10.621094 10.28125 10.621094 10.28125 C 10.621094 10.28125 10.589844 10.339844 10.484375 10.328125 C 10.4375 10.324219 10.421875 10.324219 10.363281 10.320312 C 10.300781 10.316406 10.257812 10.320312 10.242188 10.363281 C 10.230469 10.40625 10.261719 10.4375 10.3125 10.472656 C 10.363281 10.503906 10.371094 10.511719 10.414062 10.539062 C 10.503906 10.59375 10.492188 10.65625 10.492188 10.65625 C 10.492188 10.65625 10.472656 10.71875 10.367188 10.722656 C 10.316406 10.722656 10.304688 10.722656 10.242188 10.726562 C 10.179688 10.730469 10.140625 10.742188 10.128906 10.785156 C 10.121094 10.832031 10.15625 10.855469 10.210938 10.882812 C 10.265625 10.910156 10.277344 10.917969 10.320312 10.9375 C 10.417969 10.980469 10.417969 11.046875 10.417969 11.046875 C 10.417969 11.046875 10.414062 11.0625 10.394531 11.078125 C 10.378906 11.097656 10.351562 11.117188 10.296875 11.125 C 10.25 11.132812 10.238281 11.136719 10.179688 11.148438 C 10.117188 11.160156 10.074219 11.175781 10.074219 11.222656 C 10.070312 11.269531 10.109375 11.285156 10.167969 11.308594 C 10.222656 11.328125 10.234375 11.332031 10.28125 11.34375 C 10.308594 11.351562 10.328125 11.363281 10.34375 11.371094 C 10.355469 11.382812 10.367188 11.394531 10.375 11.402344 C 10.390625 11.425781 10.390625 11.441406 10.390625 11.441406 C 10.390625 11.441406 10.390625 11.457031 10.375 11.476562 C 10.359375 11.496094 10.332031 11.519531 10.28125 11.535156 C 10.234375 11.546875 10.222656 11.550781 10.167969 11.574219 C 10.109375 11.59375 10.070312 11.613281 10.074219 11.660156 C 10.074219 11.707031 10.117188 11.71875 10.175781 11.734375 C 10.238281 11.746094 10.25 11.746094 10.296875 11.753906 C 10.351562 11.761719 10.378906 11.785156 10.394531 11.800781 C 10.402344 11.808594 10.410156 11.820312 10.414062 11.824219 C 10.414062 11.832031 10.417969 11.835938 10.417969 11.835938 C 10.417969 11.835938 10.417969 11.898438 10.320312 11.941406 C 10.277344 11.960938 10.265625 11.96875 10.210938 11.996094 C 10.15625 12.023438 10.121094 12.046875 10.128906 12.09375 C 10.140625 12.140625 10.179688 12.148438 10.242188 12.152344 C 10.300781 12.15625 10.316406 12.15625 10.363281 12.160156 C 10.472656 12.160156 10.492188 12.222656 10.492188 12.222656 C 10.492188 12.222656 10.496094 12.226562 10.492188 12.234375 C 10.492188 12.242188 10.492188 12.25 10.488281 12.261719 C 10.480469 12.285156 10.460938 12.3125 10.414062 12.34375 C 10.371094 12.367188 10.363281 12.375 10.3125 12.410156 C 10.261719 12.445312 10.226562 12.472656 10.242188 12.515625 C 10.257812 12.5625 10.300781 12.5625 10.363281 12.5625 C 10.421875 12.558594 10.4375 12.554688 10.484375 12.550781 C 10.511719 12.546875 10.53125 12.550781 10.550781 12.554688 C 10.566406 12.558594 10.582031 12.5625 10.59375 12.570312 C 10.613281 12.582031 10.621094 12.597656 10.621094 12.597656 C 10.621094 12.597656 10.625 12.613281 10.621094 12.636719 C 10.613281 12.660156 10.597656 12.691406 10.558594 12.726562 C 10.519531 12.757812 10.511719 12.765625 10.464844 12.804688 C 10.417969 12.847656 10.390625 12.878906 10.410156 12.921875 C 10.429688 12.964844 10.476562 12.960938 10.535156 12.949219 C 10.597656 12.9375 10.609375 12.933594 10.65625 12.925781 C 10.757812 12.898438 10.796875 12.953125 10.796875 12.953125 C 10.796875 12.953125 10.824219 13.011719 10.75 13.089844 C 10.71875 13.125 10.707031 13.132812 10.667969 13.179688 C 10.628906 13.226562 10.605469 13.261719 10.628906 13.300781 C 10.65625 13.339844 10.699219 13.332031 10.757812 13.3125 C 10.816406 13.292969 10.828125 13.289062 10.871094 13.273438 C 10.921875 13.253906 10.957031 13.253906 10.980469 13.261719 C 11.003906 13.269531 11.015625 13.28125 11.015625 13.28125 C 11.015625 13.28125 11.023438 13.296875 11.027344 13.320312 C 11.027344 13.332031 11.023438 13.347656 11.019531 13.363281 C 11.011719 13.382812 11.003906 13.402344 10.988281 13.421875 C 10.960938 13.460938 10.953125 13.472656 10.917969 13.523438 C 10.886719 13.574219 10.867188 13.613281 10.898438 13.648438 C 10.925781 13.683594 10.96875 13.671875 11.023438 13.644531 C 11.078125 13.617188 11.089844 13.613281 11.132812 13.589844 C 11.179688 13.5625 11.214844 13.5625 11.238281 13.566406 C 11.25 13.566406 11.261719 13.570312 11.265625 13.574219 C 11.273438 13.578125 11.277344 13.578125 11.277344 13.578125 C 11.277344 13.578125 11.316406 13.628906 11.265625 13.722656 C 11.242188 13.765625 11.238281 13.777344 11.210938 13.832031 C 11.183594 13.886719 11.171875 13.925781 11.207031 13.957031 C 11.242188 13.988281 11.28125 13.972656 11.332031 13.9375 C 11.382812 13.902344 11.394531 13.898438 11.433594 13.867188 C 11.519531 13.804688 11.574219 13.839844 11.574219 13.839844 C 11.574219 13.839844 11.578125 13.84375 11.582031 13.847656 C 11.585938 13.855469 11.589844 13.863281 11.59375 13.875 C 11.601562 13.898438 11.601562 13.933594 11.582031 13.984375 C 11.566406 14.027344 11.5625 14.039062 11.542969 14.097656 C 11.523438 14.15625 11.515625 14.199219 11.554688 14.226562 C 11.59375 14.25 11.628906 14.226562 11.675781 14.1875 C 11.722656 14.148438 11.730469 14.140625 11.765625 14.105469 C 11.804688 14.070312 11.839844 14.058594 11.863281 14.054688 C 11.886719 14.050781 11.902344 14.058594 11.902344 14.058594 C 11.902344 14.058594 11.917969 14.070312 11.925781 14.089844 C 11.929688 14.101562 11.933594 14.117188 11.9375 14.136719 C 11.9375 14.152344 11.9375 14.175781 11.929688 14.199219 C 11.917969 14.246094 11.917969 14.261719 11.90625 14.320312 C 11.894531 14.378906 11.890625 14.421875 11.933594 14.445312 C 11.976562 14.464844 12.007812 14.4375 12.050781 14.390625 C 12.089844 14.34375 12.097656 14.335938 12.128906 14.296875 C 12.164062 14.257812 12.195312 14.242188 12.21875 14.234375 C 12.242188 14.230469 12.257812 14.234375 12.257812 14.234375 C 12.257812 14.234375 12.316406 14.265625 12.304688 14.371094 C 12.300781 14.417969 12.296875 14.433594 12.292969 14.492188 C 12.292969 14.554688 12.292969 14.597656 12.339844 14.613281 C 12.382812 14.625 12.410156 14.59375 12.445312 14.542969 C 12.480469 14.492188 12.488281 14.484375 12.511719 14.441406 C 12.570312 14.351562 12.632812 14.363281 12.632812 14.363281 C 12.632812 14.363281 12.695312 14.382812 12.695312 14.488281 C 12.699219 14.539062 12.699219 14.550781 12.703125 14.613281 C 12.707031 14.675781 12.714844 14.714844 12.761719 14.726562 C 12.808594 14.734375 12.832031 14.699219 12.859375 14.644531 C 12.886719 14.589844 12.894531 14.578125 12.914062 14.535156 C 12.957031 14.4375 13.019531 14.4375 13.019531 14.4375 C 13.019531 14.4375 13.035156 14.441406 13.054688 14.460938 C 13.074219 14.476562 13.09375 14.503906 13.101562 14.558594 C 13.109375 14.605469 13.109375 14.617188 13.121094 14.679688 C 13.136719 14.738281 13.148438 14.78125 13.195312 14.78125 C 13.242188 14.785156 13.261719 14.746094 13.28125 14.6875 C 13.304688 14.632812 13.308594 14.621094 13.320312 14.574219 C 13.328125 14.546875 13.339844 14.527344 13.347656 14.511719 C 13.359375 14.5 13.371094 14.488281 13.378906 14.480469 C 13.398438 14.464844 13.414062 14.464844 13.414062 14.464844 C 13.414062 14.464844 13.433594 14.464844 13.453125 14.480469 C 13.472656 14.496094 13.496094 14.523438 13.511719 14.574219 C 13.523438 14.621094 13.527344 14.632812 13.546875 14.6875 C 13.570312 14.746094 13.585938 14.785156 13.632812 14.78125 C 13.679688 14.78125 13.695312 14.738281 13.707031 14.679688 C 13.71875 14.617188 13.722656 14.605469 13.730469 14.558594 C 13.738281 14.503906 13.757812 14.476562 13.777344 14.460938 C 13.785156 14.453125 13.792969 14.445312 13.800781 14.445312 C 13.804688 14.441406 13.808594 14.4375 13.808594 14.4375 C 13.808594 14.4375 13.875 14.4375 13.917969 14.535156 C 13.9375 14.578125 13.945312 14.589844 13.972656 14.644531 C 14 14.699219 14.023438 14.734375 14.070312 14.726562 C 14.113281 14.714844 14.125 14.675781 14.128906 14.613281 C 14.132812 14.554688 14.132812 14.539062 14.136719 14.492188 C 14.136719 14.382812 14.199219 14.363281 14.199219 14.363281 C 14.199219 14.363281 14.203125 14.359375 14.210938 14.363281 C 14.214844 14.363281 14.226562 14.363281 14.238281 14.367188 C 14.261719 14.375 14.289062 14.394531 14.316406 14.441406 C 14.34375 14.484375 14.351562 14.492188 14.382812 14.542969 C 14.417969 14.59375 14.449219 14.628906 14.492188 14.613281 C 14.535156 14.597656 14.539062 14.554688 14.535156 14.492188 C 14.53125 14.433594 14.53125 14.417969 14.527344 14.371094 C 14.523438 14.34375 14.527344 14.324219 14.53125 14.304688 C 14.53125 14.289062 14.539062 14.273438 14.546875 14.261719 C 14.558594 14.242188 14.574219 14.234375 14.574219 14.234375 C 14.574219 14.234375 14.589844 14.230469 14.613281 14.234375 C 14.636719 14.242188 14.667969 14.257812 14.703125 14.296875 C 14.734375 14.335938 14.742188 14.34375 14.78125 14.390625 C 14.824219 14.4375 14.855469 14.464844 14.898438 14.445312 C 14.941406 14.425781 14.9375 14.378906 14.925781 14.320312 C 14.914062 14.257812 14.910156 14.246094 14.898438 14.199219 C 14.875 14.097656 14.929688 14.058594 14.929688 14.058594 C 14.929688 14.058594 14.988281 14.03125 15.0625 14.105469 C 15.097656 14.136719 15.109375 14.148438 15.15625 14.1875 C 15.203125 14.226562 15.238281 14.25 15.277344 14.226562 C 15.316406 14.199219 15.308594 14.15625 15.289062 14.097656 C 15.269531 14.039062 15.265625 14.027344 15.246094 13.984375 C 15.230469 13.933594 15.230469 13.898438 15.238281 13.875 C 15.246094 13.851562 15.257812 13.839844 15.257812 13.839844 C 15.257812 13.839844 15.269531 13.832031 15.296875 13.828125 C 15.308594 13.828125 15.324219 13.832031 15.339844 13.835938 C 15.355469 13.84375 15.375 13.851562 15.398438 13.867188 C 15.4375 13.894531 15.449219 13.902344 15.5 13.9375 C 15.550781 13.96875 15.589844 13.988281 15.625 13.957031 C 15.660156 13.929688 15.644531 13.886719 15.617188 13.832031 C 15.59375 13.777344 15.585938 13.765625 15.5625 13.722656 C 15.539062 13.675781 15.535156 13.640625 15.539062 13.617188 C 15.542969 13.605469 15.546875 13.59375 15.550781 13.589844 C 15.550781 13.582031 15.554688 13.578125 15.554688 13.578125 C 15.554688 13.578125 15.605469 13.539062 15.699219 13.589844 C 15.742188 13.613281 15.753906 13.617188 15.808594 13.644531 C 15.863281 13.671875 15.902344 13.683594 15.933594 13.648438 C 15.964844 13.613281 15.945312 13.574219 15.914062 13.523438 C 15.878906 13.472656 15.871094 13.460938 15.84375 13.421875 C 15.78125 13.335938 15.816406 13.28125 15.816406 13.28125 C 15.816406 13.28125 15.816406 13.277344 15.824219 13.273438 C 15.832031 13.269531 15.839844 13.265625 15.851562 13.261719 C 15.875 13.253906 15.910156 13.253906 15.957031 13.273438 C 16.003906 13.289062 16.015625 13.292969 16.074219 13.3125 C 16.132812 13.332031 16.175781 13.339844 16.203125 13.300781 C 16.226562 13.261719 16.203125 13.226562 16.164062 13.179688 C 16.125 13.132812 16.113281 13.125 16.082031 13.089844 C 16.046875 13.050781 16.03125 13.015625 16.03125 12.992188 C 16.027344 12.96875 16.035156 12.953125 16.035156 12.953125 C 16.035156 12.953125 16.042969 12.9375 16.066406 12.929688 C 16.078125 12.925781 16.09375 12.921875 16.109375 12.917969 C 16.128906 12.917969 16.148438 12.917969 16.175781 12.925781 C 16.222656 12.9375 16.234375 12.9375 16.296875 12.949219 C 16.355469 12.960938 16.398438 12.964844 16.421875 12.921875 C 16.441406 12.878906 16.414062 12.847656 16.367188 12.804688 C 16.320312 12.765625 16.3125 12.757812 16.273438 12.726562 C 16.230469 12.691406 16.214844 12.660156 16.210938 12.636719 C 16.203125 12.613281 16.210938 12.597656 16.210938 12.597656 C 16.210938 12.597656 16.238281 12.539062 16.347656 12.550781 C 16.394531 12.554688 16.40625 12.558594 16.46875 12.5625 C 16.53125 12.5625 16.570312 12.5625 16.585938 12.515625 C 16.601562 12.472656 16.570312 12.445312 16.519531 12.410156 C 16.46875 12.375 16.457031 12.367188 16.417969 12.34375 C 16.324219 12.285156 16.335938 12.222656 16.335938 12.222656 C 16.335938 12.222656 16.359375 12.160156 16.464844 12.160156 C 16.515625 12.15625 16.527344 12.15625 16.585938 12.152344 C 16.648438 12.148438 16.691406 12.140625 16.699219 12.09375 C 16.710938 12.046875 16.675781 12.023438 16.617188 11.996094 C 16.566406 11.96875 16.554688 11.960938 16.507812 11.941406 C 16.410156 11.898438 16.414062 11.835938 16.414062 11.835938 C 16.414062 11.835938 16.417969 11.820312 16.433594 11.800781 C 16.453125 11.78125 16.480469 11.761719 16.535156 11.753906 C 16.582031 11.746094 16.59375 11.746094 16.652344 11.734375 C 16.714844 11.71875 16.753906 11.707031 16.757812 11.660156 C 16.761719 11.613281 16.722656 11.59375 16.664062 11.574219 Z M 13.773438 11.441406 C 13.773438 11.667969 13.585938 11.855469 13.355469 11.855469 C 13.128906 11.855469 12.941406 11.667969 12.941406 11.441406 C 12.941406 11.210938 13.128906 11.027344 13.355469 11.027344 C 13.585938 11.027344 13.773438 11.210938 13.773438 11.441406 Z M 13.773438 11.441406 "/>
<path fill-rule="nonzero" fill="#FFFFFF" fill-opacity="1" d="M 11.914062 5.941406 C 11.910156 5.890625 11.914062 5.925781 11.914062 5.9375 C 11.882812 5.601562 11.546875 5.382812 11.234375 5.355469 C 11.226562 5.347656 11.226562 5.3125 11.226562 5.300781 C 11.21875 5.261719 11.214844 5.222656 11.210938 5.183594 C 11.199219 5.089844 11.179688 4.992188 11.160156 4.894531 C 11.148438 4.816406 11.125 4.738281 11.109375 4.660156 C 11.101562 4.628906 11.09375 4.625 11.121094 4.609375 C 11.164062 4.585938 11.210938 4.5625 11.257812 4.546875 C 11.378906 4.5 11.53125 4.480469 11.652344 4.535156 C 11.710938 4.5625 11.746094 4.535156 11.734375 4.472656 C 11.734375 4.445312 11.714844 4.410156 11.710938 4.386719 C 11.695312 4.339844 11.683594 4.289062 11.667969 4.242188 C 11.628906 4.097656 11.589844 3.929688 11.5 3.808594 C 11.417969 3.691406 11.289062 3.625 11.152344 3.585938 C 11.082031 3.566406 11.007812 3.558594 10.933594 3.558594 C 10.890625 3.558594 10.847656 3.5625 10.804688 3.566406 C 10.777344 3.570312 10.722656 3.601562 10.707031 3.574219 C 10.628906 3.421875 10.546875 3.269531 10.453125 3.125 C 10.417969 3.066406 10.378906 3.003906 10.339844 2.949219 C 10.324219 2.921875 10.492188 2.789062 10.519531 2.773438 C 10.570312 2.734375 10.628906 2.707031 10.6875 2.691406 C 10.722656 2.679688 10.753906 2.675781 10.785156 2.671875 C 10.8125 2.671875 10.851562 2.679688 10.878906 2.667969 C 10.933594 2.644531 10.871094 2.574219 10.851562 2.546875 C 10.796875 2.46875 10.742188 2.390625 10.683594 2.316406 C 10.589844 2.195312 10.5 2.0625 10.355469 1.996094 C 10.230469 1.9375 10.058594 1.9375 9.925781 1.96875 C 9.839844 1.984375 9.757812 2.019531 9.679688 2.0625 C 9.660156 2.078125 9.632812 2.113281 9.609375 2.09375 C 9.582031 2.066406 9.554688 2.039062 9.523438 2.011719 C 9.390625 1.894531 9.253906 1.777344 9.109375 1.671875 C 9.097656 1.664062 9.054688 1.640625 9.046875 1.628906 C 9.058594 1.585938 9.078125 1.546875 9.097656 1.507812 C 9.128906 1.441406 9.171875 1.378906 9.222656 1.324219 C 9.269531 1.277344 9.328125 1.238281 9.386719 1.214844 C 9.425781 1.199219 9.503906 1.183594 9.460938 1.128906 C 9.425781 1.085938 9.363281 1.054688 9.320312 1.023438 C 9.242188 0.96875 9.160156 0.917969 9.082031 0.871094 C 8.972656 0.800781 8.851562 0.722656 8.71875 0.726562 C 8.566406 0.730469 8.414062 0.789062 8.289062 0.875 C 8.222656 0.921875 8.164062 0.980469 8.113281 1.042969 C 8.082031 1.085938 8.089844 1.082031 8.042969 1.058594 C 8.003906 1.042969 7.964844 1.027344 7.925781 1.015625 C 7.761719 0.949219 7.59375 0.890625 7.421875 0.839844 C 7.394531 0.832031 7.382812 0.839844 7.382812 0.808594 C 7.382812 0.765625 7.386719 0.722656 7.394531 0.679688 C 7.402344 0.609375 7.421875 0.539062 7.453125 0.472656 C 7.480469 0.414062 7.519531 0.363281 7.566406 0.320312 C 7.597656 0.296875 7.660156 0.257812 7.601562 0.222656 C 7.554688 0.191406 7.480469 0.179688 7.425781 0.167969 C 7.335938 0.148438 7.25 0.125 7.15625 0.105469 C 7.027344 0.078125 6.886719 0.0507812 6.761719 0.101562 C 6.613281 0.160156 6.492188 0.269531 6.40625 0.398438 C 6.359375 0.46875 6.324219 0.546875 6.300781 0.625 C 6.292969 0.660156 6.261719 0.644531 6.226562 0.640625 C 6.1875 0.640625 6.144531 0.640625 6.101562 0.636719 C 5.949219 0.632812 5.796875 0.632812 5.644531 0.644531 C 5.613281 0.648438 5.585938 0.648438 5.554688 0.652344 C 5.539062 0.652344 5.523438 0.578125 5.519531 0.5625 C 5.496094 0.484375 5.484375 0.40625 5.488281 0.324219 C 5.492188 0.257812 5.507812 0.191406 5.535156 0.132812 C 5.550781 0.105469 5.601562 0.0507812 5.574219 0.0195312 C 5.546875 -0.015625 5.460938 0.0078125 5.421875 0.0078125 C 5.335938 0.015625 5.246094 0.0273438 5.15625 0.0390625 C 5.011719 0.0585938 4.84375 0.0703125 4.726562 0.167969 C 4.625 0.25 4.546875 0.375 4.503906 0.5 C 4.480469 0.578125 4.464844 0.65625 4.460938 0.738281 C 4.460938 0.753906 4.464844 0.847656 4.460938 0.851562 C 4.421875 0.859375 4.386719 0.871094 4.351562 0.882812 C 4.183594 0.941406 4.011719 0.996094 3.851562 1.070312 C 3.824219 1.082031 3.796875 1.09375 3.769531 1.105469 C 3.753906 1.113281 3.714844 1.050781 3.707031 1.035156 C 3.660156 0.972656 3.621094 0.898438 3.597656 0.820312 C 3.578125 0.757812 3.566406 0.691406 3.574219 0.625 C 3.578125 0.59375 3.605469 0.527344 3.570312 0.507812 C 3.535156 0.484375 3.457031 0.535156 3.425781 0.546875 C 3.335938 0.585938 3.25 0.636719 3.164062 0.679688 C 3.039062 0.742188 2.894531 0.8125 2.824219 0.941406 C 2.761719 1.050781 2.730469 1.183594 2.730469 1.3125 C 2.730469 1.394531 2.746094 1.476562 2.769531 1.558594 C 2.773438 1.570312 2.8125 1.664062 2.808594 1.667969 C 2.777344 1.691406 2.75 1.714844 2.71875 1.738281 C 2.578125 1.847656 2.441406 1.960938 2.3125 2.085938 C 2.289062 2.105469 2.269531 2.125 2.25 2.144531 C 2.234375 2.15625 2.179688 2.113281 2.167969 2.105469 C 2.101562 2.0625 2.042969 2.007812 1.992188 1.945312 C 1.953125 1.894531 1.921875 1.835938 1.902344 1.769531 C 1.894531 1.738281 1.898438 1.652344 1.851562 1.652344 C 1.800781 1.648438 1.738281 1.734375 1.707031 1.769531 C 1.640625 1.835938 1.574219 1.902344 1.511719 1.976562 C 1.421875 2.078125 1.324219 2.179688 1.300781 2.320312 C 1.277344 2.484375 1.3125 2.65625 1.390625 2.800781 C 1.429688 2.875 1.480469 2.941406 1.539062 3 C 1.539062 3.011719 1.515625 3.039062 1.507812 3.046875 C 1.484375 3.085938 1.457031 3.125 1.433594 3.164062 C 1.339844 3.308594 1.261719 3.464844 1.183594 3.621094 C 1.164062 3.660156 1.144531 3.644531 1.101562 3.636719 C 1.0625 3.628906 1.023438 3.617188 0.988281 3.601562 C 0.921875 3.578125 0.859375 3.546875 0.808594 3.5 C 0.761719 3.464844 0.714844 3.414062 0.6875 3.359375 C 0.660156 3.300781 0.613281 3.300781 0.585938 3.359375 C 0.519531 3.507812 0.457031 3.652344 0.398438 3.800781 C 0.351562 3.910156 0.320312 4.027344 0.34375 4.144531 C 0.378906 4.304688 0.476562 4.457031 0.601562 4.5625 C 0.621094 4.578125 0.796875 4.691406 0.796875 4.691406 C 0.78125 4.761719 0.765625 4.828125 0.753906 4.898438 C 0.71875 5.066406 0.691406 5.238281 0.675781 5.410156 C 0.671875 5.449219 0.5 5.445312 0.460938 5.441406 C 0.390625 5.441406 0.324219 5.425781 0.261719 5.402344 C 0.199219 5.378906 0.15625 5.34375 0.109375 5.304688 C 0.0546875 5.257812 0.03125 5.324219 0.0273438 5.371094 C 0.015625 5.535156 0.00390625 5.699219 0 5.867188 C -0.00390625 5.988281 0.0195312 6.105469 0.09375 6.207031 C 0.191406 6.34375 0.347656 6.449219 0.507812 6.496094 C 0.550781 6.507812 0.59375 6.519531 0.636719 6.523438 C 0.671875 6.53125 0.679688 6.519531 0.683594 6.554688 C 0.695312 6.640625 0.703125 6.722656 0.71875 6.808594 C 0.734375 6.898438 0.75 6.984375 0.769531 7.074219 C 0.78125 7.113281 0.789062 7.152344 0.796875 7.191406 C 0.800781 7.207031 0.820312 7.25 0.8125 7.261719 C 0.683594 7.34375 0.53125 7.398438 0.375 7.378906 C 0.34375 7.375 0.3125 7.371094 0.28125 7.359375 C 0.261719 7.351562 0.242188 7.335938 0.21875 7.335938 C 0.148438 7.335938 0.191406 7.445312 0.199219 7.480469 C 0.28125 7.765625 0.332031 8.109375 0.625 8.246094 C 0.769531 8.316406 0.929688 8.34375 1.085938 8.320312 C 1.097656 8.320312 1.199219 8.296875 1.199219 8.300781 C 1.210938 8.320312 1.222656 8.34375 1.234375 8.363281 C 1.273438 8.445312 1.320312 8.527344 1.367188 8.605469 C 1.410156 8.683594 1.457031 8.753906 1.503906 8.828125 C 1.519531 8.859375 1.539062 8.886719 1.558594 8.914062 C 1.558594 8.917969 1.578125 8.9375 1.578125 8.941406 C 1.558594 8.964844 1.539062 8.988281 1.515625 9.011719 C 1.417969 9.113281 1.285156 9.199219 1.140625 9.210938 C 1.105469 9.214844 1.011719 9.195312 1.015625 9.253906 C 1.019531 9.308594 1.089844 9.378906 1.121094 9.421875 C 1.171875 9.496094 1.230469 9.570312 1.285156 9.640625 C 1.332031 9.699219 1.375 9.761719 1.433594 9.808594 C 1.546875 9.902344 1.675781 9.933594 1.820312 9.933594 C 1.90625 9.933594 1.992188 9.921875 2.070312 9.894531 C 2.101562 9.886719 2.292969 9.78125 2.296875 9.785156 C 2.417969 9.902344 2.546875 10.011719 2.679688 10.117188 C 2.738281 10.164062 2.796875 10.207031 2.855469 10.25 C 2.890625 10.273438 2.792969 10.429688 2.769531 10.460938 C 2.703125 10.5625 2.613281 10.640625 2.496094 10.683594 C 2.425781 10.699219 2.4375 10.75 2.484375 10.785156 C 2.550781 10.832031 2.613281 10.875 2.679688 10.917969 C 2.8125 11.003906 2.945312 11.105469 3.101562 11.144531 C 3.222656 11.175781 3.359375 11.144531 3.46875 11.097656 C 3.546875 11.0625 3.621094 11.019531 3.683594 10.960938 C 3.714844 10.9375 3.746094 10.90625 3.773438 10.875 C 3.785156 10.859375 3.800781 10.839844 3.8125 10.824219 C 3.832031 10.800781 3.828125 10.804688 3.855469 10.820312 C 4.015625 10.890625 4.179688 10.945312 4.34375 11 C 4.402344 11.019531 4.464844 11.039062 4.527344 11.054688 C 4.550781 11.0625 4.511719 11.269531 4.503906 11.296875 C 4.472656 11.410156 4.414062 11.503906 4.324219 11.582031 C 4.265625 11.621094 4.292969 11.664062 4.351562 11.679688 C 4.425781 11.703125 4.503906 11.722656 4.578125 11.738281 C 4.730469 11.773438 4.898438 11.828125 5.058594 11.808594 C 5.1875 11.792969 5.3125 11.707031 5.40625 11.617188 C 5.460938 11.558594 5.511719 11.492188 5.546875 11.417969 C 5.566406 11.382812 5.585938 11.34375 5.597656 11.304688 C 5.605469 11.28125 5.613281 11.261719 5.617188 11.238281 C 5.625 11.234375 5.65625 11.242188 5.667969 11.242188 C 5.8125 11.253906 5.960938 11.25 6.105469 11.246094 C 6.183594 11.246094 6.261719 11.242188 6.339844 11.234375 C 6.375 11.234375 6.367188 11.242188 6.378906 11.277344 C 6.398438 11.324219 6.410156 11.375 6.417969 11.421875 C 6.433594 11.546875 6.425781 11.6875 6.355469 11.792969 C 6.328125 11.835938 6.324219 11.882812 6.382812 11.882812 C 6.449219 11.886719 6.519531 11.875 6.582031 11.867188 C 6.738281 11.847656 6.90625 11.84375 7.054688 11.789062 C 7.179688 11.742188 7.265625 11.652344 7.335938 11.539062 C 7.429688 11.390625 7.464844 11.210938 7.449219 11.035156 C 7.460938 11.023438 7.511719 11.019531 7.527344 11.015625 C 7.5625 11.003906 7.597656 10.992188 7.636719 10.980469 C 7.730469 10.949219 7.820312 10.914062 7.910156 10.878906 C 7.984375 10.851562 8.054688 10.820312 8.125 10.789062 C 8.15625 10.773438 8.15625 10.785156 8.179688 10.8125 C 8.210938 10.851562 8.238281 10.894531 8.261719 10.9375 C 8.324219 11.046875 8.363281 11.183594 8.332031 11.304688 C 8.292969 11.464844 8.53125 11.320312 8.582031 11.292969 C 8.722656 11.21875 8.886719 11.15625 9.003906 11.046875 C 9.226562 10.847656 9.21875 10.46875 9.101562 10.21875 C 9.109375 10.203125 9.152344 10.183594 9.164062 10.171875 C 9.195312 10.148438 9.226562 10.125 9.253906 10.101562 C 9.332031 10.039062 9.40625 9.976562 9.480469 9.910156 C 9.539062 9.859375 9.59375 9.804688 9.652344 9.753906 C 9.675781 9.730469 9.679688 9.738281 9.710938 9.757812 C 9.75 9.78125 9.789062 9.808594 9.828125 9.839844 C 9.921875 9.921875 10.007812 10.039062 10.023438 10.167969 C 10.027344 10.230469 10.066406 10.253906 10.117188 10.207031 C 10.175781 10.15625 10.230469 10.09375 10.285156 10.039062 C 10.382812 9.933594 10.503906 9.824219 10.566406 9.691406 C 10.636719 9.550781 10.632812 9.394531 10.589844 9.246094 C 10.566406 9.164062 10.53125 9.085938 10.484375 9.019531 C 10.460938 8.984375 10.4375 8.949219 10.40625 8.917969 C 10.375 8.882812 10.371094 8.890625 10.398438 8.851562 C 10.492188 8.703125 10.585938 8.550781 10.667969 8.390625 C 10.683594 8.359375 10.699219 8.324219 10.71875 8.292969 C 10.734375 8.261719 10.734375 8.234375 10.769531 8.242188 C 10.851562 8.253906 10.933594 8.28125 11.007812 8.320312 C 11.0625 8.347656 11.113281 8.382812 11.15625 8.429688 C 11.179688 8.453125 11.199219 8.476562 11.214844 8.507812 C 11.226562 8.527344 11.234375 8.5625 11.261719 8.574219 C 11.308594 8.589844 11.332031 8.519531 11.34375 8.492188 C 11.382812 8.410156 11.421875 8.328125 11.453125 8.246094 C 11.503906 8.117188 11.570312 7.992188 11.578125 7.851562 C 11.585938 7.703125 11.515625 7.558594 11.425781 7.445312 C 11.378906 7.378906 11.316406 7.320312 11.246094 7.273438 C 11.210938 7.246094 11.175781 7.226562 11.136719 7.207031 C 11.105469 7.191406 11.121094 7.175781 11.128906 7.144531 C 11.175781 6.941406 11.207031 6.742188 11.230469 6.539062 C 11.234375 6.503906 11.226562 6.464844 11.261719 6.457031 C 11.3125 6.449219 11.363281 6.441406 11.414062 6.441406 C 11.496094 6.441406 11.578125 6.453125 11.652344 6.484375 C 11.691406 6.5 11.726562 6.519531 11.757812 6.542969 C 11.78125 6.558594 11.804688 6.589844 11.832031 6.597656 C 11.894531 6.613281 11.890625 6.5 11.890625 6.464844 C 11.90625 6.292969 11.921875 6.117188 11.914062 5.941406 Z M 4.136719 7.402344 C 4.085938 7.65625 3.992188 8.136719 3.902344 8.589844 C 3.777344 9.21875 3.308594 9.402344 2.984375 9.101562 C 2.679688 8.820312 2.414062 8.488281 2.195312 8.113281 C 1.980469 7.738281 1.828125 7.339844 1.734375 6.9375 C 1.636719 6.507812 2.027344 6.191406 2.636719 6.398438 C 3.074219 6.546875 3.539062 6.707031 3.785156 6.789062 C 3.917969 6.835938 4.023438 6.917969 4.09375 7.019531 C 4.148438 7.128906 4.164062 7.261719 4.136719 7.402344 Z M 4.09375 4.863281 C 4.023438 4.96875 3.917969 5.050781 3.785156 5.09375 C 3.539062 5.179688 3.074219 5.335938 2.636719 5.484375 C 2.027344 5.691406 1.636719 5.375 1.734375 4.945312 C 1.828125 4.542969 1.980469 4.148438 2.195312 3.769531 C 2.414062 3.394531 2.679688 3.066406 2.984375 2.78125 C 3.308594 2.480469 3.777344 2.664062 3.902344 3.296875 C 3.992188 3.746094 4.085938 4.230469 4.136719 4.484375 C 4.164062 4.621094 4.148438 4.753906 4.09375 4.863281 Z M 7.207031 10.097656 C 6.8125 10.21875 6.394531 10.285156 5.957031 10.285156 C 5.523438 10.285156 5.105469 10.21875 4.710938 10.097656 C 4.285156 9.96875 4.210938 9.46875 4.695312 9.046875 C 5.042969 8.742188 5.410156 8.417969 5.605469 8.25 C 5.710938 8.15625 5.835938 8.105469 5.957031 8.097656 C 6.082031 8.105469 6.203125 8.15625 6.3125 8.25 C 6.503906 8.417969 6.875 8.742188 7.222656 9.046875 C 7.707031 9.46875 7.628906 9.96875 7.207031 10.097656 Z M 4.554688 5.941406 C 4.554688 5.167969 5.183594 4.539062 5.957031 4.539062 C 6.734375 4.539062 7.363281 5.167969 7.363281 5.941406 C 7.363281 6.71875 6.734375 7.347656 5.957031 7.347656 C 5.183594 7.347656 4.554688 6.71875 4.554688 5.941406 Z M 7.222656 2.839844 C 6.875 3.140625 6.503906 3.464844 6.3125 3.636719 C 6.203125 3.730469 6.082031 3.78125 5.957031 3.789062 C 5.835938 3.78125 5.710938 3.730469 5.605469 3.636719 C 5.410156 3.464844 5.042969 3.140625 4.695312 2.839844 C 4.210938 2.414062 4.285156 1.914062 4.710938 1.785156 C 5.105469 1.664062 5.523438 1.601562 5.957031 1.597656 C 6.394531 1.601562 6.8125 1.664062 7.207031 1.785156 C 7.628906 1.914062 7.707031 2.414062 7.222656 2.839844 Z M 10.183594 6.9375 C 10.089844 7.339844 9.9375 7.738281 9.722656 8.113281 C 9.5 8.488281 9.234375 8.820312 8.933594 9.101562 C 8.609375 9.402344 8.140625 9.21875 8.015625 8.589844 C 7.925781 8.136719 7.828125 7.65625 7.777344 7.402344 C 7.75 7.261719 7.769531 7.128906 7.824219 7.019531 C 7.890625 6.917969 7.996094 6.835938 8.132812 6.789062 C 8.375 6.707031 8.84375 6.546875 9.277344 6.398438 C 9.886719 6.191406 10.28125 6.507812 10.183594 6.9375 Z M 9.277344 5.484375 C 8.84375 5.335938 8.375 5.179688 8.132812 5.09375 C 7.996094 5.050781 7.890625 4.96875 7.824219 4.863281 C 7.769531 4.753906 7.75 4.621094 7.777344 4.484375 C 7.828125 4.230469 7.925781 3.746094 8.015625 3.296875 C 8.140625 2.664062 8.609375 2.480469 8.933594 2.78125 C 9.234375 3.066406 9.5 3.394531 9.722656 3.769531 C 9.9375 4.148438 10.089844 4.542969 10.183594 4.945312 C 10.28125 5.375 9.886719 5.691406 9.277344 5.484375 Z M 9.277344 5.484375 "/>
</g>
</svg>
