<?xml version="1.0" encoding="UTF-8"?>
<svg xmlns="http://www.w3.org/2000/svg" xmlns:xlink="http://www.w3.org/1999/xlink" width="11" height="10.53378" viewBox="0 0 11 10.53378">
<path fill-rule="nonzero" fill="rgb(30%,30%,30%)" fill-opacity="1" d="M 4.796875 3.359375 L 4.914062 3.292969 L 4.984375 3.410156 L 4.863281 3.476562 Z M 4.796875 3.359375 "/>
<path fill-rule="nonzero" fill="rgb(30%,30%,30%)" fill-opacity="1" d="M 4.570312 3.488281 L 4.6875 3.421875 L 4.757812 3.539062 L 4.636719 3.605469 Z M 4.570312 3.488281 "/>
<path fill-rule="nonzero" fill="rgb(30%,30%,30%)" fill-opacity="1" d="M 4.71875 3.792969 C 4.714844 3.746094 4.710938 3.695312 4.703125 3.648438 L 4.566406 3.671875 C 4.574219 3.714844 4.578125 3.757812 4.582031 3.800781 Z M 4.71875 3.792969 "/>
<path fill-rule="nonzero" fill="rgb(30%,30%,30%)" fill-opacity="1" d="M 4.570312 4.046875 L 4.703125 4.066406 C 4.710938 4.019531 4.71875 3.972656 4.71875 3.921875 L 4.582031 3.917969 C 4.582031 3.960938 4.574219 4.003906 4.570312 4.046875 Z M 4.570312 4.046875 "/>
<path fill-rule="nonzero" fill="rgb(30%,30%,30%)" fill-opacity="1" d="M 4.683594 4.175781 L 4.550781 4.140625 C 4.539062 4.183594 4.527344 4.222656 4.511719 4.261719 L 4.640625 4.3125 C 4.65625 4.269531 4.671875 4.222656 4.683594 4.175781 Z M 4.683594 4.175781 "/>
<path fill-rule="nonzero" fill="rgb(30%,30%,30%)" fill-opacity="1" d="M 5.3125 7.628906 L 5.175781 7.625 C 5.171875 7.667969 5.167969 7.710938 5.164062 7.753906 L 5.300781 7.769531 C 5.304688 7.722656 5.308594 7.675781 5.3125 7.628906 Z M 5.3125 7.628906 "/>
<path fill-rule="nonzero" fill="rgb(30%,30%,30%)" fill-opacity="1" d="M 5.226562 8.136719 L 5.097656 8.097656 C 5.082031 8.144531 5.070312 8.1875 5.054688 8.226562 L 5.183594 8.273438 C 5.199219 8.230469 5.214844 8.1875 5.226562 8.136719 Z M 5.226562 8.136719 "/>
<path fill-rule="nonzero" fill="rgb(30%,30%,30%)" fill-opacity="1" d="M 5.304688 7.378906 L 5.167969 7.394531 C 5.171875 7.4375 5.175781 7.480469 5.175781 7.523438 L 5.3125 7.523438 C 5.3125 7.476562 5.308594 7.425781 5.304688 7.378906 Z M 5.304688 7.378906 "/>
<path fill-rule="nonzero" fill="rgb(30%,30%,30%)" fill-opacity="1" d="M 5.289062 7.875 L 5.152344 7.855469 C 5.144531 7.898438 5.136719 7.941406 5.125 7.984375 L 5.261719 8.015625 C 5.269531 7.96875 5.28125 7.921875 5.289062 7.875 Z M 5.289062 7.875 "/>
<path fill-rule="nonzero" fill="rgb(30%,30%,30%)" fill-opacity="1" d="M 4.441406 4.640625 L 4.339844 4.554688 C 4.3125 4.585938 4.28125 4.617188 4.25 4.644531 L 4.339844 4.746094 C 4.378906 4.714844 4.410156 4.679688 4.441406 4.640625 Z M 4.441406 4.640625 "/>
<path fill-rule="nonzero" fill="rgb(30%,30%,30%)" fill-opacity="1" d="M 4.132812 5.878906 C 4.171875 5.898438 4.210938 5.921875 4.246094 5.945312 L 4.316406 5.824219 C 4.277344 5.800781 4.234375 5.777344 4.191406 5.757812 Z M 4.132812 5.878906 "/>
<path fill-rule="nonzero" fill="rgb(30%,30%,30%)" fill-opacity="1" d="M 3.675781 5.71875 C 3.71875 5.726562 3.761719 5.738281 3.804688 5.75 L 3.84375 5.621094 C 3.796875 5.605469 3.753906 5.59375 3.707031 5.585938 Z M 3.675781 5.71875 "/>
<path fill-rule="nonzero" fill="rgb(30%,30%,30%)" fill-opacity="1" d="M 4.054688 4.960938 L 3.992188 4.839844 C 3.953125 4.859375 3.914062 4.875 3.871094 4.894531 L 3.921875 5.019531 C 3.96875 5 4.011719 4.980469 4.054688 4.960938 Z M 4.054688 4.960938 "/>
<path fill-rule="nonzero" fill="rgb(30%,30%,30%)" fill-opacity="1" d="M 5.082031 6.652344 L 4.960938 6.714844 L 4.972656 6.738281 C 4.988281 6.769531 5.003906 6.804688 5.019531 6.835938 L 5.144531 6.777344 C 5.128906 6.742188 5.109375 6.707031 5.09375 6.675781 Z M 5.082031 6.652344 "/>
<path fill-rule="nonzero" fill="rgb(30%,30%,30%)" fill-opacity="1" d="M 3.761719 4.933594 C 3.714844 4.949219 3.671875 4.960938 3.632812 4.972656 L 3.667969 5.105469 C 3.710938 5.09375 3.753906 5.078125 3.804688 5.0625 Z M 3.761719 4.933594 "/>
<path fill-rule="nonzero" fill="rgb(30%,30%,30%)" fill-opacity="1" d="M 3.917969 5.789062 C 3.960938 5.804688 4 5.820312 4.042969 5.835938 L 4.097656 5.710938 C 4.054688 5.691406 4.007812 5.675781 3.964844 5.660156 Z M 3.917969 5.789062 "/>
<path fill-rule="nonzero" fill="rgb(30%,30%,30%)" fill-opacity="1" d="M 3.449219 5.683594 C 3.492188 5.6875 3.535156 5.691406 3.578125 5.699219 L 3.601562 5.566406 C 3.554688 5.558594 3.503906 5.550781 3.460938 5.546875 Z M 3.449219 5.683594 "/>
<path fill-rule="nonzero" fill="rgb(30%,30%,30%)" fill-opacity="1" d="M 3.289062 5.492188 L 3.277344 5.648438 L 3.398438 5.644531 L 3.398438 5.5 Z M 3.289062 5.492188 "/>
<path fill-rule="nonzero" fill="rgb(30%,30%,30%)" fill-opacity="1" d="M 4.265625 4.820312 L 4.179688 4.71875 C 4.148438 4.742188 4.113281 4.769531 4.074219 4.792969 L 4.148438 4.90625 C 4.191406 4.878906 4.230469 4.851562 4.265625 4.820312 Z M 4.265625 4.820312 "/>
<path fill-rule="nonzero" fill="rgb(30%,30%,30%)" fill-opacity="1" d="M 3.496094 5.132812 L 3.507812 5.007812 C 3.453125 5.015625 3.414062 5.007812 3.378906 5.007812 L 3.367188 5.132812 C 3.414062 5.136719 3.4375 5.136719 3.496094 5.132812 Z M 3.496094 5.132812 "/>
<path fill-rule="nonzero" fill="rgb(30%,30%,30%)" fill-opacity="1" d="M 3.316406 5.367188 L 3.425781 5.378906 L 3.4375 5.242188 L 3.328125 5.230469 Z M 3.316406 5.367188 "/>
<path fill-rule="nonzero" fill="rgb(30%,30%,30%)" fill-opacity="1" d="M 7.28125 4.042969 C 7.28125 4.09375 7.28125 4.140625 7.28125 4.1875 L 7.417969 4.183594 C 7.417969 4.140625 7.417969 4.09375 7.417969 4.050781 Z M 7.28125 4.042969 "/>
<path fill-rule="nonzero" fill="rgb(30%,30%,30%)" fill-opacity="1" d="M 7.695312 3.183594 L 7.554688 3.128906 L 7.503906 3.230469 L 7.644531 3.285156 Z M 7.695312 3.183594 "/>
<path fill-rule="nonzero" fill="rgb(30%,30%,30%)" fill-opacity="1" d="M 7.730469 5.367188 L 7.835938 5.285156 C 7.808594 5.25 7.785156 5.214844 7.757812 5.175781 L 7.644531 5.253906 C 7.671875 5.292969 7.699219 5.332031 7.730469 5.367188 Z M 7.730469 5.367188 "/>
<path fill-rule="nonzero" fill="rgb(30%,30%,30%)" fill-opacity="1" d="M 7.558594 3.496094 C 7.578125 3.457031 7.597656 3.417969 7.621094 3.382812 L 7.503906 3.3125 C 7.476562 3.351562 7.457031 3.394531 7.433594 3.4375 Z M 7.558594 3.496094 "/>
<path fill-rule="nonzero" fill="rgb(30%,30%,30%)" fill-opacity="1" d="M 4.332031 5.996094 C 4.367188 6.019531 4.402344 6.046875 4.4375 6.074219 L 4.523438 5.96875 C 4.484375 5.9375 4.445312 5.910156 4.40625 5.882812 Z M 4.332031 5.996094 "/>
<path fill-rule="nonzero" fill="rgb(30%,30%,30%)" fill-opacity="1" d="M 7.3125 3.796875 C 7.304688 3.84375 7.296875 3.890625 7.292969 3.9375 L 7.425781 3.953125 C 7.433594 3.910156 7.4375 3.867188 7.449219 3.824219 Z M 7.3125 3.796875 "/>
<path fill-rule="nonzero" fill="rgb(30%,30%,30%)" fill-opacity="1" d="M 7.449219 4.429688 C 7.4375 4.386719 7.433594 4.34375 7.425781 4.300781 L 7.292969 4.316406 C 7.296875 4.363281 7.304688 4.410156 7.3125 4.457031 Z M 7.449219 4.429688 "/>
<path fill-rule="nonzero" fill="rgb(30%,30%,30%)" fill-opacity="1" d="M 8.824219 5.933594 C 8.785156 5.921875 8.742188 5.90625 8.699219 5.890625 L 8.648438 6.019531 C 8.695312 6.035156 8.738281 6.050781 8.78125 6.066406 Z M 8.824219 5.933594 "/>
<path fill-rule="nonzero" fill="rgb(30%,30%,30%)" fill-opacity="1" d="M 7.898438 5.550781 L 7.992188 5.453125 C 7.960938 5.421875 7.929688 5.390625 7.898438 5.359375 L 7.796875 5.449219 C 7.828125 5.484375 7.863281 5.519531 7.898438 5.550781 Z M 7.898438 5.550781 "/>
<path fill-rule="nonzero" fill="rgb(30%,30%,30%)" fill-opacity="1" d="M 8.378906 5.742188 C 8.339844 5.71875 8.304688 5.695312 8.265625 5.671875 L 8.191406 5.785156 C 8.230469 5.8125 8.269531 5.835938 8.3125 5.859375 Z M 8.378906 5.742188 "/>
<path fill-rule="nonzero" fill="rgb(30%,30%,30%)" fill-opacity="1" d="M 8.101562 5.726562 L 8.183594 5.613281 C 8.148438 5.589844 8.113281 5.5625 8.078125 5.535156 L 7.992188 5.636719 C 8.027344 5.667969 8.066406 5.699219 8.101562 5.726562 Z M 8.101562 5.726562 "/>
<path fill-rule="nonzero" fill="rgb(30%,30%,30%)" fill-opacity="1" d="M 5.058594 6.925781 C 5.074219 6.96875 5.089844 7.007812 5.101562 7.050781 L 5.230469 7.011719 C 5.21875 6.964844 5.203125 6.921875 5.183594 6.875 Z M 5.058594 6.925781 "/>
<path fill-rule="nonzero" fill="rgb(30%,30%,30%)" fill-opacity="1" d="M 5.257812 3.691406 C 5.363281 3.71875 5.425781 3.832031 5.398438 3.9375 C 5.367188 4.042969 5.257812 4.105469 5.152344 4.078125 C 5.046875 4.046875 4.980469 3.9375 5.011719 3.832031 C 5.039062 3.722656 5.152344 3.660156 5.257812 3.691406 Z M 5.257812 3.691406 "/>
<path fill-rule="nonzero" fill="rgb(30%,30%,30%)" fill-opacity="1" d="M 7.511719 3.605469 L 7.382812 3.554688 C 7.367188 3.601562 7.351562 3.644531 7.339844 3.691406 L 7.472656 3.730469 C 7.484375 3.6875 7.496094 3.644531 7.511719 3.605469 Z M 7.511719 3.605469 "/>
<path fill-rule="nonzero" fill="rgb(30%,30%,30%)" fill-opacity="1" d="M 5.289062 7.253906 C 5.28125 7.207031 5.269531 7.160156 5.261719 7.113281 L 5.128906 7.144531 C 5.136719 7.1875 5.144531 7.230469 5.152344 7.273438 Z M 5.289062 7.253906 "/>
<path fill-rule="nonzero" fill="rgb(30%,30%,30%)" fill-opacity="1" d="M 5.832031 3.460938 C 5.792969 3.445312 5.753906 3.425781 5.710938 3.40625 L 5.652344 3.53125 C 5.695312 3.550781 5.738281 3.570312 5.78125 3.589844 Z M 5.832031 3.460938 "/>
<path fill-rule="nonzero" fill="rgb(30%,30%,30%)" fill-opacity="1" d="M 5.449219 3.261719 C 5.414062 3.238281 5.375 3.214844 5.339844 3.191406 L 5.261719 3.304688 C 5.300781 3.332031 5.34375 3.359375 5.382812 3.378906 Z M 5.449219 3.261719 "/>
<path fill-rule="nonzero" fill="rgb(30%,30%,30%)" fill-opacity="1" d="M 7.472656 3.066406 L 7.335938 2.996094 L 7.277344 3.121094 L 7.414062 3.1875 Z M 7.472656 3.066406 "/>
<path fill-rule="nonzero" fill="rgb(30%,30%,30%)" fill-opacity="1" d="M 6.027344 3.515625 C 5.984375 3.507812 5.945312 3.5 5.902344 3.488281 L 5.863281 3.617188 C 5.910156 3.632812 5.957031 3.644531 6.003906 3.652344 Z M 6.027344 3.515625 "/>
<path fill-rule="nonzero" fill="rgb(30%,30%,30%)" fill-opacity="1" d="M 7.410156 4.796875 C 7.425781 4.839844 7.445312 4.882812 7.464844 4.925781 L 7.589844 4.871094 C 7.570312 4.828125 7.554688 4.789062 7.539062 4.746094 Z M 7.410156 4.796875 "/>
<path fill-rule="nonzero" fill="rgb(30%,30%,30%)" fill-opacity="1" d="M 6.261719 3.519531 C 6.222656 3.523438 6.183594 3.527344 6.140625 3.527344 L 6.136719 3.664062 C 6.1875 3.664062 6.238281 3.660156 6.285156 3.652344 Z M 6.261719 3.519531 "/>
<path fill-rule="nonzero" fill="rgb(30%,30%,30%)" fill-opacity="1" d="M 5.070312 3.199219 L 5.1875 3.128906 L 5.257812 3.25 L 5.136719 3.316406 Z M 5.070312 3.199219 "/>
<path fill-rule="nonzero" fill="rgb(30%,30%,30%)" fill-opacity="1" d="M 7.707031 8.28125 L 7.839844 8.308594 C 7.847656 8.292969 7.855469 8.25 7.871094 8.199219 L 7.738281 8.164062 C 7.722656 8.214844 7.714844 8.261719 7.707031 8.28125 Z M 7.707031 8.28125 "/>
<path fill-rule="nonzero" fill="rgb(30%,30%,30%)" fill-opacity="1" d="M 7.847656 7.832031 L 7.976562 7.882812 C 7.992188 7.84375 8.007812 7.800781 8.03125 7.761719 L 7.90625 7.703125 C 7.886719 7.746094 7.867188 7.789062 7.847656 7.832031 Z M 7.847656 7.832031 "/>
<path fill-rule="nonzero" fill="rgb(30%,30%,30%)" fill-opacity="1" d="M 7.765625 8.0625 L 7.898438 8.101562 C 7.910156 8.0625 7.921875 8.019531 7.9375 7.976562 L 7.808594 7.929688 C 7.792969 7.976562 7.777344 8.019531 7.765625 8.0625 Z M 7.765625 8.0625 "/>
<path fill-rule="nonzero" fill="rgb(30%,30%,30%)" fill-opacity="1" d="M 8.273438 7.195312 L 8.367188 7.296875 C 8.398438 7.265625 8.429688 7.238281 8.464844 7.210938 L 8.382812 7.101562 C 8.34375 7.132812 8.308594 7.164062 8.273438 7.195312 Z M 8.273438 7.195312 "/>
<path fill-rule="nonzero" fill="rgb(30%,30%,30%)" fill-opacity="1" d="M 7.964844 7.589844 L 8.085938 7.65625 C 8.105469 7.617188 8.128906 7.578125 8.15625 7.542969 L 8.039062 7.46875 C 8.015625 7.507812 7.988281 7.546875 7.964844 7.589844 Z M 7.964844 7.589844 "/>
<path fill-rule="nonzero" fill="rgb(30%,30%,30%)" fill-opacity="1" d="M 8.101562 7.382812 L 8.210938 7.464844 C 8.238281 7.429688 8.265625 7.398438 8.296875 7.363281 L 8.195312 7.269531 C 8.164062 7.304688 8.132812 7.34375 8.101562 7.382812 Z M 8.101562 7.382812 "/>
<path fill-rule="nonzero" fill="rgb(30%,30%,30%)" fill-opacity="1" d="M 7.386719 8.378906 C 7.433594 8.394531 7.476562 8.40625 7.511719 8.417969 L 7.558594 8.289062 C 7.515625 8.273438 7.46875 8.261719 7.421875 8.25 Z M 7.386719 8.378906 "/>
<path fill-rule="nonzero" fill="rgb(30%,30%,30%)" fill-opacity="1" d="M 7.46875 4.527344 L 7.335938 4.558594 C 7.347656 4.605469 7.359375 4.652344 7.375 4.695312 L 7.503906 4.652344 C 7.492188 4.609375 7.480469 4.570312 7.46875 4.527344 Z M 7.46875 4.527344 "/>
<path fill-rule="nonzero" fill="rgb(30%,30%,30%)" fill-opacity="1" d="M 7.691406 5.070312 C 7.675781 5.039062 7.65625 5.007812 7.640625 4.976562 L 7.519531 5.039062 C 7.535156 5.070312 7.554688 5.105469 7.574219 5.136719 L 7.589844 5.164062 L 7.707031 5.09375 Z M 7.691406 5.070312 "/>
<path fill-rule="nonzero" fill="rgb(30%,30%,30%)" fill-opacity="1" d="M 7.640625 8.464844 C 7.675781 8.484375 7.769531 8.496094 7.769531 8.496094 L 7.808594 8.371094 C 7.808594 8.371094 7.734375 8.359375 7.691406 8.335938 Z M 7.640625 8.464844 "/>
<path fill-rule="nonzero" fill="rgb(30%,30%,30%)" fill-opacity="1" d="M 8.917969 6.792969 L 8.972656 6.917969 C 9.015625 6.898438 9.058594 6.882812 9.09375 6.867188 L 9.046875 6.738281 C 9.007812 6.753906 8.964844 6.773438 8.917969 6.792969 Z M 8.917969 6.792969 "/>
<path fill-rule="nonzero" fill="rgb(30%,30%,30%)" fill-opacity="1" d="M 9.214844 6.351562 L 9.214844 6.214844 L 9.351562 6.214844 L 9.351562 6.351562 Z M 9.214844 6.351562 "/>
<path fill-rule="nonzero" fill="rgb(30%,30%,30%)" fill-opacity="1" d="M 9.210938 6.589844 L 9.210938 6.453125 L 9.351562 6.453125 L 9.347656 6.589844 Z M 9.210938 6.589844 "/>
<path fill-rule="nonzero" fill="rgb(30%,30%,30%)" fill-opacity="1" d="M 10.925781 6.980469 L 8.070312 1.4375 C 8.019531 1.339844 7.929688 1.265625 7.824219 1.230469 L 3.871094 0.0195312 C 3.765625 -0.015625 3.648438 -0.00390625 3.550781 0.046875 L 3.308594 0.171875 C 3.226562 0.214844 3.160156 0.285156 3.117188 0.375 C 2.964844 0.359375 2.796875 0.363281 2.617188 0.390625 C 2.125 0.46875 1.59375 0.722656 1.125 1.105469 C 0.65625 1.484375 0.296875 1.953125 0.121094 2.421875 C -0.0703125 2.925781 -0.0351562 3.375 0.21875 3.6875 C 0.421875 3.933594 0.738281 4.066406 1.125 4.066406 C 1.226562 4.066406 1.328125 4.054688 1.4375 4.039062 C 1.929688 3.960938 2.460938 3.707031 2.929688 3.324219 C 3.398438 2.945312 3.757812 2.476562 3.933594 2.007812 C 4.074219 1.632812 4.09375 1.289062 3.988281 1.011719 C 4.03125 1 4.078125 0.996094 4.125 0.996094 C 4.433594 1 4.679688 1.25 4.675781 1.554688 C 4.671875 1.863281 4.375 2.101562 4.070312 2.097656 C 3.996094 2.097656 3.847656 2.765625 2.996094 3.460938 C 2.765625 3.648438 2.257812 3.882812 2 4.007812 L 1.878906 4.339844 C 1.84375 4.445312 1.855469 4.554688 1.902344 4.652344 L 4.726562 10.171875 C 4.894531 10.5 5.292969 10.628906 5.621094 10.460938 L 10.640625 7.875 C 10.964844 7.707031 11.09375 7.308594 10.925781 6.980469 Z M 2.691406 3.03125 C 2.273438 3.371094 1.808594 3.597656 1.378906 3.664062 C 0.984375 3.726562 0.679688 3.648438 0.511719 3.445312 C 0.347656 3.242188 0.335938 2.925781 0.476562 2.554688 C 0.628906 2.148438 0.945312 1.738281 1.363281 1.398438 C 1.882812 0.976562 2.472656 0.742188 2.929688 0.742188 C 2.953125 0.742188 2.976562 0.746094 2.996094 0.746094 L 2.996094 0.753906 L 2.257812 3.199219 C 2.488281 3.089844 3.25 2.34375 3.492188 1.796875 C 3.394531 1.648438 3.449219 1.246094 3.664062 1.160156 C 3.769531 1.648438 3.382812 2.472656 2.691406 3.03125 Z M 9.582031 6.964844 C 9.582031 6.964844 8.789062 7.03125 8.363281 7.585938 C 7.984375 8.085938 7.957031 8.746094 7.957031 8.746094 C 7.957031 8.746094 7.40625 8.359375 6.761719 8.484375 C 6.113281 8.605469 5.589844 9.21875 5.589844 9.21875 L 4.539062 8.699219 C 4.539062 8.699219 5.253906 7.804688 4.738281 6.804688 C 4.160156 5.664062 3.144531 5.875 3.144531 5.875 L 3.160156 4.832031 C 3.160156 4.832031 3.792969 4.894531 4.074219 4.558594 C 4.667969 4.011719 4.230469 3.332031 4.230469 3.332031 L 5.195312 2.785156 C 5.195312 2.785156 5.824219 3.582031 6.378906 3.300781 C 6.933594 3.019531 7 2.667969 7 2.667969 L 7.925781 3.101562 C 7.925781 3.101562 7.296875 3.894531 7.914062 5.011719 C 8.480469 6.039062 9.582031 5.828125 9.582031 5.828125 Z M 9.582031 6.964844 "/>
<path fill-rule="nonzero" fill="rgb(30%,30%,30%)" fill-opacity="1" d="M 9.183594 6.015625 L 9.160156 6.144531 C 9.195312 6.15625 9.242188 6.167969 9.324219 6.15625 L 9.339844 6.019531 C 9.257812 6.03125 9.210938 6.027344 9.183594 6.015625 Z M 9.183594 6.015625 "/>
<path fill-rule="nonzero" fill="rgb(30%,30%,30%)" fill-opacity="1" d="M 9.167969 6.699219 L 9.207031 6.828125 C 9.261719 6.8125 9.292969 6.800781 9.339844 6.78125 L 9.308594 6.660156 C 9.308594 6.660156 9.226562 6.679688 9.167969 6.699219 Z M 9.167969 6.699219 "/>
<path fill-rule="nonzero" fill="rgb(30%,30%,30%)" fill-opacity="1" d="M 9.050781 5.996094 C 9.011719 5.984375 8.96875 5.976562 8.921875 5.960938 L 8.882812 6.09375 C 8.933594 6.109375 8.980469 6.121094 9.019531 6.128906 Z M 9.050781 5.996094 "/>
<path fill-rule="nonzero" fill="rgb(30%,30%,30%)" fill-opacity="1" d="M 8.695312 6.898438 L 8.761719 7.019531 C 8.800781 6.996094 8.839844 6.976562 8.878906 6.957031 L 8.820312 6.835938 C 8.78125 6.855469 8.738281 6.875 8.695312 6.898438 Z M 8.695312 6.898438 "/>
<path fill-rule="nonzero" fill="rgb(30%,30%,30%)" fill-opacity="1" d="M 4.472656 4.351562 C 4.453125 4.390625 4.433594 4.425781 4.410156 4.460938 L 4.523438 4.539062 C 4.550781 4.5 4.574219 4.457031 4.59375 4.414062 Z M 4.472656 4.351562 "/>
<path fill-rule="nonzero" fill="rgb(30%,30%,30%)" fill-opacity="1" d="M 8.585938 5.84375 C 8.546875 5.828125 8.507812 5.808594 8.46875 5.789062 L 8.40625 5.910156 C 8.449219 5.933594 8.488281 5.953125 8.53125 5.96875 Z M 8.585938 5.84375 "/>
<path fill-rule="nonzero" fill="rgb(30%,30%,30%)" fill-opacity="1" d="M 7.160156 8.332031 C 7.203125 8.339844 7.246094 8.347656 7.289062 8.355469 L 7.320312 8.222656 C 7.273438 8.210938 7.226562 8.203125 7.179688 8.199219 Z M 7.160156 8.332031 "/>
<path fill-rule="nonzero" fill="rgb(30%,30%,30%)" fill-opacity="1" d="M 8.484375 7.027344 L 8.5625 7.140625 C 8.597656 7.113281 8.636719 7.089844 8.675781 7.070312 L 8.605469 6.949219 C 8.5625 6.976562 8.523438 7 8.484375 7.027344 Z M 8.484375 7.027344 "/>
<path fill-rule="nonzero" fill="rgb(30%,30%,30%)" fill-opacity="1" d="M 5.34375 8.859375 L 5.457031 8.929688 L 5.53125 8.8125 L 5.417969 8.742188 Z M 5.34375 8.859375 "/>
<path fill-rule="nonzero" fill="rgb(30%,30%,30%)" fill-opacity="1" d="M 5.132812 8.746094 L 5.257812 8.8125 L 5.328125 8.695312 L 5.203125 8.628906 Z M 5.132812 8.746094 "/>
<path fill-rule="nonzero" fill="rgb(30%,30%,30%)" fill-opacity="1" d="M 5.019531 8.320312 C 5.003906 8.359375 4.984375 8.402344 4.964844 8.4375 L 5.085938 8.5 C 5.109375 8.460938 5.128906 8.417969 5.144531 8.371094 Z M 5.019531 8.320312 "/>
<path fill-rule="nonzero" fill="rgb(30%,30%,30%)" fill-opacity="1" d="M 5.5625 8.828125 L 5.660156 8.921875 C 5.683594 8.898438 5.714844 8.867188 5.757812 8.832031 L 5.664062 8.730469 C 5.621094 8.769531 5.585938 8.800781 5.5625 8.828125 Z M 5.5625 8.828125 "/>
<path fill-rule="nonzero" fill="rgb(30%,30%,30%)" fill-opacity="1" d="M 5.511719 3.308594 L 5.433594 3.421875 C 5.476562 3.449219 5.515625 3.472656 5.554688 3.496094 L 5.625 3.378906 C 5.585938 3.355469 5.546875 3.332031 5.511719 3.308594 Z M 5.511719 3.308594 "/>
<path fill-rule="nonzero" fill="rgb(30%,30%,30%)" fill-opacity="1" d="M 5.761719 8.648438 L 5.847656 8.753906 C 5.878906 8.726562 5.914062 8.699219 5.953125 8.671875 L 5.871094 8.5625 C 5.832031 8.589844 5.796875 8.621094 5.761719 8.648438 Z M 5.761719 8.648438 "/>
<path fill-rule="nonzero" fill="rgb(30%,30%,30%)" fill-opacity="1" d="M 4.792969 6.226562 L 4.691406 6.316406 C 4.71875 6.347656 4.746094 6.382812 4.773438 6.417969 L 4.882812 6.335938 C 4.855469 6.296875 4.824219 6.261719 4.792969 6.226562 Z M 4.792969 6.226562 "/>
<path fill-rule="nonzero" fill="rgb(30%,30%,30%)" fill-opacity="1" d="M 4.621094 6.050781 L 4.527344 6.152344 C 4.558594 6.179688 4.59375 6.210938 4.621094 6.242188 L 4.722656 6.148438 C 4.6875 6.113281 4.65625 6.082031 4.621094 6.050781 Z M 4.621094 6.050781 "/>
<path fill-rule="nonzero" fill="rgb(30%,30%,30%)" fill-opacity="1" d="M 4.890625 8.636719 L 5.011719 8.695312 L 5.085938 8.578125 L 4.960938 8.519531 Z M 4.890625 8.636719 "/>
<path fill-rule="nonzero" fill="rgb(30%,30%,30%)" fill-opacity="1" d="M 4.945312 6.421875 L 4.832031 6.5 C 4.855469 6.535156 4.878906 6.574219 4.902344 6.609375 L 5.019531 6.542969 C 4.996094 6.5 4.96875 6.460938 4.945312 6.421875 Z M 4.945312 6.421875 "/>
<path fill-rule="nonzero" fill="rgb(30%,30%,30%)" fill-opacity="1" d="M 7.101562 2.859375 L 7.042969 2.984375 L 7.148438 3.046875 L 7.210938 2.921875 Z M 7.101562 2.859375 "/>
<path fill-rule="nonzero" fill="rgb(30%,30%,30%)" fill-opacity="1" d="M 6.910156 8.316406 C 6.953125 8.316406 7 8.316406 7.042969 8.320312 L 7.050781 8.183594 C 7.003906 8.179688 6.957031 8.179688 6.910156 8.179688 Z M 6.910156 8.316406 "/>
<path fill-rule="nonzero" fill="rgb(30%,30%,30%)" fill-opacity="1" d="M 6.957031 3.269531 L 6.855469 3.175781 C 6.828125 3.207031 6.796875 3.238281 6.761719 3.265625 L 6.851562 3.371094 C 6.886719 3.339844 6.921875 3.304688 6.957031 3.269531 Z M 6.957031 3.269531 "/>
<path fill-rule="nonzero" fill="rgb(30%,30%,30%)" fill-opacity="1" d="M 6.921875 3.101562 L 7.027344 3.191406 C 7.058594 3.152344 7.085938 3.109375 7.113281 3.070312 L 6.996094 3 C 6.972656 3.035156 6.949219 3.070312 6.921875 3.101562 Z M 6.921875 3.101562 "/>
<path fill-rule="nonzero" fill="rgb(30%,30%,30%)" fill-opacity="1" d="M 6.660156 8.199219 L 6.683594 8.335938 C 6.726562 8.328125 6.769531 8.320312 6.8125 8.320312 L 6.804688 8.183594 C 6.753906 8.1875 6.707031 8.191406 6.660156 8.199219 Z M 6.660156 8.199219 "/>
<path fill-rule="nonzero" fill="rgb(30%,30%,30%)" fill-opacity="1" d="M 6.472656 3.449219 C 6.433594 3.464844 6.394531 3.484375 6.351562 3.496094 L 6.394531 3.625 C 6.441406 3.609375 6.484375 3.59375 6.53125 3.574219 Z M 6.472656 3.449219 "/>
<path fill-rule="nonzero" fill="rgb(30%,30%,30%)" fill-opacity="1" d="M 6.171875 8.371094 L 6.234375 8.492188 C 6.273438 8.472656 6.3125 8.453125 6.351562 8.4375 L 6.296875 8.308594 C 6.253906 8.328125 6.210938 8.351562 6.171875 8.371094 Z M 6.171875 8.371094 "/>
<path fill-rule="nonzero" fill="rgb(30%,30%,30%)" fill-opacity="1" d="M 6.671875 3.335938 C 6.640625 3.359375 6.609375 3.378906 6.578125 3.398438 L 6.558594 3.40625 L 6.625 3.527344 L 6.644531 3.515625 C 6.679688 3.496094 6.714844 3.472656 6.75 3.449219 Z M 6.671875 3.335938 "/>
<path fill-rule="nonzero" fill="rgb(30%,30%,30%)" fill-opacity="1" d="M 5.957031 8.5 L 6.035156 8.613281 C 6.070312 8.589844 6.109375 8.566406 6.148438 8.542969 L 6.078125 8.425781 C 6.035156 8.449219 5.996094 8.476562 5.957031 8.5 Z M 5.957031 8.5 "/>
<path fill-rule="nonzero" fill="rgb(30%,30%,30%)" fill-opacity="1" d="M 6.417969 8.261719 L 6.460938 8.390625 C 6.503906 8.378906 6.546875 8.363281 6.585938 8.355469 L 6.554688 8.222656 C 6.507812 8.230469 6.464844 8.246094 6.417969 8.261719 Z M 6.417969 8.261719 "/>
</svg>
