<?xml version="1.0" encoding="UTF-8" standalone="no"?>
<!-- Created with Inkscape (http://www.inkscape.org/) -->

<svg
   xmlns:dc="http://purl.org/dc/elements/1.1/"
   xmlns:cc="http://creativecommons.org/ns#"
   xmlns:rdf="http://www.w3.org/1999/02/22-rdf-syntax-ns#"
   xmlns:svg="http://www.w3.org/2000/svg"
   xmlns="http://www.w3.org/2000/svg"
   xmlns:xlink="http://www.w3.org/1999/xlink"
   xmlns:sodipodi="http://sodipodi.sourceforge.net/DTD/sodipodi-0.dtd"
   xmlns:inkscape="http://www.inkscape.org/namespaces/inkscape"
   width="30px"
   height="30px"
   version="1.1"
   id="svg8"
   inkscape:version="0.92.4 5da689c313, 2019-01-14"
   sodipodi:docname="container.svg">
  <defs
     id="defs2" />
  <sodipodi:namedview
     id="base"
     pagecolor="#ffffff"
     bordercolor="#666666"
     borderopacity="1.0"
     inkscape:pageopacity="0.0"
     inkscape:pageshadow="2"
     inkscape:zoom="13.049334"
     inkscape:cx="18.679046"
     inkscape:cy="12.165829"
     inkscape:document-units="px"
     inkscape:current-layer="layer1"
     showgrid="false"
     inkscape:snap-page="false"
     units="px"
     inkscape:window-width="1884"
     inkscape:window-height="1061"
     inkscape:window-x="0"
     inkscape:window-y="0"
     inkscape:window-maximized="1"
     fit-margin-top="0"
     fit-margin-left="0"
     fit-margin-right="0"
     fit-margin-bottom="0" />
  <metadata
     id="metadata5">
    <rdf:RDF>
      <cc:Work
         rdf:about="">
        <dc:format>image/svg+xml</dc:format>
        <dc:type
           rdf:resource="http://purl.org/dc/dcmitype/StillImage" />
        <dc:title></dc:title>
      </cc:Work>
    </rdf:RDF>
  </metadata>
    <circle
       style="color:#000000;clip-rule:nonzero;display:inline;overflow:visible;visibility:visible;opacity:1;isolation:auto;mix-blend-mode:normal;color-interpolation:sRGB;color-interpolation-filters:linearRGB;solid-color:#000000;solid-opacity:1;vector-effect:none;fill:#c58511;fill-opacity:1;fill-rule:evenodd;stroke:#ffffff;stroke-width:1;stroke-linecap:butt;stroke-linejoin:miter;stroke-miterlimit:4;stroke-dasharray:none;stroke-dashoffset:0;stroke-opacity:1;marker:none;color-rendering:auto;image-rendering:auto;shape-rendering:auto;text-rendering:auto;enable-background:accumulate"
       id="path815"
       cx="15"
       cy="15"
       r="14.5" />
<g transform="translate(9.5,6.5)"><path fill-rule="nonzero" fill="#FFFFFF" fill-opacity="1" d="M 2.972656 13.644531 L 8.085938 13.644531 C 8.296875 13.644531 8.464844 13.8125 8.464844 14.023438 L 8.464844 14.089844 C 8.464844 14.300781 8.296875 14.46875 8.085938 14.46875 L 2.972656 14.46875 C 2.761719 14.46875 2.589844 14.300781 2.589844 14.089844 L 2.589844 14.023438 C 2.589844 13.8125 2.761719 13.644531 2.972656 13.644531 Z M 2.972656 13.644531 "/>
<path fill-rule="nonzero" fill="#FFFFFF" fill-opacity="1" d="M 7.480469 14.726562 L 3.507812 14.726562 C 3.308594 14.726562 3.144531 14.890625 3.144531 15.089844 L 3.144531 15.300781 C 3.144531 15.5 3.308594 15.664062 3.507812 15.664062 L 3.730469 15.664062 C 3.730469 15.671875 3.730469 15.679688 3.730469 15.6875 C 3.730469 16.414062 4.535156 17 5.527344 17 C 6.523438 17 7.328125 16.414062 7.328125 15.6875 C 7.328125 15.679688 7.328125 15.671875 7.324219 15.664062 L 7.480469 15.664062 C 7.679688 15.664062 7.84375 15.5 7.84375 15.300781 L 7.84375 15.089844 C 7.84375 14.890625 7.679688 14.726562 7.480469 14.726562 Z M 7.480469 14.726562 "/>
<path fill-rule="nonzero" fill="#FFFFFF" fill-opacity="1" d="M 10.933594 5.117188 C 10.933594 3.46875 9.429688 0.078125 5.742188 0 C 2 -0.0742188 0.300781 2.589844 0.0742188 4.660156 C -0.117188 6.433594 -0.0859375 8.335938 1.976562 10 C 2.722656 10.601562 2.917969 13.371094 2.917969 13.371094 L 7.996094 13.371094 C 7.996094 13.371094 7.78125 11.246094 9.195312 9.707031 C 10.589844 8.191406 10.933594 7.507812 10.933594 5.117188 Z M 5.550781 11.730469 L 5.429688 6.753906 L 3.183594 7.296875 L 5.125 1.042969 L 5.246094 5.234375 L 8.039062 5.050781 Z M 5.550781 11.730469 "/>
</g>
</svg>
