<?xml version="1.0" encoding="UTF-8"?>
<svg xmlns="http://www.w3.org/2000/svg" xmlns:xlink="http://www.w3.org/1999/xlink" width="11" height="10.034875" viewBox="0 0 11 10.034875">
<path fill-rule="nonzero" fill="rgb(30%,30%,30%)" fill-opacity="1" d="M 0 5.789062 L 0.00390625 8.460938 L 2.300781 8.433594 C 2.574219 8.433594 2.8125 8.601562 2.917969 8.660156 L 5.3125 10 C 5.347656 10.019531 5.386719 10.03125 5.429688 10.03125 L 8.335938 10.03125 C 8.359375 10.03125 8.4375 10.039062 8.457031 10.03125 C 8.738281 9.894531 10.511719 9.097656 10.851562 8.851562 C 11.140625 8.644531 10.953125 8.039062 10.402344 8.132812 L 8.324219 8.546875 C 8.324219 8.546875 8.515625 9.210938 8.023438 9.183594 C 7.355469 9.148438 5.835938 8.761719 5.835938 8.761719 C 5.835938 8.761719 4.96875 8.160156 4.679688 7.921875 C 4.628906 7.875 4.484375 7.78125 4.582031 7.671875 C 4.671875 7.570312 4.804688 7.664062 4.820312 7.675781 L 5.917969 8.449219 C 5.972656 8.488281 6.03125 8.515625 6.09375 8.53125 L 6.730469 8.691406 C 7.015625 8.761719 7.976562 8.957031 8.03125 8.855469 C 8.128906 8.675781 8.105469 8.195312 7.519531 7.894531 C 7.136719 7.695312 6.816406 7.554688 6.632812 7.476562 C 6.527344 7.429688 6.4375 7.355469 6.378906 7.253906 C 6.128906 6.847656 5.601562 5.707031 4.382812 5.691406 C 1.921875 5.652344 2.320312 5.8125 0 5.789062 Z M 0 5.789062 "/>
<path fill-rule="nonzero" fill="rgb(30%,30%,30%)" fill-opacity="1" d="M 11 4.246094 L 10.996094 1.574219 L 8.699219 1.601562 C 8.425781 1.601562 8.1875 1.433594 8.082031 1.375 L 5.6875 0.0351562 C 5.652344 0.015625 5.613281 0.00390625 5.570312 0.00390625 L 2.664062 0.00390625 C 2.640625 0.00390625 2.5625 -0.00390625 2.542969 0.00390625 C 2.261719 0.140625 0.488281 0.9375 0.148438 1.183594 C -0.140625 1.390625 0.046875 1.996094 0.597656 1.902344 L 2.675781 1.488281 C 2.675781 1.488281 2.484375 0.824219 2.976562 0.851562 C 3.644531 0.886719 5.164062 1.273438 5.164062 1.273438 C 5.164062 1.273438 6.03125 1.875 6.320312 2.113281 C 6.371094 2.160156 6.515625 2.253906 6.417969 2.363281 C 6.328125 2.464844 6.195312 2.371094 6.179688 2.359375 L 5.082031 1.585938 C 5.027344 1.546875 4.96875 1.519531 4.90625 1.503906 L 4.269531 1.34375 C 3.984375 1.273438 3.023438 1.078125 2.96875 1.179688 C 2.871094 1.359375 2.894531 1.839844 3.480469 2.140625 C 3.863281 2.339844 4.183594 2.480469 4.367188 2.558594 C 4.472656 2.605469 4.5625 2.679688 4.621094 2.78125 C 4.871094 3.1875 5.398438 4.328125 6.617188 4.34375 C 9.078125 4.382812 8.679688 4.222656 11 4.246094 Z M 11 4.246094 "/>
</svg>
