<?xml version="1.0" encoding="UTF-8"?>
<svg xmlns="http://www.w3.org/2000/svg" xmlns:xlink="http://www.w3.org/1999/xlink" width="8.883216" height="11" viewBox="0 0 8.883216 11">
<path fill-rule="nonzero" fill="rgb(30%,30%,30%)" fill-opacity="1" d="M 6.246094 6.167969 L 1 2.191406 C 0.703125 1.964844 0.652344 1.546875 0.890625 1.261719 L 1.730469 0.25 C 1.96875 -0.0351562 2.40625 -0.0820312 2.703125 0.144531 L 7.949219 4.121094 C 8.246094 4.347656 8.296875 4.765625 8.0625 5.046875 L 7.21875 6.058594 C 6.980469 6.34375 6.542969 6.394531 6.246094 6.167969 Z M 6.246094 6.167969 "/>
<path fill-rule="nonzero" fill="rgb(30%,30%,30%)" fill-opacity="1" d="M 8.742188 5.972656 L 8.738281 5.972656 L 8.742188 5.972656 L 8.640625 5.890625 L 8.414062 5.710938 L 8.035156 5.410156 L 7.488281 6.074219 L 7.882812 6.390625 L 6.898438 7.652344 L 4.359375 5.753906 C 4.121094 5.578125 3.785156 5.628906 3.613281 5.867188 L 3.605469 5.859375 L 3.273438 6.300781 C 3.113281 6.210938 2.90625 6.253906 2.796875 6.40625 L 0.0546875 10.140625 C -0.0351562 10.261719 -0.0117188 10.433594 0.109375 10.523438 L 0.691406 10.945312 C 0.8125 11.035156 0.984375 11.011719 1.070312 10.890625 L 3.816406 7.152344 C 3.925781 7.003906 3.90625 6.796875 3.773438 6.671875 L 3.960938 6.425781 L 6.796875 8.566406 C 6.929688 8.671875 7.128906 8.652344 7.234375 8.515625 L 8.800781 6.507812 C 8.929688 6.34375 8.902344 6.105469 8.742188 5.972656 Z M 8.742188 5.972656 "/>
</svg>
