<?xml version="1.0" encoding="UTF-8"?>
<svg xmlns="http://www.w3.org/2000/svg" xmlns:xlink="http://www.w3.org/1999/xlink" width="5.283399" height="11" viewBox="0 0 5.283399 11">
<path fill-rule="nonzero" fill="rgb(30%,30%,30%)" fill-opacity="1" d="M 5.257812 8.585938 C 5.191406 7.78125 4.050781 7.644531 4.050781 6.976562 C 4.050781 6.5 5.257812 5.164062 5.257812 4.089844 C 5.257812 3.285156 4.453125 3.085938 3.78125 2.75 C 3.566406 2.640625 3.511719 1.609375 3.511719 1.609375 L 2.910156 1.609375 L 2.910156 1.230469 C 3.195312 1.117188 3.359375 0.816406 3.300781 0.515625 C 3.242188 0.21875 2.980469 0 2.675781 0 C 2.664062 0 2.652344 0 2.640625 0 C 2.628906 0 2.621094 0 2.609375 0 C 2.300781 0 2.039062 0.21875 1.980469 0.515625 C 1.925781 0.816406 2.089844 1.117188 2.375 1.230469 L 2.375 1.609375 L 1.769531 1.609375 C 1.769531 1.609375 1.71875 2.640625 1.5 2.75 C 0.832031 3.085938 0.0273438 3.285156 0.0273438 4.089844 C 0.0273438 5.164062 1.234375 6.5 1.234375 6.976562 C 1.234375 7.644531 0.09375 7.78125 0.0273438 8.585938 C -0.03125 9.285156 0.0273438 9.925781 0.0273438 9.925781 L 2.171875 9.925781 L 2.171875 11 L 3.109375 11 L 3.109375 9.925781 L 5.257812 9.925781 C 5.257812 9.925781 5.316406 9.285156 5.257812 8.585938 Z M 5.257812 8.585938 "/>
</svg>
