<?xml version="1.0" encoding="UTF-8"?>
<svg xmlns="http://www.w3.org/2000/svg" xmlns:xlink="http://www.w3.org/1999/xlink" width="10.80761" height="11" viewBox="0 0 10.80761 11">
<path fill-rule="nonzero" fill="rgb(30%,30%,30%)" fill-opacity="1" d="M 0 0 L 4.765625 0 L 4.765625 4.730469 L 0 4.730469 Z M 0 0 "/>
<path fill-rule="nonzero" fill="rgb(30%,30%,30%)" fill-opacity="1" d="M 0 5.683594 L 4.765625 5.683594 L 4.765625 10.46875 L 0 10.46875 Z M 0 5.683594 "/>
<path fill-rule="nonzero" fill="rgb(30%,30%,30%)" fill-opacity="1" d="M 8.617188 10.628906 C 7.652344 10.386719 6.066406 9.660156 6.203125 9.285156 C 6.234375 9.199219 6.296875 9.148438 6.417969 9.164062 C 6.863281 9.226562 7.773438 9.828125 7.878906 9.53125 C 8.027344 9.128906 5.5 8.796875 5.757812 8.09375 C 5.933594 7.617188 7.136719 8.375 7.425781 8.449219 C 7.535156 8.480469 7.796875 8.589844 7.976562 8.65625 C 8.175781 8.730469 8.261719 8.503906 8.117188 8.421875 C 8.054688 8.386719 7.636719 8.1875 6.957031 7.9375 C 6.582031 7.796875 5.539062 7.5 5.683594 7.066406 C 5.796875 6.710938 6.3125 6.902344 7.308594 7.296875 C 7.96875 7.558594 8.175781 7.644531 8.328125 7.699219 C 8.554688 7.785156 8.574219 7.617188 8.492188 7.5625 C 8.292969 7.429688 7.765625 7.238281 7.375 7.035156 C 6.984375 6.832031 6.710938 6.675781 6.773438 6.5 C 6.933594 6.074219 7.363281 6.292969 8.082031 6.585938 C 8.851562 6.898438 9.734375 7.363281 9.734375 7.363281 C 9.734375 7.363281 8.847656 6.429688 9.089844 6.101562 C 9.203125 5.941406 9.519531 5.996094 9.761719 6.207031 C 10.117188 6.511719 10.484375 6.847656 10.808594 7.1875 L 10.808594 5.683594 L 5.429688 5.683594 L 5.429688 11 L 10.808594 11 L 10.808594 10.996094 C 10.382812 10.945312 9.867188 10.867188 9.242188 10.757812 C 9.035156 10.722656 8.824219 10.683594 8.617188 10.628906 Z M 8.617188 10.628906 "/>
<path fill-rule="nonzero" fill="rgb(30%,30%,30%)" fill-opacity="1" d="M 5.429688 0 L 10.269531 0 L 10.269531 4.730469 L 5.429688 4.730469 Z M 5.429688 0 "/>
</svg>
