<?xml version="1.0" encoding="UTF-8"?>
<svg xmlns="http://www.w3.org/2000/svg" xmlns:xlink="http://www.w3.org/1999/xlink" width="11" height="9.766681" viewBox="0 0 11 9.766681">
<path fill-rule="nonzero" fill="rgb(30%,30%,30%)" fill-opacity="1" d="M 6.667969 2.589844 L 6.347656 4.082031 C 6.347656 4.082031 8.019531 4.757812 8.335938 4.855469 C 8.585938 4.933594 9.210938 5.113281 10.308594 5.164062 C 10.445312 5.167969 10.574219 5.097656 10.613281 4.96875 L 11 3.742188 C 11 3.742188 7.878906 2.648438 7.402344 2.609375 C 6.789062 2.558594 6.667969 2.589844 6.667969 2.589844 Z M 6.667969 2.589844 "/>
<path fill-rule="nonzero" fill="rgb(30%,30%,30%)" fill-opacity="1" d="M 7.660156 5.054688 C 7.660156 5.054688 8.117188 5.273438 8.21875 5.292969 C 8.316406 5.3125 8.636719 5.292969 8.636719 5.292969 L 7.421875 9.726562 C 7.421875 9.726562 6.945312 9.804688 6.847656 9.746094 C 6.746094 9.683594 6.488281 9.445312 6.488281 9.445312 Z M 7.660156 5.054688 "/>
<path fill-rule="nonzero" fill="rgb(30%,30%,30%)" fill-opacity="1" d="M 3.683594 5.589844 L 5.847656 4.554688 C 5.847656 4.554688 6.066406 4.632812 6.226562 4.535156 C 6.296875 4.488281 6.265625 4 6.007812 3.699219 C 5.792969 3.453125 5.550781 3.5625 5.589844 3.738281 C 5.621094 3.875 3.324219 4.8125 3.324219 4.8125 L 2.828125 5.609375 Z M 3.683594 5.589844 "/>
<path fill-rule="nonzero" fill="rgb(30%,30%,30%)" fill-opacity="1" d="M 5.074219 9.042969 L 4.34375 9.042969 C 4.34375 9.042969 5.191406 7.476562 4.777344 6.144531 C 4.769531 6.019531 4.691406 5.820312 4.59375 5.601562 C 4.308594 5.71875 3.976562 5.855469 3.921875 5.867188 C 3.820312 5.886719 2.429688 5.90625 2.429688 5.90625 L 3.363281 4.476562 L 4.085938 4.160156 C 4.097656 4.007812 4.125 3.839844 4.183594 3.6875 C 4.230469 3.550781 4.304688 3.445312 4.410156 3.40625 C 4.640625 3.328125 4.90625 2.953125 5.003906 2.546875 C 5.105469 2.144531 4.992188 1.609375 4.980469 1.316406 C 4.957031 0.722656 3.570312 0.535156 3.570312 0.535156 L 3.546875 0.0273438 L 2.109375 0 L 1.90625 0.132812 L 1.90625 0.5625 C 1.90625 0.5625 1.722656 0.75 1.085938 0.992188 C 0.449219 1.234375 0.0507812 1.765625 0.0507812 1.765625 C 0.0507812 1.765625 -0.0546875 3.464844 0.0390625 3.8125 C 0.152344 4.242188 0.8125 4.050781 0.8125 4.050781 L 0.972656 4.992188 C 0.972656 4.992188 0.660156 5.910156 0.492188 7.027344 C 0.382812 7.773438 1.039062 9.042969 1.039062 9.042969 L 0.113281 9.042969 L 0.113281 9.523438 L 5.074219 9.523438 Z M 5.074219 9.042969 "/>
</svg>
