<?xml version="1.0" encoding="UTF-8" standalone="no"?>
<!-- Created with Inkscape (http://www.inkscape.org/) -->

<svg
   xmlns:dc="http://purl.org/dc/elements/1.1/"
   xmlns:cc="http://creativecommons.org/ns#"
   xmlns:rdf="http://www.w3.org/1999/02/22-rdf-syntax-ns#"
   xmlns:svg="http://www.w3.org/2000/svg"
   xmlns="http://www.w3.org/2000/svg"
   xmlns:xlink="http://www.w3.org/1999/xlink"
   xmlns:sodipodi="http://sodipodi.sourceforge.net/DTD/sodipodi-0.dtd"
   xmlns:inkscape="http://www.inkscape.org/namespaces/inkscape"
   width="30px"
   height="30px"
   version="1.1"
   id="svg8"
   inkscape:version="0.92.4 5da689c313, 2019-01-14"
   sodipodi:docname="container.svg">
  <defs
     id="defs2" />
  <sodipodi:namedview
     id="base"
     pagecolor="#ffffff"
     bordercolor="#666666"
     borderopacity="1.0"
     inkscape:pageopacity="0.0"
     inkscape:pageshadow="2"
     inkscape:zoom="13.049334"
     inkscape:cx="18.679046"
     inkscape:cy="12.165829"
     inkscape:document-units="px"
     inkscape:current-layer="layer1"
     showgrid="false"
     inkscape:snap-page="false"
     units="px"
     inkscape:window-width="1884"
     inkscape:window-height="1061"
     inkscape:window-x="0"
     inkscape:window-y="0"
     inkscape:window-maximized="1"
     fit-margin-top="0"
     fit-margin-left="0"
     fit-margin-right="0"
     fit-margin-bottom="0" />
  <metadata
     id="metadata5">
    <rdf:RDF>
      <cc:Work
         rdf:about="">
        <dc:format>image/svg+xml</dc:format>
        <dc:type
           rdf:resource="http://purl.org/dc/dcmitype/StillImage" />
        <dc:title></dc:title>
      </cc:Work>
    </rdf:RDF>
  </metadata>
    <circle
       style="color:#000000;clip-rule:nonzero;display:inline;overflow:visible;visibility:visible;opacity:1;isolation:auto;mix-blend-mode:normal;color-interpolation:sRGB;color-interpolation-filters:linearRGB;solid-color:#000000;solid-opacity:1;vector-effect:none;fill:#c58511;fill-opacity:1;fill-rule:evenodd;stroke:#ffffff;stroke-width:1;stroke-linecap:butt;stroke-linejoin:miter;stroke-miterlimit:4;stroke-dasharray:none;stroke-dashoffset:0;stroke-opacity:1;marker:none;color-rendering:auto;image-rendering:auto;shape-rendering:auto;text-rendering:auto;enable-background:accumulate"
       id="path815"
       cx="15"
       cy="15"
       r="14.5" />
<g transform="translate(6.5,7.5)"><path fill-rule="nonzero" fill="#FFFFFF" fill-opacity="1" d="M 10.304688 4.003906 L 9.8125 6.304688 C 9.8125 6.304688 12.394531 7.351562 12.882812 7.503906 C 13.269531 7.625 14.234375 7.902344 15.929688 7.980469 C 16.140625 7.988281 16.339844 7.878906 16.402344 7.675781 L 17 5.785156 C 17 5.785156 12.179688 4.09375 11.441406 4.035156 C 10.488281 3.953125 10.304688 4.003906 10.304688 4.003906 Z M 10.304688 4.003906 "/>
<path fill-rule="nonzero" fill="#FFFFFF" fill-opacity="1" d="M 11.839844 7.8125 C 11.839844 7.8125 12.546875 8.148438 12.699219 8.179688 C 12.855469 8.210938 13.34375 8.179688 13.34375 8.179688 L 11.472656 15.027344 C 11.472656 15.027344 10.734375 15.152344 10.582031 15.058594 C 10.425781 14.96875 10.027344 14.597656 10.027344 14.597656 Z M 11.839844 7.8125 "/>
<path fill-rule="nonzero" fill="#FFFFFF" fill-opacity="1" d="M 5.691406 8.636719 L 9.039062 7.039062 C 9.039062 7.039062 9.375 7.160156 9.621094 7.007812 C 9.730469 6.9375 9.683594 6.179688 9.285156 5.71875 C 8.953125 5.335938 8.578125 5.503906 8.636719 5.78125 C 8.683594 5.988281 5.136719 7.4375 5.136719 7.4375 L 4.371094 8.667969 Z M 5.691406 8.636719 "/>
<path fill-rule="nonzero" fill="#FFFFFF" fill-opacity="1" d="M 7.839844 13.972656 L 6.714844 13.972656 C 6.714844 13.972656 8.023438 11.554688 7.382812 9.496094 C 7.371094 9.304688 7.253906 8.992188 7.097656 8.660156 C 6.660156 8.839844 6.144531 9.046875 6.058594 9.066406 C 5.90625 9.097656 3.753906 9.128906 3.753906 9.128906 L 5.199219 6.914062 L 6.316406 6.429688 C 6.332031 6.195312 6.375 5.9375 6.464844 5.695312 C 6.539062 5.484375 6.652344 5.324219 6.820312 5.265625 C 7.171875 5.140625 7.582031 4.5625 7.734375 3.9375 C 7.886719 3.316406 7.714844 2.488281 7.699219 2.03125 C 7.664062 1.121094 5.515625 0.828125 5.515625 0.828125 L 5.480469 0.0429688 L 3.261719 0 L 2.945312 0.207031 L 2.945312 0.871094 C 2.945312 0.871094 2.664062 1.160156 1.675781 1.535156 C 0.691406 1.90625 0.078125 2.726562 0.078125 2.726562 C 0.078125 2.726562 -0.0820312 5.351562 0.0585938 5.890625 C 0.234375 6.554688 1.253906 6.261719 1.253906 6.261719 L 1.5 7.710938 C 1.5 7.710938 1.015625 9.136719 0.761719 10.863281 C 0.589844 12.015625 1.605469 13.972656 1.605469 13.972656 L 0.175781 13.972656 L 0.175781 14.714844 L 7.839844 14.714844 Z M 7.839844 13.972656 "/>
</g>
</svg>
