<?xml version="1.0" encoding="UTF-8"?>
<svg xmlns="http://www.w3.org/2000/svg" xmlns:xlink="http://www.w3.org/1999/xlink" width="9.74942" height="11" viewBox="0 0 9.74942 11">
<path fill-rule="nonzero" fill="rgb(30%,30%,30%)" fill-opacity="1" d="M 4.007812 0 L 5.871094 0 C 5.871094 0 6.125 1.683594 7.171875 1.734375 C 8.21875 1.785156 8.601562 1.328125 8.601562 1.328125 L 9.597656 2.730469 C 9.597656 2.730469 8.015625 3.367188 7.988281 5.511719 C 7.960938 7.476562 9.75 8.089844 9.75 8.089844 L 8.804688 9.75 C 8.804688 9.75 7.589844 9.191406 6.507812 9.648438 C 5.539062 10.054688 4.953125 11 4.953125 11 C 4.953125 11 4.464844 9.980469 3.421875 9.621094 C 2.375 9.265625 1.097656 9.722656 1.097656 9.722656 L 0 8.089844 C 0 8.089844 1.785156 7.375 1.863281 5.488281 C 1.964844 3.34375 0.304688 2.808594 0.304688 2.808594 L 1.199219 1.300781 C 1.199219 1.300781 2.066406 1.914062 2.757812 1.660156 C 4.082031 1.351562 4.007812 0 4.007812 0 Z M 4.996094 10.324219 C 4.996094 10.324219 4.949219 10.25 4.863281 10.140625 L 4.679688 10.28125 C 4.761719 10.382812 4.800781 10.449219 4.804688 10.449219 Z M 5.277344 10.128906 L 5.113281 9.96875 C 5.050781 10.03125 4.996094 10.089844 4.953125 10.140625 L 5.125 10.292969 C 5.167969 10.246094 5.21875 10.1875 5.277344 10.128906 Z M 4.746094 10.003906 C 4.695312 9.941406 4.640625 9.882812 4.582031 9.828125 L 4.421875 9.992188 C 4.476562 10.046875 4.527344 10.101562 4.574219 10.15625 Z M 5.5625 9.859375 L 5.414062 9.683594 C 5.351562 9.738281 5.292969 9.789062 5.238281 9.84375 L 5.398438 10.007812 C 5.449219 9.960938 5.503906 9.910156 5.5625 9.859375 Z M 4.453125 9.707031 C 4.394531 9.652344 4.332031 9.601562 4.269531 9.554688 L 4.128906 9.734375 C 4.1875 9.78125 4.246094 9.828125 4.300781 9.878906 Z M 5.875 9.621094 L 5.746094 9.433594 C 5.679688 9.476562 5.613281 9.523438 5.554688 9.570312 L 5.695312 9.753906 C 5.75 9.710938 5.8125 9.664062 5.875 9.621094 Z M 4.097656 9.425781 C 4.03125 9.382812 3.960938 9.339844 3.894531 9.300781 L 3.78125 9.5 C 3.84375 9.535156 3.90625 9.574219 3.96875 9.617188 Z M 6.238281 9.410156 L 6.136719 9.203125 C 6.066406 9.238281 5.996094 9.277344 5.925781 9.316406 L 6.042969 9.515625 C 6.105469 9.476562 6.171875 9.441406 6.238281 9.410156 Z M 3.734375 9.21875 C 3.660156 9.183594 3.585938 9.152344 3.511719 9.125 L 3.433594 9.339844 C 3.5 9.363281 3.566406 9.394531 3.632812 9.425781 Z M 1.664062 9.296875 L 1.617188 9.070312 C 1.519531 9.09375 1.441406 9.113281 1.386719 9.128906 L 1.449219 9.347656 C 1.5 9.335938 1.574219 9.316406 1.664062 9.296875 Z M 6.59375 9.265625 L 6.527344 9.042969 C 6.449219 9.070312 6.371094 9.097656 6.296875 9.128906 L 6.390625 9.339844 C 6.453125 9.3125 6.523438 9.285156 6.59375 9.265625 Z M 3.339844 9.066406 C 3.261719 9.046875 3.183594 9.027344 3.101562 9.015625 L 3.0625 9.242188 C 3.136719 9.253906 3.207031 9.269531 3.277344 9.289062 Z M 8.65625 9.074219 C 8.65625 9.074219 8.523438 9.035156 8.417969 9.011719 L 8.371094 9.238281 C 8.464844 9.257812 8.515625 9.273438 8.601562 9.28125 Z M 2.085938 9.226562 L 2.058594 8.996094 C 1.976562 9.007812 1.898438 9.019531 1.824219 9.03125 L 1.863281 9.257812 C 1.933594 9.246094 2.007812 9.234375 2.085938 9.226562 Z M 1.351562 9.082031 L 1.246094 8.882812 L 1.042969 8.996094 L 1.148438 9.191406 Z M 6.96875 9.179688 L 6.9375 8.953125 C 6.855469 8.964844 6.777344 8.980469 6.699219 8.996094 L 6.753906 9.222656 C 6.820312 9.207031 6.894531 9.191406 6.96875 9.179688 Z M 2.890625 8.984375 C 2.8125 8.976562 2.730469 8.972656 2.652344 8.96875 L 2.644531 9.199219 C 2.71875 9.203125 2.792969 9.207031 2.867188 9.214844 Z M 2.476562 9.199219 L 2.472656 8.96875 C 2.390625 8.96875 2.3125 8.972656 2.234375 8.980469 L 2.253906 9.210938 C 2.328125 9.203125 2.402344 9.199219 2.476562 9.199219 Z M 8.210938 8.976562 C 8.140625 8.964844 8.0625 8.953125 7.976562 8.945312 L 7.949219 9.171875 C 8.03125 9.179688 8.105469 9.191406 8.171875 9.203125 Z M 7.390625 9.144531 L 7.386719 8.914062 C 7.308594 8.917969 7.230469 8.921875 7.148438 8.929688 L 7.167969 9.15625 C 7.242188 9.152344 7.316406 9.148438 7.390625 9.144531 Z M 7.800781 8.925781 C 7.722656 8.921875 7.644531 8.917969 7.5625 8.914062 L 7.558594 9.144531 C 7.636719 9.148438 7.710938 9.152344 7.78125 9.15625 Z M 8.886719 8.808594 L 8.691406 8.695312 L 8.574219 8.894531 L 8.773438 9.007812 Z M 1.15625 8.742188 L 1.023438 8.539062 L 0.824219 8.652344 L 0.953125 8.851562 Z M 9.089844 8.460938 L 8.894531 8.347656 L 8.777344 8.546875 L 8.976562 8.660156 Z M 0.894531 8.367188 L 0.765625 8.175781 L 0.5625 8.289062 L 0.695312 8.480469 Z M 9.234375 8.164062 C 9.105469 8.117188 9.042969 8.070312 9.011719 8.035156 L 8.871094 8.203125 C 8.910156 8.242188 8.96875 8.300781 9.097656 8.351562 Z M 1.15625 8.117188 L 1.015625 7.933594 C 0.957031 7.980469 0.894531 8.023438 0.835938 8.066406 L 0.964844 8.257812 C 1.027344 8.214844 1.09375 8.167969 1.15625 8.117188 Z M 8.832031 7.890625 C 8.78125 7.84375 8.726562 7.792969 8.671875 7.734375 L 8.507812 7.898438 C 8.566406 7.957031 8.625 8.011719 8.679688 8.0625 Z M 1.472656 7.84375 L 1.3125 7.679688 C 1.253906 7.734375 1.199219 7.785156 1.144531 7.828125 L 1.296875 8.003906 C 1.351562 7.957031 1.410156 7.902344 1.472656 7.84375 Z M 8.554688 7.613281 C 8.503906 7.5625 8.457031 7.503906 8.40625 7.445312 L 8.230469 7.589844 C 8.28125 7.65625 8.332031 7.714844 8.382812 7.769531 Z M 1.777344 7.507812 L 1.597656 7.367188 C 1.546875 7.425781 1.5 7.480469 1.449219 7.535156 L 1.621094 7.691406 C 1.675781 7.632812 1.726562 7.570312 1.777344 7.507812 Z M 8.28125 7.285156 C 8.238281 7.226562 8.195312 7.167969 8.152344 7.101562 L 7.960938 7.230469 C 8.003906 7.296875 8.050781 7.363281 8.097656 7.425781 Z M 2.015625 7.167969 L 1.820312 7.046875 C 1.78125 7.109375 1.738281 7.171875 1.695312 7.234375 L 1.882812 7.367188 C 1.929688 7.304688 1.976562 7.234375 2.015625 7.167969 Z M 8.0625 6.960938 C 8.027344 6.898438 7.992188 6.832031 7.957031 6.765625 L 7.75 6.871094 C 7.789062 6.941406 7.828125 7.011719 7.867188 7.078125 Z M 2.210938 6.800781 L 2.003906 6.707031 C 1.972656 6.773438 1.9375 6.839844 1.902344 6.902344 L 2.105469 7.015625 C 2.144531 6.945312 2.179688 6.875 2.210938 6.800781 Z M 7.882812 6.617188 C 7.851562 6.546875 7.824219 6.480469 7.800781 6.410156 L 7.582031 6.488281 C 7.609375 6.5625 7.640625 6.636719 7.671875 6.710938 Z M 2.367188 6.375 L 2.148438 6.3125 C 2.128906 6.382812 2.105469 6.453125 2.078125 6.523438 L 2.292969 6.601562 C 2.320312 6.527344 2.347656 6.449219 2.367188 6.375 Z M 7.738281 6.222656 C 7.714844 6.148438 7.695312 6.078125 7.683594 6.007812 L 7.457031 6.054688 C 7.472656 6.132812 7.492188 6.210938 7.515625 6.285156 Z M 2.457031 5.964844 L 2.230469 5.933594 C 2.21875 6.007812 2.203125 6.078125 2.1875 6.152344 L 2.414062 6.203125 C 2.429688 6.125 2.445312 6.046875 2.457031 5.964844 Z M 7.652344 5.84375 C 7.640625 5.769531 7.632812 5.699219 7.625 5.625 L 7.398438 5.640625 C 7.402344 5.722656 7.414062 5.800781 7.425781 5.878906 Z M 2.488281 5.59375 L 2.492188 5.554688 L 2.261719 5.542969 L 2.257812 5.585938 C 2.257812 5.648438 2.253906 5.707031 2.246094 5.769531 L 2.476562 5.789062 C 2.484375 5.722656 2.488281 5.660156 2.488281 5.59375 Z M 7.617188 5.457031 L 7.617188 5.410156 C 7.617188 5.351562 7.621094 5.292969 7.621094 5.234375 L 7.390625 5.226562 C 7.390625 5.285156 7.386719 5.347656 7.386719 5.410156 L 7.390625 5.460938 Z M 2.492188 5.339844 C 2.492188 5.257812 2.488281 5.179688 2.480469 5.101562 L 2.253906 5.121094 C 2.257812 5.191406 2.261719 5.265625 2.261719 5.34375 Z M 7.664062 4.8125 L 7.433594 4.777344 C 7.421875 4.851562 7.414062 4.933594 7.40625 5.011719 L 7.636719 5.035156 C 7.640625 4.957031 7.652344 4.882812 7.664062 4.8125 Z M 2.464844 4.925781 C 2.453125 4.847656 2.441406 4.769531 2.425781 4.691406 L 2.199219 4.734375 C 2.214844 4.808594 2.226562 4.882812 2.234375 4.953125 Z M 7.742188 4.433594 L 7.523438 4.371094 C 7.5 4.445312 7.480469 4.523438 7.464844 4.601562 L 7.691406 4.648438 C 7.707031 4.574219 7.722656 4.503906 7.742188 4.433594 Z M 2.386719 4.515625 C 2.367188 4.441406 2.34375 4.363281 2.316406 4.289062 L 2.097656 4.359375 C 2.121094 4.429688 2.144531 4.503906 2.160156 4.574219 Z M 7.871094 4.066406 L 7.660156 3.976562 C 7.628906 4.050781 7.601562 4.125 7.574219 4.199219 L 7.792969 4.273438 C 7.816406 4.203125 7.84375 4.132812 7.871094 4.066406 Z M 2.242188 4.085938 C 2.214844 4.011719 2.179688 3.941406 2.144531 3.867188 L 1.9375 3.972656 C 1.972656 4.039062 2.003906 4.105469 2.03125 4.171875 Z M 8.066406 3.699219 L 7.871094 3.574219 C 7.828125 3.640625 7.789062 3.710938 7.753906 3.78125 L 7.957031 3.886719 C 7.992188 3.824219 8.027344 3.757812 8.066406 3.699219 Z M 2.0625 3.710938 C 2.023438 3.640625 1.980469 3.574219 1.9375 3.507812 L 1.746094 3.636719 C 1.785156 3.695312 1.824219 3.761719 1.859375 3.824219 Z M 8.296875 3.390625 L 8.125 3.238281 C 8.070312 3.296875 8.019531 3.359375 7.972656 3.425781 L 8.160156 3.5625 C 8.203125 3.5 8.25 3.445312 8.296875 3.390625 Z M 1.835938 3.359375 C 1.789062 3.296875 1.738281 3.234375 1.6875 3.175781 L 1.511719 3.324219 C 1.558594 3.378906 1.605469 3.4375 1.648438 3.5 Z M 8.574219 3.121094 L 8.425781 2.945312 C 8.363281 2.996094 8.304688 3.050781 8.246094 3.105469 L 8.410156 3.269531 C 8.460938 3.21875 8.515625 3.167969 8.574219 3.121094 Z M 1.542969 3.015625 C 1.488281 2.960938 1.429688 2.902344 1.371094 2.851562 L 1.214844 3.023438 C 1.269531 3.070312 1.324219 3.125 1.375 3.175781 Z M 8.914062 2.886719 L 8.804688 2.683594 C 8.734375 2.722656 8.664062 2.765625 8.597656 2.8125 L 8.730469 3.003906 C 8.789062 2.960938 8.851562 2.921875 8.914062 2.886719 Z M 1.234375 2.734375 C 1.167969 2.683594 1.105469 2.632812 1.042969 2.589844 L 0.910156 2.78125 C 0.96875 2.820312 1.03125 2.867188 1.089844 2.914062 Z M 9.191406 2.65625 L 9.03125 2.460938 L 8.871094 2.570312 L 9.03125 2.765625 Z M 0.988281 2.472656 L 0.835938 2.367188 L 0.691406 2.585938 L 0.871094 2.683594 Z M 8.964844 2.300781 L 8.820312 2.085938 L 8.632812 2.21875 L 8.773438 2.433594 Z M 1.261719 2.128906 L 1.113281 2.015625 L 0.980469 2.207031 L 1.132812 2.320312 Z M 7.585938 2.261719 L 7.566406 2.03125 C 7.503906 2.039062 7.441406 2.039062 7.378906 2.039062 L 7.347656 2.039062 L 7.34375 2.269531 L 7.378906 2.269531 C 7.449219 2.269531 7.519531 2.269531 7.585938 2.261719 Z M 7.183594 2.03125 C 7.113281 2.023438 7.039062 2.015625 6.96875 2 L 6.925781 2.226562 C 7.003906 2.242188 7.082031 2.253906 7.164062 2.261719 Z M 8.039062 2.171875 L 7.972656 1.953125 C 7.902344 1.972656 7.832031 1.992188 7.761719 2.003906 L 7.804688 2.230469 C 7.882812 2.214844 7.960938 2.195312 8.039062 2.171875 Z M 2.824219 2.203125 L 2.78125 1.976562 C 2.710938 1.988281 2.640625 1.996094 2.570312 2 L 2.578125 2.230469 C 2.660156 2.226562 2.742188 2.21875 2.824219 2.203125 Z M 2.40625 2 C 2.335938 1.996094 2.261719 1.988281 2.1875 1.976562 L 2.15625 2.207031 C 2.238281 2.21875 2.320312 2.226562 2.394531 2.230469 Z M 6.820312 1.957031 C 6.753906 1.933594 6.691406 1.902344 6.632812 1.867188 L 6.515625 2.066406 C 6.585938 2.109375 6.664062 2.144531 6.742188 2.175781 Z M 1.988281 1.945312 C 1.914062 1.929688 1.839844 1.910156 1.773438 1.894531 L 1.714844 2.117188 C 1.785156 2.136719 1.863281 2.152344 1.945312 2.171875 Z M 3.226562 2.085938 L 3.148438 1.871094 C 3.082031 1.894531 3.011719 1.914062 2.941406 1.929688 L 2.996094 2.15625 C 3.074219 2.136719 3.152344 2.113281 3.226562 2.085938 Z M 8.699219 1.871094 L 8.589844 1.695312 L 8.402344 1.824219 L 8.507812 2.003906 Z M 8.433594 2.011719 L 8.324219 1.808594 C 8.257812 1.84375 8.195312 1.871094 8.125 1.898438 L 8.210938 2.113281 C 8.285156 2.082031 8.359375 2.050781 8.433594 2.011719 Z M 1.574219 1.851562 C 1.472656 1.832031 1.417969 1.765625 1.371094 1.734375 L 1.25 1.910156 C 1.316406 1.957031 1.347656 1.972656 1.449219 2.023438 Z M 3.640625 1.878906 L 3.515625 1.6875 C 3.457031 1.726562 3.394531 1.761719 3.328125 1.792969 L 3.429688 2 C 3.503906 1.964844 3.574219 1.925781 3.640625 1.878906 Z M 6.476562 1.757812 C 6.421875 1.714844 6.367188 1.664062 6.320312 1.613281 L 6.152344 1.769531 C 6.207031 1.832031 6.269531 1.886719 6.332031 1.9375 Z M 3.96875 1.601562 L 3.800781 1.445312 C 3.753906 1.496094 3.699219 1.546875 3.644531 1.589844 L 3.789062 1.769531 C 3.851562 1.71875 3.914062 1.664062 3.96875 1.601562 Z M 6.210938 1.488281 C 6.167969 1.433594 6.121094 1.375 6.082031 1.3125 L 5.890625 1.441406 C 5.933594 1.507812 5.984375 1.574219 6.03125 1.632812 Z M 4.230469 1.265625 L 4.035156 1.144531 C 3.996094 1.207031 3.953125 1.265625 3.910156 1.320312 L 4.089844 1.464844 C 4.140625 1.402344 4.1875 1.335938 4.230469 1.265625 Z M 5.992188 1.171875 C 5.953125 1.109375 5.917969 1.042969 5.882812 0.976562 L 5.679688 1.078125 C 5.714844 1.152344 5.753906 1.222656 5.792969 1.289062 Z M 4.433594 0.855469 L 4.21875 0.773438 C 4.191406 0.839844 4.164062 0.90625 4.128906 0.972656 L 4.335938 1.074219 C 4.371094 1.003906 4.40625 0.929688 4.433594 0.855469 Z M 5.808594 0.828125 C 5.757812 0.703125 5.730469 0.632812 5.722656 0.621094 L 5.503906 0.699219 C 5.515625 0.710938 5.546875 0.789062 5.597656 0.921875 Z M 5.464844 0.464844 L 5.238281 0.464844 L 5.238281 0.695312 L 5.464844 0.695312 Z M 5.0625 0.464844 L 4.832031 0.464844 L 4.832031 0.695312 L 5.0625 0.695312 Z M 4.625 0.464844 L 4.394531 0.464844 L 4.394531 0.695312 L 4.625 0.695312 Z M 4.625 0.464844 "/>
</svg>
