<?xml version="1.0" encoding="UTF-8"?>
<svg xmlns="http://www.w3.org/2000/svg" xmlns:xlink="http://www.w3.org/1999/xlink" width="11" height="10.209921" viewBox="0 0 11 10.209921">
<path fill-rule="nonzero" fill="rgb(30%,30%,30%)" fill-opacity="1" d="M 10.414062 5.847656 C 9.929688 5.847656 6.261719 5.824219 6.261719 5.824219 L 4.984375 6.492188 L 3.597656 6.527344 L 3.5625 5.847656 L 1.292969 5.847656 L 1.292969 4.742188 L 1.496094 4.742188 C 1.613281 4.742188 1.703125 4.648438 1.703125 4.535156 L 1.703125 4.484375 C 1.703125 4.371094 1.613281 4.277344 1.496094 4.277344 L 0.648438 4.277344 C 0.53125 4.277344 0.441406 4.371094 0.441406 4.484375 L 0.441406 4.535156 C 0.441406 4.648438 0.53125 4.742188 0.648438 4.742188 L 0.792969 4.742188 L 0.792969 5.847656 L 0.40625 5.847656 C 0.40625 5.847656 -0.226562 7.050781 0.0898438 8.191406 C 0.390625 9.28125 0.988281 10.050781 0.988281 10.050781 C 0.988281 10.050781 2.894531 9.296875 4.292969 10.207031 C 4.308594 10.21875 4.414062 10.164062 4.578125 10.070312 L 4.296875 9.625 C 4.25 9.550781 4.246094 9.453125 4.285156 9.371094 C 4.328125 9.289062 4.410156 9.238281 4.503906 9.234375 C 4.59375 9.230469 4.679688 9.273438 4.730469 9.351562 L 5.015625 9.800781 C 5.234375 9.664062 5.488281 9.5 5.746094 9.332031 L 5.429688 8.835938 C 5.351562 8.71875 5.386719 8.558594 5.507812 8.484375 C 5.625 8.410156 5.78125 8.445312 5.859375 8.5625 L 6.171875 9.054688 C 6.359375 8.933594 6.539062 8.8125 6.707031 8.703125 L 6.375 8.179688 C 6.300781 8.0625 6.335938 7.90625 6.453125 7.828125 C 6.574219 7.753906 6.730469 7.789062 6.804688 7.90625 L 7.136719 8.421875 C 7.394531 8.253906 7.570312 8.140625 7.597656 8.132812 C 7.707031 8.09375 10.246094 7.414062 10.671875 7.183594 C 11.3125 6.835938 10.902344 5.847656 10.414062 5.847656 Z M 10.414062 5.847656 "/>
<path fill-rule="nonzero" fill="rgb(30%,30%,30%)" fill-opacity="1" d="M 2.386719 3.945312 L 3.699219 3.425781 C 3.808594 3.382812 3.9375 3.4375 3.980469 3.546875 C 4.027344 3.660156 3.96875 3.789062 3.859375 3.832031 L 2.546875 4.351562 C 2.433594 4.394531 2.308594 4.339844 2.265625 4.226562 C 2.21875 4.117188 2.273438 3.988281 2.386719 3.945312 Z M 2.386719 3.945312 "/>
<path fill-rule="nonzero" fill="rgb(30%,30%,30%)" fill-opacity="1" d="M 2.511719 4.59375 L 3.878906 4.941406 C 3.996094 4.972656 4.066406 5.089844 4.035156 5.207031 C 4.007812 5.324219 3.886719 5.394531 3.769531 5.367188 L 2.40625 5.015625 C 2.289062 4.988281 2.21875 4.867188 2.246094 4.75 C 2.277344 4.632812 2.398438 4.5625 2.511719 4.59375 Z M 2.511719 4.59375 "/>
<path fill-rule="nonzero" fill="rgb(30%,30%,30%)" fill-opacity="1" d="M 7.300781 1.242188 L 2.0625 1.242188 L 2.0625 0.371094 C 2.0625 0.167969 1.898438 0 1.691406 0 L 0.410156 0 C 0.203125 0 0.0390625 0.167969 0.0390625 0.371094 L 0.0390625 3.191406 C 0.0390625 3.394531 0.203125 3.5625 0.410156 3.5625 L 1.691406 3.5625 C 1.898438 3.5625 2.0625 3.394531 2.0625 3.191406 L 2.0625 2.40625 L 7.300781 2.40625 Z M 7.300781 1.242188 "/>
</svg>
