<?xml version="1.0" encoding="UTF-8"?>
<svg xmlns="http://www.w3.org/2000/svg" xmlns:xlink="http://www.w3.org/1999/xlink" width="10.87352" height="11" viewBox="0 0 10.87352 11">
<path fill-rule="nonzero" fill="rgb(30%,30%,30%)" fill-opacity="1" d="M 7.855469 7.453125 L 6.527344 5.125 C 6.691406 4.902344 6.816406 4.640625 6.882812 4.355469 C 7.140625 3.234375 6.441406 2.113281 5.316406 1.855469 C 4.195312 1.597656 3.078125 2.296875 2.816406 3.417969 C 2.558594 4.542969 3.261719 5.660156 4.382812 5.917969 C 4.648438 5.980469 4.914062 5.988281 5.167969 5.945312 L 5.324219 6.285156 L 5.820312 6.421875 L 5.671875 6.820312 L 6.054688 6.894531 L 5.996094 7.328125 L 6.691406 8.285156 L 7.683594 8.382812 Z M 4.394531 3.882812 C 4.097656 3.816406 3.914062 3.523438 3.984375 3.230469 C 4.050781 2.933594 4.34375 2.75 4.636719 2.820312 C 4.929688 2.886719 5.113281 3.179688 5.046875 3.472656 C 4.980469 3.769531 4.6875 3.953125 4.394531 3.882812 Z M 4.394531 3.882812 "/>
<path fill-rule="nonzero" fill="rgb(30%,30%,30%)" fill-opacity="1" d="M 0.621094 11 C 0.441406 11 0.222656 10.960938 0.101562 10.773438 C -0.0195312 10.585938 -0.0117188 10.300781 0.289062 10.101562 C 0.296875 10.09375 0.484375 9.960938 0.644531 9.207031 C 0.722656 8.835938 0.761719 8.464844 0.78125 8.242188 C 0.269531 7.394531 0 6.429688 0 5.4375 C 0 4.703125 0.144531 3.992188 0.425781 3.320312 C 0.703125 2.671875 1.09375 2.089844 1.59375 1.59375 C 2.089844 1.09375 2.671875 0.703125 3.320312 0.425781 C 3.992188 0.144531 4.703125 0 5.4375 0 C 6.171875 0 6.882812 0.144531 7.554688 0.425781 C 8.199219 0.703125 8.78125 1.09375 9.28125 1.59375 C 9.78125 2.089844 10.171875 2.671875 10.445312 3.320312 C 10.730469 3.992188 10.875 4.703125 10.875 5.4375 C 10.875 6.171875 10.730469 6.882812 10.445312 7.554688 C 10.171875 8.199219 9.78125 8.78125 9.28125 9.28125 C 8.78125 9.78125 8.199219 10.171875 7.554688 10.445312 C 6.882812 10.730469 6.171875 10.875 5.4375 10.875 C 4.617188 10.875 3.804688 10.6875 3.070312 10.332031 C 2.527344 10.617188 1.863281 10.792969 1.578125 10.859375 C 1.300781 10.921875 1.03125 10.96875 0.824219 10.988281 C 0.769531 10.992188 0.699219 11 0.621094 11 Z M 5.4375 0.84375 C 4.210938 0.84375 3.058594 1.320312 2.191406 2.191406 C 1.320312 3.058594 0.84375 4.210938 0.84375 5.4375 C 0.84375 6.316406 1.09375 7.171875 1.566406 7.910156 L 1.644531 8.027344 L 1.632812 8.164062 C 1.621094 8.359375 1.578125 8.867188 1.46875 9.378906 C 1.414062 9.640625 1.351562 9.867188 1.277344 10.058594 C 1.363281 10.042969 1.453125 10.019531 1.550781 9.996094 C 2.078125 9.859375 2.546875 9.675781 2.832031 9.496094 L 3.042969 9.363281 L 3.257812 9.480469 C 3.925781 9.839844 4.675781 10.027344 5.4375 10.027344 C 6.664062 10.027344 7.816406 9.550781 8.683594 8.683594 C 9.550781 7.816406 10.027344 6.664062 10.027344 5.4375 C 10.027344 4.210938 9.550781 3.058594 8.683594 2.191406 C 7.816406 1.320312 6.664062 0.84375 5.4375 0.84375 Z M 5.4375 0.84375 "/>
</svg>
