<?xml version="1.0" encoding="UTF-8" standalone="no"?>
<!-- Created with Inkscape (http://www.inkscape.org/) -->

<svg
   xmlns:dc="http://purl.org/dc/elements/1.1/"
   xmlns:cc="http://creativecommons.org/ns#"
   xmlns:rdf="http://www.w3.org/1999/02/22-rdf-syntax-ns#"
   xmlns:svg="http://www.w3.org/2000/svg"
   xmlns="http://www.w3.org/2000/svg"
   xmlns:xlink="http://www.w3.org/1999/xlink"
   xmlns:sodipodi="http://sodipodi.sourceforge.net/DTD/sodipodi-0.dtd"
   xmlns:inkscape="http://www.inkscape.org/namespaces/inkscape"
   width="30px"
   height="30px"
   version="1.1"
   id="svg8"
   inkscape:version="0.92.4 5da689c313, 2019-01-14"
   sodipodi:docname="container.svg">
  <defs
     id="defs2" />
  <sodipodi:namedview
     id="base"
     pagecolor="#ffffff"
     bordercolor="#666666"
     borderopacity="1.0"
     inkscape:pageopacity="0.0"
     inkscape:pageshadow="2"
     inkscape:zoom="13.049334"
     inkscape:cx="18.679046"
     inkscape:cy="12.165829"
     inkscape:document-units="px"
     inkscape:current-layer="layer1"
     showgrid="false"
     inkscape:snap-page="false"
     units="px"
     inkscape:window-width="1884"
     inkscape:window-height="1061"
     inkscape:window-x="0"
     inkscape:window-y="0"
     inkscape:window-maximized="1"
     fit-margin-top="0"
     fit-margin-left="0"
     fit-margin-right="0"
     fit-margin-bottom="0" />
  <metadata
     id="metadata5">
    <rdf:RDF>
      <cc:Work
         rdf:about="">
        <dc:format>image/svg+xml</dc:format>
        <dc:type
           rdf:resource="http://purl.org/dc/dcmitype/StillImage" />
        <dc:title></dc:title>
      </cc:Work>
    </rdf:RDF>
  </metadata>
    <circle
       style="color:#000000;clip-rule:nonzero;display:inline;overflow:visible;visibility:visible;opacity:1;isolation:auto;mix-blend-mode:normal;color-interpolation:sRGB;color-interpolation-filters:linearRGB;solid-color:#000000;solid-opacity:1;vector-effect:none;fill:#c58511;fill-opacity:1;fill-rule:evenodd;stroke:#ffffff;stroke-width:1;stroke-linecap:butt;stroke-linejoin:miter;stroke-miterlimit:4;stroke-dasharray:none;stroke-dashoffset:0;stroke-opacity:1;marker:none;color-rendering:auto;image-rendering:auto;shape-rendering:auto;text-rendering:auto;enable-background:accumulate"
       id="path815"
       cx="15"
       cy="15"
       r="14.5" />
<g transform="translate(6.5,7.0)"><path fill-rule="nonzero" fill="#FFFFFF" fill-opacity="1" d="M 7.414062 5.191406 L 7.597656 5.085938 L 7.699219 5.269531 L 7.515625 5.375 Z M 7.414062 5.191406 "/>
<path fill-rule="nonzero" fill="#FFFFFF" fill-opacity="1" d="M 7.0625 5.390625 L 7.246094 5.285156 L 7.351562 5.46875 L 7.167969 5.574219 Z M 7.0625 5.390625 "/>
<path fill-rule="nonzero" fill="#FFFFFF" fill-opacity="1" d="M 7.292969 5.863281 C 7.289062 5.789062 7.28125 5.714844 7.269531 5.640625 L 7.058594 5.675781 C 7.070312 5.738281 7.078125 5.808594 7.082031 5.875 Z M 7.292969 5.863281 "/>
<path fill-rule="nonzero" fill="#FFFFFF" fill-opacity="1" d="M 7.0625 6.253906 L 7.269531 6.285156 C 7.28125 6.214844 7.289062 6.136719 7.292969 6.0625 L 7.082031 6.054688 C 7.078125 6.121094 7.070312 6.1875 7.0625 6.253906 Z M 7.0625 6.253906 "/>
<path fill-rule="nonzero" fill="#FFFFFF" fill-opacity="1" d="M 7.238281 6.449219 L 7.03125 6.398438 C 7.015625 6.464844 6.996094 6.527344 6.972656 6.589844 L 7.171875 6.664062 C 7.199219 6.597656 7.21875 6.523438 7.238281 6.449219 Z M 7.238281 6.449219 "/>
<path fill-rule="nonzero" fill="#FFFFFF" fill-opacity="1" d="M 8.207031 11.789062 L 7.996094 11.78125 C 7.996094 11.847656 7.988281 11.917969 7.984375 11.984375 L 8.191406 12.007812 C 8.199219 11.933594 8.207031 11.863281 8.207031 11.789062 Z M 8.207031 11.789062 "/>
<path fill-rule="nonzero" fill="#FFFFFF" fill-opacity="1" d="M 8.082031 12.578125 L 7.875 12.515625 C 7.855469 12.585938 7.835938 12.652344 7.8125 12.710938 L 8.011719 12.785156 C 8.035156 12.71875 8.058594 12.652344 8.082031 12.578125 Z M 8.082031 12.578125 "/>
<path fill-rule="nonzero" fill="#FFFFFF" fill-opacity="1" d="M 8.199219 11.40625 L 7.988281 11.425781 C 7.992188 11.492188 7.996094 11.5625 8 11.628906 L 8.210938 11.625 C 8.210938 11.550781 8.207031 11.476562 8.199219 11.40625 Z M 8.199219 11.40625 "/>
<path fill-rule="nonzero" fill="#FFFFFF" fill-opacity="1" d="M 8.171875 12.171875 L 7.960938 12.136719 C 7.949219 12.207031 7.9375 12.273438 7.921875 12.339844 L 8.128906 12.386719 C 8.144531 12.316406 8.160156 12.242188 8.171875 12.171875 Z M 8.171875 12.171875 "/>
<path fill-rule="nonzero" fill="#FFFFFF" fill-opacity="1" d="M 6.867188 7.175781 L 6.703125 7.035156 C 6.660156 7.085938 6.617188 7.132812 6.566406 7.179688 L 6.710938 7.335938 C 6.765625 7.285156 6.816406 7.230469 6.867188 7.175781 Z M 6.867188 7.175781 "/>
<path fill-rule="nonzero" fill="#FFFFFF" fill-opacity="1" d="M 6.382812 9.085938 C 6.445312 9.117188 6.503906 9.152344 6.5625 9.1875 L 6.671875 9.003906 C 6.609375 8.964844 6.542969 8.929688 6.480469 8.898438 Z M 6.382812 9.085938 "/>
<path fill-rule="nonzero" fill="#FFFFFF" fill-opacity="1" d="M 5.683594 8.839844 C 5.75 8.851562 5.816406 8.871094 5.878906 8.886719 L 5.941406 8.683594 C 5.871094 8.664062 5.796875 8.648438 5.726562 8.632812 Z M 5.683594 8.839844 "/>
<path fill-rule="nonzero" fill="#FFFFFF" fill-opacity="1" d="M 6.265625 7.667969 L 6.167969 7.476562 C 6.113281 7.507812 6.050781 7.535156 5.984375 7.5625 L 6.0625 7.757812 C 6.132812 7.730469 6.203125 7.699219 6.265625 7.667969 Z M 6.265625 7.667969 "/>
<path fill-rule="nonzero" fill="#FFFFFF" fill-opacity="1" d="M 7.851562 10.28125 L 7.664062 10.378906 L 7.683594 10.414062 C 7.710938 10.464844 7.734375 10.515625 7.757812 10.5625 L 7.949219 10.476562 C 7.925781 10.421875 7.898438 10.367188 7.871094 10.316406 Z M 7.851562 10.28125 "/>
<path fill-rule="nonzero" fill="#FFFFFF" fill-opacity="1" d="M 5.8125 7.625 C 5.742188 7.648438 5.675781 7.667969 5.613281 7.683594 L 5.667969 7.886719 C 5.734375 7.871094 5.804688 7.851562 5.878906 7.824219 Z M 5.8125 7.625 "/>
<path fill-rule="nonzero" fill="#FFFFFF" fill-opacity="1" d="M 6.054688 8.945312 C 6.121094 8.96875 6.183594 8.996094 6.246094 9.019531 L 6.332031 8.828125 C 6.265625 8.796875 6.195312 8.769531 6.128906 8.746094 Z M 6.054688 8.945312 "/>
<path fill-rule="nonzero" fill="#FFFFFF" fill-opacity="1" d="M 5.328125 8.785156 C 5.394531 8.789062 5.460938 8.796875 5.53125 8.808594 L 5.566406 8.601562 C 5.492188 8.585938 5.417969 8.578125 5.347656 8.574219 Z M 5.328125 8.785156 "/>
<path fill-rule="nonzero" fill="#FFFFFF" fill-opacity="1" d="M 5.082031 8.488281 L 5.066406 8.726562 L 5.253906 8.726562 L 5.25 8.5 Z M 5.082031 8.488281 "/>
<path fill-rule="nonzero" fill="#FFFFFF" fill-opacity="1" d="M 6.59375 7.449219 L 6.457031 7.289062 C 6.410156 7.328125 6.359375 7.367188 6.300781 7.40625 L 6.410156 7.585938 C 6.480469 7.542969 6.539062 7.496094 6.59375 7.449219 Z M 6.59375 7.449219 "/>
<path fill-rule="nonzero" fill="#FFFFFF" fill-opacity="1" d="M 5.402344 7.933594 L 5.421875 7.738281 C 5.335938 7.75 5.273438 7.742188 5.21875 7.738281 L 5.203125 7.933594 C 5.277344 7.941406 5.3125 7.9375 5.402344 7.933594 Z M 5.402344 7.933594 "/>
<path fill-rule="nonzero" fill="#FFFFFF" fill-opacity="1" d="M 5.125 8.292969 L 5.296875 8.3125 L 5.3125 8.101562 L 5.140625 8.082031 Z M 5.125 8.292969 "/>
<path fill-rule="nonzero" fill="#FFFFFF" fill-opacity="1" d="M 11.253906 6.25 C 11.25 6.324219 11.25 6.398438 11.253906 6.472656 L 11.464844 6.464844 C 11.460938 6.394531 11.464844 6.328125 11.464844 6.261719 Z M 11.253906 6.25 "/>
<path fill-rule="nonzero" fill="#FFFFFF" fill-opacity="1" d="M 11.890625 4.917969 L 11.675781 4.835938 L 11.59375 4.996094 L 11.8125 5.078125 Z M 11.890625 4.917969 "/>
<path fill-rule="nonzero" fill="#FFFFFF" fill-opacity="1" d="M 11.945312 8.296875 L 12.109375 8.164062 C 12.070312 8.113281 12.027344 8.058594 11.992188 8 L 11.816406 8.121094 C 11.855469 8.179688 11.898438 8.238281 11.945312 8.296875 Z M 11.945312 8.296875 "/>
<path fill-rule="nonzero" fill="#FFFFFF" fill-opacity="1" d="M 11.679688 5.402344 C 11.710938 5.34375 11.742188 5.28125 11.777344 5.226562 L 11.59375 5.117188 C 11.558594 5.179688 11.523438 5.246094 11.488281 5.3125 Z M 11.679688 5.402344 "/>
<path fill-rule="nonzero" fill="#FFFFFF" fill-opacity="1" d="M 6.691406 9.269531 C 6.75 9.304688 6.804688 9.347656 6.855469 9.386719 L 6.988281 9.222656 C 6.929688 9.175781 6.871094 9.132812 6.8125 9.09375 Z M 6.691406 9.269531 "/>
<path fill-rule="nonzero" fill="#FFFFFF" fill-opacity="1" d="M 11.304688 5.867188 C 11.289062 5.9375 11.277344 6.011719 11.269531 6.085938 L 11.476562 6.109375 C 11.484375 6.042969 11.496094 5.976562 11.511719 5.910156 Z M 11.304688 5.867188 "/>
<path fill-rule="nonzero" fill="#FFFFFF" fill-opacity="1" d="M 11.507812 6.847656 C 11.496094 6.78125 11.488281 6.710938 11.480469 6.644531 L 11.269531 6.667969 C 11.277344 6.742188 11.289062 6.8125 11.300781 6.886719 Z M 11.507812 6.847656 "/>
<path fill-rule="nonzero" fill="#FFFFFF" fill-opacity="1" d="M 13.636719 9.171875 C 13.574219 9.152344 13.511719 9.128906 13.441406 9.101562 L 13.367188 9.300781 C 13.4375 9.328125 13.507812 9.351562 13.574219 9.371094 Z M 13.636719 9.171875 "/>
<path fill-rule="nonzero" fill="#FFFFFF" fill-opacity="1" d="M 12.203125 8.582031 L 12.351562 8.429688 C 12.300781 8.382812 12.253906 8.332031 12.210938 8.28125 L 12.050781 8.421875 C 12.101562 8.476562 12.152344 8.53125 12.203125 8.582031 Z M 12.203125 8.582031 "/>
<path fill-rule="nonzero" fill="#FFFFFF" fill-opacity="1" d="M 12.949219 8.871094 C 12.890625 8.839844 12.832031 8.804688 12.773438 8.765625 L 12.65625 8.941406 C 12.71875 8.984375 12.78125 9.019531 12.84375 9.054688 Z M 12.949219 8.871094 "/>
<path fill-rule="nonzero" fill="#FFFFFF" fill-opacity="1" d="M 12.523438 8.847656 L 12.648438 8.675781 C 12.59375 8.636719 12.539062 8.59375 12.488281 8.550781 L 12.351562 8.714844 C 12.40625 8.761719 12.464844 8.804688 12.523438 8.847656 Z M 12.523438 8.847656 "/>
<path fill-rule="nonzero" fill="#FFFFFF" fill-opacity="1" d="M 7.816406 10.703125 C 7.839844 10.769531 7.863281 10.832031 7.882812 10.898438 L 8.085938 10.835938 C 8.066406 10.765625 8.039062 10.695312 8.015625 10.628906 Z M 7.816406 10.703125 "/>
<path fill-rule="nonzero" fill="#FFFFFF" fill-opacity="1" d="M 8.125 5.703125 C 8.289062 5.75 8.386719 5.917969 8.339844 6.085938 C 8.296875 6.25 8.125 6.347656 7.960938 6.300781 C 7.796875 6.253906 7.699219 6.085938 7.746094 5.921875 C 7.789062 5.753906 7.960938 5.660156 8.125 5.703125 Z M 8.125 5.703125 "/>
<path fill-rule="nonzero" fill="#FFFFFF" fill-opacity="1" d="M 11.609375 5.570312 L 11.410156 5.496094 C 11.386719 5.5625 11.363281 5.636719 11.34375 5.707031 L 11.546875 5.761719 C 11.5625 5.699219 11.585938 5.632812 11.609375 5.570312 Z M 11.609375 5.570312 "/>
<path fill-rule="nonzero" fill="#FFFFFF" fill-opacity="1" d="M 8.171875 11.210938 C 8.160156 11.136719 8.148438 11.0625 8.128906 10.992188 L 7.925781 11.042969 C 7.941406 11.109375 7.953125 11.175781 7.964844 11.242188 Z M 8.171875 11.210938 "/>
<path fill-rule="nonzero" fill="#FFFFFF" fill-opacity="1" d="M 9.011719 5.347656 C 8.953125 5.324219 8.890625 5.296875 8.828125 5.265625 L 8.734375 5.457031 C 8.800781 5.488281 8.871094 5.519531 8.9375 5.546875 Z M 9.011719 5.347656 "/>
<path fill-rule="nonzero" fill="#FFFFFF" fill-opacity="1" d="M 8.425781 5.039062 C 8.367188 5.007812 8.308594 4.972656 8.25 4.933594 L 8.132812 5.109375 C 8.195312 5.152344 8.257812 5.1875 8.320312 5.222656 Z M 8.425781 5.039062 "/>
<path fill-rule="nonzero" fill="#FFFFFF" fill-opacity="1" d="M 11.546875 4.738281 L 11.335938 4.628906 L 11.246094 4.820312 L 11.457031 4.929688 Z M 11.546875 4.738281 "/>
<path fill-rule="nonzero" fill="#FFFFFF" fill-opacity="1" d="M 9.3125 5.433594 C 9.25 5.425781 9.1875 5.410156 9.121094 5.390625 L 9.058594 5.59375 C 9.132812 5.613281 9.207031 5.632812 9.277344 5.644531 Z M 9.3125 5.433594 "/>
<path fill-rule="nonzero" fill="#FFFFFF" fill-opacity="1" d="M 11.453125 7.410156 C 11.476562 7.476562 11.507812 7.546875 11.535156 7.613281 L 11.730469 7.527344 C 11.699219 7.460938 11.675781 7.398438 11.652344 7.335938 Z M 11.453125 7.410156 "/>
<path fill-rule="nonzero" fill="#FFFFFF" fill-opacity="1" d="M 9.679688 5.4375 C 9.617188 5.449219 9.554688 5.453125 9.488281 5.449219 L 9.484375 5.664062 C 9.5625 5.664062 9.640625 5.660156 9.714844 5.648438 Z M 9.679688 5.4375 "/>
<path fill-rule="nonzero" fill="#FFFFFF" fill-opacity="1" d="M 7.835938 4.941406 L 8.019531 4.835938 L 8.125 5.019531 L 7.9375 5.125 Z M 7.835938 4.941406 "/>
<path fill-rule="nonzero" fill="#FFFFFF" fill-opacity="1" d="M 11.910156 12.796875 L 12.117188 12.839844 C 12.125 12.816406 12.140625 12.746094 12.164062 12.671875 L 11.957031 12.617188 C 11.9375 12.699219 11.921875 12.769531 11.910156 12.796875 Z M 11.910156 12.796875 "/>
<path fill-rule="nonzero" fill="#FFFFFF" fill-opacity="1" d="M 12.128906 12.101562 L 12.324219 12.183594 C 12.351562 12.121094 12.378906 12.058594 12.410156 11.996094 L 12.21875 11.902344 C 12.1875 11.96875 12.15625 12.035156 12.128906 12.101562 Z M 12.128906 12.101562 "/>
<path fill-rule="nonzero" fill="#FFFFFF" fill-opacity="1" d="M 12 12.460938 L 12.203125 12.519531 C 12.222656 12.460938 12.246094 12.394531 12.269531 12.324219 L 12.070312 12.253906 C 12.042969 12.324219 12.023438 12.394531 12 12.460938 Z M 12 12.460938 "/>
<path fill-rule="nonzero" fill="#FFFFFF" fill-opacity="1" d="M 12.785156 11.121094 L 12.929688 11.277344 C 12.976562 11.230469 13.03125 11.1875 13.085938 11.144531 L 12.953125 10.976562 C 12.894531 11.023438 12.839844 11.070312 12.785156 11.121094 Z M 12.785156 11.121094 "/>
<path fill-rule="nonzero" fill="#FFFFFF" fill-opacity="1" d="M 12.3125 11.726562 L 12.496094 11.832031 C 12.527344 11.773438 12.566406 11.714844 12.601562 11.660156 L 12.425781 11.539062 C 12.386719 11.601562 12.347656 11.664062 12.3125 11.726562 Z M 12.3125 11.726562 "/>
<path fill-rule="nonzero" fill="#FFFFFF" fill-opacity="1" d="M 12.523438 11.40625 L 12.691406 11.535156 C 12.730469 11.484375 12.773438 11.429688 12.820312 11.382812 L 12.667969 11.238281 C 12.617188 11.292969 12.566406 11.347656 12.523438 11.40625 Z M 12.523438 11.40625 "/>
<path fill-rule="nonzero" fill="#FFFFFF" fill-opacity="1" d="M 11.414062 12.953125 C 11.488281 12.972656 11.554688 12.992188 11.613281 13.011719 L 11.679688 12.8125 C 11.613281 12.789062 11.542969 12.765625 11.472656 12.746094 Z M 11.414062 12.953125 "/>
<path fill-rule="nonzero" fill="#FFFFFF" fill-opacity="1" d="M 11.542969 6.996094 L 11.335938 7.046875 C 11.355469 7.117188 11.375 7.1875 11.398438 7.257812 L 11.597656 7.191406 C 11.578125 7.125 11.558594 7.0625 11.542969 6.996094 Z M 11.542969 6.996094 "/>
<path fill-rule="nonzero" fill="#FFFFFF" fill-opacity="1" d="M 11.886719 7.835938 C 11.859375 7.785156 11.835938 7.738281 11.808594 7.691406 L 11.621094 7.789062 C 11.648438 7.839844 11.675781 7.890625 11.703125 7.9375 L 11.726562 7.980469 L 11.910156 7.871094 Z M 11.886719 7.835938 "/>
<path fill-rule="nonzero" fill="#FFFFFF" fill-opacity="1" d="M 11.808594 13.078125 C 11.863281 13.109375 12.003906 13.128906 12.007812 13.128906 L 12.070312 12.9375 C 12.070312 12.9375 11.957031 12.917969 11.886719 12.882812 Z M 11.808594 13.078125 "/>
<path fill-rule="nonzero" fill="#FFFFFF" fill-opacity="1" d="M 13.78125 10.496094 L 13.863281 10.691406 C 13.933594 10.660156 13.996094 10.636719 14.054688 10.613281 L 13.980469 10.414062 C 13.921875 10.4375 13.851562 10.464844 13.78125 10.496094 Z M 13.78125 10.496094 "/>
<path fill-rule="nonzero" fill="#FFFFFF" fill-opacity="1" d="M 14.238281 9.8125 L 14.242188 9.601562 L 14.453125 9.605469 L 14.453125 9.816406 Z M 14.238281 9.8125 "/>
<path fill-rule="nonzero" fill="#FFFFFF" fill-opacity="1" d="M 14.234375 10.183594 L 14.238281 9.972656 L 14.449219 9.976562 L 14.449219 10.1875 Z M 14.234375 10.183594 "/>
<path fill-rule="nonzero" fill="#FFFFFF" fill-opacity="1" d="M 16.886719 10.789062 L 12.472656 2.222656 C 12.394531 2.070312 12.257812 1.953125 12.09375 1.902344 L 5.980469 0.03125 C 5.816406 -0.0234375 5.640625 -0.0078125 5.488281 0.0742188 L 5.113281 0.265625 C 4.984375 0.335938 4.882812 0.445312 4.820312 0.582031 C 4.582031 0.554688 4.324219 0.5625 4.046875 0.605469 C 3.28125 0.726562 2.460938 1.117188 1.738281 1.707031 C 1.011719 2.296875 0.460938 3.019531 0.1875 3.742188 C -0.105469 4.519531 -0.0546875 5.214844 0.339844 5.695312 C 0.652344 6.082031 1.140625 6.28125 1.742188 6.28125 C 1.894531 6.28125 2.054688 6.269531 2.21875 6.242188 C 2.984375 6.121094 3.804688 5.730469 4.527344 5.140625 C 5.253906 4.550781 5.804688 3.828125 6.078125 3.105469 C 6.296875 2.527344 6.324219 1.996094 6.160156 1.5625 C 6.230469 1.546875 6.304688 1.535156 6.375 1.539062 C 6.851562 1.542969 7.230469 1.929688 7.222656 2.40625 C 7.21875 2.878906 6.761719 3.25 6.289062 3.242188 C 6.179688 3.242188 5.945312 4.273438 4.632812 5.347656 C 4.273438 5.640625 3.488281 6.003906 3.089844 6.191406 L 2.902344 6.707031 C 2.851562 6.867188 2.867188 7.039062 2.941406 7.191406 L 7.304688 15.71875 C 7.5625 16.226562 8.183594 16.425781 8.6875 16.164062 L 16.441406 12.171875 C 16.949219 11.910156 17.144531 11.292969 16.886719 10.789062 Z M 4.160156 4.6875 C 3.515625 5.210938 2.792969 5.558594 2.128906 5.664062 C 1.523438 5.761719 1.046875 5.640625 0.792969 5.328125 C 0.539062 5.011719 0.515625 4.523438 0.734375 3.949219 C 0.972656 3.320312 1.460938 2.6875 2.105469 2.160156 C 2.910156 1.507812 3.824219 1.148438 4.527344 1.148438 C 4.5625 1.148438 4.597656 1.152344 4.632812 1.152344 L 4.628906 1.164062 L 3.488281 4.945312 C 3.847656 4.777344 5.019531 3.621094 5.398438 2.773438 C 5.25 2.546875 5.328125 1.929688 5.660156 1.792969 C 5.828125 2.546875 5.226562 3.820312 4.160156 4.6875 Z M 14.808594 10.761719 C 14.808594 10.761719 13.585938 10.871094 12.925781 11.726562 C 12.339844 12.496094 12.296875 13.515625 12.296875 13.515625 C 12.296875 13.515625 11.445312 12.921875 10.445312 13.109375 C 9.449219 13.300781 8.636719 14.25 8.636719 14.25 L 7.015625 13.441406 C 7.015625 13.441406 8.121094 12.058594 7.320312 10.515625 C 6.425781 8.753906 4.859375 9.082031 4.859375 9.082031 L 4.886719 7.46875 C 4.886719 7.46875 5.859375 7.566406 6.292969 7.046875 C 7.214844 6.199219 6.539062 5.152344 6.539062 5.152344 L 8.027344 4.304688 C 8.027344 4.304688 9 5.535156 9.859375 5.101562 C 10.71875 4.664062 10.816406 4.125 10.816406 4.125 L 12.25 4.792969 C 12.25 4.792969 11.277344 6.019531 12.230469 7.746094 C 13.101562 9.332031 14.808594 9.007812 14.808594 9.007812 Z M 14.808594 10.761719 "/>
<path fill-rule="nonzero" fill="#FFFFFF" fill-opacity="1" d="M 14.195312 9.296875 L 14.160156 9.496094 C 14.207031 9.511719 14.28125 9.53125 14.410156 9.511719 L 14.429688 9.300781 C 14.308594 9.320312 14.238281 9.3125 14.195312 9.296875 Z M 14.195312 9.296875 "/>
<path fill-rule="nonzero" fill="#FFFFFF" fill-opacity="1" d="M 14.167969 10.351562 L 14.230469 10.550781 C 14.3125 10.527344 14.363281 10.511719 14.4375 10.480469 L 14.386719 10.292969 C 14.386719 10.292969 14.257812 10.320312 14.167969 10.351562 Z M 14.167969 10.351562 "/>
<path fill-rule="nonzero" fill="#FFFFFF" fill-opacity="1" d="M 13.988281 9.265625 C 13.925781 9.25 13.859375 9.234375 13.785156 9.214844 L 13.730469 9.417969 C 13.804688 9.441406 13.875 9.457031 13.941406 9.472656 Z M 13.988281 9.265625 "/>
<path fill-rule="nonzero" fill="#FFFFFF" fill-opacity="1" d="M 13.4375 10.660156 L 13.539062 10.847656 C 13.601562 10.8125 13.664062 10.78125 13.722656 10.753906 L 13.632812 10.5625 C 13.570312 10.59375 13.503906 10.625 13.4375 10.660156 Z M 13.4375 10.660156 "/>
<path fill-rule="nonzero" fill="#FFFFFF" fill-opacity="1" d="M 6.914062 6.726562 C 6.882812 6.785156 6.851562 6.839844 6.8125 6.894531 L 6.988281 7.015625 C 7.03125 6.953125 7.070312 6.886719 7.101562 6.820312 Z M 6.914062 6.726562 "/>
<path fill-rule="nonzero" fill="#FFFFFF" fill-opacity="1" d="M 13.269531 9.03125 C 13.210938 9.003906 13.148438 8.976562 13.085938 8.945312 L 12.988281 9.132812 C 13.054688 9.167969 13.121094 9.199219 13.1875 9.226562 Z M 13.269531 9.03125 "/>
<path fill-rule="nonzero" fill="#FFFFFF" fill-opacity="1" d="M 11.066406 12.878906 C 11.132812 12.886719 11.199219 12.902344 11.265625 12.914062 L 11.3125 12.707031 C 11.242188 12.691406 11.167969 12.679688 11.097656 12.667969 Z M 11.066406 12.878906 "/>
<path fill-rule="nonzero" fill="#FFFFFF" fill-opacity="1" d="M 13.113281 10.859375 L 13.230469 11.035156 C 13.289062 10.996094 13.347656 10.957031 13.40625 10.925781 L 13.296875 10.742188 C 13.234375 10.78125 13.171875 10.820312 13.113281 10.859375 Z M 13.113281 10.859375 "/>
<path fill-rule="nonzero" fill="#FFFFFF" fill-opacity="1" d="M 8.261719 13.691406 L 8.4375 13.800781 L 8.546875 13.621094 L 8.371094 13.511719 Z M 8.261719 13.691406 "/>
<path fill-rule="nonzero" fill="#FFFFFF" fill-opacity="1" d="M 7.929688 13.515625 L 8.125 13.617188 L 8.238281 13.4375 L 8.039062 13.335938 Z M 7.929688 13.515625 "/>
<path fill-rule="nonzero" fill="#FFFFFF" fill-opacity="1" d="M 7.757812 12.855469 C 7.730469 12.921875 7.703125 12.984375 7.671875 13.042969 L 7.863281 13.136719 C 7.894531 13.074219 7.925781 13.007812 7.953125 12.9375 Z M 7.757812 12.855469 "/>
<path fill-rule="nonzero" fill="#FFFFFF" fill-opacity="1" d="M 8.597656 13.640625 L 8.746094 13.789062 C 8.78125 13.753906 8.832031 13.707031 8.898438 13.648438 L 8.753906 13.492188 C 8.6875 13.550781 8.632812 13.601562 8.597656 13.640625 Z M 8.597656 13.640625 "/>
<path fill-rule="nonzero" fill="#FFFFFF" fill-opacity="1" d="M 8.515625 5.113281 L 8.398438 5.289062 C 8.460938 5.328125 8.523438 5.367188 8.585938 5.402344 L 8.691406 5.21875 C 8.632812 5.1875 8.574219 5.148438 8.515625 5.113281 Z M 8.515625 5.113281 "/>
<path fill-rule="nonzero" fill="#FFFFFF" fill-opacity="1" d="M 8.902344 13.363281 L 9.039062 13.527344 C 9.089844 13.488281 9.144531 13.445312 9.203125 13.402344 L 9.074219 13.230469 C 9.015625 13.277344 8.957031 13.320312 8.902344 13.363281 Z M 8.902344 13.363281 "/>
<path fill-rule="nonzero" fill="#FFFFFF" fill-opacity="1" d="M 7.40625 9.621094 L 7.246094 9.761719 C 7.292969 9.8125 7.335938 9.867188 7.375 9.917969 L 7.546875 9.792969 C 7.5 9.734375 7.457031 9.675781 7.40625 9.621094 Z M 7.40625 9.621094 "/>
<path fill-rule="nonzero" fill="#FFFFFF" fill-opacity="1" d="M 7.140625 9.347656 L 6.996094 9.507812 C 7.046875 9.550781 7.097656 9.597656 7.144531 9.648438 L 7.296875 9.5 C 7.246094 9.449219 7.191406 9.398438 7.140625 9.347656 Z M 7.140625 9.347656 "/>
<path fill-rule="nonzero" fill="#FFFFFF" fill-opacity="1" d="M 7.554688 13.34375 L 7.75 13.4375 L 7.859375 13.257812 L 7.667969 13.164062 Z M 7.554688 13.34375 "/>
<path fill-rule="nonzero" fill="#FFFFFF" fill-opacity="1" d="M 7.640625 9.925781 L 7.464844 10.042969 C 7.503906 10.101562 7.539062 10.15625 7.574219 10.21875 L 7.757812 10.109375 C 7.71875 10.046875 7.679688 9.984375 7.640625 9.925781 Z M 7.640625 9.925781 "/>
<path fill-rule="nonzero" fill="#FFFFFF" fill-opacity="1" d="M 10.972656 4.421875 L 10.882812 4.613281 L 11.050781 4.707031 L 11.140625 4.515625 Z M 10.972656 4.421875 "/>
<path fill-rule="nonzero" fill="#FFFFFF" fill-opacity="1" d="M 10.679688 12.851562 C 10.746094 12.851562 10.816406 12.851562 10.882812 12.859375 L 10.898438 12.648438 C 10.824219 12.640625 10.75 12.640625 10.679688 12.640625 Z M 10.679688 12.851562 "/>
<path fill-rule="nonzero" fill="#FFFFFF" fill-opacity="1" d="M 10.75 5.054688 L 10.597656 4.910156 C 10.550781 4.957031 10.503906 5.003906 10.453125 5.046875 L 10.589844 5.207031 C 10.644531 5.160156 10.699219 5.109375 10.75 5.054688 Z M 10.75 5.054688 "/>
<path fill-rule="nonzero" fill="#FFFFFF" fill-opacity="1" d="M 10.695312 4.796875 L 10.859375 4.929688 C 10.910156 4.871094 10.953125 4.808594 10.992188 4.746094 L 10.8125 4.632812 C 10.777344 4.6875 10.738281 4.742188 10.695312 4.796875 Z M 10.695312 4.796875 "/>
<path fill-rule="nonzero" fill="#FFFFFF" fill-opacity="1" d="M 10.292969 12.671875 L 10.328125 12.878906 C 10.394531 12.871094 10.460938 12.863281 10.527344 12.855469 L 10.511719 12.644531 C 10.4375 12.652344 10.363281 12.660156 10.292969 12.671875 Z M 10.292969 12.671875 "/>
<path fill-rule="nonzero" fill="#FFFFFF" fill-opacity="1" d="M 10.003906 5.332031 C 9.945312 5.359375 9.878906 5.382812 9.816406 5.402344 L 9.882812 5.605469 C 9.953125 5.582031 10.023438 5.554688 10.089844 5.523438 Z M 10.003906 5.332031 "/>
<path fill-rule="nonzero" fill="#FFFFFF" fill-opacity="1" d="M 9.535156 12.9375 L 9.636719 13.125 C 9.695312 13.09375 9.757812 13.0625 9.820312 13.035156 L 9.734375 12.84375 C 9.667969 12.871094 9.601562 12.902344 9.535156 12.9375 Z M 9.535156 12.9375 "/>
<path fill-rule="nonzero" fill="#FFFFFF" fill-opacity="1" d="M 10.308594 5.15625 C 10.261719 5.191406 10.210938 5.222656 10.164062 5.25 L 10.140625 5.261719 L 10.242188 5.449219 L 10.265625 5.433594 C 10.324219 5.402344 10.378906 5.367188 10.429688 5.332031 Z M 10.308594 5.15625 "/>
<path fill-rule="nonzero" fill="#FFFFFF" fill-opacity="1" d="M 9.207031 13.136719 L 9.328125 13.3125 C 9.382812 13.273438 9.441406 13.238281 9.5 13.203125 L 9.394531 13.019531 C 9.328125 13.058594 9.265625 13.097656 9.207031 13.136719 Z M 9.207031 13.136719 "/>
<path fill-rule="nonzero" fill="#FFFFFF" fill-opacity="1" d="M 9.917969 12.769531 L 9.988281 12.96875 C 10.054688 12.945312 10.117188 12.925781 10.179688 12.910156 L 10.128906 12.707031 C 10.058594 12.722656 9.988281 12.746094 9.917969 12.769531 Z M 9.917969 12.769531 "/>
</g>
</svg>
