<?xml version="1.0" encoding="UTF-8" standalone="no"?>
<!-- Created with Inkscape (http://www.inkscape.org/) -->

<svg
   xmlns:dc="http://purl.org/dc/elements/1.1/"
   xmlns:cc="http://creativecommons.org/ns#"
   xmlns:rdf="http://www.w3.org/1999/02/22-rdf-syntax-ns#"
   xmlns:svg="http://www.w3.org/2000/svg"
   xmlns="http://www.w3.org/2000/svg"
   xmlns:xlink="http://www.w3.org/1999/xlink"
   xmlns:sodipodi="http://sodipodi.sourceforge.net/DTD/sodipodi-0.dtd"
   xmlns:inkscape="http://www.inkscape.org/namespaces/inkscape"
   width="30px"
   height="30px"
   version="1.1"
   id="svg8"
   inkscape:version="0.92.4 5da689c313, 2019-01-14"
   sodipodi:docname="container.svg">
  <defs
     id="defs2" />
  <sodipodi:namedview
     id="base"
     pagecolor="#ffffff"
     bordercolor="#666666"
     borderopacity="1.0"
     inkscape:pageopacity="0.0"
     inkscape:pageshadow="2"
     inkscape:zoom="13.049334"
     inkscape:cx="18.679046"
     inkscape:cy="12.165829"
     inkscape:document-units="px"
     inkscape:current-layer="layer1"
     showgrid="false"
     inkscape:snap-page="false"
     units="px"
     inkscape:window-width="1884"
     inkscape:window-height="1061"
     inkscape:window-x="0"
     inkscape:window-y="0"
     inkscape:window-maximized="1"
     fit-margin-top="0"
     fit-margin-left="0"
     fit-margin-right="0"
     fit-margin-bottom="0" />
  <metadata
     id="metadata5">
    <rdf:RDF>
      <cc:Work
         rdf:about="">
        <dc:format>image/svg+xml</dc:format>
        <dc:type
           rdf:resource="http://purl.org/dc/dcmitype/StillImage" />
        <dc:title></dc:title>
      </cc:Work>
    </rdf:RDF>
  </metadata>
    <circle
       style="color:#000000;clip-rule:nonzero;display:inline;overflow:visible;visibility:visible;opacity:1;isolation:auto;mix-blend-mode:normal;color-interpolation:sRGB;color-interpolation-filters:linearRGB;solid-color:#000000;solid-opacity:1;vector-effect:none;fill:#c58511;fill-opacity:1;fill-rule:evenodd;stroke:#ffffff;stroke-width:1;stroke-linecap:butt;stroke-linejoin:miter;stroke-miterlimit:4;stroke-dasharray:none;stroke-dashoffset:0;stroke-opacity:1;marker:none;color-rendering:auto;image-rendering:auto;shape-rendering:auto;text-rendering:auto;enable-background:accumulate"
       id="path815"
       cx="15"
       cy="15"
       r="14.5" />
<g transform="translate(6.5,8.5)"><path fill-rule="nonzero" fill="#FFFFFF" fill-opacity="1" d="M 16.234375 9.082031 C 16.238281 9.085938 16.238281 9.085938 16.242188 9.085938 L 16.242188 8.546875 C 16.242188 5.453125 14.355469 2.785156 11.675781 1.617188 L 11.675781 7.761719 C 11.675781 8.164062 11.390625 8.488281 11.039062 8.488281 C 10.6875 8.488281 10.398438 8.164062 10.398438 7.761719 L 10.398438 0.820312 C 10.058594 0.328125 9.496094 0 8.855469 0 L 8.144531 0 C 7.503906 0 6.941406 0.328125 6.597656 0.824219 L 6.597656 7.761719 C 6.597656 8.164062 6.3125 8.488281 5.960938 8.488281 C 5.609375 8.488281 5.320312 8.164062 5.320312 7.761719 L 5.320312 1.617188 C 2.644531 2.785156 0.757812 5.453125 0.757812 8.546875 L 0.757812 9.085938 C 0.761719 9.085938 0.761719 9.085938 0.765625 9.082031 C 0.277344 9.453125 0 9.867188 0 10.300781 C 0 11.933594 3.804688 13.253906 8.5 13.253906 C 13.195312 13.253906 17 11.933594 17 10.300781 C 17 9.867188 16.722656 9.457031 16.234375 9.082031 Z M 16.234375 9.082031 "/>
</g>
</svg>
