<?xml version="1.0" encoding="UTF-8"?>
<svg xmlns="http://www.w3.org/2000/svg" xmlns:xlink="http://www.w3.org/1999/xlink" width="11" height="9.716207" viewBox="0 0 11 9.716207">
<path fill-rule="nonzero" fill="rgb(30%,30%,30%)" fill-opacity="1" d="M 10.996094 3.621094 C 10.988281 3.382812 10.6875 2.390625 9.761719 1.289062 C 9.414062 0.878906 8.996094 0.453125 8.332031 0 L 7.449219 1.085938 L 8.042969 1.59375 C 8.074219 1.492188 8.171875 1.421875 8.285156 1.421875 C 8.429688 1.421875 8.542969 1.53125 8.542969 1.667969 C 8.542969 1.769531 8.480469 1.855469 8.394531 1.894531 L 8.574219 2.050781 L 7.761719 3.242188 L 8.441406 3.804688 L 9.535156 2.753906 C 9.535156 2.753906 10.296875 3.113281 10.695312 3.742188 C 10.929688 4.109375 10.855469 4.453125 10.855469 4.453125 C 10.855469 4.453125 11.027344 4.304688 10.996094 3.621094 Z M 10.996094 3.621094 "/>
<path fill-rule="nonzero" fill="rgb(30%,30%,30%)" fill-opacity="1" d="M 8.601562 9.109375 L 6.636719 6.753906 L 6.5625 6.816406 L 6.136719 6.328125 L 8.1875 3.878906 L 7.71875 3.457031 L 5.730469 5.851562 L 3.726562 3.472656 L 3.261719 3.871094 L 5.324219 6.339844 L 4.914062 6.820312 L 4.828125 6.746094 L 2.878906 9.09375 C 2.832031 9.238281 2.84375 9.375 2.929688 9.449219 L 3.1875 9.667969 C 3.277344 9.742188 3.410156 9.730469 3.488281 9.640625 L 5.476562 7.304688 L 5.378906 7.222656 L 5.726562 6.820312 L 6.070312 7.214844 L 5.972656 7.296875 L 7.960938 9.617188 C 8.09375 9.6875 8.230469 9.699219 8.320312 9.625 L 8.574219 9.410156 C 8.664062 9.335938 8.675781 9.199219 8.601562 9.109375 Z M 8.601562 9.109375 "/>
<path fill-rule="nonzero" fill="rgb(30%,30%,30%)" fill-opacity="1" d="M 3.730469 0.511719 L 3.992188 1.207031 L 2.890625 2.144531 L 3.699219 3.25 L 3.03125 3.832031 L 2.023438 2.867188 L 0 5.03125 L 1.753906 1.539062 Z M 3.730469 0.511719 "/>
</svg>
