<?xml version="1.0" encoding="UTF-8"?>
<svg xmlns="http://www.w3.org/2000/svg" xmlns:xlink="http://www.w3.org/1999/xlink" width="9.74942" height="11" viewBox="0 0 9.74942 11">
<path fill-rule="nonzero" fill="rgb(30%,30%,30%)" fill-opacity="1" d="M 7.988281 5.511719 C 8.015625 3.367188 9.597656 2.730469 9.597656 2.730469 L 8.601562 1.328125 C 8.601562 1.328125 8.21875 1.785156 7.171875 1.734375 C 6.125 1.683594 5.871094 0 5.871094 0 L 4.007812 0 C 4.007812 0 4.082031 1.351562 2.757812 1.660156 C 2.066406 1.914062 1.199219 1.300781 1.199219 1.300781 L 0.304688 2.808594 C 0.304688 2.808594 1.964844 3.34375 1.863281 5.488281 C 1.785156 7.375 0 8.089844 0 8.089844 L 1.097656 9.722656 C 1.097656 9.722656 2.375 9.265625 3.421875 9.621094 C 4.464844 9.980469 4.953125 11 4.953125 11 C 4.953125 11 5.539062 10.054688 6.507812 9.648438 C 7.589844 9.191406 8.804688 9.75 8.804688 9.75 L 9.75 8.089844 C 9.75 8.089844 7.960938 7.476562 7.988281 5.511719 Z M 8.832031 7.890625 L 8.679688 8.0625 C 8.625 8.011719 8.566406 7.957031 8.507812 7.898438 L 8.671875 7.734375 C 8.726562 7.792969 8.78125 7.84375 8.832031 7.890625 Z M 8.28125 7.285156 L 8.097656 7.425781 C 8.050781 7.363281 8.003906 7.296875 7.960938 7.230469 L 8.152344 7.101562 C 8.195312 7.167969 8.238281 7.226562 8.28125 7.285156 Z M 8.410156 3.269531 L 8.246094 3.105469 C 8.304688 3.050781 8.363281 2.996094 8.425781 2.945312 L 8.574219 3.121094 C 8.515625 3.167969 8.460938 3.21875 8.410156 3.269531 Z M 8.730469 3.003906 L 8.597656 2.8125 C 8.664062 2.765625 8.734375 2.722656 8.804688 2.683594 L 8.914062 2.886719 C 8.851562 2.921875 8.789062 2.960938 8.730469 3.003906 Z M 9.191406 2.65625 L 9.03125 2.765625 L 8.871094 2.570312 L 9.03125 2.460938 Z M 8.964844 2.300781 L 8.773438 2.433594 L 8.632812 2.21875 L 8.820312 2.085938 Z M 8.589844 1.695312 L 8.699219 1.871094 L 8.507812 2.003906 L 8.402344 1.824219 Z M 8.324219 1.808594 L 8.433594 2.011719 C 8.363281 2.046875 8.289062 2.082031 8.210938 2.113281 L 8.125 1.898438 C 8.195312 1.871094 8.261719 1.839844 8.324219 1.808594 Z M 8.296875 3.390625 C 8.25 3.445312 8.203125 3.5 8.160156 3.5625 L 7.972656 3.425781 C 8.019531 3.359375 8.070312 3.296875 8.125 3.238281 Z M 7.972656 1.953125 L 8.039062 2.171875 C 7.960938 2.195312 7.882812 2.214844 7.804688 2.230469 L 7.761719 2.003906 C 7.832031 1.992188 7.902344 1.972656 7.972656 1.953125 Z M 7.871094 3.574219 L 8.066406 3.699219 C 8.027344 3.757812 7.992188 3.824219 7.957031 3.886719 L 7.753906 3.78125 C 7.789062 3.710938 7.828125 3.640625 7.871094 3.574219 Z M 7.664062 4.8125 C 7.652344 4.882812 7.640625 4.957031 7.636719 5.035156 L 7.40625 5.011719 C 7.414062 4.933594 7.421875 4.851562 7.433594 4.777344 Z M 7.464844 4.601562 C 7.480469 4.523438 7.5 4.445312 7.523438 4.371094 L 7.742188 4.433594 C 7.722656 4.503906 7.707031 4.574219 7.691406 4.648438 Z M 7.621094 5.234375 C 7.621094 5.292969 7.617188 5.351562 7.617188 5.410156 L 7.617188 5.457031 L 7.390625 5.460938 L 7.386719 5.410156 C 7.386719 5.347656 7.390625 5.285156 7.390625 5.226562 Z M 7.625 5.625 C 7.632812 5.699219 7.640625 5.769531 7.652344 5.84375 L 7.425781 5.878906 C 7.414062 5.800781 7.402344 5.722656 7.398438 5.640625 Z M 7.683594 6.007812 C 7.695312 6.078125 7.714844 6.148438 7.738281 6.222656 L 7.515625 6.285156 C 7.492188 6.210938 7.472656 6.132812 7.457031 6.054688 Z M 7.800781 6.410156 C 7.824219 6.480469 7.851562 6.546875 7.882812 6.617188 L 7.671875 6.710938 C 7.640625 6.636719 7.609375 6.5625 7.582031 6.488281 Z M 7.871094 4.066406 C 7.84375 4.132812 7.816406 4.203125 7.792969 4.273438 L 7.574219 4.199219 C 7.601562 4.125 7.628906 4.050781 7.660156 3.976562 Z M 7.347656 2.039062 L 7.378906 2.039062 C 7.441406 2.039062 7.503906 2.039062 7.566406 2.03125 L 7.585938 2.261719 C 7.519531 2.269531 7.449219 2.269531 7.378906 2.269531 L 7.34375 2.269531 Z M 6.96875 2 C 7.042969 2.015625 7.113281 2.023438 7.183594 2.03125 L 7.164062 2.261719 C 7.085938 2.253906 7.003906 2.242188 6.925781 2.226562 Z M 6.632812 1.867188 C 6.695312 1.90625 6.757812 1.933594 6.820312 1.957031 L 6.742188 2.175781 C 6.664062 2.148438 6.589844 2.109375 6.515625 2.066406 Z M 6.476562 1.757812 L 6.332031 1.9375 C 6.269531 1.886719 6.210938 1.832031 6.152344 1.769531 L 6.320312 1.613281 C 6.371094 1.667969 6.421875 1.714844 6.476562 1.757812 Z M 6.238281 1.515625 L 6.0625 1.660156 C 6.011719 1.601562 5.964844 1.535156 5.917969 1.46875 L 6.109375 1.339844 C 6.152344 1.402344 6.195312 1.460938 6.238281 1.515625 Z M 5.851562 3.847656 C 5.433594 3.578125 4.765625 3.355469 3.984375 3.835938 C 3.921875 3.875 3.835938 3.855469 3.796875 3.792969 C 3.757812 3.730469 3.78125 3.648438 3.84375 3.609375 C 4.746094 3.054688 5.527344 3.300781 6.011719 3.613281 C 6.027344 3.625 5.863281 3.855469 5.851562 3.847656 Z M 5.898438 1.027344 C 5.933594 1.09375 5.96875 1.160156 6.003906 1.222656 L 5.808594 1.339844 C 5.765625 1.273438 5.730469 1.203125 5.691406 1.128906 Z M 5.847656 0.90625 L 5.652344 1.027344 C 5.609375 0.960938 5.574219 0.886719 5.535156 0.816406 L 5.742188 0.710938 C 5.777344 0.78125 5.8125 0.847656 5.847656 0.90625 Z M 5.34375 0.496094 L 5.574219 0.496094 L 5.574219 0.726562 L 5.34375 0.726562 Z M 4.8125 0.507812 L 5.042969 0.507812 L 5.042969 0.738281 L 4.8125 0.738281 Z M 4.972656 1.277344 C 5.15625 1.277344 5.308594 1.425781 5.308594 1.613281 C 5.308594 1.796875 5.15625 1.949219 4.972656 1.949219 C 4.785156 1.949219 4.636719 1.796875 4.636719 1.613281 C 4.636719 1.425781 4.785156 1.277344 4.972656 1.277344 Z M 4.375 0.507812 L 4.605469 0.507812 L 4.605469 0.738281 L 4.375 0.738281 Z M 4.21875 0.773438 L 4.433594 0.855469 C 4.40625 0.929688 4.371094 1.003906 4.335938 1.074219 L 4.128906 0.972656 C 4.164062 0.90625 4.191406 0.839844 4.21875 0.773438 Z M 4.035156 1.144531 L 4.230469 1.265625 C 4.1875 1.335938 4.140625 1.402344 4.089844 1.464844 L 3.910156 1.320312 C 3.953125 1.265625 3.996094 1.207031 4.035156 1.144531 Z M 3.800781 1.445312 L 3.96875 1.601562 C 3.914062 1.664062 3.851562 1.71875 3.789062 1.769531 L 3.644531 1.589844 C 3.699219 1.546875 3.753906 1.496094 3.800781 1.445312 Z M 3.515625 1.6875 L 3.640625 1.878906 C 3.574219 1.921875 3.503906 1.964844 3.429688 2 L 3.328125 1.792969 C 3.394531 1.761719 3.457031 1.726562 3.515625 1.6875 Z M 3.148438 1.871094 L 3.226562 2.085938 C 3.152344 2.113281 3.074219 2.136719 2.996094 2.15625 L 2.941406 1.929688 C 3.011719 1.914062 3.082031 1.894531 3.148438 1.871094 Z M 2.78125 1.976562 L 2.824219 2.203125 C 2.746094 2.21875 2.664062 2.226562 2.578125 2.230469 L 2.570312 2 C 2.644531 1.996094 2.714844 1.988281 2.78125 1.976562 Z M 2.492188 5.339844 L 2.261719 5.34375 C 2.261719 5.265625 2.257812 5.191406 2.253906 5.121094 L 2.480469 5.101562 C 2.488281 5.179688 2.492188 5.257812 2.492188 5.339844 Z M 2.148438 6.3125 L 2.367188 6.375 C 2.347656 6.449219 2.320312 6.527344 2.292969 6.601562 L 2.078125 6.523438 C 2.105469 6.453125 2.128906 6.382812 2.148438 6.3125 Z M 2.097656 4.359375 L 2.316406 4.289062 C 2.34375 4.363281 2.367188 4.441406 2.386719 4.515625 L 2.160156 4.574219 C 2.144531 4.503906 2.121094 4.429688 2.097656 4.359375 Z M 2.1875 6.152344 C 2.203125 6.078125 2.21875 6.007812 2.230469 5.933594 L 2.457031 5.964844 C 2.445312 6.046875 2.429688 6.125 2.414062 6.203125 Z M 2.246094 5.769531 C 2.253906 5.707031 2.257812 5.648438 2.257812 5.585938 L 2.261719 5.542969 L 2.492188 5.554688 L 2.488281 5.59375 C 2.488281 5.660156 2.484375 5.722656 2.476562 5.789062 Z M 2.464844 4.925781 L 2.234375 4.953125 C 2.226562 4.882812 2.214844 4.808594 2.199219 4.734375 L 2.425781 4.691406 C 2.441406 4.769531 2.453125 4.847656 2.464844 4.925781 Z M 2.1875 1.976562 C 2.261719 1.988281 2.335938 1.996094 2.40625 2 L 2.394531 2.230469 C 2.320312 2.226562 2.238281 2.21875 2.15625 2.207031 Z M 2.242188 4.085938 L 2.03125 4.171875 C 2.003906 4.105469 1.972656 4.039062 1.9375 3.972656 L 2.144531 3.867188 C 2.179688 3.941406 2.214844 4.011719 2.242188 4.085938 Z M 1.773438 1.894531 C 1.839844 1.910156 1.914062 1.929688 1.988281 1.945312 L 1.945312 2.171875 C 1.863281 2.152344 1.785156 2.136719 1.714844 2.117188 Z M 1.371094 1.734375 C 1.417969 1.765625 1.472656 1.808594 1.5625 1.84375 L 1.4375 2.015625 C 1.347656 1.972656 1.316406 1.957031 1.25 1.910156 Z M 1.113281 2.015625 L 1.261719 2.128906 L 1.132812 2.320312 L 0.980469 2.207031 Z M 0.691406 2.585938 L 0.835938 2.367188 L 0.988281 2.472656 L 0.871094 2.683594 Z M 1.089844 2.914062 C 1.03125 2.867188 0.96875 2.820312 0.910156 2.78125 L 1.042969 2.589844 C 1.105469 2.632812 1.167969 2.683594 1.234375 2.734375 Z M 1.214844 3.023438 L 1.371094 2.851562 C 1.429688 2.902344 1.488281 2.960938 1.542969 3.015625 L 1.375 3.175781 C 1.324219 3.125 1.269531 3.070312 1.214844 3.023438 Z M 1.511719 3.324219 L 1.6875 3.175781 C 1.738281 3.234375 1.789062 3.296875 1.835938 3.359375 L 1.648438 3.5 C 1.605469 3.4375 1.558594 3.378906 1.511719 3.324219 Z M 1.859375 3.824219 C 1.824219 3.761719 1.785156 3.695312 1.746094 3.636719 L 1.9375 3.507812 C 1.980469 3.574219 2.023438 3.640625 2.0625 3.710938 Z M 1.820312 7.046875 L 2.015625 7.167969 C 1.976562 7.234375 1.929688 7.304688 1.882812 7.367188 L 1.695312 7.234375 C 1.738281 7.171875 1.78125 7.109375 1.820312 7.046875 Z M 1.3125 7.679688 L 1.472656 7.84375 C 1.410156 7.902344 1.351562 7.957031 1.296875 8.003906 L 1.144531 7.828125 C 1.199219 7.785156 1.253906 7.734375 1.3125 7.679688 Z M 1.015625 7.933594 L 1.15625 8.117188 C 1.09375 8.167969 1.027344 8.214844 0.964844 8.257812 L 0.835938 8.066406 C 0.894531 8.023438 0.957031 7.980469 1.015625 7.933594 Z M 0.5625 8.289062 L 0.765625 8.175781 L 0.894531 8.367188 L 0.695312 8.480469 Z M 0.824219 8.652344 L 1.023438 8.539062 L 1.15625 8.742188 L 0.953125 8.851562 Z M 1.148438 9.191406 L 1.042969 8.996094 L 1.246094 8.882812 L 1.351562 9.082031 Z M 1.449219 9.347656 L 1.386719 9.128906 C 1.441406 9.113281 1.519531 9.09375 1.617188 9.070312 L 1.664062 9.296875 C 1.574219 9.316406 1.5 9.335938 1.449219 9.347656 Z M 1.621094 7.691406 L 1.449219 7.535156 C 1.5 7.480469 1.546875 7.425781 1.597656 7.367188 L 1.777344 7.507812 C 1.726562 7.570312 1.675781 7.632812 1.621094 7.691406 Z M 1.863281 9.257812 L 1.824219 9.03125 C 1.898438 9.019531 1.976562 9.007812 2.058594 8.996094 L 2.085938 9.226562 C 2.007812 9.234375 1.933594 9.246094 1.863281 9.257812 Z M 2.105469 7.015625 L 1.902344 6.902344 C 1.9375 6.839844 1.972656 6.773438 2.003906 6.707031 L 2.210938 6.800781 C 2.179688 6.875 2.144531 6.945312 2.105469 7.015625 Z M 2.253906 9.210938 L 2.234375 8.980469 C 2.3125 8.972656 2.390625 8.96875 2.472656 8.96875 L 2.476562 9.199219 C 2.402344 9.199219 2.328125 9.203125 2.253906 9.210938 Z M 2.867188 9.214844 C 2.792969 9.207031 2.71875 9.203125 2.644531 9.199219 L 2.652344 8.96875 C 2.730469 8.972656 2.8125 8.976562 2.890625 8.984375 Z M 3.277344 9.289062 C 3.207031 9.269531 3.136719 9.253906 3.0625 9.242188 L 3.101562 9.015625 C 3.183594 9.027344 3.261719 9.046875 3.339844 9.066406 Z M 3.632812 9.425781 C 3.566406 9.394531 3.5 9.363281 3.433594 9.339844 L 3.511719 9.125 C 3.585938 9.152344 3.660156 9.183594 3.734375 9.21875 Z M 3.96875 9.617188 C 3.90625 9.574219 3.84375 9.535156 3.78125 9.5 L 3.894531 9.300781 C 3.960938 9.339844 4.03125 9.382812 4.097656 9.425781 Z M 4.300781 9.878906 C 4.246094 9.828125 4.1875 9.78125 4.128906 9.734375 L 4.269531 9.554688 C 4.332031 9.601562 4.394531 9.652344 4.453125 9.707031 Z M 4.421875 9.992188 L 4.582031 9.828125 C 4.640625 9.882812 4.695312 9.941406 4.746094 10.003906 L 4.574219 10.15625 C 4.527344 10.101562 4.476562 10.046875 4.421875 9.992188 Z M 4.882812 10.476562 C 4.882812 10.476562 4.761719 10.382812 4.722656 10.324219 L 4.902344 10.179688 C 4.949219 10.25 5.046875 10.328125 5.046875 10.328125 Z M 5.144531 10.265625 L 4.972656 10.113281 C 4.996094 10.089844 5.050781 10.03125 5.113281 9.96875 L 5.277344 10.128906 C 5.214844 10.1875 5.164062 10.246094 5.144531 10.265625 Z M 5.398438 10.007812 L 5.238281 9.84375 C 5.292969 9.789062 5.351562 9.738281 5.414062 9.683594 L 5.5625 9.859375 C 5.503906 9.910156 5.449219 9.960938 5.398438 10.007812 Z M 5.695312 9.753906 L 5.554688 9.570312 C 5.613281 9.523438 5.679688 9.476562 5.746094 9.433594 L 5.875 9.621094 C 5.8125 9.664062 5.75 9.710938 5.695312 9.753906 Z M 6.042969 9.515625 L 5.925781 9.316406 C 5.996094 9.277344 6.066406 9.238281 6.136719 9.203125 L 6.238281 9.410156 C 6.171875 9.441406 6.105469 9.476562 6.042969 9.515625 Z M 6.390625 9.339844 L 6.296875 9.128906 C 6.371094 9.097656 6.449219 9.070312 6.527344 9.042969 L 6.59375 9.265625 C 6.523438 9.285156 6.453125 9.3125 6.390625 9.339844 Z M 6.753906 9.222656 L 6.699219 8.996094 C 6.777344 8.980469 6.855469 8.964844 6.9375 8.953125 L 6.96875 9.179688 C 6.894531 9.191406 6.820312 9.207031 6.753906 9.222656 Z M 7.167969 9.15625 L 7.148438 8.929688 C 7.230469 8.921875 7.308594 8.917969 7.386719 8.914062 L 7.390625 9.144531 C 7.316406 9.148438 7.242188 9.152344 7.167969 9.15625 Z M 7.476562 7.273438 C 7.398438 7.265625 7.324219 7.261719 7.253906 7.253906 C 6.824219 7.222656 6.453125 7.195312 6.289062 6.699219 C 6.175781 6.363281 6.3125 6.136719 6.445312 5.921875 C 6.605469 5.65625 6.789062 5.355469 6.632812 4.722656 C 6.628906 4.699219 6.621094 4.679688 6.609375 4.65625 C 5.472656 5.695312 3.375 7.558594 2.457031 8.214844 C 2.378906 8.269531 2.285156 8.171875 2.328125 8.097656 L 6.664062 3.242188 C 6.878906 3.054688 7.1875 3.054688 7.378906 3.242188 C 7.570312 3.433594 7.570312 3.742188 7.378906 3.933594 C 7.386719 3.9375 7.167969 4.144531 6.816406 4.46875 C 6.855469 4.539062 6.882812 4.605469 6.894531 4.660156 C 7.078125 5.402344 6.84375 5.78125 6.675781 6.0625 C 6.550781 6.261719 6.472656 6.398438 6.542969 6.613281 C 6.648438 6.929688 6.832031 6.953125 7.273438 6.988281 C 7.347656 6.992188 7.421875 6.996094 7.5 7.003906 C 7.566406 7.011719 7.625 7.066406 7.625 7.132812 C 7.625 7.136719 7.625 7.136719 7.625 7.140625 C 7.625 7.214844 7.566406 7.273438 7.492188 7.273438 C 7.488281 7.273438 7.484375 7.273438 7.476562 7.273438 Z M 7.78125 9.15625 C 7.710938 9.152344 7.636719 9.148438 7.558594 9.144531 L 7.5625 8.914062 C 7.644531 8.917969 7.722656 8.921875 7.800781 8.925781 Z M 7.75 6.871094 L 7.957031 6.765625 C 7.992188 6.832031 8.027344 6.898438 8.0625 6.960938 L 7.867188 7.078125 C 7.828125 7.011719 7.789062 6.941406 7.75 6.871094 Z M 8.171875 9.203125 C 8.105469 9.191406 8.03125 9.179688 7.949219 9.171875 L 7.976562 8.945312 C 8.0625 8.953125 8.140625 8.964844 8.210938 8.976562 Z M 8.40625 7.445312 C 8.457031 7.503906 8.503906 7.5625 8.554688 7.613281 L 8.382812 7.769531 C 8.332031 7.714844 8.28125 7.65625 8.230469 7.589844 Z M 8.601562 9.28125 C 8.515625 9.273438 8.464844 9.257812 8.371094 9.238281 L 8.417969 9.011719 C 8.523438 9.035156 8.65625 9.074219 8.65625 9.074219 Z M 8.773438 9.007812 L 8.574219 8.894531 L 8.691406 8.695312 L 8.886719 8.808594 Z M 8.976562 8.660156 L 8.777344 8.546875 L 8.894531 8.347656 L 9.089844 8.460938 Z M 8.871094 8.203125 L 9.011719 8.035156 C 9.042969 8.070312 9.105469 8.117188 9.234375 8.164062 L 9.097656 8.351562 C 8.96875 8.300781 8.910156 8.242188 8.871094 8.203125 Z M 8.871094 8.203125 "/>
<path fill-rule="nonzero" fill="rgb(30%,30%,30%)" fill-opacity="1" d="M 7.121094 3.488281 C 7.023438 3.390625 6.871094 3.390625 6.773438 3.488281 L 5.6875 4.800781 C 5.558594 4.945312 5.695312 5.023438 5.851562 4.90625 C 6.070312 4.738281 6.28125 4.566406 6.460938 4.414062 C 6.425781 4.367188 6.386719 4.320312 6.339844 4.269531 C 6.320312 4.246094 6.523438 4.070312 6.542969 4.089844 C 6.585938 4.140625 6.628906 4.1875 6.667969 4.238281 C 6.945312 4 7.121094 3.832031 7.121094 3.832031 C 7.214844 3.738281 7.214844 3.582031 7.121094 3.488281 Z M 7.121094 3.488281 "/>
</svg>
