<?xml version="1.0" encoding="UTF-8"?>
<svg xmlns="http://www.w3.org/2000/svg" xmlns:xlink="http://www.w3.org/1999/xlink" width="11" height="10.1801" viewBox="0 0 11 10.1801">
<path fill-rule="nonzero" fill="rgb(30%,30%,30%)" fill-opacity="1" d="M 2.472656 6.847656 L 3.683594 7.464844 C 3.78125 7.515625 3.875 7.648438 3.890625 7.757812 L 4.03125 8.828125 C 4.039062 8.875 4.027344 8.921875 3.996094 8.960938 L 3.167969 10.085938 C 3.09375 10.179688 2.960938 10.207031 2.855469 10.148438 L 1.410156 9.355469 C 1.347656 9.320312 1.273438 9.316406 1.207031 9.34375 C 1.035156 9.417969 0.691406 9.566406 0.527344 9.613281 C 0.308594 9.683594 -0.277344 9.386719 0.15625 8.910156 C 0.71875 8.292969 1.964844 7.09375 1.964844 7.09375 C 1.964844 7.09375 2.105469 6.910156 2.265625 6.839844 C 2.332031 6.8125 2.410156 6.816406 2.472656 6.847656 Z M 2.386719 7.835938 L 1.859375 8.414062 C 1.796875 8.484375 1.8125 8.597656 1.898438 8.648438 L 2.671875 9.089844 C 2.761719 9.140625 2.871094 9.09375 2.898438 8.996094 L 3.101562 8.214844 C 3.121094 8.144531 3.089844 8.070312 3.027344 8.039062 L 2.570312 7.800781 C 2.507812 7.769531 2.429688 7.78125 2.386719 7.835938 Z M 2.386719 7.835938 "/>
<path fill-rule="nonzero" fill="rgb(30%,30%,30%)" fill-opacity="1" d="M 10.867188 0.820312 L 9.203125 0.015625 C 9.136719 -0.015625 9.058594 0 9.003906 0.0507812 L 2.660156 6.371094 C 2.613281 6.417969 2.628906 6.496094 2.691406 6.53125 C 3.074219 6.738281 4.035156 7.152344 4.144531 7.367188 C 4.324219 7.710938 4.425781 8.925781 4.40625 8.976562 C 4.390625 9.027344 4.179688 9.351562 4.179688 9.351562 L 5.21875 10.050781 C 5.371094 10.15625 5.578125 10.03125 5.558594 9.847656 L 5.484375 9.078125 L 6.316406 8.730469 L 6.265625 7.847656 L 7.082031 7.46875 L 7.046875 6.574219 L 7.828125 6.226562 L 7.820312 5.328125 L 8.601562 4.9375 L 8.601562 4.03125 L 9.40625 3.664062 L 9.398438 2.773438 L 10.222656 2.382812 L 10.179688 1.5 L 10.890625 1.179688 C 11.054688 1.105469 11.027344 0.898438 10.867188 0.820312 Z M 9.160156 0.988281 C 9.042969 0.988281 8.945312 0.890625 8.945312 0.773438 C 8.945312 0.652344 9.042969 0.554688 9.160156 0.554688 C 9.28125 0.554688 9.378906 0.652344 9.378906 0.773438 C 9.378906 0.890625 9.28125 0.988281 9.160156 0.988281 Z M 9.160156 0.988281 "/>
</svg>
