<?xml version="1.0" encoding="UTF-8"?>
<svg xmlns="http://www.w3.org/2000/svg" xmlns:xlink="http://www.w3.org/1999/xlink" width="11" height="8.685838" viewBox="0 0 11 8.685838">
<path fill-rule="nonzero" fill="rgb(30%,30%,30%)" fill-opacity="1" d="M 7.113281 4.980469 C 7.113281 5.875 6.386719 6.601562 5.492188 6.601562 C 4.597656 6.601562 3.871094 5.875 3.871094 4.980469 C 3.871094 4.082031 4.597656 3.359375 5.492188 3.359375 C 6.386719 3.359375 7.113281 4.082031 7.113281 4.980469 Z M 7.113281 4.980469 "/>
<path fill-rule="nonzero" fill="rgb(30%,30%,30%)" fill-opacity="1" d="M 9.90625 1.324219 L 8.433594 1.324219 L 8.433594 0.929688 C 8.433594 0.417969 8.015625 0 7.503906 0 L 3.496094 0 C 2.984375 0 2.566406 0.417969 2.566406 0.929688 L 2.566406 1.324219 L 1.09375 1.324219 C 0.488281 1.324219 0 1.8125 0 2.417969 L 0 7.59375 C 0 8.195312 0.488281 8.6875 1.09375 8.6875 L 9.90625 8.6875 C 10.511719 8.6875 11 8.195312 11 7.59375 L 11 2.417969 C 11 1.8125 10.511719 1.324219 9.90625 1.324219 Z M 5.480469 7.730469 C 3.984375 7.730469 2.769531 6.519531 2.769531 5.023438 C 2.769531 3.527344 3.984375 2.3125 5.480469 2.3125 C 6.976562 2.3125 8.1875 3.527344 8.1875 5.023438 C 8.1875 6.519531 6.976562 7.730469 5.480469 7.730469 Z M 10.039062 2.816406 C 10.039062 2.988281 9.902344 3.125 9.730469 3.125 L 8.597656 3.125 C 8.425781 3.125 8.289062 2.988281 8.289062 2.816406 L 8.289062 2.5 C 8.289062 2.328125 8.425781 2.191406 8.597656 2.191406 L 9.730469 2.191406 C 9.902344 2.191406 10.039062 2.328125 10.039062 2.5 Z M 10.039062 2.816406 "/>
</svg>
