<?xml version="1.0" encoding="UTF-8"?>
<svg xmlns="http://www.w3.org/2000/svg" xmlns:xlink="http://www.w3.org/1999/xlink" width="9.540287" height="11" viewBox="0 0 9.540287 11">
<path fill-rule="nonzero" fill="rgb(30%,30%,30%)" fill-opacity="1" d="M 9.464844 8.9375 C 9.339844 8.417969 9.042969 8.109375 8.550781 7.328125 C 8.253906 6.851562 8.15625 6.425781 8.144531 6.46875 C 8.132812 6.527344 7.445312 7.761719 7.074219 8.253906 C 6.71875 8.726562 6.667969 9.4375 6.738281 9.789062 C 6.867188 10.433594 7.347656 11.007812 8.085938 11 C 9.222656 10.984375 9.75 10.132812 9.464844 8.9375 Z M 7.789062 10.699219 C 6.792969 10.460938 6.78125 8.914062 7.644531 8.941406 C 8.214844 8.960938 7.910156 9.636719 7.976562 9.910156 C 8.171875 10.722656 8.96875 10.226562 9.023438 10.167969 C 9.082031 10.113281 8.6875 10.910156 7.789062 10.699219 Z M 7.789062 10.699219 "/>
<path fill-rule="nonzero" fill="rgb(30%,30%,30%)" fill-opacity="1" d="M 7.46875 2.847656 C 7.351562 2.777344 6.789062 2.742188 6.789062 2.742188 C 6.722656 2.742188 6.664062 2.742188 6.605469 2.746094 L 5.273438 2.761719 C 5.019531 2.484375 4.648438 2.300781 4.230469 2.261719 L 4.230469 0.832031 L 5.066406 0.832031 C 5.125 1.160156 5.414062 1.414062 5.761719 1.414062 C 6.152344 1.414062 6.46875 1.097656 6.46875 0.707031 C 6.46875 0.316406 6.152344 0 5.761719 0 C 5.4375 0 5.164062 0.21875 5.082031 0.519531 L 3.179688 0.519531 C 3.097656 0.21875 2.824219 0 2.496094 0 C 2.105469 0 1.789062 0.316406 1.789062 0.707031 C 1.789062 1.097656 2.105469 1.414062 2.496094 1.414062 C 2.84375 1.414062 3.132812 1.160156 3.191406 0.832031 L 3.917969 0.832031 L 3.917969 2.265625 C 3.492188 2.304688 3.117188 2.503906 2.867188 2.792969 L 0.566406 2.824219 L 0.566406 1.390625 C 0.566406 1.253906 0.472656 1.125 0.339844 1.101562 C 0.160156 1.0625 0 1.203125 0 1.375 L 0 6.171875 C 0 6.308594 0.0898438 6.433594 0.226562 6.460938 C 0.40625 6.496094 0.566406 6.359375 0.566406 6.183594 L 0.566406 4.539062 L 2.839844 4.539062 C 3.117188 4.785156 3.570312 5.011719 4.082031 5.011719 C 4.59375 5.011719 5.046875 4.785156 5.324219 4.441406 L 6.433594 4.441406 C 6.433594 4.441406 6.4375 4.441406 6.4375 4.441406 C 6.800781 4.476562 7.078125 4.78125 7.097656 5.144531 L 7.148438 6.1875 C 7.148438 6.179688 9.011719 6.1875 9.011719 6.1875 C 9.203125 4.191406 8.441406 3.160156 7.46875 2.847656 Z M 7.46875 2.847656 "/>
</svg>
