<?xml version="1.0" encoding="UTF-8" standalone="no"?>
<!-- Created with Inkscape (http://www.inkscape.org/) -->

<svg
   xmlns:dc="http://purl.org/dc/elements/1.1/"
   xmlns:cc="http://creativecommons.org/ns#"
   xmlns:rdf="http://www.w3.org/1999/02/22-rdf-syntax-ns#"
   xmlns:svg="http://www.w3.org/2000/svg"
   xmlns="http://www.w3.org/2000/svg"
   xmlns:xlink="http://www.w3.org/1999/xlink"
   xmlns:sodipodi="http://sodipodi.sourceforge.net/DTD/sodipodi-0.dtd"
   xmlns:inkscape="http://www.inkscape.org/namespaces/inkscape"
   width="30px"
   height="30px"
   version="1.1"
   id="svg8"
   inkscape:version="0.92.4 5da689c313, 2019-01-14"
   sodipodi:docname="container.svg">
  <defs
     id="defs2" />
  <sodipodi:namedview
     id="base"
     pagecolor="#ffffff"
     bordercolor="#666666"
     borderopacity="1.0"
     inkscape:pageopacity="0.0"
     inkscape:pageshadow="2"
     inkscape:zoom="13.049334"
     inkscape:cx="18.679046"
     inkscape:cy="12.165829"
     inkscape:document-units="px"
     inkscape:current-layer="layer1"
     showgrid="false"
     inkscape:snap-page="false"
     units="px"
     inkscape:window-width="1884"
     inkscape:window-height="1061"
     inkscape:window-x="0"
     inkscape:window-y="0"
     inkscape:window-maximized="1"
     fit-margin-top="0"
     fit-margin-left="0"
     fit-margin-right="0"
     fit-margin-bottom="0" />
  <metadata
     id="metadata5">
    <rdf:RDF>
      <cc:Work
         rdf:about="">
        <dc:format>image/svg+xml</dc:format>
        <dc:type
           rdf:resource="http://purl.org/dc/dcmitype/StillImage" />
        <dc:title></dc:title>
      </cc:Work>
    </rdf:RDF>
  </metadata>
    <circle
       style="color:#000000;clip-rule:nonzero;display:inline;overflow:visible;visibility:visible;opacity:1;isolation:auto;mix-blend-mode:normal;color-interpolation:sRGB;color-interpolation-filters:linearRGB;solid-color:#000000;solid-opacity:1;vector-effect:none;fill:#c58511;fill-opacity:1;fill-rule:evenodd;stroke:#ffffff;stroke-width:1;stroke-linecap:butt;stroke-linejoin:miter;stroke-miterlimit:4;stroke-dasharray:none;stroke-dashoffset:0;stroke-opacity:1;marker:none;color-rendering:auto;image-rendering:auto;shape-rendering:auto;text-rendering:auto;enable-background:accumulate"
       id="path815"
       cx="15"
       cy="15"
       r="14.5" />
<g transform="translate(9.0,6.5)"><path fill-rule="nonzero" fill="#FFFFFF" fill-opacity="1" d="M 3.652344 1.097656 C 4.953125 1.097656 4.199219 4.65625 4.269531 5.410156 C 4.292969 5.703125 4.269531 6.433594 4.269531 6.917969 C 4.269531 7.464844 4.882812 7.464844 4.953125 7.054688 C 4.984375 6.871094 5.089844 5.683594 5.089844 3.835938 C 5.089844 2.808594 4.882812 0.0429688 6.046875 0 C 7.007812 -0.0351562 7.007812 1.371094 6.9375 4.109375 C 6.894531 5.933594 6.871094 6.5 6.871094 6.917969 C 6.871094 7.53125 7.292969 7.433594 7.347656 7.191406 C 7.492188 6.59375 7.480469 5.15625 7.621094 4.039062 C 7.765625 2.921875 7.898438 2.125 8.375 2.125 C 9.539062 2.125 9.402344 3.355469 9.335938 5.34375 C 9.261719 7.464844 8.925781 10 8.925781 10 C 8.925781 10 10.386719 7.042969 11.390625 7.328125 C 11.867188 7.464844 12.019531 8.269531 11.730469 9.039062 C 10.703125 11.777344 9.257812 14.898438 7.964844 15.957031 C 6.457031 17.1875 3.171875 17.667969 1.597656 15.476562 C 1.03125 14.6875 0.339844 12.5 0.0898438 10.203125 C -0.183594 7.671875 0.160156 3.21875 1.1875 3.21875 C 1.421875 3.21875 1.597656 3.324219 1.664062 3.628906 C 1.910156 4.753906 1.269531 7.464844 2.078125 7.464844 C 3.171875 7.464844 1.734375 1.097656 3.652344 1.097656 Z M 3.652344 1.097656 "/>
</g>
</svg>
