<?xml version="1.0" encoding="UTF-8" standalone="no"?>
<!-- Created with Inkscape (http://www.inkscape.org/) -->

<svg
   xmlns:dc="http://purl.org/dc/elements/1.1/"
   xmlns:cc="http://creativecommons.org/ns#"
   xmlns:rdf="http://www.w3.org/1999/02/22-rdf-syntax-ns#"
   xmlns:svg="http://www.w3.org/2000/svg"
   xmlns="http://www.w3.org/2000/svg"
   xmlns:xlink="http://www.w3.org/1999/xlink"
   xmlns:sodipodi="http://sodipodi.sourceforge.net/DTD/sodipodi-0.dtd"
   xmlns:inkscape="http://www.inkscape.org/namespaces/inkscape"
   width="30px"
   height="30px"
   version="1.1"
   id="svg8"
   inkscape:version="0.92.4 5da689c313, 2019-01-14"
   sodipodi:docname="container.svg">
  <defs
     id="defs2" />
  <sodipodi:namedview
     id="base"
     pagecolor="#ffffff"
     bordercolor="#666666"
     borderopacity="1.0"
     inkscape:pageopacity="0.0"
     inkscape:pageshadow="2"
     inkscape:zoom="13.049334"
     inkscape:cx="18.679046"
     inkscape:cy="12.165829"
     inkscape:document-units="px"
     inkscape:current-layer="layer1"
     showgrid="false"
     inkscape:snap-page="false"
     units="px"
     inkscape:window-width="1884"
     inkscape:window-height="1061"
     inkscape:window-x="0"
     inkscape:window-y="0"
     inkscape:window-maximized="1"
     fit-margin-top="0"
     fit-margin-left="0"
     fit-margin-right="0"
     fit-margin-bottom="0" />
  <metadata
     id="metadata5">
    <rdf:RDF>
      <cc:Work
         rdf:about="">
        <dc:format>image/svg+xml</dc:format>
        <dc:type
           rdf:resource="http://purl.org/dc/dcmitype/StillImage" />
        <dc:title></dc:title>
      </cc:Work>
    </rdf:RDF>
  </metadata>
    <circle
       style="color:#000000;clip-rule:nonzero;display:inline;overflow:visible;visibility:visible;opacity:1;isolation:auto;mix-blend-mode:normal;color-interpolation:sRGB;color-interpolation-filters:linearRGB;solid-color:#000000;solid-opacity:1;vector-effect:none;fill:#c58511;fill-opacity:1;fill-rule:evenodd;stroke:#ffffff;stroke-width:1;stroke-linecap:butt;stroke-linejoin:miter;stroke-miterlimit:4;stroke-dasharray:none;stroke-dashoffset:0;stroke-opacity:1;marker:none;color-rendering:auto;image-rendering:auto;shape-rendering:auto;text-rendering:auto;enable-background:accumulate"
       id="path815"
       cx="15"
       cy="15"
       r="14.5" />
<g transform="translate(6.5,7.0)"><path fill-rule="nonzero" fill="#FFFFFF" fill-opacity="1" d="M 3.824219 10.585938 L 5.691406 11.535156 C 5.847656 11.613281 5.992188 11.820312 6.015625 11.992188 L 6.230469 13.640625 C 6.242188 13.714844 6.222656 13.789062 6.179688 13.851562 L 4.898438 15.585938 C 4.785156 15.734375 4.578125 15.777344 4.414062 15.6875 L 2.179688 14.457031 C 2.082031 14.40625 1.964844 14.398438 1.863281 14.441406 C 1.597656 14.558594 1.066406 14.78125 0.816406 14.859375 C 0.476562 14.964844 -0.429688 14.503906 0.238281 13.769531 C 1.109375 12.8125 3.035156 10.964844 3.035156 10.964844 C 3.035156 10.964844 3.25 10.679688 3.503906 10.570312 C 3.605469 10.527344 3.722656 10.535156 3.824219 10.585938 Z M 3.6875 12.109375 L 2.875 13 C 2.777344 13.113281 2.804688 13.289062 2.933594 13.363281 L 4.132812 14.050781 C 4.265625 14.128906 4.4375 14.054688 4.476562 13.90625 L 4.796875 12.695312 C 4.824219 12.585938 4.773438 12.476562 4.675781 12.425781 L 3.96875 12.058594 C 3.875 12.007812 3.757812 12.027344 3.6875 12.109375 Z M 3.6875 12.109375 "/>
<path fill-rule="nonzero" fill="#FFFFFF" fill-opacity="1" d="M 16.792969 1.269531 L 14.222656 0.0273438 C 14.121094 -0.0234375 14 0 13.917969 0.078125 L 4.113281 9.84375 C 4.035156 9.921875 4.0625 10.042969 4.15625 10.09375 C 4.753906 10.414062 6.234375 11.054688 6.40625 11.382812 C 6.683594 11.917969 6.835938 13.796875 6.8125 13.875 C 6.785156 13.953125 6.457031 14.453125 6.457031 14.453125 L 8.066406 15.535156 C 8.304688 15.695312 8.621094 15.503906 8.59375 15.222656 L 8.476562 14.03125 L 9.761719 13.496094 L 9.683594 12.128906 L 10.941406 11.539062 L 10.890625 10.164062 L 12.097656 9.625 L 12.085938 8.234375 L 13.292969 7.632812 L 13.292969 6.226562 L 14.535156 5.664062 L 14.523438 4.285156 L 15.796875 3.683594 L 15.730469 2.320312 L 16.832031 1.820312 C 17.082031 1.710938 17.039062 1.386719 16.792969 1.269531 Z M 14.15625 1.527344 C 13.972656 1.527344 13.824219 1.378906 13.824219 1.195312 C 13.824219 1.007812 13.972656 0.859375 14.15625 0.859375 C 14.34375 0.859375 14.492188 1.007812 14.492188 1.195312 C 14.492188 1.378906 14.34375 1.527344 14.15625 1.527344 Z M 14.15625 1.527344 "/>
</g>
</svg>
