<?xml version="1.0" encoding="UTF-8"?>
<svg xmlns="http://www.w3.org/2000/svg" xmlns:xlink="http://www.w3.org/1999/xlink" width="9.84514" height="11" viewBox="0 0 9.84514 11">
<path fill-rule="nonzero" fill="rgb(30%,30%,30%)" fill-opacity="1" d="M 3.304688 4.210938 C 3.304688 4.210938 2.152344 2.269531 3.007812 1.464844 C 3.625 0.882812 4.078125 1.363281 4.472656 1.347656 C 4.867188 1.332031 5.34375 -0.0234375 6.742188 0 C 8.597656 0.0351562 8.335938 1.363281 8.5 1.363281 C 8.828125 1.363281 8.839844 1.113281 9.257812 1.234375 C 10.664062 1.636719 9.125 4.011719 8.992188 4.109375 C 8.875 4.199219 9.652344 4.046875 9.667969 4.980469 C 9.679688 5.671875 8.945312 5.753906 8.945312 5.753906 C 8.945312 5.753906 8.730469 6.230469 8.828125 6.527344 C 8.945312 6.878906 8.992188 7.398438 8.765625 7.710938 C 8.535156 8.023438 8.625 8.074219 8.632812 8.453125 C 8.648438 9.570312 8.910156 9.847656 8.910156 9.847656 L 8.582031 9.898438 C 8.582031 9.898438 8.15625 9.257812 8.140625 8.945312 C 8.121094 8.632812 8.15625 8.484375 8.15625 8.484375 C 8.15625 8.484375 7.84375 8.929688 7.746094 8.945312 C 7.644531 8.960938 7.84375 9.273438 7.679688 9.785156 C 7.515625 10.292969 7.496094 10.34375 7.628906 10.605469 C 7.761719 10.867188 7.941406 11 7.941406 11 L 7.464844 11 C 7.464844 11 6.929688 10.222656 6.890625 9.949219 C 6.839844 9.617188 6.90625 9.042969 6.90625 9.042969 L 3.683594 8.894531 C 3.683594 8.894531 3.519531 9.175781 3.421875 9.371094 C 3.320312 9.570312 3.386719 9.800781 3.386719 9.800781 L 2.976562 9.800781 C 2.976562 9.800781 3.050781 9.085938 3.253906 8.878906 C 3.273438 8.863281 1.742188 8.648438 1.742188 8.648438 C 1.742188 8.648438 1.859375 9.453125 1.726562 9.898438 C 1.59375 10.34375 1.21875 10.851562 1.21875 10.851562 L 0.789062 10.851562 C 0.789062 10.851562 1.167969 10.492188 1.167969 10.359375 C 1.167969 9.949219 0.886719 9.191406 0.953125 8.796875 C 0.972656 8.675781 0.984375 8.554688 0.988281 8.433594 C 0.988281 8.433594 0.519531 8.113281 0.59375 7.726562 C 0.707031 7.121094 0.96875 6.660156 0.96875 5.855469 C 0.980469 5.9375 0.0195312 6.242188 0 5.164062 C -0.015625 4.339844 0.953125 4.308594 0.953125 4.308594 C 0.953125 4.308594 1.695312 4.242188 2.894531 4.175781 C 3.066406 4.167969 3.304688 4.210938 3.304688 4.210938 Z M 3.304688 4.210938 "/>
</svg>
