<?xml version="1.0" encoding="UTF-8"?>
<svg xmlns="http://www.w3.org/2000/svg" xmlns:xlink="http://www.w3.org/1999/xlink" width="11" height="10.948854" viewBox="0 0 11 10.948854">
<path fill-rule="nonzero" fill="rgb(30%,30%,30%)" fill-opacity="1" d="M 7.777344 8.390625 L 7.777344 8.394531 C 7.707031 8.402344 1.222656 9.292969 0.0078125 9.507812 L 0.0234375 10.949219 L 11 10.949219 L 11 7.871094 Z M 7.777344 8.390625 "/>
<path fill-rule="nonzero" fill="rgb(30%,30%,30%)" fill-opacity="1" d="M 10.320312 0 L 4.460938 4.378906 L 4.429688 4.730469 L 4.582031 4.617188 L 4.582031 6.144531 C 4.582031 6.144531 1.996094 7.386719 1.8125 7.464844 C 1.339844 7.667969 0.566406 8.105469 0 8.441406 L 0.0078125 9.261719 C 1.339844 9.03125 7.433594 8.195312 7.734375 8.152344 L 11 7.621094 L 11 0 Z M 0.253906 9.03125 L 0.25 8.730469 C 0.25 8.730469 0.257812 8.640625 0.273438 8.636719 C 0.300781 8.625 0.300781 8.695312 0.300781 8.695312 L 0.300781 9.015625 Z M 0.523438 8.960938 L 0.523438 8.621094 C 0.523438 8.621094 0.53125 8.507812 0.5625 8.5 C 0.605469 8.488281 0.605469 8.574219 0.605469 8.574219 L 0.613281 8.933594 Z M 0.808594 8.894531 L 0.8125 8.5 C 0.8125 8.5 0.828125 8.394531 0.863281 8.394531 C 0.914062 8.394531 0.921875 8.40625 0.921875 8.40625 L 0.933594 8.851562 Z M 1.335938 8.757812 L 1.203125 8.789062 L 1.207031 8.398438 C 1.207031 8.398438 1.226562 8.257812 1.269531 8.25 C 1.34375 8.234375 1.34375 8.339844 1.34375 8.339844 Z M 1.660156 8.691406 L 1.652344 8.199219 C 1.652344 8.199219 1.679688 8.027344 1.757812 8.015625 C 1.875 7.996094 1.878906 8.128906 1.878906 8.128906 L 1.890625 8.636719 Z M 2.21875 8.566406 L 2.210938 8.023438 C 2.210938 8.023438 2.246094 7.808594 2.34375 7.792969 C 2.492188 7.769531 2.492188 7.9375 2.492188 7.9375 L 2.507812 8.496094 Z M 3.011719 8.394531 L 3.003906 7.703125 C 3.003906 7.703125 3.050781 7.433594 3.171875 7.414062 C 3.355469 7.382812 3.359375 7.59375 3.359375 7.59375 L 3.371094 8.304688 Z M 4.070312 8.164062 L 4.074219 7.234375 C 4.074219 7.234375 4.128906 6.894531 4.28125 6.871094 C 4.511719 6.832031 4.515625 7.09375 4.515625 7.09375 L 4.53125 8.074219 Z M 4.957031 5.632812 L 4.941406 5.0625 C 4.941406 5.0625 4.972656 4.820312 5.054688 4.800781 C 5.183594 4.773438 5.183594 4.941406 5.183594 4.941406 L 5.265625 5.445312 Z M 5.546875 7.847656 L 5.535156 6.757812 C 5.535156 6.757812 5.621094 6.375 5.851562 6.347656 C 6.207031 6.304688 6.207031 6.566406 6.207031 6.566406 L 6.226562 7.695312 Z M 6.347656 4.898438 L 6.296875 4.003906 C 6.296875 4.003906 6.382812 3.625 6.617188 3.59375 C 6.96875 3.550781 6.972656 3.8125 6.972656 3.8125 L 6.992188 4.546875 Z M 7.941406 7.34375 L 7.890625 5.824219 C 7.890625 5.824219 8.011719 5.285156 8.332031 5.246094 C 8.824219 5.183594 8.945312 5.550781 8.945312 5.550781 L 8.996094 7.132812 Z M 8.4375 3.792969 L 8.417969 2.917969 C 8.417969 2.917969 8.546875 2.554688 8.742188 2.523438 C 9.035156 2.476562 9.132812 2.628906 9.132812 2.628906 L 9.183594 3.375 Z M 8.4375 3.792969 "/>
</svg>
