<?xml version="1.0" encoding="UTF-8" standalone="no"?>
<!-- Created with Inkscape (http://www.inkscape.org/) -->

<svg
   xmlns:dc="http://purl.org/dc/elements/1.1/"
   xmlns:cc="http://creativecommons.org/ns#"
   xmlns:rdf="http://www.w3.org/1999/02/22-rdf-syntax-ns#"
   xmlns:svg="http://www.w3.org/2000/svg"
   xmlns="http://www.w3.org/2000/svg"
   xmlns:xlink="http://www.w3.org/1999/xlink"
   xmlns:sodipodi="http://sodipodi.sourceforge.net/DTD/sodipodi-0.dtd"
   xmlns:inkscape="http://www.inkscape.org/namespaces/inkscape"
   width="30px"
   height="30px"
   version="1.1"
   id="svg8"
   inkscape:version="0.92.4 5da689c313, 2019-01-14"
   sodipodi:docname="container.svg">
  <defs
     id="defs2" />
  <sodipodi:namedview
     id="base"
     pagecolor="#ffffff"
     bordercolor="#666666"
     borderopacity="1.0"
     inkscape:pageopacity="0.0"
     inkscape:pageshadow="2"
     inkscape:zoom="13.049334"
     inkscape:cx="18.679046"
     inkscape:cy="12.165829"
     inkscape:document-units="px"
     inkscape:current-layer="layer1"
     showgrid="false"
     inkscape:snap-page="false"
     units="px"
     inkscape:window-width="1884"
     inkscape:window-height="1061"
     inkscape:window-x="0"
     inkscape:window-y="0"
     inkscape:window-maximized="1"
     fit-margin-top="0"
     fit-margin-left="0"
     fit-margin-right="0"
     fit-margin-bottom="0" />
  <metadata
     id="metadata5">
    <rdf:RDF>
      <cc:Work
         rdf:about="">
        <dc:format>image/svg+xml</dc:format>
        <dc:type
           rdf:resource="http://purl.org/dc/dcmitype/StillImage" />
        <dc:title></dc:title>
      </cc:Work>
    </rdf:RDF>
  </metadata>
    <circle
       style="color:#000000;clip-rule:nonzero;display:inline;overflow:visible;visibility:visible;opacity:1;isolation:auto;mix-blend-mode:normal;color-interpolation:sRGB;color-interpolation-filters:linearRGB;solid-color:#000000;solid-opacity:1;vector-effect:none;fill:#76009e;fill-opacity:1;fill-rule:evenodd;stroke:#ffffff;stroke-width:1;stroke-linecap:butt;stroke-linejoin:miter;stroke-miterlimit:4;stroke-dasharray:none;stroke-dashoffset:0;stroke-opacity:1;marker:none;color-rendering:auto;image-rendering:auto;shape-rendering:auto;text-rendering:auto;enable-background:accumulate"
       id="path815"
       cx="15"
       cy="15"
       r="14.5" />
<g transform="translate(8.5,6.5)"><path fill-rule="nonzero" fill="#FFFFFF" fill-opacity="1" d="M 13.457031 15.015625 L 13.457031 16.859375 C 13.457031 16.9375 13.394531 17 13.316406 17 L 0.140625 17 C 0.0625 17 0 16.9375 0 16.859375 L 0 15.015625 C 0 14.9375 0.0625 14.875 0.140625 14.875 L 13.316406 14.875 C 13.394531 14.875 13.457031 14.9375 13.457031 15.015625 Z M 8.5 1.984375 L 8.5 0.140625 C 8.5 0.0625 8.4375 0 8.359375 0 L 5.101562 0 C 5.023438 0 4.957031 0.0625 4.957031 0.140625 L 4.957031 1.984375 C 4.957031 2.0625 4.894531 2.125 4.816406 2.125 L 3.683594 2.125 C 3.605469 2.125 3.542969 2.0625 3.542969 1.984375 L 3.542969 0.851562 C 3.542969 0.773438 3.476562 0.707031 3.398438 0.707031 L 1.558594 0.707031 C 1.480469 0.707031 1.417969 0.773438 1.417969 0.851562 L 1.417969 4.109375 C 1.417969 4.1875 1.480469 4.25 1.558594 4.25 L 11.898438 4.25 C 11.976562 4.25 12.042969 4.1875 12.042969 4.109375 L 12.042969 0.851562 C 12.042969 0.773438 11.976562 0.707031 11.898438 0.707031 L 10.058594 0.707031 C 9.980469 0.707031 9.917969 0.773438 9.917969 0.851562 L 9.917969 1.984375 C 9.917969 2.0625 9.851562 2.125 9.773438 2.125 L 8.640625 2.125 C 8.5625 2.125 8.5 2.0625 8.5 1.984375 Z M 1.757812 14.167969 L 11.699219 14.167969 C 11.757812 14.167969 11.808594 14.132812 11.832031 14.078125 C 11.851562 14.027344 11.839844 13.964844 11.800781 13.925781 L 9.957031 12.082031 C 9.929688 12.054688 9.917969 12.019531 9.917969 11.984375 L 9.917969 7.839844 C 9.917969 7.808594 9.925781 7.777344 9.945312 7.753906 L 11.871094 5.183594 C 11.902344 5.140625 11.910156 5.085938 11.886719 5.035156 C 11.859375 4.988281 11.8125 4.957031 11.757812 4.957031 L 1.699219 4.957031 C 1.644531 4.957031 1.597656 4.988281 1.574219 5.035156 C 1.550781 5.085938 1.554688 5.140625 1.585938 5.183594 L 3.511719 7.753906 C 3.53125 7.777344 3.542969 7.808594 3.542969 7.839844 L 3.542969 11.984375 C 3.542969 12.019531 3.527344 12.054688 3.5 12.082031 L 1.660156 13.925781 C 1.617188 13.964844 1.605469 14.027344 1.628906 14.078125 C 1.648438 14.132812 1.703125 14.167969 1.757812 14.167969 Z M 1.757812 14.167969 "/>
</g>
</svg>
