<?xml version="1.0" encoding="UTF-8"?>
<svg xmlns="http://www.w3.org/2000/svg" xmlns:xlink="http://www.w3.org/1999/xlink" width="8.923582" height="11" viewBox="0 0 8.923582 11">
<path fill-rule="nonzero" fill="rgb(30%,30%,30%)" fill-opacity="1" d="M 5.25 1.179688 C 5.25 1.828125 4.722656 2.359375 4.074219 2.359375 C 3.421875 2.359375 2.894531 1.828125 2.894531 1.179688 C 2.894531 0.527344 3.421875 0 4.074219 0 C 4.722656 0 5.25 0.527344 5.25 1.179688 Z M 5.25 1.179688 "/>
<path fill-rule="nonzero" fill="rgb(30%,30%,30%)" fill-opacity="1" d="M 8.109375 9.371094 L 5.664062 9.371094 C 5.65625 9.371094 5.652344 9.367188 5.652344 9.363281 C 5.648438 9.355469 5.652344 9.351562 5.65625 9.347656 C 6.167969 8.882812 7.019531 8.164062 7.148438 7.582031 C 7.28125 6.984375 6.507812 3.730469 6.5 3.691406 C 6.257812 2.855469 5.382812 2.371094 4.546875 2.613281 L 1.585938 4.042969 C 1.578125 4.042969 1.570312 4.042969 1.570312 4.039062 L 0.902344 3.027344 C 0.777344 2.796875 0.476562 2.515625 0.25 2.636719 C 0.0195312 2.761719 -0.0664062 3.046875 0.0546875 3.277344 C 0.0546875 3.277344 0.902344 5.058594 1.195312 5.207031 C 1.425781 5.324219 3.433594 4.539062 3.613281 4.46875 C 3.617188 4.46875 3.617188 4.46875 3.621094 4.472656 C 3.625 4.472656 3.628906 4.476562 3.628906 4.480469 L 4.34375 7.433594 C 4.390625 7.625 4.335938 7.828125 4.199219 7.96875 L 2.660156 9.566406 C 2.484375 9.71875 2.382812 9.941406 2.382812 10.171875 L 2.382812 10.183594 C 2.382812 10.636719 2.75 11 3.199219 11 L 8.109375 11 C 8.558594 11 8.921875 10.636719 8.921875 10.183594 C 8.921875 9.734375 8.558594 9.371094 8.109375 9.371094 Z M 8.109375 9.371094 "/>
</svg>
