<?xml version="1.0" encoding="UTF-8" standalone="no"?>
<!-- Created with Inkscape (http://www.inkscape.org/) -->

<svg
   xmlns:dc="http://purl.org/dc/elements/1.1/"
   xmlns:cc="http://creativecommons.org/ns#"
   xmlns:rdf="http://www.w3.org/1999/02/22-rdf-syntax-ns#"
   xmlns:svg="http://www.w3.org/2000/svg"
   xmlns="http://www.w3.org/2000/svg"
   xmlns:xlink="http://www.w3.org/1999/xlink"
   xmlns:sodipodi="http://sodipodi.sourceforge.net/DTD/sodipodi-0.dtd"
   xmlns:inkscape="http://www.inkscape.org/namespaces/inkscape"
   width="30px"
   height="30px"
   version="1.1"
   id="svg8"
   inkscape:version="0.92.4 5da689c313, 2019-01-14"
   sodipodi:docname="container.svg">
  <defs
     id="defs2" />
  <sodipodi:namedview
     id="base"
     pagecolor="#ffffff"
     bordercolor="#666666"
     borderopacity="1.0"
     inkscape:pageopacity="0.0"
     inkscape:pageshadow="2"
     inkscape:zoom="13.049334"
     inkscape:cx="18.679046"
     inkscape:cy="12.165829"
     inkscape:document-units="px"
     inkscape:current-layer="layer1"
     showgrid="false"
     inkscape:snap-page="false"
     units="px"
     inkscape:window-width="1884"
     inkscape:window-height="1061"
     inkscape:window-x="0"
     inkscape:window-y="0"
     inkscape:window-maximized="1"
     fit-margin-top="0"
     fit-margin-left="0"
     fit-margin-right="0"
     fit-margin-bottom="0" />
  <metadata
     id="metadata5">
    <rdf:RDF>
      <cc:Work
         rdf:about="">
        <dc:format>image/svg+xml</dc:format>
        <dc:type
           rdf:resource="http://purl.org/dc/dcmitype/StillImage" />
        <dc:title></dc:title>
      </cc:Work>
    </rdf:RDF>
  </metadata>
    <circle
       style="color:#000000;clip-rule:nonzero;display:inline;overflow:visible;visibility:visible;opacity:1;isolation:auto;mix-blend-mode:normal;color-interpolation:sRGB;color-interpolation-filters:linearRGB;solid-color:#000000;solid-opacity:1;vector-effect:none;fill:#76009e;fill-opacity:1;fill-rule:evenodd;stroke:#ffffff;stroke-width:1;stroke-linecap:butt;stroke-linejoin:miter;stroke-miterlimit:4;stroke-dasharray:none;stroke-dashoffset:0;stroke-opacity:1;marker:none;color-rendering:auto;image-rendering:auto;shape-rendering:auto;text-rendering:auto;enable-background:accumulate"
       id="path815"
       cx="15"
       cy="15"
       r="14.5" />
<g transform="translate(9.5,6.5)"><path fill-rule="evenodd" fill="#FFFFFF" fill-opacity="1" d="M 1.421875 0 L 10.054688 0 C 10.839844 0.00390625 11.472656 0.636719 11.476562 1.421875 L 11.289062 10.585938 L 10.664062 10.445312 C 10.539062 10.417969 10.410156 10.386719 10.285156 10.359375 L 10.253906 10.207031 L 10.253906 8.203125 C 10.078125 8.597656 9.832031 8.957031 9.527344 9.261719 C 9.417969 9.371094 9.300781 9.472656 9.179688 9.566406 L 9.136719 9.558594 C 9.132812 9.25 9.113281 8.945312 9.082031 8.636719 C 9.875 7.769531 10.023438 6.492188 9.457031 5.460938 C 8.890625 4.433594 7.730469 3.878906 6.570312 4.082031 C 5.414062 4.289062 4.515625 5.207031 4.335938 6.367188 C 4.152344 7.527344 4.730469 8.675781 5.773438 9.222656 C 5.757812 9.421875 5.75 9.621094 5.742188 9.820312 L 5.585938 9.96875 C 4.171875 9.316406 3.355469 7.808594 3.589844 6.269531 C 3.820312 4.730469 5.039062 3.527344 6.585938 3.320312 C 8.128906 3.109375 9.621094 3.949219 10.253906 5.371094 L 10.253906 2.289062 L 1.191406 2.289062 L 1.191406 13.585938 L 4.738281 13.585938 C 4.851562 14.425781 5.03125 15.285156 5.324219 16.054688 L 1.421875 16.054688 C 0.636719 16.050781 0.00390625 15.417969 0 14.632812 L 0 1.421875 C 0.00390625 0.636719 0.636719 0.00390625 1.421875 0 Z M 7.871094 7.464844 L 7.039062 7.464844 C 6.699219 8.894531 6.671875 10.625 6.839844 12.089844 L 6.472656 12.292969 L 6.453125 10.53125 L 5.574219 11.355469 C 5.632812 13.703125 6.039062 15.949219 7.015625 17 C 7.988281 16.867188 8.960938 16.734375 9.9375 16.601562 C 10.410156 15.542969 10.824219 14.28125 10.976562 12.476562 C 10.976562 12.476562 10.789062 12.371094 10.503906 12.214844 C 10.515625 11.949219 10.492188 11.683594 10.441406 11.421875 C 10.207031 11.371094 9.972656 11.316406 9.738281 11.261719 C 9.652344 11.394531 9.582031 11.535156 9.527344 11.683594 L 9.371094 11.597656 C 9.394531 11.28125 9.386719 10.957031 9.316406 10.628906 C 9.082031 10.574219 8.851562 10.519531 8.617188 10.46875 C 8.496094 10.65625 8.402344 10.859375 8.339844 11.078125 C 8.242188 11.03125 8.148438 10.988281 8.070312 10.957031 C 8.199219 9.792969 8.148438 8.628906 7.871094 7.464844 Z M 7.050781 4.820312 C 6.253906 4.820312 5.535156 5.300781 5.230469 6.035156 C 4.925781 6.769531 5.09375 7.617188 5.65625 8.179688 C 5.722656 8.242188 5.789062 8.300781 5.859375 8.355469 C 5.898438 8.039062 5.953125 7.730469 6.019531 7.429688 C 5.765625 7.027344 5.773438 6.511719 6.035156 6.117188 C 6.300781 5.71875 6.769531 5.511719 7.238281 5.585938 C 7.710938 5.660156 8.09375 6.003906 8.222656 6.460938 C 8.578125 6.675781 8.8125 7.066406 8.898438 7.460938 C 9.117188 6.859375 9.03125 6.1875 8.664062 5.660156 C 8.292969 5.132812 7.691406 4.820312 7.050781 4.820312 Z M 7.050781 4.820312 "/>
</g>
</svg>
