<?xml version="1.0" encoding="UTF-8" standalone="no"?>
<!-- Created with Inkscape (http://www.inkscape.org/) -->

<svg
   xmlns:dc="http://purl.org/dc/elements/1.1/"
   xmlns:cc="http://creativecommons.org/ns#"
   xmlns:rdf="http://www.w3.org/1999/02/22-rdf-syntax-ns#"
   xmlns:svg="http://www.w3.org/2000/svg"
   xmlns="http://www.w3.org/2000/svg"
   xmlns:xlink="http://www.w3.org/1999/xlink"
   xmlns:sodipodi="http://sodipodi.sourceforge.net/DTD/sodipodi-0.dtd"
   xmlns:inkscape="http://www.inkscape.org/namespaces/inkscape"
   width="30px"
   height="30px"
   version="1.1"
   id="svg8"
   inkscape:version="0.92.4 5da689c313, 2019-01-14"
   sodipodi:docname="container.svg">
  <defs
     id="defs2" />
  <sodipodi:namedview
     id="base"
     pagecolor="#ffffff"
     bordercolor="#666666"
     borderopacity="1.0"
     inkscape:pageopacity="0.0"
     inkscape:pageshadow="2"
     inkscape:zoom="13.049334"
     inkscape:cx="18.679046"
     inkscape:cy="12.165829"
     inkscape:document-units="px"
     inkscape:current-layer="layer1"
     showgrid="false"
     inkscape:snap-page="false"
     units="px"
     inkscape:window-width="1884"
     inkscape:window-height="1061"
     inkscape:window-x="0"
     inkscape:window-y="0"
     inkscape:window-maximized="1"
     fit-margin-top="0"
     fit-margin-left="0"
     fit-margin-right="0"
     fit-margin-bottom="0" />
  <metadata
     id="metadata5">
    <rdf:RDF>
      <cc:Work
         rdf:about="">
        <dc:format>image/svg+xml</dc:format>
        <dc:type
           rdf:resource="http://purl.org/dc/dcmitype/StillImage" />
        <dc:title></dc:title>
      </cc:Work>
    </rdf:RDF>
  </metadata>
    <circle
       style="color:#000000;clip-rule:nonzero;display:inline;overflow:visible;visibility:visible;opacity:1;isolation:auto;mix-blend-mode:normal;color-interpolation:sRGB;color-interpolation-filters:linearRGB;solid-color:#000000;solid-opacity:1;vector-effect:none;fill:#76009e;fill-opacity:1;fill-rule:evenodd;stroke:#ffffff;stroke-width:1;stroke-linecap:butt;stroke-linejoin:miter;stroke-miterlimit:4;stroke-dasharray:none;stroke-dashoffset:0;stroke-opacity:1;marker:none;color-rendering:auto;image-rendering:auto;shape-rendering:auto;text-rendering:auto;enable-background:accumulate"
       id="path815"
       cx="15"
       cy="15"
       r="14.5" />
<g transform="translate(6.5,6.5)"><path fill-rule="nonzero" fill="#FFFFFF" fill-opacity="1" d="M 13.164062 6.222656 C 12.902344 10.636719 8.316406 8.957031 7.398438 9.753906 C 6.890625 10.191406 6.890625 10.824219 7.398438 11.3125 C 8.09375 11.980469 7.820312 13.199219 6.851562 13.285156 C 3.082031 13.621094 0 10.632812 0 6.851562 C 0 3.066406 3.066406 0 6.851562 0 C 10.632812 0 13.351562 3.007812 13.164062 6.222656 Z M 10.566406 4.257812 C 9.855469 4.257812 9.277344 4.835938 9.277344 5.546875 C 9.277344 6.257812 9.855469 6.835938 10.566406 6.835938 C 11.277344 6.835938 11.855469 6.257812 11.855469 5.546875 C 11.855469 4.835938 11.277344 4.257812 10.566406 4.257812 Z M 8.453125 1.320312 C 7.738281 1.320312 7.164062 1.898438 7.164062 2.609375 C 7.164062 3.320312 7.738281 3.898438 8.453125 3.898438 C 9.164062 3.898438 9.742188 3.320312 9.742188 2.609375 C 9.742188 1.898438 9.164062 1.320312 8.453125 1.320312 Z M 4.804688 1.359375 C 4.09375 1.359375 3.515625 1.933594 3.515625 2.648438 C 3.515625 3.359375 4.09375 3.933594 4.804688 3.933594 C 5.519531 3.933594 6.09375 3.359375 6.09375 2.648438 C 6.09375 1.933594 5.519531 1.359375 4.804688 1.359375 Z M 2.609375 4.292969 C 1.894531 4.292969 1.320312 4.867188 1.320312 5.578125 C 1.320312 6.292969 1.894531 6.867188 2.609375 6.867188 C 3.320312 6.867188 3.894531 6.292969 3.894531 5.578125 C 3.894531 4.867188 3.320312 4.292969 2.609375 4.292969 Z M 2.609375 4.292969 "/>
<path fill-rule="nonzero" fill="#FFFFFF" fill-opacity="1" d="M 7.726562 14.167969 C 7.097656 14.167969 6.828125 14.535156 6.71875 15.050781 C 6.695312 15.15625 6.675781 15.359375 6.660156 15.46875 C 6.605469 15.835938 6.585938 15.789062 6.566406 15.902344 C 6.523438 16.109375 6.308594 16.464844 6.160156 16.644531 C 5.71875 17.175781 6.089844 16.972656 6.214844 16.910156 C 6.40625 16.816406 6.414062 16.789062 6.890625 16.59375 C 7.351562 16.40625 7.519531 16.277344 7.800781 16.199219 C 8.304688 16.0625 8.742188 15.71875 8.75 15.195312 C 8.753906 14.625 8.355469 14.164062 7.726562 14.167969 Z M 7.726562 14.167969 "/>
<path fill-rule="nonzero" fill="#FFFFFF" fill-opacity="1" d="M 8.90625 14.640625 L 11.144531 12.976562 L 9.949219 11.765625 L 8.335938 14.03125 Z M 8.90625 14.640625 "/>
<path fill-rule="nonzero" fill="#FFFFFF" fill-opacity="1" d="M 11.429688 12.75 L 10.222656 11.503906 C 10.082031 11.550781 16.296875 5.851562 16.804688 6.125 C 17.3125 6.398438 11.523438 12.800781 11.429688 12.75 Z M 11.429688 12.75 "/>
</g>
</svg>
