<?xml version="1.0" encoding="UTF-8"?>
<svg xmlns="http://www.w3.org/2000/svg" xmlns:xlink="http://www.w3.org/1999/xlink" width="10.111505" height="11" viewBox="0 0 10.111505 11">
<path fill-rule="nonzero" fill="rgb(30%,30%,30%)" fill-opacity="1" d="M 0.496094 9.832031 L 2.609375 9.832031 L 2.609375 11 L 0.496094 11 Z M 0.496094 9.832031 "/>
<path fill-rule="nonzero" fill="rgb(30%,30%,30%)" fill-opacity="1" d="M 5.054688 9.832031 L 7.167969 9.832031 L 7.167969 11 L 5.054688 11 Z M 5.054688 9.832031 "/>
<path fill-rule="nonzero" fill="rgb(30%,30%,30%)" fill-opacity="1" d="M 7.332031 9.832031 L 9.492188 9.832031 L 9.492188 11 L 7.332031 11 Z M 7.332031 9.832031 "/>
<path fill-rule="nonzero" fill="rgb(30%,30%,30%)" fill-opacity="1" d="M 2.773438 9.832031 L 4.886719 9.832031 L 4.886719 11 L 2.773438 11 Z M 2.773438 9.832031 "/>
<path fill-rule="nonzero" fill="rgb(30%,30%,30%)" fill-opacity="1" d="M 0.488281 8.652344 L 1.515625 8.652344 L 1.515625 9.558594 L 0.488281 9.558594 Z M 0.488281 8.652344 "/>
<path fill-rule="nonzero" fill="rgb(30%,30%,30%)" fill-opacity="1" d="M 3.957031 8.652344 L 6.074219 8.652344 L 6.074219 9.558594 L 3.957031 9.558594 Z M 3.957031 8.652344 "/>
<path fill-rule="nonzero" fill="rgb(30%,30%,30%)" fill-opacity="1" d="M 6.238281 8.652344 L 8.351562 8.652344 L 8.351562 9.558594 L 6.238281 9.558594 Z M 6.238281 8.652344 "/>
<path fill-rule="nonzero" fill="rgb(30%,30%,30%)" fill-opacity="1" d="M 8.515625 8.652344 L 9.492188 8.652344 L 9.492188 9.558594 L 8.515625 9.558594 Z M 8.515625 8.652344 "/>
<path fill-rule="nonzero" fill="rgb(30%,30%,30%)" fill-opacity="1" d="M 1.675781 8.652344 L 3.789062 8.652344 L 3.789062 9.558594 L 1.675781 9.558594 Z M 1.675781 8.652344 "/>
<path fill-rule="nonzero" fill="rgb(30%,30%,30%)" fill-opacity="1" d="M 0.488281 7.507812 L 2.601562 7.507812 L 2.601562 8.410156 L 0.488281 8.410156 Z M 0.488281 7.507812 "/>
<path fill-rule="nonzero" fill="rgb(30%,30%,30%)" fill-opacity="1" d="M 5.046875 7.507812 L 7.160156 7.507812 L 7.160156 8.410156 L 5.046875 8.410156 Z M 5.046875 7.507812 "/>
<path fill-rule="nonzero" fill="rgb(30%,30%,30%)" fill-opacity="1" d="M 7.324219 7.507812 L 9.441406 7.507812 L 9.441406 8.410156 L 7.324219 8.410156 Z M 7.324219 7.507812 "/>
<path fill-rule="nonzero" fill="rgb(30%,30%,30%)" fill-opacity="1" d="M 2.765625 7.507812 L 4.878906 7.507812 L 4.878906 8.410156 L 2.765625 8.410156 Z M 2.765625 7.507812 "/>
<path fill-rule="nonzero" fill="rgb(30%,30%,30%)" fill-opacity="1" d="M 0.488281 6.328125 L 1.390625 6.328125 L 1.390625 7.234375 L 0.488281 7.234375 Z M 0.488281 6.328125 "/>
<path fill-rule="nonzero" fill="rgb(30%,30%,30%)" fill-opacity="1" d="M 3.835938 6.328125 L 5.949219 6.328125 L 5.949219 7.234375 L 3.835938 7.234375 Z M 3.835938 6.328125 "/>
<path fill-rule="nonzero" fill="rgb(30%,30%,30%)" fill-opacity="1" d="M 6.113281 6.328125 L 8.226562 6.328125 L 8.226562 7.234375 L 6.113281 7.234375 Z M 6.113281 6.328125 "/>
<path fill-rule="nonzero" fill="rgb(30%,30%,30%)" fill-opacity="1" d="M 8.390625 6.328125 L 9.492188 6.328125 L 9.492188 7.234375 L 8.390625 7.234375 Z M 8.390625 6.328125 "/>
<path fill-rule="nonzero" fill="rgb(30%,30%,30%)" fill-opacity="1" d="M 1.554688 6.328125 L 3.667969 6.328125 L 3.667969 7.234375 L 1.554688 7.234375 Z M 1.554688 6.328125 "/>
<path fill-rule="nonzero" fill="rgb(30%,30%,30%)" fill-opacity="1" d="M 4.933594 2.101562 L 4.933594 3.0625 L 3.820312 3.0625 C 3.71875 3.0625 3.636719 3.144531 3.636719 3.246094 C 3.636719 3.347656 3.71875 3.429688 3.820312 3.429688 L 3.929688 3.429688 L 4.203125 5.105469 L 5.796875 5.105469 L 6.164062 3.429688 L 6.292969 3.429688 C 6.390625 3.429688 6.472656 3.347656 6.472656 3.246094 C 6.472656 3.144531 6.390625 3.0625 6.292969 3.0625 L 5.175781 3.0625 L 5.175781 2.101562 Z M 4.933594 2.101562 "/>
<path fill-rule="nonzero" fill="rgb(30%,30%,30%)" fill-opacity="1" d="M 9.75 5.6875 L 0.183594 5.75 C 0.0820312 5.75 0 5.832031 0 5.933594 C 0 6.035156 0.0820312 6.117188 0.183594 6.117188 L 9.75 6.058594 C 9.851562 6.058594 9.933594 5.972656 9.933594 5.875 C 9.933594 5.773438 9.851562 5.6875 9.75 5.6875 Z M 9.75 5.6875 "/>
<path fill-rule="nonzero" fill="rgb(30%,30%,30%)" fill-opacity="1" d="M 9.867188 1.082031 L 9.449219 1.082031 C 9.3125 1.082031 9.203125 1.191406 9.203125 1.328125 L 9.203125 1.367188 L 8.238281 1.367188 L 8.238281 0.5625 C 8.238281 0.253906 7.984375 0 7.671875 0 L 2.230469 0 C 1.921875 0 1.667969 0.253906 1.667969 0.5625 L 1.667969 1.367188 L 0.542969 1.367188 C 0.441406 1.367188 0.359375 1.449219 0.359375 1.550781 C 0.359375 1.652344 0.441406 1.734375 0.542969 1.734375 L 1.667969 1.734375 L 1.667969 5.371094 C 1.667969 5.375 1.667969 5.378906 1.667969 5.386719 L 1.84375 5.371094 L 2.015625 5.371094 L 2.015625 1.734375 L 7.886719 1.734375 L 7.886719 5.371094 L 8.078125 5.371094 L 8.238281 5.386719 C 8.238281 5.378906 8.238281 5.375 8.238281 5.371094 L 8.238281 1.734375 L 9.203125 1.734375 L 9.203125 1.746094 C 9.203125 1.878906 9.3125 1.992188 9.449219 1.992188 L 9.867188 1.992188 C 10 1.992188 10.113281 1.878906 10.113281 1.746094 L 10.113281 1.328125 C 10.113281 1.191406 10 1.082031 9.867188 1.082031 Z M 2.015625 1.367188 L 2.015625 0.5625 C 2.015625 0.445312 2.113281 0.347656 2.230469 0.347656 L 7.671875 0.347656 C 7.792969 0.347656 7.886719 0.445312 7.886719 0.5625 L 7.886719 1.367188 Z M 2.015625 1.367188 "/>
</svg>
