<?xml version="1.0" encoding="UTF-8"?>
<svg xmlns="http://www.w3.org/2000/svg" xmlns:xlink="http://www.w3.org/1999/xlink" width="11" height="11" viewBox="0 0 11 11">
<path fill-rule="nonzero" fill="rgb(30%,30%,30%)" fill-opacity="1" d="M 4.289062 7.320312 L 9.945312 7.320312 L 9.945312 6.914062 L 8.734375 5.703125 L 4.289062 5.703125 Z M 9.945312 10.148438 L 9.945312 7.722656 L 3.882812 7.722656 L 3.882812 4.894531 L 4.289062 4.894531 L 4.289062 4.488281 L 2.671875 2.894531 L 2.671875 1.660156 L 3.480469 1.660156 L 3.480469 1.257812 L 2.671875 1.257812 L 2.671875 0.449219 L 2.269531 0.449219 L 2.269531 1.257812 L 1.460938 1.257812 L 1.460938 1.660156 L 2.269531 1.660156 L 2.269531 2.894531 L 0.652344 4.488281 L 0.652344 4.894531 L 1.054688 4.894531 L 1.054688 10.550781 L 10.351562 10.550781 L 10.351562 10.148438 Z M 5.09375 9.742188 L 4.691406 9.742188 L 4.691406 8.53125 L 5.09375 8.53125 Z M 5.902344 9.742188 L 5.5 9.742188 L 5.5 8.53125 L 5.902344 8.53125 Z M 6.710938 9.742188 L 6.308594 9.742188 L 6.308594 8.53125 L 6.710938 8.53125 Z M 7.519531 9.742188 L 7.117188 9.742188 L 7.117188 8.53125 L 7.519531 8.53125 Z M 8.328125 9.742188 L 7.925781 9.742188 L 7.925781 8.53125 L 8.328125 8.53125 Z M 9.136719 9.742188 L 8.730469 9.742188 L 8.730469 8.53125 L 9.136719 8.53125 Z M 9.136719 9.742188 "/>
</svg>
