<?xml version="1.0" encoding="UTF-8"?>
<svg xmlns="http://www.w3.org/2000/svg" xmlns:xlink="http://www.w3.org/1999/xlink" width="7.058528" height="11" viewBox="0 0 7.058528 11">
<path fill-rule="nonzero" fill="rgb(30%,30%,30%)" fill-opacity="1" d="M 7.054688 7.398438 C 6.980469 5.902344 4.433594 5.355469 3.632812 3.625 L 3.632812 2.21875 C 4.160156 2.203125 4.597656 1.820312 4.695312 1.320312 C 4.5625 1.671875 4.21875 1.886719 3.828125 1.886719 C 3.320312 1.886719 2.921875 1.5 2.921875 0.980469 C 2.921875 0.464844 3.332031 0.0429688 3.839844 0.0429688 C 3.867188 0.0429688 3.894531 0.0429688 3.921875 0.046875 C 3.820312 0.015625 3.710938 0 3.601562 0 C 2.984375 0 2.484375 0.496094 2.484375 1.109375 C 2.484375 1.667969 2.902344 2.132812 3.445312 2.207031 L 3.445312 3.671875 C 2.480469 5.382812 0.21875 5.851562 0.0195312 7.507812 C -0.117188 8.65625 0.46875 9.21875 1.378906 9.644531 L 1.378906 11 L 5.730469 11 L 5.730469 9.617188 C 6.652344 9.164062 7.113281 8.644531 7.054688 7.398438 Z M 7.054688 7.398438 "/>
</svg>
