<?xml version="1.0" encoding="UTF-8" standalone="no"?>
<!-- Created with Inkscape (http://www.inkscape.org/) -->

<svg
   xmlns:dc="http://purl.org/dc/elements/1.1/"
   xmlns:cc="http://creativecommons.org/ns#"
   xmlns:rdf="http://www.w3.org/1999/02/22-rdf-syntax-ns#"
   xmlns:svg="http://www.w3.org/2000/svg"
   xmlns="http://www.w3.org/2000/svg"
   xmlns:xlink="http://www.w3.org/1999/xlink"
   xmlns:sodipodi="http://sodipodi.sourceforge.net/DTD/sodipodi-0.dtd"
   xmlns:inkscape="http://www.inkscape.org/namespaces/inkscape"
   width="30px"
   height="30px"
   version="1.1"
   id="svg8"
   inkscape:version="0.92.4 5da689c313, 2019-01-14"
   sodipodi:docname="container.svg">
  <defs
     id="defs2" />
  <sodipodi:namedview
     id="base"
     pagecolor="#ffffff"
     bordercolor="#666666"
     borderopacity="1.0"
     inkscape:pageopacity="0.0"
     inkscape:pageshadow="2"
     inkscape:zoom="13.049334"
     inkscape:cx="18.679046"
     inkscape:cy="12.165829"
     inkscape:document-units="px"
     inkscape:current-layer="layer1"
     showgrid="false"
     inkscape:snap-page="false"
     units="px"
     inkscape:window-width="1884"
     inkscape:window-height="1061"
     inkscape:window-x="0"
     inkscape:window-y="0"
     inkscape:window-maximized="1"
     fit-margin-top="0"
     fit-margin-left="0"
     fit-margin-right="0"
     fit-margin-bottom="0" />
  <metadata
     id="metadata5">
    <rdf:RDF>
      <cc:Work
         rdf:about="">
        <dc:format>image/svg+xml</dc:format>
        <dc:type
           rdf:resource="http://purl.org/dc/dcmitype/StillImage" />
        <dc:title></dc:title>
      </cc:Work>
    </rdf:RDF>
  </metadata>
    <circle
       style="color:#000000;clip-rule:nonzero;display:inline;overflow:visible;visibility:visible;opacity:1;isolation:auto;mix-blend-mode:normal;color-interpolation:sRGB;color-interpolation-filters:linearRGB;solid-color:#000000;solid-opacity:1;vector-effect:none;fill:#ffffff;fill-opacity:1;fill-rule:evenodd;stroke:#76009e;stroke-width:1;stroke-linecap:butt;stroke-linejoin:miter;stroke-miterlimit:4;stroke-dasharray:none;stroke-dashoffset:0;stroke-opacity:1;marker:none;color-rendering:auto;image-rendering:auto;shape-rendering:auto;text-rendering:auto;enable-background:accumulate"
       id="path815"
       cx="15"
       cy="15"
       r="14.5" />
<g transform="translate(6.5,7.0)"><path fill-rule="nonzero" fill="rgb(30%,30%,30%)" fill-opacity="1" d="M 16.886719 10.789062 L 12.472656 2.222656 C 12.394531 2.070312 12.257812 1.953125 12.09375 1.902344 L 5.980469 0.03125 C 5.816406 -0.0234375 5.640625 -0.0078125 5.488281 0.0742188 L 5.113281 0.265625 C 4.984375 0.335938 4.882812 0.445312 4.820312 0.582031 C 4.582031 0.554688 4.324219 0.5625 4.046875 0.605469 C 3.28125 0.726562 2.460938 1.117188 1.738281 1.707031 C 1.011719 2.296875 0.460938 3.019531 0.1875 3.742188 C -0.105469 4.519531 -0.0546875 5.214844 0.339844 5.695312 C 0.652344 6.082031 1.140625 6.28125 1.742188 6.28125 C 1.894531 6.28125 2.054688 6.269531 2.21875 6.242188 C 2.984375 6.121094 3.804688 5.730469 4.527344 5.140625 C 5.253906 4.550781 5.804688 3.828125 6.078125 3.105469 C 6.296875 2.527344 6.324219 1.996094 6.160156 1.5625 C 6.230469 1.546875 6.304688 1.535156 6.375 1.539062 C 6.851562 1.542969 7.230469 1.929688 7.222656 2.40625 C 7.21875 2.878906 6.761719 3.25 6.289062 3.242188 C 6.179688 3.242188 5.945312 4.273438 4.632812 5.347656 C 4.273438 5.640625 3.488281 6.003906 3.089844 6.191406 L 2.902344 6.707031 C 2.851562 6.867188 2.867188 7.039062 2.941406 7.191406 L 7.304688 15.71875 C 7.5625 16.226562 8.183594 16.425781 8.6875 16.164062 L 16.441406 12.171875 C 16.949219 11.910156 17.144531 11.292969 16.886719 10.789062 Z M 4.160156 4.6875 C 3.515625 5.210938 2.792969 5.558594 2.128906 5.664062 C 1.523438 5.761719 1.046875 5.640625 0.792969 5.328125 C 0.539062 5.011719 0.515625 4.523438 0.734375 3.949219 C 0.972656 3.320312 1.460938 2.6875 2.105469 2.160156 C 2.910156 1.507812 3.824219 1.148438 4.527344 1.148438 C 4.5625 1.148438 4.597656 1.152344 4.632812 1.152344 L 4.628906 1.164062 L 3.488281 4.945312 C 3.847656 4.777344 5.019531 3.621094 5.398438 2.773438 C 5.25 2.546875 5.328125 1.929688 5.660156 1.792969 C 5.828125 2.546875 5.226562 3.820312 4.160156 4.6875 Z M 4.398438 9.285156 L 13.257812 4.664062 L 13.601562 5.324219 L 4.742188 9.945312 Z M 11.539062 6.679688 L 11.382812 7.609375 L 7.90625 9.421875 L 7.097656 8.996094 Z M 9.804688 14.371094 L 7.699219 10.28125 C 7.582031 10.144531 7.441406 10.035156 7.277344 9.960938 C 6.917969 9.792969 6.726562 9.691406 6.082031 10.050781 C 5.78125 10.21875 5.578125 10.636719 5.808594 11.117188 C 5.875 11.265625 6.152344 11.722656 6.753906 11.460938 C 6.9375 11.382812 7.023438 11.269531 7.046875 11.132812 C 7.085938 10.9375 7.011719 10.757812 6.867188 10.660156 C 6.808594 10.621094 6.671875 10.609375 6.59375 10.652344 C 6.578125 10.660156 6.566406 10.664062 6.550781 10.667969 C 6.5 10.6875 6.449219 10.710938 6.40625 10.738281 C 6.414062 10.855469 6.347656 10.960938 6.238281 11 C 6.105469 11.054688 5.960938 10.996094 5.910156 10.863281 C 5.867188 10.753906 5.878906 10.648438 5.929688 10.542969 C 6.027344 10.335938 6.269531 10.214844 6.371094 10.179688 C 6.605469 10.066406 6.871094 10.09375 7.109375 10.253906 C 7.414062 10.457031 7.601562 10.832031 7.566406 11.179688 C 7.550781 11.371094 7.449219 11.730469 6.964844 11.941406 C 6.195312 12.273438 5.59375 11.878906 5.335938 11.34375 C 5.195312 11.046875 5.152344 10.699219 5.222656 10.390625 C 5.304688 10.039062 5.628906 9.683594 5.945312 9.519531 C 6.691406 9.132812 7.167969 9.324219 7.523438 9.5 C 7.90625 9.683594 8.109375 9.957031 8.132812 9.988281 C 8.140625 9.996094 8.144531 10.007812 8.152344 10.019531 L 10.269531 14.128906 Z M 10.65625 13.929688 L 8.34375 9.496094 L 9.003906 9.152344 L 11.3125 13.582031 Z M 11.71875 13.375 L 9.40625 8.941406 L 10.066406 8.597656 L 12.375 13.03125 Z M 12.828125 12.792969 L 10.515625 8.363281 L 11.175781 8.019531 L 13.488281 12.449219 Z M 13.304688 7.859375 C 13.429688 7.917969 13.570312 7.914062 13.742188 7.808594 C 14.300781 7.464844 14.082031 6.976562 14.003906 6.835938 C 13.738281 6.371094 13.277344 6.300781 12.96875 6.449219 C 12.304688 6.769531 12.277344 6.988281 12.210938 7.378906 C 12.179688 7.554688 12.1875 7.734375 12.234375 7.90625 L 14.386719 11.980469 L 13.921875 12.222656 L 11.761719 8.128906 C 11.753906 8.117188 11.75 8.105469 11.746094 8.09375 C 11.730469 8.058594 11.625 7.734375 11.691406 7.316406 C 11.753906 6.925781 11.867188 6.421875 12.613281 6.035156 C 12.929688 5.867188 13.40625 5.804688 13.742188 5.941406 C 14.035156 6.058594 14.292969 6.292969 14.457031 6.578125 C 14.75 7.09375 14.726562 7.8125 14.015625 8.253906 C 13.5625 8.53125 13.214844 8.410156 13.042969 8.3125 C 12.742188 8.140625 12.539062 7.777344 12.546875 7.40625 C 12.554688 7.121094 12.683594 6.886719 12.90625 6.757812 C 12.996094 6.695312 13.234375 6.570312 13.460938 6.605469 C 13.574219 6.625 13.667969 6.675781 13.734375 6.773438 C 13.8125 6.890625 13.78125 7.042969 13.660156 7.121094 C 13.5625 7.1875 13.4375 7.179688 13.347656 7.109375 C 13.300781 7.128906 13.253906 7.15625 13.207031 7.1875 C 13.195312 7.195312 13.183594 7.203125 13.171875 7.210938 C 13.089844 7.253906 13.023438 7.371094 13.019531 7.441406 C 13.015625 7.617188 13.121094 7.78125 13.304688 7.859375 Z M 13.304688 7.859375 "/>
<path fill-rule="nonzero" fill="rgb(30%,30%,30%)" fill-opacity="1" d="M 3.167969 6.0625 C 3.171875 6.0625 3.144531 6.097656 3.148438 6.09375 "/>
</g>
</svg>
