<?xml version="1.0" encoding="UTF-8"?>
<svg xmlns="http://www.w3.org/2000/svg" xmlns:xlink="http://www.w3.org/1999/xlink" width="10.324012" height="11" viewBox="0 0 10.324012 11">
<path fill-rule="nonzero" fill="rgb(30%,30%,30%)" fill-opacity="1" d="M 9.820312 10.441406 L 8.589844 1.480469 L 9.199219 1.480469 L 9.199219 0 L 8.183594 0 L 8.183594 0.875 L 7.394531 0.875 L 7.394531 0 L 6.394531 0 L 6.394531 0.875 L 5.605469 0.875 L 5.605469 0 L 4.605469 0 L 4.605469 0.875 L 3.816406 0.875 L 3.816406 0 L 2.816406 0 L 2.816406 0.875 L 2.027344 0.875 L 2.027344 0 L 1.027344 0 L 1.027344 1.480469 L 1.609375 1.480469 L 0.441406 10.429688 L 0 10.429688 L 0 11 L 2.933594 11 L 2.933594 10.605469 L 3.253906 6.332031 C 3.253906 5.304688 4.097656 4.464844 5.125 4.464844 C 6.152344 4.464844 6.992188 5.304688 6.992188 6.332031 L 7.390625 10.589844 L 7.390625 11 L 10.324219 11 L 10.324219 10.441406 Z M 9.820312 10.441406 "/>
</svg>
