<?xml version="1.0" encoding="UTF-8" standalone="no"?>
<!-- Created with Inkscape (http://www.inkscape.org/) -->

<svg
   xmlns:dc="http://purl.org/dc/elements/1.1/"
   xmlns:cc="http://creativecommons.org/ns#"
   xmlns:rdf="http://www.w3.org/1999/02/22-rdf-syntax-ns#"
   xmlns:svg="http://www.w3.org/2000/svg"
   xmlns="http://www.w3.org/2000/svg"
   xmlns:xlink="http://www.w3.org/1999/xlink"
   xmlns:sodipodi="http://sodipodi.sourceforge.net/DTD/sodipodi-0.dtd"
   xmlns:inkscape="http://www.inkscape.org/namespaces/inkscape"
   width="30px"
   height="30px"
   version="1.1"
   id="svg8"
   inkscape:version="0.92.4 5da689c313, 2019-01-14"
   sodipodi:docname="container.svg">
  <defs
     id="defs2" />
  <sodipodi:namedview
     id="base"
     pagecolor="#ffffff"
     bordercolor="#666666"
     borderopacity="1.0"
     inkscape:pageopacity="0.0"
     inkscape:pageshadow="2"
     inkscape:zoom="13.049334"
     inkscape:cx="18.679046"
     inkscape:cy="12.165829"
     inkscape:document-units="px"
     inkscape:current-layer="layer1"
     showgrid="false"
     inkscape:snap-page="false"
     units="px"
     inkscape:window-width="1884"
     inkscape:window-height="1061"
     inkscape:window-x="0"
     inkscape:window-y="0"
     inkscape:window-maximized="1"
     fit-margin-top="0"
     fit-margin-left="0"
     fit-margin-right="0"
     fit-margin-bottom="0" />
  <metadata
     id="metadata5">
    <rdf:RDF>
      <cc:Work
         rdf:about="">
        <dc:format>image/svg+xml</dc:format>
        <dc:type
           rdf:resource="http://purl.org/dc/dcmitype/StillImage" />
        <dc:title></dc:title>
      </cc:Work>
    </rdf:RDF>
  </metadata>
    <circle
       style="color:#000000;clip-rule:nonzero;display:inline;overflow:visible;visibility:visible;opacity:1;isolation:auto;mix-blend-mode:normal;color-interpolation:sRGB;color-interpolation-filters:linearRGB;solid-color:#000000;solid-opacity:1;vector-effect:none;fill:#ffffff;fill-opacity:1;fill-rule:evenodd;stroke:#76009e;stroke-width:1;stroke-linecap:butt;stroke-linejoin:miter;stroke-miterlimit:4;stroke-dasharray:none;stroke-dashoffset:0;stroke-opacity:1;marker:none;color-rendering:auto;image-rendering:auto;shape-rendering:auto;text-rendering:auto;enable-background:accumulate"
       id="path815"
       cx="15"
       cy="15"
       r="14.5" />
<g transform="translate(6.5,7.0)"><path fill-rule="nonzero" fill="rgb(30%,30%,30%)" fill-opacity="1" d="M 16.550781 15.808594 L 2.382812 15.808594 C 1.046875 15.808594 0 14.808594 0 13.527344 L 0 13.085938 C 0 11.804688 1.046875 10.804688 2.382812 10.804688 L 16.628906 10.804688 C 16.820312 10.804688 16.972656 10.957031 16.972656 11.148438 C 16.972656 11.339844 16.820312 11.496094 16.628906 11.496094 L 2.382812 11.496094 C 1.417969 11.496094 0.691406 12.179688 0.691406 13.085938 L 0.691406 13.527344 C 0.691406 14.433594 1.417969 15.117188 2.382812 15.117188 L 16.550781 15.117188 C 16.742188 15.117188 16.898438 15.273438 16.898438 15.464844 C 16.898438 15.65625 16.742188 15.808594 16.550781 15.808594 Z M 16.550781 15.808594 "/>
<path fill-rule="nonzero" fill="rgb(30%,30%,30%)" fill-opacity="1" d="M 16.050781 14.589844 L 2.472656 14.589844 C 1.773438 14.589844 1.207031 14.023438 1.207031 13.324219 C 1.207031 12.625 1.773438 12.058594 2.472656 12.058594 L 15.972656 12.058594 C 15.972656 12.058594 15.335938 13.847656 16.050781 14.589844 Z M 16.050781 14.589844 "/>
<path fill-rule="nonzero" fill="rgb(30%,30%,30%)" fill-opacity="1" d="M 16.566406 5.003906 L 2.398438 5.003906 C 1.0625 5.003906 0.015625 4.003906 0.015625 2.722656 L 0.015625 2.28125 C 0.015625 1.003906 1.0625 0 2.398438 0 L 16.644531 0 C 16.835938 0 16.988281 0.15625 16.988281 0.34375 C 16.988281 0.535156 16.835938 0.691406 16.644531 0.691406 L 2.398438 0.691406 C 1.433594 0.691406 0.707031 1.375 0.707031 2.28125 L 0.707031 2.722656 C 0.707031 3.628906 1.433594 4.3125 2.398438 4.3125 L 16.566406 4.3125 C 16.757812 4.3125 16.914062 4.46875 16.914062 4.660156 C 16.914062 4.851562 16.757812 5.003906 16.566406 5.003906 Z M 16.566406 5.003906 "/>
<path fill-rule="nonzero" fill="rgb(30%,30%,30%)" fill-opacity="1" d="M 16.066406 3.785156 L 2.488281 3.785156 C 1.789062 3.785156 1.222656 3.21875 1.222656 2.519531 C 1.222656 1.820312 1.789062 1.253906 2.488281 1.253906 L 15.988281 1.253906 C 15.988281 1.253906 15.351562 3.042969 16.066406 3.785156 Z M 16.066406 3.785156 "/>
<path fill-rule="nonzero" fill="rgb(30%,30%,30%)" fill-opacity="1" d="M 16.578125 10.386719 L 2.410156 10.386719 C 1.074219 10.386719 0.0273438 9.386719 0.0273438 8.105469 L 0.0273438 7.664062 C 0.0273438 6.386719 1.074219 5.382812 2.410156 5.382812 L 16.65625 5.382812 C 16.84375 5.382812 17 5.539062 17 5.726562 C 17 5.917969 16.84375 6.074219 16.65625 6.074219 L 2.410156 6.074219 C 1.445312 6.074219 0.71875 6.757812 0.71875 7.664062 L 0.71875 8.105469 C 0.71875 9.011719 1.445312 9.695312 2.410156 9.695312 L 16.578125 9.695312 C 16.769531 9.695312 16.921875 9.851562 16.921875 10.042969 C 16.921875 10.234375 16.769531 10.386719 16.578125 10.386719 Z M 16.578125 10.386719 "/>
<path fill-rule="nonzero" fill="rgb(30%,30%,30%)" fill-opacity="1" d="M 16.078125 9.167969 L 2.5 9.167969 C 1.800781 9.167969 1.234375 8.601562 1.234375 7.902344 C 1.234375 7.203125 1.800781 6.636719 2.5 6.636719 L 16 6.636719 C 16 6.636719 15.359375 8.425781 16.078125 9.167969 Z M 16.078125 9.167969 "/>
</g>
</svg>
