<?xml version="1.0" encoding="UTF-8"?>
<svg xmlns="http://www.w3.org/2000/svg" xmlns:xlink="http://www.w3.org/1999/xlink" width="11" height="9.68" viewBox="0 0 11 9.68">
<path fill-rule="nonzero" fill="rgb(30%,30%,30%)" fill-opacity="1" d="M 10.578125 2.730469 C 10.578125 2.730469 8.886719 2.199219 7.921875 2.199219 C 7.566406 2.199219 7.117188 2.269531 6.6875 2.359375 L 6.6875 3.519531 C 6.6875 3.734375 6.636719 3.984375 6.550781 4.246094 C 6.871094 4.183594 7.21875 3.96875 7.222656 3.964844 C 7.269531 3.933594 7.324219 3.917969 7.378906 3.914062 C 7.492188 3.914062 7.613281 4 7.613281 4.179688 L 7.613281 4.621094 C 7.613281 4.792969 7.496094 4.980469 7.339844 5.054688 C 7.328125 5.0625 7.058594 5.191406 6.601562 5.191406 C 6.367188 5.191406 6.203125 5.230469 6.097656 5.261719 C 5.800781 5.789062 5.453125 6.285156 5.0625 6.746094 C 5.636719 8.207031 7.183594 9.679688 7.699219 9.679688 L 8.140625 9.679688 C 8.808594 9.679688 11 7.007812 11 5.71875 L 11 3.300781 C 11 3.058594 10.8125 2.800781 10.578125 2.730469 Z M 9.09375 7.597656 C 9.054688 7.597656 9.015625 7.589844 8.976562 7.578125 C 8.972656 7.578125 8.53125 7.4375 7.921875 7.4375 C 7.308594 7.4375 6.867188 7.578125 6.863281 7.578125 C 6.824219 7.589844 6.785156 7.597656 6.746094 7.597656 C 6.660156 7.597656 6.574219 7.5625 6.511719 7.496094 C 6.453125 7.433594 6.421875 7.347656 6.425781 7.261719 C 6.425781 7.078125 6.542969 6.871094 6.695312 6.773438 C 6.71875 6.761719 7.28125 6.421875 7.921875 6.421875 C 8.558594 6.421875 9.121094 6.761719 9.144531 6.773438 C 9.300781 6.871094 9.414062 7.078125 9.414062 7.261719 C 9.414062 7.453125 9.277344 7.597656 9.09375 7.597656 Z M 10.160156 5.257812 C 10.121094 5.308594 10.0625 5.335938 10 5.335938 C 9.953125 5.335938 9.90625 5.324219 9.863281 5.300781 C 9.863281 5.300781 9.632812 5.191406 9.238281 5.191406 C 8.78125 5.191406 8.511719 5.0625 8.5 5.054688 C 8.34375 4.980469 8.226562 4.792969 8.226562 4.621094 L 8.226562 4.179688 C 8.226562 4 8.347656 3.914062 8.460938 3.914062 C 8.515625 3.917969 8.570312 3.933594 8.617188 3.964844 C 8.621094 3.96875 9.105469 4.269531 9.460938 4.269531 C 9.941406 4.269531 10.160156 4.953125 10.183594 5.03125 C 10.21875 5.144531 10.1875 5.21875 10.160156 5.257812 Z M 6.160156 1.101562 C 6.160156 0.859375 5.972656 0.601562 5.738281 0.527344 C 5.738281 0.527344 4.046875 0 3.078125 0 C 2.113281 0 0.421875 0.527344 0.421875 0.527344 C 0.1875 0.601562 0 0.859375 0 1.101562 L 0 3.519531 C 0 5.222656 2.21875 7.480469 2.859375 7.480469 L 3.300781 7.480469 C 3.96875 7.480469 6.160156 4.808594 6.160156 3.519531 Z M 1 2.695312 C 0.925781 2.695312 0.859375 2.664062 0.8125 2.609375 C 0.769531 2.558594 0.746094 2.488281 0.75 2.421875 C 0.75 2.261719 0.835938 2.0625 0.949219 1.953125 C 1.007812 1.898438 1.542969 1.40625 1.980469 1.40625 C 2.449219 1.40625 2.632812 1.710938 2.640625 1.722656 C 2.714844 1.847656 2.773438 2.054688 2.773438 2.199219 L 2.773438 2.421875 C 2.773438 2.578125 2.667969 2.695312 2.523438 2.695312 C 2.472656 2.695312 2.425781 2.683594 2.382812 2.660156 C 2.382812 2.660156 2.152344 2.550781 1.761719 2.550781 C 1.367188 2.550781 1.136719 2.660156 1.136719 2.660156 C 1.09375 2.683594 1.046875 2.695312 1 2.695312 Z M 4.304688 5.105469 C 4.28125 5.117188 3.71875 5.457031 3.078125 5.457031 C 2.441406 5.457031 1.878906 5.117188 1.855469 5.105469 C 1.699219 5.011719 1.585938 4.800781 1.585938 4.621094 C 1.585938 4.425781 1.722656 4.28125 1.90625 4.28125 C 1.945312 4.28125 1.984375 4.289062 2.023438 4.300781 C 2.027344 4.304688 2.46875 4.445312 3.078125 4.445312 C 3.691406 4.445312 4.132812 4.304688 4.136719 4.300781 C 4.175781 4.289062 4.214844 4.28125 4.253906 4.28125 C 4.4375 4.28125 4.574219 4.425781 4.574219 4.621094 C 4.574219 4.800781 4.457031 5.011719 4.304688 5.105469 Z M 5.347656 2.609375 C 5.300781 2.664062 5.234375 2.695312 5.160156 2.695312 C 5.113281 2.695312 5.066406 2.683594 5.023438 2.660156 C 5.023438 2.660156 4.792969 2.550781 4.398438 2.550781 C 4.007812 2.550781 3.777344 2.660156 3.773438 2.660156 C 3.734375 2.683594 3.6875 2.695312 3.636719 2.695312 C 3.492188 2.695312 3.386719 2.578125 3.386719 2.421875 L 3.386719 2.199219 C 3.386719 2.054688 3.445312 1.847656 3.519531 1.722656 C 3.527344 1.710938 3.710938 1.40625 4.179688 1.40625 C 4.617188 1.40625 5.152344 1.898438 5.210938 1.953125 C 5.324219 2.0625 5.410156 2.261719 5.410156 2.421875 C 5.414062 2.488281 5.390625 2.558594 5.347656 2.609375 Z M 5.347656 2.609375 "/>
</svg>
