<?xml version="1.0" encoding="UTF-8"?>
<svg xmlns="http://www.w3.org/2000/svg" xmlns:xlink="http://www.w3.org/1999/xlink" width="9.407425" height="11" viewBox="0 0 9.407425 11">
<path fill-rule="nonzero" fill="rgb(30%,30%,30%)" fill-opacity="1" d="M 8.621094 10.15625 L 7.832031 10.15625 L 7.832031 9.417969 C 7.832031 8.949219 7.453125 8.570312 6.984375 8.570312 L 2.417969 8.570312 C 1.949219 8.570312 1.570312 8.949219 1.570312 9.417969 L 1.570312 10.164062 L 0.785156 10.167969 L 0 11 L 9.40625 11 Z M 8.621094 10.15625 "/>
<path fill-rule="nonzero" fill="rgb(30%,30%,30%)" fill-opacity="1" d="M 6.261719 7.839844 L 3.160156 7.839844 L 3.148438 1.519531 C 3.148438 1.460938 3.167969 1.410156 3.210938 1.371094 L 4.503906 0.0859375 C 4.617188 -0.0273438 4.800781 -0.0273438 4.917969 0.0859375 L 6.210938 1.371094 C 6.25 1.410156 6.273438 1.460938 6.269531 1.519531 Z M 6.261719 7.839844 "/>
</svg>
