<?xml version="1.0" encoding="UTF-8" standalone="no"?>
<!-- Created with Inkscape (http://www.inkscape.org/) -->

<svg
   xmlns:dc="http://purl.org/dc/elements/1.1/"
   xmlns:cc="http://creativecommons.org/ns#"
   xmlns:rdf="http://www.w3.org/1999/02/22-rdf-syntax-ns#"
   xmlns:svg="http://www.w3.org/2000/svg"
   xmlns="http://www.w3.org/2000/svg"
   xmlns:xlink="http://www.w3.org/1999/xlink"
   xmlns:sodipodi="http://sodipodi.sourceforge.net/DTD/sodipodi-0.dtd"
   xmlns:inkscape="http://www.inkscape.org/namespaces/inkscape"
   width="30px"
   height="30px"
   version="1.1"
   id="svg8"
   inkscape:version="0.92.4 5da689c313, 2019-01-14"
   sodipodi:docname="container.svg">
  <defs
     id="defs2" />
  <sodipodi:namedview
     id="base"
     pagecolor="#ffffff"
     bordercolor="#666666"
     borderopacity="1.0"
     inkscape:pageopacity="0.0"
     inkscape:pageshadow="2"
     inkscape:zoom="13.049334"
     inkscape:cx="18.679046"
     inkscape:cy="12.165829"
     inkscape:document-units="px"
     inkscape:current-layer="layer1"
     showgrid="false"
     inkscape:snap-page="false"
     units="px"
     inkscape:window-width="1884"
     inkscape:window-height="1061"
     inkscape:window-x="0"
     inkscape:window-y="0"
     inkscape:window-maximized="1"
     fit-margin-top="0"
     fit-margin-left="0"
     fit-margin-right="0"
     fit-margin-bottom="0" />
  <metadata
     id="metadata5">
    <rdf:RDF>
      <cc:Work
         rdf:about="">
        <dc:format>image/svg+xml</dc:format>
        <dc:type
           rdf:resource="http://purl.org/dc/dcmitype/StillImage" />
        <dc:title></dc:title>
      </cc:Work>
    </rdf:RDF>
  </metadata>
    <circle
       style="color:#000000;clip-rule:nonzero;display:inline;overflow:visible;visibility:visible;opacity:1;isolation:auto;mix-blend-mode:normal;color-interpolation:sRGB;color-interpolation-filters:linearRGB;solid-color:#000000;solid-opacity:1;vector-effect:none;fill:#ffffff;fill-opacity:1;fill-rule:evenodd;stroke:#76009e;stroke-width:1;stroke-linecap:butt;stroke-linejoin:miter;stroke-miterlimit:4;stroke-dasharray:none;stroke-dashoffset:0;stroke-opacity:1;marker:none;color-rendering:auto;image-rendering:auto;shape-rendering:auto;text-rendering:auto;enable-background:accumulate"
       id="path815"
       cx="15"
       cy="15"
       r="14.5" />
<g transform="translate(6.5,7.5)"><path fill-rule="nonzero" fill="rgb(30%,30%,30%)" fill-opacity="1" d="M 16.203125 13.203125 L 9.660156 13.203125 C 9.550781 13.203125 9.464844 13.113281 9.464844 13.007812 L 9.480469 11.058594 C 9.445312 10.925781 9.527344 10.789062 9.660156 10.753906 C 9.679688 10.746094 9.703125 10.746094 9.722656 10.746094 L 11.84375 10.746094 C 13.21875 10.746094 15.074219 9.90625 15.074219 8.125 L 15.074219 7.878906 C 15.074219 7.738281 14.960938 7.625 14.824219 7.625 L 9.316406 7.625 C 9.175781 7.625 9.0625 7.511719 9.0625 7.375 L 9.0625 4.808594 C 9.0625 4.671875 9.175781 4.558594 9.316406 4.558594 L 10.367188 4.558594 C 11.023438 4.558594 11.554688 4.027344 11.554688 3.371094 C 11.554688 3.230469 11.445312 3.117188 11.304688 3.117188 L 8.871094 3.117188 C 8.730469 3.117188 8.617188 3.003906 8.617188 2.867188 C 8.617188 2.863281 8.617188 2.863281 8.617188 2.863281 L 8.632812 1.03125 C 8.632812 0.746094 8.863281 0.515625 9.148438 0.515625 C 9.367188 0.515625 9.5625 0.652344 9.632812 0.859375 C 9.667969 0.960938 9.765625 1.03125 9.875 1.03125 L 9.886719 1.03125 C 10.027344 1.03125 10.140625 0.917969 10.140625 0.78125 C 10.140625 0.753906 10.136719 0.722656 10.125 0.699219 C 9.941406 0.160156 9.355469 -0.128906 8.816406 0.0546875 C 8.707031 0.09375 8.605469 0.148438 8.511719 0.21875 C 8.417969 0.292969 8.289062 0.292969 8.195312 0.21875 C 7.746094 -0.132812 7.097656 -0.0546875 6.746094 0.394531 C 6.675781 0.488281 6.621094 0.589844 6.582031 0.699219 C 6.535156 0.828125 6.605469 0.972656 6.738281 1.019531 C 6.765625 1.027344 6.792969 1.03125 6.820312 1.03125 L 6.835938 1.03125 C 6.941406 1.03125 7.039062 0.960938 7.074219 0.859375 C 7.167969 0.589844 7.464844 0.453125 7.730469 0.546875 C 7.9375 0.621094 8.074219 0.8125 8.074219 1.03125 L 8.058594 2.867188 C 8.054688 3.007812 7.945312 3.117188 7.804688 3.117188 L 5.488281 3.117188 C 5.351562 3.117188 5.238281 3.230469 5.238281 3.371094 C 5.238281 4.027344 5.769531 4.558594 6.425781 4.558594 L 7.371094 4.558594 C 7.511719 4.558594 7.625 4.671875 7.625 4.808594 L 7.625 7.375 C 7.625 7.511719 7.511719 7.625 7.371094 7.625 L 1.875 7.625 C 1.734375 7.625 1.621094 7.738281 1.621094 7.878906 L 1.621094 8.125 C 1.621094 9.90625 3.332031 10.746094 4.851562 10.746094 L 7.117188 10.746094 C 7.257812 10.746094 7.371094 10.855469 7.371094 10.996094 C 7.371094 11.015625 7.367188 11.039062 7.363281 11.058594 L 7.308594 13.011719 C 7.304688 13.117188 7.21875 13.203125 7.117188 13.203125 L 0.796875 13.203125 C 0.355469 13.203125 0 13.558594 0 13.996094 C 0 14.4375 0.355469 14.792969 0.796875 14.792969 L 16.203125 14.792969 C 16.644531 14.792969 17 14.4375 17 13.996094 C 17 13.558594 16.644531 13.203125 16.203125 13.203125 Z M 16.203125 13.203125 "/>
<path fill-rule="nonzero" fill="rgb(30%,30%,30%)" fill-opacity="1" d="M 6.691406 1.535156 C 7.339844 2.402344 7.023438 2.648438 6.816406 2.703125 C 6.71875 2.730469 6.613281 2.730469 6.570312 2.703125 C 6.382812 2.601562 6.039062 2.402344 6.691406 1.535156 Z M 6.691406 1.535156 "/>
<path fill-rule="nonzero" fill="rgb(30%,30%,30%)" fill-opacity="1" d="M 9.980469 1.535156 C 10.628906 2.402344 10.3125 2.648438 10.105469 2.703125 C 10.007812 2.730469 9.902344 2.730469 9.855469 2.703125 C 9.671875 2.601562 9.328125 2.402344 9.980469 1.535156 Z M 9.980469 1.535156 "/>
</g>
</svg>
