<?xml version="1.0" encoding="UTF-8" standalone="no"?>
<!-- Created with Inkscape (http://www.inkscape.org/) -->

<svg
   xmlns:dc="http://purl.org/dc/elements/1.1/"
   xmlns:cc="http://creativecommons.org/ns#"
   xmlns:rdf="http://www.w3.org/1999/02/22-rdf-syntax-ns#"
   xmlns:svg="http://www.w3.org/2000/svg"
   xmlns="http://www.w3.org/2000/svg"
   xmlns:xlink="http://www.w3.org/1999/xlink"
   xmlns:sodipodi="http://sodipodi.sourceforge.net/DTD/sodipodi-0.dtd"
   xmlns:inkscape="http://www.inkscape.org/namespaces/inkscape"
   width="30px"
   height="30px"
   version="1.1"
   id="svg8"
   inkscape:version="0.92.4 5da689c313, 2019-01-14"
   sodipodi:docname="container.svg">
  <defs
     id="defs2" />
  <sodipodi:namedview
     id="base"
     pagecolor="#ffffff"
     bordercolor="#666666"
     borderopacity="1.0"
     inkscape:pageopacity="0.0"
     inkscape:pageshadow="2"
     inkscape:zoom="13.049334"
     inkscape:cx="18.679046"
     inkscape:cy="12.165829"
     inkscape:document-units="px"
     inkscape:current-layer="layer1"
     showgrid="false"
     inkscape:snap-page="false"
     units="px"
     inkscape:window-width="1884"
     inkscape:window-height="1061"
     inkscape:window-x="0"
     inkscape:window-y="0"
     inkscape:window-maximized="1"
     fit-margin-top="0"
     fit-margin-left="0"
     fit-margin-right="0"
     fit-margin-bottom="0" />
  <metadata
     id="metadata5">
    <rdf:RDF>
      <cc:Work
         rdf:about="">
        <dc:format>image/svg+xml</dc:format>
        <dc:type
           rdf:resource="http://purl.org/dc/dcmitype/StillImage" />
        <dc:title></dc:title>
      </cc:Work>
    </rdf:RDF>
  </metadata>
    <circle
       style="color:#000000;clip-rule:nonzero;display:inline;overflow:visible;visibility:visible;opacity:1;isolation:auto;mix-blend-mode:normal;color-interpolation:sRGB;color-interpolation-filters:linearRGB;solid-color:#000000;solid-opacity:1;vector-effect:none;fill:#76009e;fill-opacity:1;fill-rule:evenodd;stroke:#ffffff;stroke-width:1;stroke-linecap:butt;stroke-linejoin:miter;stroke-miterlimit:4;stroke-dasharray:none;stroke-dashoffset:0;stroke-opacity:1;marker:none;color-rendering:auto;image-rendering:auto;shape-rendering:auto;text-rendering:auto;enable-background:accumulate"
       id="path815"
       cx="15"
       cy="15"
       r="14.5" />
<g transform="translate(8.5,6.5)"><path fill-rule="nonzero" fill="#FFFFFF" fill-opacity="1" d="M 8.535156 2.332031 L 9.378906 2.738281 L 8.785156 3.910156 L 7.972656 3.503906 Z M 8.535156 2.332031 "/>
<path fill-rule="nonzero" fill="#FFFFFF" fill-opacity="1" d="M 5.207031 5.996094 L 8.742188 7.71875 L 6.136719 13.066406 L 2.597656 11.34375 Z M 9.871094 6.136719 L 5.558594 4.101562 C 5.160156 3.914062 4.6875 4.085938 4.5 4.480469 L 0.078125 13.832031 C -0.113281 14.226562 0.0585938 14.703125 0.457031 14.890625 L 4.769531 16.925781 C 5.167969 17.109375 5.640625 16.941406 5.828125 16.542969 L 10.25 7.195312 C 10.4375 6.800781 10.269531 6.324219 9.871094 6.136719 Z M 9.871094 6.136719 "/>
<path fill-rule="nonzero" fill="#FFFFFF" fill-opacity="1" d="M 8.214844 3.816406 C 7.375 3.464844 6.46875 3.566406 5.835938 4.007812 L 9.773438 5.875 C 9.726562 5.027344 9.140625 4.203125 8.214844 3.816406 Z M 8.214844 3.816406 "/>
<path fill-rule="nonzero" fill="#FFFFFF" fill-opacity="1" d="M 9.796875 2.339844 L 13.125 0 L 13.15625 0.535156 L 9.722656 2.511719 Z M 9.796875 2.339844 "/>
<path fill-rule="nonzero" fill="#FFFFFF" fill-opacity="1" d="M 9.804688 2.457031 L 13.496094 0.746094 L 13.429688 1.277344 L 9.699219 2.613281 Z M 9.804688 2.457031 "/>
<path fill-rule="nonzero" fill="#FFFFFF" fill-opacity="1" d="M 9.71875 2.671875 L 10.117188 3.03125 L 13.203125 1.5625 L 12.894531 1.511719 Z M 9.71875 2.671875 "/>
<path fill-rule="nonzero" fill="#FFFFFF" fill-opacity="1" d="M 9.742188 2.914062 L 10.425781 3.792969 L 12.910156 2.570312 L 12.359375 1.933594 Z M 9.742188 2.914062 "/>
<path fill-rule="nonzero" fill="#FFFFFF" fill-opacity="1" d="M 9.761719 3.160156 L 10.738281 4.550781 L 12.617188 3.574219 L 11.820312 2.359375 Z M 9.761719 3.160156 "/>
<path fill-rule="nonzero" fill="#FFFFFF" fill-opacity="1" d="M 9.785156 3.402344 L 11.046875 5.3125 L 12.324219 4.578125 L 11.285156 2.78125 Z M 9.785156 3.402344 "/>
<path fill-rule="nonzero" fill="#FFFFFF" fill-opacity="1" d="M 9.804688 3.648438 L 11.359375 6.074219 L 12.03125 5.585938 L 10.75 3.203125 Z M 9.804688 3.648438 "/>
<path fill-rule="nonzero" fill="#FFFFFF" fill-opacity="1" d="M 9.824219 3.890625 L 11.671875 6.835938 L 11.738281 6.589844 L 10.210938 3.625 Z M 9.824219 3.890625 "/>
<path fill-rule="nonzero" fill="#FFFFFF" fill-opacity="1" d="M 9.664062 4.132812 L 11.796875 7.597656 L 11.261719 7.597656 L 9.492188 4.046875 Z M 9.664062 4.132812 "/>
</g>
</svg>
