<?xml version="1.0" encoding="UTF-8" standalone="no"?>
<!-- Created with Inkscape (http://www.inkscape.org/) -->

<svg
   xmlns:dc="http://purl.org/dc/elements/1.1/"
   xmlns:cc="http://creativecommons.org/ns#"
   xmlns:rdf="http://www.w3.org/1999/02/22-rdf-syntax-ns#"
   xmlns:svg="http://www.w3.org/2000/svg"
   xmlns="http://www.w3.org/2000/svg"
   xmlns:xlink="http://www.w3.org/1999/xlink"
   xmlns:sodipodi="http://sodipodi.sourceforge.net/DTD/sodipodi-0.dtd"
   xmlns:inkscape="http://www.inkscape.org/namespaces/inkscape"
   width="30px"
   height="30px"
   version="1.1"
   id="svg8"
   inkscape:version="0.92.4 5da689c313, 2019-01-14"
   sodipodi:docname="container.svg">
  <defs
     id="defs2" />
  <sodipodi:namedview
     id="base"
     pagecolor="#ffffff"
     bordercolor="#666666"
     borderopacity="1.0"
     inkscape:pageopacity="0.0"
     inkscape:pageshadow="2"
     inkscape:zoom="13.049334"
     inkscape:cx="18.679046"
     inkscape:cy="12.165829"
     inkscape:document-units="px"
     inkscape:current-layer="layer1"
     showgrid="false"
     inkscape:snap-page="false"
     units="px"
     inkscape:window-width="1884"
     inkscape:window-height="1061"
     inkscape:window-x="0"
     inkscape:window-y="0"
     inkscape:window-maximized="1"
     fit-margin-top="0"
     fit-margin-left="0"
     fit-margin-right="0"
     fit-margin-bottom="0" />
  <metadata
     id="metadata5">
    <rdf:RDF>
      <cc:Work
         rdf:about="">
        <dc:format>image/svg+xml</dc:format>
        <dc:type
           rdf:resource="http://purl.org/dc/dcmitype/StillImage" />
        <dc:title></dc:title>
      </cc:Work>
    </rdf:RDF>
  </metadata>
    <circle
       style="color:#000000;clip-rule:nonzero;display:inline;overflow:visible;visibility:visible;opacity:1;isolation:auto;mix-blend-mode:normal;color-interpolation:sRGB;color-interpolation-filters:linearRGB;solid-color:#000000;solid-opacity:1;vector-effect:none;fill:#76009e;fill-opacity:1;fill-rule:evenodd;stroke:#ffffff;stroke-width:1;stroke-linecap:butt;stroke-linejoin:miter;stroke-miterlimit:4;stroke-dasharray:none;stroke-dashoffset:0;stroke-opacity:1;marker:none;color-rendering:auto;image-rendering:auto;shape-rendering:auto;text-rendering:auto;enable-background:accumulate"
       id="path815"
       cx="15"
       cy="15"
       r="14.5" />
<g transform="translate(9.5,6.5)"><path fill-rule="evenodd" fill="#FFFFFF" fill-opacity="1" d="M 10.546875 9.167969 L 5.640625 5.300781 L 10.496094 1.292969 L 9.214844 0 L 5.277344 4.941406 L 1.402344 0.0507812 L 0 1.304688 L 4.894531 5.300781 L 0.0507812 9.101562 L 1.296875 10.507812 L 5.28125 5.683594 L 9.261719 10.457031 Z M 10.546875 9.167969 "/>
<path fill-rule="evenodd" fill="#FFFFFF" fill-opacity="1" d="M 9.121094 16.292969 L 8.105469 9.820312 C 8.078125 9.652344 5.273438 6.28125 5.273438 6.28125 C 5.273438 6.28125 2.382812 9.65625 2.355469 9.832031 L 1.359375 16.292969 L 0.695312 16.292969 L 0.695312 17 L 9.835938 17 L 9.835938 16.292969 Z M 3.949219 15.710938 L 4.1875 13.394531 C 4.238281 12.941406 4.578125 12.597656 5.078125 12.597656 L 5.28125 12.597656 C 5.84375 12.597656 6.3125 13.023438 6.371094 13.582031 L 6.578125 15.710938 Z M 3.949219 15.710938 "/>
</g>
</svg>
