<?xml version="1.0" encoding="UTF-8" standalone="no"?>
<!-- Created with Inkscape (http://www.inkscape.org/) -->

<svg
   xmlns:dc="http://purl.org/dc/elements/1.1/"
   xmlns:cc="http://creativecommons.org/ns#"
   xmlns:rdf="http://www.w3.org/1999/02/22-rdf-syntax-ns#"
   xmlns:svg="http://www.w3.org/2000/svg"
   xmlns="http://www.w3.org/2000/svg"
   xmlns:xlink="http://www.w3.org/1999/xlink"
   xmlns:sodipodi="http://sodipodi.sourceforge.net/DTD/sodipodi-0.dtd"
   xmlns:inkscape="http://www.inkscape.org/namespaces/inkscape"
   width="30px"
   height="30px"
   version="1.1"
   id="svg8"
   inkscape:version="0.92.4 5da689c313, 2019-01-14"
   sodipodi:docname="container.svg">
  <defs
     id="defs2" />
  <sodipodi:namedview
     id="base"
     pagecolor="#ffffff"
     bordercolor="#666666"
     borderopacity="1.0"
     inkscape:pageopacity="0.0"
     inkscape:pageshadow="2"
     inkscape:zoom="13.049334"
     inkscape:cx="18.679046"
     inkscape:cy="12.165829"
     inkscape:document-units="px"
     inkscape:current-layer="layer1"
     showgrid="false"
     inkscape:snap-page="false"
     units="px"
     inkscape:window-width="1884"
     inkscape:window-height="1061"
     inkscape:window-x="0"
     inkscape:window-y="0"
     inkscape:window-maximized="1"
     fit-margin-top="0"
     fit-margin-left="0"
     fit-margin-right="0"
     fit-margin-bottom="0" />
  <metadata
     id="metadata5">
    <rdf:RDF>
      <cc:Work
         rdf:about="">
        <dc:format>image/svg+xml</dc:format>
        <dc:type
           rdf:resource="http://purl.org/dc/dcmitype/StillImage" />
        <dc:title></dc:title>
      </cc:Work>
    </rdf:RDF>
  </metadata>
    <circle
       style="color:#000000;clip-rule:nonzero;display:inline;overflow:visible;visibility:visible;opacity:1;isolation:auto;mix-blend-mode:normal;color-interpolation:sRGB;color-interpolation-filters:linearRGB;solid-color:#000000;solid-opacity:1;vector-effect:none;fill:#76009e;fill-opacity:1;fill-rule:evenodd;stroke:#ffffff;stroke-width:1;stroke-linecap:butt;stroke-linejoin:miter;stroke-miterlimit:4;stroke-dasharray:none;stroke-dashoffset:0;stroke-opacity:1;marker:none;color-rendering:auto;image-rendering:auto;shape-rendering:auto;text-rendering:auto;enable-background:accumulate"
       id="path815"
       cx="15"
       cy="15"
       r="14.5" />
<g transform="translate(6.5,7.5)"><path fill-rule="nonzero" fill="#FFFFFF" fill-opacity="1" d="M 16.351562 4.21875 C 16.351562 4.21875 13.734375 3.398438 12.238281 3.398438 C 11.695312 3.398438 11 3.507812 10.335938 3.648438 L 10.335938 5.441406 C 10.335938 5.769531 10.253906 6.15625 10.121094 6.566406 C 10.621094 6.464844 11.15625 6.132812 11.164062 6.128906 C 11.234375 6.078125 11.320312 6.054688 11.40625 6.050781 C 11.578125 6.050781 11.765625 6.179688 11.765625 6.460938 L 11.765625 7.140625 C 11.765625 7.40625 11.582031 7.695312 11.34375 7.8125 C 11.328125 7.820312 10.910156 8.023438 10.199219 8.023438 C 9.84375 8.023438 9.585938 8.082031 9.421875 8.128906 C 8.964844 8.945312 8.429688 9.714844 7.820312 10.421875 C 8.714844 12.683594 11.101562 14.960938 11.898438 14.960938 L 12.578125 14.960938 C 13.609375 14.960938 17 10.832031 17 8.839844 L 17 5.101562 C 17 4.726562 16.707031 4.328125 16.351562 4.21875 Z M 14.054688 11.742188 C 13.992188 11.742188 13.929688 11.730469 13.871094 11.710938 C 13.867188 11.710938 13.183594 11.492188 12.238281 11.492188 C 11.296875 11.492188 10.613281 11.710938 10.609375 11.710938 C 10.550781 11.730469 10.488281 11.742188 10.425781 11.742188 C 10.289062 11.742188 10.160156 11.6875 10.066406 11.585938 C 9.976562 11.488281 9.925781 11.355469 9.929688 11.21875 C 9.929688 10.9375 10.109375 10.617188 10.347656 10.472656 C 10.386719 10.449219 11.25 9.925781 12.238281 9.925781 C 13.230469 9.925781 14.09375 10.449219 14.132812 10.472656 C 14.371094 10.617188 14.550781 10.9375 14.550781 11.21875 C 14.550781 11.515625 14.335938 11.742188 14.054688 11.742188 Z M 15.699219 8.128906 C 15.640625 8.203125 15.550781 8.25 15.453125 8.246094 C 15.378906 8.246094 15.308594 8.226562 15.246094 8.191406 C 15.242188 8.191406 14.886719 8.023438 14.28125 8.023438 C 13.570312 8.023438 13.152344 7.820312 13.136719 7.8125 C 12.894531 7.695312 12.714844 7.40625 12.714844 7.140625 L 12.714844 6.460938 C 12.714844 6.179688 12.902344 6.050781 13.074219 6.050781 C 13.160156 6.054688 13.246094 6.078125 13.316406 6.128906 C 13.324219 6.132812 14.070312 6.597656 14.621094 6.597656 C 15.367188 6.597656 15.703125 7.65625 15.738281 7.777344 C 15.792969 7.953125 15.746094 8.0625 15.699219 8.128906 Z M 9.519531 1.699219 C 9.519531 1.324219 9.226562 0.929688 8.871094 0.816406 C 8.871094 0.816406 6.253906 0 4.761719 0 C 3.265625 0 0.648438 0.816406 0.648438 0.816406 C 0.292969 0.929688 0 1.324219 0 1.699219 L 0 5.441406 C 0 8.070312 3.433594 11.558594 4.421875 11.558594 L 5.101562 11.558594 C 6.128906 11.558594 9.519531 7.429688 9.519531 5.441406 Z M 1.542969 4.164062 C 1.433594 4.167969 1.328125 4.117188 1.253906 4.035156 C 1.1875 3.953125 1.152344 3.847656 1.15625 3.738281 C 1.15625 3.496094 1.289062 3.183594 1.46875 3.019531 C 1.558594 2.933594 2.382812 2.175781 3.058594 2.175781 C 3.785156 2.175781 4.070312 2.644531 4.082031 2.664062 C 4.195312 2.855469 4.285156 3.175781 4.285156 3.398438 L 4.285156 3.738281 C 4.285156 3.988281 4.121094 4.164062 3.898438 4.164062 C 3.824219 4.164062 3.75 4.148438 3.683594 4.113281 C 3.683594 4.113281 3.328125 3.945312 2.71875 3.945312 C 2.113281 3.945312 1.757812 4.113281 1.753906 4.113281 C 1.6875 4.148438 1.617188 4.164062 1.542969 4.164062 Z M 6.652344 7.890625 C 6.613281 7.910156 5.75 8.433594 4.761719 8.433594 C 3.769531 8.433594 2.90625 7.910156 2.867188 7.890625 C 2.628906 7.742188 2.449219 7.421875 2.449219 7.140625 C 2.449219 6.84375 2.664062 6.617188 2.945312 6.617188 C 3.007812 6.617188 3.070312 6.628906 3.128906 6.648438 C 3.132812 6.648438 3.816406 6.867188 4.761719 6.867188 C 5.703125 6.867188 6.386719 6.648438 6.390625 6.648438 C 6.449219 6.628906 6.511719 6.617188 6.574219 6.617188 C 6.859375 6.617188 7.070312 6.84375 7.070312 7.140625 C 7.070312 7.421875 6.890625 7.742188 6.652344 7.890625 Z M 8.265625 4.035156 C 8.191406 4.117188 8.085938 4.167969 7.976562 4.164062 C 7.902344 4.164062 7.832031 4.148438 7.765625 4.113281 C 7.761719 4.113281 7.40625 3.945312 6.800781 3.945312 C 6.191406 3.945312 5.839844 4.113281 5.835938 4.113281 C 5.769531 4.148438 5.695312 4.164062 5.621094 4.164062 C 5.398438 4.164062 5.234375 3.988281 5.234375 3.738281 L 5.234375 3.398438 C 5.234375 3.175781 5.324219 2.855469 5.4375 2.664062 C 5.449219 2.644531 5.734375 2.175781 6.460938 2.175781 C 7.136719 2.175781 7.960938 2.933594 8.050781 3.019531 C 8.230469 3.183594 8.363281 3.496094 8.363281 3.738281 C 8.367188 3.847656 8.332031 3.953125 8.265625 4.035156 Z M 8.265625 4.035156 "/>
</g>
</svg>
