<?xml version="1.0" encoding="UTF-8"?>
<svg xmlns="http://www.w3.org/2000/svg" xmlns:xlink="http://www.w3.org/1999/xlink" width="6.527216" height="11" viewBox="0 0 6.527216 11">
<path fill-rule="nonzero" fill="rgb(30%,30%,30%)" fill-opacity="1" d="M 3.234375 5.769531 L 0.398438 7.25 L 0.421875 11 L 2.414062 11 L 2.414062 9.152344 C 2.414062 8.699219 2.78125 8.332031 3.234375 8.332031 C 3.6875 8.332031 4.054688 8.699219 4.054688 9.152344 L 4.054688 11 L 6.046875 11 L 6.046875 7.226562 Z M 1.925781 9.71875 L 1.015625 9.71875 L 1.015625 8.742188 C 1.015625 8.492188 1.21875 8.285156 1.46875 8.285156 C 1.722656 8.285156 1.925781 8.492188 1.925781 8.742188 Z M 5.4375 9.71875 L 4.523438 9.71875 L 4.523438 8.742188 C 4.523438 8.492188 4.730469 8.285156 4.980469 8.285156 C 5.234375 8.285156 5.4375 8.492188 5.4375 8.742188 Z M 5.4375 9.71875 "/>
<path fill-rule="nonzero" fill="rgb(30%,30%,30%)" fill-opacity="1" d="M 4.46875 5.796875 L 4.492188 4.761719 L 4.933594 4.761719 L 3.425781 2.886719 L 3.425781 1.347656 L 4.246094 1.347656 L 4.246094 0.882812 L 3.425781 0.882812 L 3.425781 0 L 3.015625 0 L 3.015625 0.882812 L 2.199219 0.882812 L 2.199219 1.347656 L 3.015625 1.347656 L 3.015625 2.886719 L 1.457031 4.761719 L 1.976562 4.761719 L 1.976562 5.796875 L 0.128906 6.761719 C 0.0703125 6.792969 0.0273438 6.847656 0.0078125 6.910156 C -0.0078125 6.976562 0 7.042969 0.0351562 7.101562 C 0.0976562 7.210938 0.242188 7.253906 0.355469 7.191406 L 3.234375 5.671875 L 6.167969 7.195312 C 6.28125 7.253906 6.417969 7.21875 6.488281 7.113281 C 6.527344 7.054688 6.535156 6.980469 6.519531 6.914062 C 6.5 6.84375 6.453125 6.789062 6.390625 6.757812 Z M 3.210938 5.066406 C 2.957031 5.066406 2.753906 4.863281 2.753906 4.613281 C 2.753906 4.359375 2.957031 4.15625 3.210938 4.15625 C 3.460938 4.15625 3.664062 4.359375 3.664062 4.613281 C 3.664062 4.863281 3.460938 5.066406 3.210938 5.066406 Z M 3.210938 5.066406 "/>
</svg>
