<?xml version="1.0" encoding="UTF-8" standalone="no"?>
<!-- Created with Inkscape (http://www.inkscape.org/) -->

<svg
   xmlns:dc="http://purl.org/dc/elements/1.1/"
   xmlns:cc="http://creativecommons.org/ns#"
   xmlns:rdf="http://www.w3.org/1999/02/22-rdf-syntax-ns#"
   xmlns:svg="http://www.w3.org/2000/svg"
   xmlns="http://www.w3.org/2000/svg"
   xmlns:xlink="http://www.w3.org/1999/xlink"
   xmlns:sodipodi="http://sodipodi.sourceforge.net/DTD/sodipodi-0.dtd"
   xmlns:inkscape="http://www.inkscape.org/namespaces/inkscape"
   width="30px"
   height="30px"
   version="1.1"
   id="svg8"
   inkscape:version="0.92.4 5da689c313, 2019-01-14"
   sodipodi:docname="container.svg">
  <defs
     id="defs2" />
  <sodipodi:namedview
     id="base"
     pagecolor="#ffffff"
     bordercolor="#666666"
     borderopacity="1.0"
     inkscape:pageopacity="0.0"
     inkscape:pageshadow="2"
     inkscape:zoom="13.049334"
     inkscape:cx="18.679046"
     inkscape:cy="12.165829"
     inkscape:document-units="px"
     inkscape:current-layer="layer1"
     showgrid="false"
     inkscape:snap-page="false"
     units="px"
     inkscape:window-width="1884"
     inkscape:window-height="1061"
     inkscape:window-x="0"
     inkscape:window-y="0"
     inkscape:window-maximized="1"
     fit-margin-top="0"
     fit-margin-left="0"
     fit-margin-right="0"
     fit-margin-bottom="0" />
  <metadata
     id="metadata5">
    <rdf:RDF>
      <cc:Work
         rdf:about="">
        <dc:format>image/svg+xml</dc:format>
        <dc:type
           rdf:resource="http://purl.org/dc/dcmitype/StillImage" />
        <dc:title></dc:title>
      </cc:Work>
    </rdf:RDF>
  </metadata>
    <circle
       style="color:#000000;clip-rule:nonzero;display:inline;overflow:visible;visibility:visible;opacity:1;isolation:auto;mix-blend-mode:normal;color-interpolation:sRGB;color-interpolation-filters:linearRGB;solid-color:#000000;solid-opacity:1;vector-effect:none;fill:#ffffff;fill-opacity:1;fill-rule:evenodd;stroke:#76009e;stroke-width:1;stroke-linecap:butt;stroke-linejoin:miter;stroke-miterlimit:4;stroke-dasharray:none;stroke-dashoffset:0;stroke-opacity:1;marker:none;color-rendering:auto;image-rendering:auto;shape-rendering:auto;text-rendering:auto;enable-background:accumulate"
       id="path815"
       cx="15"
       cy="15"
       r="14.5" />
<g transform="translate(6.5,6.5)"><path fill-rule="nonzero" fill="rgb(30%,30%,30%)" fill-opacity="1" d="M 2.234375 5.484375 L 3.390625 5.484375 C 3.679688 5.484375 3.914062 5.714844 3.914062 6.003906 L 3.914062 12.726562 C 3.914062 13.015625 3.679688 13.25 3.390625 13.25 L 2.234375 13.25 C 1.945312 13.25 1.710938 13.015625 1.710938 12.726562 L 1.710938 6.003906 C 1.710938 5.714844 1.945312 5.484375 2.234375 5.484375 Z M 2.234375 5.484375 "/>
<path fill-rule="nonzero" fill="rgb(30%,30%,30%)" fill-opacity="1" d="M 6.015625 5.484375 L 7.171875 5.484375 C 7.460938 5.484375 7.695312 5.714844 7.695312 6.003906 L 7.695312 12.726562 C 7.695312 13.015625 7.460938 13.25 7.171875 13.25 L 6.015625 13.25 C 5.726562 13.25 5.492188 13.015625 5.492188 12.726562 L 5.492188 6.003906 C 5.492188 5.714844 5.726562 5.484375 6.015625 5.484375 Z M 6.015625 5.484375 "/>
<path fill-rule="nonzero" fill="rgb(30%,30%,30%)" fill-opacity="1" d="M 9.796875 5.484375 L 10.957031 5.484375 C 11.242188 5.484375 11.476562 5.714844 11.476562 6.003906 L 11.476562 12.726562 C 11.476562 13.015625 11.242188 13.25 10.957031 13.25 L 9.796875 13.25 C 9.507812 13.25 9.273438 13.015625 9.273438 12.726562 L 9.273438 6.003906 C 9.273438 5.714844 9.507812 5.484375 9.796875 5.484375 Z M 9.796875 5.484375 "/>
<path fill-rule="nonzero" fill="rgb(30%,30%,30%)" fill-opacity="1" d="M 13.582031 5.484375 L 14.738281 5.484375 C 15.027344 5.484375 15.261719 5.714844 15.261719 6.003906 L 15.261719 12.726562 C 15.261719 13.015625 15.027344 13.25 14.738281 13.25 L 13.582031 13.25 C 13.292969 13.25 13.058594 13.015625 13.058594 12.726562 L 13.058594 6.003906 C 13.058594 5.714844 13.292969 5.484375 13.582031 5.484375 Z M 13.582031 5.484375 "/>
<path fill-rule="nonzero" fill="rgb(30%,30%,30%)" fill-opacity="1" d="M 0.566406 14.875 L 16.476562 14.875 C 16.765625 14.875 17 15.109375 17 15.398438 L 17 16.308594 C 17 16.597656 16.765625 16.832031 16.476562 16.832031 L 0.566406 16.832031 C 0.277344 16.832031 0.0429688 16.597656 0.0429688 16.308594 L 0.0429688 15.398438 C 0.0429688 15.109375 0.277344 14.875 0.566406 14.875 Z M 0.566406 14.875 "/>
<path fill-rule="nonzero" fill="rgb(30%,30%,30%)" fill-opacity="1" d="M 16.445312 3.613281 L 0.554688 3.613281 C 0.246094 3.613281 0 3.367188 0 3.058594 C 0 2.820312 0.15625 2.605469 0.382812 2.53125 L 7.976562 0.078125 C 8.304688 -0.0273438 8.652344 -0.0273438 8.980469 0.078125 L 16.617188 2.53125 C 16.84375 2.605469 17 2.820312 17 3.058594 C 17 3.367188 16.753906 3.613281 16.445312 3.613281 Z M 16.445312 3.613281 "/>
</g>
</svg>
