<?xml version="1.0" encoding="UTF-8" standalone="no"?>
<!-- Created with Inkscape (http://www.inkscape.org/) -->

<svg
   xmlns:dc="http://purl.org/dc/elements/1.1/"
   xmlns:cc="http://creativecommons.org/ns#"
   xmlns:rdf="http://www.w3.org/1999/02/22-rdf-syntax-ns#"
   xmlns:svg="http://www.w3.org/2000/svg"
   xmlns="http://www.w3.org/2000/svg"
   xmlns:xlink="http://www.w3.org/1999/xlink"
   xmlns:sodipodi="http://sodipodi.sourceforge.net/DTD/sodipodi-0.dtd"
   xmlns:inkscape="http://www.inkscape.org/namespaces/inkscape"
   width="30px"
   height="30px"
   version="1.1"
   id="svg8"
   inkscape:version="0.92.4 5da689c313, 2019-01-14"
   sodipodi:docname="container.svg">
  <defs
     id="defs2" />
  <sodipodi:namedview
     id="base"
     pagecolor="#ffffff"
     bordercolor="#666666"
     borderopacity="1.0"
     inkscape:pageopacity="0.0"
     inkscape:pageshadow="2"
     inkscape:zoom="13.049334"
     inkscape:cx="18.679046"
     inkscape:cy="12.165829"
     inkscape:document-units="px"
     inkscape:current-layer="layer1"
     showgrid="false"
     inkscape:snap-page="false"
     units="px"
     inkscape:window-width="1884"
     inkscape:window-height="1061"
     inkscape:window-x="0"
     inkscape:window-y="0"
     inkscape:window-maximized="1"
     fit-margin-top="0"
     fit-margin-left="0"
     fit-margin-right="0"
     fit-margin-bottom="0" />
  <metadata
     id="metadata5">
    <rdf:RDF>
      <cc:Work
         rdf:about="">
        <dc:format>image/svg+xml</dc:format>
        <dc:type
           rdf:resource="http://purl.org/dc/dcmitype/StillImage" />
        <dc:title></dc:title>
      </cc:Work>
    </rdf:RDF>
  </metadata>
    <circle
       style="color:#000000;clip-rule:nonzero;display:inline;overflow:visible;visibility:visible;opacity:1;isolation:auto;mix-blend-mode:normal;color-interpolation:sRGB;color-interpolation-filters:linearRGB;solid-color:#000000;solid-opacity:1;vector-effect:none;fill:#ffffff;fill-opacity:1;fill-rule:evenodd;stroke:#76009e;stroke-width:1;stroke-linecap:butt;stroke-linejoin:miter;stroke-miterlimit:4;stroke-dasharray:none;stroke-dashoffset:0;stroke-opacity:1;marker:none;color-rendering:auto;image-rendering:auto;shape-rendering:auto;text-rendering:auto;enable-background:accumulate"
       id="path815"
       cx="15"
       cy="15"
       r="14.5" />
<g transform="translate(6.5,8.0)"><path fill-rule="nonzero" fill="rgb(30%,30%,30%)" fill-opacity="1" d="M 8.230469 0.0976562 C 8.386719 -0.03125 8.617188 -0.03125 8.773438 0.0976562 L 11.988281 2.777344 C 12.472656 3.179688 12.75 3.777344 12.75 4.410156 L 12.75 13.601562 L 9.351562 13.601562 L 9.351562 11.050781 C 9.351562 10.578125 8.96875 10.199219 8.5 10.199219 C 8.03125 10.199219 7.648438 10.578125 7.648438 11.050781 L 7.648438 13.601562 L 4.25 13.601562 L 4.25 4.410156 C 4.25 3.78125 4.527344 3.179688 5.015625 2.777344 Z M 13.601562 13.601562 L 13.601562 6.496094 L 14.347656 5.664062 C 14.425781 5.574219 14.542969 5.523438 14.664062 5.523438 C 14.78125 5.523438 14.898438 5.574219 14.980469 5.664062 L 16.671875 7.550781 C 16.882812 7.78125 17 8.089844 17 8.402344 L 17 11.898438 C 17 12.835938 16.238281 13.601562 15.300781 13.601562 Z M 3.398438 6.496094 L 3.398438 13.601562 L 1.699219 13.601562 C 0.761719 13.601562 0 12.835938 0 11.898438 L 0 8.402344 C 0 8.085938 0.117188 7.78125 0.328125 7.550781 L 2.019531 5.664062 C 2.101562 5.574219 2.21875 5.523438 2.335938 5.523438 C 2.457031 5.523438 2.574219 5.574219 2.652344 5.664062 Z M 8.6875 3.300781 C 8.605469 3.160156 8.394531 3.160156 8.316406 3.300781 L 7.894531 4.046875 L 7.035156 4.039062 C 6.871094 4.039062 6.769531 4.21875 6.851562 4.363281 L 7.285156 5.101562 L 6.851562 5.839844 C 6.765625 5.980469 6.867188 6.160156 7.035156 6.160156 L 7.894531 6.152344 L 8.3125 6.898438 C 8.394531 7.042969 8.605469 7.042969 8.683594 6.898438 L 9.105469 6.152344 L 9.964844 6.160156 C 10.128906 6.164062 10.230469 5.980469 10.148438 5.839844 L 9.714844 5.101562 L 10.148438 4.363281 C 10.234375 4.21875 10.132812 4.039062 9.964844 4.039062 L 9.105469 4.046875 Z M 8.6875 3.300781 "/>
</g>
</svg>
