<?xml version="1.0" encoding="UTF-8"?>
<svg xmlns="http://www.w3.org/2000/svg" xmlns:xlink="http://www.w3.org/1999/xlink" width="11" height="10.53378" viewBox="0 0 11 10.53378">
<path fill-rule="nonzero" fill="rgb(30%,30%,30%)" fill-opacity="1" d="M 10.925781 6.980469 L 8.070312 1.4375 C 8.019531 1.339844 7.929688 1.265625 7.824219 1.230469 L 3.871094 0.0195312 C 3.765625 -0.015625 3.648438 -0.00390625 3.550781 0.046875 L 3.308594 0.171875 C 3.226562 0.214844 3.160156 0.285156 3.117188 0.375 C 2.964844 0.359375 2.796875 0.363281 2.617188 0.390625 C 2.125 0.46875 1.59375 0.722656 1.125 1.105469 C 0.65625 1.484375 0.296875 1.953125 0.121094 2.421875 C -0.0703125 2.925781 -0.0351562 3.375 0.21875 3.6875 C 0.421875 3.933594 0.738281 4.066406 1.125 4.066406 C 1.226562 4.066406 1.328125 4.054688 1.4375 4.039062 C 1.929688 3.960938 2.460938 3.707031 2.929688 3.324219 C 3.398438 2.945312 3.757812 2.476562 3.933594 2.007812 C 4.074219 1.632812 4.09375 1.289062 3.988281 1.011719 C 4.03125 1 4.078125 0.996094 4.125 0.996094 C 4.433594 1 4.679688 1.25 4.675781 1.554688 C 4.671875 1.863281 4.375 2.101562 4.070312 2.097656 C 3.996094 2.097656 3.847656 2.765625 2.996094 3.460938 C 2.765625 3.648438 2.257812 3.882812 2 4.007812 L 1.878906 4.339844 C 1.84375 4.445312 1.855469 4.554688 1.902344 4.652344 L 4.726562 10.171875 C 4.894531 10.5 5.292969 10.628906 5.621094 10.460938 L 10.640625 7.875 C 10.964844 7.707031 11.09375 7.308594 10.925781 6.980469 Z M 2.691406 3.03125 C 2.273438 3.371094 1.808594 3.597656 1.378906 3.664062 C 0.984375 3.726562 0.679688 3.648438 0.511719 3.445312 C 0.347656 3.242188 0.335938 2.925781 0.476562 2.554688 C 0.628906 2.148438 0.945312 1.738281 1.363281 1.398438 C 1.882812 0.976562 2.472656 0.742188 2.929688 0.742188 C 2.953125 0.742188 2.976562 0.746094 2.996094 0.746094 L 2.996094 0.753906 L 2.257812 3.199219 C 2.488281 3.089844 3.25 2.34375 3.492188 1.796875 C 3.394531 1.648438 3.449219 1.246094 3.664062 1.160156 C 3.769531 1.648438 3.382812 2.472656 2.691406 3.03125 Z M 2.84375 6.007812 L 8.578125 3.019531 L 8.800781 3.445312 L 3.066406 6.433594 Z M 7.46875 4.320312 L 7.363281 4.921875 L 5.117188 6.09375 L 4.59375 5.820312 Z M 6.34375 9.296875 L 4.980469 6.652344 C 4.90625 6.566406 4.8125 6.492188 4.710938 6.445312 C 4.476562 6.335938 4.351562 6.269531 3.9375 6.503906 C 3.742188 6.613281 3.609375 6.882812 3.757812 7.195312 C 3.800781 7.289062 3.980469 7.585938 4.371094 7.414062 C 4.488281 7.363281 4.542969 7.292969 4.5625 7.203125 C 4.585938 7.078125 4.539062 6.960938 4.445312 6.898438 C 4.40625 6.871094 4.316406 6.863281 4.265625 6.890625 C 4.257812 6.898438 4.246094 6.902344 4.238281 6.902344 C 4.207031 6.914062 4.171875 6.929688 4.144531 6.949219 C 4.148438 7.023438 4.105469 7.09375 4.035156 7.117188 C 3.949219 7.152344 3.859375 7.117188 3.824219 7.027344 C 3.796875 6.960938 3.804688 6.890625 3.835938 6.824219 C 3.902344 6.6875 4.054688 6.609375 4.121094 6.585938 C 4.273438 6.515625 4.445312 6.53125 4.601562 6.632812 C 4.796875 6.765625 4.917969 7.007812 4.898438 7.234375 C 4.886719 7.359375 4.820312 7.589844 4.503906 7.726562 C 4.007812 7.941406 3.617188 7.6875 3.453125 7.339844 C 3.359375 7.148438 3.335938 6.925781 3.378906 6.722656 C 3.433594 6.496094 3.640625 6.265625 3.847656 6.160156 C 4.328125 5.910156 4.636719 6.035156 4.871094 6.148438 C 5.117188 6.265625 5.246094 6.441406 5.261719 6.460938 C 5.265625 6.46875 5.269531 6.476562 5.273438 6.484375 L 6.644531 9.140625 Z M 6.894531 9.011719 L 5.398438 6.144531 L 5.824219 5.921875 L 7.320312 8.789062 Z M 7.582031 8.652344 L 6.085938 5.785156 L 6.511719 5.5625 L 8.007812 8.429688 Z M 8.300781 8.277344 L 6.804688 5.410156 L 7.230469 5.1875 L 8.726562 8.054688 Z M 8.609375 5.085938 C 8.691406 5.121094 8.78125 5.121094 8.890625 5.050781 C 9.253906 4.828125 9.113281 4.515625 9.058594 4.421875 C 8.890625 4.121094 8.589844 4.074219 8.390625 4.171875 C 7.964844 4.382812 7.945312 4.523438 7.902344 4.773438 C 7.882812 4.886719 7.886719 5.003906 7.914062 5.117188 L 9.308594 7.753906 L 9.007812 7.910156 L 7.609375 5.261719 C 7.605469 5.253906 7.601562 5.246094 7.597656 5.238281 C 7.589844 5.214844 7.523438 5.003906 7.566406 4.734375 C 7.605469 4.480469 7.679688 4.15625 8.160156 3.902344 C 8.367188 3.796875 8.671875 3.757812 8.890625 3.84375 C 9.082031 3.921875 9.25 4.070312 9.355469 4.253906 C 9.542969 4.589844 9.53125 5.054688 9.066406 5.339844 C 8.777344 5.519531 8.550781 5.441406 8.441406 5.378906 C 8.242188 5.265625 8.113281 5.03125 8.117188 4.792969 C 8.121094 4.609375 8.207031 4.457031 8.351562 4.375 C 8.410156 4.332031 8.5625 4.25 8.710938 4.273438 C 8.785156 4.285156 8.84375 4.320312 8.886719 4.382812 C 8.9375 4.460938 8.917969 4.554688 8.839844 4.609375 C 8.777344 4.648438 8.695312 4.644531 8.636719 4.597656 C 8.605469 4.613281 8.574219 4.628906 8.546875 4.648438 C 8.539062 4.65625 8.53125 4.660156 8.523438 4.667969 C 8.46875 4.695312 8.425781 4.769531 8.425781 4.816406 C 8.421875 4.929688 8.492188 5.035156 8.609375 5.085938 Z M 8.609375 5.085938 "/>
<path fill-rule="nonzero" fill="rgb(30%,30%,30%)" fill-opacity="1" d="M 2.050781 3.921875 C 2.050781 3.921875 2.035156 3.945312 2.035156 3.945312 "/>
</svg>
