<?xml version="1.0" encoding="UTF-8" standalone="no"?>
<!-- Created with Inkscape (http://www.inkscape.org/) -->

<svg
   xmlns:dc="http://purl.org/dc/elements/1.1/"
   xmlns:cc="http://creativecommons.org/ns#"
   xmlns:rdf="http://www.w3.org/1999/02/22-rdf-syntax-ns#"
   xmlns:svg="http://www.w3.org/2000/svg"
   xmlns="http://www.w3.org/2000/svg"
   xmlns:xlink="http://www.w3.org/1999/xlink"
   xmlns:sodipodi="http://sodipodi.sourceforge.net/DTD/sodipodi-0.dtd"
   xmlns:inkscape="http://www.inkscape.org/namespaces/inkscape"
   width="30px"
   height="30px"
   version="1.1"
   id="svg8"
   inkscape:version="0.92.4 5da689c313, 2019-01-14"
   sodipodi:docname="container.svg">
  <defs
     id="defs2" />
  <sodipodi:namedview
     id="base"
     pagecolor="#ffffff"
     bordercolor="#666666"
     borderopacity="1.0"
     inkscape:pageopacity="0.0"
     inkscape:pageshadow="2"
     inkscape:zoom="13.049334"
     inkscape:cx="18.679046"
     inkscape:cy="12.165829"
     inkscape:document-units="px"
     inkscape:current-layer="layer1"
     showgrid="false"
     inkscape:snap-page="false"
     units="px"
     inkscape:window-width="1884"
     inkscape:window-height="1061"
     inkscape:window-x="0"
     inkscape:window-y="0"
     inkscape:window-maximized="1"
     fit-margin-top="0"
     fit-margin-left="0"
     fit-margin-right="0"
     fit-margin-bottom="0" />
  <metadata
     id="metadata5">
    <rdf:RDF>
      <cc:Work
         rdf:about="">
        <dc:format>image/svg+xml</dc:format>
        <dc:type
           rdf:resource="http://purl.org/dc/dcmitype/StillImage" />
        <dc:title></dc:title>
      </cc:Work>
    </rdf:RDF>
  </metadata>
    <circle
       style="color:#000000;clip-rule:nonzero;display:inline;overflow:visible;visibility:visible;opacity:1;isolation:auto;mix-blend-mode:normal;color-interpolation:sRGB;color-interpolation-filters:linearRGB;solid-color:#000000;solid-opacity:1;vector-effect:none;fill:#76009e;fill-opacity:1;fill-rule:evenodd;stroke:#ffffff;stroke-width:1;stroke-linecap:butt;stroke-linejoin:miter;stroke-miterlimit:4;stroke-dasharray:none;stroke-dashoffset:0;stroke-opacity:1;marker:none;color-rendering:auto;image-rendering:auto;shape-rendering:auto;text-rendering:auto;enable-background:accumulate"
       id="path815"
       cx="15"
       cy="15"
       r="14.5" />
<g transform="translate(9.5,6.5)"><path fill-rule="nonzero" fill="#FFFFFF" fill-opacity="1" d="M 6.722656 2.207031 L 6.738281 1.652344 C 7.609375 1.625 8.214844 1.558594 8.214844 1.433594 L 5.753906 0 L 3.199219 1.433594 C 3.199219 1.566406 3.804688 1.628906 4.675781 1.65625 L 4.660156 2.160156 L 0 4.265625 C 0 4.425781 0.410156 4.636719 1.109375 4.835938 L 1.109375 16.066406 L 1.121094 16.066406 C 1.117188 16.074219 1.113281 16.085938 1.113281 16.09375 C 1.109375 16.097656 1.109375 16.097656 1.109375 16.101562 C 1.109375 16.109375 1.109375 16.121094 1.109375 16.128906 C 1.109375 16.558594 2.625 16.917969 4.667969 17 C 4.652344 16.929688 4.667969 16.855469 4.667969 16.78125 L 4.667969 15.347656 C 4.667969 14.8125 5.125 14.375 5.675781 14.375 C 6.230469 14.375 6.6875 14.8125 6.6875 15.347656 L 6.6875 16.78125 C 6.6875 16.851562 6.703125 16.921875 6.6875 16.992188 C 8.628906 16.894531 10.042969 16.546875 10.042969 16.128906 C 10.042969 16.121094 10.039062 16.109375 10.039062 16.101562 C 10.039062 16.097656 10.039062 16.097656 10.039062 16.09375 C 10.035156 16.085938 10.035156 16.074219 10.03125 16.066406 L 10.042969 16.066406 L 10.042969 4.824219 C 10.738281 4.628906 11.148438 4.417969 11.148438 4.265625 Z M 4.632812 7.886719 C 4.632812 8.097656 4.460938 8.265625 4.25 8.265625 L 3.804688 8.265625 C 3.597656 8.265625 3.425781 8.097656 3.425781 7.886719 L 3.425781 7.238281 C 3.425781 7.027344 3.597656 6.855469 3.804688 6.855469 L 4.25 6.855469 C 4.460938 6.855469 4.632812 7.027344 4.632812 7.238281 Z M 5.175781 1.800781 L 6.273438 1.800781 L 6.257812 2.242188 L 5.15625 2.242188 Z M 6.257812 7.886719 C 6.257812 8.097656 6.085938 8.265625 5.875 8.265625 L 5.476562 8.265625 C 5.269531 8.265625 5.097656 8.097656 5.097656 7.886719 L 5.097656 7.238281 C 5.097656 7.027344 5.269531 6.855469 5.476562 6.855469 L 5.875 6.855469 C 6.085938 6.855469 6.257812 7.027344 6.257812 7.238281 Z M 7.929688 7.824219 C 7.929688 8.035156 7.757812 8.207031 7.550781 8.207031 L 7.152344 8.207031 C 6.941406 8.207031 6.769531 8.035156 6.769531 7.824219 L 6.769531 7.175781 C 6.769531 6.96875 6.941406 6.796875 7.152344 6.796875 L 7.550781 6.796875 C 7.757812 6.796875 7.929688 6.96875 7.929688 7.175781 Z M 7.929688 7.824219 "/>
</g>
</svg>
