<?xml version="1.0" encoding="UTF-8" standalone="no"?>
<!-- Created with Inkscape (http://www.inkscape.org/) -->

<svg
   xmlns:dc="http://purl.org/dc/elements/1.1/"
   xmlns:cc="http://creativecommons.org/ns#"
   xmlns:rdf="http://www.w3.org/1999/02/22-rdf-syntax-ns#"
   xmlns:svg="http://www.w3.org/2000/svg"
   xmlns="http://www.w3.org/2000/svg"
   xmlns:xlink="http://www.w3.org/1999/xlink"
   xmlns:sodipodi="http://sodipodi.sourceforge.net/DTD/sodipodi-0.dtd"
   xmlns:inkscape="http://www.inkscape.org/namespaces/inkscape"
   width="30px"
   height="30px"
   version="1.1"
   id="svg8"
   inkscape:version="0.92.4 5da689c313, 2019-01-14"
   sodipodi:docname="container.svg">
  <defs
     id="defs2" />
  <sodipodi:namedview
     id="base"
     pagecolor="#ffffff"
     bordercolor="#666666"
     borderopacity="1.0"
     inkscape:pageopacity="0.0"
     inkscape:pageshadow="2"
     inkscape:zoom="13.049334"
     inkscape:cx="18.679046"
     inkscape:cy="12.165829"
     inkscape:document-units="px"
     inkscape:current-layer="layer1"
     showgrid="false"
     inkscape:snap-page="false"
     units="px"
     inkscape:window-width="1884"
     inkscape:window-height="1061"
     inkscape:window-x="0"
     inkscape:window-y="0"
     inkscape:window-maximized="1"
     fit-margin-top="0"
     fit-margin-left="0"
     fit-margin-right="0"
     fit-margin-bottom="0" />
  <metadata
     id="metadata5">
    <rdf:RDF>
      <cc:Work
         rdf:about="">
        <dc:format>image/svg+xml</dc:format>
        <dc:type
           rdf:resource="http://purl.org/dc/dcmitype/StillImage" />
        <dc:title></dc:title>
      </cc:Work>
    </rdf:RDF>
  </metadata>
    <circle
       style="color:#000000;clip-rule:nonzero;display:inline;overflow:visible;visibility:visible;opacity:1;isolation:auto;mix-blend-mode:normal;color-interpolation:sRGB;color-interpolation-filters:linearRGB;solid-color:#000000;solid-opacity:1;vector-effect:none;fill:#ffffff;fill-opacity:1;fill-rule:evenodd;stroke:#76009e;stroke-width:1;stroke-linecap:butt;stroke-linejoin:miter;stroke-miterlimit:4;stroke-dasharray:none;stroke-dashoffset:0;stroke-opacity:1;marker:none;color-rendering:auto;image-rendering:auto;shape-rendering:auto;text-rendering:auto;enable-background:accumulate"
       id="path815"
       cx="15"
       cy="15"
       r="14.5" />
<g transform="translate(6.5,6.5)"><path fill-rule="nonzero" fill="rgb(30%,30%,30%)" fill-opacity="1" d="M 6.625 11.3125 L 15.371094 11.3125 L 15.371094 10.6875 L 13.496094 8.8125 L 6.625 8.8125 Z M 15.371094 15.683594 L 15.371094 11.933594 L 6.003906 11.933594 L 6.003906 7.5625 L 6.625 7.5625 L 6.625 6.9375 L 4.128906 4.472656 L 4.128906 2.570312 L 5.378906 2.570312 L 5.378906 1.945312 L 4.128906 1.945312 L 4.128906 0.695312 L 3.503906 0.695312 L 3.503906 1.945312 L 2.257812 1.945312 L 2.257812 2.570312 L 3.503906 2.570312 L 3.503906 4.472656 L 1.007812 6.9375 L 1.007812 7.5625 L 1.632812 7.5625 L 1.632812 16.304688 L 15.996094 16.304688 L 15.996094 15.683594 Z M 7.875 15.058594 L 7.25 15.058594 L 7.25 13.183594 L 7.875 13.183594 Z M 9.125 15.058594 L 8.5 15.058594 L 8.5 13.183594 L 9.125 13.183594 Z M 10.375 15.058594 L 9.75 15.058594 L 9.75 13.183594 L 10.375 13.183594 Z M 11.621094 15.058594 L 11 15.058594 L 11 13.183594 L 11.621094 13.183594 Z M 12.871094 15.058594 L 12.246094 15.058594 L 12.246094 13.183594 L 12.871094 13.183594 Z M 14.117188 15.058594 L 13.496094 15.058594 L 13.496094 13.183594 L 14.117188 13.183594 Z M 14.117188 15.058594 "/>
</g>
</svg>
