<?xml version="1.0" encoding="UTF-8"?>
<svg xmlns="http://www.w3.org/2000/svg" xmlns:xlink="http://www.w3.org/1999/xlink" width="11" height="5.798376" viewBox="0 0 11 5.798376">
<path fill-rule="nonzero" fill="rgb(30%,30%,30%)" fill-opacity="1" d="M 0 4.621094 L 1.65625 4.621094 L 1.65625 5.796875 L 0 5.796875 Z M 0 4.621094 "/>
<path fill-rule="nonzero" fill="rgb(30%,30%,30%)" fill-opacity="1" d="M 1.84375 4.621094 L 4.179688 4.621094 L 4.179688 5.796875 L 1.84375 5.796875 Z M 1.84375 4.621094 "/>
<path fill-rule="nonzero" fill="rgb(30%,30%,30%)" fill-opacity="1" d="M 6.875 4.621094 L 9.210938 4.621094 L 9.210938 5.796875 L 6.875 5.796875 Z M 6.875 4.621094 "/>
<path fill-rule="nonzero" fill="rgb(30%,30%,30%)" fill-opacity="1" d="M 4.355469 4.621094 L 6.691406 4.621094 L 6.691406 5.796875 L 4.355469 5.796875 Z M 4.355469 4.621094 "/>
<path fill-rule="nonzero" fill="rgb(30%,30%,30%)" fill-opacity="1" d="M 9.394531 4.621094 L 11 4.621094 L 11 5.796875 L 9.394531 5.796875 Z M 9.394531 4.621094 "/>
<path fill-rule="nonzero" fill="rgb(30%,30%,30%)" fill-opacity="1" d="M 3.3125 0.570312 L 3.96875 1.703125 C 4.40625 1.464844 4.910156 1.320312 5.441406 1.308594 L 5.441406 0 C 4.671875 0.0117188 3.945312 0.21875 3.3125 0.570312 Z M 3.3125 0.570312 "/>
<path fill-rule="nonzero" fill="rgb(30%,30%,30%)" fill-opacity="1" d="M 5.589844 0 L 5.589844 1.308594 C 6.125 1.320312 6.625 1.457031 7.066406 1.699219 L 7.722656 0.5625 C 7.085938 0.214844 6.363281 0.0117188 5.589844 0 Z M 5.589844 0 "/>
<path fill-rule="nonzero" fill="rgb(30%,30%,30%)" fill-opacity="1" d="M 10.074219 4.390625 C 10.046875 3.640625 9.839844 2.9375 9.492188 2.320312 L 8.359375 2.976562 C 8.597656 3.398438 8.738281 3.878906 8.765625 4.390625 Z M 10.074219 4.390625 "/>
<path fill-rule="nonzero" fill="rgb(30%,30%,30%)" fill-opacity="1" d="M 1.621094 2.203125 L 2.753906 2.855469 C 3.027344 2.417969 3.398438 2.042969 3.839844 1.777344 L 3.1875 0.644531 C 2.546875 1.027344 2.007812 1.5625 1.621094 2.203125 Z M 1.621094 2.203125 "/>
<path fill-rule="nonzero" fill="rgb(30%,30%,30%)" fill-opacity="1" d="M 0.972656 4.390625 L 2.28125 4.390625 C 2.304688 3.882812 2.449219 3.402344 2.679688 2.984375 L 1.546875 2.328125 C 1.203125 2.941406 1 3.644531 0.972656 4.390625 Z M 0.972656 4.390625 "/>
<path fill-rule="nonzero" fill="rgb(30%,30%,30%)" fill-opacity="1" d="M 7.847656 0.636719 L 7.195312 1.769531 C 7.640625 2.039062 8.015625 2.40625 8.285156 2.847656 L 9.417969 2.195312 C 9.03125 1.554688 8.492188 1.019531 7.847656 0.636719 Z M 7.847656 0.636719 "/>
</svg>
