<?xml version="1.0" encoding="UTF-8"?>
<svg xmlns="http://www.w3.org/2000/svg" xmlns:xlink="http://www.w3.org/1999/xlink" width="10.201295" height="11" viewBox="0 0 10.201295 11">
<path fill-rule="nonzero" fill="rgb(30%,30%,30%)" fill-opacity="1" d="M 9.710938 2.179688 C 9.011719 1.480469 7.804688 1.542969 6.738281 2.257812 C 6.734375 2.09375 6.75 1.925781 6.785156 1.765625 C 6.867188 1.34375 7.164062 0.960938 7.273438 0.832031 L 8.238281 0.832031 L 8.238281 0 L 2.011719 0 L 2.011719 0.832031 L 2.941406 0.832031 C 3.058594 0.917969 3.167969 1.023438 3.257812 1.140625 C 3.453125 1.402344 3.523438 1.949219 3.550781 2.320312 C 2.464844 1.546875 1.207031 1.460938 0.488281 2.179688 C 0.0664062 2.605469 -0.0898438 3.230469 0.0507812 3.941406 C 0.179688 4.59375 0.550781 5.25 1.09375 5.792969 C 1.257812 5.953125 1.429688 6.148438 1.613281 6.351562 C 1.785156 6.542969 1.96875 6.746094 2.164062 6.949219 C 2.402344 7.96875 2.902344 8.988281 3.566406 9.644531 L 3.566406 10.253906 L 2.738281 10.585938 L 2.738281 11 L 7.40625 11 L 7.40625 10.585938 L 6.679688 10.253906 L 6.679688 9.644531 C 7.359375 8.972656 7.871094 7.925781 8.101562 6.886719 C 8.273438 6.703125 8.4375 6.523438 8.589844 6.351562 C 8.773438 6.148438 8.945312 5.953125 9.109375 5.792969 C 9.648438 5.25 10.019531 4.59375 10.148438 3.941406 C 10.292969 3.230469 10.136719 2.605469 9.710938 2.179688 Z M 2.011719 5.558594 C 1.902344 5.433594 1.789062 5.3125 1.679688 5.203125 C 1.253906 4.777344 0.964844 4.269531 0.867188 3.78125 C 0.816406 3.53125 0.777344 3.066406 1.078125 2.765625 C 1.546875 2.296875 2.574219 2.519531 3.382812 3.246094 C 2.46875 3.472656 2.039062 4.058594 2.011719 5.558594 Z M 9.335938 3.78125 C 9.238281 4.269531 8.949219 4.777344 8.519531 5.203125 C 8.425781 5.300781 8.332031 5.398438 8.234375 5.503906 C 8.203125 4.0625 7.789062 3.476562 6.820312 3.246094 C 7.628906 2.519531 8.65625 2.296875 9.125 2.765625 C 9.425781 3.066406 9.386719 3.53125 9.335938 3.78125 Z M 9.335938 3.78125 "/>
</svg>
