<?xml version="1.0" encoding="UTF-8"?>
<svg xmlns="http://www.w3.org/2000/svg" xmlns:xlink="http://www.w3.org/1999/xlink" width="5.80398" height="11" viewBox="0 0 5.80398 11">
<path fill-rule="nonzero" fill="rgb(30%,30%,30%)" fill-opacity="1" d="M 5.25 9.847656 L 4.375 9.847656 C 4.5 9.398438 4.824219 8.171875 4.8125 7.804688 C 4.789062 6.96875 4.167969 6.351562 4.167969 6.351562 L 4.167969 5.65625 C 4.167969 5.570312 4.207031 5.492188 4.277344 5.445312 L 4.84375 4.984375 C 4.859375 4.972656 4.875 4.957031 4.886719 4.9375 C 4.925781 4.878906 4.972656 4.761719 4.96875 4.71875 C 4.957031 4.515625 4.976562 4.101562 4.953125 3.949219 C 4.929688 3.808594 4.90625 3.429688 3.753906 3.261719 C 3.683594 3.25 3.617188 2.953125 3.777344 2.808594 C 3.972656 2.636719 4.375 1.972656 4.121094 1.21875 C 4.007812 0.871094 3.851562 0.421875 3.386719 0.0976562 C 3.039062 -0.136719 2.257812 0.0976562 2.050781 0.3125 C 1.886719 0.480469 1.242188 0.644531 1.21875 1.027344 C 1.1875 1.578125 1.175781 1.621094 1.703125 2.5 C 1.78125 2.628906 1.945312 2.484375 2.074219 2.644531 C 2.207031 2.8125 2.335938 2.898438 2.371094 3 C 2.40625 3.09375 2.398438 3.199219 2.347656 3.285156 C 2.347656 3.285156 0.828125 3.894531 0.738281 4.140625 C 0.621094 4.449219 0.660156 5.566406 0.78125 5.710938 C 0.902344 5.847656 1.105469 5.867188 1.25 5.855469 C 1.355469 5.851562 1.449219 5.925781 1.46875 6.03125 L 1.566406 6.496094 C 1.566406 6.496094 1.035156 7.613281 1.152344 8.277344 C 1.238281 8.785156 1.65625 9.519531 1.855469 9.847656 L 0.554688 9.847656 C 0.246094 9.847656 0 10.101562 0 10.417969 L 0 11 L 5.804688 10.953125 L 5.804688 10.417969 C 5.804688 10.101562 5.554688 9.847656 5.25 9.847656 Z M 5.25 9.847656 "/>
</svg>
