<?xml version="1.0" encoding="UTF-8"?>
<svg xmlns="http://www.w3.org/2000/svg" xmlns:xlink="http://www.w3.org/1999/xlink" width="11" height="8.005864" viewBox="0 0 11 8.005864">
<path fill-rule="nonzero" fill="rgb(30%,30%,30%)" fill-opacity="1" d="M 11 7 L 9.996094 7 L 9.996094 0 L 8.992188 0 L 8.992188 1.023438 L 8.007812 1.011719 L 8.007812 0 L 7 0 L 7 2.476562 L 5.480469 1.011719 L 4.019531 2.492188 L 4.015625 0 L 3.023438 0 L 3.023438 1.011719 L 2.027344 1.011719 L 2.027344 0 L 1.011719 0 L 1.011719 7 L 0 7 L 0 7.996094 L 3.953125 7.988281 L 4.019531 7.988281 C 4.019531 7.960938 4.015625 7.929688 4.015625 7.902344 L 4.015625 5.507812 C 4.015625 4.6875 4.6875 4.015625 5.507812 4.015625 C 6.328125 4.015625 7 4.6875 7 5.507812 L 7 7.902344 C 7 7.9375 7 7.972656 6.996094 8.003906 L 7.160156 8.007812 L 7.160156 7.996094 L 11 7.996094 Z M 11 7 "/>
</svg>
