<?xml version="1.0" encoding="UTF-8"?>
<svg xmlns="http://www.w3.org/2000/svg" xmlns:xlink="http://www.w3.org/1999/xlink" width="11" height="8.8" viewBox="0 0 11 8.8">
<path fill-rule="nonzero" fill="rgb(30%,30%,30%)" fill-opacity="1" d="M 5.324219 0.0625 C 5.425781 -0.0195312 5.574219 -0.0195312 5.675781 0.0625 L 7.757812 1.796875 C 8.070312 2.058594 8.25 2.445312 8.25 2.851562 L 8.25 8.800781 L 6.050781 8.800781 L 6.050781 7.148438 C 6.050781 6.847656 5.804688 6.601562 5.5 6.601562 C 5.195312 6.601562 4.949219 6.847656 4.949219 7.148438 L 4.949219 8.800781 L 2.75 8.800781 L 2.75 2.851562 C 2.75 2.445312 2.929688 2.058594 3.246094 1.796875 Z M 8.800781 8.800781 L 8.800781 4.203125 L 9.28125 3.667969 C 9.335938 3.609375 9.410156 3.574219 9.488281 3.574219 C 9.566406 3.574219 9.640625 3.609375 9.691406 3.667969 L 10.789062 4.882812 C 10.925781 5.035156 11 5.234375 11 5.4375 L 11 7.699219 C 11 8.308594 10.507812 8.800781 9.898438 8.800781 Z M 2.199219 4.203125 L 2.199219 8.800781 L 1.101562 8.800781 C 0.492188 8.800781 0 8.308594 0 7.699219 L 0 5.4375 C 0 5.230469 0.0742188 5.035156 0.210938 4.882812 L 1.308594 3.667969 C 1.359375 3.609375 1.433594 3.574219 1.511719 3.574219 C 1.589844 3.574219 1.664062 3.609375 1.71875 3.667969 Z M 5.621094 2.136719 C 5.566406 2.042969 5.433594 2.042969 5.382812 2.136719 L 5.109375 2.621094 L 4.554688 2.613281 C 4.445312 2.613281 4.378906 2.730469 4.433594 2.820312 L 4.714844 3.300781 L 4.433594 3.777344 C 4.378906 3.871094 4.445312 3.984375 4.554688 3.984375 L 5.109375 3.980469 L 5.378906 4.464844 C 5.433594 4.554688 5.566406 4.554688 5.617188 4.464844 L 5.890625 3.980469 L 6.445312 3.984375 C 6.554688 3.988281 6.621094 3.871094 6.566406 3.777344 L 6.285156 3.300781 L 6.566406 2.820312 C 6.621094 2.730469 6.554688 2.613281 6.445312 2.613281 L 5.890625 2.621094 Z M 5.621094 2.136719 "/>
</svg>
