<?xml version="1.0" encoding="UTF-8"?>
<svg xmlns="http://www.w3.org/2000/svg" xmlns:xlink="http://www.w3.org/1999/xlink" width="11" height="10.999934" viewBox="0 0 11 10.999934">
<path fill-rule="nonzero" fill="rgb(30%,30%,30%)" fill-opacity="1" d="M 5.5 0 C 2.460938 0 0 2.460938 0 5.5 C 0 8.539062 2.460938 11 5.5 11 C 8.539062 11 11 8.539062 11 5.5 C 11 2.460938 8.539062 0 5.5 0 Z M 5.5 6.800781 C 4.746094 6.800781 4.132812 6.1875 4.132812 5.433594 C 4.132812 4.675781 4.742188 4.066406 5.5 4.066406 C 6.253906 4.066406 6.867188 4.675781 6.867188 5.433594 C 6.867188 6.1875 6.253906 6.800781 5.5 6.800781 Z M 2.058594 8.941406 C 0.515625 7.398438 0.699219 5.488281 0.699219 5.488281 C 0.699219 5.488281 0.699219 5.59375 0.71875 5.785156 C 0.941406 8.167969 2.832031 10.058594 5.214844 10.28125 C 5.40625 10.300781 5.511719 10.300781 5.511719 10.300781 C 5.511719 10.300781 3.601562 10.484375 2.058594 8.941406 Z M 2.546875 8.453125 C 1.222656 7.132812 1.386719 5.488281 1.386719 5.488281 C 1.386719 5.488281 1.390625 5.578125 1.40625 5.742188 C 1.585938 7.550781 2.871094 9.019531 4.578125 9.472656 C 4.882812 9.550781 5.195312 9.601562 5.511719 9.613281 C 5.511719 9.613281 3.867188 9.777344 2.546875 8.453125 Z M 3.03125 7.96875 C 1.925781 6.863281 2.074219 5.488281 2.074219 5.488281 C 2.085938 5.75 2.128906 6.011719 2.195312 6.265625 C 2.363281 6.871094 2.683594 7.425781 3.128906 7.871094 C 4.191406 8.933594 5.511719 8.925781 5.511719 8.925781 C 5.511719 8.925781 4.136719 9.074219 3.03125 7.96875 Z M 4.875 8.199219 C 3.816406 8 2.996094 7.164062 2.800781 6.125 C 2.761719 5.914062 2.746094 5.699219 2.761719 5.488281 C 2.761719 5.488281 2.773438 6.101562 3.121094 6.730469 C 3.941406 8.214844 5.511719 8.238281 5.511719 8.238281 C 5.296875 8.253906 5.085938 8.238281 4.875 8.199219 Z M 5.035156 7.53125 C 4.226562 7.390625 3.601562 6.753906 3.46875 5.964844 C 3.441406 5.808594 3.433594 5.648438 3.449219 5.488281 C 3.460938 5.644531 3.492188 5.800781 3.535156 5.953125 C 3.789062 6.796875 4.511719 7.414062 5.386719 7.535156 C 5.464844 7.546875 5.511719 7.550781 5.511719 7.550781 C 5.351562 7.566406 5.191406 7.558594 5.035156 7.53125 Z M 7.550781 5.511719 C 7.550781 5.511719 7.53125 4.734375 6.898438 4.101562 C 6.632812 3.835938 6.308594 3.644531 5.949219 3.535156 C 5.800781 3.492188 5.644531 3.464844 5.488281 3.449219 C 5.488281 3.449219 5.535156 3.445312 5.617188 3.441406 C 6.550781 3.429688 7.367188 4.105469 7.53125 5.03125 C 7.558594 5.191406 7.566406 5.351562 7.550781 5.511719 Z M 8.238281 5.511719 C 8.238281 5.511719 8.234375 5.449219 8.222656 5.34375 C 8.066406 4.09375 7.183594 3.167969 6.109375 2.867188 C 5.90625 2.8125 5.699219 2.773438 5.488281 2.761719 C 5.488281 2.761719 5.550781 2.757812 5.660156 2.757812 C 7.0625 2.761719 8.234375 3.902344 8.242188 5.339844 C 8.242188 5.449219 8.238281 5.511719 8.238281 5.511719 Z M 8.925781 5.511719 C 8.925781 5.511719 8.921875 5.4375 8.910156 5.300781 C 8.75 3.820312 7.699219 2.589844 6.265625 2.199219 C 6.011719 2.128906 5.75 2.085938 5.488281 2.074219 C 5.488281 2.074219 6.859375 1.925781 7.96875 3.03125 C 9.074219 4.136719 8.925781 5.511719 8.925781 5.511719 Z M 9.613281 5.511719 C 9.613281 5.511719 9.609375 5.421875 9.59375 5.257812 C 9.417969 3.476562 8.152344 1.988281 6.421875 1.527344 C 6.117188 1.449219 5.804688 1.402344 5.488281 1.386719 C 5.488281 1.386719 7.132812 1.222656 8.453125 2.546875 C 9.777344 3.867188 9.613281 5.511719 9.613281 5.511719 Z M 10.28125 5.214844 C 10.082031 3.085938 8.558594 1.375 6.578125 0.859375 C 6.222656 0.765625 5.855469 0.714844 5.488281 0.699219 C 5.488281 0.699219 5.59375 0.691406 5.785156 0.695312 C 8.238281 0.769531 10.234375 2.746094 10.304688 5.214844 C 10.308594 5.40625 10.300781 5.511719 10.300781 5.511719 C 10.300781 5.511719 10.296875 5.40625 10.28125 5.214844 Z M 10.28125 5.214844 "/>
<path fill-rule="nonzero" fill="rgb(30%,30%,30%)" fill-opacity="1" d="M 5.5 4.257812 C 4.851562 4.257812 4.324219 4.785156 4.324219 5.433594 C 4.324219 6.082031 4.851562 6.609375 5.5 6.609375 C 6.148438 6.609375 6.675781 6.082031 6.675781 5.433594 C 6.675781 4.785156 6.148438 4.257812 5.5 4.257812 Z M 5.5 5.703125 C 5.351562 5.703125 5.230469 5.582031 5.230469 5.433594 C 5.230469 5.285156 5.351562 5.164062 5.5 5.164062 C 5.648438 5.164062 5.769531 5.285156 5.769531 5.433594 C 5.769531 5.582031 5.648438 5.703125 5.5 5.703125 Z M 5.214844 5.4375 C 5.21875 5.59375 5.34375 5.71875 5.5 5.71875 C 5.65625 5.71875 5.78125 5.59375 5.785156 5.4375 L 6.660156 5.4375 C 6.660156 6.078125 6.140625 6.59375 5.5 6.59375 C 4.859375 6.59375 4.339844 6.078125 4.339844 5.4375 Z M 5.214844 5.4375 "/>
<path fill-rule="nonzero" fill="rgb(30%,30%,30%)" fill-opacity="1" d="M 5.5 5.285156 C 5.417969 5.285156 5.351562 5.351562 5.351562 5.433594 C 5.351562 5.515625 5.417969 5.582031 5.5 5.582031 C 5.582031 5.582031 5.648438 5.515625 5.648438 5.433594 C 5.648438 5.351562 5.582031 5.285156 5.5 5.285156 Z M 5.5 5.285156 "/>
</svg>
