<?xml version="1.0" encoding="UTF-8"?>
<svg xmlns="http://www.w3.org/2000/svg" xmlns:xlink="http://www.w3.org/1999/xlink" width="11" height="10.264682" viewBox="0 0 11 10.264682">
<path fill-rule="nonzero" fill="rgb(30%,30%,30%)" fill-opacity="1" d="M 0 2.457031 L 0 1.699219 L 5.523438 0 L 11 1.683594 L 11 2.449219 L 5.519531 0.761719 Z M 0 2.457031 "/>
<path fill-rule="nonzero" fill="rgb(30%,30%,30%)" fill-opacity="1" d="M 5.542969 10.265625 L 4.765625 10.265625 L 1.179688 9.101562 L 1.21875 3.472656 L 1.859375 3.714844 L 1.835938 8.4375 C 3.554688 8.492188 4.867188 9.605469 4.867188 9.605469 L 5.238281 9.605469 L 9.160156 8.621094 L 9.160156 3.710938 L 9.796875 3.472656 L 9.796875 9.113281 Z M 5.542969 10.265625 "/>
<path fill-rule="nonzero" fill="rgb(30%,30%,30%)" fill-opacity="1" d="M 8.59375 2.902344 C 8.59375 2.902344 6.917969 2.640625 5.199219 4.175781 C 5.152344 4.21875 5.21875 9.332031 5.238281 9.351562 C 6.390625 8.097656 8.59375 7.898438 8.59375 7.898438 Z M 8.59375 2.902344 "/>
<path fill-rule="nonzero" fill="rgb(30%,30%,30%)" fill-opacity="1" d="M 2.347656 2.824219 L 2.347656 7.835938 C 4.125 7.527344 4.820312 9.421875 4.820312 9.421875 L 4.8125 4.296875 C 4.8125 4.296875 3.824219 2.679688 2.347656 2.824219 Z M 2.347656 2.824219 "/>
</svg>
