<?xml version="1.0" encoding="UTF-8" standalone="no"?>
<!-- Created with Inkscape (http://www.inkscape.org/) -->

<svg
   xmlns:dc="http://purl.org/dc/elements/1.1/"
   xmlns:cc="http://creativecommons.org/ns#"
   xmlns:rdf="http://www.w3.org/1999/02/22-rdf-syntax-ns#"
   xmlns:svg="http://www.w3.org/2000/svg"
   xmlns="http://www.w3.org/2000/svg"
   xmlns:xlink="http://www.w3.org/1999/xlink"
   xmlns:sodipodi="http://sodipodi.sourceforge.net/DTD/sodipodi-0.dtd"
   xmlns:inkscape="http://www.inkscape.org/namespaces/inkscape"
   width="30px"
   height="30px"
   version="1.1"
   id="svg8"
   inkscape:version="0.92.4 5da689c313, 2019-01-14"
   sodipodi:docname="container.svg">
  <defs
     id="defs2" />
  <sodipodi:namedview
     id="base"
     pagecolor="#ffffff"
     bordercolor="#666666"
     borderopacity="1.0"
     inkscape:pageopacity="0.0"
     inkscape:pageshadow="2"
     inkscape:zoom="13.049334"
     inkscape:cx="18.679046"
     inkscape:cy="12.165829"
     inkscape:document-units="px"
     inkscape:current-layer="layer1"
     showgrid="false"
     inkscape:snap-page="false"
     units="px"
     inkscape:window-width="1884"
     inkscape:window-height="1061"
     inkscape:window-x="0"
     inkscape:window-y="0"
     inkscape:window-maximized="1"
     fit-margin-top="0"
     fit-margin-left="0"
     fit-margin-right="0"
     fit-margin-bottom="0" />
  <metadata
     id="metadata5">
    <rdf:RDF>
      <cc:Work
         rdf:about="">
        <dc:format>image/svg+xml</dc:format>
        <dc:type
           rdf:resource="http://purl.org/dc/dcmitype/StillImage" />
        <dc:title></dc:title>
      </cc:Work>
    </rdf:RDF>
  </metadata>
    <circle
       style="color:#000000;clip-rule:nonzero;display:inline;overflow:visible;visibility:visible;opacity:1;isolation:auto;mix-blend-mode:normal;color-interpolation:sRGB;color-interpolation-filters:linearRGB;solid-color:#000000;solid-opacity:1;vector-effect:none;fill:#ffffff;fill-opacity:1;fill-rule:evenodd;stroke:#76009e;stroke-width:1;stroke-linecap:butt;stroke-linejoin:miter;stroke-miterlimit:4;stroke-dasharray:none;stroke-dashoffset:0;stroke-opacity:1;marker:none;color-rendering:auto;image-rendering:auto;shape-rendering:auto;text-rendering:auto;enable-background:accumulate"
       id="path815"
       cx="15"
       cy="15"
       r="14.5" />
<g transform="translate(7.5,6.5)"><path fill-rule="nonzero" fill="rgb(30%,30%,30%)" fill-opacity="1" d="M 8.226562 12.742188 C 8.257812 12.742188 8.289062 12.746094 8.320312 12.75 L 8.230469 12 C 8.15625 12.027344 8.078125 12.042969 7.996094 12.042969 C 7.640625 12.042969 7.347656 11.753906 7.347656 11.394531 C 7.347656 11.121094 7.515625 10.886719 7.753906 10.792969 L 7.375 10.238281 C 7.253906 10.367188 7.082031 10.449219 6.894531 10.449219 C 6.535156 10.449219 6.246094 10.160156 6.246094 9.800781 C 6.246094 9.636719 6.304688 9.492188 6.402344 9.375 L 5.808594 9.066406 C 5.734375 9.339844 5.480469 9.546875 5.179688 9.546875 C 4.824219 9.546875 4.53125 9.253906 4.53125 8.898438 C 4.53125 8.839844 4.539062 8.789062 4.550781 8.738281 L 3.824219 8.738281 C 3.847656 8.808594 3.863281 8.882812 3.863281 8.960938 C 3.863281 9.320312 3.574219 9.613281 3.214844 9.613281 C 2.878906 9.613281 2.605469 9.359375 2.570312 9.035156 L 1.917969 9.378906 C 2.011719 9.488281 2.070312 9.636719 2.070312 9.792969 C 2.070312 10.152344 1.777344 10.441406 1.421875 10.441406 C 1.234375 10.441406 1.066406 10.363281 0.949219 10.238281 L 0.554688 10.804688 C 0.6875 10.878906 0.773438 10.941406 0.851562 11.078125 C 1.027344 11.390625 0.917969 11.785156 0.605469 11.960938 C 0.441406 12.054688 0.257812 12.066406 0.09375 12.015625 L 0 12.761719 C 0.0195312 12.761719 0.0390625 12.757812 0.0585938 12.757812 C 0.246094 12.757812 0.414062 12.839844 0.535156 12.964844 L 0.550781 12.972656 C 0.550781 12.976562 0.550781 12.980469 0.550781 12.988281 C 0.648438 13.101562 0.707031 13.246094 0.707031 13.410156 C 0.707031 13.722656 0.410156 13.941406 0.164062 14.027344 L 0.414062 14.691406 C 0.515625 14.621094 0.636719 14.582031 0.769531 14.582031 C 1.128906 14.582031 1.421875 14.871094 1.421875 15.230469 C 1.421875 15.441406 1.285156 15.613281 1.121094 15.726562 L 1.667969 16.210938 C 1.777344 16.015625 1.988281 15.882812 2.230469 15.882812 C 2.589844 15.882812 2.878906 16.175781 2.878906 16.535156 C 2.878906 16.636719 2.84375 16.730469 2.792969 16.8125 L 3.480469 16.984375 C 3.480469 16.972656 3.476562 16.964844 3.476562 16.953125 C 3.476562 16.59375 3.769531 16.304688 4.128906 16.304688 C 4.484375 16.304688 4.777344 16.59375 4.777344 16.953125 C 4.777344 16.96875 4.777344 16.984375 4.773438 17 L 5.476562 16.828125 C 5.421875 16.730469 5.386719 16.617188 5.386719 16.496094 C 5.386719 16.136719 5.675781 15.84375 6.035156 15.84375 C 6.300781 15.84375 6.53125 16.003906 6.628906 16.234375 L 7.175781 15.75 C 7.027344 15.628906 6.925781 15.445312 6.925781 15.234375 C 6.925781 15.230469 6.929688 15.222656 6.929688 15.21875 L 6.921875 15.207031 C 6.925781 15.207031 6.925781 15.203125 6.929688 15.199219 C 6.941406 14.949219 7.097656 14.738281 7.3125 14.640625 C 7.3125 14.640625 7.316406 14.640625 7.316406 14.640625 C 7.398438 14.605469 7.484375 14.585938 7.578125 14.585938 C 7.699219 14.585938 7.816406 14.621094 7.914062 14.679688 L 8.15625 14.039062 C 7.832031 14.003906 7.578125 13.726562 7.578125 13.394531 C 7.578125 13.035156 7.867188 12.742188 8.226562 12.742188 Z M 3.386719 10.351562 C 3.625 10.289062 3.871094 10.257812 4.121094 10.261719 C 4.371094 10.257812 4.617188 10.289062 4.855469 10.351562 C 5.0625 10.410156 5.074219 10.507812 4.945312 10.726562 C 4.808594 10.96875 4.472656 11.550781 4.289062 11.867188 C 4.234375 11.859375 4.179688 11.855469 4.121094 11.855469 C 4.066406 11.855469 4.007812 11.859375 3.957031 11.867188 C 3.773438 11.550781 3.433594 10.96875 3.296875 10.726562 C 3.167969 10.507812 3.183594 10.410156 3.386719 10.351562 Z M 1.574219 12.246094 C 1.636719 12.007812 1.730469 11.777344 1.859375 11.566406 C 1.980469 11.347656 2.132812 11.148438 2.308594 10.976562 C 2.460938 10.828125 2.550781 10.863281 2.675781 11.085938 C 2.816406 11.320312 3.144531 11.894531 3.328125 12.214844 C 3.25 12.300781 3.1875 12.402344 3.140625 12.515625 C 2.769531 12.515625 2.125 12.515625 1.851562 12.515625 C 1.597656 12.515625 1.519531 12.453125 1.574219 12.246094 Z M 2.675781 14.65625 C 2.550781 14.878906 2.460938 14.914062 2.308594 14.765625 C 2.132812 14.59375 1.980469 14.394531 1.859375 14.175781 C 1.730469 13.964844 1.636719 13.734375 1.574219 13.496094 C 1.519531 13.289062 1.597656 13.226562 1.851562 13.226562 C 2.117188 13.226562 2.734375 13.226562 3.109375 13.226562 C 3.152344 13.359375 3.214844 13.476562 3.300781 13.582031 C 3.109375 13.90625 2.808594 14.433594 2.675781 14.65625 Z M 4.855469 15.390625 C 4.617188 15.453125 4.371094 15.484375 4.121094 15.484375 C 3.871094 15.484375 3.625 15.453125 3.386719 15.390625 C 3.183594 15.332031 3.167969 15.238281 3.296875 15.015625 C 3.425781 14.792969 3.722656 14.277344 3.910156 13.949219 C 3.980469 13.964844 4.050781 13.972656 4.121094 13.972656 C 4.195312 13.972656 4.265625 13.964844 4.332031 13.949219 C 4.519531 14.277344 4.816406 14.792969 4.945312 15.015625 C 5.074219 15.238281 5.0625 15.332031 4.855469 15.390625 Z M 6.667969 13.496094 C 6.605469 13.734375 6.511719 13.964844 6.382812 14.175781 C 6.261719 14.394531 6.109375 14.59375 5.933594 14.765625 C 5.785156 14.914062 5.695312 14.878906 5.566406 14.65625 C 5.433594 14.433594 5.132812 13.90625 4.945312 13.582031 C 5.027344 13.476562 5.09375 13.359375 5.132812 13.226562 C 5.507812 13.226562 6.128906 13.226562 6.390625 13.226562 C 6.644531 13.226562 6.722656 13.289062 6.667969 13.496094 Z M 6.390625 12.515625 C 6.121094 12.515625 5.472656 12.515625 5.101562 12.515625 C 5.054688 12.402344 4.992188 12.300781 4.914062 12.214844 C 5.097656 11.894531 5.429688 11.320312 5.566406 11.085938 C 5.695312 10.863281 5.785156 10.828125 5.933594 10.976562 C 6.109375 11.148438 6.261719 11.347656 6.382812 11.566406 C 6.511719 11.777344 6.605469 12.007812 6.667969 12.246094 C 6.722656 12.453125 6.644531 12.515625 6.390625 12.515625 Z M 6.390625 12.515625 "/>
<path fill-rule="nonzero" fill="rgb(30%,30%,30%)" fill-opacity="1" d="M 14.46875 15.0625 C 13.992188 15.074219 13.589844 14.707031 13.554688 14.230469 L 12.894531 5.304688 L 2.558594 5.304688 L 2.171875 8.101562 C 2.171875 8.101562 7.40625 7.246094 8.824219 10.945312 C 10.097656 14.445312 7.992188 16.167969 7.992188 16.167969 L 15.007812 16.167969 L 15.007812 15.0625 Z M 11.636719 10.640625 L 9.964844 10.640625 L 9.964844 7.703125 C 9.964844 7.371094 10.238281 7.09375 10.574219 7.09375 L 11.027344 7.09375 C 11.363281 7.09375 11.636719 7.371094 11.636719 7.703125 Z M 11.636719 10.640625 "/>
<path fill-rule="nonzero" fill="rgb(30%,30%,30%)" fill-opacity="1" d="M 15.007812 4.527344 L 1.042969 4.527344 L 1.042969 3.445312 L 8.0625 0 L 15.007812 3.445312 Z M 15.007812 4.527344 "/>
</g>
</svg>
