<?xml version="1.0" encoding="UTF-8"?>
<svg xmlns="http://www.w3.org/2000/svg" xmlns:xlink="http://www.w3.org/1999/xlink" width="7.426042" height="11" viewBox="0 0 7.426042 11">
<path fill-rule="evenodd" fill="rgb(30%,30%,30%)" fill-opacity="1" d="M 0.917969 0 L 6.507812 0 C 7.015625 0 7.425781 0.414062 7.425781 0.917969 L 7.304688 6.851562 L 6.898438 6.757812 C 6.820312 6.738281 6.738281 6.722656 6.65625 6.703125 L 6.632812 6.605469 L 6.632812 5.308594 C 6.519531 5.5625 6.363281 5.796875 6.164062 5.992188 C 6.09375 6.0625 6.019531 6.128906 5.941406 6.191406 L 5.914062 6.183594 C 5.910156 5.984375 5.898438 5.789062 5.878906 5.589844 C 6.390625 5.027344 6.484375 4.199219 6.117188 3.535156 C 5.75 2.867188 5 2.507812 4.253906 2.640625 C 3.503906 2.773438 2.921875 3.367188 2.804688 4.121094 C 2.6875 4.871094 3.0625 5.613281 3.734375 5.96875 C 3.726562 6.097656 3.71875 6.226562 3.714844 6.355469 L 3.613281 6.449219 C 2.699219 6.027344 2.171875 5.054688 2.320312 4.054688 C 2.472656 3.058594 3.261719 2.28125 4.261719 2.148438 C 5.257812 2.011719 6.226562 2.554688 6.632812 3.476562 L 6.632812 1.480469 L 0.769531 1.480469 L 0.769531 8.789062 L 3.066406 8.789062 C 3.136719 9.335938 3.257812 9.890625 3.445312 10.386719 L 0.917969 10.386719 C 0.414062 10.386719 0 9.976562 0 9.46875 L 0 0.917969 C 0 0.410156 0.414062 0 0.917969 0 Z M 5.09375 4.828125 L 4.554688 4.828125 C 4.335938 5.753906 4.316406 6.875 4.425781 7.824219 L 4.1875 7.953125 L 4.175781 6.8125 L 3.605469 7.347656 C 3.644531 8.867188 3.910156 10.320312 4.539062 11 C 5.167969 10.914062 5.800781 10.828125 6.429688 10.742188 C 6.734375 10.058594 7.003906 9.238281 7.101562 8.074219 C 7.101562 8.074219 6.980469 8.003906 6.796875 7.902344 C 6.804688 7.730469 6.789062 7.558594 6.753906 7.390625 C 6.605469 7.355469 6.453125 7.320312 6.300781 7.289062 C 6.246094 7.371094 6.199219 7.464844 6.164062 7.558594 L 6.0625 7.503906 C 6.078125 7.300781 6.074219 7.089844 6.027344 6.875 C 5.878906 6.84375 5.726562 6.808594 5.574219 6.773438 C 5.496094 6.894531 5.4375 7.027344 5.398438 7.167969 C 5.332031 7.136719 5.273438 7.109375 5.222656 7.089844 C 5.304688 6.335938 5.273438 5.582031 5.09375 4.828125 Z M 4.5625 3.117188 C 4.046875 3.117188 3.582031 3.429688 3.386719 3.90625 C 3.1875 4.378906 3.296875 4.929688 3.660156 5.292969 C 3.703125 5.332031 3.746094 5.371094 3.792969 5.40625 C 3.816406 5.203125 3.851562 5.003906 3.894531 4.808594 C 3.730469 4.546875 3.734375 4.214844 3.90625 3.957031 C 4.074219 3.699219 4.378906 3.566406 4.683594 3.613281 C 4.988281 3.664062 5.238281 3.882812 5.320312 4.179688 C 5.550781 4.320312 5.703125 4.574219 5.757812 4.828125 C 5.902344 4.4375 5.84375 4.003906 5.605469 3.664062 C 5.367188 3.320312 4.976562 3.117188 4.5625 3.117188 Z M 4.5625 3.117188 "/>
</svg>
