<?xml version="1.0" encoding="UTF-8" standalone="no"?>
<!-- Created with Inkscape (http://www.inkscape.org/) -->

<svg
   xmlns:dc="http://purl.org/dc/elements/1.1/"
   xmlns:cc="http://creativecommons.org/ns#"
   xmlns:rdf="http://www.w3.org/1999/02/22-rdf-syntax-ns#"
   xmlns:svg="http://www.w3.org/2000/svg"
   xmlns="http://www.w3.org/2000/svg"
   xmlns:xlink="http://www.w3.org/1999/xlink"
   xmlns:sodipodi="http://sodipodi.sourceforge.net/DTD/sodipodi-0.dtd"
   xmlns:inkscape="http://www.inkscape.org/namespaces/inkscape"
   width="30px"
   height="30px"
   version="1.1"
   id="svg8"
   inkscape:version="0.92.4 5da689c313, 2019-01-14"
   sodipodi:docname="container.svg">
  <defs
     id="defs2" />
  <sodipodi:namedview
     id="base"
     pagecolor="#ffffff"
     bordercolor="#666666"
     borderopacity="1.0"
     inkscape:pageopacity="0.0"
     inkscape:pageshadow="2"
     inkscape:zoom="13.049334"
     inkscape:cx="18.679046"
     inkscape:cy="12.165829"
     inkscape:document-units="px"
     inkscape:current-layer="layer1"
     showgrid="false"
     inkscape:snap-page="false"
     units="px"
     inkscape:window-width="1884"
     inkscape:window-height="1061"
     inkscape:window-x="0"
     inkscape:window-y="0"
     inkscape:window-maximized="1"
     fit-margin-top="0"
     fit-margin-left="0"
     fit-margin-right="0"
     fit-margin-bottom="0" />
  <metadata
     id="metadata5">
    <rdf:RDF>
      <cc:Work
         rdf:about="">
        <dc:format>image/svg+xml</dc:format>
        <dc:type
           rdf:resource="http://purl.org/dc/dcmitype/StillImage" />
        <dc:title></dc:title>
      </cc:Work>
    </rdf:RDF>
  </metadata>
    <circle
       style="color:#000000;clip-rule:nonzero;display:inline;overflow:visible;visibility:visible;opacity:1;isolation:auto;mix-blend-mode:normal;color-interpolation:sRGB;color-interpolation-filters:linearRGB;solid-color:#000000;solid-opacity:1;vector-effect:none;fill:#ffffff;fill-opacity:1;fill-rule:evenodd;stroke:#76009e;stroke-width:1;stroke-linecap:butt;stroke-linejoin:miter;stroke-miterlimit:4;stroke-dasharray:none;stroke-dashoffset:0;stroke-opacity:1;marker:none;color-rendering:auto;image-rendering:auto;shape-rendering:auto;text-rendering:auto;enable-background:accumulate"
       id="path815"
       cx="15"
       cy="15"
       r="14.5" />
<g transform="translate(6.5,8.0)"><path fill-rule="nonzero" fill="rgb(30%,30%,30%)" fill-opacity="1" d="M 0.199219 0 L 16.707031 0 L 16.707031 1.230469 L 0.199219 1.230469 Z M 0.199219 0 "/>
<path fill-rule="nonzero" fill="rgb(30%,30%,30%)" fill-opacity="1" d="M 11.707031 2.878906 L 5.238281 2.878906 L 4.375 1.636719 L 12.652344 1.636719 Z M 11.707031 2.878906 "/>
<path fill-rule="nonzero" fill="rgb(30%,30%,30%)" fill-opacity="1" d="M 5.816406 13.898438 L 5.816406 3.324219 L 7.042969 3.324219 L 7.042969 13.898438 Z M 5.816406 13.898438 "/>
<path fill-rule="nonzero" fill="rgb(30%,30%,30%)" fill-opacity="1" d="M 7.796875 13.898438 L 7.796875 3.324219 L 9.023438 3.324219 L 9.023438 13.898438 Z M 7.796875 13.898438 "/>
<path fill-rule="nonzero" fill="rgb(30%,30%,30%)" fill-opacity="1" d="M 9.867188 13.898438 L 9.867188 3.324219 L 11.09375 3.324219 L 11.09375 13.898438 Z M 9.867188 13.898438 "/>
<path fill-rule="nonzero" fill="rgb(30%,30%,30%)" fill-opacity="1" d="M 5.136719 3.945312 C 5.136719 3.925781 5.132812 3.902344 5.132812 3.882812 C 5.121094 3.820312 5.03125 3.265625 4.617188 2.703125 C 4.226562 2.175781 3.671875 1.527344 2.289062 1.527344 C 1.695312 1.527344 0.953125 1.796875 0.5625 2.253906 C 0.226562 2.652344 0.0195312 3.191406 0 3.734375 C -0.0351562 4.714844 0.550781 5.75 1.929688 5.847656 C 2.800781 5.910156 3.222656 5.46875 3.394531 5.199219 C 3.707031 4.710938 3.722656 4.023438 3.429688 3.488281 C 3.203125 3.074219 2.832031 2.832031 2.410156 2.816406 C 2.230469 2.789062 1.785156 2.789062 1.480469 3.015625 C 1.332031 3.128906 1.230469 3.277344 1.210938 3.464844 C 1.183594 3.703125 1.347656 3.894531 1.585938 3.921875 C 1.773438 3.941406 1.953125 3.839844 2.027344 3.664062 C 2.117188 3.65625 2.207031 3.660156 2.292969 3.671875 C 2.320312 3.675781 2.34375 3.679688 2.371094 3.679688 C 2.519531 3.679688 2.710938 3.800781 2.765625 3.902344 C 2.902344 4.15625 2.875 4.476562 2.671875 4.730469 C 2.527344 4.910156 2.316406 5.011719 1.992188 4.988281 C 0.90625 4.910156 0.855469 4.03125 0.863281 3.761719 C 0.894531 2.882812 1.515625 2.425781 2.082031 2.410156 C 3.296875 2.375 3.503906 2.671875 3.902344 3.191406 C 4.082031 3.425781 4.207031 3.695312 4.273438 3.984375 L 4.234375 13.898438 L 5.097656 13.898438 Z M 5.136719 3.945312 "/>
<path fill-rule="nonzero" fill="rgb(30%,30%,30%)" fill-opacity="1" d="M 11.863281 3.933594 C 11.863281 3.910156 11.867188 3.890625 11.867188 3.867188 C 11.878906 3.808594 11.96875 3.253906 12.382812 2.691406 C 12.773438 2.164062 13.328125 1.515625 14.710938 1.515625 C 15.304688 1.515625 16.046875 1.785156 16.4375 2.242188 C 16.773438 2.640625 16.980469 3.175781 17 3.71875 C 17.035156 4.703125 16.449219 5.738281 15.070312 5.835938 C 14.199219 5.898438 13.777344 5.453125 13.605469 5.183594 C 13.292969 4.699219 13.277344 4.011719 13.570312 3.476562 C 13.796875 3.0625 14.167969 2.816406 14.589844 2.804688 C 14.769531 2.777344 15.214844 2.777344 15.519531 3.003906 C 15.667969 3.117188 15.769531 3.265625 15.789062 3.453125 C 15.816406 3.691406 15.652344 3.882812 15.414062 3.910156 C 15.226562 3.929688 15.046875 3.824219 14.972656 3.652344 C 14.882812 3.640625 14.792969 3.644531 14.707031 3.660156 C 14.679688 3.664062 14.65625 3.664062 14.628906 3.664062 C 14.480469 3.664062 14.289062 3.789062 14.234375 3.890625 C 14.097656 4.144531 14.125 4.464844 14.328125 4.71875 C 14.472656 4.898438 14.683594 5 15.007812 4.976562 C 16.09375 4.898438 16.144531 4.019531 16.136719 3.75 C 16.105469 2.871094 15.484375 2.414062 14.917969 2.394531 C 13.703125 2.359375 13.496094 2.660156 13.097656 3.175781 C 12.917969 3.410156 12.792969 3.679688 12.726562 3.96875 L 12.765625 13.898438 L 11.902344 13.898438 Z M 11.863281 3.933594 "/>
</g>
</svg>
