<?xml version="1.0" encoding="UTF-8"?>
<svg xmlns="http://www.w3.org/2000/svg" xmlns:xlink="http://www.w3.org/1999/xlink" width="9.71019" height="11" viewBox="0 0 9.71019 11">
<path fill-rule="nonzero" fill="rgb(30%,30%,30%)" fill-opacity="1" d="M 5.324219 8.246094 C 5.34375 8.246094 5.363281 8.246094 5.382812 8.25 L 5.324219 7.765625 C 5.277344 7.785156 5.226562 7.792969 5.175781 7.792969 C 4.941406 7.792969 4.753906 7.605469 4.753906 7.375 C 4.753906 7.195312 4.863281 7.046875 5.019531 6.984375 L 4.769531 6.625 C 4.695312 6.707031 4.582031 6.761719 4.460938 6.761719 C 4.230469 6.761719 4.039062 6.574219 4.039062 6.339844 C 4.039062 6.238281 4.078125 6.140625 4.144531 6.066406 L 3.757812 5.867188 C 3.710938 6.042969 3.546875 6.175781 3.351562 6.175781 C 3.121094 6.175781 2.933594 5.988281 2.933594 5.757812 C 2.933594 5.722656 2.9375 5.6875 2.945312 5.652344 L 2.472656 5.652344 C 2.492188 5.699219 2.5 5.746094 2.5 5.800781 C 2.5 6.03125 2.3125 6.21875 2.078125 6.21875 C 1.863281 6.21875 1.6875 6.054688 1.664062 5.847656 L 1.242188 6.066406 C 1.300781 6.140625 1.339844 6.234375 1.339844 6.335938 C 1.339844 6.570312 1.152344 6.757812 0.917969 6.757812 C 0.796875 6.757812 0.691406 6.707031 0.613281 6.625 L 0.359375 6.992188 C 0.445312 7.039062 0.5 7.078125 0.550781 7.167969 C 0.664062 7.371094 0.59375 7.625 0.390625 7.742188 C 0.285156 7.800781 0.167969 7.808594 0.0585938 7.777344 L 0 8.257812 C 0.0117188 8.257812 0.0273438 8.257812 0.0390625 8.257812 C 0.160156 8.257812 0.269531 8.308594 0.347656 8.390625 L 0.355469 8.394531 C 0.355469 8.398438 0.359375 8.398438 0.359375 8.402344 C 0.421875 8.476562 0.457031 8.570312 0.457031 8.675781 C 0.457031 8.878906 0.265625 9.023438 0.105469 9.078125 L 0.265625 9.503906 C 0.332031 9.460938 0.414062 9.433594 0.5 9.433594 C 0.730469 9.433594 0.917969 9.625 0.917969 9.855469 C 0.917969 9.992188 0.832031 10.101562 0.726562 10.175781 L 1.078125 10.488281 C 1.152344 10.363281 1.285156 10.277344 1.441406 10.277344 C 1.675781 10.277344 1.863281 10.464844 1.863281 10.699219 C 1.863281 10.765625 1.839844 10.828125 1.808594 10.878906 L 2.25 10.988281 C 2.25 10.984375 2.25 10.976562 2.25 10.96875 C 2.25 10.738281 2.4375 10.550781 2.671875 10.550781 C 2.902344 10.550781 3.089844 10.738281 3.089844 10.96875 C 3.089844 10.980469 3.089844 10.988281 3.089844 11 L 3.542969 10.886719 C 3.507812 10.824219 3.484375 10.75 3.484375 10.671875 C 3.484375 10.441406 3.671875 10.253906 3.90625 10.253906 C 4.078125 10.253906 4.226562 10.355469 4.289062 10.503906 L 4.644531 10.191406 C 4.546875 10.113281 4.484375 9.992188 4.484375 9.859375 C 4.484375 9.855469 4.484375 9.851562 4.484375 9.847656 L 4.480469 9.839844 C 4.480469 9.839844 4.480469 9.835938 4.484375 9.835938 C 4.492188 9.675781 4.59375 9.535156 4.734375 9.472656 C 4.785156 9.449219 4.84375 9.4375 4.902344 9.4375 C 4.980469 9.4375 5.054688 9.460938 5.121094 9.5 L 5.277344 9.082031 C 5.066406 9.0625 4.902344 8.882812 4.902344 8.667969 C 4.902344 8.433594 5.089844 8.246094 5.324219 8.246094 Z M 2.191406 6.699219 C 2.347656 6.65625 2.507812 6.636719 2.667969 6.640625 C 2.828125 6.636719 2.988281 6.65625 3.140625 6.699219 C 3.273438 6.734375 3.285156 6.796875 3.199219 6.941406 C 3.109375 7.097656 2.894531 7.472656 2.773438 7.679688 C 2.738281 7.675781 2.703125 7.671875 2.667969 7.671875 C 2.628906 7.671875 2.59375 7.675781 2.558594 7.679688 C 2.441406 7.472656 2.222656 7.097656 2.132812 6.941406 C 2.050781 6.796875 2.058594 6.734375 2.191406 6.699219 Z M 1.019531 7.925781 C 1.058594 7.769531 1.121094 7.621094 1.203125 7.484375 C 1.28125 7.34375 1.378906 7.214844 1.492188 7.101562 C 1.589844 7.003906 1.648438 7.027344 1.734375 7.171875 C 1.820312 7.324219 2.035156 7.695312 2.152344 7.902344 C 2.101562 7.960938 2.0625 8.027344 2.03125 8.097656 C 1.792969 8.097656 1.375 8.097656 1.199219 8.097656 C 1.03125 8.097656 0.984375 8.058594 1.019531 7.925781 Z M 1.734375 9.484375 C 1.648438 9.628906 1.589844 9.652344 1.492188 9.554688 C 1.378906 9.441406 1.28125 9.3125 1.203125 9.171875 C 1.121094 9.035156 1.058594 8.886719 1.019531 8.730469 C 0.984375 8.597656 1.03125 8.558594 1.199219 8.558594 C 1.367188 8.558594 1.769531 8.558594 2.011719 8.558594 C 2.039062 8.644531 2.082031 8.71875 2.136719 8.789062 C 2.011719 9 1.816406 9.339844 1.734375 9.484375 Z M 3.140625 9.957031 C 2.988281 10 2.828125 10.019531 2.667969 10.019531 C 2.507812 10.019531 2.347656 10 2.191406 9.957031 C 2.058594 9.921875 2.050781 9.859375 2.132812 9.714844 C 2.214844 9.570312 2.40625 9.238281 2.53125 9.027344 C 2.574219 9.035156 2.621094 9.039062 2.667969 9.039062 C 2.714844 9.039062 2.757812 9.035156 2.804688 9.027344 C 2.925781 9.238281 3.117188 9.570312 3.199219 9.714844 C 3.285156 9.859375 3.273438 9.921875 3.140625 9.957031 Z M 4.316406 8.730469 C 4.273438 8.886719 4.210938 9.035156 4.128906 9.171875 C 4.050781 9.3125 3.953125 9.441406 3.839844 9.554688 C 3.742188 9.652344 3.683594 9.628906 3.601562 9.484375 C 3.515625 9.339844 3.320312 9 3.199219 8.789062 C 3.253906 8.71875 3.292969 8.644531 3.320312 8.558594 C 3.5625 8.558594 3.964844 8.558594 4.136719 8.558594 C 4.300781 8.558594 4.351562 8.597656 4.316406 8.730469 Z M 4.136719 8.097656 C 3.960938 8.097656 3.542969 8.097656 3.300781 8.097656 C 3.269531 8.027344 3.230469 7.960938 3.179688 7.902344 C 3.300781 7.695312 3.511719 7.324219 3.601562 7.171875 C 3.683594 7.027344 3.742188 7.003906 3.839844 7.101562 C 3.953125 7.214844 4.050781 7.34375 4.128906 7.484375 C 4.210938 7.621094 4.273438 7.769531 4.316406 7.925781 C 4.351562 8.058594 4.300781 8.097656 4.136719 8.097656 Z M 4.136719 8.097656 "/>
<path fill-rule="nonzero" fill="rgb(30%,30%,30%)" fill-opacity="1" d="M 9.363281 9.746094 C 9.054688 9.753906 8.792969 9.515625 8.769531 9.207031 L 8.34375 3.433594 L 1.65625 3.433594 L 1.40625 5.242188 C 1.40625 5.242188 4.792969 4.6875 5.710938 7.082031 C 6.53125 9.347656 5.171875 10.460938 5.171875 10.460938 L 9.710938 10.460938 L 9.710938 9.746094 Z M 7.53125 6.886719 L 6.449219 6.886719 L 6.449219 4.984375 C 6.449219 4.769531 6.625 4.589844 6.839844 4.589844 L 7.136719 4.589844 C 7.351562 4.589844 7.53125 4.769531 7.53125 4.984375 Z M 7.53125 6.886719 "/>
<path fill-rule="nonzero" fill="rgb(30%,30%,30%)" fill-opacity="1" d="M 9.710938 2.929688 L 0.675781 2.929688 L 0.675781 2.230469 L 5.21875 0 L 9.710938 2.230469 Z M 9.710938 2.929688 "/>
</svg>
