<?xml version="1.0" encoding="UTF-8" standalone="no"?>
<!-- Created with Inkscape (http://www.inkscape.org/) -->

<svg
   xmlns:dc="http://purl.org/dc/elements/1.1/"
   xmlns:cc="http://creativecommons.org/ns#"
   xmlns:rdf="http://www.w3.org/1999/02/22-rdf-syntax-ns#"
   xmlns:svg="http://www.w3.org/2000/svg"
   xmlns="http://www.w3.org/2000/svg"
   xmlns:xlink="http://www.w3.org/1999/xlink"
   xmlns:sodipodi="http://sodipodi.sourceforge.net/DTD/sodipodi-0.dtd"
   xmlns:inkscape="http://www.inkscape.org/namespaces/inkscape"
   width="30px"
   height="30px"
   version="1.1"
   id="svg8"
   inkscape:version="0.92.4 5da689c313, 2019-01-14"
   sodipodi:docname="container.svg">
  <defs
     id="defs2" />
  <sodipodi:namedview
     id="base"
     pagecolor="#ffffff"
     bordercolor="#666666"
     borderopacity="1.0"
     inkscape:pageopacity="0.0"
     inkscape:pageshadow="2"
     inkscape:zoom="13.049334"
     inkscape:cx="18.679046"
     inkscape:cy="12.165829"
     inkscape:document-units="px"
     inkscape:current-layer="layer1"
     showgrid="false"
     inkscape:snap-page="false"
     units="px"
     inkscape:window-width="1884"
     inkscape:window-height="1061"
     inkscape:window-x="0"
     inkscape:window-y="0"
     inkscape:window-maximized="1"
     fit-margin-top="0"
     fit-margin-left="0"
     fit-margin-right="0"
     fit-margin-bottom="0" />
  <metadata
     id="metadata5">
    <rdf:RDF>
      <cc:Work
         rdf:about="">
        <dc:format>image/svg+xml</dc:format>
        <dc:type
           rdf:resource="http://purl.org/dc/dcmitype/StillImage" />
        <dc:title></dc:title>
      </cc:Work>
    </rdf:RDF>
  </metadata>
    <circle
       style="color:#000000;clip-rule:nonzero;display:inline;overflow:visible;visibility:visible;opacity:1;isolation:auto;mix-blend-mode:normal;color-interpolation:sRGB;color-interpolation-filters:linearRGB;solid-color:#000000;solid-opacity:1;vector-effect:none;fill:#a16cb3;fill-opacity:1;fill-rule:evenodd;stroke:#ffffff;stroke-width:1;stroke-linecap:butt;stroke-linejoin:miter;stroke-miterlimit:4;stroke-dasharray:none;stroke-dashoffset:0;stroke-opacity:1;marker:none;color-rendering:auto;image-rendering:auto;shape-rendering:auto;text-rendering:auto;enable-background:accumulate"
       id="path815"
       cx="15"
       cy="15"
       r="14.5" />
<g transform="translate(6.5,6.5)"><path fill-rule="nonzero" fill="#FFFFFF" fill-opacity="1" d="M 8.5 0 C 3.804688 0 0 3.804688 0 8.5 C 0 13.195312 3.804688 17 8.5 17 C 13.195312 17 17 13.195312 17 8.5 C 17 3.804688 13.195312 0 8.5 0 Z M 8.5 10.511719 C 7.332031 10.511719 6.386719 9.5625 6.386719 8.398438 C 6.386719 7.230469 7.332031 6.28125 8.5 6.28125 C 9.667969 6.28125 10.613281 7.226562 10.613281 8.394531 C 10.613281 9.5625 9.667969 10.507812 8.5 10.511719 Z M 3.183594 13.816406 C 0.796875 11.433594 1.078125 8.480469 1.078125 8.480469 C 1.082031 8.480469 1.082031 8.644531 1.109375 8.941406 C 1.457031 12.625 4.375 15.542969 8.058594 15.890625 C 8.351562 15.917969 8.519531 15.917969 8.515625 15.917969 C 8.515625 15.917969 5.566406 16.199219 3.183594 13.816406 Z M 3.933594 13.066406 C 1.886719 11.023438 2.140625 8.480469 2.140625 8.480469 C 2.144531 8.480469 2.144531 8.625 2.171875 8.875 C 2.453125 11.667969 4.433594 13.941406 7.078125 14.640625 C 7.546875 14.761719 8.03125 14.835938 8.515625 14.859375 C 8.515625 14.859375 5.976562 15.109375 3.933594 13.066406 Z M 4.6875 12.3125 C 2.976562 10.605469 3.203125 8.480469 3.203125 8.480469 C 3.226562 8.886719 3.289062 9.289062 3.394531 9.683594 C 3.652344 10.621094 4.148438 11.476562 4.835938 12.164062 C 6.480469 13.808594 8.515625 13.796875 8.515625 13.796875 C 8.515625 13.796875 6.390625 14.023438 4.6875 12.3125 Z M 7.535156 12.671875 C 5.898438 12.367188 4.628906 11.070312 4.328125 9.464844 C 4.265625 9.140625 4.246094 8.8125 4.265625 8.480469 C 4.265625 8.480469 4.289062 9.429688 4.828125 10.402344 C 6.09375 12.695312 8.515625 12.734375 8.515625 12.734375 C 8.1875 12.753906 7.859375 12.734375 7.535156 12.671875 Z M 7.777344 11.636719 C 6.535156 11.421875 5.570312 10.433594 5.363281 9.222656 C 5.316406 8.976562 5.308594 8.730469 5.328125 8.480469 C 5.351562 8.726562 5.398438 8.964844 5.464844 9.199219 C 5.855469 10.503906 6.972656 11.460938 8.320312 11.648438 C 8.445312 11.664062 8.519531 11.667969 8.519531 11.667969 C 8.269531 11.691406 8.023438 11.679688 7.777344 11.636719 Z M 11.671875 8.519531 C 11.671875 8.519531 11.640625 7.316406 10.660156 6.339844 C 10.253906 5.929688 9.75 5.628906 9.195312 5.464844 C 8.964844 5.398438 8.726562 5.351562 8.484375 5.328125 C 8.484375 5.328125 8.550781 5.324219 8.679688 5.320312 C 10.125 5.296875 11.386719 6.347656 11.636719 7.777344 C 11.679688 8.023438 11.691406 8.269531 11.671875 8.519531 Z M 12.734375 8.519531 C 12.730469 8.519531 12.726562 8.425781 12.707031 8.257812 C 12.46875 6.328125 11.101562 4.894531 9.4375 4.429688 C 9.125 4.34375 8.804688 4.289062 8.484375 4.265625 C 8.484375 4.265625 8.574219 4.257812 8.746094 4.257812 C 10.914062 4.265625 12.726562 6.035156 12.742188 8.253906 C 12.742188 8.425781 12.730469 8.519531 12.734375 8.519531 Z M 13.796875 8.519531 C 13.792969 8.519531 13.789062 8.402344 13.769531 8.191406 C 13.523438 5.902344 11.902344 4 9.683594 3.394531 C 9.289062 3.289062 8.886719 3.226562 8.484375 3.203125 C 8.484375 3.203125 10.605469 2.976562 12.3125 4.6875 C 14.023438 6.394531 13.796875 8.519531 13.796875 8.519531 Z M 14.859375 8.519531 C 14.855469 8.519531 14.851562 8.378906 14.828125 8.125 C 14.554688 5.371094 12.601562 3.074219 9.921875 2.363281 C 9.453125 2.238281 8.96875 2.164062 8.484375 2.140625 C 8.484375 2.140625 11.019531 1.886719 13.066406 3.933594 C 15.109375 5.976562 14.859375 8.519531 14.859375 8.519531 Z M 15.890625 8.058594 C 15.578125 4.769531 13.230469 2.121094 10.167969 1.328125 C 9.617188 1.183594 9.050781 1.101562 8.484375 1.082031 C 8.484375 1.082031 8.644531 1.070312 8.941406 1.078125 C 12.730469 1.1875 15.8125 4.246094 15.921875 8.058594 C 15.929688 8.355469 15.917969 8.519531 15.921875 8.519531 C 15.917969 8.519531 15.917969 8.355469 15.890625 8.058594 Z M 15.890625 8.058594 "/>
<path fill-rule="nonzero" fill="#FFFFFF" fill-opacity="1" d="M 8.5 6.578125 C 7.496094 6.578125 6.683594 7.394531 6.683594 8.398438 C 6.683594 9.398438 7.496094 10.214844 8.5 10.214844 C 9.503906 10.214844 10.316406 9.398438 10.316406 8.394531 C 10.316406 7.394531 9.503906 6.582031 8.5 6.578125 Z M 8.5 8.8125 C 8.269531 8.8125 8.082031 8.628906 8.082031 8.394531 C 8.082031 8.164062 8.269531 7.976562 8.5 7.976562 C 8.730469 7.976562 8.917969 8.164062 8.917969 8.394531 C 8.917969 8.628906 8.730469 8.8125 8.5 8.8125 Z M 8.0625 8.40625 C 8.066406 8.644531 8.261719 8.835938 8.5 8.835938 C 8.738281 8.835938 8.933594 8.644531 8.9375 8.40625 L 10.296875 8.40625 C 10.289062 9.394531 9.488281 10.191406 8.5 10.191406 C 7.511719 10.191406 6.710938 9.394531 6.703125 8.40625 Z M 8.0625 8.40625 "/>
<path fill-rule="nonzero" fill="#FFFFFF" fill-opacity="1" d="M 8.5 8.167969 C 8.375 8.167969 8.273438 8.269531 8.273438 8.394531 C 8.273438 8.523438 8.375 8.625 8.5 8.625 C 8.625 8.625 8.726562 8.523438 8.726562 8.394531 C 8.726562 8.269531 8.625 8.167969 8.5 8.167969 Z M 8.5 8.167969 "/>
</g>
</svg>
