<?xml version="1.0" encoding="UTF-8"?>
<svg xmlns="http://www.w3.org/2000/svg" xmlns:xlink="http://www.w3.org/1999/xlink" width="11" height="10.22945" viewBox="0 0 11 10.22945">
<path fill-rule="nonzero" fill="rgb(30%,30%,30%)" fill-opacity="1" d="M 10.710938 10.230469 L 1.542969 10.230469 C 0.675781 10.230469 0 9.582031 0 8.753906 L 0 8.46875 C 0 7.640625 0.675781 6.992188 1.542969 6.992188 L 10.757812 6.992188 C 10.882812 6.992188 10.984375 7.089844 10.984375 7.214844 C 10.984375 7.335938 10.882812 7.4375 10.757812 7.4375 L 1.542969 7.4375 C 0.917969 7.4375 0.445312 7.878906 0.445312 8.46875 L 0.445312 8.753906 C 0.445312 9.339844 0.917969 9.78125 1.542969 9.78125 L 10.710938 9.78125 C 10.832031 9.78125 10.933594 9.882812 10.933594 10.007812 C 10.933594 10.128906 10.832031 10.230469 10.710938 10.230469 Z M 10.710938 10.230469 "/>
<path fill-rule="nonzero" fill="rgb(30%,30%,30%)" fill-opacity="1" d="M 10.386719 9.441406 L 1.601562 9.441406 C 1.148438 9.441406 0.78125 9.074219 0.78125 8.621094 C 0.78125 8.167969 1.148438 7.804688 1.601562 7.800781 L 10.335938 7.800781 C 10.335938 7.800781 9.921875 8.960938 10.386719 9.441406 Z M 10.386719 9.441406 "/>
<path fill-rule="nonzero" fill="rgb(30%,30%,30%)" fill-opacity="1" d="M 10.71875 3.238281 L 1.550781 3.238281 C 0.6875 3.238281 0.0117188 2.589844 0.0117188 1.761719 L 0.0117188 1.476562 C 0.0117188 0.648438 0.6875 0 1.550781 0 L 10.769531 0 C 10.894531 0 10.992188 0.101562 10.992188 0.222656 C 10.992188 0.347656 10.894531 0.445312 10.769531 0.445312 L 1.550781 0.445312 C 0.929688 0.445312 0.457031 0.890625 0.457031 1.476562 L 0.457031 1.761719 C 0.457031 2.347656 0.929688 2.792969 1.550781 2.792969 L 10.71875 2.792969 C 10.84375 2.792969 10.945312 2.890625 10.945312 3.015625 C 10.945312 3.136719 10.84375 3.238281 10.71875 3.238281 Z M 10.71875 3.238281 "/>
<path fill-rule="nonzero" fill="rgb(30%,30%,30%)" fill-opacity="1" d="M 10.398438 2.449219 L 1.609375 2.449219 C 1.15625 2.449219 0.792969 2.082031 0.789062 1.628906 C 0.792969 1.179688 1.15625 0.8125 1.609375 0.8125 L 10.34375 0.8125 C 10.34375 0.8125 9.933594 1.96875 10.398438 2.449219 Z M 10.398438 2.449219 "/>
<path fill-rule="nonzero" fill="rgb(30%,30%,30%)" fill-opacity="1" d="M 10.726562 6.722656 L 1.558594 6.722656 C 0.695312 6.722656 0.015625 6.074219 0.015625 5.246094 L 0.015625 4.960938 C 0.015625 4.132812 0.695312 3.484375 1.558594 3.484375 L 10.777344 3.484375 C 10.898438 3.484375 11 3.582031 11 3.707031 C 11 3.828125 10.898438 3.929688 10.777344 3.929688 L 1.558594 3.929688 C 0.933594 3.929688 0.464844 4.371094 0.464844 4.960938 L 0.464844 5.246094 C 0.464844 5.832031 0.933594 6.273438 1.558594 6.273438 L 10.726562 6.273438 C 10.851562 6.273438 10.949219 6.375 10.949219 6.496094 C 10.949219 6.621094 10.851562 6.722656 10.726562 6.722656 Z M 10.726562 6.722656 "/>
<path fill-rule="nonzero" fill="rgb(30%,30%,30%)" fill-opacity="1" d="M 10.402344 5.933594 L 1.617188 5.933594 C 1.164062 5.933594 0.800781 5.566406 0.796875 5.113281 C 0.800781 4.660156 1.164062 4.296875 1.617188 4.292969 L 10.351562 4.292969 C 10.351562 4.292969 9.9375 5.453125 10.402344 5.933594 Z M 10.402344 5.933594 "/>
</svg>
