<?xml version="1.0" encoding="UTF-8"?>
<svg xmlns="http://www.w3.org/2000/svg" xmlns:xlink="http://www.w3.org/1999/xlink" width="9.911263" height="11" viewBox="0 0 9.911263 11">
<path fill-rule="nonzero" fill="rgb(30%,30%,30%)" fill-opacity="1" d="M 0.332031 7.960938 L 9.578125 7.960938 C 9.761719 7.960938 9.910156 8.109375 9.910156 8.292969 L 9.910156 10.667969 C 9.910156 10.851562 9.761719 11 9.578125 11 L 0.332031 11 C 0.148438 11 0 10.851562 0 10.667969 L 0 8.292969 C 0 8.109375 0.148438 7.960938 0.332031 7.960938 Z M 0.332031 7.960938 "/>
<path fill-rule="nonzero" fill="rgb(30%,30%,30%)" fill-opacity="1" d="M 8.371094 3.433594 L 8.371094 7.695312 L 1.5 7.695312 L 1.5 3.433594 C 1.5 1.539062 3.039062 0 4.9375 0 C 6.835938 0 8.371094 1.539062 8.371094 3.433594 Z M 7.285156 5.332031 L 7.285156 5.328125 C 7.28125 5.1875 7.164062 5.070312 7.023438 5.066406 L 2.925781 5.066406 C 2.78125 5.070312 2.664062 5.1875 2.664062 5.328125 L 2.664062 5.332031 C 2.664062 5.476562 2.78125 5.59375 2.925781 5.59375 L 7.023438 5.59375 C 7.164062 5.59375 7.28125 5.476562 7.285156 5.332031 Z M 7.285156 6.347656 L 7.285156 6.34375 C 7.28125 6.199219 7.164062 6.082031 7.023438 6.082031 L 2.925781 6.082031 C 2.78125 6.082031 2.664062 6.199219 2.664062 6.34375 L 2.664062 6.347656 C 2.664062 6.488281 2.78125 6.605469 2.925781 6.609375 L 7.023438 6.609375 C 7.164062 6.605469 7.28125 6.488281 7.285156 6.347656 Z M 7.285156 3.304688 L 7.285156 3.300781 C 7.28125 3.160156 7.164062 3.042969 7.023438 3.039062 L 2.925781 3.039062 C 2.78125 3.042969 2.664062 3.160156 2.664062 3.300781 L 2.664062 3.304688 C 2.664062 3.449219 2.78125 3.566406 2.925781 3.566406 L 7.023438 3.566406 C 7.164062 3.566406 7.28125 3.449219 7.285156 3.304688 Z M 7.285156 4.320312 L 7.285156 4.316406 C 7.28125 4.171875 7.164062 4.054688 7.023438 4.054688 L 2.925781 4.054688 C 2.78125 4.054688 2.664062 4.171875 2.664062 4.316406 L 2.664062 4.320312 C 2.664062 4.460938 2.78125 4.578125 2.925781 4.582031 L 7.023438 4.582031 C 7.164062 4.578125 7.28125 4.460938 7.285156 4.320312 Z M 7.285156 4.320312 "/>
</svg>
