<?xml version="1.0" encoding="UTF-8" standalone="no"?>
<!-- Created with Inkscape (http://www.inkscape.org/) -->

<svg
   xmlns:dc="http://purl.org/dc/elements/1.1/"
   xmlns:cc="http://creativecommons.org/ns#"
   xmlns:rdf="http://www.w3.org/1999/02/22-rdf-syntax-ns#"
   xmlns:svg="http://www.w3.org/2000/svg"
   xmlns="http://www.w3.org/2000/svg"
   xmlns:xlink="http://www.w3.org/1999/xlink"
   xmlns:sodipodi="http://sodipodi.sourceforge.net/DTD/sodipodi-0.dtd"
   xmlns:inkscape="http://www.inkscape.org/namespaces/inkscape"
   width="30px"
   height="30px"
   version="1.1"
   id="svg8"
   inkscape:version="0.92.4 5da689c313, 2019-01-14"
   sodipodi:docname="container.svg">
  <defs
     id="defs2" />
  <sodipodi:namedview
     id="base"
     pagecolor="#ffffff"
     bordercolor="#666666"
     borderopacity="1.0"
     inkscape:pageopacity="0.0"
     inkscape:pageshadow="2"
     inkscape:zoom="13.049334"
     inkscape:cx="18.679046"
     inkscape:cy="12.165829"
     inkscape:document-units="px"
     inkscape:current-layer="layer1"
     showgrid="false"
     inkscape:snap-page="false"
     units="px"
     inkscape:window-width="1884"
     inkscape:window-height="1061"
     inkscape:window-x="0"
     inkscape:window-y="0"
     inkscape:window-maximized="1"
     fit-margin-top="0"
     fit-margin-left="0"
     fit-margin-right="0"
     fit-margin-bottom="0" />
  <metadata
     id="metadata5">
    <rdf:RDF>
      <cc:Work
         rdf:about="">
        <dc:format>image/svg+xml</dc:format>
        <dc:type
           rdf:resource="http://purl.org/dc/dcmitype/StillImage" />
        <dc:title></dc:title>
      </cc:Work>
    </rdf:RDF>
  </metadata>
    <circle
       style="color:#000000;clip-rule:nonzero;display:inline;overflow:visible;visibility:visible;opacity:1;isolation:auto;mix-blend-mode:normal;color-interpolation:sRGB;color-interpolation-filters:linearRGB;solid-color:#000000;solid-opacity:1;vector-effect:none;fill:#76009e;fill-opacity:1;fill-rule:evenodd;stroke:#ffffff;stroke-width:1;stroke-linecap:butt;stroke-linejoin:miter;stroke-miterlimit:4;stroke-dasharray:none;stroke-dashoffset:0;stroke-opacity:1;marker:none;color-rendering:auto;image-rendering:auto;shape-rendering:auto;text-rendering:auto;enable-background:accumulate"
       id="path815"
       cx="15"
       cy="15"
       r="14.5" />
<g transform="translate(7.0,6.5)"><path fill-rule="nonzero" fill="#FFFFFF" fill-opacity="1" d="M 0.769531 15.191406 L 4.035156 15.191406 L 4.035156 17 L 0.769531 17 Z M 0.769531 15.191406 "/>
<path fill-rule="nonzero" fill="#FFFFFF" fill-opacity="1" d="M 7.8125 15.191406 L 11.078125 15.191406 L 11.078125 17 L 7.8125 17 Z M 7.8125 15.191406 "/>
<path fill-rule="nonzero" fill="#FFFFFF" fill-opacity="1" d="M 11.332031 15.191406 L 14.667969 15.191406 L 14.667969 17 L 11.332031 17 Z M 11.332031 15.191406 "/>
<path fill-rule="nonzero" fill="#FFFFFF" fill-opacity="1" d="M 4.285156 15.191406 L 7.550781 15.191406 L 7.550781 17 L 4.285156 17 Z M 4.285156 15.191406 "/>
<path fill-rule="nonzero" fill="#FFFFFF" fill-opacity="1" d="M 0.753906 13.371094 L 2.339844 13.371094 L 2.339844 14.769531 L 0.753906 14.769531 Z M 0.753906 13.371094 "/>
<path fill-rule="nonzero" fill="#FFFFFF" fill-opacity="1" d="M 6.117188 13.371094 L 9.386719 13.371094 L 9.386719 14.769531 L 6.117188 14.769531 Z M 6.117188 13.371094 "/>
<path fill-rule="nonzero" fill="#FFFFFF" fill-opacity="1" d="M 9.636719 13.371094 L 12.90625 13.371094 L 12.90625 14.769531 L 9.636719 14.769531 Z M 9.636719 13.371094 "/>
<path fill-rule="nonzero" fill="#FFFFFF" fill-opacity="1" d="M 13.160156 13.371094 L 14.667969 13.371094 L 14.667969 14.769531 L 13.160156 14.769531 Z M 13.160156 13.371094 "/>
<path fill-rule="nonzero" fill="#FFFFFF" fill-opacity="1" d="M 2.589844 13.371094 L 5.855469 13.371094 L 5.855469 14.769531 L 2.589844 14.769531 Z M 2.589844 13.371094 "/>
<path fill-rule="nonzero" fill="#FFFFFF" fill-opacity="1" d="M 0.753906 11.601562 L 4.023438 11.601562 L 4.023438 12.996094 L 0.753906 12.996094 Z M 0.753906 11.601562 "/>
<path fill-rule="nonzero" fill="#FFFFFF" fill-opacity="1" d="M 7.800781 11.601562 L 11.066406 11.601562 L 11.066406 12.996094 L 7.800781 12.996094 Z M 7.800781 11.601562 "/>
<path fill-rule="nonzero" fill="#FFFFFF" fill-opacity="1" d="M 11.320312 11.601562 L 14.589844 11.601562 L 14.589844 12.996094 L 11.320312 12.996094 Z M 11.320312 11.601562 "/>
<path fill-rule="nonzero" fill="#FFFFFF" fill-opacity="1" d="M 4.273438 11.601562 L 7.539062 11.601562 L 7.539062 12.996094 L 4.273438 12.996094 Z M 4.273438 11.601562 "/>
<path fill-rule="nonzero" fill="#FFFFFF" fill-opacity="1" d="M 0.753906 9.78125 L 2.152344 9.78125 L 2.152344 11.179688 L 0.753906 11.179688 Z M 0.753906 9.78125 "/>
<path fill-rule="nonzero" fill="#FFFFFF" fill-opacity="1" d="M 5.929688 9.78125 L 9.195312 9.78125 L 9.195312 11.179688 L 5.929688 11.179688 Z M 5.929688 9.78125 "/>
<path fill-rule="nonzero" fill="#FFFFFF" fill-opacity="1" d="M 9.449219 9.78125 L 12.714844 9.78125 L 12.714844 11.179688 L 9.449219 11.179688 Z M 9.449219 9.78125 "/>
<path fill-rule="nonzero" fill="#FFFFFF" fill-opacity="1" d="M 12.96875 9.78125 L 14.667969 9.78125 L 14.667969 11.179688 L 12.96875 11.179688 Z M 12.96875 9.78125 "/>
<path fill-rule="nonzero" fill="#FFFFFF" fill-opacity="1" d="M 2.398438 9.78125 L 5.667969 9.78125 L 5.667969 11.179688 L 2.398438 11.179688 Z M 2.398438 9.78125 "/>
<path fill-rule="nonzero" fill="#FFFFFF" fill-opacity="1" d="M 7.625 3.25 L 7.625 4.734375 L 5.902344 4.734375 C 5.75 4.734375 5.621094 4.863281 5.621094 5.015625 C 5.621094 5.171875 5.75 5.296875 5.902344 5.296875 L 6.074219 5.296875 L 6.496094 7.894531 L 8.957031 7.894531 L 9.527344 5.296875 L 9.722656 5.296875 C 9.878906 5.296875 10.003906 5.171875 10.003906 5.015625 C 10.003906 4.863281 9.878906 4.734375 9.722656 4.734375 L 8 4.734375 L 8 3.25 Z M 7.625 3.25 "/>
<path fill-rule="nonzero" fill="#FFFFFF" fill-opacity="1" d="M 15.070312 8.792969 L 0.285156 8.886719 C 0.128906 8.886719 0 9.015625 0 9.171875 C 0 9.328125 0.128906 9.457031 0.285156 9.457031 L 15.070312 9.359375 C 15.226562 9.359375 15.355469 9.234375 15.355469 9.078125 C 15.355469 8.921875 15.226562 8.792969 15.070312 8.792969 Z M 15.070312 8.792969 "/>
<path fill-rule="nonzero" fill="#FFFFFF" fill-opacity="1" d="M 15.246094 1.671875 L 14.601562 1.671875 C 14.394531 1.671875 14.222656 1.84375 14.222656 2.050781 L 14.222656 2.113281 L 12.730469 2.113281 L 12.730469 0.871094 C 12.730469 0.390625 12.339844 0 11.859375 0 L 3.449219 0 C 2.96875 0 2.578125 0.390625 2.578125 0.871094 L 2.578125 2.113281 L 0.839844 2.113281 C 0.683594 2.113281 0.554688 2.242188 0.554688 2.398438 C 0.554688 2.554688 0.683594 2.683594 0.839844 2.683594 L 2.578125 2.683594 L 2.578125 8.300781 C 2.578125 8.308594 2.578125 8.316406 2.578125 8.320312 L 2.847656 8.304688 L 3.117188 8.300781 L 3.117188 2.683594 L 12.191406 2.683594 L 12.191406 8.300781 L 12.484375 8.304688 L 12.730469 8.324219 C 12.730469 8.316406 12.730469 8.308594 12.730469 8.300781 L 12.730469 2.683594 L 14.222656 2.683594 L 14.222656 2.699219 C 14.222656 2.90625 14.394531 3.078125 14.601562 3.078125 L 15.246094 3.078125 C 15.457031 3.078125 15.625 2.90625 15.625 2.699219 L 15.625 2.050781 C 15.625 1.84375 15.457031 1.671875 15.246094 1.671875 Z M 3.117188 2.113281 L 3.117188 0.871094 C 3.117188 0.6875 3.265625 0.539062 3.449219 0.539062 L 11.859375 0.539062 C 12.042969 0.539062 12.191406 0.6875 12.191406 0.871094 L 12.191406 2.113281 Z M 3.117188 2.113281 "/>
</g>
</svg>
