<?xml version="1.0" encoding="UTF-8"?>
<svg xmlns="http://www.w3.org/2000/svg" xmlns:xlink="http://www.w3.org/1999/xlink" width="8.708333" height="11" viewBox="0 0 8.708333 11">
<path fill-rule="nonzero" fill="rgb(30%,30%,30%)" fill-opacity="1" d="M 8.707031 9.714844 L 8.707031 10.910156 C 8.707031 10.957031 8.667969 11 8.617188 11 L 0.0898438 11 C 0.0429688 11 0 10.957031 0 10.910156 L 0 9.714844 C 0 9.667969 0.0429688 9.625 0.0898438 9.625 L 8.617188 9.625 C 8.667969 9.625 8.707031 9.667969 8.707031 9.714844 Z M 5.5 1.285156 L 5.5 0.0898438 C 5.5 0.0429688 5.457031 0 5.410156 0 L 3.300781 0 C 3.25 0 3.207031 0.0429688 3.207031 0.0898438 L 3.207031 1.285156 C 3.207031 1.332031 3.167969 1.375 3.117188 1.375 L 2.382812 1.375 C 2.332031 1.375 2.292969 1.332031 2.292969 1.285156 L 2.292969 0.550781 C 2.292969 0.5 2.25 0.457031 2.199219 0.457031 L 1.007812 0.457031 C 0.957031 0.457031 0.917969 0.5 0.917969 0.550781 L 0.917969 2.660156 C 0.917969 2.707031 0.957031 2.75 1.007812 2.75 L 7.699219 2.75 C 7.75 2.75 7.792969 2.707031 7.792969 2.660156 L 7.792969 0.550781 C 7.792969 0.5 7.75 0.457031 7.699219 0.457031 L 6.507812 0.457031 C 6.457031 0.457031 6.417969 0.5 6.417969 0.550781 L 6.417969 1.285156 C 6.417969 1.332031 6.375 1.375 6.324219 1.375 L 5.589844 1.375 C 5.542969 1.375 5.5 1.332031 5.5 1.285156 Z M 1.136719 9.167969 L 7.570312 9.167969 C 7.609375 9.167969 7.640625 9.144531 7.65625 9.109375 C 7.667969 9.074219 7.660156 9.035156 7.636719 9.011719 L 6.445312 7.820312 C 6.425781 7.800781 6.417969 7.777344 6.417969 7.753906 L 6.417969 5.070312 C 6.417969 5.050781 6.421875 5.03125 6.433594 5.015625 L 7.683594 3.355469 C 7.703125 3.328125 7.707031 3.289062 7.691406 3.257812 C 7.675781 3.226562 7.644531 3.207031 7.609375 3.207031 L 1.101562 3.207031 C 1.066406 3.207031 1.035156 3.226562 1.019531 3.257812 C 1.003906 3.289062 1.003906 3.328125 1.027344 3.355469 L 2.273438 5.015625 C 2.285156 5.03125 2.292969 5.050781 2.292969 5.070312 L 2.292969 7.753906 C 2.292969 7.777344 2.28125 7.800781 2.265625 7.820312 L 1.074219 9.011719 C 1.046875 9.035156 1.039062 9.074219 1.054688 9.109375 C 1.066406 9.144531 1.101562 9.167969 1.136719 9.167969 Z M 1.136719 9.167969 "/>
</svg>
