<?xml version="1.0" encoding="UTF-8" standalone="no"?>
<!-- Created with Inkscape (http://www.inkscape.org/) -->

<svg
   xmlns:dc="http://purl.org/dc/elements/1.1/"
   xmlns:cc="http://creativecommons.org/ns#"
   xmlns:rdf="http://www.w3.org/1999/02/22-rdf-syntax-ns#"
   xmlns:svg="http://www.w3.org/2000/svg"
   xmlns="http://www.w3.org/2000/svg"
   xmlns:xlink="http://www.w3.org/1999/xlink"
   xmlns:sodipodi="http://sodipodi.sourceforge.net/DTD/sodipodi-0.dtd"
   xmlns:inkscape="http://www.inkscape.org/namespaces/inkscape"
   width="30px"
   height="30px"
   version="1.1"
   id="svg8"
   inkscape:version="0.92.4 5da689c313, 2019-01-14"
   sodipodi:docname="container.svg">
  <defs
     id="defs2" />
  <sodipodi:namedview
     id="base"
     pagecolor="#ffffff"
     bordercolor="#666666"
     borderopacity="1.0"
     inkscape:pageopacity="0.0"
     inkscape:pageshadow="2"
     inkscape:zoom="13.049334"
     inkscape:cx="18.679046"
     inkscape:cy="12.165829"
     inkscape:document-units="px"
     inkscape:current-layer="layer1"
     showgrid="false"
     inkscape:snap-page="false"
     units="px"
     inkscape:window-width="1884"
     inkscape:window-height="1061"
     inkscape:window-x="0"
     inkscape:window-y="0"
     inkscape:window-maximized="1"
     fit-margin-top="0"
     fit-margin-left="0"
     fit-margin-right="0"
     fit-margin-bottom="0" />
  <metadata
     id="metadata5">
    <rdf:RDF>
      <cc:Work
         rdf:about="">
        <dc:format>image/svg+xml</dc:format>
        <dc:type
           rdf:resource="http://purl.org/dc/dcmitype/StillImage" />
        <dc:title></dc:title>
      </cc:Work>
    </rdf:RDF>
  </metadata>
    <circle
       style="color:#000000;clip-rule:nonzero;display:inline;overflow:visible;visibility:visible;opacity:1;isolation:auto;mix-blend-mode:normal;color-interpolation:sRGB;color-interpolation-filters:linearRGB;solid-color:#000000;solid-opacity:1;vector-effect:none;fill:#76009e;fill-opacity:1;fill-rule:evenodd;stroke:#ffffff;stroke-width:1;stroke-linecap:butt;stroke-linejoin:miter;stroke-miterlimit:4;stroke-dasharray:none;stroke-dashoffset:0;stroke-opacity:1;marker:none;color-rendering:auto;image-rendering:auto;shape-rendering:auto;text-rendering:auto;enable-background:accumulate"
       id="path815"
       cx="15"
       cy="15"
       r="14.5" />
<g transform="translate(6.5,7.5)"><path fill-rule="nonzero" fill="#FFFFFF" fill-opacity="1" d="M 17 10.101562 L 14.351562 10.101562 L 13.433594 8.3125 L 16.082031 8.3125 Z M 17 10.101562 "/>
<path fill-rule="nonzero" fill="#FFFFFF" fill-opacity="1" d="M 0 10.101562 L 2.648438 10.101562 L 4.046875 8.3125 L 1.394531 8.3125 Z M 0 10.101562 "/>
<path fill-rule="nonzero" fill="#FFFFFF" fill-opacity="1" d="M 14.382812 10.355469 L 14.382812 15.167969 L 16.902344 15.167969 L 16.988281 10.359375 Z M 16.109375 14.335938 L 15.273438 14.335938 L 15.273438 11.386719 C 15.273438 11.15625 15.460938 10.96875 15.691406 10.96875 C 15.921875 10.96875 16.109375 11.15625 16.109375 11.386719 Z M 16.109375 14.335938 "/>
<path fill-rule="nonzero" fill="#FFFFFF" fill-opacity="1" d="M 0.0078125 15.167969 L 2.640625 15.167969 L 2.640625 10.355469 L 0.0078125 10.355469 Z M 0.925781 11.386719 C 0.925781 11.15625 1.109375 10.96875 1.339844 10.96875 C 1.570312 10.96875 1.757812 11.15625 1.757812 11.386719 L 1.757812 14.335938 L 0.925781 14.335938 Z M 0.925781 11.386719 "/>
<path fill-rule="nonzero" fill="#FFFFFF" fill-opacity="1" d="M 3.046875 10.355469 L 3.046875 15.167969 L 13.988281 15.167969 L 13.988281 10.355469 Z M 5.128906 14.335938 L 4.296875 14.335938 L 4.296875 11.386719 C 4.296875 11.15625 4.484375 10.96875 4.710938 10.96875 C 4.941406 10.96875 5.128906 11.15625 5.128906 11.386719 Z M 6.542969 14.335938 L 5.707031 14.335938 L 5.707031 11.386719 C 5.707031 11.15625 5.894531 10.96875 6.125 10.96875 C 6.355469 10.96875 6.542969 11.15625 6.542969 11.386719 Z M 7.886719 14.304688 L 7.050781 14.304688 L 7.050781 11.355469 C 7.050781 11.128906 7.238281 10.941406 7.46875 10.941406 C 7.699219 10.941406 7.886719 11.128906 7.886719 11.355469 Z M 9.296875 14.304688 L 8.464844 14.304688 L 8.464844 11.355469 C 8.464844 11.128906 8.652344 10.941406 8.878906 10.941406 C 9.109375 10.941406 9.296875 11.128906 9.296875 11.355469 Z M 10.785156 14.289062 L 9.949219 14.289062 L 9.949219 11.34375 C 9.949219 11.113281 10.136719 10.925781 10.367188 10.925781 C 10.597656 10.925781 10.785156 11.113281 10.785156 11.34375 Z M 12.195312 14.289062 L 11.363281 14.289062 L 11.363281 11.34375 C 11.363281 11.113281 11.546875 10.925781 11.777344 10.925781 C 12.007812 10.925781 12.195312 11.113281 12.195312 11.34375 Z M 12.195312 14.289062 "/>
<path fill-rule="nonzero" fill="#FFFFFF" fill-opacity="1" d="M 12.558594 7.421875 L 11.078125 7.421875 L 11.078125 6.203125 L 10.476562 5.398438 L 9.996094 5.398438 L 9.078125 3.023438 L 9.078125 1.328125 L 10.019531 1.328125 L 10.019531 1.046875 L 9.078125 1.046875 L 9.078125 0 L 8.730469 0 L 8.730469 1.046875 L 7.820312 1.046875 L 7.820312 1.328125 L 8.730469 1.328125 L 8.730469 3.023438 L 7.890625 5.398438 L 7.382812 5.398438 L 6.703125 6.246094 L 6.703125 7.421875 L 5.152344 7.421875 L 3.023438 10.101562 L 13.988281 10.101562 Z M 8.933594 7.53125 C 8.394531 7.53125 7.960938 7.097656 7.960938 6.558594 C 7.960938 6.023438 8.394531 5.585938 8.933594 5.585938 C 9.46875 5.585938 9.902344 6.023438 9.902344 6.558594 C 9.902344 7.097656 9.46875 7.53125 8.933594 7.53125 Z M 8.933594 7.53125 "/>
</g>
</svg>
