<?xml version="1.0" encoding="UTF-8" standalone="no"?>
<!-- Created with Inkscape (http://www.inkscape.org/) -->

<svg
   xmlns:dc="http://purl.org/dc/elements/1.1/"
   xmlns:cc="http://creativecommons.org/ns#"
   xmlns:rdf="http://www.w3.org/1999/02/22-rdf-syntax-ns#"
   xmlns:svg="http://www.w3.org/2000/svg"
   xmlns="http://www.w3.org/2000/svg"
   xmlns:xlink="http://www.w3.org/1999/xlink"
   xmlns:sodipodi="http://sodipodi.sourceforge.net/DTD/sodipodi-0.dtd"
   xmlns:inkscape="http://www.inkscape.org/namespaces/inkscape"
   width="30px"
   height="30px"
   version="1.1"
   id="svg8"
   inkscape:version="0.92.4 5da689c313, 2019-01-14"
   sodipodi:docname="container.svg">
  <defs
     id="defs2" />
  <sodipodi:namedview
     id="base"
     pagecolor="#ffffff"
     bordercolor="#666666"
     borderopacity="1.0"
     inkscape:pageopacity="0.0"
     inkscape:pageshadow="2"
     inkscape:zoom="13.049334"
     inkscape:cx="18.679046"
     inkscape:cy="12.165829"
     inkscape:document-units="px"
     inkscape:current-layer="layer1"
     showgrid="false"
     inkscape:snap-page="false"
     units="px"
     inkscape:window-width="1884"
     inkscape:window-height="1061"
     inkscape:window-x="0"
     inkscape:window-y="0"
     inkscape:window-maximized="1"
     fit-margin-top="0"
     fit-margin-left="0"
     fit-margin-right="0"
     fit-margin-bottom="0" />
  <metadata
     id="metadata5">
    <rdf:RDF>
      <cc:Work
         rdf:about="">
        <dc:format>image/svg+xml</dc:format>
        <dc:type
           rdf:resource="http://purl.org/dc/dcmitype/StillImage" />
        <dc:title></dc:title>
      </cc:Work>
    </rdf:RDF>
  </metadata>
    <circle
       style="color:#000000;clip-rule:nonzero;display:inline;overflow:visible;visibility:visible;opacity:1;isolation:auto;mix-blend-mode:normal;color-interpolation:sRGB;color-interpolation-filters:linearRGB;solid-color:#000000;solid-opacity:1;vector-effect:none;fill:#76009e;fill-opacity:1;fill-rule:evenodd;stroke:#ffffff;stroke-width:1;stroke-linecap:butt;stroke-linejoin:miter;stroke-miterlimit:4;stroke-dasharray:none;stroke-dashoffset:0;stroke-opacity:1;marker:none;color-rendering:auto;image-rendering:auto;shape-rendering:auto;text-rendering:auto;enable-background:accumulate"
       id="path815"
       cx="15"
       cy="15"
       r="14.5" />
<g transform="translate(6.5,7.0)"><path fill-rule="nonzero" fill="#FFFFFF" fill-opacity="1" d="M 16.5 4.675781 L 0.898438 0.03125 C 0.527344 -0.0820312 0.140625 0.128906 0.03125 0.5 C 0.0117188 0.5625 0 0.632812 0 0.699219 L 0 15.574219 C 0 15.960938 0.3125 16.273438 0.699219 16.273438 C 1.085938 16.273438 1.398438 15.960938 1.398438 15.574219 L 1.398438 5.832031 L 14.109375 5.890625 L 14.109375 10.320312 C 14.109375 10.707031 14.421875 11.019531 14.808594 11.019531 C 15.195312 11.019531 15.507812 10.707031 15.507812 10.320312 L 15.507812 5.84375 L 16.101562 6.019531 C 16.472656 6.128906 16.859375 5.917969 16.972656 5.546875 C 17.082031 5.179688 16.871094 4.789062 16.5 4.675781 Z M 1.398438 1.636719 L 4.203125 2.472656 L 1.398438 4.070312 Z M 3.574219 4.441406 L 6.058594 3.027344 L 10.925781 4.476562 Z M 3.574219 4.441406 "/>
<path fill-rule="nonzero" fill="#FFFFFF" fill-opacity="1" d="M 13.605469 11.476562 C 13.535156 11.441406 11.886719 10.519531 9.738281 10.597656 C 8.605469 10.636719 7.957031 10.875 7.382812 11.085938 C 6.863281 11.277344 6.414062 11.4375 5.601562 11.441406 C 4.304688 11.449219 3.644531 11.007812 3.617188 10.988281 C 3.617188 10.988281 3.25 10.746094 3.25 10.746094 C 2.953125 10.570312 2.566406 10.664062 2.390625 10.960938 C 2.214844 11.257812 2.3125 11.640625 2.609375 11.820312 C 2.773438 11.929688 2.949219 12.027344 3.132812 12.109375 C 3.230469 12.164062 3.347656 12.21875 3.476562 12.273438 C 4.113281 12.546875 4.847656 12.691406 5.601562 12.691406 C 6.636719 12.691406 7.234375 12.46875 7.8125 12.257812 C 8.34375 12.0625 8.847656 11.878906 9.78125 11.847656 C 11.566406 11.785156 12.976562 12.558594 12.988281 12.566406 C 13.289062 12.738281 13.671875 12.632812 13.839844 12.332031 C 14.011719 12.027344 13.90625 11.648438 13.605469 11.476562 Z M 13.605469 11.476562 "/>
<path fill-rule="nonzero" fill="#FFFFFF" fill-opacity="1" d="M 13.457031 13.921875 C 13.390625 13.882812 11.738281 12.964844 9.589844 13.039062 C 8.457031 13.082031 7.808594 13.320312 7.238281 13.527344 C 6.714844 13.71875 6.265625 13.878906 5.453125 13.882812 C 4.15625 13.894531 3.5 13.453125 3.46875 13.429688 C 3.46875 13.429688 3.105469 13.191406 3.101562 13.1875 C 2.804688 13.011719 2.417969 13.109375 2.242188 13.40625 C 2.066406 13.703125 2.164062 14.085938 2.460938 14.261719 C 2.625 14.371094 2.800781 14.472656 2.984375 14.554688 C 3.082031 14.605469 3.199219 14.664062 3.328125 14.71875 C 3.964844 14.988281 4.699219 15.132812 5.453125 15.132812 C 6.488281 15.132812 7.085938 14.914062 7.664062 14.703125 C 8.195312 14.507812 8.699219 14.324219 9.632812 14.289062 C 11.417969 14.226562 12.828125 15.003906 12.839844 15.011719 C 13.140625 15.179688 13.523438 15.074219 13.691406 14.773438 C 13.863281 14.472656 13.757812 14.089844 13.457031 13.921875 C 13.460938 13.921875 13.460938 13.921875 13.457031 13.921875 Z M 13.457031 13.921875 "/>
</g>
</svg>
