<?xml version="1.0" encoding="UTF-8"?>
<svg xmlns="http://www.w3.org/2000/svg" xmlns:xlink="http://www.w3.org/1999/xlink" width="10.893676" height="11" viewBox="0 0 10.893676 11">
<path fill-rule="nonzero" fill="rgb(30%,30%,30%)" fill-opacity="1" d="M 8.515625 4.023438 C 8.347656 6.882812 5.382812 5.796875 4.785156 6.3125 C 4.457031 6.59375 4.457031 7.003906 4.785156 7.320312 C 5.238281 7.75 5.058594 8.539062 4.433594 8.597656 C 1.996094 8.816406 0 6.882812 0 4.433594 C 0 1.984375 1.984375 0 4.433594 0 C 6.882812 0 8.640625 1.945312 8.515625 4.023438 Z M 6.835938 2.753906 C 6.375 2.753906 6.003906 3.128906 6.003906 3.589844 C 6.003906 4.050781 6.375 4.421875 6.835938 4.421875 C 7.296875 4.421875 7.671875 4.050781 7.671875 3.589844 C 7.671875 3.128906 7.296875 2.753906 6.835938 2.753906 Z M 5.46875 0.855469 C 5.007812 0.855469 4.636719 1.226562 4.636719 1.6875 C 4.636719 2.148438 5.007812 2.523438 5.46875 2.523438 C 5.929688 2.523438 6.300781 2.148438 6.300781 1.6875 C 6.300781 1.226562 5.929688 0.855469 5.46875 0.855469 Z M 3.109375 0.878906 C 2.648438 0.878906 2.277344 1.253906 2.277344 1.710938 C 2.277344 2.171875 2.648438 2.546875 3.109375 2.546875 C 3.570312 2.546875 3.945312 2.171875 3.945312 1.710938 C 3.945312 1.253906 3.570312 0.878906 3.109375 0.878906 Z M 1.6875 2.777344 C 1.226562 2.777344 0.855469 3.148438 0.855469 3.609375 C 0.855469 4.070312 1.226562 4.445312 1.6875 4.445312 C 2.148438 4.445312 2.519531 4.070312 2.519531 3.609375 C 2.519531 3.148438 2.148438 2.777344 1.6875 2.777344 Z M 1.6875 2.777344 "/>
<path fill-rule="nonzero" fill="rgb(30%,30%,30%)" fill-opacity="1" d="M 5 9.167969 C 4.59375 9.167969 4.417969 9.40625 4.347656 9.738281 C 4.332031 9.804688 4.320312 9.941406 4.308594 10.007812 C 4.273438 10.246094 4.261719 10.21875 4.246094 10.289062 C 4.21875 10.425781 4.082031 10.65625 3.988281 10.769531 C 3.699219 11.113281 3.941406 10.980469 4.023438 10.941406 C 4.144531 10.878906 4.152344 10.863281 4.457031 10.738281 C 4.757812 10.617188 4.863281 10.53125 5.046875 10.480469 C 5.375 10.394531 5.65625 10.171875 5.660156 9.832031 C 5.664062 9.464844 5.40625 9.167969 5 9.167969 Z M 5 9.167969 "/>
<path fill-rule="nonzero" fill="rgb(30%,30%,30%)" fill-opacity="1" d="M 5.761719 9.472656 L 7.210938 8.394531 L 6.4375 7.613281 L 5.394531 9.078125 Z M 5.761719 9.472656 "/>
<path fill-rule="nonzero" fill="rgb(30%,30%,30%)" fill-opacity="1" d="M 7.394531 8.25 L 6.613281 7.445312 C 6.523438 7.472656 10.542969 3.789062 10.875 3.964844 C 11.203125 4.140625 7.457031 8.285156 7.394531 8.25 Z M 7.394531 8.25 "/>
</svg>
