<?xml version="1.0" encoding="UTF-8" standalone="no"?>
<!-- Created with Inkscape (http://www.inkscape.org/) -->

<svg
   xmlns:dc="http://purl.org/dc/elements/1.1/"
   xmlns:cc="http://creativecommons.org/ns#"
   xmlns:rdf="http://www.w3.org/1999/02/22-rdf-syntax-ns#"
   xmlns:svg="http://www.w3.org/2000/svg"
   xmlns="http://www.w3.org/2000/svg"
   xmlns:xlink="http://www.w3.org/1999/xlink"
   xmlns:sodipodi="http://sodipodi.sourceforge.net/DTD/sodipodi-0.dtd"
   xmlns:inkscape="http://www.inkscape.org/namespaces/inkscape"
   width="30px"
   height="30px"
   version="1.1"
   id="svg8"
   inkscape:version="0.92.4 5da689c313, 2019-01-14"
   sodipodi:docname="container.svg">
  <defs
     id="defs2" />
  <sodipodi:namedview
     id="base"
     pagecolor="#ffffff"
     bordercolor="#666666"
     borderopacity="1.0"
     inkscape:pageopacity="0.0"
     inkscape:pageshadow="2"
     inkscape:zoom="13.049334"
     inkscape:cx="18.679046"
     inkscape:cy="12.165829"
     inkscape:document-units="px"
     inkscape:current-layer="layer1"
     showgrid="false"
     inkscape:snap-page="false"
     units="px"
     inkscape:window-width="1884"
     inkscape:window-height="1061"
     inkscape:window-x="0"
     inkscape:window-y="0"
     inkscape:window-maximized="1"
     fit-margin-top="0"
     fit-margin-left="0"
     fit-margin-right="0"
     fit-margin-bottom="0" />
  <metadata
     id="metadata5">
    <rdf:RDF>
      <cc:Work
         rdf:about="">
        <dc:format>image/svg+xml</dc:format>
        <dc:type
           rdf:resource="http://purl.org/dc/dcmitype/StillImage" />
        <dc:title></dc:title>
      </cc:Work>
    </rdf:RDF>
  </metadata>
    <circle
       style="color:#000000;clip-rule:nonzero;display:inline;overflow:visible;visibility:visible;opacity:1;isolation:auto;mix-blend-mode:normal;color-interpolation:sRGB;color-interpolation-filters:linearRGB;solid-color:#000000;solid-opacity:1;vector-effect:none;fill:#ffffff;fill-opacity:1;fill-rule:evenodd;stroke:#76009e;stroke-width:1;stroke-linecap:butt;stroke-linejoin:miter;stroke-miterlimit:4;stroke-dasharray:none;stroke-dashoffset:0;stroke-opacity:1;marker:none;color-rendering:auto;image-rendering:auto;shape-rendering:auto;text-rendering:auto;enable-background:accumulate"
       id="path815"
       cx="15"
       cy="15"
       r="14.5" />
<g transform="translate(6.5,10.5)"><path fill-rule="nonzero" fill="rgb(30%,30%,30%)" fill-opacity="1" d="M 0 7.140625 L 2.558594 7.140625 L 2.558594 8.960938 L 0 8.960938 Z M 0 7.140625 "/>
<path fill-rule="nonzero" fill="rgb(30%,30%,30%)" fill-opacity="1" d="M 2.851562 7.140625 L 6.457031 7.140625 L 6.457031 8.960938 L 2.851562 8.960938 Z M 2.851562 7.140625 "/>
<path fill-rule="nonzero" fill="rgb(30%,30%,30%)" fill-opacity="1" d="M 10.628906 7.140625 L 14.234375 7.140625 L 14.234375 8.960938 L 10.628906 8.960938 Z M 10.628906 7.140625 "/>
<path fill-rule="nonzero" fill="rgb(30%,30%,30%)" fill-opacity="1" d="M 6.730469 7.140625 L 10.339844 7.140625 L 10.339844 8.960938 L 6.730469 8.960938 Z M 6.730469 7.140625 "/>
<path fill-rule="nonzero" fill="rgb(30%,30%,30%)" fill-opacity="1" d="M 14.523438 7.140625 L 17 7.140625 L 17 8.960938 L 14.523438 8.960938 Z M 14.523438 7.140625 "/>
<path fill-rule="nonzero" fill="rgb(30%,30%,30%)" fill-opacity="1" d="M 5.121094 0.882812 L 6.132812 2.632812 C 6.8125 2.261719 7.585938 2.042969 8.410156 2.023438 L 8.410156 0 C 7.21875 0.0195312 6.097656 0.339844 5.121094 0.882812 Z M 5.121094 0.882812 "/>
<path fill-rule="nonzero" fill="rgb(30%,30%,30%)" fill-opacity="1" d="M 8.636719 0 L 8.636719 2.023438 C 9.464844 2.039062 10.238281 2.253906 10.921875 2.625 L 11.933594 0.871094 C 10.953125 0.332031 9.832031 0.015625 8.636719 0 Z M 8.636719 0 "/>
<path fill-rule="nonzero" fill="rgb(30%,30%,30%)" fill-opacity="1" d="M 15.570312 6.785156 C 15.527344 5.625 15.207031 4.539062 14.671875 3.585938 L 12.921875 4.597656 C 13.285156 5.25 13.507812 5.992188 13.546875 6.785156 Z M 15.570312 6.785156 "/>
<path fill-rule="nonzero" fill="rgb(30%,30%,30%)" fill-opacity="1" d="M 2.507812 3.40625 L 4.257812 4.414062 C 4.675781 3.734375 5.253906 3.160156 5.9375 2.746094 L 4.925781 0.992188 C 3.9375 1.585938 3.101562 2.417969 2.507812 3.40625 Z M 2.507812 3.40625 "/>
<path fill-rule="nonzero" fill="rgb(30%,30%,30%)" fill-opacity="1" d="M 1.503906 6.785156 L 3.523438 6.785156 C 3.5625 6 3.785156 5.261719 4.144531 4.609375 L 2.394531 3.601562 C 1.863281 4.546875 1.542969 5.628906 1.503906 6.785156 Z M 1.503906 6.785156 "/>
<path fill-rule="nonzero" fill="rgb(30%,30%,30%)" fill-opacity="1" d="M 12.128906 0.984375 L 11.117188 2.734375 C 11.804688 3.148438 12.386719 3.722656 12.804688 4.402344 L 14.558594 3.390625 C 13.957031 2.402344 13.121094 1.574219 12.128906 0.984375 Z M 12.128906 0.984375 "/>
</g>
</svg>
