<?xml version="1.0" encoding="UTF-8"?>
<svg xmlns="http://www.w3.org/2000/svg" xmlns:xlink="http://www.w3.org/1999/xlink" width="11" height="10.89026" viewBox="0 0 11 10.89026">
<path fill-rule="nonzero" fill="rgb(30%,30%,30%)" fill-opacity="1" d="M 1.445312 3.546875 L 2.195312 3.546875 C 2.378906 3.546875 2.53125 3.699219 2.53125 3.886719 L 2.53125 8.234375 C 2.53125 8.421875 2.378906 8.574219 2.195312 8.574219 L 1.445312 8.574219 C 1.257812 8.574219 1.105469 8.421875 1.105469 8.234375 L 1.105469 3.886719 C 1.105469 3.699219 1.257812 3.546875 1.445312 3.546875 Z M 1.445312 3.546875 "/>
<path fill-rule="nonzero" fill="rgb(30%,30%,30%)" fill-opacity="1" d="M 3.890625 3.546875 L 4.640625 3.546875 C 4.828125 3.546875 4.980469 3.699219 4.980469 3.886719 L 4.980469 8.234375 C 4.980469 8.421875 4.828125 8.574219 4.640625 8.574219 L 3.890625 8.574219 C 3.707031 8.574219 3.554688 8.421875 3.554688 8.234375 L 3.554688 3.886719 C 3.554688 3.699219 3.707031 3.546875 3.890625 3.546875 Z M 3.890625 3.546875 "/>
<path fill-rule="nonzero" fill="rgb(30%,30%,30%)" fill-opacity="1" d="M 6.339844 3.546875 L 7.089844 3.546875 C 7.277344 3.546875 7.425781 3.699219 7.425781 3.886719 L 7.425781 8.234375 C 7.425781 8.421875 7.277344 8.574219 7.089844 8.574219 L 6.339844 8.574219 C 6.152344 8.574219 6 8.421875 6 8.234375 L 6 3.886719 C 6 3.699219 6.152344 3.546875 6.339844 3.546875 Z M 6.339844 3.546875 "/>
<path fill-rule="nonzero" fill="rgb(30%,30%,30%)" fill-opacity="1" d="M 8.789062 3.546875 L 9.535156 3.546875 C 9.722656 3.546875 9.875 3.699219 9.875 3.886719 L 9.875 8.234375 C 9.875 8.421875 9.722656 8.574219 9.535156 8.574219 L 8.789062 8.574219 C 8.601562 8.574219 8.449219 8.421875 8.449219 8.234375 L 8.449219 3.886719 C 8.449219 3.699219 8.601562 3.546875 8.789062 3.546875 Z M 8.789062 3.546875 "/>
<path fill-rule="nonzero" fill="rgb(30%,30%,30%)" fill-opacity="1" d="M 0.367188 9.625 L 10.660156 9.625 C 10.847656 9.625 11 9.777344 11 9.960938 L 11 10.550781 C 11 10.738281 10.847656 10.890625 10.660156 10.890625 L 0.367188 10.890625 C 0.179688 10.890625 0.0273438 10.738281 0.0273438 10.550781 L 0.0273438 9.960938 C 0.0273438 9.777344 0.179688 9.625 0.367188 9.625 Z M 0.367188 9.625 "/>
<path fill-rule="nonzero" fill="rgb(30%,30%,30%)" fill-opacity="1" d="M 10.640625 2.335938 L 0.359375 2.335938 C 0.160156 2.335938 0 2.175781 0 1.980469 C 0 1.824219 0.101562 1.6875 0.246094 1.640625 L 5.164062 0.0507812 C 5.371094 -0.015625 5.597656 -0.015625 5.808594 0.0507812 L 10.75 1.640625 C 10.898438 1.6875 11 1.824219 11 1.980469 C 11 2.175781 10.839844 2.335938 10.640625 2.335938 Z M 10.640625 2.335938 "/>
</svg>
