<?xml version="1.0" encoding="UTF-8"?>
<svg xmlns="http://www.w3.org/2000/svg" xmlns:xlink="http://www.w3.org/1999/xlink" width="11" height="9.572248" viewBox="0 0 11 9.572248">
<path fill-rule="nonzero" fill="rgb(30%,30%,30%)" fill-opacity="1" d="M 10.484375 8.542969 L 6.25 8.542969 C 6.179688 8.542969 6.125 8.484375 6.125 8.417969 C 6.125 8.417969 6.125 8.417969 6.125 8.414062 L 6.132812 7.15625 C 6.113281 7.070312 6.164062 6.980469 6.25 6.957031 C 6.265625 6.953125 6.277344 6.953125 6.292969 6.953125 L 7.664062 6.953125 C 8.554688 6.953125 9.753906 6.410156 9.753906 5.257812 L 9.753906 5.097656 C 9.753906 5.007812 9.679688 4.933594 9.589844 4.933594 L 6.027344 4.933594 C 5.9375 4.933594 5.863281 4.863281 5.863281 4.773438 L 5.863281 3.113281 C 5.863281 3.023438 5.9375 2.949219 6.027344 2.949219 L 6.707031 2.949219 C 7.132812 2.949219 7.476562 2.605469 7.476562 2.179688 C 7.476562 2.089844 7.40625 2.015625 7.316406 2.015625 L 5.738281 2.015625 C 5.648438 2.015625 5.578125 1.945312 5.578125 1.855469 C 5.578125 1.855469 5.578125 1.851562 5.578125 1.851562 L 5.585938 0.667969 C 5.585938 0.484375 5.734375 0.335938 5.921875 0.335938 C 6.0625 0.335938 6.1875 0.421875 6.234375 0.554688 C 6.257812 0.621094 6.320312 0.667969 6.390625 0.667969 L 6.398438 0.667969 C 6.488281 0.667969 6.5625 0.59375 6.5625 0.503906 C 6.5625 0.488281 6.558594 0.46875 6.550781 0.453125 C 6.433594 0.101562 6.054688 -0.0820312 5.703125 0.0351562 C 5.632812 0.0585938 5.566406 0.0976562 5.507812 0.140625 C 5.449219 0.191406 5.363281 0.191406 5.300781 0.140625 C 5.011719 -0.0859375 4.59375 -0.0351562 4.363281 0.257812 C 4.320312 0.316406 4.28125 0.378906 4.257812 0.453125 C 4.230469 0.535156 4.273438 0.628906 4.359375 0.660156 C 4.378906 0.664062 4.394531 0.667969 4.414062 0.667969 L 4.421875 0.667969 C 4.492188 0.667969 4.554688 0.621094 4.578125 0.554688 C 4.640625 0.382812 4.828125 0.292969 5.003906 0.355469 C 5.136719 0.402344 5.222656 0.527344 5.222656 0.667969 L 5.214844 1.855469 C 5.214844 1.945312 5.140625 2.015625 5.050781 2.015625 L 3.550781 2.015625 C 3.460938 2.015625 3.390625 2.089844 3.390625 2.179688 C 3.390625 2.605469 3.734375 2.949219 4.15625 2.949219 L 4.769531 2.949219 C 4.859375 2.949219 4.933594 3.023438 4.933594 3.113281 L 4.933594 4.773438 C 4.933594 4.863281 4.859375 4.933594 4.769531 4.933594 L 1.210938 4.933594 C 1.121094 4.933594 1.050781 5.007812 1.050781 5.097656 L 1.050781 5.257812 C 1.050781 6.410156 2.15625 6.953125 3.140625 6.953125 L 4.605469 6.953125 C 4.695312 6.953125 4.769531 7.023438 4.769531 7.113281 C 4.769531 7.128906 4.765625 7.140625 4.765625 7.15625 L 4.730469 8.421875 C 4.726562 8.488281 4.671875 8.542969 4.605469 8.542969 L 0.515625 8.542969 C 0.230469 8.542969 0 8.773438 0 9.058594 C 0 9.339844 0.230469 9.570312 0.515625 9.570312 L 10.484375 9.570312 C 10.769531 9.570312 11 9.339844 11 9.058594 C 11 8.773438 10.769531 8.542969 10.484375 8.542969 Z M 10.484375 8.542969 "/>
<path fill-rule="nonzero" fill="rgb(30%,30%,30%)" fill-opacity="1" d="M 4.328125 0.992188 C 4.75 1.554688 4.542969 1.714844 4.410156 1.75 C 4.347656 1.765625 4.28125 1.765625 4.25 1.75 C 4.128906 1.683594 3.90625 1.554688 4.328125 0.992188 Z M 4.328125 0.992188 "/>
<path fill-rule="nonzero" fill="rgb(30%,30%,30%)" fill-opacity="1" d="M 6.457031 0.992188 C 6.878906 1.554688 6.671875 1.714844 6.539062 1.75 C 6.476562 1.765625 6.40625 1.765625 6.378906 1.75 C 6.257812 1.683594 6.035156 1.554688 6.457031 0.992188 Z M 6.457031 0.992188 "/>
</svg>
