<?xml version="1.0" encoding="UTF-8"?>
<svg xmlns="http://www.w3.org/2000/svg" xmlns:xlink="http://www.w3.org/1999/xlink" width="11" height="7.246604" viewBox="0 0 11 7.246604">
<path fill-rule="nonzero" fill="rgb(30%,30%,30%)" fill-opacity="1" d="M 7.382812 4.167969 C 7.382812 5.199219 6.546875 6.039062 5.511719 6.039062 C 4.480469 6.039062 3.640625 5.199219 3.640625 4.167969 C 3.640625 3.132812 4.480469 2.296875 5.511719 2.296875 C 6.546875 2.296875 7.382812 3.132812 7.382812 4.167969 Z M 11 1.667969 L 11 6.367188 C 11 6.851562 10.605469 7.246094 10.121094 7.246094 L 0.878906 7.246094 C 0.394531 7.246094 0 6.851562 0 6.367188 L 0 1.667969 C 0 1.179688 0.394531 0.785156 0.878906 0.785156 L 3.511719 0.785156 L 3.511719 0.417969 C 3.511719 0.1875 3.699219 0 3.929688 0 L 7.160156 0 C 7.390625 0 7.578125 0.1875 7.578125 0.417969 L 7.578125 0.785156 L 10.121094 0.785156 C 10.605469 0.785156 11 1.179688 11 1.667969 Z M 8.128906 4.601562 C 8.417969 2.800781 6.878906 1.261719 5.078125 1.550781 C 3.957031 1.734375 3.078125 2.609375 2.894531 3.730469 C 2.605469 5.53125 4.148438 7.074219 5.949219 6.785156 C 7.070312 6.601562 7.945312 5.722656 8.128906 4.601562 Z M 10.007812 1.636719 L 8.125 1.636719 L 8.125 2.214844 L 10.007812 2.214844 Z M 10.007812 1.636719 "/>
</svg>
