<?xml version="1.0" encoding="UTF-8"?>
<svg xmlns="http://www.w3.org/2000/svg" xmlns:xlink="http://www.w3.org/1999/xlink" width="11" height="8.992478" viewBox="0 0 11 8.992478">
<path fill-rule="nonzero" fill="rgb(30%,30%,30%)" fill-opacity="1" d="M 0.128906 0 L 10.808594 0 L 10.808594 0.796875 L 0.128906 0.796875 Z M 0.128906 0 "/>
<path fill-rule="nonzero" fill="rgb(30%,30%,30%)" fill-opacity="1" d="M 7.574219 1.863281 L 3.386719 1.863281 L 2.832031 1.058594 L 8.1875 1.058594 Z M 7.574219 1.863281 "/>
<path fill-rule="nonzero" fill="rgb(30%,30%,30%)" fill-opacity="1" d="M 3.761719 8.992188 L 3.761719 2.148438 L 4.558594 2.148438 L 4.558594 8.992188 Z M 3.761719 8.992188 "/>
<path fill-rule="nonzero" fill="rgb(30%,30%,30%)" fill-opacity="1" d="M 5.042969 8.992188 L 5.042969 2.148438 L 5.839844 2.148438 L 5.839844 8.992188 Z M 5.042969 8.992188 "/>
<path fill-rule="nonzero" fill="rgb(30%,30%,30%)" fill-opacity="1" d="M 6.382812 8.992188 L 6.382812 2.148438 L 7.179688 2.148438 L 7.179688 8.992188 Z M 6.382812 8.992188 "/>
<path fill-rule="nonzero" fill="rgb(30%,30%,30%)" fill-opacity="1" d="M 3.324219 2.554688 C 3.324219 2.539062 3.320312 2.527344 3.320312 2.511719 C 3.3125 2.472656 3.253906 2.113281 2.988281 1.75 C 2.734375 1.410156 2.378906 0.988281 1.480469 0.988281 C 1.097656 0.988281 0.617188 1.164062 0.363281 1.460938 C 0.144531 1.714844 0.0117188 2.066406 0 2.414062 C -0.0234375 3.050781 0.355469 3.722656 1.25 3.785156 C 1.8125 3.824219 2.085938 3.539062 2.199219 3.363281 C 2.398438 3.046875 2.410156 2.605469 2.21875 2.257812 C 2.074219 1.988281 1.832031 1.832031 1.558594 1.824219 C 1.441406 1.804688 1.15625 1.804688 0.960938 1.953125 C 0.859375 2.023438 0.796875 2.121094 0.78125 2.242188 C 0.765625 2.394531 0.871094 2.519531 1.027344 2.539062 C 1.148438 2.550781 1.265625 2.484375 1.3125 2.371094 C 1.371094 2.367188 1.429688 2.367188 1.484375 2.375 C 1.5 2.378906 1.515625 2.378906 1.535156 2.378906 C 1.628906 2.378906 1.753906 2.460938 1.789062 2.527344 C 1.878906 2.691406 1.859375 2.898438 1.726562 3.0625 C 1.636719 3.179688 1.5 3.242188 1.289062 3.226562 C 0.585938 3.179688 0.550781 2.609375 0.558594 2.433594 C 0.578125 1.867188 0.980469 1.570312 1.347656 1.558594 C 2.132812 1.535156 2.269531 1.730469 2.523438 2.066406 C 2.640625 2.214844 2.722656 2.390625 2.765625 2.578125 L 2.738281 8.992188 L 3.296875 8.992188 Z M 3.324219 2.554688 "/>
<path fill-rule="nonzero" fill="rgb(30%,30%,30%)" fill-opacity="1" d="M 7.675781 2.542969 C 7.675781 2.53125 7.679688 2.515625 7.679688 2.503906 C 7.6875 2.464844 7.746094 2.105469 8.011719 1.742188 C 8.265625 1.398438 8.621094 0.980469 9.519531 0.980469 C 9.902344 0.980469 10.382812 1.15625 10.636719 1.449219 C 10.855469 1.707031 10.988281 2.054688 11 2.40625 C 11.023438 3.042969 10.644531 3.710938 9.75 3.777344 C 9.1875 3.816406 8.914062 3.527344 8.800781 3.355469 C 8.601562 3.039062 8.589844 2.59375 8.78125 2.25 C 8.925781 1.980469 9.167969 1.824219 9.441406 1.8125 C 9.558594 1.796875 9.84375 1.796875 10.039062 1.941406 C 10.140625 2.015625 10.203125 2.113281 10.21875 2.234375 C 10.234375 2.386719 10.128906 2.511719 9.972656 2.527344 C 9.851562 2.542969 9.734375 2.476562 9.6875 2.363281 C 9.628906 2.355469 9.570312 2.359375 9.515625 2.367188 C 9.5 2.371094 9.484375 2.371094 9.464844 2.371094 C 9.371094 2.371094 9.246094 2.449219 9.210938 2.515625 C 9.121094 2.679688 9.140625 2.886719 9.273438 3.054688 C 9.363281 3.167969 9.5 3.234375 9.710938 3.21875 C 10.414062 3.167969 10.449219 2.601562 10.441406 2.425781 C 10.421875 1.855469 10.019531 1.5625 9.652344 1.550781 C 8.867188 1.527344 8.730469 1.71875 8.476562 2.054688 C 8.359375 2.207031 8.277344 2.382812 8.234375 2.566406 L 8.261719 8.992188 L 7.703125 8.992188 Z M 7.675781 2.542969 "/>
</svg>
