<?xml version="1.0" encoding="UTF-8" standalone="no"?>
<!-- Created with Inkscape (http://www.inkscape.org/) -->

<svg
   xmlns:dc="http://purl.org/dc/elements/1.1/"
   xmlns:cc="http://creativecommons.org/ns#"
   xmlns:rdf="http://www.w3.org/1999/02/22-rdf-syntax-ns#"
   xmlns:svg="http://www.w3.org/2000/svg"
   xmlns="http://www.w3.org/2000/svg"
   xmlns:xlink="http://www.w3.org/1999/xlink"
   xmlns:sodipodi="http://sodipodi.sourceforge.net/DTD/sodipodi-0.dtd"
   xmlns:inkscape="http://www.inkscape.org/namespaces/inkscape"
   width="30px"
   height="30px"
   version="1.1"
   id="svg8"
   inkscape:version="0.92.4 5da689c313, 2019-01-14"
   sodipodi:docname="container.svg">
  <defs
     id="defs2" />
  <sodipodi:namedview
     id="base"
     pagecolor="#ffffff"
     bordercolor="#666666"
     borderopacity="1.0"
     inkscape:pageopacity="0.0"
     inkscape:pageshadow="2"
     inkscape:zoom="13.049334"
     inkscape:cx="18.679046"
     inkscape:cy="12.165829"
     inkscape:document-units="px"
     inkscape:current-layer="layer1"
     showgrid="false"
     inkscape:snap-page="false"
     units="px"
     inkscape:window-width="1884"
     inkscape:window-height="1061"
     inkscape:window-x="0"
     inkscape:window-y="0"
     inkscape:window-maximized="1"
     fit-margin-top="0"
     fit-margin-left="0"
     fit-margin-right="0"
     fit-margin-bottom="0" />
  <metadata
     id="metadata5">
    <rdf:RDF>
      <cc:Work
         rdf:about="">
        <dc:format>image/svg+xml</dc:format>
        <dc:type
           rdf:resource="http://purl.org/dc/dcmitype/StillImage" />
        <dc:title></dc:title>
      </cc:Work>
    </rdf:RDF>
  </metadata>
    <circle
       style="color:#000000;clip-rule:nonzero;display:inline;overflow:visible;visibility:visible;opacity:1;isolation:auto;mix-blend-mode:normal;color-interpolation:sRGB;color-interpolation-filters:linearRGB;solid-color:#000000;solid-opacity:1;vector-effect:none;fill:#76009e;fill-opacity:1;fill-rule:evenodd;stroke:#ffffff;stroke-width:1;stroke-linecap:butt;stroke-linejoin:miter;stroke-miterlimit:4;stroke-dasharray:none;stroke-dashoffset:0;stroke-opacity:1;marker:none;color-rendering:auto;image-rendering:auto;shape-rendering:auto;text-rendering:auto;enable-background:accumulate"
       id="path815"
       cx="15"
       cy="15"
       r="14.5" />
<g transform="translate(8.0,6.5)"><path fill-rule="nonzero" fill="#FFFFFF" fill-opacity="1" d="M 8.117188 1.820312 C 8.117188 2.828125 7.300781 3.644531 6.292969 3.644531 C 5.289062 3.644531 4.472656 2.828125 4.472656 1.820312 C 4.472656 0.816406 5.289062 0 6.292969 0 C 7.300781 0 8.117188 0.816406 8.117188 1.820312 Z M 8.117188 1.820312 "/>
<path fill-rule="nonzero" fill="#FFFFFF" fill-opacity="1" d="M 12.53125 14.480469 L 8.75 14.480469 C 8.742188 14.480469 8.738281 14.476562 8.734375 14.46875 C 8.730469 14.460938 8.734375 14.453125 8.738281 14.449219 C 9.535156 13.726562 10.851562 12.613281 11.050781 11.71875 C 11.253906 10.796875 10.058594 5.765625 10.042969 5.707031 C 9.671875 4.414062 8.320312 3.667969 7.027344 4.039062 L 2.449219 6.246094 C 2.441406 6.25 2.429688 6.246094 2.425781 6.238281 L 1.394531 4.675781 C 1.203125 4.320312 0.738281 3.886719 0.382812 4.078125 C 0.03125 4.269531 -0.101562 4.707031 0.0859375 5.0625 C 0.0859375 5.0625 1.394531 7.820312 1.847656 8.046875 C 2.207031 8.226562 5.304688 7.015625 5.582031 6.910156 C 5.585938 6.90625 5.59375 6.90625 5.597656 6.910156 C 5.601562 6.914062 5.605469 6.917969 5.605469 6.921875 L 6.710938 11.488281 C 6.78125 11.785156 6.699219 12.097656 6.488281 12.316406 L 4.109375 14.785156 C 3.839844 15.023438 3.683594 15.363281 3.683594 15.722656 L 3.683594 15.738281 C 3.683594 16.4375 4.25 17 4.945312 17 L 12.53125 17 C 13.226562 17 13.789062 16.4375 13.789062 15.738281 C 13.789062 15.042969 13.226562 14.480469 12.53125 14.480469 Z M 12.53125 14.480469 "/>
</g>
</svg>
