<?xml version="1.0" encoding="UTF-8"?>
<svg xmlns="http://www.w3.org/2000/svg" xmlns:xlink="http://www.w3.org/1999/xlink" width="6.825151" height="11" viewBox="0 0 6.825151 11">
<path fill-rule="evenodd" fill="rgb(30%,30%,30%)" fill-opacity="1" d="M 6.824219 5.933594 L 3.648438 3.429688 L 6.792969 0.835938 L 5.964844 0 L 3.414062 3.199219 L 0.90625 0.03125 L 0 0.84375 L 3.164062 3.429688 L 0.03125 5.886719 L 0.839844 6.800781 L 3.417969 3.675781 L 5.992188 6.765625 Z M 6.824219 5.933594 "/>
<path fill-rule="evenodd" fill="rgb(30%,30%,30%)" fill-opacity="1" d="M 5.902344 10.542969 L 5.242188 6.355469 C 5.226562 6.246094 3.414062 4.066406 3.414062 4.066406 C 3.414062 4.066406 1.542969 6.25 1.523438 6.359375 L 0.878906 10.542969 L 0.449219 10.542969 L 0.449219 11 L 6.363281 11 L 6.363281 10.542969 Z M 2.554688 10.167969 L 2.710938 8.667969 C 2.742188 8.375 2.964844 8.152344 3.285156 8.152344 L 3.417969 8.152344 C 3.78125 8.152344 4.085938 8.425781 4.121094 8.789062 L 4.257812 10.167969 Z M 2.554688 10.167969 "/>
</svg>
