<?xml version="1.0" encoding="UTF-8"?>
<svg xmlns="http://www.w3.org/2000/svg" xmlns:xlink="http://www.w3.org/1999/xlink" width="11" height="9.815313" viewBox="0 0 11 9.815313">
<path fill-rule="nonzero" fill="rgb(30%,30%,30%)" fill-opacity="1" d="M 11 6.535156 L 9.285156 6.535156 L 8.691406 5.378906 L 10.40625 5.378906 Z M 11 6.535156 "/>
<path fill-rule="nonzero" fill="rgb(30%,30%,30%)" fill-opacity="1" d="M 0 6.535156 L 1.714844 6.535156 L 2.617188 5.378906 L 0.902344 5.378906 Z M 0 6.535156 "/>
<path fill-rule="nonzero" fill="rgb(30%,30%,30%)" fill-opacity="1" d="M 9.304688 6.699219 L 9.304688 9.816406 L 10.9375 9.816406 L 10.992188 6.703125 Z M 10.421875 9.277344 L 9.882812 9.277344 L 9.882812 7.367188 C 9.882812 7.21875 10.003906 7.097656 10.152344 7.097656 C 10.300781 7.097656 10.421875 7.21875 10.421875 7.367188 Z M 10.421875 9.277344 "/>
<path fill-rule="nonzero" fill="rgb(30%,30%,30%)" fill-opacity="1" d="M 0.00390625 9.816406 L 1.710938 9.816406 L 1.710938 6.699219 L 0.00390625 6.699219 Z M 0.597656 7.367188 C 0.597656 7.21875 0.71875 7.097656 0.867188 7.097656 C 1.015625 7.097656 1.136719 7.21875 1.136719 7.367188 L 1.136719 9.277344 L 0.597656 9.277344 Z M 0.597656 7.367188 "/>
<path fill-rule="nonzero" fill="rgb(30%,30%,30%)" fill-opacity="1" d="M 1.972656 6.699219 L 1.972656 9.816406 L 9.050781 9.816406 L 9.050781 6.699219 Z M 3.320312 9.277344 L 2.78125 9.277344 L 2.78125 7.367188 C 2.78125 7.21875 2.902344 7.097656 3.050781 7.097656 C 3.199219 7.097656 3.320312 7.21875 3.320312 7.367188 Z M 4.234375 9.277344 L 3.695312 9.277344 L 3.695312 7.367188 C 3.695312 7.21875 3.816406 7.097656 3.964844 7.097656 C 4.113281 7.097656 4.234375 7.21875 4.234375 7.367188 Z M 5.101562 9.257812 L 4.5625 9.257812 L 4.5625 7.347656 C 4.5625 7.199219 4.683594 7.078125 4.832031 7.078125 C 4.980469 7.078125 5.101562 7.199219 5.101562 7.347656 Z M 6.015625 9.257812 L 5.476562 9.257812 L 5.476562 7.347656 C 5.476562 7.199219 5.597656 7.078125 5.746094 7.078125 C 5.894531 7.078125 6.015625 7.199219 6.015625 7.347656 Z M 6.976562 9.246094 L 6.4375 9.246094 L 6.4375 7.339844 C 6.4375 7.191406 6.558594 7.070312 6.707031 7.070312 C 6.855469 7.070312 6.976562 7.191406 6.976562 7.339844 Z M 7.890625 9.246094 L 7.351562 9.246094 L 7.351562 7.339844 C 7.351562 7.191406 7.472656 7.070312 7.621094 7.070312 C 7.769531 7.070312 7.890625 7.191406 7.890625 7.339844 Z M 7.890625 9.246094 "/>
<path fill-rule="nonzero" fill="rgb(30%,30%,30%)" fill-opacity="1" d="M 8.125 4.800781 L 7.167969 4.800781 L 7.167969 4.015625 L 6.78125 3.492188 L 6.46875 3.492188 L 5.875 1.957031 L 5.875 0.859375 L 6.484375 0.859375 L 6.484375 0.675781 L 5.875 0.675781 L 5.875 0 L 5.648438 0 L 5.648438 0.675781 L 5.0625 0.675781 L 5.0625 0.859375 L 5.648438 0.859375 L 5.648438 1.957031 L 5.105469 3.492188 L 4.777344 3.492188 L 4.335938 4.042969 L 4.335938 4.800781 L 3.332031 4.800781 L 1.957031 6.535156 L 9.050781 6.535156 Z M 5.78125 4.875 C 5.433594 4.875 5.152344 4.589844 5.152344 4.246094 C 5.152344 3.898438 5.433594 3.617188 5.78125 3.617188 C 6.125 3.617188 6.410156 3.898438 6.410156 4.246094 C 6.410156 4.589844 6.125 4.875 5.78125 4.875 Z M 5.78125 4.875 "/>
</svg>
