<?xml version="1.0" encoding="UTF-8"?>
<svg xmlns="http://www.w3.org/2000/svg" xmlns:xlink="http://www.w3.org/1999/xlink" width="5.034652" height="11" viewBox="0 0 5.034652 11">
<path fill-rule="nonzero" fill="rgb(30%,30%,30%)" fill-opacity="1" d="M 4.195312 10.289062 L 4.210938 8.910156 L 3.828125 8.390625 L 3.828125 6.792969 L 4 6.792969 L 4 6.4375 L 3.808594 6.125 L 3.828125 3.597656 L 4.28125 3.597656 L 2.660156 1.703125 L 2.660156 0.820312 L 3.160156 0.820312 L 3.160156 0.539062 L 2.660156 0.539062 L 2.660156 0 L 2.410156 0 L 2.410156 0.539062 L 1.910156 0.539062 L 1.910156 0.820312 L 2.410156 0.816406 L 2.410156 1.710938 L 0.742188 3.597656 L 1.269531 3.597656 L 1.269531 6.125 L 1.058594 6.4375 L 1.070312 6.792969 L 1.277344 6.792969 L 1.277344 8.390625 L 0.898438 8.910156 L 0.898438 10.289062 L 0 10.289062 L 0 11 L 5.035156 11 L 5.035156 10.289062 Z M 2.246094 3.953125 C 2.246094 3.800781 2.371094 3.679688 2.523438 3.679688 C 2.675781 3.679688 2.796875 3.800781 2.796875 3.953125 L 2.796875 5.976562 L 2.246094 5.976562 Z M 2.246094 3.953125 "/>
</svg>
