<?xml version="1.0" encoding="UTF-8"?>
<svg xmlns="http://www.w3.org/2000/svg" xmlns:xlink="http://www.w3.org/1999/xlink" width="7.214274" height="11" viewBox="0 0 7.214274 11">
<path fill-rule="nonzero" fill="rgb(30%,30%,30%)" fill-opacity="1" d="M 4.351562 1.425781 L 4.359375 1.070312 C 4.925781 1.050781 5.316406 1.007812 5.316406 0.929688 L 3.722656 0 L 2.070312 0.929688 C 2.070312 1.011719 2.460938 1.054688 3.027344 1.070312 L 3.015625 1.398438 L 0 2.757812 C 0 2.863281 0.265625 3 0.71875 3.128906 L 0.71875 10.394531 L 0.722656 10.394531 C 0.722656 10.402344 0.71875 10.40625 0.71875 10.414062 C 0.71875 10.414062 0.71875 10.417969 0.71875 10.417969 C 0.71875 10.425781 0.71875 10.429688 0.71875 10.4375 C 0.71875 10.714844 1.699219 10.949219 3.019531 11 C 3.011719 10.953125 3.019531 10.90625 3.019531 10.855469 L 3.019531 9.929688 C 3.019531 9.585938 3.316406 9.300781 3.671875 9.300781 C 4.03125 9.300781 4.328125 9.585938 4.328125 9.929688 L 4.328125 10.855469 C 4.328125 10.902344 4.335938 10.949219 4.328125 10.992188 C 5.582031 10.929688 6.496094 10.707031 6.496094 10.4375 C 6.496094 10.429688 6.496094 10.425781 6.496094 10.417969 C 6.496094 10.417969 6.496094 10.414062 6.496094 10.414062 C 6.492188 10.40625 6.492188 10.402344 6.488281 10.394531 L 6.496094 10.394531 L 6.496094 3.121094 C 6.949219 2.996094 7.214844 2.859375 7.214844 2.757812 Z M 2.996094 5.101562 C 2.996094 5.238281 2.886719 5.347656 2.75 5.347656 L 2.460938 5.347656 C 2.328125 5.347656 2.214844 5.238281 2.214844 5.101562 L 2.214844 4.683594 C 2.214844 4.546875 2.328125 4.4375 2.460938 4.4375 L 2.75 4.4375 C 2.886719 4.4375 2.996094 4.546875 2.996094 4.683594 Z M 3.347656 1.164062 L 4.058594 1.164062 L 4.050781 1.449219 L 3.335938 1.449219 Z M 4.050781 5.101562 C 4.050781 5.238281 3.9375 5.347656 3.800781 5.347656 L 3.542969 5.347656 C 3.410156 5.347656 3.296875 5.238281 3.296875 5.101562 L 3.296875 4.683594 C 3.296875 4.546875 3.410156 4.4375 3.542969 4.4375 L 3.800781 4.4375 C 3.9375 4.4375 4.050781 4.546875 4.050781 4.683594 Z M 5.132812 5.0625 C 5.132812 5.199219 5.019531 5.308594 4.886719 5.308594 L 4.625 5.308594 C 4.492188 5.308594 4.378906 5.199219 4.378906 5.0625 L 4.378906 4.644531 C 4.378906 4.507812 4.492188 4.398438 4.625 4.398438 L 4.886719 4.398438 C 5.019531 4.398438 5.132812 4.507812 5.132812 4.644531 Z M 5.132812 5.0625 "/>
</svg>
