<?xml version="1.0" encoding="UTF-8" standalone="no"?>
<!-- Created with Inkscape (http://www.inkscape.org/) -->

<svg
   xmlns:dc="http://purl.org/dc/elements/1.1/"
   xmlns:cc="http://creativecommons.org/ns#"
   xmlns:rdf="http://www.w3.org/1999/02/22-rdf-syntax-ns#"
   xmlns:svg="http://www.w3.org/2000/svg"
   xmlns="http://www.w3.org/2000/svg"
   xmlns:xlink="http://www.w3.org/1999/xlink"
   xmlns:sodipodi="http://sodipodi.sourceforge.net/DTD/sodipodi-0.dtd"
   xmlns:inkscape="http://www.inkscape.org/namespaces/inkscape"
   width="30px"
   height="30px"
   version="1.1"
   id="svg8"
   inkscape:version="0.92.4 5da689c313, 2019-01-14"
   sodipodi:docname="container.svg">
  <defs
     id="defs2" />
  <sodipodi:namedview
     id="base"
     pagecolor="#ffffff"
     bordercolor="#666666"
     borderopacity="1.0"
     inkscape:pageopacity="0.0"
     inkscape:pageshadow="2"
     inkscape:zoom="13.049334"
     inkscape:cx="18.679046"
     inkscape:cy="12.165829"
     inkscape:document-units="px"
     inkscape:current-layer="layer1"
     showgrid="false"
     inkscape:snap-page="false"
     units="px"
     inkscape:window-width="1884"
     inkscape:window-height="1061"
     inkscape:window-x="0"
     inkscape:window-y="0"
     inkscape:window-maximized="1"
     fit-margin-top="0"
     fit-margin-left="0"
     fit-margin-right="0"
     fit-margin-bottom="0" />
  <metadata
     id="metadata5">
    <rdf:RDF>
      <cc:Work
         rdf:about="">
        <dc:format>image/svg+xml</dc:format>
        <dc:type
           rdf:resource="http://purl.org/dc/dcmitype/StillImage" />
        <dc:title></dc:title>
      </cc:Work>
    </rdf:RDF>
  </metadata>
    <circle
       style="color:#000000;clip-rule:nonzero;display:inline;overflow:visible;visibility:visible;opacity:1;isolation:auto;mix-blend-mode:normal;color-interpolation:sRGB;color-interpolation-filters:linearRGB;solid-color:#000000;solid-opacity:1;vector-effect:none;fill:#76009e;fill-opacity:1;fill-rule:evenodd;stroke:#ffffff;stroke-width:1;stroke-linecap:butt;stroke-linejoin:miter;stroke-miterlimit:4;stroke-dasharray:none;stroke-dashoffset:0;stroke-opacity:1;marker:none;color-rendering:auto;image-rendering:auto;shape-rendering:auto;text-rendering:auto;enable-background:accumulate"
       id="path815"
       cx="15"
       cy="15"
       r="14.5" />
<g transform="translate(10.0,6.5)"><path fill-rule="nonzero" fill="#FFFFFF" fill-opacity="1" d="M 4.996094 8.917969 L 0.613281 11.207031 L 0.652344 17 L 3.726562 17 L 3.726562 14.144531 C 3.726562 13.441406 4.296875 12.875 4.996094 12.875 C 5.699219 12.875 6.265625 13.441406 6.265625 14.144531 L 6.265625 17 L 9.34375 17 L 9.34375 11.167969 Z M 2.976562 15.015625 L 1.566406 15.015625 L 1.566406 13.511719 C 1.566406 13.121094 1.882812 12.808594 2.273438 12.808594 C 2.660156 12.808594 2.976562 13.121094 2.976562 13.511719 Z M 8.402344 15.015625 L 6.992188 15.015625 L 6.992188 13.511719 C 6.992188 13.121094 7.308594 12.808594 7.699219 12.808594 C 8.085938 12.808594 8.402344 13.121094 8.402344 13.511719 Z M 8.402344 15.015625 "/>
<path fill-rule="nonzero" fill="#FFFFFF" fill-opacity="1" d="M 6.902344 8.957031 L 6.941406 7.355469 L 7.628906 7.355469 L 5.296875 4.460938 L 5.296875 2.082031 L 6.5625 2.082031 L 6.5625 1.363281 L 5.296875 1.363281 L 5.296875 0 L 4.660156 0 L 4.660156 1.363281 L 3.394531 1.363281 L 3.394531 2.082031 L 4.660156 2.082031 L 4.660156 4.460938 L 2.253906 7.355469 L 3.054688 7.355469 L 3.054688 8.957031 L 0.199219 10.453125 C 0.109375 10.5 0.0429688 10.582031 0.015625 10.679688 C -0.015625 10.777344 0 10.886719 0.0507812 10.972656 C 0.152344 11.144531 0.371094 11.207031 0.550781 11.113281 L 4.996094 8.765625 L 9.53125 11.121094 C 9.707031 11.210938 9.917969 11.15625 10.027344 10.992188 C 10.085938 10.898438 10.101562 10.789062 10.074219 10.683594 C 10.046875 10.578125 9.972656 10.492188 9.875 10.445312 Z M 4.960938 7.832031 C 4.570312 7.832031 4.253906 7.515625 4.253906 7.128906 C 4.253906 6.738281 4.570312 6.421875 4.960938 6.421875 C 5.347656 6.421875 5.664062 6.738281 5.664062 7.128906 C 5.664062 7.515625 5.347656 7.832031 4.960938 7.832031 Z M 4.960938 7.832031 "/>
</g>
</svg>
