<?xml version="1.0" encoding="UTF-8" standalone="no"?>
<!-- Created with Inkscape (http://www.inkscape.org/) -->

<svg
   xmlns:dc="http://purl.org/dc/elements/1.1/"
   xmlns:cc="http://creativecommons.org/ns#"
   xmlns:rdf="http://www.w3.org/1999/02/22-rdf-syntax-ns#"
   xmlns:svg="http://www.w3.org/2000/svg"
   xmlns="http://www.w3.org/2000/svg"
   xmlns:xlink="http://www.w3.org/1999/xlink"
   xmlns:sodipodi="http://sodipodi.sourceforge.net/DTD/sodipodi-0.dtd"
   xmlns:inkscape="http://www.inkscape.org/namespaces/inkscape"
   width="30px"
   height="30px"
   version="1.1"
   id="svg8"
   inkscape:version="0.92.4 5da689c313, 2019-01-14"
   sodipodi:docname="container.svg">
  <defs
     id="defs2" />
  <sodipodi:namedview
     id="base"
     pagecolor="#ffffff"
     bordercolor="#666666"
     borderopacity="1.0"
     inkscape:pageopacity="0.0"
     inkscape:pageshadow="2"
     inkscape:zoom="13.049334"
     inkscape:cx="18.679046"
     inkscape:cy="12.165829"
     inkscape:document-units="px"
     inkscape:current-layer="layer1"
     showgrid="false"
     inkscape:snap-page="false"
     units="px"
     inkscape:window-width="1884"
     inkscape:window-height="1061"
     inkscape:window-x="0"
     inkscape:window-y="0"
     inkscape:window-maximized="1"
     fit-margin-top="0"
     fit-margin-left="0"
     fit-margin-right="0"
     fit-margin-bottom="0" />
  <metadata
     id="metadata5">
    <rdf:RDF>
      <cc:Work
         rdf:about="">
        <dc:format>image/svg+xml</dc:format>
        <dc:type
           rdf:resource="http://purl.org/dc/dcmitype/StillImage" />
        <dc:title></dc:title>
      </cc:Work>
    </rdf:RDF>
  </metadata>
    <circle
       style="color:#000000;clip-rule:nonzero;display:inline;overflow:visible;visibility:visible;opacity:1;isolation:auto;mix-blend-mode:normal;color-interpolation:sRGB;color-interpolation-filters:linearRGB;solid-color:#000000;solid-opacity:1;vector-effect:none;fill:#76009e;fill-opacity:1;fill-rule:evenodd;stroke:#ffffff;stroke-width:1;stroke-linecap:butt;stroke-linejoin:miter;stroke-miterlimit:4;stroke-dasharray:none;stroke-dashoffset:0;stroke-opacity:1;marker:none;color-rendering:auto;image-rendering:auto;shape-rendering:auto;text-rendering:auto;enable-background:accumulate"
       id="path815"
       cx="15"
       cy="15"
       r="14.5" />
<g transform="translate(7.5,6.5)"><path fill-rule="nonzero" fill="#FFFFFF" fill-opacity="1" d="M 0.515625 12.300781 L 14.804688 12.300781 C 15.085938 12.300781 15.316406 12.53125 15.316406 12.816406 L 15.316406 16.484375 C 15.316406 16.769531 15.085938 17 14.804688 17 L 0.515625 17 C 0.230469 17 0 16.769531 0 16.484375 L 0 12.816406 C 0 12.53125 0.230469 12.300781 0.515625 12.300781 Z M 0.515625 12.300781 "/>
<path fill-rule="nonzero" fill="#FFFFFF" fill-opacity="1" d="M 12.9375 5.308594 L 12.9375 11.894531 L 2.320312 11.894531 L 2.320312 5.308594 C 2.320312 2.375 4.699219 0 7.628906 0 C 10.5625 0 12.9375 2.375 12.9375 5.308594 Z M 11.257812 8.242188 L 11.257812 8.238281 C 11.253906 8.015625 11.074219 7.832031 10.851562 7.832031 L 4.523438 7.832031 C 4.300781 7.832031 4.121094 8.015625 4.121094 8.238281 L 4.121094 8.242188 C 4.121094 8.464844 4.300781 8.644531 4.523438 8.644531 L 10.851562 8.644531 C 11.074219 8.644531 11.253906 8.464844 11.257812 8.242188 Z M 11.257812 9.808594 L 11.257812 9.804688 C 11.253906 9.582031 11.074219 9.398438 10.851562 9.398438 L 4.523438 9.398438 C 4.300781 9.398438 4.121094 9.582031 4.121094 9.804688 L 4.121094 9.808594 C 4.121094 10.03125 4.300781 10.210938 4.523438 10.210938 L 10.851562 10.210938 C 11.074219 10.210938 11.253906 10.03125 11.257812 9.808594 Z M 11.257812 5.109375 L 11.257812 5.105469 C 11.253906 4.882812 11.074219 4.699219 10.851562 4.699219 L 4.523438 4.699219 C 4.300781 4.699219 4.121094 4.882812 4.121094 5.105469 L 4.121094 5.109375 C 4.121094 5.332031 4.300781 5.511719 4.523438 5.511719 L 10.851562 5.511719 C 11.074219 5.511719 11.253906 5.332031 11.257812 5.109375 Z M 11.257812 6.675781 L 11.257812 6.671875 C 11.253906 6.449219 11.074219 6.265625 10.851562 6.265625 L 4.523438 6.265625 C 4.300781 6.265625 4.121094 6.449219 4.121094 6.671875 L 4.121094 6.675781 C 4.121094 6.898438 4.300781 7.078125 4.523438 7.078125 L 10.851562 7.078125 C 11.074219 7.078125 11.253906 6.898438 11.257812 6.675781 Z M 11.257812 6.675781 "/>
</g>
</svg>
