<?xml version="1.0" encoding="UTF-8" standalone="no"?>
<!-- Created with Inkscape (http://www.inkscape.org/) -->

<svg
   xmlns:dc="http://purl.org/dc/elements/1.1/"
   xmlns:cc="http://creativecommons.org/ns#"
   xmlns:rdf="http://www.w3.org/1999/02/22-rdf-syntax-ns#"
   xmlns:svg="http://www.w3.org/2000/svg"
   xmlns="http://www.w3.org/2000/svg"
   xmlns:xlink="http://www.w3.org/1999/xlink"
   xmlns:sodipodi="http://sodipodi.sourceforge.net/DTD/sodipodi-0.dtd"
   xmlns:inkscape="http://www.inkscape.org/namespaces/inkscape"
   width="30px"
   height="30px"
   version="1.1"
   id="svg8"
   inkscape:version="0.92.4 5da689c313, 2019-01-14"
   sodipodi:docname="container.svg">
  <defs
     id="defs2" />
  <sodipodi:namedview
     id="base"
     pagecolor="#ffffff"
     bordercolor="#666666"
     borderopacity="1.0"
     inkscape:pageopacity="0.0"
     inkscape:pageshadow="2"
     inkscape:zoom="13.049334"
     inkscape:cx="18.679046"
     inkscape:cy="12.165829"
     inkscape:document-units="px"
     inkscape:current-layer="layer1"
     showgrid="false"
     inkscape:snap-page="false"
     units="px"
     inkscape:window-width="1884"
     inkscape:window-height="1061"
     inkscape:window-x="0"
     inkscape:window-y="0"
     inkscape:window-maximized="1"
     fit-margin-top="0"
     fit-margin-left="0"
     fit-margin-right="0"
     fit-margin-bottom="0" />
  <metadata
     id="metadata5">
    <rdf:RDF>
      <cc:Work
         rdf:about="">
        <dc:format>image/svg+xml</dc:format>
        <dc:type
           rdf:resource="http://purl.org/dc/dcmitype/StillImage" />
        <dc:title></dc:title>
      </cc:Work>
    </rdf:RDF>
  </metadata>
    <circle
       style="color:#000000;clip-rule:nonzero;display:inline;overflow:visible;visibility:visible;opacity:1;isolation:auto;mix-blend-mode:normal;color-interpolation:sRGB;color-interpolation-filters:linearRGB;solid-color:#000000;solid-opacity:1;vector-effect:none;fill:#a16cb3;fill-opacity:1;fill-rule:evenodd;stroke:#ffffff;stroke-width:1;stroke-linecap:butt;stroke-linejoin:miter;stroke-miterlimit:4;stroke-dasharray:none;stroke-dashoffset:0;stroke-opacity:1;marker:none;color-rendering:auto;image-rendering:auto;shape-rendering:auto;text-rendering:auto;enable-background:accumulate"
       id="path815"
       cx="15"
       cy="15"
       r="14.5" />
<g transform="translate(6.5,9.5)"><path fill-rule="nonzero" fill="#FFFFFF" fill-opacity="1" d="M 11.410156 6.441406 C 11.410156 8.035156 10.117188 9.332031 8.519531 9.332031 C 6.921875 9.332031 5.628906 8.035156 5.628906 6.441406 C 5.628906 4.84375 6.921875 3.550781 8.519531 3.550781 C 10.113281 3.550781 11.40625 4.84375 11.410156 6.441406 Z M 17 2.574219 L 17 9.839844 C 17 10.589844 16.390625 11.199219 15.640625 11.199219 L 1.359375 11.199219 C 0.609375 11.199219 0 10.589844 0 9.839844 L 0 2.574219 C 0 1.824219 0.609375 1.214844 1.359375 1.214844 L 5.425781 1.214844 L 5.425781 0.648438 C 5.425781 0.289062 5.714844 0 6.074219 0 L 11.066406 0 C 11.425781 0 11.714844 0.289062 11.714844 0.648438 L 11.714844 1.214844 L 15.640625 1.214844 C 16.390625 1.214844 17 1.824219 17 2.574219 Z M 12.5625 7.113281 C 13.007812 4.328125 10.628906 1.949219 7.847656 2.394531 C 6.113281 2.675781 4.757812 4.035156 4.472656 5.765625 C 4.027344 8.550781 6.410156 10.929688 9.191406 10.484375 C 10.925781 10.203125 12.28125 8.84375 12.5625 7.113281 Z M 15.46875 2.527344 L 12.558594 2.527344 L 12.558594 3.421875 L 15.46875 3.421875 Z M 15.46875 2.527344 "/>
</g>
</svg>
