<?xml version="1.0" encoding="UTF-8" standalone="no"?>
<!-- Created with Inkscape (http://www.inkscape.org/) -->

<svg
   xmlns:dc="http://purl.org/dc/elements/1.1/"
   xmlns:cc="http://creativecommons.org/ns#"
   xmlns:rdf="http://www.w3.org/1999/02/22-rdf-syntax-ns#"
   xmlns:svg="http://www.w3.org/2000/svg"
   xmlns="http://www.w3.org/2000/svg"
   xmlns:xlink="http://www.w3.org/1999/xlink"
   xmlns:sodipodi="http://sodipodi.sourceforge.net/DTD/sodipodi-0.dtd"
   xmlns:inkscape="http://www.inkscape.org/namespaces/inkscape"
   width="30px"
   height="30px"
   version="1.1"
   id="svg8"
   inkscape:version="0.92.4 5da689c313, 2019-01-14"
   sodipodi:docname="container.svg">
  <defs
     id="defs2" />
  <sodipodi:namedview
     id="base"
     pagecolor="#ffffff"
     bordercolor="#666666"
     borderopacity="1.0"
     inkscape:pageopacity="0.0"
     inkscape:pageshadow="2"
     inkscape:zoom="13.049334"
     inkscape:cx="18.679046"
     inkscape:cy="12.165829"
     inkscape:document-units="px"
     inkscape:current-layer="layer1"
     showgrid="false"
     inkscape:snap-page="false"
     units="px"
     inkscape:window-width="1884"
     inkscape:window-height="1061"
     inkscape:window-x="0"
     inkscape:window-y="0"
     inkscape:window-maximized="1"
     fit-margin-top="0"
     fit-margin-left="0"
     fit-margin-right="0"
     fit-margin-bottom="0" />
  <metadata
     id="metadata5">
    <rdf:RDF>
      <cc:Work
         rdf:about="">
        <dc:format>image/svg+xml</dc:format>
        <dc:type
           rdf:resource="http://purl.org/dc/dcmitype/StillImage" />
        <dc:title></dc:title>
      </cc:Work>
    </rdf:RDF>
  </metadata>
    <circle
       style="color:#000000;clip-rule:nonzero;display:inline;overflow:visible;visibility:visible;opacity:1;isolation:auto;mix-blend-mode:normal;color-interpolation:sRGB;color-interpolation-filters:linearRGB;solid-color:#000000;solid-opacity:1;vector-effect:none;fill:#ffffff;fill-opacity:1;fill-rule:evenodd;stroke:#76009e;stroke-width:1;stroke-linecap:butt;stroke-linejoin:miter;stroke-miterlimit:4;stroke-dasharray:none;stroke-dashoffset:0;stroke-opacity:1;marker:none;color-rendering:auto;image-rendering:auto;shape-rendering:auto;text-rendering:auto;enable-background:accumulate"
       id="path815"
       cx="15"
       cy="15"
       r="14.5" />
<g transform="translate(7.0,6.5)"><path fill-rule="nonzero" fill="rgb(30%,30%,30%)" fill-opacity="1" d="M 15.007812 3.371094 C 13.929688 2.289062 12.0625 2.386719 10.414062 3.488281 C 10.410156 3.234375 10.433594 2.976562 10.484375 2.726562 C 10.617188 2.074219 11.074219 1.484375 11.242188 1.28125 L 12.730469 1.28125 L 12.730469 0 L 3.109375 0 L 3.109375 1.28125 L 4.542969 1.28125 C 4.730469 1.417969 4.894531 1.582031 5.03125 1.765625 C 5.335938 2.167969 5.449219 3.011719 5.488281 3.585938 C 3.808594 2.394531 1.867188 2.257812 0.757812 3.371094 C 0.101562 4.027344 -0.140625 4.992188 0.078125 6.09375 C 0.28125 7.097656 0.851562 8.113281 1.6875 8.949219 C 1.941406 9.203125 2.207031 9.5 2.492188 9.816406 C 2.757812 10.113281 3.039062 10.425781 3.34375 10.742188 C 3.710938 12.316406 4.484375 13.890625 5.515625 14.90625 L 5.515625 15.84375 L 4.230469 16.359375 L 4.230469 17 L 11.449219 17 L 11.449219 16.359375 L 10.324219 15.84375 L 10.324219 14.90625 C 11.375 13.867188 12.164062 12.25 12.519531 10.640625 C 12.785156 10.359375 13.035156 10.082031 13.273438 9.816406 C 13.558594 9.5 13.824219 9.203125 14.078125 8.949219 C 14.914062 8.113281 15.484375 7.097656 15.6875 6.09375 C 15.90625 4.992188 15.664062 4.027344 15.007812 3.371094 Z M 3.109375 8.585938 C 2.9375 8.398438 2.765625 8.214844 2.597656 8.042969 C 1.9375 7.382812 1.488281 6.601562 1.335938 5.839844 C 1.261719 5.457031 1.199219 4.738281 1.664062 4.277344 C 2.390625 3.550781 3.976562 3.894531 5.226562 5.019531 C 3.8125 5.367188 3.152344 6.273438 3.109375 8.585938 Z M 14.429688 5.839844 C 14.277344 6.601562 13.828125 7.382812 13.167969 8.042969 C 13.023438 8.191406 12.875 8.34375 12.726562 8.507812 C 12.675781 6.28125 12.039062 5.371094 10.539062 5.015625 C 11.789062 3.894531 13.375 3.550781 14.101562 4.277344 C 14.566406 4.738281 14.503906 5.457031 14.429688 5.839844 Z M 14.429688 5.839844 "/>
</g>
</svg>
