<?xml version="1.0" encoding="UTF-8"?>
<svg xmlns="http://www.w3.org/2000/svg" xmlns:xlink="http://www.w3.org/1999/xlink" width="8.733393" height="11" viewBox="0 0 8.733393 11">
<path fill-rule="nonzero" fill="rgb(30%,30%,30%)" fill-opacity="1" d="M 5.523438 1.511719 L 6.070312 1.773438 L 5.683594 2.53125 L 5.160156 2.265625 Z M 5.523438 1.511719 "/>
<path fill-rule="nonzero" fill="rgb(30%,30%,30%)" fill-opacity="1" d="M 3.371094 3.878906 L 5.65625 4.992188 L 3.96875 8.453125 L 1.683594 7.339844 Z M 6.386719 3.972656 L 3.597656 2.65625 C 3.339844 2.535156 3.03125 2.644531 2.910156 2.898438 L 0.0507812 8.949219 C -0.0703125 9.207031 0.0390625 9.511719 0.296875 9.632812 L 3.085938 10.949219 C 3.34375 11.070312 3.648438 10.960938 3.769531 10.707031 L 6.632812 4.65625 C 6.753906 4.398438 6.644531 4.09375 6.386719 3.972656 Z M 6.386719 3.972656 "/>
<path fill-rule="nonzero" fill="rgb(30%,30%,30%)" fill-opacity="1" d="M 5.316406 2.46875 C 4.773438 2.242188 4.1875 2.308594 3.777344 2.59375 L 6.324219 3.800781 C 6.292969 3.253906 5.914062 2.722656 5.316406 2.46875 Z M 5.316406 2.46875 "/>
<path fill-rule="nonzero" fill="rgb(30%,30%,30%)" fill-opacity="1" d="M 6.339844 1.511719 L 8.492188 0 L 8.511719 0.347656 L 6.289062 1.625 Z M 6.339844 1.511719 "/>
<path fill-rule="nonzero" fill="rgb(30%,30%,30%)" fill-opacity="1" d="M 6.34375 1.589844 L 8.734375 0.480469 L 8.691406 0.828125 L 6.277344 1.691406 Z M 6.34375 1.589844 "/>
<path fill-rule="nonzero" fill="rgb(30%,30%,30%)" fill-opacity="1" d="M 6.289062 1.726562 L 6.546875 1.960938 L 8.542969 1.011719 L 8.34375 0.980469 Z M 6.289062 1.726562 "/>
<path fill-rule="nonzero" fill="rgb(30%,30%,30%)" fill-opacity="1" d="M 6.304688 1.886719 L 6.746094 2.453125 L 8.355469 1.660156 L 7.996094 1.253906 Z M 6.304688 1.886719 "/>
<path fill-rule="nonzero" fill="rgb(30%,30%,30%)" fill-opacity="1" d="M 6.316406 2.042969 L 6.949219 2.945312 L 8.164062 2.3125 L 7.648438 1.527344 Z M 6.316406 2.042969 "/>
<path fill-rule="nonzero" fill="rgb(30%,30%,30%)" fill-opacity="1" d="M 6.332031 2.203125 L 7.148438 3.4375 L 7.972656 2.964844 L 7.300781 1.800781 Z M 6.332031 2.203125 "/>
<path fill-rule="nonzero" fill="rgb(30%,30%,30%)" fill-opacity="1" d="M 6.34375 2.359375 L 7.351562 3.929688 L 7.785156 3.613281 L 6.957031 2.074219 Z M 6.34375 2.359375 "/>
<path fill-rule="nonzero" fill="rgb(30%,30%,30%)" fill-opacity="1" d="M 6.359375 2.515625 L 7.550781 4.421875 L 7.59375 4.265625 L 6.609375 2.347656 Z M 6.359375 2.515625 "/>
<path fill-rule="nonzero" fill="rgb(30%,30%,30%)" fill-opacity="1" d="M 6.253906 2.675781 L 7.632812 4.917969 L 7.285156 4.914062 L 6.140625 2.621094 Z M 6.253906 2.675781 "/>
</svg>
