<?xml version="1.0" encoding="UTF-8"?>
<svg xmlns="http://www.w3.org/2000/svg" xmlns:xlink="http://www.w3.org/1999/xlink" width="11" height="10.866263" viewBox="0 0 11 10.866263">
<path fill-rule="nonzero" fill="rgb(30%,30%,30%)" fill-opacity="1" d="M 6.070312 8.769531 C 6.054688 8.75 6.046875 8.726562 6.046875 8.699219 L 6.046875 3.382812 C 6.046875 3.324219 6.09375 3.273438 6.152344 3.273438 L 8 3.273438 C 8.058594 3.273438 8.105469 3.226562 8.105469 3.167969 L 8.105469 2.328125 C 8.105469 2.269531 8.058594 2.21875 8 2.21875 L 6.152344 2.21875 C 6.09375 2.21875 6.046875 2.171875 6.046875 2.113281 L 6.046875 0.109375 C 6.046875 0.046875 5.996094 0 5.9375 0 L 5.121094 0 C 5.0625 0 5.015625 0.046875 5.015625 0.109375 L 5.015625 2.113281 C 5.015625 2.171875 4.964844 2.21875 4.90625 2.21875 L 3.0625 2.21875 C 3 2.21875 2.953125 2.269531 2.953125 2.328125 L 2.953125 3.167969 C 2.953125 3.226562 3 3.273438 3.0625 3.273438 L 4.90625 3.273438 C 4.964844 3.273438 5.015625 3.324219 5.015625 3.382812 L 5.015625 8.699219 C 5.015625 8.726562 5.003906 8.75 4.988281 8.769531 C 4.96875 8.792969 4.941406 8.804688 4.914062 8.808594 C 2.839844 8.921875 1.054688 9.644531 0.03125 10.683594 C 0 10.714844 -0.0078125 10.757812 0.0078125 10.800781 C 0.0234375 10.839844 0.0625 10.867188 0.109375 10.867188 L 10.890625 10.867188 C 10.9375 10.867188 10.976562 10.839844 10.992188 10.800781 C 11.007812 10.757812 11 10.714844 10.96875 10.683594 C 9.957031 9.65625 8.195312 8.9375 6.148438 8.808594 C 6.117188 8.808594 6.089844 8.792969 6.070312 8.769531 Z M 6.070312 8.769531 "/>
</svg>
