<?xml version="1.0" encoding="UTF-8"?>
<svg xmlns="http://www.w3.org/2000/svg" xmlns:xlink="http://www.w3.org/1999/xlink" width="11" height="10.405099" viewBox="0 0 11 10.405099">
<path fill-rule="nonzero" fill="rgb(30%,30%,30%)" fill-opacity="1" d="M 10.066406 10.40625 L 0.933594 10.40625 C 0.683594 10.40625 0.449219 10.308594 0.273438 10.132812 C 0.0976562 9.957031 0 9.71875 0 9.472656 L 0 0.933594 C 0 0.683594 0.0976562 0.449219 0.273438 0.273438 C 0.449219 0.0976562 0.683594 0 0.933594 0 L 10.066406 0 C 10.316406 0 10.550781 0.0976562 10.726562 0.273438 C 10.902344 0.449219 11 0.683594 11 0.933594 L 11 9.472656 C 11 9.988281 10.582031 10.40625 10.066406 10.40625 Z M 0.753906 1.65625 L 1.582031 1.65625 L 1.582031 0.824219 L 0.753906 0.824219 Z M 0.753906 3.230469 L 1.582031 3.230469 L 1.582031 2.402344 L 0.753906 2.402344 Z M 0.753906 4.808594 L 1.582031 4.808594 L 1.582031 3.976562 L 0.753906 3.976562 Z M 0.753906 6.382812 L 1.582031 6.382812 L 1.582031 5.550781 L 0.753906 5.550781 Z M 0.753906 7.960938 L 1.582031 7.960938 L 1.582031 7.128906 L 0.753906 7.128906 Z M 0.753906 9.535156 L 1.582031 9.535156 L 1.582031 8.703125 L 0.753906 8.703125 Z M 9.402344 1.65625 L 10.234375 1.65625 L 10.234375 0.824219 L 9.402344 0.824219 Z M 9.402344 3.230469 L 10.234375 3.230469 L 10.234375 2.402344 L 9.402344 2.402344 Z M 9.402344 4.808594 L 10.234375 4.808594 L 10.234375 3.976562 L 9.402344 3.976562 Z M 9.402344 6.382812 L 10.234375 6.382812 L 10.234375 5.550781 L 9.402344 5.550781 Z M 9.402344 7.960938 L 10.234375 7.960938 L 10.234375 7.128906 L 9.402344 7.128906 Z M 9.402344 9.535156 L 10.234375 9.535156 L 10.234375 8.703125 L 9.402344 8.703125 Z M 3.160156 4.808594 L 7.859375 4.808594 L 7.859375 0.824219 L 3.160156 0.824219 Z M 3.160156 9.535156 L 7.859375 9.535156 L 7.859375 5.550781 L 3.160156 5.550781 Z M 3.160156 9.535156 "/>
</svg>
