<?xml version="1.0" encoding="UTF-8" standalone="no"?>
<!-- Created with Inkscape (http://www.inkscape.org/) -->

<svg
   xmlns:dc="http://purl.org/dc/elements/1.1/"
   xmlns:cc="http://creativecommons.org/ns#"
   xmlns:rdf="http://www.w3.org/1999/02/22-rdf-syntax-ns#"
   xmlns:svg="http://www.w3.org/2000/svg"
   xmlns="http://www.w3.org/2000/svg"
   xmlns:xlink="http://www.w3.org/1999/xlink"
   xmlns:sodipodi="http://sodipodi.sourceforge.net/DTD/sodipodi-0.dtd"
   xmlns:inkscape="http://www.inkscape.org/namespaces/inkscape"
   width="30px"
   height="30px"
   version="1.1"
   id="svg8"
   inkscape:version="0.92.4 5da689c313, 2019-01-14"
   sodipodi:docname="container.svg">
  <defs
     id="defs2" />
  <sodipodi:namedview
     id="base"
     pagecolor="#ffffff"
     bordercolor="#666666"
     borderopacity="1.0"
     inkscape:pageopacity="0.0"
     inkscape:pageshadow="2"
     inkscape:zoom="13.049334"
     inkscape:cx="18.679046"
     inkscape:cy="12.165829"
     inkscape:document-units="px"
     inkscape:current-layer="layer1"
     showgrid="false"
     inkscape:snap-page="false"
     units="px"
     inkscape:window-width="1884"
     inkscape:window-height="1061"
     inkscape:window-x="0"
     inkscape:window-y="0"
     inkscape:window-maximized="1"
     fit-margin-top="0"
     fit-margin-left="0"
     fit-margin-right="0"
     fit-margin-bottom="0" />
  <metadata
     id="metadata5">
    <rdf:RDF>
      <cc:Work
         rdf:about="">
        <dc:format>image/svg+xml</dc:format>
        <dc:type
           rdf:resource="http://purl.org/dc/dcmitype/StillImage" />
        <dc:title></dc:title>
      </cc:Work>
    </rdf:RDF>
  </metadata>
    <circle
       style="color:#000000;clip-rule:nonzero;display:inline;overflow:visible;visibility:visible;opacity:1;isolation:auto;mix-blend-mode:normal;color-interpolation:sRGB;color-interpolation-filters:linearRGB;solid-color:#000000;solid-opacity:1;vector-effect:none;fill:#76009e;fill-opacity:1;fill-rule:evenodd;stroke:#ffffff;stroke-width:1;stroke-linecap:butt;stroke-linejoin:miter;stroke-miterlimit:4;stroke-dasharray:none;stroke-dashoffset:0;stroke-opacity:1;marker:none;color-rendering:auto;image-rendering:auto;shape-rendering:auto;text-rendering:auto;enable-background:accumulate"
       id="path815"
       cx="15"
       cy="15"
       r="14.5" />
<g transform="translate(6.5,6.5)"><path fill-rule="nonzero" fill="#FFFFFF" fill-opacity="1" d="M 12.023438 12.96875 L 12.019531 12.96875 C 11.914062 12.984375 1.886719 14.363281 0.015625 14.695312 L 0.0351562 16.921875 L 17 16.921875 L 17 12.164062 Z M 12.023438 12.96875 "/>
<path fill-rule="nonzero" fill="#FFFFFF" fill-opacity="1" d="M 15.953125 0 L 6.894531 6.769531 L 6.84375 7.308594 L 7.078125 7.132812 L 7.078125 9.496094 C 7.078125 9.496094 3.085938 11.417969 2.800781 11.539062 C 2.074219 11.851562 0.875 12.527344 0 13.042969 L 0.0117188 14.3125 C 2.070312 13.957031 11.488281 12.664062 11.953125 12.597656 L 17 11.78125 L 17 0 Z M 0.390625 13.957031 L 0.386719 13.492188 C 0.386719 13.492188 0.398438 13.355469 0.421875 13.347656 C 0.464844 13.332031 0.464844 13.4375 0.464844 13.4375 L 0.464844 13.9375 Z M 0.8125 13.847656 L 0.808594 13.320312 C 0.808594 13.320312 0.824219 13.152344 0.867188 13.136719 C 0.933594 13.117188 0.933594 13.253906 0.933594 13.253906 L 0.945312 13.804688 Z M 1.25 13.746094 L 1.253906 13.136719 C 1.253906 13.136719 1.28125 12.972656 1.332031 12.972656 C 1.414062 12.972656 1.425781 12.988281 1.425781 12.988281 L 1.441406 13.679688 Z M 2.066406 13.535156 L 1.855469 13.582031 L 1.867188 12.980469 C 1.867188 12.980469 1.894531 12.765625 1.964844 12.75 C 2.074219 12.726562 2.074219 12.890625 2.074219 12.890625 Z M 2.566406 13.433594 L 2.554688 12.671875 C 2.554688 12.671875 2.597656 12.40625 2.71875 12.386719 C 2.902344 12.355469 2.902344 12.5625 2.902344 12.5625 L 2.921875 13.347656 Z M 3.433594 13.242188 L 3.414062 12.402344 C 3.414062 12.402344 3.472656 12.070312 3.621094 12.042969 C 3.851562 12.007812 3.855469 12.265625 3.855469 12.265625 L 3.878906 13.132812 Z M 4.652344 12.972656 L 4.644531 11.90625 C 4.644531 11.90625 4.714844 11.488281 4.902344 11.457031 C 5.1875 11.410156 5.191406 11.734375 5.191406 11.734375 L 5.210938 12.835938 Z M 6.292969 12.621094 L 6.292969 11.179688 C 6.292969 11.179688 6.382812 10.65625 6.613281 10.617188 C 6.972656 10.558594 6.976562 10.964844 6.976562 10.964844 L 7 12.480469 Z M 7.664062 8.707031 L 7.636719 7.828125 C 7.636719 7.828125 7.683594 7.449219 7.8125 7.421875 C 8.011719 7.378906 8.011719 7.636719 8.011719 7.636719 L 8.140625 8.417969 Z M 8.574219 12.125 L 8.554688 10.445312 C 8.554688 10.445312 8.683594 9.855469 9.042969 9.808594 C 9.589844 9.742188 9.59375 10.148438 9.59375 10.148438 L 9.625 11.890625 Z M 9.808594 7.566406 L 9.734375 6.191406 C 9.734375 6.191406 9.867188 5.601562 10.222656 5.554688 C 10.773438 5.488281 10.777344 5.894531 10.777344 5.894531 L 10.804688 7.027344 Z M 12.277344 11.351562 L 12.195312 9 C 12.195312 9 12.382812 8.167969 12.878906 8.109375 C 13.640625 8.015625 13.824219 8.578125 13.824219 8.578125 L 13.902344 11.023438 Z M 13.042969 5.859375 L 13.011719 4.511719 C 13.011719 4.511719 13.210938 3.949219 13.507812 3.902344 C 13.964844 3.824219 14.113281 4.066406 14.113281 4.066406 L 14.191406 5.21875 Z M 13.042969 5.859375 "/>
</g>
</svg>
