<?xml version="1.0" encoding="UTF-8" standalone="no"?>
<!-- Created with Inkscape (http://www.inkscape.org/) -->

<svg
   xmlns:dc="http://purl.org/dc/elements/1.1/"
   xmlns:cc="http://creativecommons.org/ns#"
   xmlns:rdf="http://www.w3.org/1999/02/22-rdf-syntax-ns#"
   xmlns:svg="http://www.w3.org/2000/svg"
   xmlns="http://www.w3.org/2000/svg"
   xmlns:xlink="http://www.w3.org/1999/xlink"
   xmlns:sodipodi="http://sodipodi.sourceforge.net/DTD/sodipodi-0.dtd"
   xmlns:inkscape="http://www.inkscape.org/namespaces/inkscape"
   width="30px"
   height="30px"
   version="1.1"
   id="svg8"
   inkscape:version="0.92.4 5da689c313, 2019-01-14"
   sodipodi:docname="container.svg">
  <defs
     id="defs2" />
  <sodipodi:namedview
     id="base"
     pagecolor="#ffffff"
     bordercolor="#666666"
     borderopacity="1.0"
     inkscape:pageopacity="0.0"
     inkscape:pageshadow="2"
     inkscape:zoom="13.049334"
     inkscape:cx="18.679046"
     inkscape:cy="12.165829"
     inkscape:document-units="px"
     inkscape:current-layer="layer1"
     showgrid="false"
     inkscape:snap-page="false"
     units="px"
     inkscape:window-width="1884"
     inkscape:window-height="1061"
     inkscape:window-x="0"
     inkscape:window-y="0"
     inkscape:window-maximized="1"
     fit-margin-top="0"
     fit-margin-left="0"
     fit-margin-right="0"
     fit-margin-bottom="0" />
  <metadata
     id="metadata5">
    <rdf:RDF>
      <cc:Work
         rdf:about="">
        <dc:format>image/svg+xml</dc:format>
        <dc:type
           rdf:resource="http://purl.org/dc/dcmitype/StillImage" />
        <dc:title></dc:title>
      </cc:Work>
    </rdf:RDF>
  </metadata>
    <circle
       style="color:#000000;clip-rule:nonzero;display:inline;overflow:visible;visibility:visible;opacity:1;isolation:auto;mix-blend-mode:normal;color-interpolation:sRGB;color-interpolation-filters:linearRGB;solid-color:#000000;solid-opacity:1;vector-effect:none;fill:#76009e;fill-opacity:1;fill-rule:evenodd;stroke:#ffffff;stroke-width:1;stroke-linecap:butt;stroke-linejoin:miter;stroke-miterlimit:4;stroke-dasharray:none;stroke-dashoffset:0;stroke-opacity:1;marker:none;color-rendering:auto;image-rendering:auto;shape-rendering:auto;text-rendering:auto;enable-background:accumulate"
       id="path815"
       cx="15"
       cy="15"
       r="14.5" />
<g transform="translate(10.5,6.5)"><path fill-rule="nonzero" fill="#FFFFFF" fill-opacity="1" d="M 8.117188 15.21875 L 6.761719 15.21875 C 6.953125 14.523438 7.453125 12.628906 7.4375 12.058594 C 7.402344 10.773438 6.441406 9.816406 6.441406 9.816406 L 6.441406 8.738281 C 6.441406 8.609375 6.503906 8.488281 6.609375 8.417969 L 7.488281 7.703125 C 7.511719 7.683594 7.535156 7.660156 7.550781 7.632812 C 7.613281 7.539062 7.683594 7.363281 7.679688 7.292969 C 7.660156 6.980469 7.691406 6.335938 7.652344 6.105469 C 7.617188 5.886719 7.582031 5.296875 5.800781 5.039062 C 5.691406 5.023438 5.589844 4.5625 5.835938 4.34375 C 6.140625 4.074219 6.761719 3.050781 6.371094 1.878906 C 6.195312 1.347656 5.953125 0.648438 5.230469 0.152344 C 4.699219 -0.214844 3.488281 0.152344 3.167969 0.484375 C 2.917969 0.742188 1.921875 1 1.886719 1.585938 C 1.835938 2.4375 1.816406 2.503906 2.632812 3.863281 C 2.753906 4.066406 3.007812 3.84375 3.203125 4.085938 C 3.414062 4.34375 3.609375 4.480469 3.667969 4.636719 C 3.71875 4.78125 3.707031 4.941406 3.628906 5.078125 C 3.628906 5.078125 1.28125 6.015625 1.140625 6.398438 C 0.960938 6.878906 1.019531 8.605469 1.210938 8.824219 C 1.398438 9.039062 1.707031 9.066406 1.929688 9.050781 C 2.09375 9.042969 2.242188 9.15625 2.269531 9.320312 L 2.421875 10.039062 C 2.421875 10.039062 1.601562 11.765625 1.78125 12.792969 C 1.914062 13.574219 2.5625 14.714844 2.867188 15.21875 L 0.855469 15.21875 C 0.382812 15.21875 0 15.613281 0 16.101562 L 0 17 L 8.96875 16.929688 L 8.96875 16.101562 C 8.96875 15.613281 8.585938 15.21875 8.117188 15.21875 Z M 8.117188 15.21875 "/>
</g>
</svg>
