<?xml version="1.0" encoding="UTF-8" standalone="no"?>
<!-- Created with Inkscape (http://www.inkscape.org/) -->

<svg
   xmlns:dc="http://purl.org/dc/elements/1.1/"
   xmlns:cc="http://creativecommons.org/ns#"
   xmlns:rdf="http://www.w3.org/1999/02/22-rdf-syntax-ns#"
   xmlns:svg="http://www.w3.org/2000/svg"
   xmlns="http://www.w3.org/2000/svg"
   xmlns:xlink="http://www.w3.org/1999/xlink"
   xmlns:sodipodi="http://sodipodi.sourceforge.net/DTD/sodipodi-0.dtd"
   xmlns:inkscape="http://www.inkscape.org/namespaces/inkscape"
   width="30px"
   height="30px"
   version="1.1"
   id="svg8"
   inkscape:version="0.92.4 5da689c313, 2019-01-14"
   sodipodi:docname="container.svg">
  <defs
     id="defs2" />
  <sodipodi:namedview
     id="base"
     pagecolor="#ffffff"
     bordercolor="#666666"
     borderopacity="1.0"
     inkscape:pageopacity="0.0"
     inkscape:pageshadow="2"
     inkscape:zoom="13.049334"
     inkscape:cx="18.679046"
     inkscape:cy="12.165829"
     inkscape:document-units="px"
     inkscape:current-layer="layer1"
     showgrid="false"
     inkscape:snap-page="false"
     units="px"
     inkscape:window-width="1884"
     inkscape:window-height="1061"
     inkscape:window-x="0"
     inkscape:window-y="0"
     inkscape:window-maximized="1"
     fit-margin-top="0"
     fit-margin-left="0"
     fit-margin-right="0"
     fit-margin-bottom="0" />
  <metadata
     id="metadata5">
    <rdf:RDF>
      <cc:Work
         rdf:about="">
        <dc:format>image/svg+xml</dc:format>
        <dc:type
           rdf:resource="http://purl.org/dc/dcmitype/StillImage" />
        <dc:title></dc:title>
      </cc:Work>
    </rdf:RDF>
  </metadata>
    <circle
       style="color:#000000;clip-rule:nonzero;display:inline;overflow:visible;visibility:visible;opacity:1;isolation:auto;mix-blend-mode:normal;color-interpolation:sRGB;color-interpolation-filters:linearRGB;solid-color:#000000;solid-opacity:1;vector-effect:none;fill:#ffffff;fill-opacity:1;fill-rule:evenodd;stroke:#76009e;stroke-width:1;stroke-linecap:butt;stroke-linejoin:miter;stroke-miterlimit:4;stroke-dasharray:none;stroke-dashoffset:0;stroke-opacity:1;marker:none;color-rendering:auto;image-rendering:auto;shape-rendering:auto;text-rendering:auto;enable-background:accumulate"
       id="path815"
       cx="15"
       cy="15"
       r="14.5" />
<g transform="translate(6.5,6.5)"><path fill-rule="nonzero" fill="rgb(30%,30%,30%)" fill-opacity="1" d="M 9.382812 13.554688 L 9.378906 13.550781 C 9.355469 13.519531 9.34375 13.484375 9.34375 13.445312 L 9.34375 5.226562 C 9.34375 5.136719 9.417969 5.0625 9.507812 5.0625 L 12.359375 5.0625 C 12.453125 5.0625 12.527344 4.988281 12.527344 4.894531 L 12.527344 3.597656 C 12.527344 3.503906 12.453125 3.429688 12.359375 3.429688 L 9.507812 3.429688 C 9.417969 3.429688 9.34375 3.355469 9.34375 3.265625 L 9.34375 0.167969 C 9.34375 0.0742188 9.269531 0 9.175781 0 L 7.914062 0 C 7.824219 0 7.75 0.0742188 7.75 0.167969 L 7.75 3.265625 C 7.75 3.355469 7.675781 3.429688 7.582031 3.429688 L 4.730469 3.429688 C 4.640625 3.429688 4.5625 3.503906 4.5625 3.597656 L 4.5625 4.894531 C 4.5625 4.988281 4.640625 5.0625 4.730469 5.0625 L 7.582031 5.0625 C 7.675781 5.0625 7.75 5.136719 7.75 5.226562 L 7.75 13.445312 C 7.75 13.484375 7.734375 13.519531 7.710938 13.550781 C 7.679688 13.585938 7.636719 13.609375 7.59375 13.609375 C 4.390625 13.789062 1.628906 14.90625 0.0507812 16.507812 C 0 16.554688 -0.0117188 16.628906 0.0117188 16.691406 C 0.0390625 16.753906 0.0976562 16.792969 0.167969 16.792969 L 16.832031 16.792969 C 16.902344 16.792969 16.960938 16.753906 16.988281 16.691406 C 17.011719 16.628906 17 16.554688 16.953125 16.507812 C 15.386719 14.921875 12.664062 13.8125 9.5 13.617188 C 9.453125 13.613281 9.410156 13.589844 9.382812 13.554688 Z M 9.382812 13.554688 "/>
</g>
</svg>
