<?xml version="1.0" encoding="UTF-8"?>
<svg xmlns="http://www.w3.org/2000/svg" xmlns:xlink="http://www.w3.org/1999/xlink" width="11" height="9.621447" viewBox="0 0 11 9.621447">
<path fill-rule="nonzero" fill="rgb(30%,30%,30%)" fill-opacity="1" d="M 2.304688 6.039062 C 2.304688 6.039062 4.523438 3.746094 4.703125 2.242188 C 4.816406 1.28125 4.546875 0 4.546875 0 L 0.0117188 0 C -0.015625 0.0273438 0.0117188 9.609375 0.0117188 9.609375 L 3.9375 9.609375 C 3.9375 9.5625 3.9375 9.652344 3.9375 9.609375 C 3.886719 7.367188 2.304688 6.039062 2.304688 6.039062 Z M 2.304688 6.039062 "/>
<path fill-rule="nonzero" fill="rgb(30%,30%,30%)" fill-opacity="1" d="M 8.695312 6.039062 C 8.695312 6.039062 6.476562 3.746094 6.296875 2.242188 C 6.183594 1.28125 6.453125 0 6.453125 0 L 10.988281 0 C 11.015625 0.0273438 10.988281 9.609375 10.988281 9.609375 L 7.0625 9.609375 C 7.0625 9.5625 7.0625 9.652344 7.0625 9.609375 C 7.113281 7.367188 8.695312 6.039062 8.695312 6.039062 Z M 8.695312 6.039062 "/>
</svg>
