<?xml version="1.0" encoding="UTF-8"?>
<svg xmlns="http://www.w3.org/2000/svg" xmlns:xlink="http://www.w3.org/1999/xlink" width="11" height="10.530168" viewBox="0 0 11 10.530168">
<path fill-rule="nonzero" fill="rgb(30%,30%,30%)" fill-opacity="1" d="M 10.675781 3.027344 L 0.582031 0.0195312 C 0.34375 -0.0507812 0.0898438 0.0820312 0.0195312 0.324219 C 0.0078125 0.363281 0 0.410156 0 0.453125 L 0 10.078125 C 0 10.328125 0.203125 10.53125 0.453125 10.53125 C 0.703125 10.53125 0.90625 10.328125 0.90625 10.078125 L 0.90625 3.773438 L 9.128906 3.8125 L 9.128906 6.679688 C 9.128906 6.929688 9.332031 7.128906 9.582031 7.128906 C 9.832031 7.128906 10.035156 6.929688 10.035156 6.679688 L 10.035156 3.78125 L 10.417969 3.894531 C 10.65625 3.964844 10.910156 3.828125 10.980469 3.589844 C 11.054688 3.351562 10.914062 3.097656 10.675781 3.027344 Z M 0.90625 1.058594 L 2.71875 1.601562 L 0.90625 2.632812 Z M 2.3125 2.875 L 3.921875 1.957031 L 7.070312 2.898438 Z M 2.3125 2.875 "/>
<path fill-rule="nonzero" fill="rgb(30%,30%,30%)" fill-opacity="1" d="M 8.804688 7.425781 C 8.757812 7.402344 7.691406 6.808594 6.300781 6.855469 C 5.570312 6.882812 5.148438 7.039062 4.777344 7.171875 C 4.441406 7.296875 4.152344 7.398438 3.625 7.402344 C 2.785156 7.410156 2.359375 7.125 2.339844 7.109375 C 2.339844 7.109375 2.105469 6.953125 2.101562 6.953125 C 1.910156 6.839844 1.660156 6.902344 1.546875 7.09375 C 1.433594 7.285156 1.496094 7.535156 1.6875 7.648438 C 1.796875 7.71875 1.910156 7.78125 2.027344 7.835938 C 2.089844 7.871094 2.164062 7.90625 2.25 7.941406 C 2.660156 8.117188 3.136719 8.210938 3.625 8.210938 C 4.292969 8.210938 4.679688 8.070312 5.054688 7.933594 C 5.398438 7.804688 5.726562 7.6875 6.328125 7.664062 C 7.484375 7.625 8.398438 8.128906 8.40625 8.132812 C 8.597656 8.242188 8.847656 8.171875 8.957031 7.980469 C 9.066406 7.78125 8.996094 7.535156 8.804688 7.425781 Z M 8.804688 7.425781 "/>
<path fill-rule="nonzero" fill="rgb(30%,30%,30%)" fill-opacity="1" d="M 8.707031 9.007812 C 8.664062 8.984375 7.59375 8.386719 6.203125 8.4375 C 5.472656 8.464844 5.054688 8.617188 4.683594 8.753906 C 4.347656 8.875 4.054688 8.980469 3.53125 8.984375 C 2.691406 8.988281 2.261719 8.703125 2.246094 8.691406 C 2.246094 8.691406 2.007812 8.535156 2.007812 8.535156 C 1.8125 8.417969 1.566406 8.480469 1.453125 8.675781 C 1.335938 8.867188 1.398438 9.113281 1.59375 9.226562 C 1.699219 9.300781 1.8125 9.363281 1.929688 9.417969 C 1.996094 9.453125 2.070312 9.488281 2.152344 9.523438 C 2.566406 9.699219 3.042969 9.792969 3.527344 9.792969 C 4.199219 9.792969 4.585938 9.648438 4.960938 9.511719 C 5.304688 9.386719 5.628906 9.269531 6.230469 9.246094 C 7.386719 9.203125 8.300781 9.707031 8.308594 9.710938 C 8.503906 9.820312 8.75 9.753906 8.859375 9.558594 C 8.972656 9.363281 8.902344 9.117188 8.707031 9.007812 C 8.710938 9.007812 8.710938 9.007812 8.707031 9.007812 Z M 8.707031 9.007812 "/>
</svg>
