<?xml version="1.0" encoding="UTF-8"?>
<svg xmlns="http://www.w3.org/2000/svg" xmlns:xlink="http://www.w3.org/1999/xlink" width="11" height="3.232149" viewBox="0 0 11 3.232149">
<path fill-rule="nonzero" fill="rgb(30%,30%,30%)" fill-opacity="1" d="M 1.964844 0.722656 L 2.457031 3.230469 L 0 3.230469 L 0.472656 0.722656 L 0.207031 0.382812 L 0.207031 0 L 0.6875 0 L 0.6875 0.320312 L 0.988281 0.320312 L 0.988281 0 L 1.460938 0 L 1.460938 0.320312 L 1.757812 0.320312 L 1.757812 0 L 2.242188 0 L 2.242188 0.382812 Z M 1.421875 1.449219 C 1.421875 1.308594 1.332031 1.195312 1.21875 1.195312 C 1.105469 1.195312 1.015625 1.308594 1.015625 1.449219 L 1.015625 1.835938 L 1.421875 1.835938 Z M 1.421875 1.449219 "/>
<path fill-rule="nonzero" fill="rgb(30%,30%,30%)" fill-opacity="1" d="M 6.234375 0.722656 L 6.726562 3.230469 L 4.273438 3.230469 L 4.746094 0.722656 L 4.476562 0.382812 L 4.476562 0 L 4.957031 0 L 4.957031 0.320312 L 5.257812 0.320312 L 5.257812 0 L 5.730469 0 L 5.730469 0.320312 L 6.03125 0.320312 L 6.03125 0 L 6.511719 0 L 6.511719 0.382812 Z M 5.691406 1.449219 C 5.691406 1.308594 5.601562 1.195312 5.488281 1.195312 C 5.378906 1.195312 5.285156 1.308594 5.285156 1.449219 L 5.285156 1.835938 L 5.691406 1.835938 Z M 5.691406 1.449219 "/>
<path fill-rule="nonzero" fill="rgb(30%,30%,30%)" fill-opacity="1" d="M 10.507812 0.722656 L 11 3.230469 L 8.542969 3.230469 L 9.015625 0.722656 L 8.75 0.382812 L 8.75 0 L 9.230469 0 L 9.230469 0.320312 L 9.53125 0.320312 L 9.53125 0 L 10.003906 0 L 10.003906 0.320312 L 10.300781 0.320312 L 10.300781 0 L 10.785156 0 L 10.785156 0.382812 Z M 9.964844 1.449219 C 9.964844 1.308594 9.875 1.195312 9.761719 1.195312 C 9.648438 1.195312 9.558594 1.308594 9.558594 1.449219 L 9.558594 1.835938 L 9.964844 1.835938 Z M 9.964844 1.449219 "/>
<path fill-rule="nonzero" fill="rgb(30%,30%,30%)" fill-opacity="1" d="M 4.214844 2.894531 L 2.519531 2.902344 L 2.160156 1.0625 L 4.535156 1.0625 Z M 4.214844 2.894531 "/>
<path fill-rule="nonzero" fill="rgb(30%,30%,30%)" fill-opacity="1" d="M 8.5 2.894531 L 6.804688 2.902344 L 6.445312 1.0625 L 8.820312 1.0625 Z M 8.5 2.894531 "/>
</svg>
