<?xml version="1.0" encoding="UTF-8" standalone="no"?>
<!-- Created with Inkscape (http://www.inkscape.org/) -->

<svg
   xmlns:dc="http://purl.org/dc/elements/1.1/"
   xmlns:cc="http://creativecommons.org/ns#"
   xmlns:rdf="http://www.w3.org/1999/02/22-rdf-syntax-ns#"
   xmlns:svg="http://www.w3.org/2000/svg"
   xmlns="http://www.w3.org/2000/svg"
   xmlns:xlink="http://www.w3.org/1999/xlink"
   xmlns:sodipodi="http://sodipodi.sourceforge.net/DTD/sodipodi-0.dtd"
   xmlns:inkscape="http://www.inkscape.org/namespaces/inkscape"
   width="30px"
   height="30px"
   version="1.1"
   id="svg8"
   inkscape:version="0.92.4 5da689c313, 2019-01-14"
   sodipodi:docname="container.svg">
  <defs
     id="defs2" />
  <sodipodi:namedview
     id="base"
     pagecolor="#ffffff"
     bordercolor="#666666"
     borderopacity="1.0"
     inkscape:pageopacity="0.0"
     inkscape:pageshadow="2"
     inkscape:zoom="13.049334"
     inkscape:cx="18.679046"
     inkscape:cy="12.165829"
     inkscape:document-units="px"
     inkscape:current-layer="layer1"
     showgrid="false"
     inkscape:snap-page="false"
     units="px"
     inkscape:window-width="1884"
     inkscape:window-height="1061"
     inkscape:window-x="0"
     inkscape:window-y="0"
     inkscape:window-maximized="1"
     fit-margin-top="0"
     fit-margin-left="0"
     fit-margin-right="0"
     fit-margin-bottom="0" />
  <metadata
     id="metadata5">
    <rdf:RDF>
      <cc:Work
         rdf:about="">
        <dc:format>image/svg+xml</dc:format>
        <dc:type
           rdf:resource="http://purl.org/dc/dcmitype/StillImage" />
        <dc:title></dc:title>
      </cc:Work>
    </rdf:RDF>
  </metadata>
    <circle
       style="color:#000000;clip-rule:nonzero;display:inline;overflow:visible;visibility:visible;opacity:1;isolation:auto;mix-blend-mode:normal;color-interpolation:sRGB;color-interpolation-filters:linearRGB;solid-color:#000000;solid-opacity:1;vector-effect:none;fill:#4076f6;fill-opacity:1;fill-rule:evenodd;stroke:#ffffff;stroke-width:1;stroke-linecap:butt;stroke-linejoin:miter;stroke-miterlimit:4;stroke-dasharray:none;stroke-dashoffset:0;stroke-opacity:1;marker:none;color-rendering:auto;image-rendering:auto;shape-rendering:auto;text-rendering:auto;enable-background:accumulate"
       id="path815"
       cx="15"
       cy="15"
       r="14.5" />
<g transform="translate(6.5,7.0)"><path fill-rule="nonzero" fill="#FFFFFF" fill-opacity="1" d="M 16.449219 8.179688 C 16.328125 8.285156 16.207031 8.382812 16.078125 8.476562 L 16.0625 8.488281 L 16.050781 8.496094 C 15.585938 8.796875 15.09375 9.046875 14.582031 9.25 L 14.570312 9.25 L 14.558594 9.253906 C 14.28125 9.351562 13.996094 9.425781 13.707031 9.476562 L 13.652344 9.488281 L 13.597656 9.488281 C 13.476562 9.488281 12.804688 9.496094 11.585938 9.5 C 11.460938 9.496094 11.351562 9.582031 11.320312 9.703125 C 11.167969 10.523438 10.410156 11.148438 9.5 11.148438 L 7.410156 11.148438 C 6.503906 11.148438 5.742188 10.527344 5.59375 9.710938 C 5.5625 9.589844 5.453125 9.503906 5.328125 9.507812 C 4.117188 9.5 3.4375 9.496094 3.316406 9.492188 L 3.261719 9.492188 L 3.207031 9.484375 C 2.917969 9.433594 2.632812 9.359375 2.355469 9.261719 L 2.34375 9.257812 L 2.332031 9.257812 C 1.816406 9.054688 1.328125 8.800781 0.863281 8.5 L 0.851562 8.488281 L 0.835938 8.480469 C 0.707031 8.386719 0.582031 8.285156 0.464844 8.179688 C 0.359375 8.085938 0 7.796875 0 7.796875 L 0 14.289062 C 0 16.269531 1.78125 16.285156 3.976562 16.285156 L 12.933594 16.285156 C 15.128906 16.285156 17 16.269531 17 14.289062 L 17 7.792969 C 17.003906 7.792969 16.554688 8.085938 16.449219 8.179688 Z M 16.449219 8.179688 "/>
<path fill-rule="nonzero" fill="#FFFFFF" fill-opacity="1" d="M 1.277344 7.640625 C 1.699219 7.910156 2.144531 8.140625 2.609375 8.324219 C 2.839844 8.40625 3.078125 8.46875 3.316406 8.511719 C 3.332031 8.515625 3.347656 8.515625 3.367188 8.515625 C 3.492188 8.515625 3.984375 8.523438 5.695312 8.53125 L 6 8.53125 C 6.140625 8.523438 6.261719 8.632812 6.269531 8.773438 L 6.269531 9.082031 C 6.289062 9.695312 6.792969 10.179688 7.40625 10.171875 L 9.332031 10.171875 C 9.941406 10.179688 10.449219 9.703125 10.472656 9.09375 L 10.480469 8.785156 C 10.492188 8.644531 10.609375 8.539062 10.75 8.542969 L 11.28125 8.542969 C 11.28125 8.542969 11.546875 8.554688 11.929688 8.554688 C 12.585938 8.5625 13.246094 8.523438 13.898438 8.4375 L 13.933594 8.429688 C 14.121094 8.378906 14.308594 8.316406 14.488281 8.246094 L 14.515625 8.234375 C 15.136719 7.941406 15.578125 7.671875 15.824219 7.441406 C 15.824219 7.441406 17 6.644531 17 6.277344 L 17 4.511719 C 17 2.664062 15.15625 2.855469 13.113281 2.855469 L 11.5625 2.855469 L 11.5625 1.546875 C 11.558594 0.695312 10.867188 0.00390625 10.015625 0 L 6.84375 0 C 5.988281 0.00390625 5.296875 0.695312 5.296875 1.546875 L 5.296875 2.859375 L 3.527344 2.859375 C 1.480469 2.859375 0.0078125 2.667969 0.0078125 4.515625 L 0.0078125 6.277344 C 0.167969 6.980469 0.695312 7.214844 1.277344 7.640625 Z M 6.355469 1.546875 C 6.355469 1.277344 6.574219 1.058594 6.84375 1.058594 L 10.015625 1.058594 C 10.285156 1.058594 10.5 1.277344 10.5 1.546875 L 10.5 2.859375 L 6.355469 2.859375 Z M 6.355469 1.546875 "/>
</g>
</svg>
