<?xml version="1.0" encoding="UTF-8"?>
<svg xmlns="http://www.w3.org/2000/svg" xmlns:xlink="http://www.w3.org/1999/xlink" width="11" height="9.949336" viewBox="0 0 11 9.949336">
<path fill-rule="nonzero" fill="rgb(30%,30%,30%)" fill-opacity="1" d="M 2.65625 9.921875 L 0 9.023438 L 0.0195312 5.636719 L 2.648438 6.546875 Z M 1.644531 8.40625 L 1.78125 8.839844 L 2.1875 8.972656 L 1.492188 6.929688 L 1.152344 6.8125 L 0.457031 8.359375 L 0.839844 8.5 L 1 8.175781 Z M 1.132812 7.859375 L 1.320312 7.421875 L 1.507812 7.984375 Z M 1.132812 7.859375 "/>
<path fill-rule="nonzero" fill="rgb(30%,30%,30%)" fill-opacity="1" d="M 5.457031 8.992188 L 2.875 9.914062 L 2.875 6.558594 L 5.472656 5.664062 Z M 3.480469 9.003906 C 3.480469 9.003906 4.921875 8.707031 5.007812 8.125 C 5.074219 7.6875 4.648438 7.691406 4.648438 7.691406 C 4.972656 7.523438 4.992188 7.007812 4.648438 6.917969 C 4.449219 6.863281 3.464844 7.191406 3.464844 7.191406 Z M 3.921875 7.40625 C 3.921875 7.40625 4.421875 7.226562 4.445312 7.40625 C 4.484375 7.691406 3.921875 7.789062 3.921875 7.789062 Z M 3.921875 8.125 C 3.921875 8.125 4.535156 7.855469 4.558594 8.097656 C 4.589844 8.394531 3.921875 8.515625 3.921875 8.515625 Z M 3.921875 8.125 "/>
<path fill-rule="nonzero" fill="rgb(30%,30%,30%)" fill-opacity="1" d="M 2.75 4.605469 L 5.351562 5.511719 L 2.738281 6.386719 L 0.175781 5.484375 Z M 3.578125 5.328125 C 3.59375 5.503906 3.488281 5.644531 3.285156 5.691406 C 2.734375 5.824219 2.1875 5.628906 2.1875 5.347656 C 2.1875 5.070312 2.820312 5.058594 2.980469 5.0625 L 2.921875 4.796875 C 2.574219 4.800781 1.644531 4.910156 1.644531 5.378906 C 1.644531 5.769531 2.585938 6.195312 3.476562 5.9375 C 3.8125 5.839844 4.085938 5.671875 4.046875 5.328125 Z M 3.578125 5.328125 "/>
<path fill-rule="nonzero" fill="rgb(30%,30%,30%)" fill-opacity="1" d="M 8.25 9.949219 L 5.675781 9.011719 L 5.695312 5.664062 L 8.226562 6.558594 Z M 7.199219 8.453125 L 7.335938 8.886719 L 7.742188 9.019531 L 7.042969 6.980469 L 6.703125 6.863281 L 6.007812 8.410156 L 6.386719 8.550781 L 6.546875 8.226562 Z M 6.683594 7.90625 L 6.875 7.46875 L 7.0625 8.03125 Z M 6.683594 7.90625 "/>
<path fill-rule="nonzero" fill="rgb(30%,30%,30%)" fill-opacity="1" d="M 10.988281 9.046875 L 8.460938 9.945312 L 8.445312 6.574219 L 11 5.695312 Z M 9.03125 9.046875 C 9.03125 9.046875 10.476562 8.742188 10.558594 8.167969 C 10.625 7.726562 10.199219 7.734375 10.199219 7.734375 C 10.527344 7.566406 10.539062 7.050781 10.199219 6.957031 C 10.003906 6.90625 9.015625 7.230469 9.015625 7.230469 Z M 9.46875 7.445312 C 9.46875 7.445312 9.96875 7.265625 9.996094 7.445312 C 10.035156 7.730469 9.46875 7.828125 9.46875 7.828125 Z M 9.46875 8.167969 C 9.46875 8.167969 10.085938 7.898438 10.109375 8.140625 C 10.136719 8.4375 9.46875 8.554688 9.46875 8.554688 Z M 9.46875 8.167969 "/>
<path fill-rule="nonzero" fill="rgb(30%,30%,30%)" fill-opacity="1" d="M 8.359375 4.589844 L 10.917969 5.523438 L 8.351562 6.417969 L 5.824219 5.5 Z M 9.128906 5.371094 C 9.144531 5.550781 9.039062 5.6875 8.839844 5.738281 C 8.285156 5.867188 7.738281 5.671875 7.738281 5.394531 C 7.738281 5.117188 8.371094 5.101562 8.53125 5.109375 L 8.472656 4.839844 C 8.128906 4.847656 7.195312 4.953125 7.195312 5.421875 C 7.195312 5.8125 8.136719 6.238281 9.027344 5.984375 C 9.367188 5.886719 9.636719 5.71875 9.597656 5.371094 Z M 9.128906 5.371094 "/>
<path fill-rule="nonzero" fill="rgb(30%,30%,30%)" fill-opacity="1" d="M 5.460938 5.351562 L 2.847656 4.421875 L 2.867188 1.113281 L 5.457031 1.984375 Z M 4.386719 3.863281 L 4.523438 4.296875 L 4.929688 4.429688 L 4.234375 2.394531 L 3.894531 2.273438 L 3.199219 3.820312 L 3.582031 3.960938 L 3.742188 3.636719 Z M 3.875 3.324219 L 4.0625 2.882812 L 4.25 3.449219 Z M 3.875 3.324219 "/>
<path fill-rule="nonzero" fill="rgb(30%,30%,30%)" fill-opacity="1" d="M 5.671875 5.351562 L 5.664062 1.988281 L 8.257812 1.113281 L 8.234375 4.425781 M 6.222656 4.464844 C 6.222656 4.464844 7.667969 4.160156 7.75 3.585938 C 7.816406 3.144531 7.390625 3.152344 7.390625 3.152344 C 7.71875 2.984375 7.734375 2.46875 7.390625 2.375 C 7.195312 2.324219 6.210938 2.648438 6.210938 2.648438 Z M 6.660156 2.863281 C 6.660156 2.863281 7.164062 2.683594 7.1875 2.863281 C 7.226562 3.148438 6.660156 3.246094 6.660156 3.246094 Z M 6.703125 3.65625 C 6.703125 3.65625 7.320312 3.386719 7.339844 3.625 C 7.371094 3.921875 6.703125 4.042969 6.703125 4.042969 Z M 6.703125 3.65625 "/>
<path fill-rule="nonzero" fill="rgb(30%,30%,30%)" fill-opacity="1" d="M 5.550781 0 L 8.179688 0.910156 L 5.53125 1.808594 L 2.964844 0.9375 Z M 6.320312 0.785156 C 6.335938 0.960938 6.230469 1.101562 6.027344 1.148438 C 5.472656 1.28125 4.929688 1.085938 4.929688 0.804688 C 4.929688 0.527344 5.5625 0.515625 5.722656 0.519531 L 5.667969 0.253906 C 5.324219 0.257812 4.390625 0.367188 4.390625 0.835938 C 4.390625 1.226562 5.332031 1.652344 6.222656 1.394531 C 6.5625 1.296875 6.832031 1.132812 6.792969 0.785156 Z M 6.320312 0.785156 "/>
</svg>
