<?xml version="1.0" encoding="UTF-8" standalone="no"?>
<!-- Created with Inkscape (http://www.inkscape.org/) -->

<svg
   xmlns:dc="http://purl.org/dc/elements/1.1/"
   xmlns:cc="http://creativecommons.org/ns#"
   xmlns:rdf="http://www.w3.org/1999/02/22-rdf-syntax-ns#"
   xmlns:svg="http://www.w3.org/2000/svg"
   xmlns="http://www.w3.org/2000/svg"
   xmlns:xlink="http://www.w3.org/1999/xlink"
   xmlns:sodipodi="http://sodipodi.sourceforge.net/DTD/sodipodi-0.dtd"
   xmlns:inkscape="http://www.inkscape.org/namespaces/inkscape"
   width="30px"
   height="30px"
   version="1.1"
   id="svg8"
   inkscape:version="0.92.4 5da689c313, 2019-01-14"
   sodipodi:docname="container.svg">
  <defs
     id="defs2" />
  <sodipodi:namedview
     id="base"
     pagecolor="#ffffff"
     bordercolor="#666666"
     borderopacity="1.0"
     inkscape:pageopacity="0.0"
     inkscape:pageshadow="2"
     inkscape:zoom="13.049334"
     inkscape:cx="18.679046"
     inkscape:cy="12.165829"
     inkscape:document-units="px"
     inkscape:current-layer="layer1"
     showgrid="false"
     inkscape:snap-page="false"
     units="px"
     inkscape:window-width="1884"
     inkscape:window-height="1061"
     inkscape:window-x="0"
     inkscape:window-y="0"
     inkscape:window-maximized="1"
     fit-margin-top="0"
     fit-margin-left="0"
     fit-margin-right="0"
     fit-margin-bottom="0" />
  <metadata
     id="metadata5">
    <rdf:RDF>
      <cc:Work
         rdf:about="">
        <dc:format>image/svg+xml</dc:format>
        <dc:type
           rdf:resource="http://purl.org/dc/dcmitype/StillImage" />
        <dc:title></dc:title>
      </cc:Work>
    </rdf:RDF>
  </metadata>
    <circle
       style="color:#000000;clip-rule:nonzero;display:inline;overflow:visible;visibility:visible;opacity:1;isolation:auto;mix-blend-mode:normal;color-interpolation:sRGB;color-interpolation-filters:linearRGB;solid-color:#000000;solid-opacity:1;vector-effect:none;fill:#ffffff;fill-opacity:1;fill-rule:evenodd;stroke:#4076f6;stroke-width:1;stroke-linecap:butt;stroke-linejoin:miter;stroke-miterlimit:4;stroke-dasharray:none;stroke-dashoffset:0;stroke-opacity:1;marker:none;color-rendering:auto;image-rendering:auto;shape-rendering:auto;text-rendering:auto;enable-background:accumulate"
       id="path815"
       cx="15"
       cy="15"
       r="14.5" />
<g transform="translate(6.5,7.5)"><path fill-rule="nonzero" fill="rgb(30%,30%,30%)" fill-opacity="1" stroke-width="1" stroke-linecap="butt" stroke-linejoin="miter" stroke="rgb(11.764706%, 11.764706%, 10.980392%)" stroke-opacity="1" stroke-miterlimit="10" d="M 290.184043 91.637066 C 290.184043 142.014657 249.380474 183.04618 199.002883 183.04618 C 148.625291 183.04618 107.821722 142.014657 107.821722 91.637066 C 107.821722 41.259475 148.625291 0.455906 199.002883 0.455906 C 249.380474 0.455906 290.184043 41.259475 290.184043 91.637066 Z M 290.184043 91.637066 " transform="matrix(0.0171362, 0, 0, 0.0171362, 0, 0)"/>
<path fill-rule="nonzero" fill="rgb(30%,30%,30%)" fill-opacity="1" stroke-width="1" stroke-linecap="butt" stroke-linejoin="miter" stroke="rgb(11.764706%, 11.764706%, 10.980392%)" stroke-opacity="1" stroke-miterlimit="10" d="M 588.118485 91.637066 C 588.118485 142.014657 547.086963 183.04618 496.709371 183.04618 C 446.33178 183.04618 405.528211 142.014657 405.528211 91.637066 C 405.528211 41.259475 446.33178 0.455906 496.709371 0.455906 C 547.086963 0.455906 588.118485 41.259475 588.118485 91.637066 Z M 588.118485 91.637066 " transform="matrix(0.0171362, 0, 0, 0.0171362, 0, 0)"/>
<path fill-rule="nonzero" fill="rgb(30%,30%,30%)" fill-opacity="1" stroke-width="1" stroke-linecap="butt" stroke-linejoin="miter" stroke="rgb(11.764706%, 11.764706%, 10.980392%)" stroke-opacity="1" stroke-miterlimit="10" d="M 869.640318 91.637066 C 869.640318 142.014657 828.836748 183.04618 778.459157 183.04618 C 728.081566 183.04618 687.050044 142.014657 687.050044 91.637066 C 687.050044 41.259475 728.081566 0.455906 778.459157 0.455906 C 828.836748 0.455906 869.640318 41.259475 869.640318 91.637066 Z M 869.640318 91.637066 " transform="matrix(0.0171362, 0, 0, 0.0171362, 0, 0)"/>
<path fill-rule="nonzero" fill="rgb(30%,30%,30%)" fill-opacity="1" stroke-width="1" stroke-linecap="butt" stroke-linejoin="miter" stroke="rgb(11.764706%, 11.764706%, 10.980392%)" stroke-opacity="1" stroke-miterlimit="10" d="M 988.175826 429.463266 L 905.884829 257.358825 L 913.179322 257.358825 C 922.981296 257.358825 930.959648 249.380474 930.959648 239.578499 L 930.959648 214.275727 C 930.959648 204.701705 922.981296 196.723354 913.179322 196.723354 L 78.415798 196.723354 C 68.613823 196.723354 60.863425 204.701705 60.863425 214.275727 L 60.863425 239.578499 C 60.863425 249.380474 68.613823 257.358825 78.415798 257.358825 L 87.98982 257.358825 L 3.875199 432.882559 C -4.331105 449.523121 2.963388 469.810929 19.603949 477.789281 C 36.244511 485.767632 56.532319 478.701092 64.738624 462.06053 L 119.219367 348.08408 L 119.219367 481.66448 L 83.430762 817.21115 C 82.290997 827.469031 89.813443 836.8151 100.071324 837.954864 L 138.367411 842.058016 C 148.625291 843.197781 157.97136 835.675335 159.111125 825.417455 L 193.30406 503.775911 L 235.931253 503.775911 L 269.212376 829.976513 C 270.352141 840.234393 279.470257 847.756839 289.728137 846.845027 L 328.252178 842.969828 C 338.510058 841.830064 346.032504 832.483995 344.892739 822.226114 L 309.787993 480.06881 L 309.787993 257.358825 L 402.564823 257.358825 L 402.564823 478.929045 L 366.320312 817.21115 C 365.180547 827.469031 372.702993 836.8151 382.960874 837.954864 L 421.256961 842.058016 C 431.514842 843.197781 440.860911 835.675335 442.000675 825.417455 L 476.649516 501.268429 L 519.960567 501.268429 L 553.697597 829.976513 C 554.609408 840.234393 563.955477 847.756839 574.213358 846.845027 L 612.509445 842.969828 C 622.767326 841.830064 630.289771 832.483995 629.37796 822.226114 L 593.133449 468.443212 L 593.133449 257.358825 L 682.490986 257.358825 L 682.490986 487.363302 C 682.490986 488.73102 682.718939 490.32669 683.174844 491.694408 L 648.298051 817.21115 C 647.158286 827.469031 654.680732 836.8151 664.938612 837.954864 L 703.462653 842.058016 C 713.720533 843.197781 722.838649 835.675335 723.978414 825.417455 L 758.171349 504.915676 L 800.570589 504.915676 L 833.851712 829.976513 C 834.763524 840.234393 844.109593 847.756839 854.367473 846.845027 L 892.663561 842.969828 C 902.921441 841.830064 910.443887 832.483995 909.532075 822.226114 L 873.287564 467.303447 L 873.287564 345.348645 L 927.312401 458.641237 C 935.518706 475.281799 955.578561 482.348339 972.447076 474.369987 C 989.087638 466.391636 996.382131 446.103827 988.175826 429.463266 Z M 988.175826 429.463266 " transform="matrix(0.0171362, 0, 0, 0.0171362, 0, 0)"/>
</g>
</svg>
