<?xml version="1.0" encoding="UTF-8" standalone="no"?>
<!-- Created with Inkscape (http://www.inkscape.org/) -->

<svg
   xmlns:dc="http://purl.org/dc/elements/1.1/"
   xmlns:cc="http://creativecommons.org/ns#"
   xmlns:rdf="http://www.w3.org/1999/02/22-rdf-syntax-ns#"
   xmlns:svg="http://www.w3.org/2000/svg"
   xmlns="http://www.w3.org/2000/svg"
   xmlns:xlink="http://www.w3.org/1999/xlink"
   xmlns:sodipodi="http://sodipodi.sourceforge.net/DTD/sodipodi-0.dtd"
   xmlns:inkscape="http://www.inkscape.org/namespaces/inkscape"
   width="30px"
   height="30px"
   version="1.1"
   id="svg8"
   inkscape:version="0.92.4 5da689c313, 2019-01-14"
   sodipodi:docname="container.svg">
  <defs
     id="defs2" />
  <sodipodi:namedview
     id="base"
     pagecolor="#ffffff"
     bordercolor="#666666"
     borderopacity="1.0"
     inkscape:pageopacity="0.0"
     inkscape:pageshadow="2"
     inkscape:zoom="13.049334"
     inkscape:cx="18.679046"
     inkscape:cy="12.165829"
     inkscape:document-units="px"
     inkscape:current-layer="layer1"
     showgrid="false"
     inkscape:snap-page="false"
     units="px"
     inkscape:window-width="1884"
     inkscape:window-height="1061"
     inkscape:window-x="0"
     inkscape:window-y="0"
     inkscape:window-maximized="1"
     fit-margin-top="0"
     fit-margin-left="0"
     fit-margin-right="0"
     fit-margin-bottom="0" />
  <metadata
     id="metadata5">
    <rdf:RDF>
      <cc:Work
         rdf:about="">
        <dc:format>image/svg+xml</dc:format>
        <dc:type
           rdf:resource="http://purl.org/dc/dcmitype/StillImage" />
        <dc:title></dc:title>
      </cc:Work>
    </rdf:RDF>
  </metadata>
    <circle
       style="color:#000000;clip-rule:nonzero;display:inline;overflow:visible;visibility:visible;opacity:1;isolation:auto;mix-blend-mode:normal;color-interpolation:sRGB;color-interpolation-filters:linearRGB;solid-color:#000000;solid-opacity:1;vector-effect:none;fill:#ffffff;fill-opacity:1;fill-rule:evenodd;stroke:#4076f6;stroke-width:1;stroke-linecap:butt;stroke-linejoin:miter;stroke-miterlimit:4;stroke-dasharray:none;stroke-dashoffset:0;stroke-opacity:1;marker:none;color-rendering:auto;image-rendering:auto;shape-rendering:auto;text-rendering:auto;enable-background:accumulate"
       id="path815"
       cx="15"
       cy="15"
       r="14.5" />
<g transform="translate(6.5,6.5)"><path fill-rule="nonzero" fill="rgb(30%,30%,30%)" fill-opacity="1" d="M 0 2.296875 C 8.292969 1.015625 8.046875 6.539062 8.046875 6.539062 L 8.042969 6.667969 C 5.625 3.695312 3.988281 3.765625 3.988281 3.765625 C 7.308594 5.507812 7.351562 7.773438 7.351562 7.773438 C 4.054688 11.089844 0 2.296875 0 2.296875 Z M 8.394531 6.839844 C 10.632812 2.816406 12.582031 2.5625 12.582031 2.5625 C 9.019531 5.3125 9.445312 8.003906 9.445312 8.003906 C 14.050781 11.253906 17 0 17 0 C 6.910156 0.199219 8.363281 6.6875 8.363281 6.6875 Z M 3.4375 13.015625 L 3.4375 16.21875 C 3.441406 16.34375 3.515625 16.417969 3.574219 16.457031 C 3.640625 16.492188 3.710938 16.511719 3.785156 16.511719 L 5.179688 16.511719 C 5.230469 16.511719 5.277344 16.492188 5.308594 16.457031 C 5.34375 16.417969 5.363281 16.371094 5.363281 16.320312 L 5.363281 14.777344 L 6.753906 14.777344 L 6.753906 16.320312 C 6.753906 16.371094 6.773438 16.417969 6.808594 16.457031 C 6.839844 16.492188 6.886719 16.511719 6.9375 16.511719 L 8.332031 16.511719 C 8.40625 16.511719 8.476562 16.492188 8.539062 16.457031 C 8.601562 16.417969 8.675781 16.34375 8.679688 16.21875 L 8.679688 13.015625 L 6.058594 10.519531 Z M 13.152344 11.867188 L 9.53125 11.867188 L 8.480469 10.914062 L 8.480469 9.1875 C 8.480469 9.082031 8.394531 8.996094 8.289062 8.996094 L 7.824219 8.996094 C 7.71875 8.996094 7.632812 9.082031 7.632812 9.1875 L 7.632812 10.144531 L 6.390625 9.015625 C 6.203125 8.847656 5.914062 8.847656 5.726562 9.015625 L 2.417969 12.019531 C 2.21875 12.199219 2.203125 12.507812 2.386719 12.707031 C 2.484375 12.8125 2.617188 12.867188 2.75 12.867188 C 2.867188 12.867188 2.988281 12.824219 3.082031 12.738281 L 6.058594 10.035156 L 9.035156 12.738281 C 9.140625 12.835938 9.28125 12.875 9.414062 12.863281 C 9.425781 12.863281 9.441406 12.867188 9.453125 12.867188 L 13.152344 12.867188 C 13.449219 12.867188 13.6875 12.644531 13.6875 12.367188 C 13.6875 12.089844 13.449219 11.867188 13.152344 11.867188 Z M 12.980469 13.300781 L 9.410156 13.300781 C 9.261719 13.300781 9.140625 13.429688 9.140625 13.589844 L 9.140625 16.222656 C 9.140625 16.382812 9.261719 16.511719 9.410156 16.511719 L 12.980469 16.511719 C 13.128906 16.511719 13.253906 16.382812 13.253906 16.222656 L 13.253906 13.589844 C 13.253906 13.429688 13.128906 13.300781 12.980469 13.300781 Z M 12.980469 13.300781 "/>
</g>
</svg>
