<?xml version="1.0" encoding="UTF-8" standalone="no"?>
<!-- Created with Inkscape (http://www.inkscape.org/) -->

<svg
   xmlns:dc="http://purl.org/dc/elements/1.1/"
   xmlns:cc="http://creativecommons.org/ns#"
   xmlns:rdf="http://www.w3.org/1999/02/22-rdf-syntax-ns#"
   xmlns:svg="http://www.w3.org/2000/svg"
   xmlns="http://www.w3.org/2000/svg"
   xmlns:xlink="http://www.w3.org/1999/xlink"
   xmlns:sodipodi="http://sodipodi.sourceforge.net/DTD/sodipodi-0.dtd"
   xmlns:inkscape="http://www.inkscape.org/namespaces/inkscape"
   width="30px"
   height="30px"
   version="1.1"
   id="svg8"
   inkscape:version="0.92.4 5da689c313, 2019-01-14"
   sodipodi:docname="container.svg">
  <defs
     id="defs2" />
  <sodipodi:namedview
     id="base"
     pagecolor="#ffffff"
     bordercolor="#666666"
     borderopacity="1.0"
     inkscape:pageopacity="0.0"
     inkscape:pageshadow="2"
     inkscape:zoom="13.049334"
     inkscape:cx="18.679046"
     inkscape:cy="12.165829"
     inkscape:document-units="px"
     inkscape:current-layer="layer1"
     showgrid="false"
     inkscape:snap-page="false"
     units="px"
     inkscape:window-width="1884"
     inkscape:window-height="1061"
     inkscape:window-x="0"
     inkscape:window-y="0"
     inkscape:window-maximized="1"
     fit-margin-top="0"
     fit-margin-left="0"
     fit-margin-right="0"
     fit-margin-bottom="0" />
  <metadata
     id="metadata5">
    <rdf:RDF>
      <cc:Work
         rdf:about="">
        <dc:format>image/svg+xml</dc:format>
        <dc:type
           rdf:resource="http://purl.org/dc/dcmitype/StillImage" />
        <dc:title></dc:title>
      </cc:Work>
    </rdf:RDF>
  </metadata>
    <circle
       style="color:#000000;clip-rule:nonzero;display:inline;overflow:visible;visibility:visible;opacity:1;isolation:auto;mix-blend-mode:normal;color-interpolation:sRGB;color-interpolation-filters:linearRGB;solid-color:#000000;solid-opacity:1;vector-effect:none;fill:#4076f6;fill-opacity:1;fill-rule:evenodd;stroke:#ffffff;stroke-width:1;stroke-linecap:butt;stroke-linejoin:miter;stroke-miterlimit:4;stroke-dasharray:none;stroke-dashoffset:0;stroke-opacity:1;marker:none;color-rendering:auto;image-rendering:auto;shape-rendering:auto;text-rendering:auto;enable-background:accumulate"
       id="path815"
       cx="15"
       cy="15"
       r="14.5" />
<g transform="translate(6.5,8.5)"><path fill-rule="nonzero" fill="#FFFFFF" fill-opacity="1" d="M 13.199219 5.710938 C 13.214844 5.660156 13.214844 5.605469 13.195312 5.550781 L 13.125 2.765625 L 17 1.625 L 8.25 0 L 0 1.625 L 1.746094 2.140625 L 1.671875 7.03125 L 1.3125 7.5625 L 1.3125 8.644531 L 2.75 8.644531 L 2.75 7.5625 L 2.390625 6.988281 L 2.253906 2.292969 L 4.066406 2.828125 L 4.066406 4.691406 C 4.066406 4.792969 4.125 4.894531 4.226562 4.988281 C 3.921875 4.976562 3.375 5 3.375 5 L 3.375 9.875 L 7.25 13.375 L 16.25 11.75 L 16.25 11.148438 L 8.085938 12.527344 C 7.609375 12.613281 7.15625 12.292969 7.070312 11.820312 C 6.988281 11.34375 7.304688 10.890625 7.78125 10.804688 C 7.78125 10.804688 15.8125 9.476562 16.25 9.539062 L 16.25 8.542969 L 8.210938 9.902344 C 7.734375 9.988281 7.28125 9.667969 7.195312 9.195312 C 7.113281 8.71875 7.429688 8.265625 7.90625 8.179688 C 7.90625 8.179688 15.855469 6.847656 16.25 6.898438 L 16.25 6.125 L 13.25 5.5 C 13.25 5.5 13.292969 5.585938 13.199219 5.710938 Z M 13.199219 5.710938 "/>
</g>
</svg>
