<?xml version="1.0" encoding="UTF-8" standalone="no"?>
<!-- Created with Inkscape (http://www.inkscape.org/) -->

<svg
   xmlns:dc="http://purl.org/dc/elements/1.1/"
   xmlns:cc="http://creativecommons.org/ns#"
   xmlns:rdf="http://www.w3.org/1999/02/22-rdf-syntax-ns#"
   xmlns:svg="http://www.w3.org/2000/svg"
   xmlns="http://www.w3.org/2000/svg"
   xmlns:xlink="http://www.w3.org/1999/xlink"
   xmlns:sodipodi="http://sodipodi.sourceforge.net/DTD/sodipodi-0.dtd"
   xmlns:inkscape="http://www.inkscape.org/namespaces/inkscape"
   width="30px"
   height="30px"
   version="1.1"
   id="svg8"
   inkscape:version="0.92.4 5da689c313, 2019-01-14"
   sodipodi:docname="container.svg">
  <defs
     id="defs2" />
  <sodipodi:namedview
     id="base"
     pagecolor="#ffffff"
     bordercolor="#666666"
     borderopacity="1.0"
     inkscape:pageopacity="0.0"
     inkscape:pageshadow="2"
     inkscape:zoom="13.049334"
     inkscape:cx="18.679046"
     inkscape:cy="12.165829"
     inkscape:document-units="px"
     inkscape:current-layer="layer1"
     showgrid="false"
     inkscape:snap-page="false"
     units="px"
     inkscape:window-width="1884"
     inkscape:window-height="1061"
     inkscape:window-x="0"
     inkscape:window-y="0"
     inkscape:window-maximized="1"
     fit-margin-top="0"
     fit-margin-left="0"
     fit-margin-right="0"
     fit-margin-bottom="0" />
  <metadata
     id="metadata5">
    <rdf:RDF>
      <cc:Work
         rdf:about="">
        <dc:format>image/svg+xml</dc:format>
        <dc:type
           rdf:resource="http://purl.org/dc/dcmitype/StillImage" />
        <dc:title></dc:title>
      </cc:Work>
    </rdf:RDF>
  </metadata>
    <circle
       style="color:#000000;clip-rule:nonzero;display:inline;overflow:visible;visibility:visible;opacity:1;isolation:auto;mix-blend-mode:normal;color-interpolation:sRGB;color-interpolation-filters:linearRGB;solid-color:#000000;solid-opacity:1;vector-effect:none;fill:#4076f6;fill-opacity:1;fill-rule:evenodd;stroke:#ffffff;stroke-width:1;stroke-linecap:butt;stroke-linejoin:miter;stroke-miterlimit:4;stroke-dasharray:none;stroke-dashoffset:0;stroke-opacity:1;marker:none;color-rendering:auto;image-rendering:auto;shape-rendering:auto;text-rendering:auto;enable-background:accumulate"
       id="path815"
       cx="15"
       cy="15"
       r="14.5" />
<g transform="translate(6.5,8.5)"><path fill-rule="nonzero" fill="#FFFFFF" fill-opacity="1" d="M 12.378906 3.097656 C 13.234375 3.097656 13.925781 2.402344 13.925781 1.546875 C 13.925781 0.691406 13.234375 0 12.378906 0 C 11.523438 0 10.832031 0.691406 10.832031 1.546875 C 10.832031 2.402344 11.523438 3.097656 12.378906 3.097656 Z M 12.378906 3.097656 "/>
<path fill-rule="nonzero" fill="#FFFFFF" fill-opacity="1" d="M 16.992188 1.542969 C 16.914062 1.035156 16.28125 0.839844 15.929688 1.21875 L 14.074219 3.007812 C 13.863281 3.210938 13.652344 3.308594 13.386719 3.425781 C 13.09375 3.550781 12.726562 3.625 12.449219 3.621094 C 12.15625 3.621094 11.78125 3.53125 11.539062 3.429688 C 11.265625 3.316406 11.03125 3.210938 10.824219 3.007812 L 8.964844 1.21875 C 8.835938 1.082031 8.671875 1.019531 8.507812 1.023438 C 8.503906 1.023438 8.503906 1.023438 8.5 1.023438 C 8.496094 1.023438 8.496094 1.023438 8.492188 1.023438 C 8.328125 1.019531 8.164062 1.082031 8.035156 1.21875 L 6.175781 3.007812 C 5.96875 3.210938 5.792969 3.304688 5.53125 3.433594 C 5.238281 3.578125 4.84375 3.613281 4.546875 3.613281 C 4.253906 3.613281 3.882812 3.546875 3.597656 3.433594 C 3.328125 3.328125 3.136719 3.210938 2.925781 3.007812 L 1.070312 1.21875 C 0.71875 0.839844 0.0859375 1.035156 0.0078125 1.542969 C -0.0234375 1.734375 0.0429688 1.929688 0.175781 2.074219 L 3.03125 4.796875 L 1.308594 9.316406 L 3.019531 9.316406 L 3.015625 12.308594 C 3.015625 12.6875 3.332031 12.992188 3.714844 12.972656 C 4.074219 12.953125 4.34375 12.632812 4.34375 12.273438 L 4.34375 9.316406 L 4.761719 9.316406 L 4.761719 12.273438 C 4.761719 12.632812 5.03125 12.953125 5.390625 12.972656 C 5.773438 12.992188 6.089844 12.6875 6.089844 12.308594 L 6.082031 9.316406 L 7.792969 9.316406 L 6.074219 4.796875 L 8.5 2.480469 L 10.925781 4.796875 L 10.910156 12.308594 C 10.910156 12.6875 11.226562 12.992188 11.609375 12.972656 C 11.96875 12.953125 12.238281 12.632812 12.238281 12.273438 L 12.238281 8.898438 C 12.238281 8.789062 12.328125 8.699219 12.4375 8.699219 L 12.449219 8.699219 C 12.5625 8.699219 12.65625 8.792969 12.65625 8.910156 L 12.65625 12.273438 C 12.65625 12.632812 12.925781 12.953125 13.285156 12.972656 C 13.667969 12.992188 13.984375 12.6875 13.984375 12.308594 L 13.96875 4.796875 L 16.824219 2.074219 C 16.957031 1.929688 17.023438 1.734375 16.992188 1.542969 Z M 16.992188 1.542969 "/>
<path fill-rule="nonzero" fill="#FFFFFF" fill-opacity="1" d="M 6.332031 0.511719 C 6.253906 0.351562 6.0625 0.28125 5.898438 0.355469 L 5.636719 0.480469 C 5.351562 0.183594 4.957031 0 4.515625 0 C 4.078125 0 3.679688 0.183594 3.398438 0.476562 L 3.132812 0.351562 C 2.96875 0.273438 2.777344 0.34375 2.699219 0.507812 C 2.625 0.667969 2.695312 0.863281 2.855469 0.9375 L 3.054688 1.03125 C 3 1.195312 2.964844 1.367188 2.964844 1.546875 C 2.964844 2.402344 3.660156 3.097656 4.515625 3.097656 C 5.371094 3.097656 6.0625 2.402344 6.0625 1.546875 C 6.0625 1.371094 6.03125 1.199219 5.976562 1.039062 L 6.175781 0.945312 C 6.335938 0.871094 6.40625 0.675781 6.332031 0.511719 Z M 6.332031 0.511719 "/>
</g>
</svg>
