<?xml version="1.0" encoding="UTF-8"?>
<svg xmlns="http://www.w3.org/2000/svg" xmlns:xlink="http://www.w3.org/1999/xlink" width="11" height="8.654411" viewBox="0 0 11 8.654411">
<path fill-rule="nonzero" fill="rgb(30%,30%,30%)" fill-opacity="1" d="M 8.539062 3.695312 C 8.550781 3.664062 8.550781 3.628906 8.539062 3.589844 L 8.492188 1.789062 L 11 1.050781 L 5.339844 0 L 0 1.050781 L 1.132812 1.386719 L 1.082031 4.546875 L 0.847656 4.894531 L 0.847656 5.59375 L 1.78125 5.59375 L 1.78125 4.894531 L 1.546875 4.523438 L 1.460938 1.484375 L 2.628906 1.832031 L 2.628906 3.035156 C 2.628906 3.101562 2.667969 3.164062 2.734375 3.226562 C 2.539062 3.21875 2.183594 3.234375 2.183594 3.234375 L 2.183594 6.390625 L 4.691406 8.65625 L 10.515625 7.601562 L 10.515625 7.214844 L 5.230469 8.105469 C 4.925781 8.160156 4.628906 7.953125 4.574219 7.648438 C 4.519531 7.339844 4.726562 7.046875 5.035156 6.992188 C 5.035156 6.992188 10.230469 6.132812 10.515625 6.171875 L 10.515625 5.527344 L 5.3125 6.40625 C 5.003906 6.460938 4.710938 6.253906 4.65625 5.949219 C 4.601562 5.640625 4.808594 5.347656 5.113281 5.292969 C 5.113281 5.292969 10.257812 4.433594 10.515625 4.460938 L 10.515625 3.964844 L 8.574219 3.558594 C 8.574219 3.558594 8.601562 3.613281 8.539062 3.695312 Z M 8.539062 3.695312 "/>
</svg>
