<?xml version="1.0" encoding="UTF-8"?>
<svg xmlns="http://www.w3.org/2000/svg" xmlns:xlink="http://www.w3.org/1999/xlink" width="11" height="10.538096" viewBox="0 0 11 10.538096">
<path fill-rule="nonzero" fill="rgb(30%,30%,30%)" fill-opacity="1" d="M 10.644531 5.292969 C 10.566406 5.359375 10.484375 5.425781 10.402344 5.484375 L 10.394531 5.492188 L 10.386719 5.496094 C 10.085938 5.691406 9.769531 5.855469 9.4375 5.984375 L 9.429688 5.984375 L 9.417969 5.988281 C 9.238281 6.050781 9.054688 6.097656 8.867188 6.132812 L 8.832031 6.136719 L 8.800781 6.136719 C 8.71875 6.136719 8.285156 6.144531 7.496094 6.148438 C 7.414062 6.144531 7.34375 6.199219 7.324219 6.28125 C 7.226562 6.808594 6.734375 7.214844 6.148438 7.214844 L 4.792969 7.214844 C 4.207031 7.214844 3.714844 6.8125 3.617188 6.285156 C 3.601562 6.203125 3.527344 6.148438 3.445312 6.152344 C 2.664062 6.148438 2.226562 6.144531 2.144531 6.144531 L 2.109375 6.144531 L 2.078125 6.136719 C 1.890625 6.105469 1.703125 6.054688 1.523438 5.992188 L 1.507812 5.992188 C 1.175781 5.859375 0.859375 5.695312 0.558594 5.5 L 0.542969 5.484375 C 0.457031 5.425781 0.378906 5.363281 0.300781 5.292969 C 0.234375 5.234375 0 5.042969 0 5.042969 L 0 9.246094 C 0 10.527344 1.152344 10.539062 2.574219 10.539062 L 8.367188 10.539062 C 9.789062 10.539062 11 10.527344 11 9.246094 L 11 5.042969 C 11.003906 5.042969 10.710938 5.230469 10.644531 5.292969 Z M 10.644531 5.292969 "/>
<path fill-rule="nonzero" fill="rgb(30%,30%,30%)" fill-opacity="1" d="M 0.828125 4.945312 C 1.097656 5.121094 1.386719 5.269531 1.6875 5.386719 C 1.835938 5.4375 1.992188 5.480469 2.144531 5.507812 C 2.15625 5.507812 2.167969 5.511719 2.179688 5.511719 C 2.261719 5.511719 2.578125 5.515625 3.683594 5.519531 L 3.882812 5.519531 C 3.972656 5.515625 4.050781 5.585938 4.054688 5.675781 L 4.054688 5.875 C 4.070312 6.273438 4.394531 6.585938 4.792969 6.582031 L 6.039062 6.582031 C 6.433594 6.585938 6.761719 6.277344 6.777344 5.882812 L 6.78125 5.683594 C 6.789062 5.59375 6.867188 5.527344 6.957031 5.527344 L 7.300781 5.527344 C 7.300781 5.527344 7.472656 5.535156 7.71875 5.535156 C 8.144531 5.539062 8.570312 5.515625 8.992188 5.457031 L 9.015625 5.453125 C 9.136719 5.421875 9.257812 5.382812 9.375 5.335938 L 9.394531 5.328125 C 9.792969 5.140625 10.078125 4.964844 10.238281 4.816406 C 10.238281 4.816406 11 4.300781 11 4.0625 L 11 2.917969 C 11 1.726562 9.808594 1.847656 8.484375 1.847656 L 7.480469 1.847656 L 7.480469 1 C 7.480469 0.449219 7.03125 0 6.480469 0 L 4.429688 0 C 3.875 0 3.429688 0.449219 3.425781 1 L 3.425781 1.847656 L 2.285156 1.847656 C 0.957031 1.847656 0.00390625 1.726562 0.00390625 2.921875 L 0.00390625 4.0625 C 0.109375 4.515625 0.449219 4.667969 0.828125 4.945312 Z M 4.113281 1 C 4.113281 0.828125 4.253906 0.6875 4.429688 0.6875 L 6.480469 0.6875 C 6.652344 0.6875 6.796875 0.828125 6.796875 1 L 6.796875 1.847656 L 4.113281 1.847656 Z M 4.113281 1 "/>
</svg>
