<?xml version="1.0" encoding="UTF-8" standalone="no"?>
<!-- Created with Inkscape (http://www.inkscape.org/) -->

<svg
   xmlns:dc="http://purl.org/dc/elements/1.1/"
   xmlns:cc="http://creativecommons.org/ns#"
   xmlns:rdf="http://www.w3.org/1999/02/22-rdf-syntax-ns#"
   xmlns:svg="http://www.w3.org/2000/svg"
   xmlns="http://www.w3.org/2000/svg"
   xmlns:xlink="http://www.w3.org/1999/xlink"
   xmlns:sodipodi="http://sodipodi.sourceforge.net/DTD/sodipodi-0.dtd"
   xmlns:inkscape="http://www.inkscape.org/namespaces/inkscape"
   width="30px"
   height="30px"
   version="1.1"
   id="svg8"
   inkscape:version="0.92.4 5da689c313, 2019-01-14"
   sodipodi:docname="container.svg">
  <defs
     id="defs2" />
  <sodipodi:namedview
     id="base"
     pagecolor="#ffffff"
     bordercolor="#666666"
     borderopacity="1.0"
     inkscape:pageopacity="0.0"
     inkscape:pageshadow="2"
     inkscape:zoom="13.049334"
     inkscape:cx="18.679046"
     inkscape:cy="12.165829"
     inkscape:document-units="px"
     inkscape:current-layer="layer1"
     showgrid="false"
     inkscape:snap-page="false"
     units="px"
     inkscape:window-width="1884"
     inkscape:window-height="1061"
     inkscape:window-x="0"
     inkscape:window-y="0"
     inkscape:window-maximized="1"
     fit-margin-top="0"
     fit-margin-left="0"
     fit-margin-right="0"
     fit-margin-bottom="0" />
  <metadata
     id="metadata5">
    <rdf:RDF>
      <cc:Work
         rdf:about="">
        <dc:format>image/svg+xml</dc:format>
        <dc:type
           rdf:resource="http://purl.org/dc/dcmitype/StillImage" />
        <dc:title></dc:title>
      </cc:Work>
    </rdf:RDF>
  </metadata>
    <circle
       style="color:#000000;clip-rule:nonzero;display:inline;overflow:visible;visibility:visible;opacity:1;isolation:auto;mix-blend-mode:normal;color-interpolation:sRGB;color-interpolation-filters:linearRGB;solid-color:#000000;solid-opacity:1;vector-effect:none;fill:#ffffff;fill-opacity:1;fill-rule:evenodd;stroke:#4076f6;stroke-width:1;stroke-linecap:butt;stroke-linejoin:miter;stroke-miterlimit:4;stroke-dasharray:none;stroke-dashoffset:0;stroke-opacity:1;marker:none;color-rendering:auto;image-rendering:auto;shape-rendering:auto;text-rendering:auto;enable-background:accumulate"
       id="path815"
       cx="15"
       cy="15"
       r="14.5" />
<g transform="translate(8.5,6.5)"><path fill-rule="nonzero" fill="rgb(30%,30%,30%)" fill-opacity="1" d="M 13.328125 4.558594 L 13.277344 4.484375 C 13.011719 4.101562 12.488281 4.007812 12.105469 4.269531 L 8.515625 6.753906 C 8.515625 6.753906 7.582031 7.222656 6.726562 7.210938 C 5.898438 7.203125 4.960938 6.753906 4.960938 6.753906 L 1.371094 4.269531 C 0.988281 4.007812 0.460938 4.101562 0.199219 4.484375 L 0.148438 4.558594 C -0.113281 4.9375 -0.0195312 5.464844 0.363281 5.726562 L 4.074219 8.292969 L 4.074219 16.035156 C 4.074219 16.566406 4.507812 17 5.039062 17 L 5.09375 17 C 5.625 17 6.058594 16.566406 6.058594 16.035156 L 6.058594 13.53125 C 6.058594 13.078125 6.25 12.820312 6.734375 12.8125 C 7.175781 12.8125 7.410156 13.050781 7.410156 13.5 C 7.410156 13.679688 7.417969 16.035156 7.417969 16.035156 C 7.417969 16.566406 7.851562 17 8.382812 17 L 8.4375 17 C 8.96875 17 9.402344 16.566406 9.402344 16.035156 L 9.402344 8.292969 L 13.113281 5.726562 C 13.496094 5.464844 13.589844 4.9375 13.328125 4.558594 Z M 13.328125 4.558594 "/>
<path fill-rule="nonzero" fill="rgb(30%,30%,30%)" fill-opacity="1" d="M 7.160156 1.003906 C 6.789062 0.410156 7.441406 -0.0078125 7.417969 0 C 6.441406 0.355469 6.214844 0.75 6.195312 1.027344 C 4.945312 1.277344 4 2.386719 4 3.714844 C 4 5.226562 5.230469 6.453125 6.742188 6.453125 C 8.257812 6.453125 9.484375 5.226562 9.484375 3.714844 C 9.484375 2.339844 8.476562 1.207031 7.160156 1.003906 Z M 7.160156 1.003906 "/>
</g>
</svg>
