<?xml version="1.0" encoding="UTF-8" standalone="no"?>
<!-- Created with Inkscape (http://www.inkscape.org/) -->

<svg
   xmlns:dc="http://purl.org/dc/elements/1.1/"
   xmlns:cc="http://creativecommons.org/ns#"
   xmlns:rdf="http://www.w3.org/1999/02/22-rdf-syntax-ns#"
   xmlns:svg="http://www.w3.org/2000/svg"
   xmlns="http://www.w3.org/2000/svg"
   xmlns:xlink="http://www.w3.org/1999/xlink"
   xmlns:sodipodi="http://sodipodi.sourceforge.net/DTD/sodipodi-0.dtd"
   xmlns:inkscape="http://www.inkscape.org/namespaces/inkscape"
   width="30px"
   height="30px"
   version="1.1"
   id="svg8"
   inkscape:version="0.92.4 5da689c313, 2019-01-14"
   sodipodi:docname="container.svg">
  <defs
     id="defs2" />
  <sodipodi:namedview
     id="base"
     pagecolor="#ffffff"
     bordercolor="#666666"
     borderopacity="1.0"
     inkscape:pageopacity="0.0"
     inkscape:pageshadow="2"
     inkscape:zoom="13.049334"
     inkscape:cx="18.679046"
     inkscape:cy="12.165829"
     inkscape:document-units="px"
     inkscape:current-layer="layer1"
     showgrid="false"
     inkscape:snap-page="false"
     units="px"
     inkscape:window-width="1884"
     inkscape:window-height="1061"
     inkscape:window-x="0"
     inkscape:window-y="0"
     inkscape:window-maximized="1"
     fit-margin-top="0"
     fit-margin-left="0"
     fit-margin-right="0"
     fit-margin-bottom="0" />
  <metadata
     id="metadata5">
    <rdf:RDF>
      <cc:Work
         rdf:about="">
        <dc:format>image/svg+xml</dc:format>
        <dc:type
           rdf:resource="http://purl.org/dc/dcmitype/StillImage" />
        <dc:title></dc:title>
      </cc:Work>
    </rdf:RDF>
  </metadata>
    <circle
       style="color:#000000;clip-rule:nonzero;display:inline;overflow:visible;visibility:visible;opacity:1;isolation:auto;mix-blend-mode:normal;color-interpolation:sRGB;color-interpolation-filters:linearRGB;solid-color:#000000;solid-opacity:1;vector-effect:none;fill:#ffffff;fill-opacity:1;fill-rule:evenodd;stroke:#4076f6;stroke-width:1;stroke-linecap:butt;stroke-linejoin:miter;stroke-miterlimit:4;stroke-dasharray:none;stroke-dashoffset:0;stroke-opacity:1;marker:none;color-rendering:auto;image-rendering:auto;shape-rendering:auto;text-rendering:auto;enable-background:accumulate"
       id="path815"
       cx="15"
       cy="15"
       r="14.5" />
<g transform="translate(8.5,6.5)"><path fill-rule="nonzero" fill="rgb(30%,30%,30%)" fill-opacity="1" d="M 9.179688 2.738281 C 9.179688 4.246094 7.953125 5.472656 6.441406 5.472656 C 4.929688 5.472656 3.707031 4.246094 3.707031 2.738281 C 3.707031 1.226562 4.929688 0 6.441406 0 C 7.953125 0 9.179688 1.226562 9.179688 2.738281 Z M 9.179688 2.738281 "/>
<path fill-rule="nonzero" fill="rgb(30%,30%,30%)" fill-opacity="1" d="M 7.003906 13.09375 C 7.003906 13.394531 6.757812 13.640625 6.457031 13.640625 C 6.15625 13.640625 5.910156 13.394531 5.910156 13.09375 C 5.910156 12.792969 6.15625 12.546875 6.457031 12.546875 C 6.757812 12.546875 7.003906 12.792969 7.003906 13.09375 Z M 7.003906 13.09375 "/>
<path fill-rule="nonzero" fill="rgb(30%,30%,30%)" fill-opacity="1" d="M 11.242188 14.078125 L 10.988281 14.09375 C 11.730469 13.898438 11.914062 13.824219 12.171875 13.71875 C 12.703125 13.5 13.011719 12.941406 12.914062 12.378906 L 12.648438 10.792969 C 12.203125 7.730469 10.386719 5.882812 7.5 5.886719 L 5.746094 5.886719 C 2.855469 5.890625 0.496094 6.777344 0.0625 10.71875 L 0 12.609375 C -0.015625 13.136719 0.304688 13.609375 0.792969 13.792969 C 1.070312 13.894531 1.375 14.003906 1.636719 14.082031 L 1.625 14.078125 C 1.273438 14.078125 1.1875 14.300781 1.25 14.648438 L 1.625 16.707031 C 1.675781 16.988281 1.921875 17 2.203125 17 L 10.417969 17 C 10.789062 17 11.105469 17.019531 11.171875 16.65625 L 11.488281 14.710938 C 11.550781 14.375 11.578125 14.078125 11.242188 14.078125 Z M 2.132812 16.4375 L 2.132812 9.84375 L 10.660156 9.835938 L 10.660156 16.449219 Z M 2.132812 16.4375 "/>
</g>
</svg>
