<?xml version="1.0" encoding="UTF-8" standalone="no"?>
<!-- Created with Inkscape (http://www.inkscape.org/) -->

<svg
   xmlns:dc="http://purl.org/dc/elements/1.1/"
   xmlns:cc="http://creativecommons.org/ns#"
   xmlns:rdf="http://www.w3.org/1999/02/22-rdf-syntax-ns#"
   xmlns:svg="http://www.w3.org/2000/svg"
   xmlns="http://www.w3.org/2000/svg"
   xmlns:xlink="http://www.w3.org/1999/xlink"
   xmlns:sodipodi="http://sodipodi.sourceforge.net/DTD/sodipodi-0.dtd"
   xmlns:inkscape="http://www.inkscape.org/namespaces/inkscape"
   width="30px"
   height="30px"
   version="1.1"
   id="svg8"
   inkscape:version="0.92.4 5da689c313, 2019-01-14"
   sodipodi:docname="container.svg">
  <defs
     id="defs2" />
  <sodipodi:namedview
     id="base"
     pagecolor="#ffffff"
     bordercolor="#666666"
     borderopacity="1.0"
     inkscape:pageopacity="0.0"
     inkscape:pageshadow="2"
     inkscape:zoom="13.049334"
     inkscape:cx="18.679046"
     inkscape:cy="12.165829"
     inkscape:document-units="px"
     inkscape:current-layer="layer1"
     showgrid="false"
     inkscape:snap-page="false"
     units="px"
     inkscape:window-width="1884"
     inkscape:window-height="1061"
     inkscape:window-x="0"
     inkscape:window-y="0"
     inkscape:window-maximized="1"
     fit-margin-top="0"
     fit-margin-left="0"
     fit-margin-right="0"
     fit-margin-bottom="0" />
  <metadata
     id="metadata5">
    <rdf:RDF>
      <cc:Work
         rdf:about="">
        <dc:format>image/svg+xml</dc:format>
        <dc:type
           rdf:resource="http://purl.org/dc/dcmitype/StillImage" />
        <dc:title></dc:title>
      </cc:Work>
    </rdf:RDF>
  </metadata>
    <circle
       style="color:#000000;clip-rule:nonzero;display:inline;overflow:visible;visibility:visible;opacity:1;isolation:auto;mix-blend-mode:normal;color-interpolation:sRGB;color-interpolation-filters:linearRGB;solid-color:#000000;solid-opacity:1;vector-effect:none;fill:#4076f6;fill-opacity:1;fill-rule:evenodd;stroke:#ffffff;stroke-width:1;stroke-linecap:butt;stroke-linejoin:miter;stroke-miterlimit:4;stroke-dasharray:none;stroke-dashoffset:0;stroke-opacity:1;marker:none;color-rendering:auto;image-rendering:auto;shape-rendering:auto;text-rendering:auto;enable-background:accumulate"
       id="path815"
       cx="15"
       cy="15"
       r="14.5" />
<g transform="translate(9.0,6.5)"><path fill-rule="nonzero" fill="#FFFFFF" fill-opacity="1" d="M 2.859375 9.933594 C 1.550781 9.933594 1.273438 10.375 1.273438 10.886719 C 1.273438 11.398438 1.53125 11.722656 2.859375 11.796875 L 11.949219 11.796875 L 11.949219 9.933594 Z M 2.859375 9.933594 "/>
<path fill-rule="nonzero" fill="#FFFFFF" fill-opacity="1" d="M 12.097656 12.835938 L 2.171875 12.835938 C 0.988281 12.835938 0.0195312 11.949219 0.0195312 10.863281 C 0.0195312 9.777344 0.988281 8.894531 2.171875 8.894531 L 12.097656 8.894531 C 12.308594 8.894531 12.480469 9.050781 12.480469 9.246094 C 12.480469 9.441406 12.308594 9.597656 12.097656 9.597656 L 2.171875 9.597656 C 1.410156 9.597656 0.792969 10.164062 0.792969 10.863281 C 0.792969 11.5625 1.410156 12.128906 2.171875 12.128906 L 12.097656 12.128906 C 12.308594 12.128906 12.480469 12.289062 12.480469 12.484375 C 12.480469 12.675781 12.308594 12.835938 12.097656 12.835938 Z M 12.097656 12.835938 "/>
<path fill-rule="nonzero" fill="#FFFFFF" fill-opacity="1" d="M 2.835938 14.097656 C 1.53125 14.097656 1.253906 14.539062 1.253906 15.050781 C 1.253906 15.5625 1.507812 15.886719 2.835938 15.960938 L 11.929688 15.960938 L 11.929688 14.097656 Z M 2.835938 14.097656 "/>
<path fill-rule="nonzero" fill="#FFFFFF" fill-opacity="1" d="M 12.078125 17 L 2.152344 17 C 0.964844 17 0 16.117188 0 15.027344 C 0 13.941406 0.964844 13.058594 2.152344 13.058594 L 12.078125 13.058594 C 12.289062 13.058594 12.460938 13.214844 12.460938 13.410156 C 12.460938 13.605469 12.289062 13.761719 12.078125 13.761719 L 2.152344 13.761719 C 1.390625 13.761719 0.769531 14.332031 0.769531 15.027344 C 0.769531 15.726562 1.390625 16.292969 2.152344 16.292969 L 12.078125 16.292969 C 12.289062 16.292969 12.460938 16.453125 12.460938 16.648438 C 12.460938 16.84375 12.289062 17 12.078125 17 Z M 12.078125 17 "/>
<path fill-rule="nonzero" fill="#FFFFFF" fill-opacity="1" d="M 6.195312 8.195312 C 5.820312 8.195312 5.355469 8.636719 4.511719 8.601562 C 3.824219 8.570312 2.457031 7.261719 2.457031 4.644531 C 2.457031 3.042969 4.261719 1.308594 6.007812 2.726562 C 5.914062 2.34375 5.6875 1.707031 4.96875 1.425781 C 4.875 1.386719 4.828125 1.28125 4.867188 1.1875 C 4.902344 1.09375 5.011719 1.050781 5.101562 1.085938 C 5.410156 1.207031 5.917969 1.671875 6.101562 1.871094 C 6.058594 1.585938 6.414062 0.890625 6.597656 0.6875 C 7.253906 -0.03125 8.09375 0 8.09375 0 C 8.09375 0 8.28125 0.746094 7.347656 1.589844 C 7.117188 1.796875 6.410156 1.996094 6.132812 1.902344 C 6.273438 2.160156 6.363281 2.539062 6.40625 2.726562 C 7.191406 1.996094 9.902344 1.679688 9.902344 4.644531 C 9.902344 7.074219 8.625 8.601562 7.78125 8.601562 C 7.066406 8.601562 6.527344 8.195312 6.195312 8.195312 Z M 6.195312 8.195312 "/>
</g>
</svg>
