<?xml version="1.0" encoding="UTF-8" standalone="no"?>
<!-- Created with Inkscape (http://www.inkscape.org/) -->

<svg
   xmlns:dc="http://purl.org/dc/elements/1.1/"
   xmlns:cc="http://creativecommons.org/ns#"
   xmlns:rdf="http://www.w3.org/1999/02/22-rdf-syntax-ns#"
   xmlns:svg="http://www.w3.org/2000/svg"
   xmlns="http://www.w3.org/2000/svg"
   xmlns:xlink="http://www.w3.org/1999/xlink"
   xmlns:sodipodi="http://sodipodi.sourceforge.net/DTD/sodipodi-0.dtd"
   xmlns:inkscape="http://www.inkscape.org/namespaces/inkscape"
   width="30px"
   height="30px"
   version="1.1"
   id="svg8"
   inkscape:version="0.92.4 5da689c313, 2019-01-14"
   sodipodi:docname="container.svg">
  <defs
     id="defs2" />
  <sodipodi:namedview
     id="base"
     pagecolor="#ffffff"
     bordercolor="#666666"
     borderopacity="1.0"
     inkscape:pageopacity="0.0"
     inkscape:pageshadow="2"
     inkscape:zoom="13.049334"
     inkscape:cx="18.679046"
     inkscape:cy="12.165829"
     inkscape:document-units="px"
     inkscape:current-layer="layer1"
     showgrid="false"
     inkscape:snap-page="false"
     units="px"
     inkscape:window-width="1884"
     inkscape:window-height="1061"
     inkscape:window-x="0"
     inkscape:window-y="0"
     inkscape:window-maximized="1"
     fit-margin-top="0"
     fit-margin-left="0"
     fit-margin-right="0"
     fit-margin-bottom="0" />
  <metadata
     id="metadata5">
    <rdf:RDF>
      <cc:Work
         rdf:about="">
        <dc:format>image/svg+xml</dc:format>
        <dc:type
           rdf:resource="http://purl.org/dc/dcmitype/StillImage" />
        <dc:title></dc:title>
      </cc:Work>
    </rdf:RDF>
  </metadata>
    <circle
       style="color:#000000;clip-rule:nonzero;display:inline;overflow:visible;visibility:visible;opacity:1;isolation:auto;mix-blend-mode:normal;color-interpolation:sRGB;color-interpolation-filters:linearRGB;solid-color:#000000;solid-opacity:1;vector-effect:none;fill:#4076f6;fill-opacity:1;fill-rule:evenodd;stroke:#ffffff;stroke-width:1;stroke-linecap:butt;stroke-linejoin:miter;stroke-miterlimit:4;stroke-dasharray:none;stroke-dashoffset:0;stroke-opacity:1;marker:none;color-rendering:auto;image-rendering:auto;shape-rendering:auto;text-rendering:auto;enable-background:accumulate"
       id="path815"
       cx="15"
       cy="15"
       r="14.5" />
<g transform="translate(8.0,6.5)"><path fill-rule="nonzero" fill="#FFFFFF" fill-opacity="1" d="M 14.179688 2.222656 L 7.523438 2.222656 C 7.539062 2.175781 7.550781 2.125 7.550781 2.074219 L 7.550781 0.492188 C 7.550781 0.222656 7.328125 0 7.054688 0 C 6.785156 0 6.5625 0.222656 6.5625 0.492188 L 6.5625 2.074219 C 6.5625 2.125 6.574219 2.175781 6.589844 2.222656 L 0 2.222656 L 0 10.636719 L 3.171875 10.636719 L 1.394531 16.359375 C 1.3125 16.621094 1.460938 16.898438 1.71875 16.976562 C 1.769531 16.992188 1.816406 17 1.867188 17 C 2.078125 17 2.269531 16.863281 2.335938 16.652344 L 3.398438 13.234375 L 10.867188 13.203125 L 11.980469 16.65625 C 12.046875 16.867188 12.242188 17 12.449219 17 C 12.5 17 12.550781 16.992188 12.601562 16.976562 C 12.863281 16.894531 13.003906 16.613281 12.921875 16.355469 L 11.078125 10.636719 L 14.179688 10.636719 Z M 3.707031 12.246094 L 4.207031 10.636719 L 10.042969 10.636719 L 10.550781 12.214844 Z M 2.542969 6.332031 L 2.308594 7.175781 L 1.535156 7.175781 L 2.542969 3.882812 L 3.519531 3.882812 L 4.542969 7.175781 L 3.738281 7.175781 L 3.484375 6.332031 Z M 3.378906 5.773438 L 3.171875 5.074219 C 3.113281 4.878906 3.054688 4.636719 3.007812 4.441406 L 2.996094 4.441406 C 2.949219 4.636719 2.898438 4.886719 2.84375 5.074219 L 2.648438 5.773438 Z M 6.191406 5.929688 C 6.386719 5.890625 6.785156 5.859375 7.15625 5.859375 C 7.609375 5.859375 7.886719 5.90625 8.128906 6.046875 C 8.355469 6.167969 8.523438 6.394531 8.523438 6.691406 C 8.523438 6.984375 8.351562 7.257812 7.980469 7.394531 L 7.980469 7.40625 C 8.355469 7.507812 8.636719 7.789062 8.636719 8.214844 C 8.636719 8.515625 8.5 8.75 8.292969 8.914062 C 8.054688 9.105469 7.652344 9.210938 7 9.210938 C 6.632812 9.210938 6.359375 9.1875 6.191406 9.164062 Z M 6.929688 7.191406 L 7.175781 7.191406 C 7.566406 7.191406 7.773438 7.027344 7.773438 6.785156 C 7.773438 6.535156 7.585938 6.402344 7.246094 6.402344 C 7.085938 6.402344 6.992188 6.414062 6.929688 6.421875 Z M 6.929688 8.652344 C 7.003906 8.660156 7.089844 8.660156 7.21875 8.660156 C 7.554688 8.660156 7.851562 8.535156 7.851562 8.1875 C 7.851562 7.855469 7.554688 7.722656 7.183594 7.722656 L 6.929688 7.722656 Z M 12.75 7.085938 C 12.613281 7.152344 12.304688 7.226562 11.90625 7.226562 C 10.765625 7.226562 10.179688 6.515625 10.179688 5.578125 C 10.179688 4.453125 10.980469 3.828125 11.976562 3.828125 C 12.363281 3.828125 12.65625 3.90625 12.789062 3.976562 L 12.636719 4.566406 C 12.484375 4.503906 12.277344 4.445312 12.011719 4.445312 C 11.421875 4.445312 10.960938 4.800781 10.960938 5.535156 C 10.960938 6.195312 11.351562 6.609375 12.015625 6.609375 C 12.242188 6.609375 12.492188 6.5625 12.636719 6.503906 Z M 12.75 7.085938 "/>
</g>
</svg>
