<?xml version="1.0" encoding="UTF-8" standalone="no"?>
<!-- Created with Inkscape (http://www.inkscape.org/) -->

<svg
   xmlns:dc="http://purl.org/dc/elements/1.1/"
   xmlns:cc="http://creativecommons.org/ns#"
   xmlns:rdf="http://www.w3.org/1999/02/22-rdf-syntax-ns#"
   xmlns:svg="http://www.w3.org/2000/svg"
   xmlns="http://www.w3.org/2000/svg"
   xmlns:xlink="http://www.w3.org/1999/xlink"
   xmlns:sodipodi="http://sodipodi.sourceforge.net/DTD/sodipodi-0.dtd"
   xmlns:inkscape="http://www.inkscape.org/namespaces/inkscape"
   width="30px"
   height="30px"
   version="1.1"
   id="svg8"
   inkscape:version="0.92.4 5da689c313, 2019-01-14"
   sodipodi:docname="container.svg">
  <defs
     id="defs2" />
  <sodipodi:namedview
     id="base"
     pagecolor="#ffffff"
     bordercolor="#666666"
     borderopacity="1.0"
     inkscape:pageopacity="0.0"
     inkscape:pageshadow="2"
     inkscape:zoom="13.049334"
     inkscape:cx="18.679046"
     inkscape:cy="12.165829"
     inkscape:document-units="px"
     inkscape:current-layer="layer1"
     showgrid="false"
     inkscape:snap-page="false"
     units="px"
     inkscape:window-width="1884"
     inkscape:window-height="1061"
     inkscape:window-x="0"
     inkscape:window-y="0"
     inkscape:window-maximized="1"
     fit-margin-top="0"
     fit-margin-left="0"
     fit-margin-right="0"
     fit-margin-bottom="0" />
  <metadata
     id="metadata5">
    <rdf:RDF>
      <cc:Work
         rdf:about="">
        <dc:format>image/svg+xml</dc:format>
        <dc:type
           rdf:resource="http://purl.org/dc/dcmitype/StillImage" />
        <dc:title></dc:title>
      </cc:Work>
    </rdf:RDF>
  </metadata>
    <circle
       style="color:#000000;clip-rule:nonzero;display:inline;overflow:visible;visibility:visible;opacity:1;isolation:auto;mix-blend-mode:normal;color-interpolation:sRGB;color-interpolation-filters:linearRGB;solid-color:#000000;solid-opacity:1;vector-effect:none;fill:#ffffff;fill-opacity:1;fill-rule:evenodd;stroke:#4076f6;stroke-width:1;stroke-linecap:butt;stroke-linejoin:miter;stroke-miterlimit:4;stroke-dasharray:none;stroke-dashoffset:0;stroke-opacity:1;marker:none;color-rendering:auto;image-rendering:auto;shape-rendering:auto;text-rendering:auto;enable-background:accumulate"
       id="path815"
       cx="15"
       cy="15"
       r="14.5" />
<g transform="translate(7.5,6.5)"><path fill-rule="nonzero" fill="rgb(30%,30%,30%)" fill-opacity="1" d="M 6.878906 2.554688 C 6.878906 3.503906 6.109375 4.273438 5.160156 4.273438 C 4.210938 4.273438 3.441406 3.503906 3.441406 2.554688 C 3.441406 1.605469 4.210938 0.835938 5.160156 0.835938 C 6.109375 0.835938 6.878906 1.605469 6.878906 2.554688 Z M 6.878906 2.554688 "/>
<path fill-rule="nonzero" fill="rgb(30%,30%,30%)" fill-opacity="1" d="M 11.722656 2.578125 C 11.722656 3.527344 10.953125 4.296875 10 4.296875 C 9.050781 4.296875 8.28125 3.527344 8.28125 2.578125 C 8.28125 1.628906 9.050781 0.859375 10 0.859375 C 10.953125 0.859375 11.722656 1.628906 11.722656 2.578125 Z M 11.722656 2.578125 "/>
<path fill-rule="nonzero" fill="rgb(30%,30%,30%)" fill-opacity="1" d="M 15.199219 1.140625 C 15.199219 -0.40625 13.769531 -0.164062 13.769531 0.863281 L 13.765625 1.871094 C 13.707031 3.277344 13.296875 3.863281 12.667969 4.410156 C 12.445312 3.957031 11.90625 3.941406 11.308594 4.246094 C 10.042969 4.886719 8.855469 4.820312 7.625 4.820312 C 6.347656 4.765625 4.910156 5.03125 4.023438 4.234375 C 3.457031 3.824219 2.585938 3.839844 2.707031 4.417969 C 1.96875 3.898438 1.667969 3.160156 1.558594 1.875 L 1.429688 0.820312 C 1.429688 -0.207031 0 -0.4375 0 1.109375 L 0.0234375 2.378906 C 0.0625 4.019531 1.3125 5.65625 3 6.085938 L 3 16.371094 C 3 16.714844 3.277344 17 3.621094 17 L 4.132812 17 C 4.476562 17 4.757812 16.714844 4.757812 16.371094 L 4.757812 11.417969 C 4.859375 11.433594 4.964844 11.449219 5.074219 11.449219 C 5.207031 11.449219 5.335938 11.433594 5.460938 11.410156 L 5.476562 16.367188 C 5.476562 16.707031 5.707031 17 6.046875 17 L 6.613281 17 C 6.957031 17 7.128906 16.675781 7.128906 16.332031 L 7.214844 6.914062 C 7.214844 6.726562 7.371094 6.371094 7.558594 6.375 C 7.558594 6.375 7.65625 6.378906 7.660156 6.378906 C 7.917969 6.386719 8.03125 6.671875 8.03125 6.929688 L 8.027344 16.382812 C 8.027344 16.722656 8.304688 17 8.644531 17 L 9.171875 17 C 9.511719 17 9.785156 16.726562 9.785156 16.386719 L 9.785156 11.414062 C 9.894531 11.433594 10.007812 11.449219 10.125 11.449219 C 10.230469 11.449219 10.328125 11.433594 10.429688 11.417969 L 10.429688 16.316406 C 10.429688 16.660156 10.707031 17 11.046875 17 L 11.570312 17 C 11.910156 17 12.1875 16.660156 12.1875 16.320312 L 12.1875 6.132812 C 13.882812 5.707031 15.050781 4.273438 15.175781 2.421875 Z M 15.199219 1.140625 "/>
</g>
</svg>
