<?xml version="1.0" encoding="UTF-8"?>
<svg xmlns="http://www.w3.org/2000/svg" xmlns:xlink="http://www.w3.org/1999/xlink" width="8.076851" height="11" viewBox="0 0 8.076851 11">
<path fill-rule="nonzero" fill="rgb(30%,30%,30%)" fill-opacity="1" d="M 1.847656 6.425781 C 1.003906 6.425781 0.824219 6.710938 0.824219 7.042969 C 0.824219 7.375 0.988281 7.585938 1.847656 7.632812 L 7.734375 7.632812 L 7.734375 6.425781 Z M 1.847656 6.425781 "/>
<path fill-rule="nonzero" fill="rgb(30%,30%,30%)" fill-opacity="1" d="M 7.828125 8.304688 L 1.40625 8.304688 C 0.636719 8.304688 0.015625 7.734375 0.015625 7.03125 C 0.015625 6.328125 0.636719 5.753906 1.40625 5.753906 L 7.828125 5.753906 C 7.964844 5.753906 8.078125 5.855469 8.078125 5.980469 C 8.078125 6.109375 7.964844 6.210938 7.828125 6.210938 L 1.40625 6.210938 C 0.914062 6.210938 0.511719 6.578125 0.511719 7.03125 C 0.511719 7.480469 0.914062 7.847656 1.40625 7.847656 L 7.828125 7.847656 C 7.964844 7.847656 8.078125 7.949219 8.078125 8.078125 C 8.078125 8.203125 7.964844 8.304688 7.828125 8.304688 Z M 7.828125 8.304688 "/>
<path fill-rule="nonzero" fill="rgb(30%,30%,30%)" fill-opacity="1" d="M 1.835938 9.121094 C 0.988281 9.121094 0.8125 9.40625 0.8125 9.738281 C 0.8125 10.070312 0.976562 10.28125 1.835938 10.328125 L 7.71875 10.328125 L 7.71875 9.121094 Z M 1.835938 9.121094 "/>
<path fill-rule="nonzero" fill="rgb(30%,30%,30%)" fill-opacity="1" d="M 7.8125 11 L 1.390625 11 C 0.625 11 0 10.429688 0 9.726562 C 0 9.019531 0.625 8.449219 1.390625 8.449219 L 7.8125 8.449219 C 7.953125 8.449219 8.0625 8.550781 8.0625 8.675781 C 8.0625 8.804688 7.953125 8.90625 7.8125 8.90625 L 1.390625 8.90625 C 0.898438 8.90625 0.5 9.273438 0.5 9.726562 C 0.5 10.175781 0.898438 10.542969 1.390625 10.542969 L 7.8125 10.542969 C 7.953125 10.542969 8.0625 10.644531 8.0625 10.773438 C 8.0625 10.898438 7.953125 11 7.8125 11 Z M 7.8125 11 "/>
<path fill-rule="nonzero" fill="rgb(30%,30%,30%)" fill-opacity="1" d="M 4.007812 5.300781 C 3.765625 5.300781 3.464844 5.589844 2.917969 5.566406 C 2.476562 5.542969 1.589844 4.699219 1.589844 3.003906 C 1.589844 1.96875 2.757812 0.847656 3.886719 1.765625 C 3.828125 1.515625 3.679688 1.105469 3.214844 0.921875 C 3.15625 0.898438 3.125 0.828125 3.148438 0.769531 C 3.171875 0.707031 3.242188 0.679688 3.300781 0.703125 C 3.5 0.78125 3.828125 1.082031 3.949219 1.210938 C 3.921875 1.023438 4.148438 0.574219 4.269531 0.445312 C 4.695312 -0.0195312 5.238281 0 5.238281 0 C 5.238281 0 5.359375 0.484375 4.753906 1.027344 C 4.605469 1.164062 4.148438 1.292969 3.96875 1.230469 C 4.058594 1.398438 4.117188 1.644531 4.144531 1.765625 C 4.652344 1.289062 6.40625 1.085938 6.40625 3.003906 C 6.40625 4.578125 5.582031 5.566406 5.035156 5.566406 C 4.574219 5.566406 4.222656 5.300781 4.007812 5.300781 Z M 4.007812 5.300781 "/>
</svg>
