<?xml version="1.0" encoding="UTF-8" standalone="no"?>
<!-- Created with Inkscape (http://www.inkscape.org/) -->

<svg
   xmlns:dc="http://purl.org/dc/elements/1.1/"
   xmlns:cc="http://creativecommons.org/ns#"
   xmlns:rdf="http://www.w3.org/1999/02/22-rdf-syntax-ns#"
   xmlns:svg="http://www.w3.org/2000/svg"
   xmlns="http://www.w3.org/2000/svg"
   xmlns:xlink="http://www.w3.org/1999/xlink"
   xmlns:sodipodi="http://sodipodi.sourceforge.net/DTD/sodipodi-0.dtd"
   xmlns:inkscape="http://www.inkscape.org/namespaces/inkscape"
   width="30px"
   height="30px"
   version="1.1"
   id="svg8"
   inkscape:version="0.92.4 5da689c313, 2019-01-14"
   sodipodi:docname="container.svg">
  <defs
     id="defs2" />
  <sodipodi:namedview
     id="base"
     pagecolor="#ffffff"
     bordercolor="#666666"
     borderopacity="1.0"
     inkscape:pageopacity="0.0"
     inkscape:pageshadow="2"
     inkscape:zoom="13.049334"
     inkscape:cx="18.679046"
     inkscape:cy="12.165829"
     inkscape:document-units="px"
     inkscape:current-layer="layer1"
     showgrid="false"
     inkscape:snap-page="false"
     units="px"
     inkscape:window-width="1884"
     inkscape:window-height="1061"
     inkscape:window-x="0"
     inkscape:window-y="0"
     inkscape:window-maximized="1"
     fit-margin-top="0"
     fit-margin-left="0"
     fit-margin-right="0"
     fit-margin-bottom="0" />
  <metadata
     id="metadata5">
    <rdf:RDF>
      <cc:Work
         rdf:about="">
        <dc:format>image/svg+xml</dc:format>
        <dc:type
           rdf:resource="http://purl.org/dc/dcmitype/StillImage" />
        <dc:title></dc:title>
      </cc:Work>
    </rdf:RDF>
  </metadata>
    <circle
       style="color:#000000;clip-rule:nonzero;display:inline;overflow:visible;visibility:visible;opacity:1;isolation:auto;mix-blend-mode:normal;color-interpolation:sRGB;color-interpolation-filters:linearRGB;solid-color:#000000;solid-opacity:1;vector-effect:none;fill:#4076f6;fill-opacity:1;fill-rule:evenodd;stroke:#ffffff;stroke-width:1;stroke-linecap:butt;stroke-linejoin:miter;stroke-miterlimit:4;stroke-dasharray:none;stroke-dashoffset:0;stroke-opacity:1;marker:none;color-rendering:auto;image-rendering:auto;shape-rendering:auto;text-rendering:auto;enable-background:accumulate"
       id="path815"
       cx="15"
       cy="15"
       r="14.5" />
<g transform="translate(9.0,6.5)"><path fill-rule="nonzero" fill="#FFFFFF" fill-opacity="1" d="M 12.097656 5.480469 C 12.097656 4.5 11.417969 3.765625 10.628906 3.382812 L 11.136719 1.042969 C 11.238281 0.582031 10.945312 0.121094 10.480469 0.0195312 C 10.019531 -0.0820312 9.558594 0.214844 9.457031 0.675781 L 8.933594 3.085938 L 8.476562 3.085938 L 8.476562 1.8125 C 8.476562 1.25 8.019531 0.792969 7.457031 0.792969 L 4.75 0.792969 C 4.1875 0.792969 3.730469 1.25 3.730469 1.8125 L 3.730469 3.085938 L 3.378906 3.085938 L 2.710938 0.71875 C 2.582031 0.261719 2.101562 -0.00390625 1.648438 0.125 C 1.191406 0.253906 0.925781 0.730469 1.054688 1.183594 L 1.691406 3.433594 C 0.949219 3.820312 0.324219 4.523438 0.324219 5.457031 L 0.335938 6.371094 C 0.335938 7.058594 0.726562 7.59375 1.230469 7.972656 C 1.488281 8.148438 1.839844 8.339844 2.15625 8.46875 C 2.332031 8.53125 2.503906 8.578125 2.664062 8.605469 C 2.714844 8.605469 3.003906 8.609375 4.300781 8.617188 L 4.699219 8.617188 L 4.703125 9.015625 C 4.707031 9.445312 5.0625 9.796875 5.492188 9.796875 L 6.832031 9.796875 C 7.261719 9.796875 7.617188 9.449219 7.625 9.023438 L 7.632812 8.625 L 8.1875 8.625 C 8.191406 8.625 8.375 8.632812 8.636719 8.632812 C 9.039062 8.632812 9.601562 8.617188 10.019531 8.546875 C 10.152344 8.511719 10.289062 8.464844 10.429688 8.410156 C 10.863281 8.199219 11.3125 7.8125 11.488281 7.648438 L 11.8125 7.328125 C 11.988281 7.050781 12.097656 6.730469 12.097656 6.371094 Z M 7.9375 3.085938 L 4.269531 3.085938 L 4.269531 1.8125 C 4.269531 1.546875 4.484375 1.332031 4.75 1.332031 L 7.457031 1.332031 C 7.722656 1.332031 7.9375 1.546875 7.9375 1.8125 Z M 7.9375 3.085938 "/>
<path fill-rule="nonzero" fill="#FFFFFF" fill-opacity="1" d="M 8.171875 9.03125 C 8.171875 9.03125 8.121094 9.027344 8.027344 9.027344 C 8.015625 9.675781 7.484375 10.203125 6.832031 10.203125 L 5.492188 10.203125 C 4.839844 10.203125 4.304688 9.671875 4.300781 9.019531 C 3.402344 9.015625 2.691406 9.011719 2.636719 9.007812 C 2.492188 8.996094 2.308594 8.949219 2.109375 8.878906 C 2.105469 8.933594 2.101562 8.992188 2.101562 9.050781 L 2.101562 12.449219 C 2.101562 13.589844 3.03125 14.519531 4.171875 14.519531 L 8.128906 14.519531 C 9.273438 14.519531 10.203125 13.589844 10.203125 12.449219 L 10.203125 9.050781 C 10.203125 9.007812 10.199219 8.964844 10.195312 8.921875 C 10.167969 8.925781 10.140625 8.933594 10.117188 8.941406 C 9.355469 9.074219 8.171875 9.03125 8.171875 9.03125 Z M 8.171875 9.03125 "/>
<path fill-rule="nonzero" fill="#FFFFFF" fill-opacity="1" d="M 11.769531 7.933594 C 11.769531 7.933594 11.277344 8.410156 10.714844 8.714844 C 10.730469 8.824219 10.742188 8.933594 10.742188 9.050781 L 10.742188 12.449219 C 10.742188 13.882812 9.566406 15.058594 8.128906 15.058594 L 4.171875 15.058594 C 2.738281 15.058594 1.5625 13.882812 1.5625 12.449219 L 1.5625 9.050781 C 1.5625 8.914062 1.578125 8.78125 1.597656 8.652344 C 1.027344 8.363281 0.492188 7.972656 0.492188 7.757812 C 0.492188 7.757812 -0.0234375 10.839844 0 11.84375 C 0.0234375 12.734375 0.621094 16.46875 0.761719 16.644531 C 0.835938 16.734375 0.929688 16.8125 1.011719 16.871094 C 1.132812 16.957031 1.28125 17 1.429688 17 L 10.910156 16.976562 C 11.015625 16.976562 11.117188 16.949219 11.207031 16.894531 C 11.328125 16.816406 11.484375 16.699219 11.523438 16.554688 C 11.597656 16.273438 12.324219 13.183594 12.4375 11.886719 C 12.496094 11.195312 11.769531 7.933594 11.769531 7.933594 Z M 11.769531 7.933594 "/>
</g>
</svg>
