<?xml version="1.0" encoding="UTF-8" standalone="no"?>
<!-- Created with Inkscape (http://www.inkscape.org/) -->

<svg
   xmlns:dc="http://purl.org/dc/elements/1.1/"
   xmlns:cc="http://creativecommons.org/ns#"
   xmlns:rdf="http://www.w3.org/1999/02/22-rdf-syntax-ns#"
   xmlns:svg="http://www.w3.org/2000/svg"
   xmlns="http://www.w3.org/2000/svg"
   xmlns:xlink="http://www.w3.org/1999/xlink"
   xmlns:sodipodi="http://sodipodi.sourceforge.net/DTD/sodipodi-0.dtd"
   xmlns:inkscape="http://www.inkscape.org/namespaces/inkscape"
   width="30px"
   height="30px"
   version="1.1"
   id="svg8"
   inkscape:version="0.92.4 5da689c313, 2019-01-14"
   sodipodi:docname="container.svg">
  <defs
     id="defs2" />
  <sodipodi:namedview
     id="base"
     pagecolor="#ffffff"
     bordercolor="#666666"
     borderopacity="1.0"
     inkscape:pageopacity="0.0"
     inkscape:pageshadow="2"
     inkscape:zoom="13.049334"
     inkscape:cx="18.679046"
     inkscape:cy="12.165829"
     inkscape:document-units="px"
     inkscape:current-layer="layer1"
     showgrid="false"
     inkscape:snap-page="false"
     units="px"
     inkscape:window-width="1884"
     inkscape:window-height="1061"
     inkscape:window-x="0"
     inkscape:window-y="0"
     inkscape:window-maximized="1"
     fit-margin-top="0"
     fit-margin-left="0"
     fit-margin-right="0"
     fit-margin-bottom="0" />
  <metadata
     id="metadata5">
    <rdf:RDF>
      <cc:Work
         rdf:about="">
        <dc:format>image/svg+xml</dc:format>
        <dc:type
           rdf:resource="http://purl.org/dc/dcmitype/StillImage" />
        <dc:title></dc:title>
      </cc:Work>
    </rdf:RDF>
  </metadata>
    <circle
       style="color:#000000;clip-rule:nonzero;display:inline;overflow:visible;visibility:visible;opacity:1;isolation:auto;mix-blend-mode:normal;color-interpolation:sRGB;color-interpolation-filters:linearRGB;solid-color:#000000;solid-opacity:1;vector-effect:none;fill:#ffffff;fill-opacity:1;fill-rule:evenodd;stroke:#4076f6;stroke-width:1;stroke-linecap:butt;stroke-linejoin:miter;stroke-miterlimit:4;stroke-dasharray:none;stroke-dashoffset:0;stroke-opacity:1;marker:none;color-rendering:auto;image-rendering:auto;shape-rendering:auto;text-rendering:auto;enable-background:accumulate"
       id="path815"
       cx="15"
       cy="15"
       r="14.5" />
<g transform="translate(6.5,7.5)"><path fill-rule="nonzero" fill="rgb(30%,30%,30%)" fill-opacity="1" d="M 4.109375 15.332031 L 0 13.945312 L 0.03125 8.710938 L 4.09375 10.121094 Z M 2.539062 12.992188 L 2.753906 13.664062 L 3.378906 13.867188 L 2.304688 10.710938 L 1.78125 10.527344 L 0.707031 12.917969 L 1.296875 13.136719 L 1.542969 12.636719 Z M 1.75 12.148438 L 2.039062 11.46875 L 2.332031 12.34375 Z M 1.75 12.148438 "/>
<path fill-rule="nonzero" fill="rgb(30%,30%,30%)" fill-opacity="1" d="M 8.4375 13.898438 L 4.441406 15.320312 L 4.441406 10.136719 L 8.457031 8.753906 Z M 5.378906 13.917969 C 5.378906 13.917969 7.609375 13.457031 7.738281 12.558594 C 7.839844 11.878906 7.183594 11.886719 7.183594 11.886719 C 7.6875 11.628906 7.714844 10.832031 7.183594 10.6875 C 6.878906 10.609375 5.355469 11.113281 5.355469 11.113281 Z M 6.058594 11.445312 C 6.058594 11.445312 6.832031 11.167969 6.871094 11.445312 C 6.933594 11.886719 6.058594 12.035156 6.058594 12.035156 Z M 6.058594 12.558594 C 6.058594 12.558594 7.011719 12.140625 7.046875 12.515625 C 7.09375 12.972656 6.058594 13.15625 6.058594 13.15625 Z M 6.058594 12.558594 "/>
<path fill-rule="nonzero" fill="rgb(30%,30%,30%)" fill-opacity="1" d="M 4.25 7.117188 L 8.273438 8.515625 L 4.234375 9.871094 L 0.273438 8.476562 Z M 5.527344 8.230469 C 5.554688 8.503906 5.390625 8.722656 5.078125 8.796875 C 4.222656 9 3.378906 8.695312 3.378906 8.265625 C 3.378906 7.835938 4.359375 7.816406 4.605469 7.824219 L 4.515625 7.410156 C 3.980469 7.421875 2.542969 7.585938 2.542969 8.308594 C 2.542969 8.914062 3.996094 9.570312 5.371094 9.175781 C 5.894531 9.023438 6.316406 8.769531 6.253906 8.230469 Z M 5.527344 8.230469 "/>
<path fill-rule="nonzero" fill="rgb(30%,30%,30%)" fill-opacity="1" d="M 12.746094 15.375 L 8.773438 13.929688 L 8.800781 8.757812 L 12.710938 10.132812 Z M 11.125 13.066406 L 11.335938 13.734375 L 11.960938 13.9375 L 10.886719 10.789062 L 10.359375 10.605469 L 9.28125 12.996094 L 9.871094 13.214844 L 10.121094 12.710938 Z M 10.332031 12.21875 L 10.621094 11.539062 L 10.914062 12.414062 Z M 10.332031 12.21875 "/>
<path fill-rule="nonzero" fill="rgb(30%,30%,30%)" fill-opacity="1" d="M 16.980469 13.980469 L 13.078125 15.371094 L 13.050781 10.160156 L 17 8.804688 Z M 13.957031 13.980469 C 13.957031 13.980469 16.191406 13.511719 16.320312 12.621094 C 16.417969 11.941406 15.765625 11.953125 15.765625 11.953125 C 16.265625 11.691406 16.285156 10.894531 15.765625 10.753906 C 15.457031 10.671875 13.9375 11.175781 13.9375 11.175781 Z M 14.636719 11.507812 C 14.636719 11.507812 15.410156 11.230469 15.445312 11.507812 C 15.507812 11.949219 14.636719 12.097656 14.636719 12.097656 Z M 14.636719 12.621094 C 14.636719 12.621094 15.585938 12.207031 15.625 12.578125 C 15.667969 13.039062 14.636719 13.222656 14.636719 13.222656 Z M 14.636719 12.621094 "/>
<path fill-rule="nonzero" fill="rgb(30%,30%,30%)" fill-opacity="1" d="M 12.921875 7.089844 L 16.875 8.539062 L 12.90625 9.917969 L 9 8.496094 Z M 14.109375 8.300781 C 14.132812 8.574219 13.96875 8.792969 13.660156 8.867188 C 12.804688 9.070312 11.960938 8.765625 11.960938 8.335938 C 11.960938 7.90625 12.9375 7.886719 13.1875 7.894531 L 13.097656 7.480469 C 12.558594 7.492188 11.121094 7.65625 11.121094 8.382812 C 11.121094 8.984375 12.578125 9.644531 13.953125 9.246094 C 14.476562 9.09375 14.894531 8.839844 14.835938 8.300781 Z M 14.109375 8.300781 "/>
<path fill-rule="nonzero" fill="rgb(30%,30%,30%)" fill-opacity="1" d="M 8.441406 8.269531 L 4.402344 6.832031 L 4.429688 1.722656 L 8.4375 3.066406 Z M 6.78125 5.96875 L 6.992188 6.640625 L 7.621094 6.84375 L 6.542969 3.699219 L 6.019531 3.511719 L 4.945312 5.902344 L 5.535156 6.125 L 5.78125 5.621094 Z M 5.988281 5.136719 L 6.277344 4.457031 L 6.570312 5.328125 Z M 5.988281 5.136719 "/>
<path fill-rule="nonzero" fill="rgb(30%,30%,30%)" fill-opacity="1" d="M 8.765625 8.269531 L 8.753906 3.074219 L 12.761719 1.71875 L 12.726562 6.839844 M 9.617188 6.898438 C 9.617188 6.898438 11.851562 6.429688 11.980469 5.539062 C 12.078125 4.859375 11.425781 4.871094 11.425781 4.871094 C 11.925781 4.609375 11.953125 3.8125 11.425781 3.671875 C 11.117188 3.589844 9.597656 4.09375 9.597656 4.09375 Z M 10.296875 4.425781 C 10.296875 4.425781 11.070312 4.148438 11.105469 4.425781 C 11.167969 4.867188 10.296875 5.015625 10.296875 5.015625 Z M 10.359375 5.648438 C 10.359375 5.648438 11.3125 5.230469 11.347656 5.605469 C 11.390625 6.0625 10.359375 6.25 10.359375 6.25 Z M 10.359375 5.648438 "/>
<path fill-rule="nonzero" fill="rgb(30%,30%,30%)" fill-opacity="1" d="M 8.578125 0 L 12.640625 1.40625 L 8.546875 2.792969 L 4.582031 1.449219 Z M 9.765625 1.210938 C 9.792969 1.484375 9.628906 1.699219 9.316406 1.773438 C 8.460938 1.976562 7.617188 1.675781 7.617188 1.246094 C 7.617188 0.816406 8.597656 0.796875 8.84375 0.804688 L 8.761719 0.390625 C 8.226562 0.398438 6.789062 0.566406 6.789062 1.289062 C 6.789062 1.894531 8.242188 2.550781 9.617188 2.152344 C 10.140625 2.003906 10.5625 1.746094 10.5 1.210938 Z M 9.765625 1.210938 "/>
</g>
</svg>
