<?xml version="1.0" encoding="UTF-8"?>
<svg xmlns="http://www.w3.org/2000/svg" xmlns:xlink="http://www.w3.org/1999/xlink" width="11" height="8.394613" viewBox="0 0 11 8.394613">
<path fill-rule="nonzero" fill="rgb(30%,30%,30%)" fill-opacity="1" d="M 8.011719 2.003906 C 8.5625 2.003906 9.011719 1.554688 9.011719 1.003906 C 9.011719 0.449219 8.5625 0 8.011719 0 C 7.457031 0 7.007812 0.449219 7.007812 1.003906 C 7.007812 1.554688 7.457031 2.003906 8.011719 2.003906 Z M 8.011719 2.003906 "/>
<path fill-rule="nonzero" fill="rgb(30%,30%,30%)" fill-opacity="1" d="M 10.996094 1 C 10.941406 0.671875 10.535156 0.542969 10.308594 0.789062 L 9.105469 1.945312 C 8.972656 2.078125 8.832031 2.140625 8.660156 2.214844 C 8.472656 2.296875 8.234375 2.34375 8.054688 2.34375 C 7.867188 2.34375 7.621094 2.285156 7.464844 2.21875 C 7.289062 2.144531 7.136719 2.078125 7.003906 1.945312 L 5.800781 0.789062 C 5.71875 0.699219 5.609375 0.660156 5.503906 0.660156 C 5.503906 0.660156 5.5 0.660156 5.5 0.660156 C 5.5 0.660156 5.496094 0.660156 5.496094 0.660156 C 5.390625 0.660156 5.28125 0.699219 5.199219 0.789062 L 3.996094 1.945312 C 3.863281 2.078125 3.746094 2.136719 3.578125 2.222656 C 3.390625 2.316406 3.132812 2.339844 2.941406 2.339844 C 2.753906 2.339844 2.511719 2.292969 2.328125 2.222656 C 2.152344 2.152344 2.027344 2.078125 1.894531 1.945312 L 0.691406 0.789062 C 0.464844 0.542969 0.0585938 0.671875 0.00390625 1 C -0.015625 1.121094 0.0273438 1.246094 0.113281 1.339844 L 1.960938 3.101562 L 0.847656 6.027344 L 1.953125 6.027344 L 1.949219 7.964844 C 1.949219 8.210938 2.15625 8.40625 2.402344 8.394531 C 2.636719 8.382812 2.808594 8.171875 2.808594 7.941406 L 2.808594 6.027344 L 3.082031 6.027344 L 3.082031 7.941406 C 3.082031 8.171875 3.253906 8.382812 3.488281 8.394531 C 3.734375 8.40625 3.941406 8.210938 3.941406 7.964844 L 3.9375 6.027344 L 5.042969 6.027344 L 3.929688 3.101562 L 5.5 1.605469 L 7.070312 3.101562 L 7.058594 7.964844 C 7.058594 8.210938 7.265625 8.40625 7.511719 8.394531 C 7.746094 8.382812 7.917969 8.171875 7.917969 7.941406 L 7.917969 5.757812 C 7.917969 5.6875 7.976562 5.628906 8.046875 5.628906 L 8.054688 5.628906 C 8.128906 5.628906 8.191406 5.691406 8.191406 5.765625 L 8.191406 7.941406 C 8.191406 8.171875 8.363281 8.382812 8.597656 8.394531 C 8.84375 8.40625 9.050781 8.210938 9.050781 7.964844 L 9.039062 3.101562 L 10.886719 1.339844 C 10.972656 1.246094 11.015625 1.121094 10.996094 1 Z M 10.996094 1 "/>
<path fill-rule="nonzero" fill="rgb(30%,30%,30%)" fill-opacity="1" d="M 4.097656 0.332031 C 4.046875 0.226562 3.921875 0.183594 3.816406 0.230469 L 3.644531 0.3125 C 3.464844 0.121094 3.207031 0 2.921875 0 C 2.636719 0 2.382812 0.117188 2.199219 0.308594 L 2.027344 0.226562 C 1.921875 0.179688 1.796875 0.222656 1.746094 0.328125 C 1.699219 0.433594 1.742188 0.558594 1.847656 0.605469 L 1.976562 0.667969 C 1.941406 0.773438 1.917969 0.882812 1.917969 1.003906 C 1.917969 1.554688 2.367188 2.003906 2.921875 2.003906 C 3.476562 2.003906 3.921875 1.554688 3.921875 1.003906 C 3.921875 0.886719 3.902344 0.777344 3.867188 0.671875 L 3.996094 0.613281 C 4.101562 0.5625 4.144531 0.4375 4.097656 0.332031 Z M 4.097656 0.332031 "/>
</svg>
