<?xml version="1.0" encoding="UTF-8"?>
<svg xmlns="http://www.w3.org/2000/svg" xmlns:xlink="http://www.w3.org/1999/xlink" width="11" height="9.395928" viewBox="0 0 11 9.395928">
<path fill-rule="nonzero" fill="rgb(30%,30%,30%)" fill-opacity="1" stroke-width="1" stroke-linecap="butt" stroke-linejoin="miter" stroke="rgb(11.764706%, 11.764706%, 10.980392%)" stroke-opacity="1" stroke-miterlimit="10" d="M 290.287658 91.59562 C 290.287658 141.973211 249.42192 182.83895 199.044329 182.83895 C 148.666737 182.83895 107.800999 141.973211 107.800999 91.59562 C 107.800999 41.218029 148.666737 0.352291 199.044329 0.352291 C 249.42192 0.352291 290.287658 41.218029 290.287658 91.59562 Z M 290.287658 91.59562 " transform="matrix(0.0110881, 0, 0, 0.0110881, 0, 0)"/>
<path fill-rule="nonzero" fill="rgb(30%,30%,30%)" fill-opacity="1" stroke-width="1" stroke-linecap="butt" stroke-linejoin="miter" stroke="rgb(11.764706%, 11.764706%, 10.980392%)" stroke-opacity="1" stroke-miterlimit="10" d="M 587.973424 91.59562 C 587.973424 141.973211 547.107686 182.83895 496.730094 182.83895 C 446.352503 182.83895 405.486765 141.973211 405.486765 91.59562 C 405.486765 41.218029 446.352503 0.352291 496.730094 0.352291 C 547.107686 0.352291 587.973424 41.218029 587.973424 91.59562 Z M 587.973424 91.59562 " transform="matrix(0.0110881, 0, 0, 0.0110881, 0, 0)"/>
<path fill-rule="nonzero" fill="rgb(30%,30%,30%)" fill-opacity="1" stroke-width="1" stroke-linecap="butt" stroke-linejoin="miter" stroke="rgb(11.764706%, 11.764706%, 10.980392%)" stroke-opacity="1" stroke-miterlimit="10" d="M 869.453811 91.59562 C 869.453811 141.973211 828.588072 182.83895 778.210481 182.83895 C 727.83289 182.83895 687.319443 141.973211 687.319443 91.59562 C 687.319443 41.218029 727.83289 0.352291 778.210481 0.352291 C 828.588072 0.352291 869.453811 41.218029 869.453811 91.59562 Z M 869.453811 91.59562 " transform="matrix(0.0110881, 0, 0, 0.0110881, 0, 0)"/>
<path fill-rule="nonzero" fill="rgb(30%,30%,30%)" fill-opacity="1" stroke-width="1" stroke-linecap="butt" stroke-linejoin="miter" stroke="rgb(11.764706%, 11.764706%, 10.980392%)" stroke-opacity="1" stroke-miterlimit="10" d="M 988.175826 429.442543 L 905.739768 257.172318 L 913.137876 257.172318 C 923.002019 257.172318 930.752418 249.42192 930.752418 239.557776 L 930.752418 214.192835 C 930.752418 204.680982 923.002019 196.578293 913.137876 196.578293 L 78.560859 196.578293 C 68.696715 196.578293 60.594026 204.680982 60.594026 214.192835 L 60.594026 239.557776 C 60.594026 249.42192 68.696715 257.172318 78.560859 257.172318 L 88.072712 257.172318 L 3.875199 432.965451 C -4.22749 449.523121 2.818327 469.95599 19.728287 477.706389 C 36.285957 485.809078 56.718826 478.763261 64.469225 461.853301 L 119.074306 348.063357 L 119.074306 481.581588 L 83.492931 817.314765 C 82.436058 827.5312 89.834166 836.690762 100.050601 837.747634 L 138.450303 841.975125 C 148.666737 843.031997 157.826299 835.633889 158.883172 825.417455 L 193.407675 503.775911 L 235.682577 503.775911 L 269.150207 829.997236 C 270.20708 840.21367 279.366642 847.964069 289.583076 846.907196 L 327.982779 843.031997 C 338.551504 841.975125 345.949612 832.463272 344.892739 822.246837 L 310.015945 479.820134 L 310.015945 257.172318 L 402.316147 257.172318 L 402.316147 479.115552 L 366.382481 817.314765 C 365.325608 827.5312 372.723716 836.690762 382.940151 837.747634 L 421.339853 841.975125 C 431.556288 843.031997 440.71585 835.633889 442.125013 825.417455 L 476.649516 501.309875 L 519.98129 501.309875 L 553.448921 829.997236 C 554.505793 840.21367 564.017646 847.964069 574.234081 846.907196 L 612.633783 843.031997 C 622.850218 841.975125 630.248325 832.463272 629.191453 822.246837 L 593.257786 468.194536 L 593.257786 257.172318 L 682.387371 257.172318 L 682.387371 487.218242 C 682.387371 488.979696 682.739662 490.388859 683.091952 491.798023 L 648.215159 817.314765 C 647.158286 827.5312 654.908685 836.690762 665.125119 837.747634 L 703.524822 841.975125 C 713.741256 843.031997 722.900818 835.633889 723.957691 825.417455 L 758.129903 504.832784 L 800.404805 504.832784 L 833.872435 829.997236 C 834.929308 840.21367 844.08887 847.964069 854.305304 846.907196 L 892.705007 843.031997 C 902.921441 841.975125 910.67184 832.463272 909.614967 822.246837 L 873.32901 467.137663 L 873.32901 345.24503 L 927.5818 458.682683 C 935.332199 475.240353 955.765068 482.28617 972.322738 474.535771 C 989.232699 466.433082 996.278516 446.000212 988.175826 429.442543 Z M 988.175826 429.442543 " transform="matrix(0.0110881, 0, 0, 0.0110881, 0, 0)"/>
</svg>
