<?xml version="1.0" encoding="UTF-8" standalone="no"?>
<!-- Created with Inkscape (http://www.inkscape.org/) -->

<svg
   xmlns:dc="http://purl.org/dc/elements/1.1/"
   xmlns:cc="http://creativecommons.org/ns#"
   xmlns:rdf="http://www.w3.org/1999/02/22-rdf-syntax-ns#"
   xmlns:svg="http://www.w3.org/2000/svg"
   xmlns="http://www.w3.org/2000/svg"
   xmlns:xlink="http://www.w3.org/1999/xlink"
   xmlns:sodipodi="http://sodipodi.sourceforge.net/DTD/sodipodi-0.dtd"
   xmlns:inkscape="http://www.inkscape.org/namespaces/inkscape"
   width="30px"
   height="30px"
   version="1.1"
   id="svg8"
   inkscape:version="0.92.4 5da689c313, 2019-01-14"
   sodipodi:docname="container.svg">
  <defs
     id="defs2" />
  <sodipodi:namedview
     id="base"
     pagecolor="#ffffff"
     bordercolor="#666666"
     borderopacity="1.0"
     inkscape:pageopacity="0.0"
     inkscape:pageshadow="2"
     inkscape:zoom="13.049334"
     inkscape:cx="18.679046"
     inkscape:cy="12.165829"
     inkscape:document-units="px"
     inkscape:current-layer="layer1"
     showgrid="false"
     inkscape:snap-page="false"
     units="px"
     inkscape:window-width="1884"
     inkscape:window-height="1061"
     inkscape:window-x="0"
     inkscape:window-y="0"
     inkscape:window-maximized="1"
     fit-margin-top="0"
     fit-margin-left="0"
     fit-margin-right="0"
     fit-margin-bottom="0" />
  <metadata
     id="metadata5">
    <rdf:RDF>
      <cc:Work
         rdf:about="">
        <dc:format>image/svg+xml</dc:format>
        <dc:type
           rdf:resource="http://purl.org/dc/dcmitype/StillImage" />
        <dc:title></dc:title>
      </cc:Work>
    </rdf:RDF>
  </metadata>
    <circle
       style="color:#000000;clip-rule:nonzero;display:inline;overflow:visible;visibility:visible;opacity:1;isolation:auto;mix-blend-mode:normal;color-interpolation:sRGB;color-interpolation-filters:linearRGB;solid-color:#000000;solid-opacity:1;vector-effect:none;fill:#ffffff;fill-opacity:1;fill-rule:evenodd;stroke:#4076f6;stroke-width:1;stroke-linecap:butt;stroke-linejoin:miter;stroke-miterlimit:4;stroke-dasharray:none;stroke-dashoffset:0;stroke-opacity:1;marker:none;color-rendering:auto;image-rendering:auto;shape-rendering:auto;text-rendering:auto;enable-background:accumulate"
       id="path815"
       cx="15"
       cy="15"
       r="14.5" />
<g transform="translate(6.5,8.0)"><path fill-rule="nonzero" fill="rgb(30%,30%,30%)" fill-opacity="1" d="M 11.644531 1.847656 L 10.90625 1.847656 L 10.90625 0.960938 C 10.90625 0.839844 10.792969 0.738281 10.660156 0.738281 L 6.347656 0.738281 C 6.214844 0.738281 6.101562 0.839844 6.101562 0.960938 L 6.101562 1.847656 L 5.363281 1.847656 L 5.363281 0.960938 C 5.363281 0.429688 5.804688 0 6.347656 0 L 10.660156 0 C 11.203125 0 11.644531 0.429688 11.644531 0.960938 Z M 11.644531 1.847656 "/>
<path fill-rule="nonzero" fill="rgb(30%,30%,30%)" fill-opacity="1" d="M 17 6.558594 L 17 2.769531 C 17 2.464844 16.75 2.214844 16.445312 2.214844 L 0.5625 2.214844 C 0.257812 2.214844 0.0078125 2.464844 0.0078125 2.769531 L 0.0078125 5.644531 C -0.00390625 6.042969 0 6.804688 0.0078125 7.496094 L 0.0078125 13.851562 C 0.0078125 14.15625 0.257812 14.40625 0.5625 14.40625 L 16.445312 14.40625 C 16.75 14.40625 17 14.15625 17 13.851562 L 17 7.496094 C 17 7.203125 16.996094 6.9375 16.988281 6.703125 C 16.996094 6.65625 17 6.609375 17 6.558594 Z M 5.675781 8.601562 L 5.1875 8.601562 L 5.03125 7.589844 C 4.726562 7.535156 4.441406 7.414062 4.191406 7.242188 L 3.367188 7.847656 L 3.027344 7.503906 L 3.628906 6.679688 C 3.457031 6.433594 3.339844 6.148438 3.28125 5.839844 L 2.273438 5.683594 L 2.273438 5.199219 L 3.28125 5.042969 C 3.339844 4.734375 3.457031 4.449219 3.628906 4.203125 L 3.027344 3.378906 L 3.367188 3.035156 L 4.191406 3.640625 C 4.441406 3.46875 4.726562 3.347656 5.03125 3.292969 L 5.1875 2.28125 L 5.675781 2.28125 L 5.828125 3.292969 C 6.136719 3.347656 6.421875 3.46875 6.671875 3.640625 L 7.492188 3.035156 L 7.835938 3.378906 L 7.234375 4.203125 C 7.402344 4.449219 7.523438 4.734375 7.582031 5.042969 L 8.589844 5.199219 L 8.589844 5.683594 L 7.582031 5.839844 C 7.523438 6.148438 7.402344 6.433594 7.234375 6.679688 L 7.835938 7.503906 L 7.492188 7.847656 L 6.671875 7.242188 C 6.421875 7.414062 6.136719 7.535156 5.828125 7.589844 Z M 13.429688 10.660156 L 14.539062 11.351562 L 14.167969 12.246094 L 12.894531 11.953125 C 12.691406 12.238281 12.441406 12.492188 12.148438 12.699219 L 12.441406 13.972656 L 11.546875 14.34375 L 10.855469 13.234375 C 10.5 13.292969 10.144531 13.292969 9.800781 13.234375 L 9.105469 14.34375 L 8.210938 13.972656 L 8.507812 12.695312 C 8.222656 12.496094 7.96875 12.246094 7.761719 11.953125 L 6.484375 12.246094 L 6.113281 11.351562 L 7.226562 10.660156 C 7.164062 10.304688 7.167969 9.949219 7.226562 9.605469 L 6.113281 8.910156 L 6.484375 8.015625 L 7.761719 8.3125 C 7.964844 8.027344 8.214844 7.773438 8.507812 7.566406 L 8.210938 6.289062 L 9.105469 5.917969 L 9.800781 7.03125 C 10.15625 6.96875 10.511719 6.972656 10.855469 7.03125 L 11.546875 5.917969 L 12.441406 6.289062 L 12.148438 7.566406 C 12.433594 7.769531 12.6875 8.019531 12.894531 8.3125 L 14.167969 8.015625 L 14.539062 8.910156 L 13.429688 9.605469 C 13.488281 9.957031 13.488281 10.316406 13.429688 10.660156 Z M 13.429688 10.660156 "/>
<path fill-rule="nonzero" fill="rgb(30%,30%,30%)" fill-opacity="1" d="M 12.339844 9.296875 C 11.878906 8.183594 10.605469 7.65625 9.492188 8.117188 C 8.382812 8.578125 7.851562 9.855469 8.3125 10.964844 C 8.773438 12.078125 10.050781 12.605469 11.160156 12.144531 C 12.273438 11.683594 12.800781 10.410156 12.339844 9.296875 Z M 10.351562 10.875 C 9.917969 10.875 9.5625 10.519531 9.5625 10.085938 C 9.5625 9.648438 9.917969 9.292969 10.351562 9.292969 C 10.789062 9.292969 11.144531 9.648438 11.144531 10.085938 C 11.144531 10.519531 10.789062 10.875 10.351562 10.875 Z M 10.351562 10.875 "/>
<path fill-rule="nonzero" fill="rgb(30%,30%,30%)" fill-opacity="1" d="M 5.429688 4.226562 C 4.761719 4.226562 4.214844 4.769531 4.214844 5.441406 C 4.214844 6.113281 4.761719 6.65625 5.429688 6.65625 C 6.101562 6.65625 6.648438 6.113281 6.648438 5.441406 C 6.648438 4.769531 6.101562 4.226562 5.429688 4.226562 Z M 5.429688 6.101562 C 5.066406 6.101562 4.773438 5.804688 4.773438 5.441406 C 4.773438 5.078125 5.066406 4.785156 5.429688 4.785156 C 5.796875 4.785156 6.089844 5.078125 6.089844 5.441406 C 6.089844 5.804688 5.796875 6.101562 5.429688 6.101562 Z M 5.429688 6.101562 "/>
</g>
</svg>
