<?xml version="1.0" encoding="UTF-8"?>
<svg xmlns="http://www.w3.org/2000/svg" xmlns:xlink="http://www.w3.org/1999/xlink" width="8.050065" height="11" viewBox="0 0 8.050065 11">
<path fill-rule="nonzero" fill="rgb(30%,30%,30%)" fill-opacity="1" d="M 7.828125 3.546875 C 7.828125 2.910156 7.386719 2.4375 6.875 2.1875 L 7.207031 0.675781 C 7.273438 0.375 7.082031 0.078125 6.78125 0.0117188 C 6.484375 -0.0546875 6.1875 0.136719 6.121094 0.4375 L 5.78125 1.996094 L 5.484375 1.996094 L 5.484375 1.171875 C 5.484375 0.808594 5.191406 0.511719 4.824219 0.511719 L 3.074219 0.511719 C 2.710938 0.511719 2.414062 0.808594 2.414062 1.171875 L 2.414062 1.996094 L 2.1875 1.996094 L 1.753906 0.464844 C 1.667969 0.167969 1.363281 -0.00390625 1.066406 0.0820312 C 0.769531 0.164062 0.597656 0.472656 0.683594 0.765625 L 1.09375 2.222656 C 0.613281 2.472656 0.210938 2.925781 0.210938 3.53125 L 0.21875 4.125 C 0.21875 4.566406 0.46875 4.914062 0.796875 5.160156 C 0.984375 5.285156 1.183594 5.390625 1.394531 5.480469 C 1.5 5.515625 1.609375 5.546875 1.722656 5.566406 C 1.757812 5.570312 1.945312 5.570312 2.78125 5.574219 L 3.039062 5.574219 L 3.042969 5.832031 C 3.046875 6.113281 3.273438 6.339844 3.554688 6.339844 L 4.421875 6.339844 C 4.699219 6.339844 4.925781 6.117188 4.933594 5.835938 L 4.9375 5.582031 L 5.296875 5.582031 C 5.300781 5.582031 5.417969 5.585938 5.589844 5.585938 C 5.847656 5.585938 6.210938 5.578125 6.484375 5.53125 C 6.574219 5.507812 6.664062 5.476562 6.75 5.441406 C 7.03125 5.304688 7.320312 5.054688 7.433594 4.949219 L 7.644531 4.742188 C 7.761719 4.558594 7.828125 4.34375 7.828125 4.125 Z M 5.136719 1.996094 L 2.761719 1.996094 L 2.761719 1.171875 C 2.761719 1 2.902344 0.859375 3.074219 0.859375 L 4.824219 0.859375 C 4.996094 0.859375 5.136719 1 5.136719 1.171875 Z M 5.136719 1.996094 "/>
<path fill-rule="nonzero" fill="rgb(30%,30%,30%)" fill-opacity="1" d="M 5.289062 5.84375 C 5.289062 5.84375 5.253906 5.84375 5.195312 5.84375 C 5.183594 6.261719 4.84375 6.601562 4.421875 6.601562 L 3.554688 6.601562 C 3.132812 6.601562 2.789062 6.257812 2.78125 5.835938 C 2.203125 5.832031 1.742188 5.832031 1.707031 5.828125 C 1.613281 5.820312 1.492188 5.792969 1.363281 5.746094 C 1.363281 5.78125 1.359375 5.816406 1.359375 5.855469 L 1.359375 8.054688 C 1.359375 8.796875 1.960938 9.394531 2.699219 9.394531 L 5.261719 9.394531 C 6 9.394531 6.601562 8.796875 6.601562 8.054688 L 6.601562 5.855469 C 6.601562 5.828125 6.601562 5.800781 6.597656 5.773438 C 6.582031 5.777344 6.5625 5.78125 6.546875 5.785156 C 6.054688 5.871094 5.289062 5.84375 5.289062 5.84375 Z M 5.289062 5.84375 "/>
<path fill-rule="nonzero" fill="rgb(30%,30%,30%)" fill-opacity="1" d="M 7.613281 5.132812 C 7.613281 5.132812 7.296875 5.441406 6.933594 5.636719 C 6.945312 5.710938 6.949219 5.78125 6.949219 5.855469 L 6.949219 8.054688 C 6.949219 8.984375 6.191406 9.742188 5.261719 9.742188 L 2.699219 9.742188 C 1.773438 9.742188 1.011719 8.984375 1.011719 8.054688 L 1.011719 5.855469 C 1.011719 5.769531 1.019531 5.683594 1.035156 5.597656 C 0.664062 5.414062 0.320312 5.15625 0.320312 5.019531 C 0.320312 5.019531 -0.015625 7.011719 0 7.664062 C 0.015625 8.242188 0.402344 10.65625 0.492188 10.769531 C 0.539062 10.824219 0.59375 10.875 0.65625 10.917969 C 0.734375 10.972656 0.828125 11 0.925781 11 L 7.058594 10.984375 C 7.128906 10.984375 7.195312 10.96875 7.253906 10.929688 C 7.332031 10.882812 7.429688 10.804688 7.457031 10.710938 C 7.503906 10.53125 7.976562 8.53125 8.046875 7.691406 C 8.085938 7.246094 7.613281 5.132812 7.613281 5.132812 Z M 7.613281 5.132812 "/>
</svg>
