<?xml version="1.0" encoding="UTF-8"?>
<svg xmlns="http://www.w3.org/2000/svg" xmlns:xlink="http://www.w3.org/1999/xlink" width="9.175924" height="11" viewBox="0 0 9.175924 11">
<path fill-rule="nonzero" fill="rgb(30%,30%,30%)" fill-opacity="1" d="M 9.175781 1.4375 L 4.867188 1.4375 C 4.878906 1.40625 4.886719 1.375 4.886719 1.34375 L 4.886719 0.320312 C 4.886719 0.144531 4.742188 0 4.566406 0 C 4.390625 0 4.246094 0.144531 4.246094 0.320312 L 4.246094 1.34375 C 4.246094 1.375 4.253906 1.40625 4.261719 1.4375 L 0 1.4375 L 0 6.882812 L 2.054688 6.882812 L 0.902344 10.585938 C 0.851562 10.753906 0.945312 10.933594 1.113281 10.984375 C 1.144531 10.996094 1.175781 11 1.207031 11 C 1.34375 11 1.46875 10.914062 1.511719 10.773438 L 2.199219 8.5625 L 7.03125 8.542969 L 7.753906 10.777344 C 7.796875 10.914062 7.921875 11 8.054688 11 C 8.089844 11 8.121094 10.996094 8.152344 10.984375 C 8.320312 10.929688 8.414062 10.75 8.359375 10.582031 L 7.167969 6.882812 L 9.175781 6.882812 Z M 2.398438 7.921875 L 2.722656 6.882812 L 6.5 6.882812 L 6.828125 7.90625 Z M 1.644531 4.097656 L 1.492188 4.644531 L 0.992188 4.644531 L 1.644531 2.511719 L 2.277344 2.511719 L 2.9375 4.644531 L 2.417969 4.644531 L 2.253906 4.097656 Z M 2.1875 3.738281 L 2.054688 3.285156 C 2.015625 3.15625 1.976562 3 1.945312 2.875 L 1.9375 2.875 C 1.90625 3 1.875 3.160156 1.839844 3.285156 L 1.714844 3.738281 Z M 4.007812 3.835938 C 4.132812 3.8125 4.390625 3.792969 4.628906 3.792969 C 4.921875 3.792969 5.105469 3.820312 5.257812 3.910156 C 5.40625 3.992188 5.515625 4.136719 5.515625 4.328125 C 5.515625 4.519531 5.402344 4.695312 5.164062 4.785156 L 5.164062 4.792969 C 5.40625 4.859375 5.585938 5.039062 5.585938 5.316406 C 5.585938 5.507812 5.5 5.660156 5.367188 5.769531 C 5.210938 5.890625 4.953125 5.960938 4.527344 5.960938 C 4.292969 5.960938 4.113281 5.945312 4.007812 5.929688 Z M 4.484375 4.652344 L 4.640625 4.652344 C 4.894531 4.652344 5.03125 4.546875 5.03125 4.390625 C 5.03125 4.226562 4.90625 4.144531 4.6875 4.144531 C 4.585938 4.144531 4.523438 4.148438 4.484375 4.15625 Z M 4.484375 5.597656 C 4.53125 5.605469 4.589844 5.605469 4.671875 5.605469 C 4.890625 5.605469 5.082031 5.523438 5.082031 5.296875 C 5.082031 5.082031 4.890625 4.996094 4.648438 4.996094 L 4.484375 4.996094 Z M 8.25 4.582031 C 8.160156 4.628906 7.960938 4.675781 7.703125 4.675781 C 6.964844 4.675781 6.585938 4.21875 6.585938 3.609375 C 6.585938 2.882812 7.105469 2.476562 7.75 2.476562 C 8 2.476562 8.191406 2.527344 8.273438 2.574219 L 8.175781 2.957031 C 8.078125 2.914062 7.941406 2.875 7.773438 2.875 C 7.390625 2.875 7.09375 3.105469 7.09375 3.582031 C 7.09375 4.007812 7.34375 4.277344 7.777344 4.277344 C 7.921875 4.277344 8.082031 4.246094 8.175781 4.207031 Z M 8.25 4.582031 "/>
</svg>
