<?xml version="1.0" encoding="UTF-8"?>
<svg xmlns="http://www.w3.org/2000/svg" xmlns:xlink="http://www.w3.org/1999/xlink" width="8.368227" height="11" viewBox="0 0 8.368227 11">
<path fill-rule="nonzero" fill="rgb(30%,30%,30%)" fill-opacity="1" d="M 5.9375 1.769531 C 5.9375 2.75 5.148438 3.542969 4.167969 3.542969 C 3.191406 3.542969 2.398438 2.75 2.398438 1.769531 C 2.398438 0.792969 3.191406 0 4.167969 0 C 5.148438 0 5.9375 0.792969 5.9375 1.769531 Z M 5.9375 1.769531 "/>
<path fill-rule="nonzero" fill="rgb(30%,30%,30%)" fill-opacity="1" d="M 4.53125 8.472656 C 4.53125 8.667969 4.375 8.828125 4.179688 8.828125 C 3.984375 8.828125 3.824219 8.667969 3.824219 8.472656 C 3.824219 8.277344 3.984375 8.117188 4.179688 8.117188 C 4.375 8.117188 4.53125 8.277344 4.53125 8.472656 Z M 4.53125 8.472656 "/>
<path fill-rule="nonzero" fill="rgb(30%,30%,30%)" fill-opacity="1" d="M 7.273438 9.109375 L 7.109375 9.121094 C 7.589844 8.992188 7.710938 8.945312 7.875 8.875 C 8.21875 8.734375 8.417969 8.375 8.355469 8.007812 L 8.183594 6.984375 C 7.898438 5 6.722656 3.804688 4.851562 3.808594 L 3.71875 3.808594 C 1.847656 3.8125 0.320312 4.382812 0.0429688 6.933594 L 0 8.160156 C -0.0117188 8.5 0.195312 8.808594 0.515625 8.925781 C 0.691406 8.992188 0.890625 9.058594 1.058594 9.109375 L 1.050781 9.109375 C 0.824219 9.109375 0.769531 9.253906 0.808594 9.476562 L 1.050781 10.8125 C 1.085938 10.992188 1.242188 11 1.425781 11 L 6.742188 11 C 6.980469 11 7.1875 11.011719 7.230469 10.777344 L 7.433594 9.519531 C 7.472656 9.300781 7.492188 9.109375 7.273438 9.109375 Z M 1.378906 10.636719 L 1.378906 6.371094 L 6.898438 6.363281 L 6.898438 10.644531 Z M 1.378906 10.636719 "/>
</svg>
