<?xml version="1.0" encoding="UTF-8"?>
<svg xmlns="http://www.w3.org/2000/svg" xmlns:xlink="http://www.w3.org/1999/xlink" width="11" height="10.683662" viewBox="0 0 11 10.683662">
<path fill-rule="nonzero" fill="rgb(30%,30%,30%)" fill-opacity="1" d="M 0 1.488281 C 5.367188 0.660156 5.207031 4.230469 5.207031 4.230469 L 5.207031 4.3125 C 3.640625 2.390625 2.582031 2.4375 2.582031 2.4375 C 4.730469 3.5625 4.757812 5.027344 4.757812 5.027344 C 2.621094 7.175781 0 1.488281 0 1.488281 Z M 5.429688 4.425781 C 6.878906 1.824219 8.140625 1.660156 8.140625 1.660156 C 5.835938 3.4375 6.109375 5.179688 6.109375 5.179688 C 9.089844 7.28125 11 0 11 0 C 4.46875 0.128906 5.410156 4.328125 5.410156 4.328125 Z M 2.222656 8.421875 L 2.222656 10.496094 C 2.226562 10.574219 2.273438 10.625 2.3125 10.648438 C 2.355469 10.671875 2.402344 10.683594 2.449219 10.683594 L 3.351562 10.683594 C 3.382812 10.683594 3.414062 10.671875 3.4375 10.648438 C 3.457031 10.625 3.46875 10.59375 3.46875 10.558594 L 3.46875 9.5625 L 4.371094 9.5625 L 4.371094 10.558594 C 4.371094 10.59375 4.382812 10.625 4.40625 10.648438 C 4.425781 10.671875 4.457031 10.683594 4.488281 10.683594 L 5.390625 10.683594 C 5.441406 10.683594 5.484375 10.671875 5.527344 10.648438 C 5.566406 10.625 5.613281 10.574219 5.617188 10.496094 L 5.617188 8.421875 L 3.921875 6.804688 Z M 8.511719 7.679688 L 6.167969 7.679688 L 5.484375 7.0625 L 5.484375 5.945312 C 5.484375 5.878906 5.429688 5.820312 5.363281 5.820312 L 5.0625 5.820312 C 4.996094 5.820312 4.941406 5.878906 4.941406 5.945312 L 4.941406 6.566406 L 4.132812 5.835938 C 4.011719 5.722656 3.828125 5.722656 3.707031 5.835938 L 1.566406 7.777344 C 1.433594 7.894531 1.425781 8.09375 1.542969 8.222656 C 1.609375 8.289062 1.691406 8.324219 1.78125 8.324219 C 1.855469 8.324219 1.933594 8.296875 1.992188 8.242188 L 3.921875 6.496094 L 5.847656 8.242188 C 5.914062 8.304688 6.003906 8.332031 6.089844 8.324219 C 6.101562 8.324219 6.109375 8.324219 6.117188 8.324219 L 8.511719 8.324219 C 8.703125 8.324219 8.855469 8.179688 8.855469 8.003906 C 8.855469 7.824219 8.703125 7.679688 8.511719 7.679688 Z M 8.398438 8.605469 L 6.089844 8.605469 C 5.992188 8.605469 5.914062 8.6875 5.914062 8.792969 L 5.914062 10.496094 C 5.914062 10.601562 5.992188 10.683594 6.089844 10.683594 L 8.398438 10.683594 C 8.496094 10.683594 8.574219 10.601562 8.574219 10.496094 L 8.574219 8.792969 C 8.574219 8.6875 8.496094 8.605469 8.398438 8.605469 Z M 8.398438 8.605469 "/>
</svg>
