<?xml version="1.0" encoding="UTF-8"?>
<svg xmlns="http://www.w3.org/2000/svg" xmlns:xlink="http://www.w3.org/1999/xlink" width="8.720085" height="11" viewBox="0 0 8.720085 11">
<path fill-rule="nonzero" fill="rgb(30%,30%,30%)" fill-opacity="1" d="M 8.625 2.949219 L 8.589844 2.902344 C 8.421875 2.65625 8.082031 2.59375 7.835938 2.761719 L 5.507812 4.367188 C 5.507812 4.367188 4.90625 4.671875 4.351562 4.667969 C 3.816406 4.660156 3.210938 4.367188 3.210938 4.367188 L 0.886719 2.761719 C 0.640625 2.59375 0.300781 2.65625 0.128906 2.902344 L 0.0976562 2.949219 C -0.0742188 3.195312 -0.0117188 3.535156 0.234375 3.707031 L 2.636719 5.367188 L 2.636719 10.375 C 2.636719 10.71875 2.917969 11 3.261719 11 L 3.296875 11 C 3.640625 11 3.921875 10.71875 3.921875 10.375 L 3.921875 8.753906 C 3.921875 8.464844 4.042969 8.292969 4.355469 8.292969 C 4.644531 8.289062 4.796875 8.445312 4.796875 8.734375 C 4.796875 8.851562 4.796875 10.375 4.796875 10.375 C 4.796875 10.71875 5.078125 11 5.425781 11 L 5.457031 11 C 5.800781 11 6.082031 10.71875 6.082031 10.375 L 6.082031 5.367188 L 8.484375 3.707031 C 8.730469 3.535156 8.792969 3.195312 8.625 2.949219 Z M 8.625 2.949219 "/>
<path fill-rule="nonzero" fill="rgb(30%,30%,30%)" fill-opacity="1" d="M 4.632812 0.652344 C 4.390625 0.265625 4.8125 -0.00390625 4.796875 0 C 4.167969 0.230469 4.019531 0.484375 4.007812 0.664062 C 3.199219 0.828125 2.589844 1.542969 2.589844 2.402344 C 2.589844 3.382812 3.382812 4.175781 4.363281 4.175781 C 5.34375 4.175781 6.136719 3.382812 6.136719 2.402344 C 6.136719 1.515625 5.484375 0.78125 4.632812 0.652344 Z M 4.632812 0.652344 "/>
</svg>
