<?xml version="1.0" encoding="UTF-8"?>
<svg xmlns="http://www.w3.org/2000/svg" xmlns:xlink="http://www.w3.org/1999/xlink" width="9.834464" height="11" viewBox="0 0 9.834464 11">
<path fill-rule="nonzero" fill="rgb(30%,30%,30%)" fill-opacity="1" d="M 4.453125 1.652344 C 4.453125 2.265625 3.953125 2.765625 3.339844 2.765625 C 2.722656 2.765625 2.226562 2.265625 2.226562 1.652344 C 2.226562 1.039062 2.722656 0.539062 3.339844 0.539062 C 3.953125 0.539062 4.453125 1.039062 4.453125 1.652344 Z M 4.453125 1.652344 "/>
<path fill-rule="nonzero" fill="rgb(30%,30%,30%)" fill-opacity="1" d="M 7.585938 1.667969 C 7.585938 2.28125 7.085938 2.78125 6.472656 2.78125 C 5.855469 2.78125 5.359375 2.28125 5.359375 1.667969 C 5.359375 1.054688 5.855469 0.554688 6.472656 0.554688 C 7.085938 0.554688 7.585938 1.054688 7.585938 1.667969 Z M 7.585938 1.667969 "/>
<path fill-rule="nonzero" fill="rgb(30%,30%,30%)" fill-opacity="1" d="M 9.835938 0.738281 C 9.835938 -0.261719 8.910156 -0.105469 8.910156 0.558594 L 8.90625 1.210938 C 8.867188 2.121094 8.601562 2.5 8.195312 2.851562 C 8.050781 2.5625 7.703125 2.550781 7.316406 2.746094 C 6.5 3.164062 5.730469 3.117188 4.933594 3.117188 C 4.105469 3.082031 3.175781 3.257812 2.601562 2.738281 C 2.234375 2.476562 1.671875 2.484375 1.75 2.859375 C 1.273438 2.523438 1.082031 2.046875 1.007812 1.210938 L 0.925781 0.53125 C 0.925781 -0.132812 0 -0.28125 0 0.71875 L 0.015625 1.539062 C 0.0390625 2.601562 0.847656 3.660156 1.941406 3.9375 L 1.941406 10.59375 C 1.941406 10.816406 2.121094 11 2.34375 11 L 2.675781 11 C 2.898438 11 3.078125 10.816406 3.078125 10.59375 L 3.078125 7.386719 C 3.144531 7.398438 3.210938 7.410156 3.28125 7.410156 C 3.367188 7.410156 3.453125 7.398438 3.53125 7.382812 L 3.542969 10.589844 C 3.542969 10.8125 3.691406 11 3.910156 11 L 4.277344 11 C 4.5 11 4.613281 10.789062 4.613281 10.570312 L 4.667969 4.472656 C 4.667969 4.351562 4.769531 4.121094 4.890625 4.125 C 4.890625 4.125 4.953125 4.128906 4.957031 4.128906 C 5.121094 4.132812 5.199219 4.316406 5.199219 4.484375 L 5.195312 10.601562 C 5.195312 10.820312 5.375 11 5.59375 11 L 5.933594 11 C 6.152344 11 6.332031 10.820312 6.332031 10.601562 L 6.332031 7.386719 C 6.402344 7.398438 6.476562 7.410156 6.550781 7.410156 C 6.617188 7.410156 6.683594 7.398438 6.75 7.386719 L 6.75 10.558594 C 6.75 10.78125 6.929688 11 7.148438 11 L 7.488281 11 C 7.707031 11 7.886719 10.78125 7.886719 10.558594 L 7.886719 3.96875 C 8.980469 3.695312 9.738281 2.765625 9.820312 1.566406 Z M 9.835938 0.738281 "/>
</svg>
