<?xml version="1.0" encoding="UTF-8"?>
<svg xmlns="http://www.w3.org/2000/svg" xmlns:xlink="http://www.w3.org/1999/xlink" width="11" height="9.321544" viewBox="0 0 11 9.321544">
<path fill-rule="nonzero" fill="rgb(30%,30%,30%)" fill-opacity="1" d="M 7.535156 1.195312 L 7.054688 1.195312 L 7.054688 0.621094 C 7.054688 0.542969 6.984375 0.476562 6.898438 0.476562 L 4.109375 0.476562 C 4.019531 0.476562 3.949219 0.542969 3.949219 0.621094 L 3.949219 1.195312 L 3.46875 1.195312 L 3.46875 0.621094 C 3.46875 0.277344 3.757812 0 4.109375 0 L 6.898438 0 C 7.246094 0 7.535156 0.277344 7.535156 0.621094 Z M 7.535156 1.195312 "/>
<path fill-rule="nonzero" fill="rgb(30%,30%,30%)" fill-opacity="1" d="M 11 4.246094 L 11 1.792969 C 11 1.59375 10.839844 1.433594 10.640625 1.433594 L 0.363281 1.433594 C 0.164062 1.433594 0.00390625 1.59375 0.00390625 1.792969 L 0.00390625 3.652344 C -0.00390625 3.910156 0 4.402344 0.00390625 4.851562 L 0.00390625 8.964844 C 0.00390625 9.160156 0.164062 9.320312 0.363281 9.320312 L 10.640625 9.320312 C 10.839844 9.320312 11 9.160156 11 8.964844 L 11 4.851562 C 11 4.660156 11 4.488281 10.992188 4.335938 C 10.996094 4.308594 11 4.277344 11 4.246094 Z M 3.671875 5.566406 L 3.355469 5.566406 L 3.257812 4.910156 C 3.058594 4.875 2.875 4.796875 2.714844 4.6875 L 2.179688 5.078125 L 1.957031 4.855469 L 2.347656 4.324219 C 2.238281 4.164062 2.160156 3.976562 2.125 3.777344 L 1.46875 3.679688 L 1.46875 3.363281 L 2.125 3.261719 C 2.160156 3.0625 2.238281 2.878906 2.347656 2.71875 L 1.957031 2.1875 L 2.179688 1.964844 L 2.714844 2.355469 C 2.875 2.246094 3.058594 2.167969 3.257812 2.128906 L 3.355469 1.476562 L 3.671875 1.476562 L 3.773438 2.128906 C 3.972656 2.167969 4.15625 2.246094 4.316406 2.355469 L 4.847656 1.964844 L 5.070312 2.1875 L 4.679688 2.71875 C 4.789062 2.878906 4.867188 3.0625 4.90625 3.261719 L 5.558594 3.363281 L 5.558594 3.679688 L 4.90625 3.777344 C 4.867188 3.976562 4.789062 4.164062 4.679688 4.324219 L 5.070312 4.855469 L 4.847656 5.078125 L 4.316406 4.6875 C 4.15625 4.796875 3.972656 4.875 3.773438 4.910156 Z M 8.6875 6.898438 L 9.410156 7.347656 L 9.167969 7.925781 L 8.34375 7.734375 C 8.210938 7.917969 8.050781 8.082031 7.859375 8.214844 L 8.050781 9.042969 L 7.472656 9.28125 L 7.023438 8.5625 C 6.792969 8.601562 6.5625 8.601562 6.339844 8.5625 L 5.894531 9.28125 L 5.3125 9.042969 L 5.503906 8.214844 C 5.320312 8.085938 5.15625 7.921875 5.023438 7.734375 L 4.195312 7.925781 L 3.957031 7.347656 L 4.675781 6.898438 C 4.636719 6.667969 4.636719 6.4375 4.675781 6.214844 L 3.957031 5.765625 L 4.195312 5.1875 L 5.023438 5.378906 C 5.152344 5.195312 5.316406 5.03125 5.503906 4.894531 L 5.3125 4.070312 L 5.894531 3.828125 L 6.339844 4.546875 C 6.570312 4.507812 6.800781 4.511719 7.023438 4.550781 L 7.472656 3.828125 L 8.050781 4.070312 L 7.859375 4.894531 C 8.042969 5.027344 8.207031 5.1875 8.34375 5.378906 L 9.167969 5.1875 L 9.410156 5.765625 L 8.691406 6.214844 C 8.730469 6.445312 8.726562 6.675781 8.6875 6.898438 Z M 8.6875 6.898438 "/>
<path fill-rule="nonzero" fill="rgb(30%,30%,30%)" fill-opacity="1" d="M 7.984375 6.015625 C 7.6875 5.296875 6.863281 4.953125 6.144531 5.253906 C 5.421875 5.550781 5.082031 6.375 5.378906 7.09375 C 5.675781 7.816406 6.503906 8.15625 7.222656 7.859375 C 7.941406 7.5625 8.285156 6.734375 7.984375 6.015625 Z M 6.699219 7.035156 C 6.417969 7.035156 6.1875 6.808594 6.1875 6.523438 C 6.1875 6.242188 6.417969 6.015625 6.699219 6.015625 C 6.980469 6.015625 7.210938 6.242188 7.210938 6.523438 C 7.210938 6.808594 6.980469 7.035156 6.699219 7.035156 Z M 6.699219 7.035156 "/>
<path fill-rule="nonzero" fill="rgb(30%,30%,30%)" fill-opacity="1" d="M 3.515625 2.734375 C 3.082031 2.734375 2.726562 3.085938 2.726562 3.519531 C 2.726562 3.957031 3.082031 4.308594 3.515625 4.308594 C 3.949219 4.308594 4.300781 3.957031 4.300781 3.519531 C 4.300781 3.085938 3.949219 2.734375 3.515625 2.734375 Z M 3.515625 3.945312 C 3.277344 3.945312 3.089844 3.757812 3.089844 3.519531 C 3.089844 3.285156 3.277344 3.09375 3.515625 3.09375 C 3.75 3.09375 3.941406 3.285156 3.941406 3.519531 C 3.941406 3.757812 3.75 3.945312 3.515625 3.945312 Z M 3.515625 3.945312 "/>
</svg>
