<?xml version="1.0" encoding="UTF-8"?>
<svg xmlns="http://www.w3.org/2000/svg" xmlns:xlink="http://www.w3.org/1999/xlink" width="9.775826" height="11" viewBox="0 0 9.775826 11">
<path fill-rule="nonzero" fill="rgb(30%,30%,30%)" fill-opacity="1" d="M 9.226562 6.519531 L 8.5625 6.507812 C 8.488281 6.507812 8.402344 6.035156 8.300781 5.8125 C 7.832031 4.675781 7.003906 4.859375 5.855469 4.859375 C 5.523438 4.859375 4.683594 4.855469 4.527344 4.859375 L 4.300781 4.859375 C 2.761719 4.867188 1.675781 4.613281 1.328125 6.121094 C 1.289062 6.257812 1.277344 6.523438 1.199219 6.523438 L 0.601562 6.519531 C 0.390625 6.519531 0.15625 6.675781 0.15625 6.886719 C 0.15625 7.058594 0.242188 7.269531 0.671875 7.351562 C 0.71875 7.359375 0.757812 7.390625 0.777344 7.429688 C 0.796875 7.472656 0.796875 7.519531 0.773438 7.558594 C 0.65625 7.777344 0.644531 8.015625 0.644531 8.257812 C 0.644531 8.566406 0.75 9.027344 0.984375 9.355469 C 1.007812 9.382812 1.015625 9.417969 1.011719 9.453125 C 1.007812 9.476562 1.007812 9.5 1.007812 9.523438 L 1.007812 10.292969 C 1.007812 10.683594 1.324219 11 1.710938 11 L 1.757812 11 C 2.148438 11 2.460938 10.683594 2.464844 10.292969 L 2.464844 9.992188 C 2.464844 9.992188 2.46875 9.992188 2.472656 9.992188 C 3.089844 10.042969 6.203125 10.046875 7.230469 9.988281 C 7.269531 9.984375 7.308594 10 7.335938 10.027344 C 7.363281 10.054688 7.382812 10.09375 7.382812 10.132812 L 7.382812 10.292969 C 7.382812 10.683594 7.699219 11 8.085938 11 L 8.132812 11 C 8.519531 11 8.835938 10.683594 8.835938 10.292969 L 8.835938 9.523438 C 8.835938 9.507812 8.835938 9.492188 8.835938 9.480469 C 8.832031 9.445312 8.84375 9.410156 8.863281 9.382812 C 9.082031 9.078125 9.167969 8.554688 9.167969 8.257812 C 9.167969 8.023438 9.152344 7.765625 9.035156 7.542969 C 9.015625 7.503906 9.011719 7.457031 9.03125 7.417969 C 9.046875 7.378906 9.082031 7.351562 9.121094 7.335938 C 9.136719 7.332031 9.148438 7.328125 9.164062 7.324219 C 9.484375 7.226562 9.609375 7.109375 9.609375 6.902344 C 9.609375 6.691406 9.4375 6.519531 9.226562 6.519531 Z M 2.410156 9.316406 C 2.078125 9.316406 1.808594 9.046875 1.808594 8.714844 C 1.808594 8.378906 2.078125 8.109375 2.410156 8.109375 C 2.742188 8.109375 3.011719 8.378906 3.011719 8.714844 C 3.011719 9.046875 2.742188 9.316406 2.410156 9.316406 Z M 1.582031 6.730469 C 1.667969 4.945312 2.878906 5.238281 4.378906 5.210938 L 6.164062 5.210938 C 7.042969 5.21875 8.085938 5.089844 8.121094 6.730469 C 8.136719 7.5625 6.605469 7.769531 4.796875 7.769531 C 2.992188 7.769531 1.539062 7.558594 1.582031 6.730469 Z M 7.535156 9.316406 C 7.203125 9.316406 6.933594 9.046875 6.933594 8.714844 C 6.933594 8.378906 7.203125 8.109375 7.535156 8.109375 C 7.867188 8.109375 8.136719 8.378906 8.136719 8.714844 C 8.136719 9.046875 7.867188 9.316406 7.535156 9.316406 Z M 7.535156 9.316406 "/>
<path fill-rule="nonzero" fill="rgb(30%,30%,30%)" fill-opacity="1" d="M 3.769531 2.933594 L 3.769531 1.511719 L 4.746094 1.511719 C 5.429688 1.511719 6.117188 1.484375 6.796875 1.519531 C 7.558594 1.5625 8.070312 1.964844 8.292969 2.582031 C 8.328125 2.683594 8.328125 2.796875 8.351562 2.933594 C 6.820312 2.933594 5.316406 2.933594 3.769531 2.933594 Z M 3.769531 2.933594 "/>
<path fill-rule="nonzero" fill="rgb(30%,30%,30%)" fill-opacity="1" d="M 2.402344 2.964844 C 1.804688 2.976562 1.351562 2.53125 1.335938 1.921875 C 1.320312 1.300781 1.785156 0.800781 2.382812 0.804688 C 2.957031 0.804688 3.433594 1.292969 3.4375 1.878906 C 3.441406 2.472656 2.984375 2.957031 2.402344 2.964844 Z M 2.402344 2.964844 "/>
<path fill-rule="nonzero" fill="rgb(30%,30%,30%)" fill-opacity="1" d="M 9.355469 0.789062 C 9.074219 0.789062 8.914062 0.894531 8.914062 1.191406 C 8.914062 1.640625 8.90625 2.148438 8.90625 2.597656 L 8.90625 3.617188 L 0.863281 3.617188 C 0.863281 2.714844 0.859375 0.894531 0.859375 0.894531 L 0.859375 0.402344 C 0.859375 0.109375 0.699219 0 0.441406 0 C 0.1875 0 0 0.109375 0 0.398438 L 0 0.414062 C 0.00390625 2.21875 0.0117188 3.308594 0.015625 5.117188 L 0.863281 5.117188 L 0.863281 4.183594 L 8.90625 4.183594 L 8.90625 5.101562 L 9.75 5.101562 C 9.761719 5.003906 9.773438 4.929688 9.773438 4.851562 C 9.777344 3.488281 9.777344 2.839844 9.773438 1.476562 L 9.773438 1.1875 C 9.777344 0.898438 9.617188 0.789062 9.355469 0.789062 Z M 9.355469 0.789062 "/>
</svg>
