<?xml version="1.0" encoding="UTF-8"?>
<svg xmlns="http://www.w3.org/2000/svg" xmlns:xlink="http://www.w3.org/1999/xlink" width="11" height="10.229906" viewBox="0 0 11 10.229906">
<path fill-rule="nonzero" fill="rgb(30%,30%,30%)" fill-opacity="1" d="M 5.5 1.742188 L 1.648438 5.050781 L 1.648438 10.230469 L 4.332031 10.230469 C 4.316406 10.179688 4.304688 10.125 4.304688 10.066406 L 4.304688 8.351562 C 4.304688 8.226562 4.355469 8.105469 4.441406 8.015625 C 4.53125 7.929688 4.652344 7.878906 4.777344 7.878906 L 6.21875 7.878906 C 6.34375 7.878906 6.464844 7.929688 6.554688 8.015625 C 6.640625 8.105469 6.691406 8.226562 6.691406 8.351562 L 6.691406 10.066406 C 6.691406 10.125 6.679688 10.179688 6.664062 10.230469 L 9.261719 10.230469 L 9.261719 5.050781 Z M 6.550781 5.996094 C 6.550781 6.246094 6.347656 6.453125 6.09375 6.453125 L 4.929688 6.453125 C 4.675781 6.453125 4.46875 6.246094 4.46875 5.996094 L 4.46875 4.828125 C 4.46875 4.574219 4.675781 4.371094 4.929688 4.371094 L 6.09375 4.371094 C 6.347656 4.371094 6.550781 4.574219 6.550781 4.828125 Z M 6.550781 5.996094 "/>
<path fill-rule="nonzero" fill="rgb(30%,30%,30%)" fill-opacity="1" d="M 11 4.839844 L 5.542969 0.0429688 L 5.503906 0 L 5.5 0.00390625 L 5.492188 0 L 5.457031 0.0429688 L 0 4.839844 L 0.511719 5.425781 L 5.5 1.039062 L 10.488281 5.425781 Z M 11 4.839844 "/>
</svg>
