<?xml version="1.0" encoding="UTF-8" standalone="no"?>
<!-- Created with Inkscape (http://www.inkscape.org/) -->

<svg
   xmlns:dc="http://purl.org/dc/elements/1.1/"
   xmlns:cc="http://creativecommons.org/ns#"
   xmlns:rdf="http://www.w3.org/1999/02/22-rdf-syntax-ns#"
   xmlns:svg="http://www.w3.org/2000/svg"
   xmlns="http://www.w3.org/2000/svg"
   xmlns:xlink="http://www.w3.org/1999/xlink"
   xmlns:sodipodi="http://sodipodi.sourceforge.net/DTD/sodipodi-0.dtd"
   xmlns:inkscape="http://www.inkscape.org/namespaces/inkscape"
   width="30px"
   height="30px"
   version="1.1"
   id="svg8"
   inkscape:version="0.92.4 5da689c313, 2019-01-14"
   sodipodi:docname="container.svg">
  <defs
     id="defs2" />
  <sodipodi:namedview
     id="base"
     pagecolor="#ffffff"
     bordercolor="#666666"
     borderopacity="1.0"
     inkscape:pageopacity="0.0"
     inkscape:pageshadow="2"
     inkscape:zoom="13.049334"
     inkscape:cx="18.679046"
     inkscape:cy="12.165829"
     inkscape:document-units="px"
     inkscape:current-layer="layer1"
     showgrid="false"
     inkscape:snap-page="false"
     units="px"
     inkscape:window-width="1884"
     inkscape:window-height="1061"
     inkscape:window-x="0"
     inkscape:window-y="0"
     inkscape:window-maximized="1"
     fit-margin-top="0"
     fit-margin-left="0"
     fit-margin-right="0"
     fit-margin-bottom="0" />
  <metadata
     id="metadata5">
    <rdf:RDF>
      <cc:Work
         rdf:about="">
        <dc:format>image/svg+xml</dc:format>
        <dc:type
           rdf:resource="http://purl.org/dc/dcmitype/StillImage" />
        <dc:title></dc:title>
      </cc:Work>
    </rdf:RDF>
  </metadata>
    <circle
       style="color:#000000;clip-rule:nonzero;display:inline;overflow:visible;visibility:visible;opacity:1;isolation:auto;mix-blend-mode:normal;color-interpolation:sRGB;color-interpolation-filters:linearRGB;solid-color:#000000;solid-opacity:1;vector-effect:none;fill:#ffffff;fill-opacity:1;fill-rule:evenodd;stroke:#99163a;stroke-width:1;stroke-linecap:butt;stroke-linejoin:miter;stroke-miterlimit:4;stroke-dasharray:none;stroke-dashoffset:0;stroke-opacity:1;marker:none;color-rendering:auto;image-rendering:auto;shape-rendering:auto;text-rendering:auto;enable-background:accumulate"
       id="path815"
       cx="15"
       cy="15"
       r="14.5" />
<g transform="translate(7.5,6.5)"><path fill-rule="nonzero" fill="rgb(30%,30%,30%)" fill-opacity="1" d="M 14.261719 10.074219 L 13.230469 10.058594 C 13.117188 10.058594 12.984375 9.328125 12.828125 8.980469 C 12.105469 7.226562 10.824219 7.511719 9.050781 7.511719 C 8.535156 7.511719 7.238281 7.503906 7 7.511719 L 6.644531 7.511719 C 4.269531 7.519531 2.589844 7.128906 2.054688 9.457031 C 1.996094 9.671875 1.972656 10.078125 1.855469 10.078125 L 0.925781 10.074219 C 0.601562 10.074219 0.242188 10.316406 0.242188 10.640625 C 0.242188 10.910156 0.375 11.238281 1.039062 11.363281 C 1.109375 11.375 1.167969 11.421875 1.199219 11.484375 C 1.230469 11.546875 1.230469 11.621094 1.195312 11.683594 C 1.015625 12.019531 0.996094 12.386719 0.996094 12.761719 C 0.996094 13.238281 1.160156 13.953125 1.523438 14.457031 C 1.554688 14.5 1.570312 14.554688 1.5625 14.613281 C 1.558594 14.648438 1.558594 14.683594 1.558594 14.71875 L 1.558594 15.910156 C 1.558594 16.511719 2.046875 17 2.648438 17 L 2.71875 17 C 3.316406 17 3.804688 16.511719 3.808594 15.910156 L 3.808594 15.441406 C 3.8125 15.441406 3.816406 15.441406 3.820312 15.441406 C 4.773438 15.519531 9.585938 15.527344 11.171875 15.4375 C 11.234375 15.433594 11.292969 15.453125 11.335938 15.496094 C 11.382812 15.539062 11.40625 15.597656 11.40625 15.65625 L 11.40625 15.910156 C 11.410156 16.511719 11.894531 17 12.496094 17 L 12.566406 17 C 13.167969 17 13.65625 16.511719 13.65625 15.910156 L 13.65625 14.71875 C 13.65625 14.695312 13.65625 14.671875 13.65625 14.648438 C 13.652344 14.597656 13.667969 14.542969 13.699219 14.5 C 14.035156 14.03125 14.167969 13.21875 14.167969 12.761719 C 14.167969 12.398438 14.144531 12 13.960938 11.65625 C 13.929688 11.597656 13.929688 11.527344 13.957031 11.464844 C 13.980469 11.40625 14.035156 11.359375 14.097656 11.339844 C 14.117188 11.335938 14.140625 11.328125 14.160156 11.320312 C 14.660156 11.167969 14.851562 10.988281 14.851562 10.664062 C 14.851562 10.339844 14.589844 10.074219 14.261719 10.074219 Z M 3.726562 14.394531 C 3.214844 14.394531 2.796875 13.980469 2.796875 13.464844 C 2.796875 12.953125 3.214844 12.535156 3.726562 12.535156 C 4.242188 12.535156 4.65625 12.953125 4.65625 13.464844 C 4.65625 13.980469 4.242188 14.394531 3.726562 14.394531 Z M 2.445312 10.402344 C 2.578125 7.640625 4.445312 8.09375 6.769531 8.054688 L 9.527344 8.054688 C 10.882812 8.066406 12.496094 7.863281 12.546875 10.402344 C 12.574219 11.683594 10.207031 12.007812 7.417969 12.007812 C 4.625 12.007812 2.378906 11.683594 2.445312 10.402344 Z M 11.644531 14.394531 C 11.128906 14.394531 10.714844 13.980469 10.714844 13.464844 C 10.714844 12.953125 11.128906 12.535156 11.644531 12.535156 C 12.15625 12.535156 12.574219 12.953125 12.574219 13.464844 C 12.574219 13.980469 12.15625 14.394531 11.644531 14.394531 Z M 11.644531 14.394531 "/>
<path fill-rule="nonzero" fill="rgb(30%,30%,30%)" fill-opacity="1" d="M 5.824219 4.53125 L 5.824219 2.339844 L 7.335938 2.339844 C 8.390625 2.339844 9.453125 2.292969 10.507812 2.351562 C 11.683594 2.414062 12.476562 3.039062 12.816406 3.992188 C 12.871094 4.144531 12.871094 4.320312 12.902344 4.535156 C 10.539062 4.53125 8.21875 4.53125 5.824219 4.53125 Z M 5.824219 4.53125 "/>
<path fill-rule="nonzero" fill="rgb(30%,30%,30%)" fill-opacity="1" d="M 3.710938 4.582031 C 2.789062 4.597656 2.089844 3.914062 2.0625 2.96875 C 2.039062 2.011719 2.761719 1.238281 3.683594 1.242188 C 4.566406 1.246094 5.304688 1.996094 5.3125 2.902344 C 5.320312 3.824219 4.613281 4.566406 3.710938 4.582031 Z M 3.710938 4.582031 "/>
<path fill-rule="nonzero" fill="rgb(30%,30%,30%)" fill-opacity="1" d="M 14.460938 1.21875 C 14.023438 1.21875 13.777344 1.382812 13.777344 1.839844 C 13.777344 2.535156 13.765625 3.316406 13.765625 4.011719 L 13.765625 5.589844 L 1.335938 5.589844 C 1.335938 4.195312 1.328125 1.382812 1.328125 1.382812 L 1.328125 0.621094 C 1.328125 0.167969 1.082031 0 0.679688 0 C 0.289062 0 0 0.167969 0 0.617188 L 0 0.636719 C 0.0078125 3.429688 0.015625 5.113281 0.0234375 7.90625 L 1.335938 7.90625 L 1.335938 6.464844 L 13.765625 6.464844 L 13.765625 7.886719 L 15.070312 7.886719 C 15.082031 7.734375 15.105469 7.617188 15.105469 7.5 C 15.109375 5.390625 15.109375 4.390625 15.105469 2.28125 L 15.105469 1.835938 C 15.109375 1.386719 14.867188 1.21875 14.460938 1.21875 Z M 14.460938 1.21875 "/>
</g>
</svg>
