<?xml version="1.0" encoding="UTF-8" standalone="no"?>
<!-- Created with Inkscape (http://www.inkscape.org/) -->

<svg
   xmlns:dc="http://purl.org/dc/elements/1.1/"
   xmlns:cc="http://creativecommons.org/ns#"
   xmlns:rdf="http://www.w3.org/1999/02/22-rdf-syntax-ns#"
   xmlns:svg="http://www.w3.org/2000/svg"
   xmlns="http://www.w3.org/2000/svg"
   xmlns:xlink="http://www.w3.org/1999/xlink"
   xmlns:sodipodi="http://sodipodi.sourceforge.net/DTD/sodipodi-0.dtd"
   xmlns:inkscape="http://www.inkscape.org/namespaces/inkscape"
   width="30px"
   height="30px"
   version="1.1"
   id="svg8"
   inkscape:version="0.92.4 5da689c313, 2019-01-14"
   sodipodi:docname="container.svg">
  <defs
     id="defs2" />
  <sodipodi:namedview
     id="base"
     pagecolor="#ffffff"
     bordercolor="#666666"
     borderopacity="1.0"
     inkscape:pageopacity="0.0"
     inkscape:pageshadow="2"
     inkscape:zoom="13.049334"
     inkscape:cx="18.679046"
     inkscape:cy="12.165829"
     inkscape:document-units="px"
     inkscape:current-layer="layer1"
     showgrid="false"
     inkscape:snap-page="false"
     units="px"
     inkscape:window-width="1884"
     inkscape:window-height="1061"
     inkscape:window-x="0"
     inkscape:window-y="0"
     inkscape:window-maximized="1"
     fit-margin-top="0"
     fit-margin-left="0"
     fit-margin-right="0"
     fit-margin-bottom="0" />
  <metadata
     id="metadata5">
    <rdf:RDF>
      <cc:Work
         rdf:about="">
        <dc:format>image/svg+xml</dc:format>
        <dc:type
           rdf:resource="http://purl.org/dc/dcmitype/StillImage" />
        <dc:title></dc:title>
      </cc:Work>
    </rdf:RDF>
  </metadata>
    <circle
       style="color:#000000;clip-rule:nonzero;display:inline;overflow:visible;visibility:visible;opacity:1;isolation:auto;mix-blend-mode:normal;color-interpolation:sRGB;color-interpolation-filters:linearRGB;solid-color:#000000;solid-opacity:1;vector-effect:none;fill:#ffffff;fill-opacity:1;fill-rule:evenodd;stroke:#99163a;stroke-width:1;stroke-linecap:butt;stroke-linejoin:miter;stroke-miterlimit:4;stroke-dasharray:none;stroke-dashoffset:0;stroke-opacity:1;marker:none;color-rendering:auto;image-rendering:auto;shape-rendering:auto;text-rendering:auto;enable-background:accumulate"
       id="path815"
       cx="15"
       cy="15"
       r="14.5" />
<g transform="translate(6.5,6.5)"><path fill-rule="nonzero" fill="rgb(30%,30%,30%)" fill-opacity="1" d="M 6.578125 11.503906 L 6.578125 9.050781 L 8.265625 9.050781 C 9.449219 9.050781 10.632812 9 11.8125 9.066406 C 13.125 9.136719 14.011719 9.832031 14.394531 10.898438 C 14.453125 11.070312 14.453125 11.269531 14.488281 11.507812 C 11.847656 11.503906 9.253906 11.503906 6.578125 11.503906 Z M 6.578125 11.503906 "/>
<path fill-rule="nonzero" fill="rgb(30%,30%,30%)" fill-opacity="1" d="M 4.21875 11.558594 C 3.1875 11.574219 2.40625 10.8125 2.378906 9.757812 C 2.347656 8.6875 3.15625 7.824219 4.1875 7.828125 C 5.175781 7.828125 6 8.667969 6.007812 9.683594 C 6.019531 10.710938 5.226562 11.542969 4.21875 11.558594 Z M 4.21875 11.558594 "/>
<path fill-rule="nonzero" fill="rgb(30%,30%,30%)" fill-opacity="1" d="M 16.226562 7.800781 C 15.738281 7.800781 15.464844 7.984375 15.464844 8.496094 C 15.464844 9.269531 15.453125 10.144531 15.453125 10.921875 L 15.453125 12.6875 L 1.5625 12.6875 C 1.5625 11.125 1.554688 7.984375 1.554688 7.984375 L 1.554688 7.132812 C 1.554688 6.628906 1.28125 6.4375 0.832031 6.4375 C 0.394531 6.4375 0.0703125 6.625 0.0703125 7.128906 L 0.0703125 7.152344 C 0.0820312 10.269531 0.0898438 13.390625 0.101562 16.507812 L 1.5625 16.507812 L 1.5625 14.398438 L 15.453125 14.398438 L 15.453125 16.488281 L 16.949219 16.488281 C 16.964844 16.320312 16.949219 16.183594 16.949219 16.054688 C 16.953125 13.699219 16.953125 11.34375 16.949219 8.988281 L 16.949219 8.492188 C 16.953125 7.988281 16.679688 7.800781 16.226562 7.800781 Z M 16.226562 7.800781 "/>
<path fill-rule="nonzero" fill="rgb(30%,30%,30%)" fill-opacity="1" d="M 8.5 0 C 8.285156 0 0 4.03125 0 4.03125 L 0 5.5 L 8.5 1.429688 L 17 5.503906 L 17 4.035156 C 17 4.035156 8.714844 0 8.5 0 Z M 8.5 0 "/>
</g>
</svg>
