<?xml version="1.0" encoding="UTF-8"?>
<svg xmlns="http://www.w3.org/2000/svg" xmlns:xlink="http://www.w3.org/1999/xlink" width="11" height="10.163296" viewBox="0 0 11 10.163296">
<path fill-rule="nonzero" fill="rgb(30%,30%,30%)" fill-opacity="1" d="M 0.613281 7.003906 L 0.613281 10.089844 L 6.195312 10.089844 L 6.195312 7.003906 L 3.4375 4.578125 Z M 0.613281 7.003906 "/>
<path fill-rule="nonzero" fill="rgb(30%,30%,30%)" fill-opacity="1" d="M 10.625 3.796875 L 11 3.367188 L 7.199219 0.03125 L 7.171875 0 L 7.167969 0.00390625 L 7.160156 0 L 7.132812 0.03125 L 3.804688 2.960938 L 3.804688 2.28125 L 2.742188 2.28125 L 2.742188 3.894531 L 0 6.285156 L 0.375 6.714844 L 3.464844 4.019531 L 6.644531 6.816406 L 6.660156 10.097656 L 10.226562 10.164062 L 10.246094 4.128906 L 7.15625 1.40625 L 4.21875 3.925781 L 3.894531 3.640625 L 7.167969 0.761719 Z M 6.742188 4.578125 C 6.742188 4.390625 6.890625 4.242188 7.078125 4.207031 L 7.933594 4.207031 C 8.117188 4.242188 8.265625 4.390625 8.265625 4.578125 L 8.265625 5.433594 C 8.265625 5.617188 8.117188 5.765625 7.933594 5.765625 L 7.078125 5.765625 C 6.890625 5.765625 6.742188 5.617188 6.742188 5.433594 Z M 6.742188 4.578125 "/>
</svg>
