<?xml version="1.0" encoding="UTF-8" standalone="no"?>
<!-- Created with Inkscape (http://www.inkscape.org/) -->

<svg
   xmlns:dc="http://purl.org/dc/elements/1.1/"
   xmlns:cc="http://creativecommons.org/ns#"
   xmlns:rdf="http://www.w3.org/1999/02/22-rdf-syntax-ns#"
   xmlns:svg="http://www.w3.org/2000/svg"
   xmlns="http://www.w3.org/2000/svg"
   xmlns:xlink="http://www.w3.org/1999/xlink"
   xmlns:sodipodi="http://sodipodi.sourceforge.net/DTD/sodipodi-0.dtd"
   xmlns:inkscape="http://www.inkscape.org/namespaces/inkscape"
   width="30px"
   height="30px"
   version="1.1"
   id="svg8"
   inkscape:version="0.92.4 5da689c313, 2019-01-14"
   sodipodi:docname="container.svg">
  <defs
     id="defs2" />
  <sodipodi:namedview
     id="base"
     pagecolor="#ffffff"
     bordercolor="#666666"
     borderopacity="1.0"
     inkscape:pageopacity="0.0"
     inkscape:pageshadow="2"
     inkscape:zoom="13.049334"
     inkscape:cx="18.679046"
     inkscape:cy="12.165829"
     inkscape:document-units="px"
     inkscape:current-layer="layer1"
     showgrid="false"
     inkscape:snap-page="false"
     units="px"
     inkscape:window-width="1884"
     inkscape:window-height="1061"
     inkscape:window-x="0"
     inkscape:window-y="0"
     inkscape:window-maximized="1"
     fit-margin-top="0"
     fit-margin-left="0"
     fit-margin-right="0"
     fit-margin-bottom="0" />
  <metadata
     id="metadata5">
    <rdf:RDF>
      <cc:Work
         rdf:about="">
        <dc:format>image/svg+xml</dc:format>
        <dc:type
           rdf:resource="http://purl.org/dc/dcmitype/StillImage" />
        <dc:title></dc:title>
      </cc:Work>
    </rdf:RDF>
  </metadata>
    <circle
       style="color:#000000;clip-rule:nonzero;display:inline;overflow:visible;visibility:visible;opacity:1;isolation:auto;mix-blend-mode:normal;color-interpolation:sRGB;color-interpolation-filters:linearRGB;solid-color:#000000;solid-opacity:1;vector-effect:none;fill:#ffffff;fill-opacity:1;fill-rule:evenodd;stroke:#99163a;stroke-width:1;stroke-linecap:butt;stroke-linejoin:miter;stroke-miterlimit:4;stroke-dasharray:none;stroke-dashoffset:0;stroke-opacity:1;marker:none;color-rendering:auto;image-rendering:auto;shape-rendering:auto;text-rendering:auto;enable-background:accumulate"
       id="path815"
       cx="15"
       cy="15"
       r="14.5" />
<g transform="translate(6.5,10.0)"><path fill-rule="nonzero" fill="rgb(30%,30%,30%)" fill-opacity="1" d="M 9.113281 8.511719 C 9.113281 9.410156 8.386719 10.136719 7.488281 10.136719 C 6.589844 10.136719 5.859375 9.410156 5.859375 8.511719 C 5.859375 7.613281 6.589844 6.882812 7.488281 6.882812 C 8.386719 6.882812 9.113281 7.613281 9.113281 8.511719 Z M 9.113281 8.511719 "/>
<path fill-rule="nonzero" fill="rgb(30%,30%,30%)" fill-opacity="1" d="M 16.382812 7.765625 L 14.964844 7.765625 L 14.964844 2.699219 C 14.964844 1.207031 13.753906 0 12.265625 0 L 2.699219 0 C 1.207031 0 0 1.207031 0 2.699219 L 0 6.300781 C 0 7.4375 0.921875 8.355469 2.054688 8.355469 L 5.375 8.355469 C 5.421875 7.203125 6.363281 6.28125 7.53125 6.28125 C 8.695312 6.28125 9.636719 7.234375 9.683594 8.386719 L 17 8.386719 C 17 8.046875 16.722656 7.765625 16.382812 7.765625 Z M 7.589844 3.238281 C 7.589844 3.574219 7.316406 3.847656 6.980469 3.847656 L 2.742188 3.847656 C 2.40625 3.847656 2.132812 3.574219 2.132812 3.238281 L 2.132812 2.316406 C 2.132812 1.980469 2.40625 1.707031 2.742188 1.707031 L 6.980469 1.707031 C 7.316406 1.707031 7.589844 1.980469 7.589844 2.316406 Z M 13.265625 3.140625 C 13.265625 3.53125 12.949219 3.847656 12.554688 3.847656 L 10.804688 3.847656 C 10.414062 3.847656 10.097656 3.53125 10.097656 3.140625 L 10.097656 2.414062 C 10.097656 2.023438 10.414062 1.707031 10.804688 1.707031 L 12.554688 1.707031 C 12.949219 1.707031 13.265625 2.023438 13.265625 2.414062 Z M 13.265625 3.140625 "/>
</g>
</svg>
