<?xml version="1.0" encoding="UTF-8" standalone="no"?>
<!-- Created with Inkscape (http://www.inkscape.org/) -->

<svg
   xmlns:dc="http://purl.org/dc/elements/1.1/"
   xmlns:cc="http://creativecommons.org/ns#"
   xmlns:rdf="http://www.w3.org/1999/02/22-rdf-syntax-ns#"
   xmlns:svg="http://www.w3.org/2000/svg"
   xmlns="http://www.w3.org/2000/svg"
   xmlns:xlink="http://www.w3.org/1999/xlink"
   xmlns:sodipodi="http://sodipodi.sourceforge.net/DTD/sodipodi-0.dtd"
   xmlns:inkscape="http://www.inkscape.org/namespaces/inkscape"
   width="30px"
   height="30px"
   version="1.1"
   id="svg8"
   inkscape:version="0.92.4 5da689c313, 2019-01-14"
   sodipodi:docname="container.svg">
  <defs
     id="defs2" />
  <sodipodi:namedview
     id="base"
     pagecolor="#ffffff"
     bordercolor="#666666"
     borderopacity="1.0"
     inkscape:pageopacity="0.0"
     inkscape:pageshadow="2"
     inkscape:zoom="13.049334"
     inkscape:cx="18.679046"
     inkscape:cy="12.165829"
     inkscape:document-units="px"
     inkscape:current-layer="layer1"
     showgrid="false"
     inkscape:snap-page="false"
     units="px"
     inkscape:window-width="1884"
     inkscape:window-height="1061"
     inkscape:window-x="0"
     inkscape:window-y="0"
     inkscape:window-maximized="1"
     fit-margin-top="0"
     fit-margin-left="0"
     fit-margin-right="0"
     fit-margin-bottom="0" />
  <metadata
     id="metadata5">
    <rdf:RDF>
      <cc:Work
         rdf:about="">
        <dc:format>image/svg+xml</dc:format>
        <dc:type
           rdf:resource="http://purl.org/dc/dcmitype/StillImage" />
        <dc:title></dc:title>
      </cc:Work>
    </rdf:RDF>
  </metadata>
    <circle
       style="color:#000000;clip-rule:nonzero;display:inline;overflow:visible;visibility:visible;opacity:1;isolation:auto;mix-blend-mode:normal;color-interpolation:sRGB;color-interpolation-filters:linearRGB;solid-color:#000000;solid-opacity:1;vector-effect:none;fill:#99163a;fill-opacity:1;fill-rule:evenodd;stroke:#ffffff;stroke-width:1;stroke-linecap:butt;stroke-linejoin:miter;stroke-miterlimit:4;stroke-dasharray:none;stroke-dashoffset:0;stroke-opacity:1;marker:none;color-rendering:auto;image-rendering:auto;shape-rendering:auto;text-rendering:auto;enable-background:accumulate"
       id="path815"
       cx="15"
       cy="15"
       r="14.5" />
<g transform="translate(6.5,7.5)"><path fill-rule="nonzero" fill="#FFFFFF" fill-opacity="1" d="M 16.128906 9.074219 L 16.539062 9.074219 C 16.949219 9.074219 17.15625 8.574219 16.863281 8.285156 L 11.191406 2.667969 L 11.191406 2.640625 L 7.019531 6.792969 L 7.644531 7.78125 C 7.675781 7.828125 7.691406 7.878906 7.695312 7.929688 C 7.695312 7.996094 7.65625 8.039062 7.578125 8.039062 L 5.976562 8.039062 L 8.113281 11.425781 C 8.144531 11.46875 8.160156 11.523438 8.164062 11.574219 C 8.164062 11.640625 8.125 11.683594 8.046875 11.683594 L 6.78125 11.683594 L 6.78125 14.558594 L 4.320312 14.558594 L 4.320312 11.25 L 7.332031 11.25 C 7.40625 11.25 7.445312 11.207031 7.445312 11.144531 C 7.441406 11.089844 7.425781 11.039062 7.394531 10.996094 L 5.257812 7.605469 L 6.863281 7.605469 C 6.9375 7.605469 6.976562 7.566406 6.976562 7.5 C 6.972656 7.445312 6.957031 7.394531 6.925781 7.351562 L 4.789062 3.964844 L 5.941406 3.964844 C 6.019531 3.964844 6.058594 3.921875 6.058594 3.855469 C 6.054688 3.800781 6.039062 3.75 6.007812 3.707031 L 3.722656 0 L 1.4375 3.707031 C 1.40625 3.75 1.390625 3.800781 1.386719 3.855469 C 1.386719 3.921875 1.425781 3.964844 1.503906 3.964844 L 2.65625 3.964844 L 0.519531 7.351562 C 0.488281 7.394531 0.472656 7.445312 0.46875 7.5 C 0.46875 7.566406 0.507812 7.605469 0.585938 7.605469 L 2.1875 7.605469 L 0.0507812 10.996094 C 0.0195312 11.039062 0.00390625 11.089844 0 11.144531 C 0 11.207031 0.0390625 11.25 0.117188 11.25 L 3.28125 11.25 L 3.28125 14.558594 L 1.773438 14.558594 C 1.585938 14.558594 1.429688 14.714844 1.429688 14.902344 C 1.429688 15.09375 1.585938 15.25 1.773438 15.25 L 16.507812 15.25 C 16.699219 15.25 16.851562 15.09375 16.851562 14.902344 C 16.851562 14.714844 16.699219 14.558594 16.507812 14.558594 L 15.585938 14.558594 L 15.585938 9.617188 C 15.585938 9.316406 15.828125 9.074219 16.128906 9.074219 Z M 12.476562 14.558594 L 9.886719 14.558594 L 9.886719 12.125 C 9.886719 11.871094 10.09375 11.664062 10.347656 11.664062 L 12.015625 11.664062 C 12.273438 11.664062 12.476562 11.871094 12.476562 12.125 Z M 12.476562 14.558594 "/>
</g>
</svg>
