<?xml version="1.0" encoding="UTF-8"?>
<svg xmlns="http://www.w3.org/2000/svg" xmlns:xlink="http://www.w3.org/1999/xlink" width="11" height="6.559309" viewBox="0 0 11 6.559309">
<path fill-rule="nonzero" fill="rgb(30%,30%,30%)" fill-opacity="1" d="M 5.898438 5.507812 C 5.898438 6.089844 5.425781 6.558594 4.84375 6.558594 C 4.261719 6.558594 3.792969 6.089844 3.792969 5.507812 C 3.792969 4.925781 4.261719 4.453125 4.84375 4.453125 C 5.425781 4.453125 5.898438 4.925781 5.898438 5.507812 Z M 5.898438 5.507812 "/>
<path fill-rule="nonzero" fill="rgb(30%,30%,30%)" fill-opacity="1" d="M 10.597656 5.027344 L 9.683594 5.027344 L 9.683594 1.746094 C 9.683594 0.78125 8.898438 0 7.933594 0 L 1.746094 0 C 0.78125 0 0 0.78125 0 1.746094 L 0 4.078125 C 0 4.8125 0.59375 5.40625 1.328125 5.40625 L 3.476562 5.40625 C 3.507812 4.660156 4.117188 4.066406 4.871094 4.066406 C 5.625 4.066406 6.234375 4.679688 6.265625 5.425781 L 11 5.425781 C 11 5.207031 10.820312 5.027344 10.597656 5.027344 Z M 4.910156 2.097656 C 4.910156 2.3125 4.734375 2.492188 4.515625 2.492188 L 1.777344 2.492188 C 1.558594 2.492188 1.378906 2.3125 1.378906 2.097656 L 1.378906 1.5 C 1.378906 1.28125 1.558594 1.105469 1.777344 1.105469 L 4.515625 1.105469 C 4.734375 1.105469 4.910156 1.28125 4.910156 1.5 Z M 8.582031 2.03125 C 8.582031 2.285156 8.378906 2.492188 8.125 2.492188 L 6.992188 2.492188 C 6.738281 2.492188 6.53125 2.285156 6.53125 2.03125 L 6.53125 1.5625 C 6.53125 1.308594 6.738281 1.105469 6.992188 1.105469 L 8.125 1.105469 C 8.378906 1.105469 8.582031 1.308594 8.582031 1.5625 Z M 8.582031 2.03125 "/>
</svg>
