<?xml version="1.0" encoding="UTF-8"?>
<svg xmlns="http://www.w3.org/2000/svg" xmlns:xlink="http://www.w3.org/1999/xlink" width="9.884263" height="11" viewBox="0 0 9.884263 11">
<path fill-rule="nonzero" fill="rgb(30%,30%,30%)" fill-opacity="1" d="M 2.707031 5.785156 C 2.890625 5.964844 3.246094 6.113281 3.503906 6.113281 L 4.957031 6.113281 C 5.214844 6.113281 5.546875 5.945312 5.695312 5.734375 L 7.292969 3.535156 C 7.445312 3.324219 7.621094 3.34375 7.6875 3.574219 C 7.753906 3.804688 7.808594 3.988281 7.808594 3.988281 C 7.882812 4.234375 8.089844 4.582031 8.277344 4.757812 L 9.273438 5.71875 C 9.460938 5.898438 9.5 6.222656 9.367188 6.441406 L 9.074219 6.914062 C 8.941406 7.132812 8.632812 7.242188 8.386719 7.160156 L 7.53125 6.878906 C 7.285156 6.800781 7.085938 6.941406 7.085938 7.203125 L 7.085938 10.335938 C 7.085938 10.539062 6.917969 10.707031 6.710938 10.707031 L 6.246094 10.707031 C 6.039062 10.707031 5.875 10.539062 5.871094 10.335938 L 5.871094 8.984375 C 5.875 8.859375 5.824219 8.742188 5.738281 8.652344 C 5.648438 8.566406 5.53125 8.515625 5.40625 8.515625 L 4.054688 8.515625 C 3.933594 8.515625 3.8125 8.566406 3.726562 8.652344 C 3.640625 8.742188 3.589844 8.859375 3.589844 8.984375 L 3.589844 10.335938 C 3.589844 10.539062 3.421875 10.707031 3.21875 10.707031 L 2.75 10.707031 C 2.542969 10.707031 2.378906 10.539062 2.375 10.335938 L 2.375 7.242188 C 2.375 6.984375 2.230469 6.625 2.046875 6.445312 L 1.207031 5.601562 C 1.027344 5.421875 1.027344 5.125 1.210938 4.945312 C 1.390625 4.761719 1.6875 4.761719 1.867188 4.945312 L 2.707031 5.785156 M 0.761719 11 L 9.15625 10.984375 L 9.882812 4.824219 L 5.140625 0.078125 C 5.035156 -0.0273438 4.847656 -0.0273438 4.746094 0.078125 L 0 4.824219 "/>
</svg>
