<?xml version="1.0" encoding="UTF-8" standalone="no"?>
<!-- Created with Inkscape (http://www.inkscape.org/) -->

<svg
   xmlns:dc="http://purl.org/dc/elements/1.1/"
   xmlns:cc="http://creativecommons.org/ns#"
   xmlns:rdf="http://www.w3.org/1999/02/22-rdf-syntax-ns#"
   xmlns:svg="http://www.w3.org/2000/svg"
   xmlns="http://www.w3.org/2000/svg"
   xmlns:xlink="http://www.w3.org/1999/xlink"
   xmlns:sodipodi="http://sodipodi.sourceforge.net/DTD/sodipodi-0.dtd"
   xmlns:inkscape="http://www.inkscape.org/namespaces/inkscape"
   width="30px"
   height="30px"
   version="1.1"
   id="svg8"
   inkscape:version="0.92.4 5da689c313, 2019-01-14"
   sodipodi:docname="container.svg">
  <defs
     id="defs2" />
  <sodipodi:namedview
     id="base"
     pagecolor="#ffffff"
     bordercolor="#666666"
     borderopacity="1.0"
     inkscape:pageopacity="0.0"
     inkscape:pageshadow="2"
     inkscape:zoom="13.049334"
     inkscape:cx="18.679046"
     inkscape:cy="12.165829"
     inkscape:document-units="px"
     inkscape:current-layer="layer1"
     showgrid="false"
     inkscape:snap-page="false"
     units="px"
     inkscape:window-width="1884"
     inkscape:window-height="1061"
     inkscape:window-x="0"
     inkscape:window-y="0"
     inkscape:window-maximized="1"
     fit-margin-top="0"
     fit-margin-left="0"
     fit-margin-right="0"
     fit-margin-bottom="0" />
  <metadata
     id="metadata5">
    <rdf:RDF>
      <cc:Work
         rdf:about="">
        <dc:format>image/svg+xml</dc:format>
        <dc:type
           rdf:resource="http://purl.org/dc/dcmitype/StillImage" />
        <dc:title></dc:title>
      </cc:Work>
    </rdf:RDF>
  </metadata>
    <circle
       style="color:#000000;clip-rule:nonzero;display:inline;overflow:visible;visibility:visible;opacity:1;isolation:auto;mix-blend-mode:normal;color-interpolation:sRGB;color-interpolation-filters:linearRGB;solid-color:#000000;solid-opacity:1;vector-effect:none;fill:#ffffff;fill-opacity:1;fill-rule:evenodd;stroke:#99163a;stroke-width:1;stroke-linecap:butt;stroke-linejoin:miter;stroke-miterlimit:4;stroke-dasharray:none;stroke-dashoffset:0;stroke-opacity:1;marker:none;color-rendering:auto;image-rendering:auto;shape-rendering:auto;text-rendering:auto;enable-background:accumulate"
       id="path815"
       cx="15"
       cy="15"
       r="14.5" />
<g transform="translate(6.5,10.0)"><path fill-rule="nonzero" fill="rgb(30%,30%,30%)" fill-opacity="1" d="M 6.554688 5.101562 L 6.554688 2.632812 L 8.253906 2.632812 C 9.441406 2.632812 10.636719 2.582031 11.820312 2.644531 C 13.144531 2.71875 14.039062 3.417969 14.421875 4.492188 C 14.484375 4.664062 14.484375 4.863281 14.519531 5.101562 C 11.859375 5.101562 9.246094 5.101562 6.554688 5.101562 Z M 6.554688 5.101562 "/>
<path fill-rule="nonzero" fill="rgb(30%,30%,30%)" fill-opacity="1" d="M 4.175781 5.15625 C 3.136719 5.171875 2.347656 4.402344 2.320312 3.34375 C 2.292969 2.261719 3.105469 1.394531 4.144531 1.398438 C 5.140625 1.402344 5.972656 2.246094 5.980469 3.265625 C 5.988281 4.300781 5.191406 5.140625 4.175781 5.15625 Z M 4.175781 5.15625 "/>
<path fill-rule="nonzero" fill="rgb(30%,30%,30%)" fill-opacity="1" d="M 16.269531 1.371094 C 15.777344 1.371094 15.503906 1.558594 15.503906 2.070312 C 15.503906 2.851562 15.492188 3.734375 15.488281 4.515625 L 15.488281 6.292969 L 1.5 6.292969 C 1.5 4.722656 1.492188 1.558594 1.492188 1.558594 L 1.492188 0.699219 C 1.492188 0.191406 1.21875 0 0.765625 0 C 0.324219 0 0 0.1875 0 0.695312 L 0 0.71875 C 0.0078125 3.859375 0.0195312 7 0.0273438 10.140625 L 1.5 10.140625 L 1.5 8.015625 L 15.492188 8.015625 L 15.492188 10.121094 L 16.957031 10.121094 C 16.972656 9.949219 16.996094 9.816406 16.996094 9.683594 C 17 7.3125 17 4.941406 16.996094 2.566406 L 16.996094 2.066406 C 17 1.558594 16.726562 1.371094 16.269531 1.371094 Z M 16.269531 1.371094 "/>
</g>
</svg>
