<?xml version="1.0" encoding="UTF-8"?>
<svg xmlns="http://www.w3.org/2000/svg" xmlns:xlink="http://www.w3.org/1999/xlink" width="11" height="9.866605" viewBox="0 0 11 9.866605">
<path fill-rule="nonzero" fill="rgb(30%,30%,30%)" fill-opacity="1" d="M 10.4375 5.871094 L 10.703125 5.871094 C 10.96875 5.871094 11.101562 5.550781 10.910156 5.363281 L 7.242188 1.726562 L 7.242188 1.710938 L 4.542969 4.394531 L 4.945312 5.035156 C 4.964844 5.0625 4.976562 5.097656 4.980469 5.132812 C 4.980469 5.171875 4.953125 5.199219 4.90625 5.199219 L 3.867188 5.199219 L 5.25 7.394531 C 5.269531 7.421875 5.28125 7.457031 5.28125 7.488281 C 5.28125 7.53125 5.257812 7.558594 5.207031 7.558594 L 4.386719 7.558594 L 4.386719 9.421875 L 2.796875 9.421875 L 2.796875 7.28125 L 4.742188 7.28125 C 4.792969 7.28125 4.816406 7.253906 4.816406 7.210938 C 4.816406 7.175781 4.804688 7.144531 4.785156 7.113281 L 3.402344 4.921875 L 4.441406 4.921875 C 4.488281 4.921875 4.515625 4.894531 4.515625 4.851562 C 4.511719 4.820312 4.5 4.785156 4.480469 4.757812 L 3.097656 2.5625 L 3.84375 2.5625 C 3.894531 2.5625 3.921875 2.535156 3.921875 2.496094 C 3.917969 2.460938 3.90625 2.425781 3.886719 2.398438 L 2.410156 0 L 0.929688 2.398438 C 0.910156 2.425781 0.898438 2.460938 0.898438 2.496094 C 0.898438 2.535156 0.921875 2.5625 0.972656 2.5625 L 1.71875 2.5625 L 0.335938 4.757812 C 0.316406 4.785156 0.304688 4.820312 0.304688 4.851562 C 0.304688 4.894531 0.328125 4.921875 0.378906 4.921875 L 1.414062 4.921875 L 0.03125 7.113281 C 0.0117188 7.144531 0.00390625 7.175781 0 7.210938 C 0 7.253906 0.0273438 7.28125 0.0742188 7.28125 L 2.121094 7.28125 L 2.121094 9.421875 L 1.148438 9.421875 C 1.023438 9.421875 0.925781 9.519531 0.925781 9.644531 C 0.925781 9.765625 1.023438 9.867188 1.148438 9.867188 L 10.683594 9.867188 C 10.804688 9.867188 10.90625 9.765625 10.90625 9.644531 C 10.90625 9.519531 10.804688 9.421875 10.683594 9.421875 L 10.085938 9.421875 L 10.085938 6.222656 C 10.085938 6.027344 10.242188 5.871094 10.4375 5.871094 Z M 8.074219 9.421875 L 6.398438 9.421875 L 6.398438 7.84375 C 6.398438 7.679688 6.53125 7.546875 6.695312 7.546875 L 7.777344 7.546875 C 7.941406 7.546875 8.074219 7.679688 8.074219 7.84375 Z M 8.074219 9.421875 "/>
</svg>
