<?xml version="1.0" encoding="UTF-8"?>
<svg xmlns="http://www.w3.org/2000/svg" xmlns:xlink="http://www.w3.org/1999/xlink" width="11" height="7.40371" viewBox="0 0 11 7.40371">
<path fill-rule="nonzero" fill="rgb(30%,30%,30%)" fill-opacity="1" d="M 8.582031 3.914062 L 5.613281 0.0546875 C 5.589844 0.0195312 5.550781 0 5.507812 0 C 5.46875 0 5.429688 0.0195312 5.40625 0.0546875 L 2.367188 3.914062 C 2.34375 3.941406 2.335938 3.96875 2.335938 3.992188 C 2.335938 4.023438 2.359375 4.046875 2.410156 4.046875 L 3.429688 4.046875 L 3.429688 7.214844 C 3.429688 7.320312 3.496094 7.402344 3.578125 7.402344 L 5.035156 7.402344 C 5.117188 7.402344 5.179688 7.320312 5.179688 7.214844 L 5.179688 6.324219 L 5.765625 6.324219 L 5.765625 7.214844 C 5.765625 7.320312 5.832031 7.402344 5.910156 7.402344 L 7.371094 7.402344 C 7.449219 7.402344 7.515625 7.320312 7.515625 7.214844 L 7.515625 4.046875 L 8.539062 4.046875 C 8.585938 4.046875 8.613281 4.023438 8.613281 3.988281 C 8.613281 3.96875 8.601562 3.941406 8.582031 3.914062 Z M 8.582031 3.914062 "/>
<path fill-rule="nonzero" fill="rgb(30%,30%,30%)" fill-opacity="1" d="M 10.972656 3.75 L 8.601562 0.664062 C 8.582031 0.636719 8.550781 0.621094 8.515625 0.621094 C 8.484375 0.621094 8.453125 0.636719 8.433594 0.664062 L 7.339844 2.050781 L 8.699219 3.820312 C 8.742188 3.875 8.765625 3.933594 8.765625 3.988281 C 8.765625 4.09375 8.6875 4.199219 8.539062 4.199219 L 7.667969 4.199219 L 7.667969 6.453125 L 8.136719 6.453125 C 8.203125 6.453125 8.253906 6.386719 8.253906 6.304688 L 8.253906 5.679688 L 8.722656 5.679688 L 8.722656 6.304688 C 8.722656 6.386719 8.773438 6.453125 8.839844 6.453125 L 10.003906 6.453125 C 10.070312 6.453125 10.121094 6.386719 10.121094 6.304688 L 10.121094 3.855469 L 10.941406 3.855469 C 10.980469 3.855469 11 3.839844 11 3.8125 C 11 3.789062 10.988281 3.765625 10.972656 3.75 Z M 10.972656 3.75 "/>
<path fill-rule="nonzero" fill="rgb(30%,30%,30%)" fill-opacity="1" d="M 2.410156 4.199219 C 2.261719 4.199219 2.183594 4.09375 2.183594 3.992188 C 2.183594 3.933594 2.207031 3.875 2.25 3.820312 L 3.675781 2.007812 L 2.621094 0.640625 C 2.605469 0.613281 2.574219 0.597656 2.539062 0.597656 C 2.507812 0.597656 2.476562 0.613281 2.457031 0.640625 L 0.0273438 3.726562 C 0.0117188 3.746094 0 3.765625 0 3.789062 C 0 3.816406 0.0195312 3.835938 0.0585938 3.835938 L 0.875 3.835938 L 0.875 6.28125 C 0.875 6.363281 0.929688 6.433594 0.992188 6.433594 L 2.160156 6.433594 C 2.226562 6.433594 2.277344 6.363281 2.277344 6.28125 L 2.277344 5.65625 L 2.746094 5.65625 L 2.746094 6.28125 C 2.746094 6.363281 2.796875 6.433594 2.863281 6.433594 L 3.277344 6.433594 L 3.277344 4.199219 Z M 2.410156 4.199219 "/>
</svg>
