<?xml version="1.0" encoding="UTF-8"?>
<svg xmlns="http://www.w3.org/2000/svg" xmlns:xlink="http://www.w3.org/1999/xlink" width="11" height="6.562718" viewBox="0 0 11 6.562718">
<path fill-rule="nonzero" fill="rgb(30%,30%,30%)" fill-opacity="1" d="M 4.242188 3.300781 L 4.242188 1.703125 L 5.339844 1.703125 C 6.109375 1.703125 6.882812 1.671875 7.648438 1.710938 C 8.503906 1.757812 9.082031 2.210938 9.332031 2.90625 C 9.371094 3.019531 9.371094 3.148438 9.394531 3.300781 C 7.671875 3.300781 5.984375 3.300781 4.242188 3.300781 Z M 4.242188 3.300781 "/>
<path fill-rule="nonzero" fill="rgb(30%,30%,30%)" fill-opacity="1" d="M 2.703125 3.335938 C 2.03125 3.347656 1.519531 2.847656 1.503906 2.164062 C 1.484375 1.464844 2.007812 0.902344 2.683594 0.90625 C 3.324219 0.90625 3.863281 1.453125 3.867188 2.113281 C 3.875 2.785156 3.359375 3.324219 2.703125 3.335938 Z M 2.703125 3.335938 "/>
<path fill-rule="nonzero" fill="rgb(30%,30%,30%)" fill-opacity="1" d="M 10.527344 0.886719 C 10.210938 0.886719 10.03125 1.007812 10.03125 1.339844 C 10.03125 1.84375 10.023438 2.414062 10.023438 2.921875 L 10.023438 4.070312 L 0.972656 4.070312 C 0.972656 3.054688 0.964844 1.007812 0.964844 1.007812 L 0.964844 0.453125 C 0.964844 0.121094 0.789062 0 0.496094 0 C 0.210938 0 0 0.121094 0 0.449219 L 0 0.464844 C 0.00390625 2.496094 0.0117188 4.53125 0.0195312 6.5625 L 0.972656 6.5625 L 0.972656 5.1875 L 10.023438 5.1875 L 10.023438 6.546875 L 10.972656 6.546875 C 10.980469 6.4375 11 6.351562 11 6.265625 C 11 4.730469 11 3.195312 11 1.660156 L 11 1.335938 C 11 1.007812 10.824219 0.886719 10.527344 0.886719 Z M 10.527344 0.886719 "/>
</svg>
