<?xml version="1.0" encoding="UTF-8" standalone="no"?>
<!-- Created with Inkscape (http://www.inkscape.org/) -->

<svg
   xmlns:dc="http://purl.org/dc/elements/1.1/"
   xmlns:cc="http://creativecommons.org/ns#"
   xmlns:rdf="http://www.w3.org/1999/02/22-rdf-syntax-ns#"
   xmlns:svg="http://www.w3.org/2000/svg"
   xmlns="http://www.w3.org/2000/svg"
   xmlns:xlink="http://www.w3.org/1999/xlink"
   xmlns:sodipodi="http://sodipodi.sourceforge.net/DTD/sodipodi-0.dtd"
   xmlns:inkscape="http://www.inkscape.org/namespaces/inkscape"
   width="30px"
   height="30px"
   version="1.1"
   id="svg8"
   inkscape:version="0.92.4 5da689c313, 2019-01-14"
   sodipodi:docname="container.svg">
  <defs
     id="defs2" />
  <sodipodi:namedview
     id="base"
     pagecolor="#ffffff"
     bordercolor="#666666"
     borderopacity="1.0"
     inkscape:pageopacity="0.0"
     inkscape:pageshadow="2"
     inkscape:zoom="13.049334"
     inkscape:cx="18.679046"
     inkscape:cy="12.165829"
     inkscape:document-units="px"
     inkscape:current-layer="layer1"
     showgrid="false"
     inkscape:snap-page="false"
     units="px"
     inkscape:window-width="1884"
     inkscape:window-height="1061"
     inkscape:window-x="0"
     inkscape:window-y="0"
     inkscape:window-maximized="1"
     fit-margin-top="0"
     fit-margin-left="0"
     fit-margin-right="0"
     fit-margin-bottom="0" />
  <metadata
     id="metadata5">
    <rdf:RDF>
      <cc:Work
         rdf:about="">
        <dc:format>image/svg+xml</dc:format>
        <dc:type
           rdf:resource="http://purl.org/dc/dcmitype/StillImage" />
        <dc:title></dc:title>
      </cc:Work>
    </rdf:RDF>
  </metadata>
    <circle
       style="color:#000000;clip-rule:nonzero;display:inline;overflow:visible;visibility:visible;opacity:1;isolation:auto;mix-blend-mode:normal;color-interpolation:sRGB;color-interpolation-filters:linearRGB;solid-color:#000000;solid-opacity:1;vector-effect:none;fill:#ffffff;fill-opacity:1;fill-rule:evenodd;stroke:#99163a;stroke-width:1;stroke-linecap:butt;stroke-linejoin:miter;stroke-miterlimit:4;stroke-dasharray:none;stroke-dashoffset:0;stroke-opacity:1;marker:none;color-rendering:auto;image-rendering:auto;shape-rendering:auto;text-rendering:auto;enable-background:accumulate"
       id="path815"
       cx="15"
       cy="15"
       r="14.5" />
<g transform="translate(6.5,7.0)"><path fill-rule="nonzero" fill="rgb(30%,30%,30%)" fill-opacity="1" d="M 8.496094 2.691406 L 2.550781 7.808594 L 2.550781 15.808594 L 6.699219 15.808594 C 6.667969 15.730469 6.652344 15.644531 6.652344 15.558594 L 6.652344 12.90625 C 6.652344 12.710938 6.730469 12.527344 6.867188 12.390625 C 7.003906 12.253906 7.191406 12.175781 7.382812 12.175781 L 9.613281 12.175781 C 9.804688 12.175781 9.992188 12.253906 10.128906 12.390625 C 10.265625 12.527344 10.34375 12.710938 10.339844 12.90625 L 10.339844 15.558594 C 10.339844 15.644531 10.324219 15.730469 10.296875 15.808594 L 14.3125 15.808594 L 14.3125 7.808594 Z M 10.125 9.265625 C 10.125 9.65625 9.808594 9.972656 9.417969 9.972656 L 7.617188 9.972656 C 7.226562 9.972656 6.910156 9.65625 6.910156 9.265625 L 6.910156 7.460938 C 6.910156 7.070312 7.226562 6.753906 7.617188 6.753906 L 9.417969 6.753906 C 9.808594 6.753906 10.125 7.070312 10.125 7.460938 Z M 10.125 9.265625 "/>
<path fill-rule="nonzero" fill="rgb(30%,30%,30%)" fill-opacity="1" d="M 17 7.480469 L 8.566406 0.0664062 L 8.507812 0 L 8.5 0.0078125 L 8.488281 0 L 8.429688 0.0664062 L 0 7.480469 L 0.792969 8.386719 L 8.5 1.605469 L 16.207031 8.386719 Z M 17 7.480469 "/>
</g>
</svg>
