<?xml version="1.0" encoding="UTF-8" standalone="no"?>
<!-- Created with Inkscape (http://www.inkscape.org/) -->

<svg
   xmlns:dc="http://purl.org/dc/elements/1.1/"
   xmlns:cc="http://creativecommons.org/ns#"
   xmlns:rdf="http://www.w3.org/1999/02/22-rdf-syntax-ns#"
   xmlns:svg="http://www.w3.org/2000/svg"
   xmlns="http://www.w3.org/2000/svg"
   xmlns:xlink="http://www.w3.org/1999/xlink"
   xmlns:sodipodi="http://sodipodi.sourceforge.net/DTD/sodipodi-0.dtd"
   xmlns:inkscape="http://www.inkscape.org/namespaces/inkscape"
   width="30px"
   height="30px"
   version="1.1"
   id="svg8"
   inkscape:version="0.92.4 5da689c313, 2019-01-14"
   sodipodi:docname="container.svg">
  <defs
     id="defs2" />
  <sodipodi:namedview
     id="base"
     pagecolor="#ffffff"
     bordercolor="#666666"
     borderopacity="1.0"
     inkscape:pageopacity="0.0"
     inkscape:pageshadow="2"
     inkscape:zoom="13.049334"
     inkscape:cx="18.679046"
     inkscape:cy="12.165829"
     inkscape:document-units="px"
     inkscape:current-layer="layer1"
     showgrid="false"
     inkscape:snap-page="false"
     units="px"
     inkscape:window-width="1884"
     inkscape:window-height="1061"
     inkscape:window-x="0"
     inkscape:window-y="0"
     inkscape:window-maximized="1"
     fit-margin-top="0"
     fit-margin-left="0"
     fit-margin-right="0"
     fit-margin-bottom="0" />
  <metadata
     id="metadata5">
    <rdf:RDF>
      <cc:Work
         rdf:about="">
        <dc:format>image/svg+xml</dc:format>
        <dc:type
           rdf:resource="http://purl.org/dc/dcmitype/StillImage" />
        <dc:title></dc:title>
      </cc:Work>
    </rdf:RDF>
  </metadata>
    <circle
       style="color:#000000;clip-rule:nonzero;display:inline;overflow:visible;visibility:visible;opacity:1;isolation:auto;mix-blend-mode:normal;color-interpolation:sRGB;color-interpolation-filters:linearRGB;solid-color:#000000;solid-opacity:1;vector-effect:none;fill:#ffffff;fill-opacity:1;fill-rule:evenodd;stroke:#99163a;stroke-width:1;stroke-linecap:butt;stroke-linejoin:miter;stroke-miterlimit:4;stroke-dasharray:none;stroke-dashoffset:0;stroke-opacity:1;marker:none;color-rendering:auto;image-rendering:auto;shape-rendering:auto;text-rendering:auto;enable-background:accumulate"
       id="path815"
       cx="15"
       cy="15"
       r="14.5" />
<g transform="translate(6.5,9.5)"><path fill-rule="nonzero" fill="rgb(30%,30%,30%)" fill-opacity="1" d="M 13.261719 6.046875 L 8.675781 0.0859375 C 8.640625 0.03125 8.578125 0 8.515625 0 C 8.449219 0 8.390625 0.03125 8.355469 0.0859375 L 3.660156 6.050781 C 3.625 6.09375 3.609375 6.132812 3.609375 6.167969 C 3.609375 6.21875 3.648438 6.253906 3.722656 6.253906 L 5.300781 6.253906 L 5.300781 11.148438 C 5.300781 11.308594 5.402344 11.441406 5.527344 11.441406 L 7.78125 11.441406 C 7.90625 11.441406 8.007812 11.308594 8.007812 11.148438 L 8.007812 9.773438 L 8.910156 9.773438 L 8.910156 11.148438 C 8.910156 11.308594 9.011719 11.441406 9.136719 11.441406 L 11.390625 11.441406 C 11.515625 11.441406 11.617188 11.308594 11.617188 11.148438 L 11.617188 6.253906 L 13.195312 6.253906 C 13.269531 6.253906 13.3125 6.21875 13.3125 6.167969 C 13.3125 6.132812 13.296875 6.089844 13.261719 6.046875 Z M 13.261719 6.046875 "/>
<path fill-rule="nonzero" fill="rgb(30%,30%,30%)" fill-opacity="1" d="M 16.960938 5.796875 L 13.292969 1.027344 C 13.261719 0.984375 13.214844 0.957031 13.164062 0.957031 C 13.113281 0.957031 13.0625 0.980469 13.035156 1.023438 L 11.34375 3.171875 L 13.445312 5.90625 C 13.511719 5.988281 13.546875 6.078125 13.546875 6.167969 C 13.546875 6.328125 13.425781 6.488281 13.195312 6.488281 L 11.851562 6.488281 L 11.851562 9.976562 L 12.578125 9.976562 C 12.675781 9.976562 12.757812 9.871094 12.757812 9.742188 L 12.757812 8.777344 L 13.480469 8.777344 L 13.480469 9.742188 C 13.480469 9.871094 13.558594 9.976562 13.660156 9.976562 L 15.464844 9.976562 C 15.5625 9.976562 15.644531 9.871094 15.644531 9.742188 L 15.644531 5.960938 L 16.90625 5.960938 C 16.96875 5.960938 17 5.933594 17 5.890625 C 16.996094 5.855469 16.984375 5.820312 16.960938 5.796875 Z M 16.960938 5.796875 "/>
<path fill-rule="nonzero" fill="rgb(30%,30%,30%)" fill-opacity="1" d="M 3.722656 6.488281 C 3.492188 6.488281 3.371094 6.328125 3.371094 6.167969 C 3.371094 6.078125 3.410156 5.988281 3.476562 5.902344 L 5.679688 3.101562 L 4.054688 0.992188 C 4.023438 0.949219 3.976562 0.921875 3.925781 0.921875 C 3.875 0.921875 3.824219 0.945312 3.796875 0.988281 L 0.0390625 5.761719 C 0.015625 5.789062 0.00390625 5.820312 0 5.855469 C 0 5.898438 0.03125 5.925781 0.09375 5.925781 L 1.355469 5.925781 L 1.355469 9.707031 C 1.355469 9.835938 1.4375 9.941406 1.535156 9.941406 L 3.339844 9.941406 C 3.4375 9.941406 3.519531 9.835938 3.519531 9.707031 L 3.519531 8.738281 L 4.242188 8.738281 L 4.242188 9.707031 C 4.242188 9.835938 4.324219 9.941406 4.421875 9.941406 L 5.066406 9.941406 L 5.066406 6.488281 Z M 3.722656 6.488281 "/>
</g>
</svg>
