<?xml version="1.0" encoding="UTF-8"?>
<svg xmlns="http://www.w3.org/2000/svg" xmlns:xlink="http://www.w3.org/1999/xlink" width="11" height="10.682693" viewBox="0 0 11 10.682693">
<path fill-rule="nonzero" fill="rgb(30%,30%,30%)" fill-opacity="1" d="M 4.257812 7.441406 L 4.257812 5.855469 L 5.347656 5.855469 C 6.113281 5.855469 6.878906 5.824219 7.640625 5.867188 C 8.492188 5.914062 9.066406 6.363281 9.3125 7.050781 C 9.351562 7.164062 9.351562 7.289062 9.375 7.445312 C 7.664062 7.441406 5.988281 7.441406 4.257812 7.441406 Z M 4.257812 7.441406 "/>
<path fill-rule="nonzero" fill="rgb(30%,30%,30%)" fill-opacity="1" d="M 2.730469 7.480469 C 2.0625 7.488281 1.554688 6.996094 1.539062 6.3125 C 1.519531 5.621094 2.042969 5.0625 2.710938 5.0625 C 3.347656 5.066406 3.882812 5.609375 3.886719 6.265625 C 3.894531 6.929688 3.382812 7.46875 2.730469 7.480469 Z M 2.730469 7.480469 "/>
<path fill-rule="nonzero" fill="rgb(30%,30%,30%)" fill-opacity="1" d="M 10.5 5.046875 C 10.183594 5.046875 10.007812 5.167969 10.007812 5.496094 C 10.007812 6 10 6.566406 9.996094 7.066406 L 9.996094 8.207031 L 1.011719 8.207031 C 1.011719 7.199219 1.003906 5.167969 1.003906 5.167969 L 1.003906 4.613281 C 1.003906 4.289062 0.828125 4.167969 0.539062 4.167969 C 0.253906 4.167969 0.046875 4.285156 0.046875 4.613281 L 0.046875 4.628906 C 0.0507812 6.644531 0.0585938 8.664062 0.0664062 10.683594 L 1.011719 10.683594 L 1.011719 9.316406 L 10 9.316406 L 10 10.667969 L 10.96875 10.667969 C 10.976562 10.558594 10.96875 10.472656 10.96875 10.390625 C 10.96875 8.863281 10.96875 7.339844 10.96875 5.816406 L 10.96875 5.496094 C 10.96875 5.167969 10.792969 5.046875 10.5 5.046875 Z M 10.5 5.046875 "/>
<path fill-rule="nonzero" fill="rgb(30%,30%,30%)" fill-opacity="1" d="M 5.5 0 C 5.359375 0 0 2.609375 0 2.609375 L 0 3.558594 L 5.5 0.925781 L 11 3.558594 L 11 2.609375 C 11 2.609375 5.640625 0 5.5 0 Z M 5.5 0 "/>
</svg>
