<?xml version="1.0" encoding="UTF-8" standalone="no"?>
<!-- Created with Inkscape (http://www.inkscape.org/) -->

<svg
   xmlns:dc="http://purl.org/dc/elements/1.1/"
   xmlns:cc="http://creativecommons.org/ns#"
   xmlns:rdf="http://www.w3.org/1999/02/22-rdf-syntax-ns#"
   xmlns:svg="http://www.w3.org/2000/svg"
   xmlns="http://www.w3.org/2000/svg"
   xmlns:xlink="http://www.w3.org/1999/xlink"
   xmlns:sodipodi="http://sodipodi.sourceforge.net/DTD/sodipodi-0.dtd"
   xmlns:inkscape="http://www.inkscape.org/namespaces/inkscape"
   width="30px"
   height="30px"
   version="1.1"
   id="svg8"
   inkscape:version="0.92.4 5da689c313, 2019-01-14"
   sodipodi:docname="container.svg">
  <defs
     id="defs2" />
  <sodipodi:namedview
     id="base"
     pagecolor="#ffffff"
     bordercolor="#666666"
     borderopacity="1.0"
     inkscape:pageopacity="0.0"
     inkscape:pageshadow="2"
     inkscape:zoom="13.049334"
     inkscape:cx="18.679046"
     inkscape:cy="12.165829"
     inkscape:document-units="px"
     inkscape:current-layer="layer1"
     showgrid="false"
     inkscape:snap-page="false"
     units="px"
     inkscape:window-width="1884"
     inkscape:window-height="1061"
     inkscape:window-x="0"
     inkscape:window-y="0"
     inkscape:window-maximized="1"
     fit-margin-top="0"
     fit-margin-left="0"
     fit-margin-right="0"
     fit-margin-bottom="0" />
  <metadata
     id="metadata5">
    <rdf:RDF>
      <cc:Work
         rdf:about="">
        <dc:format>image/svg+xml</dc:format>
        <dc:type
           rdf:resource="http://purl.org/dc/dcmitype/StillImage" />
        <dc:title></dc:title>
      </cc:Work>
    </rdf:RDF>
  </metadata>
    <circle
       style="color:#000000;clip-rule:nonzero;display:inline;overflow:visible;visibility:visible;opacity:1;isolation:auto;mix-blend-mode:normal;color-interpolation:sRGB;color-interpolation-filters:linearRGB;solid-color:#000000;solid-opacity:1;vector-effect:none;fill:#ffffff;fill-opacity:1;fill-rule:evenodd;stroke:#99163a;stroke-width:1;stroke-linecap:butt;stroke-linejoin:miter;stroke-miterlimit:4;stroke-dasharray:none;stroke-dashoffset:0;stroke-opacity:1;marker:none;color-rendering:auto;image-rendering:auto;shape-rendering:auto;text-rendering:auto;enable-background:accumulate"
       id="path815"
       cx="15"
       cy="15"
       r="14.5" />
<g transform="translate(7.5,6.5)"><path fill-rule="nonzero" fill="rgb(30%,30%,30%)" fill-opacity="1" d="M 4.183594 8.9375 C 4.46875 9.21875 5.015625 9.449219 5.417969 9.449219 L 7.660156 9.449219 C 8.058594 9.449219 8.570312 9.191406 8.804688 8.863281 L 11.269531 5.464844 C 11.503906 5.140625 11.777344 5.167969 11.882812 5.519531 C 11.984375 5.878906 12.070312 6.164062 12.070312 6.164062 C 12.183594 6.546875 12.503906 7.082031 12.792969 7.355469 L 14.332031 8.839844 C 14.621094 9.117188 14.683594 9.617188 14.472656 9.953125 L 14.027344 10.683594 C 13.816406 11.019531 13.339844 11.191406 12.960938 11.066406 L 11.636719 10.632812 C 11.257812 10.507812 10.953125 10.730469 10.953125 11.128906 L 10.953125 15.972656 C 10.949219 16.289062 10.691406 16.546875 10.375 16.546875 L 9.652344 16.546875 C 9.335938 16.546875 9.078125 16.289062 9.074219 15.972656 L 9.074219 13.886719 C 9.078125 13.695312 9 13.507812 8.867188 13.375 C 8.730469 13.238281 8.546875 13.160156 8.355469 13.160156 L 6.269531 13.160156 C 6.078125 13.160156 5.894531 13.238281 5.757812 13.375 C 5.625 13.511719 5.546875 13.695312 5.550781 13.886719 L 5.550781 15.972656 C 5.546875 16.289062 5.289062 16.546875 4.972656 16.546875 L 4.25 16.546875 C 3.933594 16.546875 3.675781 16.289062 3.671875 15.972656 L 3.671875 11.191406 C 3.671875 10.792969 3.445312 10.238281 3.164062 9.960938 L 1.867188 8.660156 C 1.585938 8.378906 1.585938 7.921875 1.867188 7.640625 C 2.152344 7.359375 2.605469 7.359375 2.886719 7.640625 L 4.183594 8.9375 M 1.175781 17 L 14.152344 16.976562 L 15.277344 7.453125 L 7.941406 0.121094 C 7.78125 -0.0390625 7.496094 -0.0390625 7.332031 0.121094 L 0 7.453125 "/>
</g>
</svg>
