<?xml version="1.0" encoding="UTF-8" standalone="no"?>
<!-- Created with Inkscape (http://www.inkscape.org/) -->

<svg
   xmlns:dc="http://purl.org/dc/elements/1.1/"
   xmlns:cc="http://creativecommons.org/ns#"
   xmlns:rdf="http://www.w3.org/1999/02/22-rdf-syntax-ns#"
   xmlns:svg="http://www.w3.org/2000/svg"
   xmlns="http://www.w3.org/2000/svg"
   xmlns:xlink="http://www.w3.org/1999/xlink"
   xmlns:sodipodi="http://sodipodi.sourceforge.net/DTD/sodipodi-0.dtd"
   xmlns:inkscape="http://www.inkscape.org/namespaces/inkscape"
   width="30px"
   height="30px"
   version="1.1"
   id="svg8"
   inkscape:version="0.92.4 5da689c313, 2019-01-14"
   sodipodi:docname="container.svg">
  <defs
     id="defs2" />
  <sodipodi:namedview
     id="base"
     pagecolor="#ffffff"
     bordercolor="#666666"
     borderopacity="1.0"
     inkscape:pageopacity="0.0"
     inkscape:pageshadow="2"
     inkscape:zoom="13.049334"
     inkscape:cx="18.679046"
     inkscape:cy="12.165829"
     inkscape:document-units="px"
     inkscape:current-layer="layer1"
     showgrid="false"
     inkscape:snap-page="false"
     units="px"
     inkscape:window-width="1884"
     inkscape:window-height="1061"
     inkscape:window-x="0"
     inkscape:window-y="0"
     inkscape:window-maximized="1"
     fit-margin-top="0"
     fit-margin-left="0"
     fit-margin-right="0"
     fit-margin-bottom="0" />
  <metadata
     id="metadata5">
    <rdf:RDF>
      <cc:Work
         rdf:about="">
        <dc:format>image/svg+xml</dc:format>
        <dc:type
           rdf:resource="http://purl.org/dc/dcmitype/StillImage" />
        <dc:title></dc:title>
      </cc:Work>
    </rdf:RDF>
  </metadata>
    <circle
       style="color:#000000;clip-rule:nonzero;display:inline;overflow:visible;visibility:visible;opacity:1;isolation:auto;mix-blend-mode:normal;color-interpolation:sRGB;color-interpolation-filters:linearRGB;solid-color:#000000;solid-opacity:1;vector-effect:none;fill:#00a757;fill-opacity:1;fill-rule:evenodd;stroke:#ffffff;stroke-width:1;stroke-linecap:butt;stroke-linejoin:miter;stroke-miterlimit:4;stroke-dasharray:none;stroke-dashoffset:0;stroke-opacity:1;marker:none;color-rendering:auto;image-rendering:auto;shape-rendering:auto;text-rendering:auto;enable-background:accumulate"
       id="path815"
       cx="15"
       cy="15"
       r="14.5" />
<g transform="translate(6.5,6.5)"><path fill-rule="nonzero" fill="#FFFFFF" fill-opacity="1" d="M 0.246094 9.914062 C -0.0195312 10.164062 -0.078125 10.621094 0.109375 10.929688 L 0.515625 11.59375 C 0.703125 11.90625 1.136719 12.066406 1.484375 11.953125 L 2.695312 11.5625 C 2.808594 11.527344 2.886719 11.570312 2.976562 11.59375 L 5.125 9.730469 L 3.058594 6.847656 C 2.847656 6.550781 2.597656 6.574219 2.5 6.894531 C 2.40625 7.222656 2.324219 7.484375 2.324219 7.484375 C 2.21875 7.832031 1.925781 8.320312 1.660156 8.566406 Z M 0.246094 9.914062 "/>
<path fill-rule="nonzero" fill="#FFFFFF" fill-opacity="1" d="M 6.332031 10.503906 C 6.019531 10.5 5.660156 10.3125 5.425781 10.074219 L 3.28125 11.933594 C 3.289062 11.96875 3.320312 11.980469 3.320312 12.019531 L 3.292969 16.4375 C 3.289062 16.726562 3.527344 16.964844 3.816406 16.964844 L 4.472656 16.96875 C 4.765625 16.972656 5.003906 16.738281 5.003906 16.449219 L 5.015625 14.546875 C 5.019531 14.179688 5.3125 13.886719 5.679688 13.890625 L 7.582031 13.902344 C 7.941406 13.902344 8.234375 14.199219 8.234375 14.566406 L 8.222656 16.46875 C 8.21875 16.757812 8.457031 16.996094 8.746094 16.996094 L 9.40625 17 C 9.695312 17 9.933594 16.769531 9.933594 16.480469 L 9.960938 12.117188 C 9.964844 11.753906 10.175781 11.25 10.433594 10.992188 L 11.621094 9.816406 C 11.878906 9.5625 11.886719 9.148438 11.628906 8.886719 C 11.375 8.628906 10.957031 8.625 10.699219 8.882812 L 9.507812 10.058594 C 9.246094 10.3125 8.746094 10.519531 8.378906 10.515625 Z M 6.332031 10.503906 "/>
<path fill-rule="nonzero" fill="#FFFFFF" fill-opacity="1" d="M 16.734375 3.300781 L 15.332031 1.941406 C 15.070312 1.6875 14.78125 1.199219 14.679688 0.851562 C 14.679688 0.851562 14.601562 0.585938 14.511719 0.257812 C 14.417969 -0.0625 14.167969 -0.0898438 13.953125 0.203125 L 11.855469 3.066406 L 13.984375 4.953125 C 14.074219 4.929688 14.15625 4.886719 14.265625 4.925781 L 15.472656 5.328125 C 15.816406 5.441406 16.253906 5.289062 16.445312 4.980469 L 16.859375 4.320312 C 17.050781 4.011719 16.996094 3.554688 16.734375 3.300781 Z M 16.734375 3.300781 "/>
<path fill-rule="nonzero" fill="#FFFFFF" fill-opacity="1" d="M 10.640625 3.828125 L 8.59375 3.816406 C 8.226562 3.816406 7.726562 3.605469 7.46875 3.347656 L 6.292969 2.160156 C 6.035156 1.898438 5.621094 1.898438 5.363281 2.15625 C 5.101562 2.410156 5.101562 2.828125 5.359375 3.082031 L 6.535156 4.273438 C 6.789062 4.53125 6.996094 5.035156 6.996094 5.398438 L 6.976562 9.765625 C 6.972656 10.054688 7.210938 10.289062 7.5 10.289062 L 8.160156 10.292969 C 8.449219 10.292969 8.6875 10.0625 8.6875 9.773438 L 8.695312 7.867188 C 8.699219 7.503906 8.992188 7.210938 9.355469 7.210938 L 11.257812 7.21875 C 11.621094 7.222656 11.917969 7.519531 11.914062 7.882812 L 11.90625 9.785156 C 11.90625 10.074219 12.140625 10.3125 12.429688 10.3125 L 13.085938 10.316406 C 13.378906 10.316406 13.617188 10.082031 13.617188 9.792969 L 13.636719 5.375 C 13.636719 5.335938 13.671875 5.324219 13.675781 5.289062 L 11.554688 3.40625 C 11.3125 3.640625 10.953125 3.828125 10.640625 3.828125 Z M 10.640625 3.828125 "/>
</g>
</svg>
