<?xml version="1.0" encoding="UTF-8"?>
<svg xmlns="http://www.w3.org/2000/svg" xmlns:xlink="http://www.w3.org/1999/xlink" width="11" height="6.060927" viewBox="0 0 11 6.060927">
<path fill-rule="nonzero" fill="rgb(30%,30%,30%)" fill-opacity="1" d="M 0.832031 2.214844 L 1.703125 2.214844 L 1.703125 3.847656 L 0.832031 3.847656 Z M 0.832031 2.214844 "/>
<path fill-rule="nonzero" fill="rgb(30%,30%,30%)" fill-opacity="1" d="M 9.28125 2.214844 L 10.15625 2.214844 L 10.15625 3.847656 L 9.28125 3.847656 Z M 9.28125 2.214844 "/>
<path fill-rule="nonzero" fill="rgb(30%,30%,30%)" fill-opacity="1" d="M 6.660156 3.039062 C 6.660156 2.433594 6.183594 1.9375 5.582031 1.910156 L 5.582031 0.523438 L 5.390625 0.523438 L 5.390625 1.917969 C 4.820312 1.988281 4.394531 2.476562 4.398438 3.050781 C 4.40625 3.628906 4.847656 4.105469 5.417969 4.160156 L 5.417969 5.507812 L 5.609375 5.507812 L 5.609375 4.164062 C 6.199219 4.121094 6.65625 3.628906 6.660156 3.039062 Z M 5.527344 3.601562 C 5.21875 3.601562 4.964844 3.347656 4.964844 3.039062 C 4.964844 2.726562 5.21875 2.472656 5.527344 2.472656 C 5.839844 2.472656 6.09375 2.726562 6.09375 3.039062 C 6.09375 3.347656 5.839844 3.601562 5.527344 3.601562 Z M 5.527344 3.601562 "/>
<path fill-rule="nonzero" fill="rgb(30%,30%,30%)" fill-opacity="1" d="M 0 0 L 0 6.0625 L 11 6.0625 L 11 0 Z M 0.773438 1.214844 C 1.707031 1.304688 2.421875 2.089844 2.421875 3.03125 C 2.421875 3.972656 1.707031 4.757812 0.773438 4.847656 Z M 0.464844 0.464844 L 0.640625 0.464844 L 0.640625 5.59375 L 0.464844 5.59375 Z M 1.074219 5.59375 C 2.285156 5.371094 3.207031 4.308594 3.207031 3.03125 C 3.207031 1.753906 2.285156 0.691406 1.074219 0.464844 L 9.867188 0.464844 C 8.65625 0.691406 7.738281 1.753906 7.738281 3.03125 C 7.738281 4.308594 8.65625 5.371094 9.867188 5.59375 Z M 10.214844 4.851562 C 9.257812 4.78125 8.519531 3.988281 8.519531 3.03125 C 8.519531 2.074219 9.257812 1.277344 10.214844 1.210938 Z M 10.535156 5.59375 L 10.34375 5.59375 L 10.34375 0.523438 L 10.328125 0.523438 L 10.328125 0.464844 L 10.535156 0.464844 Z M 10.535156 5.59375 "/>
</svg>
