<?xml version="1.0" encoding="UTF-8"?>
<svg xmlns="http://www.w3.org/2000/svg" xmlns:xlink="http://www.w3.org/1999/xlink" width="11" height="10.212832" viewBox="0 0 11 10.212832">
<path fill-rule="nonzero" fill="rgb(30%,30%,30%)" fill-opacity="1" d="M 4.289062 8.628906 C 4.289062 9.503906 3.578125 10.210938 2.703125 10.210938 C 1.828125 10.210938 1.117188 9.503906 1.117188 8.628906 C 1.117188 7.753906 1.828125 7.042969 2.703125 7.042969 C 3.578125 7.042969 4.289062 7.753906 4.289062 8.628906 Z M 1.691406 8.664062 C 1.757812 8.660156 1.808594 8.605469 1.808594 8.535156 C 1.796875 8.253906 1.867188 8.039062 2.015625 7.894531 C 2.261719 7.660156 2.648438 7.683594 2.65625 7.683594 C 2.722656 7.6875 2.78125 7.640625 2.789062 7.570312 C 2.792969 7.503906 2.742188 7.445312 2.675781 7.441406 C 2.65625 7.4375 2.171875 7.402344 1.847656 7.71875 C 1.644531 7.910156 1.550781 8.191406 1.5625 8.546875 C 1.566406 8.613281 1.621094 8.664062 1.683594 8.664062 C 1.6875 8.664062 1.6875 8.664062 1.691406 8.664062 Z M 1.691406 8.664062 "/>
<path fill-rule="nonzero" fill="rgb(30%,30%,30%)" fill-opacity="1" d="M 1.613281 4.394531 C 1.585938 4.386719 1.5625 4.378906 1.535156 4.371094 C 1.675781 4.753906 1.875 5.117188 2.121094 5.445312 C 2.523438 5.542969 2.945312 5.546875 3.351562 5.460938 C 3.589844 5.136719 3.785156 4.785156 3.929688 4.40625 C 3.167969 4.601562 2.371094 4.59375 1.613281 4.394531 Z M 1.613281 4.394531 "/>
<path fill-rule="nonzero" fill="rgb(30%,30%,30%)" fill-opacity="1" d="M 3.929688 1.160156 C 3.773438 0.757812 3.554688 0.382812 3.28125 0.0507812 C 2.914062 -0.0195312 2.539062 -0.015625 2.175781 0.0625 C 1.902344 0.402344 1.683594 0.785156 1.53125 1.195312 C 1.558594 1.1875 1.585938 1.179688 1.613281 1.171875 C 2.371094 0.972656 3.167969 0.964844 3.929688 1.160156 Z M 3.929688 1.160156 "/>
<path fill-rule="nonzero" fill="rgb(30%,30%,30%)" fill-opacity="1" d="M 1.628906 1.417969 C 1.566406 1.433594 1.5 1.453125 1.4375 1.472656 C 1.183594 2.328125 1.1875 3.238281 1.441406 4.09375 C 1.503906 4.113281 1.566406 4.132812 1.628906 4.148438 C 2.433594 4.363281 3.269531 4.347656 4.027344 4.128906 C 4.152344 3.714844 4.21875 3.285156 4.226562 2.855469 C 4.234375 2.375 4.167969 1.898438 4.027344 1.4375 C 3.269531 1.21875 2.433594 1.203125 1.628906 1.417969 Z M 1.628906 1.417969 "/>
<path fill-rule="nonzero" fill="rgb(30%,30%,30%)" fill-opacity="1" d="M 1.164062 1.566406 C 0.769531 1.714844 0.398438 1.917969 0.0625 2.171875 C -0.0234375 2.578125 -0.0195312 3 0.0742188 3.402344 C 0.40625 3.652344 0.769531 3.851562 1.15625 3.996094 C 1.058594 3.617188 1.007812 3.226562 1.007812 2.832031 C 1.007812 2.40625 1.058594 1.980469 1.164062 1.566406 Z M 1.164062 1.566406 "/>
<path fill-rule="nonzero" fill="rgb(30%,30%,30%)" fill-opacity="1" d="M 0.195312 3.777344 C 0.476562 4.484375 1.035156 5.046875 1.742188 5.328125 C 1.53125 5 1.363281 4.648438 1.242188 4.28125 C 0.875 4.152344 0.523438 3.984375 0.195312 3.777344 Z M 0.195312 3.777344 "/>
<path fill-rule="nonzero" fill="rgb(30%,30%,30%)" fill-opacity="1" d="M 3.726562 5.347656 C 4.464844 5.074219 5.050781 4.496094 5.335938 3.761719 C 4.996094 4.003906 4.621094 4.191406 4.222656 4.320312 C 4.101562 4.683594 3.933594 5.027344 3.726562 5.347656 Z M 3.726562 5.347656 "/>
<path fill-rule="nonzero" fill="rgb(30%,30%,30%)" fill-opacity="1" d="M 5.464844 2.195312 C 5.117188 1.910156 4.722656 1.683594 4.300781 1.527344 C 4.417969 1.980469 4.472656 2.441406 4.464844 2.90625 C 4.460938 3.289062 4.40625 3.667969 4.308594 4.035156 C 4.726562 3.882812 5.109375 3.660156 5.453125 3.378906 C 5.542969 2.992188 5.546875 2.585938 5.464844 2.195312 Z M 5.464844 2.195312 "/>
<path fill-rule="nonzero" fill="rgb(30%,30%,30%)" fill-opacity="1" d="M 5.359375 1.820312 C 5.074219 1.039062 4.453125 0.429688 3.671875 0.152344 C 3.902344 0.488281 4.085938 0.855469 4.214844 1.242188 C 4.625 1.375 5.011719 1.570312 5.359375 1.820312 Z M 5.359375 1.820312 "/>
<path fill-rule="nonzero" fill="rgb(30%,30%,30%)" fill-opacity="1" d="M 1.78125 0.179688 C 1.035156 0.464844 0.449219 1.054688 0.171875 1.804688 C 0.507812 1.589844 0.867188 1.414062 1.246094 1.285156 C 1.371094 0.894531 1.550781 0.519531 1.78125 0.179688 Z M 1.78125 0.179688 "/>
<path fill-rule="nonzero" fill="rgb(30%,30%,30%)" fill-opacity="1" d="M 10.214844 6.195312 C 10.066406 6.429688 9.902344 6.648438 9.722656 6.855469 C 10.082031 6.886719 10.410156 6.859375 10.679688 6.765625 L 10.914062 6.628906 C 10.960938 6.449219 10.988281 6.269531 10.996094 6.085938 C 10.765625 6.160156 10.507812 6.195312 10.238281 6.195312 C 10.230469 6.195312 10.222656 6.195312 10.214844 6.195312 Z M 10.214844 6.195312 "/>
<path fill-rule="nonzero" fill="rgb(30%,30%,30%)" fill-opacity="1" d="M 10.964844 5.820312 L 11 5.804688 C 10.984375 5.433594 10.898438 5.066406 10.742188 4.730469 C 10.714844 5.132812 10.578125 5.539062 10.371094 5.929688 C 10.570312 5.921875 10.773438 5.886719 10.964844 5.820312 Z M 10.964844 5.820312 "/>
<path fill-rule="nonzero" fill="rgb(30%,30%,30%)" fill-opacity="1" d="M 8.652344 7.804688 C 8.59375 7.847656 8.53125 7.886719 8.472656 7.925781 C 7.941406 8.257812 7.425781 8.449219 6.96875 8.492188 C 8.101562 9.019531 9.445312 8.746094 10.277344 7.816406 C 10.046875 7.886719 9.796875 7.921875 9.539062 7.921875 C 9.253906 7.921875 8.953125 7.878906 8.652344 7.804688 Z M 8.652344 7.804688 "/>
<path fill-rule="nonzero" fill="rgb(30%,30%,30%)" fill-opacity="1" d="M 9.914062 6.179688 C 9.722656 6.160156 9.53125 6.125 9.34375 6.074219 C 9.304688 6.066406 9.265625 6.054688 9.226562 6.042969 C 9.066406 6.246094 8.886719 6.441406 8.699219 6.621094 C 8.742188 6.636719 8.78125 6.648438 8.824219 6.664062 C 9.015625 6.726562 9.210938 6.773438 9.410156 6.8125 C 9.578125 6.632812 9.730469 6.445312 9.871094 6.246094 C 9.886719 6.222656 9.902344 6.203125 9.914062 6.179688 Z M 9.914062 6.179688 "/>
<path fill-rule="nonzero" fill="rgb(30%,30%,30%)" fill-opacity="1" d="M 7.902344 7.269531 C 8.078125 7.347656 8.257812 7.417969 8.445312 7.476562 C 8.496094 7.492188 8.550781 7.507812 8.601562 7.523438 C 8.808594 7.375 9.007812 7.210938 9.191406 7.03125 C 8.953125 6.976562 8.71875 6.90625 8.488281 6.820312 C 8.300781 6.980469 8.109375 7.132812 7.902344 7.269531 Z M 7.902344 7.269531 "/>
<path fill-rule="nonzero" fill="rgb(30%,30%,30%)" fill-opacity="1" d="M 10.789062 7.003906 L 10.777344 7.007812 C 10.542969 7.089844 10.28125 7.128906 10.003906 7.128906 C 9.835938 7.128906 9.667969 7.113281 9.503906 7.089844 C 9.324219 7.273438 9.132812 7.441406 8.933594 7.601562 C 9.441406 7.699219 9.898438 7.679688 10.277344 7.542969 L 10.613281 7.359375 C 10.679688 7.246094 10.738281 7.125 10.789062 7.003906 Z M 10.789062 7.003906 "/>
<path fill-rule="nonzero" fill="rgb(30%,30%,30%)" fill-opacity="1" d="M 8.964844 5.960938 C 8.730469 5.875 8.5 5.773438 8.277344 5.65625 C 8.109375 5.84375 7.925781 6.015625 7.734375 6.175781 C 7.957031 6.304688 8.191406 6.421875 8.433594 6.519531 C 8.621094 6.34375 8.800781 6.15625 8.964844 5.960938 Z M 8.964844 5.960938 "/>
<path fill-rule="nonzero" fill="rgb(30%,30%,30%)" fill-opacity="1" d="M 7.363281 7.289062 C 7.125 7.160156 6.898438 7.011719 6.679688 6.851562 C 6.300781 7.027344 5.933594 7.125 5.605469 7.132812 C 5.675781 7.285156 5.757812 7.425781 5.855469 7.5625 C 6.261719 7.683594 6.789062 7.589844 7.363281 7.289062 Z M 7.363281 7.289062 "/>
<path fill-rule="nonzero" fill="rgb(30%,30%,30%)" fill-opacity="1" d="M 7.511719 6.347656 C 7.332031 6.484375 7.140625 6.609375 6.941406 6.71875 C 7.160156 6.875 7.386719 7.015625 7.628906 7.136719 C 7.832031 7.007812 8.03125 6.867188 8.21875 6.710938 C 7.976562 6.605469 7.738281 6.484375 7.511719 6.347656 Z M 7.511719 6.347656 "/>
<path fill-rule="nonzero" fill="rgb(30%,30%,30%)" fill-opacity="1" d="M 6.589844 6.449219 C 6.628906 6.480469 6.671875 6.511719 6.710938 6.546875 C 6.90625 6.445312 7.097656 6.328125 7.277344 6.199219 C 7.09375 6.078125 6.914062 5.945312 6.75 5.800781 C 6.222656 5.347656 5.890625 4.871094 5.769531 4.410156 C 5.6875 4.542969 5.613281 4.683594 5.550781 4.828125 C 5.597656 5.339844 5.960938 5.910156 6.589844 6.449219 Z M 6.589844 6.449219 "/>
<path fill-rule="nonzero" fill="rgb(30%,30%,30%)" fill-opacity="1" d="M 8.324219 7.710938 C 8.089844 7.632812 7.863281 7.542969 7.640625 7.433594 C 7.132812 7.726562 6.652344 7.878906 6.230469 7.878906 C 6.191406 7.878906 6.148438 7.875 6.109375 7.871094 C 6.226562 7.996094 6.359375 8.113281 6.496094 8.214844 C 6.992188 8.3125 7.636719 8.140625 8.324219 7.710938 Z M 8.324219 7.710938 "/>
<path fill-rule="nonzero" fill="rgb(30%,30%,30%)" fill-opacity="1" d="M 6.917969 5.601562 C 7.101562 5.757812 7.292969 5.902344 7.496094 6.03125 C 7.691406 5.875 7.875 5.707031 8.046875 5.523438 C 7.917969 5.449219 7.792969 5.367188 7.671875 5.28125 C 7.015625 4.816406 6.550781 4.273438 6.34375 3.753906 C 6.214844 3.863281 6.09375 3.984375 5.984375 4.113281 C 6.023438 4.582031 6.347656 5.113281 6.917969 5.601562 Z M 6.917969 5.601562 "/>
<path fill-rule="nonzero" fill="rgb(30%,30%,30%)" fill-opacity="1" d="M 6.449219 6.667969 C 6.441406 6.660156 6.429688 6.652344 6.421875 6.644531 C 5.914062 6.214844 5.566406 5.753906 5.402344 5.304688 C 5.285156 5.828125 5.320312 6.371094 5.496094 6.871094 C 5.777344 6.882812 6.105469 6.8125 6.449219 6.667969 Z M 6.449219 6.667969 "/>
<path fill-rule="nonzero" fill="rgb(30%,30%,30%)" fill-opacity="1" d="M 7.824219 5.070312 C 7.953125 5.164062 8.085938 5.246094 8.222656 5.328125 C 8.757812 4.683594 9.066406 3.96875 9.050781 3.34375 L 9.027344 3.222656 C 8.195312 2.957031 7.285156 3.09375 6.5625 3.585938 C 6.730469 4.078125 7.183594 4.613281 7.824219 5.070312 Z M 7.824219 5.070312 "/>
<path fill-rule="nonzero" fill="rgb(30%,30%,30%)" fill-opacity="1" d="M 9.398438 5.820312 C 9.621094 5.878906 9.84375 5.914062 10.074219 5.929688 C 10.359375 5.433594 10.5 4.953125 10.484375 4.519531 L 10.421875 4.207031 C 10.332031 4.085938 10.230469 3.976562 10.125 3.871094 L 10.125 3.878906 C 10.144531 4.503906 9.851562 5.191406 9.398438 5.820312 Z M 9.398438 5.820312 "/>
<path fill-rule="nonzero" fill="rgb(30%,30%,30%)" fill-opacity="1" d="M 8.804688 4.96875 C 8.699219 5.136719 8.582031 5.300781 8.453125 5.453125 C 8.671875 5.566406 8.902344 5.664062 9.136719 5.742188 C 9.160156 5.707031 9.183594 5.675781 9.210938 5.640625 C 9.644531 5.023438 9.878906 4.40625 9.863281 3.902344 L 9.796875 3.601562 C 9.644531 3.496094 9.480469 3.402344 9.308594 3.328125 C 9.328125 3.84375 9.152344 4.414062 8.804688 4.96875 Z M 8.804688 4.96875 "/>
</svg>
