<?xml version="1.0" encoding="UTF-8" standalone="no"?>
<!-- Created with Inkscape (http://www.inkscape.org/) -->

<svg
   xmlns:dc="http://purl.org/dc/elements/1.1/"
   xmlns:cc="http://creativecommons.org/ns#"
   xmlns:rdf="http://www.w3.org/1999/02/22-rdf-syntax-ns#"
   xmlns:svg="http://www.w3.org/2000/svg"
   xmlns="http://www.w3.org/2000/svg"
   xmlns:xlink="http://www.w3.org/1999/xlink"
   xmlns:sodipodi="http://sodipodi.sourceforge.net/DTD/sodipodi-0.dtd"
   xmlns:inkscape="http://www.inkscape.org/namespaces/inkscape"
   width="30px"
   height="30px"
   version="1.1"
   id="svg8"
   inkscape:version="0.92.4 5da689c313, 2019-01-14"
   sodipodi:docname="container.svg">
  <defs
     id="defs2" />
  <sodipodi:namedview
     id="base"
     pagecolor="#ffffff"
     bordercolor="#666666"
     borderopacity="1.0"
     inkscape:pageopacity="0.0"
     inkscape:pageshadow="2"
     inkscape:zoom="13.049334"
     inkscape:cx="18.679046"
     inkscape:cy="12.165829"
     inkscape:document-units="px"
     inkscape:current-layer="layer1"
     showgrid="false"
     inkscape:snap-page="false"
     units="px"
     inkscape:window-width="1884"
     inkscape:window-height="1061"
     inkscape:window-x="0"
     inkscape:window-y="0"
     inkscape:window-maximized="1"
     fit-margin-top="0"
     fit-margin-left="0"
     fit-margin-right="0"
     fit-margin-bottom="0" />
  <metadata
     id="metadata5">
    <rdf:RDF>
      <cc:Work
         rdf:about="">
        <dc:format>image/svg+xml</dc:format>
        <dc:type
           rdf:resource="http://purl.org/dc/dcmitype/StillImage" />
        <dc:title></dc:title>
      </cc:Work>
    </rdf:RDF>
  </metadata>
    <circle
       style="color:#000000;clip-rule:nonzero;display:inline;overflow:visible;visibility:visible;opacity:1;isolation:auto;mix-blend-mode:normal;color-interpolation:sRGB;color-interpolation-filters:linearRGB;solid-color:#000000;solid-opacity:1;vector-effect:none;fill:#00a757;fill-opacity:1;fill-rule:evenodd;stroke:#ffffff;stroke-width:1;stroke-linecap:butt;stroke-linejoin:miter;stroke-miterlimit:4;stroke-dasharray:none;stroke-dashoffset:0;stroke-opacity:1;marker:none;color-rendering:auto;image-rendering:auto;shape-rendering:auto;text-rendering:auto;enable-background:accumulate"
       id="path815"
       cx="15"
       cy="15"
       r="14.5" />
<g transform="translate(6.5,9.5)"><path fill-rule="nonzero" fill="#FFFFFF" fill-opacity="1" d="M 16.996094 11.074219 L 13.582031 2.945312 C 13.582031 2.945312 1.070312 0.0351562 0.703125 0 C 0.335938 -0.03125 0 0.570312 0 0.570312 C 0.0351562 0.804688 5.46875 2.902344 7.042969 3.519531 C 8.121094 3.941406 9.296875 4.570312 10.140625 5.082031 L 7.269531 6.851562 C 7.230469 6.875 7.21875 6.925781 7.242188 6.964844 C 7.269531 7.007812 7.320312 7.019531 7.359375 6.992188 L 10.304688 5.179688 C 10.324219 5.191406 10.34375 5.203125 10.363281 5.214844 L 9.5625 6.5625 C 9.488281 6.6875 9.527344 6.847656 9.648438 6.925781 L 9.851562 7.054688 C 9.101562 7.347656 8.171875 7.757812 8.015625 7.902344 C 7.777344 8.128906 8.042969 8.171875 8.402344 8.230469 C 8.757812 8.289062 10.660156 7.902344 10.660156 7.902344 L 10.945312 7.765625 L 12.175781 8.558594 C 12.230469 8.597656 12.304688 8.589844 12.355469 8.546875 C 12.40625 8.503906 12.425781 8.433594 12.398438 8.371094 L 11.84375 6.976562 C 11.949219 6.949219 12.03125 6.863281 12.050781 6.757812 C 12.070312 6.648438 12.027344 6.539062 11.9375 6.476562 C 11.851562 6.410156 11.734375 6.402344 11.636719 6.457031 L 11.453125 6 C 13.652344 7.921875 15.027344 10.914062 16.058594 11.140625 C 17.128906 11.375 16.996094 11.074219 16.996094 11.074219 Z M 11.328125 7.8125 L 11.121094 7.679688 L 11.328125 7.578125 Z M 11.824219 7.378906 L 12.226562 8.394531 L 12.023438 8.261719 L 12.027344 8.246094 L 11.539062 7.785156 Z M 11.539062 6.859375 C 11.488281 6.839844 11.441406 6.828125 11.390625 6.820312 C 11.390625 6.820312 11.195312 6.65625 10.71875 6.757812 C 10.589844 6.789062 10.339844 6.871094 10.042969 6.980469 L 9.738281 6.785156 C 9.695312 6.753906 9.679688 6.695312 9.707031 6.648438 L 10.507812 5.304688 C 10.804688 5.496094 11.042969 5.65625 11.183594 5.769531 L 11.511719 6.597656 C 11.476562 6.683594 11.484375 6.78125 11.539062 6.859375 Z M 11.539062 6.859375 "/>
</g>
</svg>
