<?xml version="1.0" encoding="UTF-8"?>
<svg xmlns="http://www.w3.org/2000/svg" xmlns:xlink="http://www.w3.org/1999/xlink" width="4.646567" height="11" viewBox="0 0 4.646567 11">
<path fill-rule="nonzero" fill="rgb(30%,30%,30%)" fill-opacity="1" d="M 2.085938 4.0625 C 2.085938 4.402344 1.808594 4.675781 1.46875 4.675781 C 1.128906 4.675781 0.855469 4.402344 0.855469 4.0625 C 0.855469 3.722656 1.128906 3.445312 1.46875 3.445312 C 1.808594 3.445312 2.085938 3.722656 2.085938 4.0625 "/>
<path fill-rule="nonzero" fill="rgb(30%,30%,30%)" fill-opacity="1" d="M 3.605469 0 C 2.855469 0 2.601562 2.089844 2.566406 4.796875 L 0.628906 4.8125 C 0.117188 4.902344 0.0234375 5.363281 0.00390625 5.507812 C 0 5.519531 0 5.53125 0 5.546875 L 0 7.675781 C 0 7.816406 0.113281 7.929688 0.253906 7.929688 C 0.394531 7.929688 0.507812 7.816406 0.507812 7.675781 L 0.507812 5.683594 L 0.667969 5.683594 C 0.667969 5.6875 0.664062 5.695312 0.664062 5.699219 L 0.664062 10.625 C 0.667969 10.832031 0.832031 11 1.039062 11 C 1.246094 11 1.414062 10.832031 1.414062 10.625 L 1.414062 7.855469 C 1.441406 7.859375 1.46875 7.863281 1.5 7.863281 L 1.566406 7.863281 L 1.566406 10.625 C 1.566406 10.832031 1.734375 11 1.941406 11 C 2.148438 11 2.316406 10.832031 2.316406 10.625 L 2.316406 5.394531 L 2.5625 5.394531 L 2.5625 5.5 C 2.5625 8.539062 3.03125 11 3.605469 11 C 4.179688 11 4.648438 8.539062 4.648438 5.5 C 4.648438 2.464844 4.457031 0 3.605469 0 "/>
</svg>
