<?xml version="1.0" encoding="UTF-8"?>
<svg xmlns="http://www.w3.org/2000/svg" xmlns:xlink="http://www.w3.org/1999/xlink" width="11" height="10.212213" viewBox="0 0 11 10.212213">
<path fill-rule="nonzero" fill="rgb(30%,30%,30%)" fill-opacity="1" d="M 6.320312 2.011719 C 6.320312 2.449219 5.964844 2.804688 5.523438 2.804688 C 5.085938 2.804688 4.730469 2.449219 4.730469 2.011719 C 4.730469 1.574219 5.085938 1.21875 5.523438 1.21875 C 5.964844 1.21875 6.320312 1.574219 6.320312 2.011719 Z M 5.539062 4.417969 C 5.101562 4.417969 4.746094 4.773438 4.746094 5.210938 C 4.746094 5.652344 5.101562 6.003906 5.539062 6.003906 C 5.976562 6.003906 6.332031 5.652344 6.332031 5.210938 C 6.332031 4.773438 5.976562 4.417969 5.539062 4.417969 Z M 3.785156 4.429688 C 3.34375 4.429688 2.988281 4.785156 2.988281 5.222656 C 2.988281 5.660156 3.34375 6.015625 3.785156 6.015625 C 4.222656 6.015625 4.578125 5.660156 4.578125 5.222656 C 4.578125 4.785156 4.222656 4.429688 3.785156 4.429688 Z M 7.300781 4.417969 C 6.863281 4.417969 6.507812 4.773438 6.507812 5.210938 C 6.507812 5.652344 6.863281 6.003906 7.300781 6.003906 C 7.742188 6.003906 8.09375 5.652344 8.09375 5.210938 C 8.09375 4.773438 7.742188 4.417969 7.300781 4.417969 Z M 6.429688 6.101562 C 5.992188 6.101562 5.636719 6.457031 5.636719 6.894531 C 5.636719 7.335938 5.992188 7.6875 6.429688 7.6875 C 6.871094 7.6875 7.226562 7.335938 7.226562 6.894531 C 7.226562 6.457031 6.871094 6.101562 6.429688 6.101562 Z M 4.707031 6.101562 C 4.269531 6.101562 3.914062 6.457031 3.914062 6.894531 C 3.914062 7.335938 4.269531 7.6875 4.707031 7.6875 C 5.144531 7.6875 5.5 7.335938 5.5 6.894531 C 5.5 6.457031 5.144531 6.101562 4.707031 6.101562 Z M 2.898438 6.09375 C 2.457031 6.09375 2.101562 6.449219 2.101562 6.886719 C 2.101562 7.324219 2.457031 7.679688 2.898438 7.679688 C 3.335938 7.679688 3.691406 7.324219 3.691406 6.886719 C 3.691406 6.449219 3.335938 6.09375 2.898438 6.09375 Z M 8.125 6.132812 C 7.6875 6.132812 7.332031 6.488281 7.332031 6.925781 C 7.332031 7.363281 7.6875 7.71875 8.125 7.71875 C 8.5625 7.71875 8.917969 7.363281 8.917969 6.925781 C 8.917969 6.488281 8.5625 6.132812 8.125 6.132812 Z M 7.222656 7.800781 C 6.785156 7.800781 6.429688 8.15625 6.429688 8.59375 C 6.429688 9.03125 6.785156 9.386719 7.222656 9.386719 C 7.660156 9.386719 8.015625 9.03125 8.015625 8.59375 C 8.015625 8.15625 7.660156 7.800781 7.222656 7.800781 Z M 5.535156 7.800781 C 5.097656 7.800781 4.742188 8.15625 4.742188 8.59375 C 4.742188 9.03125 5.097656 9.386719 5.535156 9.386719 C 5.972656 9.386719 6.328125 9.03125 6.328125 8.59375 C 6.328125 8.15625 5.972656 7.800781 5.535156 7.800781 Z M 3.835938 7.8125 C 3.398438 7.8125 3.042969 8.167969 3.042969 8.605469 C 3.042969 9.042969 3.398438 9.398438 3.835938 9.398438 C 4.277344 9.398438 4.632812 9.042969 4.632812 8.605469 C 4.632812 8.167969 4.277344 7.8125 3.835938 7.8125 Z M 2.066406 7.800781 C 1.625 7.800781 1.273438 8.15625 1.273438 8.59375 C 1.273438 9.03125 1.625 9.386719 2.066406 9.386719 C 2.503906 9.386719 2.859375 9.03125 2.859375 8.59375 C 2.859375 8.15625 2.503906 7.800781 2.066406 7.800781 Z M 8.949219 7.800781 C 8.511719 7.800781 8.15625 8.15625 8.15625 8.59375 C 8.15625 9.03125 8.511719 9.386719 8.949219 9.386719 C 9.386719 9.386719 9.742188 9.03125 9.742188 8.59375 C 9.742188 8.15625 9.386719 7.800781 8.949219 7.800781 Z M 6.402344 2.839844 C 5.964844 2.839844 5.609375 3.195312 5.609375 3.632812 C 5.609375 4.070312 5.964844 4.425781 6.402344 4.425781 C 6.839844 4.425781 7.195312 4.070312 7.195312 3.632812 C 7.195312 3.195312 6.839844 2.839844 6.402344 2.839844 Z M 4.742188 2.832031 C 4.304688 2.832031 3.949219 3.1875 3.949219 3.628906 C 3.949219 4.066406 4.304688 4.421875 4.742188 4.421875 C 5.179688 4.421875 5.535156 4.066406 5.535156 3.628906 C 5.535156 3.1875 5.179688 2.832031 4.742188 2.832031 Z M 4.742188 2.832031 "/>
<path fill-rule="nonzero" fill="rgb(30%,30%,30%)" fill-opacity="1" d="M 5.523438 0.582031 C 5.78125 0.578125 6.015625 0.71875 6.136719 0.941406 L 10.335938 8.621094 C 10.582031 9.078125 10.25 9.632812 9.722656 9.632812 C 9.722656 9.632812 9.722656 9.632812 9.71875 9.632812 L 1.273438 9.582031 C 0.746094 9.578125 0.414062 9.019531 0.667969 8.566406 L 4.917969 0.9375 C 5.039062 0.714844 5.273438 0.578125 5.523438 0.582031 M 5.523438 0 C 5.304688 0 5.089844 0.0546875 4.898438 0.164062 C 4.691406 0.277344 4.523438 0.449219 4.410156 0.652344 L 0.160156 8.285156 C -0.0585938 8.671875 -0.0546875 9.148438 0.171875 9.53125 C 0.398438 9.921875 0.816406 10.164062 1.269531 10.164062 L 9.714844 10.210938 L 9.722656 10.210938 C 10.175781 10.214844 10.59375 9.976562 10.820312 9.589844 C 11.050781 9.207031 11.058594 8.730469 10.84375 8.34375 L 6.644531 0.660156 C 6.421875 0.253906 5.992188 0 5.523438 0 "/>
</svg>
