<?xml version="1.0" encoding="UTF-8" standalone="no"?>
<!-- Created with Inkscape (http://www.inkscape.org/) -->

<svg
   xmlns:dc="http://purl.org/dc/elements/1.1/"
   xmlns:cc="http://creativecommons.org/ns#"
   xmlns:rdf="http://www.w3.org/1999/02/22-rdf-syntax-ns#"
   xmlns:svg="http://www.w3.org/2000/svg"
   xmlns="http://www.w3.org/2000/svg"
   xmlns:xlink="http://www.w3.org/1999/xlink"
   xmlns:sodipodi="http://sodipodi.sourceforge.net/DTD/sodipodi-0.dtd"
   xmlns:inkscape="http://www.inkscape.org/namespaces/inkscape"
   width="30px"
   height="30px"
   version="1.1"
   id="svg8"
   inkscape:version="0.92.4 5da689c313, 2019-01-14"
   sodipodi:docname="container.svg">
  <defs
     id="defs2" />
  <sodipodi:namedview
     id="base"
     pagecolor="#ffffff"
     bordercolor="#666666"
     borderopacity="1.0"
     inkscape:pageopacity="0.0"
     inkscape:pageshadow="2"
     inkscape:zoom="13.049334"
     inkscape:cx="18.679046"
     inkscape:cy="12.165829"
     inkscape:document-units="px"
     inkscape:current-layer="layer1"
     showgrid="false"
     inkscape:snap-page="false"
     units="px"
     inkscape:window-width="1884"
     inkscape:window-height="1061"
     inkscape:window-x="0"
     inkscape:window-y="0"
     inkscape:window-maximized="1"
     fit-margin-top="0"
     fit-margin-left="0"
     fit-margin-right="0"
     fit-margin-bottom="0" />
  <metadata
     id="metadata5">
    <rdf:RDF>
      <cc:Work
         rdf:about="">
        <dc:format>image/svg+xml</dc:format>
        <dc:type
           rdf:resource="http://purl.org/dc/dcmitype/StillImage" />
        <dc:title></dc:title>
      </cc:Work>
    </rdf:RDF>
  </metadata>
    <circle
       style="color:#000000;clip-rule:nonzero;display:inline;overflow:visible;visibility:visible;opacity:1;isolation:auto;mix-blend-mode:normal;color-interpolation:sRGB;color-interpolation-filters:linearRGB;solid-color:#000000;solid-opacity:1;vector-effect:none;fill:#00a757;fill-opacity:1;fill-rule:evenodd;stroke:#ffffff;stroke-width:1;stroke-linecap:butt;stroke-linejoin:miter;stroke-miterlimit:4;stroke-dasharray:none;stroke-dashoffset:0;stroke-opacity:1;marker:none;color-rendering:auto;image-rendering:auto;shape-rendering:auto;text-rendering:auto;enable-background:accumulate"
       id="path815"
       cx="15"
       cy="15"
       r="14.5" />
<g transform="translate(8.0,6.5)"><path fill-rule="nonzero" fill="#FFFFFF" fill-opacity="1" d="M 13.316406 1.746094 C 12.9375 1.574219 12.503906 1.664062 12.222656 1.9375 C 11.578125 1.578125 10.90625 1.273438 10.210938 1.03125 C 10.234375 0.640625 10.019531 0.257812 9.640625 0.0859375 C 9.144531 -0.136719 8.5625 0.0820312 8.339844 0.570312 C 8.117188 1.058594 8.332031 1.636719 8.828125 1.859375 C 9.207031 2.03125 9.636719 1.941406 9.917969 1.667969 C 10.007812 1.714844 10.09375 1.761719 10.183594 1.808594 C 10.136719 1.871094 10.101562 1.941406 10.078125 2.019531 L 9.28125 4.664062 L 7.527344 4.929688 C 7.359375 4.773438 7.132812 4.675781 6.882812 4.671875 L 6.875 4.671875 C 6.625 4.671875 6.394531 4.769531 6.226562 4.929688 L 4.5 4.667969 L 3.820312 2.042969 C 3.796875 1.957031 3.757812 1.878906 3.707031 1.808594 C 3.796875 1.761719 3.882812 1.714844 3.972656 1.667969 C 4.253906 1.941406 4.683594 2.03125 5.0625 1.859375 C 5.558594 1.636719 5.773438 1.058594 5.550781 0.570312 C 5.324219 0.0820312 4.746094 -0.136719 4.25 0.0859375 C 3.871094 0.257812 3.65625 0.640625 3.679688 1.03125 C 2.984375 1.273438 2.3125 1.578125 1.667969 1.9375 C 1.386719 1.664062 0.953125 1.574219 0.574219 1.746094 C 0.0820312 1.96875 -0.136719 2.546875 0.0898438 3.035156 C 0.3125 3.523438 0.894531 3.738281 1.386719 3.515625 C 1.765625 3.347656 1.980469 2.964844 1.960938 2.574219 C 2.128906 2.515625 2.292969 2.453125 2.457031 2.386719 C 2.457031 2.386719 2.457031 2.390625 2.457031 2.390625 L 3.269531 5.519531 C 3.335938 5.769531 3.53125 5.953125 3.765625 6.019531 C 3.808594 6.03125 3.847656 6.042969 3.894531 6.050781 L 5.925781 6.359375 L 5.902344 9.832031 C 5.902344 9.925781 5.914062 10.015625 5.9375 10.097656 L 4.632812 12.925781 C 4.632812 12.929688 4.632812 12.929688 4.632812 12.929688 C 4.628906 12.9375 4.625 12.945312 4.621094 12.957031 C 4.621094 12.957031 4.617188 12.960938 4.617188 12.964844 C 4.613281 12.972656 4.613281 12.976562 4.609375 12.984375 C 4.605469 12.992188 4.605469 12.996094 4.601562 13.003906 C 4.601562 13.007812 4.601562 13.007812 4.601562 13.011719 C 4.597656 13.023438 4.59375 13.03125 4.589844 13.039062 C 4.589844 13.042969 4.589844 13.042969 4.589844 13.042969 C 4.585938 13.054688 4.585938 13.066406 4.582031 13.082031 L 3.925781 16.117188 C 3.839844 16.511719 4.09375 16.898438 4.488281 16.984375 C 4.539062 16.996094 4.59375 17 4.644531 17 C 4.984375 17 5.289062 16.765625 5.363281 16.425781 L 6.003906 13.460938 L 6.863281 11.597656 L 7.722656 13.460938 L 8.363281 16.425781 C 8.4375 16.765625 8.742188 17 9.082031 17 C 9.132812 17 9.1875 16.996094 9.238281 16.984375 C 9.632812 16.898438 9.886719 16.511719 9.800781 16.117188 L 9.144531 13.078125 C 9.140625 13.066406 9.140625 13.054688 9.136719 13.042969 C 9.136719 13.042969 9.136719 13.042969 9.136719 13.039062 C 9.132812 13.03125 9.128906 13.023438 9.128906 13.015625 C 9.125 13.011719 9.125 13.007812 9.125 13.003906 C 9.121094 12.996094 9.121094 12.992188 9.117188 12.984375 C 9.117188 12.976562 9.113281 12.972656 9.109375 12.964844 C 9.109375 12.960938 9.109375 12.957031 9.105469 12.957031 C 9.101562 12.945312 9.097656 12.9375 9.09375 12.929688 C 9.09375 12.929688 9.09375 12.929688 9.09375 12.925781 L 7.769531 10.058594 C 7.785156 9.988281 7.796875 9.917969 7.796875 9.84375 L 7.820312 6.359375 L 9.867188 6.050781 C 9.910156 6.042969 9.953125 6.03125 9.992188 6.019531 C 10.21875 5.957031 10.410156 5.785156 10.480469 5.546875 L 11.425781 2.417969 C 11.425781 2.40625 11.429688 2.398438 11.433594 2.386719 C 11.597656 2.453125 11.761719 2.515625 11.929688 2.574219 C 11.90625 2.964844 12.125 3.347656 12.503906 3.515625 C 12.996094 3.738281 13.578125 3.523438 13.800781 3.035156 C 14.027344 2.546875 13.808594 1.96875 13.316406 1.746094 Z M 13.316406 1.746094 "/>
<path fill-rule="nonzero" fill="#FFFFFF" fill-opacity="1" d="M 6.945312 4.394531 C 7.667969 4.394531 8.25 3.8125 8.25 3.097656 C 8.25 2.382812 7.667969 1.800781 6.945312 1.800781 C 6.222656 1.800781 5.636719 2.382812 5.636719 3.097656 C 5.636719 3.8125 6.222656 4.394531 6.945312 4.394531 Z M 6.945312 4.394531 "/>
</g>
</svg>
