<?xml version="1.0" encoding="UTF-8"?>
<svg xmlns="http://www.w3.org/2000/svg" xmlns:xlink="http://www.w3.org/1999/xlink" width="11" height="4.474018" viewBox="0 0 11 4.474018">
<path fill-rule="nonzero" fill="rgb(30%,30%,30%)" fill-opacity="1" d="M 1.65625 2.625 C 1.148438 2.625 0.734375 3.039062 0.734375 3.550781 C 0.734375 4.058594 1.148438 4.472656 1.65625 4.472656 C 2.167969 4.472656 2.582031 4.058594 2.582031 3.550781 C 2.582031 3.039062 2.167969 2.625 1.65625 2.625 Z M 1.65625 4.105469 C 1.351562 4.105469 1.101562 3.855469 1.101562 3.550781 C 1.101562 3.242188 1.351562 2.996094 1.65625 2.996094 C 1.964844 2.996094 2.210938 3.242188 2.210938 3.550781 C 2.210938 3.855469 1.964844 4.105469 1.65625 4.105469 Z M 1.65625 4.105469 "/>
<path fill-rule="nonzero" fill="rgb(30%,30%,30%)" fill-opacity="1" d="M 6.945312 2.625 C 6.433594 2.625 6.019531 3.039062 6.019531 3.550781 C 6.019531 4.058594 6.433594 4.472656 6.945312 4.472656 C 7.457031 4.472656 7.867188 4.058594 7.867188 3.550781 C 7.867188 3.039062 7.457031 2.625 6.945312 2.625 Z M 6.945312 4.105469 C 6.636719 4.105469 6.390625 3.855469 6.390625 3.550781 C 6.390625 3.242188 6.636719 2.996094 6.945312 2.996094 C 7.25 2.996094 7.5 3.242188 7.5 3.550781 C 7.5 3.855469 7.25 4.105469 6.945312 4.105469 Z M 6.945312 4.105469 "/>
<path fill-rule="nonzero" fill="rgb(30%,30%,30%)" fill-opacity="1" d="M 0.476562 4.21875 L 0.714844 4.21875 C 0.5625 4.003906 0.488281 3.742188 0.503906 3.476562 C 0.511719 3.332031 0.550781 3.1875 0.613281 3.054688 L 0 3.054688 Z M 0.476562 4.21875 "/>
<path fill-rule="nonzero" fill="rgb(30%,30%,30%)" fill-opacity="1" d="M 6.042969 2.535156 C 5.992188 2.492188 5.863281 2.5 5.691406 2.511719 C 5.523438 2.527344 4.960938 2.613281 4.960938 2.613281 L 4.316406 2.335938 L 5.445312 2.398438 L 5.496094 2.300781 C 5.554688 2.339844 5.648438 2.363281 5.691406 2.316406 L 6.023438 1.984375 L 6.398438 2.210938 L 6.714844 2.414062 L 6.929688 2.394531 C 7.367188 2.386719 7.773438 2.632812 7.972656 3.023438 C 8.171875 3.414062 8.132812 3.886719 7.871094 4.238281 L 11 4.230469 L 10.984375 3.851562 L 9.808594 3.851562 L 9.644531 3.734375 L 10.933594 3.738281 L 10.398438 3.269531 L 9.355469 3.296875 L 9.101562 3.082031 L 10.1875 3.054688 L 6.867188 1.1875 L 6.933594 2.097656 L 6.304688 1.703125 L 6.601562 1.402344 C 6.628906 1.375 6.644531 1.335938 6.644531 1.292969 C 6.640625 1.253906 6.621094 1.214844 6.589844 1.191406 C 6.53125 1.148438 6.449219 1.15625 6.402344 1.207031 L 5.84375 1.765625 C 5.808594 1.757812 5.765625 1.753906 5.738281 1.761719 C 5.6875 1.773438 5.472656 1.941406 5.472656 1.941406 C 5.472656 1.941406 5.4375 1.945312 5.261719 1.9375 C 5.089844 1.929688 3.425781 1.722656 3.285156 1.65625 C 3.203125 1.613281 3.164062 1.5625 3.148438 1.53125 L 3.859375 1.464844 L 3.722656 0.960938 L 3.648438 0.960938 C 3.542969 0.960938 3.371094 0.957031 3.339844 0.953125 C 2.917969 0.898438 2.589844 0.742188 2.609375 0.605469 C 2.625 0.46875 2.980469 0.402344 3.402344 0.457031 C 3.414062 0.457031 3.515625 0.460938 3.523438 0.464844 C 3.410156 0.195312 3.042969 0 2.730469 0 C 2.375 0 2.066406 0.246094 1.992188 0.59375 C 1.914062 0.941406 2.089844 1.296875 2.414062 1.445312 L 2.410156 1.460938 L 2.265625 1.832031 C 2.265625 1.832031 1.96875 1.351562 1.828125 1.328125 C 1.726562 1.308594 1.96875 1.9375 1.828125 1.984375 C 1.625 2.050781 0.867188 1.964844 0.859375 1.984375 C 0.792969 2.144531 0.644531 2.457031 0.566406 2.613281 C 0.550781 2.640625 0 2.613281 0 2.613281 L 0 2.980469 L 0.613281 2.980469 C 0.796875 2.667969 1.191406 2.398438 1.640625 2.394531 C 2.078125 2.386719 2.480469 2.628906 2.683594 3.015625 C 2.882812 3.402344 2.851562 3.867188 2.597656 4.222656 L 6.011719 4.234375 C 5.652344 3.742188 5.734375 3.054688 6.207031 2.664062 Z M 6.042969 2.535156 "/>
</svg>
