<?xml version="1.0" encoding="UTF-8"?>
<svg xmlns="http://www.w3.org/2000/svg" xmlns:xlink="http://www.w3.org/1999/xlink" width="11" height="10.592531" viewBox="0 0 11 10.592531">
<path fill-rule="nonzero" fill="rgb(30%,30%,30%)" fill-opacity="1" d="M 10.761719 10.113281 L 9.3125 10.113281 L 9.046875 9.023438 L 9.730469 9.023438 C 9.871094 9.023438 9.984375 8.90625 9.984375 8.765625 C 9.984375 8.625 9.871094 8.511719 9.730469 8.511719 L 8.921875 8.511719 L 8.675781 7.511719 L 8.164062 7.511719 L 8.410156 8.511719 L 6.90625 8.511719 L 7.164062 7.511719 L 6.652344 7.511719 L 6.394531 8.511719 L 5.582031 8.511719 C 5.441406 8.511719 5.328125 8.625 5.328125 8.765625 C 5.328125 8.90625 5.441406 9.023438 5.582031 9.023438 L 6.265625 9.023438 L 5.984375 10.113281 L 3.003906 10.113281 L 3.003906 7.816406 L 5.09375 7.816406 C 5.144531 7.816406 5.171875 7.785156 5.171875 7.742188 C 5.171875 7.703125 5.15625 7.667969 5.136719 7.640625 L 3.652344 5.285156 L 4.765625 5.285156 C 4.820312 5.285156 4.847656 5.253906 4.847656 5.210938 C 4.84375 5.171875 4.832031 5.136719 4.8125 5.105469 L 3.328125 2.753906 L 4.128906 2.753906 C 4.179688 2.753906 4.207031 2.722656 4.207031 2.679688 C 4.207031 2.640625 4.195312 2.605469 4.171875 2.574219 L 2.585938 0 L 1 2.574219 C 0.976562 2.605469 0.964844 2.640625 0.964844 2.679688 C 0.964844 2.722656 0.992188 2.753906 1.042969 2.753906 L 1.84375 2.753906 L 0.359375 5.105469 C 0.339844 5.136719 0.328125 5.171875 0.324219 5.210938 C 0.324219 5.253906 0.351562 5.285156 0.40625 5.285156 L 1.519531 5.285156 L 0.0351562 7.640625 C 0.015625 7.667969 0.00390625 7.703125 0 7.742188 C 0 7.785156 0.0273438 7.816406 0.0820312 7.816406 L 2.277344 7.816406 L 2.277344 10.113281 L 0.527344 10.113281 C 0.394531 10.113281 0.285156 10.222656 0.285156 10.351562 C 0.285156 10.484375 0.394531 10.59375 0.527344 10.59375 L 10.761719 10.59375 C 10.894531 10.59375 11 10.484375 11 10.351562 C 11 10.222656 10.894531 10.113281 10.761719 10.113281 Z M 6.773438 9.023438 L 8.535156 9.023438 L 8.804688 10.113281 L 6.492188 10.113281 Z M 6.773438 9.023438 "/>
<path fill-rule="nonzero" fill="rgb(30%,30%,30%)" fill-opacity="1" d="M 6.210938 6.832031 L 9.101562 6.832031 C 9.238281 6.832031 9.351562 6.945312 9.351562 7.085938 C 9.351562 7.226562 9.238281 7.339844 9.101562 7.339844 L 6.210938 7.339844 C 6.070312 7.339844 5.957031 7.226562 5.957031 7.085938 C 5.957031 6.945312 6.070312 6.832031 6.210938 6.832031 Z M 6.210938 6.832031 "/>
</svg>
