<?xml version="1.0" encoding="UTF-8"?>
<svg xmlns="http://www.w3.org/2000/svg" xmlns:xlink="http://www.w3.org/1999/xlink" width="11" height="10.623224" viewBox="0 0 11 10.623224">
<path fill-rule="nonzero" fill="rgb(30%,30%,30%)" fill-opacity="1" d="M 11 9.914062 C 11 9.914062 10.992188 10.402344 10.460938 10.476562 C 10.253906 10.507812 8.816406 10.511719 8.738281 10.511719 C 8.738281 10.511719 8.292969 10.503906 7.804688 10.074219 C 7.484375 9.792969 7.257812 9.441406 6.949219 9.023438 L 0.800781 0.476562 C 0.738281 0.394531 0.726562 0.28125 0.769531 0.183594 C 0.8125 0.0859375 0.90625 0.0195312 1.011719 0.0078125 C 1.117188 0 1.21875 0.046875 1.28125 0.132812 L 7.59375 8.84375 C 7.746094 9.007812 7.847656 9.136719 7.960938 9.191406 C 8.082031 9.253906 8.277344 9.332031 8.414062 9.332031 L 9.671875 9.3125 C 10.828125 9.183594 11 9.445312 11 9.914062 Z M 3.40625 8.835938 C 3.253906 9 3.152344 9.128906 3.039062 9.183594 C 2.917969 9.246094 2.722656 9.320312 2.585938 9.320312 L 1.328125 9.304688 C 0.171875 9.175781 0 9.4375 0 9.902344 C 0 9.902344 0.0078125 10.390625 0.539062 10.46875 C 0.746094 10.5 2.183594 10.503906 2.261719 10.503906 C 2.261719 10.503906 2.707031 10.496094 3.195312 10.066406 C 3.515625 9.78125 3.742188 9.433594 4.050781 9.011719 L 5.285156 7.296875 L 4.90625 6.765625 Z M 10.132812 0.0546875 C 10 -0.0390625 9.816406 -0.0117188 9.71875 0.121094 L 5.773438 5.566406 L 6.152344 6.09375 L 10.199219 0.46875 C 10.292969 0.335938 10.265625 0.152344 10.132812 0.0546875 Z M 5.511719 9.402344 C 4.828125 9.402344 4.273438 9.585938 4.273438 9.808594 C 4.273438 10.035156 4.828125 10.214844 5.511719 10.214844 C 6.195312 10.214844 6.75 10.035156 6.75 9.808594 C 6.75 9.585938 6.195312 9.402344 5.511719 9.402344 Z M 4.265625 10.214844 C 4.265625 10.441406 4.820312 10.625 5.503906 10.625 C 6.1875 10.625 6.738281 10.441406 6.738281 10.214844 L 6.738281 9.984375 C 6.738281 10.210938 6.1875 10.390625 5.503906 10.390625 C 4.820312 10.390625 4.265625 10.210938 4.265625 9.984375 Z M 4.265625 10.214844 "/>
</svg>
