<?xml version="1.0" encoding="UTF-8" standalone="no"?>
<!-- Created with Inkscape (http://www.inkscape.org/) -->

<svg
   xmlns:dc="http://purl.org/dc/elements/1.1/"
   xmlns:cc="http://creativecommons.org/ns#"
   xmlns:rdf="http://www.w3.org/1999/02/22-rdf-syntax-ns#"
   xmlns:svg="http://www.w3.org/2000/svg"
   xmlns="http://www.w3.org/2000/svg"
   xmlns:xlink="http://www.w3.org/1999/xlink"
   xmlns:sodipodi="http://sodipodi.sourceforge.net/DTD/sodipodi-0.dtd"
   xmlns:inkscape="http://www.inkscape.org/namespaces/inkscape"
   width="30px"
   height="30px"
   version="1.1"
   id="svg8"
   inkscape:version="0.92.4 5da689c313, 2019-01-14"
   sodipodi:docname="container.svg">
  <defs
     id="defs2" />
  <sodipodi:namedview
     id="base"
     pagecolor="#ffffff"
     bordercolor="#666666"
     borderopacity="1.0"
     inkscape:pageopacity="0.0"
     inkscape:pageshadow="2"
     inkscape:zoom="13.049334"
     inkscape:cx="18.679046"
     inkscape:cy="12.165829"
     inkscape:document-units="px"
     inkscape:current-layer="layer1"
     showgrid="false"
     inkscape:snap-page="false"
     units="px"
     inkscape:window-width="1884"
     inkscape:window-height="1061"
     inkscape:window-x="0"
     inkscape:window-y="0"
     inkscape:window-maximized="1"
     fit-margin-top="0"
     fit-margin-left="0"
     fit-margin-right="0"
     fit-margin-bottom="0" />
  <metadata
     id="metadata5">
    <rdf:RDF>
      <cc:Work
         rdf:about="">
        <dc:format>image/svg+xml</dc:format>
        <dc:type
           rdf:resource="http://purl.org/dc/dcmitype/StillImage" />
        <dc:title></dc:title>
      </cc:Work>
    </rdf:RDF>
  </metadata>
    <circle
       style="color:#000000;clip-rule:nonzero;display:inline;overflow:visible;visibility:visible;opacity:1;isolation:auto;mix-blend-mode:normal;color-interpolation:sRGB;color-interpolation-filters:linearRGB;solid-color:#000000;solid-opacity:1;vector-effect:none;fill:#ffffff;fill-opacity:1;fill-rule:evenodd;stroke:#00a757;stroke-width:1;stroke-linecap:butt;stroke-linejoin:miter;stroke-miterlimit:4;stroke-dasharray:none;stroke-dashoffset:0;stroke-opacity:1;marker:none;color-rendering:auto;image-rendering:auto;shape-rendering:auto;text-rendering:auto;enable-background:accumulate"
       id="path815"
       cx="15"
       cy="15"
       r="14.5" />
<g transform="translate(6.5,6.5)"><path fill-rule="nonzero" fill="rgb(30%,30%,30%)" fill-opacity="1" d="M 16.46875 4.242188 C 15.402344 2.574219 13 1.402344 13 1.402344 C 3.957031 -3.109375 0.195312 4.707031 0.195312 4.707031 C -0.167969 5.5 -0.0859375 6.226562 0.972656 6.804688 L 4.675781 8.371094 C 5.101562 8.570312 5.574219 8.570312 6.113281 8.484375 L 7.839844 11.992188 C 7.664062 12.03125 7.523438 12.160156 7.464844 12.328125 L 6.167969 15.890625 C 6.117188 16.03125 6.125 16.183594 6.191406 16.320312 C 6.261719 16.453125 6.378906 16.550781 6.523438 16.59375 L 7.867188 16.980469 C 8.003906 17.019531 8.152344 17 8.28125 16.929688 C 8.40625 16.859375 8.5 16.738281 8.535156 16.601562 L 9.515625 12.9375 C 9.566406 12.75 9.507812 12.550781 9.367188 12.414062 L 13.039062 9.164062 C 16.878906 10.226562 17.40625 5.703125 16.46875 4.242188 Z M 7.761719 15.925781 L 7.3125 15.804688 L 8.207031 13.039062 L 8.429688 13.101562 Z M 8.75 11.699219 L 7.066406 8.273438 C 7.257812 8.226562 7.460938 8.171875 7.671875 8.121094 C 7.671875 8.121094 10.035156 7.648438 11.203125 8.339844 C 11.496094 8.515625 11.773438 8.660156 12.039062 8.785156 Z M 5.890625 4.144531 C 4.339844 4.339844 3.28125 4.785156 3.363281 4.632812 C 3.4375 4.5 4.878906 3.664062 5.328125 3.554688 C 6.199219 3.332031 7.125 3.257812 8.011719 3.429688 C 9.589844 3.742188 10.496094 4.203125 11.6875 5.289062 C 11.734375 5.328125 12.136719 5.773438 12.148438 5.835938 C 12.167969 5.964844 9.085938 3.742188 5.890625 4.144531 Z M 14.300781 3 C 12.992188 2.464844 10.101562 1.171875 6.929688 2.003906 C 4.210938 2.714844 3.128906 3.078125 2.441406 3.519531 C 2.027344 3.785156 3.941406 0.917969 8.757812 0.960938 C 9.558594 0.96875 10.84375 1.089844 11.597656 1.363281 C 13.5 2.058594 14.4375 3.054688 14.300781 3 Z M 14.300781 3 "/>
</g>
</svg>
