<?xml version="1.0" encoding="UTF-8" standalone="no"?>
<!-- Created with Inkscape (http://www.inkscape.org/) -->

<svg
   xmlns:dc="http://purl.org/dc/elements/1.1/"
   xmlns:cc="http://creativecommons.org/ns#"
   xmlns:rdf="http://www.w3.org/1999/02/22-rdf-syntax-ns#"
   xmlns:svg="http://www.w3.org/2000/svg"
   xmlns="http://www.w3.org/2000/svg"
   xmlns:xlink="http://www.w3.org/1999/xlink"
   xmlns:sodipodi="http://sodipodi.sourceforge.net/DTD/sodipodi-0.dtd"
   xmlns:inkscape="http://www.inkscape.org/namespaces/inkscape"
   width="30px"
   height="30px"
   version="1.1"
   id="svg8"
   inkscape:version="0.92.4 5da689c313, 2019-01-14"
   sodipodi:docname="container.svg">
  <defs
     id="defs2" />
  <sodipodi:namedview
     id="base"
     pagecolor="#ffffff"
     bordercolor="#666666"
     borderopacity="1.0"
     inkscape:pageopacity="0.0"
     inkscape:pageshadow="2"
     inkscape:zoom="13.049334"
     inkscape:cx="18.679046"
     inkscape:cy="12.165829"
     inkscape:document-units="px"
     inkscape:current-layer="layer1"
     showgrid="false"
     inkscape:snap-page="false"
     units="px"
     inkscape:window-width="1884"
     inkscape:window-height="1061"
     inkscape:window-x="0"
     inkscape:window-y="0"
     inkscape:window-maximized="1"
     fit-margin-top="0"
     fit-margin-left="0"
     fit-margin-right="0"
     fit-margin-bottom="0" />
  <metadata
     id="metadata5">
    <rdf:RDF>
      <cc:Work
         rdf:about="">
        <dc:format>image/svg+xml</dc:format>
        <dc:type
           rdf:resource="http://purl.org/dc/dcmitype/StillImage" />
        <dc:title></dc:title>
      </cc:Work>
    </rdf:RDF>
  </metadata>
    <circle
       style="color:#000000;clip-rule:nonzero;display:inline;overflow:visible;visibility:visible;opacity:1;isolation:auto;mix-blend-mode:normal;color-interpolation:sRGB;color-interpolation-filters:linearRGB;solid-color:#000000;solid-opacity:1;vector-effect:none;fill:#ffffff;fill-opacity:1;fill-rule:evenodd;stroke:#00a757;stroke-width:1;stroke-linecap:butt;stroke-linejoin:miter;stroke-miterlimit:4;stroke-dasharray:none;stroke-dashoffset:0;stroke-opacity:1;marker:none;color-rendering:auto;image-rendering:auto;shape-rendering:auto;text-rendering:auto;enable-background:accumulate"
       id="path815"
       cx="15"
       cy="15"
       r="14.5" />
<g transform="translate(6.5,9.0)"><path fill-rule="nonzero" fill="rgb(30%,30%,30%)" fill-opacity="1" d="M 0 0 L 2.683594 0 L 3.582031 1.640625 L 2.683594 2.535156 Z M 0 0 "/>
<path fill-rule="nonzero" fill="rgb(30%,30%,30%)" fill-opacity="1" d="M 8.03125 4.566406 C 7.652344 4.464844 7.261719 4.6875 7.160156 5.066406 L 7.074219 5.386719 C 6.972656 5.765625 7.199219 6.160156 7.578125 6.261719 L 10.488281 7.019531 L 10.890625 5.3125 Z M 8.03125 4.566406 "/>
<path fill-rule="nonzero" fill="rgb(30%,30%,30%)" fill-opacity="1" d="M 10.96875 7.128906 L 11.371094 7.234375 C 11.839844 7.355469 12.320312 7.074219 12.441406 6.605469 C 12.566406 6.136719 12.285156 5.65625 11.816406 5.535156 L 11.371094 5.417969 Z M 10.96875 7.128906 "/>
<path fill-rule="nonzero" fill="rgb(30%,30%,30%)" fill-opacity="1" d="M 15.097656 8.335938 L 14.628906 8.101562 C 14.757812 7.53125 14.472656 6.949219 13.945312 6.699219 C 13.414062 6.453125 12.785156 6.605469 12.429688 7.070312 C 12.074219 7.535156 12.09375 8.183594 12.46875 8.628906 C 12.847656 9.074219 13.488281 9.195312 14 8.921875 L 14.222656 9.359375 Z M 15.097656 8.335938 "/>
<path fill-rule="nonzero" fill="rgb(30%,30%,30%)" fill-opacity="1" d="M 16.414062 10.824219 L 13.8125 10.824219 C 13.789062 10.785156 13.765625 10.753906 13.738281 10.722656 L 11.472656 8.234375 C 11.382812 8.132812 10.945312 7.78125 10.777344 7.734375 L 7.105469 6.746094 L 4.671875 2.527344 C 4.425781 2.109375 3.890625 1.964844 3.472656 2.207031 L 3.382812 2.257812 C 2.964844 2.5 2.820312 3.035156 3.0625 3.457031 L 5.550781 7.761719 C 5.605469 7.859375 5.816406 8.230469 5.875 8.335938 C 6.058594 8.648438 6.730469 8.8125 6.730469 8.8125 L 11.148438 10.089844 C 11.429688 10.167969 12.757812 11.992188 13.34375 11.992188 L 16.414062 11.992188 C 16.738281 11.992188 17 11.730469 17 11.40625 C 17 11.085938 16.738281 10.824219 16.414062 10.824219 Z M 16.414062 10.824219 "/>
</g>
</svg>
