<?xml version="1.0" encoding="UTF-8" standalone="no"?>
<!-- Created with Inkscape (http://www.inkscape.org/) -->

<svg
   xmlns:dc="http://purl.org/dc/elements/1.1/"
   xmlns:cc="http://creativecommons.org/ns#"
   xmlns:rdf="http://www.w3.org/1999/02/22-rdf-syntax-ns#"
   xmlns:svg="http://www.w3.org/2000/svg"
   xmlns="http://www.w3.org/2000/svg"
   xmlns:xlink="http://www.w3.org/1999/xlink"
   xmlns:sodipodi="http://sodipodi.sourceforge.net/DTD/sodipodi-0.dtd"
   xmlns:inkscape="http://www.inkscape.org/namespaces/inkscape"
   width="30px"
   height="30px"
   version="1.1"
   id="svg8"
   inkscape:version="0.92.4 5da689c313, 2019-01-14"
   sodipodi:docname="container.svg">
  <defs
     id="defs2" />
  <sodipodi:namedview
     id="base"
     pagecolor="#ffffff"
     bordercolor="#666666"
     borderopacity="1.0"
     inkscape:pageopacity="0.0"
     inkscape:pageshadow="2"
     inkscape:zoom="13.049334"
     inkscape:cx="18.679046"
     inkscape:cy="12.165829"
     inkscape:document-units="px"
     inkscape:current-layer="layer1"
     showgrid="false"
     inkscape:snap-page="false"
     units="px"
     inkscape:window-width="1884"
     inkscape:window-height="1061"
     inkscape:window-x="0"
     inkscape:window-y="0"
     inkscape:window-maximized="1"
     fit-margin-top="0"
     fit-margin-left="0"
     fit-margin-right="0"
     fit-margin-bottom="0" />
  <metadata
     id="metadata5">
    <rdf:RDF>
      <cc:Work
         rdf:about="">
        <dc:format>image/svg+xml</dc:format>
        <dc:type
           rdf:resource="http://purl.org/dc/dcmitype/StillImage" />
        <dc:title></dc:title>
      </cc:Work>
    </rdf:RDF>
  </metadata>
    <circle
       style="color:#000000;clip-rule:nonzero;display:inline;overflow:visible;visibility:visible;opacity:1;isolation:auto;mix-blend-mode:normal;color-interpolation:sRGB;color-interpolation-filters:linearRGB;solid-color:#000000;solid-opacity:1;vector-effect:none;fill:#00a757;fill-opacity:1;fill-rule:evenodd;stroke:#ffffff;stroke-width:1;stroke-linecap:butt;stroke-linejoin:miter;stroke-miterlimit:4;stroke-dasharray:none;stroke-dashoffset:0;stroke-opacity:1;marker:none;color-rendering:auto;image-rendering:auto;shape-rendering:auto;text-rendering:auto;enable-background:accumulate"
       id="path815"
       cx="15"
       cy="15"
       r="14.5" />
<g transform="translate(6.5,8.5)"><path fill-rule="nonzero" fill="#FFFFFF" fill-opacity="1" d="M 12.109375 7.347656 L 11.886719 9.449219 C 11.867188 9.777344 11.597656 10.035156 11.269531 10.035156 L 8.140625 10.023438 L 8.890625 8.960938 L 10.878906 8.972656 L 11.023438 6.480469 C 11.023438 6.457031 11.027344 6.429688 11.035156 6.40625 C 11.027344 6.355469 11.035156 6.308594 11.054688 6.261719 L 11.804688 4.441406 C 11.8125 4.421875 11.808594 4.394531 11.796875 4.378906 C 11.785156 4.359375 11.761719 4.347656 11.738281 4.347656 L 10.902344 4.347656 C 10.875 4.347656 10.851562 4.359375 10.839844 4.382812 L 10.171875 5.632812 C 10.054688 5.847656 9.78125 5.929688 9.558594 5.816406 L 9.523438 5.796875 C 9.300781 5.683594 9.214844 5.417969 9.328125 5.203125 L 10.210938 3.554688 C 10.296875 3.402344 10.457031 3.3125 10.628906 3.320312 C 10.65625 3.316406 10.679688 3.316406 10.707031 3.316406 L 12.160156 3.316406 C 11.046875 1.335938 8.925781 0 6.496094 0 C 2.90625 0 0 2.90625 0 6.496094 C 0 10.082031 2.90625 12.988281 6.496094 12.988281 C 9.390625 12.988281 11.847656 11.152344 12.6875 8.535156 Z M 4.9375 9.996094 L 5.734375 6.539062 C 4.996094 6.203125 4.59375 5.402344 4.765625 4.613281 C 4.933594 3.820312 5.632812 3.257812 6.441406 3.253906 C 7.246094 3.25 7.949219 3.8125 8.125 4.601562 C 8.300781 5.390625 7.902344 6.191406 7.167969 6.535156 L 7.738281 9.996094 Z M 4.9375 9.996094 "/>
<path fill-rule="nonzero" fill="#FFFFFF" fill-opacity="1" d="M 14.683594 1.496094 C 15.085938 1.898438 15.085938 2.550781 14.683594 2.953125 C 14.28125 3.355469 13.632812 3.355469 13.230469 2.953125 C 12.828125 2.550781 12.828125 1.898438 13.230469 1.496094 C 13.632812 1.09375 14.28125 1.09375 14.683594 1.496094 Z M 14.683594 1.496094 "/>
<path fill-rule="nonzero" fill="#FFFFFF" fill-opacity="1" d="M 16.53125 5.210938 L 15.546875 5.210938 C 15.527344 5.210938 15.507812 5.203125 15.496094 5.1875 L 14.179688 3.589844 C 14.066406 3.445312 13.851562 3.3125 13.6875 3.3125 L 12.140625 3.3125 C 12.707031 4.304688 13 5.425781 13 6.566406 C 13 7.253906 12.875 7.917969 12.679688 8.542969 L 14.238281 11.609375 L 15.53125 11.621094 L 13.179688 6.800781 L 13.933594 5.027344 C 13.945312 5.007812 13.964844 4.992188 13.988281 4.988281 C 14.011719 4.984375 14.035156 4.992188 14.050781 5.011719 L 14.867188 6.003906 C 14.871094 6.007812 14.878906 6.011719 14.882812 6.015625 C 14.890625 6.027344 14.902344 6.039062 14.914062 6.046875 C 15.042969 6.167969 15.40625 6.148438 15.414062 6.148438 L 16.53125 6.148438 C 16.789062 6.148438 17 5.9375 17 5.679688 C 17 5.421875 16.789062 5.210938 16.53125 5.210938 Z M 16.53125 5.210938 "/>
</g>
</svg>
