<?xml version="1.0" encoding="UTF-8"?>
<svg xmlns="http://www.w3.org/2000/svg" xmlns:xlink="http://www.w3.org/1999/xlink" width="11" height="10.819553" viewBox="0 0 11 10.819553">
<path fill-rule="nonzero" fill="rgb(30%,30%,30%)" fill-opacity="1" d="M 6.773438 7.914062 C 6.519531 8.207031 6.15625 8.371094 5.769531 8.371094 C 5.1875 8.371094 4.703125 8.03125 4.511719 7.449219 L 4.515625 7.449219 C 4.480469 7.335938 4.464844 7.214844 4.464844 7.097656 C 4.464844 6.390625 5.050781 5.820312 5.769531 5.820312 C 6.492188 5.820312 7.078125 6.390625 7.078125 7.097656 C 7.078125 7.269531 7.042969 7.4375 6.972656 7.597656 C 7.671875 7.597656 8.292969 7.597656 8.316406 7.589844 C 8.496094 7.589844 9.8125 4.375 10.914062 1.613281 L 10.914062 0 L 8.5 5.945312 C 8.476562 6.003906 8.414062 6.03125 8.355469 6.011719 C 7.765625 5.800781 4.839844 4.835938 4.839844 4.835938 C 4.394531 4.6875 3.910156 4.960938 3.832031 5.417969 C 3.796875 5.640625 3.8125 5.882812 3.8125 6.15625 L 3.8125 6.363281 C 3.8125 6.789062 4.03125 7.183594 4.394531 7.40625 L 1.707031 6.621094 L 0 6.8125 L 2.828125 8.59375 C 2.433594 8.816406 2.203125 9.074219 2.203125 9.351562 C 2.203125 10.160156 4.171875 10.820312 6.601562 10.820312 C 9.03125 10.820312 11 10.160156 11 9.351562 C 11 8.566406 9.023438 8.496094 6.773438 7.914062 Z M 6.695312 9.242188 C 6.394531 9.242188 6.152344 9.164062 6.152344 9.074219 C 6.152344 8.980469 6.394531 8.90625 6.695312 8.90625 C 6.996094 8.90625 7.238281 8.980469 7.238281 9.074219 C 7.238281 9.164062 6.996094 9.242188 6.695312 9.242188 Z M 6.695312 9.242188 "/>
</svg>
