<?xml version="1.0" encoding="UTF-8" standalone="no"?>
<!-- Created with Inkscape (http://www.inkscape.org/) -->

<svg
   xmlns:dc="http://purl.org/dc/elements/1.1/"
   xmlns:cc="http://creativecommons.org/ns#"
   xmlns:rdf="http://www.w3.org/1999/02/22-rdf-syntax-ns#"
   xmlns:svg="http://www.w3.org/2000/svg"
   xmlns="http://www.w3.org/2000/svg"
   xmlns:xlink="http://www.w3.org/1999/xlink"
   xmlns:sodipodi="http://sodipodi.sourceforge.net/DTD/sodipodi-0.dtd"
   xmlns:inkscape="http://www.inkscape.org/namespaces/inkscape"
   width="30px"
   height="30px"
   version="1.1"
   id="svg8"
   inkscape:version="0.92.4 5da689c313, 2019-01-14"
   sodipodi:docname="container.svg">
  <defs
     id="defs2" />
  <sodipodi:namedview
     id="base"
     pagecolor="#ffffff"
     bordercolor="#666666"
     borderopacity="1.0"
     inkscape:pageopacity="0.0"
     inkscape:pageshadow="2"
     inkscape:zoom="13.049334"
     inkscape:cx="18.679046"
     inkscape:cy="12.165829"
     inkscape:document-units="px"
     inkscape:current-layer="layer1"
     showgrid="false"
     inkscape:snap-page="false"
     units="px"
     inkscape:window-width="1884"
     inkscape:window-height="1061"
     inkscape:window-x="0"
     inkscape:window-y="0"
     inkscape:window-maximized="1"
     fit-margin-top="0"
     fit-margin-left="0"
     fit-margin-right="0"
     fit-margin-bottom="0" />
  <metadata
     id="metadata5">
    <rdf:RDF>
      <cc:Work
         rdf:about="">
        <dc:format>image/svg+xml</dc:format>
        <dc:type
           rdf:resource="http://purl.org/dc/dcmitype/StillImage" />
        <dc:title></dc:title>
      </cc:Work>
    </rdf:RDF>
  </metadata>
    <circle
       style="color:#000000;clip-rule:nonzero;display:inline;overflow:visible;visibility:visible;opacity:1;isolation:auto;mix-blend-mode:normal;color-interpolation:sRGB;color-interpolation-filters:linearRGB;solid-color:#000000;solid-opacity:1;vector-effect:none;fill:#ffffff;fill-opacity:1;fill-rule:evenodd;stroke:#00a757;stroke-width:1;stroke-linecap:butt;stroke-linejoin:miter;stroke-miterlimit:4;stroke-dasharray:none;stroke-dashoffset:0;stroke-opacity:1;marker:none;color-rendering:auto;image-rendering:auto;shape-rendering:auto;text-rendering:auto;enable-background:accumulate"
       id="path815"
       cx="15"
       cy="15"
       r="14.5" />
<g transform="translate(6.5,6.5)"><path fill-rule="nonzero" fill="rgb(30%,30%,30%)" fill-opacity="1" d="M 8.507812 4.425781 C 10.785156 4.425781 12.628906 6.265625 12.628906 8.539062 C 12.628906 10.808594 10.785156 12.648438 8.507812 12.648438 C 6.230469 12.648438 4.386719 10.808594 4.386719 8.539062 C 4.386719 6.265625 6.230469 4.425781 8.507812 4.425781 Z M 4.578125 5.214844 L 0 4.980469 L 3.378906 8.03125 C 3.480469 6.992188 3.902344 6.007812 4.578125 5.214844 Z M 8.066406 3.417969 L 4.980469 0 L 5.214844 4.585938 C 6.023438 3.914062 7.019531 3.507812 8.066406 3.417969 Z M 13.632812 8.019531 L 17 4.980469 L 12.433594 5.210938 C 13.109375 6.003906 13.527344 6.984375 13.632812 8.019531 Z M 11.789062 4.574219 L 12.019531 0 L 8.933594 3.417969 C 9.980469 3.503906 10.976562 3.90625 11.789062 4.574219 Z M 5.210938 12.484375 L 4.980469 17 L 8.003906 13.652344 C 6.976562 13.550781 6.003906 13.144531 5.210938 12.484375 Z M 12.496094 11.789062 L 17 12.019531 L 13.636719 8.984375 C 13.550781 10.015625 13.152344 10.992188 12.496094 11.789062 Z M 8.996094 13.652344 L 12.019531 17 L 11.789062 12.496094 C 10.996094 13.152344 10.023438 13.554688 8.996094 13.652344 Z M 3.375 8.972656 L 0 12.019531 L 4.519531 11.789062 C 3.859375 10.988281 3.460938 10.007812 3.375 8.972656 Z M 3.375 8.972656 "/>
</g>
</svg>
