<?xml version="1.0" encoding="UTF-8"?>
<svg xmlns="http://www.w3.org/2000/svg" xmlns:xlink="http://www.w3.org/1999/xlink" width="11" height="7.759807" viewBox="0 0 11 7.759807">
<path fill-rule="nonzero" fill="rgb(30%,30%,30%)" fill-opacity="1" d="M 0 0 L 1.738281 0 L 2.316406 1.0625 L 1.738281 1.640625 Z M 0 0 "/>
<path fill-rule="nonzero" fill="rgb(30%,30%,30%)" fill-opacity="1" d="M 5.199219 2.953125 C 4.953125 2.886719 4.699219 3.035156 4.632812 3.277344 L 4.578125 3.484375 C 4.511719 3.730469 4.65625 3.984375 4.902344 4.050781 L 6.785156 4.542969 L 7.046875 3.4375 Z M 5.199219 2.953125 "/>
<path fill-rule="nonzero" fill="rgb(30%,30%,30%)" fill-opacity="1" d="M 7.097656 4.613281 L 7.359375 4.679688 C 7.660156 4.757812 7.972656 4.578125 8.050781 4.273438 C 8.128906 3.972656 7.949219 3.660156 7.644531 3.582031 L 7.359375 3.507812 Z M 7.097656 4.613281 "/>
<path fill-rule="nonzero" fill="rgb(30%,30%,30%)" fill-opacity="1" d="M 9.769531 5.394531 L 9.464844 5.242188 C 9.550781 4.875 9.363281 4.496094 9.023438 4.335938 C 8.679688 4.175781 8.273438 4.273438 8.042969 4.574219 C 7.8125 4.875 7.824219 5.296875 8.070312 5.582031 C 8.3125 5.871094 8.726562 5.949219 9.058594 5.773438 L 9.203125 6.054688 Z M 9.769531 5.394531 "/>
<path fill-rule="nonzero" fill="rgb(30%,30%,30%)" fill-opacity="1" d="M 10.621094 7.003906 L 8.9375 7.003906 C 8.921875 6.980469 8.90625 6.957031 8.890625 6.9375 L 7.425781 5.328125 C 7.363281 5.261719 7.082031 5.035156 6.972656 5.003906 L 4.597656 4.367188 L 3.023438 1.636719 C 2.863281 1.363281 2.519531 1.269531 2.246094 1.425781 L 2.191406 1.460938 C 1.917969 1.617188 1.824219 1.964844 1.980469 2.234375 L 3.589844 5.023438 C 3.625 5.085938 3.761719 5.324219 3.800781 5.394531 C 3.917969 5.597656 4.355469 5.703125 4.355469 5.703125 L 7.214844 6.53125 C 7.394531 6.578125 8.253906 7.761719 8.632812 7.761719 L 10.621094 7.761719 C 10.832031 7.761719 11 7.589844 11 7.382812 C 11 7.171875 10.832031 7.003906 10.621094 7.003906 Z M 10.621094 7.003906 "/>
</svg>
