<?xml version="1.0" encoding="UTF-8" standalone="no"?>
<!-- Created with Inkscape (http://www.inkscape.org/) -->

<svg
   xmlns:dc="http://purl.org/dc/elements/1.1/"
   xmlns:cc="http://creativecommons.org/ns#"
   xmlns:rdf="http://www.w3.org/1999/02/22-rdf-syntax-ns#"
   xmlns:svg="http://www.w3.org/2000/svg"
   xmlns="http://www.w3.org/2000/svg"
   xmlns:xlink="http://www.w3.org/1999/xlink"
   xmlns:sodipodi="http://sodipodi.sourceforge.net/DTD/sodipodi-0.dtd"
   xmlns:inkscape="http://www.inkscape.org/namespaces/inkscape"
   width="30px"
   height="30px"
   version="1.1"
   id="svg8"
   inkscape:version="0.92.4 5da689c313, 2019-01-14"
   sodipodi:docname="container.svg">
  <defs
     id="defs2" />
  <sodipodi:namedview
     id="base"
     pagecolor="#ffffff"
     bordercolor="#666666"
     borderopacity="1.0"
     inkscape:pageopacity="0.0"
     inkscape:pageshadow="2"
     inkscape:zoom="13.049334"
     inkscape:cx="18.679046"
     inkscape:cy="12.165829"
     inkscape:document-units="px"
     inkscape:current-layer="layer1"
     showgrid="false"
     inkscape:snap-page="false"
     units="px"
     inkscape:window-width="1884"
     inkscape:window-height="1061"
     inkscape:window-x="0"
     inkscape:window-y="0"
     inkscape:window-maximized="1"
     fit-margin-top="0"
     fit-margin-left="0"
     fit-margin-right="0"
     fit-margin-bottom="0" />
  <metadata
     id="metadata5">
    <rdf:RDF>
      <cc:Work
         rdf:about="">
        <dc:format>image/svg+xml</dc:format>
        <dc:type
           rdf:resource="http://purl.org/dc/dcmitype/StillImage" />
        <dc:title></dc:title>
      </cc:Work>
    </rdf:RDF>
  </metadata>
    <circle
       style="color:#000000;clip-rule:nonzero;display:inline;overflow:visible;visibility:visible;opacity:1;isolation:auto;mix-blend-mode:normal;color-interpolation:sRGB;color-interpolation-filters:linearRGB;solid-color:#000000;solid-opacity:1;vector-effect:none;fill:#ffffff;fill-opacity:1;fill-rule:evenodd;stroke:#00a757;stroke-width:1;stroke-linecap:butt;stroke-linejoin:miter;stroke-miterlimit:4;stroke-dasharray:none;stroke-dashoffset:0;stroke-opacity:1;marker:none;color-rendering:auto;image-rendering:auto;shape-rendering:auto;text-rendering:auto;enable-background:accumulate"
       id="path815"
       cx="15"
       cy="15"
       r="14.5" />
<g transform="translate(6.5,7.0)"><path fill-rule="nonzero" fill="rgb(30%,30%,30%)" fill-opacity="1" d="M 17 15.320312 C 17 15.320312 16.988281 16.074219 16.167969 16.191406 C 15.847656 16.238281 13.625 16.246094 13.507812 16.246094 C 13.507812 16.246094 12.816406 16.234375 12.0625 15.570312 C 11.5625 15.132812 11.21875 14.589844 10.742188 13.941406 L 1.238281 0.738281 C 1.140625 0.605469 1.125 0.433594 1.191406 0.285156 C 1.257812 0.132812 1.398438 0.03125 1.5625 0.015625 C 1.722656 0 1.882812 0.0703125 1.980469 0.203125 L 11.734375 13.667969 C 11.972656 13.921875 12.128906 14.121094 12.300781 14.207031 C 12.488281 14.304688 12.789062 14.417969 13 14.417969 L 14.949219 14.394531 C 16.734375 14.195312 17 14.597656 17 15.320312 Z M 5.265625 13.65625 C 5.027344 13.910156 4.871094 14.105469 4.699219 14.195312 C 4.511719 14.289062 4.210938 14.40625 4 14.40625 L 2.050781 14.378906 C 0.265625 14.179688 0 14.585938 0 15.304688 C 0 15.304688 0.0117188 16.058594 0.832031 16.179688 C 1.152344 16.226562 3.375 16.234375 3.492188 16.234375 C 3.492188 16.234375 4.183594 16.21875 4.9375 15.558594 C 5.4375 15.121094 5.78125 14.578125 6.257812 13.929688 L 8.167969 11.277344 L 7.585938 10.457031 Z M 15.660156 0.0859375 C 15.453125 -0.0625 15.167969 -0.015625 15.019531 0.1875 L 8.925781 8.605469 L 9.507812 9.417969 L 15.761719 0.726562 C 15.910156 0.519531 15.863281 0.234375 15.660156 0.0859375 Z M 8.515625 14.53125 C 7.460938 14.53125 6.605469 14.8125 6.605469 15.160156 C 6.605469 15.507812 7.460938 15.789062 8.515625 15.789062 C 9.574219 15.789062 10.429688 15.507812 10.429688 15.160156 C 10.429688 14.8125 9.574219 14.53125 8.515625 14.53125 Z M 6.589844 15.789062 C 6.589844 16.136719 7.449219 16.417969 8.503906 16.417969 C 9.558594 16.417969 10.417969 16.136719 10.417969 15.789062 L 10.417969 15.433594 C 10.417969 15.777344 9.558594 16.058594 8.503906 16.058594 C 7.449219 16.058594 6.589844 15.777344 6.589844 15.433594 Z M 6.589844 15.789062 "/>
</g>
</svg>
