<?xml version="1.0" encoding="UTF-8" standalone="no"?>
<!-- Created with Inkscape (http://www.inkscape.org/) -->

<svg
   xmlns:dc="http://purl.org/dc/elements/1.1/"
   xmlns:cc="http://creativecommons.org/ns#"
   xmlns:rdf="http://www.w3.org/1999/02/22-rdf-syntax-ns#"
   xmlns:svg="http://www.w3.org/2000/svg"
   xmlns="http://www.w3.org/2000/svg"
   xmlns:xlink="http://www.w3.org/1999/xlink"
   xmlns:sodipodi="http://sodipodi.sourceforge.net/DTD/sodipodi-0.dtd"
   xmlns:inkscape="http://www.inkscape.org/namespaces/inkscape"
   width="30px"
   height="30px"
   version="1.1"
   id="svg8"
   inkscape:version="0.92.4 5da689c313, 2019-01-14"
   sodipodi:docname="container.svg">
  <defs
     id="defs2" />
  <sodipodi:namedview
     id="base"
     pagecolor="#ffffff"
     bordercolor="#666666"
     borderopacity="1.0"
     inkscape:pageopacity="0.0"
     inkscape:pageshadow="2"
     inkscape:zoom="13.049334"
     inkscape:cx="18.679046"
     inkscape:cy="12.165829"
     inkscape:document-units="px"
     inkscape:current-layer="layer1"
     showgrid="false"
     inkscape:snap-page="false"
     units="px"
     inkscape:window-width="1884"
     inkscape:window-height="1061"
     inkscape:window-x="0"
     inkscape:window-y="0"
     inkscape:window-maximized="1"
     fit-margin-top="0"
     fit-margin-left="0"
     fit-margin-right="0"
     fit-margin-bottom="0" />
  <metadata
     id="metadata5">
    <rdf:RDF>
      <cc:Work
         rdf:about="">
        <dc:format>image/svg+xml</dc:format>
        <dc:type
           rdf:resource="http://purl.org/dc/dcmitype/StillImage" />
        <dc:title></dc:title>
      </cc:Work>
    </rdf:RDF>
  </metadata>
    <circle
       style="color:#000000;clip-rule:nonzero;display:inline;overflow:visible;visibility:visible;opacity:1;isolation:auto;mix-blend-mode:normal;color-interpolation:sRGB;color-interpolation-filters:linearRGB;solid-color:#000000;solid-opacity:1;vector-effect:none;fill:#ffffff;fill-opacity:1;fill-rule:evenodd;stroke:#00a757;stroke-width:1;stroke-linecap:butt;stroke-linejoin:miter;stroke-miterlimit:4;stroke-dasharray:none;stroke-dashoffset:0;stroke-opacity:1;marker:none;color-rendering:auto;image-rendering:auto;shape-rendering:auto;text-rendering:auto;enable-background:accumulate"
       id="path815"
       cx="15"
       cy="15"
       r="14.5" />
<g transform="translate(6.5,7.0)"><path fill-rule="nonzero" fill="rgb(30%,30%,30%)" fill-opacity="1" d="M 6.742188 0 L 6.519531 0 C 5.84375 0 5.242188 0.324219 4.820312 0.832031 L 5.65625 1.667969 C 5.863281 1.367188 6.175781 1.171875 6.519531 1.171875 L 6.742188 1.171875 C 7.351562 1.171875 7.867188 1.792969 7.867188 2.53125 L 7.867188 3.128906 L 5.144531 3.128906 L 5.144531 2.53125 C 5.144531 1.136719 4.117188 0 2.851562 0 L 2.625 0 C 1.363281 0 0.332031 1.136719 0.332031 2.53125 L 0.332031 4.136719 L 1.503906 4.136719 L 1.503906 2.53125 C 1.503906 1.792969 2.019531 1.171875 2.625 1.171875 L 2.851562 1.171875 C 3.460938 1.171875 3.976562 1.792969 3.976562 2.53125 L 3.976562 7.804688 L 5.144531 7.804688 L 5.144531 6.988281 L 7.867188 6.988281 L 7.867188 7.804688 L 9.039062 7.804688 L 9.039062 2.53125 C 9.039062 1.136719 8.007812 0 6.742188 0 Z M 7.867188 3.964844 L 7.867188 4.675781 L 5.144531 4.675781 L 5.144531 3.964844 Z M 5.144531 6.152344 L 5.144531 5.511719 L 7.867188 5.511719 L 7.867188 6.152344 Z M 5.144531 6.152344 "/>
<path fill-rule="nonzero" fill="rgb(30%,30%,30%)" fill-opacity="1" d="M 14.214844 11.132812 C 13.109375 11.132812 12.46875 10.464844 11.953125 9.925781 C 11.433594 9.386719 11.085938 9.050781 10.472656 9.046875 C 10.464844 9.046875 10.453125 9.046875 10.445312 9.046875 C 9.695312 9.046875 9.367188 9.40625 8.914062 9.90625 C 8.417969 10.453125 7.796875 11.132812 6.53125 11.132812 C 5.285156 11.132812 4.695312 10.453125 4.21875 9.90625 C 3.78125 9.40625 3.464844 9.046875 2.71875 9.046875 C 2.707031 9.046875 2.699219 9.046875 2.691406 9.046875 C 1.921875 9.054688 1.554688 9.4375 1.089844 9.921875 C 0.960938 10.058594 0.824219 10.199219 0.679688 10.335938 L 0 9.597656 C 0.125 9.484375 0.242188 9.359375 0.363281 9.230469 C 0.867188 8.707031 1.488281 8.054688 2.679688 8.042969 C 2.691406 8.042969 2.703125 8.042969 2.714844 8.042969 C 3.921875 8.042969 4.503906 8.710938 4.972656 9.246094 C 5.402344 9.738281 5.742188 10.128906 6.53125 10.128906 C 7.355469 10.128906 7.714844 9.734375 8.171875 9.230469 C 8.652344 8.699219 9.253906 8.042969 10.445312 8.042969 C 10.457031 8.042969 10.472656 8.042969 10.484375 8.042969 C 11.546875 8.054688 12.148438 8.679688 12.679688 9.234375 C 13.167969 9.742188 13.546875 10.144531 14.257812 10.128906 C 15.640625 10.09375 16.039062 9.070312 16.054688 9.027344 L 17 9.363281 C 16.976562 9.433594 16.375 11.082031 14.285156 11.132812 C 14.261719 11.132812 14.238281 11.132812 14.214844 11.132812 Z M 14.214844 11.132812 "/>
<path fill-rule="nonzero" fill="rgb(30%,30%,30%)" fill-opacity="1" d="M 14.214844 13.390625 C 13.109375 13.390625 12.46875 12.722656 11.953125 12.183594 C 11.433594 11.640625 11.085938 11.308594 10.472656 11.304688 C 9.703125 11.285156 9.371094 11.660156 8.914062 12.164062 C 8.417969 12.710938 7.796875 13.390625 6.53125 13.390625 C 5.285156 13.390625 4.695312 12.710938 4.21875 12.164062 C 3.78125 11.664062 3.464844 11.304688 2.71875 11.304688 C 2.707031 11.304688 2.699219 11.304688 2.691406 11.304688 C 1.921875 11.3125 1.554688 11.695312 1.089844 12.179688 C 0.960938 12.316406 0.824219 12.457031 0.679688 12.59375 L 0 11.855469 C 0.125 11.742188 0.242188 11.617188 0.363281 11.488281 C 0.867188 10.964844 1.488281 10.3125 2.679688 10.300781 C 3.910156 10.285156 4.5 10.960938 4.972656 11.503906 C 5.402344 11.996094 5.742188 12.386719 6.53125 12.386719 C 7.355469 12.386719 7.714844 11.988281 8.171875 11.488281 C 8.660156 10.953125 9.269531 10.277344 10.484375 10.300781 C 11.546875 10.3125 12.148438 10.9375 12.679688 11.492188 C 13.167969 12 13.546875 12.40625 14.257812 12.386719 C 15.640625 12.351562 16.039062 11.328125 16.054688 11.285156 L 17 11.621094 C 16.976562 11.6875 16.375 13.339844 14.285156 13.390625 C 14.261719 13.390625 14.238281 13.390625 14.214844 13.390625 Z M 14.214844 13.390625 "/>
<path fill-rule="nonzero" fill="rgb(30%,30%,30%)" fill-opacity="1" d="M 14.214844 15.808594 C 13.109375 15.808594 12.46875 15.140625 11.953125 14.601562 C 11.433594 14.0625 11.085938 13.726562 10.472656 13.722656 C 10.464844 13.722656 10.453125 13.722656 10.445312 13.722656 C 9.695312 13.722656 9.367188 14.082031 8.914062 14.582031 C 8.417969 15.128906 7.796875 15.808594 6.53125 15.808594 C 5.285156 15.808594 4.695312 15.128906 4.21875 14.582031 C 3.78125 14.082031 3.464844 13.722656 2.71875 13.722656 C 2.707031 13.722656 2.699219 13.722656 2.691406 13.722656 C 1.921875 13.730469 1.554688 14.113281 1.089844 14.597656 C 0.960938 14.734375 0.824219 14.875 0.679688 15.011719 L 0 14.273438 C 0.125 14.160156 0.242188 14.035156 0.363281 13.90625 C 0.867188 13.382812 1.488281 12.730469 2.679688 12.71875 C 3.910156 12.703125 4.5 13.378906 4.972656 13.921875 C 5.402344 14.414062 5.742188 14.804688 6.53125 14.804688 C 7.355469 14.804688 7.714844 14.410156 8.171875 13.90625 C 8.652344 13.375 9.253906 12.71875 10.445312 12.71875 C 10.457031 12.71875 10.472656 12.71875 10.484375 12.71875 C 11.546875 12.730469 12.148438 13.355469 12.679688 13.910156 C 13.167969 14.417969 13.546875 14.820312 14.257812 14.804688 C 15.640625 14.769531 16.039062 13.746094 16.054688 13.703125 L 17 14.039062 C 16.976562 14.109375 16.375 15.757812 14.285156 15.808594 C 14.261719 15.808594 14.238281 15.808594 14.214844 15.808594 Z M 14.214844 15.808594 "/>
</g>
</svg>
