<?xml version="1.0" encoding="UTF-8"?>
<svg xmlns="http://www.w3.org/2000/svg" xmlns:xlink="http://www.w3.org/1999/xlink" width="8.638152" height="11" viewBox="0 0 8.638152 11">
<path fill-rule="nonzero" fill="rgb(30%,30%,30%)" fill-opacity="1" d="M 7.542969 1.183594 L 6.367188 2.359375 C 6.101562 2.625 6.285156 3.230469 6.339844 3.390625 L 5.722656 4.007812 C 5.414062 1.953125 4.5 0.164062 4.375 0 C 4.390625 0.03125 4.382812 0.253906 4.382812 3.792969 C 4.382812 3.828125 4.355469 3.855469 4.316406 3.855469 C 4.65625 3.855469 4.953125 4.152344 5.128906 4.601562 L 3.460938 6.261719 C 3.121094 5.167969 3.601562 3.855469 4.316406 3.855469 C 4.242188 3.855469 4.253906 3.773438 4.253906 3.730469 C 4.253906 0.4375 4.25 0.0546875 4.261719 0.00390625 C 4.117188 0.226562 2.417969 3.289062 2.890625 6.828125 L 2.195312 7.523438 C 1.886719 7.417969 1.40625 7.324219 1.175781 7.554688 L 0 8.726562 L 1.09375 9.820312 L 2.269531 8.648438 C 2.53125 8.386719 2.359375 7.792969 2.300781 7.625 L 2.917969 7.007812 C 3.25 9.210938 4.179688 10.863281 4.257812 11 C 4.25 10.972656 4.253906 10.734375 4.253906 7.214844 C 4.253906 7.199219 4.261719 7.179688 4.273438 7.167969 C 4.285156 7.15625 4.300781 7.152344 4.316406 7.152344 C 3.984375 7.152344 3.6875 6.855469 3.511719 6.414062 L 5.179688 4.75 C 5.515625 5.863281 5.03125 7.152344 4.316406 7.152344 C 4.335938 7.152344 4.351562 7.15625 4.363281 7.167969 C 4.375 7.179688 4.382812 7.199219 4.382812 7.214844 C 4.382812 10.71875 4.386719 10.972656 4.378906 11 C 4.476562 10.832031 5.835938 8.417969 5.835938 5.503906 C 5.835938 5.0625 5.804688 4.621094 5.746094 4.1875 L 6.445312 3.488281 C 6.757812 3.589844 7.238281 3.679688 7.464844 3.453125 L 8.636719 2.277344 Z M 7.542969 1.183594 "/>
</svg>
