<?xml version="1.0" encoding="UTF-8" standalone="no"?>
<!-- Created with Inkscape (http://www.inkscape.org/) -->

<svg
   xmlns:dc="http://purl.org/dc/elements/1.1/"
   xmlns:cc="http://creativecommons.org/ns#"
   xmlns:rdf="http://www.w3.org/1999/02/22-rdf-syntax-ns#"
   xmlns:svg="http://www.w3.org/2000/svg"
   xmlns="http://www.w3.org/2000/svg"
   xmlns:xlink="http://www.w3.org/1999/xlink"
   xmlns:sodipodi="http://sodipodi.sourceforge.net/DTD/sodipodi-0.dtd"
   xmlns:inkscape="http://www.inkscape.org/namespaces/inkscape"
   width="30px"
   height="30px"
   version="1.1"
   id="svg8"
   inkscape:version="0.92.4 5da689c313, 2019-01-14"
   sodipodi:docname="container.svg">
  <defs
     id="defs2" />
  <sodipodi:namedview
     id="base"
     pagecolor="#ffffff"
     bordercolor="#666666"
     borderopacity="1.0"
     inkscape:pageopacity="0.0"
     inkscape:pageshadow="2"
     inkscape:zoom="13.049334"
     inkscape:cx="18.679046"
     inkscape:cy="12.165829"
     inkscape:document-units="px"
     inkscape:current-layer="layer1"
     showgrid="false"
     inkscape:snap-page="false"
     units="px"
     inkscape:window-width="1884"
     inkscape:window-height="1061"
     inkscape:window-x="0"
     inkscape:window-y="0"
     inkscape:window-maximized="1"
     fit-margin-top="0"
     fit-margin-left="0"
     fit-margin-right="0"
     fit-margin-bottom="0" />
  <metadata
     id="metadata5">
    <rdf:RDF>
      <cc:Work
         rdf:about="">
        <dc:format>image/svg+xml</dc:format>
        <dc:type
           rdf:resource="http://purl.org/dc/dcmitype/StillImage" />
        <dc:title></dc:title>
      </cc:Work>
    </rdf:RDF>
  </metadata>
    <circle
       style="color:#000000;clip-rule:nonzero;display:inline;overflow:visible;visibility:visible;opacity:1;isolation:auto;mix-blend-mode:normal;color-interpolation:sRGB;color-interpolation-filters:linearRGB;solid-color:#000000;solid-opacity:1;vector-effect:none;fill:#00a757;fill-opacity:1;fill-rule:evenodd;stroke:#ffffff;stroke-width:1;stroke-linecap:butt;stroke-linejoin:miter;stroke-miterlimit:4;stroke-dasharray:none;stroke-dashoffset:0;stroke-opacity:1;marker:none;color-rendering:auto;image-rendering:auto;shape-rendering:auto;text-rendering:auto;enable-background:accumulate"
       id="path815"
       cx="15"
       cy="15"
       r="14.5" />
<g transform="translate(6.5,9.0)"><path fill-rule="nonzero" fill="#FFFFFF" fill-opacity="1" d="M 3.230469 0 L 13.769531 0 C 14.277344 0 14.691406 0.414062 14.691406 0.925781 L 14.691406 0.933594 C 14.691406 1.445312 14.277344 1.859375 13.769531 1.859375 L 3.230469 1.859375 C 2.722656 1.859375 2.308594 1.445312 2.308594 0.933594 L 2.308594 0.925781 C 2.308594 0.414062 2.722656 0 3.230469 0 Z M 16.070312 6.136719 L 13.113281 6.136719 L 12.214844 2.476562 L 10.359375 2.476562 L 11.257812 6.136719 L 5.757812 6.136719 L 6.699219 2.476562 L 4.839844 2.476562 L 3.898438 6.136719 L 0.929688 6.136719 C 0.414062 6.136719 0 6.550781 0 7.066406 C 0 7.578125 0.414062 7.992188 0.929688 7.992188 L 3.421875 7.992188 L 2.308594 12.328125 L 4.164062 12.328125 L 5.28125 7.992188 L 11.714844 7.992188 L 12.777344 12.328125 L 14.636719 12.328125 L 13.570312 7.992188 L 16.070312 7.992188 C 16.585938 7.992188 17 7.578125 17 7.066406 C 17 6.550781 16.585938 6.136719 16.070312 6.136719 Z M 16.070312 6.136719 "/>
</g>
</svg>
