<?xml version="1.0" encoding="UTF-8"?>
<svg xmlns="http://www.w3.org/2000/svg" xmlns:xlink="http://www.w3.org/1999/xlink" width="9.987335" height="11" viewBox="0 0 9.987335 11">
<path fill-rule="nonzero" fill="rgb(30%,30%,30%)" fill-opacity="1" d="M 7.921875 6.796875 C 7.910156 6.714844 7.878906 6.640625 7.824219 6.574219 C 7.675781 6.371094 7.402344 6.300781 7.175781 6.410156 L 7.136719 6.429688 C 7.113281 6.4375 7.09375 6.449219 7.070312 6.460938 L 5.183594 7.375 L 4.175781 5.550781 L 4.855469 5.824219 C 5.023438 5.890625 5.210938 5.808594 5.277344 5.640625 L 5.347656 5.464844 L 5.351562 5.457031 L 5.355469 5.445312 C 5.363281 5.429688 5.371094 5.410156 5.375 5.390625 L 6.269531 2.785156 C 6.363281 2.515625 6.222656 2.222656 5.953125 2.128906 L 5.933594 2.121094 C 5.660156 2.027344 5.367188 2.171875 5.273438 2.441406 L 4.542969 4.5625 C 4.542969 4.5625 2.921875 3.742188 2.683594 3.875 L 1.9375 4.285156 C 1.308594 4.691406 1.824219 5.523438 1.824219 5.523438 L 3.339844 8.269531 L 3.335938 8.269531 L 3.617188 8.777344 C 3.75 9.011719 4.042969 9.101562 4.285156 8.984375 L 6.757812 7.785156 L 6.449219 10.511719 C 6.425781 10.742188 6.589844 10.945312 6.816406 10.972656 L 7.042969 10.996094 C 7.269531 11.023438 7.472656 10.859375 7.5 10.632812 L 7.902344 7.066406 C 7.933594 6.980469 7.9375 6.886719 7.921875 6.796875 Z M 7.921875 6.796875 "/>
<path fill-rule="nonzero" fill="rgb(30%,30%,30%)" fill-opacity="1" d="M 2.582031 2.863281 C 2.582031 3.578125 2.003906 4.15625 1.292969 4.15625 C 0.578125 4.15625 0 3.578125 0 2.863281 C 0 2.148438 0.578125 1.570312 1.292969 1.570312 C 2.003906 1.570312 2.582031 2.148438 2.582031 2.863281 Z M 2.582031 2.863281 "/>
<path fill-rule="nonzero" fill="rgb(30%,30%,30%)" fill-opacity="1" d="M 5.269531 2.121094 C 5.171875 2.121094 5.085938 2.070312 5.042969 1.984375 L 4.492188 0.914062 L 3.738281 0.472656 C 3.617188 0.402344 3.574219 0.246094 3.648438 0.125 C 3.71875 0.00390625 3.875 -0.0351562 3.996094 0.0351562 L 4.8125 0.515625 C 4.851562 0.539062 4.886719 0.574219 4.90625 0.617188 L 5.492188 1.753906 C 5.535156 1.832031 5.53125 1.925781 5.484375 2 C 5.4375 2.078125 5.355469 2.121094 5.269531 2.121094 Z M 5.269531 2.121094 "/>
<path fill-rule="nonzero" fill="rgb(30%,30%,30%)" fill-opacity="1" d="M 7.363281 6.171875 C 7.277344 6.171875 7.195312 6.125 7.148438 6.050781 L 5.941406 4.132812 C 5.867188 4.015625 5.902344 3.859375 6.019531 3.785156 C 6.140625 3.710938 6.296875 3.746094 6.371094 3.863281 L 7.578125 5.78125 C 7.625 5.859375 7.628906 5.957031 7.585938 6.039062 C 7.539062 6.121094 7.457031 6.171875 7.363281 6.171875 Z M 7.363281 6.171875 "/>
<path fill-rule="nonzero" fill="rgb(30%,30%,30%)" fill-opacity="1" d="M 9.730469 10.824219 C 9.621094 10.824219 9.519531 10.75 9.488281 10.640625 C 9.425781 10.503906 9.011719 9.734375 8.703125 9.167969 C 8.53125 8.851562 8.371094 8.554688 8.25 8.328125 C 8.183594 8.207031 8.136719 8.117188 8.101562 8.054688 C 8.039062 7.925781 7.996094 7.847656 8.042969 7.734375 C 8.082031 7.636719 8.179688 7.570312 8.285156 7.574219 C 8.390625 7.578125 8.484375 7.648438 8.519531 7.75 C 8.570312 7.863281 8.878906 8.425781 9.148438 8.925781 C 9.34375 9.289062 9.550781 9.667969 9.703125 9.957031 C 9.789062 10.113281 9.847656 10.230469 9.890625 10.3125 C 9.976562 10.476562 10.019531 10.566406 9.957031 10.6875 C 9.914062 10.773438 9.828125 10.824219 9.730469 10.824219 Z M 9.507812 10.457031 C 9.492188 10.484375 9.484375 10.511719 9.480469 10.542969 C 9.484375 10.511719 9.492188 10.484375 9.507812 10.457031 Z M 9.507812 10.457031 Z M 9.507812 10.457031 Z M 9.507812 10.457031 "/>
</svg>
