<?xml version="1.0" encoding="UTF-8" standalone="no"?>
<!-- Created with Inkscape (http://www.inkscape.org/) -->

<svg
   xmlns:dc="http://purl.org/dc/elements/1.1/"
   xmlns:cc="http://creativecommons.org/ns#"
   xmlns:rdf="http://www.w3.org/1999/02/22-rdf-syntax-ns#"
   xmlns:svg="http://www.w3.org/2000/svg"
   xmlns="http://www.w3.org/2000/svg"
   xmlns:xlink="http://www.w3.org/1999/xlink"
   xmlns:sodipodi="http://sodipodi.sourceforge.net/DTD/sodipodi-0.dtd"
   xmlns:inkscape="http://www.inkscape.org/namespaces/inkscape"
   width="30px"
   height="30px"
   version="1.1"
   id="svg8"
   inkscape:version="0.92.4 5da689c313, 2019-01-14"
   sodipodi:docname="container.svg">
  <defs
     id="defs2" />
  <sodipodi:namedview
     id="base"
     pagecolor="#ffffff"
     bordercolor="#666666"
     borderopacity="1.0"
     inkscape:pageopacity="0.0"
     inkscape:pageshadow="2"
     inkscape:zoom="13.049334"
     inkscape:cx="18.679046"
     inkscape:cy="12.165829"
     inkscape:document-units="px"
     inkscape:current-layer="layer1"
     showgrid="false"
     inkscape:snap-page="false"
     units="px"
     inkscape:window-width="1884"
     inkscape:window-height="1061"
     inkscape:window-x="0"
     inkscape:window-y="0"
     inkscape:window-maximized="1"
     fit-margin-top="0"
     fit-margin-left="0"
     fit-margin-right="0"
     fit-margin-bottom="0" />
  <metadata
     id="metadata5">
    <rdf:RDF>
      <cc:Work
         rdf:about="">
        <dc:format>image/svg+xml</dc:format>
        <dc:type
           rdf:resource="http://purl.org/dc/dcmitype/StillImage" />
        <dc:title></dc:title>
      </cc:Work>
    </rdf:RDF>
  </metadata>
    <circle
       style="color:#000000;clip-rule:nonzero;display:inline;overflow:visible;visibility:visible;opacity:1;isolation:auto;mix-blend-mode:normal;color-interpolation:sRGB;color-interpolation-filters:linearRGB;solid-color:#000000;solid-opacity:1;vector-effect:none;fill:#ffffff;fill-opacity:1;fill-rule:evenodd;stroke:#00a757;stroke-width:1;stroke-linecap:butt;stroke-linejoin:miter;stroke-miterlimit:4;stroke-dasharray:none;stroke-dashoffset:0;stroke-opacity:1;marker:none;color-rendering:auto;image-rendering:auto;shape-rendering:auto;text-rendering:auto;enable-background:accumulate"
       id="path815"
       cx="15"
       cy="15"
       r="14.5" />
<g transform="translate(6.5,6.5)"><path fill-rule="nonzero" fill="rgb(30%,30%,30%)" fill-opacity="1" d="M 2.042969 3.003906 C 3.601562 2.28125 6.84375 1.765625 7 2.113281 C 7 2.113281 7.261719 0.347656 7.277344 0.0859375 C 5.953125 0.277344 4.691406 0.773438 3.597656 1.542969 C 2.53125 2.304688 1.933594 3.054688 2.042969 3.003906 Z M 2.042969 3.003906 "/>
<path fill-rule="nonzero" fill="rgb(30%,30%,30%)" fill-opacity="1" d="M 5.691406 7.179688 C 5.691406 7.179688 7.476562 9.304688 7.527344 9.269531 C 10.417969 7.117188 11.527344 2.078125 11.589844 0.566406 C 10.644531 0.207031 9.644531 0.0117188 8.636719 0 C 8.105469 5.222656 5.691406 7.179688 5.691406 7.179688 Z M 5.691406 7.179688 "/>
<path fill-rule="nonzero" fill="rgb(30%,30%,30%)" fill-opacity="1" d="M 8.53125 10.132812 L 9.921875 11.078125 L 11.566406 11.914062 C 11.566406 11.914062 15.265625 9.878906 15.738281 3.980469 C 15.738281 3.976562 15.738281 3.972656 15.738281 3.96875 C 15.652344 3.832031 15.566406 3.703125 15.472656 3.574219 C 15.367188 3.433594 15.234375 3.261719 15.085938 3.074219 C 14.4375 2.296875 13.660156 1.640625 12.78125 1.136719 C 12.582031 2.90625 11.777344 7.207031 8.53125 10.132812 Z M 8.53125 10.132812 "/>
<path fill-rule="nonzero" fill="rgb(30%,30%,30%)" fill-opacity="1" d="M 16.851562 6.664062 C 16.820312 6.53125 16.789062 6.398438 16.753906 6.269531 C 16.652344 6.441406 16.140625 8.257812 15.292969 9.796875 C 14.554688 11.140625 13.367188 12.285156 13.066406 12.386719 L 15.847656 12.832031 C 15.917969 12.710938 15.988281 12.589844 16.054688 12.464844 C 16.472656 11.636719 17.351562 9.464844 16.851562 6.664062 Z M 16.851562 6.664062 "/>
<path fill-rule="nonzero" fill="rgb(30%,30%,30%)" fill-opacity="1" d="M 14.960938 14 C 7.554688 13.136719 4.578125 7.738281 4.578125 7.738281 C 4.578125 7.738281 2.292969 8.292969 2.292969 8.65625 C 2.292969 8.878906 3.921875 12.050781 5.886719 13.472656 C 8.484375 15.351562 11.632812 15.949219 12.359375 16.066406 C 12.675781 15.90625 12.980469 15.726562 13.277344 15.53125 C 13.730469 15.171875 14.285156 14.71875 14.636719 14.398438 C 14.753906 14.277344 14.867188 14.15625 14.976562 14.027344 C 14.980469 14.011719 14.976562 14.003906 14.960938 14 Z M 14.960938 14 "/>
<path fill-rule="nonzero" fill="rgb(30%,30%,30%)" fill-opacity="1" d="M 1.292969 9.519531 L 0.402344 11.160156 C 0.402344 11.160156 0.769531 12.371094 1.730469 13.648438 C 3.347656 15.75 5.855469 16.980469 8.507812 16.972656 C 9.054688 16.976562 9.601562 16.921875 10.140625 16.820312 C 10.132812 16.816406 10.125 16.8125 10.117188 16.8125 C 3.488281 15.339844 1.292969 9.519531 1.292969 9.519531 Z M 1.292969 9.519531 "/>
<path fill-rule="nonzero" fill="rgb(30%,30%,30%)" fill-opacity="1" d="M 0.0390625 9.101562 C 1.933594 6.511719 4.214844 6.511719 4.578125 6.484375 C 4.9375 6.457031 6.804688 3.351562 6.582031 3.339844 C 3.175781 3.152344 0.621094 5.519531 0.441406 5.695312 C 0.386719 5.847656 0.335938 6 0.292969 6.15625 C 0.0898438 7.144531 -0.0820312 9.265625 0.0390625 9.101562 Z M 0.0390625 9.101562 "/>
</g>
</svg>
