<?xml version="1.0" encoding="UTF-8"?>
<svg xmlns="http://www.w3.org/2000/svg" xmlns:xlink="http://www.w3.org/1999/xlink" width="11" height="6.86678" viewBox="0 0 11 6.86678">
<path fill-rule="nonzero" fill="rgb(30%,30%,30%)" fill-opacity="1" d="M 5.492188 3.472656 C 4.945312 2.019531 4.3125 1.730469 4.089844 1.570312 C 4.023438 1.566406 5.261719 0 5.5 0 C 5.734375 0 6.945312 1.550781 6.914062 1.570312 C 6.855469 1.605469 5.867188 2.21875 5.492188 3.472656 Z M 5.492188 3.472656 "/>
<path fill-rule="nonzero" fill="rgb(30%,30%,30%)" fill-opacity="1" d="M 2.246094 1.28125 C 2.25 1.277344 3.625 1.328125 4.671875 2.898438 C 5.527344 4.175781 5.410156 6.425781 5.335938 6.464844 C 5.253906 6.507812 3.507812 6.265625 2.640625 4.578125 C 1.964844 3.273438 2.214844 1.347656 2.246094 1.28125 Z M 2.246094 1.28125 "/>
<path fill-rule="nonzero" fill="rgb(30%,30%,30%)" fill-opacity="1" d="M 8.757812 1.273438 C 8.753906 1.269531 7.382812 1.320312 6.332031 2.890625 C 5.476562 4.167969 5.59375 6.417969 5.667969 6.457031 C 5.75 6.5 7.496094 6.257812 8.367188 4.570312 C 9.039062 3.265625 8.789062 1.339844 8.757812 1.273438 Z M 8.757812 1.273438 "/>
<path fill-rule="nonzero" fill="rgb(30%,30%,30%)" fill-opacity="1" d="M 0 3.730469 C 0 3.730469 1.945312 7.738281 4.652344 6.691406 C 4.746094 6.65625 2.667969 6.632812 1.855469 3.421875 C 1.835938 3.332031 0.976562 3.339844 0.746094 3.390625 C 0.199219 3.507812 0 3.730469 0 3.730469 Z M 0 3.730469 "/>
<path fill-rule="nonzero" fill="rgb(30%,30%,30%)" fill-opacity="1" d="M 11 3.730469 C 11 3.730469 9.054688 7.738281 6.347656 6.691406 C 6.253906 6.65625 8.332031 6.632812 9.144531 3.421875 C 9.164062 3.332031 10.023438 3.339844 10.253906 3.390625 C 10.800781 3.507812 11 3.730469 11 3.730469 Z M 11 3.730469 "/>
</svg>
