<?xml version="1.0" encoding="UTF-8" standalone="no"?>
<!-- Created with Inkscape (http://www.inkscape.org/) -->

<svg
   xmlns:dc="http://purl.org/dc/elements/1.1/"
   xmlns:cc="http://creativecommons.org/ns#"
   xmlns:rdf="http://www.w3.org/1999/02/22-rdf-syntax-ns#"
   xmlns:svg="http://www.w3.org/2000/svg"
   xmlns="http://www.w3.org/2000/svg"
   xmlns:xlink="http://www.w3.org/1999/xlink"
   xmlns:sodipodi="http://sodipodi.sourceforge.net/DTD/sodipodi-0.dtd"
   xmlns:inkscape="http://www.inkscape.org/namespaces/inkscape"
   width="30px"
   height="30px"
   version="1.1"
   id="svg8"
   inkscape:version="0.92.4 5da689c313, 2019-01-14"
   sodipodi:docname="container.svg">
  <defs
     id="defs2" />
  <sodipodi:namedview
     id="base"
     pagecolor="#ffffff"
     bordercolor="#666666"
     borderopacity="1.0"
     inkscape:pageopacity="0.0"
     inkscape:pageshadow="2"
     inkscape:zoom="13.049334"
     inkscape:cx="18.679046"
     inkscape:cy="12.165829"
     inkscape:document-units="px"
     inkscape:current-layer="layer1"
     showgrid="false"
     inkscape:snap-page="false"
     units="px"
     inkscape:window-width="1884"
     inkscape:window-height="1061"
     inkscape:window-x="0"
     inkscape:window-y="0"
     inkscape:window-maximized="1"
     fit-margin-top="0"
     fit-margin-left="0"
     fit-margin-right="0"
     fit-margin-bottom="0" />
  <metadata
     id="metadata5">
    <rdf:RDF>
      <cc:Work
         rdf:about="">
        <dc:format>image/svg+xml</dc:format>
        <dc:type
           rdf:resource="http://purl.org/dc/dcmitype/StillImage" />
        <dc:title></dc:title>
      </cc:Work>
    </rdf:RDF>
  </metadata>
    <circle
       style="color:#000000;clip-rule:nonzero;display:inline;overflow:visible;visibility:visible;opacity:1;isolation:auto;mix-blend-mode:normal;color-interpolation:sRGB;color-interpolation-filters:linearRGB;solid-color:#000000;solid-opacity:1;vector-effect:none;fill:#00a757;fill-opacity:1;fill-rule:evenodd;stroke:#ffffff;stroke-width:1;stroke-linecap:butt;stroke-linejoin:miter;stroke-miterlimit:4;stroke-dasharray:none;stroke-dashoffset:0;stroke-opacity:1;marker:none;color-rendering:auto;image-rendering:auto;shape-rendering:auto;text-rendering:auto;enable-background:accumulate"
       id="path815"
       cx="15"
       cy="15"
       r="14.5" />
<g transform="translate(7.5,6.5)"><path fill-rule="nonzero" fill="#FFFFFF" fill-opacity="1" d="M 9.75 17 L 9.226562 17 C 9.167969 16.972656 9.109375 16.929688 9.046875 16.921875 C 8.660156 16.855469 8.261719 16.832031 7.886719 16.730469 C 7.207031 16.542969 6.527344 16.347656 5.871094 16.09375 C 3.769531 15.277344 2.203125 13.894531 1.4375 11.714844 C 1.109375 10.773438 0.960938 9.816406 1.125 8.820312 C 1.199219 8.378906 1.3125 7.945312 1.507812 7.535156 C 1.527344 7.484375 1.515625 7.417969 1.515625 7.359375 C 1.460938 7.359375 1.398438 7.339844 1.355469 7.359375 C 1.082031 7.480469 0.816406 7.613281 0.546875 7.734375 C 0.367188 7.816406 0.183594 7.886719 0 7.960938 L 0 7.921875 C 0.0195312 7.90625 0.0429688 7.894531 0.0546875 7.875 C 0.320312 7.421875 0.550781 6.9375 0.859375 6.511719 C 1.738281 5.308594 2.882812 4.398438 4.121094 3.59375 C 4.203125 3.539062 4.28125 3.484375 4.394531 3.40625 C 3.867188 3.285156 3.410156 3.480469 2.933594 3.46875 C 4.855469 1.671875 7.148438 1.246094 9.664062 1.65625 C 9.886719 1.136719 11.042969 0.121094 11.554688 0 C 11.492188 0.332031 11.339844 0.652344 11.410156 1 L 12.117188 0.441406 C 12.117188 0.535156 12.121094 0.5625 12.117188 0.582031 C 11.949219 1.183594 12.003906 1.785156 12.082031 2.386719 C 12.109375 2.59375 12.121094 2.835938 12.234375 2.992188 C 13.074219 4.167969 13.667969 5.457031 14.078125 6.839844 C 14.164062 7.113281 14.28125 7.375 14.4375 7.613281 C 14.664062 7.960938 14.875 8.308594 14.945312 8.726562 C 14.949219 8.773438 14.984375 8.816406 15.003906 8.859375 L 15.003906 9.085938 C 14.953125 9.269531 14.914062 9.457031 14.851562 9.636719 C 14.78125 9.855469 14.667969 10.058594 14.453125 10.160156 C 14.246094 10.265625 14.03125 10.347656 13.8125 10.414062 C 13.285156 10.5625 12.867188 10.417969 12.570312 9.972656 C 12.460938 9.8125 12.417969 9.605469 12.332031 9.425781 C 12.308594 9.371094 12.25 9.296875 12.195312 9.285156 C 11.640625 9.167969 11.136719 8.929688 10.714844 8.5625 C 10.34375 8.238281 10.011719 7.871094 9.667969 7.519531 C 9.597656 7.453125 9.535156 7.375 9.4375 7.269531 C 9.203125 7.492188 8.953125 7.679688 8.765625 7.914062 C 8.207031 8.597656 8.160156 9.394531 8.3125 10.222656 C 8.488281 11.164062 8.902344 12.007812 9.410156 12.808594 C 10.257812 14.144531 10.214844 15.554688 9.75 17 Z M 10.941406 5.011719 C 10.765625 5.011719 10.621094 5.164062 10.621094 5.347656 C 10.621094 5.53125 10.765625 5.679688 10.941406 5.679688 C 11.121094 5.679688 11.261719 5.53125 11.261719 5.347656 C 11.261719 5.164062 11.121094 5.011719 10.941406 5.011719 Z M 10.941406 5.011719 "/>
</g>
</svg>
