<?xml version="1.0" encoding="UTF-8"?>
<svg xmlns="http://www.w3.org/2000/svg" xmlns:xlink="http://www.w3.org/1999/xlink" width="11" height="10.179458" viewBox="0 0 11 10.179458">
<path fill-rule="nonzero" fill="rgb(30%,30%,30%)" fill-opacity="1" d="M 10.253906 3.601562 C 10.253906 4.378906 9.625 5.011719 8.84375 5.011719 C 8.066406 5.011719 7.433594 4.378906 7.433594 3.601562 C 7.433594 2.820312 8.066406 2.191406 8.84375 2.191406 C 9.625 2.191406 10.253906 2.820312 10.253906 3.601562 Z M 10.253906 3.601562 "/>
<path fill-rule="nonzero" fill="rgb(30%,30%,30%)" fill-opacity="1" d="M 2.84375 6.632812 C 2.847656 6.628906 2.851562 6.628906 2.855469 6.625 C 2.859375 6.625 2.863281 6.625 2.867188 6.621094 C 3.027344 6.535156 3.160156 6.414062 3.308594 6.277344 C 3.46875 6.132812 3.644531 5.96875 3.882812 5.84375 C 4.113281 5.707031 4.40625 5.605469 4.808594 5.605469 C 4.816406 5.605469 4.824219 5.605469 4.832031 5.605469 C 5.46875 5.609375 5.839844 5.921875 6.160156 6.207031 C 6.191406 6.230469 6.21875 6.253906 6.246094 6.277344 C 6.34375 6.363281 6.4375 6.441406 6.53125 6.511719 C 6.710938 6.636719 6.90625 6.71875 7.179688 6.710938 C 7.890625 6.699219 8.183594 6.324219 8.269531 6.179688 L 8.097656 5.945312 C 8.074219 5.890625 8.046875 5.839844 8.015625 5.792969 L 5.648438 2.441406 L 7.925781 1.316406 C 8.25 1.148438 8.382812 0.6875 8.21875 0.363281 C 8.050781 0.0390625 7.652344 -0.09375 7.328125 0.0703125 L 4.535156 1.453125 C 4.398438 1.527344 4.292969 1.570312 4.183594 1.644531 C 4.078125 1.71875 3.992188 1.820312 3.941406 1.9375 C 3.835938 2.125 3.824219 2.359375 3.925781 2.5625 C 3.957031 2.621094 3.996094 2.671875 4.042969 2.71875 L 4.863281 3.882812 L 1.496094 6.335938 C 1.722656 6.550781 1.9375 6.710938 2.371094 6.710938 C 2.5625 6.710938 2.714844 6.683594 2.84375 6.632812 Z M 2.84375 6.632812 "/>
<path fill-rule="nonzero" fill="rgb(30%,30%,30%)" fill-opacity="1" d="M 10.96875 7.019531 C 10.636719 6.726562 10.265625 6.394531 9.601562 6.386719 C 9.59375 6.386719 9.585938 6.386719 9.578125 6.386719 C 8.929688 6.386719 8.566406 6.652344 8.28125 6.90625 C 8.28125 6.90625 8.164062 7.015625 8.164062 7.019531 C 8.027344 7.144531 7.90625 7.257812 7.757812 7.34375 C 7.597656 7.417969 7.390625 7.476562 7.125 7.480469 C 6.734375 7.488281 6.503906 7.328125 6.25 7.101562 C 6.222656 7.078125 6.199219 7.054688 6.171875 7.027344 C 5.960938 6.824219 5.71875 6.585938 5.320312 6.464844 C 5.164062 6.410156 4.980469 6.375 4.773438 6.371094 C 4.765625 6.371094 4.757812 6.371094 4.75 6.371094 C 4.207031 6.371094 3.859375 6.5625 3.59375 6.773438 C 3.488281 6.855469 3.390625 6.9375 3.304688 7.019531 C 3.226562 7.085938 3.152344 7.152344 3.074219 7.210938 L 3.085938 7.222656 C 2.890625 7.375 2.671875 7.480469 2.3125 7.480469 C 1.824219 7.480469 1.609375 7.273438 1.34375 7.011719 C 1.058594 6.734375 0.707031 6.394531 0 6.375 L 0 7.222656 C 0.421875 7.238281 0.613281 7.425781 0.875 7.675781 C 1.167969 7.96875 1.539062 8.328125 2.3125 8.328125 C 3.101562 8.328125 3.488281 7.964844 3.796875 7.675781 C 3.867188 7.609375 3.929688 7.550781 3.996094 7.496094 C 4.195312 7.34375 4.410156 7.238281 4.75 7.234375 C 4.757812 7.234375 4.761719 7.234375 4.765625 7.234375 C 4.878906 7.234375 4.976562 7.246094 5.0625 7.265625 C 5.28125 7.335938 5.460938 7.484375 5.6875 7.6875 C 5.722656 7.714844 5.753906 7.746094 5.789062 7.777344 C 6.070312 8.046875 6.441406 8.34375 7.140625 8.34375 C 7.539062 8.34375 7.835938 8.25 8.070312 8.121094 C 8.355469 7.984375 8.542969 7.804688 8.660156 7.65625 C 8.925781 7.410156 9.132812 7.234375 9.578125 7.234375 C 9.582031 7.234375 9.589844 7.234375 9.59375 7.234375 C 9.976562 7.238281 10.191406 7.414062 10.515625 7.703125 C 10.65625 7.828125 10.8125 7.964844 11 8.082031 L 11 7.050781 C 10.988281 7.039062 10.980469 7.03125 10.96875 7.019531 Z M 10.96875 7.019531 "/>
<path fill-rule="nonzero" fill="rgb(30%,30%,30%)" fill-opacity="1" d="M 10.96875 8.855469 C 10.636719 8.5625 10.265625 8.230469 9.601562 8.222656 C 9.59375 8.222656 9.585938 8.222656 9.578125 8.222656 C 8.929688 8.222656 8.566406 8.488281 8.28125 8.746094 C 8.28125 8.746094 8.164062 8.851562 8.164062 8.855469 C 8.027344 8.984375 7.90625 9.097656 7.757812 9.179688 C 7.597656 9.257812 7.390625 9.3125 7.125 9.320312 C 6.734375 9.328125 6.503906 9.164062 6.25 8.941406 C 6.222656 8.914062 6.199219 8.890625 6.171875 8.863281 C 5.960938 8.660156 5.71875 8.421875 5.320312 8.300781 C 5.164062 8.246094 4.980469 8.210938 4.773438 8.210938 C 4.765625 8.210938 4.757812 8.210938 4.75 8.210938 C 4.207031 8.210938 3.859375 8.398438 3.59375 8.609375 C 3.488281 8.691406 3.390625 8.777344 3.304688 8.855469 C 3.226562 8.925781 3.152344 8.988281 3.074219 9.050781 L 3.085938 9.058594 C 2.890625 9.214844 2.671875 9.320312 2.3125 9.320312 C 1.824219 9.320312 1.609375 9.113281 1.34375 8.851562 C 1.058594 8.574219 0.707031 8.230469 0 8.210938 L 0 9.058594 C 0.421875 9.078125 0.613281 9.261719 0.875 9.515625 C 1.167969 9.804688 1.539062 10.164062 2.3125 10.164062 C 3.101562 10.164062 3.488281 9.804688 3.796875 9.511719 C 3.867188 9.449219 3.929688 9.386719 3.996094 9.332031 C 4.195312 9.179688 4.410156 9.074219 4.75 9.070312 C 4.757812 9.070312 4.761719 9.070312 4.765625 9.070312 C 4.878906 9.070312 4.976562 9.082031 5.0625 9.101562 C 5.28125 9.171875 5.460938 9.320312 5.6875 9.523438 C 5.722656 9.554688 5.753906 9.582031 5.789062 9.613281 C 6.070312 9.882812 6.441406 10.179688 7.140625 10.179688 C 7.539062 10.179688 7.835938 10.085938 8.070312 9.957031 C 8.355469 9.820312 8.542969 9.640625 8.660156 9.492188 C 8.925781 9.246094 9.132812 9.070312 9.578125 9.070312 C 9.582031 9.070312 9.589844 9.070312 9.59375 9.070312 C 9.976562 9.074219 10.191406 9.25 10.515625 9.539062 C 10.65625 9.664062 10.8125 9.804688 11 9.917969 L 11 8.886719 C 10.988281 8.875 10.980469 8.867188 10.96875 8.855469 Z M 10.96875 8.855469 "/>
</svg>
