<?xml version="1.0" encoding="UTF-8"?>
<svg xmlns="http://www.w3.org/2000/svg" xmlns:xlink="http://www.w3.org/1999/xlink" width="11" height="10.847627" viewBox="0 0 11 10.847627">
<path fill-rule="evenodd" fill="rgb(30%,30%,30%)" fill-opacity="1" d="M 10.8125 0.417969 C 10.820312 0.332031 10.847656 0.328125 10.8125 0.253906 C 10.683594 0.253906 10.617188 0.128906 10.488281 0.09375 C 10.363281 0.0546875 10.203125 0.113281 10.117188 0 C 10.074219 0.0898438 9.976562 0.113281 9.859375 0.0703125 C 9.828125 0.261719 9.589844 0.25 9.605469 0.484375 C 9.5625 0.484375 9.53125 0.492188 9.511719 0.507812 C 9.496094 0.578125 9.574219 0.554688 9.558594 0.625 C 9.539062 0.6875 9.441406 0.679688 9.441406 0.761719 C 9.582031 0.8125 9.585938 0.988281 9.628906 1.132812 C 9.769531 1.1875 9.804688 1.339844 9.953125 1.386719 C 9.765625 1.457031 9.609375 1.554688 9.605469 1.804688 C 10.109375 2.050781 10.140625 1.207031 10.675781 1.339844 C 10.78125 1.097656 11.035156 0.886719 10.882812 0.578125 C 10.914062 0.523438 11 0.523438 11 0.4375 C 10.945312 0.425781 10.832031 0.46875 10.8125 0.417969 Z M 3.1875 8.742188 C 3.085938 8.726562 3.089844 8.816406 3 8.8125 C 2.890625 8.773438 2.882812 8.636719 2.835938 8.535156 C 2.742188 8.515625 2.757812 8.609375 2.652344 8.582031 C 2.582031 8.550781 2.554688 8.476562 2.511719 8.417969 C 2.296875 8.460938 2.25 8.339844 2.140625 8.28125 C 2.097656 8.316406 2.089844 8.386719 2.023438 8.394531 C 1.800781 8.304688 1.773438 8.59375 1.535156 8.488281 C 1.457031 8.75 1.253906 8.902344 0.953125 8.882812 C 0.945312 9.019531 1.109375 8.988281 1.140625 9.089844 C 1.179688 9.292969 1.066406 9.339844 1.046875 9.480469 C 1.125 9.613281 1.179688 9.800781 1.210938 10.039062 C 1.328125 10.035156 1.351562 10.128906 1.394531 10.199219 C 1.519531 10.183594 1.597656 10.210938 1.628906 10.292969 C 1.652344 10.417969 1.582031 10.445312 1.582031 10.546875 C 1.691406 10.492188 1.777344 10.417969 1.929688 10.40625 C 2.03125 10.484375 2.101562 10.59375 2.324219 10.546875 C 2.339844 10.472656 2.382812 10.429688 2.441406 10.40625 C 2.511719 10.4375 2.503906 10.546875 2.605469 10.546875 C 2.683594 10.5 2.566406 10.285156 2.722656 10.269531 C 2.820312 10.265625 2.792969 10.382812 2.90625 10.359375 C 2.933594 10.253906 2.933594 10.210938 2.90625 10.105469 C 3.058594 10.011719 3.09375 10.222656 3.1875 10.175781 C 3.1875 10.078125 3.070312 10.089844 3.070312 9.992188 C 3.175781 9.847656 3.035156 9.578125 3.1875 9.460938 C 3.289062 9.40625 3.625 9.53125 3.765625 9.414062 C 3.300781 9.539062 2.929688 9.128906 3.1875 8.742188 Z M 9.835938 2.152344 L 9.835938 2.058594 C 9.707031 2.015625 9.726562 2.03125 9.605469 2.105469 C 9.515625 2.039062 9.457031 2.089844 9.371094 2.035156 C 9.332031 2.136719 9.265625 2.207031 9.09375 2.175781 C 9.011719 2.367188 8.789062 2.507812 8.789062 2.753906 C 8.792969 2.882812 8.925781 3.011719 8.835938 3.121094 C 8.453125 2.71875 7.539062 3.144531 7.070312 3.007812 C 7.128906 2.828125 7.21875 2.675781 7.277344 2.496094 C 7.367188 2.476562 7.46875 2.375 7.394531 2.265625 C 7.082031 2.371094 7.089844 2.796875 6.765625 2.890625 C 6.640625 2.75 6.5 2.710938 6.347656 2.566406 C 6.332031 2.226562 6.167969 2.0625 6.046875 1.851562 C 5.996094 1.761719 6.015625 1.640625 5.882812 1.640625 C 5.871094 1.675781 5.847656 1.699219 5.8125 1.710938 C 5.796875 1.84375 5.878906 1.878906 5.859375 2.011719 C 5.621094 2.140625 5.21875 1.976562 4.953125 1.851562 C 4.925781 1.992188 5.007812 2.027344 5 2.152344 C 4.757812 2.273438 4.605469 2.097656 4.371094 2.195312 C 4.242188 2.117188 4.195312 1.957031 4.023438 1.917969 C 3.867188 1.789062 3.847656 1.523438 3.652344 1.433594 C 3.644531 1.59375 3.722656 1.609375 3.789062 1.710938 C 3.867188 1.828125 3.941406 2.027344 4.023438 2.128906 C 4.128906 2.257812 4.265625 2.300781 4.257812 2.429688 C 4.242188 2.601562 4.039062 2.613281 3.882812 2.707031 C 3.738281 3.347656 3.003906 3.148438 2.488281 2.984375 C 2.789062 3.140625 3.183594 3.203125 3.441406 3.398438 C 3.269531 3.535156 3.109375 3.683594 3 3.886719 C 2.863281 3.875 2.828125 3.761719 2.652344 3.792969 C 2.628906 3.921875 2.777344 3.882812 2.8125 3.953125 C 2.453125 4.039062 2.304688 3.722656 1.90625 3.792969 C 1.902344 3.761719 1.867188 3.753906 1.859375 3.722656 C 1.84375 3.640625 1.910156 3.632812 1.90625 3.5625 C 1.804688 3.484375 1.722656 3.375 1.746094 3.238281 C 1.578125 3.164062 1.441406 3.0625 1.417969 2.84375 C 1.304688 2.824219 1.355469 2.96875 1.234375 2.9375 C 1.167969 2.746094 1.054688 2.875 0.882812 2.796875 C 0.855469 2.832031 0.855469 2.894531 0.8125 2.914062 C 0.5625 2.855469 0.5625 3.046875 0.417969 3.097656 C 0.261719 3.039062 0.1875 2.914062 0 2.984375 C 0.0078125 3.109375 0.21875 3.027344 0.253906 3.121094 C 0.171875 3.339844 0.109375 3.578125 0 3.769531 C 0.0976562 3.832031 0.152344 3.964844 0.09375 4.117188 C 0.238281 4.25 0.382812 4.402344 0.441406 4.554688 C 0.527344 4.570312 0.53125 4.507812 0.605469 4.511719 C 0.675781 4.5625 0.75 4.613281 0.765625 4.71875 C 0.992188 4.597656 1.246094 4.609375 1.488281 4.554688 C 1.527344 4.523438 1.496094 4.425781 1.535156 4.394531 C 1.597656 4.390625 1.660156 4.375 1.722656 4.347656 C 1.78125 4.320312 1.699219 4.234375 1.746094 4.230469 C 2.0625 4.273438 2.5625 4.230469 2.8125 4.441406 C 2.886719 4.6875 2.941406 4.9375 2.8125 5.179688 C 2.773438 5.210938 2.660156 5.164062 2.558594 5.179688 C 2.5 5.164062 2.519531 5.066406 2.441406 5.066406 C 2.035156 5.136719 1.753906 5.339844 1.628906 5.6875 C 1.652344 5.8125 1.671875 5.9375 1.675781 6.082031 C 1.785156 6.3125 2.035156 6.402344 2.1875 6.589844 C 2.234375 6.496094 2.410156 6.511719 2.488281 6.566406 C 2.75 6.433594 3.007812 6.296875 3.09375 5.988281 C 3.441406 5.992188 3.453125 6.324219 3.675781 6.453125 C 3.609375 6.796875 3.503906 7.101562 3.417969 7.425781 C 3.589844 7.289062 3.652344 7.003906 3.699219 6.683594 C 3.792969 6.65625 3.859375 6.597656 3.953125 6.566406 C 4.011719 6.625 4.109375 6.644531 4.117188 6.753906 C 4.117188 6.839844 4.03125 6.839844 4.023438 6.914062 C 4.292969 6.886719 4.726562 6.859375 4.699219 7.285156 C 4.832031 7.324219 4.785156 7.1875 4.882812 7.191406 C 5.105469 7.351562 5.152344 8.011719 5.023438 8.234375 C 4.882812 8.0625 4.902344 7.789062 4.628906 7.816406 C 4.355469 7.847656 4.304688 8.234375 4.488281 8.464844 C 4.726562 8.542969 4.9375 8.695312 5.070312 8.417969 C 5.316406 8.632812 5.160156 9.15625 4.929688 9.296875 C 4.835938 9.316406 4.742188 9.339844 4.722656 9.4375 C 4.738281 9.441406 4.746094 9.457031 4.746094 9.480469 C 4.828125 9.53125 4.996094 9.496094 5.117188 9.503906 C 5.179688 9.621094 5.269531 9.707031 5.277344 9.875 C 5.214844 9.949219 5.015625 10.015625 5.070312 10.128906 C 5.132812 10.011719 5.382812 9.976562 5.511719 10.058594 C 5.519531 10.144531 5.542969 10.214844 5.558594 10.292969 C 5.726562 10.355469 5.859375 10.503906 6.070312 10.453125 C 6.128906 10.523438 6.101562 10.683594 6.1875 10.730469 C 6.320312 10.742188 6.28125 10.578125 6.417969 10.59375 C 6.472656 10.660156 6.394531 10.863281 6.535156 10.847656 C 6.628906 10.816406 6.585938 10.652344 6.652344 10.59375 C 6.84375 10.542969 6.957031 10.597656 7.140625 10.59375 C 7.167969 10.625 7.167969 10.6875 7.210938 10.707031 C 7.222656 10.667969 7.140625 10.613281 7.210938 10.59375 C 7.308594 10.59375 7.3125 10.691406 7.441406 10.660156 C 7.441406 10.5625 7.394531 10.492188 7.441406 10.40625 C 7.886719 10.382812 7.929688 9.953125 8.164062 9.714844 C 8.449219 9.660156 8.636719 9.828125 8.8125 9.804688 C 8.730469 9.757812 8.597656 9.757812 8.558594 9.667969 C 8.605469 9.605469 8.726562 9.582031 8.675781 9.480469 C 8.527344 9.472656 8.480469 9.566406 8.394531 9.621094 C 8.320312 9.570312 8.171875 9.59375 8.140625 9.503906 C 8.113281 9.332031 8.21875 9.289062 8.277344 9.203125 C 8.261719 9.09375 8.183594 9.039062 8.1875 8.902344 C 8.203125 8.8125 8.355469 8.855469 8.347656 8.742188 C 8.34375 8.648438 8.195312 8.691406 8.140625 8.648438 C 8.109375 8.480469 8.152344 8.464844 8.164062 8.300781 C 8.003906 8.257812 7.867188 8.195312 7.882812 7.980469 C 7.699219 7.953125 7.542969 7.902344 7.558594 7.679688 C 7.515625 7.621094 7.40625 7.628906 7.371094 7.5625 C 7.398438 7.554688 7.453125 7.460938 7.394531 7.445312 C 7.34375 7.585938 7.074219 7.484375 7 7.425781 C 6.910156 7.441406 6.910156 7.550781 6.789062 7.539062 C 6.78125 7.496094 6.742188 7.480469 6.746094 7.425781 C 6.90625 7.316406 7.222656 7.363281 7.394531 7.261719 C 7.394531 7.015625 7.277344 6.769531 7.417969 6.523438 C 7.441406 6.523438 7.445312 6.503906 7.464844 6.5 C 7.503906 6.539062 7.5625 6.554688 7.652344 6.546875 C 7.855469 6.832031 8.210938 6.839844 8.488281 7.03125 C 8.339844 6.761719 7.703125 6.777344 7.789062 6.199219 C 7.640625 6.164062 7.671875 6.40625 7.558594 6.335938 C 7.609375 6.148438 7.8125 6.113281 7.90625 5.96875 C 8.46875 5.804688 8.832031 6.316406 9.371094 6.128906 C 9.527344 5.488281 8.367188 5.621094 8.324219 5.15625 C 8.300781 4.871094 8.558594 4.957031 8.746094 4.878906 C 8.6875 4.695312 8.410156 4.839844 8.324219 4.71875 C 8.316406 4.515625 8.515625 4.519531 8.628906 4.441406 C 8.589844 4.214844 8.773438 4.199219 8.859375 4.046875 C 8.804688 3.925781 8.589844 3.960938 8.558594 3.816406 C 8.683594 3.632812 8.867188 3.242188 9.164062 3.445312 C 9.296875 3.339844 9.386719 3.449219 9.488281 3.539062 C 9.570312 3.433594 9.664062 3.488281 9.789062 3.515625 C 9.945312 3.316406 10.320312 3.164062 10.1875 2.820312 C 10.195312 2.730469 10.28125 2.71875 10.277344 2.613281 C 10.109375 2.480469 10.089844 2.199219 9.835938 2.152344 Z M 6.164062 7.445312 C 6.234375 7.425781 6.378906 7.4375 6.371094 7.5625 C 6.285156 7.617188 6.175781 7.535156 6.164062 7.445312 Z M 7.699219 6.335938 C 7.804688 6.375 7.804688 6.523438 7.859375 6.613281 C 7.746094 6.585938 7.578125 6.457031 7.699219 6.335938 Z M 7.699219 6.335938 "/>
</svg>
