<?xml version="1.0" encoding="UTF-8"?>
<svg xmlns="http://www.w3.org/2000/svg" xmlns:xlink="http://www.w3.org/1999/xlink" width="11" height="11" viewBox="0 0 11 11">
<path fill-rule="nonzero" fill="rgb(30%,30%,30%)" fill-opacity="1" d="M 8.222656 2.007812 C 7.855469 2.339844 7.28125 2.507812 6.652344 2.582031 C 6.757812 2.894531 6.855469 3.21875 6.941406 3.554688 C 8.367188 3.519531 9.632812 3.511719 10.667969 3.617188 C 10.304688 2.621094 9.660156 1.75 8.816406 1.109375 C 8.667969 1.484375 8.46875 1.785156 8.222656 2.007812 Z M 8.222656 2.007812 "/>
<path fill-rule="nonzero" fill="rgb(30%,30%,30%)" fill-opacity="1" d="M 6.527344 3.566406 C 6.441406 3.242188 6.34375 2.921875 6.234375 2.617188 C 6.085938 2.625 5.933594 2.628906 5.785156 2.628906 C 5.199219 2.628906 4.628906 2.574219 4.191406 2.515625 C 3.203125 2.390625 2.191406 2.164062 1.347656 1.894531 C 0.476562 2.894531 0 4.175781 0 5.5 C 0 5.695312 0.0117188 5.894531 0.03125 6.089844 C 0.582031 5.59375 1.265625 5.136719 2.054688 4.746094 C 3.449219 4.058594 5.027344 3.640625 6.527344 3.566406 Z M 6.527344 3.566406 "/>
<path fill-rule="nonzero" fill="rgb(30%,30%,30%)" fill-opacity="1" d="M 7.332031 5.296875 C 7.3125 5.296875 7.292969 5.300781 7.273438 5.300781 C 7.359375 5.964844 7.402344 6.632812 7.402344 7.300781 C 7.402344 8.632812 7.296875 9.773438 7.074219 10.769531 C 8.464844 10.355469 9.625 9.40625 10.3125 8.164062 C 10.152344 7.601562 9.917969 7.085938 9.617188 6.648438 C 9.015625 5.777344 8.203125 5.296875 7.332031 5.296875 Z M 7.332031 5.296875 "/>
<path fill-rule="nonzero" fill="rgb(30%,30%,30%)" fill-opacity="1" d="M 7.039062 3.957031 C 7.109375 4.265625 7.167969 4.578125 7.21875 4.894531 C 7.253906 4.894531 7.292969 4.890625 7.332031 4.890625 C 8.339844 4.890625 9.269531 5.433594 9.953125 6.417969 C 10.203125 6.78125 10.410156 7.191406 10.570312 7.632812 C 11.046875 6.492188 11.128906 5.226562 10.804688 4.039062 C 9.785156 3.917969 8.5 3.925781 7.039062 3.957031 Z M 7.039062 3.957031 "/>
<path fill-rule="nonzero" fill="rgb(30%,30%,30%)" fill-opacity="1" d="M 6.875 5.375 C 5.234375 5.894531 3.109375 8.898438 2.65625 10.207031 C 3.847656 10.925781 5.269531 11.167969 6.628906 10.882812 C 6.878906 9.867188 6.996094 8.695312 6.996094 7.300781 C 6.996094 6.65625 6.957031 6.011719 6.875 5.375 Z M 6.875 5.375 "/>
<path fill-rule="nonzero" fill="rgb(30%,30%,30%)" fill-opacity="1" d="M 6.082031 2.214844 C 5.984375 1.964844 5.878906 1.722656 5.761719 1.492188 C 5.492188 0.941406 5.191406 0.457031 4.859375 0.0390625 C 3.652344 0.179688 2.527344 0.714844 1.660156 1.5625 C 2.988281 1.964844 4.730469 2.261719 6.082031 2.214844 Z M 6.082031 2.214844 "/>
<path fill-rule="nonzero" fill="rgb(30%,30%,30%)" fill-opacity="1" d="M 6.816406 4.96875 C 6.765625 4.628906 6.699219 4.296875 6.625 3.96875 C 5.15625 4.03125 3.605469 4.433594 2.234375 5.109375 C 1.382812 5.53125 0.65625 6.035156 0.105469 6.578125 C 0.382812 7.976562 1.191406 9.183594 2.308594 9.980469 C 2.589844 9.253906 3.230469 8.199219 3.992188 7.257812 C 4.605469 6.492188 5.71875 5.285156 6.816406 4.96875 Z M 6.816406 4.96875 "/>
<path fill-rule="nonzero" fill="rgb(30%,30%,30%)" fill-opacity="1" d="M 6.507812 2.1875 C 7.140625 2.128906 7.652344 1.976562 7.949219 1.707031 C 8.167969 1.507812 8.34375 1.226562 8.472656 0.871094 C 7.585938 0.300781 6.554688 0 5.5 0 C 5.445312 0 5.394531 0 5.34375 0.00390625 C 5.628906 0.390625 5.890625 0.828125 6.128906 1.3125 C 6.265625 1.59375 6.390625 1.882812 6.507812 2.1875 Z M 6.507812 2.1875 "/>
</svg>
