<?xml version="1.0" encoding="UTF-8"?>
<svg xmlns="http://www.w3.org/2000/svg" xmlns:xlink="http://www.w3.org/1999/xlink" width="11" height="10.497053" viewBox="0 0 11 10.497053">
<path fill-rule="nonzero" fill="rgb(30%,30%,30%)" fill-opacity="1" d="M 6.027344 10.121094 L 9.03125 4.117188 C 9.035156 4.105469 8.96875 4.082031 8.972656 4.070312 C 8.863281 4 8.757812 3.921875 8.648438 3.839844 L 5.769531 8.566406 C 5.757812 8.582031 5.746094 8.597656 5.734375 8.613281 C 5.644531 8.738281 5.492188 8.804688 5.335938 8.785156 C 5.183594 8.765625 5.050781 8.660156 4.996094 8.515625 C 4.945312 8.371094 4.972656 8.207031 5.078125 8.089844 C 5.082031 8.082031 5.089844 8.070312 5.09375 8.0625 L 8.441406 3.671875 C 8.328125 3.574219 8.214844 3.472656 8.105469 3.363281 L 4.320312 7.546875 C 4.308594 7.558594 4.292969 7.574219 4.277344 7.585938 C 4.164062 7.691406 4.003906 7.730469 3.855469 7.679688 C 3.707031 7.632812 3.597656 7.507812 3.574219 7.355469 C 3.546875 7.199219 3.609375 7.046875 3.730469 6.949219 C 3.738281 6.941406 3.746094 6.933594 3.753906 6.925781 L 7.921875 3.171875 C 7.867188 3.113281 7.8125 3.054688 7.757812 2.992188 C 7.695312 2.917969 7.632812 2.839844 7.574219 2.765625 L 3.257812 6.414062 C 3.242188 6.425781 3.226562 6.4375 3.207031 6.445312 C 3.082031 6.539062 2.917969 6.550781 2.777344 6.484375 C 2.636719 6.417969 2.546875 6.277344 2.542969 6.121094 C 2.535156 5.96875 2.617188 5.820312 2.75 5.742188 C 2.761719 5.734375 2.769531 5.726562 2.777344 5.722656 L 7.414062 2.550781 C 7.339844 2.441406 7.265625 2.332031 7.199219 2.222656 L 2.296875 4.769531 C 2.28125 4.777344 2.261719 4.785156 2.242188 4.789062 C 2.101562 4.851562 1.9375 4.832031 1.816406 4.734375 C 1.691406 4.636719 1.636719 4.480469 1.664062 4.328125 C 1.691406 4.175781 1.804688 4.050781 1.953125 4.003906 C 1.960938 4 1.972656 3.996094 1.984375 3.988281 L 7.0625 1.988281 C 7 1.875 6.945312 1.761719 6.890625 1.648438 C 6.878906 1.648438 6.871094 1.574219 6.855469 1.578125 L 0.503906 3.582031 C 0.421875 3.605469 0.347656 3.65625 0.292969 3.722656 C 0.175781 3.863281 -0.0078125 4.125 0 4.335938 C 0.0117188 4.648438 0.503906 4.910156 0.578125 5.207031 C 0.726562 5.804688 0.125 6.015625 0.382812 6.574219 C 0.640625 7.136719 0.902344 6.855469 1.152344 7.28125 C 1.40625 7.707031 0.925781 7.894531 1.335938 8.40625 C 1.746094 8.917969 2.195312 8.609375 2.582031 8.984375 C 2.890625 9.277344 2.773438 9.632812 3.25 9.863281 C 3.585938 10.023438 3.921875 9.539062 4.472656 9.820312 C 4.992188 10.089844 4.84375 10.453125 5.183594 10.492188 C 5.414062 10.519531 5.691406 10.398438 5.847656 10.3125 C 5.925781 10.269531 5.988281 10.203125 6.027344 10.121094 Z M 6.027344 10.121094 "/>
<path fill-rule="nonzero" fill="rgb(30%,30%,30%)" fill-opacity="1" d="M 9.238281 3.886719 L 9.753906 3.449219 C 9.242188 3.164062 8.96875 2.851562 8.507812 2.3125 C 8.09375 1.828125 7.867188 1.492188 7.664062 0.996094 L 7.109375 1.414062 C 7.3125 1.929688 7.550781 2.292969 7.980469 2.796875 C 8.414062 3.304688 8.757812 3.605469 9.238281 3.886719 Z M 9.238281 3.886719 "/>
<path fill-rule="nonzero" fill="rgb(30%,30%,30%)" fill-opacity="1" d="M 10.613281 0.628906 C 10 -0.0898438 9.101562 -0.359375 8.007812 0.722656 C 8.210938 1.160156 8.496094 1.601562 8.859375 2.023438 C 9.242188 2.472656 9.667969 2.835938 10.09375 3.109375 C 11.148438 2.292969 11.226562 1.347656 10.613281 0.628906 Z M 10.613281 0.628906 "/>
</svg>
