<?xml version="1.0" encoding="UTF-8"?>
<svg xmlns="http://www.w3.org/2000/svg" xmlns:xlink="http://www.w3.org/1999/xlink" width="10.304405" height="11" viewBox="0 0 10.304405 11">
<path fill-rule="nonzero" fill="rgb(30%,30%,30%)" fill-opacity="1" d="M 3.609375 5.035156 L 1.996094 5.035156 C 1.890625 5.035156 1.804688 4.945312 1.804688 4.839844 C 1.804688 4.734375 1.890625 4.644531 1.996094 4.644531 L 3.609375 4.644531 C 3.714844 4.644531 3.800781 4.734375 3.800781 4.839844 C 3.800781 4.945312 3.714844 5.035156 3.609375 5.035156 Z M 3.695312 6.558594 C 3.695312 6.449219 3.605469 6.363281 3.5 6.363281 L 1.289062 6.363281 C 1.183594 6.363281 1.09375 6.449219 1.09375 6.558594 C 1.09375 6.664062 1.183594 6.75 1.289062 6.75 L 3.5 6.75 C 3.605469 6.75 3.695312 6.664062 3.695312 6.558594 Z M 3.78125 8.234375 C 3.78125 8.125 3.691406 8.039062 3.585938 8.039062 L 0.195312 8.039062 C 0.0859375 8.039062 0 8.125 0 8.234375 C 0 8.339844 0.0859375 8.425781 0.195312 8.425781 L 3.585938 8.425781 C 3.691406 8.425781 3.78125 8.339844 3.78125 8.234375 Z M 5.839844 4.238281 L 5.839844 3.421875 C 5.839844 3.316406 5.753906 3.230469 5.648438 3.230469 C 5.539062 3.230469 5.453125 3.316406 5.453125 3.421875 L 5.453125 4.238281 C 5.453125 4.34375 5.539062 4.433594 5.648438 4.433594 C 5.753906 4.433594 5.839844 4.34375 5.839844 4.238281 Z M 5.839844 9.648438 L 5.839844 8.832031 C 5.839844 8.726562 5.753906 8.640625 5.648438 8.640625 C 5.539062 8.640625 5.453125 8.726562 5.453125 8.832031 L 5.453125 9.648438 C 5.453125 9.757812 5.539062 9.84375 5.648438 9.84375 C 5.753906 9.84375 5.839844 9.757812 5.839844 9.648438 Z M 7.957031 6.742188 L 8.773438 6.738281 C 8.878906 6.738281 8.964844 6.652344 8.964844 6.542969 C 8.964844 6.4375 8.878906 6.351562 8.773438 6.351562 L 8.769531 6.351562 L 7.953125 6.355469 C 7.847656 6.355469 7.761719 6.441406 7.761719 6.550781 C 7.761719 6.65625 7.847656 6.742188 7.957031 6.742188 Z M 8.011719 8.867188 C 8.085938 8.792969 8.089844 8.667969 8.015625 8.59375 L 7.445312 8.007812 C 7.394531 7.960938 7.324219 7.941406 7.257812 7.957031 C 7.191406 7.972656 7.136719 8.027344 7.117188 8.09375 C 7.101562 8.160156 7.117188 8.230469 7.167969 8.28125 L 7.738281 8.863281 C 7.8125 8.941406 7.933594 8.941406 8.011719 8.867188 Z M 7.367188 5.035156 L 7.953125 4.472656 C 8.03125 4.398438 8.035156 4.273438 7.960938 4.199219 C 7.886719 4.121094 7.765625 4.117188 7.6875 4.191406 L 7.097656 4.757812 C 7.019531 4.832031 7.019531 4.953125 7.09375 5.03125 C 7.167969 5.109375 7.289062 5.109375 7.367188 5.035156 Z M 9.492188 3.195312 C 9.5625 3.265625 9.675781 3.265625 9.746094 3.195312 L 10.25 2.691406 C 10.320312 2.621094 10.320312 2.507812 10.25 2.4375 L 9.746094 1.933594 C 9.675781 1.863281 9.5625 1.863281 9.492188 1.933594 L 8.988281 2.4375 C 8.917969 2.507812 8.917969 2.621094 8.988281 2.691406 L 9.097656 2.800781 L 8.636719 3.285156 C 7.878906 2.59375 6.910156 2.183594 5.886719 2.128906 L 5.882812 1.414062 L 6 1.414062 C 6.089844 1.414062 6.160156 1.34375 6.160156 1.253906 L 6.160156 0.160156 C 6.160156 0.0742188 6.089844 0 6 0 L 5.304688 0 C 5.214844 0 5.144531 0.0742188 5.144531 0.160156 L 5.144531 1.253906 C 5.144531 1.34375 5.214844 1.414062 5.304688 1.414062 L 5.492188 1.414062 L 5.5 2.121094 C 4.25 2.164062 3.078125 2.726562 2.265625 3.675781 C 2.179688 3.777344 2.191406 3.929688 2.292969 4.015625 C 2.394531 4.105469 2.546875 4.089844 2.632812 3.988281 C 3.386719 3.109375 4.484375 2.605469 5.640625 2.605469 C 7.824219 2.605469 9.597656 4.378906 9.597656 6.558594 C 9.597656 8.742188 7.824219 10.515625 5.640625 10.515625 C 4.398438 10.515625 3.25 9.949219 2.496094 8.957031 C 2.414062 8.851562 2.261719 8.832031 2.15625 8.910156 C 2.050781 8.992188 2.027344 9.144531 2.109375 9.25 C 2.957031 10.363281 4.246094 11 5.640625 11 C 8.089844 11 10.082031 9.007812 10.082031 6.558594 C 10.082031 5.449219 9.664062 4.375 8.910156 3.558594 L 9.371094 3.074219 Z M 6.65625 3.679688 C 6.65625 3.679688 5.121094 6.039062 5.019531 6.363281 C 4.917969 6.6875 5.097656 7.03125 5.417969 7.132812 C 5.742188 7.234375 6.085938 7.054688 6.1875 6.734375 C 6.1875 6.734375 6.65625 3.679688 6.65625 3.679688 Z M 6.65625 3.679688 "/>
</svg>
