<?xml version="1.0" encoding="UTF-8"?>
<svg xmlns="http://www.w3.org/2000/svg" xmlns:xlink="http://www.w3.org/1999/xlink" width="9.673109" height="11" viewBox="0 0 9.673109 11">
<path fill-rule="nonzero" fill="rgb(30%,30%,30%)" fill-opacity="1" d="M 8.632812 1.113281 C 8.632812 1.730469 8.132812 2.230469 7.519531 2.230469 C 6.902344 2.230469 6.402344 1.730469 6.402344 1.113281 C 6.402344 0.5 6.902344 0 7.519531 0 C 8.132812 0 8.632812 0.5 8.632812 1.113281 Z M 8.632812 1.113281 "/>
<path fill-rule="nonzero" fill="rgb(30%,30%,30%)" fill-opacity="1" d="M 9.582031 3.289062 C 9.441406 3.121094 9.191406 3.101562 9.023438 3.238281 L 7.832031 4.234375 L 7.328125 2.847656 C 7.300781 2.78125 7.144531 2.402344 6.824219 2.238281 L 6.699219 2.179688 C 6.566406 2.113281 4.253906 1.507812 4.253906 1.507812 C 4.042969 1.449219 3.824219 1.570312 3.761719 1.777344 C 3.761719 1.78125 3.761719 1.785156 3.757812 1.789062 L 3 3.710938 C 2.921875 3.914062 3.023438 4.144531 3.226562 4.226562 C 3.429688 4.304688 3.660156 4.207031 3.738281 4.003906 L 4.382812 2.371094 L 5.320312 2.640625 L 3.890625 5.648438 C 3.875 5.683594 2.625 7.710938 2.625 7.710938 L 0.386719 8.488281 C 0.0859375 8.589844 -0.0703125 8.917969 0.03125 9.21875 C 0.136719 9.519531 0.464844 9.679688 0.765625 9.574219 L 3.421875 8.652344 C 3.539062 8.613281 4.515625 6.949219 4.515625 6.949219 C 4.519531 6.949219 4.523438 6.953125 4.527344 6.957031 L 6.03125 8.171875 L 4.402344 10.046875 C 4.195312 10.289062 4.222656 10.652344 4.460938 10.859375 C 4.703125 11.066406 5.0625 11.042969 5.273438 10.800781 L 7.164062 8.625 C 7.179688 8.605469 7.191406 8.589844 7.199219 8.570312 C 7.242188 8.539062 7.28125 8.503906 7.3125 8.464844 C 7.511719 8.214844 7.472656 7.855469 7.226562 7.652344 L 5.878906 6.566406 L 6.988281 4.230469 L 7.296875 5.082031 C 7.371094 5.285156 7.597656 5.390625 7.804688 5.316406 C 7.910156 5.277344 9.53125 3.847656 9.53125 3.847656 C 9.699219 3.707031 9.722656 3.457031 9.582031 3.289062 Z M 9.582031 3.289062 "/>
</svg>
