<?xml version="1.0" encoding="UTF-8"?>
<svg xmlns="http://www.w3.org/2000/svg" xmlns:xlink="http://www.w3.org/1999/xlink" width="11" height="8.794207" viewBox="0 0 11 8.794207">
<path fill-rule="nonzero" fill="rgb(30%,30%,30%)" fill-opacity="1" d="M 9.425781 6.835938 C 9.347656 7.121094 9.058594 7.292969 8.773438 7.21875 C 8.484375 7.144531 8.316406 6.851562 8.390625 6.566406 C 8.464844 6.28125 8.757812 6.109375 9.042969 6.183594 C 9.328125 6.257812 9.5 6.550781 9.425781 6.835938 Z M 9.425781 6.835938 "/>
<path fill-rule="nonzero" fill="rgb(30%,30%,30%)" fill-opacity="1" d="M 10.714844 5.644531 C 10.183594 4.738281 9.0625 4.367188 8.09375 4.773438 L 7.746094 3.8125 L 8.324219 3.164062 L 8.984375 3.609375 C 9.101562 3.6875 9.257812 3.65625 9.332031 3.542969 C 9.410156 3.429688 9.378906 3.273438 9.265625 3.195312 L 7.652344 2.109375 C 7.539062 2.03125 7.382812 2.0625 7.304688 2.175781 C 7.230469 2.289062 7.257812 2.445312 7.375 2.523438 L 7.902344 2.882812 L 7.761719 3.042969 L 4.667969 1.410156 L 5.21875 0.578125 L 5.820312 0.890625 C 5.941406 0.957031 6.09375 0.910156 6.15625 0.785156 C 6.222656 0.664062 6.175781 0.511719 6.050781 0.449219 L 5.25 0.0273438 C 5.136719 -0.03125 4.996094 0.00390625 4.925781 0.113281 L 2.996094 3.027344 C 2.875 2.96875 2.753906 2.925781 2.625 2.890625 C 1.507812 2.597656 0.363281 3.265625 0.0703125 4.382812 C -0.222656 5.5 0.445312 6.644531 1.5625 6.9375 C 2.679688 7.230469 3.824219 6.5625 4.117188 5.445312 C 4.324219 4.652344 4.050781 3.816406 3.417969 3.296875 L 4.316406 1.941406 L 5.636719 4.765625 C 5.570312 4.847656 5.523438 4.945312 5.496094 5.050781 C 5.40625 5.390625 5.558594 5.746094 5.867188 5.914062 C 6.175781 6.082031 6.5625 6.019531 6.796875 5.757812 L 7.003906 5.832031 C 6.953125 5.941406 6.914062 6.054688 6.882812 6.171875 C 6.589844 7.289062 7.257812 8.433594 8.375 8.726562 C 8.550781 8.769531 8.730469 8.792969 8.910156 8.792969 C 9.660156 8.792969 10.351562 8.390625 10.722656 7.742188 C 11.09375 7.089844 11.089844 6.292969 10.714844 5.644531 Z M 10.5625 7.136719 C 10.359375 7.902344 9.664062 8.410156 8.90625 8.410156 C 8.378906 8.410156 7.878906 8.164062 7.554688 7.746094 C 7.230469 7.324219 7.121094 6.78125 7.253906 6.269531 C 7.453125 5.5 8.148438 4.992188 8.90625 4.992188 C 9.054688 4.992188 9.199219 5.011719 9.339844 5.046875 C 10.253906 5.285156 10.800781 6.222656 10.5625 7.136719 Z M 6.457031 4.511719 C 6.445312 4.507812 6.4375 4.507812 6.429688 4.503906 C 6.308594 4.472656 6.183594 4.46875 6.066406 4.496094 L 4.957031 2.128906 L 7.417969 3.429688 Z M 5.980469 5.175781 C 6.015625 5.035156 6.160156 4.953125 6.300781 4.988281 C 6.441406 5.027344 6.523438 5.167969 6.488281 5.308594 C 6.453125 5.449219 6.308594 5.535156 6.167969 5.496094 C 6.101562 5.480469 6.042969 5.4375 6.007812 5.375 C 5.972656 5.316406 5.960938 5.242188 5.980469 5.175781 Z M 6.863281 4.808594 L 7.367188 4.238281 L 7.652344 5.027344 C 7.511719 5.132812 7.382812 5.257812 7.273438 5.394531 L 6.996094 5.296875 C 7.007812 5.125 6.960938 4.953125 6.863281 4.808594 Z M 2.128906 4.289062 C 1.835938 4.269531 1.570312 4.457031 1.488281 4.738281 C 1.40625 5.019531 1.53125 5.316406 1.785156 5.460938 C 2.039062 5.605469 2.359375 5.554688 2.554688 5.339844 C 2.753906 5.121094 2.777344 4.800781 2.609375 4.558594 L 3.222656 3.632812 C 3.816406 4.15625 3.972656 5.019531 3.601562 5.71875 C 3.226562 6.417969 2.425781 6.769531 1.660156 6.566406 C 0.746094 6.328125 0.199219 5.390625 0.441406 4.480469 C 0.640625 3.714844 1.335938 3.203125 2.09375 3.203125 C 2.320312 3.203125 2.546875 3.25 2.757812 3.339844 Z M 2.128906 4.289062 "/>
</svg>
