<?xml version="1.0" encoding="UTF-8" standalone="no"?>
<!-- Created with Inkscape (http://www.inkscape.org/) -->

<svg
   xmlns:dc="http://purl.org/dc/elements/1.1/"
   xmlns:cc="http://creativecommons.org/ns#"
   xmlns:rdf="http://www.w3.org/1999/02/22-rdf-syntax-ns#"
   xmlns:svg="http://www.w3.org/2000/svg"
   xmlns="http://www.w3.org/2000/svg"
   xmlns:xlink="http://www.w3.org/1999/xlink"
   xmlns:sodipodi="http://sodipodi.sourceforge.net/DTD/sodipodi-0.dtd"
   xmlns:inkscape="http://www.inkscape.org/namespaces/inkscape"
   width="30px"
   height="30px"
   version="1.1"
   id="svg8"
   inkscape:version="0.92.4 5da689c313, 2019-01-14"
   sodipodi:docname="container.svg">
  <defs
     id="defs2" />
  <sodipodi:namedview
     id="base"
     pagecolor="#ffffff"
     bordercolor="#666666"
     borderopacity="1.0"
     inkscape:pageopacity="0.0"
     inkscape:pageshadow="2"
     inkscape:zoom="13.049334"
     inkscape:cx="18.679046"
     inkscape:cy="12.165829"
     inkscape:document-units="px"
     inkscape:current-layer="layer1"
     showgrid="false"
     inkscape:snap-page="false"
     units="px"
     inkscape:window-width="1884"
     inkscape:window-height="1061"
     inkscape:window-x="0"
     inkscape:window-y="0"
     inkscape:window-maximized="1"
     fit-margin-top="0"
     fit-margin-left="0"
     fit-margin-right="0"
     fit-margin-bottom="0" />
  <metadata
     id="metadata5">
    <rdf:RDF>
      <cc:Work
         rdf:about="">
        <dc:format>image/svg+xml</dc:format>
        <dc:type
           rdf:resource="http://purl.org/dc/dcmitype/StillImage" />
        <dc:title></dc:title>
      </cc:Work>
    </rdf:RDF>
  </metadata>
    <circle
       style="color:#000000;clip-rule:nonzero;display:inline;overflow:visible;visibility:visible;opacity:1;isolation:auto;mix-blend-mode:normal;color-interpolation:sRGB;color-interpolation-filters:linearRGB;solid-color:#000000;solid-opacity:1;vector-effect:none;fill:#00a757;fill-opacity:1;fill-rule:evenodd;stroke:#ffffff;stroke-width:1;stroke-linecap:butt;stroke-linejoin:miter;stroke-miterlimit:4;stroke-dasharray:none;stroke-dashoffset:0;stroke-opacity:1;marker:none;color-rendering:auto;image-rendering:auto;shape-rendering:auto;text-rendering:auto;enable-background:accumulate"
       id="path815"
       cx="15"
       cy="15"
       r="14.5" />
<g transform="translate(8.5,6.5)"><path fill-rule="nonzero" fill="#FFFFFF" fill-opacity="1" d="M 11.65625 1.832031 L 9.84375 3.644531 C 9.433594 4.058594 9.714844 4.992188 9.800781 5.238281 L 8.84375 6.191406 C 8.367188 3.019531 6.953125 0.253906 6.765625 0 C 6.785156 0.046875 6.773438 0.394531 6.773438 5.859375 C 6.773438 5.914062 6.726562 5.960938 6.671875 5.960938 C 7.195312 5.960938 7.65625 6.417969 7.921875 7.109375 L 5.347656 9.675781 C 4.820312 7.984375 5.566406 5.960938 6.671875 5.960938 C 6.558594 5.960938 6.574219 5.832031 6.574219 5.765625 C 6.574219 0.671875 6.566406 0.0859375 6.582031 0.0078125 C 6.367188 0.347656 3.738281 5.085938 4.46875 10.554688 L 3.394531 11.625 C 2.914062 11.464844 2.171875 11.320312 1.8125 11.675781 L 0 13.488281 L 1.691406 15.179688 L 3.507812 13.363281 C 3.914062 12.960938 3.644531 12.046875 3.554688 11.78125 L 4.507812 10.828125 C 5.019531 14.234375 6.460938 16.792969 6.582031 17 C 6.570312 16.960938 6.574219 16.589844 6.574219 11.148438 C 6.574219 11.125 6.585938 11.097656 6.605469 11.082031 C 6.621094 11.0625 6.648438 11.050781 6.671875 11.050781 C 6.15625 11.050781 5.695312 10.597656 5.429688 9.910156 L 8.007812 7.339844 C 8.523438 9.058594 7.773438 11.050781 6.671875 11.050781 C 6.699219 11.050781 6.726562 11.0625 6.746094 11.078125 C 6.761719 11.097656 6.773438 11.125 6.773438 11.148438 C 6.773438 16.5625 6.78125 16.957031 6.769531 17 C 6.917969 16.742188 9.019531 13.007812 9.019531 8.503906 C 9.019531 7.824219 8.972656 7.144531 8.882812 6.46875 L 9.964844 5.390625 C 10.445312 5.546875 11.183594 5.6875 11.535156 5.335938 L 13.351562 3.523438 Z M 11.65625 1.832031 "/>
</g>
</svg>
