<?xml version="1.0" encoding="UTF-8"?>
<svg xmlns="http://www.w3.org/2000/svg" xmlns:xlink="http://www.w3.org/1999/xlink" width="10.578738" height="11" viewBox="0 0 10.578738 11">
<path fill-rule="nonzero" fill="rgb(30%,30%,30%)" fill-opacity="1" d="M 10.394531 7.09375 C 10.394531 7.945312 9.707031 8.636719 8.855469 8.636719 C 8 8.636719 7.3125 7.945312 7.3125 7.09375 C 7.3125 6.242188 8 5.550781 8.855469 5.550781 C 9.707031 5.550781 10.394531 6.242188 10.394531 7.09375 Z M 10.394531 7.09375 "/>
<path fill-rule="nonzero" fill="rgb(30%,30%,30%)" fill-opacity="1" d="M 7.0625 6.867188 C 6.898438 6.925781 6.730469 6.972656 6.554688 7.003906 C 5.746094 7.160156 5.007812 6.988281 4.480469 6.523438 C 3.953125 6.058594 3.691406 5.347656 3.742188 4.523438 C 3.792969 3.667969 4.175781 2.800781 4.8125 2.078125 C 5.449219 1.355469 6.265625 0.867188 7.105469 0.707031 C 7.292969 0.671875 7.480469 0.652344 7.671875 0.652344 C 8.257812 0.652344 8.78125 0.835938 9.179688 1.191406 C 9.707031 1.65625 9.96875 2.363281 9.917969 3.1875 C 9.875 3.917969 9.589844 4.65625 9.109375 5.308594 C 9.335938 5.339844 9.554688 5.414062 9.753906 5.53125 C 10.234375 4.820312 10.523438 4.019531 10.570312 3.230469 C 10.632812 2.199219 10.292969 1.300781 9.613281 0.699219 C 8.929688 0.101562 7.996094 -0.125 6.984375 0.0664062 C 6 0.253906 5.054688 0.8125 4.324219 1.644531 C 3.589844 2.476562 3.152344 3.484375 3.089844 4.484375 C 3.050781 5.132812 3.273438 5.90625 3.433594 6.230469 C 3.5625 6.484375 3.066406 7.039062 3.0625 7.046875 L 0.132812 10.183594 C -0.0507812 10.378906 -0.0429688 10.683594 0.152344 10.867188 C 0.347656 11.050781 0.65625 11.042969 0.839844 10.847656 L 3.820312 7.660156 C 3.820312 7.660156 4.296875 7.257812 4.480469 7.320312 C 4.960938 7.496094 5.433594 7.714844 5.984375 7.714844 C 6.21875 7.710938 6.449219 7.691406 6.679688 7.644531 C 6.824219 7.617188 6.964844 7.582031 7.105469 7.539062 C 7.046875 7.320312 7.035156 7.089844 7.0625 6.867188 Z M 7.0625 6.867188 "/>
</svg>
