<?xml version="1.0" encoding="UTF-8"?>
<svg xmlns="http://www.w3.org/2000/svg" xmlns:xlink="http://www.w3.org/1999/xlink" width="11" height="7.976821" viewBox="0 0 11 7.976821">
<path fill-rule="nonzero" fill="rgb(30%,30%,30%)" fill-opacity="1" d="M 2.089844 0 L 8.910156 0 C 9.238281 0 9.507812 0.269531 9.507812 0.597656 L 9.507812 0.605469 C 9.507812 0.933594 9.238281 1.203125 8.910156 1.203125 L 2.089844 1.203125 C 1.761719 1.203125 1.492188 0.933594 1.492188 0.605469 L 1.492188 0.597656 C 1.492188 0.269531 1.761719 0 2.089844 0 Z M 10.398438 3.96875 L 8.484375 3.96875 L 7.902344 1.601562 L 6.703125 1.601562 L 7.285156 3.96875 L 3.726562 3.96875 L 4.335938 1.601562 L 3.132812 1.601562 L 2.523438 3.96875 L 0.601562 3.96875 C 0.269531 3.96875 0 4.238281 0 4.570312 C 0 4.902344 0.269531 5.171875 0.601562 5.171875 L 2.214844 5.171875 L 1.492188 7.976562 L 2.695312 7.976562 L 3.417969 5.171875 L 7.578125 5.171875 L 8.269531 7.976562 L 9.46875 7.976562 L 8.78125 5.171875 L 10.398438 5.171875 C 10.730469 5.171875 11 4.902344 11 4.570312 C 11 4.238281 10.730469 3.96875 10.398438 3.96875 Z M 10.398438 3.96875 "/>
</svg>
