<?xml version="1.0" encoding="UTF-8" standalone="no"?>
<!-- Created with Inkscape (http://www.inkscape.org/) -->

<svg
   xmlns:dc="http://purl.org/dc/elements/1.1/"
   xmlns:cc="http://creativecommons.org/ns#"
   xmlns:rdf="http://www.w3.org/1999/02/22-rdf-syntax-ns#"
   xmlns:svg="http://www.w3.org/2000/svg"
   xmlns="http://www.w3.org/2000/svg"
   xmlns:xlink="http://www.w3.org/1999/xlink"
   xmlns:sodipodi="http://sodipodi.sourceforge.net/DTD/sodipodi-0.dtd"
   xmlns:inkscape="http://www.inkscape.org/namespaces/inkscape"
   width="30px"
   height="30px"
   version="1.1"
   id="svg8"
   inkscape:version="0.92.4 5da689c313, 2019-01-14"
   sodipodi:docname="container.svg">
  <defs
     id="defs2" />
  <sodipodi:namedview
     id="base"
     pagecolor="#ffffff"
     bordercolor="#666666"
     borderopacity="1.0"
     inkscape:pageopacity="0.0"
     inkscape:pageshadow="2"
     inkscape:zoom="13.049334"
     inkscape:cx="18.679046"
     inkscape:cy="12.165829"
     inkscape:document-units="px"
     inkscape:current-layer="layer1"
     showgrid="false"
     inkscape:snap-page="false"
     units="px"
     inkscape:window-width="1884"
     inkscape:window-height="1061"
     inkscape:window-x="0"
     inkscape:window-y="0"
     inkscape:window-maximized="1"
     fit-margin-top="0"
     fit-margin-left="0"
     fit-margin-right="0"
     fit-margin-bottom="0" />
  <metadata
     id="metadata5">
    <rdf:RDF>
      <cc:Work
         rdf:about="">
        <dc:format>image/svg+xml</dc:format>
        <dc:type
           rdf:resource="http://purl.org/dc/dcmitype/StillImage" />
        <dc:title></dc:title>
      </cc:Work>
    </rdf:RDF>
  </metadata>
    <circle
       style="color:#000000;clip-rule:nonzero;display:inline;overflow:visible;visibility:visible;opacity:1;isolation:auto;mix-blend-mode:normal;color-interpolation:sRGB;color-interpolation-filters:linearRGB;solid-color:#000000;solid-opacity:1;vector-effect:none;fill:#ffffff;fill-opacity:1;fill-rule:evenodd;stroke:#00a757;stroke-width:1;stroke-linecap:butt;stroke-linejoin:miter;stroke-miterlimit:4;stroke-dasharray:none;stroke-dashoffset:0;stroke-opacity:1;marker:none;color-rendering:auto;image-rendering:auto;shape-rendering:auto;text-rendering:auto;enable-background:accumulate"
       id="path815"
       cx="15"
       cy="15"
       r="14.5" />
<g transform="translate(9.0,6.5)"><path fill-rule="nonzero" fill="rgb(30%,30%,30%)" fill-opacity="1" d="M 4.261719 10.855469 L 4.238281 10.855469 M 12.179688 6.367188 L 12.179688 6.464844 C 12.179688 6.617188 12.054688 6.742188 11.90625 6.742188 L 11.261719 6.742188 L 11.222656 7.292969 C 10.960938 9.097656 9.882812 10.3125 8.316406 10.871094 L 10.105469 15.738281 C 10.183594 15.953125 10.074219 16.195312 9.855469 16.277344 C 9.636719 16.359375 9.394531 16.246094 9.316406 16.027344 L 7.503906 11.09375 C 7.164062 11.160156 6.820312 11.199219 6.476562 11.214844 L 6.5 16.578125 C 6.5 16.808594 6.3125 17 6.082031 17 L 6.078125 17 C 5.847656 17 5.660156 16.816406 5.65625 16.585938 L 5.636719 11.207031 C 5.285156 11.179688 4.9375 11.121094 4.597656 11.03125 L 2.796875 16.136719 C 2.71875 16.355469 2.480469 16.46875 2.261719 16.394531 C 2.039062 16.316406 1.925781 16.074219 2.003906 15.855469 L 3.808594 10.746094 C 2.277344 10.066406 1.171875 8.671875 0.816406 6.742188 L 0.277344 6.742188 C 0.125 6.742188 0 6.617188 0 6.464844 L 0 6.367188 C 0 6.214844 0.125 6.089844 0.277344 6.089844 L 0.722656 6.089844 C 0.722656 6.078125 0.71875 6.066406 0.71875 6.054688 C 0.71875 4.90625 3.480469 4.289062 6.082031 4.289062 C 8.683594 4.289062 11.445312 4.910156 11.445312 6.054688 C 11.445312 6.066406 11.445312 6.078125 11.445312 6.089844 L 11.90625 6.089844 C 12.054688 6.089844 12.179688 6.210938 12.179688 6.367188 Z M 4.257812 10.46875 C 4.308594 10.46875 2.1875 9.726562 1.792969 7.6875 L 1.21875 7.351562 C 1.976562 10.046875 3.765625 10.457031 4.257812 10.46875 Z M 11.023438 6.054688 C 11.023438 5.492188 9.144531 4.710938 6.082031 4.710938 C 3.015625 4.710938 1.136719 5.492188 1.136719 6.054688 C 1.136719 6.617188 3.015625 7.398438 6.082031 7.398438 C 9.144531 7.398438 11.023438 6.617188 11.023438 6.054688 Z M 2.136719 6.527344 L 2.941406 5.648438 C 3.019531 5.566406 3.011719 5.429688 2.929688 5.351562 C 2.84375 5.273438 2.710938 5.28125 2.632812 5.363281 L 1.828125 6.242188 C 1.746094 6.324219 1.753906 6.460938 1.839844 6.539062 C 1.925781 6.617188 2.058594 6.613281 2.136719 6.527344 Z M 9.980469 6.773438 L 10.632812 5.9375 C 10.707031 5.84375 10.691406 5.714844 10.597656 5.640625 C 10.507812 5.570312 10.375 5.585938 10.304688 5.675781 L 9.648438 6.511719 C 9.578125 6.605469 9.59375 6.734375 9.6875 6.808594 C 9.777344 6.878906 9.910156 6.863281 9.980469 6.773438 Z M 8.417969 7.136719 L 9.613281 5.546875 C 9.683594 5.453125 9.667969 5.324219 9.574219 5.253906 C 9.480469 5.183594 9.347656 5.203125 9.28125 5.296875 L 8.085938 6.882812 C 8.015625 6.976562 8.035156 7.105469 8.125 7.179688 C 8.21875 7.25 8.351562 7.226562 8.417969 7.136719 Z M 3.175781 6.929688 L 4.558594 5.210938 C 4.628906 5.121094 4.617188 4.988281 4.523438 4.917969 C 4.433594 4.84375 4.300781 4.859375 4.230469 4.949219 L 2.851562 6.667969 C 2.777344 6.757812 2.792969 6.890625 2.882812 6.964844 C 2.972656 7.035156 3.105469 7.019531 3.175781 6.929688 Z M 6.933594 7.25 L 8.445312 5.277344 C 8.515625 5.183594 8.5 5.050781 8.40625 4.980469 C 8.3125 4.910156 8.183594 4.929688 8.109375 5.023438 L 6.601562 6.996094 C 6.527344 7.085938 6.546875 7.21875 6.640625 7.289062 C 6.734375 7.359375 6.863281 7.34375 6.933594 7.25 Z M 4.375 7.105469 L 5.894531 5.203125 C 5.96875 5.109375 5.953125 4.980469 5.863281 4.90625 C 5.769531 4.835938 5.640625 4.851562 5.566406 4.941406 L 4.046875 6.84375 C 3.972656 6.933594 3.988281 7.066406 4.078125 7.136719 C 4.167969 7.210938 4.300781 7.195312 4.375 7.105469 M 5.605469 7.132812 L 7.125 5.230469 C 7.195312 5.140625 7.179688 5.007812 7.089844 4.9375 C 7 4.863281 6.867188 4.878906 6.796875 4.96875 L 5.277344 6.871094 C 5.203125 6.964844 5.21875 7.09375 5.308594 7.167969 C 5.398438 7.238281 5.53125 7.226562 5.605469 7.132812 Z M 6.367188 0 C 6.367188 0 7.089844 0.804688 6.292969 1.621094 C 5.324219 2.605469 6.480469 3.445312 6.480469 3.445312 C 6.480469 3.445312 6.21875 2.679688 6.871094 2.027344 C 7.46875 1.433594 7.539062 0.671875 6.367188 0 Z M 5.773438 1.65625 C 5.773438 1.65625 4.746094 2.160156 4.972656 2.90625 C 5.15625 3.511719 5.828125 3.519531 5.605469 4.136719 C 5.585938 4.1875 6.351562 3.800781 5.699219 2.941406 C 5.273438 2.382812 5.773438 1.65625 5.773438 1.65625 Z M 5.773438 1.65625 "/>
</g>
</svg>
