<?xml version="1.0" encoding="UTF-8" standalone="no"?>
<!-- Created with Inkscape (http://www.inkscape.org/) -->

<svg
   xmlns:dc="http://purl.org/dc/elements/1.1/"
   xmlns:cc="http://creativecommons.org/ns#"
   xmlns:rdf="http://www.w3.org/1999/02/22-rdf-syntax-ns#"
   xmlns:svg="http://www.w3.org/2000/svg"
   xmlns="http://www.w3.org/2000/svg"
   xmlns:xlink="http://www.w3.org/1999/xlink"
   xmlns:sodipodi="http://sodipodi.sourceforge.net/DTD/sodipodi-0.dtd"
   xmlns:inkscape="http://www.inkscape.org/namespaces/inkscape"
   width="30px"
   height="30px"
   version="1.1"
   id="svg8"
   inkscape:version="0.92.4 5da689c313, 2019-01-14"
   sodipodi:docname="container.svg">
  <defs
     id="defs2" />
  <sodipodi:namedview
     id="base"
     pagecolor="#ffffff"
     bordercolor="#666666"
     borderopacity="1.0"
     inkscape:pageopacity="0.0"
     inkscape:pageshadow="2"
     inkscape:zoom="13.049334"
     inkscape:cx="18.679046"
     inkscape:cy="12.165829"
     inkscape:document-units="px"
     inkscape:current-layer="layer1"
     showgrid="false"
     inkscape:snap-page="false"
     units="px"
     inkscape:window-width="1884"
     inkscape:window-height="1061"
     inkscape:window-x="0"
     inkscape:window-y="0"
     inkscape:window-maximized="1"
     fit-margin-top="0"
     fit-margin-left="0"
     fit-margin-right="0"
     fit-margin-bottom="0" />
  <metadata
     id="metadata5">
    <rdf:RDF>
      <cc:Work
         rdf:about="">
        <dc:format>image/svg+xml</dc:format>
        <dc:type
           rdf:resource="http://purl.org/dc/dcmitype/StillImage" />
        <dc:title></dc:title>
      </cc:Work>
    </rdf:RDF>
  </metadata>
    <circle
       style="color:#000000;clip-rule:nonzero;display:inline;overflow:visible;visibility:visible;opacity:1;isolation:auto;mix-blend-mode:normal;color-interpolation:sRGB;color-interpolation-filters:linearRGB;solid-color:#000000;solid-opacity:1;vector-effect:none;fill:#00a757;fill-opacity:1;fill-rule:evenodd;stroke:#ffffff;stroke-width:1;stroke-linecap:butt;stroke-linejoin:miter;stroke-miterlimit:4;stroke-dasharray:none;stroke-dashoffset:0;stroke-opacity:1;marker:none;color-rendering:auto;image-rendering:auto;shape-rendering:auto;text-rendering:auto;enable-background:accumulate"
       id="path815"
       cx="15"
       cy="15"
       r="14.5" />
<g transform="translate(9.0,6.5)"><path fill-rule="nonzero" fill="#FFFFFF" fill-opacity="1" d="M 2.121094 5.539062 C 2.140625 4.960938 1.683594 4.453125 1.097656 4.398438 C 0.511719 4.34375 0.0195312 4.769531 0 5.347656 C -0.0195312 5.921875 0.441406 6.433594 1.027344 6.484375 C 1.613281 6.539062 2.101562 6.113281 2.121094 5.539062 Z M 2.121094 5.539062 "/>
<path fill-rule="nonzero" fill="#FFFFFF" fill-opacity="1" d="M 7.632812 0 C 7.574219 0 7.472656 0.144531 7.355469 0.355469 C 7.355469 0.371094 7.359375 0.390625 7.363281 0.40625 C 7.378906 0.453125 7.40625 0.496094 7.441406 0.527344 C 7.453125 0.542969 7.449219 0.5625 7.4375 0.570312 C 7.371094 0.632812 7.292969 0.683594 7.230469 0.75 C 7.164062 0.816406 7.113281 0.902344 7.089844 0.992188 C 7.0625 1.089844 7.09375 1.207031 7.039062 1.296875 C 7.015625 1.328125 6.988281 1.355469 6.96875 1.386719 C 6.949219 1.425781 6.964844 1.457031 6.984375 1.488281 C 6.996094 1.5 6.996094 1.519531 6.980469 1.53125 C 6.9375 1.570312 6.898438 1.617188 6.867188 1.664062 C 6.828125 1.714844 6.796875 1.769531 6.773438 1.828125 C 6.761719 1.855469 6.753906 1.886719 6.75 1.914062 C 6.742188 1.9375 6.734375 1.960938 6.730469 1.984375 C 6.722656 2.03125 6.71875 2.078125 6.710938 2.125 C 6.6875 2.230469 6.59375 2.273438 6.523438 2.328125 C 6.511719 2.335938 6.5 2.347656 6.488281 2.359375 C 6.460938 2.433594 6.429688 2.507812 6.402344 2.582031 C 6.402344 2.609375 6.40625 2.636719 6.410156 2.660156 C 6.421875 2.730469 6.433594 2.796875 6.429688 2.867188 C 6.425781 2.925781 6.417969 2.984375 6.398438 3.042969 C 6.359375 3.152344 6.296875 3.25 6.234375 3.34375 C 6.171875 3.441406 6.105469 3.539062 6.058594 3.652344 C 6.035156 3.707031 6.015625 3.765625 6.003906 3.824219 C 5.996094 3.875 5.996094 3.921875 6.007812 3.972656 C 6.023438 4.042969 6.050781 4.113281 6.066406 4.1875 C 6.078125 4.246094 6.078125 4.308594 6.070312 4.367188 C 6.058594 4.417969 6.046875 4.46875 6.03125 4.519531 C 6.03125 4.53125 6.027344 4.539062 6.023438 4.546875 C 6.054688 4.550781 6.148438 4.78125 6.121094 4.945312 C 6.09375 5.109375 5.929688 5.144531 5.902344 5.308594 C 5.847656 5.640625 5.902344 6.070312 5.929688 6.367188 C 5.933594 6.378906 5.933594 6.390625 5.933594 6.398438 C 5.621094 6.742188 5.128906 7.28125 4.8125 7.597656 C 4.804688 7.605469 4.792969 7.605469 4.78125 7.601562 C 4.769531 7.597656 4.765625 7.585938 4.765625 7.574219 C 4.785156 7.382812 4.800781 7.191406 4.816406 7 C 4.820312 6.992188 4.824219 6.984375 4.828125 6.980469 C 4.894531 6.925781 4.957031 6.863281 5.007812 6.792969 C 5.011719 6.789062 5.015625 6.785156 5.015625 6.777344 L 5.21875 3.902344 C 5.21875 3.898438 5.21875 3.898438 5.222656 3.894531 C 5.628906 2.613281 6.328125 0.386719 6.425781 0.0625 C 6.429688 0.0507812 6.429688 0.0429688 6.421875 0.0351562 C 6.417969 0.0273438 6.410156 0.0234375 6.398438 0.0234375 L 6.386719 0.0234375 C 6.371094 0.0234375 6.363281 0.03125 6.359375 0.0429688 C 6.257812 0.375 5.648438 2.304688 5.230469 3.597656 C 5.226562 3.605469 5.21875 3.613281 5.207031 3.613281 C 5.195312 3.617188 5.183594 3.609375 5.179688 3.601562 C 5.164062 3.574219 5.148438 3.546875 5.125 3.527344 C 5.117188 3.519531 5.113281 3.511719 5.113281 3.5 C 5.386719 1.777344 5.625 0.269531 5.664062 0.03125 C 5.667969 0.015625 5.65625 0.00390625 5.640625 0 C 5.625 -0.00390625 5.613281 0.0078125 5.609375 0.0234375 C 5.570312 0.246094 5.328125 1.738281 5.054688 3.453125 C 5.050781 3.46875 5.035156 3.480469 5.019531 3.476562 C 5.003906 3.476562 4.988281 3.476562 4.976562 3.476562 C 4.8125 3.503906 4.582031 3.652344 4.566406 3.832031 C 4.566406 3.832031 4.054688 5.894531 4.03125 6.527344 C 4.03125 6.535156 4.027344 6.539062 4.019531 6.546875 C 4.015625 6.550781 4.007812 6.554688 4 6.550781 C 3.699219 6.515625 2.832031 6.472656 2.578125 6.53125 L 1.386719 6.914062 C 0.957031 7.015625 0.765625 7.464844 0.867188 7.78125 C 0.867188 7.78125 0.867188 7.785156 0.867188 7.785156 L 2.375 11.03125 C 2.839844 12.3125 4.222656 12.945312 5.074219 13.421875 C 5.082031 13.425781 5.089844 13.4375 5.089844 13.445312 C 5.085938 13.457031 5.085938 13.464844 5.085938 13.472656 C 5.085938 13.476562 5.085938 13.476562 5.085938 13.480469 L 5.648438 16.625 C 5.660156 16.824219 5.960938 16.980469 6.171875 17 C 6.386719 17.015625 6.535156 16.875 6.523438 16.675781 L 6.3125 13.375 C 6.308594 13.34375 6.300781 13.003906 6.210938 12.929688 L 4.78125 11.75 C 4.773438 11.742188 4.769531 11.734375 4.769531 11.726562 C 4.773438 11.714844 4.777344 11.707031 4.785156 11.703125 C 5.253906 11.453125 5.792969 11.132812 6.15625 10.847656 C 6.167969 10.839844 6.1875 10.839844 6.195312 10.851562 L 7.859375 12.765625 C 7.976562 12.929688 8.316406 12.917969 8.511719 12.832031 C 8.703125 12.742188 8.761719 12.546875 8.644531 12.382812 L 6.75 9.644531 C 6.636719 9.480469 6.332031 9.445312 6.074219 9.570312 C 6.039062 9.585938 6.003906 9.609375 5.972656 9.636719 C 5.972656 9.636719 5.972656 9.640625 5.96875 9.640625 L 5.15625 10.101562 C 5.089844 9.882812 5.023438 9.660156 4.957031 9.441406 C 4.984375 9.433594 5.011719 9.429688 5.042969 9.425781 C 5.082031 9.417969 5.09375 9.375 5.089844 9.34375 C 5.078125 9.253906 5.054688 9.160156 5.003906 9.082031 C 4.957031 9.011719 4.886719 8.964844 4.8125 8.925781 C 4.804688 8.898438 4.800781 8.871094 4.792969 8.84375 C 4.78125 8.804688 4.773438 8.765625 4.761719 8.726562 C 4.824219 8.710938 4.875 8.664062 4.902344 8.605469 C 4.902344 8.605469 4.902344 8.601562 4.902344 8.601562 L 6.160156 7.109375 C 6.183594 7.160156 6.207031 7.222656 6.230469 7.292969 C 6.285156 7.394531 6.203125 7.558594 6.257812 7.722656 C 6.3125 7.890625 6.503906 7.957031 6.585938 8.1875 C 6.632812 8.375 6.601562 8.5625 6.617188 8.742188 L 6.621094 8.742188 C 6.625 8.742188 6.628906 8.746094 6.632812 8.75 C 6.644531 8.757812 6.652344 8.761719 6.664062 8.769531 C 6.667969 8.761719 6.679688 8.757812 6.6875 8.761719 C 6.695312 8.765625 6.703125 8.773438 6.703125 8.785156 C 6.738281 8.816406 6.777344 8.84375 6.816406 8.867188 C 6.851562 8.894531 6.886719 8.925781 6.914062 8.964844 C 6.957031 9.027344 6.984375 9.125 7.050781 9.160156 C 7.128906 9.203125 7.21875 9.175781 7.300781 9.167969 C 7.359375 9.164062 7.445312 9.34375 7.453125 9.378906 C 7.496094 9.390625 7.535156 9.40625 7.574219 9.421875 C 7.605469 9.40625 7.632812 9.382812 7.667969 9.390625 C 7.742188 9.402344 7.8125 9.429688 7.878906 9.464844 C 7.925781 9.492188 7.964844 9.527344 8 9.566406 C 8.003906 9.5625 8.011719 9.5625 8.015625 9.566406 C 8.023438 9.566406 8.023438 9.574219 8.027344 9.578125 C 8.03125 9.589844 8.035156 9.605469 8.039062 9.617188 C 8.089844 9.804688 8.1875 9.980469 8.15625 10.183594 C 8.160156 10.183594 8.160156 10.183594 8.160156 10.183594 C 8.207031 10.203125 8.246094 10.246094 8.261719 10.296875 C 8.273438 10.320312 8.277344 10.34375 8.277344 10.371094 C 8.273438 10.394531 8.265625 10.421875 8.257812 10.445312 C 8.246094 10.472656 8.246094 10.503906 8.253906 10.53125 C 8.257812 10.554688 8.269531 10.574219 8.285156 10.59375 C 8.316406 10.628906 8.351562 10.65625 8.378906 10.691406 C 8.414062 10.734375 8.425781 10.78125 8.441406 10.835938 C 8.445312 10.863281 8.453125 10.886719 8.46875 10.90625 C 8.484375 10.925781 8.507812 10.921875 8.527344 10.917969 C 8.570312 10.914062 8.621094 10.902344 8.65625 10.945312 C 8.667969 10.964844 8.679688 10.988281 8.683594 11.011719 C 8.683594 11.035156 8.6875 11.050781 8.703125 11.066406 C 8.796875 11.160156 8.90625 11.230469 9 11.320312 C 9.101562 11.410156 9.1875 11.519531 9.25 11.636719 C 9.265625 11.664062 9.28125 11.691406 9.292969 11.722656 C 9.359375 11.835938 9.402344 11.957031 9.421875 12.089844 C 9.441406 12.144531 9.457031 12.199219 9.476562 12.25 C 9.480469 12.230469 9.445312 12.449219 9.441406 12.523438 C 9.453125 12.515625 9.5 12.769531 9.457031 12.867188 C 9.441406 12.898438 9.421875 12.929688 9.398438 12.957031 C 9.394531 13.007812 9.386719 13.0625 9.382812 13.117188 C 9.398438 13.136719 9.410156 13.15625 9.421875 13.175781 C 9.441406 13.21875 9.453125 13.265625 9.457031 13.316406 C 9.460938 13.371094 9.460938 13.421875 9.464844 13.476562 C 9.46875 13.523438 9.46875 13.570312 9.484375 13.613281 C 9.503906 13.648438 9.53125 13.675781 9.550781 13.707031 C 9.585938 13.761719 9.605469 13.828125 9.605469 13.890625 C 9.605469 13.964844 9.59375 14.039062 9.601562 14.113281 C 9.609375 14.175781 9.628906 14.234375 9.664062 14.289062 C 9.691406 14.332031 9.714844 14.378906 9.734375 14.429688 C 9.757812 14.496094 9.757812 14.570312 9.769531 14.644531 C 9.785156 14.765625 9.800781 14.882812 9.816406 15.003906 C 9.820312 15.023438 9.859375 15.132812 9.851562 15.152344 C 9.957031 15.640625 10.078125 16.015625 10.105469 16.542969 L 12.097656 16.542969 L 12.101562 0 C 12.101562 0 9.175781 0 7.632812 0 Z M 3.605469 7.382812 L 4.421875 7.128906 C 4.429688 7.125 4.441406 7.128906 4.449219 7.132812 C 4.457031 7.140625 4.457031 7.148438 4.457031 7.160156 C 4.425781 7.355469 4.394531 7.542969 4.367188 7.71875 C 4.367188 7.726562 4.359375 7.734375 4.351562 7.738281 C 4.34375 7.742188 4.335938 7.742188 4.328125 7.738281 C 4.148438 7.648438 3.886719 7.535156 3.746094 7.46875 C 3.738281 7.464844 3.660156 7.433594 3.589844 7.40625 C 3.589844 7.394531 3.597656 7.386719 3.605469 7.382812 Z M 4.417969 9.046875 C 4.398438 8.964844 4.363281 8.890625 4.316406 8.824219 C 4.328125 8.8125 4.300781 8.832031 4.261719 8.859375 C 4.269531 8.8125 4.277344 8.757812 4.285156 8.703125 C 4.289062 8.6875 4.304688 8.675781 4.316406 8.679688 C 4.414062 8.691406 4.488281 8.703125 4.507812 8.703125 C 4.480469 8.804688 4.449219 8.921875 4.417969 9.046875 Z M 4.554688 8.714844 C 4.605469 8.730469 4.65625 8.734375 4.707031 8.734375 C 4.71875 8.796875 4.734375 8.859375 4.753906 8.917969 C 4.742188 8.921875 4.734375 8.925781 4.726562 8.933594 C 4.632812 9.042969 4.535156 9.144531 4.445312 9.253906 C 4.441406 9.230469 4.441406 9.207031 4.4375 9.183594 C 4.480469 9.011719 4.523438 8.851562 4.554688 8.714844 Z M 4.226562 9.761719 L 3.921875 8.636719 C 3.980469 8.640625 4.042969 8.644531 4.046875 8.644531 C 4.09375 8.648438 4.140625 8.65625 4.1875 8.660156 C 4.195312 8.664062 4.203125 8.667969 4.207031 8.671875 C 4.210938 8.679688 4.210938 8.6875 4.210938 8.695312 C 4.195312 8.78125 4.183594 8.855469 4.175781 8.917969 C 4.144531 8.941406 4.113281 8.960938 4.101562 8.972656 C 4.097656 8.976562 4.09375 8.980469 4.089844 8.984375 C 4.066406 9.0625 4.089844 9.199219 4.121094 9.277344 C 4.125 9.285156 4.128906 9.292969 4.140625 9.292969 C 4.207031 9.308594 4.277344 9.3125 4.347656 9.308594 C 4.339844 9.339844 4.332031 9.375 4.320312 9.40625 C 4.285156 9.457031 4.25 9.503906 4.214844 9.554688 C 4.199219 9.578125 4.203125 9.609375 4.222656 9.628906 C 4.230469 9.640625 4.242188 9.652344 4.257812 9.65625 C 4.246094 9.691406 4.238281 9.726562 4.226562 9.761719 Z M 5.0625 9.992188 C 5.078125 10.039062 5.09375 10.085938 5.105469 10.128906 L 4.464844 10.496094 C 4.457031 10.5 4.445312 10.5 4.4375 10.5 C 4.429688 10.496094 4.425781 10.488281 4.421875 10.480469 C 4.414062 10.441406 4.40625 10.40625 4.394531 10.371094 L 4.265625 9.894531 C 4.285156 9.8125 4.304688 9.726562 4.324219 9.640625 C 4.515625 9.574219 4.707031 9.5 4.902344 9.453125 C 4.957031 9.632812 5.007812 9.8125 5.0625 9.992188 Z M 4.886719 9.148438 C 4.917969 9.195312 4.9375 9.25 4.945312 9.308594 C 4.9375 9.308594 4.929688 9.3125 4.921875 9.3125 C 4.902344 9.25 4.886719 9.1875 4.867188 9.125 C 4.875 9.132812 4.878906 9.140625 4.886719 9.148438 Z M 4.789062 9.066406 C 4.789062 9.066406 4.792969 9.066406 4.792969 9.066406 C 4.796875 9.085938 4.800781 9.101562 4.808594 9.117188 C 4.824219 9.1875 4.84375 9.257812 4.863281 9.324219 C 4.726562 9.359375 4.589844 9.402344 4.457031 9.453125 C 4.5625 9.320312 4.675781 9.191406 4.789062 9.066406 Z M 4.695312 7.699219 C 4.695312 7.707031 4.691406 7.714844 4.6875 7.71875 C 4.617188 7.78125 4.566406 7.828125 4.535156 7.84375 C 4.523438 7.851562 4.511719 7.851562 4.5 7.839844 C 4.484375 7.828125 4.46875 7.816406 4.449219 7.804688 C 4.4375 7.796875 4.433594 7.785156 4.4375 7.777344 C 4.46875 7.566406 4.503906 7.34375 4.542969 7.105469 C 4.542969 7.097656 4.550781 7.085938 4.5625 7.082031 L 4.746094 7.027344 C 4.75 7.023438 4.757812 7.023438 4.761719 7.019531 C 4.742188 7.246094 4.71875 7.472656 4.695312 7.699219 Z M 4.695312 7.699219 "/>
</g>
</svg>
