<?xml version="1.0" encoding="UTF-8"?>
<svg xmlns="http://www.w3.org/2000/svg" xmlns:xlink="http://www.w3.org/1999/xlink" width="8.315082" height="11" viewBox="0 0 8.315082 11">
<path fill-rule="nonzero" fill="rgb(30%,30%,30%)" fill-opacity="1" d="M 4.113281 8.996094 C 4.117188 9.042969 4.085938 9.082031 4.042969 9.089844 L 3.933594 9.101562 C 3.886719 9.109375 3.855469 9.148438 3.863281 9.191406 L 3.914062 9.601562 C 3.921875 9.648438 3.890625 9.6875 3.84375 9.691406 L 3.605469 9.722656 C 3.558594 9.730469 3.527344 9.769531 3.53125 9.8125 L 3.582031 10.207031 C 3.589844 10.253906 3.558594 10.292969 3.511719 10.296875 L 3.050781 10.355469 C 3.007812 10.363281 2.976562 10.402344 2.980469 10.449219 L 3.03125 10.828125 C 3.035156 10.871094 3.003906 10.910156 2.960938 10.917969 L 2.304688 11 C 2.261719 11.003906 2.222656 10.972656 2.214844 10.929688 L 2.167969 10.550781 C 2.160156 10.503906 2.121094 10.472656 2.074219 10.480469 L 1.578125 10.542969 C 1.535156 10.546875 1.492188 10.515625 1.488281 10.472656 L 1.4375 10.078125 C 1.433594 10.03125 1.390625 10 1.347656 10.007812 L 1.105469 10.035156 C 1.0625 10.042969 1.019531 10.011719 1.015625 9.964844 L 0.960938 9.558594 C 0.957031 9.511719 0.917969 9.480469 0.871094 9.488281 L 0.761719 9.5 C 0.71875 9.507812 0.675781 9.476562 0.671875 9.429688 L 0.613281 8.984375 C 0.609375 8.9375 0.640625 8.898438 0.683594 8.890625 L 1.855469 8.746094 C 1.898438 8.738281 1.929688 8.699219 1.925781 8.652344 L 1.410156 4.625 C 1.402344 4.582031 1.363281 4.550781 1.320312 4.554688 L 0.148438 4.703125 C 0.105469 4.707031 0.0625 4.675781 0.0585938 4.632812 L 0 4.183594 C -0.00390625 4.140625 0.0273438 4.097656 0.0703125 4.09375 L 0.179688 4.078125 C 0.226562 4.074219 0.257812 4.035156 0.25 3.988281 L 0.199219 3.578125 C 0.191406 3.535156 0.226562 3.496094 0.269531 3.488281 L 0.511719 3.457031 C 0.554688 3.453125 0.585938 3.414062 0.582031 3.367188 L 0.53125 2.972656 C 0.523438 2.929688 0.554688 2.890625 0.601562 2.882812 L 1.097656 2.820312 C 1.140625 2.816406 1.171875 2.773438 1.167969 2.730469 L 1.117188 2.351562 C 1.113281 2.304688 1.144531 2.265625 1.1875 2.261719 L 1.84375 2.179688 C 1.886719 2.171875 1.929688 2.203125 1.933594 2.25 L 1.984375 2.628906 C 1.988281 2.671875 2.03125 2.703125 2.074219 2.699219 L 2.535156 2.640625 C 2.578125 2.636719 2.621094 2.667969 2.625 2.710938 L 2.675781 3.105469 C 2.679688 3.148438 2.722656 3.179688 2.765625 3.175781 L 3.007812 3.144531 C 3.050781 3.140625 3.09375 3.171875 3.097656 3.214844 L 3.152344 3.625 C 3.15625 3.667969 3.195312 3.699219 3.242188 3.695312 L 3.351562 3.679688 C 3.394531 3.675781 3.4375 3.707031 3.441406 3.75 L 3.5 4.199219 C 3.503906 4.242188 3.472656 4.285156 3.429688 4.289062 L 2.296875 4.433594 C 2.25 4.4375 2.21875 4.480469 2.226562 4.523438 L 2.738281 8.550781 C 2.746094 8.597656 2.785156 8.628906 2.832031 8.621094 L 3.964844 8.480469 C 4.007812 8.472656 4.050781 8.503906 4.054688 8.550781 Z M 8.105469 2.691406 C 8.152344 2.699219 8.195312 2.671875 8.207031 2.628906 L 8.3125 2.191406 C 8.324219 2.148438 8.296875 2.105469 8.253906 2.09375 L 8.144531 2.066406 C 8.101562 2.058594 8.074219 2.011719 8.085938 1.96875 L 8.183594 1.570312 C 8.195312 1.527344 8.167969 1.480469 8.125 1.472656 L 7.886719 1.414062 C 7.84375 1.402344 7.816406 1.359375 7.828125 1.316406 L 7.921875 0.929688 C 7.933594 0.886719 7.90625 0.84375 7.863281 0.832031 L 7.414062 0.722656 C 7.367188 0.714844 7.34375 0.667969 7.351562 0.625 L 7.445312 0.253906 C 7.453125 0.210938 7.425781 0.167969 7.382812 0.15625 L 6.742188 0.00390625 C 6.699219 -0.0078125 6.65625 0.0195312 6.644531 0.0625 L 6.554688 0.433594 C 6.542969 0.476562 6.5 0.503906 6.457031 0.492188 L 5.96875 0.375 C 5.925781 0.367188 5.882812 0.394531 5.871094 0.4375 L 5.777344 0.824219 C 5.765625 0.867188 5.722656 0.894531 5.675781 0.882812 L 5.441406 0.824219 C 5.398438 0.816406 5.355469 0.84375 5.34375 0.886719 L 5.246094 1.285156 C 5.234375 1.328125 5.191406 1.355469 5.148438 1.347656 L 5.039062 1.320312 C 4.996094 1.308594 4.953125 1.335938 4.941406 1.378906 L 4.835938 1.820312 C 4.824219 1.863281 4.851562 1.90625 4.894531 1.917969 L 6.039062 2.191406 C 6.082031 2.203125 6.109375 2.246094 6.097656 2.289062 L 5.132812 6.238281 C 5.121094 6.28125 5.078125 6.308594 5.035156 6.296875 L 3.890625 6.019531 C 3.847656 6.011719 3.800781 6.035156 3.789062 6.082031 L 3.683594 6.519531 C 3.671875 6.5625 3.699219 6.605469 3.742188 6.617188 L 3.851562 6.644531 C 3.894531 6.652344 3.921875 6.695312 3.910156 6.742188 L 3.8125 7.140625 C 3.800781 7.183594 3.828125 7.230469 3.871094 7.238281 L 4.109375 7.296875 C 4.152344 7.308594 4.179688 7.351562 4.167969 7.394531 L 4.074219 7.78125 C 4.0625 7.824219 4.089844 7.867188 4.132812 7.878906 L 4.621094 7.996094 C 4.664062 8.007812 4.691406 8.050781 4.679688 8.09375 L 4.589844 8.464844 C 4.578125 8.507812 4.605469 8.550781 4.648438 8.5625 L 5.289062 8.71875 C 5.332031 8.726562 5.375 8.699219 5.386719 8.65625 L 5.476562 8.285156 C 5.488281 8.242188 5.53125 8.214844 5.578125 8.226562 L 6.027344 8.335938 C 6.070312 8.34375 6.113281 8.316406 6.125 8.273438 L 6.21875 7.886719 C 6.230469 7.84375 6.273438 7.816406 6.320312 7.828125 L 6.554688 7.886719 C 6.597656 7.894531 6.640625 7.867188 6.652344 7.824219 L 6.75 7.425781 C 6.761719 7.382812 6.804688 7.355469 6.847656 7.363281 L 6.957031 7.390625 C 7 7.402344 7.042969 7.375 7.054688 7.332031 L 7.164062 6.890625 C 7.171875 6.847656 7.144531 6.804688 7.101562 6.792969 L 5.992188 6.527344 C 5.949219 6.515625 5.921875 6.472656 5.933594 6.429688 L 6.898438 2.484375 C 6.910156 2.4375 6.953125 2.414062 6.996094 2.421875 Z M 8.105469 2.691406 "/>
</svg>
