<?xml version="1.0" encoding="UTF-8" standalone="no"?>
<!-- Created with Inkscape (http://www.inkscape.org/) -->

<svg
   xmlns:dc="http://purl.org/dc/elements/1.1/"
   xmlns:cc="http://creativecommons.org/ns#"
   xmlns:rdf="http://www.w3.org/1999/02/22-rdf-syntax-ns#"
   xmlns:svg="http://www.w3.org/2000/svg"
   xmlns="http://www.w3.org/2000/svg"
   xmlns:xlink="http://www.w3.org/1999/xlink"
   xmlns:sodipodi="http://sodipodi.sourceforge.net/DTD/sodipodi-0.dtd"
   xmlns:inkscape="http://www.inkscape.org/namespaces/inkscape"
   width="30px"
   height="30px"
   version="1.1"
   id="svg8"
   inkscape:version="0.92.4 5da689c313, 2019-01-14"
   sodipodi:docname="container.svg">
  <defs
     id="defs2" />
  <sodipodi:namedview
     id="base"
     pagecolor="#ffffff"
     bordercolor="#666666"
     borderopacity="1.0"
     inkscape:pageopacity="0.0"
     inkscape:pageshadow="2"
     inkscape:zoom="13.049334"
     inkscape:cx="18.679046"
     inkscape:cy="12.165829"
     inkscape:document-units="px"
     inkscape:current-layer="layer1"
     showgrid="false"
     inkscape:snap-page="false"
     units="px"
     inkscape:window-width="1884"
     inkscape:window-height="1061"
     inkscape:window-x="0"
     inkscape:window-y="0"
     inkscape:window-maximized="1"
     fit-margin-top="0"
     fit-margin-left="0"
     fit-margin-right="0"
     fit-margin-bottom="0" />
  <metadata
     id="metadata5">
    <rdf:RDF>
      <cc:Work
         rdf:about="">
        <dc:format>image/svg+xml</dc:format>
        <dc:type
           rdf:resource="http://purl.org/dc/dcmitype/StillImage" />
        <dc:title></dc:title>
      </cc:Work>
    </rdf:RDF>
  </metadata>
    <circle
       style="color:#000000;clip-rule:nonzero;display:inline;overflow:visible;visibility:visible;opacity:1;isolation:auto;mix-blend-mode:normal;color-interpolation:sRGB;color-interpolation-filters:linearRGB;solid-color:#000000;solid-opacity:1;vector-effect:none;fill:#00a757;fill-opacity:1;fill-rule:evenodd;stroke:#ffffff;stroke-width:1;stroke-linecap:butt;stroke-linejoin:miter;stroke-miterlimit:4;stroke-dasharray:none;stroke-dashoffset:0;stroke-opacity:1;marker:none;color-rendering:auto;image-rendering:auto;shape-rendering:auto;text-rendering:auto;enable-background:accumulate"
       id="path815"
       cx="15"
       cy="15"
       r="14.5" />
<g transform="translate(11.5,6.5)"><path fill-rule="nonzero" fill="#FFFFFF" fill-opacity="1" d="M 3.226562 6.277344 C 3.222656 6.804688 2.796875 7.226562 2.273438 7.226562 C 1.746094 7.226562 1.320312 6.800781 1.320312 6.277344 C 1.320312 5.75 1.746094 5.324219 2.269531 5.324219 C 2.796875 5.324219 3.226562 5.75 3.226562 6.277344 "/>
<path fill-rule="nonzero" fill="#FFFFFF" fill-opacity="1" d="M 5.570312 0 C 4.414062 0 4.023438 3.230469 3.96875 7.410156 L 0.976562 7.4375 C 0.183594 7.578125 0.0351562 8.289062 0.0078125 8.511719 C 0.00390625 8.53125 0 8.550781 0 8.570312 L 0 11.863281 C 0 12.078125 0.175781 12.253906 0.394531 12.253906 C 0.609375 12.253906 0.785156 12.078125 0.785156 11.863281 L 0.785156 8.78125 L 1.03125 8.78125 C 1.03125 8.789062 1.027344 8.800781 1.027344 8.808594 L 1.027344 16.421875 C 1.03125 16.742188 1.289062 17 1.609375 17 C 1.925781 17 2.1875 16.742188 2.1875 16.421875 L 2.1875 12.140625 C 2.230469 12.148438 2.273438 12.152344 2.316406 12.152344 L 2.421875 12.152344 L 2.421875 16.421875 C 2.421875 16.742188 2.679688 17 3 17 C 3.320312 17 3.578125 16.742188 3.578125 16.421875 L 3.578125 8.335938 L 3.960938 8.335938 L 3.960938 8.5 C 3.960938 13.195312 4.683594 17 5.570312 17 C 6.460938 17 7.179688 13.195312 7.179688 8.5 C 7.179688 3.808594 6.886719 0 5.570312 0 "/>
</g>
</svg>
