<?xml version="1.0" encoding="UTF-8"?>
<svg xmlns="http://www.w3.org/2000/svg" xmlns:xlink="http://www.w3.org/1999/xlink" width="10.323439" height="11" viewBox="0 0 10.323439 11">
<path fill-rule="nonzero" fill="rgb(30%,30%,30%)" fill-opacity="1" d="M 6.992188 3.285156 C 6.902344 3.039062 6.628906 2.914062 6.378906 3.003906 L 5.511719 3.316406 L 4.304688 2.261719 C 4.195312 2.164062 4.050781 2.121094 3.90625 2.140625 C 3.90625 2.140625 3.902344 2.140625 3.902344 2.140625 C 3.785156 2.128906 3.667969 2.152344 3.566406 2.203125 L 1.859375 2.628906 C 1.695312 2.667969 1.5625 2.789062 1.507812 2.949219 C 1.496094 2.972656 1.488281 3 1.480469 3.027344 L 1.164062 4.242188 C 1.097656 4.496094 1.25 4.753906 1.503906 4.820312 C 1.503906 4.820312 1.503906 4.820312 1.507812 4.820312 C 1.546875 4.828125 1.585938 4.835938 1.625 4.835938 C 1.84375 4.835938 2.035156 4.6875 2.089844 4.480469 L 2.335938 3.53125 L 3.167969 3.324219 L 2.964844 5.570312 C 2.960938 5.625 2.964844 5.679688 2.972656 5.734375 C 2.960938 5.761719 2.949219 5.789062 2.941406 5.8125 L 2.433594 7.332031 L 0.871094 7.75 C 0.609375 7.824219 0.453125 8.097656 0.523438 8.363281 C 0.597656 8.625 0.871094 8.78125 1.132812 8.710938 L 2.945312 8.222656 C 2.964844 8.21875 2.984375 8.214844 3 8.207031 C 3.003906 8.207031 3.003906 8.207031 3.003906 8.203125 C 3.011719 8.203125 3.015625 8.199219 3.019531 8.199219 C 3.023438 8.195312 3.027344 8.195312 3.027344 8.195312 C 3.03125 8.191406 3.039062 8.191406 3.042969 8.1875 C 3.046875 8.1875 3.054688 8.183594 3.058594 8.179688 C 3.0625 8.179688 3.0625 8.179688 3.066406 8.175781 C 3.070312 8.175781 3.074219 8.171875 3.078125 8.167969 C 3.078125 8.167969 3.082031 8.167969 3.082031 8.167969 C 3.085938 8.164062 3.09375 8.160156 3.097656 8.160156 C 3.097656 8.15625 3.097656 8.15625 3.101562 8.15625 C 3.109375 8.148438 3.117188 8.144531 3.125 8.140625 C 3.125 8.136719 3.128906 8.136719 3.128906 8.136719 C 3.132812 8.132812 3.136719 8.128906 3.136719 8.128906 C 3.140625 8.125 3.144531 8.125 3.148438 8.121094 C 3.148438 8.117188 3.152344 8.117188 3.152344 8.113281 C 3.15625 8.113281 3.160156 8.109375 3.164062 8.105469 C 3.167969 8.101562 3.167969 8.101562 3.167969 8.101562 C 3.210938 8.0625 3.242188 8.019531 3.269531 7.96875 C 3.269531 7.96875 3.269531 7.96875 3.269531 7.964844 C 3.273438 7.960938 3.273438 7.957031 3.277344 7.949219 C 3.277344 7.949219 3.28125 7.945312 3.28125 7.941406 C 3.28125 7.9375 3.285156 7.933594 3.285156 7.929688 C 3.289062 7.925781 3.289062 7.925781 3.289062 7.921875 C 3.292969 7.917969 3.292969 7.914062 3.292969 7.914062 C 3.292969 7.910156 3.296875 7.902344 3.296875 7.898438 L 3.746094 6.5625 L 4.476562 7.128906 L 4.289062 8.925781 C 4.257812 9.199219 4.457031 9.441406 4.730469 9.472656 C 4.730469 9.472656 4.734375 9.472656 4.734375 9.472656 C 4.75 9.472656 4.769531 9.472656 4.785156 9.472656 C 5.042969 9.472656 5.253906 9.28125 5.285156 9.027344 L 5.503906 6.957031 C 5.503906 6.953125 5.503906 6.949219 5.503906 6.945312 C 5.503906 6.941406 5.503906 6.941406 5.503906 6.9375 C 5.503906 6.929688 5.503906 6.925781 5.503906 6.917969 C 5.503906 6.917969 5.503906 6.914062 5.503906 6.914062 C 5.503906 6.90625 5.503906 6.898438 5.503906 6.894531 C 5.503906 6.894531 5.503906 6.890625 5.503906 6.890625 C 5.503906 6.882812 5.503906 6.875 5.503906 6.867188 C 5.5 6.828125 5.492188 6.789062 5.480469 6.753906 C 5.480469 6.75 5.480469 6.75 5.480469 6.75 C 5.476562 6.742188 5.476562 6.738281 5.472656 6.730469 C 5.472656 6.730469 5.472656 6.726562 5.472656 6.726562 C 5.46875 6.71875 5.46875 6.714844 5.464844 6.710938 C 5.464844 6.707031 5.460938 6.703125 5.460938 6.699219 C 5.460938 6.695312 5.457031 6.691406 5.457031 6.6875 C 5.453125 6.683594 5.453125 6.679688 5.449219 6.675781 C 5.449219 6.675781 5.445312 6.671875 5.445312 6.667969 C 5.441406 6.664062 5.441406 6.660156 5.4375 6.652344 C 5.4375 6.652344 5.433594 6.652344 5.433594 6.648438 C 5.429688 6.644531 5.425781 6.636719 5.421875 6.632812 C 5.421875 6.632812 5.421875 6.628906 5.421875 6.628906 C 5.417969 6.625 5.414062 6.617188 5.410156 6.613281 C 5.410156 6.613281 5.410156 6.609375 5.40625 6.609375 C 5.402344 6.605469 5.398438 6.597656 5.394531 6.59375 C 5.394531 6.59375 5.394531 6.59375 5.394531 6.589844 C 5.390625 6.585938 5.382812 6.582031 5.378906 6.578125 C 5.378906 6.574219 5.378906 6.574219 5.375 6.570312 C 5.371094 6.566406 5.367188 6.5625 5.363281 6.558594 C 5.363281 6.558594 5.359375 6.554688 5.359375 6.554688 C 5.355469 6.550781 5.351562 6.546875 5.347656 6.542969 C 5.34375 6.539062 5.339844 6.539062 5.339844 6.535156 C 5.335938 6.53125 5.332031 6.53125 5.332031 6.527344 C 5.324219 6.523438 5.320312 6.519531 5.316406 6.515625 C 5.316406 6.515625 5.316406 6.515625 5.3125 6.511719 L 4.210938 5.660156 L 4.390625 3.660156 L 5 4.195312 C 5.128906 4.339844 5.335938 4.390625 5.519531 4.324219 L 6.707031 3.894531 C 6.953125 3.808594 7.082031 3.535156 6.996094 3.289062 C 6.996094 3.289062 6.992188 3.289062 6.992188 3.285156 Z M 6.992188 3.285156 "/>
<path fill-rule="nonzero" fill="rgb(30%,30%,30%)" fill-opacity="1" d="M 4.996094 0.882812 C 4.996094 1.371094 4.597656 1.765625 4.105469 1.765625 C 3.617188 1.765625 3.214844 1.371094 3.214844 0.882812 C 3.214844 0.394531 3.617188 0 4.105469 0 C 4.597656 0 4.996094 0.394531 4.996094 0.882812 Z M 4.996094 0.882812 "/>
<path fill-rule="nonzero" fill="rgb(30%,30%,30%)" fill-opacity="1" d="M 10.304688 10.242188 C 10.300781 10.203125 10.292969 10.160156 10.28125 10.121094 L 8.765625 4.636719 C 8.75 4.589844 8.730469 4.546875 8.703125 4.507812 L 9.25 3.539062 C 9.335938 3.382812 9.28125 3.183594 9.128906 3.097656 C 9.125 3.097656 9.125 3.097656 9.125 3.09375 C 8.964844 3.007812 8.765625 3.0625 8.675781 3.222656 L 7.960938 4.492188 L 6.921875 4.492188 C 6.761719 4.492188 6.628906 4.621094 6.628906 4.78125 C 6.625 4.941406 6.757812 5.074219 6.917969 5.078125 C 6.917969 5.078125 6.921875 5.078125 6.921875 5.078125 L 8.097656 5.078125 L 9.402344 9.785156 L 0.613281 9.785156 C 0.277344 9.78125 0 10.054688 0 10.390625 C 0 10.726562 0.273438 11 0.613281 11 L 9.710938 11 C 10.050781 11 10.324219 10.726562 10.324219 10.390625 C 10.324219 10.34375 10.316406 10.292969 10.304688 10.242188 Z M 10.304688 10.242188 "/>
</svg>
