<?xml version="1.0" encoding="UTF-8"?>
<svg xmlns="http://www.w3.org/2000/svg" xmlns:xlink="http://www.w3.org/1999/xlink" width="11" height="8.744687" viewBox="0 0 11 8.744687">
<path fill-rule="nonzero" fill="rgb(30%,30%,30%)" fill-opacity="1" d="M 0.824219 3.125 C 1.449219 2.832031 2.753906 2.625 2.816406 2.765625 C 2.816406 2.765625 2.921875 2.054688 2.929688 1.949219 C 2.394531 2.027344 1.886719 2.226562 1.445312 2.535156 C 1.019531 2.84375 0.777344 3.144531 0.824219 3.125 Z M 0.824219 3.125 "/>
<path fill-rule="nonzero" fill="rgb(30%,30%,30%)" fill-opacity="1" d="M 2.289062 4.804688 C 2.289062 4.804688 3.007812 5.660156 3.027344 5.644531 C 4.191406 4.78125 4.636719 2.75 4.660156 2.144531 C 4.28125 2 3.878906 1.921875 3.472656 1.917969 C 3.261719 4.019531 2.289062 4.804688 2.289062 4.804688 Z M 2.289062 4.804688 "/>
<path fill-rule="nonzero" fill="rgb(30%,30%,30%)" fill-opacity="1" d="M 3.429688 5.992188 L 3.992188 6.371094 L 4.652344 6.707031 C 4.652344 6.707031 6.140625 5.890625 6.332031 3.515625 C 6.332031 3.515625 6.332031 3.515625 6.332031 3.511719 C 6.296875 3.457031 6.261719 3.40625 6.222656 3.355469 C 6.183594 3.296875 6.128906 3.226562 6.070312 3.152344 C 5.808594 2.839844 5.496094 2.578125 5.140625 2.375 C 5.0625 3.085938 4.738281 4.816406 3.429688 5.992188 Z M 3.429688 5.992188 "/>
<path fill-rule="nonzero" fill="rgb(30%,30%,30%)" fill-opacity="1" d="M 6.777344 4.597656 C 6.765625 4.542969 6.753906 4.492188 6.738281 4.4375 C 6.699219 4.507812 6.492188 5.238281 6.152344 5.855469 C 5.855469 6.398438 5.375 6.859375 5.257812 6.898438 L 6.375 7.078125 C 6.402344 7.03125 6.429688 6.980469 6.457031 6.929688 C 6.625 6.597656 6.980469 5.722656 6.777344 4.597656 Z M 6.777344 4.597656 "/>
<path fill-rule="nonzero" fill="rgb(30%,30%,30%)" fill-opacity="1" d="M 6.019531 7.546875 C 3.039062 7.199219 1.839844 5.027344 1.839844 5.027344 C 1.839844 5.027344 0.921875 5.253906 0.921875 5.398438 C 0.921875 5.488281 1.578125 6.765625 2.367188 7.335938 C 3.414062 8.089844 4.679688 8.332031 4.972656 8.378906 C 5.097656 8.316406 5.222656 8.242188 5.339844 8.164062 C 5.523438 8.019531 5.746094 7.835938 5.886719 7.707031 C 5.933594 7.660156 5.980469 7.609375 6.023438 7.558594 C 6.027344 7.554688 6.023438 7.550781 6.019531 7.546875 Z M 6.019531 7.546875 "/>
<path fill-rule="nonzero" fill="rgb(30%,30%,30%)" fill-opacity="1" d="M 0.519531 5.746094 L 0.160156 6.40625 C 0.160156 6.40625 0.308594 6.890625 0.695312 7.40625 C 1.347656 8.253906 2.355469 8.746094 3.421875 8.746094 C 3.644531 8.746094 3.863281 8.722656 4.078125 8.683594 C 4.074219 8.679688 4.074219 8.679688 4.070312 8.679688 C 1.402344 8.085938 0.519531 5.746094 0.519531 5.746094 Z M 0.519531 5.746094 "/>
<path fill-rule="nonzero" fill="rgb(30%,30%,30%)" fill-opacity="1" d="M 0.015625 5.578125 C 0.777344 4.535156 1.695312 4.535156 1.839844 4.523438 C 1.988281 4.511719 2.738281 3.265625 2.648438 3.257812 C 1.277344 3.183594 0.25 4.136719 0.175781 4.207031 C 0.15625 4.269531 0.136719 4.332031 0.117188 4.394531 C 0.0351562 4.789062 -0.03125 5.644531 0.015625 5.578125 Z M 0.015625 5.578125 "/>
<path fill-rule="nonzero" fill="rgb(30%,30%,30%)" fill-opacity="1" d="M 10.996094 3.992188 L 10.996094 0.167969 C 10.996094 0.0859375 10.933594 0.0195312 10.851562 0.0195312 C 10.769531 0.0195312 10.703125 0.0859375 10.703125 0.167969 L 10.703125 0.804688 C 9.714844 0.492188 8.03125 0.253906 6.335938 0.195312 C 4.296875 0.125 2.503906 0.304688 1.257812 0.699219 L 1.257812 0.148438 C 1.257812 0.0664062 1.191406 0 1.109375 0 C 1.03125 0 0.964844 0.0664062 0.964844 0.148438 L 0.964844 2.699219 C 1.058594 2.613281 1.15625 2.53125 1.257812 2.453125 L 1.257812 1.03125 C 2.472656 0.625 4.269531 0.4375 6.324219 0.511719 C 6.601562 0.519531 6.878906 0.535156 7.15625 0.554688 C 7.152344 0.757812 7.148438 0.957031 7.144531 1.148438 C 5.714844 1.054688 4.402344 1.128906 3.417969 1.238281 L 3.671875 1.359375 C 4.652344 1.246094 5.722656 1.207031 7.144531 1.300781 C 7.140625 1.488281 7.140625 1.667969 7.140625 1.84375 C 6.445312 1.796875 5.550781 1.78125 4.828125 1.804688 L 5.078125 1.957031 C 5.765625 1.933594 6.457031 1.949219 7.144531 1.996094 C 7.148438 2.199219 7.152344 2.394531 7.160156 2.585938 C 6.757812 2.558594 6.347656 2.542969 5.9375 2.539062 L 6.152344 2.695312 C 6.566406 2.699219 6.761719 2.710938 7.167969 2.738281 C 7.179688 2.917969 7.195312 3.097656 7.214844 3.269531 C 6.976562 3.25 6.730469 3.234375 6.480469 3.222656 C 6.441406 3.222656 6.410156 3.230469 6.371094 3.226562 C 6.449219 3.335938 6.523438 3.449219 6.589844 3.566406 C 8.375 3.660156 9.976562 3.925781 10.703125 4.15625 L 10.703125 6.789062 C 10.703125 6.871094 10.769531 6.9375 10.851562 6.9375 C 10.933594 6.9375 10.996094 6.871094 10.996094 6.789062 L 10.996094 4.046875 C 11 4.027344 11 4.011719 10.996094 3.992188 Z M 7.984375 1.375 C 8.167969 1.398438 8.351562 1.421875 8.539062 1.445312 C 8.535156 1.628906 8.53125 1.8125 8.527344 1.992188 C 8.347656 1.964844 8.167969 1.941406 7.988281 1.921875 C 7.984375 1.753906 7.984375 1.574219 7.984375 1.375 Z M 8.675781 2.164062 C 8.84375 2.191406 9.007812 2.21875 9.175781 2.25 C 9.171875 2.453125 9.171875 2.644531 9.175781 2.832031 C 9.011719 2.800781 8.84375 2.777344 8.679688 2.75 C 8.671875 2.5625 8.671875 2.367188 8.675781 2.164062 Z M 8.679688 2.011719 C 8.679688 1.835938 8.683594 1.652344 8.691406 1.46875 C 8.855469 1.492188 9.023438 1.519531 9.191406 1.550781 C 9.1875 1.597656 9.1875 1.644531 9.1875 1.691406 C 9.183594 1.832031 9.179688 1.964844 9.175781 2.09375 C 9.011719 2.066406 8.84375 2.039062 8.679688 2.011719 Z M 9.339844 1.695312 C 9.339844 1.65625 9.339844 1.617188 9.339844 1.578125 C 9.523438 1.613281 9.703125 1.648438 9.886719 1.6875 C 9.886719 1.875 9.882812 2.054688 9.886719 2.234375 C 9.703125 2.195312 9.515625 2.15625 9.328125 2.121094 C 9.332031 1.984375 9.335938 1.84375 9.339844 1.695312 Z M 9.34375 1.425781 C 9.347656 1.230469 9.351562 1.027344 9.355469 0.8125 C 9.546875 0.847656 9.726562 0.882812 9.898438 0.921875 C 9.894531 1.125 9.890625 1.332031 9.886719 1.535156 C 9.707031 1.492188 9.523438 1.457031 9.34375 1.425781 Z M 9.191406 1.398438 C 9.027344 1.367188 8.859375 1.339844 8.695312 1.316406 C 8.695312 1.253906 8.699219 1.191406 8.699219 1.132812 C 8.703125 0.996094 8.710938 0.855469 8.714844 0.710938 C 8.882812 0.734375 9.046875 0.761719 9.203125 0.785156 C 9.203125 1 9.199219 1.203125 9.191406 1.398438 Z M 8.550781 1.128906 C 8.546875 1.183594 8.546875 1.238281 8.542969 1.292969 C 8.355469 1.265625 8.171875 1.242188 7.988281 1.222656 C 7.988281 1.039062 7.992188 0.839844 7.996094 0.625 C 8.1875 0.644531 8.378906 0.667969 8.5625 0.691406 C 8.558594 0.839844 8.554688 0.984375 8.550781 1.128906 Z M 8.523438 2.144531 C 8.523438 2.34375 8.523438 2.539062 8.527344 2.726562 C 8.355469 2.703125 8.183594 2.683594 8.011719 2.664062 C 8.003906 2.492188 7.996094 2.296875 7.992188 2.074219 C 8.167969 2.09375 8.347656 2.117188 8.523438 2.144531 Z M 8.53125 2.882812 C 8.535156 3.0625 8.546875 3.234375 8.558594 3.402344 C 8.402344 3.378906 8.234375 3.363281 8.066406 3.34375 C 8.050781 3.195312 8.035156 3.023438 8.019531 2.816406 C 8.191406 2.835938 8.359375 2.859375 8.53125 2.882812 Z M 8.683594 2.90625 C 8.847656 2.929688 9.015625 2.957031 9.179688 2.988281 C 9.183594 3.160156 9.195312 3.324219 9.210938 3.492188 C 9.050781 3.46875 8.886719 3.441406 8.714844 3.421875 C 8.699219 3.253906 8.6875 3.082031 8.683594 2.90625 Z M 9.332031 3.015625 C 9.527344 3.054688 9.722656 3.09375 9.914062 3.136719 C 9.921875 3.304688 9.9375 3.464844 9.953125 3.625 C 9.773438 3.585938 9.578125 3.550781 9.367188 3.515625 C 9.347656 3.351562 9.339844 3.1875 9.332031 3.015625 Z M 9.328125 2.859375 C 9.324219 2.671875 9.324219 2.480469 9.328125 2.277344 C 9.515625 2.3125 9.703125 2.351562 9.886719 2.390625 C 9.890625 2.59375 9.894531 2.789062 9.90625 2.980469 C 9.714844 2.9375 9.523438 2.898438 9.328125 2.859375 Z M 10.039062 2.425781 C 10.261719 2.480469 10.484375 2.535156 10.703125 2.59375 L 10.703125 3.175781 C 10.492188 3.117188 10.277344 3.0625 10.058594 3.015625 C 10.050781 2.824219 10.042969 2.628906 10.039062 2.425781 Z M 10.039062 2.269531 C 10.035156 2.089844 10.035156 1.910156 10.039062 1.722656 C 10.257812 1.773438 10.480469 1.828125 10.703125 1.890625 L 10.703125 2.4375 C 10.484375 2.378906 10.261719 2.320312 10.039062 2.269531 Z M 10.703125 1.734375 C 10.480469 1.671875 10.261719 1.617188 10.039062 1.566406 C 10.042969 1.367188 10.046875 1.160156 10.050781 0.953125 C 10.296875 1.011719 10.515625 1.074219 10.703125 1.136719 Z M 7.304688 0.566406 C 7.488281 0.578125 7.667969 0.59375 7.84375 0.609375 C 7.839844 0.804688 7.835938 1.003906 7.835938 1.207031 C 7.652344 1.191406 7.472656 1.171875 7.296875 1.160156 C 7.300781 0.96875 7.300781 0.769531 7.304688 0.566406 Z M 7.296875 1.3125 C 7.472656 1.328125 7.652344 1.34375 7.832031 1.359375 C 7.832031 1.542969 7.832031 1.722656 7.835938 1.90625 C 7.65625 1.886719 7.476562 1.871094 7.292969 1.855469 C 7.292969 1.679688 7.292969 1.5 7.296875 1.3125 Z M 7.296875 2.007812 C 7.476562 2.023438 7.660156 2.039062 7.839844 2.058594 C 7.84375 2.257812 7.847656 2.453125 7.859375 2.644531 C 7.679688 2.625 7.496094 2.609375 7.3125 2.597656 C 7.304688 2.40625 7.296875 2.210938 7.296875 2.007812 Z M 7.320312 2.75 C 7.503906 2.761719 7.6875 2.78125 7.867188 2.800781 C 7.878906 2.980469 7.894531 3.15625 7.914062 3.328125 C 7.734375 3.308594 7.554688 3.292969 7.367188 3.28125 C 7.347656 3.109375 7.332031 2.929688 7.320312 2.75 Z M 10.109375 3.65625 C 10.09375 3.5 10.078125 3.339844 10.066406 3.171875 C 10.28125 3.222656 10.492188 3.277344 10.703125 3.335938 L 10.703125 3.800781 C 10.539062 3.753906 10.339844 3.703125 10.109375 3.65625 Z M 10.109375 3.65625 "/>
</svg>
