<?xml version="1.0" encoding="UTF-8"?>
<svg xmlns="http://www.w3.org/2000/svg" xmlns:xlink="http://www.w3.org/1999/xlink" width="11" height="7.266931" viewBox="0 0 11 7.266931">
<path fill-rule="nonzero" fill="rgb(30%,30%,30%)" fill-opacity="1" d="M 10.996094 7.164062 L 8.789062 1.90625 C 8.789062 1.90625 0.691406 0.0234375 0.453125 0 C 0.214844 -0.0195312 0 0.367188 0 0.367188 C 0.0234375 0.519531 3.539062 1.878906 4.558594 2.277344 C 5.253906 2.550781 6.015625 2.957031 6.5625 3.289062 L 4.703125 4.433594 C 4.679688 4.449219 4.671875 4.480469 4.6875 4.507812 C 4.703125 4.535156 4.738281 4.542969 4.761719 4.527344 L 6.667969 3.351562 C 6.679688 3.359375 6.691406 3.367188 6.707031 3.375 L 6.1875 4.246094 C 6.140625 4.328125 6.164062 4.429688 6.242188 4.480469 L 6.375 4.566406 C 5.890625 4.753906 5.289062 5.019531 5.1875 5.113281 C 5.03125 5.257812 5.203125 5.289062 5.4375 5.324219 C 5.667969 5.363281 6.898438 5.113281 6.898438 5.113281 L 7.082031 5.023438 L 7.878906 5.539062 C 7.914062 5.5625 7.960938 5.558594 7.992188 5.53125 C 8.027344 5.503906 8.039062 5.457031 8.023438 5.417969 L 7.664062 4.515625 C 7.730469 4.496094 7.785156 4.441406 7.796875 4.371094 C 7.8125 4.300781 7.78125 4.230469 7.726562 4.191406 C 7.667969 4.148438 7.589844 4.144531 7.53125 4.179688 L 7.410156 3.882812 C 8.832031 5.125 9.722656 7.0625 10.390625 7.210938 C 11.082031 7.359375 10.996094 7.164062 10.996094 7.164062 Z M 7.332031 5.054688 L 7.195312 4.96875 L 7.332031 4.902344 Z M 7.648438 4.773438 L 7.910156 5.433594 L 7.777344 5.347656 L 7.78125 5.335938 L 7.464844 5.039062 Z M 7.464844 4.4375 C 7.433594 4.425781 7.402344 4.417969 7.371094 4.410156 C 7.371094 4.410156 7.246094 4.304688 6.9375 4.375 C 6.851562 4.390625 6.691406 4.445312 6.5 4.519531 L 6.300781 4.390625 C 6.273438 4.371094 6.261719 4.332031 6.28125 4.300781 L 6.796875 3.433594 C 6.992188 3.554688 7.144531 3.660156 7.238281 3.734375 L 7.449219 4.269531 C 7.425781 4.324219 7.433594 4.386719 7.464844 4.4375 Z M 7.464844 4.4375 "/>
</svg>
