<?xml version="1.0" encoding="UTF-8" standalone="no"?>
<!-- Created with Inkscape (http://www.inkscape.org/) -->

<svg
   xmlns:dc="http://purl.org/dc/elements/1.1/"
   xmlns:cc="http://creativecommons.org/ns#"
   xmlns:rdf="http://www.w3.org/1999/02/22-rdf-syntax-ns#"
   xmlns:svg="http://www.w3.org/2000/svg"
   xmlns="http://www.w3.org/2000/svg"
   xmlns:xlink="http://www.w3.org/1999/xlink"
   xmlns:sodipodi="http://sodipodi.sourceforge.net/DTD/sodipodi-0.dtd"
   xmlns:inkscape="http://www.inkscape.org/namespaces/inkscape"
   width="30px"
   height="30px"
   version="1.1"
   id="svg8"
   inkscape:version="0.92.4 5da689c313, 2019-01-14"
   sodipodi:docname="container.svg">
  <defs
     id="defs2" />
  <sodipodi:namedview
     id="base"
     pagecolor="#ffffff"
     bordercolor="#666666"
     borderopacity="1.0"
     inkscape:pageopacity="0.0"
     inkscape:pageshadow="2"
     inkscape:zoom="13.049334"
     inkscape:cx="18.679046"
     inkscape:cy="12.165829"
     inkscape:document-units="px"
     inkscape:current-layer="layer1"
     showgrid="false"
     inkscape:snap-page="false"
     units="px"
     inkscape:window-width="1884"
     inkscape:window-height="1061"
     inkscape:window-x="0"
     inkscape:window-y="0"
     inkscape:window-maximized="1"
     fit-margin-top="0"
     fit-margin-left="0"
     fit-margin-right="0"
     fit-margin-bottom="0" />
  <metadata
     id="metadata5">
    <rdf:RDF>
      <cc:Work
         rdf:about="">
        <dc:format>image/svg+xml</dc:format>
        <dc:type
           rdf:resource="http://purl.org/dc/dcmitype/StillImage" />
        <dc:title></dc:title>
      </cc:Work>
    </rdf:RDF>
  </metadata>
    <circle
       style="color:#000000;clip-rule:nonzero;display:inline;overflow:visible;visibility:visible;opacity:1;isolation:auto;mix-blend-mode:normal;color-interpolation:sRGB;color-interpolation-filters:linearRGB;solid-color:#000000;solid-opacity:1;vector-effect:none;fill:#ffffff;fill-opacity:1;fill-rule:evenodd;stroke:#00a757;stroke-width:1;stroke-linecap:butt;stroke-linejoin:miter;stroke-miterlimit:4;stroke-dasharray:none;stroke-dashoffset:0;stroke-opacity:1;marker:none;color-rendering:auto;image-rendering:auto;shape-rendering:auto;text-rendering:auto;enable-background:accumulate"
       id="path815"
       cx="15"
       cy="15"
       r="14.5" />
<g transform="translate(6.5,7.0)"><path fill-rule="nonzero" fill="rgb(30%,30%,30%)" fill-opacity="1" d="M 6.953125 5.371094 C 6.953125 5.664062 7.039062 5.953125 7.203125 6.195312 L 0 6.195312 L 0 4.007812 L 7.175781 4.007812 C 7.027344 4.238281 6.953125 4.507812 6.953125 4.785156 Z M 17 4.007812 L 12.503906 4.007812 C 12.652344 4.238281 12.726562 4.507812 12.726562 4.785156 L 12.726562 5.371094 C 12.726562 5.664062 12.640625 5.953125 12.476562 6.195312 L 17 6.195312 Z M 12.097656 4.007812 C 11.828125 3.574219 11.355469 3.316406 10.847656 3.316406 L 10.101562 3.316406 C 10.96875 3.191406 11.59375 2.421875 11.53125 1.550781 C 11.472656 0.675781 10.746094 0 9.871094 0 C 8.996094 0 8.269531 0.675781 8.207031 1.550781 C 8.148438 2.421875 8.773438 3.191406 9.640625 3.316406 L 8.886719 3.316406 C 8.074219 3.316406 7.417969 3.972656 7.417969 4.785156 L 7.417969 5.371094 C 7.417969 5.980469 7.796875 6.527344 8.367188 6.746094 L 8.800781 11.652344 C 8.5 11.757812 8.300781 12.039062 8.300781 12.355469 L 8.300781 13.746094 L 11.40625 13.746094 L 11.40625 12.355469 C 11.40625 12.082031 11.253906 11.832031 11.011719 11.703125 L 11.433594 6.71875 C 11.972656 6.488281 12.320312 5.957031 12.320312 5.371094 L 12.320312 4.785156 C 12.320312 4.507812 12.242188 4.238281 12.097656 4.007812 Z M 4.472656 12.472656 C 3.613281 12.472656 2.914062 13.167969 2.914062 14.027344 C 2.914062 14.890625 3.613281 15.585938 4.472656 15.585938 C 5.335938 15.585938 6.03125 14.890625 6.03125 14.027344 C 6.03125 13.167969 5.335938 12.472656 4.472656 12.472656 Z M 4.472656 12.472656 "/>
</g>
</svg>
