<?xml version="1.0" encoding="UTF-8" standalone="no"?>
<!-- Created with Inkscape (http://www.inkscape.org/) -->

<svg
   xmlns:dc="http://purl.org/dc/elements/1.1/"
   xmlns:cc="http://creativecommons.org/ns#"
   xmlns:rdf="http://www.w3.org/1999/02/22-rdf-syntax-ns#"
   xmlns:svg="http://www.w3.org/2000/svg"
   xmlns="http://www.w3.org/2000/svg"
   xmlns:xlink="http://www.w3.org/1999/xlink"
   xmlns:sodipodi="http://sodipodi.sourceforge.net/DTD/sodipodi-0.dtd"
   xmlns:inkscape="http://www.inkscape.org/namespaces/inkscape"
   width="30px"
   height="30px"
   version="1.1"
   id="svg8"
   inkscape:version="0.92.4 5da689c313, 2019-01-14"
   sodipodi:docname="container.svg">
  <defs
     id="defs2" />
  <sodipodi:namedview
     id="base"
     pagecolor="#ffffff"
     bordercolor="#666666"
     borderopacity="1.0"
     inkscape:pageopacity="0.0"
     inkscape:pageshadow="2"
     inkscape:zoom="13.049334"
     inkscape:cx="18.679046"
     inkscape:cy="12.165829"
     inkscape:document-units="px"
     inkscape:current-layer="layer1"
     showgrid="false"
     inkscape:snap-page="false"
     units="px"
     inkscape:window-width="1884"
     inkscape:window-height="1061"
     inkscape:window-x="0"
     inkscape:window-y="0"
     inkscape:window-maximized="1"
     fit-margin-top="0"
     fit-margin-left="0"
     fit-margin-right="0"
     fit-margin-bottom="0" />
  <metadata
     id="metadata5">
    <rdf:RDF>
      <cc:Work
         rdf:about="">
        <dc:format>image/svg+xml</dc:format>
        <dc:type
           rdf:resource="http://purl.org/dc/dcmitype/StillImage" />
        <dc:title></dc:title>
      </cc:Work>
    </rdf:RDF>
  </metadata>
    <circle
       style="color:#000000;clip-rule:nonzero;display:inline;overflow:visible;visibility:visible;opacity:1;isolation:auto;mix-blend-mode:normal;color-interpolation:sRGB;color-interpolation-filters:linearRGB;solid-color:#000000;solid-opacity:1;vector-effect:none;fill:#ffffff;fill-opacity:1;fill-rule:evenodd;stroke:#00a757;stroke-width:1;stroke-linecap:butt;stroke-linejoin:miter;stroke-miterlimit:4;stroke-dasharray:none;stroke-dashoffset:0;stroke-opacity:1;marker:none;color-rendering:auto;image-rendering:auto;shape-rendering:auto;text-rendering:auto;enable-background:accumulate"
       id="path815"
       cx="15"
       cy="15"
       r="14.5" />
<g transform="translate(7.0,6.5)"><path fill-rule="nonzero" fill="rgb(30%,30%,30%)" fill-opacity="1" d="M 5.574219 7.777344 L 3.085938 7.777344 C 2.921875 7.777344 2.789062 7.644531 2.789062 7.480469 C 2.789062 7.316406 2.921875 7.179688 3.085938 7.179688 L 5.574219 7.179688 C 5.742188 7.179688 5.875 7.316406 5.875 7.480469 C 5.875 7.644531 5.742188 7.777344 5.574219 7.777344 Z M 5.707031 10.132812 C 5.707031 9.96875 5.574219 9.835938 5.410156 9.835938 L 1.992188 9.835938 C 1.828125 9.835938 1.691406 9.96875 1.691406 10.132812 C 1.691406 10.300781 1.828125 10.433594 1.992188 10.433594 L 5.410156 10.433594 C 5.574219 10.433594 5.707031 10.300781 5.707031 10.132812 Z M 5.839844 12.722656 C 5.839844 12.558594 5.707031 12.421875 5.542969 12.421875 L 0.300781 12.421875 C 0.132812 12.421875 0 12.558594 0 12.722656 C 0 12.886719 0.132812 13.023438 0.300781 13.023438 L 5.542969 13.023438 C 5.707031 13.023438 5.839844 12.886719 5.839844 12.722656 Z M 9.027344 6.550781 L 9.027344 5.289062 C 9.027344 5.125 8.894531 4.992188 8.726562 4.992188 C 8.5625 4.992188 8.429688 5.125 8.429688 5.289062 L 8.429688 6.550781 C 8.429688 6.714844 8.5625 6.851562 8.726562 6.851562 C 8.894531 6.851562 9.027344 6.714844 9.027344 6.550781 Z M 9.027344 14.914062 L 9.027344 13.652344 C 9.027344 13.488281 8.894531 13.351562 8.726562 13.351562 C 8.5625 13.351562 8.429688 13.488281 8.429688 13.652344 L 8.429688 14.914062 C 8.429688 15.078125 8.5625 15.210938 8.726562 15.210938 C 8.894531 15.210938 9.027344 15.078125 9.027344 14.914062 Z M 12.296875 10.421875 L 13.558594 10.414062 C 13.722656 10.414062 13.855469 10.28125 13.855469 10.113281 C 13.855469 9.949219 13.722656 9.816406 13.554688 9.816406 L 12.292969 9.820312 C 12.128906 9.820312 11.996094 9.957031 11.996094 10.121094 C 11.996094 10.285156 12.128906 10.421875 12.296875 10.421875 Z M 12.382812 13.703125 C 12.5 13.585938 12.5 13.398438 12.386719 13.28125 L 11.503906 12.378906 C 11.429688 12.300781 11.320312 12.269531 11.214844 12.296875 C 11.113281 12.324219 11.03125 12.402344 11 12.507812 C 10.972656 12.609375 11 12.71875 11.078125 12.796875 L 11.957031 13.699219 C 12.074219 13.816406 12.261719 13.820312 12.382812 13.703125 Z M 11.382812 7.785156 L 12.292969 6.910156 C 12.414062 6.796875 12.417969 6.605469 12.300781 6.488281 C 12.1875 6.367188 12 6.363281 11.878906 6.480469 L 10.96875 7.351562 C 10.851562 7.464844 10.847656 7.65625 10.960938 7.773438 C 11.074219 7.894531 11.265625 7.898438 11.382812 7.785156 Z M 14.671875 4.9375 C 14.777344 5.046875 14.953125 5.046875 15.0625 4.9375 L 15.84375 4.160156 C 15.953125 4.050781 15.953125 3.875 15.84375 3.765625 L 15.0625 2.984375 C 14.953125 2.878906 14.777344 2.878906 14.671875 2.984375 L 13.890625 3.765625 C 13.78125 3.875 13.78125 4.050781 13.890625 4.160156 L 14.058594 4.328125 L 13.34375 5.074219 C 12.179688 4.007812 10.675781 3.375 9.097656 3.289062 L 9.089844 2.1875 L 9.273438 2.1875 C 9.410156 2.1875 9.523438 2.074219 9.523438 1.9375 L 9.523438 0.25 C 9.523438 0.113281 9.410156 0 9.273438 0 L 8.199219 0 C 8.058594 0 7.949219 0.113281 7.949219 0.25 L 7.949219 1.9375 C 7.949219 2.074219 8.058594 2.1875 8.199219 2.1875 L 8.492188 2.1875 L 8.5 3.28125 C 6.570312 3.339844 4.757812 4.210938 3.503906 5.679688 C 3.367188 5.835938 3.386719 6.074219 3.542969 6.207031 C 3.699219 6.34375 3.9375 6.324219 4.070312 6.167969 C 5.234375 4.808594 6.929688 4.023438 8.71875 4.023438 C 12.089844 4.023438 14.832031 6.769531 14.832031 10.136719 C 14.832031 13.507812 12.089844 16.25 8.71875 16.25 C 6.796875 16.25 5.023438 15.375 3.855469 13.84375 C 3.730469 13.679688 3.496094 13.648438 3.332031 13.773438 C 3.167969 13.898438 3.136719 14.132812 3.261719 14.296875 C 4.570312 16.015625 6.558594 17 8.71875 17 C 12.5 17 15.578125 13.921875 15.578125 10.136719 C 15.582031 8.417969 14.933594 6.761719 13.769531 5.5 L 14.484375 4.75 Z M 10.289062 5.6875 C 10.289062 5.6875 7.914062 9.335938 7.757812 9.835938 C 7.601562 10.332031 7.875 10.867188 8.375 11.023438 C 8.875 11.179688 9.40625 10.90625 9.566406 10.40625 C 9.566406 10.40625 10.289062 5.6875 10.289062 5.6875 Z M 10.289062 5.6875 "/>
</g>
</svg>
