<?xml version="1.0" encoding="UTF-8"?>
<svg xmlns="http://www.w3.org/2000/svg" xmlns:xlink="http://www.w3.org/1999/xlink" width="8.907405" height="11" viewBox="0 0 8.907405 11">
<path fill-rule="nonzero" fill="rgb(30%,30%,30%)" fill-opacity="1" d="M 6.246094 5.773438 L 4.769531 5.742188 C 4.789062 5.632812 4.8125 5.519531 4.835938 5.414062 C 3.835938 5.355469 3.105469 5.191406 2.519531 5.058594 C 2.40625 5.035156 2.296875 5.011719 2.195312 4.988281 C 1.183594 4.773438 0.316406 4.066406 0 3.820312 L 0 9.257812 C 0.679688 9.046875 1.285156 8.824219 1.59375 8.613281 C 1.59375 8.613281 3.378906 7.523438 3.378906 7.523438 C 3.761719 7.578125 4.644531 7.707031 4.644531 7.707031 L 4.464844 8.214844 L 3.507812 8.417969 L 2.949219 8.238281 C 2.949219 8.238281 2.566406 9.300781 2.554688 9.355469 C 2.539062 9.414062 3.902344 9.175781 3.902344 9.175781 L 5.074219 8.742188 L 5.402344 8.179688 C 5.402344 8.179688 5.59375 8.445312 5.703125 8.488281 C 5.8125 8.53125 6.480469 7.941406 6.480469 7.941406 C 6.480469 7.941406 6.847656 6.921875 6.886719 6.597656 C 6.929688 6.277344 6.246094 5.773438 6.246094 5.773438 Z M 5.742188 7.410156 C 5.742188 7.410156 5.484375 6.949219 5.210938 6.90625 C 4.9375 6.863281 4.203125 6.820312 4.203125 6.820312 L 5.988281 6.402344 L 6.058594 7.058594 Z M 5.742188 7.410156 "/>
<path fill-rule="nonzero" fill="rgb(30%,30%,30%)" fill-opacity="1" d="M 2.582031 4.75 C 3.167969 4.882812 3.898438 5.046875 4.902344 5.097656 C 4.964844 4.824219 5.019531 4.558594 5.046875 4.316406 C 5.105469 3.855469 5.46875 3.976562 5.867188 3.707031 C 6 3.617188 6.15625 3.558594 6.316406 3.480469 C 6.347656 3.554688 6.367188 3.605469 6.390625 3.652344 C 6.511719 3.894531 6.621094 4.144531 6.757812 4.375 C 6.917969 4.640625 7.132812 4.847656 7.398438 5.003906 C 7.398438 5.003906 7.402344 5.003906 7.402344 5.003906 C 7.859375 4.953125 8.351562 4.878906 8.886719 4.777344 C 8.871094 4.683594 8.847656 4.589844 8.820312 4.496094 C 8.78125 4.339844 8.761719 4.179688 8.761719 4.019531 C 8.777344 3.226562 8.679688 2.453125 8.441406 1.695312 C 8.410156 1.59375 8.441406 1.464844 8.460938 1.351562 C 8.519531 1.023438 8.589844 0.695312 8.773438 0.410156 C 8.777344 0.398438 8.78125 0.382812 8.796875 0.335938 C 8.628906 0.398438 8.488281 0.453125 8.34375 0.511719 C 8.363281 0.316406 8.492188 0.171875 8.578125 0.0078125 C 8.296875 -0.015625 7.539062 0.328125 7.34375 0.5625 C 6.121094 -0.0703125 4.875 -0.226562 3.601562 0.394531 C 3.84375 0.480469 4.28125 0.453125 4.53125 0.605469 C 4.460938 0.625 4.238281 0.644531 4.1875 0.660156 C 1.808594 1.144531 0.449219 2.945312 0.148438 3.535156 C 0.144531 3.542969 0.140625 3.550781 0.132812 3.558594 C 0.121094 3.566406 0.109375 3.574219 0.0976562 3.585938 C 0.414062 3.828125 1.335938 4.484375 2.257812 4.679688 C 2.363281 4.699219 2.46875 4.726562 2.582031 4.75 Z M 2.582031 4.75 "/>
<path fill-rule="nonzero" fill="rgb(30%,30%,30%)" fill-opacity="1" d="M 8.898438 5.167969 C 8.902344 5.144531 8.90625 5.117188 8.90625 5.09375 C 8.386719 5.191406 7.910156 5.261719 7.460938 5.316406 C 7.464844 5.351562 7.46875 5.390625 7.480469 5.425781 C 7.558594 5.710938 7.75 5.859375 8.042969 5.867188 C 8.167969 5.867188 8.292969 5.859375 8.414062 5.839844 C 8.539062 5.820312 8.632812 5.734375 8.703125 5.632812 C 8.765625 5.546875 8.816406 5.453125 8.871094 5.367188 L 8.90625 5.246094 C 8.902344 5.21875 8.894531 5.191406 8.898438 5.167969 Z M 8.898438 5.167969 "/>
<path fill-rule="nonzero" fill="rgb(30%,30%,30%)" fill-opacity="1" d="M 7.375 10.527344 C 7.957031 10.308594 8.292969 9.703125 8.175781 9.089844 C 8.058594 8.480469 7.519531 8.042969 6.898438 8.054688 C 6.277344 8.0625 5.753906 8.519531 5.65625 9.132812 C 5.558594 9.75 5.917969 10.34375 6.507812 10.542969 L 6.507812 11 L 7.375 11 Z M 6.234375 9.332031 C 6.234375 8.953125 6.542969 8.648438 6.921875 8.648438 C 7.300781 8.648438 7.605469 8.953125 7.605469 9.332031 C 7.605469 9.710938 7.300781 10.015625 6.921875 10.015625 C 6.542969 10.015625 6.234375 9.710938 6.234375 9.332031 Z M 6.234375 9.332031 "/>
<path fill-rule="nonzero" fill="rgb(30%,30%,30%)" fill-opacity="1" d="M 5.734375 5.515625 C 5.359375 5.515625 5.15625 5.464844 5.046875 5.4375 C 5.027344 5.433594 5 5.425781 4.992188 5.425781 L 5.023438 5.113281 C 5.054688 5.117188 5.085938 5.121094 5.117188 5.132812 C 5.320312 5.179688 5.859375 5.3125 7.375 4.988281 L 7.4375 5.296875 C 6.648438 5.464844 6.109375 5.515625 5.734375 5.515625 Z M 5.734375 5.515625 "/>
</svg>
