<?xml version="1.0" encoding="UTF-8"?>
<svg xmlns="http://www.w3.org/2000/svg" xmlns:xlink="http://www.w3.org/1999/xlink" width="11" height="7.646342" viewBox="0 0 11 7.646342">
<path fill-rule="nonzero" fill="rgb(30%,30%,30%)" fill-opacity="1" d="M 7.351562 1.921875 C 7.164062 2.332031 7.34375 2.816406 7.753906 3.007812 C 8.164062 3.191406 8.648438 3.011719 8.835938 2.605469 C 9.027344 2.195312 8.847656 1.707031 8.4375 1.519531 C 8.027344 1.332031 7.539062 1.511719 7.351562 1.921875 Z M 7.351562 1.921875 "/>
<path fill-rule="nonzero" fill="rgb(30%,30%,30%)" fill-opacity="1" d="M 10.9375 5.136719 C 10.9375 5.136719 10.363281 3.300781 9.449219 2.679688 C 8.957031 2.34375 6.761719 4.898438 6.761719 4.898438 L 6.910156 5.144531 L 3.234375 4.085938 C 3.300781 3.828125 3.328125 3.636719 3.285156 3.585938 C 3.132812 3.410156 2.679688 3.082031 2.183594 2.785156 L 2.925781 2.15625 L 4.027344 4.058594 L 4.441406 3.769531 C 4.441406 3.769531 3.511719 0.535156 2.925781 0.632812 C 1.902344 0.804688 0.707031 2.074219 0.5625 2.230469 C 0.355469 2.410156 0.171875 2.933594 0.0976562 3.179688 L 0 3.488281 L 2.511719 4.207031 L 2.265625 5.210938 L 2.101562 5.648438 L 2.609375 5.949219 C 2.609375 5.949219 2.65625 5.835938 2.769531 5.519531 C 2.890625 5.1875 3.039062 4.761719 3.148438 4.390625 L 7.726562 5.703125 C 7.648438 6.125 7.589844 6.738281 7.550781 7.1875 C 7.523438 7.523438 7.515625 7.644531 7.515625 7.644531 L 8.105469 7.582031 L 8.140625 7.117188 L 8.355469 5.972656 L 8.9375 6.050781 L 10.875 6.605469 L 10.914062 6.398438 L 10.9375 6.308594 C 10.941406 6.296875 11.074219 5.480469 10.9375 5.136719 Z M 7.890625 5.214844 C 7.859375 5.230469 7.824219 5.296875 7.792969 5.402344 L 7.175781 5.222656 L 8.8125 4.066406 L 9.222656 4.949219 C 8.648438 5.011719 8.101562 5.117188 7.890625 5.214844 Z M 7.890625 5.214844 "/>
<path fill-rule="nonzero" fill="rgb(30%,30%,30%)" fill-opacity="1" d="M 5.148438 0.816406 C 5.148438 1.269531 4.78125 1.636719 4.332031 1.636719 C 3.878906 1.636719 3.511719 1.269531 3.511719 0.816406 C 3.511719 0.367188 3.878906 0 4.332031 0 C 4.78125 0 5.148438 0.367188 5.148438 0.816406 Z M 5.148438 0.816406 "/>
<path fill-rule="nonzero" fill="rgb(30%,30%,30%)" fill-opacity="1" d="M 4.027344 7.335938 L 5.320312 5.65625 L 6.339844 7.335938 Z M 4.027344 7.335938 "/>
</svg>
