<?xml version="1.0" encoding="UTF-8"?>
<svg xmlns="http://www.w3.org/2000/svg" xmlns:xlink="http://www.w3.org/1999/xlink" width="11" height="10.999999" viewBox="0 0 11 10.999999">
<path fill-rule="nonzero" fill="rgb(30%,30%,30%)" fill-opacity="1" d="M 5.503906 2.863281 C 6.976562 2.863281 8.171875 4.054688 8.171875 5.523438 C 8.171875 6.992188 6.976562 8.183594 5.503906 8.183594 C 4.03125 8.183594 2.835938 6.992188 2.835938 5.523438 C 2.835938 4.054688 4.03125 2.863281 5.503906 2.863281 Z M 2.964844 3.375 L 0 3.222656 L 2.1875 5.195312 C 2.253906 4.523438 2.523438 3.886719 2.964844 3.375 Z M 5.21875 2.210938 L 3.222656 0 L 3.375 2.96875 C 3.898438 2.53125 4.542969 2.269531 5.21875 2.210938 Z M 8.820312 5.1875 L 11 3.222656 L 8.046875 3.371094 C 8.484375 3.882812 8.753906 4.519531 8.820312 5.1875 Z M 7.628906 2.960938 L 7.777344 0 L 5.78125 2.210938 C 6.457031 2.265625 7.101562 2.527344 7.628906 2.960938 Z M 3.371094 8.078125 L 3.222656 11 L 5.179688 8.832031 C 4.515625 8.769531 3.882812 8.503906 3.371094 8.078125 Z M 8.085938 7.628906 L 11 7.777344 L 8.824219 5.816406 C 8.765625 6.480469 8.507812 7.113281 8.085938 7.628906 Z M 5.820312 8.832031 L 7.777344 11 L 7.628906 8.085938 C 7.117188 8.511719 6.484375 8.769531 5.820312 8.832031 Z M 2.183594 5.808594 L 0 7.777344 L 2.925781 7.628906 C 2.496094 7.109375 2.238281 6.476562 2.183594 5.808594 Z M 2.183594 5.808594 "/>
</svg>
