<?xml version="1.0" encoding="UTF-8"?>
<svg xmlns="http://www.w3.org/2000/svg" xmlns:xlink="http://www.w3.org/1999/xlink" width="9.707734" height="11" viewBox="0 0 9.707734 11">
<path fill-rule="nonzero" fill="rgb(30%,30%,30%)" fill-opacity="1" d="M 6.308594 11 L 5.96875 11 C 5.933594 10.984375 5.894531 10.957031 5.855469 10.949219 C 5.605469 10.90625 5.347656 10.890625 5.101562 10.824219 C 4.664062 10.703125 4.222656 10.578125 3.800781 10.414062 C 2.4375 9.882812 1.425781 8.992188 0.929688 7.578125 C 0.71875 6.972656 0.621094 6.351562 0.730469 5.707031 C 0.777344 5.421875 0.847656 5.140625 0.972656 4.875 C 0.988281 4.84375 0.980469 4.800781 0.980469 4.761719 C 0.945312 4.761719 0.90625 4.75 0.878906 4.761719 C 0.699219 4.839844 0.527344 4.925781 0.351562 5.003906 C 0.238281 5.058594 0.117188 5.101562 0 5.148438 L 0 5.125 C 0.0117188 5.117188 0.0273438 5.109375 0.0351562 5.097656 C 0.207031 4.800781 0.355469 4.488281 0.554688 4.214844 C 1.125 3.433594 1.867188 2.84375 2.667969 2.324219 C 2.71875 2.289062 2.769531 2.253906 2.84375 2.203125 C 2.503906 2.125 2.207031 2.25 1.898438 2.242188 C 3.140625 1.082031 4.625 0.804688 6.253906 1.070312 C 6.394531 0.734375 7.144531 0.078125 7.476562 0 C 7.4375 0.214844 7.339844 0.421875 7.382812 0.648438 L 7.839844 0.285156 C 7.839844 0.347656 7.84375 0.363281 7.839844 0.378906 C 7.730469 0.765625 7.765625 1.15625 7.816406 1.542969 C 7.835938 1.679688 7.84375 1.835938 7.914062 1.9375 C 8.460938 2.695312 8.84375 3.53125 9.109375 4.425781 C 9.164062 4.601562 9.242188 4.769531 9.34375 4.925781 C 9.488281 5.152344 9.625 5.375 9.667969 5.648438 C 9.675781 5.675781 9.695312 5.703125 9.707031 5.734375 L 9.707031 5.878906 C 9.675781 5.996094 9.648438 6.121094 9.609375 6.238281 C 9.5625 6.378906 9.492188 6.507812 9.351562 6.574219 C 9.21875 6.640625 9.078125 6.695312 8.9375 6.738281 C 8.597656 6.835938 8.324219 6.742188 8.132812 6.453125 C 8.0625 6.347656 8.035156 6.214844 7.980469 6.101562 C 7.964844 6.0625 7.925781 6.015625 7.890625 6.007812 C 7.53125 5.933594 7.207031 5.777344 6.933594 5.539062 C 6.695312 5.332031 6.480469 5.09375 6.253906 4.867188 C 6.210938 4.820312 6.171875 4.773438 6.109375 4.703125 C 5.953125 4.847656 5.792969 4.96875 5.671875 5.121094 C 5.3125 5.5625 5.28125 6.078125 5.378906 6.613281 C 5.492188 7.222656 5.761719 7.769531 6.089844 8.289062 C 6.636719 9.152344 6.609375 10.066406 6.308594 11 Z M 7.082031 3.242188 C 6.964844 3.242188 6.875 3.339844 6.875 3.460938 C 6.875 3.578125 6.964844 3.675781 7.082031 3.675781 C 7.195312 3.675781 7.289062 3.578125 7.289062 3.460938 C 7.289062 3.339844 7.195312 3.242188 7.082031 3.242188 Z M 7.082031 3.242188 "/>
</svg>
