<?xml version="1.0" encoding="UTF-8"?>
<svg xmlns="http://www.w3.org/2000/svg" xmlns:xlink="http://www.w3.org/1999/xlink" width="10.620882" height="11" viewBox="0 0 10.620882 11">
<path fill-rule="nonzero" fill="rgb(30%,30%,30%)" fill-opacity="1" d="M 2.640625 0.746094 C 2.640625 1.15625 2.304688 1.492188 1.894531 1.492188 C 1.484375 1.492188 1.148438 1.15625 1.148438 0.746094 C 1.148438 0.332031 1.484375 0 1.894531 0 C 2.304688 0 2.640625 0.332031 2.640625 0.746094 Z M 10.324219 2.175781 L 5.355469 2.175781 L 5.355469 2.453125 L 10.324219 2.453125 Z M 9.699219 10.285156 C 9.527344 10.277344 9.359375 10.167969 9.164062 10.035156 C 8.875 9.84375 8.550781 9.628906 8.109375 9.679688 C 7.824219 9.710938 7.613281 9.859375 7.414062 10.003906 C 7.1875 10.164062 6.976562 10.316406 6.636719 10.304688 C 6.453125 10.300781 6.269531 10.191406 6.0625 10.0625 C 5.75 9.875 5.398438 9.660156 4.917969 9.699219 C 4.640625 9.722656 4.417969 9.859375 4.207031 9.996094 C 3.972656 10.144531 3.75 10.285156 3.433594 10.285156 C 3.242188 10.285156 3.050781 10.167969 2.828125 10.035156 C 2.546875 9.863281 2.230469 9.671875 1.84375 9.699219 C 1.566406 9.71875 1.300781 9.867188 1.042969 10.015625 C 0.796875 10.152344 0.566406 10.285156 0.359375 10.285156 C 0.238281 10.28125 0.113281 10.257812 0 10.214844 L 0.00390625 10.925781 C 0.121094 10.960938 0.238281 10.976562 0.359375 10.976562 C 0.648438 10.976562 0.929688 10.820312 1.203125 10.664062 C 1.4375 10.53125 1.660156 10.40625 1.867188 10.390625 C 2.152344 10.371094 2.398438 10.519531 2.65625 10.679688 C 2.902344 10.824219 3.152344 10.976562 3.433594 10.976562 C 3.84375 10.976562 4.132812 10.796875 4.386719 10.632812 C 4.578125 10.511719 4.742188 10.40625 4.941406 10.390625 C 5.324219 10.359375 5.609375 10.535156 5.890625 10.707031 C 6.121094 10.847656 6.359375 10.992188 6.628906 11 C 6.640625 11 6.65625 11 6.667969 11 C 7.09375 11 7.367188 10.804688 7.609375 10.632812 C 7.785156 10.503906 7.941406 10.394531 8.144531 10.371094 C 8.46875 10.332031 8.71875 10.496094 8.980469 10.671875 C 9.199219 10.816406 9.425781 10.96875 9.6875 10.976562 C 9.703125 10.980469 9.722656 10.980469 9.738281 10.980469 C 10.089844 10.980469 10.410156 10.832031 10.621094 10.703125 L 10.621094 9.941406 C 10.507812 10.03125 10.125 10.304688 9.699219 10.285156 Z M 9.699219 8.976562 C 9.527344 8.96875 9.359375 8.855469 9.164062 8.726562 C 8.875 8.535156 8.550781 8.316406 8.109375 8.367188 C 7.824219 8.402344 7.613281 8.550781 7.414062 8.695312 C 7.1875 8.855469 6.976562 9.003906 6.636719 8.996094 C 6.453125 8.992188 6.269531 8.878906 6.0625 8.753906 C 6.019531 8.726562 5.976562 8.703125 5.9375 8.675781 C 5.9375 8.675781 9.414062 7.90625 9.46875 7.894531 C 9.777344 7.824219 10.230469 7.332031 10.230469 7.332031 C 10.339844 7.238281 10.453125 7.003906 10.359375 6.894531 L 10.289062 6.820312 C 10.199219 6.738281 10.085938 6.707031 9.921875 6.890625 L 9.621094 7.21875 C 9.582031 7.257812 9.519531 7.296875 9.4375 7.355469 C 9.433594 7.359375 9.328125 7.421875 9.324219 7.425781 L 9.03125 7.5 L 5.191406 8.328125 C 5.191406 8.328125 4.613281 5.289062 4.589844 5.257812 C 4.558594 5.105469 4.503906 4.988281 4.375 4.917969 L 3.28125 4.285156 C 3.277344 4.253906 3.269531 4.222656 3.261719 4.191406 L 2.863281 2.570312 L 4.714844 2.570312 C 4.957031 2.570312 5.160156 2.371094 5.152344 2.128906 C 5.148438 1.894531 4.957031 1.707031 4.722656 1.707031 L 1.859375 1.707031 C 1.589844 1.765625 1.371094 1.957031 1.28125 2.21875 C 1.285156 2.242188 1.195312 2.445312 1.261719 2.78125 C 1.261719 2.78125 1.699219 4.589844 1.703125 4.597656 C 1.722656 4.753906 1.789062 4.910156 1.929688 4.992188 L 3.722656 6.027344 L 4.320312 8.617188 C 4.28125 8.636719 4.246094 8.660156 4.207031 8.683594 C 3.972656 8.835938 3.75 8.976562 3.433594 8.976562 C 3.242188 8.976562 3.050781 8.859375 2.828125 8.726562 C 2.546875 8.554688 2.230469 8.363281 1.84375 8.386719 C 1.566406 8.40625 1.300781 8.558594 1.042969 8.707031 C 0.796875 8.84375 0.566406 8.976562 0.359375 8.976562 C 0.238281 8.972656 0.113281 8.949219 0 8.90625 L 0.00390625 9.617188 C 0.121094 9.648438 0.238281 9.667969 0.359375 9.667969 C 0.648438 9.667969 0.929688 9.507812 1.203125 9.355469 C 1.4375 9.222656 1.660156 9.09375 1.867188 9.082031 C 2.152344 9.0625 2.398438 9.210938 2.65625 9.367188 C 2.902344 9.515625 3.152344 9.667969 3.433594 9.667969 C 3.84375 9.667969 4.132812 9.484375 4.386719 9.324219 C 4.578125 9.203125 4.742188 9.097656 4.941406 9.082031 C 5.324219 9.050781 5.609375 9.226562 5.890625 9.394531 C 6.121094 9.535156 6.359375 9.679688 6.628906 9.6875 C 6.640625 9.691406 6.65625 9.691406 6.667969 9.691406 C 7.09375 9.691406 7.367188 9.496094 7.609375 9.320312 C 7.785156 9.191406 7.941406 9.082031 8.144531 9.058594 C 8.46875 9.023438 8.71875 9.1875 8.980469 9.359375 C 9.199219 9.507812 9.425781 9.65625 9.6875 9.667969 C 9.703125 9.667969 9.722656 9.667969 9.738281 9.667969 C 10.089844 9.667969 10.410156 9.523438 10.621094 9.394531 L 10.621094 8.632812 C 10.507812 8.722656 10.125 8.992188 9.699219 8.976562 Z M 9.699219 8.976562 "/>
</svg>
