<?xml version="1.0" encoding="UTF-8"?>
<svg xmlns="http://www.w3.org/2000/svg" xmlns:xlink="http://www.w3.org/1999/xlink" width="7.88138" height="11" viewBox="0 0 7.88138 11">
<path fill-rule="nonzero" fill="rgb(30%,30%,30%)" fill-opacity="1" d="M 2.757812 7.023438 L 2.742188 7.023438 M 7.882812 4.117188 L 7.882812 4.183594 C 7.882812 4.28125 7.800781 4.363281 7.703125 4.363281 L 7.289062 4.363281 L 7.261719 4.71875 C 7.09375 5.886719 6.394531 6.671875 5.382812 7.035156 L 6.539062 10.183594 C 6.589844 10.324219 6.519531 10.480469 6.375 10.53125 C 6.234375 10.585938 6.078125 10.511719 6.027344 10.371094 L 4.855469 7.179688 C 4.636719 7.222656 4.414062 7.246094 4.191406 7.257812 L 4.203125 10.726562 C 4.207031 10.878906 4.085938 11 3.933594 11 C 3.785156 11 3.664062 10.878906 3.660156 10.730469 L 3.648438 7.25 C 3.421875 7.234375 3.195312 7.195312 2.976562 7.140625 L 1.808594 10.441406 C 1.757812 10.582031 1.605469 10.65625 1.460938 10.605469 C 1.320312 10.558594 1.246094 10.402344 1.296875 10.261719 L 2.464844 6.953125 C 1.472656 6.511719 0.757812 5.613281 0.527344 4.363281 L 0.179688 4.363281 C 0.0820312 4.363281 0 4.28125 0 4.183594 L 0 4.117188 C 0 4.019531 0.0820312 3.941406 0.179688 3.941406 L 0.464844 3.941406 C 0.464844 3.933594 0.464844 3.925781 0.464844 3.917969 C 0.464844 3.175781 2.253906 2.777344 3.9375 2.777344 C 5.617188 2.777344 7.40625 3.175781 7.40625 3.917969 C 7.40625 3.925781 7.40625 3.933594 7.40625 3.941406 L 7.703125 3.941406 C 7.800781 3.941406 7.882812 4.019531 7.882812 4.117188 Z M 2.753906 6.773438 C 2.789062 6.773438 1.417969 6.292969 1.160156 4.972656 L 0.789062 4.757812 C 1.277344 6.5 2.433594 6.765625 2.753906 6.773438 Z M 7.132812 3.917969 C 7.132812 3.554688 5.917969 3.046875 3.933594 3.046875 C 1.953125 3.046875 0.734375 3.554688 0.734375 3.917969 C 0.734375 4.28125 1.953125 4.789062 3.933594 4.789062 C 5.917969 4.789062 7.132812 4.28125 7.132812 3.917969 Z M 1.382812 4.222656 L 1.902344 3.65625 C 1.953125 3.601562 1.949219 3.515625 1.894531 3.464844 C 1.839844 3.414062 1.753906 3.417969 1.703125 3.472656 L 1.183594 4.039062 C 1.128906 4.09375 1.136719 4.179688 1.191406 4.230469 C 1.246094 4.28125 1.332031 4.277344 1.382812 4.222656 Z M 6.457031 4.382812 L 6.882812 3.839844 C 6.925781 3.78125 6.917969 3.695312 6.859375 3.648438 C 6.796875 3.605469 6.714844 3.613281 6.667969 3.671875 L 6.242188 4.214844 C 6.199219 4.273438 6.207031 4.359375 6.265625 4.40625 C 6.328125 4.453125 6.410156 4.441406 6.457031 4.382812 Z M 5.449219 4.617188 L 6.222656 3.589844 C 6.265625 3.53125 6.253906 3.445312 6.195312 3.398438 C 6.132812 3.355469 6.050781 3.367188 6.003906 3.425781 L 5.230469 4.453125 C 5.1875 4.515625 5.199219 4.597656 5.257812 4.644531 C 5.320312 4.691406 5.402344 4.675781 5.449219 4.617188 Z M 2.054688 4.484375 L 2.949219 3.371094 C 2.996094 3.3125 2.988281 3.226562 2.929688 3.179688 C 2.871094 3.132812 2.785156 3.144531 2.738281 3.203125 L 1.84375 4.316406 C 1.796875 4.375 1.804688 4.460938 1.863281 4.507812 C 1.925781 4.554688 2.007812 4.542969 2.054688 4.484375 Z M 4.488281 4.691406 L 5.464844 3.414062 C 5.511719 3.355469 5.5 3.269531 5.4375 3.222656 C 5.378906 3.179688 5.292969 3.1875 5.25 3.25 L 4.269531 4.527344 C 4.226562 4.585938 4.234375 4.671875 4.296875 4.71875 C 4.355469 4.761719 4.441406 4.75 4.488281 4.691406 Z M 2.832031 4.597656 L 3.8125 3.367188 C 3.859375 3.308594 3.851562 3.222656 3.792969 3.175781 C 3.734375 3.128906 3.648438 3.140625 3.601562 3.195312 L 2.617188 4.429688 C 2.570312 4.488281 2.582031 4.570312 2.640625 4.617188 C 2.699219 4.664062 2.785156 4.65625 2.832031 4.597656 M 3.625 4.617188 L 4.609375 3.386719 C 4.65625 3.328125 4.648438 3.242188 4.589844 3.195312 C 4.53125 3.148438 4.445312 3.15625 4.398438 3.214844 L 3.414062 4.445312 C 3.367188 4.507812 3.378906 4.589844 3.4375 4.636719 C 3.492188 4.683594 3.578125 4.675781 3.625 4.617188 Z M 4.121094 0 C 4.121094 0 4.589844 0.519531 4.070312 1.046875 C 3.445312 1.6875 4.191406 2.230469 4.191406 2.230469 C 4.191406 2.230469 4.023438 1.734375 4.445312 1.3125 C 4.832031 0.925781 4.878906 0.433594 4.121094 0 Z M 3.734375 1.074219 C 3.734375 1.074219 3.070312 1.398438 3.21875 1.878906 C 3.335938 2.273438 3.773438 2.277344 3.625 2.675781 C 3.613281 2.707031 4.109375 2.457031 3.6875 1.902344 C 3.410156 1.542969 3.734375 1.074219 3.734375 1.074219 Z M 3.734375 1.074219 "/>
</svg>
