<?xml version="1.0" encoding="UTF-8" standalone="no"?>
<!-- Created with Inkscape (http://www.inkscape.org/) -->

<svg
   xmlns:dc="http://purl.org/dc/elements/1.1/"
   xmlns:cc="http://creativecommons.org/ns#"
   xmlns:rdf="http://www.w3.org/1999/02/22-rdf-syntax-ns#"
   xmlns:svg="http://www.w3.org/2000/svg"
   xmlns="http://www.w3.org/2000/svg"
   xmlns:xlink="http://www.w3.org/1999/xlink"
   xmlns:sodipodi="http://sodipodi.sourceforge.net/DTD/sodipodi-0.dtd"
   xmlns:inkscape="http://www.inkscape.org/namespaces/inkscape"
   width="30px"
   height="30px"
   version="1.1"
   id="svg8"
   inkscape:version="0.92.4 5da689c313, 2019-01-14"
   sodipodi:docname="container.svg">
  <defs
     id="defs2" />
  <sodipodi:namedview
     id="base"
     pagecolor="#ffffff"
     bordercolor="#666666"
     borderopacity="1.0"
     inkscape:pageopacity="0.0"
     inkscape:pageshadow="2"
     inkscape:zoom="13.049334"
     inkscape:cx="18.679046"
     inkscape:cy="12.165829"
     inkscape:document-units="px"
     inkscape:current-layer="layer1"
     showgrid="false"
     inkscape:snap-page="false"
     units="px"
     inkscape:window-width="1884"
     inkscape:window-height="1061"
     inkscape:window-x="0"
     inkscape:window-y="0"
     inkscape:window-maximized="1"
     fit-margin-top="0"
     fit-margin-left="0"
     fit-margin-right="0"
     fit-margin-bottom="0" />
  <metadata
     id="metadata5">
    <rdf:RDF>
      <cc:Work
         rdf:about="">
        <dc:format>image/svg+xml</dc:format>
        <dc:type
           rdf:resource="http://purl.org/dc/dcmitype/StillImage" />
        <dc:title></dc:title>
      </cc:Work>
    </rdf:RDF>
  </metadata>
    <circle
       style="color:#000000;clip-rule:nonzero;display:inline;overflow:visible;visibility:visible;opacity:1;isolation:auto;mix-blend-mode:normal;color-interpolation:sRGB;color-interpolation-filters:linearRGB;solid-color:#000000;solid-opacity:1;vector-effect:none;fill:#00a757;fill-opacity:1;fill-rule:evenodd;stroke:#ffffff;stroke-width:1;stroke-linecap:butt;stroke-linejoin:miter;stroke-miterlimit:4;stroke-dasharray:none;stroke-dashoffset:0;stroke-opacity:1;marker:none;color-rendering:auto;image-rendering:auto;shape-rendering:auto;text-rendering:auto;enable-background:accumulate"
       id="path815"
       cx="15"
       cy="15"
       r="14.5" />
<g transform="translate(6.5,7.0)"><path fill-rule="nonzero" fill="#FFFFFF" fill-opacity="1" d="M 6.628906 13.335938 C 6.628906 14.6875 5.53125 15.785156 4.179688 15.785156 C 2.824219 15.785156 1.730469 14.6875 1.730469 13.335938 C 1.730469 11.980469 2.824219 10.886719 4.179688 10.886719 C 5.53125 10.886719 6.628906 11.980469 6.628906 13.335938 Z M 2.613281 13.390625 C 2.714844 13.386719 2.796875 13.296875 2.792969 13.191406 C 2.777344 12.757812 2.886719 12.421875 3.113281 12.199219 C 3.492188 11.835938 4.09375 11.875 4.105469 11.875 C 4.207031 11.882812 4.300781 11.804688 4.308594 11.703125 C 4.316406 11.597656 4.238281 11.507812 4.132812 11.496094 C 4.101562 11.496094 3.359375 11.441406 2.855469 11.925781 C 2.542969 12.226562 2.394531 12.65625 2.414062 13.207031 C 2.417969 13.308594 2.503906 13.390625 2.605469 13.390625 C 2.605469 13.390625 2.609375 13.390625 2.613281 13.390625 Z M 2.613281 13.390625 "/>
<path fill-rule="nonzero" fill="#FFFFFF" fill-opacity="1" d="M 2.496094 6.789062 C 2.453125 6.777344 2.414062 6.765625 2.371094 6.753906 C 2.59375 7.351562 2.898438 7.910156 3.277344 8.417969 C 3.902344 8.566406 4.550781 8.574219 5.179688 8.4375 C 5.550781 7.9375 5.851562 7.390625 6.074219 6.8125 C 4.898438 7.109375 3.667969 7.101562 2.496094 6.789062 Z M 2.496094 6.789062 "/>
<path fill-rule="nonzero" fill="#FFFFFF" fill-opacity="1" d="M 6.074219 1.789062 C 5.832031 1.167969 5.496094 0.589844 5.070312 0.078125 C 4.503906 -0.03125 3.925781 -0.0234375 3.363281 0.0976562 C 2.9375 0.621094 2.601562 1.214844 2.363281 1.847656 C 2.410156 1.835938 2.453125 1.824219 2.496094 1.8125 C 3.667969 1.5 4.898438 1.492188 6.074219 1.789062 Z M 6.074219 1.789062 "/>
<path fill-rule="nonzero" fill="#FFFFFF" fill-opacity="1" d="M 2.519531 2.191406 C 2.417969 2.214844 2.320312 2.246094 2.21875 2.277344 C 1.828125 3.597656 1.832031 5.007812 2.226562 6.328125 C 2.324219 6.359375 2.421875 6.386719 2.519531 6.414062 C 3.761719 6.742188 5.050781 6.71875 6.222656 6.378906 C 6.417969 5.742188 6.523438 5.078125 6.53125 4.414062 C 6.546875 3.671875 6.441406 2.933594 6.222656 2.222656 C 5.050781 1.882812 3.761719 1.859375 2.519531 2.191406 Z M 2.519531 2.191406 "/>
<path fill-rule="nonzero" fill="#FFFFFF" fill-opacity="1" d="M 1.800781 2.421875 C 1.191406 2.652344 0.617188 2.964844 0.0976562 3.355469 C -0.0390625 3.984375 -0.03125 4.636719 0.117188 5.261719 C 0.628906 5.644531 1.191406 5.949219 1.789062 6.175781 C 1.636719 5.589844 1.558594 4.984375 1.558594 4.378906 C 1.558594 3.71875 1.636719 3.0625 1.800781 2.421875 Z M 1.800781 2.421875 "/>
<path fill-rule="nonzero" fill="#FFFFFF" fill-opacity="1" d="M 0.300781 5.839844 C 0.734375 6.929688 1.597656 7.796875 2.691406 8.234375 C 2.363281 7.730469 2.105469 7.183594 1.917969 6.613281 C 1.351562 6.417969 0.808594 6.160156 0.300781 5.839844 Z M 0.300781 5.839844 "/>
<path fill-rule="nonzero" fill="#FFFFFF" fill-opacity="1" d="M 5.757812 8.265625 C 6.898438 7.839844 7.804688 6.949219 8.246094 5.8125 C 7.71875 6.1875 7.140625 6.480469 6.527344 6.679688 C 6.335938 7.238281 6.078125 7.773438 5.757812 8.265625 Z M 5.757812 8.265625 "/>
<path fill-rule="nonzero" fill="#FFFFFF" fill-opacity="1" d="M 8.445312 3.394531 C 7.910156 2.949219 7.300781 2.601562 6.648438 2.363281 C 6.828125 3.058594 6.914062 3.773438 6.902344 4.492188 C 6.894531 5.082031 6.8125 5.664062 6.660156 6.234375 C 7.300781 6 7.898438 5.65625 8.425781 5.222656 C 8.566406 4.621094 8.570312 4 8.445312 3.394531 Z M 8.445312 3.394531 "/>
<path fill-rule="nonzero" fill="#FFFFFF" fill-opacity="1" d="M 8.28125 2.816406 C 7.84375 1.609375 6.886719 0.660156 5.671875 0.238281 C 6.035156 0.753906 6.316406 1.320312 6.515625 1.917969 C 7.144531 2.125 7.742188 2.425781 8.28125 2.816406 Z M 8.28125 2.816406 "/>
<path fill-rule="nonzero" fill="#FFFFFF" fill-opacity="1" d="M 2.753906 0.277344 C 1.597656 0.71875 0.691406 1.632812 0.261719 2.789062 C 0.78125 2.457031 1.339844 2.1875 1.925781 1.984375 C 2.117188 1.378906 2.394531 0.804688 2.753906 0.277344 Z M 2.753906 0.277344 "/>
<path fill-rule="nonzero" fill="#FFFFFF" fill-opacity="1" d="M 15.789062 9.578125 C 15.558594 9.933594 15.304688 10.273438 15.023438 10.59375 C 15.582031 10.644531 16.085938 10.601562 16.503906 10.457031 L 16.867188 10.242188 C 16.9375 9.96875 16.980469 9.6875 16.996094 9.402344 C 16.636719 9.519531 16.242188 9.578125 15.820312 9.578125 C 15.808594 9.578125 15.796875 9.578125 15.789062 9.578125 Z M 15.789062 9.578125 "/>
<path fill-rule="nonzero" fill="#FFFFFF" fill-opacity="1" d="M 16.945312 8.996094 L 17 8.96875 C 16.976562 8.394531 16.839844 7.832031 16.597656 7.3125 C 16.558594 7.929688 16.351562 8.558594 16.027344 9.167969 C 16.339844 9.15625 16.648438 9.097656 16.945312 8.996094 Z M 16.945312 8.996094 "/>
<path fill-rule="nonzero" fill="#FFFFFF" fill-opacity="1" d="M 13.375 12.0625 C 13.28125 12.125 13.1875 12.1875 13.09375 12.246094 C 12.269531 12.765625 11.472656 13.058594 10.769531 13.125 C 12.519531 13.941406 14.597656 13.515625 15.886719 12.078125 C 15.527344 12.191406 15.140625 12.242188 14.742188 12.242188 C 14.296875 12.242188 13.835938 12.175781 13.375 12.0625 Z M 13.375 12.0625 "/>
<path fill-rule="nonzero" fill="#FFFFFF" fill-opacity="1" d="M 15.324219 9.550781 C 15.027344 9.519531 14.730469 9.464844 14.441406 9.390625 C 14.378906 9.375 14.320312 9.359375 14.261719 9.339844 C 14.007812 9.65625 13.738281 9.953125 13.445312 10.234375 C 13.507812 10.257812 13.570312 10.277344 13.632812 10.296875 C 13.933594 10.394531 14.234375 10.472656 14.542969 10.527344 C 14.800781 10.253906 15.039062 9.960938 15.253906 9.652344 C 15.277344 9.617188 15.300781 9.585938 15.324219 9.550781 Z M 15.324219 9.550781 "/>
<path fill-rule="nonzero" fill="#FFFFFF" fill-opacity="1" d="M 12.214844 11.234375 C 12.484375 11.355469 12.765625 11.464844 13.050781 11.554688 C 13.132812 11.578125 13.214844 11.605469 13.292969 11.625 C 13.617188 11.394531 13.921875 11.140625 14.207031 10.867188 C 13.835938 10.785156 13.472656 10.675781 13.117188 10.539062 C 12.832031 10.789062 12.53125 11.023438 12.214844 11.234375 Z M 12.214844 11.234375 "/>
<path fill-rule="nonzero" fill="#FFFFFF" fill-opacity="1" d="M 16.671875 10.824219 L 16.65625 10.828125 C 16.292969 10.957031 15.886719 11.015625 15.460938 11.015625 C 15.203125 11.015625 14.941406 10.996094 14.683594 10.957031 C 14.410156 11.238281 14.113281 11.5 13.804688 11.746094 C 14.589844 11.894531 15.296875 11.867188 15.878906 11.65625 L 16.398438 11.375 C 16.503906 11.199219 16.597656 11.011719 16.675781 10.820312 Z M 16.671875 10.824219 "/>
<path fill-rule="nonzero" fill="#FFFFFF" fill-opacity="1" d="M 13.855469 9.210938 C 13.488281 9.078125 13.136719 8.921875 12.792969 8.742188 C 12.53125 9.027344 12.25 9.296875 11.949219 9.542969 C 12.296875 9.746094 12.660156 9.921875 13.03125 10.078125 C 13.324219 9.804688 13.597656 9.515625 13.855469 9.210938 Z M 13.855469 9.210938 "/>
<path fill-rule="nonzero" fill="#FFFFFF" fill-opacity="1" d="M 11.378906 11.265625 C 11.011719 11.066406 10.660156 10.839844 10.324219 10.589844 C 9.734375 10.863281 9.167969 11.011719 8.660156 11.023438 C 8.769531 11.257812 8.898438 11.476562 9.046875 11.6875 C 9.675781 11.875 10.492188 11.730469 11.378906 11.265625 Z M 11.378906 11.265625 "/>
<path fill-rule="nonzero" fill="#FFFFFF" fill-opacity="1" d="M 11.609375 9.808594 C 11.328125 10.019531 11.035156 10.214844 10.726562 10.382812 C 11.0625 10.625 11.417969 10.839844 11.789062 11.03125 C 12.105469 10.832031 12.410156 10.609375 12.699219 10.367188 C 12.324219 10.207031 11.960938 10.019531 11.609375 9.808594 Z M 11.609375 9.808594 "/>
<path fill-rule="nonzero" fill="#FFFFFF" fill-opacity="1" d="M 10.1875 9.964844 C 10.246094 10.015625 10.308594 10.066406 10.371094 10.117188 C 10.675781 9.957031 10.964844 9.78125 11.246094 9.578125 C 10.960938 9.390625 10.6875 9.1875 10.429688 8.964844 C 9.617188 8.261719 9.101562 7.527344 8.917969 6.816406 C 8.789062 7.019531 8.675781 7.238281 8.582031 7.460938 C 8.652344 8.25 9.214844 9.136719 10.1875 9.964844 Z M 10.1875 9.964844 "/>
<path fill-rule="nonzero" fill="#FFFFFF" fill-opacity="1" d="M 12.863281 11.914062 C 12.503906 11.796875 12.148438 11.65625 11.808594 11.488281 C 11.023438 11.941406 10.28125 12.175781 9.632812 12.175781 C 9.566406 12.175781 9.503906 12.171875 9.441406 12.167969 C 9.625 12.359375 9.824219 12.535156 10.042969 12.691406 C 10.804688 12.847656 11.800781 12.578125 12.863281 11.914062 Z M 12.863281 11.914062 "/>
<path fill-rule="nonzero" fill="#FFFFFF" fill-opacity="1" d="M 10.691406 8.660156 C 10.972656 8.902344 11.273438 9.121094 11.585938 9.320312 C 11.886719 9.082031 12.171875 8.820312 12.433594 8.539062 C 12.238281 8.421875 12.046875 8.296875 11.855469 8.164062 C 10.839844 7.441406 10.125 6.601562 9.808594 5.800781 C 9.605469 5.96875 9.417969 6.15625 9.25 6.355469 C 9.308594 7.085938 9.8125 7.898438 10.691406 8.660156 Z M 10.691406 8.660156 "/>
<path fill-rule="nonzero" fill="#FFFFFF" fill-opacity="1" d="M 9.964844 10.304688 C 9.953125 10.292969 9.9375 10.28125 9.925781 10.273438 C 9.140625 9.605469 8.605469 8.890625 8.347656 8.199219 C 8.167969 9.003906 8.21875 9.84375 8.496094 10.621094 C 8.929688 10.636719 9.433594 10.527344 9.964844 10.304688 Z M 9.964844 10.304688 "/>
<path fill-rule="nonzero" fill="#FFFFFF" fill-opacity="1" d="M 12.089844 7.835938 C 12.292969 7.980469 12.5 8.109375 12.707031 8.230469 C 13.535156 7.242188 14.015625 6.136719 13.984375 5.167969 L 13.953125 4.980469 C 12.664062 4.570312 11.257812 4.777344 10.140625 5.542969 C 10.40625 6.300781 11.101562 7.132812 12.089844 7.835938 Z M 12.089844 7.835938 "/>
<path fill-rule="nonzero" fill="#FFFFFF" fill-opacity="1" d="M 14.523438 8.996094 C 14.867188 9.085938 15.214844 9.140625 15.566406 9.164062 C 16.011719 8.398438 16.230469 7.652344 16.199219 6.980469 L 16.109375 6.5 C 15.96875 6.316406 15.8125 6.144531 15.644531 5.984375 L 15.644531 5.996094 C 15.679688 6.957031 15.222656 8.027344 14.523438 8.996094 Z M 14.523438 8.996094 "/>
<path fill-rule="nonzero" fill="#FFFFFF" fill-opacity="1" d="M 13.609375 7.675781 C 13.445312 7.9375 13.261719 8.191406 13.066406 8.429688 C 13.402344 8.605469 13.757812 8.753906 14.117188 8.875 C 14.15625 8.820312 14.195312 8.769531 14.234375 8.71875 C 14.90625 7.765625 15.265625 6.8125 15.246094 6.027344 L 15.140625 5.566406 C 14.902344 5.402344 14.652344 5.261719 14.386719 5.144531 C 14.414062 5.941406 14.144531 6.820312 13.609375 7.675781 Z M 13.609375 7.675781 "/>
</g>
</svg>
