<?xml version="1.0" encoding="UTF-8" standalone="no"?>
<!-- Created with Inkscape (http://www.inkscape.org/) -->

<svg
   xmlns:dc="http://purl.org/dc/elements/1.1/"
   xmlns:cc="http://creativecommons.org/ns#"
   xmlns:rdf="http://www.w3.org/1999/02/22-rdf-syntax-ns#"
   xmlns:svg="http://www.w3.org/2000/svg"
   xmlns="http://www.w3.org/2000/svg"
   xmlns:xlink="http://www.w3.org/1999/xlink"
   xmlns:sodipodi="http://sodipodi.sourceforge.net/DTD/sodipodi-0.dtd"
   xmlns:inkscape="http://www.inkscape.org/namespaces/inkscape"
   width="30px"
   height="30px"
   version="1.1"
   id="svg8"
   inkscape:version="0.92.4 5da689c313, 2019-01-14"
   sodipodi:docname="container.svg">
  <defs
     id="defs2" />
  <sodipodi:namedview
     id="base"
     pagecolor="#ffffff"
     bordercolor="#666666"
     borderopacity="1.0"
     inkscape:pageopacity="0.0"
     inkscape:pageshadow="2"
     inkscape:zoom="13.049334"
     inkscape:cx="18.679046"
     inkscape:cy="12.165829"
     inkscape:document-units="px"
     inkscape:current-layer="layer1"
     showgrid="false"
     inkscape:snap-page="false"
     units="px"
     inkscape:window-width="1884"
     inkscape:window-height="1061"
     inkscape:window-x="0"
     inkscape:window-y="0"
     inkscape:window-maximized="1"
     fit-margin-top="0"
     fit-margin-left="0"
     fit-margin-right="0"
     fit-margin-bottom="0" />
  <metadata
     id="metadata5">
    <rdf:RDF>
      <cc:Work
         rdf:about="">
        <dc:format>image/svg+xml</dc:format>
        <dc:type
           rdf:resource="http://purl.org/dc/dcmitype/StillImage" />
        <dc:title></dc:title>
      </cc:Work>
    </rdf:RDF>
  </metadata>
    <circle
       style="color:#000000;clip-rule:nonzero;display:inline;overflow:visible;visibility:visible;opacity:1;isolation:auto;mix-blend-mode:normal;color-interpolation:sRGB;color-interpolation-filters:linearRGB;solid-color:#000000;solid-opacity:1;vector-effect:none;fill:#00a757;fill-opacity:1;fill-rule:evenodd;stroke:#ffffff;stroke-width:1;stroke-linecap:butt;stroke-linejoin:miter;stroke-miterlimit:4;stroke-dasharray:none;stroke-dashoffset:0;stroke-opacity:1;marker:none;color-rendering:auto;image-rendering:auto;shape-rendering:auto;text-rendering:auto;enable-background:accumulate"
       id="path815"
       cx="15"
       cy="15"
       r="14.5" />
<g transform="translate(6.5,6.5)"><path fill-rule="nonzero" fill="#FFFFFF" fill-opacity="1" d="M 12.710938 3.101562 C 12.144531 3.617188 11.25 3.878906 10.28125 3.988281 C 10.445312 4.476562 10.597656 4.976562 10.726562 5.492188 C 12.929688 5.441406 14.882812 5.425781 16.488281 5.589844 C 15.925781 4.050781 14.929688 2.707031 13.621094 1.71875 C 13.394531 2.292969 13.089844 2.757812 12.710938 3.101562 Z M 12.710938 3.101562 "/>
<path fill-rule="nonzero" fill="#FFFFFF" fill-opacity="1" d="M 10.085938 5.511719 C 9.953125 5.007812 9.800781 4.515625 9.632812 4.042969 C 9.402344 4.054688 9.167969 4.058594 8.9375 4.058594 C 8.035156 4.058594 7.152344 3.976562 6.480469 3.890625 C 4.949219 3.691406 3.382812 3.34375 2.082031 2.925781 C 0.738281 4.472656 -0.00390625 6.453125 0 8.5 C 0 8.804688 0.015625 9.109375 0.046875 9.410156 C 0.902344 8.644531 1.957031 7.9375 3.175781 7.335938 C 5.332031 6.269531 7.765625 5.628906 10.085938 5.511719 Z M 10.085938 5.511719 "/>
<path fill-rule="nonzero" fill="#FFFFFF" fill-opacity="1" d="M 11.332031 8.1875 C 11.304688 8.1875 11.273438 8.1875 11.242188 8.191406 C 11.375 9.214844 11.4375 10.25 11.4375 11.28125 C 11.4375 13.34375 11.273438 15.105469 10.933594 16.644531 C 13.082031 16.003906 14.871094 14.539062 15.9375 12.613281 C 15.691406 11.746094 15.328125 10.949219 14.863281 10.277344 C 13.929688 8.929688 12.675781 8.1875 11.332031 8.1875 Z M 11.332031 8.1875 "/>
<path fill-rule="nonzero" fill="#FFFFFF" fill-opacity="1" d="M 10.878906 6.113281 C 10.984375 6.589844 11.078125 7.074219 11.152344 7.566406 C 11.214844 7.5625 11.273438 7.558594 11.332031 7.558594 C 12.890625 7.558594 14.328125 8.398438 15.378906 9.917969 C 15.769531 10.480469 16.089844 11.113281 16.339844 11.792969 C 17.074219 10.035156 17.199219 8.078125 16.695312 6.242188 C 15.121094 6.054688 13.136719 6.066406 10.878906 6.113281 Z M 10.878906 6.113281 "/>
<path fill-rule="nonzero" fill="#FFFFFF" fill-opacity="1" d="M 10.625 8.304688 C 8.089844 9.105469 4.808594 13.75 4.105469 15.777344 C 5.945312 16.886719 8.140625 17.261719 10.246094 16.820312 C 10.628906 15.25 10.8125 13.4375 10.8125 11.28125 C 10.8125 10.289062 10.75 9.292969 10.625 8.304688 Z M 10.625 8.304688 "/>
<path fill-rule="nonzero" fill="#FFFFFF" fill-opacity="1" d="M 9.402344 3.421875 C 9.25 3.039062 9.082031 2.664062 8.90625 2.304688 C 8.488281 1.453125 8.019531 0.703125 7.507812 0.0585938 C 5.644531 0.273438 3.90625 1.105469 2.5625 2.417969 C 4.621094 3.039062 7.308594 3.492188 9.402344 3.421875 Z M 9.402344 3.421875 "/>
<path fill-rule="nonzero" fill="#FFFFFF" fill-opacity="1" d="M 10.535156 7.679688 C 10.453125 7.15625 10.355469 6.640625 10.238281 6.132812 C 7.96875 6.230469 5.570312 6.851562 3.457031 7.898438 C 2.132812 8.550781 1.015625 9.324219 0.164062 10.164062 C 0.59375 12.324219 1.839844 14.191406 3.570312 15.425781 C 4 14.300781 4.992188 12.671875 6.167969 11.214844 C 7.117188 10.035156 8.839844 8.167969 10.535156 7.679688 Z M 10.535156 7.679688 "/>
<path fill-rule="nonzero" fill="#FFFFFF" fill-opacity="1" d="M 10.058594 3.382812 C 11.035156 3.289062 11.828125 3.054688 12.289062 2.636719 C 12.625 2.332031 12.894531 1.898438 13.09375 1.347656 C 11.722656 0.464844 10.128906 -0.00390625 8.5 0 C 8.417969 0 8.335938 0 8.257812 0.00390625 C 8.695312 0.605469 9.101562 1.277344 9.46875 2.027344 C 9.683594 2.460938 9.878906 2.914062 10.058594 3.382812 Z M 10.058594 3.382812 "/>
</g>
</svg>
