<?xml version="1.0" encoding="UTF-8" standalone="no"?>
<!-- Created with Inkscape (http://www.inkscape.org/) -->

<svg
   xmlns:dc="http://purl.org/dc/elements/1.1/"
   xmlns:cc="http://creativecommons.org/ns#"
   xmlns:rdf="http://www.w3.org/1999/02/22-rdf-syntax-ns#"
   xmlns:svg="http://www.w3.org/2000/svg"
   xmlns="http://www.w3.org/2000/svg"
   xmlns:xlink="http://www.w3.org/1999/xlink"
   xmlns:sodipodi="http://sodipodi.sourceforge.net/DTD/sodipodi-0.dtd"
   xmlns:inkscape="http://www.inkscape.org/namespaces/inkscape"
   width="30px"
   height="30px"
   version="1.1"
   id="svg8"
   inkscape:version="0.92.4 5da689c313, 2019-01-14"
   sodipodi:docname="container.svg">
  <defs
     id="defs2" />
  <sodipodi:namedview
     id="base"
     pagecolor="#ffffff"
     bordercolor="#666666"
     borderopacity="1.0"
     inkscape:pageopacity="0.0"
     inkscape:pageshadow="2"
     inkscape:zoom="13.049334"
     inkscape:cx="18.679046"
     inkscape:cy="12.165829"
     inkscape:document-units="px"
     inkscape:current-layer="layer1"
     showgrid="false"
     inkscape:snap-page="false"
     units="px"
     inkscape:window-width="1884"
     inkscape:window-height="1061"
     inkscape:window-x="0"
     inkscape:window-y="0"
     inkscape:window-maximized="1"
     fit-margin-top="0"
     fit-margin-left="0"
     fit-margin-right="0"
     fit-margin-bottom="0" />
  <metadata
     id="metadata5">
    <rdf:RDF>
      <cc:Work
         rdf:about="">
        <dc:format>image/svg+xml</dc:format>
        <dc:type
           rdf:resource="http://purl.org/dc/dcmitype/StillImage" />
        <dc:title></dc:title>
      </cc:Work>
    </rdf:RDF>
  </metadata>
    <circle
       style="color:#000000;clip-rule:nonzero;display:inline;overflow:visible;visibility:visible;opacity:1;isolation:auto;mix-blend-mode:normal;color-interpolation:sRGB;color-interpolation-filters:linearRGB;solid-color:#000000;solid-opacity:1;vector-effect:none;fill:#ffffff;fill-opacity:1;fill-rule:evenodd;stroke:#00a757;stroke-width:1;stroke-linecap:butt;stroke-linejoin:miter;stroke-miterlimit:4;stroke-dasharray:none;stroke-dashoffset:0;stroke-opacity:1;marker:none;color-rendering:auto;image-rendering:auto;shape-rendering:auto;text-rendering:auto;enable-background:accumulate"
       id="path815"
       cx="15"
       cy="15"
       r="14.5" />
<g transform="translate(7.0,6.5)"><path fill-rule="nonzero" fill="rgb(30%,30%,30%)" fill-opacity="1" d="M 4.078125 1.152344 C 4.078125 1.789062 3.5625 2.304688 2.925781 2.304688 C 2.292969 2.304688 1.777344 1.789062 1.777344 1.152344 C 1.777344 0.515625 2.292969 0 2.925781 0 C 3.5625 0 4.078125 0.515625 4.078125 1.152344 Z M 15.957031 3.359375 L 8.277344 3.359375 L 8.277344 3.792969 L 15.957031 3.792969 Z M 14.988281 15.894531 C 14.722656 15.882812 14.464844 15.710938 14.164062 15.511719 C 13.71875 15.214844 13.214844 14.878906 12.535156 14.957031 C 12.089844 15.007812 11.765625 15.238281 11.457031 15.460938 C 11.109375 15.710938 10.78125 15.941406 10.257812 15.925781 C 9.96875 15.917969 9.691406 15.75 9.367188 15.550781 C 8.886719 15.257812 8.34375 14.925781 7.597656 14.988281 C 7.167969 15.023438 6.832031 15.238281 6.503906 15.445312 C 6.140625 15.675781 5.796875 15.894531 5.308594 15.894531 C 5.007812 15.894531 4.714844 15.714844 4.371094 15.507812 C 3.9375 15.246094 3.445312 14.949219 2.851562 14.988281 C 2.421875 15.019531 2.007812 15.253906 1.609375 15.480469 C 1.230469 15.691406 0.875 15.894531 0.558594 15.894531 C 0.367188 15.890625 0.179688 15.855469 0 15.785156 L 0.0078125 16.886719 C 0.183594 16.9375 0.371094 16.964844 0.558594 16.964844 C 1.003906 16.964844 1.4375 16.71875 1.859375 16.480469 C 2.222656 16.277344 2.5625 16.082031 2.882812 16.058594 C 3.324219 16.03125 3.707031 16.257812 4.109375 16.503906 C 4.484375 16.730469 4.871094 16.964844 5.308594 16.964844 C 5.941406 16.964844 6.382812 16.683594 6.777344 16.433594 C 7.074219 16.246094 7.332031 16.085938 7.636719 16.058594 C 8.226562 16.011719 8.671875 16.28125 9.101562 16.542969 C 9.457031 16.761719 9.828125 16.988281 10.242188 17 C 10.265625 17 10.285156 17 10.308594 17 C 10.960938 17 11.382812 16.699219 11.757812 16.429688 C 12.035156 16.230469 12.273438 16.0625 12.585938 16.027344 C 13.089844 15.96875 13.472656 16.222656 13.878906 16.492188 C 14.214844 16.71875 14.566406 16.949219 14.96875 16.964844 C 14.996094 16.96875 15.023438 16.96875 15.050781 16.96875 C 15.59375 16.96875 16.085938 16.742188 16.414062 16.542969 L 16.414062 15.367188 C 16.238281 15.503906 15.648438 15.921875 14.988281 15.894531 Z M 14.988281 13.871094 C 14.722656 13.859375 14.464844 13.6875 14.164062 13.488281 C 13.71875 13.191406 13.214844 12.855469 12.535156 12.933594 C 12.089844 12.984375 11.765625 13.214844 11.457031 13.4375 C 11.109375 13.683594 10.78125 13.917969 10.257812 13.902344 C 9.96875 13.894531 9.691406 13.722656 9.367188 13.527344 C 9.304688 13.488281 9.238281 13.449219 9.171875 13.410156 C 9.171875 13.410156 14.550781 12.222656 14.632812 12.203125 C 15.109375 12.09375 15.8125 11.328125 15.8125 11.328125 C 15.980469 11.183594 16.15625 10.824219 16.007812 10.65625 L 15.902344 10.539062 C 15.761719 10.410156 15.585938 10.367188 15.335938 10.652344 L 14.867188 11.160156 C 14.808594 11.214844 14.714844 11.28125 14.585938 11.367188 C 14.578125 11.371094 14.417969 11.46875 14.40625 11.472656 L 13.957031 11.589844 L 8.019531 12.871094 C 8.019531 12.871094 7.132812 8.171875 7.09375 8.125 C 7.046875 7.890625 6.957031 7.710938 6.761719 7.597656 L 5.070312 6.621094 C 5.0625 6.574219 5.054688 6.523438 5.042969 6.476562 L 4.421875 3.96875 L 7.285156 3.96875 C 7.660156 3.96875 7.972656 3.664062 7.964844 3.289062 C 7.957031 2.925781 7.660156 2.636719 7.300781 2.636719 L 2.871094 2.636719 C 2.457031 2.730469 2.121094 3.027344 1.976562 3.425781 C 1.984375 3.46875 1.847656 3.777344 1.953125 4.296875 C 1.953125 4.296875 2.628906 7.09375 2.632812 7.105469 C 2.664062 7.347656 2.761719 7.589844 2.984375 7.714844 L 5.753906 9.316406 L 6.675781 13.316406 C 6.617188 13.351562 6.558594 13.386719 6.503906 13.421875 C 6.140625 13.652344 5.796875 13.871094 5.308594 13.871094 C 5.007812 13.871094 4.714844 13.691406 4.371094 13.484375 C 3.9375 13.222656 3.445312 12.921875 2.851562 12.964844 C 2.421875 12.992188 2.007812 13.226562 1.609375 13.453125 C 1.230469 13.667969 0.875 13.871094 0.558594 13.871094 C 0.367188 13.867188 0.179688 13.832031 0 13.761719 L 0.0078125 14.859375 C 0.183594 14.914062 0.371094 14.941406 0.558594 14.941406 C 1.003906 14.941406 1.4375 14.695312 1.859375 14.457031 C 2.222656 14.25 2.5625 14.054688 2.882812 14.035156 C 3.324219 14.003906 3.707031 14.234375 4.109375 14.480469 C 4.484375 14.707031 4.871094 14.941406 5.308594 14.941406 C 5.941406 14.941406 6.382812 14.660156 6.777344 14.410156 C 7.074219 14.222656 7.332031 14.058594 7.636719 14.035156 C 8.226562 13.984375 8.671875 14.257812 9.101562 14.519531 C 9.457031 14.738281 9.828125 14.960938 10.242188 14.972656 C 10.265625 14.976562 10.285156 14.976562 10.308594 14.976562 C 10.960938 14.976562 11.382812 14.671875 11.757812 14.40625 C 12.035156 14.207031 12.273438 14.035156 12.585938 14 C 13.089844 13.945312 13.472656 14.199219 13.878906 14.46875 C 14.214844 14.691406 14.566406 14.925781 14.96875 14.941406 C 14.996094 14.941406 15.023438 14.945312 15.050781 14.945312 C 15.59375 14.945312 16.085938 14.71875 16.414062 14.515625 L 16.414062 13.339844 C 16.238281 13.480469 15.648438 13.898438 14.988281 13.871094 Z M 14.988281 13.871094 "/>
</g>
</svg>
