<?xml version="1.0" encoding="UTF-8" standalone="no"?>
<!-- Created with Inkscape (http://www.inkscape.org/) -->

<svg
   xmlns:dc="http://purl.org/dc/elements/1.1/"
   xmlns:cc="http://creativecommons.org/ns#"
   xmlns:rdf="http://www.w3.org/1999/02/22-rdf-syntax-ns#"
   xmlns:svg="http://www.w3.org/2000/svg"
   xmlns="http://www.w3.org/2000/svg"
   xmlns:xlink="http://www.w3.org/1999/xlink"
   xmlns:sodipodi="http://sodipodi.sourceforge.net/DTD/sodipodi-0.dtd"
   xmlns:inkscape="http://www.inkscape.org/namespaces/inkscape"
   width="30px"
   height="30px"
   version="1.1"
   id="svg8"
   inkscape:version="0.92.4 5da689c313, 2019-01-14"
   sodipodi:docname="container.svg">
  <defs
     id="defs2" />
  <sodipodi:namedview
     id="base"
     pagecolor="#ffffff"
     bordercolor="#666666"
     borderopacity="1.0"
     inkscape:pageopacity="0.0"
     inkscape:pageshadow="2"
     inkscape:zoom="13.049334"
     inkscape:cx="18.679046"
     inkscape:cy="12.165829"
     inkscape:document-units="px"
     inkscape:current-layer="layer1"
     showgrid="false"
     inkscape:snap-page="false"
     units="px"
     inkscape:window-width="1884"
     inkscape:window-height="1061"
     inkscape:window-x="0"
     inkscape:window-y="0"
     inkscape:window-maximized="1"
     fit-margin-top="0"
     fit-margin-left="0"
     fit-margin-right="0"
     fit-margin-bottom="0" />
  <metadata
     id="metadata5">
    <rdf:RDF>
      <cc:Work
         rdf:about="">
        <dc:format>image/svg+xml</dc:format>
        <dc:type
           rdf:resource="http://purl.org/dc/dcmitype/StillImage" />
        <dc:title></dc:title>
      </cc:Work>
    </rdf:RDF>
  </metadata>
    <circle
       style="color:#000000;clip-rule:nonzero;display:inline;overflow:visible;visibility:visible;opacity:1;isolation:auto;mix-blend-mode:normal;color-interpolation:sRGB;color-interpolation-filters:linearRGB;solid-color:#000000;solid-opacity:1;vector-effect:none;fill:#ffffff;fill-opacity:1;fill-rule:evenodd;stroke:#00a757;stroke-width:1;stroke-linecap:butt;stroke-linejoin:miter;stroke-miterlimit:4;stroke-dasharray:none;stroke-dashoffset:0;stroke-opacity:1;marker:none;color-rendering:auto;image-rendering:auto;shape-rendering:auto;text-rendering:auto;enable-background:accumulate"
       id="path815"
       cx="15"
       cy="15"
       r="14.5" />
<g transform="translate(6.5,9.5)"><path fill-rule="nonzero" fill="rgb(30%,30%,30%)" fill-opacity="1" d="M 16.941406 2.789062 C 16.785156 2.164062 16.351562 1.558594 15.613281 0.9375 C 14.082031 -0.347656 12.554688 -0.308594 11.421875 1.039062 C 10.332031 2.339844 9.816406 4.273438 9.644531 5.042969 C 9.464844 5.839844 9.34375 6.796875 9.4375 7.421875 C 9.375 7.585938 9.3125 7.75 9.25 7.914062 C 9.234375 7.914062 9.222656 7.921875 9.210938 7.933594 L 9.105469 8.058594 C 9.085938 8.082031 9.089844 8.117188 9.109375 8.140625 L 8.5 8.867188 L 7.890625 8.140625 C 7.910156 8.117188 7.914062 8.082031 7.894531 8.058594 L 7.789062 7.933594 C 7.777344 7.921875 7.765625 7.914062 7.75 7.914062 C 7.6875 7.75 7.625 7.585938 7.5625 7.421875 C 7.65625 6.796875 7.535156 5.839844 7.355469 5.042969 C 7.183594 4.273438 6.667969 2.339844 5.578125 1.039062 C 4.445312 -0.308594 2.917969 -0.347656 1.386719 0.9375 C 0.648438 1.558594 0.214844 2.164062 0.0585938 2.789062 C -0.125 3.539062 0.113281 4.3125 0.757812 5.082031 C 1.835938 6.367188 3.675781 7.207031 4.417969 7.507812 C 5.058594 7.769531 5.691406 7.964844 6.203125 8.0625 C 6.234375 8.066406 6.257812 8.070312 6.289062 8.074219 L 6.296875 8.082031 L 6.300781 8.074219 C 6.425781 8.097656 6.554688 8.113281 6.679688 8.121094 C 6.683594 8.128906 6.691406 8.136719 6.695312 8.140625 C 6.847656 8.234375 7 8.324219 7.152344 8.417969 C 7.152344 8.429688 7.15625 8.445312 7.164062 8.457031 L 7.269531 8.582031 C 7.289062 8.605469 7.324219 8.609375 7.351562 8.59375 L 8.042969 9.414062 L 7.355469 10.234375 L 7.3125 10.199219 C 7.289062 10.179688 7.25 10.183594 7.230469 10.207031 L 7.164062 10.285156 C 7.140625 10.3125 7.144531 10.347656 7.171875 10.367188 L 7.792969 10.890625 C 7.816406 10.910156 7.855469 10.90625 7.875 10.882812 L 7.941406 10.804688 C 7.960938 10.777344 7.957031 10.742188 7.933594 10.71875 L 7.890625 10.6875 L 8.5 9.960938 L 9.109375 10.6875 L 9.066406 10.71875 C 9.042969 10.742188 9.039062 10.777344 9.058594 10.804688 L 9.125 10.882812 C 9.148438 10.90625 9.183594 10.910156 9.207031 10.890625 L 9.828125 10.367188 C 9.855469 10.347656 9.859375 10.3125 9.835938 10.285156 L 9.769531 10.207031 C 9.75 10.183594 9.710938 10.179688 9.6875 10.199219 L 9.644531 10.234375 L 8.957031 9.414062 L 9.648438 8.59375 C 9.675781 8.609375 9.710938 8.605469 9.730469 8.582031 L 9.835938 8.457031 C 9.84375 8.445312 9.847656 8.429688 9.847656 8.417969 L 10.304688 8.140625 C 10.308594 8.136719 10.316406 8.128906 10.320312 8.121094 C 10.445312 8.113281 10.574219 8.097656 10.699219 8.074219 L 10.703125 8.082031 L 10.710938 8.074219 C 10.742188 8.070312 10.765625 8.066406 10.796875 8.0625 C 11.308594 7.964844 11.941406 7.769531 12.582031 7.507812 C 13.324219 7.207031 15.164062 6.367188 16.242188 5.082031 C 16.886719 4.3125 17.125 3.539062 16.941406 2.789062 Z M 7.246094 6.296875 L 6.941406 5.691406 L 7.132812 5.53125 C 7.183594 5.8125 7.222656 6.066406 7.246094 6.296875 Z M 7.050781 5.109375 C 7.058594 5.160156 7.066406 5.203125 7.078125 5.25 L 6.828125 5.460938 L 6.410156 4.617188 L 6.828125 4.265625 C 6.910156 4.542969 6.984375 4.820312 7.050781 5.109375 Z M 3.679688 3.867188 L 4.265625 4.566406 L 3.859375 4.910156 L 3.191406 4.277344 Z M 3.007812 4.101562 L 2.339844 3.46875 L 2.929688 2.972656 L 3.519531 3.671875 Z M 3.871094 3.703125 L 4.382812 3.273438 L 4.890625 4.042969 L 4.460938 4.402344 Z M 4.429688 4.757812 L 5.015625 5.457031 L 4.707031 5.71875 L 4.042969 5.082031 Z M 4.621094 4.597656 L 5.03125 4.253906 L 5.539062 5.019531 L 5.207031 5.296875 Z M 5.226562 4.089844 L 5.679688 3.710938 L 6.097656 4.550781 L 5.734375 4.855469 Z M 5.085938 3.878906 L 4.578125 3.113281 L 5.144531 2.636719 L 5.5625 3.480469 Z M 4.4375 2.902344 L 3.929688 2.136719 L 4.609375 1.5625 L 5.027344 2.40625 Z M 4.242188 3.0625 L 3.710938 3.511719 L 3.125 2.8125 L 3.734375 2.296875 Z M 2.960938 2.617188 L 2.375 1.917969 L 3.085938 1.320312 L 3.597656 2.085938 Z M 2.769531 2.78125 L 2.15625 3.292969 L 1.492188 2.660156 L 2.183594 2.082031 Z M 1.964844 3.457031 L 1.257812 4.046875 L 0.5 3.492188 L 1.296875 2.824219 Z M 2.148438 3.628906 L 2.8125 4.265625 L 2.222656 4.761719 L 1.464844 4.203125 Z M 2.996094 4.4375 L 3.664062 5.070312 L 3.1875 5.472656 L 2.429688 4.914062 Z M 3.847656 5.246094 L 4.511719 5.878906 L 4.152344 6.183594 L 3.394531 5.625 Z M 4.695312 6.054688 L 5.363281 6.6875 L 5.117188 6.894531 L 4.359375 6.335938 Z M 4.890625 5.890625 L 5.175781 5.652344 L 5.765625 6.351562 L 5.558594 6.523438 Z M 5.371094 5.488281 L 5.679688 5.230469 L 6.1875 5.996094 L 5.957031 6.1875 Z M 5.875 5.066406 L 6.210938 4.785156 L 6.628906 5.625 L 6.382812 5.832031 Z M 6.75 4.003906 L 6.292969 4.386719 L 5.875 3.542969 L 6.414062 3.09375 C 6.535156 3.382812 6.648438 3.6875 6.75 4.003906 Z M 6.308594 2.851562 L 5.761719 3.3125 L 5.34375 2.46875 L 5.878906 2.019531 C 6.039062 2.289062 6.183594 2.566406 6.308594 2.851562 Z M 5.339844 1.242188 C 5.484375 1.421875 5.621094 1.609375 5.746094 1.804688 L 5.226562 2.238281 L 4.808594 1.398438 L 5.1875 1.082031 C 5.238281 1.132812 5.289062 1.183594 5.339844 1.242188 Z M 5.007812 0.902344 L 4.695312 1.164062 L 4.351562 0.476562 C 4.570312 0.570312 4.789062 0.707031 5.007812 0.902344 Z M 4.496094 1.332031 L 3.789062 1.925781 L 3.28125 1.15625 L 4.078125 0.488281 Z M 3.867188 0.339844 L 3.140625 0.945312 L 2.8125 0.453125 C 3.144531 0.339844 3.5 0.285156 3.867188 0.339844 Z M 2.574219 0.546875 L 2.949219 1.109375 L 2.210938 1.726562 L 1.6875 1.097656 C 1.933594 0.902344 2.234375 0.699219 2.574219 0.546875 Z M 1.496094 1.261719 L 2.019531 1.886719 L 1.308594 2.484375 L 0.796875 2 C 0.976562 1.753906 1.210938 1.507812 1.496094 1.261719 Z M 0.652344 2.210938 L 1.113281 2.648438 L 0.316406 3.316406 C 0.3125 2.945312 0.421875 2.578125 0.652344 2.210938 Z M 0.71875 4.5 C 0.542969 4.230469 0.421875 3.964844 0.359375 3.699219 L 1.058594 4.214844 Z M 1 4.882812 C 0.953125 4.824219 0.90625 4.765625 0.863281 4.707031 L 1.269531 4.367188 L 2.023438 4.925781 L 1.484375 5.378906 C 1.3125 5.222656 1.152344 5.058594 1 4.882812 Z M 1.675781 5.546875 L 2.230469 5.082031 L 2.988281 5.636719 L 2.425781 6.109375 C 2.164062 5.9375 1.914062 5.75 1.675781 5.546875 Z M 2.648438 6.253906 L 3.195312 5.792969 L 3.953125 6.351562 L 3.492188 6.738281 C 3.195312 6.582031 2.914062 6.421875 2.648438 6.253906 Z M 4.671875 7.269531 C 4.625 7.25 4.582031 7.234375 4.535156 7.21875 C 4.261719 7.105469 3.996094 6.984375 3.738281 6.859375 L 4.160156 6.503906 L 4.917969 7.0625 Z M 4.941406 7.371094 L 5.125 7.214844 L 5.648438 7.601562 C 5.433594 7.539062 5.195312 7.464844 4.941406 7.371094 Z M 6.28125 7.757812 L 5.324219 7.050781 L 5.546875 6.863281 L 6.527344 7.792969 C 6.449219 7.785156 6.371094 7.773438 6.28125 7.757812 Z M 6.828125 7.816406 C 6.820312 7.816406 6.816406 7.816406 6.808594 7.816406 L 6.859375 7.761719 L 5.742188 6.699219 L 5.925781 6.542969 L 6.917969 7.722656 C 6.886719 7.753906 6.855469 7.785156 6.828125 7.816406 Z M 7.234375 7.480469 C 7.191406 7.503906 7.148438 7.53125 7.109375 7.5625 L 6.121094 6.382812 L 6.328125 6.207031 L 7.179688 7.492188 L 7.238281 7.457031 C 7.234375 7.464844 7.234375 7.472656 7.234375 7.480469 Z M 7.269531 7.171875 L 6.523438 6.042969 L 6.746094 5.855469 L 7.28125 6.933594 C 7.28125 7.023438 7.277344 7.097656 7.269531 7.171875 Z M 16.203125 2 L 15.691406 2.484375 L 14.980469 1.886719 L 15.503906 1.261719 C 15.789062 1.507812 16.023438 1.753906 16.203125 2 Z M 12.378906 4.597656 L 11.792969 5.296875 L 11.460938 5.019531 L 11.96875 4.253906 Z M 12.109375 4.042969 L 12.617188 3.273438 L 13.128906 3.703125 L 12.539062 4.402344 Z M 12.570312 4.757812 L 12.957031 5.082031 L 12.292969 5.71875 L 11.984375 5.457031 Z M 12.734375 4.566406 L 13.320312 3.867188 L 13.808594 4.277344 L 13.140625 4.910156 Z M 13.480469 3.671875 L 14.070312 2.972656 L 14.660156 3.46875 L 13.992188 4.101562 Z M 14.230469 2.78125 L 14.816406 2.082031 L 15.507812 2.660156 L 14.84375 3.292969 Z M 14.039062 2.617188 L 13.402344 2.085938 L 13.914062 1.320312 L 14.625 1.917969 Z M 13.875 2.8125 L 13.289062 3.511719 L 12.757812 3.0625 L 13.265625 2.296875 Z M 12.5625 2.902344 L 11.972656 2.40625 L 12.390625 1.5625 L 13.070312 2.136719 Z M 12.421875 3.113281 L 11.914062 3.878906 L 11.4375 3.480469 L 11.855469 2.636719 Z M 11.773438 4.089844 L 11.265625 4.855469 L 10.902344 4.550781 L 11.320312 3.710938 Z M 11.125 5.066406 L 10.617188 5.832031 L 10.371094 5.625 L 10.789062 4.785156 Z M 11.320312 5.230469 L 11.628906 5.488281 L 11.042969 6.1875 L 10.8125 5.996094 Z M 11.824219 5.652344 L 12.109375 5.890625 L 11.441406 6.523438 L 11.234375 6.351562 Z M 12.304688 6.054688 L 12.640625 6.335938 L 11.882812 6.894531 L 11.636719 6.6875 Z M 12.488281 5.878906 L 13.152344 5.246094 L 13.605469 5.625 L 12.847656 6.183594 Z M 13.335938 5.070312 L 14.003906 4.4375 L 14.570312 4.914062 L 13.8125 5.472656 Z M 14.1875 4.265625 L 14.851562 3.628906 L 15.535156 4.203125 L 14.777344 4.761719 Z M 15.035156 3.457031 L 15.703125 2.824219 L 16.5 3.492188 L 15.742188 4.046875 Z M 15.3125 1.097656 L 14.789062 1.726562 L 14.050781 1.109375 L 14.425781 0.546875 C 14.765625 0.699219 15.066406 0.902344 15.3125 1.097656 Z M 14.1875 0.453125 L 13.859375 0.945312 L 13.132812 0.339844 C 13.5 0.285156 13.855469 0.339844 14.1875 0.453125 Z M 13.71875 1.15625 L 13.210938 1.925781 L 12.503906 1.332031 L 12.921875 0.488281 Z M 12.648438 0.476562 L 12.304688 1.164062 L 11.992188 0.902344 C 12.210938 0.707031 12.429688 0.570312 12.648438 0.476562 Z M 11.660156 1.242188 C 11.710938 1.183594 11.761719 1.132812 11.8125 1.082031 L 12.191406 1.398438 L 11.773438 2.238281 L 11.253906 1.804688 C 11.378906 1.609375 11.515625 1.421875 11.660156 1.242188 Z M 11.121094 2.019531 L 11.65625 2.46875 L 11.238281 3.3125 L 10.691406 2.851562 C 10.816406 2.566406 10.960938 2.289062 11.121094 2.019531 Z M 10.585938 3.09375 L 11.125 3.542969 L 10.707031 4.386719 L 10.25 4.003906 C 10.351562 3.6875 10.464844 3.382812 10.585938 3.09375 Z M 9.949219 5.109375 C 10.015625 4.820312 10.089844 4.542969 10.171875 4.265625 L 10.589844 4.617188 L 10.171875 5.460938 L 9.921875 5.25 C 9.933594 5.203125 9.941406 5.160156 9.949219 5.109375 Z M 9.867188 5.53125 L 10.058594 5.691406 L 9.753906 6.296875 C 9.777344 6.066406 9.816406 5.8125 9.867188 5.53125 Z M 9.730469 7.171875 C 9.722656 7.097656 9.71875 7.023438 9.71875 6.933594 L 10.253906 5.855469 L 10.476562 6.042969 Z M 9.765625 7.480469 C 9.765625 7.472656 9.765625 7.464844 9.761719 7.457031 L 9.820312 7.492188 L 10.671875 6.207031 L 10.878906 6.382812 L 9.890625 7.5625 C 9.851562 7.53125 9.808594 7.503906 9.765625 7.480469 Z M 10.140625 7.761719 L 10.191406 7.816406 C 10.183594 7.816406 10.179688 7.816406 10.171875 7.816406 C 10.144531 7.785156 10.113281 7.753906 10.082031 7.722656 L 11.074219 6.542969 L 11.257812 6.699219 Z M 10.71875 7.757812 C 10.628906 7.773438 10.550781 7.785156 10.472656 7.792969 L 11.453125 6.863281 L 11.675781 7.050781 Z M 11.351562 7.601562 L 11.875 7.214844 L 12.058594 7.371094 C 11.804688 7.464844 11.566406 7.539062 11.351562 7.601562 Z M 12.464844 7.21875 C 12.417969 7.234375 12.375 7.25 12.328125 7.269531 L 12.082031 7.0625 L 12.839844 6.503906 L 13.261719 6.859375 C 13.003906 6.984375 12.738281 7.105469 12.464844 7.21875 Z M 13.507812 6.738281 L 13.046875 6.351562 L 13.804688 5.792969 L 14.351562 6.253906 C 14.085938 6.421875 13.804688 6.582031 13.507812 6.738281 Z M 14.574219 6.109375 L 14.011719 5.636719 L 14.769531 5.082031 L 15.324219 5.546875 C 15.085938 5.75 14.835938 5.9375 14.574219 6.109375 Z M 16 4.882812 C 15.847656 5.058594 15.6875 5.222656 15.515625 5.378906 L 14.976562 4.925781 L 15.730469 4.367188 L 16.136719 4.707031 C 16.09375 4.765625 16.046875 4.824219 16 4.882812 Z M 16.28125 4.5 L 15.941406 4.214844 L 16.640625 3.699219 C 16.578125 3.964844 16.457031 4.230469 16.28125 4.5 Z M 15.886719 2.648438 L 16.347656 2.210938 C 16.578125 2.578125 16.6875 2.945312 16.683594 3.316406 Z M 8.5 2.125 C 8.835938 2.125 9.109375 1.851562 9.109375 1.515625 C 9.109375 1.175781 8.835938 0.902344 8.5 0.902344 C 8.164062 0.902344 7.890625 1.175781 7.890625 1.515625 C 7.890625 1.851562 8.164062 2.125 8.5 2.125 Z M 8.5 2.125 "/>
</g>
</svg>
