<?xml version="1.0" encoding="UTF-8"?>
<svg xmlns="http://www.w3.org/2000/svg" xmlns:xlink="http://www.w3.org/1999/xlink" width="9.072647" height="11" viewBox="0 0 9.072647 11">
<path fill-rule="nonzero" fill="rgb(30%,30%,30%)" fill-opacity="1" d="M 4.195312 5.75 C 4.195312 6.457031 3.621094 7.027344 2.917969 7.027344 C 2.210938 7.027344 1.640625 6.457031 1.640625 5.75 C 1.640625 5.046875 2.210938 4.472656 2.917969 4.472656 C 3.621094 4.472656 4.195312 5.046875 4.195312 5.75 Z M 4.195312 5.75 "/>
<path fill-rule="nonzero" fill="rgb(30%,30%,30%)" fill-opacity="1" d="M 8.890625 0.0195312 C 8.742188 -0.0390625 8.574219 0.03125 8.511719 0.179688 L 8.414062 0.425781 C 8.410156 0.429688 8.40625 0.4375 8.402344 0.445312 L 4.800781 9.308594 C 4.777344 9.367188 4.714844 9.394531 4.65625 9.375 C 4.050781 9.164062 1.054688 8.171875 1.054688 8.171875 C 0.601562 8.023438 0.101562 8.300781 0.0234375 8.769531 C -0.0117188 8.996094 0.00390625 9.246094 0.00390625 9.523438 L 0.00390625 9.738281 C 0.00390625 10.429688 0.570312 10.992188 1.257812 10.992188 C 1.257812 10.992188 4.5625 11.007812 4.613281 10.992188 C 4.882812 10.988281 7.710938 3.789062 8.585938 1.539062 C 8.589844 1.535156 8.589844 1.535156 8.589844 1.535156 L 9.050781 0.398438 C 9.113281 0.25 9.039062 0.0820312 8.890625 0.0195312 Z M 8.890625 0.0195312 "/>
</svg>
