<?xml version="1.0" encoding="UTF-8"?>
<svg xmlns="http://www.w3.org/2000/svg" xmlns:xlink="http://www.w3.org/1999/xlink" width="11" height="10.983554" viewBox="0 0 11 10.983554">
<path fill-rule="nonzero" fill="rgb(30%,30%,30%)" fill-opacity="1" d="M 1.324219 1.945312 C 2.332031 1.476562 4.429688 1.140625 4.527344 1.367188 C 4.527344 1.367188 4.699219 0.222656 4.710938 0.0546875 C 3.851562 0.179688 3.035156 0.5 2.328125 0.996094 C 1.636719 1.492188 1.253906 1.976562 1.324219 1.945312 Z M 1.324219 1.945312 "/>
<path fill-rule="nonzero" fill="rgb(30%,30%,30%)" fill-opacity="1" d="M 3.683594 4.644531 C 3.683594 4.644531 4.839844 6.019531 4.871094 5.996094 C 6.742188 4.605469 7.457031 1.34375 7.5 0.367188 C 6.886719 0.132812 6.242188 0.0078125 5.585938 0 C 5.242188 3.378906 3.683594 4.644531 3.683594 4.644531 Z M 3.683594 4.644531 "/>
<path fill-rule="nonzero" fill="rgb(30%,30%,30%)" fill-opacity="1" d="M 5.519531 6.554688 L 6.421875 7.167969 L 7.484375 7.707031 C 7.484375 7.707031 9.878906 6.394531 10.183594 2.574219 C 10.183594 2.570312 10.183594 2.570312 10.183594 2.566406 C 10.128906 2.480469 10.070312 2.394531 10.011719 2.3125 C 9.945312 2.222656 9.859375 2.109375 9.761719 1.988281 C 9.34375 1.484375 8.835938 1.0625 8.269531 0.734375 C 8.140625 1.878906 7.621094 4.664062 5.519531 6.554688 Z M 5.519531 6.554688 "/>
<path fill-rule="nonzero" fill="rgb(30%,30%,30%)" fill-opacity="1" d="M 10.902344 4.3125 C 10.882812 4.226562 10.863281 4.140625 10.839844 4.054688 C 10.773438 4.167969 10.445312 5.34375 9.898438 6.339844 C 9.417969 7.207031 8.648438 7.949219 8.457031 8.015625 L 10.253906 8.300781 C 10.300781 8.222656 10.34375 8.144531 10.386719 8.066406 C 10.65625 7.53125 11.226562 6.125 10.902344 4.3125 Z M 10.902344 4.3125 "/>
<path fill-rule="nonzero" fill="rgb(30%,30%,30%)" fill-opacity="1" d="M 9.679688 9.058594 C 4.890625 8.5 2.960938 5.007812 2.960938 5.007812 C 2.960938 5.007812 1.484375 5.367188 1.484375 5.601562 C 1.484375 5.746094 2.539062 7.796875 3.808594 8.714844 C 5.488281 9.933594 7.527344 10.320312 7.996094 10.394531 C 8.203125 10.292969 8.398438 10.175781 8.589844 10.046875 C 8.882812 9.816406 9.242188 9.523438 9.46875 9.316406 C 9.546875 9.238281 9.621094 9.160156 9.691406 9.078125 C 9.695312 9.066406 9.691406 9.058594 9.679688 9.058594 Z M 9.679688 9.058594 "/>
<path fill-rule="nonzero" fill="rgb(30%,30%,30%)" fill-opacity="1" d="M 0.835938 6.160156 L 0.261719 7.222656 C 0.261719 7.222656 0.496094 8.003906 1.117188 8.832031 C 2.167969 10.191406 3.789062 10.984375 5.503906 10.984375 C 5.859375 10.984375 6.214844 10.949219 6.5625 10.882812 C 6.554688 10.882812 6.550781 10.878906 6.546875 10.878906 C 2.257812 9.925781 0.835938 6.160156 0.835938 6.160156 Z M 0.835938 6.160156 "/>
<path fill-rule="nonzero" fill="rgb(30%,30%,30%)" fill-opacity="1" d="M 0.0273438 5.890625 C 1.25 4.214844 2.726562 4.214844 2.960938 4.195312 C 3.195312 4.179688 4.402344 2.167969 4.257812 2.160156 C 2.054688 2.039062 0.402344 3.574219 0.285156 3.683594 C 0.25 3.78125 0.21875 3.882812 0.191406 3.984375 C 0.0585938 4.621094 -0.0507812 5.996094 0.0273438 5.890625 Z M 0.0273438 5.890625 "/>
</svg>
