<?xml version="1.0" encoding="UTF-8"?>
<svg xmlns="http://www.w3.org/2000/svg" xmlns:xlink="http://www.w3.org/1999/xlink" width="8.762204" height="11" viewBox="0 0 8.762204 11">
<path fill-rule="nonzero" fill="rgb(30%,30%,30%)" fill-opacity="1" d="M 8.351562 5.578125 C 8.351562 6.132812 7.902344 6.582031 7.347656 6.582031 C 6.792969 6.582031 6.34375 6.132812 6.34375 5.578125 C 6.34375 5.023438 6.792969 4.574219 7.347656 4.574219 C 7.902344 4.574219 8.351562 5.023438 8.351562 5.578125 Z M 0.203125 1.003906 C 0.546875 1.875 1.371094 2.917969 1.648438 3.136719 C 2.492188 3.804688 3.152344 3.9375 3.507812 4.183594 C 3.898438 4.460938 4.898438 5.207031 4.898438 5.207031 C 4.898438 5.207031 4.984375 6.121094 5.269531 6.613281 C 5.550781 7.109375 6.84375 8.640625 7.214844 8.199219 C 7.585938 7.761719 6.695312 7.566406 6.113281 6.648438 C 5.710938 6.019531 5.699219 5.390625 5.699219 5.390625 C 5.699219 5.390625 6.054688 5.167969 6.152344 4.992188 C 6.25 4.8125 6.210938 4.617188 6.015625 4.253906 C 5.644531 3.558594 4.351562 2.800781 3.894531 2.625 C 3.4375 2.449219 2.976562 2.808594 2.765625 2.703125 C 2.554688 2.597656 1.914062 2.03125 1.710938 1.746094 C 1.367188 1.261719 1.023438 0.414062 0.773438 0.1875 C 0.21875 -0.3125 -0.0429688 0.265625 0.203125 1.003906 Z M 8 9.101562 C 7.859375 9.09375 7.722656 9.007812 7.5625 8.90625 C 7.324219 8.753906 7.054688 8.585938 6.691406 8.625 C 6.457031 8.648438 6.285156 8.765625 6.117188 8.878906 C 5.933594 9.007812 5.757812 9.125 5.480469 9.117188 C 5.324219 9.113281 5.175781 9.027344 5.003906 8.925781 C 4.75 8.777344 4.460938 8.609375 4.0625 8.640625 C 3.832031 8.660156 3.652344 8.769531 3.476562 8.875 C 3.28125 8.992188 3.101562 9.101562 2.839844 9.101562 C 2.679688 9.101562 2.523438 9.011719 2.339844 8.90625 C 2.109375 8.773438 1.847656 8.621094 1.53125 8.640625 C 1.300781 8.65625 1.078125 8.777344 0.867188 8.890625 C 0.664062 9 0.476562 9.101562 0.304688 9.101562 C 0.203125 9.101562 0.105469 9.082031 0.0078125 9.046875 L 0.0117188 9.605469 C 0.109375 9.632812 0.207031 9.644531 0.304688 9.644531 C 0.542969 9.644531 0.777344 9.519531 1 9.398438 C 1.191406 9.296875 1.375 9.195312 1.546875 9.183594 C 1.78125 9.171875 1.984375 9.285156 2.199219 9.410156 C 2.398438 9.527344 2.609375 9.644531 2.839844 9.644531 C 3.175781 9.644531 3.414062 9.503906 3.621094 9.375 C 3.78125 9.28125 3.917969 9.195312 4.082031 9.183594 C 4.394531 9.160156 4.632812 9.296875 4.863281 9.429688 C 5.054688 9.539062 5.25 9.65625 5.472656 9.660156 C 5.484375 9.660156 5.496094 9.660156 5.503906 9.660156 C 5.855469 9.660156 6.078125 9.507812 6.277344 9.371094 C 6.425781 9.269531 6.554688 9.183594 6.722656 9.167969 C 6.988281 9.136719 7.195312 9.265625 7.410156 9.402344 C 7.589844 9.515625 7.777344 9.636719 7.992188 9.644531 C 8.007812 9.644531 8.019531 9.644531 8.035156 9.644531 C 8.324219 9.644531 8.585938 9.527344 8.761719 9.425781 L 8.761719 8.832031 C 8.667969 8.902344 8.355469 9.113281 8 9.101562 Z M 7.992188 10.4375 C 7.851562 10.433594 7.714844 10.34375 7.550781 10.242188 C 7.316406 10.09375 7.046875 9.921875 6.683594 9.960938 C 6.445312 9.988281 6.273438 10.105469 6.109375 10.21875 C 5.925781 10.34375 5.75 10.464844 5.46875 10.457031 C 5.316406 10.453125 5.167969 10.363281 4.996094 10.265625 C 4.738281 10.117188 4.449219 9.949219 4.050781 9.980469 C 3.824219 9.996094 3.640625 10.105469 3.46875 10.210938 C 3.273438 10.328125 3.089844 10.441406 2.832031 10.441406 C 2.671875 10.441406 2.511719 10.347656 2.332031 10.246094 C 2.097656 10.109375 1.835938 9.960938 1.519531 9.980469 C 1.289062 9.996094 1.070312 10.113281 0.859375 10.230469 C 0.65625 10.339844 0.46875 10.441406 0.296875 10.441406 C 0.195312 10.441406 0.09375 10.421875 0 10.386719 L 0.00390625 10.945312 C 0.0976562 10.96875 0.199219 10.984375 0.296875 10.984375 C 0.535156 10.984375 0.765625 10.859375 0.992188 10.738281 C 1.183594 10.632812 1.367188 10.535156 1.539062 10.523438 C 1.773438 10.507812 1.976562 10.625 2.191406 10.75 C 2.390625 10.863281 2.597656 10.984375 2.832031 10.984375 C 3.167969 10.984375 3.40625 10.839844 3.613281 10.714844 C 3.773438 10.617188 3.910156 10.535156 4.074219 10.523438 C 4.386719 10.496094 4.625 10.636719 4.855469 10.769531 C 5.042969 10.878906 5.242188 10.992188 5.460938 11 C 5.472656 11 5.484375 11 5.496094 11 C 5.84375 11 6.070312 10.847656 6.269531 10.710938 C 6.417969 10.609375 6.546875 10.523438 6.710938 10.503906 C 6.980469 10.476562 7.183594 10.605469 7.402344 10.742188 C 7.582031 10.855469 7.765625 10.972656 7.984375 10.980469 C 7.996094 10.984375 8.011719 10.984375 8.027344 10.984375 C 8.316406 10.984375 8.578125 10.867188 8.753906 10.765625 L 8.753906 10.167969 C 8.660156 10.238281 8.34375 10.453125 7.992188 10.4375 Z M 7.992188 10.4375 "/>
</svg>
