<?xml version="1.0" encoding="UTF-8"?>
<svg xmlns="http://www.w3.org/2000/svg" xmlns:xlink="http://www.w3.org/1999/xlink" width="11" height="6.390476" viewBox="0 0 11 6.390476">
<path fill-rule="nonzero" fill="rgb(30%,30%,30%)" fill-opacity="1" d="M 9.097656 0.644531 L 9.097656 5.746094 C 9.097656 6.101562 8.808594 6.390625 8.449219 6.390625 C 8.09375 6.390625 7.804688 6.101562 7.804688 5.746094 L 7.804688 4.015625 L 3.195312 4.015625 L 3.195312 5.746094 C 3.195312 6.101562 2.90625 6.390625 2.550781 6.390625 C 2.191406 6.390625 1.902344 6.101562 1.902344 5.746094 L 1.902344 0.644531 C 1.902344 0.289062 2.191406 0 2.550781 0 C 2.90625 0 3.195312 0.289062 3.195312 0.644531 L 3.195312 2.375 L 7.804688 2.375 L 7.804688 0.644531 C 7.804688 0.289062 8.09375 0 8.449219 0 C 8.808594 0 9.097656 0.289062 9.097656 0.644531 Z M 1.605469 4.835938 L 1.605469 1.554688 C 1.605469 1.285156 1.386719 1.066406 1.117188 1.066406 C 0.847656 1.066406 0.628906 1.285156 0.628906 1.554688 L 0.628906 4.835938 C 0.628906 5.105469 0.847656 5.324219 1.117188 5.324219 C 1.386719 5.324219 1.605469 5.105469 1.605469 4.835938 Z M 10.371094 4.835938 L 10.371094 1.554688 C 10.371094 1.285156 10.152344 1.066406 9.882812 1.066406 C 9.613281 1.066406 9.394531 1.285156 9.394531 1.554688 L 9.394531 4.835938 C 9.394531 5.105469 9.613281 5.324219 9.882812 5.324219 C 10.152344 5.324219 10.371094 5.105469 10.371094 4.835938 Z M 0.417969 3.542969 L 0.417969 2.847656 C 0.417969 2.730469 0.324219 2.636719 0.210938 2.636719 C 0.09375 2.636719 0 2.730469 0 2.847656 L 0 3.542969 C 0 3.660156 0.09375 3.753906 0.210938 3.753906 C 0.324219 3.753906 0.417969 3.660156 0.417969 3.542969 Z M 11 3.542969 L 11 2.847656 C 11 2.730469 10.90625 2.636719 10.789062 2.636719 C 10.675781 2.636719 10.582031 2.730469 10.582031 2.847656 L 10.582031 3.542969 C 10.582031 3.660156 10.675781 3.753906 10.789062 3.753906 C 10.90625 3.753906 11 3.660156 11 3.542969 Z M 11 3.542969 "/>
</svg>
