<?xml version="1.0" encoding="UTF-8"?>
<svg xmlns="http://www.w3.org/2000/svg" xmlns:xlink="http://www.w3.org/1999/xlink" width="11" height="10.964367" viewBox="0 0 11 10.964367">
<path fill-rule="nonzero" fill="rgb(30%,30%,30%)" fill-opacity="1" d="M 2.296875 10.964844 C 1.460938 10.964844 0.804688 10.789062 0.492188 10.476562 C 0.175781 10.164062 0 9.507812 0 8.671875 C 0 8.257812 0.0429688 7.796875 0.136719 7.3125 C 0.648438 7.679688 1.25 8.160156 1.839844 8.746094 C 2.589844 9.496094 3.167969 10.265625 3.558594 10.847656 C 3.140625 10.921875 2.71875 10.960938 2.296875 10.964844 Z M 2.996094 7.59375 C 2.117188 6.714844 1.207031 6.078125 0.605469 5.695312 C 1.027344 4.625 1.675781 3.53125 2.609375 2.601562 C 3.5 1.714844 4.53125 1.085938 5.554688 0.664062 C 6.15625 1.039062 7.09375 1.691406 8.003906 2.601562 C 9.292969 3.886719 10.074219 5.226562 10.265625 5.582031 C 9.847656 6.550781 9.234375 7.523438 8.390625 8.363281 C 7.421875 9.332031 6.28125 9.992188 5.164062 10.40625 C 4.867188 9.898438 4.128906 8.722656 2.996094 7.59375 Z M 3.710938 5.597656 C 3.847656 5.597656 3.972656 5.515625 4.023438 5.390625 C 4.074219 5.265625 4.046875 5.117188 3.949219 5.023438 L 3.527344 4.597656 L 4.015625 4.113281 L 4.4375 4.535156 C 4.570312 4.664062 4.785156 4.664062 4.917969 4.535156 C 5.046875 4.402344 5.046875 4.1875 4.917969 4.054688 L 4.496094 3.632812 L 4.980469 3.144531 L 5.40625 3.566406 C 5.535156 3.699219 5.75 3.699219 5.882812 3.566406 C 6.015625 3.4375 6.015625 3.222656 5.882812 3.089844 L 5.460938 2.667969 L 5.746094 2.382812 C 5.878906 2.25 5.878906 2.035156 5.746094 1.902344 C 5.613281 1.769531 5.402344 1.769531 5.269531 1.902344 L 4.980469 2.1875 L 4.558594 1.765625 C 4.425781 1.632812 4.210938 1.632812 4.082031 1.765625 C 3.949219 1.898438 3.949219 2.113281 4.082031 2.246094 L 4.503906 2.667969 L 4.015625 3.15625 L 3.59375 2.730469 C 3.460938 2.601562 3.246094 2.601562 3.113281 2.730469 C 2.980469 2.863281 2.980469 3.078125 3.113281 3.210938 L 3.539062 3.632812 L 3.050781 4.121094 L 2.625 3.699219 C 2.496094 3.566406 2.28125 3.566406 2.148438 3.699219 C 2.015625 3.832031 2.015625 4.042969 2.148438 4.175781 L 2.570312 4.597656 L 2.308594 4.863281 C 2.175781 4.996094 2.175781 5.210938 2.308594 5.34375 C 2.441406 5.472656 2.652344 5.476562 2.785156 5.34375 L 3.050781 5.078125 L 3.472656 5.5 C 3.535156 5.5625 3.621094 5.597656 3.710938 5.597656 Z M 9.164062 1.449219 C 8.617188 0.902344 8.058594 0.449219 7.570312 0.09375 C 7.945312 0.0351562 8.320312 0 8.699219 0 C 9.539062 0 10.195312 0.175781 10.507812 0.488281 C 10.824219 0.800781 11 1.457031 11 2.289062 C 10.996094 2.714844 10.957031 3.136719 10.882812 3.550781 C 10.492188 2.96875 9.914062 2.199219 9.164062 1.449219 Z M 9.164062 1.449219 "/>
</svg>
