<?xml version="1.0" encoding="UTF-8"?>
<svg xmlns="http://www.w3.org/2000/svg" xmlns:xlink="http://www.w3.org/1999/xlink" width="10.939234" height="11" viewBox="0 0 10.939234 11">
<path fill-rule="nonzero" fill="rgb(30%,30%,30%)" fill-opacity="1" d="M 5.46875 3.90625 C 5.792969 3.90625 6.058594 4.171875 6.058594 4.492188 C 6.058594 4.816406 5.792969 5.082031 5.46875 5.082031 C 5.148438 5.082031 4.882812 4.816406 4.882812 4.492188 C 4.882812 4.171875 5.148438 3.90625 5.46875 3.90625 Z M 6.824219 11 L 6.703125 10.980469 C 6.65625 10.972656 6.625 10.933594 6.632812 10.886719 L 7.417969 5.816406 C 7.425781 5.769531 7.46875 5.742188 7.511719 5.746094 L 7.636719 5.765625 C 7.679688 5.773438 7.710938 5.816406 7.703125 5.859375 L 6.917969 10.929688 C 6.910156 10.976562 6.871094 11.007812 6.824219 11 Z M 4.300781 5.015625 C 4.480469 5.070312 4.585938 5.257812 4.53125 5.441406 L 4.230469 6.472656 C 4.179688 6.652344 3.988281 6.757812 3.808594 6.703125 C 3.625 6.652344 3.523438 6.460938 3.574219 6.28125 L 3.875 5.25 C 3.929688 5.066406 4.121094 4.964844 4.300781 5.015625 Z M 6.917969 6.648438 L 5.890625 6.472656 L 5.578125 5.472656 C 5.570312 5.449219 5.558594 5.429688 5.546875 5.410156 C 5.503906 5.21875 5.316406 5.097656 5.125 5.136719 C 4.992188 5.164062 4.886719 5.265625 4.851562 5.398438 L 3.527344 10.5 C 3.476562 10.6875 3.59375 10.882812 3.78125 10.933594 C 3.972656 10.984375 4.167969 10.867188 4.21875 10.679688 L 4.976562 7.757812 L 5.703125 10.667969 C 5.746094 10.84375 5.925781 10.949219 6.097656 10.90625 L 6.160156 10.890625 C 6.332031 10.847656 6.441406 10.671875 6.394531 10.496094 L 5.441406 6.671875 L 5.460938 6.738281 C 5.5 6.832031 5.582031 6.902344 5.679688 6.929688 L 6.835938 7.125 C 6.96875 7.148438 7.09375 7.058594 7.117188 6.925781 C 7.140625 6.796875 7.050781 6.671875 6.917969 6.648438 Z M 10.9375 2.636719 L 5.566406 0 L 0 2.636719 L 0 4.492188 L 1.171875 3.972656 L 1.171875 10.941406 L 2.34375 10.941406 L 2.34375 3.449219 L 5.566406 2.019531 L 8.59375 3.414062 L 8.59375 10.941406 L 9.765625 10.941406 L 9.765625 3.953125 L 10.9375 4.492188 Z M 10.9375 2.636719 "/>
</svg>
