<?xml version="1.0" encoding="UTF-8"?>
<svg xmlns="http://www.w3.org/2000/svg" xmlns:xlink="http://www.w3.org/1999/xlink" width="11" height="11" viewBox="0 0 11 11">
<path fill-rule="nonzero" fill="rgb(30%,30%,30%)" fill-opacity="1" d="M 5.5 0 C 2.464844 0 0 2.46875 0 5.5 C 0 8.53125 2.46875 11 5.5 11 C 8.53125 11 11 8.53125 11 5.5 C 11 2.46875 8.53125 0 5.5 0 Z M 9.160156 8.257812 L 8.746094 7.394531 L 7.402344 7.84375 L 6.910156 9.175781 L 7.636719 9.558594 C 6.257812 10.285156 4.605469 10.261719 3.25 9.496094 L 3.855469 9.175781 L 3.363281 7.84375 L 2.019531 7.394531 L 1.699219 8.066406 C 1.183594 7.308594 0.910156 6.414062 0.910156 5.5 C 0.914062 5.238281 0.9375 4.976562 0.984375 4.71875 L 1.492188 5.3125 L 2.734375 4.363281 L 2.675781 2.808594 L 1.800781 2.796875 C 2.355469 2.035156 3.132812 1.464844 4.027344 1.160156 L 3.734375 1.667969 L 5.472656 2.386719 L 7.207031 1.675781 L 6.898438 1.136719 C 7.820312 1.433594 8.621094 2.015625 9.191406 2.792969 L 8.265625 2.808594 L 8.207031 4.363281 L 9.453125 5.3125 L 10.003906 4.667969 C 10.054688 4.941406 10.082031 5.21875 10.082031 5.5 C 10.085938 6.535156 9.738281 7.488281 9.160156 8.257812 Z M 9.160156 8.257812 "/>
<path fill-rule="nonzero" fill="rgb(30%,30%,30%)" fill-opacity="1" d="M 3.738281 4.910156 L 4.402344 6.894531 L 6.546875 6.894531 L 7.210938 4.894531 L 5.476562 3.675781 Z M 3.738281 4.910156 "/>
</svg>
