<?xml version="1.0" encoding="UTF-8"?>
<svg xmlns="http://www.w3.org/2000/svg" xmlns:xlink="http://www.w3.org/1999/xlink" width="9.293222" height="11" viewBox="0 0 9.293222 11">
<path fill-rule="nonzero" fill="rgb(30%,30%,30%)" fill-opacity="1" d="M 5.929688 1.207031 C 5.929688 0.539062 5.363281 0 4.664062 0 C 3.964844 0 3.398438 0.539062 3.398438 1.207031 C 3.398438 1.574219 3.5625 2.148438 3.828125 2.589844 L 5.464844 2.589844 C 5.75 2.148438 5.929688 1.574219 5.929688 1.207031 Z M 5.929688 1.207031 "/>
<path fill-rule="nonzero" fill="rgb(30%,30%,30%)" fill-opacity="1" d="M 5.648438 4.316406 L 3.824219 4.316406 C 3.539062 5.367188 2.640625 6.808594 2.640625 7.863281 C 2.640625 9.222656 3.449219 10.609375 4.226562 10.996094 L 5.207031 10.996094 C 5.988281 10.609375 6.78125 9.222656 6.78125 7.863281 C 6.78125 6.789062 5.960938 5.328125 5.648438 4.316406 Z M 5.648438 4.316406 "/>
<path fill-rule="nonzero" fill="rgb(30%,30%,30%)" fill-opacity="1" d="M 5.371094 3.695312 C 5.355469 3.585938 5.34375 3.476562 5.34375 3.363281 C 5.34375 3.308594 5.347656 3.25 5.351562 3.195312 L 3.917969 3.195312 C 3.921875 3.261719 3.925781 3.324219 3.925781 3.390625 C 3.925781 3.492188 3.921875 3.59375 3.90625 3.695312 Z M 5.371094 3.695312 "/>
<path fill-rule="nonzero" fill="rgb(30%,30%,30%)" fill-opacity="1" d="M 8.507812 2.414062 C 8.507812 1.804688 7.941406 1.3125 7.238281 1.3125 C 6.539062 1.3125 5.972656 1.804688 5.972656 2.414062 C 5.972656 2.75 6.136719 3.273438 6.40625 3.675781 L 8.042969 3.675781 C 8.324219 3.273438 8.507812 2.75 8.507812 2.414062 Z M 8.507812 2.414062 "/>
<path fill-rule="nonzero" fill="rgb(30%,30%,30%)" fill-opacity="1" d="M 7.949219 4.683594 C 7.929688 4.585938 7.921875 4.484375 7.921875 4.382812 C 7.921875 4.332031 7.921875 4.277344 7.929688 4.230469 L 6.492188 4.230469 C 6.5 4.289062 6.5 4.347656 6.5 4.40625 C 6.5 4.5 6.496094 4.59375 6.484375 4.683594 Z M 7.949219 4.683594 "/>
<path fill-rule="nonzero" fill="rgb(30%,30%,30%)" fill-opacity="1" d="M 3.355469 2.414062 C 3.355469 1.804688 2.789062 1.3125 2.089844 1.3125 C 1.390625 1.3125 0.820312 1.804688 0.820312 2.414062 C 0.820312 2.75 0.988281 3.273438 1.253906 3.675781 L 2.890625 3.675781 C 3.171875 3.273438 3.355469 2.75 3.355469 2.414062 Z M 3.355469 2.414062 "/>
<path fill-rule="nonzero" fill="rgb(30%,30%,30%)" fill-opacity="1" d="M 2.796875 4.683594 C 2.78125 4.585938 2.769531 4.484375 2.769531 4.382812 C 2.769531 4.332031 2.773438 4.277344 2.777344 4.230469 L 1.339844 4.230469 C 1.347656 4.289062 1.351562 4.347656 1.351562 4.40625 C 1.351562 4.5 1.34375 4.59375 1.332031 4.683594 Z M 2.796875 4.683594 "/>
<path fill-rule="nonzero" fill="rgb(30%,30%,30%)" fill-opacity="1" d="M 5.929688 1.207031 C 5.929688 0.539062 5.363281 0 4.664062 0 C 3.964844 0 3.398438 0.539062 3.398438 1.207031 C 3.398438 1.574219 3.5625 2.148438 3.828125 2.589844 L 5.464844 2.589844 C 5.75 2.148438 5.929688 1.574219 5.929688 1.207031 Z M 5.929688 1.207031 "/>
<path fill-rule="nonzero" fill="rgb(30%,30%,30%)" fill-opacity="1" d="M 8.160156 5.25 L 6.335938 5.25 C 6.332031 5.253906 6.332031 5.257812 6.332031 5.261719 C 6.335938 5.277344 6.339844 5.289062 6.347656 5.304688 C 6.691406 6.132812 7.078125 7.074219 7.078125 7.863281 C 7.078125 9.085938 6.4375 10.433594 5.738281 10.996094 C 6.058594 11.003906 7.976562 10.996094 7.976562 10.996094 C 8.761719 10.644531 9.292969 9.730469 9.292969 8.488281 C 9.292969 7.507812 8.472656 6.171875 8.160156 5.25 Z M 8.160156 5.25 "/>
<path fill-rule="nonzero" fill="rgb(30%,30%,30%)" fill-opacity="1" d="M 2.625 9.75 C 2.355469 9.21875 2.214844 8.566406 2.214844 7.863281 C 2.214844 7.140625 2.570312 6.3125 2.917969 5.507812 C 2.953125 5.429688 2.984375 5.351562 3.019531 5.273438 C 3.015625 5.265625 3.011719 5.257812 3.007812 5.25 L 1.183594 5.25 C 0.898438 6.210938 0 7.527344 0 8.488281 C 0 9.730469 0.554688 10.644531 1.335938 10.996094 C 1.335938 10.996094 3.292969 11.003906 3.589844 10.996094 C 3.304688 10.765625 2.808594 10.121094 2.625 9.75 Z M 2.625 9.75 "/>
<path fill-rule="nonzero" fill="rgb(30%,30%,30%)" fill-opacity="1" d="M 5.371094 3.695312 C 5.355469 3.585938 5.34375 3.476562 5.34375 3.363281 C 5.34375 3.308594 5.347656 3.25 5.351562 3.195312 L 3.917969 3.195312 C 3.921875 3.261719 3.925781 3.324219 3.925781 3.390625 C 3.925781 3.492188 3.921875 3.59375 3.90625 3.695312 Z M 5.371094 3.695312 "/>
</svg>
