<?xml version="1.0" encoding="UTF-8"?>
<svg xmlns="http://www.w3.org/2000/svg" xmlns:xlink="http://www.w3.org/1999/xlink" width="11" height="10.085995" viewBox="0 0 11 10.085995">
<path fill-rule="nonzero" fill="rgb(30%,30%,30%)" fill-opacity="1" d="M 4.5 3.476562 C 4.5 3.664062 4.554688 3.851562 4.660156 4.007812 L 0 4.007812 L 0 2.59375 L 4.644531 2.59375 C 4.546875 2.742188 4.5 2.917969 4.5 3.097656 Z M 11 2.59375 L 8.089844 2.59375 C 8.1875 2.742188 8.234375 2.917969 8.234375 3.097656 L 8.234375 3.476562 C 8.234375 3.664062 8.179688 3.851562 8.074219 4.007812 L 11 4.007812 Z M 7.828125 2.59375 C 7.652344 2.3125 7.347656 2.144531 7.019531 2.144531 L 6.535156 2.144531 C 7.097656 2.066406 7.5 1.566406 7.460938 1.003906 C 7.421875 0.4375 6.953125 0 6.386719 0 C 5.820312 0 5.351562 0.4375 5.3125 1.003906 C 5.273438 1.566406 5.675781 2.066406 6.238281 2.144531 L 5.75 2.144531 C 5.226562 2.144531 4.800781 2.570312 4.800781 3.097656 L 4.800781 3.476562 C 4.800781 3.871094 5.042969 4.226562 5.414062 4.363281 L 5.695312 7.539062 C 5.5 7.605469 5.371094 7.789062 5.371094 7.996094 L 5.371094 8.894531 L 7.378906 8.894531 L 7.378906 7.996094 C 7.378906 7.820312 7.28125 7.65625 7.125 7.570312 L 7.398438 4.347656 C 7.746094 4.195312 7.972656 3.855469 7.972656 3.476562 L 7.972656 3.097656 C 7.972656 2.917969 7.921875 2.742188 7.828125 2.59375 Z M 2.894531 8.070312 C 2.339844 8.070312 1.886719 8.519531 1.886719 9.078125 C 1.886719 9.632812 2.339844 10.085938 2.894531 10.085938 C 3.453125 10.085938 3.902344 9.632812 3.902344 9.078125 C 3.902344 8.519531 3.453125 8.070312 2.894531 8.070312 Z M 2.894531 8.070312 "/>
</svg>
