<?xml version="1.0" encoding="UTF-8" standalone="no"?>
<!-- Created with Inkscape (http://www.inkscape.org/) -->

<svg
   xmlns:dc="http://purl.org/dc/elements/1.1/"
   xmlns:cc="http://creativecommons.org/ns#"
   xmlns:rdf="http://www.w3.org/1999/02/22-rdf-syntax-ns#"
   xmlns:svg="http://www.w3.org/2000/svg"
   xmlns="http://www.w3.org/2000/svg"
   xmlns:xlink="http://www.w3.org/1999/xlink"
   xmlns:sodipodi="http://sodipodi.sourceforge.net/DTD/sodipodi-0.dtd"
   xmlns:inkscape="http://www.inkscape.org/namespaces/inkscape"
   width="30px"
   height="30px"
   version="1.1"
   id="svg8"
   inkscape:version="0.92.4 5da689c313, 2019-01-14"
   sodipodi:docname="container.svg">
  <defs
     id="defs2" />
  <sodipodi:namedview
     id="base"
     pagecolor="#ffffff"
     bordercolor="#666666"
     borderopacity="1.0"
     inkscape:pageopacity="0.0"
     inkscape:pageshadow="2"
     inkscape:zoom="13.049334"
     inkscape:cx="18.679046"
     inkscape:cy="12.165829"
     inkscape:document-units="px"
     inkscape:current-layer="layer1"
     showgrid="false"
     inkscape:snap-page="false"
     units="px"
     inkscape:window-width="1884"
     inkscape:window-height="1061"
     inkscape:window-x="0"
     inkscape:window-y="0"
     inkscape:window-maximized="1"
     fit-margin-top="0"
     fit-margin-left="0"
     fit-margin-right="0"
     fit-margin-bottom="0" />
  <metadata
     id="metadata5">
    <rdf:RDF>
      <cc:Work
         rdf:about="">
        <dc:format>image/svg+xml</dc:format>
        <dc:type
           rdf:resource="http://purl.org/dc/dcmitype/StillImage" />
        <dc:title></dc:title>
      </cc:Work>
    </rdf:RDF>
  </metadata>
    <circle
       style="color:#000000;clip-rule:nonzero;display:inline;overflow:visible;visibility:visible;opacity:1;isolation:auto;mix-blend-mode:normal;color-interpolation:sRGB;color-interpolation-filters:linearRGB;solid-color:#000000;solid-opacity:1;vector-effect:none;fill:#ffffff;fill-opacity:1;fill-rule:evenodd;stroke:#00a757;stroke-width:1;stroke-linecap:butt;stroke-linejoin:miter;stroke-miterlimit:4;stroke-dasharray:none;stroke-dashoffset:0;stroke-opacity:1;marker:none;color-rendering:auto;image-rendering:auto;shape-rendering:auto;text-rendering:auto;enable-background:accumulate"
       id="path815"
       cx="15"
       cy="15"
       r="14.5" />
<g transform="translate(6.5,6.5)"><path fill-rule="nonzero" fill="rgb(30%,30%,30%)" fill-opacity="1" d="M 15.285156 2.09375 C 14.769531 1.503906 12.339844 -0.972656 9.191406 0.417969 C 5.664062 1.976562 5.15625 7.953125 5.023438 8.636719 C 4.898438 9.28125 4.625 11.03125 4.21875 11.589844 C 4.367188 11.84375 4.671875 12.226562 5.261719 12.578125 C 6.046875 12.0625 8.527344 11.773438 9.894531 11.46875 C 12.675781 10.847656 15.269531 10.0625 16.308594 8.1875 C 18.109375 4.929688 15.890625 2.777344 15.285156 2.09375 Z M 12.527344 4.921875 C 12.6875 4.921875 12.8125 5.050781 12.8125 5.207031 C 12.8125 5.367188 12.6875 5.492188 12.527344 5.492188 C 12.371094 5.492188 12.246094 5.367188 12.246094 5.207031 C 12.246094 5.050781 12.371094 4.921875 12.527344 4.921875 Z M 12.246094 3.859375 C 12.246094 3.703125 12.375 3.574219 12.53125 3.574219 C 12.691406 3.574219 12.816406 3.703125 12.816406 3.859375 C 12.816406 4.019531 12.691406 4.144531 12.53125 4.144531 C 12.375 4.144531 12.246094 4.019531 12.246094 3.859375 Z M 10.507812 2.921875 C 10.664062 2.921875 10.792969 3.050781 10.792969 3.207031 C 10.792969 3.363281 10.664062 3.492188 10.507812 3.492188 C 10.347656 3.492188 10.222656 3.363281 10.222656 3.207031 C 10.222656 3.050781 10.347656 2.921875 10.507812 2.921875 Z M 9.839844 2.253906 C 9.996094 2.253906 10.125 2.382812 10.125 2.539062 C 10.125 2.699219 9.996094 2.824219 9.839844 2.824219 C 9.683594 2.824219 9.554688 2.699219 9.554688 2.539062 C 9.554688 2.382812 9.683594 2.253906 9.839844 2.253906 Z M 7.484375 10.75 C 6.664062 11.570312 5.40625 11.582031 5.332031 11.515625 C 5.257812 11.453125 5.152344 10.414062 5.859375 9.644531 C 5.996094 9.492188 5.984375 9.441406 6.128906 9.324219 C 6.128906 9.324219 6.511719 9.257812 6.949219 9.527344 C 7.382812 9.792969 7.46875 10.144531 7.46875 10.144531 C 7.519531 10.378906 7.550781 10.679688 7.484375 10.75 Z M 7.757812 7.59375 C 7.597656 7.59375 7.472656 7.464844 7.472656 7.308594 C 7.472656 7.152344 7.597656 7.023438 7.757812 7.023438 C 7.914062 7.023438 8.042969 7.152344 8.042969 7.308594 C 8.042969 7.464844 7.914062 7.59375 7.757812 7.59375 Z M 7.757812 6.238281 C 7.601562 6.238281 7.476562 6.113281 7.476562 5.953125 C 7.476562 5.796875 7.601562 5.671875 7.757812 5.671875 C 7.917969 5.671875 8.042969 5.796875 8.042969 5.953125 C 8.042969 6.113281 7.917969 6.238281 7.757812 6.238281 Z M 7.785156 4.878906 C 7.628906 4.878906 7.503906 4.75 7.503906 4.59375 C 7.503906 4.433594 7.628906 4.308594 7.785156 4.308594 C 7.945312 4.308594 8.070312 4.433594 8.070312 4.59375 C 8.070312 4.75 7.945312 4.878906 7.785156 4.878906 Z M 8.421875 8.257812 C 8.265625 8.257812 8.136719 8.128906 8.136719 7.972656 C 8.136719 7.816406 8.265625 7.6875 8.421875 7.6875 C 8.578125 7.6875 8.707031 7.816406 8.707031 7.972656 C 8.707031 8.128906 8.578125 8.257812 8.421875 8.257812 Z M 8.433594 6.914062 C 8.277344 6.914062 8.148438 6.789062 8.148438 6.628906 C 8.148438 6.472656 8.277344 6.34375 8.433594 6.34375 C 8.59375 6.34375 8.71875 6.472656 8.71875 6.628906 C 8.71875 6.789062 8.59375 6.914062 8.433594 6.914062 Z M 8.453125 5.542969 C 8.296875 5.542969 8.167969 5.417969 8.167969 5.261719 C 8.167969 5.101562 8.296875 4.976562 8.453125 4.976562 C 8.613281 4.976562 8.738281 5.101562 8.738281 5.261719 C 8.738281 5.417969 8.613281 5.542969 8.453125 5.542969 Z M 8.480469 4.183594 C 8.324219 4.183594 8.195312 4.054688 8.195312 3.898438 C 8.195312 3.742188 8.324219 3.613281 8.480469 3.613281 C 8.640625 3.613281 8.765625 3.742188 8.765625 3.898438 C 8.765625 4.054688 8.640625 4.183594 8.480469 4.183594 Z M 9.105469 8.917969 C 8.945312 8.917969 8.820312 8.789062 8.820312 8.632812 C 8.820312 8.476562 8.945312 8.347656 9.105469 8.347656 C 9.261719 8.347656 9.386719 8.476562 9.386719 8.632812 C 9.386719 8.789062 9.261719 8.917969 9.105469 8.917969 Z M 8.8125 7.292969 C 8.8125 7.136719 8.941406 7.007812 9.097656 7.007812 C 9.257812 7.007812 9.382812 7.136719 9.382812 7.292969 C 9.382812 7.453125 9.257812 7.578125 9.097656 7.578125 C 8.941406 7.578125 8.8125 7.453125 8.8125 7.292969 Z M 9.128906 6.21875 C 8.972656 6.21875 8.84375 6.09375 8.84375 5.933594 C 8.84375 5.777344 8.972656 5.652344 9.128906 5.652344 C 9.285156 5.652344 9.414062 5.777344 9.414062 5.933594 C 9.414062 6.09375 9.285156 6.21875 9.128906 6.21875 Z M 9.148438 4.851562 C 8.992188 4.851562 8.863281 4.722656 8.863281 4.566406 C 8.863281 4.40625 8.992188 4.28125 9.148438 4.28125 C 9.304688 4.28125 9.433594 4.40625 9.433594 4.566406 C 9.433594 4.722656 9.304688 4.851562 9.148438 4.851562 Z M 9.175781 3.488281 C 9.019531 3.488281 8.890625 3.359375 8.890625 3.203125 C 8.890625 3.046875 9.019531 2.917969 9.175781 2.917969 C 9.332031 2.917969 9.460938 3.046875 9.460938 3.203125 C 9.460938 3.359375 9.332031 3.488281 9.175781 3.488281 Z M 9.769531 9.585938 C 9.613281 9.585938 9.488281 9.457031 9.488281 9.300781 C 9.488281 9.144531 9.613281 9.015625 9.769531 9.015625 C 9.929688 9.015625 10.054688 9.144531 10.054688 9.300781 C 10.054688 9.457031 9.929688 9.585938 9.769531 9.585938 Z M 9.78125 8.238281 C 9.625 8.238281 9.496094 8.113281 9.496094 7.957031 C 9.496094 7.796875 9.625 7.671875 9.78125 7.671875 C 9.9375 7.671875 10.066406 7.796875 10.066406 7.957031 C 10.066406 8.113281 9.9375 8.238281 9.78125 8.238281 Z M 9.792969 6.882812 C 9.636719 6.882812 9.507812 6.757812 9.507812 6.597656 C 9.507812 6.441406 9.636719 6.316406 9.792969 6.316406 C 9.949219 6.316406 10.078125 6.441406 10.078125 6.597656 C 10.078125 6.757812 9.949219 6.882812 9.792969 6.882812 Z M 9.824219 5.523438 C 9.667969 5.523438 9.539062 5.398438 9.539062 5.238281 C 9.539062 5.082031 9.667969 4.957031 9.824219 4.957031 C 9.980469 4.957031 10.109375 5.082031 10.109375 5.238281 C 10.109375 5.398438 9.980469 5.523438 9.824219 5.523438 Z M 9.84375 4.15625 C 9.6875 4.15625 9.558594 4.027344 9.558594 3.871094 C 9.558594 3.714844 9.6875 3.585938 9.84375 3.585938 C 10 3.585938 10.128906 3.714844 10.128906 3.871094 C 10.128906 4.027344 10 4.15625 9.84375 4.15625 Z M 10.449219 8.90625 C 10.292969 8.90625 10.164062 8.78125 10.164062 8.621094 C 10.164062 8.464844 10.292969 8.339844 10.449219 8.339844 C 10.605469 8.339844 10.734375 8.464844 10.734375 8.621094 C 10.734375 8.78125 10.605469 8.90625 10.449219 8.90625 Z M 10.476562 7.546875 C 10.320312 7.546875 10.191406 7.417969 10.191406 7.261719 C 10.191406 7.105469 10.320312 6.976562 10.476562 6.976562 C 10.632812 6.976562 10.761719 7.105469 10.761719 7.261719 C 10.761719 7.417969 10.632812 7.546875 10.476562 7.546875 Z M 10.488281 6.1875 C 10.332031 6.1875 10.203125 6.0625 10.203125 5.90625 C 10.203125 5.746094 10.332031 5.621094 10.488281 5.621094 C 10.644531 5.621094 10.773438 5.746094 10.773438 5.90625 C 10.773438 6.0625 10.644531 6.1875 10.488281 6.1875 Z M 10.519531 4.828125 C 10.363281 4.828125 10.234375 4.703125 10.234375 4.546875 C 10.234375 4.386719 10.363281 4.261719 10.519531 4.261719 C 10.675781 4.261719 10.804688 4.386719 10.804688 4.546875 C 10.804688 4.703125 10.675781 4.828125 10.519531 4.828125 Z M 11.125 9.582031 C 10.96875 9.582031 10.839844 9.457031 10.839844 9.296875 C 10.839844 9.140625 10.96875 9.011719 11.125 9.011719 C 11.28125 9.011719 11.410156 9.140625 11.410156 9.296875 C 11.410156 9.457031 11.28125 9.582031 11.125 9.582031 Z M 11.144531 8.210938 C 10.988281 8.210938 10.859375 8.085938 10.859375 7.929688 C 10.859375 7.769531 10.988281 7.644531 11.144531 7.644531 C 11.300781 7.644531 11.429688 7.769531 11.429688 7.929688 C 11.429688 8.085938 11.300781 8.210938 11.144531 8.210938 Z M 11.171875 6.851562 C 11.015625 6.851562 10.886719 6.722656 10.886719 6.566406 C 10.886719 6.410156 11.015625 6.28125 11.171875 6.28125 C 11.328125 6.28125 11.457031 6.410156 11.457031 6.566406 C 11.457031 6.722656 11.328125 6.851562 11.171875 6.851562 Z M 11.183594 5.496094 C 11.027344 5.496094 10.898438 5.367188 10.898438 5.210938 C 10.898438 5.050781 11.027344 4.925781 11.183594 4.925781 C 11.339844 4.925781 11.46875 5.050781 11.46875 5.210938 C 11.46875 5.367188 11.339844 5.496094 11.183594 5.496094 Z M 10.898438 3.882812 C 10.898438 3.726562 11.023438 3.597656 11.183594 3.597656 C 11.339844 3.597656 11.464844 3.726562 11.464844 3.882812 C 11.464844 4.039062 11.339844 4.167969 11.183594 4.167969 C 11.023438 4.167969 10.898438 4.039062 10.898438 3.882812 Z M 11.191406 2.804688 C 11.035156 2.804688 10.910156 2.679688 10.910156 2.519531 C 10.910156 2.363281 11.035156 2.238281 11.191406 2.238281 C 11.351562 2.238281 11.476562 2.363281 11.476562 2.519531 C 11.476562 2.679688 11.351562 2.804688 11.191406 2.804688 Z M 11.820312 8.886719 C 11.660156 8.886719 11.535156 8.761719 11.535156 8.601562 C 11.535156 8.445312 11.660156 8.320312 11.820312 8.320312 C 11.976562 8.320312 12.105469 8.445312 12.105469 8.601562 C 12.105469 8.761719 11.976562 8.886719 11.820312 8.886719 Z M 11.839844 7.519531 C 11.679688 7.519531 11.554688 7.390625 11.554688 7.234375 C 11.554688 7.074219 11.679688 6.949219 11.839844 6.949219 C 11.996094 6.949219 12.125 7.074219 12.125 7.234375 C 12.125 7.390625 11.996094 7.519531 11.839844 7.519531 Z M 11.867188 6.15625 C 11.710938 6.15625 11.582031 6.027344 11.582031 5.871094 C 11.582031 5.714844 11.710938 5.585938 11.867188 5.585938 C 12.023438 5.585938 12.152344 5.714844 12.152344 5.871094 C 12.152344 6.027344 12.023438 6.15625 11.867188 6.15625 Z M 11.5625 4.546875 C 11.5625 4.390625 11.6875 4.261719 11.847656 4.261719 C 12.003906 4.261719 12.128906 4.390625 12.128906 4.546875 C 12.128906 4.703125 12.003906 4.832031 11.847656 4.832031 C 11.6875 4.832031 11.5625 4.703125 11.5625 4.546875 Z M 11.867188 3.480469 C 11.710938 3.480469 11.582031 3.355469 11.582031 3.195312 C 11.582031 3.039062 11.710938 2.910156 11.867188 2.910156 C 12.027344 2.910156 12.152344 3.039062 12.152344 3.195312 C 12.152344 3.355469 12.027344 3.480469 11.867188 3.480469 Z M 12.484375 9.550781 C 12.328125 9.550781 12.199219 9.425781 12.199219 9.269531 C 12.199219 9.109375 12.328125 8.984375 12.484375 8.984375 C 12.640625 8.984375 12.769531 9.109375 12.769531 9.269531 C 12.769531 9.425781 12.640625 9.550781 12.484375 9.550781 Z M 12.515625 8.191406 C 12.355469 8.191406 12.230469 8.066406 12.230469 7.910156 C 12.230469 7.75 12.355469 7.625 12.515625 7.625 C 12.671875 7.625 12.796875 7.75 12.796875 7.910156 C 12.796875 8.066406 12.671875 8.191406 12.515625 8.191406 Z M 12.535156 6.824219 C 12.375 6.824219 12.25 6.695312 12.25 6.539062 C 12.25 6.382812 12.375 6.253906 12.535156 6.253906 C 12.691406 6.253906 12.816406 6.382812 12.816406 6.539062 C 12.816406 6.695312 12.691406 6.824219 12.535156 6.824219 Z M 12.578125 2.769531 C 12.421875 2.769531 12.296875 2.640625 12.296875 2.484375 C 12.296875 2.328125 12.421875 2.199219 12.578125 2.199219 C 12.738281 2.199219 12.863281 2.328125 12.863281 2.484375 C 12.863281 2.640625 12.738281 2.769531 12.578125 2.769531 Z M 13.179688 8.859375 C 13.019531 8.859375 12.894531 8.730469 12.894531 8.574219 C 12.894531 8.414062 13.019531 8.289062 13.179688 8.289062 C 13.335938 8.289062 13.464844 8.414062 13.464844 8.574219 C 13.464844 8.730469 13.335938 8.859375 13.179688 8.859375 Z M 13.207031 7.5 C 13.050781 7.5 12.925781 7.371094 12.925781 7.214844 C 12.925781 7.054688 13.050781 6.929688 13.207031 6.929688 C 13.367188 6.929688 13.492188 7.054688 13.492188 7.214844 C 13.492188 7.371094 13.367188 7.5 13.207031 7.5 Z M 12.910156 5.875 C 12.910156 5.71875 13.039062 5.589844 13.195312 5.589844 C 13.351562 5.589844 13.480469 5.71875 13.480469 5.875 C 13.480469 6.03125 13.351562 6.160156 13.195312 6.160156 C 13.039062 6.160156 12.910156 6.03125 12.910156 5.875 Z M 13.214844 4.804688 C 13.058594 4.804688 12.929688 4.679688 12.929688 4.523438 C 12.929688 4.363281 13.058594 4.238281 13.214844 4.238281 C 13.371094 4.238281 13.5 4.363281 13.5 4.523438 C 13.5 4.679688 13.371094 4.804688 13.214844 4.804688 Z M 13.246094 3.433594 C 13.085938 3.433594 12.960938 3.304688 12.960938 3.148438 C 12.960938 2.992188 13.085938 2.863281 13.246094 2.863281 C 13.402344 2.863281 13.527344 2.992188 13.527344 3.148438 C 13.527344 3.304688 13.402344 3.433594 13.246094 3.433594 Z M 13.875 8.164062 C 13.714844 8.164062 13.589844 8.035156 13.589844 7.878906 C 13.589844 7.722656 13.714844 7.59375 13.875 7.59375 C 14.03125 7.59375 14.15625 7.722656 14.15625 7.878906 C 14.15625 8.035156 14.03125 8.164062 13.875 8.164062 Z M 13.585938 6.550781 C 13.585938 6.394531 13.714844 6.265625 13.871094 6.265625 C 14.027344 6.265625 14.15625 6.394531 14.15625 6.550781 C 14.15625 6.707031 14.027344 6.835938 13.871094 6.835938 C 13.714844 6.835938 13.585938 6.707031 13.585938 6.550781 Z M 13.882812 5.472656 C 13.726562 5.472656 13.597656 5.347656 13.597656 5.1875 C 13.597656 5.03125 13.726562 4.90625 13.882812 4.90625 C 14.039062 4.90625 14.167969 5.03125 14.167969 5.1875 C 14.167969 5.347656 14.039062 5.472656 13.882812 5.472656 Z M 13.925781 4.09375 C 13.769531 4.09375 13.640625 3.96875 13.640625 3.808594 C 13.640625 3.652344 13.769531 3.527344 13.925781 3.527344 C 14.085938 3.527344 14.210938 3.652344 14.210938 3.808594 C 14.210938 3.96875 14.085938 4.09375 13.925781 4.09375 Z M 14.535156 7.5 C 14.378906 7.5 14.25 7.371094 14.25 7.214844 C 14.25 7.058594 14.378906 6.929688 14.535156 6.929688 C 14.691406 6.929688 14.820312 7.058594 14.820312 7.214844 C 14.820312 7.371094 14.691406 7.5 14.535156 7.5 Z M 14.558594 6.148438 C 14.402344 6.148438 14.273438 6.023438 14.273438 5.863281 C 14.273438 5.707031 14.402344 5.578125 14.558594 5.578125 C 14.714844 5.578125 14.84375 5.707031 14.84375 5.863281 C 14.84375 6.023438 14.714844 6.148438 14.558594 6.148438 Z M 14.59375 4.761719 C 14.4375 4.761719 14.308594 4.636719 14.308594 4.476562 C 14.308594 4.320312 14.4375 4.191406 14.59375 4.191406 C 14.75 4.191406 14.878906 4.320312 14.878906 4.476562 C 14.878906 4.636719 14.75 4.761719 14.59375 4.761719 Z M 5.09375 12.710938 C 4.542969 13.21875 1.933594 15.816406 1.808594 15.972656 C 1.675781 16.140625 1.421875 16.742188 1.171875 16.757812 C 0.921875 16.777344 0 16.207031 0 15.585938 C 0 15.300781 0.503906 15.167969 0.804688 14.949219 C 0.898438 14.882812 3.628906 12.1875 4.074219 11.746094 C 4.238281 12.011719 4.542969 12.371094 5.09375 12.710938 Z M 14.882812 14.46875 C 14.882812 15.679688 13.925781 16.671875 12.714844 16.714844 C 11.503906 16.753906 10.480469 15.828125 10.398438 14.621094 C 10.316406 13.414062 11.207031 12.359375 12.410156 12.234375 C 12.292969 12.460938 12.039062 12.832031 11.484375 13.371094 C 10.933594 13.90625 10.644531 14.511719 10.675781 15.085938 C 10.695312 15.511719 10.902344 15.90625 11.238281 16.167969 C 11.554688 16.414062 11.984375 16.546875 12.410156 16.546875 C 12.601562 16.546875 12.789062 16.519531 12.972656 16.464844 C 13.441406 16.324219 13.773438 16.015625 13.910156 15.601562 C 13.992188 15.347656 14.070312 15.070312 14.144531 14.800781 C 14.285156 14.300781 14.4375 13.753906 14.621094 13.410156 C 14.792969 13.734375 14.882812 14.101562 14.882812 14.46875 Z M 12.636719 12.222656 C 13.386719 12.222656 14.082031 12.59375 14.5 13.214844 C 14.277344 13.566406 14.117188 14.144531 13.949219 14.746094 C 13.875 15.011719 13.796875 15.292969 13.71875 15.539062 C 13.601562 15.890625 13.316406 16.148438 12.914062 16.273438 C 12.390625 16.433594 11.769531 16.328125 11.363281 16.011719 C 11.070312 15.785156 10.894531 15.441406 10.875 15.074219 C 10.847656 14.5625 11.113281 14.007812 11.621094 13.515625 C 12.273438 12.886719 12.535156 12.464844 12.636719 12.222656 Z M 12.636719 12.222656 "/>
</g>
</svg>
