<?xml version="1.0" encoding="UTF-8" standalone="no"?>
<!-- Created with Inkscape (http://www.inkscape.org/) -->

<svg
   xmlns:dc="http://purl.org/dc/elements/1.1/"
   xmlns:cc="http://creativecommons.org/ns#"
   xmlns:rdf="http://www.w3.org/1999/02/22-rdf-syntax-ns#"
   xmlns:svg="http://www.w3.org/2000/svg"
   xmlns="http://www.w3.org/2000/svg"
   xmlns:xlink="http://www.w3.org/1999/xlink"
   xmlns:sodipodi="http://sodipodi.sourceforge.net/DTD/sodipodi-0.dtd"
   xmlns:inkscape="http://www.inkscape.org/namespaces/inkscape"
   width="30px"
   height="30px"
   version="1.1"
   id="svg8"
   inkscape:version="0.92.4 5da689c313, 2019-01-14"
   sodipodi:docname="container.svg">
  <defs
     id="defs2" />
  <sodipodi:namedview
     id="base"
     pagecolor="#ffffff"
     bordercolor="#666666"
     borderopacity="1.0"
     inkscape:pageopacity="0.0"
     inkscape:pageshadow="2"
     inkscape:zoom="13.049334"
     inkscape:cx="18.679046"
     inkscape:cy="12.165829"
     inkscape:document-units="px"
     inkscape:current-layer="layer1"
     showgrid="false"
     inkscape:snap-page="false"
     units="px"
     inkscape:window-width="1884"
     inkscape:window-height="1061"
     inkscape:window-x="0"
     inkscape:window-y="0"
     inkscape:window-maximized="1"
     fit-margin-top="0"
     fit-margin-left="0"
     fit-margin-right="0"
     fit-margin-bottom="0" />
  <metadata
     id="metadata5">
    <rdf:RDF>
      <cc:Work
         rdf:about="">
        <dc:format>image/svg+xml</dc:format>
        <dc:type
           rdf:resource="http://purl.org/dc/dcmitype/StillImage" />
        <dc:title></dc:title>
      </cc:Work>
    </rdf:RDF>
  </metadata>
    <circle
       style="color:#000000;clip-rule:nonzero;display:inline;overflow:visible;visibility:visible;opacity:1;isolation:auto;mix-blend-mode:normal;color-interpolation:sRGB;color-interpolation-filters:linearRGB;solid-color:#000000;solid-opacity:1;vector-effect:none;fill:#00a757;fill-opacity:1;fill-rule:evenodd;stroke:#ffffff;stroke-width:1;stroke-linecap:butt;stroke-linejoin:miter;stroke-miterlimit:4;stroke-dasharray:none;stroke-dashoffset:0;stroke-opacity:1;marker:none;color-rendering:auto;image-rendering:auto;shape-rendering:auto;text-rendering:auto;enable-background:accumulate"
       id="path815"
       cx="15"
       cy="15"
       r="14.5" />
<g transform="translate(6.5,6.5)"><path fill-rule="nonzero" fill="#FFFFFF" fill-opacity="1" d="M 10.742188 2.222656 C 10.804688 2.261719 10.871094 2.300781 10.917969 2.328125 C 10.941406 2.34375 10.964844 2.355469 10.980469 2.371094 L 13.398438 2.488281 L 13.53125 2.4375 C 13.617188 2.371094 13.800781 2.226562 13.910156 2.082031 L 13.894531 1.796875 C 12.269531 0.234375 9.617188 0.015625 9.386719 0 C 9.285156 0.0234375 9.195312 0.0546875 9.152344 0.078125 L 8.960938 0.492188 C 8.941406 0.550781 8.925781 0.609375 8.910156 0.671875 L 10.492188 2.074219 C 10.519531 2.089844 10.632812 2.15625 10.742188 2.222656 Z M 10.742188 2.222656 "/>
<path fill-rule="nonzero" fill="#FFFFFF" fill-opacity="1" d="M 12.207031 8.523438 L 12.222656 8.523438 L 14.554688 8.59375 C 14.714844 8.238281 15.570312 6.316406 15.667969 6.09375 C 15.664062 6.015625 15.652344 5.746094 15.640625 5.605469 C 15.519531 5.398438 13.976562 3.171875 13.734375 2.855469 L 10.941406 2.660156 C 10.816406 2.914062 10.320312 3.980469 10.046875 4.570312 L 10.046875 5.398438 L 12.171875 8.484375 Z M 12.207031 8.523438 "/>
<path fill-rule="nonzero" fill="#FFFFFF" fill-opacity="1" d="M 1.023438 5.582031 C 1.101562 5.582031 1.261719 5.585938 1.386719 5.613281 C 1.941406 5.222656 2.90625 4.601562 3.304688 4.34375 C 3.371094 4.28125 3.429688 4.214844 3.484375 4.140625 C 3.53125 4.050781 4.113281 2.925781 4.320312 2.152344 C 4.367188 1.984375 4.289062 1.804688 4.09375 1.613281 C 4.074219 1.601562 4.054688 1.589844 4.03125 1.578125 L 3.613281 1.550781 C 3.207031 1.828125 2.476562 2.359375 2 2.90625 C 1.492188 3.480469 0.984375 4.476562 0.773438 4.90625 L 0.898438 5.390625 Z M 1.023438 5.582031 "/>
<path fill-rule="nonzero" fill="#FFFFFF" fill-opacity="1" d="M 4.59375 1.421875 C 4.671875 1.425781 4.75 1.433594 4.824219 1.449219 C 4.828125 1.449219 4.832031 1.449219 4.832031 1.449219 C 5.160156 1.242188 6.03125 0.886719 6.515625 0.707031 C 6.976562 0.539062 8.269531 0.445312 8.617188 0.449219 C 8.699219 0.394531 8.757812 0.207031 8.785156 0.046875 C 8.191406 0.0429688 6.667969 0.0546875 6.078125 0.242188 C 5.105469 0.550781 4.429688 0.96875 4.089844 1.214844 L 4.105469 1.265625 C 4.261719 1.332031 4.425781 1.382812 4.59375 1.421875 Z M 4.59375 1.421875 "/>
<path fill-rule="nonzero" fill="#FFFFFF" fill-opacity="1" d="M 3.40625 4.632812 C 2.941406 4.992188 1.875 5.683594 1.425781 5.972656 C 1.34375 6.0625 1.253906 6.171875 1.199219 6.234375 C 1.152344 6.398438 1.082031 6.648438 1.015625 6.949219 C 0.847656 7.707031 0.917969 8.730469 0.960938 9.339844 C 0.964844 9.386719 0.96875 9.425781 0.972656 9.46875 C 0.988281 9.566406 1.003906 9.644531 1.011719 9.699219 L 1.285156 10.039062 C 1.519531 10.210938 2.074219 10.730469 2.304688 10.949219 C 2.492188 11.125 2.683594 11.308594 2.824219 11.453125 C 2.929688 11.554688 2.992188 11.617188 3.027344 11.65625 L 3.5625 11.664062 C 3.644531 11.609375 3.734375 11.546875 3.832031 11.480469 L 5.359375 10.410156 L 5.472656 10.148438 L 5.523438 6.226562 C 5.519531 6.21875 5.511719 6.207031 5.507812 6.199219 L 3.675781 4.667969 C 3.585938 4.648438 3.496094 4.636719 3.40625 4.632812 Z M 3.40625 4.632812 "/>
<path fill-rule="nonzero" fill="#FFFFFF" fill-opacity="1" d="M 5.992188 5.894531 C 6.015625 5.894531 6.039062 5.894531 6.0625 5.894531 L 9.558594 4.972656 L 10.515625 2.703125 C 10.496094 2.601562 10.464844 2.503906 10.421875 2.414062 L 8.523438 0.820312 L 8.515625 0.820312 C 8.101562 0.851562 7.15625 0.933594 6.863281 0.976562 C 6.675781 1.003906 6.132812 1.214844 5.371094 1.558594 C 5.242188 1.621094 5.144531 1.664062 5.078125 1.695312 L 4.839844 1.804688 L 4.734375 2.042969 C 4.648438 2.375 4.28125 3.394531 3.867188 4.082031 C 3.921875 4.234375 3.988281 4.417969 4.019531 4.539062 C 4.300781 4.75 4.570312 4.953125 4.800781 5.132812 C 5.226562 5.460938 5.527344 5.707031 5.714844 5.878906 C 5.808594 5.882812 5.90625 5.890625 5.992188 5.894531 Z M 5.992188 5.894531 "/>
<path fill-rule="nonzero" fill="#FFFFFF" fill-opacity="1" d="M 14.175781 2.769531 L 14.140625 2.765625 L 14.152344 2.859375 C 14.242188 2.957031 14.324219 3.082031 14.421875 3.21875 C 14.46875 3.285156 14.515625 3.355469 14.570312 3.429688 C 15.003906 4.03125 15.859375 5.332031 15.949219 5.5 L 16.191406 5.828125 L 16.234375 5.820312 L 16.449219 5.503906 C 16.28125 5.066406 15.96875 4.292969 15.621094 3.730469 C 15.222656 3.078125 14.820312 2.679688 14.542969 2.453125 L 14.105469 2.4375 L 14.105469 2.441406 L 14.140625 2.753906 Z M 14.175781 2.769531 "/>
<path fill-rule="nonzero" fill="#FFFFFF" fill-opacity="1" d="M 0.546875 10.066406 C 0.609375 9.992188 0.695312 9.890625 0.71875 9.859375 C 0.71875 9.851562 0.71875 9.84375 0.71875 9.835938 C 0.648438 9.429688 0.496094 8.261719 0.597656 7.605469 C 0.597656 7.589844 0.796875 6.3125 0.9375 5.996094 L 0.59375 5.582031 C 0.554688 5.582031 0.515625 5.589844 0.476562 5.597656 C 0.285156 6.050781 -0.0117188 6.929688 0 7.96875 C 0.0117188 8.902344 0.195312 9.976562 0.261719 10.324219 C 0.367188 10.25 0.464844 10.164062 0.546875 10.066406 Z M 0.546875 10.066406 "/>
<path fill-rule="nonzero" fill="#FFFFFF" fill-opacity="1" d="M 9.515625 11.578125 L 9.871094 11.226562 L 11.734375 8.753906 L 11.753906 8.570312 L 9.707031 5.425781 L 9.636719 5.386719 L 6.128906 6.320312 C 6.105469 6.351562 6.082031 6.386719 6.058594 6.417969 C 6.019531 6.472656 5.984375 6.523438 5.953125 6.566406 C 5.90625 7.210938 5.824219 8.851562 5.765625 10.222656 L 5.902344 10.355469 Z M 9.515625 11.578125 "/>
<path fill-rule="nonzero" fill="#FFFFFF" fill-opacity="1" d="M 9.800781 14.800781 C 9.886719 14.667969 10.078125 14.339844 10.179688 14.171875 L 9.636719 12.269531 C 9.535156 12.15625 9.421875 11.933594 9.378906 11.84375 L 5.703125 10.769531 L 5.472656 10.785156 C 5.226562 10.917969 4.691406 11.257812 3.996094 11.71875 L 3.714844 11.917969 L 3.511719 12.308594 C 3.550781 12.46875 3.59375 12.632812 3.636719 12.789062 C 3.964844 13.574219 4.140625 14.203125 4.214844 14.511719 L 4.34375 14.722656 C 4.664062 14.976562 5 15.203125 5.355469 15.402344 C 6 15.6875 6.773438 15.878906 7.527344 15.945312 C 7.527344 15.945312 7.574219 15.945312 7.78125 15.859375 L 9.742188 14.835938 Z M 9.800781 14.800781 "/>
<path fill-rule="nonzero" fill="#FFFFFF" fill-opacity="1" d="M 15.753906 11.800781 L 15.75 11.804688 C 15.707031 11.882812 15.59375 12.058594 15.269531 12.5 C 15.164062 12.660156 15.0625 12.8125 14.964844 12.957031 C 14.460938 13.703125 14.015625 14.136719 13.726562 14.367188 C 13.566406 14.652344 13.488281 14.878906 13.425781 15.058594 C 13.40625 15.128906 13.382812 15.191406 13.359375 15.25 C 13.363281 15.277344 13.363281 15.300781 13.367188 15.324219 C 13.550781 15.214844 13.832031 15.011719 14.164062 14.71875 C 14.527344 14.398438 15.203125 13.738281 15.679688 12.925781 C 16.019531 12.34375 16.1875 12.003906 16.269531 11.8125 L 16.253906 11.800781 Z M 15.753906 11.800781 "/>
<path fill-rule="nonzero" fill="#FFFFFF" fill-opacity="1" d="M 3.820312 14.328125 C 3.648438 13.886719 3.476562 13.300781 3.363281 12.878906 C 3.308594 12.75 3.253906 12.625 3.199219 12.503906 C 3.105469 12.300781 2.992188 12.109375 2.859375 11.933594 C 2.386719 11.496094 1.535156 10.707031 1.074219 10.246094 C 1.039062 10.230469 0.996094 10.238281 0.953125 10.246094 C 0.929688 10.25 0.910156 10.253906 0.890625 10.253906 C 0.859375 10.257812 0.738281 10.328125 0.625 10.429688 C 0.542969 10.5 0.429688 10.652344 0.378906 10.71875 C 0.460938 11.117188 0.757812 12.015625 1.378906 13.039062 C 1.816406 13.757812 2.269531 14.234375 2.574219 14.507812 C 2.714844 14.632812 2.863281 14.75 3.019531 14.855469 L 3.328125 14.820312 L 3.664062 14.714844 C 3.707031 14.605469 3.773438 14.441406 3.820312 14.328125 Z M 3.820312 14.328125 "/>
<path fill-rule="nonzero" fill="#FFFFFF" fill-opacity="1" d="M 16.746094 6.367188 C 16.714844 6.292969 16.652344 6.234375 16.574219 6.203125 L 16.175781 6.179688 C 16.15625 6.183594 16.132812 6.1875 16.109375 6.191406 C 15.941406 6.441406 15.792969 6.707031 15.664062 6.980469 C 15.265625 7.859375 15.109375 8.304688 15.085938 8.40625 C 15.148438 8.726562 15.207031 8.976562 15.257812 9.195312 C 15.300781 9.371094 15.332031 9.519531 15.363281 9.671875 C 15.398438 9.792969 15.675781 10.949219 15.734375 11.363281 L 15.808594 11.410156 C 15.910156 11.414062 16.011719 11.40625 16.109375 11.390625 L 16.570312 11.101562 C 16.582031 11.089844 16.589844 11.074219 16.601562 11.0625 C 16.867188 10.683594 16.917969 10.460938 16.960938 10.160156 C 17.019531 9.226562 17.050781 6.984375 16.746094 6.367188 Z M 16.746094 6.367188 "/>
<path fill-rule="nonzero" fill="#FFFFFF" fill-opacity="1" d="M 15.035156 12.328125 C 15.199219 12.074219 15.332031 11.863281 15.417969 11.726562 L 15.4375 11.480469 C 15.394531 11.378906 15.34375 11.125 15.246094 10.617188 C 15.164062 10.203125 15.074219 9.734375 15.011719 9.554688 C 14.957031 9.425781 14.890625 9.304688 14.8125 9.1875 C 14.71875 9.097656 14.621094 9.007812 14.550781 8.941406 L 12.210938 8.8125 L 12.195312 8.8125 L 11.859375 9.070312 L 9.910156 11.65625 C 9.886719 11.78125 9.882812 11.910156 9.902344 12.035156 C 9.90625 12.066406 9.910156 12.09375 9.914062 12.117188 L 10.652344 14.3125 L 10.738281 14.390625 L 13.523438 14.121094 Z M 15.035156 12.328125 "/>
<path fill-rule="nonzero" fill="#FFFFFF" fill-opacity="1" d="M 7.210938 16.304688 C 5.9375 16.074219 5.117188 15.664062 4.652344 15.359375 C 4.519531 15.28125 4.398438 15.191406 4.28125 15.089844 L 3.894531 15.023438 L 3.492188 15.253906 C 3.683594 15.433594 4.046875 15.75 4.464844 16.011719 C 4.660156 16.128906 4.867188 16.222656 5.082031 16.296875 C 5.789062 16.53125 7.082031 16.742188 7.6875 16.832031 L 7.714844 16.667969 C 7.695312 16.640625 7.675781 16.609375 7.65625 16.582031 C 7.539062 16.503906 7.355469 16.390625 7.210938 16.304688 Z M 7.210938 16.304688 "/>
<path fill-rule="nonzero" fill="#FFFFFF" fill-opacity="1" d="M 10.492188 14.789062 L 10.300781 14.871094 L 9.851562 15.105469 C 9.285156 15.425781 8.507812 15.855469 8.003906 16.078125 C 7.996094 16.152344 7.988281 16.242188 7.976562 16.328125 C 7.992188 16.390625 8.007812 16.449219 8.027344 16.507812 C 8.046875 16.574219 8.074219 16.640625 8.101562 16.707031 L 8.371094 16.921875 C 9.074219 16.914062 10.808594 16.808594 12.34375 16.074219 C 12.40625 16.046875 12.507812 15.964844 12.652344 15.75 L 12.824219 15.460938 C 12.878906 15.363281 12.929688 15.253906 12.980469 15.144531 C 13.074219 14.941406 13.152344 14.746094 13.207031 14.601562 C 13.1875 14.585938 13.164062 14.570312 13.136719 14.554688 Z M 10.492188 14.789062 "/>
</g>
</svg>
