<?xml version="1.0" encoding="UTF-8" standalone="no"?>
<!-- Created with Inkscape (http://www.inkscape.org/) -->

<svg
   xmlns:dc="http://purl.org/dc/elements/1.1/"
   xmlns:cc="http://creativecommons.org/ns#"
   xmlns:rdf="http://www.w3.org/1999/02/22-rdf-syntax-ns#"
   xmlns:svg="http://www.w3.org/2000/svg"
   xmlns="http://www.w3.org/2000/svg"
   xmlns:xlink="http://www.w3.org/1999/xlink"
   xmlns:sodipodi="http://sodipodi.sourceforge.net/DTD/sodipodi-0.dtd"
   xmlns:inkscape="http://www.inkscape.org/namespaces/inkscape"
   width="30px"
   height="30px"
   version="1.1"
   id="svg8"
   inkscape:version="0.92.4 5da689c313, 2019-01-14"
   sodipodi:docname="container.svg">
  <defs
     id="defs2" />
  <sodipodi:namedview
     id="base"
     pagecolor="#ffffff"
     bordercolor="#666666"
     borderopacity="1.0"
     inkscape:pageopacity="0.0"
     inkscape:pageshadow="2"
     inkscape:zoom="13.049334"
     inkscape:cx="18.679046"
     inkscape:cy="12.165829"
     inkscape:document-units="px"
     inkscape:current-layer="layer1"
     showgrid="false"
     inkscape:snap-page="false"
     units="px"
     inkscape:window-width="1884"
     inkscape:window-height="1061"
     inkscape:window-x="0"
     inkscape:window-y="0"
     inkscape:window-maximized="1"
     fit-margin-top="0"
     fit-margin-left="0"
     fit-margin-right="0"
     fit-margin-bottom="0" />
  <metadata
     id="metadata5">
    <rdf:RDF>
      <cc:Work
         rdf:about="">
        <dc:format>image/svg+xml</dc:format>
        <dc:type
           rdf:resource="http://purl.org/dc/dcmitype/StillImage" />
        <dc:title></dc:title>
      </cc:Work>
    </rdf:RDF>
  </metadata>
    <circle
       style="color:#000000;clip-rule:nonzero;display:inline;overflow:visible;visibility:visible;opacity:1;isolation:auto;mix-blend-mode:normal;color-interpolation:sRGB;color-interpolation-filters:linearRGB;solid-color:#000000;solid-opacity:1;vector-effect:none;fill:#ffffff;fill-opacity:1;fill-rule:evenodd;stroke:#00a757;stroke-width:1;stroke-linecap:butt;stroke-linejoin:miter;stroke-miterlimit:4;stroke-dasharray:none;stroke-dashoffset:0;stroke-opacity:1;marker:none;color-rendering:auto;image-rendering:auto;shape-rendering:auto;text-rendering:auto;enable-background:accumulate"
       id="path815"
       cx="15"
       cy="15"
       r="14.5" />
<g transform="translate(6.5,10.0)"><path fill-rule="nonzero" fill="rgb(30%,30%,30%)" fill-opacity="1" d="M 14.058594 1 L 14.058594 8.878906 C 14.058594 9.429688 13.613281 9.875 13.058594 9.875 C 12.507812 9.875 12.0625 9.429688 12.0625 8.878906 L 12.0625 6.207031 L 4.9375 6.207031 L 4.9375 8.878906 C 4.9375 9.429688 4.492188 9.875 3.941406 9.875 C 3.390625 9.875 2.941406 9.429688 2.941406 8.878906 L 2.941406 1 C 2.941406 0.449219 3.390625 0 3.941406 0 C 4.492188 0 4.9375 0.449219 4.9375 1 L 4.9375 3.667969 L 12.0625 3.667969 L 12.0625 1 C 12.0625 0.445312 12.507812 0 13.058594 0 C 13.613281 0 14.058594 0.445312 14.058594 1 Z M 2.484375 7.472656 L 2.484375 2.402344 C 2.480469 1.984375 2.144531 1.648438 1.726562 1.644531 C 1.308594 1.648438 0.972656 1.984375 0.972656 2.402344 L 0.972656 7.472656 C 0.972656 7.890625 1.308594 8.230469 1.726562 8.230469 C 2.144531 8.230469 2.480469 7.890625 2.484375 7.472656 Z M 16.027344 7.472656 L 16.027344 2.402344 C 16.027344 1.984375 15.691406 1.648438 15.273438 1.644531 C 14.855469 1.648438 14.519531 1.984375 14.515625 2.402344 L 14.515625 7.472656 C 14.519531 7.890625 14.855469 8.230469 15.273438 8.230469 C 15.691406 8.230469 16.027344 7.890625 16.027344 7.472656 Z M 0.648438 5.476562 L 0.648438 4.398438 C 0.648438 4.21875 0.503906 4.074219 0.324219 4.074219 C 0.144531 4.074219 0 4.21875 0 4.398438 L 0 5.476562 C 0 5.65625 0.144531 5.800781 0.324219 5.800781 C 0.503906 5.800781 0.648438 5.65625 0.648438 5.476562 Z M 17 5.476562 L 17 4.398438 C 17 4.21875 16.855469 4.074219 16.675781 4.074219 C 16.496094 4.074219 16.351562 4.21875 16.351562 4.398438 L 16.351562 5.476562 C 16.351562 5.65625 16.496094 5.800781 16.675781 5.800781 C 16.855469 5.800781 17 5.65625 17 5.476562 Z M 17 5.476562 "/>
</g>
</svg>
