<?xml version="1.0" encoding="UTF-8" standalone="no"?>
<!-- Created with Inkscape (http://www.inkscape.org/) -->

<svg
   xmlns:dc="http://purl.org/dc/elements/1.1/"
   xmlns:cc="http://creativecommons.org/ns#"
   xmlns:rdf="http://www.w3.org/1999/02/22-rdf-syntax-ns#"
   xmlns:svg="http://www.w3.org/2000/svg"
   xmlns="http://www.w3.org/2000/svg"
   xmlns:xlink="http://www.w3.org/1999/xlink"
   xmlns:sodipodi="http://sodipodi.sourceforge.net/DTD/sodipodi-0.dtd"
   xmlns:inkscape="http://www.inkscape.org/namespaces/inkscape"
   width="30px"
   height="30px"
   version="1.1"
   id="svg8"
   inkscape:version="0.92.4 5da689c313, 2019-01-14"
   sodipodi:docname="container.svg">
  <defs
     id="defs2" />
  <sodipodi:namedview
     id="base"
     pagecolor="#ffffff"
     bordercolor="#666666"
     borderopacity="1.0"
     inkscape:pageopacity="0.0"
     inkscape:pageshadow="2"
     inkscape:zoom="13.049334"
     inkscape:cx="18.679046"
     inkscape:cy="12.165829"
     inkscape:document-units="px"
     inkscape:current-layer="layer1"
     showgrid="false"
     inkscape:snap-page="false"
     units="px"
     inkscape:window-width="1884"
     inkscape:window-height="1061"
     inkscape:window-x="0"
     inkscape:window-y="0"
     inkscape:window-maximized="1"
     fit-margin-top="0"
     fit-margin-left="0"
     fit-margin-right="0"
     fit-margin-bottom="0" />
  <metadata
     id="metadata5">
    <rdf:RDF>
      <cc:Work
         rdf:about="">
        <dc:format>image/svg+xml</dc:format>
        <dc:type
           rdf:resource="http://purl.org/dc/dcmitype/StillImage" />
        <dc:title></dc:title>
      </cc:Work>
    </rdf:RDF>
  </metadata>
    <circle
       style="color:#000000;clip-rule:nonzero;display:inline;overflow:visible;visibility:visible;opacity:1;isolation:auto;mix-blend-mode:normal;color-interpolation:sRGB;color-interpolation-filters:linearRGB;solid-color:#000000;solid-opacity:1;vector-effect:none;fill:#ffffff;fill-opacity:1;fill-rule:evenodd;stroke:#00a757;stroke-width:1;stroke-linecap:butt;stroke-linejoin:miter;stroke-miterlimit:4;stroke-dasharray:none;stroke-dashoffset:0;stroke-opacity:1;marker:none;color-rendering:auto;image-rendering:auto;shape-rendering:auto;text-rendering:auto;enable-background:accumulate"
       id="path815"
       cx="15"
       cy="15"
       r="14.5" />
<g transform="translate(8.0,6.5)"><path fill-rule="nonzero" fill="rgb(30%,30%,30%)" fill-opacity="1" d="M 9.167969 1.863281 C 9.167969 0.835938 8.289062 0 7.207031 0 C 6.128906 0 5.25 0.835938 5.25 1.863281 C 5.25 2.4375 5.507812 3.324219 5.917969 4 L 8.449219 4 C 8.882812 3.324219 9.167969 2.4375 9.167969 1.863281 Z M 9.167969 1.863281 "/>
<path fill-rule="nonzero" fill="rgb(30%,30%,30%)" fill-opacity="1" d="M 8.730469 6.667969 L 5.90625 6.667969 C 5.46875 8.292969 4.078125 10.523438 4.078125 12.148438 C 4.078125 14.253906 5.328125 16.398438 6.535156 16.996094 L 8.046875 16.996094 C 9.257812 16.398438 10.480469 14.253906 10.480469 12.148438 C 10.480469 10.492188 9.210938 8.230469 8.730469 6.667969 Z M 8.730469 6.667969 "/>
<path fill-rule="nonzero" fill="rgb(30%,30%,30%)" fill-opacity="1" d="M 8.304688 5.710938 C 8.277344 5.542969 8.261719 5.371094 8.261719 5.199219 C 8.261719 5.113281 8.265625 5.023438 8.273438 4.9375 L 6.054688 4.9375 C 6.0625 5.039062 6.066406 5.140625 6.066406 5.242188 C 6.066406 5.398438 6.058594 5.554688 6.039062 5.710938 Z M 8.304688 5.710938 "/>
<path fill-rule="nonzero" fill="rgb(30%,30%,30%)" fill-opacity="1" d="M 13.148438 3.730469 C 13.148438 2.789062 12.269531 2.027344 11.1875 2.027344 C 10.109375 2.027344 9.230469 2.789062 9.230469 3.730469 C 9.230469 4.25 9.488281 5.058594 9.898438 5.679688 L 12.429688 5.679688 C 12.863281 5.058594 13.148438 4.25 13.148438 3.730469 Z M 13.148438 3.730469 "/>
<path fill-rule="nonzero" fill="rgb(30%,30%,30%)" fill-opacity="1" d="M 12.285156 7.238281 C 12.253906 7.085938 12.242188 6.929688 12.242188 6.773438 C 12.242188 6.691406 12.246094 6.613281 12.253906 6.535156 L 10.035156 6.535156 C 10.042969 6.625 10.046875 6.71875 10.046875 6.8125 C 10.046875 6.953125 10.039062 7.097656 10.019531 7.238281 Z M 12.285156 7.238281 "/>
<path fill-rule="nonzero" fill="rgb(30%,30%,30%)" fill-opacity="1" d="M 5.1875 3.730469 C 5.1875 2.789062 4.308594 2.027344 3.230469 2.027344 C 2.148438 2.027344 1.269531 2.789062 1.269531 3.730469 C 1.269531 4.25 1.527344 5.058594 1.9375 5.679688 L 4.46875 5.679688 C 4.902344 5.058594 5.1875 4.25 5.1875 3.730469 Z M 5.1875 3.730469 "/>
<path fill-rule="nonzero" fill="rgb(30%,30%,30%)" fill-opacity="1" d="M 4.324219 7.238281 C 4.296875 7.085938 4.28125 6.929688 4.28125 6.773438 C 4.28125 6.691406 4.285156 6.613281 4.292969 6.535156 L 2.074219 6.535156 C 2.082031 6.625 2.085938 6.71875 2.089844 6.8125 C 2.085938 6.953125 2.078125 7.097656 2.058594 7.238281 Z M 4.324219 7.238281 "/>
<path fill-rule="nonzero" fill="rgb(30%,30%,30%)" fill-opacity="1" d="M 9.167969 1.863281 C 9.167969 0.835938 8.289062 0 7.207031 0 C 6.128906 0 5.25 0.835938 5.25 1.863281 C 5.25 2.4375 5.507812 3.324219 5.917969 4 L 8.449219 4 C 8.882812 3.324219 9.167969 2.4375 9.167969 1.863281 Z M 9.167969 1.863281 "/>
<path fill-rule="nonzero" fill="rgb(30%,30%,30%)" fill-opacity="1" d="M 12.609375 8.113281 L 9.789062 8.113281 C 9.785156 8.121094 9.785156 8.125 9.78125 8.132812 C 9.792969 8.152344 9.800781 8.175781 9.808594 8.195312 C 10.339844 9.480469 10.941406 10.9375 10.941406 12.148438 C 10.941406 14.042969 9.949219 16.125 8.871094 16.996094 C 9.363281 17.003906 12.332031 16.996094 12.332031 16.996094 C 13.539062 16.449219 14.363281 15.039062 14.363281 13.117188 C 14.363281 11.601562 13.09375 9.539062 12.609375 8.113281 Z M 12.609375 8.113281 "/>
<path fill-rule="nonzero" fill="rgb(30%,30%,30%)" fill-opacity="1" d="M 4.054688 15.070312 C 3.640625 14.246094 3.421875 13.234375 3.421875 12.148438 C 3.421875 11.035156 3.972656 9.753906 4.507812 8.515625 C 4.5625 8.394531 4.613281 8.273438 4.664062 8.152344 C 4.660156 8.140625 4.65625 8.125 4.652344 8.113281 L 1.828125 8.113281 C 1.390625 9.597656 0 11.632812 0 13.117188 C 0 15.039062 0.859375 16.449219 2.0625 16.996094 C 2.0625 16.996094 5.085938 17.003906 5.546875 16.996094 C 5.105469 16.640625 4.34375 15.640625 4.054688 15.070312 Z M 4.054688 15.070312 "/>
<path fill-rule="nonzero" fill="rgb(30%,30%,30%)" fill-opacity="1" d="M 8.304688 5.710938 C 8.277344 5.542969 8.261719 5.371094 8.261719 5.199219 C 8.261719 5.113281 8.265625 5.023438 8.273438 4.9375 L 6.054688 4.9375 C 6.0625 5.039062 6.066406 5.140625 6.066406 5.242188 C 6.066406 5.398438 6.058594 5.554688 6.039062 5.710938 Z M 8.304688 5.710938 "/>
</g>
</svg>
