<?xml version="1.0" encoding="UTF-8" standalone="no"?>
<!-- Created with Inkscape (http://www.inkscape.org/) -->

<svg
   xmlns:dc="http://purl.org/dc/elements/1.1/"
   xmlns:cc="http://creativecommons.org/ns#"
   xmlns:rdf="http://www.w3.org/1999/02/22-rdf-syntax-ns#"
   xmlns:svg="http://www.w3.org/2000/svg"
   xmlns="http://www.w3.org/2000/svg"
   xmlns:xlink="http://www.w3.org/1999/xlink"
   xmlns:sodipodi="http://sodipodi.sourceforge.net/DTD/sodipodi-0.dtd"
   xmlns:inkscape="http://www.inkscape.org/namespaces/inkscape"
   width="30px"
   height="30px"
   version="1.1"
   id="svg8"
   inkscape:version="0.92.4 5da689c313, 2019-01-14"
   sodipodi:docname="container.svg">
  <defs
     id="defs2" />
  <sodipodi:namedview
     id="base"
     pagecolor="#ffffff"
     bordercolor="#666666"
     borderopacity="1.0"
     inkscape:pageopacity="0.0"
     inkscape:pageshadow="2"
     inkscape:zoom="13.049334"
     inkscape:cx="18.679046"
     inkscape:cy="12.165829"
     inkscape:document-units="px"
     inkscape:current-layer="layer1"
     showgrid="false"
     inkscape:snap-page="false"
     units="px"
     inkscape:window-width="1884"
     inkscape:window-height="1061"
     inkscape:window-x="0"
     inkscape:window-y="0"
     inkscape:window-maximized="1"
     fit-margin-top="0"
     fit-margin-left="0"
     fit-margin-right="0"
     fit-margin-bottom="0" />
  <metadata
     id="metadata5">
    <rdf:RDF>
      <cc:Work
         rdf:about="">
        <dc:format>image/svg+xml</dc:format>
        <dc:type
           rdf:resource="http://purl.org/dc/dcmitype/StillImage" />
        <dc:title></dc:title>
      </cc:Work>
    </rdf:RDF>
  </metadata>
    <circle
       style="color:#000000;clip-rule:nonzero;display:inline;overflow:visible;visibility:visible;opacity:1;isolation:auto;mix-blend-mode:normal;color-interpolation:sRGB;color-interpolation-filters:linearRGB;solid-color:#000000;solid-opacity:1;vector-effect:none;fill:#00a757;fill-opacity:1;fill-rule:evenodd;stroke:#ffffff;stroke-width:1;stroke-linecap:butt;stroke-linejoin:miter;stroke-miterlimit:4;stroke-dasharray:none;stroke-dashoffset:0;stroke-opacity:1;marker:none;color-rendering:auto;image-rendering:auto;shape-rendering:auto;text-rendering:auto;enable-background:accumulate"
       id="path815"
       cx="15"
       cy="15"
       r="14.5" />
<g transform="translate(6.5,6.5)"><path fill-rule="nonzero" fill="#FFFFFF" fill-opacity="1" d="M 10.46875 12.234375 C 10.078125 12.683594 9.511719 12.9375 8.917969 12.9375 C 8.019531 12.9375 7.269531 12.414062 6.972656 11.511719 L 6.976562 11.515625 C 6.925781 11.335938 6.898438 11.152344 6.898438 10.964844 C 6.898438 9.878906 7.804688 8.996094 8.917969 8.996094 C 10.035156 8.996094 10.941406 9.878906 10.941406 10.964844 C 10.941406 11.234375 10.882812 11.496094 10.777344 11.742188 C 11.855469 11.742188 12.820312 11.742188 12.851562 11.730469 C 13.128906 11.726562 15.167969 6.761719 16.867188 2.492188 L 16.867188 0 L 13.136719 9.1875 C 13.101562 9.277344 13.003906 9.320312 12.914062 9.289062 C 12.003906 8.96875 7.476562 7.472656 7.476562 7.472656 C 6.792969 7.246094 6.042969 7.664062 5.925781 8.375 C 5.867188 8.71875 5.890625 9.089844 5.890625 9.511719 L 5.890625 9.835938 C 5.890625 10.492188 6.230469 11.097656 6.789062 11.445312 L 2.640625 10.230469 L 0 10.527344 L 4.375 13.28125 C 3.757812 13.625 3.40625 14.023438 3.40625 14.449219 C 3.40625 15.703125 6.449219 16.722656 10.203125 16.722656 C 13.957031 16.722656 17 15.703125 17 14.449219 C 17 13.238281 13.945312 13.132812 10.46875 12.234375 Z M 10.347656 14.28125 C 9.882812 14.28125 9.507812 14.164062 9.507812 14.023438 C 9.507812 13.878906 9.882812 13.761719 10.347656 13.761719 C 10.8125 13.761719 11.1875 13.878906 11.1875 14.023438 C 11.1875 14.164062 10.8125 14.28125 10.347656 14.28125 Z M 10.347656 14.28125 "/>
</g>
</svg>
