<?xml version="1.0" encoding="UTF-8"?>
<svg xmlns="http://www.w3.org/2000/svg" xmlns:xlink="http://www.w3.org/1999/xlink" width="11" height="7.751848" viewBox="0 0 11 7.751848">
<path fill-rule="nonzero" fill="rgb(30%,30%,30%)" fill-opacity="1" d="M 7.421875 0.445312 C 8.203125 -0.203125 9.066406 0.0117188 9.921875 0.144531 C 11.6875 0.417969 11.011719 1.734375 9.839844 2.589844 L 4.226562 6.835938 C 3.433594 7.410156 1.191406 7.109375 0.398438 6.535156 C -0.394531 5.960938 0.113281 5.648438 0.90625 5.074219 C 0.90625 5.074219 6.636719 1.097656 7.421875 0.445312 Z M 7.421875 0.445312 "/>
<path fill-rule="nonzero" fill="rgb(30%,30%,30%)" fill-opacity="1" d="M 6.246094 6.96875 C 6.246094 7.402344 6.011719 7.75 5.722656 7.75 C 5.433594 7.75 5.199219 7.402344 5.199219 6.96875 C 5.199219 6.535156 5.433594 6.183594 5.722656 6.183594 C 6.011719 6.183594 6.246094 6.535156 6.246094 6.96875 Z M 6.246094 6.96875 "/>
<path fill-rule="nonzero" fill="rgb(30%,30%,30%)" fill-opacity="1" d="M 10.351562 3.773438 C 10.351562 4.207031 10.117188 4.558594 9.828125 4.558594 C 9.539062 4.558594 9.304688 4.207031 9.304688 3.773438 C 9.304688 3.34375 9.539062 2.992188 9.828125 2.992188 C 10.117188 2.992188 10.351562 3.34375 10.351562 3.773438 Z M 10.351562 3.773438 "/>
</svg>
