<?xml version="1.0" encoding="UTF-8"?>
<svg xmlns="http://www.w3.org/2000/svg" xmlns:xlink="http://www.w3.org/1999/xlink" width="9.766546" height="11" viewBox="0 0 9.766546 11">
<path fill-rule="nonzero" fill="rgb(30%,30%,30%)" fill-opacity="1" d="M 0 9.386719 L 2.441406 4.453125 C 2.441406 4.453125 3.359375 0.78125 4.953125 0.265625 C 6.546875 -0.25 7.886719 0.121094 8.207031 0.265625 C 8.53125 0.410156 9.515625 0.972656 9.609375 1.199219 C 9.746094 1.527344 10.011719 2.496094 9.238281 4.179688 C 8.183594 6.472656 6.683594 8.230469 6.683594 8.230469 L 4.347656 11 L 4.15625 10.484375 C 4.15625 10.484375 5.636719 8.90625 6.554688 7.648438 C 7.472656 6.390625 9.648438 2.847656 9.222656 1.714844 C 9.222656 1.714844 8.910156 0.835938 7.296875 1.976562 C 5.6875 3.121094 3.527344 5.167969 3.527344 5.167969 L 0.433594 10.46875 L 0.289062 10.097656 L 3.253906 4.976562 L 2.722656 4.605469 L 0.171875 9.804688 Z M 0 9.386719 "/>
<path fill-rule="nonzero" fill="rgb(30%,30%,30%)" fill-opacity="1" d="M 5.558594 3.734375 C 5.558594 3.734375 8.300781 1.34375 8.78125 1.753906 C 9.003906 1.945312 9.246094 2.398438 8.101562 4.605469 C 6.976562 6.773438 5.007812 9.113281 5.007812 9.113281 L 4.285156 8.617188 L 2.996094 10.773438 L 2.820312 10.402344 C 2.820312 10.402344 4.445312 7.746094 4.863281 6.683594 C 5.285156 5.621094 5.558594 3.734375 5.558594 3.734375 Z M 5.558594 3.734375 "/>
</svg>
