<?xml version="1.0" encoding="UTF-8" standalone="no"?>
<!-- Created with Inkscape (http://www.inkscape.org/) -->

<svg
   xmlns:dc="http://purl.org/dc/elements/1.1/"
   xmlns:cc="http://creativecommons.org/ns#"
   xmlns:rdf="http://www.w3.org/1999/02/22-rdf-syntax-ns#"
   xmlns:svg="http://www.w3.org/2000/svg"
   xmlns="http://www.w3.org/2000/svg"
   xmlns:xlink="http://www.w3.org/1999/xlink"
   xmlns:sodipodi="http://sodipodi.sourceforge.net/DTD/sodipodi-0.dtd"
   xmlns:inkscape="http://www.inkscape.org/namespaces/inkscape"
   width="30px"
   height="30px"
   version="1.1"
   id="svg8"
   inkscape:version="0.92.4 5da689c313, 2019-01-14"
   sodipodi:docname="container.svg">
  <defs
     id="defs2" />
  <sodipodi:namedview
     id="base"
     pagecolor="#ffffff"
     bordercolor="#666666"
     borderopacity="1.0"
     inkscape:pageopacity="0.0"
     inkscape:pageshadow="2"
     inkscape:zoom="13.049334"
     inkscape:cx="18.679046"
     inkscape:cy="12.165829"
     inkscape:document-units="px"
     inkscape:current-layer="layer1"
     showgrid="false"
     inkscape:snap-page="false"
     units="px"
     inkscape:window-width="1884"
     inkscape:window-height="1061"
     inkscape:window-x="0"
     inkscape:window-y="0"
     inkscape:window-maximized="1"
     fit-margin-top="0"
     fit-margin-left="0"
     fit-margin-right="0"
     fit-margin-bottom="0" />
  <metadata
     id="metadata5">
    <rdf:RDF>
      <cc:Work
         rdf:about="">
        <dc:format>image/svg+xml</dc:format>
        <dc:type
           rdf:resource="http://purl.org/dc/dcmitype/StillImage" />
        <dc:title></dc:title>
      </cc:Work>
    </rdf:RDF>
  </metadata>
    <circle
       style="color:#000000;clip-rule:nonzero;display:inline;overflow:visible;visibility:visible;opacity:1;isolation:auto;mix-blend-mode:normal;color-interpolation:sRGB;color-interpolation-filters:linearRGB;solid-color:#000000;solid-opacity:1;vector-effect:none;fill:#ffffff;fill-opacity:1;fill-rule:evenodd;stroke:#00a757;stroke-width:1;stroke-linecap:butt;stroke-linejoin:miter;stroke-miterlimit:4;stroke-dasharray:none;stroke-dashoffset:0;stroke-opacity:1;marker:none;color-rendering:auto;image-rendering:auto;shape-rendering:auto;text-rendering:auto;enable-background:accumulate"
       id="path815"
       cx="15"
       cy="15"
       r="14.5" />
<g transform="translate(6.5,8.5)"><path fill-rule="nonzero" fill="rgb(30%,30%,30%)" fill-opacity="1" d="M 16.644531 5.328125 C 16.609375 5.21875 16.5625 5.113281 16.511719 5.011719 L 16.707031 4.914062 C 16.652344 4.800781 16.589844 4.691406 16.519531 4.589844 L 16.335938 4.714844 C 16.273438 4.621094 16.199219 4.53125 16.125 4.445312 L 16.285156 4.296875 C 16.203125 4.203125 16.109375 4.117188 16.015625 4.039062 L 15.875 4.207031 C 15.785156 4.132812 15.691406 4.066406 15.597656 4.003906 L 15.710938 3.816406 C 15.605469 3.75 15.496094 3.691406 15.382812 3.640625 L 15.292969 3.839844 C 15.1875 3.792969 15.078125 3.753906 14.96875 3.722656 L 15.03125 3.511719 C 14.910156 3.476562 14.789062 3.449219 14.664062 3.429688 L 14.632812 3.644531 C 14.519531 3.628906 14.402344 3.621094 14.289062 3.617188 L 14.292969 3.398438 C 14.167969 3.394531 14.042969 3.402344 13.917969 3.417969 L 13.945312 3.636719 C 13.832031 3.652344 13.71875 3.671875 13.605469 3.703125 L 13.550781 3.488281 C 13.492188 3.507812 13.433594 3.523438 13.375 3.542969 C 13.3125 3.5625 13.253906 3.585938 13.195312 3.609375 L 13.28125 3.8125 C 13.21875 3.839844 13.15625 3.867188 13.09375 3.898438 L 12.257812 2.78125 C 12.695312 2.269531 14.359375 2.117188 14.300781 2.074219 C 13.75 1.699219 12.378906 1.921875 12.378906 1.921875 L 11.835938 1.085938 L 10.90625 0.851562 L 10.804688 1.097656 C 10.804688 1.097656 10.230469 0.257812 10.046875 0.109375 C 9.730469 -0.148438 8.167969 0.136719 8.167969 0.136719 L 8.285156 0.886719 L 9.523438 0.816406 L 10.089844 1.585938 L 9.738281 1.808594 C 7.851562 1.808594 6.785156 3.460938 6.785156 3.460938 C 6.785156 3.460938 6.394531 3.65625 5.652344 3.84375 C 4.910156 4.035156 0.0351562 4.5 0.0351562 4.5 C 0.0351562 4.5 -0.0976562 4.742188 0.15625 5.035156 C 0.40625 5.332031 1.394531 5.335938 2.511719 5.484375 C 3.898438 5.671875 3.722656 6.050781 4.414062 6.257812 C 5.109375 6.464844 5.890625 6.257812 5.890625 6.257812 L 6.183594 6.9375 L 5.066406 7.726562 C 5.015625 7.6875 4.964844 7.652344 4.910156 7.617188 L 5.027344 7.433594 C 4.921875 7.367188 4.8125 7.308594 4.695312 7.257812 L 4.605469 7.457031 C 4.5 7.410156 4.394531 7.371094 4.285156 7.335938 L 4.347656 7.125 C 4.226562 7.089844 4.105469 7.0625 3.980469 7.042969 L 3.945312 7.261719 C 3.832031 7.246094 3.71875 7.234375 3.605469 7.234375 L 3.605469 7.011719 C 3.480469 7.011719 3.355469 7.019531 3.230469 7.035156 L 3.257812 7.25 C 3.144531 7.265625 3.03125 7.289062 2.921875 7.316406 L 2.863281 7.105469 C 2.804688 7.121094 2.746094 7.140625 2.6875 7.160156 C 2.628906 7.179688 2.570312 7.203125 2.511719 7.226562 L 2.59375 7.429688 C 2.488281 7.472656 2.386719 7.523438 2.285156 7.582031 L 2.175781 7.394531 C 2.066406 7.457031 1.964844 7.527344 1.867188 7.605469 L 2.003906 7.777344 C 1.910156 7.847656 1.828125 7.925781 1.746094 8.007812 L 1.589844 7.855469 C 1.503906 7.949219 1.421875 8.042969 1.347656 8.144531 L 1.527344 8.273438 C 1.460938 8.367188 1.398438 8.464844 1.34375 8.566406 L 1.148438 8.460938 C 1.089844 8.570312 1.039062 8.6875 0.996094 8.804688 L 1.203125 8.878906 C 1.160156 8.988281 1.128906 9.097656 1.101562 9.210938 L 0.890625 9.164062 C 0.863281 9.285156 0.84375 9.410156 0.832031 9.53125 L 1.050781 9.550781 C 1.042969 9.664062 1.039062 9.78125 1.046875 9.894531 L 0.828125 9.90625 C 0.835938 10.03125 0.851562 10.15625 0.875 10.28125 L 1.089844 10.238281 C 1.109375 10.351562 1.140625 10.460938 1.175781 10.570312 L 0.96875 10.640625 C 1.011719 10.757812 1.058594 10.875 1.113281 10.988281 L 1.308594 10.890625 C 1.363281 10.992188 1.421875 11.089844 1.484375 11.1875 L 1.304688 11.308594 C 1.375 11.414062 1.453125 11.511719 1.535156 11.605469 L 1.699219 11.457031 C 1.777344 11.542969 1.859375 11.621094 1.945312 11.695312 L 1.804688 11.863281 C 1.902344 11.945312 2.003906 12.015625 2.109375 12.082031 L 2.226562 11.898438 C 2.324219 11.957031 2.425781 12.011719 2.527344 12.058594 L 2.4375 12.261719 C 2.550781 12.3125 2.667969 12.355469 2.789062 12.390625 L 2.851562 12.179688 C 2.960938 12.214844 3.074219 12.238281 3.1875 12.253906 L 3.15625 12.472656 C 3.277344 12.492188 3.402344 12.503906 3.527344 12.503906 L 3.53125 12.285156 C 3.648438 12.285156 3.761719 12.28125 3.875 12.265625 L 3.902344 12.484375 C 4.027344 12.46875 4.148438 12.445312 4.269531 12.414062 L 4.214844 12.199219 C 4.269531 12.1875 4.324219 12.171875 4.378906 12.152344 C 4.433594 12.132812 4.488281 12.113281 4.539062 12.089844 L 4.625 12.292969 C 4.742188 12.246094 4.851562 12.1875 4.960938 12.125 L 4.851562 11.9375 C 4.949219 11.878906 5.042969 11.8125 5.132812 11.742188 L 5.269531 11.914062 C 5.367188 11.835938 5.460938 11.753906 5.546875 11.664062 L 5.390625 11.511719 C 5.46875 11.425781 5.542969 11.339844 5.609375 11.246094 L 5.789062 11.375 C 5.863281 11.273438 5.929688 11.167969 5.988281 11.058594 L 5.792969 10.953125 C 5.847656 10.851562 5.894531 10.75 5.9375 10.640625 L 6.140625 10.71875 C 6.183594 10.601562 6.222656 10.480469 6.25 10.359375 L 6.035156 10.308594 C 6.058594 10.199219 6.078125 10.085938 6.085938 9.96875 L 6.304688 9.988281 C 6.316406 9.863281 6.316406 9.738281 6.3125 9.613281 L 6.089844 9.625 C 6.085938 9.558594 6.082031 9.492188 6.070312 9.421875 L 8.746094 7.542969 L 10.296875 7.050781 C 10.296875 7.050781 10.480469 5.574219 10.542969 5.171875 C 10.605469 4.769531 11.246094 3.792969 11.246094 3.792969 L 11.359375 3.632812 L 12.042969 4.515625 C 12.039062 4.519531 12.035156 4.523438 12.035156 4.527344 L 12.074219 4.558594 L 12.183594 4.699219 C 12.125 4.78125 12.074219 4.863281 12.027344 4.949219 L 11.835938 4.847656 C 11.777344 4.957031 11.722656 5.070312 11.679688 5.1875 L 11.886719 5.265625 C 11.847656 5.371094 11.8125 5.484375 11.789062 5.59375 L 11.574219 5.546875 C 11.546875 5.667969 11.527344 5.792969 11.519531 5.917969 L 11.738281 5.9375 C 11.726562 6.050781 11.726562 6.164062 11.730469 6.28125 L 11.511719 6.292969 C 11.519531 6.417969 11.535156 6.542969 11.558594 6.664062 L 11.773438 6.621094 C 11.796875 6.734375 11.824219 6.84375 11.863281 6.953125 C 11.863281 6.953125 11.863281 6.953125 11.863281 6.957031 L 11.65625 7.027344 C 11.695312 7.144531 11.742188 7.257812 11.796875 7.371094 L 11.996094 7.273438 C 12.046875 7.375 12.105469 7.476562 12.171875 7.570312 L 11.988281 7.695312 C 12.058594 7.796875 12.136719 7.894531 12.222656 7.988281 L 12.382812 7.839844 C 12.460938 7.925781 12.542969 8.003906 12.632812 8.078125 L 12.492188 8.246094 C 12.585938 8.328125 12.6875 8.402344 12.792969 8.46875 L 12.910156 8.28125 C 13.007812 8.34375 13.109375 8.398438 13.214844 8.445312 L 13.125 8.644531 C 13.238281 8.695312 13.355469 8.742188 13.472656 8.777344 L 13.539062 8.566406 C 13.648438 8.597656 13.761719 8.621094 13.875 8.640625 L 13.839844 8.859375 C 13.964844 8.875 14.089844 8.886719 14.214844 8.890625 L 14.21875 8.667969 C 14.332031 8.671875 14.449219 8.664062 14.5625 8.652344 L 14.589844 8.867188 C 14.710938 8.851562 14.835938 8.828125 14.957031 8.796875 L 14.898438 8.585938 C 14.953125 8.570312 15.007812 8.554688 15.0625 8.535156 C 15.117188 8.515625 15.171875 8.496094 15.226562 8.472656 L 15.308594 8.675781 C 15.425781 8.628906 15.539062 8.574219 15.644531 8.511719 L 15.535156 8.320312 C 15.632812 8.261719 15.730469 8.199219 15.820312 8.125 L 15.957031 8.300781 C 16.054688 8.222656 16.144531 8.136719 16.234375 8.046875 L 16.074219 7.894531 C 16.152344 7.8125 16.226562 7.722656 16.296875 7.628906 L 16.472656 7.761719 C 16.546875 7.660156 16.613281 7.554688 16.671875 7.441406 L 16.480469 7.339844 C 16.53125 7.238281 16.582031 7.132812 16.621094 7.023438 L 16.828125 7.101562 C 16.871094 6.984375 16.90625 6.863281 16.933594 6.742188 L 16.71875 6.695312 C 16.746094 6.582031 16.761719 6.46875 16.769531 6.355469 L 16.992188 6.371094 C 17 6.246094 17.003906 6.121094 16.996094 5.996094 L 16.777344 6.007812 C 16.769531 5.894531 16.757812 5.78125 16.734375 5.667969 L 16.949219 5.625 C 16.925781 5.503906 16.894531 5.382812 16.855469 5.261719 L 16.851562 5.257812 Z M 4.09375 11.160156 C 3.308594 11.425781 2.457031 11.007812 2.191406 10.222656 C 1.925781 9.4375 2.347656 8.585938 3.132812 8.320312 C 3.914062 8.054688 4.765625 8.476562 5.03125 9.261719 C 5.296875 10.046875 4.875 10.898438 4.09375 11.160156 Z M 14.777344 7.546875 C 13.992188 7.8125 13.140625 7.390625 12.875 6.605469 C 12.609375 5.824219 13.03125 4.972656 13.816406 4.707031 C 14.601562 4.441406 15.453125 4.863281 15.714844 5.644531 C 15.980469 6.429688 15.5625 7.28125 14.777344 7.546875 Z M 14.777344 7.546875 "/>
</g>
</svg>
