<?xml version="1.0" encoding="UTF-8" standalone="no"?>
<!-- Created with Inkscape (http://www.inkscape.org/) -->

<svg
   xmlns:dc="http://purl.org/dc/elements/1.1/"
   xmlns:cc="http://creativecommons.org/ns#"
   xmlns:rdf="http://www.w3.org/1999/02/22-rdf-syntax-ns#"
   xmlns:svg="http://www.w3.org/2000/svg"
   xmlns="http://www.w3.org/2000/svg"
   xmlns:xlink="http://www.w3.org/1999/xlink"
   xmlns:sodipodi="http://sodipodi.sourceforge.net/DTD/sodipodi-0.dtd"
   xmlns:inkscape="http://www.inkscape.org/namespaces/inkscape"
   width="30px"
   height="30px"
   version="1.1"
   id="svg8"
   inkscape:version="0.92.4 5da689c313, 2019-01-14"
   sodipodi:docname="container.svg">
  <defs
     id="defs2" />
  <sodipodi:namedview
     id="base"
     pagecolor="#ffffff"
     bordercolor="#666666"
     borderopacity="1.0"
     inkscape:pageopacity="0.0"
     inkscape:pageshadow="2"
     inkscape:zoom="13.049334"
     inkscape:cx="18.679046"
     inkscape:cy="12.165829"
     inkscape:document-units="px"
     inkscape:current-layer="layer1"
     showgrid="false"
     inkscape:snap-page="false"
     units="px"
     inkscape:window-width="1884"
     inkscape:window-height="1061"
     inkscape:window-x="0"
     inkscape:window-y="0"
     inkscape:window-maximized="1"
     fit-margin-top="0"
     fit-margin-left="0"
     fit-margin-right="0"
     fit-margin-bottom="0" />
  <metadata
     id="metadata5">
    <rdf:RDF>
      <cc:Work
         rdf:about="">
        <dc:format>image/svg+xml</dc:format>
        <dc:type
           rdf:resource="http://purl.org/dc/dcmitype/StillImage" />
        <dc:title></dc:title>
      </cc:Work>
    </rdf:RDF>
  </metadata>
    <circle
       style="color:#000000;clip-rule:nonzero;display:inline;overflow:visible;visibility:visible;opacity:1;isolation:auto;mix-blend-mode:normal;color-interpolation:sRGB;color-interpolation-filters:linearRGB;solid-color:#000000;solid-opacity:1;vector-effect:none;fill:#ffffff;fill-opacity:1;fill-rule:evenodd;stroke:#00a757;stroke-width:1;stroke-linecap:butt;stroke-linejoin:miter;stroke-miterlimit:4;stroke-dasharray:none;stroke-dashoffset:0;stroke-opacity:1;marker:none;color-rendering:auto;image-rendering:auto;shape-rendering:auto;text-rendering:auto;enable-background:accumulate"
       id="path815"
       cx="15"
       cy="15"
       r="14.5" />
<g transform="translate(6.5,7.5)"><path fill-rule="nonzero" fill="rgb(30%,30%,30%)" fill-opacity="1" d="M 15.523438 13.757812 C 15.246094 13.742188 14.980469 13.523438 14.667969 13.269531 C 14.207031 12.894531 13.683594 12.46875 12.980469 12.566406 C 12.519531 12.632812 12.1875 12.925781 11.863281 13.207031 C 11.503906 13.523438 11.167969 13.820312 10.621094 13.800781 C 10.324219 13.789062 10.035156 13.570312 9.703125 13.320312 C 9.207031 12.953125 8.644531 12.53125 7.871094 12.609375 C 7.425781 12.65625 7.074219 12.929688 6.738281 13.191406 C 6.359375 13.484375 6.003906 13.761719 5.5 13.761719 C 5.191406 13.761719 4.882812 13.535156 4.53125 13.269531 C 4.082031 12.9375 3.570312 12.5625 2.957031 12.613281 C 2.507812 12.648438 2.082031 12.945312 1.667969 13.234375 C 1.277344 13.503906 0.910156 13.761719 0.578125 13.761719 C 0.378906 13.761719 0.179688 13.707031 0.00390625 13.625 L 0.0117188 15.019531 C 0.191406 15.085938 0.386719 15.121094 0.582031 15.125 C 1.042969 15.125 1.492188 14.8125 1.929688 14.507812 C 2.304688 14.246094 2.660156 14 2.988281 13.972656 C 3.449219 13.933594 3.839844 14.226562 4.257812 14.535156 C 4.648438 14.824219 5.050781 15.125 5.5 15.121094 C 6.15625 15.121094 6.617188 14.761719 7.023438 14.449219 C 7.332031 14.207031 7.59375 14.003906 7.914062 13.96875 C 8.523438 13.90625 8.984375 14.25 9.433594 14.582031 C 9.800781 14.859375 10.179688 15.144531 10.613281 15.160156 C 10.636719 15.160156 10.660156 15.160156 10.679688 15.160156 C 11.359375 15.160156 11.792969 14.777344 12.183594 14.4375 C 12.46875 14.1875 12.714844 13.96875 13.039062 13.925781 C 13.5625 13.851562 13.957031 14.175781 14.375 14.515625 C 14.726562 14.800781 15.089844 15.09375 15.507812 15.117188 C 15.535156 15.117188 15.5625 15.117188 15.589844 15.117188 C 16.15625 15.117188 16.664062 14.832031 17.003906 14.578125 L 17.003906 13.082031 C 16.816406 13.261719 16.207031 13.789062 15.523438 13.757812 Z M 5.496094 12.585938 C 6.003906 12.585938 6.359375 12.34375 6.734375 12.09375 C 7.074219 11.863281 7.421875 11.628906 7.867188 11.589844 C 8.640625 11.519531 9.203125 11.882812 9.699219 12.207031 C 10.035156 12.421875 10.324219 12.609375 10.621094 12.617188 C 11.164062 12.632812 11.5 12.378906 11.859375 12.105469 C 12.183594 11.859375 12.515625 11.605469 12.976562 11.550781 C 12.988281 11.550781 12.996094 11.550781 13.003906 11.546875 C 13.019531 11.457031 13.027344 11.363281 13.027344 11.273438 L 13.027344 8.097656 C 13.027344 6.929688 11.921875 5.972656 10.574219 5.972656 L 5.503906 5.972656 C 4.15625 5.972656 3.050781 6.929688 3.050781 8.097656 L 3.050781 11.277344 C 3.050781 11.382812 3.058594 11.484375 3.074219 11.585938 C 3.636719 11.589844 4.109375 11.890625 4.527344 12.160156 C 4.878906 12.386719 5.1875 12.585938 5.496094 12.585938 Z M 7.984375 0 C 9.40625 0 10.558594 1.152344 10.558594 2.574219 C 10.558594 3.996094 9.40625 5.152344 7.984375 5.152344 C 6.5625 5.152344 5.410156 3.996094 5.410156 2.574219 C 5.410156 1.152344 6.5625 0 7.984375 0 Z M 7.984375 0 "/>
</g>
</svg>
