<?xml version="1.0" encoding="UTF-8"?>
<svg xmlns="http://www.w3.org/2000/svg" xmlns:xlink="http://www.w3.org/1999/xlink" width="11" height="10.158387" viewBox="0 0 11 10.158387">
<path fill-rule="nonzero" fill="rgb(30%,30%,30%)" fill-opacity="1" d="M 10.328125 8.078125 C 10.3125 8.070312 10.164062 8.199219 9.875 8.234375 C 10.101562 8.375 10.148438 8.5 10.160156 8.632812 C 10.183594 9.011719 9.613281 9.273438 9.320312 9.273438 L 8.207031 9.273438 C 7.925781 9.273438 7.6875 9.058594 7.671875 8.777344 C 7.671875 8.765625 7.671875 8.75 7.671875 8.734375 L 7.671875 8.710938 C 7.671875 8.636719 7.699219 8.523438 7.742188 8.398438 L 7.199219 8.398438 C 7.199219 8.398438 7.273438 8.554688 7.269531 8.679688 C 7.269531 8.804688 7.273438 8.691406 7.273438 8.699219 C 7.265625 8.972656 7.027344 9.21875 6.722656 9.269531 L 3.152344 9.238281 C 2.597656 9.019531 2.878906 8.605469 2.992188 8.472656 C 3 8.464844 3 8.453125 2.996094 8.441406 C 2.992188 8.433594 2.980469 8.429688 2.972656 8.429688 L 1.863281 8.445312 C 1.863281 8.445312 1.84375 8.664062 1.410156 8.90625 C 1.058594 9.101562 0.671875 9.234375 0.277344 9.292969 C -0.0898438 9.34375 -0.0117188 9.695312 0.0664062 9.746094 C 1.183594 10.425781 9.335938 10.066406 9.519531 10.039062 C 9.898438 9.984375 10.300781 9.875 10.546875 9.734375 C 11.550781 9.160156 10.609375 8.21875 10.328125 8.078125 Z M 10.328125 8.078125 "/>
<path fill-rule="nonzero" fill="rgb(30%,30%,30%)" fill-opacity="1" d="M 10.394531 6.839844 C 10.1875 6.59375 9.820312 6.414062 9.378906 6.355469 C 9.164062 6.328125 8.988281 6.300781 8.839844 6.269531 L 8.777344 6.40625 C 8.773438 6.414062 8.765625 6.421875 8.761719 6.429688 C 8.773438 6.460938 8.773438 6.492188 8.769531 6.523438 C 8.757812 6.625 8.667969 6.699219 8.5625 6.691406 C 8.460938 6.683594 8.378906 6.601562 8.378906 6.496094 C 8.378906 6.414062 8.429688 6.339844 8.507812 6.3125 C 8.507812 6.300781 8.511719 6.292969 8.515625 6.28125 L 8.558594 6.195312 C 8.46875 6.167969 8.382812 6.132812 8.300781 6.089844 C 8.28125 6.078125 8.25 6.0625 8.214844 6.042969 L 8.117188 6.214844 C 8.113281 6.21875 8.109375 6.226562 8.101562 6.234375 C 8.109375 6.261719 8.113281 6.292969 8.105469 6.320312 C 8.089844 6.414062 8.007812 6.484375 7.914062 6.484375 C 7.816406 6.484375 7.734375 6.414062 7.71875 6.316406 C 7.703125 6.222656 7.761719 6.128906 7.855469 6.097656 C 7.855469 6.089844 7.863281 6.078125 7.867188 6.070312 L 7.964844 5.902344 C 7.863281 5.84375 7.75 5.777344 7.632812 5.703125 C 7.628906 5.707031 7.625 5.714844 7.621094 5.71875 L 7.480469 5.902344 C 7.480469 5.90625 7.484375 5.914062 7.484375 5.921875 C 7.484375 6.023438 7.402344 6.109375 7.296875 6.117188 C 7.191406 6.121094 7.101562 6.046875 7.089844 5.941406 C 7.078125 5.839844 7.148438 5.742188 7.253906 5.726562 L 7.390625 5.546875 C 7.289062 5.476562 7.1875 5.402344 7.089844 5.328125 L 6.960938 5.457031 C 6.949219 5.46875 6.933594 5.476562 6.921875 5.484375 C 6.9375 5.566406 6.898438 5.644531 6.828125 5.6875 C 6.757812 5.730469 6.667969 5.726562 6.605469 5.671875 C 6.542969 5.621094 6.515625 5.539062 6.539062 5.460938 C 6.566406 5.382812 6.636719 5.328125 6.71875 5.324219 C 6.722656 5.296875 6.738281 5.273438 6.757812 5.253906 L 6.863281 5.144531 C 6.789062 5.078125 6.71875 5.011719 6.660156 4.945312 C 6.65625 4.949219 6.65625 4.949219 6.65625 4.949219 L 6.472656 5.132812 C 6.464844 5.140625 6.460938 5.144531 6.453125 5.148438 C 6.445312 5.257812 6.355469 5.335938 6.246094 5.332031 C 6.140625 5.328125 6.058594 5.238281 6.058594 5.132812 C 6.0625 5.023438 6.148438 4.9375 6.257812 4.9375 C 6.257812 4.9375 6.257812 4.9375 6.261719 4.9375 C 6.261719 4.9375 6.265625 4.933594 6.269531 4.929688 L 6.453125 4.746094 C 6.460938 4.738281 6.464844 4.734375 6.472656 4.730469 C 6.425781 4.671875 6.378906 4.609375 6.328125 4.542969 C 6.324219 4.546875 6.320312 4.550781 6.316406 4.554688 L 6.089844 4.683594 C 6.078125 4.691406 6.066406 4.695312 6.050781 4.699219 C 6.042969 4.78125 5.988281 4.851562 5.910156 4.871094 C 5.832031 4.894531 5.746094 4.867188 5.699219 4.800781 C 5.648438 4.734375 5.644531 4.648438 5.6875 4.578125 C 5.730469 4.507812 5.8125 4.472656 5.894531 4.488281 C 5.90625 4.46875 5.925781 4.449219 5.945312 4.4375 L 6.164062 4.3125 C 6.097656 4.214844 6.027344 4.117188 5.964844 4.015625 C 5.953125 4.023438 5.945312 4.03125 5.933594 4.039062 L 5.707031 4.171875 C 5.691406 4.179688 5.679688 4.183594 5.664062 4.1875 C 5.644531 4.265625 5.582031 4.324219 5.5 4.335938 C 5.421875 4.347656 5.34375 4.3125 5.300781 4.242188 C 5.261719 4.171875 5.265625 4.085938 5.316406 4.023438 C 5.363281 3.957031 5.449219 3.929688 5.523438 3.953125 C 5.535156 3.941406 5.546875 3.929688 5.5625 3.921875 L 5.789062 3.789062 C 5.796875 3.785156 5.804688 3.78125 5.8125 3.777344 C 5.738281 3.660156 5.667969 3.539062 5.597656 3.417969 C 5.589844 3.429688 5.578125 3.441406 5.566406 3.445312 L 5.339844 3.578125 C 5.328125 3.585938 5.3125 3.589844 5.296875 3.59375 C 5.277344 3.671875 5.214844 3.730469 5.136719 3.742188 C 5.054688 3.757812 4.976562 3.71875 4.9375 3.648438 C 4.894531 3.582031 4.898438 3.492188 4.949219 3.429688 C 5 3.367188 5.082031 3.335938 5.160156 3.359375 C 5.167969 3.347656 5.183594 3.335938 5.195312 3.328125 L 5.421875 3.199219 C 5.4375 3.191406 5.449219 3.183594 5.464844 3.183594 C 5.40625 3.074219 5.351562 2.96875 5.304688 2.875 C 5.300781 2.875 5.300781 2.878906 5.296875 2.878906 L 5.070312 3.011719 C 5.0625 3.015625 5.054688 3.019531 5.050781 3.019531 C 5.015625 3.121094 4.914062 3.179688 4.8125 3.152344 C 4.742188 3.132812 4.691406 3.082031 4.671875 3.015625 C 4.65625 2.953125 4.667969 2.886719 4.710938 2.835938 C 4.753906 2.785156 4.816406 2.757812 4.882812 2.765625 C 4.890625 2.765625 4.902344 2.769531 4.910156 2.769531 C 4.917969 2.765625 4.921875 2.765625 4.925781 2.761719 L 5.152344 2.628906 C 5.164062 2.625 5.175781 2.621094 5.1875 2.617188 C 5.15625 2.535156 5.132812 2.464844 5.125 2.414062 C 5.03125 1.917969 5.066406 1.089844 5.164062 0.128906 C 5.203125 -0.265625 3.699219 0.335938 2.519531 0.78125 C 2.332031 0.851562 1.734375 0.792969 1.734375 0.792969 C 1.734375 0.792969 2 1.886719 1.878906 2.730469 C 1.734375 3.738281 1.121094 5.148438 1.082031 5.6875 C 1.03125 6.40625 1.316406 6.667969 1.332031 6.769531 C 1.34375 6.875 1.410156 8.222656 1.683594 8.300781 L 3.546875 8.277344 C 3.59375 8.277344 3.632812 8.238281 3.632812 8.191406 C 3.636719 7.941406 3.648438 7.246094 3.660156 7.203125 C 3.671875 7.152344 3.730469 7.074219 4.039062 7.109375 C 5.03125 7.230469 5.828125 7.871094 6.351562 8.054688 C 6.875 8.234375 7.0625 8.234375 7.300781 8.234375 C 7.535156 8.234375 9.449219 8.195312 9.921875 8.078125 C 9.976562 8.066406 10.246094 7.949219 10.402344 7.753906 C 10.558594 7.554688 10.617188 7.109375 10.394531 6.839844 Z M 4.632812 0.335938 C 4.714844 0.328125 4.792969 0.371094 4.832031 0.449219 C 4.867188 0.523438 4.851562 0.613281 4.792969 0.671875 C 4.734375 0.730469 4.644531 0.746094 4.566406 0.710938 C 4.492188 0.675781 4.449219 0.59375 4.457031 0.511719 C 4.464844 0.417969 4.539062 0.347656 4.632812 0.335938 Z M 4.613281 0.945312 C 4.699219 0.9375 4.777344 0.984375 4.8125 1.058594 C 4.847656 1.132812 4.832031 1.222656 4.773438 1.28125 C 4.714844 1.339844 4.625 1.355469 4.550781 1.320312 C 4.476562 1.285156 4.429688 1.203125 4.4375 1.121094 C 4.449219 1.03125 4.523438 0.957031 4.613281 0.945312 Z M 4.632812 1.574219 C 4.714844 1.566406 4.792969 1.609375 4.832031 1.6875 C 4.867188 1.761719 4.851562 1.851562 4.792969 1.910156 C 4.734375 1.96875 4.644531 1.984375 4.566406 1.949219 C 4.492188 1.910156 4.449219 1.832031 4.457031 1.75 C 4.464844 1.65625 4.539062 1.585938 4.632812 1.574219 Z M 4.507812 2.335938 C 4.5 2.253906 4.546875 2.175781 4.621094 2.140625 C 4.695312 2.101562 4.785156 2.117188 4.84375 2.175781 C 4.902344 2.238281 4.917969 2.324219 4.882812 2.402344 C 4.847656 2.476562 4.765625 2.519531 4.683594 2.511719 C 4.59375 2.503906 4.519531 2.429688 4.507812 2.335938 Z M 4.507812 2.335938 "/>
</svg>
