<?xml version="1.0" encoding="UTF-8"?>
<svg xmlns="http://www.w3.org/2000/svg" xmlns:xlink="http://www.w3.org/1999/xlink" width="11" height="8.341415" viewBox="0 0 11 8.341415">
<path fill-rule="nonzero" fill="rgb(30%,30%,30%)" fill-opacity="1" d="M 0.832031 4.71875 C 0.855469 4.664062 0.878906 4.613281 0.910156 4.5625 L 0.808594 4.433594 C 0.710938 4.3125 0.671875 4.152344 0.703125 4 C 0.734375 3.847656 0.828125 3.714844 0.964844 3.636719 L 1.179688 3.515625 C 1.3125 3.4375 1.472656 3.421875 1.621094 3.46875 C 1.765625 3.519531 1.886719 3.625 1.949219 3.765625 L 1.960938 3.792969 L 2.144531 4.125 C 2.21875 4.164062 2.402344 4.242188 2.8125 4.324219 C 3.039062 4.371094 3.269531 4.394531 3.503906 4.390625 C 3.683594 4.390625 3.867188 4.378906 4.046875 4.359375 L 3.992188 4.167969 C 3.941406 3.996094 3.960938 3.808594 4.046875 3.648438 L 4.128906 3.496094 C 4.226562 3.308594 4.40625 3.175781 4.613281 3.132812 L 5.097656 3.035156 C 5.144531 3.023438 5.191406 3.019531 5.242188 3.019531 C 5.53125 3.019531 5.792969 3.191406 5.902344 3.460938 L 5.925781 3.523438 C 5.996094 3.6875 5.996094 3.875 5.929688 4.042969 L 5.820312 4.328125 C 5.894531 4.40625 5.960938 4.488281 6.023438 4.566406 C 6.109375 4.609375 6.195312 4.652344 6.289062 4.699219 C 6.824219 4.964844 7.492188 5.300781 7.933594 5.441406 C 8.171875 5.519531 8.539062 5.582031 8.925781 5.644531 C 9.246094 5.699219 9.582031 5.757812 9.894531 5.832031 C 9.902344 5.710938 9.886719 5.625 9.847656 5.605469 C 10.082031 4.867188 8.003906 4.21875 7.21875 3.683594 C 6.722656 3.347656 6.027344 2.675781 5.519531 2.207031 C 5.441406 2.011719 5.378906 1.835938 5.242188 1.671875 C 5.238281 1.664062 5.230469 1.660156 5.226562 1.660156 L 5.601562 1.175781 C 5.644531 1.117188 5.664062 1.046875 5.65625 0.972656 L 5.652344 0.90625 C 5.636719 0.769531 5.527344 0.664062 5.390625 0.652344 L 4.898438 0.613281 C 4.8125 0.605469 4.726562 0.636719 4.667969 0.695312 L 4.546875 0.820312 C 4.496094 0.871094 4.46875 0.941406 4.46875 1.015625 L 4.460938 1.683594 C 4.015625 1.648438 3.289062 1.546875 2.664062 1.199219 C 1.902344 0.777344 1.847656 0.523438 1.824219 0.527344 L 1.773438 0.101562 C 1.769531 0.0703125 1.75 0.0390625 1.722656 0.0195312 C 1.695312 0 1.664062 -0.00390625 1.628906 0.00390625 L 1.386719 0.0625 C 1.355469 0.0703125 1.328125 0.0898438 1.3125 0.121094 C 1.296875 0.148438 1.292969 0.183594 1.308594 0.214844 L 1.484375 0.660156 C 1.328125 0.75 1.15625 0.902344 1.019531 1.164062 C 0.953125 1.289062 0.734375 1.890625 0.570312 2.378906 C 0.515625 2.542969 0.464844 2.691406 0.429688 2.808594 C 0.425781 2.816406 0.425781 2.824219 0.421875 2.832031 C 0.0585938 2.773438 -0.113281 4.128906 0.0820312 4.324219 C 0.109375 4.355469 0.21875 4.515625 0.546875 4.628906 Z M 0.832031 4.71875 "/>
<path fill-rule="nonzero" fill="rgb(30%,30%,30%)" fill-opacity="1" d="M 10.867188 7.335938 C 10.855469 6.117188 8.710938 6.039062 7.800781 5.75 C 7.230469 5.566406 6.371094 5.113281 5.75 4.808594 C 5.621094 4.644531 5.507812 4.492188 5.332031 4.371094 C 5.324219 4.367188 5.320312 4.367188 5.3125 4.367188 L 5.535156 3.796875 C 5.5625 3.730469 5.558594 3.65625 5.53125 3.585938 L 5.507812 3.523438 C 5.453125 3.398438 5.316406 3.324219 5.183594 3.351562 L 4.699219 3.453125 C 4.617188 3.46875 4.542969 3.523438 4.503906 3.597656 L 4.425781 3.75 C 4.390625 3.8125 4.382812 3.890625 4.402344 3.960938 L 4.585938 4.605469 C 4.148438 4.695312 3.425781 4.789062 2.726562 4.644531 C 2.058594 4.507812 1.851562 4.367188 1.789062 4.289062 C 1.671875 4.226562 1.558594 3.839844 1.558594 3.839844 C 1.542969 3.808594 1.519531 3.785156 1.488281 3.777344 C 1.457031 3.765625 1.421875 3.769531 1.390625 3.785156 L 1.175781 3.910156 C 1.148438 3.925781 1.125 3.953125 1.121094 3.988281 C 1.113281 4.019531 1.121094 4.054688 1.144531 4.082031 L 1.4375 4.453125 C 1.316406 4.585938 1.191406 4.78125 1.136719 5.066406 C 1.109375 5.210938 1.070312 5.847656 1.050781 6.359375 L 1.050781 6.363281 C 1.046875 6.535156 1.042969 6.691406 1.039062 6.8125 C 1.039062 6.820312 1.039062 6.828125 1.039062 6.835938 C 0.675781 6.882812 0.898438 8.011719 1.136719 8.144531 C 1.175781 8.164062 1.324219 8.289062 1.675781 8.304688 L 3.394531 8.339844 C 4.101562 8.347656 4.457031 8.109375 5.449219 8.109375 C 6.589844 8.109375 7.265625 8.320312 7.972656 8.296875 L 10.167969 8.105469 C 10.242188 8.089844 10.316406 8.074219 10.386719 8.050781 C 11.183594 7.835938 11.035156 7.371094 10.867188 7.335938 Z M 10.867188 7.335938 "/>
</svg>
