<?xml version="1.0" encoding="UTF-8" standalone="no"?>
<!-- Created with Inkscape (http://www.inkscape.org/) -->

<svg
   xmlns:dc="http://purl.org/dc/elements/1.1/"
   xmlns:cc="http://creativecommons.org/ns#"
   xmlns:rdf="http://www.w3.org/1999/02/22-rdf-syntax-ns#"
   xmlns:svg="http://www.w3.org/2000/svg"
   xmlns="http://www.w3.org/2000/svg"
   xmlns:xlink="http://www.w3.org/1999/xlink"
   xmlns:sodipodi="http://sodipodi.sourceforge.net/DTD/sodipodi-0.dtd"
   xmlns:inkscape="http://www.inkscape.org/namespaces/inkscape"
   width="30px"
   height="30px"
   version="1.1"
   id="svg8"
   inkscape:version="0.92.4 5da689c313, 2019-01-14"
   sodipodi:docname="container.svg">
  <defs
     id="defs2" />
  <sodipodi:namedview
     id="base"
     pagecolor="#ffffff"
     bordercolor="#666666"
     borderopacity="1.0"
     inkscape:pageopacity="0.0"
     inkscape:pageshadow="2"
     inkscape:zoom="13.049334"
     inkscape:cx="18.679046"
     inkscape:cy="12.165829"
     inkscape:document-units="px"
     inkscape:current-layer="layer1"
     showgrid="false"
     inkscape:snap-page="false"
     units="px"
     inkscape:window-width="1884"
     inkscape:window-height="1061"
     inkscape:window-x="0"
     inkscape:window-y="0"
     inkscape:window-maximized="1"
     fit-margin-top="0"
     fit-margin-left="0"
     fit-margin-right="0"
     fit-margin-bottom="0" />
  <metadata
     id="metadata5">
    <rdf:RDF>
      <cc:Work
         rdf:about="">
        <dc:format>image/svg+xml</dc:format>
        <dc:type
           rdf:resource="http://purl.org/dc/dcmitype/StillImage" />
        <dc:title></dc:title>
      </cc:Work>
    </rdf:RDF>
  </metadata>
    <circle
       style="color:#000000;clip-rule:nonzero;display:inline;overflow:visible;visibility:visible;opacity:1;isolation:auto;mix-blend-mode:normal;color-interpolation:sRGB;color-interpolation-filters:linearRGB;solid-color:#000000;solid-opacity:1;vector-effect:none;fill:#00a757;fill-opacity:1;fill-rule:evenodd;stroke:#ffffff;stroke-width:1;stroke-linecap:butt;stroke-linejoin:miter;stroke-miterlimit:4;stroke-dasharray:none;stroke-dashoffset:0;stroke-opacity:1;marker:none;color-rendering:auto;image-rendering:auto;shape-rendering:auto;text-rendering:auto;enable-background:accumulate"
       id="path815"
       cx="15"
       cy="15"
       r="14.5" />
<g transform="translate(8.0,6.5)"><path fill-rule="nonzero" fill="#FFFFFF" fill-opacity="1" d="M 9.65625 8.921875 L 7.371094 8.871094 C 7.402344 8.703125 7.4375 8.53125 7.472656 8.363281 C 5.925781 8.277344 4.796875 8.023438 3.890625 7.820312 C 3.71875 7.78125 3.550781 7.742188 3.394531 7.707031 C 1.828125 7.375 0.488281 6.285156 0 5.90625 L 0 14.304688 C 1.046875 13.984375 1.984375 13.640625 2.460938 13.308594 C 2.460938 13.308594 5.222656 11.625 5.222656 11.625 C 5.8125 11.710938 7.179688 11.914062 7.179688 11.914062 L 6.902344 12.691406 L 5.421875 13.011719 L 4.558594 12.730469 C 4.558594 12.730469 3.96875 14.375 3.949219 14.460938 C 3.925781 14.546875 6.03125 14.179688 6.03125 14.179688 L 7.84375 13.507812 L 8.351562 12.644531 C 8.351562 12.644531 8.644531 13.054688 8.8125 13.121094 C 8.980469 13.183594 10.015625 12.273438 10.015625 12.273438 C 10.015625 12.273438 10.582031 10.695312 10.644531 10.195312 C 10.707031 9.699219 9.65625 8.921875 9.65625 8.921875 Z M 8.875 11.453125 C 8.875 11.453125 8.476562 10.738281 8.054688 10.671875 C 7.632812 10.609375 6.496094 10.542969 6.496094 10.542969 L 9.253906 9.894531 L 9.359375 10.910156 Z M 8.875 11.453125 "/>
<path fill-rule="nonzero" fill="#FFFFFF" fill-opacity="1" d="M 3.992188 7.34375 C 4.894531 7.542969 6.023438 7.796875 7.578125 7.878906 C 7.671875 7.453125 7.757812 7.042969 7.800781 6.667969 C 7.886719 5.957031 8.453125 6.144531 9.066406 5.730469 C 9.273438 5.589844 9.515625 5.5 9.761719 5.382812 C 9.808594 5.492188 9.839844 5.570312 9.878906 5.644531 C 10.066406 6.019531 10.234375 6.402344 10.445312 6.761719 C 10.691406 7.167969 11.027344 7.492188 11.4375 7.730469 C 11.4375 7.730469 11.4375 7.734375 11.4375 7.734375 C 12.144531 7.652344 12.90625 7.539062 13.734375 7.382812 C 13.707031 7.238281 13.671875 7.09375 13.632812 6.949219 C 13.566406 6.710938 13.539062 6.460938 13.542969 6.210938 C 13.5625 4.988281 13.417969 3.789062 13.046875 2.621094 C 12.996094 2.464844 13.046875 2.265625 13.078125 2.089844 C 13.164062 1.582031 13.273438 1.078125 13.554688 0.632812 C 13.566406 0.617188 13.570312 0.59375 13.59375 0.519531 C 13.335938 0.617188 13.121094 0.703125 12.894531 0.789062 C 12.925781 0.488281 13.125 0.269531 13.257812 0.0117188 C 12.824219 -0.0195312 11.652344 0.507812 11.347656 0.871094 C 9.460938 -0.109375 7.535156 -0.351562 5.5625 0.609375 C 5.9375 0.742188 6.617188 0.699219 7 0.933594 C 6.890625 0.96875 6.550781 0.996094 6.472656 1.019531 C 2.796875 1.769531 0.695312 4.550781 0.230469 5.460938 C 0.226562 5.476562 0.214844 5.488281 0.203125 5.496094 C 0.183594 5.511719 0.167969 5.527344 0.148438 5.539062 C 0.640625 5.914062 2.066406 6.929688 3.488281 7.230469 C 3.648438 7.265625 3.816406 7.300781 3.992188 7.34375 Z M 3.992188 7.34375 "/>
<path fill-rule="nonzero" fill="#FFFFFF" fill-opacity="1" d="M 13.753906 7.984375 C 13.757812 7.949219 13.761719 7.910156 13.765625 7.875 C 12.964844 8.023438 12.222656 8.132812 11.53125 8.214844 C 11.535156 8.273438 11.546875 8.332031 11.558594 8.386719 C 11.683594 8.828125 11.980469 9.054688 12.433594 9.066406 C 12.625 9.070312 12.816406 9.058594 13.003906 9.027344 C 13.199219 8.996094 13.339844 8.863281 13.453125 8.703125 C 13.542969 8.570312 13.625 8.429688 13.710938 8.292969 L 13.765625 8.109375 C 13.761719 8.066406 13.746094 8.023438 13.753906 7.984375 Z M 13.753906 7.984375 "/>
<path fill-rule="nonzero" fill="#FFFFFF" fill-opacity="1" d="M 11.398438 16.273438 C 12.296875 15.929688 12.820312 14.992188 12.636719 14.050781 C 12.457031 13.105469 11.625 12.429688 10.664062 12.445312 C 9.703125 12.460938 8.890625 13.167969 8.742188 14.117188 C 8.59375 15.066406 9.148438 15.984375 10.058594 16.292969 L 10.058594 17 L 11.398438 17 Z M 9.636719 14.421875 C 9.636719 13.839844 10.109375 13.363281 10.695312 13.363281 C 11.28125 13.363281 11.753906 13.839844 11.753906 14.421875 C 11.753906 15.007812 11.28125 15.480469 10.695312 15.480469 C 10.109375 15.480469 9.636719 15.007812 9.636719 14.421875 Z M 9.636719 14.421875 "/>
<path fill-rule="nonzero" fill="#FFFFFF" fill-opacity="1" d="M 8.863281 8.523438 C 8.285156 8.523438 7.972656 8.445312 7.800781 8.40625 C 7.765625 8.398438 7.726562 8.386719 7.714844 8.386719 L 7.761719 7.898438 C 7.8125 7.90625 7.859375 7.917969 7.910156 7.929688 C 8.222656 8.007812 9.058594 8.210938 11.398438 7.710938 L 11.496094 8.1875 C 10.277344 8.449219 9.441406 8.523438 8.863281 8.523438 Z M 8.863281 8.523438 "/>
</g>
</svg>
