<?xml version="1.0" encoding="UTF-8" standalone="no"?>
<!-- Created with Inkscape (http://www.inkscape.org/) -->

<svg
   xmlns:dc="http://purl.org/dc/elements/1.1/"
   xmlns:cc="http://creativecommons.org/ns#"
   xmlns:rdf="http://www.w3.org/1999/02/22-rdf-syntax-ns#"
   xmlns:svg="http://www.w3.org/2000/svg"
   xmlns="http://www.w3.org/2000/svg"
   xmlns:xlink="http://www.w3.org/1999/xlink"
   xmlns:sodipodi="http://sodipodi.sourceforge.net/DTD/sodipodi-0.dtd"
   xmlns:inkscape="http://www.inkscape.org/namespaces/inkscape"
   width="30px"
   height="30px"
   version="1.1"
   id="svg8"
   inkscape:version="0.92.4 5da689c313, 2019-01-14"
   sodipodi:docname="container.svg">
  <defs
     id="defs2" />
  <sodipodi:namedview
     id="base"
     pagecolor="#ffffff"
     bordercolor="#666666"
     borderopacity="1.0"
     inkscape:pageopacity="0.0"
     inkscape:pageshadow="2"
     inkscape:zoom="13.049334"
     inkscape:cx="18.679046"
     inkscape:cy="12.165829"
     inkscape:document-units="px"
     inkscape:current-layer="layer1"
     showgrid="false"
     inkscape:snap-page="false"
     units="px"
     inkscape:window-width="1884"
     inkscape:window-height="1061"
     inkscape:window-x="0"
     inkscape:window-y="0"
     inkscape:window-maximized="1"
     fit-margin-top="0"
     fit-margin-left="0"
     fit-margin-right="0"
     fit-margin-bottom="0" />
  <metadata
     id="metadata5">
    <rdf:RDF>
      <cc:Work
         rdf:about="">
        <dc:format>image/svg+xml</dc:format>
        <dc:type
           rdf:resource="http://purl.org/dc/dcmitype/StillImage" />
        <dc:title></dc:title>
      </cc:Work>
    </rdf:RDF>
  </metadata>
    <circle
       style="color:#000000;clip-rule:nonzero;display:inline;overflow:visible;visibility:visible;opacity:1;isolation:auto;mix-blend-mode:normal;color-interpolation:sRGB;color-interpolation-filters:linearRGB;solid-color:#000000;solid-opacity:1;vector-effect:none;fill:#00a757;fill-opacity:1;fill-rule:evenodd;stroke:#ffffff;stroke-width:1;stroke-linecap:butt;stroke-linejoin:miter;stroke-miterlimit:4;stroke-dasharray:none;stroke-dashoffset:0;stroke-opacity:1;marker:none;color-rendering:auto;image-rendering:auto;shape-rendering:auto;text-rendering:auto;enable-background:accumulate"
       id="path815"
       cx="15"
       cy="15"
       r="14.5" />
<g transform="translate(8.0,6.5)"><path fill-rule="nonzero" fill="#FFFFFF" fill-opacity="1" d="M 13.21875 15.871094 L 8.484375 14.136719 L 13.363281 12.410156 C 13.664062 12.304688 13.824219 11.972656 13.714844 11.667969 C 13.609375 11.367188 13.277344 11.207031 12.972656 11.316406 L 6.773438 13.511719 L 0.78125 11.316406 C 0.480469 11.207031 0.144531 11.359375 0.0351562 11.664062 C -0.0742188 11.964844 0.078125 12.296875 0.382812 12.410156 L 5.054688 14.121094 L 0.425781 15.757812 C 0.121094 15.867188 -0.0351562 16.199219 0.0703125 16.5 C 0.179688 16.804688 0.511719 16.960938 0.8125 16.855469 L 6.765625 14.746094 L 12.816406 16.964844 C 13.121094 17.074219 13.453125 16.921875 13.5625 16.617188 C 13.675781 16.316406 13.519531 15.984375 13.21875 15.871094 Z M 13.21875 15.871094 "/>
<path fill-rule="nonzero" fill="#FFFFFF" fill-opacity="1" d="M 5.25 11.90625 C 4.957031 12.195312 -1.316406 10.265625 2.785156 4.519531 C 2.785156 4.519531 3.605469 6.980469 4.839844 6.980469 C 5.25 6.980469 2.582031 3.902344 7.710938 0.00390625 C 7.941406 -0.171875 7.03125 5.820312 9.351562 6.980469 C 10.175781 7.390625 9.351562 4.109375 9.351562 4.109375 C 9.351562 4.109375 12.636719 6.160156 11.816406 8.621094 C 10.996094 11.085938 8.53125 11.90625 8.53125 11.90625 C 8.53125 11.90625 9.175781 9.179688 8.53125 8.210938 C 7.710938 6.980469 6.683594 6.367188 6.683594 6.367188 C 6.683594 6.367188 6.890625 8.621094 5.660156 9.035156 C 4.429688 9.445312 3.605469 7.800781 3.605469 7.800781 C 3.402344 9.238281 5.453125 11.699219 5.25 11.90625 Z M 5.25 11.90625 "/>
</g>
</svg>
