<?xml version="1.0" encoding="UTF-8" standalone="no"?>
<!-- Created with Inkscape (http://www.inkscape.org/) -->

<svg
   xmlns:dc="http://purl.org/dc/elements/1.1/"
   xmlns:cc="http://creativecommons.org/ns#"
   xmlns:rdf="http://www.w3.org/1999/02/22-rdf-syntax-ns#"
   xmlns:svg="http://www.w3.org/2000/svg"
   xmlns="http://www.w3.org/2000/svg"
   xmlns:xlink="http://www.w3.org/1999/xlink"
   xmlns:sodipodi="http://sodipodi.sourceforge.net/DTD/sodipodi-0.dtd"
   xmlns:inkscape="http://www.inkscape.org/namespaces/inkscape"
   width="30px"
   height="30px"
   version="1.1"
   id="svg8"
   inkscape:version="0.92.4 5da689c313, 2019-01-14"
   sodipodi:docname="container.svg">
  <defs
     id="defs2" />
  <sodipodi:namedview
     id="base"
     pagecolor="#ffffff"
     bordercolor="#666666"
     borderopacity="1.0"
     inkscape:pageopacity="0.0"
     inkscape:pageshadow="2"
     inkscape:zoom="13.049334"
     inkscape:cx="18.679046"
     inkscape:cy="12.165829"
     inkscape:document-units="px"
     inkscape:current-layer="layer1"
     showgrid="false"
     inkscape:snap-page="false"
     units="px"
     inkscape:window-width="1884"
     inkscape:window-height="1061"
     inkscape:window-x="0"
     inkscape:window-y="0"
     inkscape:window-maximized="1"
     fit-margin-top="0"
     fit-margin-left="0"
     fit-margin-right="0"
     fit-margin-bottom="0" />
  <metadata
     id="metadata5">
    <rdf:RDF>
      <cc:Work
         rdf:about="">
        <dc:format>image/svg+xml</dc:format>
        <dc:type
           rdf:resource="http://purl.org/dc/dcmitype/StillImage" />
        <dc:title></dc:title>
      </cc:Work>
    </rdf:RDF>
  </metadata>
    <circle
       style="color:#000000;clip-rule:nonzero;display:inline;overflow:visible;visibility:visible;opacity:1;isolation:auto;mix-blend-mode:normal;color-interpolation:sRGB;color-interpolation-filters:linearRGB;solid-color:#000000;solid-opacity:1;vector-effect:none;fill:#ffffff;fill-opacity:1;fill-rule:evenodd;stroke:#00a757;stroke-width:1;stroke-linecap:butt;stroke-linejoin:miter;stroke-miterlimit:4;stroke-dasharray:none;stroke-dashoffset:0;stroke-opacity:1;marker:none;color-rendering:auto;image-rendering:auto;shape-rendering:auto;text-rendering:auto;enable-background:accumulate"
       id="path815"
       cx="15"
       cy="15"
       r="14.5" />
<g transform="translate(7.5,6.5)"><path fill-rule="nonzero" fill="rgb(30%,30%,30%)" fill-opacity="1" d="M 12.242188 10.507812 C 12.226562 10.378906 12.175781 10.261719 12.09375 10.164062 C 11.863281 9.847656 11.441406 9.738281 11.089844 9.90625 L 11.03125 9.9375 C 10.996094 9.949219 10.960938 9.96875 10.929688 9.988281 L 8.011719 11.398438 L 6.457031 8.578125 L 7.503906 9 C 7.761719 9.101562 8.054688 8.976562 8.15625 8.71875 L 8.265625 8.445312 L 8.273438 8.433594 L 8.277344 8.417969 C 8.289062 8.390625 8.296875 8.363281 8.304688 8.332031 L 9.6875 4.304688 C 9.832031 3.890625 9.613281 3.433594 9.199219 3.289062 L 9.167969 3.277344 C 8.75 3.136719 8.296875 3.355469 8.148438 3.773438 L 7.023438 7.046875 C 7.023438 7.046875 4.515625 5.78125 4.144531 5.984375 L 2.996094 6.621094 C 2.023438 7.25 2.816406 8.539062 2.816406 8.539062 L 5.160156 12.777344 L 5.152344 12.78125 L 5.59375 13.5625 C 5.796875 13.925781 6.246094 14.066406 6.621094 13.882812 L 10.441406 12.035156 L 9.96875 16.246094 C 9.929688 16.597656 10.183594 16.914062 10.535156 16.957031 L 10.882812 16.996094 C 11.234375 17.035156 11.550781 16.785156 11.59375 16.433594 L 12.210938 10.917969 C 12.257812 10.785156 12.269531 10.644531 12.242188 10.507812 Z M 12.242188 10.507812 "/>
<path fill-rule="nonzero" fill="rgb(30%,30%,30%)" fill-opacity="1" d="M 3.992188 4.425781 C 3.992188 5.527344 3.097656 6.421875 1.996094 6.421875 C 0.894531 6.421875 0 5.527344 0 4.425781 C 0 3.320312 0.894531 2.429688 1.996094 2.429688 C 3.097656 2.429688 3.992188 3.320312 3.992188 4.425781 Z M 3.992188 4.425781 "/>
<path fill-rule="nonzero" fill="rgb(30%,30%,30%)" fill-opacity="1" d="M 8.140625 3.28125 C 7.996094 3.28125 7.859375 3.199219 7.792969 3.066406 L 6.941406 1.414062 L 5.777344 0.730469 C 5.589844 0.621094 5.527344 0.378906 5.636719 0.195312 C 5.746094 0.0078125 5.984375 -0.0546875 6.171875 0.0546875 L 7.433594 0.792969 C 7.5 0.832031 7.550781 0.886719 7.585938 0.953125 L 8.492188 2.707031 C 8.554688 2.832031 8.546875 2.976562 8.476562 3.09375 C 8.40625 3.210938 8.277344 3.28125 8.140625 3.28125 Z M 8.140625 3.28125 "/>
<path fill-rule="nonzero" fill="rgb(30%,30%,30%)" fill-opacity="1" d="M 11.378906 9.535156 C 11.246094 9.535156 11.121094 9.464844 11.046875 9.351562 L 9.183594 6.390625 C 9.066406 6.207031 9.121094 5.964844 9.304688 5.847656 C 9.488281 5.734375 9.730469 5.789062 9.84375 5.972656 L 11.710938 8.933594 C 11.785156 9.054688 11.792969 9.207031 11.722656 9.332031 C 11.652344 9.457031 11.523438 9.535156 11.378906 9.535156 Z M 11.378906 9.535156 "/>
<path fill-rule="nonzero" fill="rgb(30%,30%,30%)" fill-opacity="1" d="M 15.039062 16.730469 C 14.867188 16.730469 14.710938 16.613281 14.664062 16.445312 C 14.570312 16.234375 13.925781 15.046875 13.449219 14.167969 C 13.183594 13.683594 12.933594 13.222656 12.75 12.871094 C 12.648438 12.683594 12.574219 12.542969 12.523438 12.445312 C 12.421875 12.246094 12.359375 12.128906 12.429688 11.953125 C 12.488281 11.800781 12.640625 11.703125 12.804688 11.707031 C 12.96875 11.710938 13.113281 11.820312 13.164062 11.976562 L 13.167969 11.980469 C 13.246094 12.152344 13.71875 13.023438 14.140625 13.796875 C 14.441406 14.359375 14.757812 14.9375 14.996094 15.386719 C 15.125 15.628906 15.222656 15.808594 15.289062 15.9375 C 15.414062 16.191406 15.488281 16.328125 15.390625 16.515625 C 15.324219 16.648438 15.1875 16.730469 15.039062 16.730469 Z M 14.691406 16.164062 C 14.671875 16.203125 14.65625 16.246094 14.652344 16.292969 C 14.65625 16.246094 14.671875 16.203125 14.691406 16.164062 Z M 14.691406 16.164062 Z M 14.691406 16.160156 L 14.691406 16.164062 Z M 14.691406 16.160156 "/>
</g>
</svg>
