<?xml version="1.0" encoding="UTF-8" standalone="no"?>
<!-- Created with Inkscape (http://www.inkscape.org/) -->

<svg
   xmlns:dc="http://purl.org/dc/elements/1.1/"
   xmlns:cc="http://creativecommons.org/ns#"
   xmlns:rdf="http://www.w3.org/1999/02/22-rdf-syntax-ns#"
   xmlns:svg="http://www.w3.org/2000/svg"
   xmlns="http://www.w3.org/2000/svg"
   xmlns:xlink="http://www.w3.org/1999/xlink"
   xmlns:sodipodi="http://sodipodi.sourceforge.net/DTD/sodipodi-0.dtd"
   xmlns:inkscape="http://www.inkscape.org/namespaces/inkscape"
   width="30px"
   height="30px"
   version="1.1"
   id="svg8"
   inkscape:version="0.92.4 5da689c313, 2019-01-14"
   sodipodi:docname="container.svg">
  <defs
     id="defs2" />
  <sodipodi:namedview
     id="base"
     pagecolor="#ffffff"
     bordercolor="#666666"
     borderopacity="1.0"
     inkscape:pageopacity="0.0"
     inkscape:pageshadow="2"
     inkscape:zoom="13.049334"
     inkscape:cx="18.679046"
     inkscape:cy="12.165829"
     inkscape:document-units="px"
     inkscape:current-layer="layer1"
     showgrid="false"
     inkscape:snap-page="false"
     units="px"
     inkscape:window-width="1884"
     inkscape:window-height="1061"
     inkscape:window-x="0"
     inkscape:window-y="0"
     inkscape:window-maximized="1"
     fit-margin-top="0"
     fit-margin-left="0"
     fit-margin-right="0"
     fit-margin-bottom="0" />
  <metadata
     id="metadata5">
    <rdf:RDF>
      <cc:Work
         rdf:about="">
        <dc:format>image/svg+xml</dc:format>
        <dc:type
           rdf:resource="http://purl.org/dc/dcmitype/StillImage" />
        <dc:title></dc:title>
      </cc:Work>
    </rdf:RDF>
  </metadata>
    <circle
       style="color:#000000;clip-rule:nonzero;display:inline;overflow:visible;visibility:visible;opacity:1;isolation:auto;mix-blend-mode:normal;color-interpolation:sRGB;color-interpolation-filters:linearRGB;solid-color:#000000;solid-opacity:1;vector-effect:none;fill:#ffffff;fill-opacity:1;fill-rule:evenodd;stroke:#00a757;stroke-width:1;stroke-linecap:butt;stroke-linejoin:miter;stroke-miterlimit:4;stroke-dasharray:none;stroke-dashoffset:0;stroke-opacity:1;marker:none;color-rendering:auto;image-rendering:auto;shape-rendering:auto;text-rendering:auto;enable-background:accumulate"
       id="path815"
       cx="15"
       cy="15"
       r="14.5" />
<g transform="translate(6.5,8.0)"><path fill-rule="nonzero" fill="rgb(30%,30%,30%)" fill-opacity="1" d="M 6.625 1.710938 C 6.625 2.652344 5.863281 3.417969 4.917969 3.417969 C 3.972656 3.417969 3.207031 2.652344 3.207031 1.710938 C 3.207031 0.765625 3.972656 0 4.917969 0 C 5.863281 0 6.625 0.765625 6.625 1.710938 Z M 6.625 1.710938 "/>
<path fill-rule="nonzero" fill="rgb(30%,30%,30%)" fill-opacity="1" d="M 13.933594 1.710938 C 13.933594 2.652344 13.167969 3.417969 12.222656 3.417969 C 11.277344 3.417969 10.515625 2.652344 10.515625 1.710938 C 10.515625 0.765625 11.277344 0 12.222656 0 C 13.167969 0 13.933594 0.765625 13.933594 1.710938 Z M 13.933594 1.710938 "/>
<path fill-rule="nonzero" fill="rgb(30%,30%,30%)" fill-opacity="1" d="M 17 5.421875 L 17 5.300781 C 17 5 16.753906 4.753906 16.453125 4.753906 L 0.546875 4.753906 C 0.246094 4.753906 0 5 0 5.300781 L 0 5.421875 C 0 5.726562 0.246094 5.972656 0.546875 5.972656 L 3.246094 5.972656 C 3.546875 5.972656 3.792969 6.214844 3.792969 6.519531 L 3.792969 9.316406 C 3.792969 9.398438 3.773438 9.476562 3.742188 9.550781 L 1.777344 13.683594 C 1.695312 13.855469 1.707031 14.054688 1.808594 14.214844 C 1.910156 14.371094 2.082031 14.46875 2.273438 14.46875 L 2.277344 14.46875 C 2.488281 14.46875 2.679688 14.347656 2.769531 14.15625 L 4.902344 9.671875 L 4.96875 9.671875 L 7.144531 14.160156 C 7.234375 14.347656 7.425781 14.46875 7.636719 14.46875 C 7.824219 14.46875 8 14.371094 8.101562 14.210938 C 8.199219 14.050781 8.210938 13.851562 8.128906 13.679688 L 6.238281 9.773438 C 6.199219 9.699219 6.183594 9.617188 6.183594 9.535156 L 6.183594 6.519531 C 6.183594 6.214844 6.425781 5.972656 6.730469 5.972656 L 10.433594 5.972656 C 10.738281 5.972656 10.980469 6.214844 10.980469 6.519531 L 10.980469 9.363281 C 10.980469 9.445312 10.964844 9.527344 10.929688 9.601562 L 8.988281 13.683594 C 8.910156 13.855469 8.921875 14.054688 9.019531 14.214844 C 9.121094 14.371094 9.296875 14.46875 9.484375 14.46875 L 9.488281 14.46875 C 9.699219 14.46875 9.890625 14.347656 9.984375 14.15625 L 12.113281 9.671875 L 12.191406 9.671875 L 14.355469 14.160156 C 14.445312 14.347656 14.636719 14.46875 14.847656 14.46875 L 14.851562 14.46875 C 15.039062 14.46875 15.214844 14.371094 15.3125 14.210938 C 15.414062 14.050781 15.425781 13.851562 15.34375 13.683594 L 13.425781 9.703125 C 13.390625 9.628906 13.371094 9.546875 13.371094 9.464844 L 13.371094 6.519531 C 13.371094 6.214844 13.617188 5.972656 13.917969 5.972656 L 16.453125 5.972656 C 16.753906 5.972656 17 5.726562 17 5.421875 Z M 17 5.421875 "/>
</g>
</svg>
