<?xml version="1.0" encoding="UTF-8" standalone="no"?>
<!-- Created with Inkscape (http://www.inkscape.org/) -->

<svg
   xmlns:dc="http://purl.org/dc/elements/1.1/"
   xmlns:cc="http://creativecommons.org/ns#"
   xmlns:rdf="http://www.w3.org/1999/02/22-rdf-syntax-ns#"
   xmlns:svg="http://www.w3.org/2000/svg"
   xmlns="http://www.w3.org/2000/svg"
   xmlns:xlink="http://www.w3.org/1999/xlink"
   xmlns:sodipodi="http://sodipodi.sourceforge.net/DTD/sodipodi-0.dtd"
   xmlns:inkscape="http://www.inkscape.org/namespaces/inkscape"
   width="30px"
   height="30px"
   version="1.1"
   id="svg8"
   inkscape:version="0.92.4 5da689c313, 2019-01-14"
   sodipodi:docname="container.svg">
  <defs
     id="defs2" />
  <sodipodi:namedview
     id="base"
     pagecolor="#ffffff"
     bordercolor="#666666"
     borderopacity="1.0"
     inkscape:pageopacity="0.0"
     inkscape:pageshadow="2"
     inkscape:zoom="13.049334"
     inkscape:cx="18.679046"
     inkscape:cy="12.165829"
     inkscape:document-units="px"
     inkscape:current-layer="layer1"
     showgrid="false"
     inkscape:snap-page="false"
     units="px"
     inkscape:window-width="1884"
     inkscape:window-height="1061"
     inkscape:window-x="0"
     inkscape:window-y="0"
     inkscape:window-maximized="1"
     fit-margin-top="0"
     fit-margin-left="0"
     fit-margin-right="0"
     fit-margin-bottom="0" />
  <metadata
     id="metadata5">
    <rdf:RDF>
      <cc:Work
         rdf:about="">
        <dc:format>image/svg+xml</dc:format>
        <dc:type
           rdf:resource="http://purl.org/dc/dcmitype/StillImage" />
        <dc:title></dc:title>
      </cc:Work>
    </rdf:RDF>
  </metadata>
    <circle
       style="color:#000000;clip-rule:nonzero;display:inline;overflow:visible;visibility:visible;opacity:1;isolation:auto;mix-blend-mode:normal;color-interpolation:sRGB;color-interpolation-filters:linearRGB;solid-color:#000000;solid-opacity:1;vector-effect:none;fill:#00a757;fill-opacity:1;fill-rule:evenodd;stroke:#ffffff;stroke-width:1;stroke-linecap:butt;stroke-linejoin:miter;stroke-miterlimit:4;stroke-dasharray:none;stroke-dashoffset:0;stroke-opacity:1;marker:none;color-rendering:auto;image-rendering:auto;shape-rendering:auto;text-rendering:auto;enable-background:accumulate"
       id="path815"
       cx="15"
       cy="15"
       r="14.5" />
<g transform="translate(7.5,6.5)"><path fill-rule="nonzero" fill="#FFFFFF" fill-opacity="1" d="M 0 14.503906 L 3.769531 6.882812 C 3.769531 6.882812 5.191406 1.207031 7.65625 0.410156 C 10.121094 -0.386719 12.1875 0.183594 12.683594 0.410156 C 13.183594 0.632812 14.703125 1.503906 14.851562 1.851562 C 15.0625 2.359375 15.472656 3.855469 14.277344 6.460938 C 12.648438 10.003906 10.332031 12.71875 10.332031 12.71875 L 6.722656 17 L 6.421875 16.203125 C 6.421875 16.203125 8.714844 13.761719 10.132812 11.820312 C 11.550781 9.878906 14.914062 4.402344 14.253906 2.648438 C 14.253906 2.648438 13.765625 1.289062 11.277344 3.058594 C 8.789062 4.824219 5.453125 7.988281 5.453125 7.988281 L 0.671875 16.179688 L 0.445312 15.605469 L 5.027344 7.6875 L 4.207031 7.117188 L 0.269531 15.15625 Z M 0 14.503906 "/>
<path fill-rule="nonzero" fill="#FFFFFF" fill-opacity="1" d="M 8.589844 5.769531 C 8.589844 5.769531 12.828125 2.074219 13.566406 2.707031 C 13.917969 3.007812 14.289062 3.703125 12.523438 7.117188 C 10.785156 10.46875 7.742188 14.085938 7.742188 14.085938 L 6.621094 13.316406 L 4.628906 16.652344 L 4.355469 16.078125 C 4.355469 16.078125 6.871094 11.96875 7.519531 10.328125 C 8.164062 8.683594 8.589844 5.769531 8.589844 5.769531 Z M 8.589844 5.769531 "/>
</g>
</svg>
