<?xml version="1.0" encoding="UTF-8" standalone="no"?>
<!-- Created with Inkscape (http://www.inkscape.org/) -->

<svg
   xmlns:dc="http://purl.org/dc/elements/1.1/"
   xmlns:cc="http://creativecommons.org/ns#"
   xmlns:rdf="http://www.w3.org/1999/02/22-rdf-syntax-ns#"
   xmlns:svg="http://www.w3.org/2000/svg"
   xmlns="http://www.w3.org/2000/svg"
   xmlns:xlink="http://www.w3.org/1999/xlink"
   xmlns:sodipodi="http://sodipodi.sourceforge.net/DTD/sodipodi-0.dtd"
   xmlns:inkscape="http://www.inkscape.org/namespaces/inkscape"
   width="30px"
   height="30px"
   version="1.1"
   id="svg8"
   inkscape:version="0.92.4 5da689c313, 2019-01-14"
   sodipodi:docname="container.svg">
  <defs
     id="defs2" />
  <sodipodi:namedview
     id="base"
     pagecolor="#ffffff"
     bordercolor="#666666"
     borderopacity="1.0"
     inkscape:pageopacity="0.0"
     inkscape:pageshadow="2"
     inkscape:zoom="13.049334"
     inkscape:cx="18.679046"
     inkscape:cy="12.165829"
     inkscape:document-units="px"
     inkscape:current-layer="layer1"
     showgrid="false"
     inkscape:snap-page="false"
     units="px"
     inkscape:window-width="1884"
     inkscape:window-height="1061"
     inkscape:window-x="0"
     inkscape:window-y="0"
     inkscape:window-maximized="1"
     fit-margin-top="0"
     fit-margin-left="0"
     fit-margin-right="0"
     fit-margin-bottom="0" />
  <metadata
     id="metadata5">
    <rdf:RDF>
      <cc:Work
         rdf:about="">
        <dc:format>image/svg+xml</dc:format>
        <dc:type
           rdf:resource="http://purl.org/dc/dcmitype/StillImage" />
        <dc:title></dc:title>
      </cc:Work>
    </rdf:RDF>
  </metadata>
    <circle
       style="color:#000000;clip-rule:nonzero;display:inline;overflow:visible;visibility:visible;opacity:1;isolation:auto;mix-blend-mode:normal;color-interpolation:sRGB;color-interpolation-filters:linearRGB;solid-color:#000000;solid-opacity:1;vector-effect:none;fill:#00a757;fill-opacity:1;fill-rule:evenodd;stroke:#ffffff;stroke-width:1;stroke-linecap:butt;stroke-linejoin:miter;stroke-miterlimit:4;stroke-dasharray:none;stroke-dashoffset:0;stroke-opacity:1;marker:none;color-rendering:auto;image-rendering:auto;shape-rendering:auto;text-rendering:auto;enable-background:accumulate"
       id="path815"
       cx="15"
       cy="15"
       r="14.5" />
<g transform="translate(8.0,6.5)"><path fill-rule="nonzero" fill="#FFFFFF" fill-opacity="1" d="M 6.480469 8.886719 C 6.480469 9.976562 5.597656 10.863281 4.507812 10.863281 C 3.417969 10.863281 2.53125 9.976562 2.53125 8.886719 C 2.53125 7.796875 3.417969 6.914062 4.507812 6.914062 C 5.597656 6.914062 6.480469 7.796875 6.480469 8.886719 Z M 6.480469 8.886719 "/>
<path fill-rule="nonzero" fill="#FFFFFF" fill-opacity="1" d="M 13.742188 0.03125 C 13.511719 -0.0585938 13.25 0.0507812 13.15625 0.28125 L 13.003906 0.65625 C 12.996094 0.664062 12.988281 0.671875 12.984375 0.683594 L 7.421875 14.386719 C 7.386719 14.476562 7.285156 14.519531 7.195312 14.488281 C 6.261719 14.160156 1.628906 12.628906 1.628906 12.628906 C 0.929688 12.398438 0.160156 12.828125 0.0390625 13.554688 C -0.0195312 13.902344 0.00390625 14.285156 0.00390625 14.71875 L 0.00390625 15.046875 C 0.00390625 16.117188 0.878906 16.988281 1.945312 16.988281 C 1.945312 16.988281 7.054688 17.011719 7.128906 16.988281 C 7.546875 16.984375 11.914062 5.859375 13.273438 2.378906 C 13.273438 2.375 13.273438 2.371094 13.273438 2.371094 L 13.988281 0.617188 C 14.082031 0.390625 13.96875 0.125 13.742188 0.03125 Z M 13.742188 0.03125 "/>
</g>
</svg>
