<?xml version="1.0" encoding="UTF-8" standalone="no"?>
<!-- Created with Inkscape (http://www.inkscape.org/) -->

<svg
   xmlns:dc="http://purl.org/dc/elements/1.1/"
   xmlns:cc="http://creativecommons.org/ns#"
   xmlns:rdf="http://www.w3.org/1999/02/22-rdf-syntax-ns#"
   xmlns:svg="http://www.w3.org/2000/svg"
   xmlns="http://www.w3.org/2000/svg"
   xmlns:xlink="http://www.w3.org/1999/xlink"
   xmlns:sodipodi="http://sodipodi.sourceforge.net/DTD/sodipodi-0.dtd"
   xmlns:inkscape="http://www.inkscape.org/namespaces/inkscape"
   width="30px"
   height="30px"
   version="1.1"
   id="svg8"
   inkscape:version="0.92.4 5da689c313, 2019-01-14"
   sodipodi:docname="container.svg">
  <defs
     id="defs2" />
  <sodipodi:namedview
     id="base"
     pagecolor="#ffffff"
     bordercolor="#666666"
     borderopacity="1.0"
     inkscape:pageopacity="0.0"
     inkscape:pageshadow="2"
     inkscape:zoom="13.049334"
     inkscape:cx="18.679046"
     inkscape:cy="12.165829"
     inkscape:document-units="px"
     inkscape:current-layer="layer1"
     showgrid="false"
     inkscape:snap-page="false"
     units="px"
     inkscape:window-width="1884"
     inkscape:window-height="1061"
     inkscape:window-x="0"
     inkscape:window-y="0"
     inkscape:window-maximized="1"
     fit-margin-top="0"
     fit-margin-left="0"
     fit-margin-right="0"
     fit-margin-bottom="0" />
  <metadata
     id="metadata5">
    <rdf:RDF>
      <cc:Work
         rdf:about="">
        <dc:format>image/svg+xml</dc:format>
        <dc:type
           rdf:resource="http://purl.org/dc/dcmitype/StillImage" />
        <dc:title></dc:title>
      </cc:Work>
    </rdf:RDF>
  </metadata>
    <circle
       style="color:#000000;clip-rule:nonzero;display:inline;overflow:visible;visibility:visible;opacity:1;isolation:auto;mix-blend-mode:normal;color-interpolation:sRGB;color-interpolation-filters:linearRGB;solid-color:#000000;solid-opacity:1;vector-effect:none;fill:#00a757;fill-opacity:1;fill-rule:evenodd;stroke:#ffffff;stroke-width:1;stroke-linecap:butt;stroke-linejoin:miter;stroke-miterlimit:4;stroke-dasharray:none;stroke-dashoffset:0;stroke-opacity:1;marker:none;color-rendering:auto;image-rendering:auto;shape-rendering:auto;text-rendering:auto;enable-background:accumulate"
       id="path815"
       cx="15"
       cy="15"
       r="14.5" />
<g transform="translate(6.5,7.0)"><path fill-rule="nonzero" fill="#FFFFFF" fill-opacity="1" d="M 11.382812 8.777344 C 11.382812 8.683594 11.394531 2.6875 11.394531 2.6875 L 11.410156 2.683594 L 11.410156 0.167969 C 11.410156 0.117188 11.390625 0.0703125 11.351562 0.0390625 C 11.3125 0.0078125 11.261719 -0.0078125 11.210938 0.00390625 L 3.761719 1.5 C 3.683594 1.515625 3.628906 1.585938 3.628906 1.664062 L 3.628906 8.867188 C 3.628906 8.925781 3.597656 8.980469 3.546875 9.011719 C 3.496094 9.042969 3.433594 9.042969 3.378906 9.015625 C 3.015625 8.832031 2.617188 8.738281 2.210938 8.742188 C 0.988281 8.742188 0 9.550781 0 10.546875 C 0 11.546875 0.988281 12.355469 2.210938 12.355469 C 3.191406 12.355469 4.023438 11.828125 4.3125 11.105469 C 4.3125 11.101562 4.347656 11.003906 4.355469 10.980469 C 4.398438 10.839844 4.417969 10.695312 4.417969 10.546875 C 4.417969 10.398438 4.34375 4.332031 4.34375 4.332031 C 4.34375 4.199219 4.4375 4.085938 4.566406 4.058594 L 10.4375 2.878906 C 10.488281 2.867188 10.539062 2.882812 10.578125 2.914062 C 10.617188 2.945312 10.640625 2.992188 10.640625 3.042969 L 10.640625 6.941406 C 10.636719 7.320312 10.574219 7.332031 10.246094 7.195312 C 9.925781 7.0625 9.5625 6.96875 9.171875 6.96875 C 7.953125 6.96875 6.964844 7.777344 6.964844 8.777344 C 6.964844 9.773438 7.953125 10.582031 9.171875 10.582031 C 10.394531 10.582031 11.382812 9.773438 11.382812 8.777344 Z M 11.382812 8.777344 "/>
<path fill-rule="nonzero" fill="#FFFFFF" fill-opacity="1" d="M 16.8125 8.382812 C 16.472656 7.671875 14.851562 6.492188 14.476562 6.195312 L 14.46875 5.792969 C 14.464844 5.769531 14.402344 5.378906 14.023438 5.367188 L 13.996094 5.367188 C 13.667969 5.367188 13.546875 5.617188 13.546875 5.777344 L 13.546875 12.15625 C 13.546875 12.207031 13.519531 12.253906 13.472656 12.277344 C 13.429688 12.304688 13.375 12.304688 13.332031 12.28125 C 12.972656 12.074219 12.539062 11.957031 12.070312 11.957031 C 10.851562 11.957031 9.859375 12.765625 9.859375 13.765625 C 9.859375 14.761719 10.851562 15.570312 12.070312 15.570312 C 13.117188 15.570312 13.992188 14.976562 14.222656 14.175781 L 14.261719 14.003906 C 14.273438 13.921875 14.28125 13.84375 14.28125 13.765625 C 14.28125 13.691406 14.261719 7.707031 14.261719 7.707031 C 14.835938 7.851562 15.976562 8.527344 16.105469 9.652344 C 16.21875 10.621094 14.863281 11.929688 15.25 11.773438 C 17.375 10.917969 17.082031 8.945312 16.8125 8.382812 Z M 16.8125 8.382812 "/>
</g>
</svg>
