<?xml version="1.0" encoding="UTF-8"?>
<svg xmlns="http://www.w3.org/2000/svg" xmlns:xlink="http://www.w3.org/1999/xlink" width="11" height="10.075813" viewBox="0 0 11 10.075813">
<path fill-rule="nonzero" fill="rgb(30%,30%,30%)" fill-opacity="1" d="M 7.363281 5.679688 C 7.363281 5.617188 7.375 1.738281 7.375 1.738281 L 7.382812 1.734375 L 7.382812 0.109375 C 7.382812 0.078125 7.371094 0.046875 7.34375 0.0234375 C 7.320312 0.00390625 7.285156 -0.00390625 7.253906 0.00390625 L 2.433594 0.972656 C 2.382812 0.980469 2.347656 1.027344 2.347656 1.078125 L 2.347656 5.738281 C 2.347656 5.777344 2.328125 5.8125 2.292969 5.832031 C 2.261719 5.851562 2.222656 5.851562 2.1875 5.832031 C 1.953125 5.714844 1.691406 5.652344 1.429688 5.65625 C 0.640625 5.65625 0 6.179688 0 6.824219 C 0 7.472656 0.640625 7.996094 1.429688 7.996094 C 2.066406 7.996094 2.605469 7.65625 2.789062 7.183594 C 2.789062 7.183594 2.8125 7.121094 2.816406 7.105469 C 2.84375 7.015625 2.859375 6.917969 2.859375 6.824219 C 2.859375 6.730469 2.808594 2.804688 2.808594 2.804688 C 2.808594 2.71875 2.871094 2.644531 2.953125 2.625 L 6.753906 1.863281 C 6.785156 1.855469 6.820312 1.863281 6.84375 1.886719 C 6.871094 1.90625 6.882812 1.9375 6.882812 1.96875 L 6.882812 4.492188 C 6.882812 4.738281 6.839844 4.742188 6.628906 4.65625 C 6.421875 4.570312 6.1875 4.507812 5.933594 4.507812 C 5.144531 4.507812 4.507812 5.03125 4.507812 5.679688 C 4.507812 6.324219 5.144531 6.847656 5.933594 6.847656 C 6.726562 6.847656 7.363281 6.324219 7.363281 5.679688 Z M 7.363281 5.679688 "/>
<path fill-rule="nonzero" fill="rgb(30%,30%,30%)" fill-opacity="1" d="M 10.878906 5.425781 C 10.660156 4.964844 9.609375 4.199219 9.367188 4.007812 L 9.359375 3.75 C 9.359375 3.734375 9.320312 3.480469 9.074219 3.472656 L 9.054688 3.472656 C 8.84375 3.472656 8.765625 3.632812 8.765625 3.738281 L 8.765625 7.863281 C 8.765625 7.898438 8.746094 7.929688 8.71875 7.945312 C 8.691406 7.960938 8.65625 7.960938 8.625 7.945312 C 8.394531 7.8125 8.113281 7.738281 7.808594 7.738281 C 7.019531 7.738281 6.378906 8.261719 6.378906 8.90625 C 6.378906 9.550781 7.019531 10.074219 7.808594 10.074219 C 8.488281 10.074219 9.054688 9.691406 9.203125 9.171875 L 9.226562 9.058594 C 9.234375 9.007812 9.238281 8.957031 9.238281 8.90625 C 9.238281 8.859375 9.226562 4.988281 9.226562 4.988281 C 9.601562 5.082031 10.339844 5.519531 10.421875 6.246094 C 10.492188 6.871094 9.617188 7.71875 9.867188 7.617188 C 11.242188 7.0625 11.054688 5.785156 10.878906 5.425781 Z M 10.878906 5.425781 "/>
</svg>
