<?xml version="1.0" encoding="UTF-8"?>
<svg xmlns="http://www.w3.org/2000/svg" xmlns:xlink="http://www.w3.org/1999/xlink" width="11" height="7.055393" viewBox="0 0 11 7.055393">
<path fill-rule="nonzero" fill="rgb(30%,30%,30%)" fill-opacity="1" d="M 10.960938 1.804688 C 10.863281 1.398438 10.582031 1.007812 10.101562 0.605469 C 9.113281 -0.226562 8.125 -0.199219 7.390625 0.671875 C 6.683594 1.515625 6.351562 2.765625 6.238281 3.261719 C 6.125 3.78125 6.046875 4.398438 6.105469 4.804688 C 6.066406 4.910156 6.027344 5.015625 5.984375 5.121094 C 5.976562 5.121094 5.964844 5.125 5.960938 5.132812 L 5.890625 5.214844 C 5.878906 5.230469 5.878906 5.253906 5.894531 5.269531 L 5.5 5.738281 L 5.105469 5.269531 C 5.121094 5.253906 5.121094 5.230469 5.109375 5.214844 L 5.039062 5.132812 C 5.035156 5.125 5.023438 5.121094 5.015625 5.121094 C 4.972656 5.015625 4.933594 4.910156 4.894531 4.804688 C 4.953125 4.398438 4.875 3.78125 4.761719 3.261719 C 4.648438 2.765625 4.316406 1.515625 3.609375 0.671875 C 2.875 -0.199219 1.886719 -0.226562 0.898438 0.605469 C 0.417969 1.007812 0.136719 1.398438 0.0390625 1.804688 C -0.078125 2.289062 0.0742188 2.789062 0.492188 3.289062 C 1.1875 4.121094 2.378906 4.664062 2.859375 4.859375 C 3.273438 5.027344 3.683594 5.152344 4.011719 5.214844 C 4.035156 5.21875 4.050781 5.222656 4.070312 5.226562 L 4.078125 5.226562 C 4.15625 5.238281 4.242188 5.25 4.324219 5.253906 C 4.324219 5.261719 4.328125 5.265625 4.332031 5.269531 C 4.429688 5.328125 4.527344 5.386719 4.628906 5.445312 C 4.625 5.457031 4.628906 5.464844 4.636719 5.472656 L 4.703125 5.554688 C 4.71875 5.570312 4.738281 5.570312 4.757812 5.558594 L 5.203125 6.09375 L 4.757812 6.621094 L 4.730469 6.601562 C 4.714844 6.585938 4.691406 6.589844 4.679688 6.605469 L 4.636719 6.65625 C 4.621094 6.671875 4.625 6.695312 4.640625 6.710938 L 5.042969 7.046875 C 5.058594 7.058594 5.082031 7.058594 5.09375 7.042969 L 5.136719 6.992188 C 5.152344 6.972656 5.148438 6.949219 5.132812 6.9375 L 5.105469 6.914062 L 5.5 6.445312 L 5.894531 6.914062 L 5.867188 6.9375 C 5.851562 6.949219 5.847656 6.972656 5.863281 6.992188 L 5.90625 7.042969 C 5.917969 7.058594 5.941406 7.058594 5.957031 7.046875 L 6.359375 6.710938 C 6.375 6.695312 6.378906 6.671875 6.363281 6.65625 L 6.320312 6.605469 C 6.308594 6.589844 6.285156 6.585938 6.269531 6.601562 L 6.242188 6.621094 L 5.796875 6.09375 L 6.242188 5.558594 C 6.261719 5.570312 6.28125 5.570312 6.296875 5.554688 L 6.363281 5.472656 C 6.371094 5.464844 6.375 5.457031 6.371094 5.445312 L 6.667969 5.269531 C 6.671875 5.265625 6.675781 5.261719 6.675781 5.253906 C 6.757812 5.25 6.84375 5.238281 6.921875 5.226562 L 6.929688 5.226562 C 6.949219 5.222656 6.964844 5.21875 6.988281 5.214844 C 7.316406 5.152344 7.726562 5.027344 8.140625 4.859375 C 8.621094 4.664062 9.8125 4.121094 10.507812 3.289062 C 10.925781 2.789062 11.078125 2.289062 10.960938 1.804688 Z M 4.6875 4.074219 L 4.492188 3.683594 L 4.617188 3.578125 C 4.648438 3.761719 4.671875 3.925781 4.6875 4.074219 Z M 4.5625 3.304688 C 4.570312 3.339844 4.574219 3.367188 4.578125 3.398438 L 4.417969 3.53125 L 4.148438 2.988281 L 4.417969 2.761719 C 4.472656 2.9375 4.519531 3.121094 4.5625 3.304688 Z M 2.382812 2.5 L 2.761719 2.953125 L 2.496094 3.175781 L 2.066406 2.765625 Z M 1.945312 2.652344 L 1.515625 2.242188 L 1.894531 1.925781 L 2.277344 2.375 Z M 2.503906 2.398438 L 2.835938 2.121094 L 3.164062 2.613281 L 2.886719 2.851562 Z M 2.867188 3.078125 L 3.246094 3.53125 L 3.046875 3.699219 L 2.613281 3.289062 Z M 2.992188 2.972656 L 3.257812 2.75 L 3.585938 3.246094 L 3.371094 3.425781 Z M 3.382812 2.644531 L 3.675781 2.402344 L 3.945312 2.945312 L 3.710938 3.140625 Z M 3.289062 2.511719 L 2.960938 2.015625 L 3.328125 1.707031 L 3.597656 2.25 Z M 2.871094 1.878906 L 2.542969 1.382812 L 2.984375 1.011719 L 3.253906 1.554688 Z M 2.746094 1.984375 L 2.402344 2.273438 L 2.019531 1.820312 L 2.417969 1.488281 Z M 1.917969 1.695312 L 1.535156 1.242188 L 1.996094 0.855469 L 2.328125 1.351562 Z M 1.792969 1.800781 L 1.394531 2.132812 L 0.964844 1.722656 L 1.410156 1.347656 Z M 1.269531 2.238281 L 0.8125 2.621094 L 0.324219 2.257812 L 0.839844 1.828125 Z M 1.390625 2.347656 L 1.820312 2.757812 L 1.4375 3.082031 L 0.949219 2.71875 Z M 1.9375 2.871094 L 2.371094 3.28125 L 2.0625 3.539062 L 1.574219 3.179688 Z M 2.488281 3.394531 L 2.921875 3.804688 L 2.6875 4 L 2.195312 3.640625 Z M 3.039062 3.917969 L 3.46875 4.328125 L 3.308594 4.460938 L 2.820312 4.101562 Z M 3.164062 3.8125 L 3.351562 3.65625 L 3.730469 4.109375 L 3.597656 4.222656 Z M 3.476562 3.550781 L 3.675781 3.382812 L 4.003906 3.878906 L 3.855469 4.003906 Z M 3.800781 3.277344 L 4.019531 3.09375 L 4.289062 3.640625 L 4.128906 3.773438 Z M 4.367188 2.589844 L 4.074219 2.835938 L 3.800781 2.292969 L 4.148438 2 C 4.226562 2.191406 4.300781 2.386719 4.367188 2.589844 Z M 4.082031 1.84375 L 3.726562 2.144531 L 3.457031 1.597656 L 3.804688 1.304688 C 3.90625 1.480469 4 1.660156 4.082031 1.84375 Z M 3.453125 0.804688 C 3.550781 0.917969 3.636719 1.042969 3.71875 1.167969 L 3.382812 1.449219 L 3.113281 0.902344 L 3.355469 0.699219 C 3.390625 0.734375 3.421875 0.765625 3.453125 0.804688 Z M 3.238281 0.585938 L 3.039062 0.753906 L 2.816406 0.308594 C 2.957031 0.367188 3.097656 0.457031 3.238281 0.585938 Z M 2.910156 0.863281 L 2.453125 1.246094 L 2.125 0.75 L 2.636719 0.316406 Z M 2.5 0.21875 L 2.03125 0.613281 L 1.820312 0.292969 C 2.035156 0.21875 2.265625 0.183594 2.5 0.21875 Z M 1.667969 0.355469 L 1.90625 0.71875 L 1.433594 1.117188 L 1.089844 0.710938 C 1.25 0.585938 1.445312 0.453125 1.667969 0.355469 Z M 0.96875 0.816406 L 1.308594 1.222656 L 0.847656 1.609375 L 0.515625 1.292969 C 0.632812 1.136719 0.78125 0.976562 0.96875 0.816406 Z M 0.421875 1.429688 L 0.722656 1.714844 L 0.203125 2.148438 C 0.203125 1.90625 0.273438 1.667969 0.421875 1.429688 Z M 0.464844 2.914062 C 0.351562 2.738281 0.273438 2.5625 0.234375 2.394531 L 0.6875 2.726562 Z M 0.648438 3.160156 C 0.617188 3.121094 0.585938 3.082031 0.558594 3.046875 L 0.820312 2.828125 L 1.308594 3.1875 L 0.960938 3.480469 C 0.851562 3.378906 0.746094 3.273438 0.648438 3.160156 Z M 1.082031 3.589844 L 1.445312 3.289062 L 1.933594 3.648438 L 1.570312 3.953125 C 1.402344 3.84375 1.238281 3.71875 1.082031 3.589844 Z M 1.714844 4.046875 L 2.070312 3.746094 L 2.558594 4.109375 L 2.261719 4.359375 C 2.066406 4.257812 1.886719 4.15625 1.714844 4.046875 Z M 3.023438 4.703125 C 2.992188 4.691406 2.964844 4.683594 2.9375 4.667969 C 2.757812 4.597656 2.585938 4.519531 2.417969 4.4375 L 2.691406 4.207031 L 3.183594 4.570312 Z M 3.195312 4.769531 L 3.316406 4.667969 L 3.65625 4.917969 C 3.515625 4.878906 3.363281 4.828125 3.195312 4.769531 Z M 4.0625 5.019531 L 3.445312 4.5625 L 3.589844 4.441406 L 4.222656 5.042969 C 4.171875 5.035156 4.121094 5.03125 4.0625 5.019531 Z M 4.417969 5.058594 C 4.414062 5.058594 4.410156 5.058594 4.40625 5.058594 L 4.4375 5.023438 L 3.714844 4.335938 L 3.835938 4.234375 L 4.476562 4.996094 C 4.457031 5.015625 4.4375 5.039062 4.417969 5.058594 Z M 4.679688 4.839844 C 4.652344 4.855469 4.625 4.875 4.601562 4.894531 L 3.960938 4.128906 L 4.09375 4.015625 L 4.648438 4.847656 L 4.683594 4.824219 C 4.683594 4.828125 4.679688 4.835938 4.679688 4.839844 Z M 4.703125 4.640625 L 4.21875 3.910156 L 4.363281 3.789062 L 4.710938 4.488281 C 4.710938 4.542969 4.707031 4.59375 4.703125 4.640625 Z M 10.484375 1.292969 L 10.152344 1.609375 L 9.691406 1.222656 L 10.03125 0.816406 C 10.21875 0.976562 10.367188 1.136719 10.484375 1.292969 Z M 8.007812 2.972656 L 7.628906 3.425781 L 7.414062 3.246094 L 7.742188 2.75 Z M 7.835938 2.613281 L 8.164062 2.121094 L 8.496094 2.398438 L 8.113281 2.851562 Z M 8.132812 3.078125 L 8.386719 3.289062 L 7.953125 3.699219 L 7.753906 3.53125 Z M 8.238281 2.953125 L 8.617188 2.5 L 8.933594 2.765625 L 8.503906 3.175781 Z M 8.722656 2.375 L 9.105469 1.925781 L 9.484375 2.242188 L 9.054688 2.652344 Z M 9.207031 1.800781 L 9.589844 1.347656 L 10.035156 1.722656 L 9.605469 2.132812 Z M 9.082031 1.695312 L 8.671875 1.351562 L 9.003906 0.855469 L 9.464844 1.242188 Z M 8.980469 1.820312 L 8.597656 2.273438 L 8.253906 1.984375 L 8.582031 1.488281 Z M 8.128906 1.878906 L 7.746094 1.554688 L 8.015625 1.011719 L 8.457031 1.382812 Z M 8.039062 2.015625 L 7.710938 2.511719 L 7.402344 2.25 L 7.671875 1.707031 Z M 7.617188 2.644531 L 7.289062 3.140625 L 7.054688 2.945312 L 7.324219 2.402344 Z M 7.199219 3.277344 L 6.871094 3.773438 L 6.710938 3.640625 L 6.980469 3.09375 Z M 7.324219 3.382812 L 7.523438 3.550781 L 7.144531 4.003906 L 6.996094 3.878906 Z M 7.648438 3.65625 L 7.835938 3.8125 L 7.402344 4.222656 L 7.269531 4.109375 Z M 7.960938 3.917969 L 8.179688 4.101562 L 7.691406 4.460938 L 7.53125 4.328125 Z M 8.078125 3.804688 L 8.511719 3.394531 L 8.804688 3.640625 L 8.3125 4 Z M 8.628906 3.28125 L 9.0625 2.871094 L 9.425781 3.179688 L 8.9375 3.539062 Z M 9.179688 2.757812 L 9.609375 2.347656 L 10.050781 2.71875 L 9.5625 3.082031 Z M 9.730469 2.238281 L 10.160156 1.828125 L 10.675781 2.257812 L 10.1875 2.621094 Z M 9.910156 0.710938 L 9.566406 1.117188 L 9.09375 0.71875 L 9.332031 0.355469 C 9.554688 0.453125 9.75 0.585938 9.910156 0.710938 Z M 9.179688 0.292969 L 8.96875 0.613281 L 8.5 0.21875 C 8.734375 0.183594 8.964844 0.21875 9.179688 0.292969 Z M 8.875 0.75 L 8.546875 1.246094 L 8.089844 0.863281 L 8.363281 0.316406 Z M 8.183594 0.308594 L 7.960938 0.753906 L 7.761719 0.585938 C 7.902344 0.457031 8.042969 0.367188 8.183594 0.308594 Z M 7.546875 0.804688 C 7.578125 0.765625 7.609375 0.734375 7.644531 0.699219 L 7.886719 0.902344 L 7.617188 1.449219 L 7.28125 1.167969 C 7.363281 1.042969 7.449219 0.917969 7.546875 0.804688 Z M 7.195312 1.304688 L 7.542969 1.597656 L 7.273438 2.144531 L 6.917969 1.84375 C 7 1.660156 7.09375 1.480469 7.195312 1.304688 Z M 6.851562 2 L 7.199219 2.292969 L 6.925781 2.835938 L 6.632812 2.589844 C 6.699219 2.386719 6.773438 2.191406 6.851562 2 Z M 6.4375 3.304688 C 6.480469 3.121094 6.527344 2.9375 6.582031 2.761719 L 6.851562 2.988281 L 6.582031 3.53125 L 6.421875 3.398438 C 6.425781 3.367188 6.429688 3.339844 6.4375 3.304688 Z M 6.382812 3.578125 L 6.507812 3.683594 L 6.3125 4.074219 C 6.328125 3.925781 6.351562 3.761719 6.382812 3.578125 Z M 6.296875 4.640625 C 6.292969 4.59375 6.289062 4.542969 6.289062 4.488281 L 6.636719 3.789062 L 6.78125 3.910156 Z M 6.320312 4.839844 C 6.320312 4.835938 6.316406 4.828125 6.316406 4.824219 L 6.351562 4.847656 L 6.90625 4.015625 L 7.039062 4.128906 L 6.398438 4.894531 C 6.375 4.875 6.347656 4.855469 6.320312 4.839844 Z M 6.5625 5.023438 L 6.59375 5.058594 C 6.589844 5.058594 6.585938 5.058594 6.582031 5.058594 C 6.5625 5.039062 6.542969 5.015625 6.523438 4.996094 L 7.164062 4.234375 L 7.285156 4.335938 Z M 6.9375 5.019531 C 6.878906 5.03125 6.828125 5.035156 6.777344 5.042969 L 7.410156 4.441406 L 7.554688 4.5625 Z M 7.34375 4.917969 L 7.683594 4.667969 L 7.804688 4.769531 C 7.636719 4.828125 7.484375 4.878906 7.34375 4.917969 Z M 8.0625 4.667969 C 8.035156 4.683594 8.007812 4.691406 7.976562 4.703125 L 7.816406 4.570312 L 8.308594 4.207031 L 8.582031 4.4375 C 8.414062 4.519531 8.242188 4.597656 8.0625 4.667969 Z M 8.738281 4.359375 L 8.441406 4.109375 L 8.929688 3.746094 L 9.285156 4.046875 C 9.113281 4.15625 8.933594 4.257812 8.738281 4.359375 Z M 9.429688 3.953125 L 9.066406 3.648438 L 9.554688 3.289062 L 9.917969 3.589844 C 9.761719 3.71875 9.597656 3.84375 9.429688 3.953125 Z M 10.351562 3.160156 C 10.253906 3.273438 10.148438 3.378906 10.039062 3.480469 L 9.691406 3.1875 L 10.179688 2.828125 L 10.441406 3.046875 C 10.414062 3.082031 10.382812 3.121094 10.351562 3.160156 Z M 10.535156 2.914062 L 10.3125 2.726562 L 10.765625 2.394531 C 10.726562 2.5625 10.648438 2.738281 10.535156 2.914062 Z M 10.277344 1.714844 L 10.578125 1.429688 C 10.726562 1.667969 10.796875 1.90625 10.796875 2.148438 Z M 5.5 1.375 C 5.71875 1.375 5.894531 1.199219 5.894531 0.980469 C 5.894531 0.761719 5.71875 0.585938 5.5 0.585938 C 5.28125 0.585938 5.105469 0.761719 5.105469 0.980469 C 5.105469 1.199219 5.28125 1.375 5.5 1.375 Z M 5.5 1.375 "/>
</svg>
