<?xml version="1.0" encoding="UTF-8" standalone="no"?>
<!-- Created with Inkscape (http://www.inkscape.org/) -->

<svg
   xmlns:dc="http://purl.org/dc/elements/1.1/"
   xmlns:cc="http://creativecommons.org/ns#"
   xmlns:rdf="http://www.w3.org/1999/02/22-rdf-syntax-ns#"
   xmlns:svg="http://www.w3.org/2000/svg"
   xmlns="http://www.w3.org/2000/svg"
   xmlns:xlink="http://www.w3.org/1999/xlink"
   xmlns:sodipodi="http://sodipodi.sourceforge.net/DTD/sodipodi-0.dtd"
   xmlns:inkscape="http://www.inkscape.org/namespaces/inkscape"
   width="30px"
   height="30px"
   version="1.1"
   id="svg8"
   inkscape:version="0.92.4 5da689c313, 2019-01-14"
   sodipodi:docname="container.svg">
  <defs
     id="defs2" />
  <sodipodi:namedview
     id="base"
     pagecolor="#ffffff"
     bordercolor="#666666"
     borderopacity="1.0"
     inkscape:pageopacity="0.0"
     inkscape:pageshadow="2"
     inkscape:zoom="13.049334"
     inkscape:cx="18.679046"
     inkscape:cy="12.165829"
     inkscape:document-units="px"
     inkscape:current-layer="layer1"
     showgrid="false"
     inkscape:snap-page="false"
     units="px"
     inkscape:window-width="1884"
     inkscape:window-height="1061"
     inkscape:window-x="0"
     inkscape:window-y="0"
     inkscape:window-maximized="1"
     fit-margin-top="0"
     fit-margin-left="0"
     fit-margin-right="0"
     fit-margin-bottom="0" />
  <metadata
     id="metadata5">
    <rdf:RDF>
      <cc:Work
         rdf:about="">
        <dc:format>image/svg+xml</dc:format>
        <dc:type
           rdf:resource="http://purl.org/dc/dcmitype/StillImage" />
        <dc:title></dc:title>
      </cc:Work>
    </rdf:RDF>
  </metadata>
    <circle
       style="color:#000000;clip-rule:nonzero;display:inline;overflow:visible;visibility:visible;opacity:1;isolation:auto;mix-blend-mode:normal;color-interpolation:sRGB;color-interpolation-filters:linearRGB;solid-color:#000000;solid-opacity:1;vector-effect:none;fill:#00a757;fill-opacity:1;fill-rule:evenodd;stroke:#ffffff;stroke-width:1;stroke-linecap:butt;stroke-linejoin:miter;stroke-miterlimit:4;stroke-dasharray:none;stroke-dashoffset:0;stroke-opacity:1;marker:none;color-rendering:auto;image-rendering:auto;shape-rendering:auto;text-rendering:auto;enable-background:accumulate"
       id="path815"
       cx="15"
       cy="15"
       r="14.5" />
<g transform="translate(6.5,6.5)"><path fill-rule="nonzero" fill="#FFFFFF" fill-opacity="1" d="M 17 3.15625 C 17 4.21875 16.136719 5.082031 15.074219 5.082031 C 14.011719 5.082031 13.148438 4.21875 13.148438 3.15625 C 13.148438 2.089844 14.011719 1.230469 15.074219 1.230469 C 16.136719 1.230469 17 2.089844 17 3.15625 Z M 17 3.15625 "/>
<path fill-rule="nonzero" fill="#FFFFFF" fill-opacity="1" d="M 0.207031 15.285156 C -0.0859375 15.605469 -0.0664062 16.101562 0.25 16.394531 L 0.273438 16.414062 C 0.59375 16.707031 1.089844 16.6875 1.382812 16.371094 L 7.152344 10.109375 L 5.976562 9.023438 Z M 0.207031 15.285156 "/>
<path fill-rule="nonzero" fill="#FFFFFF" fill-opacity="1" d="M 16.707031 8.636719 C 16.695312 8.210938 16.34375 7.875 15.917969 7.882812 L 12.648438 7.914062 L 12.636719 6.457031 L 11.097656 8.171875 C 10.957031 8.328125 10.882812 8.535156 10.890625 8.746094 C 10.902344 8.960938 10.996094 9.15625 11.152344 9.300781 L 11.179688 9.320312 C 11.269531 9.40625 11.382812 9.464844 11.503906 9.496094 L 11.503906 9.515625 L 11.589844 9.515625 C 11.679688 9.53125 11.777344 9.527344 11.867188 9.511719 L 15.957031 9.453125 C 16.382812 9.445312 16.71875 9.09375 16.710938 8.667969 Z M 16.707031 8.636719 "/>
<path fill-rule="nonzero" fill="#FFFFFF" fill-opacity="1" d="M 13.023438 4.332031 L 11.898438 3.320312 L 8.792969 0.226562 C 8.492188 -0.0742188 8.007812 -0.0742188 7.707031 0.226562 L 7.703125 0.226562 L 7.695312 0.238281 L 7.683594 0.246094 C 7.664062 0.265625 7.644531 0.289062 7.628906 0.3125 L 4.882812 3.363281 C 4.59375 3.679688 4.617188 4.164062 4.933594 4.449219 L 4.957031 4.472656 C 5.273438 4.753906 5.757812 4.734375 6.046875 4.417969 L 8.28125 1.9375 L 10.277344 3.925781 L 7.152344 7.398438 L 7.144531 7.390625 L 6.574219 8.039062 C 6.308594 8.335938 6.320312 8.792969 6.605469 9.074219 L 9.496094 11.976562 L 5.507812 12.871094 C 5.175781 12.949219 4.964844 13.277344 5.039062 13.613281 L 5.113281 13.941406 C 5.1875 14.273438 5.515625 14.484375 5.847656 14.410156 L 11.070312 13.238281 C 11.207031 13.238281 11.339844 13.203125 11.453125 13.132812 C 11.566406 13.082031 11.660156 12.996094 11.71875 12.890625 C 11.9375 12.582031 11.902344 12.164062 11.636719 11.894531 L 11.589844 11.851562 C 11.566406 11.824219 11.542969 11.796875 11.515625 11.773438 L 9.308594 9.5625 L 13.078125 5.378906 C 13.347656 5.074219 13.324219 4.605469 13.023438 4.332031 Z M 13.023438 4.332031 "/>
</g>
</svg>
