<?xml version="1.0" encoding="UTF-8" standalone="no"?>
<!-- Created with Inkscape (http://www.inkscape.org/) -->

<svg
   xmlns:dc="http://purl.org/dc/elements/1.1/"
   xmlns:cc="http://creativecommons.org/ns#"
   xmlns:rdf="http://www.w3.org/1999/02/22-rdf-syntax-ns#"
   xmlns:svg="http://www.w3.org/2000/svg"
   xmlns="http://www.w3.org/2000/svg"
   xmlns:xlink="http://www.w3.org/1999/xlink"
   xmlns:sodipodi="http://sodipodi.sourceforge.net/DTD/sodipodi-0.dtd"
   xmlns:inkscape="http://www.inkscape.org/namespaces/inkscape"
   width="30px"
   height="30px"
   version="1.1"
   id="svg8"
   inkscape:version="0.92.4 5da689c313, 2019-01-14"
   sodipodi:docname="container.svg">
  <defs
     id="defs2" />
  <sodipodi:namedview
     id="base"
     pagecolor="#ffffff"
     bordercolor="#666666"
     borderopacity="1.0"
     inkscape:pageopacity="0.0"
     inkscape:pageshadow="2"
     inkscape:zoom="13.049334"
     inkscape:cx="18.679046"
     inkscape:cy="12.165829"
     inkscape:document-units="px"
     inkscape:current-layer="layer1"
     showgrid="false"
     inkscape:snap-page="false"
     units="px"
     inkscape:window-width="1884"
     inkscape:window-height="1061"
     inkscape:window-x="0"
     inkscape:window-y="0"
     inkscape:window-maximized="1"
     fit-margin-top="0"
     fit-margin-left="0"
     fit-margin-right="0"
     fit-margin-bottom="0" />
  <metadata
     id="metadata5">
    <rdf:RDF>
      <cc:Work
         rdf:about="">
        <dc:format>image/svg+xml</dc:format>
        <dc:type
           rdf:resource="http://purl.org/dc/dcmitype/StillImage" />
        <dc:title></dc:title>
      </cc:Work>
    </rdf:RDF>
  </metadata>
    <circle
       style="color:#000000;clip-rule:nonzero;display:inline;overflow:visible;visibility:visible;opacity:1;isolation:auto;mix-blend-mode:normal;color-interpolation:sRGB;color-interpolation-filters:linearRGB;solid-color:#000000;solid-opacity:1;vector-effect:none;fill:#ffffff;fill-opacity:1;fill-rule:evenodd;stroke:#00a757;stroke-width:1;stroke-linecap:butt;stroke-linejoin:miter;stroke-miterlimit:4;stroke-dasharray:none;stroke-dashoffset:0;stroke-opacity:1;marker:none;color-rendering:auto;image-rendering:auto;shape-rendering:auto;text-rendering:auto;enable-background:accumulate"
       id="path815"
       cx="15"
       cy="15"
       r="14.5" />
<g transform="translate(6.5,8.0)"><path fill-rule="nonzero" fill="rgb(30%,30%,30%)" fill-opacity="1" d="M 1.269531 4.828125 C 2.238281 4.378906 4.253906 4.058594 4.351562 4.277344 C 4.351562 4.277344 4.515625 3.175781 4.523438 3.015625 C 3.703125 3.132812 2.917969 3.441406 2.234375 3.921875 C 1.574219 4.394531 1.203125 4.859375 1.269531 4.828125 Z M 1.269531 4.828125 "/>
<path fill-rule="nonzero" fill="rgb(30%,30%,30%)" fill-opacity="1" d="M 3.539062 7.425781 C 3.539062 7.425781 4.648438 8.746094 4.679688 8.722656 C 6.476562 7.386719 7.164062 4.253906 7.203125 3.316406 C 6.617188 3.089844 5.996094 2.96875 5.367188 2.960938 C 5.039062 6.210938 3.539062 7.425781 3.539062 7.425781 Z M 3.539062 7.425781 "/>
<path fill-rule="nonzero" fill="rgb(30%,30%,30%)" fill-opacity="1" d="M 5.304688 9.261719 L 6.167969 9.847656 L 7.191406 10.367188 C 7.191406 10.367188 9.492188 9.105469 9.785156 5.433594 C 9.785156 5.433594 9.785156 5.429688 9.785156 5.429688 C 9.730469 5.34375 9.675781 5.261719 9.621094 5.183594 C 9.554688 5.09375 9.472656 4.988281 9.378906 4.871094 C 8.976562 4.390625 8.492188 3.980469 7.945312 3.667969 C 7.824219 4.765625 7.324219 7.441406 5.304688 9.261719 Z M 5.304688 9.261719 "/>
<path fill-rule="nonzero" fill="rgb(30%,30%,30%)" fill-opacity="1" d="M 10.476562 7.105469 C 10.457031 7.019531 10.4375 6.941406 10.414062 6.859375 C 10.351562 6.964844 10.035156 8.09375 9.507812 9.050781 C 9.046875 9.886719 8.308594 10.601562 8.125 10.660156 L 9.851562 10.9375 C 9.894531 10.863281 9.9375 10.789062 9.980469 10.710938 C 10.238281 10.195312 10.785156 8.847656 10.476562 7.105469 Z M 10.476562 7.105469 "/>
<path fill-rule="nonzero" fill="rgb(30%,30%,30%)" fill-opacity="1" d="M 9.300781 11.664062 C 4.699219 11.128906 2.847656 7.773438 2.847656 7.773438 C 2.847656 7.773438 1.425781 8.117188 1.425781 8.34375 C 1.425781 8.480469 2.4375 10.453125 3.660156 11.335938 C 5.273438 12.503906 7.234375 12.875 7.683594 12.949219 C 7.878906 12.851562 8.070312 12.738281 8.253906 12.617188 C 8.535156 12.394531 8.878906 12.113281 9.097656 11.914062 C 9.171875 11.839844 9.242188 11.761719 9.3125 11.683594 C 9.3125 11.671875 9.3125 11.667969 9.300781 11.664062 Z M 9.300781 11.664062 "/>
<path fill-rule="nonzero" fill="rgb(30%,30%,30%)" fill-opacity="1" d="M 0.804688 8.878906 L 0.25 9.898438 C 0.25 9.898438 0.476562 10.652344 1.074219 11.445312 C 2.082031 12.753906 3.640625 13.515625 5.289062 13.515625 C 5.628906 13.515625 5.96875 13.480469 6.304688 13.417969 C 6.300781 13.414062 6.292969 13.414062 6.289062 13.414062 C 2.167969 12.496094 0.804688 8.878906 0.804688 8.878906 Z M 0.804688 8.878906 "/>
<path fill-rule="nonzero" fill="rgb(30%,30%,30%)" fill-opacity="1" d="M 0.0234375 8.621094 C 1.203125 7.011719 2.621094 7.011719 2.847656 6.992188 C 3.070312 6.976562 4.230469 5.046875 4.089844 5.039062 C 1.972656 4.921875 0.386719 6.394531 0.273438 6.5 C 0.242188 6.597656 0.210938 6.691406 0.183594 6.789062 C 0.0546875 7.402344 -0.0507812 8.722656 0.0234375 8.621094 Z M 0.0234375 8.621094 "/>
<path fill-rule="nonzero" fill="rgb(30%,30%,30%)" fill-opacity="1" d="M 16.996094 6.171875 L 16.996094 0.257812 C 16.996094 0.132812 16.894531 0.03125 16.769531 0.03125 C 16.644531 0.03125 16.542969 0.132812 16.542969 0.257812 L 16.542969 1.246094 C 15.011719 0.757812 12.410156 0.394531 9.789062 0.300781 C 6.640625 0.191406 3.871094 0.46875 1.945312 1.082031 L 1.945312 0.226562 C 1.945312 0.101562 1.84375 0 1.71875 0 C 1.589844 0 1.488281 0.101562 1.488281 0.226562 L 1.488281 4.171875 C 1.632812 4.039062 1.785156 3.910156 1.945312 3.792969 L 1.945312 1.59375 C 3.820312 0.964844 6.59375 0.679688 9.773438 0.789062 C 10.203125 0.804688 10.632812 0.828125 11.058594 0.855469 C 11.050781 1.171875 11.046875 1.476562 11.042969 1.777344 C 8.832031 1.632812 6.804688 1.742188 5.28125 1.914062 L 5.671875 2.097656 C 7.1875 1.925781 8.839844 1.867188 11.039062 2.011719 C 11.039062 2.300781 11.035156 2.578125 11.039062 2.851562 C 9.960938 2.777344 8.578125 2.753906 7.464844 2.789062 L 7.847656 3.023438 C 8.914062 2.988281 9.980469 3.011719 11.039062 3.085938 C 11.042969 3.398438 11.054688 3.699219 11.066406 3.996094 C 10.441406 3.953125 9.8125 3.925781 9.175781 3.921875 L 9.507812 4.164062 C 10.148438 4.167969 10.449219 4.1875 11.078125 4.230469 C 11.097656 4.511719 11.121094 4.785156 11.148438 5.050781 C 10.78125 5.023438 10.402344 5 10.019531 4.984375 C 9.957031 4.980469 9.90625 4.992188 9.84375 4.988281 C 9.96875 5.15625 10.082031 5.332031 10.1875 5.515625 C 12.945312 5.65625 15.417969 6.066406 16.542969 6.421875 L 16.542969 10.496094 C 16.542969 10.621094 16.644531 10.722656 16.769531 10.722656 C 16.894531 10.722656 16.996094 10.621094 16.996094 10.496094 L 16.996094 6.253906 C 17 6.226562 17 6.199219 16.996094 6.171875 Z M 12.339844 2.128906 C 12.625 2.160156 12.910156 2.195312 13.195312 2.234375 C 13.1875 2.519531 13.183594 2.800781 13.175781 3.074219 C 12.902344 3.035156 12.625 3 12.34375 2.96875 C 12.339844 2.714844 12.339844 2.433594 12.339844 2.128906 Z M 13.40625 3.347656 C 13.667969 3.386719 13.925781 3.429688 14.179688 3.476562 C 14.175781 3.789062 14.171875 4.089844 14.179688 4.378906 C 13.925781 4.332031 13.667969 4.289062 13.410156 4.25 C 13.40625 3.957031 13.40625 3.65625 13.40625 3.347656 Z M 13.410156 3.109375 C 13.414062 2.835938 13.421875 2.554688 13.429688 2.269531 C 13.6875 2.308594 13.945312 2.351562 14.203125 2.394531 C 14.199219 2.46875 14.199219 2.542969 14.199219 2.613281 C 14.191406 2.828125 14.1875 3.035156 14.183594 3.238281 C 13.929688 3.191406 13.671875 3.148438 13.410156 3.109375 Z M 14.433594 2.617188 C 14.433594 2.558594 14.433594 2.5 14.4375 2.4375 C 14.714844 2.492188 14.996094 2.546875 15.28125 2.609375 C 15.277344 2.894531 15.277344 3.179688 15.277344 3.457031 C 14.992188 3.394531 14.707031 3.335938 14.417969 3.28125 C 14.421875 3.066406 14.425781 2.847656 14.433594 2.617188 Z M 14.441406 2.199219 C 14.449219 1.898438 14.453125 1.589844 14.457031 1.257812 C 14.753906 1.308594 15.035156 1.363281 15.300781 1.421875 C 15.292969 1.742188 15.285156 2.058594 15.28125 2.371094 C 15 2.308594 14.71875 2.253906 14.441406 2.199219 Z M 14.207031 2.160156 C 13.949219 2.113281 13.691406 2.070312 13.4375 2.03125 C 13.441406 1.9375 13.445312 1.84375 13.445312 1.75 C 13.453125 1.539062 13.460938 1.320312 13.464844 1.101562 C 13.726562 1.136719 13.980469 1.175781 14.222656 1.214844 C 14.21875 1.546875 14.214844 1.859375 14.207031 2.160156 Z M 13.210938 1.742188 C 13.210938 1.828125 13.207031 1.914062 13.203125 2 C 12.914062 1.957031 12.628906 1.921875 12.34375 1.890625 C 12.34375 1.605469 12.347656 1.300781 12.355469 0.96875 C 12.65625 1 12.945312 1.03125 13.230469 1.070312 C 13.226562 1.296875 13.21875 1.523438 13.210938 1.742188 Z M 13.171875 3.3125 C 13.167969 3.621094 13.167969 3.921875 13.175781 4.214844 C 12.914062 4.179688 12.648438 4.144531 12.382812 4.113281 C 12.367188 3.851562 12.355469 3.550781 12.347656 3.207031 C 12.625 3.238281 12.898438 3.273438 13.171875 3.3125 Z M 13.183594 4.453125 C 13.191406 4.730469 13.207031 5 13.230469 5.253906 C 12.984375 5.222656 12.730469 5.195312 12.46875 5.167969 C 12.441406 4.9375 12.417969 4.671875 12.394531 4.351562 C 12.660156 4.382812 12.921875 4.417969 13.183594 4.453125 Z M 13.417969 4.488281 C 13.675781 4.527344 13.929688 4.570312 14.183594 4.617188 C 14.195312 4.882812 14.210938 5.140625 14.234375 5.394531 C 13.988281 5.359375 13.734375 5.320312 13.46875 5.285156 C 13.445312 5.03125 13.429688 4.765625 13.417969 4.488281 Z M 14.421875 4.660156 C 14.722656 4.71875 15.023438 4.78125 15.320312 4.847656 C 15.335938 5.105469 15.355469 5.355469 15.382812 5.597656 C 15.101562 5.542969 14.800781 5.488281 14.476562 5.433594 C 14.449219 5.179688 14.433594 4.925781 14.421875 4.660156 Z M 14.414062 4.421875 C 14.410156 4.132812 14.410156 3.832031 14.414062 3.519531 C 14.703125 3.574219 14.992188 3.632812 15.28125 3.695312 C 15.285156 4.007812 15.292969 4.308594 15.308594 4.605469 C 15.011719 4.539062 14.714844 4.476562 14.414062 4.421875 Z M 15.515625 3.75 C 15.863281 3.832031 16.203125 3.917969 16.542969 4.011719 L 16.542969 4.910156 C 16.214844 4.820312 15.882812 4.734375 15.546875 4.65625 C 15.53125 4.363281 15.519531 4.0625 15.515625 3.75 Z M 15.511719 3.507812 C 15.511719 3.230469 15.511719 2.949219 15.515625 2.664062 C 15.855469 2.742188 16.195312 2.828125 16.542969 2.921875 L 16.542969 3.765625 C 16.203125 3.675781 15.859375 3.589844 15.511719 3.507812 Z M 16.542969 2.679688 C 16.199219 2.585938 15.855469 2.5 15.515625 2.421875 C 15.519531 2.109375 15.527344 1.792969 15.535156 1.476562 C 15.910156 1.5625 16.25 1.65625 16.542969 1.757812 Z M 11.292969 0.871094 C 11.570312 0.894531 11.847656 0.917969 12.121094 0.945312 C 12.117188 1.246094 12.109375 1.554688 12.105469 1.867188 C 11.828125 1.839844 11.550781 1.8125 11.277344 1.792969 C 11.28125 1.496094 11.285156 1.1875 11.292969 0.871094 Z M 11.273438 2.03125 C 11.546875 2.050781 11.824219 2.074219 12.105469 2.101562 C 12.105469 2.382812 12.105469 2.664062 12.109375 2.945312 C 11.832031 2.914062 11.554688 2.890625 11.273438 2.867188 C 11.269531 2.597656 11.273438 2.316406 11.273438 2.03125 Z M 11.277344 3.105469 C 11.554688 3.125 11.835938 3.152344 12.113281 3.179688 C 12.121094 3.488281 12.128906 3.789062 12.144531 4.089844 C 11.867188 4.058594 11.585938 4.035156 11.304688 4.011719 C 11.289062 3.71875 11.28125 3.417969 11.277344 3.105469 Z M 11.316406 4.25 C 11.597656 4.269531 11.878906 4.296875 12.160156 4.328125 C 12.175781 4.605469 12.199219 4.878906 12.230469 5.144531 C 11.957031 5.117188 11.675781 5.089844 11.386719 5.070312 C 11.355469 4.804688 11.332031 4.53125 11.316406 4.25 Z M 15.625 5.648438 C 15.597656 5.40625 15.574219 5.160156 15.558594 4.902344 C 15.890625 4.980469 16.21875 5.0625 16.542969 5.152344 L 16.542969 5.875 C 16.285156 5.800781 15.976562 5.726562 15.625 5.648438 Z M 15.625 5.648438 "/>
</g>
</svg>
