<?xml version="1.0" encoding="UTF-8" standalone="no"?>
<!-- Created with Inkscape (http://www.inkscape.org/) -->

<svg
   xmlns:dc="http://purl.org/dc/elements/1.1/"
   xmlns:cc="http://creativecommons.org/ns#"
   xmlns:rdf="http://www.w3.org/1999/02/22-rdf-syntax-ns#"
   xmlns:svg="http://www.w3.org/2000/svg"
   xmlns="http://www.w3.org/2000/svg"
   xmlns:xlink="http://www.w3.org/1999/xlink"
   xmlns:sodipodi="http://sodipodi.sourceforge.net/DTD/sodipodi-0.dtd"
   xmlns:inkscape="http://www.inkscape.org/namespaces/inkscape"
   width="30px"
   height="30px"
   version="1.1"
   id="svg8"
   inkscape:version="0.92.4 5da689c313, 2019-01-14"
   sodipodi:docname="container.svg">
  <defs
     id="defs2" />
  <sodipodi:namedview
     id="base"
     pagecolor="#ffffff"
     bordercolor="#666666"
     borderopacity="1.0"
     inkscape:pageopacity="0.0"
     inkscape:pageshadow="2"
     inkscape:zoom="13.049334"
     inkscape:cx="18.679046"
     inkscape:cy="12.165829"
     inkscape:document-units="px"
     inkscape:current-layer="layer1"
     showgrid="false"
     inkscape:snap-page="false"
     units="px"
     inkscape:window-width="1884"
     inkscape:window-height="1061"
     inkscape:window-x="0"
     inkscape:window-y="0"
     inkscape:window-maximized="1"
     fit-margin-top="0"
     fit-margin-left="0"
     fit-margin-right="0"
     fit-margin-bottom="0" />
  <metadata
     id="metadata5">
    <rdf:RDF>
      <cc:Work
         rdf:about="">
        <dc:format>image/svg+xml</dc:format>
        <dc:type
           rdf:resource="http://purl.org/dc/dcmitype/StillImage" />
        <dc:title></dc:title>
      </cc:Work>
    </rdf:RDF>
  </metadata>
    <circle
       style="color:#000000;clip-rule:nonzero;display:inline;overflow:visible;visibility:visible;opacity:1;isolation:auto;mix-blend-mode:normal;color-interpolation:sRGB;color-interpolation-filters:linearRGB;solid-color:#000000;solid-opacity:1;vector-effect:none;fill:#00a757;fill-opacity:1;fill-rule:evenodd;stroke:#ffffff;stroke-width:1;stroke-linecap:butt;stroke-linejoin:miter;stroke-miterlimit:4;stroke-dasharray:none;stroke-dashoffset:0;stroke-opacity:1;marker:none;color-rendering:auto;image-rendering:auto;shape-rendering:auto;text-rendering:auto;enable-background:accumulate"
       id="path815"
       cx="15"
       cy="15"
       r="14.5" />
<g transform="translate(8.5,6.5)"><path fill-rule="nonzero" fill="#FFFFFF" fill-opacity="1" d="M 6.355469 13.90625 C 6.363281 13.972656 6.316406 14.035156 6.246094 14.046875 L 6.078125 14.066406 C 6.007812 14.074219 5.960938 14.136719 5.96875 14.207031 L 6.050781 14.839844 C 6.058594 14.910156 6.011719 14.972656 5.941406 14.980469 L 5.570312 15.027344 C 5.5 15.035156 5.453125 15.097656 5.460938 15.167969 L 5.539062 15.777344 C 5.546875 15.84375 5.496094 15.90625 5.429688 15.917969 L 4.71875 16.003906 C 4.648438 16.015625 4.601562 16.078125 4.609375 16.144531 L 4.683594 16.730469 C 4.691406 16.800781 4.644531 16.863281 4.574219 16.871094 L 3.5625 17 C 3.496094 17.007812 3.433594 16.957031 3.421875 16.890625 L 3.347656 16.304688 C 3.339844 16.234375 3.277344 16.1875 3.207031 16.195312 L 2.441406 16.292969 C 2.371094 16.300781 2.308594 16.25 2.300781 16.183594 L 2.222656 15.574219 C 2.210938 15.503906 2.148438 15.457031 2.082031 15.464844 L 1.710938 15.511719 C 1.640625 15.519531 1.578125 15.472656 1.570312 15.402344 L 1.488281 14.769531 C 1.480469 14.703125 1.417969 14.652344 1.347656 14.660156 L 1.175781 14.683594 C 1.109375 14.691406 1.046875 14.644531 1.035156 14.574219 L 0.949219 13.882812 C 0.941406 13.8125 0.988281 13.75 1.058594 13.742188 L 2.863281 13.515625 C 2.933594 13.507812 2.984375 13.441406 2.972656 13.375 L 2.179688 7.148438 C 2.167969 7.082031 2.105469 7.03125 2.039062 7.039062 L 0.230469 7.265625 C 0.160156 7.277344 0.0976562 7.226562 0.0898438 7.160156 L 0 6.46875 C -0.0078125 6.398438 0.0429688 6.335938 0.109375 6.328125 L 0.28125 6.304688 C 0.347656 6.296875 0.398438 6.234375 0.386719 6.164062 L 0.308594 5.53125 C 0.296875 5.464844 0.347656 5.402344 0.417969 5.390625 L 0.789062 5.34375 C 0.855469 5.335938 0.90625 5.273438 0.898438 5.203125 L 0.820312 4.597656 C 0.808594 4.527344 0.859375 4.464844 0.925781 4.457031 L 1.695312 4.359375 C 1.765625 4.351562 1.8125 4.289062 1.804688 4.21875 L 1.730469 3.632812 C 1.71875 3.566406 1.769531 3.5 1.839844 3.492188 L 2.847656 3.367188 C 2.917969 3.359375 2.980469 3.40625 2.988281 3.476562 L 3.066406 4.0625 C 3.074219 4.128906 3.136719 4.179688 3.207031 4.171875 L 3.917969 4.082031 C 3.984375 4.070312 4.046875 4.121094 4.058594 4.191406 L 4.136719 4.796875 C 4.144531 4.867188 4.207031 4.914062 4.277344 4.90625 L 4.648438 4.859375 C 4.71875 4.851562 4.78125 4.902344 4.789062 4.96875 L 4.871094 5.601562 C 4.878906 5.671875 4.941406 5.71875 5.011719 5.710938 L 5.179688 5.6875 C 5.25 5.679688 5.3125 5.730469 5.320312 5.796875 L 5.410156 6.488281 C 5.417969 6.558594 5.367188 6.621094 5.300781 6.628906 L 3.546875 6.851562 C 3.480469 6.859375 3.429688 6.921875 3.4375 6.992188 L 4.234375 13.214844 C 4.242188 13.285156 4.304688 13.332031 4.375 13.324219 L 6.128906 13.105469 C 6.195312 13.097656 6.257812 13.144531 6.269531 13.214844 Z M 12.527344 4.15625 C 12.597656 4.171875 12.664062 4.132812 12.679688 4.066406 L 12.847656 3.386719 C 12.863281 3.320312 12.820312 3.253906 12.753906 3.234375 L 12.589844 3.195312 C 12.523438 3.179688 12.480469 3.113281 12.496094 3.042969 L 12.648438 2.425781 C 12.664062 2.359375 12.621094 2.289062 12.554688 2.273438 L 12.191406 2.1875 C 12.125 2.167969 12.082031 2.101562 12.097656 2.035156 L 12.246094 1.4375 C 12.261719 1.371094 12.21875 1.304688 12.152344 1.285156 L 11.457031 1.117188 C 11.386719 1.101562 11.347656 1.035156 11.363281 0.96875 L 11.503906 0.394531 C 11.519531 0.324219 11.480469 0.257812 11.410156 0.242188 L 10.421875 0.00390625 C 10.351562 -0.0117188 10.285156 0.0273438 10.269531 0.0976562 L 10.128906 0.671875 C 10.113281 0.738281 10.042969 0.777344 9.976562 0.761719 L 9.226562 0.582031 C 9.15625 0.566406 9.089844 0.605469 9.074219 0.675781 L 8.925781 1.269531 C 8.910156 1.339844 8.84375 1.378906 8.773438 1.363281 L 8.410156 1.277344 C 8.34375 1.261719 8.273438 1.300781 8.257812 1.367188 L 8.105469 1.988281 C 8.089844 2.054688 8.023438 2.097656 7.953125 2.082031 L 7.789062 2.039062 C 7.722656 2.023438 7.652344 2.066406 7.636719 2.132812 L 7.472656 2.8125 C 7.453125 2.878906 7.496094 2.945312 7.5625 2.960938 L 9.332031 3.386719 C 9.402344 3.40625 9.441406 3.472656 9.425781 3.539062 L 7.933594 9.636719 C 7.917969 9.707031 7.847656 9.746094 7.78125 9.730469 L 6.011719 9.304688 C 5.945312 9.289062 5.875 9.328125 5.859375 9.398438 L 5.691406 10.074219 C 5.675781 10.140625 5.71875 10.210938 5.785156 10.226562 L 5.949219 10.265625 C 6.019531 10.28125 6.058594 10.351562 6.042969 10.417969 L 5.890625 11.035156 C 5.875 11.105469 5.917969 11.171875 5.984375 11.1875 L 6.347656 11.277344 C 6.414062 11.292969 6.457031 11.359375 6.441406 11.429688 L 6.296875 12.023438 C 6.277344 12.089844 6.320312 12.160156 6.386719 12.175781 L 7.140625 12.355469 C 7.207031 12.371094 7.246094 12.441406 7.230469 12.507812 L 7.089844 13.082031 C 7.074219 13.148438 7.117188 13.21875 7.183594 13.234375 L 8.171875 13.472656 C 8.242188 13.488281 8.308594 13.445312 8.324219 13.378906 L 8.464844 12.804688 C 8.484375 12.738281 8.550781 12.695312 8.617188 12.710938 L 9.316406 12.878906 C 9.382812 12.894531 9.449219 12.855469 9.46875 12.789062 L 9.613281 12.191406 C 9.628906 12.125 9.699219 12.082031 9.765625 12.097656 L 10.128906 12.1875 C 10.195312 12.203125 10.265625 12.160156 10.28125 12.09375 L 10.433594 11.472656 C 10.449219 11.40625 10.519531 11.367188 10.585938 11.382812 L 10.75 11.421875 C 10.820312 11.4375 10.886719 11.394531 10.902344 11.328125 L 11.070312 10.652344 C 11.085938 10.582031 11.042969 10.515625 10.976562 10.5 L 9.261719 10.085938 C 9.195312 10.070312 9.152344 10.003906 9.167969 9.933594 L 10.660156 3.835938 C 10.675781 3.769531 10.746094 3.726562 10.8125 3.746094 Z M 12.527344 4.15625 "/>
</g>
</svg>
