<?xml version="1.0" encoding="UTF-8" standalone="no"?>
<!-- Created with Inkscape (http://www.inkscape.org/) -->

<svg
   xmlns:dc="http://purl.org/dc/elements/1.1/"
   xmlns:cc="http://creativecommons.org/ns#"
   xmlns:rdf="http://www.w3.org/1999/02/22-rdf-syntax-ns#"
   xmlns:svg="http://www.w3.org/2000/svg"
   xmlns="http://www.w3.org/2000/svg"
   xmlns:xlink="http://www.w3.org/1999/xlink"
   xmlns:sodipodi="http://sodipodi.sourceforge.net/DTD/sodipodi-0.dtd"
   xmlns:inkscape="http://www.inkscape.org/namespaces/inkscape"
   width="30px"
   height="30px"
   version="1.1"
   id="svg8"
   inkscape:version="0.92.4 5da689c313, 2019-01-14"
   sodipodi:docname="container.svg">
  <defs
     id="defs2" />
  <sodipodi:namedview
     id="base"
     pagecolor="#ffffff"
     bordercolor="#666666"
     borderopacity="1.0"
     inkscape:pageopacity="0.0"
     inkscape:pageshadow="2"
     inkscape:zoom="13.049334"
     inkscape:cx="18.679046"
     inkscape:cy="12.165829"
     inkscape:document-units="px"
     inkscape:current-layer="layer1"
     showgrid="false"
     inkscape:snap-page="false"
     units="px"
     inkscape:window-width="1884"
     inkscape:window-height="1061"
     inkscape:window-x="0"
     inkscape:window-y="0"
     inkscape:window-maximized="1"
     fit-margin-top="0"
     fit-margin-left="0"
     fit-margin-right="0"
     fit-margin-bottom="0" />
  <metadata
     id="metadata5">
    <rdf:RDF>
      <cc:Work
         rdf:about="">
        <dc:format>image/svg+xml</dc:format>
        <dc:type
           rdf:resource="http://purl.org/dc/dcmitype/StillImage" />
        <dc:title></dc:title>
      </cc:Work>
    </rdf:RDF>
  </metadata>
    <circle
       style="color:#000000;clip-rule:nonzero;display:inline;overflow:visible;visibility:visible;opacity:1;isolation:auto;mix-blend-mode:normal;color-interpolation:sRGB;color-interpolation-filters:linearRGB;solid-color:#000000;solid-opacity:1;vector-effect:none;fill:#ffffff;fill-opacity:1;fill-rule:evenodd;stroke:#00a757;stroke-width:1;stroke-linecap:butt;stroke-linejoin:miter;stroke-miterlimit:4;stroke-dasharray:none;stroke-dashoffset:0;stroke-opacity:1;marker:none;color-rendering:auto;image-rendering:auto;shape-rendering:auto;text-rendering:auto;enable-background:accumulate"
       id="path815"
       cx="15"
       cy="15"
       r="14.5" />
<g transform="translate(6.5,7.0)"><path fill-rule="nonzero" fill="rgb(30%,30%,30%)" fill-opacity="1" d="M 8.671875 12.503906 C 8.667969 12.5 8.664062 12.5 8.660156 12.5 C 8.554688 12.484375 8.535156 12.457031 8.582031 12.402344 L 8.605469 12.414062 C 8.636719 12.429688 8.65625 12.464844 8.671875 12.503906 Z M 8.605469 12.375 L 8.53125 12.375 L 8.582031 12.402344 C 8.589844 12.394531 8.597656 12.386719 8.605469 12.375 Z M 16.964844 15.871094 C 16.9375 15.910156 16.890625 15.929688 16.84375 15.929688 C 16.828125 15.929688 16.8125 15.925781 16.796875 15.921875 L 11.960938 14.386719 C 11.957031 14.386719 11.953125 14.386719 11.949219 14.390625 L 8.566406 15.9375 C 8.542969 15.945312 8.523438 15.953125 8.5 15.953125 C 8.46875 15.953125 8.4375 15.941406 8.414062 15.925781 C 8.402344 15.917969 8.390625 15.90625 8.382812 15.894531 C 8.378906 15.890625 8.378906 15.890625 8.375 15.886719 L 4.5625 14.382812 C 4.554688 14.378906 4.550781 14.378906 4.546875 14.382812 L 0.207031 15.914062 C 0.191406 15.921875 0.175781 15.925781 0.15625 15.925781 C 0.109375 15.925781 0.0625 15.902344 0.0351562 15.867188 C -0.0078125 15.8125 -0.0117188 15.742188 0.0234375 15.6875 L 1.007812 14.128906 L 1.988281 12.566406 L 2.953125 11.046875 C 2.964844 11.023438 2.988281 11.003906 3.011719 10.992188 L 5.222656 9.878906 C 3.589844 8.109375 3.632812 5.347656 5.347656 3.632812 C 7.117188 1.863281 9.96875 1.875 11.726562 3.632812 C 13.457031 5.359375 13.484375 8.160156 11.8125 9.925781 L 14.144531 11.007812 C 14.175781 11.019531 14.199219 11.042969 14.214844 11.070312 L 15.121094 12.585938 L 16.050781 14.140625 L 16.976562 15.695312 C 17.011719 15.75 17.007812 15.820312 16.964844 15.871094 Z M 14.875 12.789062 L 11.382812 11.382812 C 11.375 11.382812 11.367188 11.382812 11.363281 11.386719 C 11.359375 11.390625 11.355469 11.398438 11.355469 11.40625 L 11.65625 12.53125 C 11.660156 12.539062 11.664062 12.542969 11.667969 12.546875 L 12.707031 12.914062 L 15.507812 13.910156 C 15.515625 13.910156 15.523438 13.910156 15.527344 13.902344 C 15.535156 13.894531 15.535156 13.886719 15.53125 13.878906 L 14.882812 12.796875 C 14.882812 12.792969 14.878906 12.792969 14.875 12.789062 Z M 13.964844 11.269531 L 11.570312 10.160156 C 11.429688 10.289062 11.277344 10.410156 11.117188 10.523438 L 11.121094 10.527344 L 11.242188 10.980469 C 11.242188 10.988281 11.25 10.992188 11.253906 10.992188 L 14.597656 12.339844 L 14.617188 12.347656 L 13.972656 11.277344 C 13.96875 11.273438 13.96875 11.269531 13.964844 11.269531 Z M 8.699219 12.839844 L 8.699219 13.074219 L 8.679688 14.007812 C 8.679688 14.015625 8.683594 14.023438 8.6875 14.027344 C 8.695312 14.03125 8.703125 14.03125 8.707031 14.027344 C 8.707031 14.027344 11.121094 12.757812 11.34375 12.644531 C 11.34375 12.644531 11.054688 11.46875 11.023438 11.382812 L 8.671875 12.707031 C 8.703125 12.824219 8.699219 12.832031 8.699219 12.839844 Z M 12.003906 6.984375 L 12.683594 6.984375 C 12.761719 6.984375 12.820312 6.921875 12.820312 6.847656 C 12.820312 6.773438 12.761719 6.710938 12.683594 6.710938 L 12.003906 6.710938 C 11.824219 6.710938 11.824219 6.984375 12.003906 6.984375 Z M 8.1875 3.332031 C 8.1875 3.511719 8.460938 3.507812 8.460938 3.332031 L 8.460938 3.128906 L 8.640625 3.378906 C 8.71875 3.484375 8.886719 3.433594 8.886719 3.300781 L 8.886719 2.707031 C 8.886719 2.527344 8.617188 2.527344 8.617188 2.707031 L 8.617188 2.878906 L 8.433594 2.625 C 8.398438 2.578125 8.339844 2.558594 8.28125 2.578125 C 8.226562 2.59375 8.1875 2.648438 8.1875 2.707031 Z M 5.484375 6.820312 C 5.484375 8.503906 6.851562 9.875 8.539062 9.875 C 10.222656 9.875 11.59375 8.503906 11.59375 6.820312 C 11.59375 5.136719 10.222656 3.765625 8.539062 3.765625 C 6.851562 3.765625 5.484375 5.136719 5.484375 6.820312 Z M 8.410156 10.277344 L 8.410156 10.9375 C 8.410156 11.113281 8.679688 11.117188 8.679688 10.9375 L 8.679688 10.277344 C 8.679688 10.097656 8.410156 10.097656 8.410156 10.277344 Z M 5.253906 6.847656 C 5.253906 6.773438 5.195312 6.710938 5.121094 6.710938 L 4.390625 6.710938 C 4.210938 6.710938 4.210938 6.984375 4.390625 6.984375 L 5.121094 6.984375 C 5.195312 6.984375 5.253906 6.921875 5.253906 6.847656 Z M 2.589844 12.273438 L 5.503906 10.984375 C 5.507812 10.980469 5.511719 10.976562 5.515625 10.972656 L 5.664062 10.546875 L 5.730469 10.351562 C 5.636719 10.277344 5.542969 10.195312 5.453125 10.113281 L 3.199219 11.25 C 3.195312 11.25 3.191406 11.253906 3.191406 11.257812 L 2.5625 12.246094 C 2.558594 12.253906 2.558594 12.261719 2.566406 12.269531 C 2.570312 12.273438 2.582031 12.277344 2.589844 12.273438 Z M 1.585938 13.871094 L 4.964844 12.539062 C 4.96875 12.539062 4.972656 12.53125 4.976562 12.527344 L 5.175781 11.957031 L 5.355469 11.429688 C 5.359375 11.421875 5.355469 11.414062 5.351562 11.410156 C 5.34375 11.402344 5.335938 11.402344 5.328125 11.40625 L 2.234375 12.773438 C 2.230469 12.777344 2.230469 12.777344 2.226562 12.78125 L 1.558594 13.839844 C 1.554688 13.847656 1.554688 13.855469 1.5625 13.863281 C 1.566406 13.871094 1.574219 13.871094 1.585938 13.871094 Z M 4.824219 12.96875 C 4.824219 12.960938 4.824219 12.953125 4.816406 12.945312 C 4.8125 12.941406 4.804688 12.9375 4.796875 12.941406 L 2.871094 13.699219 L 1.25 14.335938 C 1.246094 14.335938 1.242188 14.339844 1.242188 14.34375 L 0.5625 15.421875 C 0.554688 15.429688 0.558594 15.4375 0.5625 15.445312 C 0.566406 15.453125 0.578125 15.453125 0.585938 15.453125 L 4.425781 14.09375 C 4.429688 14.09375 4.433594 14.085938 4.4375 14.082031 Z M 8.371094 14.328125 C 8.371094 14.320312 8.367188 14.3125 8.359375 14.308594 L 5.207031 12.878906 C 5.203125 12.875 5.195312 12.875 5.191406 12.878906 C 5.1875 12.878906 5.183594 12.882812 5.179688 12.890625 L 5.136719 13.015625 L 4.757812 14.105469 C 4.753906 14.113281 4.761719 14.125 4.769531 14.128906 L 8.320312 15.535156 C 8.328125 15.535156 8.332031 15.535156 8.339844 15.53125 C 8.34375 15.527344 8.347656 15.523438 8.347656 15.515625 L 8.355469 15.191406 Z M 8.425781 12.757812 C 8.425781 12.71875 5.726562 11.332031 5.679688 11.410156 C 5.675781 11.40625 5.667969 11.40625 5.664062 11.40625 C 5.65625 11.410156 5.652344 11.414062 5.652344 11.421875 L 5.609375 11.542969 L 5.230469 12.636719 C 5.226562 12.644531 5.230469 12.65625 5.242188 12.660156 L 8.40625 14.019531 C 8.417969 14.027344 8.425781 12.757812 8.425781 12.757812 Z M 8.613281 12.371094 C 8.636719 12.347656 8.671875 12.320312 8.710938 12.285156 C 8.714844 12.285156 8.714844 12.285156 8.714844 12.285156 L 10.917969 11.042969 C 10.925781 11.039062 10.929688 11.03125 10.929688 11.019531 L 10.84375 10.699219 C 9.347656 11.589844 7.445312 11.542969 5.996094 10.546875 L 5.835938 11.003906 C 5.832031 11.015625 5.835938 11.027344 5.84375 11.03125 L 8.578125 12.398438 C 8.582031 12.402344 8.589844 12.402344 8.59375 12.398438 C 8.601562 12.394531 8.605469 12.390625 8.605469 12.382812 C 8.605469 12.378906 8.609375 12.375 8.613281 12.371094 Z M 11.753906 14.113281 L 11.742188 14.078125 L 11.433594 12.917969 C 11.433594 12.910156 11.429688 12.90625 11.421875 12.902344 C 11.417969 12.902344 11.410156 12.902344 11.40625 12.902344 L 10.289062 13.492188 L 8.691406 14.328125 C 8.683594 14.332031 8.679688 14.339844 8.679688 14.347656 L 8.679688 14.582031 L 8.660156 15.515625 C 8.660156 15.523438 8.664062 15.53125 8.671875 15.535156 C 8.675781 15.539062 8.683594 15.539062 8.691406 15.535156 L 11.742188 14.136719 C 11.753906 14.132812 11.757812 14.121094 11.753906 14.113281 Z M 16.472656 15.457031 L 15.8125 14.355469 C 15.8125 14.351562 15.808594 14.347656 15.804688 14.347656 L 15.046875 14.078125 L 11.792969 12.921875 C 11.785156 12.921875 11.777344 12.921875 11.773438 12.925781 C 11.765625 12.933594 11.765625 12.941406 11.765625 12.945312 L 12.070312 14.082031 C 12.070312 14.089844 12.074219 14.09375 12.082031 14.097656 L 16.449219 15.484375 C 16.457031 15.488281 16.464844 15.484375 16.46875 15.480469 C 16.476562 15.472656 16.476562 15.464844 16.472656 15.457031 Z M 6.644531 1.195312 L 6.644531 0.847656 C 6.644531 0.378906 7.023438 0 7.492188 0 L 9.675781 0 C 10.140625 0 10.519531 0.378906 10.519531 0.847656 L 10.519531 1.195312 C 10.519531 1.664062 10.140625 2.042969 9.675781 2.042969 L 7.492188 2.042969 C 7.023438 2.042969 6.644531 1.664062 6.644531 1.195312 Z M 7.191406 1.195312 C 7.191406 1.359375 7.324219 1.496094 7.492188 1.496094 L 9.675781 1.496094 C 9.839844 1.496094 9.972656 1.359375 9.972656 1.195312 L 9.972656 0.847656 C 9.972656 0.679688 9.839844 0.546875 9.675781 0.546875 L 7.492188 0.546875 C 7.324219 0.546875 7.191406 0.679688 7.191406 0.847656 Z M 10.53125 4.90625 C 10.53125 4.914062 9.101562 7.355469 9.097656 7.359375 C 9.082031 7.382812 6.628906 8.816406 6.621094 8.816406 C 6.605469 8.824219 6.589844 8.824219 6.578125 8.816406 C 6.570312 8.8125 6.566406 8.8125 6.5625 8.808594 C 6.554688 8.800781 6.546875 8.789062 6.542969 8.777344 C 6.539062 8.773438 6.539062 8.765625 6.539062 8.761719 L 6.539062 8.757812 C 6.539062 8.75 6.539062 8.746094 6.539062 8.738281 C 6.542969 8.734375 6.542969 8.730469 6.546875 8.726562 L 6.550781 8.722656 L 7.976562 6.285156 C 7.992188 6.257812 10.441406 4.824219 10.453125 4.824219 C 10.496094 4.796875 10.5625 4.863281 10.53125 4.90625 Z M 8.941406 7.3125 L 8.539062 6.910156 L 6.992188 8.453125 Z M 10.082031 5.1875 L 8.136719 6.328125 L 8.539062 6.730469 Z M 10.082031 5.1875 "/>
</g>
</svg>
