<?xml version="1.0" encoding="UTF-8"?>
<svg xmlns="http://www.w3.org/2000/svg" xmlns:xlink="http://www.w3.org/1999/xlink" width="11" height="9.361798" viewBox="0 0 11 9.361798">
<path fill-rule="nonzero" fill="rgb(30%,30%,30%)" fill-opacity="1" d="M 4.289062 1.105469 C 4.289062 1.71875 3.792969 2.210938 3.183594 2.210938 C 2.570312 2.210938 2.074219 1.71875 2.074219 1.105469 C 2.074219 0.496094 2.570312 0 3.183594 0 C 3.792969 0 4.289062 0.496094 4.289062 1.105469 Z M 4.289062 1.105469 "/>
<path fill-rule="nonzero" fill="rgb(30%,30%,30%)" fill-opacity="1" d="M 9.015625 1.105469 C 9.015625 1.71875 8.519531 2.210938 7.910156 2.210938 C 7.296875 2.210938 6.804688 1.71875 6.804688 1.105469 C 6.804688 0.496094 7.296875 0 7.910156 0 C 8.519531 0 9.015625 0.496094 9.015625 1.105469 Z M 9.015625 1.105469 "/>
<path fill-rule="nonzero" fill="rgb(30%,30%,30%)" fill-opacity="1" d="M 11 3.507812 L 11 3.429688 C 11 3.234375 10.839844 3.074219 10.644531 3.074219 L 0.355469 3.074219 C 0.160156 3.074219 0 3.234375 0 3.429688 L 0 3.507812 C 0 3.703125 0.160156 3.863281 0.355469 3.863281 L 2.101562 3.863281 C 2.296875 3.863281 2.453125 4.023438 2.453125 4.21875 L 2.453125 6.027344 C 2.453125 6.082031 2.441406 6.132812 2.421875 6.179688 L 1.148438 8.855469 C 1.097656 8.964844 1.105469 9.09375 1.171875 9.195312 C 1.234375 9.300781 1.347656 9.363281 1.46875 9.363281 L 1.472656 9.363281 C 1.609375 9.363281 1.734375 9.28125 1.792969 9.160156 L 3.171875 6.257812 L 3.214844 6.257812 L 4.621094 9.160156 C 4.679688 9.285156 4.804688 9.363281 4.941406 9.363281 C 5.0625 9.363281 5.175781 9.300781 5.242188 9.195312 C 5.304688 9.09375 5.3125 8.960938 5.261719 8.851562 L 4.035156 6.324219 C 4.011719 6.273438 4 6.222656 4 6.167969 L 4 4.21875 C 4 4.023438 4.160156 3.863281 4.355469 3.863281 L 6.75 3.863281 C 6.949219 3.863281 7.105469 4.023438 7.105469 4.21875 L 7.105469 6.058594 C 7.105469 6.113281 7.09375 6.164062 7.070312 6.210938 L 5.816406 8.855469 C 5.765625 8.964844 5.773438 9.09375 5.835938 9.195312 C 5.902344 9.300781 6.015625 9.363281 6.136719 9.363281 L 6.140625 9.363281 C 6.277344 9.363281 6.402344 9.28125 6.460938 9.160156 L 7.839844 6.257812 L 7.886719 6.257812 L 9.289062 9.160156 C 9.347656 9.285156 9.472656 9.363281 9.609375 9.363281 C 9.730469 9.363281 9.84375 9.300781 9.910156 9.195312 C 9.972656 9.09375 9.980469 8.964844 9.929688 8.851562 L 8.6875 6.277344 C 8.664062 6.230469 8.652344 6.179688 8.652344 6.125 L 8.652344 4.21875 C 8.652344 4.023438 8.808594 3.863281 9.007812 3.863281 L 10.644531 3.863281 C 10.839844 3.863281 11 3.703125 11 3.507812 Z M 11 3.507812 "/>
</svg>
