<?xml version="1.0" encoding="UTF-8"?>
<svg xmlns="http://www.w3.org/2000/svg" xmlns:xlink="http://www.w3.org/1999/xlink" width="11" height="8.407657" viewBox="0 0 11 8.407657">
<path fill-rule="nonzero" fill="rgb(30%,30%,30%)" fill-opacity="1" d="M 0 5.703125 C 3.277344 6.847656 6.949219 7.316406 11 7.257812 C 10.882812 7.714844 10.835938 7.824219 10.875 8.40625 L 1.945312 8.359375 C 1.152344 7.585938 0.511719 6.691406 0 5.703125 Z M 1.230469 5.378906 C 2.539062 5.871094 3.949219 6.132812 5.410156 6.285156 C 5.234375 3.382812 5.730469 1.21875 7.09375 0 C 4.433594 0.976562 2.40625 2.683594 1.230469 5.378906 Z M 7.160156 0.9375 C 6.257812 1.925781 5.886719 3.722656 5.929688 6.15625 C 7.21875 6.683594 8.589844 6.8125 10.042969 6.578125 C 7.742188 5.25 6.714844 3.71875 7.160156 0.9375 Z M 7.160156 0.9375 "/>
</svg>
