<?xml version="1.0" encoding="UTF-8"?>
<svg xmlns="http://www.w3.org/2000/svg" xmlns:xlink="http://www.w3.org/1999/xlink" width="11" height="9.672553" viewBox="0 0 11 9.672553">
<path fill-rule="nonzero" fill="rgb(30%,30%,30%)" fill-opacity="1" d="M 11 1.890625 C 11 2.257812 10.703125 2.554688 10.335938 2.554688 C 9.96875 2.554688 9.671875 2.257812 9.671875 1.890625 C 9.671875 1.523438 9.96875 1.226562 10.335938 1.226562 C 10.703125 1.226562 11 1.523438 11 1.890625 Z M 11 1.890625 "/>
<path fill-rule="nonzero" fill="rgb(30%,30%,30%)" fill-opacity="1" d="M 5.101562 6.597656 L 5.113281 6.59375 L 3.847656 4.695312 L 1.984375 4.710938 L 1.105469 5.570312 L 1.671875 5.597656 L 0.0703125 8.371094 C -0.0742188 8.621094 0.0117188 8.9375 0.257812 9.082031 C 0.507812 9.222656 0.824219 9.136719 0.96875 8.890625 L 2.921875 5.652344 L 4.023438 6.878906 L 3.480469 8.902344 L 3.472656 8.898438 C 3.460938 9.132812 3.613281 9.351562 3.847656 9.417969 C 4.03125 9.488281 4.234375 9.332031 4.351562 9.238281 L 5.097656 6.863281 C 5.121094 6.773438 5.121094 6.683594 5.101562 6.597656 Z M 5.101562 6.597656 "/>
<path fill-rule="nonzero" fill="rgb(30%,30%,30%)" fill-opacity="1" d="M 4.863281 0.664062 C 4.863281 1.03125 4.566406 1.328125 4.203125 1.328125 C 3.835938 1.328125 3.539062 1.03125 3.539062 0.664062 C 3.539062 0.296875 3.835938 0 4.203125 0 C 4.566406 0 4.863281 0.296875 4.863281 0.664062 Z M 4.863281 0.664062 "/>
<path fill-rule="nonzero" fill="rgb(30%,30%,30%)" fill-opacity="1" d="M 8.132812 5.09375 C 8.128906 5.101562 7.199219 3.898438 7.058594 3.804688 L 5.03125 2.488281 L 7.238281 2.410156 C 7.855469 2.394531 7.804688 1.824219 7.449219 1.792969 C 6.898438 1.742188 4.675781 1.628906 3.710938 1.628906 L 3.339844 1.386719 C 3.125 1.242188 2.890625 1.1875 2.746094 1.402344 L 2.710938 1.4375 C 2.617188 1.578125 2.652344 1.75 2.75 1.894531 C 2.273438 2.144531 1.707031 2.375 1.691406 2.621094 C 1.675781 2.863281 2.40625 3.367188 2.40625 3.367188 L 2.078125 4.308594 L 3.863281 4.308594 L 4.421875 3.296875 L 6.476562 4.972656 C 6.640625 5.082031 7.203125 7.066406 7.523438 7.882812 L 7.722656 9.265625 C 7.757812 9.523438 8 9.703125 8.253906 9.667969 L 8.316406 9.660156 C 8.570312 9.621094 8.753906 9.382812 8.714844 9.125 C 8.714844 9.125 8.167969 5.140625 8.132812 5.09375 Z M 8.132812 5.09375 "/>
<path fill-rule="nonzero" fill="rgb(30%,30%,30%)" fill-opacity="1" d="M 10.480469 3.21875 C 10.367188 3.058594 8.957031 2.117188 8.941406 2.003906 C 8.925781 1.890625 9.621094 1.191406 9.621094 1.191406 L 9.921875 0.878906 C 10.09375 0.726562 10.078125 0.4375 9.871094 0.332031 C 9.8125 0.300781 9.65625 0.277344 9.589844 0.300781 C 9.332031 0.398438 8.925781 0.804688 8.925781 0.804688 C 8.925781 0.804688 7.773438 1.679688 7.820312 1.9375 C 7.871094 2.199219 8.292969 2.488281 8.195312 2.621094 C 8.097656 2.75 7.320312 3.511719 7.320312 3.511719 L 8.4375 4.84375 L 9.542969 4.46875 C 9.542969 4.46875 10.101562 5.125 10.402344 5.035156 C 10.839844 4.90625 10.59375 3.382812 10.480469 3.21875 Z M 10.480469 3.21875 "/>
</svg>
