<?xml version="1.0" encoding="UTF-8"?>
<svg xmlns="http://www.w3.org/2000/svg" xmlns:xlink="http://www.w3.org/1999/xlink" width="8.98783" height="11" viewBox="0 0 8.98783 11">
<path fill-rule="nonzero" fill="rgb(30%,30%,30%)" fill-opacity="1" d="M 8.617188 1.128906 C 8.371094 1.019531 8.089844 1.078125 7.910156 1.253906 C 7.492188 1.023438 7.058594 0.824219 6.605469 0.667969 C 6.621094 0.414062 6.484375 0.167969 6.238281 0.0585938 C 5.917969 -0.0859375 5.542969 0.0507812 5.394531 0.367188 C 5.25 0.683594 5.390625 1.058594 5.710938 1.203125 C 5.957031 1.3125 6.234375 1.253906 6.417969 1.078125 C 6.472656 1.109375 6.53125 1.140625 6.589844 1.171875 C 6.558594 1.210938 6.535156 1.257812 6.523438 1.304688 L 6.003906 3.015625 L 4.871094 3.191406 C 4.761719 3.085938 4.617188 3.023438 4.453125 3.023438 L 4.449219 3.023438 C 4.285156 3.023438 4.140625 3.085938 4.027344 3.1875 L 2.910156 3.019531 L 2.472656 1.320312 C 2.457031 1.265625 2.429688 1.214844 2.398438 1.171875 C 2.457031 1.140625 2.511719 1.109375 2.570312 1.078125 C 2.75 1.253906 3.03125 1.3125 3.277344 1.203125 C 3.59375 1.058594 3.738281 0.683594 3.589844 0.367188 C 3.445312 0.0507812 3.070312 -0.0859375 2.75 0.0585938 C 2.503906 0.167969 2.367188 0.414062 2.378906 0.667969 C 1.929688 0.824219 1.496094 1.023438 1.078125 1.253906 C 0.898438 1.078125 0.617188 1.019531 0.371094 1.128906 C 0.0546875 1.273438 -0.0898438 1.648438 0.0585938 1.964844 C 0.203125 2.28125 0.578125 2.417969 0.898438 2.277344 C 1.144531 2.164062 1.28125 1.917969 1.269531 1.667969 C 1.375 1.628906 1.484375 1.585938 1.589844 1.542969 C 1.589844 1.546875 1.589844 1.546875 1.589844 1.546875 L 2.117188 3.570312 C 2.160156 3.734375 2.285156 3.851562 2.4375 3.894531 C 2.464844 3.902344 2.492188 3.910156 2.519531 3.914062 L 3.832031 4.113281 L 3.820312 6.363281 C 3.820312 6.421875 3.828125 6.480469 3.84375 6.535156 L 2.996094 8.363281 C 2.996094 8.367188 2.996094 8.367188 2.996094 8.367188 C 2.996094 8.371094 2.992188 8.378906 2.988281 8.382812 C 2.988281 8.386719 2.988281 8.386719 2.988281 8.390625 C 2.984375 8.394531 2.984375 8.398438 2.984375 8.402344 C 2.980469 8.40625 2.980469 8.410156 2.976562 8.414062 C 2.976562 8.414062 2.976562 8.417969 2.976562 8.421875 C 2.972656 8.425781 2.972656 8.433594 2.972656 8.4375 C 2.972656 8.4375 2.972656 8.4375 2.96875 8.441406 C 2.96875 8.449219 2.964844 8.457031 2.964844 8.464844 L 2.539062 10.429688 C 2.484375 10.683594 2.648438 10.933594 2.90625 10.988281 C 2.9375 10.996094 2.972656 11 3.003906 11 C 3.222656 11 3.421875 10.847656 3.46875 10.628906 L 3.882812 8.710938 L 4.441406 7.503906 L 5 8.710938 L 5.414062 10.628906 C 5.460938 10.847656 5.65625 11 5.878906 11 C 5.910156 11 5.945312 10.996094 5.976562 10.988281 C 6.234375 10.933594 6.398438 10.683594 6.34375 10.429688 L 5.917969 8.460938 C 5.914062 8.453125 5.914062 8.449219 5.910156 8.441406 C 5.910156 8.441406 5.910156 8.4375 5.910156 8.4375 C 5.910156 8.433594 5.90625 8.425781 5.90625 8.421875 C 5.90625 8.417969 5.90625 8.414062 5.902344 8.414062 C 5.902344 8.410156 5.902344 8.40625 5.898438 8.402344 C 5.898438 8.398438 5.898438 8.394531 5.894531 8.390625 C 5.894531 8.386719 5.894531 8.386719 5.890625 8.382812 C 5.890625 8.378906 5.886719 8.371094 5.886719 8.367188 C 5.886719 8.367188 5.886719 8.367188 5.882812 8.363281 L 5.027344 6.507812 C 5.039062 6.464844 5.042969 6.417969 5.042969 6.371094 L 5.058594 4.117188 L 6.382812 3.914062 C 6.414062 3.910156 6.441406 3.902344 6.464844 3.894531 C 6.613281 3.855469 6.734375 3.742188 6.78125 3.589844 L 7.390625 1.5625 C 7.394531 1.558594 7.394531 1.550781 7.398438 1.542969 C 7.503906 1.585938 7.613281 1.628906 7.71875 1.667969 C 7.703125 1.917969 7.84375 2.164062 8.089844 2.277344 C 8.410156 2.417969 8.785156 2.28125 8.929688 1.964844 C 9.074219 1.648438 8.933594 1.273438 8.617188 1.128906 Z M 8.617188 1.128906 "/>
<path fill-rule="nonzero" fill="rgb(30%,30%,30%)" fill-opacity="1" d="M 4.492188 2.84375 C 4.960938 2.84375 5.339844 2.46875 5.339844 2.003906 C 5.339844 1.542969 4.960938 1.167969 4.492188 1.167969 C 4.027344 1.167969 3.648438 1.542969 3.648438 2.003906 C 3.648438 2.46875 4.027344 2.84375 4.492188 2.84375 Z M 4.492188 2.84375 "/>
</svg>
