<?xml version="1.0" encoding="UTF-8"?>
<svg xmlns="http://www.w3.org/2000/svg" xmlns:xlink="http://www.w3.org/1999/xlink" width="11" height="10.844334" viewBox="0 0 11 10.844334">
<path fill-rule="nonzero" fill="rgb(30%,30%,30%)" fill-opacity="1" d="M 9.890625 1.355469 C 9.558594 0.972656 7.984375 -0.628906 5.949219 0.269531 C 3.664062 1.277344 3.335938 5.144531 3.25 5.589844 C 3.167969 6.007812 2.992188 7.136719 2.730469 7.5 C 2.824219 7.664062 3.023438 7.910156 3.40625 8.136719 C 3.914062 7.804688 5.515625 7.617188 6.402344 7.421875 C 8.203125 7.019531 9.878906 6.511719 10.550781 5.296875 C 11.71875 3.191406 10.28125 1.796875 9.890625 1.355469 Z M 8.105469 3.1875 C 8.207031 3.1875 8.292969 3.269531 8.292969 3.371094 C 8.292969 3.472656 8.207031 3.554688 8.105469 3.554688 C 8.003906 3.554688 7.921875 3.472656 7.921875 3.371094 C 7.921875 3.269531 8.003906 3.1875 8.105469 3.1875 Z M 7.925781 2.5 C 7.925781 2.394531 8.007812 2.3125 8.109375 2.3125 C 8.210938 2.3125 8.292969 2.394531 8.292969 2.5 C 8.292969 2.601562 8.210938 2.683594 8.109375 2.683594 C 8.007812 2.683594 7.925781 2.601562 7.925781 2.5 Z M 6.796875 1.890625 C 6.898438 1.890625 6.984375 1.972656 6.984375 2.074219 C 6.984375 2.175781 6.898438 2.257812 6.796875 2.257812 C 6.695312 2.257812 6.613281 2.175781 6.613281 2.074219 C 6.613281 1.972656 6.695312 1.890625 6.796875 1.890625 Z M 6.367188 1.460938 C 6.46875 1.460938 6.550781 1.542969 6.550781 1.644531 C 6.550781 1.746094 6.46875 1.828125 6.367188 1.828125 C 6.265625 1.828125 6.183594 1.746094 6.183594 1.644531 C 6.183594 1.542969 6.265625 1.460938 6.367188 1.460938 Z M 4.84375 6.953125 C 4.3125 7.484375 3.5 7.492188 3.449219 7.453125 C 3.402344 7.410156 3.332031 6.738281 3.792969 6.238281 C 3.878906 6.144531 3.871094 6.109375 3.964844 6.035156 C 3.964844 6.035156 4.214844 5.992188 4.496094 6.164062 C 4.777344 6.335938 4.832031 6.566406 4.832031 6.566406 C 4.863281 6.714844 4.886719 6.910156 4.84375 6.953125 Z M 5.019531 4.914062 C 4.917969 4.914062 4.835938 4.832031 4.835938 4.730469 C 4.835938 4.628906 4.917969 4.542969 5.019531 4.542969 C 5.121094 4.542969 5.203125 4.628906 5.203125 4.730469 C 5.203125 4.832031 5.121094 4.914062 5.019531 4.914062 Z M 5.019531 4.039062 C 4.917969 4.039062 4.835938 3.953125 4.835938 3.851562 C 4.835938 3.75 4.917969 3.667969 5.019531 3.667969 C 5.121094 3.667969 5.203125 3.75 5.203125 3.851562 C 5.203125 3.953125 5.121094 4.039062 5.019531 4.039062 Z M 5.039062 3.15625 C 4.9375 3.15625 4.855469 3.074219 4.855469 2.972656 C 4.855469 2.871094 4.9375 2.789062 5.039062 2.789062 C 5.140625 2.789062 5.222656 2.871094 5.222656 2.972656 C 5.222656 3.074219 5.140625 3.15625 5.039062 3.15625 Z M 5.449219 5.34375 C 5.347656 5.34375 5.265625 5.261719 5.265625 5.160156 C 5.265625 5.058594 5.347656 4.972656 5.449219 4.972656 C 5.550781 4.972656 5.632812 5.058594 5.632812 5.160156 C 5.632812 5.261719 5.550781 5.34375 5.449219 5.34375 Z M 5.457031 4.472656 C 5.355469 4.472656 5.273438 4.390625 5.273438 4.289062 C 5.273438 4.1875 5.355469 4.105469 5.457031 4.105469 C 5.558594 4.105469 5.640625 4.1875 5.640625 4.289062 C 5.640625 4.390625 5.558594 4.472656 5.457031 4.472656 Z M 5.46875 3.585938 C 5.367188 3.585938 5.285156 3.503906 5.285156 3.402344 C 5.285156 3.300781 5.367188 3.21875 5.46875 3.21875 C 5.570312 3.21875 5.65625 3.300781 5.65625 3.402344 C 5.65625 3.503906 5.570312 3.585938 5.46875 3.585938 Z M 5.488281 2.707031 C 5.386719 2.707031 5.304688 2.625 5.304688 2.523438 C 5.304688 2.421875 5.386719 2.335938 5.488281 2.335938 C 5.589844 2.335938 5.671875 2.421875 5.671875 2.523438 C 5.671875 2.625 5.589844 2.707031 5.488281 2.707031 Z M 5.890625 5.769531 C 5.789062 5.769531 5.707031 5.6875 5.707031 5.585938 C 5.707031 5.484375 5.789062 5.402344 5.890625 5.402344 C 5.992188 5.402344 6.074219 5.484375 6.074219 5.585938 C 6.074219 5.6875 5.992188 5.769531 5.890625 5.769531 Z M 5.703125 4.71875 C 5.703125 4.617188 5.785156 4.535156 5.886719 4.535156 C 5.988281 4.535156 6.070312 4.617188 6.070312 4.71875 C 6.070312 4.820312 5.988281 4.902344 5.886719 4.902344 C 5.785156 4.902344 5.703125 4.820312 5.703125 4.71875 Z M 5.90625 4.023438 C 5.804688 4.023438 5.722656 3.941406 5.722656 3.839844 C 5.722656 3.738281 5.804688 3.65625 5.90625 3.65625 C 6.007812 3.65625 6.089844 3.738281 6.089844 3.839844 C 6.089844 3.941406 6.007812 4.023438 5.90625 4.023438 Z M 5.921875 3.136719 C 5.816406 3.136719 5.734375 3.054688 5.734375 2.953125 C 5.734375 2.851562 5.816406 2.769531 5.921875 2.769531 C 6.023438 2.769531 6.105469 2.851562 6.105469 2.953125 C 6.105469 3.054688 6.023438 3.136719 5.921875 3.136719 Z M 5.9375 2.257812 C 5.835938 2.257812 5.753906 2.175781 5.753906 2.074219 C 5.753906 1.96875 5.835938 1.886719 5.9375 1.886719 C 6.039062 1.886719 6.121094 1.96875 6.121094 2.074219 C 6.121094 2.175781 6.039062 2.257812 5.9375 2.257812 Z M 6.324219 6.203125 C 6.21875 6.203125 6.136719 6.121094 6.136719 6.019531 C 6.136719 5.917969 6.21875 5.835938 6.324219 5.835938 C 6.425781 5.835938 6.507812 5.917969 6.507812 6.019531 C 6.507812 6.121094 6.425781 6.203125 6.324219 6.203125 Z M 6.328125 5.332031 C 6.226562 5.332031 6.144531 5.25 6.144531 5.148438 C 6.144531 5.046875 6.226562 4.964844 6.328125 4.964844 C 6.429688 4.964844 6.511719 5.046875 6.511719 5.148438 C 6.511719 5.25 6.429688 5.332031 6.328125 5.332031 Z M 6.335938 4.453125 C 6.234375 4.453125 6.152344 4.371094 6.152344 4.269531 C 6.152344 4.167969 6.234375 4.085938 6.335938 4.085938 C 6.4375 4.085938 6.519531 4.167969 6.519531 4.269531 C 6.519531 4.371094 6.4375 4.453125 6.335938 4.453125 Z M 6.355469 3.574219 C 6.253906 3.574219 6.171875 3.492188 6.171875 3.390625 C 6.171875 3.289062 6.253906 3.207031 6.355469 3.207031 C 6.457031 3.207031 6.542969 3.289062 6.542969 3.390625 C 6.542969 3.492188 6.457031 3.574219 6.355469 3.574219 Z M 6.371094 2.6875 C 6.269531 2.6875 6.183594 2.605469 6.183594 2.503906 C 6.183594 2.402344 6.269531 2.320312 6.371094 2.320312 C 6.472656 2.320312 6.554688 2.402344 6.554688 2.503906 C 6.554688 2.605469 6.472656 2.6875 6.371094 2.6875 Z M 6.761719 5.765625 C 6.660156 5.765625 6.578125 5.679688 6.578125 5.578125 C 6.578125 5.476562 6.660156 5.394531 6.761719 5.394531 C 6.863281 5.394531 6.945312 5.476562 6.945312 5.578125 C 6.945312 5.679688 6.863281 5.765625 6.761719 5.765625 Z M 6.777344 4.882812 C 6.675781 4.882812 6.59375 4.800781 6.59375 4.699219 C 6.59375 4.597656 6.675781 4.515625 6.777344 4.515625 C 6.878906 4.515625 6.964844 4.597656 6.964844 4.699219 C 6.964844 4.800781 6.878906 4.882812 6.777344 4.882812 Z M 6.785156 4.003906 C 6.683594 4.003906 6.601562 3.921875 6.601562 3.820312 C 6.601562 3.71875 6.683594 3.636719 6.785156 3.636719 C 6.886719 3.636719 6.972656 3.71875 6.972656 3.820312 C 6.972656 3.921875 6.886719 4.003906 6.785156 4.003906 Z M 6.804688 3.125 C 6.703125 3.125 6.621094 3.042969 6.621094 2.941406 C 6.621094 2.839844 6.703125 2.757812 6.804688 2.757812 C 6.910156 2.757812 6.992188 2.839844 6.992188 2.941406 C 6.992188 3.042969 6.910156 3.125 6.804688 3.125 Z M 7.199219 6.199219 C 7.097656 6.199219 7.015625 6.117188 7.015625 6.015625 C 7.015625 5.914062 7.097656 5.832031 7.199219 5.832031 C 7.300781 5.832031 7.382812 5.914062 7.382812 6.015625 C 7.382812 6.117188 7.300781 6.199219 7.199219 6.199219 Z M 7.210938 5.3125 C 7.109375 5.3125 7.027344 5.230469 7.027344 5.128906 C 7.027344 5.027344 7.109375 4.945312 7.210938 4.945312 C 7.3125 4.945312 7.394531 5.027344 7.394531 5.128906 C 7.394531 5.230469 7.3125 5.3125 7.210938 5.3125 Z M 7.230469 4.433594 C 7.125 4.433594 7.042969 4.351562 7.042969 4.25 C 7.042969 4.148438 7.125 4.0625 7.230469 4.0625 C 7.332031 4.0625 7.414062 4.148438 7.414062 4.25 C 7.414062 4.351562 7.332031 4.433594 7.230469 4.433594 Z M 7.238281 3.554688 C 7.132812 3.554688 7.050781 3.472656 7.050781 3.371094 C 7.050781 3.269531 7.132812 3.1875 7.238281 3.1875 C 7.339844 3.1875 7.421875 3.269531 7.421875 3.371094 C 7.421875 3.472656 7.339844 3.554688 7.238281 3.554688 Z M 7.050781 2.511719 C 7.050781 2.410156 7.132812 2.328125 7.234375 2.328125 C 7.335938 2.328125 7.417969 2.410156 7.417969 2.511719 C 7.417969 2.613281 7.335938 2.695312 7.234375 2.695312 C 7.132812 2.695312 7.050781 2.613281 7.050781 2.511719 Z M 7.242188 1.816406 C 7.140625 1.816406 7.058594 1.734375 7.058594 1.632812 C 7.058594 1.53125 7.140625 1.445312 7.242188 1.445312 C 7.34375 1.445312 7.425781 1.53125 7.425781 1.632812 C 7.425781 1.734375 7.34375 1.816406 7.242188 1.816406 Z M 7.648438 5.75 C 7.546875 5.75 7.464844 5.667969 7.464844 5.566406 C 7.464844 5.464844 7.546875 5.382812 7.648438 5.382812 C 7.75 5.382812 7.832031 5.464844 7.832031 5.566406 C 7.832031 5.667969 7.75 5.75 7.648438 5.75 Z M 7.660156 4.863281 C 7.558594 4.863281 7.476562 4.78125 7.476562 4.679688 C 7.476562 4.578125 7.558594 4.496094 7.660156 4.496094 C 7.761719 4.496094 7.84375 4.578125 7.84375 4.679688 C 7.84375 4.78125 7.761719 4.863281 7.660156 4.863281 Z M 7.679688 3.984375 C 7.578125 3.984375 7.492188 3.902344 7.492188 3.800781 C 7.492188 3.695312 7.578125 3.613281 7.679688 3.613281 C 7.78125 3.613281 7.863281 3.695312 7.863281 3.800781 C 7.863281 3.902344 7.78125 3.984375 7.679688 3.984375 Z M 7.480469 2.941406 C 7.480469 2.839844 7.5625 2.757812 7.664062 2.757812 C 7.765625 2.757812 7.847656 2.839844 7.847656 2.941406 C 7.847656 3.042969 7.765625 3.125 7.664062 3.125 C 7.5625 3.125 7.480469 3.042969 7.480469 2.941406 Z M 7.679688 2.253906 C 7.578125 2.253906 7.496094 2.171875 7.496094 2.066406 C 7.496094 1.964844 7.578125 1.882812 7.679688 1.882812 C 7.78125 1.882812 7.863281 1.964844 7.863281 2.066406 C 7.863281 2.171875 7.78125 2.253906 7.679688 2.253906 Z M 8.078125 6.179688 C 7.976562 6.179688 7.894531 6.097656 7.894531 5.996094 C 7.894531 5.894531 7.976562 5.8125 8.078125 5.8125 C 8.179688 5.8125 8.261719 5.894531 8.261719 5.996094 C 8.261719 6.097656 8.179688 6.179688 8.078125 6.179688 Z M 8.097656 5.300781 C 7.996094 5.300781 7.914062 5.21875 7.914062 5.117188 C 7.914062 5.015625 7.996094 4.933594 8.097656 4.933594 C 8.199219 4.933594 8.28125 5.015625 8.28125 5.117188 C 8.28125 5.21875 8.199219 5.300781 8.097656 5.300781 Z M 8.109375 4.414062 C 8.007812 4.414062 7.925781 4.332031 7.925781 4.230469 C 7.925781 4.128906 8.007812 4.046875 8.109375 4.046875 C 8.210938 4.046875 8.292969 4.128906 8.292969 4.230469 C 8.292969 4.332031 8.210938 4.414062 8.109375 4.414062 Z M 8.140625 1.792969 C 8.039062 1.792969 7.957031 1.710938 7.957031 1.609375 C 7.957031 1.507812 8.039062 1.421875 8.140625 1.421875 C 8.242188 1.421875 8.324219 1.507812 8.324219 1.609375 C 8.324219 1.710938 8.242188 1.792969 8.140625 1.792969 Z M 8.527344 5.730469 C 8.425781 5.730469 8.34375 5.648438 8.34375 5.546875 C 8.34375 5.445312 8.425781 5.363281 8.527344 5.363281 C 8.628906 5.363281 8.710938 5.445312 8.710938 5.546875 C 8.710938 5.648438 8.628906 5.730469 8.527344 5.730469 Z M 8.546875 4.851562 C 8.445312 4.851562 8.363281 4.769531 8.363281 4.667969 C 8.363281 4.566406 8.445312 4.484375 8.546875 4.484375 C 8.648438 4.484375 8.730469 4.566406 8.730469 4.667969 C 8.730469 4.769531 8.648438 4.851562 8.546875 4.851562 Z M 8.355469 3.800781 C 8.355469 3.699219 8.4375 3.617188 8.539062 3.617188 C 8.640625 3.617188 8.722656 3.699219 8.722656 3.800781 C 8.722656 3.902344 8.640625 3.984375 8.539062 3.984375 C 8.4375 3.984375 8.355469 3.902344 8.355469 3.800781 Z M 8.550781 3.109375 C 8.449219 3.109375 8.367188 3.027344 8.367188 2.925781 C 8.367188 2.824219 8.449219 2.742188 8.550781 2.742188 C 8.652344 2.742188 8.734375 2.824219 8.734375 2.925781 C 8.734375 3.027344 8.652344 3.109375 8.550781 3.109375 Z M 8.570312 2.222656 C 8.46875 2.222656 8.386719 2.140625 8.386719 2.039062 C 8.386719 1.9375 8.46875 1.851562 8.570312 1.851562 C 8.671875 1.851562 8.753906 1.9375 8.753906 2.039062 C 8.753906 2.140625 8.671875 2.222656 8.570312 2.222656 Z M 8.976562 5.28125 C 8.875 5.28125 8.792969 5.199219 8.792969 5.097656 C 8.792969 4.996094 8.875 4.914062 8.976562 4.914062 C 9.078125 4.914062 9.160156 4.996094 9.160156 5.097656 C 9.160156 5.199219 9.078125 5.28125 8.976562 5.28125 Z M 8.792969 4.238281 C 8.792969 4.136719 8.875 4.054688 8.976562 4.054688 C 9.078125 4.054688 9.160156 4.136719 9.160156 4.238281 C 9.160156 4.339844 9.078125 4.421875 8.976562 4.421875 C 8.875 4.421875 8.792969 4.339844 8.792969 4.238281 Z M 8.984375 3.542969 C 8.882812 3.542969 8.796875 3.460938 8.796875 3.359375 C 8.796875 3.257812 8.882812 3.171875 8.984375 3.171875 C 9.085938 3.171875 9.167969 3.257812 9.167969 3.359375 C 9.167969 3.460938 9.085938 3.542969 8.984375 3.542969 Z M 9.011719 2.648438 C 8.910156 2.648438 8.828125 2.566406 8.828125 2.464844 C 8.828125 2.363281 8.910156 2.28125 9.011719 2.28125 C 9.113281 2.28125 9.195312 2.363281 9.195312 2.464844 C 9.195312 2.566406 9.113281 2.648438 9.011719 2.648438 Z M 9.40625 4.851562 C 9.304688 4.851562 9.222656 4.769531 9.222656 4.667969 C 9.222656 4.566406 9.304688 4.484375 9.40625 4.484375 C 9.507812 4.484375 9.589844 4.566406 9.589844 4.667969 C 9.589844 4.769531 9.507812 4.851562 9.40625 4.851562 Z M 9.417969 3.980469 C 9.316406 3.980469 9.234375 3.894531 9.234375 3.792969 C 9.234375 3.691406 9.316406 3.609375 9.417969 3.609375 C 9.523438 3.609375 9.605469 3.691406 9.605469 3.792969 C 9.605469 3.894531 9.523438 3.980469 9.417969 3.980469 Z M 9.441406 3.082031 C 9.339844 3.082031 9.257812 3 9.257812 2.898438 C 9.257812 2.796875 9.339844 2.714844 9.441406 2.714844 C 9.546875 2.714844 9.628906 2.796875 9.628906 2.898438 C 9.628906 3 9.546875 3.082031 9.441406 3.082031 Z M 3.296875 8.226562 C 2.941406 8.554688 1.25 10.234375 1.171875 10.335938 C 1.082031 10.441406 0.921875 10.832031 0.757812 10.84375 C 0.597656 10.855469 0 10.488281 0 10.085938 C 0 9.898438 0.324219 9.816406 0.519531 9.675781 C 0.582031 9.628906 2.347656 7.886719 2.636719 7.601562 C 2.742188 7.773438 2.941406 8.003906 3.296875 8.226562 Z M 9.632812 9.363281 C 9.632812 10.144531 9.011719 10.789062 8.226562 10.816406 C 7.445312 10.839844 6.78125 10.242188 6.726562 9.460938 C 6.675781 8.679688 7.25 7.996094 8.03125 7.917969 C 7.957031 8.0625 7.789062 8.304688 7.429688 8.652344 C 7.074219 8.996094 6.886719 9.390625 6.90625 9.761719 C 6.921875 10.035156 7.054688 10.292969 7.273438 10.460938 C 7.476562 10.621094 7.753906 10.707031 8.03125 10.707031 C 8.152344 10.707031 8.277344 10.6875 8.394531 10.652344 C 8.695312 10.5625 8.910156 10.363281 9 10.09375 C 9.054688 9.933594 9.105469 9.75 9.152344 9.574219 C 9.242188 9.253906 9.339844 8.898438 9.460938 8.675781 C 9.574219 8.886719 9.632812 9.125 9.632812 9.363281 Z M 8.179688 7.910156 C 8.660156 7.910156 9.113281 8.148438 9.382812 8.550781 C 9.238281 8.777344 9.136719 9.152344 9.027344 9.539062 C 8.980469 9.714844 8.929688 9.894531 8.875 10.054688 C 8.800781 10.28125 8.617188 10.449219 8.355469 10.53125 C 8.019531 10.632812 7.613281 10.5625 7.351562 10.359375 C 7.164062 10.214844 7.046875 9.992188 7.039062 9.753906 C 7.019531 9.421875 7.191406 9.0625 7.519531 8.746094 C 7.941406 8.339844 8.109375 8.066406 8.179688 7.910156 Z M 8.179688 7.910156 "/>
</svg>
