<?xml version="1.0" encoding="UTF-8" standalone="no"?>
<!-- Created with Inkscape (http://www.inkscape.org/) -->

<svg
   xmlns:dc="http://purl.org/dc/elements/1.1/"
   xmlns:cc="http://creativecommons.org/ns#"
   xmlns:rdf="http://www.w3.org/1999/02/22-rdf-syntax-ns#"
   xmlns:svg="http://www.w3.org/2000/svg"
   xmlns="http://www.w3.org/2000/svg"
   xmlns:xlink="http://www.w3.org/1999/xlink"
   xmlns:sodipodi="http://sodipodi.sourceforge.net/DTD/sodipodi-0.dtd"
   xmlns:inkscape="http://www.inkscape.org/namespaces/inkscape"
   width="30px"
   height="30px"
   version="1.1"
   id="svg8"
   inkscape:version="0.92.4 5da689c313, 2019-01-14"
   sodipodi:docname="container.svg">
  <defs
     id="defs2" />
  <sodipodi:namedview
     id="base"
     pagecolor="#ffffff"
     bordercolor="#666666"
     borderopacity="1.0"
     inkscape:pageopacity="0.0"
     inkscape:pageshadow="2"
     inkscape:zoom="13.049334"
     inkscape:cx="18.679046"
     inkscape:cy="12.165829"
     inkscape:document-units="px"
     inkscape:current-layer="layer1"
     showgrid="false"
     inkscape:snap-page="false"
     units="px"
     inkscape:window-width="1884"
     inkscape:window-height="1061"
     inkscape:window-x="0"
     inkscape:window-y="0"
     inkscape:window-maximized="1"
     fit-margin-top="0"
     fit-margin-left="0"
     fit-margin-right="0"
     fit-margin-bottom="0" />
  <metadata
     id="metadata5">
    <rdf:RDF>
      <cc:Work
         rdf:about="">
        <dc:format>image/svg+xml</dc:format>
        <dc:type
           rdf:resource="http://purl.org/dc/dcmitype/StillImage" />
        <dc:title></dc:title>
      </cc:Work>
    </rdf:RDF>
  </metadata>
    <circle
       style="color:#000000;clip-rule:nonzero;display:inline;overflow:visible;visibility:visible;opacity:1;isolation:auto;mix-blend-mode:normal;color-interpolation:sRGB;color-interpolation-filters:linearRGB;solid-color:#000000;solid-opacity:1;vector-effect:none;fill:#00a757;fill-opacity:1;fill-rule:evenodd;stroke:#ffffff;stroke-width:1;stroke-linecap:butt;stroke-linejoin:miter;stroke-miterlimit:4;stroke-dasharray:none;stroke-dashoffset:0;stroke-opacity:1;marker:none;color-rendering:auto;image-rendering:auto;shape-rendering:auto;text-rendering:auto;enable-background:accumulate"
       id="path815"
       cx="15"
       cy="15"
       r="14.5" />
<g transform="translate(6.5,9.0)"><path fill-rule="nonzero" fill="#FFFFFF" fill-opacity="1" d="M 16.859375 8.175781 L 16.421875 8.175781 C 16.347656 9.910156 14.949219 11.308594 13.214844 11.382812 L 13.214844 11.988281 L 12.882812 11.988281 L 12.882812 11.382812 C 11.164062 11.285156 9.789062 9.898438 9.714844 8.175781 L 9.234375 8.175781 L 9.234375 8.007812 L 9.710938 8.007812 C 9.722656 6.230469 11.125 4.773438 12.882812 4.679688 L 12.882812 4.195312 L 13.214844 4.195312 L 13.214844 4.675781 C 14.988281 4.753906 16.414062 6.214844 16.425781 8.007812 L 16.859375 8.007812 Z M 13.214844 5.777344 C 14.394531 5.851562 15.316406 6.824219 15.328125 8.007812 L 16.050781 8.007812 C 16.039062 6.421875 14.785156 5.125 13.214844 5.050781 Z M 10.085938 8.007812 L 10.808594 8.007812 C 10.820312 6.84375 11.71875 5.875 12.882812 5.78125 L 12.882812 5.050781 C 11.328125 5.148438 10.09375 6.4375 10.085938 8.007812 Z M 12.882812 10.28125 C 11.765625 10.1875 10.886719 9.292969 10.816406 8.175781 L 10.085938 8.175781 C 10.160156 9.691406 11.371094 10.914062 12.882812 11.007812 Z M 14.441406 8.03125 C 14.441406 7.269531 13.828125 6.65625 13.066406 6.65625 C 12.308594 6.65625 11.695312 7.269531 11.695312 8.03125 C 11.695312 8.789062 12.308594 9.402344 13.066406 9.402344 C 13.828125 9.402344 14.441406 8.789062 14.441406 8.03125 Z M 16.046875 8.175781 L 15.320312 8.175781 C 15.25 9.308594 14.347656 10.210938 13.214844 10.28125 L 13.214844 11.011719 C 14.742188 10.9375 15.976562 9.703125 16.046875 8.175781 Z M 13.066406 7.097656 C 12.574219 7.097656 12.175781 7.496094 12.175781 7.988281 C 12.175781 8.480469 12.574219 8.878906 13.066406 8.878906 C 13.558594 8.878906 13.960938 8.480469 13.960938 7.988281 C 13.960938 7.496094 13.558594 7.097656 13.066406 7.097656 Z M 16.957031 1.078125 C 16.953125 0.953125 16.851562 0.851562 16.726562 0.851562 L 16.15625 0.851562 C 16.15625 0.851562 16.15625 0.847656 16.15625 0.847656 L 16.15625 0.304688 C 16.15625 0.152344 16.046875 0.015625 15.894531 0 C 15.8125 -0.0078125 15.730469 0.0195312 15.667969 0.0742188 C 15.609375 0.128906 15.574219 0.207031 15.574219 0.289062 L 15.574219 0.847656 C 15.574219 0.847656 15.574219 0.847656 15.570312 0.847656 L 4.578125 0.816406 C 4.472656 0.863281 4.378906 0.90625 4.273438 0.957031 L 4.082031 1.183594 C 4.082031 1.183594 3.675781 1.609375 3.675781 1.609375 C 3.675781 1.609375 1.835938 1.585938 1.003906 1.601562 C 0.773438 1.605469 0.574219 1.765625 0.523438 1.988281 L 0.0117188 4.105469 C -0.0195312 4.242188 0.0117188 4.386719 0.0976562 4.496094 C 0.183594 4.609375 0.316406 4.671875 0.460938 4.675781 L 2.839844 4.6875 C 2.890625 4.679688 2.941406 4.671875 2.992188 4.664062 L 4.488281 4.167969 C 4.527344 4.1875 5.1875 4.515625 5.902344 4.417969 C 6.832031 4.292969 6.75 3.367188 6.796875 3.375 C 6.949219 3.390625 7.183594 3.351562 7.183594 3.351562 L 8.285156 3.335938 C 8.386719 3.335938 8.484375 3.296875 8.5625 3.230469 L 9.371094 2.539062 C 9.371094 2.539062 9.375 2.539062 9.375 2.539062 L 16.769531 2.464844 C 16.832031 2.464844 16.890625 2.4375 16.933594 2.390625 C 16.980469 2.347656 17.003906 2.285156 17 2.222656 Z M 5.554688 3.945312 C 5.1875 3.945312 4.886719 3.683594 4.882812 3.359375 L 6.230469 3.351562 C 6.230469 3.679688 5.925781 3.945312 5.554688 3.945312 Z M 16.542969 1.820312 L 9.257812 1.820312 L 9.507812 1.492188 L 16.542969 1.53125 Z M 16.542969 1.820312 "/>
</g>
</svg>
