<?xml version="1.0" encoding="UTF-8" standalone="no"?>
<!-- Created with Inkscape (http://www.inkscape.org/) -->

<svg
   xmlns:dc="http://purl.org/dc/elements/1.1/"
   xmlns:cc="http://creativecommons.org/ns#"
   xmlns:rdf="http://www.w3.org/1999/02/22-rdf-syntax-ns#"
   xmlns:svg="http://www.w3.org/2000/svg"
   xmlns="http://www.w3.org/2000/svg"
   xmlns:xlink="http://www.w3.org/1999/xlink"
   xmlns:sodipodi="http://sodipodi.sourceforge.net/DTD/sodipodi-0.dtd"
   xmlns:inkscape="http://www.inkscape.org/namespaces/inkscape"
   width="30px"
   height="30px"
   version="1.1"
   id="svg8"
   inkscape:version="0.92.4 5da689c313, 2019-01-14"
   sodipodi:docname="container.svg">
  <defs
     id="defs2" />
  <sodipodi:namedview
     id="base"
     pagecolor="#ffffff"
     bordercolor="#666666"
     borderopacity="1.0"
     inkscape:pageopacity="0.0"
     inkscape:pageshadow="2"
     inkscape:zoom="13.049334"
     inkscape:cx="18.679046"
     inkscape:cy="12.165829"
     inkscape:document-units="px"
     inkscape:current-layer="layer1"
     showgrid="false"
     inkscape:snap-page="false"
     units="px"
     inkscape:window-width="1884"
     inkscape:window-height="1061"
     inkscape:window-x="0"
     inkscape:window-y="0"
     inkscape:window-maximized="1"
     fit-margin-top="0"
     fit-margin-left="0"
     fit-margin-right="0"
     fit-margin-bottom="0" />
  <metadata
     id="metadata5">
    <rdf:RDF>
      <cc:Work
         rdf:about="">
        <dc:format>image/svg+xml</dc:format>
        <dc:type
           rdf:resource="http://purl.org/dc/dcmitype/StillImage" />
        <dc:title></dc:title>
      </cc:Work>
    </rdf:RDF>
  </metadata>
    <circle
       style="color:#000000;clip-rule:nonzero;display:inline;overflow:visible;visibility:visible;opacity:1;isolation:auto;mix-blend-mode:normal;color-interpolation:sRGB;color-interpolation-filters:linearRGB;solid-color:#000000;solid-opacity:1;vector-effect:none;fill:#00a757;fill-opacity:1;fill-rule:evenodd;stroke:#ffffff;stroke-width:1;stroke-linecap:butt;stroke-linejoin:miter;stroke-miterlimit:4;stroke-dasharray:none;stroke-dashoffset:0;stroke-opacity:1;marker:none;color-rendering:auto;image-rendering:auto;shape-rendering:auto;text-rendering:auto;enable-background:accumulate"
       id="path815"
       cx="15"
       cy="15"
       r="14.5" />
<g transform="translate(6.5,9.5)"><path fill-rule="nonzero" fill="#FFFFFF" fill-opacity="1" d="M 8.484375 5.363281 C 7.644531 3.121094 6.664062 2.675781 6.320312 2.425781 C 6.222656 2.417969 8.132812 0 8.496094 0 C 8.863281 0 10.734375 2.394531 10.683594 2.425781 C 10.59375 2.484375 9.066406 3.429688 8.484375 5.363281 Z M 8.484375 5.363281 "/>
<path fill-rule="nonzero" fill="#FFFFFF" fill-opacity="1" d="M 3.472656 1.980469 C 3.480469 1.972656 5.597656 2.050781 7.222656 4.476562 C 8.546875 6.453125 8.359375 9.929688 8.246094 9.988281 C 8.121094 10.058594 5.421875 9.683594 4.078125 7.074219 C 3.039062 5.054688 3.421875 2.085938 3.472656 1.980469 Z M 3.472656 1.980469 "/>
<path fill-rule="nonzero" fill="#FFFFFF" fill-opacity="1" d="M 13.53125 1.96875 C 13.527344 1.960938 11.40625 2.042969 9.785156 4.464844 C 8.460938 6.441406 8.648438 9.917969 8.757812 9.976562 C 8.886719 10.046875 11.585938 9.671875 12.929688 7.0625 C 13.96875 5.042969 13.582031 2.074219 13.53125 1.96875 Z M 13.53125 1.96875 "/>
<path fill-rule="nonzero" fill="#FFFFFF" fill-opacity="1" d="M 0 5.765625 C 0 5.765625 3.007812 11.960938 7.1875 10.34375 C 7.332031 10.285156 4.125 10.25 2.871094 5.285156 C 2.835938 5.148438 1.511719 5.164062 1.152344 5.238281 C 0.308594 5.421875 0 5.765625 0 5.765625 Z M 0 5.765625 "/>
<path fill-rule="nonzero" fill="#FFFFFF" fill-opacity="1" d="M 17 5.765625 C 17 5.765625 13.992188 11.960938 9.8125 10.34375 C 9.667969 10.285156 12.875 10.25 14.128906 5.285156 C 14.164062 5.148438 15.488281 5.164062 15.847656 5.238281 C 16.691406 5.421875 17 5.765625 17 5.765625 Z M 17 5.765625 "/>
</g>
</svg>
