<?xml version="1.0" encoding="UTF-8" standalone="no"?>
<!-- Created with Inkscape (http://www.inkscape.org/) -->

<svg
   xmlns:dc="http://purl.org/dc/elements/1.1/"
   xmlns:cc="http://creativecommons.org/ns#"
   xmlns:rdf="http://www.w3.org/1999/02/22-rdf-syntax-ns#"
   xmlns:svg="http://www.w3.org/2000/svg"
   xmlns="http://www.w3.org/2000/svg"
   xmlns:xlink="http://www.w3.org/1999/xlink"
   xmlns:sodipodi="http://sodipodi.sourceforge.net/DTD/sodipodi-0.dtd"
   xmlns:inkscape="http://www.inkscape.org/namespaces/inkscape"
   width="30px"
   height="30px"
   version="1.1"
   id="svg8"
   inkscape:version="0.92.4 5da689c313, 2019-01-14"
   sodipodi:docname="container.svg">
  <defs
     id="defs2" />
  <sodipodi:namedview
     id="base"
     pagecolor="#ffffff"
     bordercolor="#666666"
     borderopacity="1.0"
     inkscape:pageopacity="0.0"
     inkscape:pageshadow="2"
     inkscape:zoom="13.049334"
     inkscape:cx="18.679046"
     inkscape:cy="12.165829"
     inkscape:document-units="px"
     inkscape:current-layer="layer1"
     showgrid="false"
     inkscape:snap-page="false"
     units="px"
     inkscape:window-width="1884"
     inkscape:window-height="1061"
     inkscape:window-x="0"
     inkscape:window-y="0"
     inkscape:window-maximized="1"
     fit-margin-top="0"
     fit-margin-left="0"
     fit-margin-right="0"
     fit-margin-bottom="0" />
  <metadata
     id="metadata5">
    <rdf:RDF>
      <cc:Work
         rdf:about="">
        <dc:format>image/svg+xml</dc:format>
        <dc:type
           rdf:resource="http://purl.org/dc/dcmitype/StillImage" />
        <dc:title></dc:title>
      </cc:Work>
    </rdf:RDF>
  </metadata>
    <circle
       style="color:#000000;clip-rule:nonzero;display:inline;overflow:visible;visibility:visible;opacity:1;isolation:auto;mix-blend-mode:normal;color-interpolation:sRGB;color-interpolation-filters:linearRGB;solid-color:#000000;solid-opacity:1;vector-effect:none;fill:#ffffff;fill-opacity:1;fill-rule:evenodd;stroke:#00a757;stroke-width:1;stroke-linecap:butt;stroke-linejoin:miter;stroke-miterlimit:4;stroke-dasharray:none;stroke-dashoffset:0;stroke-opacity:1;marker:none;color-rendering:auto;image-rendering:auto;shape-rendering:auto;text-rendering:auto;enable-background:accumulate"
       id="path815"
       cx="15"
       cy="15"
       r="14.5" />
<g transform="translate(6.5,7.0)"><path fill-rule="nonzero" fill="rgb(30%,30%,30%)" fill-opacity="1" d="M 15.960938 12.484375 C 15.9375 12.472656 15.707031 12.675781 15.261719 12.726562 C 15.613281 12.941406 15.6875 13.136719 15.699219 13.339844 C 15.742188 13.925781 14.859375 14.332031 14.402344 14.332031 L 12.679688 14.332031 C 12.25 14.332031 11.878906 14 11.859375 13.566406 C 11.855469 13.542969 11.855469 13.523438 11.855469 13.496094 L 11.855469 13.460938 C 11.855469 13.351562 11.898438 13.175781 11.96875 12.976562 L 11.125 12.976562 C 11.125 12.976562 11.238281 13.222656 11.234375 13.414062 C 11.234375 13.605469 11.238281 13.433594 11.238281 13.445312 C 11.230469 13.867188 10.863281 14.246094 10.390625 14.324219 L 4.871094 14.277344 C 4.015625 13.941406 4.453125 13.296875 4.625 13.089844 C 4.632812 13.078125 4.636719 13.0625 4.628906 13.046875 C 4.621094 13.035156 4.609375 13.027344 4.59375 13.027344 L 2.878906 13.050781 C 2.878906 13.050781 2.851562 13.386719 2.175781 13.765625 C 1.632812 14.070312 1.039062 14.269531 0.425781 14.359375 C -0.140625 14.441406 -0.0195312 14.984375 0.101562 15.058594 C 1.828125 16.109375 14.429688 15.558594 14.710938 15.519531 C 15.296875 15.429688 15.921875 15.261719 16.300781 15.046875 C 17.855469 14.15625 16.398438 12.703125 15.960938 12.484375 Z M 15.960938 12.484375 "/>
<path fill-rule="nonzero" fill="rgb(30%,30%,30%)" fill-opacity="1" d="M 16.0625 10.574219 C 15.746094 10.1875 15.175781 9.910156 14.492188 9.824219 C 14.160156 9.78125 13.890625 9.738281 13.664062 9.6875 L 13.5625 9.898438 C 13.558594 9.914062 13.550781 9.925781 13.539062 9.9375 C 13.558594 9.984375 13.5625 10.03125 13.554688 10.078125 C 13.535156 10.238281 13.394531 10.351562 13.234375 10.34375 C 13.074219 10.332031 12.949219 10.199219 12.949219 10.039062 C 12.949219 9.914062 13.027344 9.800781 13.144531 9.753906 C 13.148438 9.738281 13.15625 9.722656 13.160156 9.710938 L 13.226562 9.574219 C 13.089844 9.535156 12.957031 9.480469 12.828125 9.414062 C 12.796875 9.394531 12.75 9.371094 12.695312 9.339844 L 12.542969 9.601562 C 12.535156 9.613281 12.53125 9.625 12.523438 9.632812 C 12.535156 9.675781 12.539062 9.722656 12.527344 9.769531 C 12.503906 9.914062 12.375 10.019531 12.230469 10.019531 C 12.082031 10.019531 11.953125 9.910156 11.929688 9.761719 C 11.90625 9.613281 11.996094 9.472656 12.136719 9.425781 C 12.144531 9.410156 12.148438 9.394531 12.15625 9.378906 L 12.308594 9.121094 C 12.152344 9.035156 11.976562 8.929688 11.792969 8.8125 C 11.789062 8.824219 11.78125 8.832031 11.777344 8.839844 L 11.5625 9.121094 C 11.5625 9.128906 11.5625 9.140625 11.5625 9.148438 C 11.5625 9.3125 11.4375 9.445312 11.277344 9.453125 C 11.117188 9.460938 10.976562 9.34375 10.957031 9.183594 C 10.941406 9.023438 11.050781 8.878906 11.210938 8.851562 L 11.421875 8.570312 C 11.265625 8.464844 11.109375 8.351562 10.957031 8.234375 L 10.757812 8.433594 C 10.738281 8.449219 10.71875 8.464844 10.695312 8.476562 C 10.71875 8.601562 10.664062 8.726562 10.554688 8.789062 C 10.445312 8.855469 10.308594 8.847656 10.207031 8.769531 C 10.109375 8.691406 10.070312 8.558594 10.109375 8.4375 C 10.148438 8.316406 10.257812 8.234375 10.382812 8.226562 C 10.390625 8.1875 10.414062 8.148438 10.441406 8.117188 L 10.609375 7.953125 C 10.492188 7.851562 10.386719 7.75 10.289062 7.644531 C 10.289062 7.644531 10.289062 7.648438 10.289062 7.648438 L 10.003906 7.933594 C 9.992188 7.941406 9.984375 7.949219 9.972656 7.957031 C 9.960938 8.121094 9.820312 8.25 9.65625 8.242188 C 9.492188 8.234375 9.363281 8.09375 9.367188 7.929688 C 9.371094 7.765625 9.503906 7.632812 9.667969 7.632812 C 9.671875 7.632812 9.671875 7.632812 9.675781 7.632812 C 9.679688 7.628906 9.683594 7.625 9.6875 7.621094 L 9.972656 7.332031 C 9.984375 7.324219 9.992188 7.316406 10.003906 7.308594 C 9.929688 7.21875 9.855469 7.125 9.78125 7.023438 C 9.777344 7.027344 9.769531 7.035156 9.761719 7.039062 L 9.410156 7.238281 C 9.394531 7.25 9.375 7.257812 9.351562 7.265625 C 9.339844 7.390625 9.253906 7.496094 9.132812 7.53125 C 9.011719 7.5625 8.882812 7.519531 8.804688 7.417969 C 8.730469 7.320312 8.722656 7.183594 8.792969 7.074219 C 8.859375 6.96875 8.984375 6.914062 9.109375 6.9375 C 9.125 6.902344 9.15625 6.875 9.1875 6.855469 L 9.523438 6.664062 C 9.421875 6.515625 9.316406 6.359375 9.214844 6.203125 C 9.203125 6.21875 9.1875 6.234375 9.167969 6.242188 L 8.820312 6.445312 C 8.796875 6.457031 8.777344 6.464844 8.753906 6.46875 C 8.722656 6.589844 8.625 6.683594 8.503906 6.703125 C 8.378906 6.722656 8.257812 6.664062 8.195312 6.554688 C 8.128906 6.449219 8.140625 6.3125 8.214844 6.214844 C 8.289062 6.117188 8.417969 6.074219 8.539062 6.109375 C 8.554688 6.089844 8.574219 6.074219 8.597656 6.058594 L 8.945312 5.859375 C 8.957031 5.851562 8.972656 5.84375 8.984375 5.839844 C 8.871094 5.652344 8.757812 5.46875 8.652344 5.285156 C 8.640625 5.300781 8.621094 5.316406 8.601562 5.328125 L 8.253906 5.527344 C 8.230469 5.539062 8.210938 5.550781 8.1875 5.554688 C 8.160156 5.675781 8.058594 5.765625 7.9375 5.785156 C 7.8125 5.804688 7.691406 5.746094 7.628906 5.640625 C 7.566406 5.53125 7.574219 5.398438 7.648438 5.300781 C 7.726562 5.199219 7.851562 5.160156 7.972656 5.191406 C 7.988281 5.171875 8.007812 5.15625 8.03125 5.144531 L 8.378906 4.941406 C 8.402344 4.929688 8.421875 4.921875 8.445312 4.917969 C 8.355469 4.75 8.269531 4.589844 8.199219 4.441406 C 8.195312 4.445312 8.191406 4.449219 8.183594 4.449219 L 7.835938 4.652344 C 7.824219 4.660156 7.8125 4.664062 7.804688 4.667969 C 7.753906 4.824219 7.59375 4.910156 7.433594 4.871094 C 7.332031 4.84375 7.25 4.765625 7.222656 4.660156 C 7.191406 4.5625 7.214844 4.460938 7.28125 4.382812 C 7.34375 4.304688 7.445312 4.261719 7.542969 4.273438 C 7.558594 4.273438 7.574219 4.277344 7.589844 4.28125 C 7.597656 4.277344 7.605469 4.273438 7.613281 4.269531 L 7.964844 4.066406 C 7.980469 4.054688 8 4.046875 8.019531 4.042969 C 7.96875 3.917969 7.933594 3.8125 7.917969 3.734375 C 7.777344 2.964844 7.828125 1.683594 7.980469 0.195312 C 8.039062 -0.410156 5.714844 0.519531 3.894531 1.207031 C 3.601562 1.316406 2.683594 1.226562 2.683594 1.226562 C 2.683594 1.226562 3.089844 2.917969 2.90625 4.21875 C 2.683594 5.773438 1.734375 7.957031 1.671875 8.785156 C 1.589844 9.898438 2.035156 10.304688 2.054688 10.464844 C 2.078125 10.625 2.175781 12.707031 2.601562 12.828125 L 5.480469 12.789062 C 5.554688 12.789062 5.613281 12.730469 5.617188 12.65625 C 5.621094 12.277344 5.636719 11.199219 5.652344 11.132812 C 5.675781 11.050781 5.769531 10.933594 6.242188 10.988281 C 7.777344 11.171875 9.007812 12.164062 9.816406 12.445312 C 10.625 12.726562 10.917969 12.726562 11.28125 12.726562 C 11.644531 12.726562 14.605469 12.667969 15.335938 12.484375 C 15.417969 12.464844 15.835938 12.285156 16.078125 11.980469 C 16.320312 11.675781 16.40625 10.988281 16.0625 10.574219 Z M 7.160156 0.519531 C 7.289062 0.507812 7.410156 0.574219 7.464844 0.691406 C 7.519531 0.808594 7.496094 0.945312 7.40625 1.035156 C 7.3125 1.128906 7.175781 1.152344 7.058594 1.097656 C 6.945312 1.042969 6.875 0.917969 6.886719 0.792969 C 6.902344 0.648438 7.015625 0.535156 7.160156 0.519531 Z M 7.132812 1.464844 C 7.261719 1.449219 7.382812 1.519531 7.4375 1.636719 C 7.492188 1.75 7.46875 1.890625 7.378906 1.980469 C 7.289062 2.070312 7.148438 2.09375 7.03125 2.039062 C 6.917969 1.984375 6.847656 1.863281 6.859375 1.734375 C 6.875 1.589844 6.988281 1.476562 7.132812 1.464844 Z M 7.160156 2.433594 C 7.289062 2.421875 7.410156 2.488281 7.464844 2.605469 C 7.519531 2.722656 7.496094 2.859375 7.40625 2.949219 C 7.3125 3.042969 7.175781 3.066406 7.058594 3.011719 C 6.945312 2.953125 6.875 2.832031 6.886719 2.703125 C 6.902344 2.5625 7.015625 2.449219 7.160156 2.433594 Z M 6.96875 3.609375 C 6.957031 3.484375 7.023438 3.359375 7.140625 3.304688 C 7.257812 3.25 7.394531 3.273438 7.484375 3.367188 C 7.578125 3.457031 7.601562 3.59375 7.546875 3.710938 C 7.492188 3.828125 7.367188 3.894531 7.238281 3.882812 C 7.097656 3.867188 6.984375 3.753906 6.96875 3.609375 Z M 6.96875 3.609375 "/>
</g>
</svg>
