<?xml version="1.0" encoding="UTF-8" standalone="no"?>
<!-- Created with Inkscape (http://www.inkscape.org/) -->

<svg
   xmlns:dc="http://purl.org/dc/elements/1.1/"
   xmlns:cc="http://creativecommons.org/ns#"
   xmlns:rdf="http://www.w3.org/1999/02/22-rdf-syntax-ns#"
   xmlns:svg="http://www.w3.org/2000/svg"
   xmlns="http://www.w3.org/2000/svg"
   xmlns:xlink="http://www.w3.org/1999/xlink"
   xmlns:sodipodi="http://sodipodi.sourceforge.net/DTD/sodipodi-0.dtd"
   xmlns:inkscape="http://www.inkscape.org/namespaces/inkscape"
   width="30px"
   height="30px"
   version="1.1"
   id="svg8"
   inkscape:version="0.92.4 5da689c313, 2019-01-14"
   sodipodi:docname="container.svg">
  <defs
     id="defs2" />
  <sodipodi:namedview
     id="base"
     pagecolor="#ffffff"
     bordercolor="#666666"
     borderopacity="1.0"
     inkscape:pageopacity="0.0"
     inkscape:pageshadow="2"
     inkscape:zoom="13.049334"
     inkscape:cx="18.679046"
     inkscape:cy="12.165829"
     inkscape:document-units="px"
     inkscape:current-layer="layer1"
     showgrid="false"
     inkscape:snap-page="false"
     units="px"
     inkscape:window-width="1884"
     inkscape:window-height="1061"
     inkscape:window-x="0"
     inkscape:window-y="0"
     inkscape:window-maximized="1"
     fit-margin-top="0"
     fit-margin-left="0"
     fit-margin-right="0"
     fit-margin-bottom="0" />
  <metadata
     id="metadata5">
    <rdf:RDF>
      <cc:Work
         rdf:about="">
        <dc:format>image/svg+xml</dc:format>
        <dc:type
           rdf:resource="http://purl.org/dc/dcmitype/StillImage" />
        <dc:title></dc:title>
      </cc:Work>
    </rdf:RDF>
  </metadata>
    <circle
       style="color:#000000;clip-rule:nonzero;display:inline;overflow:visible;visibility:visible;opacity:1;isolation:auto;mix-blend-mode:normal;color-interpolation:sRGB;color-interpolation-filters:linearRGB;solid-color:#000000;solid-opacity:1;vector-effect:none;fill:#ffffff;fill-opacity:1;fill-rule:evenodd;stroke:#00a757;stroke-width:1;stroke-linecap:butt;stroke-linejoin:miter;stroke-miterlimit:4;stroke-dasharray:none;stroke-dashoffset:0;stroke-opacity:1;marker:none;color-rendering:auto;image-rendering:auto;shape-rendering:auto;text-rendering:auto;enable-background:accumulate"
       id="path815"
       cx="15"
       cy="15"
       r="14.5" />
<g transform="translate(6.5,9.0)"><path fill-rule="nonzero" fill="rgb(30%,30%,30%)" fill-opacity="1" d="M 11.363281 2.972656 C 11.070312 3.605469 11.347656 4.355469 11.980469 4.644531 C 12.617188 4.933594 13.367188 4.65625 13.65625 4.023438 C 13.949219 3.390625 13.671875 2.640625 13.039062 2.347656 C 12.402344 2.058594 11.652344 2.335938 11.363281 2.972656 Z M 11.363281 2.972656 "/>
<path fill-rule="nonzero" fill="rgb(30%,30%,30%)" fill-opacity="1" d="M 16.902344 7.9375 L 16.90625 7.9375 C 16.90625 7.9375 16.015625 5.097656 14.601562 4.140625 C 13.839844 3.625 10.453125 7.570312 10.453125 7.570312 L 10.675781 7.953125 L 5 6.3125 C 5.097656 5.914062 5.140625 5.617188 5.074219 5.539062 C 4.84375 5.269531 4.140625 4.765625 3.375 4.308594 L 4.523438 3.335938 L 6.222656 6.273438 L 6.863281 5.824219 C 6.863281 5.824219 5.429688 0.824219 4.523438 0.976562 C 2.941406 1.242188 1.089844 3.207031 0.871094 3.445312 C 0.546875 3.722656 0.265625 4.53125 0.148438 4.914062 L 0 5.386719 L 3.882812 6.5 L 3.5 8.050781 L 3.25 8.726562 L 4.035156 9.195312 C 4.035156 9.195312 4.105469 9.019531 4.28125 8.53125 C 4.464844 8.019531 4.695312 7.355469 4.867188 6.785156 L 11.941406 8.8125 C 11.820312 9.46875 11.726562 10.417969 11.671875 11.109375 C 11.628906 11.625 11.617188 11.816406 11.617188 11.816406 L 12.523438 11.714844 L 12.578125 10.996094 L 12.914062 9.230469 L 13.816406 9.347656 L 16.808594 10.207031 L 16.867188 9.890625 L 16.90625 9.753906 C 16.910156 9.730469 17.117188 8.46875 16.902344 7.9375 Z M 12.199219 8.058594 C 12.144531 8.082031 12.09375 8.1875 12.046875 8.347656 L 11.085938 8.070312 L 13.617188 6.285156 L 14.253906 7.648438 C 13.367188 7.742188 12.519531 7.910156 12.199219 8.058594 Z M 12.199219 8.058594 "/>
<path fill-rule="nonzero" fill="rgb(30%,30%,30%)" fill-opacity="1" d="M 7.957031 1.261719 C 7.957031 1.960938 7.390625 2.527344 6.691406 2.527344 C 5.996094 2.527344 5.429688 1.960938 5.429688 1.261719 C 5.429688 0.566406 5.996094 0 6.691406 0 C 7.390625 0 7.957031 0.566406 7.957031 1.261719 Z M 7.957031 1.261719 "/>
<path fill-rule="nonzero" fill="rgb(30%,30%,30%)" fill-opacity="1" d="M 6.222656 11.335938 L 8.222656 8.738281 L 9.796875 11.335938 Z M 6.222656 11.335938 "/>
</g>
</svg>
