<?xml version="1.0" encoding="UTF-8"?>
<svg xmlns="http://www.w3.org/2000/svg" xmlns:xlink="http://www.w3.org/1999/xlink" width="11" height="10.950157" viewBox="0 0 11 10.950157">
<path fill-rule="nonzero" fill="rgb(30%,30%,30%)" fill-opacity="1" d="M 6.949219 1.4375 C 6.992188 1.464844 7.035156 1.488281 7.066406 1.507812 C 7.082031 1.515625 7.09375 1.523438 7.105469 1.53125 L 8.667969 1.609375 L 8.753906 1.578125 C 8.8125 1.535156 8.929688 1.441406 9 1.347656 L 8.992188 1.164062 C 7.941406 0.152344 6.222656 0.0117188 6.074219 0 C 6.007812 0.015625 5.949219 0.0351562 5.921875 0.0507812 L 5.796875 0.316406 C 5.785156 0.355469 5.773438 0.394531 5.765625 0.433594 L 6.789062 1.34375 C 6.808594 1.351562 6.878906 1.394531 6.949219 1.4375 Z M 6.949219 1.4375 "/>
<path fill-rule="nonzero" fill="rgb(30%,30%,30%)" fill-opacity="1" d="M 7.898438 5.515625 L 7.910156 5.515625 L 9.417969 5.558594 C 9.519531 5.328125 10.074219 4.085938 10.140625 3.941406 C 10.136719 3.894531 10.125 3.71875 10.121094 3.628906 C 10.042969 3.492188 9.042969 2.050781 8.886719 1.847656 L 7.078125 1.722656 C 7 1.886719 6.675781 2.574219 6.5 2.957031 L 6.5 3.492188 L 7.875 5.488281 Z M 7.898438 5.515625 "/>
<path fill-rule="nonzero" fill="rgb(30%,30%,30%)" fill-opacity="1" d="M 0.660156 3.613281 C 0.714844 3.613281 0.816406 3.617188 0.898438 3.632812 C 1.257812 3.378906 1.878906 2.976562 2.136719 2.8125 C 2.179688 2.769531 2.21875 2.726562 2.253906 2.679688 C 2.285156 2.621094 2.660156 1.894531 2.796875 1.394531 C 2.824219 1.285156 2.777344 1.167969 2.648438 1.042969 C 2.636719 1.035156 2.621094 1.027344 2.609375 1.019531 L 2.339844 1.003906 C 2.074219 1.183594 1.601562 1.527344 1.292969 1.878906 C 0.964844 2.253906 0.636719 2.898438 0.5 3.175781 L 0.582031 3.488281 Z M 0.660156 3.613281 "/>
<path fill-rule="nonzero" fill="rgb(30%,30%,30%)" fill-opacity="1" d="M 2.972656 0.917969 C 3.023438 0.921875 3.074219 0.929688 3.121094 0.9375 C 3.125 0.9375 3.125 0.9375 3.128906 0.9375 C 3.339844 0.804688 3.902344 0.574219 4.214844 0.457031 C 4.511719 0.347656 5.351562 0.289062 5.574219 0.292969 C 5.628906 0.257812 5.667969 0.132812 5.683594 0.03125 C 5.300781 0.0273438 4.316406 0.0351562 3.933594 0.15625 C 3.304688 0.355469 2.867188 0.628906 2.644531 0.785156 L 2.65625 0.820312 C 2.757812 0.859375 2.863281 0.894531 2.972656 0.917969 Z M 2.972656 0.917969 "/>
<path fill-rule="nonzero" fill="rgb(30%,30%,30%)" fill-opacity="1" d="M 2.203125 2.996094 C 1.902344 3.230469 1.214844 3.675781 0.921875 3.863281 C 0.871094 3.921875 0.8125 3.992188 0.777344 4.035156 C 0.746094 4.140625 0.699219 4.300781 0.65625 4.496094 C 0.546875 4.988281 0.59375 5.648438 0.621094 6.042969 C 0.625 6.074219 0.625 6.101562 0.628906 6.125 C 0.640625 6.1875 0.648438 6.242188 0.65625 6.277344 L 0.832031 6.496094 C 0.984375 6.605469 1.34375 6.941406 1.492188 7.085938 C 1.613281 7.199219 1.734375 7.316406 1.828125 7.410156 C 1.894531 7.476562 1.9375 7.515625 1.960938 7.542969 L 2.304688 7.546875 C 2.355469 7.511719 2.417969 7.472656 2.480469 7.429688 L 3.46875 6.738281 L 3.539062 6.566406 L 3.574219 4.03125 C 3.570312 4.023438 3.566406 4.015625 3.5625 4.011719 L 2.378906 3.019531 C 2.320312 3.007812 2.261719 3 2.203125 2.996094 Z M 2.203125 2.996094 "/>
<path fill-rule="nonzero" fill="rgb(30%,30%,30%)" fill-opacity="1" d="M 3.878906 3.8125 C 3.894531 3.8125 3.90625 3.8125 3.921875 3.816406 L 6.183594 3.21875 L 6.804688 1.75 C 6.789062 1.683594 6.769531 1.621094 6.746094 1.5625 L 5.515625 0.53125 L 5.511719 0.53125 C 5.242188 0.550781 4.628906 0.601562 4.441406 0.632812 C 4.320312 0.648438 3.96875 0.789062 3.476562 1.007812 C 3.394531 1.046875 3.328125 1.078125 3.285156 1.097656 L 3.132812 1.167969 L 3.0625 1.324219 C 3.007812 1.535156 2.769531 2.199219 2.5 2.640625 C 2.539062 2.738281 2.578125 2.859375 2.601562 2.9375 C 2.785156 3.074219 2.957031 3.207031 3.105469 3.320312 C 3.382812 3.535156 3.578125 3.691406 3.699219 3.804688 C 3.757812 3.808594 3.820312 3.808594 3.878906 3.8125 Z M 3.878906 3.8125 "/>
<path fill-rule="nonzero" fill="rgb(30%,30%,30%)" fill-opacity="1" d="M 9.171875 1.792969 L 9.148438 1.789062 L 9.15625 1.851562 C 9.214844 1.914062 9.269531 1.992188 9.332031 2.082031 C 9.363281 2.125 9.394531 2.171875 9.425781 2.21875 C 9.707031 2.609375 10.261719 3.449219 10.320312 3.558594 L 10.476562 3.769531 L 10.503906 3.765625 L 10.640625 3.5625 C 10.535156 3.277344 10.332031 2.777344 10.109375 2.414062 C 9.851562 1.992188 9.589844 1.734375 9.410156 1.585938 L 9.128906 1.578125 L 9.148438 1.78125 Z M 9.171875 1.792969 "/>
<path fill-rule="nonzero" fill="rgb(30%,30%,30%)" fill-opacity="1" d="M 0.351562 6.511719 C 0.394531 6.464844 0.449219 6.402344 0.464844 6.378906 C 0.464844 6.375 0.464844 6.371094 0.464844 6.363281 C 0.417969 6.101562 0.320312 5.34375 0.386719 4.921875 C 0.386719 4.914062 0.515625 4.085938 0.605469 3.878906 L 0.382812 3.609375 C 0.359375 3.613281 0.332031 3.617188 0.308594 3.621094 C 0.183594 3.914062 -0.0078125 4.484375 0 5.15625 C 0.0078125 5.761719 0.128906 6.457031 0.167969 6.679688 C 0.238281 6.632812 0.300781 6.578125 0.351562 6.511719 Z M 0.351562 6.511719 "/>
<path fill-rule="nonzero" fill="rgb(30%,30%,30%)" fill-opacity="1" d="M 6.15625 7.492188 L 6.386719 7.265625 L 7.59375 5.664062 L 7.605469 5.546875 L 6.28125 3.511719 L 6.234375 3.488281 L 3.964844 4.089844 C 3.949219 4.109375 3.933594 4.132812 3.917969 4.152344 C 3.894531 4.1875 3.871094 4.222656 3.851562 4.246094 C 3.820312 4.664062 3.769531 5.726562 3.730469 6.613281 L 3.820312 6.699219 Z M 6.15625 7.492188 "/>
<path fill-rule="nonzero" fill="rgb(30%,30%,30%)" fill-opacity="1" d="M 6.34375 9.578125 C 6.398438 9.488281 6.523438 9.277344 6.585938 9.171875 L 6.234375 7.941406 C 6.171875 7.867188 6.097656 7.722656 6.070312 7.664062 L 3.691406 6.96875 L 3.542969 6.976562 C 3.382812 7.066406 3.035156 7.285156 2.585938 7.582031 L 2.40625 7.710938 L 2.273438 7.964844 C 2.296875 8.070312 2.324219 8.171875 2.355469 8.277344 C 2.566406 8.785156 2.679688 9.1875 2.726562 9.390625 L 2.808594 9.527344 C 3.015625 9.691406 3.234375 9.835938 3.464844 9.964844 C 3.882812 10.152344 4.382812 10.273438 4.871094 10.316406 C 4.871094 10.316406 4.902344 10.316406 5.035156 10.261719 L 6.304688 9.601562 Z M 6.34375 9.578125 "/>
<path fill-rule="nonzero" fill="rgb(30%,30%,30%)" fill-opacity="1" d="M 10.195312 7.636719 L 10.191406 7.636719 C 10.164062 7.6875 10.089844 7.800781 9.878906 8.085938 C 9.8125 8.191406 9.746094 8.292969 9.683594 8.382812 C 9.355469 8.867188 9.066406 9.144531 8.882812 9.296875 C 8.777344 9.480469 8.726562 9.625 8.6875 9.746094 C 8.671875 9.789062 8.660156 9.828125 8.644531 9.867188 C 8.644531 9.882812 8.648438 9.898438 8.648438 9.914062 C 8.769531 9.84375 8.949219 9.714844 9.164062 9.523438 C 9.398438 9.316406 9.839844 8.890625 10.144531 8.363281 C 10.367188 7.988281 10.472656 7.765625 10.527344 7.644531 L 10.519531 7.636719 Z M 10.195312 7.636719 "/>
<path fill-rule="nonzero" fill="rgb(30%,30%,30%)" fill-opacity="1" d="M 2.472656 9.273438 C 2.359375 8.984375 2.25 8.605469 2.175781 8.332031 C 2.140625 8.25 2.105469 8.167969 2.070312 8.089844 C 2.007812 7.960938 1.933594 7.835938 1.851562 7.722656 C 1.542969 7.4375 0.992188 6.929688 0.695312 6.628906 C 0.671875 6.621094 0.644531 6.625 0.617188 6.628906 C 0.601562 6.632812 0.589844 6.632812 0.574219 6.636719 C 0.558594 6.636719 0.476562 6.683594 0.402344 6.75 C 0.351562 6.792969 0.277344 6.894531 0.246094 6.933594 C 0.300781 7.191406 0.488281 7.773438 0.894531 8.4375 C 1.175781 8.902344 1.46875 9.210938 1.667969 9.386719 C 1.757812 9.46875 1.851562 9.542969 1.953125 9.613281 L 2.15625 9.589844 L 2.371094 9.523438 C 2.398438 9.449219 2.441406 9.34375 2.472656 9.273438 Z M 2.472656 9.273438 "/>
<path fill-rule="nonzero" fill="rgb(30%,30%,30%)" fill-opacity="1" d="M 10.835938 4.117188 C 10.8125 4.070312 10.773438 4.035156 10.726562 4.015625 L 10.46875 3.996094 C 10.453125 4 10.4375 4.003906 10.425781 4.007812 C 10.316406 4.167969 10.21875 4.339844 10.136719 4.515625 C 9.878906 5.085938 9.777344 5.375 9.761719 5.4375 C 9.800781 5.648438 9.839844 5.808594 9.875 5.949219 C 9.898438 6.0625 9.921875 6.160156 9.941406 6.257812 C 9.964844 6.335938 10.144531 7.085938 10.179688 7.355469 L 10.230469 7.382812 C 10.292969 7.386719 10.359375 7.378906 10.421875 7.371094 L 10.722656 7.183594 C 10.730469 7.175781 10.734375 7.167969 10.742188 7.15625 C 10.914062 6.914062 10.945312 6.769531 10.976562 6.574219 C 11.015625 5.96875 11.03125 4.519531 10.835938 4.117188 Z M 10.835938 4.117188 "/>
<path fill-rule="nonzero" fill="rgb(30%,30%,30%)" fill-opacity="1" d="M 9.730469 7.976562 C 9.835938 7.8125 9.921875 7.675781 9.976562 7.589844 L 9.988281 7.429688 C 9.960938 7.363281 9.929688 7.199219 9.863281 6.871094 C 9.8125 6.601562 9.753906 6.300781 9.710938 6.183594 C 9.675781 6.101562 9.632812 6.019531 9.582031 5.945312 C 9.523438 5.886719 9.460938 5.828125 9.414062 5.785156 L 7.902344 5.703125 L 7.890625 5.703125 L 7.671875 5.867188 L 6.414062 7.542969 C 6.394531 7.621094 6.394531 7.707031 6.40625 7.789062 C 6.410156 7.808594 6.414062 7.824219 6.414062 7.839844 L 6.894531 9.261719 L 6.949219 9.3125 L 8.75 9.136719 Z M 9.730469 7.976562 "/>
<path fill-rule="nonzero" fill="rgb(30%,30%,30%)" fill-opacity="1" d="M 4.667969 10.550781 C 3.84375 10.402344 3.3125 10.136719 3.011719 9.941406 C 2.925781 9.886719 2.84375 9.828125 2.769531 9.761719 L 2.519531 9.71875 L 2.257812 9.871094 C 2.382812 9.988281 2.617188 10.191406 2.890625 10.359375 C 3.015625 10.4375 3.148438 10.496094 3.289062 10.546875 C 3.746094 10.699219 4.582031 10.832031 4.972656 10.890625 L 4.992188 10.785156 C 4.980469 10.765625 4.96875 10.746094 4.953125 10.730469 C 4.878906 10.679688 4.757812 10.605469 4.667969 10.550781 Z M 4.667969 10.550781 "/>
<path fill-rule="nonzero" fill="rgb(30%,30%,30%)" fill-opacity="1" d="M 6.789062 9.570312 L 6.664062 9.621094 L 6.375 9.773438 C 6.007812 9.984375 5.507812 10.257812 5.179688 10.402344 C 5.175781 10.449219 5.167969 10.507812 5.160156 10.5625 C 5.171875 10.605469 5.183594 10.644531 5.195312 10.679688 C 5.207031 10.726562 5.222656 10.769531 5.242188 10.808594 L 5.417969 10.949219 C 5.871094 10.945312 6.992188 10.875 7.988281 10.402344 C 8.027344 10.382812 8.09375 10.332031 8.1875 10.191406 L 8.300781 10.003906 C 8.332031 9.941406 8.367188 9.871094 8.398438 9.796875 C 8.460938 9.667969 8.511719 9.542969 8.546875 9.449219 C 8.535156 9.4375 8.519531 9.429688 8.5 9.417969 Z M 6.789062 9.570312 "/>
</svg>
