<?xml version="1.0" encoding="UTF-8" standalone="no"?>
<!-- Created with Inkscape (http://www.inkscape.org/) -->

<svg
   xmlns:dc="http://purl.org/dc/elements/1.1/"
   xmlns:cc="http://creativecommons.org/ns#"
   xmlns:rdf="http://www.w3.org/1999/02/22-rdf-syntax-ns#"
   xmlns:svg="http://www.w3.org/2000/svg"
   xmlns="http://www.w3.org/2000/svg"
   xmlns:xlink="http://www.w3.org/1999/xlink"
   xmlns:sodipodi="http://sodipodi.sourceforge.net/DTD/sodipodi-0.dtd"
   xmlns:inkscape="http://www.inkscape.org/namespaces/inkscape"
   width="30px"
   height="30px"
   version="1.1"
   id="svg8"
   inkscape:version="0.92.4 5da689c313, 2019-01-14"
   sodipodi:docname="container.svg">
  <defs
     id="defs2" />
  <sodipodi:namedview
     id="base"
     pagecolor="#ffffff"
     bordercolor="#666666"
     borderopacity="1.0"
     inkscape:pageopacity="0.0"
     inkscape:pageshadow="2"
     inkscape:zoom="13.049334"
     inkscape:cx="18.679046"
     inkscape:cy="12.165829"
     inkscape:document-units="px"
     inkscape:current-layer="layer1"
     showgrid="false"
     inkscape:snap-page="false"
     units="px"
     inkscape:window-width="1884"
     inkscape:window-height="1061"
     inkscape:window-x="0"
     inkscape:window-y="0"
     inkscape:window-maximized="1"
     fit-margin-top="0"
     fit-margin-left="0"
     fit-margin-right="0"
     fit-margin-bottom="0" />
  <metadata
     id="metadata5">
    <rdf:RDF>
      <cc:Work
         rdf:about="">
        <dc:format>image/svg+xml</dc:format>
        <dc:type
           rdf:resource="http://purl.org/dc/dcmitype/StillImage" />
        <dc:title></dc:title>
      </cc:Work>
    </rdf:RDF>
  </metadata>
    <circle
       style="color:#000000;clip-rule:nonzero;display:inline;overflow:visible;visibility:visible;opacity:1;isolation:auto;mix-blend-mode:normal;color-interpolation:sRGB;color-interpolation-filters:linearRGB;solid-color:#000000;solid-opacity:1;vector-effect:none;fill:#ffffff;fill-opacity:1;fill-rule:evenodd;stroke:#00a757;stroke-width:1;stroke-linecap:butt;stroke-linejoin:miter;stroke-miterlimit:4;stroke-dasharray:none;stroke-dashoffset:0;stroke-opacity:1;marker:none;color-rendering:auto;image-rendering:auto;shape-rendering:auto;text-rendering:auto;enable-background:accumulate"
       id="path815"
       cx="15"
       cy="15"
       r="14.5" />
<g transform="translate(7.5,6.5)"><path fill-rule="nonzero" fill="rgb(30%,30%,30%)" fill-opacity="1" d="M 13.339844 1.722656 C 13.339844 2.675781 12.570312 3.445312 11.617188 3.445312 C 10.667969 3.445312 9.894531 2.675781 9.894531 1.722656 C 9.894531 0.769531 10.667969 0 11.617188 0 C 12.570312 0 13.339844 0.769531 13.339844 1.722656 Z M 13.339844 1.722656 "/>
<path fill-rule="nonzero" fill="rgb(30%,30%,30%)" fill-opacity="1" d="M 14.808594 5.085938 C 14.589844 4.828125 14.207031 4.792969 13.945312 5.007812 L 12.101562 6.542969 L 11.324219 4.402344 C 11.285156 4.296875 11.042969 3.714844 10.542969 3.460938 L 10.355469 3.367188 C 10.152344 3.265625 6.570312 2.328125 6.570312 2.328125 C 6.246094 2.238281 5.910156 2.425781 5.8125 2.75 C 5.8125 2.753906 5.8125 2.761719 5.808594 2.765625 L 4.640625 5.734375 C 4.515625 6.050781 4.667969 6.40625 4.984375 6.53125 C 5.296875 6.652344 5.652344 6.5 5.777344 6.183594 L 6.773438 3.660156 L 8.222656 4.082031 L 6.015625 8.730469 C 5.988281 8.785156 4.058594 11.914062 4.058594 11.914062 L 0.597656 13.117188 C 0.136719 13.277344 -0.109375 13.785156 0.0507812 14.25 C 0.210938 14.710938 0.71875 14.957031 1.179688 14.796875 L 5.289062 13.371094 C 5.472656 13.308594 6.980469 10.738281 6.980469 10.738281 C 6.984375 10.742188 6.988281 10.746094 6.992188 10.75 L 9.320312 12.628906 L 6.804688 15.527344 C 6.484375 15.898438 6.523438 16.460938 6.894531 16.785156 C 7.265625 17.105469 7.828125 17.0625 8.148438 16.695312 L 11.070312 13.328125 C 11.09375 13.300781 11.113281 13.273438 11.128906 13.242188 C 11.191406 13.195312 11.25 13.140625 11.300781 13.078125 C 11.609375 12.695312 11.546875 12.136719 11.167969 11.828125 L 9.082031 10.148438 L 10.796875 6.539062 L 11.277344 7.851562 C 11.390625 8.167969 11.742188 8.332031 12.058594 8.21875 C 12.226562 8.15625 14.730469 5.949219 14.730469 5.949219 C 14.988281 5.730469 15.023438 5.34375 14.808594 5.085938 Z M 14.808594 5.085938 "/>
</g>
</svg>
