<?xml version="1.0" encoding="UTF-8" standalone="no"?>
<!-- Created with Inkscape (http://www.inkscape.org/) -->

<svg
   xmlns:dc="http://purl.org/dc/elements/1.1/"
   xmlns:cc="http://creativecommons.org/ns#"
   xmlns:rdf="http://www.w3.org/1999/02/22-rdf-syntax-ns#"
   xmlns:svg="http://www.w3.org/2000/svg"
   xmlns="http://www.w3.org/2000/svg"
   xmlns:xlink="http://www.w3.org/1999/xlink"
   xmlns:sodipodi="http://sodipodi.sourceforge.net/DTD/sodipodi-0.dtd"
   xmlns:inkscape="http://www.inkscape.org/namespaces/inkscape"
   width="30px"
   height="30px"
   version="1.1"
   id="svg8"
   inkscape:version="0.92.4 5da689c313, 2019-01-14"
   sodipodi:docname="container.svg">
  <defs
     id="defs2" />
  <sodipodi:namedview
     id="base"
     pagecolor="#ffffff"
     bordercolor="#666666"
     borderopacity="1.0"
     inkscape:pageopacity="0.0"
     inkscape:pageshadow="2"
     inkscape:zoom="13.049334"
     inkscape:cx="18.679046"
     inkscape:cy="12.165829"
     inkscape:document-units="px"
     inkscape:current-layer="layer1"
     showgrid="false"
     inkscape:snap-page="false"
     units="px"
     inkscape:window-width="1884"
     inkscape:window-height="1061"
     inkscape:window-x="0"
     inkscape:window-y="0"
     inkscape:window-maximized="1"
     fit-margin-top="0"
     fit-margin-left="0"
     fit-margin-right="0"
     fit-margin-bottom="0" />
  <metadata
     id="metadata5">
    <rdf:RDF>
      <cc:Work
         rdf:about="">
        <dc:format>image/svg+xml</dc:format>
        <dc:type
           rdf:resource="http://purl.org/dc/dcmitype/StillImage" />
        <dc:title></dc:title>
      </cc:Work>
    </rdf:RDF>
  </metadata>
    <circle
       style="color:#000000;clip-rule:nonzero;display:inline;overflow:visible;visibility:visible;opacity:1;isolation:auto;mix-blend-mode:normal;color-interpolation:sRGB;color-interpolation-filters:linearRGB;solid-color:#000000;solid-opacity:1;vector-effect:none;fill:#00a757;fill-opacity:1;fill-rule:evenodd;stroke:#ffffff;stroke-width:1;stroke-linecap:butt;stroke-linejoin:miter;stroke-miterlimit:4;stroke-dasharray:none;stroke-dashoffset:0;stroke-opacity:1;marker:none;color-rendering:auto;image-rendering:auto;shape-rendering:auto;text-rendering:auto;enable-background:accumulate"
       id="path815"
       cx="15"
       cy="15"
       r="14.5" />
<g transform="translate(6.5,7.0)"><path fill-rule="nonzero" fill="#FFFFFF" fill-opacity="1" d="M 9.316406 15.644531 L 13.957031 6.363281 C 13.964844 6.34375 13.863281 6.304688 13.867188 6.289062 C 13.699219 6.179688 13.53125 6.0625 13.367188 5.933594 L 8.914062 13.238281 C 8.898438 13.261719 8.878906 13.285156 8.859375 13.308594 C 8.722656 13.503906 8.484375 13.609375 8.246094 13.578125 C 8.007812 13.546875 7.808594 13.386719 7.722656 13.160156 C 7.640625 12.9375 7.6875 12.683594 7.847656 12.503906 C 7.855469 12.488281 7.863281 12.472656 7.875 12.457031 L 13.046875 5.675781 C 12.871094 5.527344 12.699219 5.367188 12.527344 5.195312 L 6.675781 11.664062 C 6.65625 11.683594 6.632812 11.703125 6.609375 11.722656 C 6.4375 11.890625 6.1875 11.945312 5.957031 11.871094 C 5.730469 11.796875 5.5625 11.601562 5.523438 11.363281 C 5.480469 11.128906 5.574219 10.886719 5.765625 10.742188 C 5.777344 10.726562 5.789062 10.714844 5.800781 10.703125 L 12.242188 4.902344 C 12.15625 4.8125 12.074219 4.71875 11.988281 4.621094 C 11.890625 4.507812 11.800781 4.390625 11.707031 4.273438 L 5.035156 9.910156 C 5.011719 9.929688 4.984375 9.945312 4.957031 9.960938 C 4.765625 10.105469 4.507812 10.125 4.292969 10.023438 C 4.078125 9.917969 3.9375 9.703125 3.929688 9.460938 C 3.917969 9.222656 4.042969 8.996094 4.253906 8.878906 C 4.265625 8.863281 4.28125 8.851562 4.292969 8.84375 L 11.460938 3.941406 C 11.339844 3.773438 11.230469 3.605469 11.125 3.433594 L 3.550781 7.371094 C 3.523438 7.382812 3.496094 7.394531 3.46875 7.402344 C 3.246094 7.5 2.992188 7.464844 2.804688 7.316406 C 2.617188 7.167969 2.527344 6.925781 2.570312 6.6875 C 2.617188 6.453125 2.789062 6.261719 3.015625 6.191406 C 3.03125 6.179688 3.046875 6.171875 3.066406 6.164062 L 10.914062 3.074219 C 10.820312 2.898438 10.730469 2.722656 10.652344 2.546875 C 10.632812 2.550781 10.621094 2.429688 10.59375 2.4375 L 0.78125 5.535156 C 0.652344 5.574219 0.539062 5.648438 0.453125 5.75 C 0.273438 5.972656 -0.0117188 6.375 0 6.703125 C 0.0195312 7.183594 0.777344 7.589844 0.894531 8.050781 C 1.125 8.972656 0.195312 9.296875 0.589844 10.160156 C 0.988281 11.027344 1.394531 10.59375 1.78125 11.253906 C 2.171875 11.910156 1.429688 12.199219 2.066406 12.992188 C 2.699219 13.785156 3.390625 13.308594 3.992188 13.882812 C 4.46875 14.339844 4.285156 14.882812 5.023438 15.242188 C 5.539062 15.492188 6.0625 14.742188 6.910156 15.179688 C 7.71875 15.59375 7.484375 16.152344 8.011719 16.214844 C 8.367188 16.257812 8.792969 16.066406 9.035156 15.9375 C 9.15625 15.871094 9.253906 15.769531 9.316406 15.644531 Z M 9.316406 15.644531 "/>
<path fill-rule="nonzero" fill="#FFFFFF" fill-opacity="1" d="M 14.277344 6.007812 L 15.070312 5.328125 C 14.285156 4.894531 13.859375 4.40625 13.148438 3.574219 C 12.511719 2.828125 12.160156 2.304688 11.84375 1.539062 L 10.988281 2.1875 C 11.304688 2.984375 11.667969 3.542969 12.335938 4.320312 C 13.003906 5.105469 13.535156 5.574219 14.277344 6.007812 Z M 14.277344 6.007812 "/>
<path fill-rule="nonzero" fill="#FFFFFF" fill-opacity="1" d="M 16.402344 0.972656 C 15.453125 -0.136719 14.066406 -0.554688 12.378906 1.117188 C 12.691406 1.796875 13.128906 2.472656 13.691406 3.128906 C 14.28125 3.820312 14.945312 4.386719 15.601562 4.808594 C 17.230469 3.542969 17.351562 2.085938 16.402344 0.972656 Z M 16.402344 0.972656 "/>
</g>
</svg>
