<?xml version="1.0" encoding="UTF-8"?>
<svg xmlns="http://www.w3.org/2000/svg" xmlns:xlink="http://www.w3.org/1999/xlink" width="10.376046" height="11" viewBox="0 0 10.376046 11">
<path fill-rule="nonzero" fill="rgb(30%,30%,30%)" fill-opacity="1" d="M 10.289062 1.621094 C 10.296875 2.476562 9.207031 3.199219 9.207031 3.199219 C 8.429688 3.828125 8.0625 4.445312 8.0625 4.445312 C 8.0625 4.445312 7.71875 3.8125 6.867188 3.199219 C 6.628906 2.964844 5.929688 2.4375 5.921875 1.65625 C 5.914062 0.875 6.367188 0.484375 6.925781 0.476562 C 7.484375 0.472656 8.054688 1.050781 8.0625 1.660156 C 8.054688 1.050781 8.628906 0.464844 9.1875 0.457031 C 9.75 0.453125 10.285156 1.011719 10.289062 1.621094 "/>
<path fill-rule="nonzero" fill="rgb(30%,30%,30%)" fill-opacity="1" d="M 3.511719 1.25 C 2.652344 0.703125 2.355469 0 2.355469 0 C 2.355469 0 2.105469 0.625 1.328125 1.25 C 1.328125 1.25 0.15625 1.949219 0.15625 2.808594 C 0.15625 3.417969 0.6875 3.980469 1.25 3.980469 C 1.839844 3.980469 2.109375 3.574219 2.265625 3.433594 C 2.058594 4.125 1.550781 4.992188 1.25 4.992188 C 0.757812 4.992188 3.457031 5.039062 3.449219 4.992188 C 2.992188 4.765625 2.652344 4.210938 2.496094 3.433594 C 2.699219 3.609375 3.042969 3.980469 3.511719 3.980469 C 4.070312 3.980469 4.523438 3.589844 4.523438 2.808594 C 4.523438 2.027344 3.746094 1.480469 3.511719 1.25 Z M 3.511719 1.25 "/>
<path fill-rule="nonzero" fill="rgb(30%,30%,30%)" fill-opacity="1" d="M 0 8.503906 C 0.0625 8.660156 2.148438 7.484375 2.378906 6.164062 C 2.25 6.882812 4.335938 8.644531 4.601562 8.503906 C 3.355469 9.050781 2.359375 10.542969 2.378906 10.765625 C 2.398438 10.960938 2.027344 9.363281 0 8.503906 Z M 0 8.503906 "/>
<path fill-rule="nonzero" fill="rgb(30%,30%,30%)" fill-opacity="1" d="M 9.28125 7.644531 C 9.074219 7.644531 8.84375 7.765625 8.636719 7.921875 C 8.816406 7.652344 8.972656 7.347656 8.972656 7.097656 C 8.972656 6.519531 8.628906 6.007812 8.113281 6.007812 C 7.597656 6.007812 7.175781 6.519531 7.175781 7.097656 C 7.175781 7.363281 7.371094 7.691406 7.582031 7.972656 C 7.355469 7.792969 7.101562 7.644531 6.871094 7.644531 C 6.289062 7.640625 5.777344 8.058594 5.773438 8.578125 C 5.769531 9.09375 6.28125 9.4375 6.863281 9.4375 C 7.238281 9.441406 7.683594 9.140625 7.953125 8.902344 C 7.894531 9.695312 7.769531 10.550781 6.941406 11 L 9.207031 11 C 8.761719 10.777344 8.222656 10.097656 8.195312 8.902344 C 8.460938 9.136719 8.910156 9.441406 9.289062 9.4375 C 9.867188 9.4375 10.378906 9.09375 10.375 8.578125 C 10.375 8.058594 9.863281 7.640625 9.28125 7.644531 Z M 9.28125 7.644531 "/>
</svg>
