<?xml version="1.0" encoding="UTF-8"?>
<svg xmlns="http://www.w3.org/2000/svg" xmlns:xlink="http://www.w3.org/1999/xlink" width="10.982318" height="11" viewBox="0 0 10.982318 11">
<path fill-rule="nonzero" fill="rgb(30%,30%,30%)" fill-opacity="1" d="M 0.160156 6.414062 C -0.0117188 6.578125 -0.0507812 6.871094 0.0703125 7.070312 L 0.332031 7.503906 C 0.457031 7.703125 0.738281 7.804688 0.960938 7.734375 L 1.746094 7.480469 C 1.816406 7.460938 1.867188 7.488281 1.925781 7.503906 L 3.316406 6.296875 L 1.980469 4.429688 C 1.84375 4.238281 1.679688 4.253906 1.617188 4.460938 C 1.554688 4.671875 1.503906 4.84375 1.503906 4.84375 C 1.4375 5.066406 1.246094 5.382812 1.074219 5.542969 Z M 0.160156 6.414062 "/>
<path fill-rule="nonzero" fill="rgb(30%,30%,30%)" fill-opacity="1" d="M 4.097656 6.796875 C 3.894531 6.796875 3.664062 6.671875 3.511719 6.519531 L 2.125 7.722656 C 2.128906 7.746094 2.148438 7.753906 2.148438 7.777344 L 2.128906 10.636719 C 2.128906 10.824219 2.28125 10.976562 2.46875 10.976562 L 2.894531 10.980469 C 3.082031 10.980469 3.238281 10.832031 3.238281 10.644531 L 3.246094 9.414062 C 3.246094 9.175781 3.4375 8.984375 3.675781 8.988281 L 4.90625 8.996094 C 5.140625 8.996094 5.328125 9.1875 5.328125 9.425781 L 5.320312 10.65625 C 5.320312 10.84375 5.472656 10.996094 5.660156 10.996094 L 6.085938 11 C 6.273438 11 6.425781 10.851562 6.429688 10.664062 L 6.445312 7.839844 C 6.445312 7.605469 6.582031 7.28125 6.75 7.113281 L 7.519531 6.351562 C 7.6875 6.1875 7.691406 5.917969 7.523438 5.75 C 7.359375 5.582031 7.089844 5.582031 6.921875 5.746094 L 6.152344 6.507812 C 5.984375 6.671875 5.660156 6.804688 5.421875 6.804688 Z M 4.097656 6.796875 "/>
<path fill-rule="nonzero" fill="rgb(30%,30%,30%)" fill-opacity="1" d="M 10.828125 2.136719 L 9.921875 1.253906 C 9.753906 1.09375 9.5625 0.773438 9.5 0.550781 C 9.5 0.550781 9.449219 0.378906 9.390625 0.167969 C 9.328125 -0.0390625 9.167969 -0.0585938 9.027344 0.132812 L 7.671875 1.984375 L 9.046875 3.207031 C 9.105469 3.191406 9.160156 3.164062 9.230469 3.1875 L 10.011719 3.449219 C 10.234375 3.523438 10.515625 3.421875 10.640625 3.222656 L 10.90625 2.792969 C 11.03125 2.59375 10.996094 2.300781 10.828125 2.136719 Z M 10.828125 2.136719 "/>
<path fill-rule="nonzero" fill="rgb(30%,30%,30%)" fill-opacity="1" d="M 6.886719 2.476562 L 5.5625 2.46875 C 5.324219 2.46875 5 2.332031 4.832031 2.167969 L 4.070312 1.398438 C 3.90625 1.230469 3.636719 1.226562 3.46875 1.394531 C 3.300781 1.558594 3.300781 1.828125 3.46875 1.996094 L 4.230469 2.765625 C 4.394531 2.933594 4.527344 3.257812 4.527344 3.492188 L 4.511719 6.316406 C 4.511719 6.503906 4.664062 6.65625 4.851562 6.660156 L 5.28125 6.660156 C 5.46875 6.660156 5.621094 6.511719 5.621094 6.324219 L 5.625 5.089844 C 5.628906 4.855469 5.820312 4.664062 6.054688 4.664062 L 7.285156 4.671875 C 7.519531 4.671875 7.710938 4.863281 7.710938 5.101562 L 7.703125 6.332031 C 7.703125 6.519531 7.855469 6.671875 8.042969 6.671875 L 8.46875 6.675781 C 8.65625 6.675781 8.808594 6.523438 8.8125 6.335938 L 8.824219 3.476562 C 8.824219 3.453125 8.84375 3.445312 8.847656 3.421875 L 7.476562 2.203125 C 7.320312 2.355469 7.085938 2.476562 6.886719 2.476562 Z M 6.886719 2.476562 "/>
</svg>
