<?xml version="1.0" encoding="UTF-8"?>
<svg xmlns="http://www.w3.org/2000/svg" xmlns:xlink="http://www.w3.org/1999/xlink" width="11" height="8.091187" viewBox="0 0 11 8.091187">
<path fill-rule="nonzero" fill="rgb(30%,30%,30%)" fill-opacity="1" d="M 10.769531 3.449219 C 10.746094 3.378906 10.71875 3.308594 10.683594 3.242188 L 10.8125 3.179688 C 10.773438 3.105469 10.734375 3.035156 10.6875 2.96875 L 10.570312 3.050781 C 10.527344 2.988281 10.484375 2.929688 10.433594 2.875 L 10.539062 2.78125 C 10.484375 2.71875 10.425781 2.664062 10.363281 2.613281 L 10.273438 2.722656 C 10.214844 2.671875 10.15625 2.628906 10.089844 2.589844 L 10.167969 2.46875 C 10.097656 2.425781 10.027344 2.390625 9.953125 2.355469 L 9.894531 2.484375 C 9.828125 2.453125 9.757812 2.429688 9.6875 2.40625 L 9.726562 2.269531 C 9.648438 2.25 9.570312 2.230469 9.488281 2.21875 L 9.46875 2.359375 C 9.394531 2.347656 9.320312 2.34375 9.246094 2.339844 L 9.246094 2.199219 C 9.167969 2.199219 9.085938 2.203125 9.003906 2.210938 L 9.023438 2.351562 C 8.949219 2.363281 8.875 2.375 8.804688 2.394531 L 8.765625 2.257812 C 8.730469 2.269531 8.691406 2.28125 8.652344 2.292969 C 8.613281 2.304688 8.574219 2.320312 8.539062 2.335938 L 8.59375 2.46875 C 8.550781 2.484375 8.511719 2.503906 8.472656 2.523438 L 7.933594 1.800781 C 8.214844 1.46875 9.292969 1.371094 9.253906 1.34375 C 8.898438 1.097656 8.007812 1.242188 8.007812 1.242188 L 7.660156 0.703125 L 7.058594 0.550781 L 6.992188 0.710938 C 6.992188 0.710938 6.617188 0.167969 6.5 0.0703125 C 6.296875 -0.0976562 5.285156 0.0859375 5.285156 0.0859375 L 5.363281 0.574219 L 6.164062 0.527344 L 6.527344 1.023438 L 6.300781 1.171875 C 5.082031 1.171875 4.390625 2.242188 4.390625 2.242188 C 4.390625 2.242188 4.136719 2.367188 3.65625 2.488281 C 3.179688 2.613281 0.0234375 2.910156 0.0234375 2.910156 C 0.0234375 2.910156 -0.0625 3.066406 0.101562 3.257812 C 0.261719 3.449219 0.902344 3.453125 1.625 3.550781 C 2.523438 3.667969 2.410156 3.914062 2.855469 4.046875 C 3.304688 4.183594 3.8125 4.050781 3.8125 4.050781 L 4 4.488281 L 3.277344 5 C 3.246094 4.976562 3.210938 4.953125 3.175781 4.929688 L 3.253906 4.808594 C 3.183594 4.765625 3.113281 4.726562 3.039062 4.695312 L 2.980469 4.824219 C 2.914062 4.792969 2.84375 4.769531 2.773438 4.746094 L 2.8125 4.609375 C 2.734375 4.589844 2.65625 4.570312 2.574219 4.558594 L 2.554688 4.699219 C 2.480469 4.6875 2.40625 4.679688 2.332031 4.679688 L 2.332031 4.539062 C 2.253906 4.535156 2.171875 4.542969 2.089844 4.550781 L 2.109375 4.691406 C 2.035156 4.703125 1.960938 4.714844 1.890625 4.734375 L 1.851562 4.597656 C 1.816406 4.609375 1.777344 4.621094 1.738281 4.632812 C 1.699219 4.644531 1.660156 4.660156 1.625 4.675781 L 1.679688 4.808594 C 1.609375 4.835938 1.542969 4.867188 1.480469 4.90625 L 1.40625 4.785156 C 1.335938 4.824219 1.269531 4.871094 1.207031 4.921875 L 1.296875 5.03125 C 1.238281 5.078125 1.183594 5.128906 1.128906 5.183594 L 1.027344 5.085938 C 0.972656 5.140625 0.921875 5.203125 0.871094 5.269531 L 0.988281 5.355469 C 0.945312 5.414062 0.90625 5.476562 0.871094 5.542969 L 0.742188 5.476562 C 0.707031 5.546875 0.671875 5.621094 0.644531 5.695312 L 0.777344 5.746094 C 0.75 5.816406 0.730469 5.886719 0.714844 5.960938 L 0.574219 5.929688 C 0.558594 6.007812 0.546875 6.085938 0.539062 6.167969 L 0.679688 6.179688 C 0.675781 6.253906 0.671875 6.328125 0.675781 6.402344 L 0.535156 6.410156 C 0.539062 6.492188 0.550781 6.570312 0.566406 6.652344 L 0.703125 6.625 C 0.71875 6.695312 0.738281 6.769531 0.761719 6.839844 L 0.628906 6.886719 C 0.652344 6.960938 0.683594 7.035156 0.71875 7.109375 L 0.847656 7.046875 C 0.882812 7.113281 0.917969 7.175781 0.960938 7.238281 L 0.84375 7.316406 C 0.890625 7.386719 0.9375 7.449219 0.992188 7.507812 L 1.097656 7.414062 C 1.148438 7.46875 1.203125 7.519531 1.257812 7.566406 L 1.167969 7.675781 C 1.230469 7.726562 1.296875 7.777344 1.363281 7.820312 L 1.441406 7.699219 C 1.503906 7.738281 1.570312 7.773438 1.636719 7.804688 L 1.578125 7.933594 C 1.652344 7.964844 1.726562 7.996094 1.804688 8.019531 L 1.84375 7.882812 C 1.917969 7.902344 1.988281 7.917969 2.0625 7.929688 L 2.042969 8.070312 C 2.121094 8.082031 2.203125 8.089844 2.285156 8.089844 L 2.285156 7.949219 C 2.359375 7.949219 2.433594 7.945312 2.507812 7.9375 L 2.527344 8.078125 C 2.605469 8.066406 2.683594 8.050781 2.761719 8.03125 L 2.726562 7.894531 C 2.761719 7.886719 2.796875 7.875 2.832031 7.863281 C 2.867188 7.851562 2.902344 7.835938 2.9375 7.824219 L 2.992188 7.953125 C 3.066406 7.921875 3.140625 7.886719 3.210938 7.847656 L 3.136719 7.722656 C 3.203125 7.6875 3.261719 7.644531 3.320312 7.597656 L 3.410156 7.710938 C 3.472656 7.660156 3.535156 7.605469 3.589844 7.546875 L 3.488281 7.449219 C 3.539062 7.394531 3.585938 7.335938 3.628906 7.277344 L 3.746094 7.359375 C 3.792969 7.296875 3.835938 7.226562 3.875 7.15625 L 3.75 7.089844 C 3.785156 7.023438 3.816406 6.953125 3.839844 6.886719 L 3.972656 6.933594 C 4.003906 6.859375 4.023438 6.78125 4.042969 6.703125 L 3.90625 6.671875 C 3.921875 6.597656 3.933594 6.523438 3.9375 6.449219 L 4.078125 6.460938 C 4.085938 6.382812 4.089844 6.300781 4.082031 6.21875 L 3.941406 6.226562 C 3.9375 6.183594 3.933594 6.140625 3.929688 6.097656 L 5.660156 4.882812 L 6.664062 4.5625 C 6.664062 4.5625 6.78125 3.605469 6.820312 3.347656 C 6.863281 3.085938 7.277344 2.453125 7.277344 2.453125 L 7.351562 2.351562 L 7.792969 2.921875 C 7.789062 2.925781 7.789062 2.929688 7.785156 2.929688 L 7.8125 2.949219 L 7.882812 3.039062 C 7.847656 3.09375 7.8125 3.148438 7.785156 3.203125 L 7.65625 3.136719 C 7.621094 3.207031 7.585938 3.28125 7.558594 3.355469 L 7.691406 3.40625 C 7.664062 3.476562 7.644531 3.546875 7.628906 3.621094 L 7.488281 3.589844 C 7.472656 3.667969 7.460938 3.75 7.453125 3.828125 L 7.59375 3.839844 C 7.589844 3.914062 7.585938 3.988281 7.589844 4.0625 L 7.449219 4.070312 C 7.453125 4.152344 7.464844 4.234375 7.480469 4.3125 L 7.617188 4.285156 C 7.632812 4.359375 7.652344 4.429688 7.675781 4.5 L 7.542969 4.546875 C 7.566406 4.621094 7.597656 4.699219 7.632812 4.769531 L 7.761719 4.707031 C 7.796875 4.773438 7.832031 4.835938 7.875 4.898438 L 7.757812 4.980469 C 7.804688 5.046875 7.851562 5.109375 7.90625 5.167969 L 8.011719 5.074219 C 8.0625 5.128906 8.117188 5.179688 8.171875 5.226562 L 8.082031 5.335938 C 8.144531 5.390625 8.210938 5.4375 8.277344 5.480469 L 8.355469 5.359375 C 8.417969 5.398438 8.484375 5.433594 8.550781 5.464844 L 8.492188 5.59375 C 8.566406 5.628906 8.640625 5.65625 8.71875 5.679688 L 8.757812 5.542969 C 8.832031 5.5625 8.902344 5.578125 8.976562 5.589844 L 8.957031 5.730469 C 9.035156 5.742188 9.117188 5.75 9.195312 5.75 L 9.199219 5.609375 C 9.273438 5.609375 9.347656 5.605469 9.421875 5.597656 L 9.441406 5.738281 C 9.519531 5.730469 9.597656 5.714844 9.675781 5.691406 L 9.640625 5.554688 C 9.675781 5.546875 9.710938 5.535156 9.746094 5.523438 C 9.78125 5.511719 9.816406 5.496094 9.851562 5.484375 L 9.90625 5.613281 C 9.980469 5.582031 10.054688 5.546875 10.125 5.507812 L 10.050781 5.382812 C 10.117188 5.347656 10.175781 5.304688 10.234375 5.257812 L 10.324219 5.371094 C 10.386719 5.320312 10.449219 5.265625 10.503906 5.207031 L 10.402344 5.109375 C 10.453125 5.054688 10.5 4.996094 10.542969 4.9375 L 10.660156 5.019531 C 10.707031 4.957031 10.75 4.886719 10.789062 4.816406 L 10.664062 4.75 C 10.699219 4.683594 10.730469 4.617188 10.753906 4.546875 L 10.886719 4.59375 C 10.917969 4.519531 10.9375 4.441406 10.957031 4.363281 L 10.820312 4.332031 C 10.835938 4.257812 10.847656 4.1875 10.851562 4.113281 L 10.992188 4.125 C 11 4.042969 11 3.960938 10.996094 3.878906 L 10.855469 3.886719 C 10.851562 3.8125 10.84375 3.738281 10.828125 3.667969 L 10.96875 3.640625 C 10.953125 3.5625 10.933594 3.484375 10.90625 3.40625 L 10.90625 3.402344 Z M 2.648438 7.222656 C 2.140625 7.394531 1.589844 7.121094 1.417969 6.613281 C 1.246094 6.105469 1.519531 5.554688 2.027344 5.382812 C 2.535156 5.214844 3.082031 5.484375 3.253906 5.992188 C 3.425781 6.5 3.15625 7.050781 2.648438 7.222656 Z M 9.5625 4.882812 C 9.054688 5.054688 8.503906 4.78125 8.332031 4.273438 C 8.160156 3.765625 8.433594 3.21875 8.941406 3.046875 C 9.445312 2.875 9.996094 3.144531 10.167969 3.652344 C 10.339844 4.160156 10.070312 4.710938 9.5625 4.882812 Z M 9.5625 4.882812 "/>
</svg>
