<?xml version="1.0" encoding="UTF-8" standalone="no"?>
<!-- Created with Inkscape (http://www.inkscape.org/) -->

<svg
   xmlns:dc="http://purl.org/dc/elements/1.1/"
   xmlns:cc="http://creativecommons.org/ns#"
   xmlns:rdf="http://www.w3.org/1999/02/22-rdf-syntax-ns#"
   xmlns:svg="http://www.w3.org/2000/svg"
   xmlns="http://www.w3.org/2000/svg"
   xmlns:xlink="http://www.w3.org/1999/xlink"
   xmlns:sodipodi="http://sodipodi.sourceforge.net/DTD/sodipodi-0.dtd"
   xmlns:inkscape="http://www.inkscape.org/namespaces/inkscape"
   width="30px"
   height="30px"
   version="1.1"
   id="svg8"
   inkscape:version="0.92.4 5da689c313, 2019-01-14"
   sodipodi:docname="container.svg">
  <defs
     id="defs2" />
  <sodipodi:namedview
     id="base"
     pagecolor="#ffffff"
     bordercolor="#666666"
     borderopacity="1.0"
     inkscape:pageopacity="0.0"
     inkscape:pageshadow="2"
     inkscape:zoom="13.049334"
     inkscape:cx="18.679046"
     inkscape:cy="12.165829"
     inkscape:document-units="px"
     inkscape:current-layer="layer1"
     showgrid="false"
     inkscape:snap-page="false"
     units="px"
     inkscape:window-width="1884"
     inkscape:window-height="1061"
     inkscape:window-x="0"
     inkscape:window-y="0"
     inkscape:window-maximized="1"
     fit-margin-top="0"
     fit-margin-left="0"
     fit-margin-right="0"
     fit-margin-bottom="0" />
  <metadata
     id="metadata5">
    <rdf:RDF>
      <cc:Work
         rdf:about="">
        <dc:format>image/svg+xml</dc:format>
        <dc:type
           rdf:resource="http://purl.org/dc/dcmitype/StillImage" />
        <dc:title></dc:title>
      </cc:Work>
    </rdf:RDF>
  </metadata>
    <circle
       style="color:#000000;clip-rule:nonzero;display:inline;overflow:visible;visibility:visible;opacity:1;isolation:auto;mix-blend-mode:normal;color-interpolation:sRGB;color-interpolation-filters:linearRGB;solid-color:#000000;solid-opacity:1;vector-effect:none;fill:#ffffff;fill-opacity:1;fill-rule:evenodd;stroke:#00a757;stroke-width:1;stroke-linecap:butt;stroke-linejoin:miter;stroke-miterlimit:4;stroke-dasharray:none;stroke-dashoffset:0;stroke-opacity:1;marker:none;color-rendering:auto;image-rendering:auto;shape-rendering:auto;text-rendering:auto;enable-background:accumulate"
       id="path815"
       cx="15"
       cy="15"
       r="14.5" />
<g transform="translate(6.5,9.0)"><path fill-rule="nonzero" fill="rgb(30%,30%,30%)" fill-opacity="1" d="M 15.835938 0 L 1.164062 0 C 0.523438 0 0 0.523438 0 1.164062 L 0 10.753906 C 0 11.398438 0.523438 11.917969 1.164062 11.921875 L 15.835938 11.921875 C 16.476562 11.917969 17 11.398438 17 10.753906 L 17 1.164062 C 17 0.523438 16.476562 0 15.835938 0 Z M 8.148438 7.226562 C 7.589844 7.070312 7.203125 6.5625 7.203125 5.980469 C 7.203125 5.402344 7.589844 4.890625 8.148438 4.738281 Z M 8.902344 4.753906 C 9.429688 4.929688 9.785156 5.425781 9.785156 5.980469 C 9.785156 6.539062 9.429688 7.03125 8.902344 7.207031 Z M 0.75 10.753906 L 0.75 8.734375 C 0.804688 8.746094 0.855469 8.75 0.910156 8.75 L 2.339844 8.75 C 2.839844 8.75 3.246094 8.34375 3.246094 7.84375 L 3.246094 4.128906 C 3.246094 3.628906 2.839844 3.222656 2.339844 3.222656 L 0.910156 3.222656 C 0.855469 3.222656 0.804688 3.226562 0.75 3.234375 L 0.75 1.164062 C 0.75 0.9375 0.9375 0.75 1.164062 0.75 L 8.148438 0.75 L 8.148438 3.96875 C 7.171875 4.136719 6.453125 4.988281 6.453125 5.980469 C 6.453125 6.976562 7.171875 7.824219 8.148438 7.992188 L 8.148438 11.167969 L 1.164062 11.167969 C 0.9375 11.167969 0.75 10.984375 0.75 10.753906 Z M 0.753906 7.84375 L 0.753906 4.128906 C 0.753906 4.042969 0.824219 3.972656 0.910156 3.972656 L 2.339844 3.972656 C 2.425781 3.972656 2.496094 4.042969 2.496094 4.128906 L 2.496094 7.84375 C 2.496094 7.929688 2.425781 8 2.339844 8 L 0.910156 8 C 0.824219 8 0.753906 7.929688 0.753906 7.84375 Z M 15.835938 11.167969 L 8.902344 11.167969 L 8.902344 7.984375 C 9.851562 7.789062 10.539062 6.953125 10.539062 5.980469 C 10.539062 5.007812 9.851562 4.171875 8.902344 3.980469 L 8.902344 0.75 L 15.835938 0.75 C 16.0625 0.75 16.25 0.9375 16.25 1.164062 L 16.25 3.238281 C 16.195312 3.226562 16.140625 3.222656 16.089844 3.222656 L 14.65625 3.222656 C 14.15625 3.222656 13.75 3.628906 13.75 4.128906 L 13.75 7.84375 C 13.75 8.34375 14.15625 8.75 14.65625 8.75 L 16.089844 8.75 C 16.140625 8.75 16.195312 8.746094 16.25 8.734375 L 16.25 10.753906 C 16.25 10.984375 16.0625 11.167969 15.835938 11.167969 Z M 16.242188 4.128906 L 16.242188 7.84375 C 16.242188 7.929688 16.175781 8 16.089844 8 L 14.65625 8 C 14.570312 8 14.5 7.929688 14.5 7.84375 L 14.5 4.128906 C 14.5 4.042969 14.570312 3.972656 14.65625 3.972656 L 16.089844 3.972656 C 16.175781 3.972656 16.242188 4.042969 16.242188 4.128906 Z M 16.242188 4.128906 "/>
</g>
</svg>
