<?xml version="1.0" encoding="UTF-8" standalone="no"?>
<!-- Created with Inkscape (http://www.inkscape.org/) -->

<svg
   xmlns:dc="http://purl.org/dc/elements/1.1/"
   xmlns:cc="http://creativecommons.org/ns#"
   xmlns:rdf="http://www.w3.org/1999/02/22-rdf-syntax-ns#"
   xmlns:svg="http://www.w3.org/2000/svg"
   xmlns="http://www.w3.org/2000/svg"
   xmlns:xlink="http://www.w3.org/1999/xlink"
   xmlns:sodipodi="http://sodipodi.sourceforge.net/DTD/sodipodi-0.dtd"
   xmlns:inkscape="http://www.inkscape.org/namespaces/inkscape"
   width="30px"
   height="30px"
   version="1.1"
   id="svg8"
   inkscape:version="0.92.4 5da689c313, 2019-01-14"
   sodipodi:docname="container.svg">
  <defs
     id="defs2" />
  <sodipodi:namedview
     id="base"
     pagecolor="#ffffff"
     bordercolor="#666666"
     borderopacity="1.0"
     inkscape:pageopacity="0.0"
     inkscape:pageshadow="2"
     inkscape:zoom="13.049334"
     inkscape:cx="18.679046"
     inkscape:cy="12.165829"
     inkscape:document-units="px"
     inkscape:current-layer="layer1"
     showgrid="false"
     inkscape:snap-page="false"
     units="px"
     inkscape:window-width="1884"
     inkscape:window-height="1061"
     inkscape:window-x="0"
     inkscape:window-y="0"
     inkscape:window-maximized="1"
     fit-margin-top="0"
     fit-margin-left="0"
     fit-margin-right="0"
     fit-margin-bottom="0" />
  <metadata
     id="metadata5">
    <rdf:RDF>
      <cc:Work
         rdf:about="">
        <dc:format>image/svg+xml</dc:format>
        <dc:type
           rdf:resource="http://purl.org/dc/dcmitype/StillImage" />
        <dc:title></dc:title>
      </cc:Work>
    </rdf:RDF>
  </metadata>
    <circle
       style="color:#000000;clip-rule:nonzero;display:inline;overflow:visible;visibility:visible;opacity:1;isolation:auto;mix-blend-mode:normal;color-interpolation:sRGB;color-interpolation-filters:linearRGB;solid-color:#000000;solid-opacity:1;vector-effect:none;fill:#ffffff;fill-opacity:1;fill-rule:evenodd;stroke:#00a757;stroke-width:1;stroke-linecap:butt;stroke-linejoin:miter;stroke-miterlimit:4;stroke-dasharray:none;stroke-dashoffset:0;stroke-opacity:1;marker:none;color-rendering:auto;image-rendering:auto;shape-rendering:auto;text-rendering:auto;enable-background:accumulate"
       id="path815"
       cx="15"
       cy="15"
       r="14.5" />
<g transform="translate(6.5,7.0)"><path fill-rule="nonzero" fill="rgb(30%,30%,30%)" fill-opacity="1" d="M 15.847656 5.566406 C 15.847656 6.769531 14.871094 7.746094 13.667969 7.746094 C 12.464844 7.746094 11.488281 6.769531 11.488281 5.566406 C 11.488281 4.359375 12.464844 3.382812 13.667969 3.382812 C 14.871094 3.382812 15.847656 4.359375 15.847656 5.566406 Z M 15.847656 5.566406 "/>
<path fill-rule="nonzero" fill="rgb(30%,30%,30%)" fill-opacity="1" d="M 4.394531 10.25 C 4.398438 10.246094 4.40625 10.246094 4.410156 10.242188 C 4.417969 10.238281 4.421875 10.234375 4.429688 10.234375 C 4.679688 10.097656 4.886719 9.910156 5.113281 9.699219 C 5.359375 9.476562 5.636719 9.226562 6 9.03125 C 6.359375 8.816406 6.8125 8.660156 7.429688 8.660156 C 7.441406 8.660156 7.453125 8.660156 7.464844 8.660156 C 8.453125 8.667969 9.027344 9.148438 9.523438 9.589844 C 9.566406 9.628906 9.609375 9.664062 9.652344 9.703125 C 9.804688 9.835938 9.945312 9.957031 10.09375 10.066406 C 10.371094 10.257812 10.671875 10.382812 11.097656 10.375 C 12.195312 10.351562 12.644531 9.773438 12.777344 9.550781 L 12.511719 9.1875 C 12.480469 9.105469 12.4375 9.027344 12.386719 8.957031 L 8.726562 3.773438 L 12.25 2.03125 C 12.75 1.777344 12.953125 1.0625 12.699219 0.558594 C 12.445312 0.0585938 11.824219 -0.144531 11.324219 0.109375 L 7.011719 2.246094 C 6.796875 2.363281 6.632812 2.425781 6.464844 2.542969 C 6.300781 2.65625 6.171875 2.816406 6.089844 2.996094 C 5.929688 3.285156 5.910156 3.644531 6.066406 3.960938 C 6.113281 4.050781 6.175781 4.128906 6.246094 4.199219 L 7.515625 6 L 2.3125 9.792969 C 2.664062 10.125 2.996094 10.375 3.664062 10.375 C 3.957031 10.375 4.191406 10.328125 4.394531 10.25 Z M 4.394531 10.25 "/>
<path fill-rule="nonzero" fill="rgb(30%,30%,30%)" fill-opacity="1" d="M 16.949219 10.847656 C 16.441406 10.394531 15.863281 9.878906 14.839844 9.871094 C 14.828125 9.871094 14.816406 9.871094 14.804688 9.871094 C 13.800781 9.871094 13.234375 10.28125 12.800781 10.675781 C 12.800781 10.675781 12.621094 10.84375 12.613281 10.847656 C 12.40625 11.042969 12.214844 11.21875 11.988281 11.351562 C 11.742188 11.46875 11.421875 11.554688 11.007812 11.5625 C 10.410156 11.574219 10.054688 11.324219 9.660156 10.976562 C 9.617188 10.9375 9.578125 10.902344 9.539062 10.859375 C 9.214844 10.546875 8.835938 10.175781 8.222656 9.992188 C 7.976562 9.90625 7.699219 9.851562 7.375 9.847656 C 7.363281 9.847656 7.355469 9.847656 7.34375 9.847656 C 6.5 9.847656 5.964844 10.140625 5.554688 10.46875 C 5.390625 10.59375 5.242188 10.722656 5.105469 10.847656 C 4.984375 10.953125 4.871094 11.054688 4.753906 11.148438 L 4.769531 11.160156 C 4.46875 11.398438 4.128906 11.5625 3.574219 11.5625 C 2.816406 11.5625 2.488281 11.242188 2.078125 10.839844 C 1.636719 10.410156 1.09375 9.878906 0 9.851562 L 0 11.160156 C 0.652344 11.1875 0.949219 11.472656 1.347656 11.863281 C 1.808594 12.3125 2.378906 12.871094 3.574219 12.871094 C 4.792969 12.871094 5.386719 12.3125 5.867188 11.863281 C 5.976562 11.761719 6.074219 11.667969 6.175781 11.582031 C 6.484375 11.347656 6.816406 11.183594 7.34375 11.179688 C 7.351562 11.179688 7.359375 11.179688 7.367188 11.179688 C 7.542969 11.179688 7.691406 11.195312 7.824219 11.230469 C 8.164062 11.335938 8.4375 11.566406 8.792969 11.882812 C 8.84375 11.925781 8.894531 11.972656 8.945312 12.015625 C 9.382812 12.4375 9.953125 12.894531 11.035156 12.894531 C 11.652344 12.894531 12.109375 12.75 12.472656 12.550781 C 12.914062 12.339844 13.203125 12.0625 13.386719 11.832031 C 13.792969 11.449219 14.113281 11.179688 14.800781 11.179688 C 14.8125 11.179688 14.820312 11.179688 14.828125 11.179688 C 15.417969 11.183594 15.753906 11.457031 16.253906 11.902344 C 16.46875 12.097656 16.710938 12.308594 17 12.488281 L 17 10.894531 C 16.984375 10.878906 16.96875 10.863281 16.949219 10.847656 Z M 16.949219 10.847656 "/>
<path fill-rule="nonzero" fill="rgb(30%,30%,30%)" fill-opacity="1" d="M 16.949219 13.6875 C 16.441406 13.234375 15.863281 12.71875 14.839844 12.710938 C 14.828125 12.710938 14.816406 12.710938 14.804688 12.710938 C 13.800781 12.710938 13.234375 13.121094 12.800781 13.515625 C 12.800781 13.515625 12.621094 13.679688 12.613281 13.6875 C 12.40625 13.882812 12.214844 14.058594 11.988281 14.1875 C 11.742188 14.304688 11.421875 14.394531 11.007812 14.402344 C 10.410156 14.414062 10.054688 14.160156 9.660156 13.816406 C 9.617188 13.777344 9.578125 13.738281 9.539062 13.699219 C 9.214844 13.382812 8.835938 13.015625 8.222656 12.828125 C 7.976562 12.746094 7.699219 12.691406 7.375 12.6875 C 7.363281 12.6875 7.355469 12.6875 7.34375 12.6875 C 6.5 12.6875 5.964844 12.980469 5.554688 13.308594 C 5.390625 13.433594 5.242188 13.5625 5.105469 13.683594 C 4.984375 13.792969 4.871094 13.894531 4.753906 13.984375 L 4.769531 14 C 4.46875 14.238281 4.128906 14.402344 3.574219 14.402344 C 2.816406 14.402344 2.488281 14.082031 2.078125 13.675781 C 1.636719 13.25 1.09375 12.71875 0 12.691406 L 0 14 C 0.652344 14.027344 0.949219 14.3125 1.347656 14.703125 C 1.808594 15.152344 2.378906 15.710938 3.574219 15.710938 C 4.792969 15.710938 5.386719 15.152344 5.867188 14.703125 C 5.976562 14.601562 6.074219 14.507812 6.175781 14.421875 C 6.484375 14.1875 6.816406 14.023438 7.34375 14.019531 C 7.351562 14.019531 7.359375 14.019531 7.367188 14.019531 C 7.542969 14.019531 7.691406 14.035156 7.824219 14.066406 C 8.164062 14.175781 8.4375 14.402344 8.792969 14.71875 C 8.84375 14.765625 8.894531 14.8125 8.945312 14.855469 C 9.382812 15.277344 9.953125 15.730469 11.035156 15.730469 C 11.652344 15.730469 12.109375 15.589844 12.472656 15.390625 C 12.914062 15.175781 13.203125 14.898438 13.386719 14.671875 C 13.792969 14.289062 14.113281 14.019531 14.800781 14.019531 C 14.8125 14.019531 14.820312 14.019531 14.828125 14.019531 C 15.417969 14.023438 15.753906 14.296875 16.253906 14.742188 C 16.46875 14.9375 16.710938 15.148438 17 15.328125 L 17 13.734375 C 16.984375 13.71875 16.96875 13.703125 16.949219 13.6875 Z M 16.949219 13.6875 "/>
</g>
</svg>
