<?xml version="1.0" encoding="UTF-8"?>
<svg xmlns="http://www.w3.org/2000/svg" xmlns:xlink="http://www.w3.org/1999/xlink" width="11" height="7.756527" viewBox="0 0 11 7.756527">
<path fill-rule="nonzero" fill="rgb(30%,30%,30%)" fill-opacity="1" d="M 10.910156 5.289062 L 10.625 5.289062 C 10.578125 6.414062 9.671875 7.316406 8.550781 7.367188 L 8.550781 7.757812 L 8.335938 7.757812 L 8.335938 7.363281 C 7.222656 7.304688 6.332031 6.402344 6.285156 5.289062 L 5.976562 5.289062 L 5.976562 5.183594 L 6.285156 5.183594 C 6.292969 4.03125 7.199219 3.089844 8.335938 3.027344 L 8.335938 2.714844 L 8.550781 2.714844 L 8.550781 3.027344 C 9.699219 3.074219 10.621094 4.023438 10.628906 5.183594 L 10.910156 5.183594 Z M 8.550781 3.738281 C 9.3125 3.785156 9.910156 4.417969 9.917969 5.183594 L 10.386719 5.183594 C 10.378906 4.15625 9.566406 3.316406 8.550781 3.265625 Z M 6.527344 5.183594 L 6.996094 5.183594 C 7 4.425781 7.582031 3.800781 8.335938 3.738281 L 8.335938 3.269531 C 7.332031 3.332031 6.53125 4.164062 6.527344 5.183594 Z M 8.335938 6.652344 C 7.613281 6.59375 7.042969 6.011719 6.996094 5.289062 L 6.527344 5.289062 C 6.574219 6.269531 7.359375 7.0625 8.335938 7.121094 Z M 9.34375 5.195312 C 9.34375 4.703125 8.945312 4.308594 8.457031 4.308594 C 7.964844 4.308594 7.566406 4.703125 7.566406 5.195312 C 7.566406 5.6875 7.964844 6.085938 8.457031 6.085938 C 8.945312 6.085938 9.34375 5.6875 9.34375 5.195312 Z M 10.382812 5.289062 L 9.914062 5.289062 C 9.867188 6.023438 9.28125 6.605469 8.550781 6.652344 L 8.550781 7.125 C 9.539062 7.078125 10.335938 6.28125 10.382812 5.289062 Z M 8.457031 4.59375 C 8.136719 4.59375 7.878906 4.851562 7.878906 5.167969 C 7.878906 5.488281 8.136719 5.746094 8.457031 5.746094 C 8.773438 5.746094 9.03125 5.488281 9.03125 5.167969 C 9.03125 4.851562 8.773438 4.59375 8.457031 4.59375 Z M 10.972656 0.695312 C 10.96875 0.617188 10.902344 0.550781 10.824219 0.550781 L 10.457031 0.550781 C 10.453125 0.550781 10.453125 0.550781 10.453125 0.546875 L 10.453125 0.199219 C 10.453125 0.0976562 10.382812 0.0117188 10.285156 0 C 10.230469 -0.00390625 10.179688 0.0117188 10.140625 0.0507812 C 10.101562 0.0859375 10.078125 0.136719 10.078125 0.1875 L 10.078125 0.546875 C 10.078125 0.550781 10.078125 0.550781 10.074219 0.550781 L 2.960938 0.527344 C 2.894531 0.558594 2.832031 0.585938 2.765625 0.617188 L 2.640625 0.765625 C 2.640625 0.765625 2.378906 1.039062 2.378906 1.039062 C 2.378906 1.039062 1.1875 1.027344 0.648438 1.035156 C 0.5 1.039062 0.371094 1.140625 0.335938 1.285156 L 0.0078125 2.65625 C -0.0117188 2.746094 0.0078125 2.839844 0.0625 2.910156 C 0.121094 2.980469 0.207031 3.023438 0.296875 3.023438 L 1.839844 3.035156 C 1.871094 3.027344 1.902344 3.023438 1.9375 3.019531 L 2.902344 2.695312 C 2.90625 2.695312 2.90625 2.695312 2.90625 2.695312 C 2.929688 2.707031 3.355469 2.921875 3.820312 2.859375 C 4.421875 2.777344 4.367188 2.179688 4.398438 2.183594 C 4.496094 2.195312 4.648438 2.167969 4.648438 2.167969 L 5.359375 2.160156 C 5.425781 2.15625 5.492188 2.132812 5.539062 2.089844 L 6.0625 1.644531 C 6.066406 1.644531 6.066406 1.644531 6.066406 1.644531 L 10.851562 1.59375 C 10.890625 1.59375 10.929688 1.578125 10.957031 1.546875 C 10.988281 1.519531 11 1.476562 11 1.4375 Z M 3.59375 2.550781 C 3.355469 2.550781 3.160156 2.382812 3.160156 2.175781 L 4.03125 2.167969 C 4.03125 2.378906 3.835938 2.550781 3.59375 2.550781 Z M 10.703125 1.179688 L 5.988281 1.179688 L 6.152344 0.964844 L 10.703125 0.992188 Z M 10.703125 1.179688 "/>
</svg>
