<?xml version="1.0" encoding="UTF-8"?>
<svg xmlns="http://www.w3.org/2000/svg" xmlns:xlink="http://www.w3.org/1999/xlink" width="10.455468" height="11" viewBox="0 0 10.455468 11">
<path fill-rule="nonzero" fill="rgb(30%,30%,30%)" fill-opacity="1" d="M 9.417969 1.039062 C 8.035156 -0.347656 5.792969 -0.34375 4.410156 1.039062 C 3.898438 1.546875 3.480469 2.277344 3.226562 3.066406 L 7.40625 7.242188 C 8.183594 6.980469 8.90625 6.558594 9.417969 6.046875 C 10.800781 4.664062 10.800781 2.421875 9.417969 1.039062 Z M 9.417969 1.039062 "/>
<path fill-rule="nonzero" fill="rgb(30%,30%,30%)" fill-opacity="1" d="M 3.265625 6.152344 L 0 8.871094 C 0.0351562 8.90625 1.550781 10.421875 1.585938 10.457031 L 4.289062 7.207031 C 4.996094 7.570312 5.902344 7.605469 6.789062 7.414062 L 3.066406 3.691406 C 2.890625 4.5625 2.925781 5.449219 3.265625 6.152344 Z M 3.265625 6.152344 "/>
<path fill-rule="nonzero" fill="rgb(30%,30%,30%)" fill-opacity="1" d="M 4.835938 9.308594 C 4.445312 9.699219 4.4375 10.332031 4.824219 10.714844 C 5.207031 11.101562 5.835938 11.09375 6.230469 10.703125 C 6.625 10.308594 6.628906 9.675781 6.246094 9.292969 C 5.859375 8.90625 5.230469 8.914062 4.835938 9.308594 Z M 4.835938 9.308594 "/>
</svg>
