<?xml version="1.0" encoding="UTF-8" standalone="no"?>
<!-- Created with Inkscape (http://www.inkscape.org/) -->

<svg
   xmlns:dc="http://purl.org/dc/elements/1.1/"
   xmlns:cc="http://creativecommons.org/ns#"
   xmlns:rdf="http://www.w3.org/1999/02/22-rdf-syntax-ns#"
   xmlns:svg="http://www.w3.org/2000/svg"
   xmlns="http://www.w3.org/2000/svg"
   xmlns:xlink="http://www.w3.org/1999/xlink"
   xmlns:sodipodi="http://sodipodi.sourceforge.net/DTD/sodipodi-0.dtd"
   xmlns:inkscape="http://www.inkscape.org/namespaces/inkscape"
   width="30px"
   height="30px"
   version="1.1"
   id="svg8"
   inkscape:version="0.92.4 5da689c313, 2019-01-14"
   sodipodi:docname="container.svg">
  <defs
     id="defs2" />
  <sodipodi:namedview
     id="base"
     pagecolor="#ffffff"
     bordercolor="#666666"
     borderopacity="1.0"
     inkscape:pageopacity="0.0"
     inkscape:pageshadow="2"
     inkscape:zoom="13.049334"
     inkscape:cx="18.679046"
     inkscape:cy="12.165829"
     inkscape:document-units="px"
     inkscape:current-layer="layer1"
     showgrid="false"
     inkscape:snap-page="false"
     units="px"
     inkscape:window-width="1884"
     inkscape:window-height="1061"
     inkscape:window-x="0"
     inkscape:window-y="0"
     inkscape:window-maximized="1"
     fit-margin-top="0"
     fit-margin-left="0"
     fit-margin-right="0"
     fit-margin-bottom="0" />
  <metadata
     id="metadata5">
    <rdf:RDF>
      <cc:Work
         rdf:about="">
        <dc:format>image/svg+xml</dc:format>
        <dc:type
           rdf:resource="http://purl.org/dc/dcmitype/StillImage" />
        <dc:title></dc:title>
      </cc:Work>
    </rdf:RDF>
  </metadata>
    <circle
       style="color:#000000;clip-rule:nonzero;display:inline;overflow:visible;visibility:visible;opacity:1;isolation:auto;mix-blend-mode:normal;color-interpolation:sRGB;color-interpolation-filters:linearRGB;solid-color:#000000;solid-opacity:1;vector-effect:none;fill:#ffffff;fill-opacity:1;fill-rule:evenodd;stroke:#00a757;stroke-width:1;stroke-linecap:butt;stroke-linejoin:miter;stroke-miterlimit:4;stroke-dasharray:none;stroke-dashoffset:0;stroke-opacity:1;marker:none;color-rendering:auto;image-rendering:auto;shape-rendering:auto;text-rendering:auto;enable-background:accumulate"
       id="path815"
       cx="15"
       cy="15"
       r="14.5" />
<g transform="translate(9.0,6.5)"><path fill-rule="nonzero" fill="rgb(30%,30%,30%)" fill-opacity="1" d="M 7.273438 14.773438 C 7.273438 15.5 6.683594 16.089844 5.957031 16.089844 C 5.230469 16.089844 4.640625 15.5 4.640625 14.773438 C 4.640625 14.042969 5.230469 13.453125 5.957031 13.453125 C 6.683594 13.453125 7.273438 14.042969 7.273438 14.773438 Z M 11.730469 16.078125 L 11.21875 15.542969 L 7.800781 11.855469 L 7.800781 0.703125 C 7.800781 0.316406 7.484375 0 7.097656 0 L 7.054688 0 C 6.667969 0 6.351562 0.316406 6.351562 0.703125 L 6.351562 6.238281 L 5.691406 6.238281 L 5.691406 0.703125 C 5.691406 0.316406 5.378906 0 4.988281 0 L 4.945312 0 C 4.558594 0 4.246094 0.316406 4.242188 0.703125 L 4.242188 11.875 L 1.03125 15.21875 L 0.152344 16.101562 C -0.0507812 16.304688 -0.0507812 16.628906 0.152344 16.832031 L 0.167969 16.847656 C 0.371094 17.050781 0.695312 17.050781 0.898438 16.847656 L 2.03125 15.71875 C 2.046875 15.699219 2.0625 15.683594 2.074219 15.664062 L 5.082031 12.691406 L 6.960938 12.691406 L 10.050781 15.847656 L 10.964844 16.808594 C 11.164062 17.015625 11.492188 17.023438 11.699219 16.828125 L 11.714844 16.8125 C 11.921875 16.613281 11.929688 16.285156 11.730469 16.078125 Z M 11.730469 16.078125 "/>
</g>
</svg>
