<?xml version="1.0" encoding="UTF-8"?>
<svg xmlns="http://www.w3.org/2000/svg" xmlns:xlink="http://www.w3.org/1999/xlink" width="7.829548" height="11" viewBox="0 0 7.829548 11">
<path fill-rule="nonzero" fill="rgb(30%,30%,30%)" fill-opacity="1" d="M 1.371094 3.582031 C 1.386719 3.210938 1.089844 2.878906 0.710938 2.847656 C 0.332031 2.8125 0.0117188 3.085938 0 3.460938 C -0.0117188 3.832031 0.285156 4.164062 0.664062 4.195312 C 1.042969 4.230469 1.359375 3.957031 1.371094 3.582031 Z M 1.371094 3.582031 "/>
<path fill-rule="nonzero" fill="rgb(30%,30%,30%)" fill-opacity="1" d="M 4.9375 0 C 4.902344 0 4.835938 0.09375 4.761719 0.230469 C 4.761719 0.242188 4.761719 0.253906 4.765625 0.265625 C 4.773438 0.292969 4.792969 0.320312 4.816406 0.34375 C 4.820312 0.351562 4.820312 0.363281 4.8125 0.371094 C 4.769531 0.410156 4.71875 0.441406 4.679688 0.484375 C 4.632812 0.527344 4.605469 0.582031 4.585938 0.640625 C 4.570312 0.707031 4.589844 0.78125 4.554688 0.839844 C 4.539062 0.859375 4.523438 0.875 4.507812 0.898438 C 4.496094 0.921875 4.503906 0.941406 4.519531 0.960938 C 4.527344 0.972656 4.527344 0.984375 4.515625 0.992188 C 4.488281 1.015625 4.464844 1.046875 4.441406 1.078125 C 4.417969 1.109375 4.398438 1.144531 4.382812 1.183594 C 4.375 1.199219 4.371094 1.21875 4.367188 1.238281 C 4.363281 1.253906 4.359375 1.269531 4.355469 1.28125 C 4.347656 1.3125 4.347656 1.34375 4.339844 1.375 C 4.328125 1.445312 4.265625 1.46875 4.222656 1.503906 C 4.214844 1.511719 4.207031 1.519531 4.199219 1.527344 C 4.179688 1.574219 4.160156 1.625 4.144531 1.671875 C 4.144531 1.6875 4.144531 1.703125 4.148438 1.722656 C 4.15625 1.765625 4.164062 1.808594 4.160156 1.855469 C 4.160156 1.894531 4.152344 1.929688 4.140625 1.96875 C 4.113281 2.039062 4.074219 2.101562 4.035156 2.164062 C 3.992188 2.226562 3.953125 2.289062 3.921875 2.363281 C 3.90625 2.398438 3.894531 2.4375 3.886719 2.472656 C 3.878906 2.507812 3.878906 2.539062 3.886719 2.570312 C 3.898438 2.617188 3.914062 2.660156 3.925781 2.707031 C 3.933594 2.746094 3.933594 2.785156 3.925781 2.824219 C 3.921875 2.859375 3.914062 2.894531 3.902344 2.925781 C 3.902344 2.929688 3.898438 2.9375 3.898438 2.941406 C 3.917969 2.945312 3.980469 3.09375 3.960938 3.199219 C 3.945312 3.308594 3.839844 3.328125 3.820312 3.433594 C 3.785156 3.648438 3.820312 3.925781 3.839844 4.121094 C 3.839844 4.128906 3.839844 4.132812 3.839844 4.140625 C 3.636719 4.363281 3.320312 4.710938 3.113281 4.914062 C 3.109375 4.921875 3.101562 4.921875 3.09375 4.917969 C 3.085938 4.914062 3.082031 4.910156 3.082031 4.902344 C 3.097656 4.777344 3.105469 4.652344 3.117188 4.527344 C 3.117188 4.523438 3.121094 4.519531 3.125 4.515625 C 3.167969 4.480469 3.207031 4.441406 3.242188 4.394531 C 3.242188 4.394531 3.246094 4.390625 3.246094 4.386719 L 3.378906 2.523438 C 3.378906 2.523438 3.378906 2.523438 3.378906 2.519531 C 3.640625 1.691406 4.09375 0.25 4.160156 0.0390625 C 4.160156 0.0351562 4.160156 0.0273438 4.15625 0.0234375 C 4.152344 0.0195312 4.148438 0.015625 4.140625 0.015625 L 4.132812 0.015625 C 4.125 0.015625 4.117188 0.0195312 4.113281 0.0273438 C 4.050781 0.242188 3.652344 1.492188 3.382812 2.328125 C 3.382812 2.332031 3.375 2.339844 3.371094 2.339844 C 3.363281 2.339844 3.355469 2.335938 3.351562 2.328125 C 3.34375 2.3125 3.332031 2.296875 3.316406 2.28125 C 3.3125 2.277344 3.308594 2.273438 3.308594 2.265625 C 3.488281 1.148438 3.640625 0.171875 3.664062 0.0195312 C 3.667969 0.0117188 3.660156 0 3.648438 0 C 3.640625 0 3.632812 0.00390625 3.628906 0.015625 C 3.605469 0.160156 3.449219 1.125 3.269531 2.234375 C 3.269531 2.246094 3.257812 2.25 3.25 2.25 C 3.238281 2.25 3.230469 2.25 3.21875 2.25 C 3.113281 2.265625 2.964844 2.363281 2.953125 2.480469 C 2.953125 2.480469 2.625 3.8125 2.609375 4.222656 C 2.609375 4.226562 2.605469 4.230469 2.601562 4.234375 C 2.597656 4.238281 2.59375 4.242188 2.589844 4.238281 C 2.394531 4.214844 1.832031 4.1875 1.667969 4.226562 L 0.898438 4.472656 C 0.621094 4.539062 0.496094 4.828125 0.5625 5.035156 C 0.5625 5.035156 0.5625 5.035156 0.5625 5.039062 L 1.539062 7.140625 C 1.835938 7.96875 2.730469 8.375 3.285156 8.683594 C 3.289062 8.6875 3.292969 8.695312 3.292969 8.699219 C 3.292969 8.707031 3.292969 8.710938 3.292969 8.71875 C 3.292969 8.71875 3.292969 8.722656 3.292969 8.722656 L 3.65625 10.757812 C 3.664062 10.886719 3.855469 10.988281 3.996094 11 C 4.132812 11.011719 4.230469 10.917969 4.21875 10.789062 L 4.085938 8.652344 C 4.082031 8.636719 4.078125 8.414062 4.019531 8.367188 L 3.09375 7.601562 C 3.089844 7.597656 3.085938 7.59375 3.085938 7.585938 C 3.085938 7.582031 3.089844 7.574219 3.097656 7.574219 C 3.398438 7.410156 3.75 7.203125 3.984375 7.019531 C 3.992188 7.015625 4.003906 7.015625 4.007812 7.023438 L 5.085938 8.257812 C 5.160156 8.367188 5.378906 8.359375 5.507812 8.300781 C 5.632812 8.246094 5.667969 8.121094 5.59375 8.011719 L 4.367188 6.242188 C 4.292969 6.132812 4.097656 6.113281 3.929688 6.191406 C 3.90625 6.203125 3.886719 6.21875 3.863281 6.234375 C 3.863281 6.238281 3.863281 6.238281 3.863281 6.238281 L 3.335938 6.535156 C 3.292969 6.394531 3.25 6.25 3.207031 6.109375 C 3.226562 6.105469 3.242188 6.101562 3.261719 6.097656 C 3.289062 6.09375 3.296875 6.066406 3.292969 6.046875 C 3.285156 5.988281 3.273438 5.925781 3.238281 5.875 C 3.207031 5.832031 3.164062 5.800781 3.113281 5.777344 C 3.109375 5.757812 3.105469 5.742188 3.101562 5.722656 C 3.09375 5.699219 3.085938 5.671875 3.082031 5.648438 C 3.121094 5.636719 3.152344 5.605469 3.171875 5.570312 C 3.171875 5.566406 3.171875 5.566406 3.171875 5.566406 L 3.984375 4.597656 C 4 4.632812 4.015625 4.671875 4.03125 4.71875 C 4.066406 4.785156 4.015625 4.890625 4.050781 4.996094 C 4.085938 5.105469 4.207031 5.148438 4.261719 5.296875 C 4.292969 5.417969 4.269531 5.542969 4.28125 5.65625 C 4.285156 5.65625 4.289062 5.660156 4.292969 5.660156 C 4.300781 5.664062 4.304688 5.667969 4.3125 5.671875 C 4.316406 5.667969 4.320312 5.667969 4.328125 5.667969 C 4.332031 5.671875 4.335938 5.679688 4.335938 5.683594 C 4.359375 5.703125 4.382812 5.722656 4.410156 5.738281 C 4.433594 5.753906 4.457031 5.777344 4.472656 5.800781 C 4.503906 5.839844 4.519531 5.90625 4.5625 5.925781 C 4.613281 5.953125 4.671875 5.9375 4.726562 5.933594 C 4.761719 5.929688 4.816406 6.046875 4.824219 6.070312 C 4.851562 6.078125 4.875 6.085938 4.902344 6.097656 C 4.921875 6.085938 4.941406 6.070312 4.960938 6.074219 C 5.007812 6.082031 5.054688 6.101562 5.097656 6.125 C 5.128906 6.140625 5.15625 6.164062 5.175781 6.191406 C 5.179688 6.1875 5.183594 6.1875 5.1875 6.1875 C 5.191406 6.191406 5.191406 6.195312 5.195312 6.199219 C 5.195312 6.207031 5.199219 6.214844 5.199219 6.222656 C 5.234375 6.34375 5.296875 6.457031 5.277344 6.589844 C 5.308594 6.601562 5.335938 6.628906 5.347656 6.660156 C 5.351562 6.675781 5.355469 6.695312 5.355469 6.710938 C 5.351562 6.726562 5.347656 6.742188 5.34375 6.757812 C 5.335938 6.777344 5.335938 6.796875 5.339844 6.816406 C 5.34375 6.828125 5.351562 6.84375 5.363281 6.855469 C 5.378906 6.878906 5.402344 6.894531 5.421875 6.917969 C 5.445312 6.945312 5.453125 6.976562 5.460938 7.011719 C 5.464844 7.027344 5.46875 7.042969 5.480469 7.058594 C 5.488281 7.070312 5.503906 7.066406 5.515625 7.066406 C 5.542969 7.0625 5.578125 7.054688 5.601562 7.082031 C 5.609375 7.09375 5.617188 7.109375 5.617188 7.125 C 5.621094 7.140625 5.621094 7.152344 5.628906 7.160156 C 5.691406 7.222656 5.761719 7.265625 5.824219 7.324219 C 5.890625 7.382812 5.945312 7.453125 5.988281 7.53125 C 5.996094 7.546875 6.003906 7.566406 6.011719 7.585938 C 6.054688 7.65625 6.085938 7.738281 6.097656 7.820312 C 6.109375 7.855469 6.121094 7.894531 6.132812 7.925781 C 6.136719 7.914062 6.109375 8.054688 6.109375 8.105469 C 6.117188 8.097656 6.144531 8.261719 6.121094 8.324219 C 6.109375 8.347656 6.097656 8.367188 6.082031 8.382812 C 6.078125 8.417969 6.074219 8.453125 6.070312 8.488281 C 6.082031 8.5 6.089844 8.511719 6.097656 8.523438 C 6.109375 8.554688 6.117188 8.585938 6.117188 8.617188 C 6.121094 8.652344 6.121094 8.6875 6.125 8.722656 C 6.125 8.75 6.125 8.78125 6.136719 8.808594 C 6.148438 8.832031 6.167969 8.847656 6.179688 8.871094 C 6.203125 8.90625 6.214844 8.945312 6.214844 8.988281 C 6.214844 9.035156 6.207031 9.085938 6.210938 9.132812 C 6.21875 9.171875 6.230469 9.210938 6.253906 9.246094 C 6.269531 9.273438 6.285156 9.304688 6.296875 9.335938 C 6.3125 9.378906 6.316406 9.429688 6.320312 9.476562 C 6.332031 9.554688 6.34375 9.632812 6.351562 9.707031 C 6.355469 9.722656 6.378906 9.789062 6.375 9.804688 C 6.441406 10.121094 6.523438 10.363281 6.539062 10.707031 L 7.828125 10.707031 L 7.828125 0 C 7.828125 0 5.9375 0 4.9375 0 Z M 2.332031 4.777344 L 2.859375 4.613281 C 2.867188 4.609375 2.875 4.613281 2.878906 4.617188 C 2.882812 4.621094 2.886719 4.625 2.882812 4.632812 C 2.863281 4.757812 2.84375 4.878906 2.824219 4.992188 C 2.824219 5 2.820312 5.003906 2.816406 5.007812 C 2.8125 5.007812 2.804688 5.007812 2.800781 5.007812 C 2.683594 4.949219 2.515625 4.875 2.425781 4.832031 C 2.417969 4.832031 2.367188 4.808594 2.320312 4.792969 C 2.324219 4.785156 2.328125 4.78125 2.332031 4.777344 Z M 2.859375 5.855469 C 2.847656 5.800781 2.824219 5.753906 2.792969 5.707031 C 2.800781 5.703125 2.785156 5.714844 2.757812 5.730469 C 2.761719 5.699219 2.769531 5.667969 2.773438 5.628906 C 2.773438 5.621094 2.785156 5.613281 2.792969 5.617188 C 2.855469 5.625 2.90625 5.628906 2.917969 5.632812 C 2.898438 5.699219 2.878906 5.773438 2.859375 5.855469 Z M 2.949219 5.640625 C 2.980469 5.648438 3.011719 5.652344 3.042969 5.652344 C 3.054688 5.691406 3.0625 5.730469 3.074219 5.769531 C 3.066406 5.773438 3.0625 5.777344 3.058594 5.78125 C 2.996094 5.851562 2.933594 5.917969 2.875 5.988281 C 2.875 5.972656 2.875 5.957031 2.871094 5.941406 C 2.898438 5.832031 2.925781 5.726562 2.949219 5.640625 Z M 2.734375 6.316406 L 2.535156 5.589844 C 2.574219 5.589844 2.617188 5.59375 2.621094 5.59375 C 2.648438 5.597656 2.679688 5.601562 2.710938 5.605469 C 2.714844 5.605469 2.71875 5.609375 2.722656 5.613281 C 2.722656 5.617188 2.726562 5.621094 2.722656 5.625 C 2.714844 5.679688 2.707031 5.730469 2.699219 5.769531 C 2.679688 5.785156 2.664062 5.800781 2.652344 5.804688 C 2.648438 5.808594 2.648438 5.8125 2.648438 5.8125 C 2.628906 5.863281 2.648438 5.953125 2.667969 6.003906 C 2.667969 6.007812 2.671875 6.011719 2.679688 6.011719 C 2.722656 6.023438 2.769531 6.027344 2.8125 6.023438 C 2.808594 6.042969 2.800781 6.066406 2.796875 6.085938 C 2.773438 6.117188 2.75 6.148438 2.726562 6.183594 C 2.71875 6.195312 2.71875 6.21875 2.730469 6.230469 C 2.738281 6.238281 2.746094 6.246094 2.753906 6.246094 C 2.746094 6.269531 2.742188 6.292969 2.734375 6.316406 Z M 3.277344 6.464844 C 3.285156 6.496094 3.296875 6.523438 3.304688 6.554688 L 2.886719 6.792969 C 2.882812 6.796875 2.878906 6.796875 2.871094 6.792969 C 2.867188 6.789062 2.863281 6.785156 2.863281 6.78125 C 2.855469 6.757812 2.851562 6.734375 2.84375 6.710938 L 2.757812 6.402344 C 2.773438 6.347656 2.785156 6.292969 2.800781 6.238281 C 2.921875 6.195312 3.042969 6.148438 3.171875 6.117188 C 3.207031 6.234375 3.242188 6.347656 3.277344 6.464844 Z M 3.160156 5.917969 C 3.179688 5.949219 3.195312 5.984375 3.199219 6.023438 C 3.195312 6.023438 3.1875 6.023438 3.183594 6.027344 C 3.171875 5.984375 3.160156 5.945312 3.148438 5.90625 C 3.152344 5.910156 3.15625 5.914062 3.160156 5.917969 Z M 3.097656 5.867188 C 3.101562 5.867188 3.101562 5.867188 3.101562 5.867188 C 3.105469 5.878906 3.105469 5.890625 3.109375 5.898438 C 3.121094 5.945312 3.136719 5.988281 3.148438 6.035156 C 3.058594 6.054688 2.96875 6.082031 2.882812 6.117188 C 2.953125 6.03125 3.027344 5.949219 3.097656 5.867188 Z M 3.039062 4.984375 C 3.039062 4.988281 3.035156 4.992188 3.03125 4.996094 C 2.988281 5.035156 2.953125 5.066406 2.933594 5.078125 C 2.925781 5.082031 2.917969 5.078125 2.914062 5.074219 C 2.902344 5.066406 2.890625 5.054688 2.878906 5.050781 C 2.871094 5.046875 2.871094 5.039062 2.871094 5.03125 C 2.890625 4.898438 2.914062 4.75 2.941406 4.597656 C 2.941406 4.589844 2.945312 4.585938 2.953125 4.582031 L 3.070312 4.546875 C 3.074219 4.546875 3.078125 4.542969 3.082031 4.542969 C 3.070312 4.6875 3.054688 4.835938 3.039062 4.984375 Z M 3.039062 4.984375 "/>
</svg>
