<?xml version="1.0" encoding="UTF-8" standalone="no"?>
<!-- Created with Inkscape (http://www.inkscape.org/) -->

<svg
   xmlns:dc="http://purl.org/dc/elements/1.1/"
   xmlns:cc="http://creativecommons.org/ns#"
   xmlns:rdf="http://www.w3.org/1999/02/22-rdf-syntax-ns#"
   xmlns:svg="http://www.w3.org/2000/svg"
   xmlns="http://www.w3.org/2000/svg"
   xmlns:xlink="http://www.w3.org/1999/xlink"
   xmlns:sodipodi="http://sodipodi.sourceforge.net/DTD/sodipodi-0.dtd"
   xmlns:inkscape="http://www.inkscape.org/namespaces/inkscape"
   width="30px"
   height="30px"
   version="1.1"
   id="svg8"
   inkscape:version="0.92.4 5da689c313, 2019-01-14"
   sodipodi:docname="container.svg">
  <defs
     id="defs2" />
  <sodipodi:namedview
     id="base"
     pagecolor="#ffffff"
     bordercolor="#666666"
     borderopacity="1.0"
     inkscape:pageopacity="0.0"
     inkscape:pageshadow="2"
     inkscape:zoom="13.049334"
     inkscape:cx="18.679046"
     inkscape:cy="12.165829"
     inkscape:document-units="px"
     inkscape:current-layer="layer1"
     showgrid="false"
     inkscape:snap-page="false"
     units="px"
     inkscape:window-width="1884"
     inkscape:window-height="1061"
     inkscape:window-x="0"
     inkscape:window-y="0"
     inkscape:window-maximized="1"
     fit-margin-top="0"
     fit-margin-left="0"
     fit-margin-right="0"
     fit-margin-bottom="0" />
  <metadata
     id="metadata5">
    <rdf:RDF>
      <cc:Work
         rdf:about="">
        <dc:format>image/svg+xml</dc:format>
        <dc:type
           rdf:resource="http://purl.org/dc/dcmitype/StillImage" />
        <dc:title></dc:title>
      </cc:Work>
    </rdf:RDF>
  </metadata>
    <circle
       style="color:#000000;clip-rule:nonzero;display:inline;overflow:visible;visibility:visible;opacity:1;isolation:auto;mix-blend-mode:normal;color-interpolation:sRGB;color-interpolation-filters:linearRGB;solid-color:#000000;solid-opacity:1;vector-effect:none;fill:#00a757;fill-opacity:1;fill-rule:evenodd;stroke:#ffffff;stroke-width:1;stroke-linecap:butt;stroke-linejoin:miter;stroke-miterlimit:4;stroke-dasharray:none;stroke-dashoffset:0;stroke-opacity:1;marker:none;color-rendering:auto;image-rendering:auto;shape-rendering:auto;text-rendering:auto;enable-background:accumulate"
       id="path815"
       cx="15"
       cy="15"
       r="14.5" />
<g transform="translate(7.0,6.5)"><path fill-rule="nonzero" fill="#FFFFFF" fill-opacity="1" d="M 10.808594 5.078125 C 10.667969 4.695312 10.242188 4.5 9.859375 4.640625 L 8.515625 5.125 L 6.652344 3.492188 C 6.480469 3.34375 6.257812 3.277344 6.035156 3.308594 C 6.035156 3.308594 6.03125 3.308594 6.03125 3.308594 C 5.851562 3.289062 5.671875 3.324219 5.511719 3.40625 L 2.875 4.058594 C 2.621094 4.121094 2.417969 4.308594 2.332031 4.554688 C 2.3125 4.59375 2.296875 4.636719 2.285156 4.679688 L 1.796875 6.554688 C 1.695312 6.945312 1.933594 7.34375 2.324219 7.445312 C 2.324219 7.445312 2.328125 7.449219 2.328125 7.449219 C 2.386719 7.464844 2.449219 7.472656 2.511719 7.472656 C 2.847656 7.472656 3.144531 7.246094 3.230469 6.921875 L 3.609375 5.460938 L 4.898438 5.140625 L 4.585938 8.609375 C 4.578125 8.695312 4.582031 8.78125 4.597656 8.863281 C 4.574219 8.902344 4.558594 8.945312 4.542969 8.984375 L 3.757812 11.332031 L 1.347656 11.980469 C 0.9375 12.09375 0.699219 12.515625 0.8125 12.921875 C 0.921875 13.332031 1.34375 13.574219 1.753906 13.460938 L 4.554688 12.710938 C 4.582031 12.703125 4.609375 12.691406 4.636719 12.683594 C 4.640625 12.683594 4.640625 12.679688 4.644531 12.679688 C 4.652344 12.675781 4.660156 12.671875 4.667969 12.667969 C 4.671875 12.667969 4.675781 12.667969 4.679688 12.664062 C 4.6875 12.660156 4.695312 12.65625 4.703125 12.652344 C 4.710938 12.652344 4.71875 12.648438 4.726562 12.644531 C 4.730469 12.640625 4.734375 12.636719 4.738281 12.636719 C 4.742188 12.632812 4.75 12.628906 4.757812 12.625 C 4.757812 12.625 4.761719 12.621094 4.765625 12.621094 C 4.773438 12.617188 4.777344 12.613281 4.785156 12.609375 C 4.789062 12.605469 4.789062 12.605469 4.792969 12.605469 C 4.804688 12.597656 4.816406 12.585938 4.828125 12.578125 C 4.832031 12.578125 4.832031 12.574219 4.835938 12.574219 C 4.839844 12.570312 4.84375 12.566406 4.847656 12.5625 C 4.855469 12.558594 4.859375 12.554688 4.863281 12.550781 C 4.867188 12.546875 4.871094 12.542969 4.875 12.542969 C 4.878906 12.535156 4.886719 12.53125 4.890625 12.523438 C 4.894531 12.523438 4.894531 12.519531 4.898438 12.519531 C 4.960938 12.460938 5.011719 12.390625 5.050781 12.316406 C 5.050781 12.316406 5.050781 12.3125 5.054688 12.3125 C 5.058594 12.304688 5.0625 12.296875 5.066406 12.285156 C 5.066406 12.28125 5.070312 12.277344 5.070312 12.273438 C 5.074219 12.269531 5.074219 12.261719 5.078125 12.257812 C 5.082031 12.25 5.082031 12.246094 5.085938 12.242188 C 5.085938 12.238281 5.085938 12.234375 5.089844 12.230469 C 5.089844 12.222656 5.09375 12.214844 5.097656 12.207031 L 5.789062 10.140625 L 6.921875 11.015625 L 6.625 13.792969 C 6.582031 14.214844 6.890625 14.59375 7.3125 14.636719 C 7.3125 14.636719 7.3125 14.636719 7.316406 14.636719 C 7.34375 14.640625 7.371094 14.640625 7.398438 14.640625 C 7.789062 14.640625 8.121094 14.347656 8.164062 13.953125 L 8.503906 10.75 C 8.503906 10.746094 8.503906 10.738281 8.507812 10.734375 C 8.507812 10.730469 8.507812 10.726562 8.507812 10.722656 C 8.507812 10.710938 8.507812 10.703125 8.507812 10.695312 C 8.507812 10.691406 8.507812 10.6875 8.507812 10.683594 C 8.507812 10.675781 8.507812 10.664062 8.507812 10.652344 C 8.507812 10.652344 8.507812 10.652344 8.507812 10.648438 C 8.507812 10.636719 8.507812 10.625 8.507812 10.613281 C 8.503906 10.554688 8.492188 10.492188 8.472656 10.433594 C 8.472656 10.433594 8.46875 10.433594 8.46875 10.433594 C 8.464844 10.421875 8.464844 10.410156 8.460938 10.402344 C 8.457031 10.398438 8.457031 10.394531 8.457031 10.394531 C 8.453125 10.386719 8.449219 10.378906 8.445312 10.371094 C 8.445312 10.363281 8.441406 10.359375 8.441406 10.355469 C 8.4375 10.351562 8.433594 10.34375 8.433594 10.339844 C 8.429688 10.332031 8.425781 10.324219 8.421875 10.320312 C 8.421875 10.316406 8.417969 10.3125 8.414062 10.308594 C 8.410156 10.300781 8.40625 10.292969 8.402344 10.285156 C 8.402344 10.28125 8.398438 10.277344 8.398438 10.277344 C 8.394531 10.269531 8.386719 10.257812 8.382812 10.25 C 8.382812 10.25 8.378906 10.246094 8.378906 10.246094 C 8.371094 10.238281 8.367188 10.230469 8.359375 10.21875 C 8.359375 10.21875 8.359375 10.21875 8.359375 10.214844 C 8.351562 10.207031 8.34375 10.199219 8.339844 10.191406 C 8.335938 10.1875 8.335938 10.1875 8.335938 10.1875 C 8.328125 10.179688 8.320312 10.171875 8.316406 10.164062 C 8.3125 10.160156 8.3125 10.160156 8.308594 10.15625 C 8.304688 10.148438 8.296875 10.144531 8.289062 10.136719 C 8.289062 10.132812 8.285156 10.132812 8.28125 10.128906 C 8.277344 10.121094 8.269531 10.117188 8.265625 10.113281 C 8.261719 10.109375 8.253906 10.105469 8.25 10.097656 C 8.246094 10.09375 8.242188 10.09375 8.238281 10.089844 C 8.230469 10.082031 8.226562 10.078125 8.21875 10.074219 C 8.214844 10.070312 8.214844 10.066406 8.210938 10.066406 L 6.507812 8.75 L 6.785156 5.65625 L 7.726562 6.480469 C 7.929688 6.707031 8.246094 6.785156 8.53125 6.683594 L 10.367188 6.019531 C 10.746094 5.882812 10.945312 5.464844 10.808594 5.085938 C 10.808594 5.082031 10.808594 5.082031 10.808594 5.078125 Z M 10.808594 5.078125 "/>
<path fill-rule="nonzero" fill="#FFFFFF" fill-opacity="1" d="M 7.722656 1.363281 C 7.722656 2.117188 7.105469 2.730469 6.347656 2.730469 C 5.585938 2.730469 4.972656 2.117188 4.972656 1.363281 C 4.972656 0.609375 5.585938 0 6.347656 0 C 7.105469 0 7.722656 0.609375 7.722656 1.363281 Z M 7.722656 1.363281 "/>
<path fill-rule="nonzero" fill="#FFFFFF" fill-opacity="1" d="M 15.925781 15.832031 C 15.921875 15.765625 15.910156 15.703125 15.890625 15.640625 L 13.546875 7.164062 C 13.523438 7.09375 13.492188 7.027344 13.453125 6.964844 L 14.296875 5.46875 C 14.429688 5.226562 14.347656 4.921875 14.105469 4.785156 C 14.105469 4.785156 14.101562 4.785156 14.101562 4.785156 C 13.855469 4.648438 13.546875 4.734375 13.410156 4.976562 L 12.304688 6.941406 L 10.699219 6.941406 C 10.449219 6.941406 10.246094 7.140625 10.242188 7.390625 C 10.242188 7.640625 10.441406 7.84375 10.691406 7.84375 C 10.691406 7.84375 10.695312 7.84375 10.699219 7.84375 L 12.515625 7.84375 L 14.527344 15.121094 L 0.949219 15.121094 C 0.425781 15.117188 0.00390625 15.539062 0 16.0625 C 0 16.578125 0.425781 17 0.949219 17 L 15.007812 17 C 15.53125 17 15.953125 16.578125 15.953125 16.0625 C 15.953125 15.984375 15.945312 15.90625 15.925781 15.832031 Z M 15.925781 15.832031 "/>
</g>
</svg>
