<?xml version="1.0" encoding="UTF-8" standalone="no"?>
<!-- Created with Inkscape (http://www.inkscape.org/) -->

<svg
   xmlns:dc="http://purl.org/dc/elements/1.1/"
   xmlns:cc="http://creativecommons.org/ns#"
   xmlns:rdf="http://www.w3.org/1999/02/22-rdf-syntax-ns#"
   xmlns:svg="http://www.w3.org/2000/svg"
   xmlns="http://www.w3.org/2000/svg"
   xmlns:xlink="http://www.w3.org/1999/xlink"
   xmlns:sodipodi="http://sodipodi.sourceforge.net/DTD/sodipodi-0.dtd"
   xmlns:inkscape="http://www.inkscape.org/namespaces/inkscape"
   width="30px"
   height="30px"
   version="1.1"
   id="svg8"
   inkscape:version="0.92.4 5da689c313, 2019-01-14"
   sodipodi:docname="container.svg">
  <defs
     id="defs2" />
  <sodipodi:namedview
     id="base"
     pagecolor="#ffffff"
     bordercolor="#666666"
     borderopacity="1.0"
     inkscape:pageopacity="0.0"
     inkscape:pageshadow="2"
     inkscape:zoom="13.049334"
     inkscape:cx="18.679046"
     inkscape:cy="12.165829"
     inkscape:document-units="px"
     inkscape:current-layer="layer1"
     showgrid="false"
     inkscape:snap-page="false"
     units="px"
     inkscape:window-width="1884"
     inkscape:window-height="1061"
     inkscape:window-x="0"
     inkscape:window-y="0"
     inkscape:window-maximized="1"
     fit-margin-top="0"
     fit-margin-left="0"
     fit-margin-right="0"
     fit-margin-bottom="0" />
  <metadata
     id="metadata5">
    <rdf:RDF>
      <cc:Work
         rdf:about="">
        <dc:format>image/svg+xml</dc:format>
        <dc:type
           rdf:resource="http://purl.org/dc/dcmitype/StillImage" />
        <dc:title></dc:title>
      </cc:Work>
    </rdf:RDF>
  </metadata>
    <circle
       style="color:#000000;clip-rule:nonzero;display:inline;overflow:visible;visibility:visible;opacity:1;isolation:auto;mix-blend-mode:normal;color-interpolation:sRGB;color-interpolation-filters:linearRGB;solid-color:#000000;solid-opacity:1;vector-effect:none;fill:#00a757;fill-opacity:1;fill-rule:evenodd;stroke:#ffffff;stroke-width:1;stroke-linecap:butt;stroke-linejoin:miter;stroke-miterlimit:4;stroke-dasharray:none;stroke-dashoffset:0;stroke-opacity:1;marker:none;color-rendering:auto;image-rendering:auto;shape-rendering:auto;text-rendering:auto;enable-background:accumulate"
       id="path815"
       cx="15"
       cy="15"
       r="14.5" />
<g transform="translate(7.5,6.5)"><path fill-rule="nonzero" fill="#FFFFFF" fill-opacity="1" d="M 9.898438 15.386719 C 7.894531 15.902344 5.746094 15.960938 3.730469 15.394531 C 2.820312 15.136719 1.765625 14.710938 1.445312 13.71875 C 1.152344 12.714844 1.9375 11.964844 2.820312 11.679688 C 3.0625 11.597656 3.304688 11.542969 3.558594 11.523438 C 3.558594 11.523438 3.59375 11.613281 3.59375 11.613281 C 3.148438 11.976562 2.050781 12.746094 2.367188 13.402344 C 2.4375 13.550781 2.535156 13.664062 2.65625 13.78125 C 2.789062 13.910156 2.949219 14.035156 3.125 14.152344 C 3.851562 14.65625 4.78125 14.921875 5.652344 15.097656 C 7.042969 15.375 8.460938 15.441406 9.882812 15.292969 C 9.882812 15.292969 9.898438 15.386719 9.898438 15.386719 Z M 9.898438 15.386719 "/>
<path fill-rule="nonzero" fill="#FFFFFF" fill-opacity="1" d="M 11.46875 11.523438 C 11.984375 11.601562 12.496094 11.765625 12.925781 12.066406 C 13.175781 12.246094 13.378906 12.476562 13.527344 12.753906 C 13.703125 13.074219 13.742188 13.46875 13.554688 13.792969 C 13.347656 14.167969 13.050781 14.277344 12.511719 14.386719 C 12.511719 14.386719 12.210938 14.445312 12.210938 14.445312 C 12.214844 14.414062 12.453125 14.25 12.46875 14.234375 C 12.699219 14.003906 13.417969 13.554688 12.839844 12.800781 C 12.578125 12.460938 12.164062 12.167969 11.828125 11.902344 C 11.703125 11.804688 11.570312 11.707031 11.433594 11.613281 Z M 11.46875 11.523438 "/>
<path fill-rule="nonzero" fill="#FFFFFF" fill-opacity="1" d="M 5.347656 16.597656 C 7.457031 16.792969 9.644531 16.578125 11.617188 15.777344 C 12.605469 15.363281 13.667969 14.722656 14.023438 13.664062 C 14.445312 12.292969 12.886719 11.214844 11.914062 10.527344 C 11.914062 10.527344 11.949219 10.433594 11.949219 10.433594 C 12.753906 10.566406 13.539062 10.894531 14.164062 11.433594 C 14.894531 12.054688 15.300781 13.019531 14.992188 13.96875 C 14.777344 14.664062 14.222656 15.210938 13.636719 15.597656 C 11.761719 16.820312 9.375 17.113281 7.179688 16.964844 C 6.558594 16.917969 5.9375 16.828125 5.332031 16.691406 Z M 5.347656 16.597656 "/>
<path fill-rule="nonzero" fill="#FFFFFF" fill-opacity="1" d="M 3.117188 10.527344 C 2.355469 10.953125 1.578125 11.480469 1.121094 12.234375 C 0.941406 12.539062 0.484375 13.265625 0.859375 14.101562 C 1.300781 15.078125 2.023438 15.398438 2.414062 15.671875 C 2.414062 15.671875 2.730469 15.925781 2.730469 15.925781 C 2.394531 15.90625 1.707031 15.640625 1.402344 15.496094 C 0.316406 14.976562 -0.234375 13.988281 0.09375 12.789062 C 0.277344 12.113281 0.777344 11.574219 1.347656 11.195312 C 1.75 10.925781 2.179688 10.726562 2.632812 10.570312 C 2.78125 10.519531 2.929688 10.476562 3.078125 10.433594 Z M 3.117188 10.527344 "/>
<path fill-rule="nonzero" fill="#FFFFFF" fill-opacity="1" d="M 6.542969 14.390625 C 10.914062 13.980469 10.75 13.402344 10.753906 13.351562 C 10.757812 13.292969 10.703125 13.199219 10.664062 13.140625 C 10.589844 13.023438 10.503906 12.921875 10.414062 12.789062 C 10.414062 12.789062 10.445312 12.695312 10.445312 12.695312 C 10.664062 12.644531 10.894531 12.660156 11.105469 12.738281 C 11.34375 12.828125 11.546875 13.058594 11.566406 13.332031 C 11.582031 13.574219 11.4375 13.808594 11.269531 13.960938 C 10.789062 14.410156 10.125 14.421875 9.515625 14.511719 C 8.648438 14.625 7.777344 14.621094 6.910156 14.535156 C 6.785156 14.519531 6.664062 14.503906 6.542969 14.488281 Z M 6.542969 14.390625 "/>
<path fill-rule="nonzero" fill="#FFFFFF" fill-opacity="1" d="M 4.511719 12.691406 C 4.378906 12.773438 4.246094 12.855469 4.121094 12.953125 C 4.019531 13.03125 3.902344 13.128906 3.839844 13.238281 C 3.824219 13.265625 3.816406 13.253906 3.816406 13.253906 C 3.984375 14.082031 5.78125 14.382812 5.78125 14.382812 C 5.449219 14.46875 5.113281 14.453125 4.78125 14.394531 C 4.367188 14.324219 3.980469 14.160156 3.652344 13.886719 C 3.492188 13.753906 3.277344 13.582031 3.269531 13.34375 C 3.304688 12.859375 3.847656 12.695312 4.246094 12.644531 C 4.328125 12.632812 4.410156 12.628906 4.492188 12.625 Z M 4.511719 12.691406 "/>
<path fill-rule="nonzero" fill="#FFFFFF" fill-opacity="1" d="M 11.226562 9.023438 C 11.226562 11.144531 9.507812 12.863281 7.386719 12.863281 C 5.265625 12.863281 3.550781 11.144531 3.550781 9.023438 C 3.550781 6.902344 7.449219 1.082031 7.449219 0 C 7.449219 1.089844 11.226562 6.902344 11.226562 9.023438 Z M 8.675781 11.527344 C 7.441406 11.449219 6.199219 11.257812 5.5625 10.101562 C 5.359375 9.757812 5.207031 9.355469 5.039062 8.910156 C 4.3125 11.1875 6.75 12.808594 8.675781 11.527344 Z M 8.675781 11.527344 "/>
</g>
</svg>
