<?xml version="1.0" encoding="UTF-8" standalone="no"?>
<!-- Created with Inkscape (http://www.inkscape.org/) -->

<svg
   xmlns:dc="http://purl.org/dc/elements/1.1/"
   xmlns:cc="http://creativecommons.org/ns#"
   xmlns:rdf="http://www.w3.org/1999/02/22-rdf-syntax-ns#"
   xmlns:svg="http://www.w3.org/2000/svg"
   xmlns="http://www.w3.org/2000/svg"
   xmlns:xlink="http://www.w3.org/1999/xlink"
   xmlns:sodipodi="http://sodipodi.sourceforge.net/DTD/sodipodi-0.dtd"
   xmlns:inkscape="http://www.inkscape.org/namespaces/inkscape"
   width="30px"
   height="30px"
   version="1.1"
   id="svg8"
   inkscape:version="0.92.4 5da689c313, 2019-01-14"
   sodipodi:docname="container.svg">
  <defs
     id="defs2" />
  <sodipodi:namedview
     id="base"
     pagecolor="#ffffff"
     bordercolor="#666666"
     borderopacity="1.0"
     inkscape:pageopacity="0.0"
     inkscape:pageshadow="2"
     inkscape:zoom="13.049334"
     inkscape:cx="18.679046"
     inkscape:cy="12.165829"
     inkscape:document-units="px"
     inkscape:current-layer="layer1"
     showgrid="false"
     inkscape:snap-page="false"
     units="px"
     inkscape:window-width="1884"
     inkscape:window-height="1061"
     inkscape:window-x="0"
     inkscape:window-y="0"
     inkscape:window-maximized="1"
     fit-margin-top="0"
     fit-margin-left="0"
     fit-margin-right="0"
     fit-margin-bottom="0" />
  <metadata
     id="metadata5">
    <rdf:RDF>
      <cc:Work
         rdf:about="">
        <dc:format>image/svg+xml</dc:format>
        <dc:type
           rdf:resource="http://purl.org/dc/dcmitype/StillImage" />
        <dc:title></dc:title>
      </cc:Work>
    </rdf:RDF>
  </metadata>
    <circle
       style="color:#000000;clip-rule:nonzero;display:inline;overflow:visible;visibility:visible;opacity:1;isolation:auto;mix-blend-mode:normal;color-interpolation:sRGB;color-interpolation-filters:linearRGB;solid-color:#000000;solid-opacity:1;vector-effect:none;fill:#ffffff;fill-opacity:1;fill-rule:evenodd;stroke:#00a757;stroke-width:1;stroke-linecap:butt;stroke-linejoin:miter;stroke-miterlimit:4;stroke-dasharray:none;stroke-dashoffset:0;stroke-opacity:1;marker:none;color-rendering:auto;image-rendering:auto;shape-rendering:auto;text-rendering:auto;enable-background:accumulate"
       id="path815"
       cx="15"
       cy="15"
       r="14.5" />
<g transform="translate(6.5,11.5)"><path fill-rule="nonzero" fill="rgb(30%,30%,30%)" fill-opacity="1" d="M 2.5625 4.058594 C 1.773438 4.058594 1.132812 4.695312 1.132812 5.484375 C 1.132812 6.273438 1.773438 6.914062 2.5625 6.914062 C 3.351562 6.914062 3.992188 6.273438 3.992188 5.484375 C 3.992188 4.695312 3.351562 4.058594 2.5625 4.058594 Z M 2.5625 6.34375 C 2.089844 6.34375 1.703125 5.960938 1.703125 5.484375 C 1.703125 5.011719 2.089844 4.628906 2.5625 4.628906 C 3.035156 4.628906 3.417969 5.011719 3.417969 5.484375 C 3.417969 5.960938 3.035156 6.34375 2.5625 6.34375 Z M 2.5625 6.34375 "/>
<path fill-rule="nonzero" fill="rgb(30%,30%,30%)" fill-opacity="1" d="M 10.734375 4.058594 C 9.941406 4.058594 9.304688 4.695312 9.304688 5.484375 C 9.304688 6.273438 9.941406 6.914062 10.734375 6.914062 C 11.523438 6.914062 12.160156 6.273438 12.160156 5.484375 C 12.160156 4.695312 11.523438 4.058594 10.734375 4.058594 Z M 10.734375 6.34375 C 10.257812 6.34375 9.875 5.960938 9.875 5.484375 C 9.875 5.011719 10.257812 4.628906 10.734375 4.628906 C 11.207031 4.628906 11.589844 5.011719 11.589844 5.484375 C 11.589844 5.960938 11.207031 6.34375 10.734375 6.34375 Z M 10.734375 6.34375 "/>
<path fill-rule="nonzero" fill="rgb(30%,30%,30%)" fill-opacity="1" d="M 0.738281 6.519531 L 1.105469 6.519531 C 0.867188 6.1875 0.753906 5.78125 0.777344 5.375 C 0.792969 5.148438 0.847656 4.929688 0.945312 4.722656 L 0 4.722656 Z M 0.738281 6.519531 "/>
<path fill-rule="nonzero" fill="rgb(30%,30%,30%)" fill-opacity="1" d="M 9.339844 3.917969 C 9.261719 3.851562 9.058594 3.863281 8.796875 3.882812 C 8.539062 3.902344 7.667969 4.039062 7.667969 4.039062 L 6.671875 3.609375 L 8.414062 3.707031 L 8.492188 3.554688 C 8.582031 3.617188 8.726562 3.648438 8.796875 3.578125 L 9.3125 3.0625 L 9.890625 3.417969 L 10.378906 3.730469 L 10.707031 3.699219 C 11.386719 3.691406 12.011719 4.066406 12.320312 4.671875 C 12.632812 5.277344 12.570312 6.003906 12.167969 6.550781 L 17 6.539062 L 16.976562 5.953125 L 15.160156 5.953125 L 14.90625 5.773438 L 16.898438 5.777344 L 16.070312 5.054688 L 14.457031 5.09375 L 14.070312 4.761719 L 15.746094 4.722656 L 10.613281 1.835938 L 10.714844 3.242188 L 9.742188 2.628906 L 10.203125 2.167969 C 10.246094 2.121094 10.269531 2.0625 10.265625 2 C 10.261719 1.9375 10.230469 1.878906 10.179688 1.84375 C 10.09375 1.777344 9.96875 1.789062 9.890625 1.867188 L 9.367188 2.390625 L 9.308594 2.453125 L 9.03125 2.726562 C 8.980469 2.71875 8.914062 2.710938 8.871094 2.71875 C 8.792969 2.738281 8.460938 3 8.460938 3 C 8.460938 3 8.402344 3.007812 8.132812 2.992188 C 7.867188 2.980469 5.292969 2.660156 5.078125 2.558594 C 4.949219 2.496094 4.894531 2.417969 4.867188 2.363281 L 5.960938 2.265625 L 5.753906 1.484375 L 5.636719 1.488281 C 5.476562 1.484375 5.210938 1.476562 5.164062 1.472656 C 4.511719 1.390625 4.003906 1.148438 4.03125 0.9375 C 4.058594 0.726562 4.609375 0.621094 5.261719 0.703125 C 5.273438 0.707031 5.433594 0.714844 5.449219 0.714844 C 5.269531 0.300781 4.703125 0 4.222656 0 C 3.671875 0 3.195312 0.382812 3.078125 0.921875 C 2.960938 1.457031 3.230469 2.003906 3.730469 2.234375 L 3.722656 2.253906 L 3.503906 2.832031 C 3.503906 2.832031 3.039062 2.089844 2.824219 2.050781 C 2.667969 2.019531 3.046875 2.992188 2.824219 3.066406 C 2.511719 3.167969 1.34375 3.039062 1.332031 3.066406 C 1.222656 3.316406 0.996094 3.800781 0.875 4.039062 C 0.855469 4.078125 0 4.039062 0 4.039062 L 0 4.605469 L 0.945312 4.605469 C 1.230469 4.125 1.839844 3.710938 2.535156 3.699219 C 3.210938 3.691406 3.832031 4.0625 4.144531 4.660156 C 4.457031 5.257812 4.40625 5.980469 4.011719 6.527344 L 9.292969 6.542969 C 8.734375 5.78125 8.863281 4.71875 9.589844 4.117188 Z M 9.339844 3.917969 "/>
</g>
</svg>
