<?xml version="1.0" encoding="UTF-8"?>
<svg xmlns="http://www.w3.org/2000/svg" xmlns:xlink="http://www.w3.org/1999/xlink" width="11" height="7.713362" viewBox="0 0 11 7.713362">
<path fill-rule="nonzero" fill="rgb(30%,30%,30%)" fill-opacity="1" d="M 10.246094 0 L 0.753906 0 C 0.335938 0 0 0.335938 0 0.753906 L 0 6.960938 C 0 7.375 0.335938 7.710938 0.753906 7.714844 L 10.246094 7.714844 C 10.664062 7.710938 11 7.375 11 6.960938 L 11 0.753906 C 11 0.335938 10.664062 0 10.246094 0 Z M 5.273438 4.675781 C 4.910156 4.574219 4.660156 4.246094 4.660156 3.871094 C 4.660156 3.496094 4.910156 3.164062 5.273438 3.066406 Z M 5.757812 3.078125 C 6.101562 3.191406 6.332031 3.511719 6.332031 3.871094 C 6.332031 4.230469 6.101562 4.550781 5.757812 4.664062 Z M 0.484375 6.960938 L 0.484375 5.652344 C 0.519531 5.660156 0.554688 5.660156 0.589844 5.660156 L 1.515625 5.660156 C 1.839844 5.660156 2.101562 5.398438 2.101562 5.074219 L 2.101562 2.671875 C 2.101562 2.347656 1.839844 2.085938 1.515625 2.085938 L 0.589844 2.085938 C 0.554688 2.085938 0.519531 2.085938 0.484375 2.09375 L 0.484375 0.753906 C 0.484375 0.605469 0.605469 0.484375 0.753906 0.484375 L 5.273438 0.484375 L 5.273438 2.566406 C 4.640625 2.675781 4.175781 3.226562 4.175781 3.871094 C 4.175781 4.515625 4.640625 5.0625 5.273438 5.171875 L 5.273438 7.226562 L 0.753906 7.226562 C 0.605469 7.226562 0.484375 7.105469 0.484375 6.960938 Z M 0.488281 5.074219 L 0.488281 2.671875 C 0.488281 2.617188 0.53125 2.570312 0.589844 2.570312 L 1.515625 2.570312 C 1.570312 2.570312 1.617188 2.617188 1.617188 2.671875 L 1.617188 5.074219 C 1.617188 5.128906 1.570312 5.175781 1.515625 5.175781 L 0.589844 5.175781 C 0.53125 5.175781 0.488281 5.128906 0.488281 5.074219 Z M 10.246094 7.226562 L 5.757812 7.226562 L 5.757812 5.164062 C 6.375 5.039062 6.820312 4.5 6.820312 3.871094 C 6.820312 3.242188 6.375 2.699219 5.757812 2.574219 L 5.757812 0.484375 L 10.246094 0.484375 C 10.394531 0.484375 10.515625 0.605469 10.515625 0.753906 L 10.515625 2.09375 C 10.480469 2.089844 10.445312 2.085938 10.410156 2.085938 L 9.484375 2.085938 C 9.160156 2.085938 8.898438 2.347656 8.898438 2.671875 L 8.898438 5.074219 C 8.898438 5.398438 9.160156 5.660156 9.484375 5.660156 L 10.410156 5.660156 C 10.445312 5.660156 10.480469 5.65625 10.515625 5.652344 L 10.515625 6.960938 C 10.515625 7.105469 10.394531 7.226562 10.246094 7.226562 Z M 10.511719 2.671875 L 10.511719 5.074219 C 10.511719 5.128906 10.464844 5.175781 10.410156 5.175781 L 9.484375 5.175781 C 9.425781 5.175781 9.382812 5.128906 9.382812 5.074219 L 9.382812 2.671875 C 9.382812 2.617188 9.425781 2.570312 9.484375 2.570312 L 10.410156 2.570312 C 10.464844 2.570312 10.511719 2.617188 10.511719 2.671875 Z M 10.511719 2.671875 "/>
</svg>
