<?xml version="1.0" encoding="UTF-8" standalone="no"?>
<!-- Created with Inkscape (http://www.inkscape.org/) -->

<svg
   xmlns:dc="http://purl.org/dc/elements/1.1/"
   xmlns:cc="http://creativecommons.org/ns#"
   xmlns:rdf="http://www.w3.org/1999/02/22-rdf-syntax-ns#"
   xmlns:svg="http://www.w3.org/2000/svg"
   xmlns="http://www.w3.org/2000/svg"
   xmlns:xlink="http://www.w3.org/1999/xlink"
   xmlns:sodipodi="http://sodipodi.sourceforge.net/DTD/sodipodi-0.dtd"
   xmlns:inkscape="http://www.inkscape.org/namespaces/inkscape"
   width="30px"
   height="30px"
   version="1.1"
   id="svg8"
   inkscape:version="0.92.4 5da689c313, 2019-01-14"
   sodipodi:docname="container.svg">
  <defs
     id="defs2" />
  <sodipodi:namedview
     id="base"
     pagecolor="#ffffff"
     bordercolor="#666666"
     borderopacity="1.0"
     inkscape:pageopacity="0.0"
     inkscape:pageshadow="2"
     inkscape:zoom="13.049334"
     inkscape:cx="18.679046"
     inkscape:cy="12.165829"
     inkscape:document-units="px"
     inkscape:current-layer="layer1"
     showgrid="false"
     inkscape:snap-page="false"
     units="px"
     inkscape:window-width="1884"
     inkscape:window-height="1061"
     inkscape:window-x="0"
     inkscape:window-y="0"
     inkscape:window-maximized="1"
     fit-margin-top="0"
     fit-margin-left="0"
     fit-margin-right="0"
     fit-margin-bottom="0" />
  <metadata
     id="metadata5">
    <rdf:RDF>
      <cc:Work
         rdf:about="">
        <dc:format>image/svg+xml</dc:format>
        <dc:type
           rdf:resource="http://purl.org/dc/dcmitype/StillImage" />
        <dc:title></dc:title>
      </cc:Work>
    </rdf:RDF>
  </metadata>
    <circle
       style="color:#000000;clip-rule:nonzero;display:inline;overflow:visible;visibility:visible;opacity:1;isolation:auto;mix-blend-mode:normal;color-interpolation:sRGB;color-interpolation-filters:linearRGB;solid-color:#000000;solid-opacity:1;vector-effect:none;fill:#00a757;fill-opacity:1;fill-rule:evenodd;stroke:#ffffff;stroke-width:1;stroke-linecap:butt;stroke-linejoin:miter;stroke-miterlimit:4;stroke-dasharray:none;stroke-dashoffset:0;stroke-opacity:1;marker:none;color-rendering:auto;image-rendering:auto;shape-rendering:auto;text-rendering:auto;enable-background:accumulate"
       id="path815"
       cx="15"
       cy="15"
       r="14.5" />
<g transform="translate(6.5,6.5)"><path fill-rule="evenodd" fill="#FFFFFF" fill-opacity="1" d="M 16.710938 0.644531 C 16.71875 0.511719 16.761719 0.507812 16.710938 0.394531 C 16.511719 0.394531 16.410156 0.203125 16.210938 0.144531 C 16.015625 0.0859375 15.769531 0.175781 15.632812 0 C 15.570312 0.136719 15.417969 0.171875 15.238281 0.105469 C 15.191406 0.40625 14.824219 0.382812 14.84375 0.75 C 14.78125 0.746094 14.730469 0.757812 14.699219 0.785156 C 14.671875 0.894531 14.796875 0.855469 14.773438 0.964844 C 14.738281 1.066406 14.59375 1.050781 14.59375 1.179688 C 14.804688 1.253906 14.816406 1.53125 14.878906 1.75 C 15.097656 1.832031 15.15625 2.074219 15.382812 2.144531 C 15.09375 2.25 14.855469 2.40625 14.84375 2.789062 C 15.621094 3.171875 15.667969 1.867188 16.496094 2.074219 C 16.660156 1.699219 17.054688 1.367188 16.820312 0.894531 C 16.867188 0.808594 17 0.8125 17 0.679688 C 16.914062 0.65625 16.738281 0.722656 16.710938 0.644531 Z M 4.925781 13.511719 C 4.769531 13.488281 4.777344 13.628906 4.636719 13.617188 C 4.46875 13.558594 4.453125 13.347656 4.386719 13.1875 C 4.238281 13.164062 4.261719 13.304688 4.097656 13.261719 C 3.988281 13.210938 3.949219 13.097656 3.882812 13.011719 C 3.550781 13.074219 3.480469 12.886719 3.304688 12.796875 C 3.242188 12.851562 3.230469 12.960938 3.125 12.972656 C 2.785156 12.832031 2.742188 13.28125 2.371094 13.117188 C 2.253906 13.523438 1.9375 13.753906 1.472656 13.726562 C 1.460938 13.941406 1.714844 13.886719 1.761719 14.046875 C 1.824219 14.359375 1.648438 14.433594 1.617188 14.65625 C 1.738281 14.855469 1.824219 15.148438 1.867188 15.511719 C 2.054688 15.507812 2.085938 15.652344 2.15625 15.761719 C 2.347656 15.738281 2.472656 15.785156 2.515625 15.90625 C 2.554688 16.097656 2.441406 16.144531 2.445312 16.296875 C 2.613281 16.21875 2.746094 16.101562 2.984375 16.085938 C 3.140625 16.199219 3.246094 16.371094 3.59375 16.296875 C 3.613281 16.1875 3.679688 16.121094 3.773438 16.085938 C 3.882812 16.128906 3.871094 16.296875 4.027344 16.296875 C 4.144531 16.226562 3.964844 15.894531 4.203125 15.871094 C 4.355469 15.863281 4.316406 16.046875 4.492188 16.011719 C 4.53125 15.847656 4.53125 15.785156 4.492188 15.621094 C 4.730469 15.472656 4.78125 15.796875 4.925781 15.726562 C 4.921875 15.574219 4.746094 15.59375 4.746094 15.441406 C 4.90625 15.21875 4.691406 14.800781 4.925781 14.617188 C 5.082031 14.539062 5.601562 14.726562 5.824219 14.546875 C 5.101562 14.746094 4.527344 14.109375 4.925781 13.511719 Z M 15.203125 3.324219 L 15.203125 3.179688 C 15.003906 3.117188 15.035156 3.140625 14.84375 3.253906 C 14.707031 3.152344 14.613281 3.230469 14.484375 3.144531 C 14.421875 3.300781 14.320312 3.414062 14.054688 3.359375 C 13.925781 3.65625 13.582031 3.875 13.585938 4.253906 C 13.585938 4.453125 13.796875 4.652344 13.65625 4.824219 C 13.0625 4.203125 11.652344 4.859375 10.925781 4.648438 C 11.019531 4.367188 11.15625 4.136719 11.25 3.859375 C 11.382812 3.824219 11.542969 3.671875 11.429688 3.503906 C 10.945312 3.664062 10.957031 4.320312 10.457031 4.46875 C 10.265625 4.25 10.046875 4.191406 9.8125 3.96875 C 9.785156 3.441406 9.535156 3.183594 9.34375 2.859375 C 9.265625 2.726562 9.296875 2.535156 9.09375 2.539062 C 9.074219 2.585938 9.035156 2.625 8.984375 2.644531 C 8.957031 2.851562 9.085938 2.902344 9.058594 3.109375 C 8.6875 3.308594 8.0625 3.054688 7.65625 2.859375 C 7.613281 3.082031 7.738281 3.136719 7.726562 3.324219 C 7.351562 3.515625 7.117188 3.238281 6.757812 3.394531 C 6.558594 3.269531 6.484375 3.023438 6.21875 2.964844 C 5.976562 2.765625 5.945312 2.355469 5.644531 2.214844 C 5.632812 2.460938 5.753906 2.488281 5.859375 2.644531 C 5.976562 2.824219 6.09375 3.136719 6.21875 3.289062 C 6.382812 3.488281 6.589844 3.554688 6.578125 3.753906 C 6.558594 4.023438 6.242188 4.039062 6.003906 4.183594 C 5.777344 5.171875 4.640625 4.867188 3.84375 4.609375 C 4.308594 4.851562 4.917969 4.949219 5.320312 5.253906 C 5.054688 5.464844 4.804688 5.695312 4.636719 6.003906 C 4.425781 5.988281 4.371094 5.816406 4.097656 5.863281 C 4.066406 6.058594 4.292969 6.003906 4.347656 6.113281 C 3.792969 6.238281 3.5625 5.753906 2.945312 5.863281 C 2.9375 5.8125 2.886719 5.800781 2.875 5.753906 C 2.851562 5.625 2.953125 5.617188 2.945312 5.503906 C 2.789062 5.386719 2.664062 5.214844 2.695312 5.003906 C 2.441406 4.886719 2.226562 4.734375 2.191406 4.394531 C 2.015625 4.363281 2.09375 4.585938 1.90625 4.539062 C 1.808594 4.242188 1.628906 4.441406 1.367188 4.324219 C 1.324219 4.378906 1.320312 4.472656 1.257812 4.503906 C 0.871094 4.414062 0.867188 4.710938 0.648438 4.789062 C 0.402344 4.699219 0.285156 4.503906 0 4.609375 C 0.0117188 4.804688 0.339844 4.679688 0.394531 4.824219 C 0.265625 5.160156 0.167969 5.53125 0 5.824219 C 0.148438 5.917969 0.234375 6.128906 0.144531 6.363281 C 0.367188 6.566406 0.59375 6.804688 0.683594 7.042969 C 0.8125 7.066406 0.820312 6.964844 0.933594 6.96875 C 1.046875 7.046875 1.15625 7.128906 1.1875 7.292969 C 1.535156 7.105469 1.925781 7.121094 2.300781 7.042969 C 2.359375 6.992188 2.3125 6.839844 2.371094 6.792969 C 2.472656 6.78125 2.566406 6.757812 2.660156 6.71875 C 2.75 6.675781 2.625 6.542969 2.695312 6.539062 C 3.1875 6.605469 3.960938 6.535156 4.347656 6.863281 C 4.460938 7.246094 4.542969 7.628906 4.347656 8.007812 C 4.285156 8.050781 4.109375 7.980469 3.953125 8.007812 C 3.863281 7.976562 3.890625 7.828125 3.773438 7.828125 C 3.144531 7.941406 2.710938 8.25 2.515625 8.792969 C 2.554688 8.980469 2.585938 9.175781 2.585938 9.398438 C 2.757812 9.753906 3.144531 9.898438 3.378906 10.1875 C 3.453125 10.042969 3.722656 10.066406 3.84375 10.152344 C 4.25 9.945312 4.648438 9.730469 4.78125 9.257812 C 5.320312 9.257812 5.335938 9.777344 5.679688 9.972656 C 5.582031 10.507812 5.417969 10.972656 5.285156 11.472656 C 5.546875 11.261719 5.648438 10.824219 5.714844 10.328125 C 5.863281 10.289062 5.964844 10.199219 6.109375 10.152344 C 6.199219 10.238281 6.351562 10.265625 6.363281 10.4375 C 6.363281 10.570312 6.230469 10.566406 6.21875 10.6875 C 6.636719 10.640625 7.308594 10.601562 7.261719 11.257812 C 7.464844 11.320312 7.394531 11.109375 7.546875 11.117188 C 7.890625 11.363281 7.964844 12.378906 7.761719 12.722656 C 7.546875 12.457031 7.578125 12.035156 7.152344 12.082031 C 6.730469 12.125 6.652344 12.726562 6.9375 13.082031 C 7.304688 13.203125 7.632812 13.4375 7.835938 13.011719 C 8.214844 13.34375 7.976562 14.152344 7.621094 14.367188 C 7.472656 14.402344 7.328125 14.4375 7.296875 14.582031 C 7.324219 14.589844 7.335938 14.613281 7.332031 14.65625 C 7.460938 14.730469 7.71875 14.671875 7.90625 14.691406 C 8.003906 14.867188 8.144531 15 8.160156 15.261719 C 8.058594 15.378906 7.753906 15.476562 7.835938 15.65625 C 7.929688 15.472656 8.320312 15.417969 8.519531 15.546875 C 8.53125 15.675781 8.566406 15.789062 8.589844 15.90625 C 8.847656 16 9.054688 16.230469 9.378906 16.15625 C 9.472656 16.265625 9.429688 16.511719 9.558594 16.585938 C 9.769531 16.601562 9.703125 16.347656 9.917969 16.371094 C 10.003906 16.476562 9.882812 16.789062 10.097656 16.761719 C 10.246094 16.71875 10.179688 16.460938 10.277344 16.371094 C 10.578125 16.292969 10.753906 16.375 11.035156 16.371094 C 11.074219 16.421875 11.078125 16.515625 11.140625 16.546875 C 11.164062 16.484375 11.035156 16.402344 11.140625 16.371094 C 11.292969 16.375 11.300781 16.519531 11.5 16.476562 C 11.496094 16.324219 11.429688 16.214844 11.5 16.085938 C 12.191406 16.042969 12.257812 15.382812 12.617188 15.011719 C 13.054688 14.933594 13.347656 15.1875 13.621094 15.15625 C 13.496094 15.078125 13.289062 15.078125 13.226562 14.941406 C 13.300781 14.84375 13.488281 14.804688 13.40625 14.65625 C 13.175781 14.640625 13.105469 14.785156 12.976562 14.867188 C 12.859375 14.792969 12.632812 14.828125 12.578125 14.691406 C 12.539062 14.421875 12.699219 14.359375 12.796875 14.226562 C 12.765625 14.050781 12.644531 13.96875 12.652344 13.761719 C 12.675781 13.617188 12.914062 13.6875 12.902344 13.511719 C 12.894531 13.363281 12.667969 13.433594 12.578125 13.367188 C 12.535156 13.105469 12.597656 13.078125 12.617188 12.832031 C 12.371094 12.761719 12.15625 12.667969 12.183594 12.332031 C 11.902344 12.289062 11.65625 12.214844 11.679688 11.867188 C 11.617188 11.777344 11.445312 11.792969 11.394531 11.6875 C 11.433594 11.675781 11.515625 11.53125 11.429688 11.507812 C 11.347656 11.726562 10.933594 11.566406 10.816406 11.472656 C 10.679688 11.5 10.679688 11.667969 10.496094 11.652344 C 10.480469 11.585938 10.417969 11.5625 10.421875 11.472656 C 10.671875 11.304688 11.164062 11.378906 11.429688 11.222656 C 11.425781 10.839844 11.246094 10.460938 11.464844 10.078125 C 11.5 10.078125 11.507812 10.050781 11.535156 10.042969 C 11.59375 10.105469 11.6875 10.132812 11.824219 10.113281 C 12.140625 10.558594 12.691406 10.570312 13.117188 10.867188 C 12.886719 10.449219 11.90625 10.472656 12.039062 9.578125 C 11.804688 9.523438 11.855469 9.902344 11.679688 9.792969 C 11.761719 9.503906 12.078125 9.449219 12.21875 9.222656 C 13.089844 8.972656 13.652344 9.757812 14.484375 9.472656 C 14.726562 8.484375 12.933594 8.6875 12.867188 7.96875 C 12.824219 7.527344 13.230469 7.664062 13.515625 7.542969 C 13.425781 7.257812 13 7.476562 12.867188 7.292969 C 12.851562 6.976562 13.15625 6.984375 13.335938 6.863281 C 13.277344 6.515625 13.554688 6.488281 13.695312 6.253906 C 13.605469 6.066406 13.273438 6.125 13.226562 5.898438 C 13.421875 5.613281 13.703125 5.011719 14.160156 5.324219 C 14.367188 5.160156 14.507812 5.332031 14.664062 5.46875 C 14.792969 5.308594 14.933594 5.394531 15.132812 5.433594 C 15.371094 5.125 15.949219 4.886719 15.742188 4.359375 C 15.753906 4.21875 15.890625 4.199219 15.886719 4.039062 C 15.621094 3.835938 15.59375 3.402344 15.203125 3.324219 Z M 9.523438 11.507812 C 9.632812 11.472656 9.859375 11.496094 9.847656 11.6875 C 9.714844 11.773438 9.546875 11.644531 9.523438 11.507812 Z M 11.898438 9.792969 C 12.0625 9.851562 12.0625 10.082031 12.148438 10.222656 C 11.972656 10.179688 11.710938 9.980469 11.898438 9.792969 Z M 11.898438 9.792969 "/>
</g>
</svg>
