<?xml version="1.0" encoding="UTF-8" standalone="no"?>
<!-- Created with Inkscape (http://www.inkscape.org/) -->

<svg
   xmlns:dc="http://purl.org/dc/elements/1.1/"
   xmlns:cc="http://creativecommons.org/ns#"
   xmlns:rdf="http://www.w3.org/1999/02/22-rdf-syntax-ns#"
   xmlns:svg="http://www.w3.org/2000/svg"
   xmlns="http://www.w3.org/2000/svg"
   xmlns:xlink="http://www.w3.org/1999/xlink"
   xmlns:sodipodi="http://sodipodi.sourceforge.net/DTD/sodipodi-0.dtd"
   xmlns:inkscape="http://www.inkscape.org/namespaces/inkscape"
   width="30px"
   height="30px"
   version="1.1"
   id="svg8"
   inkscape:version="0.92.4 5da689c313, 2019-01-14"
   sodipodi:docname="container.svg">
  <defs
     id="defs2" />
  <sodipodi:namedview
     id="base"
     pagecolor="#ffffff"
     bordercolor="#666666"
     borderopacity="1.0"
     inkscape:pageopacity="0.0"
     inkscape:pageshadow="2"
     inkscape:zoom="13.049334"
     inkscape:cx="18.679046"
     inkscape:cy="12.165829"
     inkscape:document-units="px"
     inkscape:current-layer="layer1"
     showgrid="false"
     inkscape:snap-page="false"
     units="px"
     inkscape:window-width="1884"
     inkscape:window-height="1061"
     inkscape:window-x="0"
     inkscape:window-y="0"
     inkscape:window-maximized="1"
     fit-margin-top="0"
     fit-margin-left="0"
     fit-margin-right="0"
     fit-margin-bottom="0" />
  <metadata
     id="metadata5">
    <rdf:RDF>
      <cc:Work
         rdf:about="">
        <dc:format>image/svg+xml</dc:format>
        <dc:type
           rdf:resource="http://purl.org/dc/dcmitype/StillImage" />
        <dc:title></dc:title>
      </cc:Work>
    </rdf:RDF>
  </metadata>
    <circle
       style="color:#000000;clip-rule:nonzero;display:inline;overflow:visible;visibility:visible;opacity:1;isolation:auto;mix-blend-mode:normal;color-interpolation:sRGB;color-interpolation-filters:linearRGB;solid-color:#000000;solid-opacity:1;vector-effect:none;fill:#ffffff;fill-opacity:1;fill-rule:evenodd;stroke:#00a757;stroke-width:1;stroke-linecap:butt;stroke-linejoin:miter;stroke-miterlimit:4;stroke-dasharray:none;stroke-dashoffset:0;stroke-opacity:1;marker:none;color-rendering:auto;image-rendering:auto;shape-rendering:auto;text-rendering:auto;enable-background:accumulate"
       id="path815"
       cx="15"
       cy="15"
       r="14.5" />
<g transform="translate(6.5,7.0)"><path fill-rule="nonzero" fill="rgb(30%,30%,30%)" fill-opacity="1" d="M 10 6.460938 C 10.214844 4.523438 13.152344 1.382812 14.320312 0.203125 C 14.582031 -0.0625 15.003906 -0.0703125 15.277344 0.1875 L 16.785156 1.613281 C 17.058594 1.871094 17.074219 2.300781 16.816406 2.578125 C 15.738281 3.738281 12.917969 6.535156 10.441406 6.9375 C 10.257812 6.96875 15.0625 1.949219 14.949219 2.023438 C 13.582031 2.875 10 6.460938 10 6.460938 Z M 2.019531 2.074219 C 1.949219 1.960938 7.015625 6.714844 6.984375 6.527344 C 6.554688 4.054688 3.730469 1.269531 2.554688 0.199219 C 2.277344 -0.0507812 1.847656 -0.0351562 1.59375 0.242188 L 0.183594 1.765625 C -0.0703125 2.039062 -0.0585938 2.464844 0.207031 2.722656 C 1.402344 3.878906 4.570312 6.78125 6.511719 6.976562 C 6.511719 6.976562 2.886719 3.429688 2.019531 2.074219 Z M 10.261719 7.167969 L 9.828125 6.734375 L 3.519531 12.996094 L 3.332031 12.832031 L 3.085938 13.113281 L 3.253906 13.261719 L 0.730469 15.773438 L 1.164062 16.207031 L 3.71875 13.667969 L 3.921875 13.859375 L 4.171875 13.574219 L 3.984375 13.402344 Z M 7.191406 6.753906 L 6.75 7.183594 L 7.734375 8.199219 L 8.160156 7.757812 Z M 13.613281 13.375 L 13.828125 13.132812 L 13.550781 12.878906 L 13.351562 13.105469 L 9.195312 8.828125 L 8.761719 9.261719 L 12.941406 13.5625 L 12.773438 13.75 L 13.050781 14.003906 L 13.203125 13.835938 L 15.773438 16.246094 L 16.171875 15.804688 Z M 13.613281 13.375 "/>
</g>
</svg>
