<?xml version="1.0" encoding="UTF-8"?>
<svg xmlns="http://www.w3.org/2000/svg" xmlns:xlink="http://www.w3.org/1999/xlink" width="9.768243" height="11" viewBox="0 0 9.768243 11">
<path fill-rule="nonzero" fill="rgb(30%,30%,30%)" fill-opacity="1" d="M 6.40625 9.957031 C 5.109375 10.289062 3.71875 10.328125 2.414062 9.960938 C 1.824219 9.792969 1.140625 9.519531 0.933594 8.875 C 0.746094 8.226562 1.253906 7.742188 1.824219 7.558594 C 1.980469 7.503906 2.140625 7.46875 2.304688 7.457031 C 2.304688 7.457031 2.324219 7.515625 2.324219 7.515625 C 2.039062 7.75 1.324219 8.246094 1.53125 8.671875 C 1.574219 8.765625 1.640625 8.839844 1.71875 8.917969 C 1.804688 9 1.910156 9.082031 2.023438 9.15625 C 2.492188 9.484375 3.09375 9.65625 3.660156 9.769531 C 4.558594 9.949219 5.476562 9.992188 6.394531 9.894531 C 6.394531 9.894531 6.40625 9.957031 6.40625 9.957031 Z M 6.40625 9.957031 "/>
<path fill-rule="nonzero" fill="rgb(30%,30%,30%)" fill-opacity="1" d="M 7.421875 7.457031 C 7.753906 7.507812 8.085938 7.613281 8.363281 7.808594 C 8.527344 7.921875 8.65625 8.074219 8.753906 8.253906 C 8.867188 8.460938 8.890625 8.714844 8.769531 8.925781 C 8.636719 9.167969 8.445312 9.238281 8.097656 9.308594 C 8.097656 9.308594 7.898438 9.347656 7.898438 9.347656 C 7.902344 9.328125 8.058594 9.222656 8.070312 9.210938 C 8.21875 9.058594 8.683594 8.769531 8.308594 8.28125 C 8.136719 8.0625 7.871094 7.875 7.652344 7.699219 C 7.570312 7.636719 7.488281 7.574219 7.398438 7.515625 Z M 7.421875 7.457031 "/>
<path fill-rule="nonzero" fill="rgb(30%,30%,30%)" fill-opacity="1" d="M 3.460938 10.738281 C 4.828125 10.867188 6.242188 10.726562 7.519531 10.207031 C 8.15625 9.941406 8.84375 9.523438 9.074219 8.839844 C 9.347656 7.953125 8.339844 7.257812 7.707031 6.8125 C 7.707031 6.8125 7.730469 6.753906 7.730469 6.753906 C 8.25 6.839844 8.761719 7.050781 9.164062 7.398438 C 9.640625 7.800781 9.898438 8.425781 9.703125 9.039062 C 9.5625 9.488281 9.203125 9.84375 8.824219 10.09375 C 7.609375 10.882812 6.066406 11.074219 4.648438 10.976562 C 4.242188 10.945312 3.84375 10.890625 3.449219 10.800781 Z M 3.460938 10.738281 "/>
<path fill-rule="nonzero" fill="rgb(30%,30%,30%)" fill-opacity="1" d="M 2.015625 6.8125 C 1.523438 7.085938 1.023438 7.429688 0.726562 7.914062 C 0.609375 8.113281 0.3125 8.585938 0.558594 9.125 C 0.839844 9.753906 1.308594 9.964844 1.5625 10.140625 C 1.5625 10.140625 1.765625 10.304688 1.765625 10.304688 C 1.546875 10.292969 1.105469 10.121094 0.90625 10.027344 C 0.203125 9.691406 -0.152344 9.050781 0.0625 8.277344 C 0.179688 7.835938 0.503906 7.488281 0.871094 7.242188 C 1.132812 7.070312 1.410156 6.941406 1.703125 6.839844 C 1.796875 6.808594 1.894531 6.777344 1.992188 6.753906 Z M 2.015625 6.8125 "/>
<path fill-rule="nonzero" fill="rgb(30%,30%,30%)" fill-opacity="1" d="M 4.234375 9.3125 C 7.0625 9.046875 6.957031 8.671875 6.960938 8.636719 C 6.960938 8.601562 6.925781 8.539062 6.902344 8.503906 C 6.851562 8.425781 6.796875 8.363281 6.738281 8.273438 C 6.738281 8.273438 6.757812 8.214844 6.757812 8.214844 C 6.902344 8.183594 7.050781 8.191406 7.183594 8.242188 C 7.339844 8.300781 7.472656 8.449219 7.484375 8.625 C 7.496094 8.785156 7.402344 8.933594 7.292969 9.035156 C 6.980469 9.324219 6.550781 9.332031 6.15625 9.390625 C 5.59375 9.460938 5.03125 9.460938 4.472656 9.40625 C 4.390625 9.394531 4.3125 9.386719 4.234375 9.375 Z M 4.234375 9.3125 "/>
<path fill-rule="nonzero" fill="rgb(30%,30%,30%)" fill-opacity="1" d="M 2.917969 8.210938 C 2.832031 8.265625 2.75 8.320312 2.667969 8.378906 C 2.601562 8.433594 2.523438 8.496094 2.484375 8.566406 C 2.472656 8.585938 2.46875 8.574219 2.46875 8.574219 C 2.578125 9.113281 3.738281 9.308594 3.738281 9.308594 C 3.527344 9.363281 3.308594 9.351562 3.09375 9.316406 C 2.824219 9.269531 2.574219 9.160156 2.363281 8.984375 C 2.261719 8.898438 2.121094 8.789062 2.117188 8.632812 C 2.136719 8.320312 2.488281 8.214844 2.75 8.183594 C 2.800781 8.175781 2.851562 8.171875 2.90625 8.167969 Z M 2.917969 8.210938 "/>
<path fill-rule="nonzero" fill="rgb(30%,30%,30%)" fill-opacity="1" d="M 7.261719 5.839844 C 7.261719 7.210938 6.152344 8.320312 4.78125 8.320312 C 3.410156 8.320312 2.296875 7.210938 2.296875 5.839844 C 2.296875 4.46875 4.820312 0.699219 4.820312 0 C 4.820312 0.707031 7.261719 4.46875 7.261719 5.839844 Z M 5.613281 7.457031 C 4.816406 7.40625 4.011719 7.285156 3.601562 6.535156 C 3.464844 6.3125 3.367188 6.054688 3.261719 5.765625 C 2.789062 7.238281 4.367188 8.285156 5.613281 7.457031 Z M 5.613281 7.457031 "/>
</svg>
