<?xml version="1.0" encoding="UTF-8" standalone="no"?>
<!-- Created with Inkscape (http://www.inkscape.org/) -->

<svg
   xmlns:dc="http://purl.org/dc/elements/1.1/"
   xmlns:cc="http://creativecommons.org/ns#"
   xmlns:rdf="http://www.w3.org/1999/02/22-rdf-syntax-ns#"
   xmlns:svg="http://www.w3.org/2000/svg"
   xmlns="http://www.w3.org/2000/svg"
   xmlns:xlink="http://www.w3.org/1999/xlink"
   xmlns:sodipodi="http://sodipodi.sourceforge.net/DTD/sodipodi-0.dtd"
   xmlns:inkscape="http://www.inkscape.org/namespaces/inkscape"
   width="30px"
   height="30px"
   version="1.1"
   id="svg8"
   inkscape:version="0.92.4 5da689c313, 2019-01-14"
   sodipodi:docname="container.svg">
  <defs
     id="defs2" />
  <sodipodi:namedview
     id="base"
     pagecolor="#ffffff"
     bordercolor="#666666"
     borderopacity="1.0"
     inkscape:pageopacity="0.0"
     inkscape:pageshadow="2"
     inkscape:zoom="13.049334"
     inkscape:cx="18.679046"
     inkscape:cy="12.165829"
     inkscape:document-units="px"
     inkscape:current-layer="layer1"
     showgrid="false"
     inkscape:snap-page="false"
     units="px"
     inkscape:window-width="1884"
     inkscape:window-height="1061"
     inkscape:window-x="0"
     inkscape:window-y="0"
     inkscape:window-maximized="1"
     fit-margin-top="0"
     fit-margin-left="0"
     fit-margin-right="0"
     fit-margin-bottom="0" />
  <metadata
     id="metadata5">
    <rdf:RDF>
      <cc:Work
         rdf:about="">
        <dc:format>image/svg+xml</dc:format>
        <dc:type
           rdf:resource="http://purl.org/dc/dcmitype/StillImage" />
        <dc:title></dc:title>
      </cc:Work>
    </rdf:RDF>
  </metadata>
    <circle
       style="color:#000000;clip-rule:nonzero;display:inline;overflow:visible;visibility:visible;opacity:1;isolation:auto;mix-blend-mode:normal;color-interpolation:sRGB;color-interpolation-filters:linearRGB;solid-color:#000000;solid-opacity:1;vector-effect:none;fill:#00a757;fill-opacity:1;fill-rule:evenodd;stroke:#ffffff;stroke-width:1;stroke-linecap:butt;stroke-linejoin:miter;stroke-miterlimit:4;stroke-dasharray:none;stroke-dashoffset:0;stroke-opacity:1;marker:none;color-rendering:auto;image-rendering:auto;shape-rendering:auto;text-rendering:auto;enable-background:accumulate"
       id="path815"
       cx="15"
       cy="15"
       r="14.5" />
<g transform="translate(7.0,6.5)"><path fill-rule="nonzero" fill="#FFFFFF" fill-opacity="1" d="M 16.066406 10.960938 C 16.066406 12.277344 15 13.347656 13.683594 13.347656 C 12.367188 13.347656 11.300781 12.277344 11.300781 10.960938 C 11.300781 9.644531 12.367188 8.578125 13.683594 8.578125 C 15 8.578125 16.066406 9.644531 16.066406 10.960938 Z M 16.066406 10.960938 "/>
<path fill-rule="nonzero" fill="#FFFFFF" fill-opacity="1" d="M 10.917969 10.609375 C 10.660156 10.703125 10.398438 10.773438 10.132812 10.824219 C 8.878906 11.0625 7.742188 10.796875 6.925781 10.078125 C 6.109375 9.363281 5.703125 8.265625 5.78125 6.992188 C 5.863281 5.671875 6.453125 4.328125 7.4375 3.210938 C 8.421875 2.09375 9.679688 1.339844 10.980469 1.09375 C 11.269531 1.039062 11.5625 1.011719 11.859375 1.007812 C 12.761719 1.007812 13.566406 1.292969 14.1875 1.839844 C 15.003906 2.558594 15.410156 3.65625 15.332031 4.929688 C 15.261719 6.054688 14.820312 7.199219 14.078125 8.203125 C 14.429688 8.253906 14.765625 8.371094 15.074219 8.546875 C 15.820312 7.449219 16.261719 6.214844 16.335938 4.992188 C 16.433594 3.398438 15.910156 2.011719 14.855469 1.082031 C 13.800781 0.15625 12.359375 -0.195312 10.792969 0.101562 C 9.273438 0.390625 7.8125 1.257812 6.679688 2.542969 C 5.546875 3.828125 4.871094 5.386719 4.777344 6.929688 C 4.714844 7.929688 5.058594 9.125 5.308594 9.625 C 5.507812 10.023438 4.742188 10.878906 4.734375 10.890625 L 0.203125 15.738281 C -0.0820312 16.039062 -0.0664062 16.515625 0.238281 16.796875 C 0.539062 17.082031 1.011719 17.066406 1.296875 16.761719 L 5.902344 11.835938 C 5.902344 11.835938 6.644531 11.214844 6.921875 11.316406 C 7.664062 11.582031 8.398438 11.921875 9.25 11.921875 C 9.609375 11.917969 9.96875 11.882812 10.320312 11.816406 C 10.542969 11.773438 10.765625 11.71875 10.980469 11.652344 C 10.890625 11.3125 10.871094 10.957031 10.917969 10.609375 Z M 10.917969 10.609375 "/>
</g>
</svg>
