<?xml version="1.0" encoding="UTF-8" standalone="no"?>
<!-- Created with Inkscape (http://www.inkscape.org/) -->

<svg
   xmlns:dc="http://purl.org/dc/elements/1.1/"
   xmlns:cc="http://creativecommons.org/ns#"
   xmlns:rdf="http://www.w3.org/1999/02/22-rdf-syntax-ns#"
   xmlns:svg="http://www.w3.org/2000/svg"
   xmlns="http://www.w3.org/2000/svg"
   xmlns:xlink="http://www.w3.org/1999/xlink"
   xmlns:sodipodi="http://sodipodi.sourceforge.net/DTD/sodipodi-0.dtd"
   xmlns:inkscape="http://www.inkscape.org/namespaces/inkscape"
   width="30px"
   height="30px"
   version="1.1"
   id="svg8"
   inkscape:version="0.92.4 5da689c313, 2019-01-14"
   sodipodi:docname="container.svg">
  <defs
     id="defs2" />
  <sodipodi:namedview
     id="base"
     pagecolor="#ffffff"
     bordercolor="#666666"
     borderopacity="1.0"
     inkscape:pageopacity="0.0"
     inkscape:pageshadow="2"
     inkscape:zoom="13.049334"
     inkscape:cx="18.679046"
     inkscape:cy="12.165829"
     inkscape:document-units="px"
     inkscape:current-layer="layer1"
     showgrid="false"
     inkscape:snap-page="false"
     units="px"
     inkscape:window-width="1884"
     inkscape:window-height="1061"
     inkscape:window-x="0"
     inkscape:window-y="0"
     inkscape:window-maximized="1"
     fit-margin-top="0"
     fit-margin-left="0"
     fit-margin-right="0"
     fit-margin-bottom="0" />
  <metadata
     id="metadata5">
    <rdf:RDF>
      <cc:Work
         rdf:about="">
        <dc:format>image/svg+xml</dc:format>
        <dc:type
           rdf:resource="http://purl.org/dc/dcmitype/StillImage" />
        <dc:title></dc:title>
      </cc:Work>
    </rdf:RDF>
  </metadata>
    <circle
       style="color:#000000;clip-rule:nonzero;display:inline;overflow:visible;visibility:visible;opacity:1;isolation:auto;mix-blend-mode:normal;color-interpolation:sRGB;color-interpolation-filters:linearRGB;solid-color:#000000;solid-opacity:1;vector-effect:none;fill:#ffffff;fill-opacity:1;fill-rule:evenodd;stroke:#00a757;stroke-width:1;stroke-linecap:butt;stroke-linejoin:miter;stroke-miterlimit:4;stroke-dasharray:none;stroke-dashoffset:0;stroke-opacity:1;marker:none;color-rendering:auto;image-rendering:auto;shape-rendering:auto;text-rendering:auto;enable-background:accumulate"
       id="path815"
       cx="15"
       cy="15"
       r="14.5" />
<g transform="translate(7.0,6.5)"><path fill-rule="nonzero" fill="rgb(30%,30%,30%)" fill-opacity="1" d="M 15.570312 4.421875 C 15.519531 3.761719 15.226562 3.207031 14.828125 2.699219 C 14.503906 2.289062 14.117188 1.9375 13.722656 1.589844 C 13.304688 1.222656 12.882812 0.855469 12.40625 0.5625 C 11.933594 0.273438 11.425781 0.0625 10.867188 0.0078125 C 10.492188 -0.0195312 10.117188 0.0351562 9.765625 0.171875 C 9.199219 0.394531 8.742188 0.769531 8.375 1.246094 C 8.046875 1.671875 7.742188 2.117188 7.445312 2.5625 C 7.011719 3.21875 6.636719 3.90625 6.375 4.65625 C 6.085938 5.488281 5.964844 6.355469 5.902344 7.230469 C 5.851562 7.9375 5.78125 8.640625 5.59375 9.328125 C 5.449219 9.871094 5.234375 10.382812 4.839844 10.796875 C 4.453125 11.210938 4.046875 11.609375 3.65625 12.019531 C 3.464844 12.222656 3.246094 12.398438 3.003906 12.542969 C 2.742188 12.703125 2.503906 12.90625 2.300781 13.140625 C 1.578125 13.988281 0.855469 14.828125 0.128906 15.667969 C -0.0351562 15.859375 -0.0507812 16.035156 0.125 16.207031 C 0.378906 16.457031 0.648438 16.6875 0.925781 16.90625 C 1.121094 17.058594 1.292969 17.019531 1.453125 16.835938 C 2.085938 16.121094 2.714844 15.402344 3.351562 14.695312 C 3.707031 14.300781 4.042969 13.894531 4.246094 13.398438 C 4.285156 13.308594 4.320312 13.214844 4.375 13.136719 C 4.78125 12.605469 5.191406 12.078125 5.601562 11.550781 C 5.796875 11.304688 6.035156 11.089844 6.304688 10.921875 C 6.773438 10.617188 7.289062 10.414062 7.824219 10.269531 C 8.410156 10.109375 9 9.976562 9.589844 9.839844 C 10.882812 9.539062 12.046875 8.980469 13.0625 8.125 C 13.511719 7.75 13.945312 7.363281 14.378906 6.96875 C 14.703125 6.675781 14.976562 6.332031 15.195312 5.953125 C 15.46875 5.476562 15.617188 4.972656 15.570312 4.421875 Z M 13.761719 2.59375 C 13.800781 2.546875 13.832031 2.546875 13.875 2.589844 C 14.011719 2.746094 14.15625 2.898438 14.289062 3.054688 C 14.304688 3.074219 14.3125 3.128906 14.296875 3.144531 C 14.058594 3.421875 13.816406 3.699219 13.570312 3.984375 C 13.386719 3.824219 13.210938 3.671875 13.039062 3.515625 C 13.023438 3.503906 13.027344 3.441406 13.046875 3.421875 C 13.179688 3.261719 13.316406 3.105469 13.453125 2.949219 C 13.554688 2.828125 13.660156 2.710938 13.761719 2.59375 Z M 10.574219 4.980469 C 10.5 4.917969 10.421875 4.855469 10.351562 4.789062 C 10.335938 4.769531 10.320312 4.71875 10.332031 4.703125 C 10.507812 4.492188 10.691406 4.285156 10.878906 4.066406 C 11.058594 4.226562 11.230469 4.375 11.398438 4.527344 C 11.410156 4.550781 11.410156 4.578125 11.398438 4.601562 C 11.222656 4.808594 11.042969 5.015625 10.855469 5.230469 C 10.757812 5.140625 10.664062 5.0625 10.574219 4.980469 Z M 10.539062 5.578125 C 10.503906 5.621094 10.472656 5.660156 10.441406 5.699219 C 10.300781 5.863281 10.15625 6.023438 10.019531 6.1875 C 9.976562 6.238281 9.941406 6.253906 9.882812 6.199219 C 9.726562 6.054688 9.5625 5.917969 9.394531 5.765625 C 9.582031 5.546875 9.761719 5.34375 9.945312 5.136719 C 9.957031 5.125 10.007812 5.117188 10.023438 5.132812 C 10.195312 5.273438 10.363281 5.421875 10.539062 5.578125 Z M 11.1875 3.710938 C 11.34375 3.53125 11.492188 3.359375 11.640625 3.1875 C 11.773438 3.039062 11.773438 3.039062 11.925781 3.171875 C 12.058594 3.289062 12.191406 3.40625 12.335938 3.53125 C 12.226562 3.65625 12.121094 3.777344 12.015625 3.898438 C 11.945312 3.976562 11.878906 4.0625 11.804688 4.140625 C 11.785156 4.160156 11.726562 4.171875 11.710938 4.160156 C 11.535156 4.015625 11.367188 3.863281 11.1875 3.710938 Z M 11.15625 3.046875 C 11.070312 3.144531 10.984375 3.242188 10.898438 3.339844 C 10.863281 3.382812 10.832031 3.40625 10.777344 3.355469 C 10.628906 3.222656 10.476562 3.089844 10.324219 2.957031 C 10.289062 2.925781 10.269531 2.898438 10.308594 2.851562 C 10.488281 2.648438 10.660156 2.445312 10.847656 2.234375 C 11.042969 2.402344 11.230469 2.566406 11.425781 2.734375 C 11.332031 2.847656 11.242188 2.945312 11.15625 3.046875 Z M 10.527344 3.757812 C 10.335938 3.976562 10.15625 4.183594 9.976562 4.386719 C 9.964844 4.402344 9.914062 4.402344 9.898438 4.390625 C 9.734375 4.253906 9.570312 4.113281 9.414062 3.96875 C 9.398438 3.953125 9.394531 3.898438 9.410156 3.882812 C 9.574219 3.6875 9.742188 3.5 9.914062 3.308594 C 9.929688 3.292969 9.980469 3.289062 9.992188 3.300781 C 10.167969 3.449219 10.34375 3.601562 10.527344 3.757812 Z M 9.578125 4.738281 C 9.617188 4.773438 9.625 4.800781 9.585938 4.84375 C 9.421875 5.027344 9.261719 5.214844 9.097656 5.402344 C 9.082031 5.421875 9.066406 5.441406 9.054688 5.464844 C 9.019531 5.4375 8.996094 5.425781 8.980469 5.414062 C 8.832031 5.28125 8.683594 5.152344 8.53125 5.023438 C 8.476562 4.976562 8.484375 4.941406 8.527344 4.894531 C 8.683594 4.71875 8.839844 4.539062 8.992188 4.359375 C 9.039062 4.304688 9.074219 4.300781 9.128906 4.347656 C 9.277344 4.480469 9.425781 4.609375 9.578125 4.738281 Z M 8.621094 5.699219 C 8.757812 5.816406 8.757812 5.789062 8.640625 5.925781 C 8.496094 6.09375 8.355469 6.257812 8.210938 6.421875 C 8.191406 6.445312 8.167969 6.46875 8.136719 6.496094 C 7.953125 6.339844 7.777344 6.1875 7.605469 6.03125 C 7.59375 6.019531 7.585938 5.976562 7.597656 5.964844 C 7.785156 5.746094 7.976562 5.53125 8.175781 5.304688 C 8.328125 5.441406 8.476562 5.570312 8.621094 5.699219 Z M 9.089844 6.109375 C 9.28125 6.273438 9.464844 6.429688 9.660156 6.597656 C 9.457031 6.832031 9.257812 7.058594 9.050781 7.296875 C 8.859375 7.128906 8.675781 6.96875 8.488281 6.804688 C 8.691406 6.574219 8.882812 6.347656 9.089844 6.109375 Z M 9.441406 7.554688 C 9.621094 7.339844 9.808594 7.128906 10.003906 6.90625 C 10.191406 7.066406 10.363281 7.210938 10.53125 7.363281 C 10.546875 7.378906 10.554688 7.429688 10.542969 7.445312 C 10.359375 7.664062 10.171875 7.878906 9.976562 8.105469 C 9.867188 8.007812 9.757812 7.917969 9.65625 7.828125 C 9.585938 7.765625 9.515625 7.710938 9.453125 7.644531 C 9.433594 7.625 9.429688 7.574219 9.441406 7.554688 Z M 10.300781 6.5625 C 10.5 6.335938 10.691406 6.117188 10.886719 5.894531 C 10.910156 5.902344 10.929688 5.914062 10.945312 5.925781 C 11.101562 6.0625 11.253906 6.199219 11.410156 6.332031 C 11.457031 6.371094 11.457031 6.40625 11.417969 6.449219 C 11.253906 6.632812 11.097656 6.820312 10.933594 7 C 10.914062 7.019531 10.855469 7.039062 10.839844 7.023438 C 10.660156 6.878906 10.484375 6.722656 10.300781 6.5625 Z M 11.203125 5.527344 C 11.402344 5.296875 11.589844 5.082031 11.785156 4.855469 C 11.980469 5.023438 12.167969 5.191406 12.363281 5.367188 C 12.242188 5.507812 12.125 5.644531 12.007812 5.777344 C 11.949219 5.84375 11.890625 5.917969 11.828125 5.980469 C 11.808594 5.996094 11.757812 6.007812 11.742188 5.996094 C 11.5625 5.84375 11.390625 5.6875 11.203125 5.527344 Z M 12.101562 4.503906 C 12.289062 4.289062 12.464844 4.085938 12.640625 3.886719 C 12.65625 3.871094 12.71875 3.867188 12.734375 3.882812 C 12.894531 4.015625 13.050781 4.15625 13.210938 4.292969 C 13.253906 4.332031 13.246094 4.359375 13.214844 4.398438 C 13.050781 4.582031 12.894531 4.769531 12.730469 4.949219 C 12.710938 4.96875 12.660156 4.984375 12.644531 4.972656 C 12.464844 4.820312 12.289062 4.667969 12.101562 4.503906 Z M 12.972656 1.78125 C 13.132812 1.925781 13.300781 2.066406 13.480469 2.21875 C 13.203125 2.539062 12.929688 2.851562 12.648438 3.175781 C 12.457031 3.007812 12.273438 2.847656 12.085938 2.683594 C 12.175781 2.582031 12.257812 2.488281 12.339844 2.390625 C 12.511719 2.191406 12.6875 1.996094 12.859375 1.796875 C 12.894531 1.753906 12.921875 1.742188 12.972656 1.78125 Z M 11.867188 1.066406 C 11.886719 1.050781 11.9375 1.035156 11.953125 1.046875 C 12.152344 1.167969 12.34375 1.292969 12.546875 1.425781 C 12.515625 1.472656 12.492188 1.507812 12.46875 1.539062 C 12.246094 1.792969 12.019531 2.046875 11.800781 2.304688 C 11.75 2.359375 11.71875 2.375 11.660156 2.320312 C 11.496094 2.171875 11.332031 2.03125 11.15625 1.878906 C 11.328125 1.683594 11.488281 1.5 11.648438 1.316406 C 11.71875 1.234375 11.789062 1.148438 11.867188 1.066406 Z M 11.496094 0.816406 C 11.484375 0.839844 11.46875 0.863281 11.453125 0.886719 C 11.261719 1.105469 11.074219 1.320312 10.886719 1.535156 C 10.851562 1.574219 10.824219 1.597656 10.773438 1.554688 C 10.5 1.308594 10.222656 1.066406 9.945312 0.828125 C 9.9375 0.820312 9.933594 0.808594 9.925781 0.792969 C 10.453125 0.5625 10.96875 0.617188 11.496094 0.816406 Z M 9.4375 1.089844 C 9.460938 1.074219 9.515625 1.082031 9.539062 1.097656 C 9.851562 1.367188 10.164062 1.636719 10.476562 1.914062 C 10.492188 1.925781 10.5 1.976562 10.492188 1.988281 C 10.3125 2.199219 10.128906 2.40625 9.9375 2.621094 C 9.570312 2.300781 9.210938 1.988281 8.847656 1.667969 C 9.027344 1.445312 9.214844 1.25 9.4375 1.089844 Z M 8.105469 2.710938 C 8.257812 2.496094 8.402344 2.277344 8.558594 2.046875 C 8.921875 2.363281 9.269531 2.664062 9.628906 2.980469 C 9.433594 3.203125 9.238281 3.421875 9.042969 3.644531 C 8.929688 3.546875 8.824219 3.457031 8.714844 3.363281 C 8.519531 3.195312 8.324219 3.023438 8.125 2.855469 C 8.074219 2.808594 8.0625 2.773438 8.105469 2.710938 Z M 7.378906 3.933594 C 7.515625 3.6875 7.652344 3.445312 7.796875 3.179688 C 7.953125 3.320312 8.09375 3.441406 8.230469 3.566406 C 8.375 3.691406 8.523438 3.816406 8.667969 3.945312 C 8.699219 3.972656 8.738281 4.003906 8.695312 4.050781 C 8.515625 4.253906 8.335938 4.460938 8.148438 4.675781 C 8.097656 4.636719 8.054688 4.597656 8.007812 4.5625 C 7.8125 4.390625 7.617188 4.21875 7.417969 4.050781 C 7.382812 4.015625 7.351562 3.988281 7.378906 3.933594 Z M 6.863281 5.214844 C 6.949219 4.988281 7.027344 4.757812 7.109375 4.523438 C 7.121094 4.496094 7.136719 4.464844 7.152344 4.433594 C 7.171875 4.445312 7.191406 4.453125 7.210938 4.464844 C 7.402344 4.632812 7.59375 4.800781 7.785156 4.964844 C 7.820312 4.996094 7.851562 5.019531 7.808594 5.066406 C 7.621094 5.28125 7.4375 5.492188 7.238281 5.71875 C 7.132812 5.628906 7.039062 5.535156 6.933594 5.457031 C 6.839844 5.390625 6.824219 5.320312 6.863281 5.214844 Z M 6.71875 5.824219 C 6.804688 5.898438 6.871094 5.949219 6.929688 6.007812 C 6.9375 6.019531 6.929688 6.0625 6.917969 6.082031 C 6.835938 6.183594 6.75 6.28125 6.664062 6.378906 C 6.652344 6.375 6.644531 6.371094 6.632812 6.367188 C 6.660156 6.199219 6.6875 6.027344 6.71875 5.824219 Z M 6.503906 8.371094 C 6.496094 8.324219 6.488281 8.300781 6.492188 8.28125 C 6.503906 7.941406 6.519531 7.597656 6.535156 7.257812 C 6.535156 7.214844 6.550781 7.171875 6.582031 7.136719 C 6.804688 6.867188 7.03125 6.605469 7.261719 6.34375 C 7.273438 6.335938 7.285156 6.328125 7.296875 6.320312 C 7.433594 6.441406 7.574219 6.558594 7.714844 6.679688 C 7.867188 6.8125 7.867188 6.8125 7.734375 6.964844 C 7.359375 7.398438 6.980469 7.832031 6.601562 8.265625 C 6.574219 8.292969 6.546875 8.324219 6.503906 8.371094 Z M 6.910156 9.621094 C 6.820312 9.617188 6.734375 9.628906 6.644531 9.628906 C 6.574219 9.632812 6.523438 9.601562 6.515625 9.527344 C 6.503906 9.394531 6.5 9.261719 6.496094 9.128906 C 6.5 9.101562 6.511719 9.074219 6.53125 9.050781 C 7.082031 8.417969 7.632812 7.785156 8.1875 7.152344 C 8.199219 7.140625 8.210938 7.132812 8.222656 7.125 C 8.40625 7.285156 8.585938 7.441406 8.773438 7.605469 C 8.6875 7.707031 8.609375 7.796875 8.535156 7.886719 C 8.0625 8.429688 7.589844 8.976562 7.117188 9.519531 C 7.058594 9.585938 7 9.628906 6.910156 9.621094 Z M 9.652344 8.464844 C 9.414062 8.746094 9.171875 9.023438 8.925781 9.300781 C 8.898438 9.328125 8.859375 9.351562 8.816406 9.355469 C 8.472656 9.414062 8.128906 9.46875 7.785156 9.527344 C 7.773438 9.527344 7.757812 9.519531 7.722656 9.515625 C 8.191406 8.976562 8.652344 8.449219 9.121094 7.910156 C 9.304688 8.074219 9.480469 8.222656 9.652344 8.378906 C 9.667969 8.394531 9.667969 8.449219 9.652344 8.464844 Z M 9.644531 9.171875 C 9.640625 9.164062 9.636719 9.15625 9.632812 9.148438 C 9.753906 9.015625 9.871094 8.875 9.992188 8.746094 C 10.011719 8.730469 10.039062 8.730469 10.0625 8.742188 C 10.144531 8.804688 10.222656 8.871094 10.324219 8.964844 C 10.078125 9.035156 9.863281 9.101562 9.644531 9.171875 Z M 11.3125 8.53125 C 11.160156 8.609375 11 8.683594 10.847656 8.757812 C 10.792969 8.785156 10.753906 8.785156 10.707031 8.742188 C 10.59375 8.636719 10.480469 8.539062 10.359375 8.441406 C 10.3125 8.402344 10.308594 8.371094 10.351562 8.320312 C 10.519531 8.128906 10.691406 7.933594 10.863281 7.742188 C 10.878906 7.722656 10.9375 7.710938 10.953125 7.726562 C 11.183594 7.921875 11.414062 8.125 11.65625 8.339844 C 11.53125 8.410156 11.425781 8.476562 11.3125 8.53125 Z M 12.175781 8 C 12.054688 8.089844 12.050781 8.085938 11.9375 7.984375 C 11.71875 7.792969 11.496094 7.597656 11.273438 7.410156 C 11.21875 7.359375 11.210938 7.332031 11.261719 7.273438 C 11.425781 7.09375 11.578125 6.914062 11.738281 6.730469 C 11.773438 6.6875 11.804688 6.679688 11.851562 6.71875 C 12.148438 6.980469 12.449219 7.238281 12.75 7.5 C 12.761719 7.515625 12.769531 7.53125 12.78125 7.546875 C 12.578125 7.699219 12.378906 7.851562 12.175781 8 Z M 13.789062 6.632812 C 13.777344 6.648438 13.761719 6.667969 13.746094 6.683594 C 13.566406 6.84375 13.386719 7.003906 13.210938 7.164062 C 13.164062 7.207031 13.128906 7.203125 13.085938 7.164062 C 12.78125 6.898438 12.476562 6.632812 12.171875 6.371094 C 12.121094 6.328125 12.117188 6.296875 12.160156 6.25 C 12.320312 6.066406 12.480469 5.882812 12.640625 5.699219 C 12.675781 5.65625 12.703125 5.65625 12.746094 5.695312 C 13.078125 5.984375 13.410156 6.269531 13.742188 6.554688 C 13.761719 6.574219 13.792969 6.582031 13.820312 6.597656 C 13.8125 6.609375 13.800781 6.621094 13.789062 6.632812 Z M 14.621094 5.671875 C 14.472656 5.878906 14.324219 6.082031 14.167969 6.300781 C 14.054688 6.207031 13.964844 6.132812 13.878906 6.054688 C 13.609375 5.820312 13.339844 5.585938 13.070312 5.347656 C 13.039062 5.324219 12.992188 5.300781 13.039062 5.25 C 13.214844 5.042969 13.394531 4.835938 13.582031 4.628906 C 13.613281 4.652344 13.640625 4.667969 13.664062 4.6875 C 13.976562 4.957031 14.28125 5.230469 14.59375 5.496094 C 14.65625 5.550781 14.675781 5.597656 14.621094 5.671875 Z M 14.863281 5.109375 C 14.535156 4.820312 14.21875 4.546875 13.890625 4.261719 C 14.125 3.996094 14.351562 3.738281 14.585938 3.46875 C 14.894531 3.980469 15.035156 4.503906 14.863281 5.109375 Z M 14.863281 5.109375 "/>
</g>
</svg>
