<?xml version="1.0" encoding="UTF-8"?>
<svg xmlns="http://www.w3.org/2000/svg" xmlns:xlink="http://www.w3.org/1999/xlink" width="11" height="10.322013" viewBox="0 0 11 10.322013">
<path fill-rule="nonzero" fill="rgb(30%,30%,30%)" fill-opacity="1" d="M 5.609375 8.089844 C 5.609375 8.089844 5.605469 8.089844 5.605469 8.089844 C 5.535156 8.078125 5.523438 8.0625 5.554688 8.023438 L 5.570312 8.03125 C 5.589844 8.042969 5.601562 8.066406 5.609375 8.089844 Z M 5.570312 8.007812 L 5.519531 8.007812 L 5.554688 8.023438 C 5.558594 8.019531 5.5625 8.015625 5.570312 8.007812 Z M 10.976562 10.269531 C 10.960938 10.292969 10.929688 10.308594 10.898438 10.308594 C 10.886719 10.308594 10.878906 10.304688 10.867188 10.300781 L 7.738281 9.308594 C 7.738281 9.308594 7.734375 9.308594 7.730469 9.308594 L 5.542969 10.3125 C 5.527344 10.316406 5.515625 10.320312 5.5 10.320312 C 5.480469 10.320312 5.460938 10.316406 5.445312 10.304688 C 5.4375 10.300781 5.429688 10.292969 5.425781 10.285156 C 5.421875 10.28125 5.421875 10.28125 5.417969 10.28125 L 2.949219 9.304688 C 2.949219 9.304688 2.945312 9.304688 2.941406 9.304688 L 0.132812 10.296875 C 0.125 10.300781 0.113281 10.304688 0.101562 10.304688 C 0.0703125 10.304688 0.0429688 10.289062 0.0234375 10.265625 C -0.00390625 10.234375 -0.0078125 10.1875 0.015625 10.148438 L 1.289062 8.132812 L 1.910156 7.148438 C 1.917969 7.132812 1.933594 7.121094 1.949219 7.113281 L 3.378906 6.390625 C 2.324219 5.246094 2.351562 3.460938 3.460938 2.347656 C 4.605469 1.207031 6.453125 1.210938 7.589844 2.347656 C 8.707031 3.46875 8.726562 5.28125 7.640625 6.421875 L 9.152344 7.121094 C 9.171875 7.128906 9.1875 7.144531 9.195312 7.164062 L 9.785156 8.144531 L 10.386719 9.148438 L 10.984375 10.15625 C 11.007812 10.191406 11.003906 10.238281 10.976562 10.269531 Z M 9.625 8.277344 L 7.367188 7.367188 C 7.363281 7.363281 7.355469 7.363281 7.351562 7.367188 C 7.347656 7.371094 7.347656 7.375 7.347656 7.382812 L 7.542969 8.109375 C 7.542969 8.113281 7.546875 8.117188 7.550781 8.117188 L 8.222656 8.355469 L 10.035156 9 C 10.039062 9 10.042969 9 10.046875 8.996094 C 10.050781 8.992188 10.050781 8.984375 10.046875 8.980469 L 9.628906 8.28125 C 9.628906 8.277344 9.628906 8.277344 9.625 8.277344 Z M 9.035156 7.292969 L 7.488281 6.574219 C 7.394531 6.660156 7.296875 6.738281 7.195312 6.808594 L 7.195312 6.8125 L 7.273438 7.105469 C 7.273438 7.109375 7.277344 7.113281 7.28125 7.113281 L 9.445312 7.984375 L 9.457031 7.988281 L 9.042969 7.296875 C 9.039062 7.292969 9.039062 7.292969 9.035156 7.292969 Z M 5.628906 8.308594 L 5.628906 8.460938 L 5.617188 9.066406 C 5.617188 9.070312 5.617188 9.074219 5.621094 9.074219 C 5.625 9.078125 5.628906 9.078125 5.636719 9.078125 C 5.636719 9.078125 7.195312 8.253906 7.339844 8.183594 C 7.339844 8.183594 7.152344 7.421875 7.132812 7.363281 L 5.613281 8.222656 C 5.632812 8.296875 5.628906 8.300781 5.628906 8.308594 Z M 7.765625 4.519531 L 8.207031 4.519531 C 8.257812 4.519531 8.296875 4.480469 8.296875 4.429688 C 8.296875 4.382812 8.257812 4.34375 8.207031 4.34375 L 7.765625 4.34375 C 7.648438 4.34375 7.648438 4.519531 7.765625 4.519531 Z M 5.296875 2.15625 C 5.296875 2.269531 5.472656 2.269531 5.472656 2.15625 L 5.472656 2.023438 L 5.589844 2.1875 C 5.640625 2.253906 5.75 2.222656 5.75 2.136719 L 5.75 1.75 C 5.75 1.636719 5.574219 1.636719 5.574219 1.75 L 5.574219 1.863281 L 5.457031 1.699219 C 5.433594 1.667969 5.394531 1.65625 5.359375 1.667969 C 5.324219 1.679688 5.296875 1.714844 5.296875 1.75 Z M 3.546875 4.414062 C 3.546875 5.503906 4.433594 6.390625 5.523438 6.390625 C 6.613281 6.390625 7.5 5.503906 7.5 4.414062 C 7.5 3.324219 6.613281 2.4375 5.523438 2.4375 C 4.433594 2.4375 3.546875 3.324219 3.546875 4.414062 Z M 5.441406 6.648438 L 5.441406 7.074219 C 5.441406 7.191406 5.617188 7.191406 5.617188 7.074219 L 5.617188 6.648438 C 5.617188 6.53125 5.441406 6.535156 5.441406 6.648438 Z M 3.398438 4.429688 C 3.398438 4.382812 3.359375 4.34375 3.3125 4.34375 L 2.839844 4.34375 C 2.726562 4.34375 2.722656 4.519531 2.839844 4.519531 L 3.3125 4.519531 C 3.359375 4.519531 3.398438 4.480469 3.398438 4.429688 Z M 1.675781 7.941406 L 3.5625 7.109375 C 3.566406 7.105469 3.566406 7.101562 3.570312 7.101562 L 3.664062 6.824219 L 3.707031 6.699219 C 3.648438 6.648438 3.585938 6.597656 3.53125 6.542969 L 2.070312 7.277344 C 2.066406 7.28125 2.066406 7.28125 2.066406 7.285156 L 1.660156 7.921875 C 1.65625 7.929688 1.65625 7.933594 1.660156 7.9375 C 1.664062 7.941406 1.671875 7.945312 1.675781 7.941406 Z M 1.023438 8.972656 L 3.210938 8.113281 C 3.214844 8.113281 3.21875 8.109375 3.21875 8.105469 L 3.347656 7.738281 L 3.464844 7.394531 C 3.46875 7.390625 3.464844 7.386719 3.460938 7.382812 C 3.457031 7.378906 3.453125 7.378906 3.449219 7.378906 L 1.445312 8.265625 C 1.445312 8.265625 1.441406 8.269531 1.441406 8.269531 L 1.007812 8.957031 C 1.007812 8.960938 1.007812 8.964844 1.011719 8.96875 C 1.015625 8.976562 1.019531 8.976562 1.023438 8.972656 Z M 3.121094 8.390625 C 3.121094 8.386719 3.121094 8.378906 3.117188 8.375 C 3.113281 8.375 3.109375 8.371094 3.105469 8.375 L 1.859375 8.863281 L 0.808594 9.277344 C 0.804688 9.277344 0.804688 9.277344 0.800781 9.28125 L 0.363281 9.980469 C 0.359375 9.984375 0.359375 9.988281 0.363281 9.996094 C 0.367188 10 0.371094 10 0.378906 10 L 2.863281 9.121094 C 2.867188 9.117188 2.871094 9.117188 2.871094 9.113281 Z M 5.417969 9.269531 C 5.417969 9.265625 5.414062 9.261719 5.410156 9.257812 L 3.371094 8.332031 C 3.367188 8.332031 3.363281 8.332031 3.359375 8.332031 C 3.355469 8.335938 3.351562 8.335938 3.351562 8.339844 L 3.324219 8.421875 L 3.078125 9.125 C 3.078125 9.132812 3.082031 9.140625 3.085938 9.144531 L 5.382812 10.050781 C 5.386719 10.050781 5.390625 10.050781 5.394531 10.050781 C 5.398438 10.046875 5.402344 10.042969 5.402344 10.039062 L 5.40625 9.832031 Z M 5.453125 8.253906 C 5.453125 8.230469 3.707031 7.332031 3.675781 7.382812 C 3.671875 7.378906 3.667969 7.378906 3.664062 7.382812 C 3.660156 7.382812 3.660156 7.386719 3.65625 7.390625 L 3.628906 7.46875 L 3.382812 8.175781 C 3.382812 8.183594 3.386719 8.1875 3.390625 8.191406 L 5.4375 9.070312 C 5.449219 9.074219 5.453125 8.253906 5.453125 8.253906 Z M 5.574219 8.003906 C 5.589844 7.988281 5.609375 7.972656 5.636719 7.949219 C 5.636719 7.949219 5.636719 7.949219 5.640625 7.949219 L 7.066406 7.144531 C 7.070312 7.144531 7.074219 7.136719 7.070312 7.132812 L 7.015625 6.921875 C 6.046875 7.5 4.820312 7.46875 3.878906 6.824219 L 3.777344 7.121094 C 3.773438 7.128906 3.777344 7.132812 3.78125 7.136719 L 5.519531 8.007812 L 5.550781 8.023438 C 5.554688 8.023438 5.558594 8.023438 5.5625 8.023438 C 5.566406 8.019531 5.566406 8.015625 5.570312 8.011719 C 5.570312 8.007812 5.570312 8.007812 5.574219 8.003906 Z M 7.605469 9.132812 L 7.597656 9.109375 L 7.398438 8.359375 C 7.398438 8.355469 7.394531 8.351562 7.390625 8.347656 C 7.386719 8.347656 7.382812 8.347656 7.378906 8.347656 L 6.65625 8.730469 L 5.625 9.269531 C 5.621094 9.273438 5.617188 9.277344 5.617188 9.28125 L 5.617188 9.4375 L 5.605469 10.039062 C 5.605469 10.042969 5.605469 10.046875 5.609375 10.050781 C 5.613281 10.054688 5.617188 10.054688 5.621094 10.050781 L 7.597656 9.148438 C 7.605469 9.144531 7.609375 9.136719 7.605469 9.132812 Z M 10.65625 10 L 10.234375 9.289062 C 10.230469 9.285156 10.230469 9.285156 10.226562 9.285156 L 9.738281 9.109375 L 7.628906 8.363281 C 7.625 8.359375 7.621094 8.359375 7.617188 8.363281 C 7.613281 8.367188 7.613281 8.371094 7.613281 8.378906 L 7.808594 9.113281 C 7.8125 9.117188 7.8125 9.121094 7.816406 9.121094 L 10.644531 10.019531 C 10.648438 10.023438 10.652344 10.019531 10.65625 10.015625 C 10.660156 10.011719 10.660156 10.003906 10.65625 10 Z M 4.300781 0.773438 L 4.300781 0.546875 C 4.300781 0.246094 4.542969 0 4.847656 0 L 6.257812 0 C 6.5625 0 6.808594 0.246094 6.808594 0.546875 L 6.808594 0.773438 C 6.808594 1.074219 6.5625 1.320312 6.257812 1.320312 L 4.847656 1.320312 C 4.542969 1.320312 4.300781 1.074219 4.300781 0.773438 Z M 4.652344 0.773438 C 4.652344 0.878906 4.738281 0.96875 4.847656 0.96875 L 6.257812 0.96875 C 6.367188 0.96875 6.453125 0.878906 6.453125 0.773438 L 6.453125 0.546875 C 6.453125 0.441406 6.367188 0.355469 6.257812 0.355469 L 4.847656 0.355469 C 4.738281 0.355469 4.652344 0.441406 4.652344 0.546875 Z M 6.816406 3.175781 C 6.816406 3.179688 5.890625 4.757812 5.886719 4.761719 C 5.875 4.777344 4.289062 5.703125 4.285156 5.703125 C 4.273438 5.710938 4.265625 5.707031 4.253906 5.703125 C 4.253906 5.703125 4.25 5.703125 4.246094 5.699219 C 4.238281 5.695312 4.234375 5.6875 4.234375 5.679688 C 4.230469 5.675781 4.230469 5.671875 4.230469 5.667969 C 4.230469 5.664062 4.230469 5.660156 4.230469 5.65625 C 4.234375 5.652344 4.234375 5.648438 4.234375 5.644531 L 4.238281 5.644531 L 5.164062 4.066406 C 5.171875 4.046875 6.757812 3.121094 6.761719 3.121094 C 6.792969 3.105469 6.832031 3.144531 6.816406 3.175781 Z M 5.785156 4.734375 L 5.523438 4.472656 L 4.523438 5.46875 Z M 6.523438 3.355469 L 5.265625 4.09375 L 5.523438 4.355469 Z M 6.523438 3.355469 "/>
</svg>
