<?xml version="1.0" encoding="UTF-8"?>
<svg xmlns="http://www.w3.org/2000/svg" xmlns:xlink="http://www.w3.org/1999/xlink" width="11" height="10.51271" viewBox="0 0 11 10.51271">
<path fill-rule="nonzero" fill="rgb(30%,30%,30%)" fill-opacity="1" d="M 6.46875 4.179688 C 6.609375 2.925781 8.507812 0.894531 9.265625 0.132812 C 9.433594 -0.0390625 9.710938 -0.0429688 9.882812 0.121094 L 10.859375 1.042969 C 11.039062 1.210938 11.046875 1.488281 10.882812 1.667969 C 10.183594 2.417969 8.359375 4.226562 6.757812 4.488281 C 6.636719 4.507812 9.746094 1.261719 9.671875 1.308594 C 8.789062 1.859375 6.46875 4.179688 6.46875 4.179688 Z M 1.308594 1.34375 C 1.261719 1.269531 4.539062 4.34375 4.519531 4.222656 C 4.242188 2.625 2.414062 0.820312 1.652344 0.128906 C 1.472656 -0.0351562 1.195312 -0.0234375 1.03125 0.15625 L 0.117188 1.144531 C -0.046875 1.320312 -0.0390625 1.59375 0.132812 1.761719 C 0.90625 2.511719 2.957031 4.386719 4.210938 4.515625 C 4.210938 4.515625 1.867188 2.21875 1.308594 1.34375 Z M 6.640625 4.636719 L 6.359375 4.355469 L 2.277344 8.410156 L 2.15625 8.304688 L 1.996094 8.484375 L 2.105469 8.582031 L 0.472656 10.207031 L 0.753906 10.484375 L 2.40625 8.84375 L 2.539062 8.96875 L 2.699219 8.785156 L 2.578125 8.671875 Z M 4.652344 4.371094 L 4.367188 4.648438 L 5.003906 5.304688 L 5.28125 5.019531 Z M 8.808594 8.65625 L 8.949219 8.496094 L 8.769531 8.335938 L 8.640625 8.480469 L 5.949219 5.710938 L 5.671875 5.992188 L 8.375 8.777344 L 8.265625 8.898438 L 8.445312 9.058594 L 8.542969 8.953125 L 10.207031 10.511719 L 10.464844 10.226562 Z M 8.808594 8.65625 "/>
</svg>
