<?xml version="1.0" encoding="UTF-8" standalone="no"?>
<!-- Created with Inkscape (http://www.inkscape.org/) -->

<svg
   xmlns:dc="http://purl.org/dc/elements/1.1/"
   xmlns:cc="http://creativecommons.org/ns#"
   xmlns:rdf="http://www.w3.org/1999/02/22-rdf-syntax-ns#"
   xmlns:svg="http://www.w3.org/2000/svg"
   xmlns="http://www.w3.org/2000/svg"
   xmlns:xlink="http://www.w3.org/1999/xlink"
   xmlns:sodipodi="http://sodipodi.sourceforge.net/DTD/sodipodi-0.dtd"
   xmlns:inkscape="http://www.inkscape.org/namespaces/inkscape"
   width="30px"
   height="30px"
   version="1.1"
   id="svg8"
   inkscape:version="0.92.4 5da689c313, 2019-01-14"
   sodipodi:docname="container.svg">
  <defs
     id="defs2" />
  <sodipodi:namedview
     id="base"
     pagecolor="#ffffff"
     bordercolor="#666666"
     borderopacity="1.0"
     inkscape:pageopacity="0.0"
     inkscape:pageshadow="2"
     inkscape:zoom="13.049334"
     inkscape:cx="18.679046"
     inkscape:cy="12.165829"
     inkscape:document-units="px"
     inkscape:current-layer="layer1"
     showgrid="false"
     inkscape:snap-page="false"
     units="px"
     inkscape:window-width="1884"
     inkscape:window-height="1061"
     inkscape:window-x="0"
     inkscape:window-y="0"
     inkscape:window-maximized="1"
     fit-margin-top="0"
     fit-margin-left="0"
     fit-margin-right="0"
     fit-margin-bottom="0" />
  <metadata
     id="metadata5">
    <rdf:RDF>
      <cc:Work
         rdf:about="">
        <dc:format>image/svg+xml</dc:format>
        <dc:type
           rdf:resource="http://purl.org/dc/dcmitype/StillImage" />
        <dc:title></dc:title>
      </cc:Work>
    </rdf:RDF>
  </metadata>
    <circle
       style="color:#000000;clip-rule:nonzero;display:inline;overflow:visible;visibility:visible;opacity:1;isolation:auto;mix-blend-mode:normal;color-interpolation:sRGB;color-interpolation-filters:linearRGB;solid-color:#000000;solid-opacity:1;vector-effect:none;fill:#ffffff;fill-opacity:1;fill-rule:evenodd;stroke:#00a757;stroke-width:1;stroke-linecap:butt;stroke-linejoin:miter;stroke-miterlimit:4;stroke-dasharray:none;stroke-dashoffset:0;stroke-opacity:1;marker:none;color-rendering:auto;image-rendering:auto;shape-rendering:auto;text-rendering:auto;enable-background:accumulate"
       id="path815"
       cx="15"
       cy="15"
       r="14.5" />
<g transform="translate(6.5,8.5)"><path fill-rule="nonzero" fill="rgb(30%,30%,30%)" fill-opacity="1" d="M 1.285156 7.292969 C 1.320312 7.207031 1.359375 7.128906 1.40625 7.046875 L 1.25 6.855469 C 1.101562 6.664062 1.039062 6.417969 1.085938 6.183594 C 1.132812 5.945312 1.28125 5.742188 1.488281 5.621094 L 1.824219 5.429688 C 2.03125 5.3125 2.277344 5.289062 2.503906 5.363281 C 2.730469 5.4375 2.914062 5.601562 3.007812 5.820312 L 3.027344 5.863281 L 3.316406 6.375 C 3.429688 6.4375 3.710938 6.554688 4.34375 6.683594 C 4.695312 6.753906 5.054688 6.789062 5.414062 6.785156 C 5.695312 6.785156 5.976562 6.769531 6.253906 6.734375 L 6.171875 6.445312 C 6.09375 6.175781 6.125 5.882812 6.257812 5.636719 L 6.378906 5.402344 C 6.535156 5.113281 6.808594 4.910156 7.128906 4.84375 L 7.875 4.691406 C 7.949219 4.675781 8.023438 4.667969 8.101562 4.667969 C 8.546875 4.664062 8.949219 4.933594 9.121094 5.347656 L 9.160156 5.445312 C 9.265625 5.703125 9.265625 5.988281 9.164062 6.246094 L 8.992188 6.6875 C 9.109375 6.808594 9.210938 6.933594 9.3125 7.058594 C 9.441406 7.121094 9.578125 7.191406 9.71875 7.261719 C 10.546875 7.675781 11.578125 8.191406 12.261719 8.410156 C 12.632812 8.53125 13.195312 8.625 13.792969 8.726562 C 14.289062 8.808594 14.804688 8.898438 15.289062 9.011719 C 15.304688 8.828125 15.277344 8.695312 15.21875 8.664062 C 15.578125 7.519531 12.371094 6.519531 11.15625 5.695312 C 10.386719 5.175781 9.316406 4.132812 8.53125 3.410156 C 8.40625 3.109375 8.308594 2.839844 8.101562 2.582031 C 8.09375 2.574219 8.085938 2.566406 8.074219 2.566406 L 8.65625 1.816406 C 8.722656 1.730469 8.753906 1.617188 8.746094 1.507812 L 8.734375 1.402344 C 8.710938 1.191406 8.542969 1.023438 8.328125 1.007812 L 7.570312 0.945312 C 7.4375 0.933594 7.308594 0.984375 7.214844 1.078125 L 7.03125 1.265625 C 6.949219 1.347656 6.90625 1.457031 6.902344 1.570312 L 6.894531 2.601562 C 6.203125 2.546875 5.082031 2.390625 4.117188 1.855469 C 2.941406 1.203125 2.855469 0.8125 2.820312 0.816406 L 2.742188 0.15625 C 2.734375 0.105469 2.707031 0.0625 2.664062 0.03125 C 2.621094 0.00390625 2.570312 -0.0078125 2.519531 0.00390625 L 2.144531 0.09375 C 2.09375 0.105469 2.050781 0.140625 2.027344 0.1875 C 2.003906 0.230469 2 0.285156 2.019531 0.335938 L 2.292969 1.015625 C 2.054688 1.160156 1.785156 1.398438 1.578125 1.796875 C 1.472656 1.996094 1.132812 2.921875 0.878906 3.675781 C 0.792969 3.929688 0.71875 4.160156 0.664062 4.335938 C 0.664062 4.335938 0.664062 4.339844 0.664062 4.339844 C 0.660156 4.351562 0.65625 4.363281 0.652344 4.375 C 0.0898438 4.285156 -0.175781 6.382812 0.125 6.683594 C 0.167969 6.730469 0.339844 6.980469 0.847656 7.152344 Z M 1.285156 7.292969 "/>
<path fill-rule="nonzero" fill="rgb(30%,30%,30%)" fill-opacity="1" d="M 16.792969 11.339844 C 16.777344 9.457031 13.460938 9.335938 12.058594 8.886719 C 11.171875 8.601562 9.847656 7.90625 8.886719 7.429688 C 8.683594 7.179688 8.515625 6.945312 8.238281 6.753906 C 8.230469 6.75 8.21875 6.746094 8.210938 6.746094 L 8.554688 5.867188 C 8.59375 5.765625 8.59375 5.648438 8.550781 5.542969 L 8.511719 5.449219 C 8.429688 5.25 8.21875 5.136719 8.011719 5.183594 L 7.261719 5.335938 C 7.132812 5.363281 7.023438 5.445312 6.960938 5.5625 L 6.835938 5.792969 C 6.785156 5.894531 6.769531 6.011719 6.800781 6.121094 L 7.089844 7.117188 C 6.410156 7.253906 5.292969 7.402344 4.210938 7.175781 C 3.179688 6.964844 2.859375 6.75 2.761719 6.625 C 2.582031 6.53125 2.40625 5.933594 2.40625 5.933594 C 2.386719 5.886719 2.347656 5.851562 2.296875 5.835938 C 2.25 5.820312 2.195312 5.824219 2.152344 5.851562 L 1.816406 6.042969 C 1.773438 6.066406 1.742188 6.113281 1.730469 6.164062 C 1.722656 6.214844 1.734375 6.265625 1.765625 6.308594 L 2.222656 6.882812 C 2.035156 7.085938 1.84375 7.390625 1.757812 7.832031 C 1.714844 8.054688 1.65625 9.039062 1.625 9.832031 C 1.617188 10.097656 1.609375 10.339844 1.609375 10.527344 C 1.609375 10.542969 1.609375 10.554688 1.609375 10.566406 C 1.042969 10.636719 1.386719 12.382812 1.757812 12.585938 C 1.816406 12.617188 2.046875 12.8125 2.585938 12.832031 L 5.246094 12.890625 C 6.339844 12.902344 6.886719 12.535156 8.417969 12.535156 C 10.183594 12.535156 11.226562 12.855469 12.320312 12.820312 L 15.714844 12.523438 C 15.832031 12.503906 15.941406 12.476562 16.054688 12.441406 C 17.28125 12.113281 17.054688 11.390625 16.792969 11.339844 Z M 16.792969 11.339844 "/>
</g>
</svg>
