<?xml version="1.0" encoding="UTF-8"?>
<svg xmlns="http://www.w3.org/2000/svg" xmlns:xlink="http://www.w3.org/1999/xlink" width="10.423387" height="11" viewBox="0 0 10.423387 11">
<path fill-rule="nonzero" fill="rgb(30%,30%,30%)" fill-opacity="1" d="M 8.539062 1.335938 L 4.074219 2.496094 L 4.089844 0.128906 Z M 10.421875 8.917969 C 10.421875 10.066406 8.089844 11 5.210938 11 C 2.332031 11 0 10.066406 0 8.917969 C 0 8.09375 1.1875 7.386719 2.917969 7.046875 L 2.90625 9.480469 C 2.90625 9.621094 3.03125 9.738281 3.191406 9.738281 C 3.191406 9.738281 3.21875 9.722656 3.21875 9.738281 C 3.21875 9.746094 3.210938 9.320312 3.21875 9.320312 L 3.148438 0.257812 C 3.148438 0.117188 3.277344 0 3.4375 0 C 3.597656 0 3.726562 0.113281 3.726562 0.253906 L 3.773438 6.914062 C 4.25 6.859375 4.730469 6.832031 5.210938 6.832031 C 8.089844 6.832031 10.421875 7.765625 10.421875 8.917969 Z M 5.632812 8.960938 C 5.417969 8.960938 5.246094 9.132812 5.246094 9.34375 C 5.246094 9.554688 5.417969 9.730469 5.632812 9.730469 C 5.84375 9.730469 6.015625 9.554688 6.015625 9.34375 C 6.015625 9.132812 5.84375 8.960938 5.632812 8.960938 Z M 5.632812 8.960938 "/>
</svg>
