<?xml version="1.0" encoding="UTF-8"?>
<svg xmlns="http://www.w3.org/2000/svg" xmlns:xlink="http://www.w3.org/1999/xlink" width="11" height="10.755256" viewBox="0 0 11 10.755256">
<path fill-rule="nonzero" fill="rgb(30%,30%,30%)" fill-opacity="1" d="M 11 2.042969 C 11 2.730469 10.441406 3.289062 9.753906 3.289062 C 9.066406 3.289062 8.507812 2.730469 8.507812 2.042969 C 8.507812 1.351562 9.066406 0.796875 9.753906 0.796875 C 10.441406 0.796875 11 1.351562 11 2.042969 Z M 11 2.042969 "/>
<path fill-rule="nonzero" fill="rgb(30%,30%,30%)" fill-opacity="1" d="M 0.132812 9.890625 C -0.0546875 10.097656 -0.0429688 10.417969 0.164062 10.609375 L 0.179688 10.621094 C 0.382812 10.8125 0.703125 10.796875 0.894531 10.59375 L 4.628906 6.542969 L 3.867188 5.839844 Z M 0.132812 9.890625 "/>
<path fill-rule="nonzero" fill="rgb(30%,30%,30%)" fill-opacity="1" d="M 10.8125 5.589844 C 10.804688 5.3125 10.574219 5.09375 10.300781 5.101562 L 8.183594 5.121094 L 8.175781 4.179688 L 7.179688 5.289062 C 7.089844 5.390625 7.039062 5.523438 7.046875 5.660156 C 7.054688 5.796875 7.117188 5.925781 7.21875 6.015625 L 7.234375 6.03125 C 7.292969 6.085938 7.363281 6.125 7.441406 6.144531 L 7.445312 6.15625 L 7.5 6.15625 C 7.558594 6.167969 7.621094 6.164062 7.679688 6.15625 L 10.324219 6.117188 C 10.601562 6.109375 10.820312 5.882812 10.8125 5.609375 Z M 10.8125 5.589844 "/>
<path fill-rule="nonzero" fill="rgb(30%,30%,30%)" fill-opacity="1" d="M 8.425781 2.800781 L 7.699219 2.148438 L 5.691406 0.144531 C 5.496094 -0.046875 5.179688 -0.046875 4.984375 0.144531 L 4.984375 0.148438 L 4.972656 0.160156 C 4.960938 0.171875 4.945312 0.1875 4.933594 0.203125 L 3.160156 2.175781 C 2.972656 2.378906 2.988281 2.695312 3.191406 2.878906 L 3.207031 2.894531 C 3.410156 3.078125 3.726562 3.0625 3.914062 2.859375 L 5.359375 1.253906 L 6.648438 2.539062 L 4.628906 4.785156 L 4.625 4.78125 L 4.253906 5.199219 C 4.082031 5.394531 4.089844 5.6875 4.273438 5.871094 L 6.144531 7.75 L 3.5625 8.328125 C 3.347656 8.378906 3.210938 8.59375 3.261719 8.808594 L 3.308594 9.019531 C 3.355469 9.234375 3.570312 9.371094 3.785156 9.324219 L 7.164062 8.566406 C 7.25 8.566406 7.335938 8.542969 7.410156 8.5 C 7.484375 8.464844 7.542969 8.410156 7.582031 8.339844 C 7.722656 8.140625 7.699219 7.871094 7.53125 7.699219 L 7.5 7.667969 C 7.484375 7.648438 7.46875 7.632812 7.449219 7.617188 L 6.023438 6.1875 L 8.460938 3.480469 C 8.636719 3.28125 8.621094 2.980469 8.425781 2.800781 Z M 8.425781 2.800781 "/>
</svg>
