<?xml version="1.0" encoding="UTF-8" standalone="no"?>
<!-- Created with Inkscape (http://www.inkscape.org/) -->

<svg
   xmlns:dc="http://purl.org/dc/elements/1.1/"
   xmlns:cc="http://creativecommons.org/ns#"
   xmlns:rdf="http://www.w3.org/1999/02/22-rdf-syntax-ns#"
   xmlns:svg="http://www.w3.org/2000/svg"
   xmlns="http://www.w3.org/2000/svg"
   xmlns:xlink="http://www.w3.org/1999/xlink"
   xmlns:sodipodi="http://sodipodi.sourceforge.net/DTD/sodipodi-0.dtd"
   xmlns:inkscape="http://www.inkscape.org/namespaces/inkscape"
   width="30px"
   height="30px"
   version="1.1"
   id="svg8"
   inkscape:version="0.92.4 5da689c313, 2019-01-14"
   sodipodi:docname="container.svg">
  <defs
     id="defs2" />
  <sodipodi:namedview
     id="base"
     pagecolor="#ffffff"
     bordercolor="#666666"
     borderopacity="1.0"
     inkscape:pageopacity="0.0"
     inkscape:pageshadow="2"
     inkscape:zoom="13.049334"
     inkscape:cx="18.679046"
     inkscape:cy="12.165829"
     inkscape:document-units="px"
     inkscape:current-layer="layer1"
     showgrid="false"
     inkscape:snap-page="false"
     units="px"
     inkscape:window-width="1884"
     inkscape:window-height="1061"
     inkscape:window-x="0"
     inkscape:window-y="0"
     inkscape:window-maximized="1"
     fit-margin-top="0"
     fit-margin-left="0"
     fit-margin-right="0"
     fit-margin-bottom="0" />
  <metadata
     id="metadata5">
    <rdf:RDF>
      <cc:Work
         rdf:about="">
        <dc:format>image/svg+xml</dc:format>
        <dc:type
           rdf:resource="http://purl.org/dc/dcmitype/StillImage" />
        <dc:title></dc:title>
      </cc:Work>
    </rdf:RDF>
  </metadata>
    <circle
       style="color:#000000;clip-rule:nonzero;display:inline;overflow:visible;visibility:visible;opacity:1;isolation:auto;mix-blend-mode:normal;color-interpolation:sRGB;color-interpolation-filters:linearRGB;solid-color:#000000;solid-opacity:1;vector-effect:none;fill:#ffffff;fill-opacity:1;fill-rule:evenodd;stroke:#00a757;stroke-width:1;stroke-linecap:butt;stroke-linejoin:miter;stroke-miterlimit:4;stroke-dasharray:none;stroke-dashoffset:0;stroke-opacity:1;marker:none;color-rendering:auto;image-rendering:auto;shape-rendering:auto;text-rendering:auto;enable-background:accumulate"
       id="path815"
       cx="15"
       cy="15"
       r="14.5" />
<g transform="translate(6.5,7.0)"><path fill-rule="nonzero" fill="rgb(30%,30%,30%)" fill-opacity="1" d="M 16.628906 15.628906 L 14.394531 15.628906 L 13.980469 13.941406 L 15.039062 13.941406 C 15.257812 13.941406 15.433594 13.765625 15.433594 13.550781 C 15.433594 13.332031 15.257812 13.15625 15.039062 13.15625 L 13.785156 13.15625 L 13.40625 11.605469 L 12.617188 11.605469 L 13 13.15625 L 10.671875 13.15625 L 11.070312 11.605469 L 10.28125 11.605469 L 9.882812 13.15625 L 8.625 13.15625 C 8.40625 13.15625 8.230469 13.332031 8.230469 13.550781 C 8.230469 13.765625 8.40625 13.941406 8.625 13.941406 L 9.679688 13.941406 L 9.246094 15.628906 L 4.640625 15.628906 L 4.640625 12.078125 L 7.871094 12.078125 C 7.949219 12.078125 7.992188 12.03125 7.992188 11.964844 C 7.992188 11.90625 7.972656 11.851562 7.9375 11.804688 L 5.644531 8.167969 L 7.367188 8.167969 C 7.449219 8.167969 7.492188 8.121094 7.492188 8.050781 C 7.488281 7.996094 7.46875 7.941406 7.4375 7.894531 L 5.140625 4.253906 L 6.378906 4.253906 C 6.460938 4.253906 6.503906 4.207031 6.503906 4.140625 C 6.5 4.082031 6.480469 4.027344 6.449219 3.980469 L 3.996094 0 L 1.542969 3.980469 C 1.511719 4.027344 1.492188 4.082031 1.488281 4.140625 C 1.488281 4.207031 1.53125 4.253906 1.613281 4.253906 L 2.851562 4.253906 L 0.558594 7.894531 C 0.523438 7.941406 0.507812 7.996094 0.503906 8.050781 C 0.503906 8.121094 0.546875 8.167969 0.628906 8.167969 L 2.347656 8.167969 L 0.0546875 11.804688 C 0.0234375 11.851562 0.00390625 11.90625 0 11.964844 C 0 12.03125 0.0429688 12.078125 0.125 12.078125 L 3.519531 12.078125 L 3.519531 15.628906 L 0.8125 15.628906 C 0.609375 15.628906 0.441406 15.796875 0.441406 16 C 0.441406 16.203125 0.609375 16.371094 0.8125 16.371094 L 16.628906 16.371094 C 16.835938 16.371094 17 16.203125 17 16 C 17 15.796875 16.835938 15.628906 16.628906 15.628906 Z M 10.46875 13.941406 L 13.191406 13.941406 L 13.609375 15.628906 L 10.035156 15.628906 Z M 10.46875 13.941406 "/>
<path fill-rule="nonzero" fill="rgb(30%,30%,30%)" fill-opacity="1" d="M 9.601562 10.558594 L 14.0625 10.558594 C 14.28125 10.558594 14.453125 10.734375 14.453125 10.949219 L 14.453125 10.953125 C 14.453125 11.167969 14.28125 11.34375 14.0625 11.34375 L 9.601562 11.34375 C 9.382812 11.34375 9.210938 11.167969 9.210938 10.953125 L 9.210938 10.949219 C 9.210938 10.734375 9.382812 10.558594 9.601562 10.558594 Z M 9.601562 10.558594 "/>
</g>
</svg>
