<?xml version="1.0" encoding="UTF-8" standalone="no"?>
<!-- Created with Inkscape (http://www.inkscape.org/) -->

<svg
   xmlns:dc="http://purl.org/dc/elements/1.1/"
   xmlns:cc="http://creativecommons.org/ns#"
   xmlns:rdf="http://www.w3.org/1999/02/22-rdf-syntax-ns#"
   xmlns:svg="http://www.w3.org/2000/svg"
   xmlns="http://www.w3.org/2000/svg"
   xmlns:xlink="http://www.w3.org/1999/xlink"
   xmlns:sodipodi="http://sodipodi.sourceforge.net/DTD/sodipodi-0.dtd"
   xmlns:inkscape="http://www.inkscape.org/namespaces/inkscape"
   width="30px"
   height="30px"
   version="1.1"
   id="svg8"
   inkscape:version="0.92.4 5da689c313, 2019-01-14"
   sodipodi:docname="container.svg">
  <defs
     id="defs2" />
  <sodipodi:namedview
     id="base"
     pagecolor="#ffffff"
     bordercolor="#666666"
     borderopacity="1.0"
     inkscape:pageopacity="0.0"
     inkscape:pageshadow="2"
     inkscape:zoom="13.049334"
     inkscape:cx="18.679046"
     inkscape:cy="12.165829"
     inkscape:document-units="px"
     inkscape:current-layer="layer1"
     showgrid="false"
     inkscape:snap-page="false"
     units="px"
     inkscape:window-width="1884"
     inkscape:window-height="1061"
     inkscape:window-x="0"
     inkscape:window-y="0"
     inkscape:window-maximized="1"
     fit-margin-top="0"
     fit-margin-left="0"
     fit-margin-right="0"
     fit-margin-bottom="0" />
  <metadata
     id="metadata5">
    <rdf:RDF>
      <cc:Work
         rdf:about="">
        <dc:format>image/svg+xml</dc:format>
        <dc:type
           rdf:resource="http://purl.org/dc/dcmitype/StillImage" />
        <dc:title></dc:title>
      </cc:Work>
    </rdf:RDF>
  </metadata>
    <circle
       style="color:#000000;clip-rule:nonzero;display:inline;overflow:visible;visibility:visible;opacity:1;isolation:auto;mix-blend-mode:normal;color-interpolation:sRGB;color-interpolation-filters:linearRGB;solid-color:#000000;solid-opacity:1;vector-effect:none;fill:#ffffff;fill-opacity:1;fill-rule:evenodd;stroke:#00a757;stroke-width:1;stroke-linecap:butt;stroke-linejoin:miter;stroke-miterlimit:4;stroke-dasharray:none;stroke-dashoffset:0;stroke-opacity:1;marker:none;color-rendering:auto;image-rendering:auto;shape-rendering:auto;text-rendering:auto;enable-background:accumulate"
       id="path815"
       cx="15"
       cy="15"
       r="14.5" />
<g transform="translate(6.5,6.5)"><path fill-rule="nonzero" fill="rgb(30%,30%,30%)" fill-opacity="1" d="M 3.546875 16.945312 C 2.257812 16.945312 1.242188 16.671875 0.757812 16.191406 C 0.273438 15.707031 0 14.695312 0 13.40625 C 0 12.761719 0.0664062 12.050781 0.210938 11.300781 C 1.003906 11.871094 1.929688 12.609375 2.84375 13.519531 C 4.003906 14.675781 4.898438 15.863281 5.5 16.765625 C 4.855469 16.878906 4.203125 16.941406 3.546875 16.945312 Z M 4.632812 11.738281 C 3.269531 10.378906 1.867188 9.390625 0.9375 8.800781 C 1.589844 7.144531 2.59375 5.457031 4.035156 4.019531 C 5.40625 2.652344 7.003906 1.675781 8.585938 1.027344 C 9.511719 1.605469 10.964844 2.617188 12.371094 4.019531 C 14.359375 6.003906 15.570312 8.078125 15.867188 8.625 C 15.21875 10.125 14.273438 11.625 12.964844 12.925781 C 11.46875 14.421875 9.707031 15.441406 7.980469 16.085938 C 7.523438 15.300781 6.378906 13.484375 4.632812 11.738281 Z M 5.734375 8.652344 C 5.945312 8.652344 6.136719 8.527344 6.21875 8.332031 C 6.300781 8.136719 6.253906 7.910156 6.105469 7.761719 L 5.453125 7.109375 L 6.207031 6.355469 L 6.859375 7.007812 C 7.0625 7.210938 7.394531 7.210938 7.597656 7.007812 C 7.800781 6.804688 7.800781 6.472656 7.597656 6.269531 L 6.945312 5.617188 L 7.699219 4.863281 L 8.351562 5.515625 C 8.554688 5.71875 8.886719 5.71875 9.089844 5.515625 C 9.296875 5.308594 9.296875 4.980469 9.089844 4.773438 L 8.4375 4.121094 L 8.882812 3.679688 C 9.085938 3.476562 9.085938 3.144531 8.882812 2.941406 C 8.675781 2.738281 8.347656 2.738281 8.140625 2.941406 L 7.699219 3.382812 L 7.046875 2.730469 C 6.84375 2.523438 6.511719 2.523438 6.304688 2.730469 C 6.101562 2.933594 6.101562 3.265625 6.304688 3.46875 L 6.960938 4.121094 L 6.207031 4.875 L 5.554688 4.222656 C 5.347656 4.019531 5.015625 4.019531 4.8125 4.222656 C 4.609375 4.425781 4.609375 4.757812 4.8125 4.960938 L 5.46875 5.617188 L 4.714844 6.371094 L 4.058594 5.714844 C 3.855469 5.511719 3.523438 5.511719 3.320312 5.714844 C 3.117188 5.917969 3.117188 6.25 3.320312 6.453125 L 3.972656 7.109375 L 3.566406 7.515625 C 3.363281 7.722656 3.363281 8.050781 3.566406 8.257812 C 3.769531 8.460938 4.101562 8.460938 4.304688 8.257812 L 4.714844 7.847656 L 5.367188 8.5 C 5.464844 8.597656 5.597656 8.652344 5.734375 8.652344 Z M 14.160156 2.238281 C 13.316406 1.394531 12.453125 0.695312 11.699219 0.144531 C 12.277344 0.0507812 12.859375 0.00390625 13.445312 0 C 14.742188 0 15.757812 0.269531 16.242188 0.753906 C 16.730469 1.238281 17 2.25 17 3.539062 C 16.996094 4.195312 16.9375 4.84375 16.820312 5.488281 C 16.214844 4.585938 15.320312 3.394531 14.160156 2.238281 Z M 14.160156 2.238281 "/>
</g>
</svg>
