<?xml version="1.0" encoding="UTF-8"?>
<svg xmlns="http://www.w3.org/2000/svg" xmlns:xlink="http://www.w3.org/1999/xlink" width="11" height="9.809279" viewBox="0 0 11 9.809279">
<path fill-rule="nonzero" fill="rgb(30%,30%,30%)" fill-opacity="1" d="M 10.042969 8.902344 C 9.867188 8.890625 9.691406 8.75 9.492188 8.585938 C 9.191406 8.34375 8.855469 8.066406 8.398438 8.132812 C 8.101562 8.171875 7.886719 8.363281 7.675781 8.546875 C 7.445312 8.75 7.226562 8.941406 6.875 8.929688 C 6.679688 8.921875 6.492188 8.78125 6.277344 8.621094 C 5.957031 8.378906 5.59375 8.109375 5.09375 8.160156 C 4.804688 8.1875 4.578125 8.363281 4.359375 8.535156 C 4.117188 8.726562 3.886719 8.90625 3.558594 8.90625 C 3.359375 8.90625 3.160156 8.757812 2.929688 8.585938 C 2.640625 8.371094 2.3125 8.128906 1.914062 8.160156 C 1.625 8.183594 1.347656 8.375 1.078125 8.5625 C 0.828125 8.738281 0.589844 8.90625 0.375 8.90625 C 0.246094 8.90625 0.117188 8.867188 0.00390625 8.816406 L 0.0078125 9.71875 C 0.125 9.761719 0.25 9.785156 0.375 9.785156 C 0.675781 9.785156 0.964844 9.582031 1.246094 9.386719 C 1.492188 9.21875 1.71875 9.058594 1.933594 9.039062 C 2.230469 9.015625 2.484375 9.207031 2.753906 9.40625 C 3.007812 9.59375 3.269531 9.785156 3.558594 9.785156 C 3.984375 9.785156 4.28125 9.550781 4.542969 9.347656 C 4.742188 9.195312 4.914062 9.0625 5.121094 9.039062 C 5.515625 9 5.8125 9.222656 6.101562 9.4375 C 6.339844 9.613281 6.585938 9.800781 6.867188 9.808594 C 6.882812 9.808594 6.898438 9.808594 6.910156 9.808594 C 7.347656 9.808594 7.632812 9.5625 7.882812 9.339844 C 8.066406 9.179688 8.226562 9.039062 8.4375 9.007812 C 8.773438 8.960938 9.03125 9.171875 9.300781 9.394531 C 9.527344 9.578125 9.761719 9.769531 10.035156 9.78125 C 10.050781 9.78125 10.070312 9.78125 10.089844 9.78125 C 10.453125 9.78125 10.78125 9.597656 11.003906 9.433594 L 11.003906 8.464844 C 10.878906 8.582031 10.484375 8.921875 10.042969 8.902344 Z M 3.554688 8.144531 C 3.882812 8.144531 4.113281 7.988281 4.355469 7.824219 C 4.578125 7.675781 4.804688 7.523438 5.089844 7.5 C 5.589844 7.453125 5.953125 7.6875 6.273438 7.898438 C 6.492188 8.039062 6.679688 8.160156 6.871094 8.164062 C 7.222656 8.175781 7.441406 8.011719 7.675781 7.832031 C 7.882812 7.675781 8.097656 7.511719 8.398438 7.472656 C 8.402344 7.472656 8.410156 7.472656 8.414062 7.472656 C 8.425781 7.414062 8.429688 7.355469 8.429688 7.292969 L 8.429688 5.238281 C 8.429688 4.484375 7.714844 3.863281 6.839844 3.863281 L 3.5625 3.863281 C 2.6875 3.863281 1.972656 4.484375 1.972656 5.238281 L 1.972656 7.296875 C 1.972656 7.363281 1.980469 7.429688 1.992188 7.496094 C 2.355469 7.5 2.65625 7.695312 2.929688 7.867188 C 3.15625 8.015625 3.355469 8.144531 3.554688 8.144531 Z M 5.167969 0 C 6.085938 0 6.832031 0.746094 6.832031 1.667969 C 6.832031 2.585938 6.085938 3.332031 5.167969 3.332031 C 4.246094 3.332031 3.5 2.585938 3.5 1.667969 C 3.5 0.746094 4.246094 0 5.167969 0 Z M 5.167969 0 "/>
</svg>
