<?xml version="1.0" encoding="UTF-8"?>
<svg xmlns="http://www.w3.org/2000/svg" xmlns:xlink="http://www.w3.org/1999/xlink" width="11" height="10.228999" viewBox="0 0 11 10.228999">
<path fill-rule="nonzero" fill="rgb(30%,30%,30%)" fill-opacity="1" d="M 4.363281 0 L 4.21875 0 C 3.78125 0 3.390625 0.207031 3.121094 0.539062 L 3.660156 1.078125 C 3.796875 0.882812 3.996094 0.757812 4.21875 0.757812 L 4.363281 0.757812 C 4.757812 0.757812 5.089844 1.160156 5.089844 1.636719 L 5.089844 2.023438 L 3.328125 2.023438 L 3.328125 1.636719 C 3.328125 0.734375 2.664062 0 1.847656 0 L 1.699219 0 C 0.882812 0 0.214844 0.734375 0.214844 1.636719 L 0.214844 2.675781 L 0.972656 2.675781 L 0.972656 1.636719 C 0.972656 1.160156 1.304688 0.757812 1.699219 0.757812 L 1.847656 0.757812 C 2.238281 0.757812 2.574219 1.160156 2.574219 1.636719 L 2.574219 5.050781 L 3.328125 5.050781 L 3.328125 4.519531 L 5.089844 4.519531 L 5.089844 5.050781 L 5.847656 5.050781 L 5.847656 1.636719 C 5.847656 0.734375 5.183594 0 4.363281 0 Z M 5.089844 2.566406 L 5.089844 3.023438 L 3.328125 3.023438 L 3.328125 2.566406 Z M 3.328125 3.980469 L 3.328125 3.566406 L 5.089844 3.566406 L 5.089844 3.980469 Z M 3.328125 3.980469 "/>
<path fill-rule="nonzero" fill="rgb(30%,30%,30%)" fill-opacity="1" d="M 9.199219 7.203125 C 8.480469 7.203125 8.070312 6.773438 7.734375 6.421875 C 7.398438 6.074219 7.171875 5.855469 6.777344 5.851562 C 6.769531 5.851562 6.765625 5.851562 6.757812 5.851562 C 6.273438 5.851562 6.0625 6.085938 5.765625 6.410156 C 5.445312 6.761719 5.046875 7.203125 4.226562 7.203125 C 3.421875 7.203125 3.035156 6.761719 2.730469 6.410156 C 2.445312 6.085938 2.242188 5.851562 1.757812 5.851562 C 1.753906 5.851562 1.746094 5.851562 1.742188 5.851562 C 1.242188 5.859375 1.003906 6.105469 0.707031 6.421875 C 0.621094 6.507812 0.535156 6.601562 0.4375 6.6875 L 0 6.210938 C 0.078125 6.136719 0.15625 6.054688 0.234375 5.972656 C 0.558594 5.632812 0.964844 5.210938 1.734375 5.203125 C 1.742188 5.203125 1.75 5.203125 1.757812 5.203125 C 2.539062 5.203125 2.914062 5.636719 3.21875 5.984375 C 3.496094 6.300781 3.714844 6.554688 4.226562 6.554688 C 4.757812 6.554688 4.992188 6.296875 5.289062 5.972656 C 5.601562 5.628906 5.988281 5.203125 6.761719 5.203125 C 6.765625 5.203125 6.773438 5.203125 6.78125 5.203125 C 7.472656 5.210938 7.859375 5.617188 8.203125 5.976562 C 8.519531 6.304688 8.765625 6.566406 9.226562 6.554688 C 10.121094 6.53125 10.378906 5.867188 10.386719 5.839844 L 11 6.058594 C 10.984375 6.101562 10.59375 7.167969 9.242188 7.203125 C 9.226562 7.203125 9.210938 7.203125 9.199219 7.203125 Z M 9.199219 7.203125 "/>
<path fill-rule="nonzero" fill="rgb(30%,30%,30%)" fill-opacity="1" d="M 9.199219 8.664062 C 8.480469 8.664062 8.070312 8.234375 7.734375 7.882812 C 7.398438 7.535156 7.171875 7.316406 6.777344 7.3125 C 6.277344 7.304688 6.066406 7.542969 5.765625 7.871094 C 5.445312 8.222656 5.046875 8.664062 4.226562 8.664062 C 3.421875 8.664062 3.035156 8.222656 2.730469 7.871094 C 2.445312 7.546875 2.242188 7.3125 1.757812 7.3125 C 1.753906 7.3125 1.746094 7.3125 1.742188 7.3125 C 1.242188 7.320312 1.003906 7.566406 0.707031 7.882812 C 0.621094 7.96875 0.535156 8.0625 0.4375 8.148438 L 0 7.671875 C 0.078125 7.597656 0.15625 7.515625 0.234375 7.433594 C 0.558594 7.09375 0.964844 6.671875 1.734375 6.664062 C 2.53125 6.65625 2.910156 7.09375 3.21875 7.445312 C 3.496094 7.761719 3.714844 8.015625 4.226562 8.015625 C 4.757812 8.015625 4.992188 7.757812 5.289062 7.433594 C 5.601562 7.085938 5.996094 6.652344 6.78125 6.664062 C 7.472656 6.671875 7.859375 7.078125 8.203125 7.4375 C 8.519531 7.765625 8.765625 8.027344 9.226562 8.015625 C 10.121094 7.992188 10.378906 7.328125 10.386719 7.300781 L 11 7.519531 C 10.984375 7.5625 10.59375 8.628906 9.242188 8.664062 C 9.226562 8.664062 9.210938 8.664062 9.199219 8.664062 Z M 9.199219 8.664062 "/>
<path fill-rule="nonzero" fill="rgb(30%,30%,30%)" fill-opacity="1" d="M 9.199219 10.230469 C 8.480469 10.230469 8.070312 9.796875 7.734375 9.449219 C 7.398438 9.097656 7.171875 8.882812 6.777344 8.878906 C 6.769531 8.878906 6.765625 8.878906 6.757812 8.878906 C 6.273438 8.878906 6.0625 9.113281 5.765625 9.433594 C 5.445312 9.789062 5.046875 10.230469 4.226562 10.230469 C 3.421875 10.230469 3.035156 9.789062 2.730469 9.4375 C 2.445312 9.113281 2.242188 8.878906 1.757812 8.878906 C 1.753906 8.878906 1.746094 8.878906 1.742188 8.878906 C 1.242188 8.882812 1.003906 9.132812 0.707031 9.445312 C 0.621094 9.535156 0.535156 9.625 0.4375 9.710938 L 0 9.234375 C 0.078125 9.160156 0.15625 9.082031 0.234375 8.996094 C 0.558594 8.660156 0.964844 8.238281 1.734375 8.230469 C 2.53125 8.21875 2.910156 8.65625 3.21875 9.007812 C 3.496094 9.328125 3.714844 9.578125 4.226562 9.578125 C 4.757812 9.578125 4.992188 9.324219 5.289062 9 C 5.601562 8.65625 5.988281 8.230469 6.761719 8.230469 C 6.765625 8.230469 6.773438 8.230469 6.78125 8.230469 C 7.472656 8.238281 7.859375 8.640625 8.203125 9 C 8.519531 9.332031 8.765625 9.589844 9.226562 9.578125 C 10.121094 9.558594 10.378906 8.894531 10.386719 8.867188 L 11 9.082031 C 10.984375 9.128906 10.59375 10.195312 9.242188 10.226562 C 9.226562 10.230469 9.210938 10.230469 9.199219 10.230469 Z M 9.199219 10.230469 "/>
</svg>
