<?xml version="1.0" encoding="UTF-8" standalone="no"?>
<!-- Created with Inkscape (http://www.inkscape.org/) -->

<svg
   xmlns:dc="http://purl.org/dc/elements/1.1/"
   xmlns:cc="http://creativecommons.org/ns#"
   xmlns:rdf="http://www.w3.org/1999/02/22-rdf-syntax-ns#"
   xmlns:svg="http://www.w3.org/2000/svg"
   xmlns="http://www.w3.org/2000/svg"
   xmlns:xlink="http://www.w3.org/1999/xlink"
   xmlns:sodipodi="http://sodipodi.sourceforge.net/DTD/sodipodi-0.dtd"
   xmlns:inkscape="http://www.inkscape.org/namespaces/inkscape"
   width="30px"
   height="30px"
   version="1.1"
   id="svg8"
   inkscape:version="0.92.4 5da689c313, 2019-01-14"
   sodipodi:docname="container.svg">
  <defs
     id="defs2" />
  <sodipodi:namedview
     id="base"
     pagecolor="#ffffff"
     bordercolor="#666666"
     borderopacity="1.0"
     inkscape:pageopacity="0.0"
     inkscape:pageshadow="2"
     inkscape:zoom="13.049334"
     inkscape:cx="18.679046"
     inkscape:cy="12.165829"
     inkscape:document-units="px"
     inkscape:current-layer="layer1"
     showgrid="false"
     inkscape:snap-page="false"
     units="px"
     inkscape:window-width="1884"
     inkscape:window-height="1061"
     inkscape:window-x="0"
     inkscape:window-y="0"
     inkscape:window-maximized="1"
     fit-margin-top="0"
     fit-margin-left="0"
     fit-margin-right="0"
     fit-margin-bottom="0" />
  <metadata
     id="metadata5">
    <rdf:RDF>
      <cc:Work
         rdf:about="">
        <dc:format>image/svg+xml</dc:format>
        <dc:type
           rdf:resource="http://purl.org/dc/dcmitype/StillImage" />
        <dc:title></dc:title>
      </cc:Work>
    </rdf:RDF>
  </metadata>
    <circle
       style="color:#000000;clip-rule:nonzero;display:inline;overflow:visible;visibility:visible;opacity:1;isolation:auto;mix-blend-mode:normal;color-interpolation:sRGB;color-interpolation-filters:linearRGB;solid-color:#000000;solid-opacity:1;vector-effect:none;fill:#ffffff;fill-opacity:1;fill-rule:evenodd;stroke:#00a757;stroke-width:1;stroke-linecap:butt;stroke-linejoin:miter;stroke-miterlimit:4;stroke-dasharray:none;stroke-dashoffset:0;stroke-opacity:1;marker:none;color-rendering:auto;image-rendering:auto;shape-rendering:auto;text-rendering:auto;enable-background:accumulate"
       id="path815"
       cx="15"
       cy="15"
       r="14.5" />
<g transform="translate(6.5,7.0)"><path fill-rule="nonzero" fill="rgb(30%,30%,30%)" fill-opacity="1" d="M 9.765625 3.109375 C 9.765625 3.789062 9.214844 4.335938 8.539062 4.335938 C 7.863281 4.335938 7.3125 3.789062 7.3125 3.109375 C 7.3125 2.433594 7.863281 1.886719 8.539062 1.886719 C 9.214844 1.886719 9.765625 2.433594 9.765625 3.109375 Z M 8.5625 6.828125 C 7.882812 6.828125 7.335938 7.378906 7.335938 8.054688 C 7.335938 8.734375 7.882812 9.28125 8.5625 9.28125 C 9.238281 9.28125 9.789062 8.734375 9.789062 8.054688 C 9.789062 7.378906 9.238281 6.828125 8.5625 6.828125 Z M 5.847656 6.84375 C 5.167969 6.84375 4.621094 7.394531 4.621094 8.070312 C 4.621094 8.75 5.167969 9.296875 5.847656 9.296875 C 6.523438 9.296875 7.074219 8.75 7.074219 8.070312 C 7.074219 7.394531 6.523438 6.84375 5.847656 6.84375 Z M 11.285156 6.828125 C 10.609375 6.828125 10.058594 7.378906 10.058594 8.054688 C 10.058594 8.734375 10.609375 9.28125 11.285156 9.28125 C 11.960938 9.28125 12.511719 8.734375 12.511719 8.054688 C 12.511719 7.378906 11.960938 6.828125 11.285156 6.828125 Z M 9.941406 9.429688 C 9.261719 9.429688 8.714844 9.980469 8.714844 10.65625 C 8.714844 11.335938 9.261719 11.882812 9.941406 11.882812 C 10.617188 11.882812 11.164062 11.335938 11.164062 10.65625 C 11.164062 9.980469 10.617188 9.429688 9.941406 9.429688 Z M 7.273438 9.429688 C 6.597656 9.429688 6.046875 9.980469 6.046875 10.65625 C 6.046875 11.335938 6.597656 11.882812 7.273438 11.882812 C 7.953125 11.882812 8.5 11.335938 8.5 10.65625 C 8.5 9.980469 7.953125 9.429688 7.273438 9.429688 Z M 4.476562 9.414062 C 3.800781 9.414062 3.25 9.964844 3.25 10.640625 C 3.25 11.320312 3.800781 11.867188 4.476562 11.867188 C 5.152344 11.867188 5.703125 11.320312 5.703125 10.640625 C 5.703125 9.964844 5.152344 9.414062 4.476562 9.414062 Z M 12.558594 9.476562 C 11.882812 9.476562 11.332031 10.027344 11.332031 10.703125 C 11.332031 11.378906 11.882812 11.929688 12.558594 11.929688 C 13.234375 11.929688 13.785156 11.378906 13.785156 10.703125 C 13.785156 10.027344 13.234375 9.476562 12.558594 9.476562 Z M 11.164062 12.054688 C 10.488281 12.054688 9.9375 12.605469 9.9375 13.28125 C 9.9375 13.960938 10.488281 14.507812 11.164062 14.507812 C 11.839844 14.507812 12.390625 13.960938 12.390625 13.28125 C 12.390625 12.605469 11.839844 12.054688 11.164062 12.054688 Z M 8.554688 12.054688 C 7.878906 12.054688 7.328125 12.605469 7.328125 13.28125 C 7.328125 13.960938 7.878906 14.507812 8.554688 14.507812 C 9.234375 14.507812 9.78125 13.960938 9.78125 13.28125 C 9.78125 12.605469 9.234375 12.054688 8.554688 12.054688 Z M 5.929688 12.070312 C 5.253906 12.070312 4.707031 12.621094 4.707031 13.296875 C 4.707031 13.976562 5.253906 14.523438 5.929688 14.523438 C 6.609375 14.523438 7.15625 13.976562 7.15625 13.296875 C 7.15625 12.621094 6.609375 12.070312 5.929688 12.070312 Z M 3.191406 12.054688 C 2.515625 12.054688 1.964844 12.605469 1.964844 13.28125 C 1.964844 13.960938 2.515625 14.507812 3.191406 14.507812 C 3.867188 14.507812 4.417969 13.960938 4.417969 13.28125 C 4.417969 12.605469 3.867188 12.054688 3.191406 12.054688 Z M 13.828125 12.054688 C 13.152344 12.054688 12.601562 12.605469 12.601562 13.28125 C 12.601562 13.960938 13.152344 14.507812 13.828125 14.507812 C 14.507812 14.507812 15.054688 13.960938 15.054688 13.28125 C 15.054688 12.605469 14.507812 12.054688 13.828125 12.054688 Z M 9.894531 4.386719 C 9.21875 4.386719 8.667969 4.9375 8.667969 5.613281 C 8.667969 6.292969 9.21875 6.839844 9.894531 6.839844 C 10.570312 6.839844 11.121094 6.292969 11.121094 5.613281 C 11.121094 4.9375 10.570312 4.386719 9.894531 4.386719 Z M 7.328125 4.378906 C 6.652344 4.378906 6.105469 4.929688 6.105469 5.605469 C 6.105469 6.28125 6.652344 6.832031 7.328125 6.832031 C 8.007812 6.832031 8.554688 6.28125 8.554688 5.605469 C 8.554688 4.929688 8.007812 4.378906 7.328125 4.378906 Z M 7.328125 4.378906 "/>
<path fill-rule="nonzero" fill="rgb(30%,30%,30%)" fill-opacity="1" d="M 8.539062 0.898438 C 8.933594 0.894531 9.292969 1.109375 9.480469 1.453125 L 15.972656 13.324219 C 16.355469 14.027344 15.839844 14.882812 15.027344 14.882812 C 15.027344 14.882812 15.023438 14.882812 15.023438 14.882812 L 1.964844 14.808594 C 1.152344 14.800781 0.640625 13.941406 1.03125 13.238281 L 7.601562 1.445312 C 7.789062 1.105469 8.148438 0.894531 8.539062 0.898438 M 8.539062 0 C 8.199219 0 7.867188 0.0859375 7.570312 0.25 C 7.253906 0.429688 6.992188 0.691406 6.816406 1.007812 L 0.25 12.800781 C -0.0898438 13.402344 -0.0820312 14.136719 0.269531 14.730469 C 0.617188 15.332031 1.261719 15.707031 1.960938 15.707031 L 15.015625 15.78125 L 15.027344 15.78125 C 15.726562 15.785156 16.371094 15.417969 16.726562 14.820312 C 17.078125 14.230469 17.09375 13.496094 16.757812 12.890625 L 10.269531 1.023438 C 9.921875 0.390625 9.257812 0 8.539062 0 "/>
</g>
</svg>
