<?xml version="1.0" encoding="UTF-8" standalone="no"?>
<!-- Created with Inkscape (http://www.inkscape.org/) -->

<svg
   xmlns:dc="http://purl.org/dc/elements/1.1/"
   xmlns:cc="http://creativecommons.org/ns#"
   xmlns:rdf="http://www.w3.org/1999/02/22-rdf-syntax-ns#"
   xmlns:svg="http://www.w3.org/2000/svg"
   xmlns="http://www.w3.org/2000/svg"
   xmlns:xlink="http://www.w3.org/1999/xlink"
   xmlns:sodipodi="http://sodipodi.sourceforge.net/DTD/sodipodi-0.dtd"
   xmlns:inkscape="http://www.inkscape.org/namespaces/inkscape"
   width="30px"
   height="30px"
   version="1.1"
   id="svg8"
   inkscape:version="0.92.4 5da689c313, 2019-01-14"
   sodipodi:docname="container.svg">
  <defs
     id="defs2" />
  <sodipodi:namedview
     id="base"
     pagecolor="#ffffff"
     bordercolor="#666666"
     borderopacity="1.0"
     inkscape:pageopacity="0.0"
     inkscape:pageshadow="2"
     inkscape:zoom="13.049334"
     inkscape:cx="18.679046"
     inkscape:cy="12.165829"
     inkscape:document-units="px"
     inkscape:current-layer="layer1"
     showgrid="false"
     inkscape:snap-page="false"
     units="px"
     inkscape:window-width="1884"
     inkscape:window-height="1061"
     inkscape:window-x="0"
     inkscape:window-y="0"
     inkscape:window-maximized="1"
     fit-margin-top="0"
     fit-margin-left="0"
     fit-margin-right="0"
     fit-margin-bottom="0" />
  <metadata
     id="metadata5">
    <rdf:RDF>
      <cc:Work
         rdf:about="">
        <dc:format>image/svg+xml</dc:format>
        <dc:type
           rdf:resource="http://purl.org/dc/dcmitype/StillImage" />
        <dc:title></dc:title>
      </cc:Work>
    </rdf:RDF>
  </metadata>
    <circle
       style="color:#000000;clip-rule:nonzero;display:inline;overflow:visible;visibility:visible;opacity:1;isolation:auto;mix-blend-mode:normal;color-interpolation:sRGB;color-interpolation-filters:linearRGB;solid-color:#000000;solid-opacity:1;vector-effect:none;fill:#ffffff;fill-opacity:1;fill-rule:evenodd;stroke:#00a757;stroke-width:1;stroke-linecap:butt;stroke-linejoin:miter;stroke-miterlimit:4;stroke-dasharray:none;stroke-dashoffset:0;stroke-opacity:1;marker:none;color-rendering:auto;image-rendering:auto;shape-rendering:auto;text-rendering:auto;enable-background:accumulate"
       id="path815"
       cx="15"
       cy="15"
       r="14.5" />
<g transform="translate(8.0,6.5)"><path fill-rule="nonzero" fill="rgb(30%,30%,30%)" fill-opacity="1" d="M 12.90625 8.617188 C 12.90625 9.476562 12.210938 10.171875 11.351562 10.171875 C 10.496094 10.171875 9.800781 9.476562 9.800781 8.617188 C 9.800781 7.761719 10.496094 7.066406 11.351562 7.066406 C 12.210938 7.066406 12.90625 7.761719 12.90625 8.617188 Z M 0.316406 1.554688 C 0.847656 2.902344 2.121094 4.507812 2.546875 4.847656 C 3.855469 5.882812 4.875 6.085938 5.417969 6.464844 C 6.027344 6.890625 7.570312 8.046875 7.570312 8.046875 C 7.570312 8.046875 7.707031 9.460938 8.140625 10.222656 C 8.578125 10.984375 10.578125 13.355469 11.148438 12.671875 C 11.722656 11.992188 10.347656 11.695312 9.449219 10.277344 C 8.828125 9.300781 8.808594 8.332031 8.808594 8.332031 C 8.808594 8.332031 9.359375 7.984375 9.507812 7.710938 C 9.660156 7.441406 9.597656 7.132812 9.296875 6.574219 C 8.722656 5.5 6.726562 4.328125 6.019531 4.058594 C 5.308594 3.785156 4.601562 4.34375 4.277344 4.179688 C 3.949219 4.015625 2.957031 3.140625 2.640625 2.695312 C 2.113281 1.949219 1.582031 0.640625 1.195312 0.289062 C 0.335938 -0.480469 -0.0664062 0.410156 0.316406 1.554688 Z M 12.367188 14.0625 C 12.148438 14.054688 11.933594 13.917969 11.6875 13.761719 C 11.320312 13.53125 10.902344 13.265625 10.34375 13.328125 C 9.976562 13.367188 9.710938 13.550781 9.453125 13.722656 C 9.167969 13.917969 8.898438 14.101562 8.46875 14.089844 C 8.230469 14.082031 8 13.949219 7.734375 13.792969 C 7.339844 13.566406 6.890625 13.304688 6.277344 13.355469 C 5.921875 13.382812 5.644531 13.550781 5.371094 13.714844 C 5.074219 13.894531 4.792969 14.066406 4.386719 14.066406 C 4.140625 14.066406 3.898438 13.925781 3.617188 13.761719 C 3.257812 13.558594 2.851562 13.324219 2.363281 13.355469 C 2.007812 13.378906 1.667969 13.5625 1.339844 13.742188 C 1.027344 13.910156 0.734375 14.066406 0.472656 14.066406 C 0.316406 14.066406 0.160156 14.035156 0.0117188 13.984375 L 0.0195312 14.84375 C 0.167969 14.886719 0.320312 14.90625 0.472656 14.90625 C 0.84375 14.90625 1.199219 14.714844 1.542969 14.527344 C 1.84375 14.367188 2.128906 14.210938 2.390625 14.195312 C 2.753906 14.171875 3.066406 14.351562 3.398438 14.542969 C 3.710938 14.722656 4.03125 14.90625 4.386719 14.90625 C 4.910156 14.90625 5.277344 14.683594 5.597656 14.488281 C 5.84375 14.339844 6.054688 14.214844 6.308594 14.195312 C 6.792969 14.15625 7.160156 14.367188 7.515625 14.574219 C 7.808594 14.746094 8.113281 14.921875 8.457031 14.929688 C 8.472656 14.929688 8.492188 14.929688 8.507812 14.929688 C 9.046875 14.929688 9.394531 14.695312 9.703125 14.484375 C 9.933594 14.328125 10.128906 14.195312 10.386719 14.167969 C 10.800781 14.121094 11.117188 14.320312 11.453125 14.53125 C 11.730469 14.707031 12.019531 14.890625 12.351562 14.902344 C 12.375 14.90625 12.394531 14.90625 12.417969 14.90625 C 12.867188 14.90625 13.273438 14.726562 13.542969 14.570312 L 13.542969 13.648438 C 13.394531 13.757812 12.910156 14.085938 12.367188 14.0625 Z M 12.351562 16.132812 C 12.132812 16.125 11.921875 15.988281 11.671875 15.832031 C 11.304688 15.597656 10.890625 15.335938 10.328125 15.398438 C 9.964844 15.4375 9.699219 15.617188 9.441406 15.792969 C 9.15625 15.988281 8.886719 16.171875 8.453125 16.160156 C 8.21875 16.152344 7.988281 16.019531 7.71875 15.863281 C 7.324219 15.632812 6.878906 15.375 6.261719 15.421875 C 5.910156 15.453125 5.628906 15.621094 5.359375 15.785156 C 5.058594 15.964844 4.777344 16.136719 4.375 16.136719 C 4.128906 16.136719 3.882812 15.996094 3.601562 15.832031 C 3.246094 15.625 2.839844 15.394531 2.351562 15.425781 C 1.996094 15.449219 1.65625 15.632812 1.324219 15.808594 C 1.015625 15.976562 0.722656 16.136719 0.457031 16.136719 C 0.300781 16.132812 0.148438 16.105469 0 16.050781 L 0.0078125 16.914062 C 0.152344 16.953125 0.304688 16.976562 0.460938 16.976562 C 0.828125 16.976562 1.1875 16.785156 1.53125 16.597656 C 1.832031 16.433594 2.113281 16.28125 2.375 16.265625 C 2.738281 16.242188 3.054688 16.421875 3.386719 16.613281 C 3.695312 16.792969 4.015625 16.976562 4.375 16.976562 C 4.894531 16.976562 5.261719 16.753906 5.585938 16.558594 C 5.828125 16.410156 6.042969 16.28125 6.292969 16.261719 C 6.78125 16.222656 7.148438 16.4375 7.5 16.644531 C 7.796875 16.8125 8.097656 16.988281 8.441406 17 C 8.460938 17 8.476562 17 8.496094 17 C 9.035156 17 9.382812 16.761719 9.691406 16.550781 C 9.917969 16.398438 10.113281 16.261719 10.375 16.234375 C 10.789062 16.191406 11.105469 16.390625 11.4375 16.601562 C 11.714844 16.777344 12.003906 16.960938 12.335938 16.972656 C 12.359375 16.972656 12.382812 16.972656 12.402344 16.972656 C 12.851562 16.972656 13.257812 16.796875 13.527344 16.640625 L 13.527344 15.714844 C 13.382812 15.824219 12.898438 16.152344 12.351562 16.132812 Z M 12.351562 16.132812 "/>
</g>
</svg>
