<?xml version="1.0" encoding="UTF-8" standalone="no"?>
<!-- Created with Inkscape (http://www.inkscape.org/) -->

<svg
   xmlns:dc="http://purl.org/dc/elements/1.1/"
   xmlns:cc="http://creativecommons.org/ns#"
   xmlns:rdf="http://www.w3.org/1999/02/22-rdf-syntax-ns#"
   xmlns:svg="http://www.w3.org/2000/svg"
   xmlns="http://www.w3.org/2000/svg"
   xmlns:xlink="http://www.w3.org/1999/xlink"
   xmlns:sodipodi="http://sodipodi.sourceforge.net/DTD/sodipodi-0.dtd"
   xmlns:inkscape="http://www.inkscape.org/namespaces/inkscape"
   width="30px"
   height="30px"
   version="1.1"
   id="svg8"
   inkscape:version="0.92.4 5da689c313, 2019-01-14"
   sodipodi:docname="container.svg">
  <defs
     id="defs2" />
  <sodipodi:namedview
     id="base"
     pagecolor="#ffffff"
     bordercolor="#666666"
     borderopacity="1.0"
     inkscape:pageopacity="0.0"
     inkscape:pageshadow="2"
     inkscape:zoom="13.049334"
     inkscape:cx="18.679046"
     inkscape:cy="12.165829"
     inkscape:document-units="px"
     inkscape:current-layer="layer1"
     showgrid="false"
     inkscape:snap-page="false"
     units="px"
     inkscape:window-width="1884"
     inkscape:window-height="1061"
     inkscape:window-x="0"
     inkscape:window-y="0"
     inkscape:window-maximized="1"
     fit-margin-top="0"
     fit-margin-left="0"
     fit-margin-right="0"
     fit-margin-bottom="0" />
  <metadata
     id="metadata5">
    <rdf:RDF>
      <cc:Work
         rdf:about="">
        <dc:format>image/svg+xml</dc:format>
        <dc:type
           rdf:resource="http://purl.org/dc/dcmitype/StillImage" />
        <dc:title></dc:title>
      </cc:Work>
    </rdf:RDF>
  </metadata>
    <circle
       style="color:#000000;clip-rule:nonzero;display:inline;overflow:visible;visibility:visible;opacity:1;isolation:auto;mix-blend-mode:normal;color-interpolation:sRGB;color-interpolation-filters:linearRGB;solid-color:#000000;solid-opacity:1;vector-effect:none;fill:#ffffff;fill-opacity:1;fill-rule:evenodd;stroke:#00a757;stroke-width:1;stroke-linecap:butt;stroke-linejoin:miter;stroke-miterlimit:4;stroke-dasharray:none;stroke-dashoffset:0;stroke-opacity:1;marker:none;color-rendering:auto;image-rendering:auto;shape-rendering:auto;text-rendering:auto;enable-background:accumulate"
       id="path815"
       cx="15"
       cy="15"
       r="14.5" />
<g transform="translate(7.0,6.5)"><path fill-rule="nonzero" fill="rgb(30%,30%,30%)" fill-opacity="1" d="M 13.195312 2.0625 L 6.296875 3.859375 L 6.316406 0.195312 Z M 16.109375 13.78125 C 16.109375 15.558594 12.503906 17 8.054688 17 C 3.605469 17 0 15.558594 0 13.78125 C 0 12.511719 1.835938 11.414062 4.507812 10.886719 L 4.488281 14.648438 C 4.488281 14.867188 4.6875 15.046875 4.933594 15.046875 C 4.933594 15.046875 4.972656 15.027344 4.972656 15.046875 C 4.972656 15.058594 4.960938 14.40625 4.972656 14.402344 L 4.867188 0.398438 C 4.867188 0.179688 5.0625 0 5.308594 0 C 5.3125 0 5.3125 0 5.3125 0 C 5.558594 0 5.757812 0.175781 5.757812 0.394531 L 5.832031 10.683594 C 6.570312 10.601562 7.3125 10.558594 8.054688 10.558594 C 12.503906 10.558594 16.109375 12 16.109375 13.78125 Z M 8.703125 13.847656 C 8.375 13.847656 8.109375 14.113281 8.109375 14.441406 C 8.109375 14.769531 8.375 15.035156 8.703125 15.035156 C 9.03125 15.035156 9.296875 14.769531 9.296875 14.441406 C 9.296875 14.113281 9.03125 13.847656 8.703125 13.847656 Z M 8.703125 13.847656 "/>
</g>
</svg>
