<?xml version="1.0" encoding="UTF-8"?>
<svg xmlns="http://www.w3.org/2000/svg" xmlns:xlink="http://www.w3.org/1999/xlink" width="8.896525" height="11" viewBox="0 0 8.896525 11">
<path fill-rule="nonzero" fill="rgb(30%,30%,30%)" fill-opacity="1" d="M 8.550781 10.269531 L 5.488281 9.148438 L 8.644531 8.03125 C 8.839844 7.960938 8.945312 7.746094 8.875 7.550781 C 8.804688 7.355469 8.589844 7.25 8.394531 7.320312 L 4.382812 8.742188 L 0.503906 7.324219 C 0.3125 7.25 0.09375 7.351562 0.0234375 7.546875 C -0.046875 7.742188 0.0507812 7.957031 0.246094 8.027344 L 3.269531 9.136719 L 0.277344 10.195312 C 0.078125 10.265625 -0.0234375 10.480469 0.046875 10.675781 C 0.117188 10.875 0.332031 10.976562 0.527344 10.90625 L 4.378906 9.542969 L 8.292969 10.976562 C 8.488281 11.046875 8.707031 10.949219 8.777344 10.753906 C 8.847656 10.558594 8.746094 10.339844 8.550781 10.269531 Z M 8.550781 10.269531 "/>
<path fill-rule="nonzero" fill="rgb(30%,30%,30%)" fill-opacity="1" d="M 3.394531 7.703125 C 3.207031 7.890625 -0.851562 6.640625 1.804688 2.921875 C 1.804688 2.921875 2.335938 4.515625 3.128906 4.515625 C 3.394531 4.515625 1.671875 2.527344 4.988281 0.00390625 C 5.140625 -0.109375 4.550781 3.765625 6.050781 4.515625 C 6.582031 4.78125 6.050781 2.65625 6.050781 2.65625 C 6.050781 2.65625 8.175781 3.984375 7.644531 5.578125 C 7.113281 7.171875 5.519531 7.703125 5.519531 7.703125 C 5.519531 7.703125 5.9375 5.9375 5.519531 5.3125 C 4.988281 4.515625 4.324219 4.117188 4.324219 4.117188 C 4.324219 4.117188 4.457031 5.578125 3.660156 5.84375 C 2.863281 6.109375 2.335938 5.046875 2.335938 5.046875 C 2.203125 5.976562 3.527344 7.570312 3.394531 7.703125 Z M 3.394531 7.703125 "/>
</svg>
