<?xml version="1.0" encoding="UTF-8"?>
<svg xmlns="http://www.w3.org/2000/svg" xmlns:xlink="http://www.w3.org/1999/xlink" width="7.683257" height="11" viewBox="0 0 7.683257 11">
<path fill-rule="nonzero" fill="rgb(30%,30%,30%)" fill-opacity="1" d="M 4.707031 9.558594 C 4.707031 10.027344 4.324219 10.410156 3.855469 10.410156 C 3.382812 10.410156 3 10.027344 3 9.558594 C 3 9.085938 3.382812 8.707031 3.855469 8.707031 C 4.324219 8.707031 4.707031 9.085938 4.707031 9.558594 Z M 7.589844 10.40625 L 7.257812 10.054688 L 5.046875 7.671875 L 5.046875 0.453125 C 5.046875 0.203125 4.84375 0 4.59375 0 L 4.566406 0 C 4.3125 0 4.109375 0.203125 4.109375 0.453125 L 4.109375 4.035156 L 3.683594 4.035156 L 3.683594 0.453125 C 3.683594 0.203125 3.480469 0 3.230469 0 L 3.199219 0 C 2.949219 0 2.746094 0.203125 2.746094 0.453125 L 2.746094 7.683594 L 0.667969 9.847656 L 0.0976562 10.417969 C -0.03125 10.550781 -0.03125 10.761719 0.0976562 10.890625 L 0.109375 10.902344 C 0.238281 11.03125 0.449219 11.03125 0.582031 10.902344 L 1.3125 10.171875 C 1.324219 10.160156 1.332031 10.148438 1.34375 10.136719 L 3.289062 8.214844 L 4.503906 8.214844 L 6.503906 10.253906 L 7.097656 10.875 C 7.222656 11.011719 7.433594 11.015625 7.570312 10.886719 L 7.578125 10.878906 C 7.714844 10.75 7.71875 10.539062 7.589844 10.40625 Z M 7.589844 10.40625 "/>
</svg>
