<?xml version="1.0" encoding="UTF-8"?>
<svg xmlns="http://www.w3.org/2000/svg" xmlns:xlink="http://www.w3.org/1999/xlink" width="10.854531" height="11" viewBox="0 0 10.854531 11">
<path fill-rule="nonzero" fill="rgb(30%,30%,30%)" fill-opacity="1" d="M 10.855469 3.695312 L 10.855469 5.535156 L 9.679688 4.996094 L 9.679688 10.980469 L 8.53125 10.980469 L 8.53125 4.464844 L 7.414062 3.949219 L 7.414062 7.066406 L 7.417969 7.066406 L 7.417969 11 L 3.496094 11 L 3.496094 7.066406 L 6.25 7.066406 L 6.265625 3.421875 L 5.539062 3.085938 L 2.324219 4.523438 L 2.324219 10.980469 L 1.175781 10.980469 L 1.175781 5.035156 L 0 5.5625 L 0 3.707031 L 5.53125 1.089844 L 6.265625 1.449219 L 6.265625 0 C 6.28125 0.015625 7.414062 0 7.414062 0 L 7.414062 2.011719 Z M 6.25 9.335938 C 6.25 8.882812 5.886719 8.515625 5.433594 8.515625 C 4.980469 8.515625 4.617188 8.882812 4.617188 9.335938 L 4.617188 10.226562 L 6.25 10.226562 Z M 6.25 9.335938 "/>
</svg>
