<?xml version="1.0" encoding="UTF-8"?>
<svg xmlns="http://www.w3.org/2000/svg" xmlns:xlink="http://www.w3.org/1999/xlink" width="10.838774" height="11" viewBox="0 0 10.838774 11">
<path fill-rule="nonzero" fill="rgb(30%,30%,30%)" fill-opacity="1" d="M 10.839844 7.058594 L 5.488281 3.898438 L 0.152344 7.058594 L 1.625 7.058594 L 2.40625 6.746094 L 2.40625 10.648438 C 2.40625 10.84375 2.5625 11 2.757812 11 C 2.949219 11 3.105469 10.84375 3.105469 10.648438 L 3.105469 6.464844 L 5.488281 5.511719 L 7.875 6.441406 L 7.875 10.648438 C 7.875 10.84375 8.03125 11 8.226562 11 C 8.417969 11 8.578125 10.84375 8.578125 10.648438 L 8.578125 6.714844 L 9.453125 7.058594 Z M 0.367188 3.101562 L 0 3.101562 L 0.851562 1.5625 L 1.214844 1.5625 Z M 1.539062 4.660156 L 1.171875 4.660156 L 2.023438 3.121094 L 2.390625 3.121094 Z M 7.78125 4.660156 L 7.417969 4.660156 L 8.265625 3.121094 L 8.632812 3.121094 Z M 3.496094 3.101562 L 3.128906 3.101562 L 3.980469 1.5625 L 4.347656 1.5625 Z M 6.625 3.101562 L 6.257812 3.101562 L 7.109375 1.5625 L 7.476562 1.5625 Z M 9.753906 3.101562 L 9.386719 3.101562 L 10.238281 1.5625 L 10.605469 1.5625 Z M 2.734375 1.539062 L 2.367188 1.539062 L 3.21875 0 L 3.582031 0 Z M 5.863281 1.539062 L 5.496094 1.539062 L 6.347656 0 L 6.710938 0 Z M 8.992188 1.539062 L 8.625 1.539062 L 9.476562 0 L 9.84375 0 Z M 8.992188 1.539062 "/>
</svg>
