<?xml version="1.0" encoding="UTF-8"?>
<svg xmlns="http://www.w3.org/2000/svg" xmlns:xlink="http://www.w3.org/1999/xlink" width="11" height="8.405007" viewBox="0 0 11 8.405007">
<path fill-rule="nonzero" fill="rgb(30%,30%,30%)" fill-opacity="1" d="M 7.835938 4.753906 L 7.691406 6.113281 C 7.679688 6.328125 7.503906 6.492188 7.292969 6.492188 L 5.269531 6.484375 L 5.753906 5.800781 L 7.039062 5.804688 L 7.132812 4.191406 C 7.132812 4.175781 7.136719 4.160156 7.140625 4.144531 C 7.136719 4.113281 7.140625 4.082031 7.152344 4.050781 L 7.636719 2.875 C 7.644531 2.859375 7.640625 2.84375 7.632812 2.832031 C 7.625 2.820312 7.609375 2.8125 7.59375 2.8125 L 7.054688 2.8125 C 7.035156 2.8125 7.023438 2.820312 7.015625 2.835938 L 6.582031 3.644531 C 6.507812 3.785156 6.328125 3.835938 6.1875 3.761719 L 6.164062 3.75 C 6.019531 3.679688 5.960938 3.503906 6.035156 3.367188 L 6.609375 2.300781 C 6.660156 2.199219 6.765625 2.144531 6.878906 2.148438 C 6.894531 2.144531 6.910156 2.144531 6.925781 2.144531 L 7.867188 2.144531 C 7.148438 0.863281 5.777344 0 4.203125 0 C 1.882812 0 0 1.882812 0 4.203125 C 0 6.523438 1.882812 8.40625 4.203125 8.40625 C 6.074219 8.40625 7.664062 7.214844 8.207031 5.523438 Z M 3.195312 6.46875 L 3.710938 4.230469 C 3.234375 4.015625 2.972656 3.496094 3.082031 2.984375 C 3.191406 2.472656 3.644531 2.109375 4.167969 2.105469 C 4.6875 2.105469 5.144531 2.464844 5.257812 2.976562 C 5.371094 3.488281 5.113281 4.007812 4.640625 4.226562 L 5.007812 6.46875 Z M 3.195312 6.46875 "/>
<path fill-rule="nonzero" fill="rgb(30%,30%,30%)" fill-opacity="1" d="M 9.503906 0.96875 C 9.761719 1.226562 9.761719 1.648438 9.503906 1.910156 C 9.242188 2.171875 8.820312 2.171875 8.558594 1.910156 C 8.300781 1.648438 8.300781 1.226562 8.558594 0.96875 C 8.820312 0.707031 9.242188 0.707031 9.503906 0.96875 Z M 9.503906 0.96875 "/>
<path fill-rule="nonzero" fill="rgb(30%,30%,30%)" fill-opacity="1" d="M 10.695312 3.371094 L 10.0625 3.371094 C 10.046875 3.371094 10.035156 3.367188 10.027344 3.355469 L 9.175781 2.324219 C 9.101562 2.230469 8.960938 2.144531 8.855469 2.144531 L 7.855469 2.144531 C 8.222656 2.785156 8.414062 3.511719 8.410156 4.246094 C 8.410156 4.695312 8.332031 5.125 8.203125 5.527344 L 9.210938 7.511719 L 10.050781 7.519531 L 8.527344 4.402344 L 9.015625 3.253906 C 9.023438 3.238281 9.035156 3.230469 9.050781 3.226562 C 9.066406 3.226562 9.082031 3.230469 9.09375 3.242188 L 9.621094 3.882812 C 9.621094 3.886719 9.625 3.890625 9.628906 3.894531 C 9.636719 3.898438 9.640625 3.90625 9.648438 3.914062 C 9.734375 3.992188 9.96875 3.980469 9.972656 3.980469 L 10.695312 3.980469 C 10.863281 3.980469 11 3.84375 11 3.675781 C 11 3.507812 10.863281 3.371094 10.695312 3.371094 Z M 10.695312 3.371094 "/>
</svg>
