<?xml version="1.0" encoding="UTF-8"?>
<svg xmlns="http://www.w3.org/2000/svg" xmlns:xlink="http://www.w3.org/1999/xlink" width="10.917729" height="11" viewBox="0 0 10.917729 11">
<path fill-rule="nonzero" fill="rgb(30%,30%,30%)" fill-opacity="1" d="M 10.65625 2.746094 C 9.964844 1.664062 8.414062 0.90625 8.414062 0.90625 C 2.5625 -2.011719 0.128906 3.046875 0.128906 3.046875 C -0.109375 3.558594 -0.0546875 4.03125 0.628906 4.402344 L 3.027344 5.417969 C 3.300781 5.542969 3.605469 5.546875 3.957031 5.488281 L 5.074219 7.757812 C 4.960938 7.785156 4.867188 7.867188 4.828125 7.976562 L 3.992188 10.28125 C 3.957031 10.371094 3.964844 10.472656 4.007812 10.558594 C 4.050781 10.644531 4.128906 10.710938 4.222656 10.734375 L 5.089844 10.984375 C 5.179688 11.011719 5.277344 11 5.359375 10.953125 C 5.4375 10.910156 5.5 10.832031 5.523438 10.742188 L 6.15625 8.371094 C 6.1875 8.25 6.152344 8.121094 6.0625 8.03125 L 8.4375 5.929688 C 10.921875 6.617188 11.265625 3.691406 10.65625 2.746094 Z M 5.023438 10.304688 L 4.730469 10.226562 L 5.3125 8.4375 L 5.453125 8.476562 Z M 5.660156 7.570312 L 4.570312 5.355469 C 4.695312 5.320312 4.828125 5.289062 4.964844 5.253906 C 4.964844 5.253906 6.496094 4.949219 7.25 5.398438 C 7.4375 5.507812 7.617188 5.605469 7.789062 5.683594 Z M 3.8125 2.679688 C 2.808594 2.808594 2.125 3.097656 2.175781 3 C 2.222656 2.910156 3.15625 2.371094 3.445312 2.300781 C 4.011719 2.15625 4.609375 2.109375 5.183594 2.21875 C 6.207031 2.421875 6.792969 2.71875 7.5625 3.421875 C 7.589844 3.449219 7.851562 3.738281 7.859375 3.777344 C 7.875 3.859375 5.878906 2.421875 3.8125 2.679688 Z M 9.253906 1.941406 C 8.40625 1.59375 6.535156 0.757812 4.484375 1.296875 C 2.722656 1.757812 2.027344 1.992188 1.582031 2.277344 C 1.3125 2.449219 2.550781 0.59375 5.667969 0.621094 C 6.1875 0.628906 7.015625 0.703125 7.503906 0.882812 C 8.734375 1.332031 9.34375 1.976562 9.253906 1.941406 Z M 9.253906 1.941406 "/>
</svg>
