<?xml version="1.0" encoding="UTF-8"?>
<svg xmlns="http://www.w3.org/2000/svg" xmlns:xlink="http://www.w3.org/1999/xlink" width="6.640087" height="11" viewBox="0 0 6.640087 11">
<path fill-rule="nonzero" fill="rgb(30%,30%,30%)" fill-opacity="1" d="M 5.285156 0.136719 C 5.820312 0.320312 6.640625 1.019531 6.640625 1.964844 C 6.640625 2.910156 6.476562 3.71875 3.890625 5.957031 C 3.695312 6.125 3.089844 6.78125 2.605469 7.519531 C 2.066406 8.335938 1.648438 9.242188 1.527344 9.476562 C 1.300781 9.929688 1.304688 10.09375 1.4375 10.414062 C 1.546875 10.691406 1.351562 10.972656 1.148438 10.996094 C 0.863281 11.03125 -0.105469 10.71875 0.0078125 10.402344 C 0.109375 10.125 0.449219 9.726562 1.035156 8.503906 C 1.363281 7.816406 1.636719 7.019531 1.773438 6.59375 C 2.101562 5.578125 2.0625 2.929688 2.246094 2.28125 C 2.429688 1.636719 2.761719 0.570312 3.753906 0.167969 C 4.648438 -0.191406 5.285156 0.136719 5.285156 0.136719 Z M 5.285156 0.136719 "/>
</svg>
