<?xml version="1.0" encoding="UTF-8"?>
<svg xmlns="http://www.w3.org/2000/svg" xmlns:xlink="http://www.w3.org/1999/xlink" width="10.081056" height="11" viewBox="0 0 10.081056 11">
<path fill-rule="nonzero" fill="rgb(30%,30%,30%)" fill-opacity="1" d="M 10.074219 2.859375 C 10.042969 2.433594 9.851562 2.074219 9.59375 1.746094 C 9.382812 1.480469 9.132812 1.253906 8.878906 1.03125 C 8.609375 0.792969 8.335938 0.554688 8.027344 0.363281 C 7.722656 0.175781 7.394531 0.0390625 7.03125 0.00390625 C 6.789062 -0.0117188 6.546875 0.0234375 6.320312 0.109375 C 5.953125 0.253906 5.65625 0.5 5.417969 0.804688 C 5.207031 1.082031 5.011719 1.367188 4.820312 1.660156 C 4.535156 2.082031 4.292969 2.527344 4.125 3.011719 C 3.9375 3.550781 3.859375 4.113281 3.820312 4.679688 C 3.785156 5.136719 3.738281 5.589844 3.621094 6.035156 C 3.523438 6.386719 3.386719 6.71875 3.132812 6.988281 C 2.878906 7.253906 2.617188 7.511719 2.367188 7.777344 C 2.242188 7.90625 2.101562 8.023438 1.945312 8.113281 C 1.773438 8.21875 1.621094 8.351562 1.488281 8.503906 C 1.023438 9.050781 0.554688 9.59375 0.0820312 10.140625 C -0.0234375 10.261719 -0.03125 10.375 0.0820312 10.488281 C 0.246094 10.648438 0.417969 10.796875 0.601562 10.941406 C 0.722656 11.039062 0.835938 11.011719 0.941406 10.894531 C 1.351562 10.433594 1.757812 9.96875 2.167969 9.507812 C 2.398438 9.253906 2.617188 8.992188 2.75 8.667969 C 2.773438 8.613281 2.792969 8.550781 2.832031 8.5 C 3.09375 8.15625 3.359375 7.816406 3.625 7.476562 C 3.753906 7.316406 3.90625 7.175781 4.078125 7.066406 C 4.382812 6.871094 4.714844 6.738281 5.0625 6.644531 C 5.441406 6.542969 5.824219 6.453125 6.207031 6.367188 C 7.039062 6.171875 7.792969 5.808594 8.453125 5.257812 C 8.742188 5.015625 9.023438 4.761719 9.304688 4.507812 C 9.511719 4.320312 9.691406 4.097656 9.832031 3.851562 C 10.007812 3.542969 10.105469 3.21875 10.074219 2.859375 Z M 8.90625 1.679688 C 8.929688 1.648438 8.949219 1.648438 8.976562 1.675781 C 9.066406 1.777344 9.160156 1.875 9.246094 1.976562 C 9.257812 1.988281 9.261719 2.023438 9.25 2.035156 C 9.097656 2.214844 8.941406 2.394531 8.78125 2.578125 C 8.664062 2.476562 8.546875 2.375 8.4375 2.273438 C 8.425781 2.265625 8.429688 2.226562 8.441406 2.214844 C 8.527344 2.109375 8.617188 2.011719 8.707031 1.910156 C 8.773438 1.828125 8.839844 1.753906 8.90625 1.679688 Z M 6.839844 3.222656 C 6.792969 3.179688 6.742188 3.140625 6.699219 3.097656 C 6.6875 3.085938 6.675781 3.050781 6.683594 3.042969 C 6.800781 2.90625 6.917969 2.773438 7.039062 2.632812 C 7.15625 2.734375 7.265625 2.832031 7.375 2.929688 C 7.382812 2.945312 7.382812 2.960938 7.375 2.976562 C 7.261719 3.113281 7.144531 3.246094 7.023438 3.386719 C 6.960938 3.328125 6.902344 3.273438 6.839844 3.222656 Z M 6.820312 3.609375 C 6.796875 3.636719 6.777344 3.664062 6.753906 3.6875 C 6.664062 3.792969 6.574219 3.898438 6.484375 4.003906 C 6.453125 4.039062 6.433594 4.046875 6.394531 4.011719 C 6.292969 3.917969 6.1875 3.828125 6.078125 3.730469 C 6.203125 3.589844 6.316406 3.457031 6.433594 3.324219 C 6.441406 3.316406 6.476562 3.3125 6.484375 3.320312 C 6.597656 3.414062 6.707031 3.507812 6.820312 3.609375 Z M 7.238281 2.402344 C 7.339844 2.285156 7.433594 2.175781 7.53125 2.0625 C 7.617188 1.964844 7.617188 1.964844 7.714844 2.050781 C 7.800781 2.128906 7.890625 2.203125 7.980469 2.285156 C 7.910156 2.367188 7.84375 2.445312 7.773438 2.523438 C 7.726562 2.574219 7.6875 2.628906 7.636719 2.679688 C 7.625 2.691406 7.585938 2.699219 7.578125 2.691406 C 7.464844 2.597656 7.355469 2.5 7.238281 2.402344 Z M 7.21875 1.972656 C 7.164062 2.035156 7.105469 2.097656 7.050781 2.160156 C 7.027344 2.1875 7.007812 2.203125 6.976562 2.171875 C 6.878906 2.085938 6.777344 2 6.679688 1.914062 C 6.65625 1.894531 6.644531 1.875 6.667969 1.847656 C 6.785156 1.714844 6.898438 1.582031 7.019531 1.445312 C 7.144531 1.554688 7.265625 1.660156 7.394531 1.769531 C 7.332031 1.839844 7.273438 1.90625 7.21875 1.972656 Z M 6.8125 2.433594 C 6.6875 2.574219 6.574219 2.707031 6.457031 2.839844 C 6.449219 2.847656 6.414062 2.851562 6.40625 2.839844 C 6.296875 2.75 6.191406 2.660156 6.089844 2.566406 C 6.082031 2.558594 6.078125 2.523438 6.089844 2.511719 C 6.195312 2.386719 6.304688 2.261719 6.414062 2.140625 C 6.425781 2.128906 6.457031 2.128906 6.464844 2.136719 C 6.582031 2.230469 6.691406 2.328125 6.8125 2.433594 Z M 6.199219 3.066406 C 6.222656 3.089844 6.226562 3.105469 6.203125 3.132812 C 6.097656 3.253906 5.992188 3.375 5.886719 3.496094 C 5.878906 3.507812 5.867188 3.523438 5.859375 3.535156 C 5.835938 3.519531 5.820312 3.511719 5.8125 3.503906 C 5.714844 3.417969 5.617188 3.332031 5.519531 3.25 C 5.484375 3.222656 5.488281 3.199219 5.515625 3.167969 C 5.617188 3.054688 5.71875 2.9375 5.820312 2.820312 C 5.847656 2.785156 5.871094 2.78125 5.90625 2.8125 C 6.003906 2.898438 6.101562 2.980469 6.199219 3.066406 Z M 5.578125 3.6875 C 5.664062 3.761719 5.667969 3.746094 5.589844 3.835938 C 5.496094 3.941406 5.40625 4.046875 5.3125 4.15625 C 5.300781 4.171875 5.285156 4.183594 5.265625 4.203125 C 5.148438 4.101562 5.035156 4.003906 4.921875 3.902344 C 4.914062 3.894531 4.910156 3.867188 4.917969 3.859375 C 5.039062 3.71875 5.164062 3.578125 5.292969 3.429688 C 5.390625 3.519531 5.484375 3.601562 5.578125 3.6875 Z M 5.882812 3.953125 C 6.003906 4.058594 6.125 4.160156 6.25 4.269531 C 6.117188 4.421875 5.992188 4.566406 5.855469 4.722656 C 5.730469 4.613281 5.613281 4.511719 5.492188 4.402344 C 5.621094 4.253906 5.75 4.105469 5.882812 3.953125 Z M 6.109375 4.890625 C 6.226562 4.75 6.347656 4.613281 6.472656 4.46875 C 6.59375 4.570312 6.707031 4.667969 6.8125 4.765625 C 6.824219 4.777344 6.828125 4.808594 6.824219 4.816406 C 6.703125 4.957031 6.582031 5.097656 6.457031 5.242188 C 6.382812 5.179688 6.316406 5.125 6.246094 5.0625 C 6.203125 5.023438 6.15625 4.988281 6.117188 4.945312 C 6.105469 4.933594 6.101562 4.898438 6.109375 4.890625 Z M 6.664062 4.246094 C 6.792969 4.101562 6.917969 3.957031 7.046875 3.8125 C 7.058594 3.820312 7.070312 3.828125 7.082031 3.835938 C 7.183594 3.921875 7.28125 4.011719 7.382812 4.097656 C 7.414062 4.125 7.414062 4.144531 7.386719 4.175781 C 7.28125 4.292969 7.179688 4.414062 7.074219 4.527344 C 7.0625 4.542969 7.023438 4.554688 7.015625 4.546875 C 6.898438 4.449219 6.785156 4.351562 6.664062 4.246094 Z M 7.25 3.578125 C 7.378906 3.429688 7.5 3.289062 7.625 3.140625 C 7.75 3.25 7.875 3.359375 8 3.472656 C 7.921875 3.5625 7.84375 3.652344 7.769531 3.738281 C 7.730469 3.78125 7.695312 3.828125 7.652344 3.871094 C 7.640625 3.882812 7.605469 3.886719 7.597656 3.878906 C 7.480469 3.78125 7.371094 3.679688 7.25 3.578125 Z M 7.832031 2.914062 C 7.953125 2.773438 8.066406 2.644531 8.179688 2.515625 C 8.191406 2.503906 8.230469 2.503906 8.242188 2.511719 C 8.34375 2.597656 8.445312 2.691406 8.546875 2.777344 C 8.574219 2.804688 8.570312 2.820312 8.550781 2.847656 C 8.445312 2.964844 8.34375 3.085938 8.238281 3.203125 C 8.226562 3.214844 8.191406 3.222656 8.179688 3.21875 C 8.0625 3.121094 7.949219 3.019531 7.832031 2.914062 Z M 8.394531 1.152344 C 8.5 1.246094 8.605469 1.339844 8.722656 1.4375 C 8.542969 1.644531 8.367188 1.84375 8.183594 2.054688 C 8.058594 1.945312 7.941406 1.84375 7.820312 1.738281 C 7.878906 1.671875 7.929688 1.609375 7.984375 1.546875 C 8.097656 1.417969 8.210938 1.292969 8.320312 1.160156 C 8.34375 1.136719 8.363281 1.128906 8.394531 1.152344 Z M 7.679688 0.691406 C 7.691406 0.679688 7.722656 0.667969 7.734375 0.675781 C 7.863281 0.753906 7.988281 0.835938 8.121094 0.921875 C 8.097656 0.953125 8.082031 0.976562 8.066406 0.996094 C 7.921875 1.160156 7.777344 1.324219 7.636719 1.492188 C 7.605469 1.527344 7.582031 1.535156 7.542969 1.5 C 7.441406 1.40625 7.332031 1.316406 7.21875 1.214844 C 7.328125 1.089844 7.433594 0.972656 7.535156 0.851562 C 7.582031 0.796875 7.628906 0.742188 7.679688 0.691406 Z M 7.4375 0.527344 C 7.429688 0.542969 7.421875 0.558594 7.410156 0.574219 C 7.289062 0.714844 7.164062 0.851562 7.042969 0.992188 C 7.019531 1.019531 7.003906 1.035156 6.972656 1.003906 C 6.792969 0.847656 6.613281 0.691406 6.433594 0.535156 C 6.429688 0.53125 6.429688 0.523438 6.421875 0.511719 C 6.765625 0.363281 7.097656 0.398438 7.4375 0.527344 Z M 6.105469 0.707031 C 6.121094 0.695312 6.160156 0.699219 6.171875 0.710938 C 6.375 0.882812 6.578125 1.058594 6.777344 1.238281 C 6.789062 1.246094 6.792969 1.28125 6.789062 1.289062 C 6.671875 1.421875 6.554688 1.558594 6.429688 1.695312 C 6.191406 1.488281 5.960938 1.285156 5.726562 1.078125 C 5.839844 0.933594 5.964844 0.808594 6.105469 0.707031 Z M 5.246094 1.753906 C 5.34375 1.617188 5.4375 1.472656 5.539062 1.324219 C 5.773438 1.527344 5.996094 1.726562 6.230469 1.929688 C 6.101562 2.074219 5.980469 2.214844 5.851562 2.359375 C 5.777344 2.292969 5.710938 2.234375 5.640625 2.175781 C 5.511719 2.066406 5.386719 1.957031 5.257812 1.847656 C 5.226562 1.816406 5.214844 1.792969 5.246094 1.753906 Z M 4.777344 2.542969 C 4.863281 2.386719 4.949219 2.230469 5.042969 2.058594 C 5.144531 2.148438 5.234375 2.226562 5.328125 2.308594 C 5.421875 2.390625 5.515625 2.46875 5.609375 2.554688 C 5.628906 2.570312 5.652344 2.589844 5.625 2.621094 C 5.511719 2.753906 5.394531 2.886719 5.273438 3.027344 C 5.238281 3 5.210938 2.976562 5.183594 2.953125 C 5.054688 2.839844 4.929688 2.730469 4.800781 2.621094 C 4.777344 2.597656 4.757812 2.582031 4.777344 2.542969 Z M 4.441406 3.375 C 4.496094 3.226562 4.546875 3.078125 4.601562 2.929688 C 4.609375 2.90625 4.617188 2.886719 4.628906 2.871094 C 4.640625 2.875 4.652344 2.882812 4.664062 2.890625 C 4.789062 2.996094 4.914062 3.105469 5.039062 3.210938 C 5.0625 3.230469 5.078125 3.25 5.054688 3.277344 C 4.933594 3.417969 4.8125 3.554688 4.683594 3.699219 C 4.617188 3.640625 4.554688 3.582031 4.484375 3.53125 C 4.425781 3.488281 4.417969 3.441406 4.441406 3.375 Z M 4.347656 3.769531 C 4.402344 3.816406 4.445312 3.851562 4.484375 3.886719 C 4.488281 3.894531 4.484375 3.921875 4.476562 3.933594 C 4.421875 4 4.367188 4.0625 4.3125 4.125 C 4.304688 4.125 4.300781 4.121094 4.292969 4.121094 C 4.308594 4.011719 4.328125 3.898438 4.347656 3.769531 Z M 4.207031 5.417969 C 4.203125 5.386719 4.199219 5.371094 4.199219 5.359375 C 4.207031 5.136719 4.21875 4.917969 4.230469 4.699219 C 4.230469 4.667969 4.238281 4.640625 4.257812 4.617188 C 4.402344 4.445312 4.550781 4.273438 4.699219 4.105469 C 4.707031 4.101562 4.714844 4.09375 4.722656 4.089844 C 4.8125 4.167969 4.902344 4.246094 4.992188 4.324219 C 5.089844 4.410156 5.089844 4.410156 5.003906 4.507812 C 4.761719 4.789062 4.515625 5.070312 4.273438 5.347656 C 4.253906 5.367188 4.234375 5.386719 4.207031 5.417969 Z M 4.472656 6.226562 C 4.414062 6.222656 4.359375 6.230469 4.300781 6.230469 C 4.253906 6.234375 4.21875 6.214844 4.214844 6.164062 C 4.210938 6.078125 4.207031 5.992188 4.203125 5.90625 C 4.207031 5.890625 4.214844 5.871094 4.226562 5.855469 C 4.582031 5.445312 4.941406 5.035156 5.296875 4.628906 C 5.304688 4.621094 5.3125 4.617188 5.320312 4.609375 C 5.441406 4.714844 5.554688 4.816406 5.675781 4.921875 C 5.621094 4.988281 5.570312 5.046875 5.523438 5.105469 C 5.214844 5.457031 4.910156 5.808594 4.605469 6.160156 C 4.566406 6.203125 4.53125 6.230469 4.472656 6.226562 Z M 6.246094 5.476562 C 6.089844 5.660156 5.933594 5.839844 5.777344 6.015625 C 5.757812 6.035156 5.734375 6.050781 5.707031 6.054688 C 5.484375 6.09375 5.261719 6.128906 5.039062 6.164062 C 5.027344 6.164062 5.019531 6.160156 4.996094 6.15625 C 5.300781 5.808594 5.597656 5.46875 5.902344 5.121094 C 6.019531 5.222656 6.136719 5.320312 6.246094 5.421875 C 6.257812 5.429688 6.253906 5.46875 6.246094 5.476562 Z M 6.242188 5.933594 C 6.238281 5.929688 6.234375 5.925781 6.234375 5.921875 C 6.308594 5.832031 6.386719 5.742188 6.464844 5.65625 C 6.480469 5.648438 6.496094 5.648438 6.511719 5.65625 C 6.566406 5.695312 6.613281 5.742188 6.679688 5.800781 C 6.523438 5.847656 6.382812 5.890625 6.242188 5.933594 Z M 7.320312 5.519531 C 7.222656 5.570312 7.117188 5.617188 7.019531 5.667969 C 6.984375 5.683594 6.960938 5.683594 6.929688 5.65625 C 6.855469 5.589844 6.78125 5.523438 6.703125 5.460938 C 6.671875 5.4375 6.667969 5.414062 6.699219 5.386719 C 6.808594 5.261719 6.917969 5.132812 7.027344 5.011719 C 7.039062 4.996094 7.078125 4.988281 7.085938 5 C 7.238281 5.125 7.386719 5.257812 7.542969 5.394531 C 7.460938 5.441406 7.394531 5.484375 7.320312 5.519531 Z M 7.878906 5.175781 C 7.800781 5.234375 7.796875 5.230469 7.722656 5.167969 C 7.582031 5.042969 7.441406 4.917969 7.292969 4.792969 C 7.257812 4.761719 7.253906 4.742188 7.289062 4.707031 C 7.390625 4.589844 7.492188 4.472656 7.59375 4.355469 C 7.617188 4.324219 7.636719 4.320312 7.667969 4.347656 C 7.863281 4.515625 8.054688 4.683594 8.25 4.855469 C 8.257812 4.863281 8.265625 4.871094 8.269531 4.882812 C 8.136719 4.980469 8.007812 5.078125 7.878906 5.175781 Z M 8.921875 4.289062 C 8.914062 4.300781 8.90625 4.3125 8.894531 4.324219 C 8.777344 4.429688 8.664062 4.53125 8.546875 4.636719 C 8.519531 4.664062 8.496094 4.660156 8.464844 4.636719 C 8.269531 4.464844 8.070312 4.292969 7.875 4.121094 C 7.84375 4.09375 7.839844 4.074219 7.867188 4.042969 C 7.972656 3.925781 8.078125 3.808594 8.179688 3.6875 C 8.203125 3.660156 8.21875 3.660156 8.246094 3.683594 C 8.460938 3.871094 8.675781 4.058594 8.890625 4.242188 C 8.90625 4.253906 8.925781 4.257812 8.945312 4.269531 C 8.9375 4.277344 8.929688 4.285156 8.921875 4.289062 Z M 9.460938 3.671875 C 9.363281 3.804688 9.269531 3.9375 9.167969 4.078125 C 9.09375 4.015625 9.035156 3.96875 8.980469 3.917969 C 8.804688 3.765625 8.628906 3.613281 8.457031 3.460938 C 8.4375 3.445312 8.40625 3.429688 8.4375 3.394531 C 8.550781 3.261719 8.667969 3.128906 8.789062 2.992188 C 8.808594 3.007812 8.828125 3.019531 8.84375 3.035156 C 9.042969 3.207031 9.242188 3.382812 9.441406 3.554688 C 9.484375 3.589844 9.496094 3.625 9.460938 3.671875 Z M 9.617188 3.304688 C 9.40625 3.121094 9.199219 2.941406 8.988281 2.757812 C 9.140625 2.585938 9.285156 2.417969 9.4375 2.242188 C 9.636719 2.574219 9.726562 2.914062 9.617188 3.304688 Z M 9.617188 3.304688 "/>
</svg>
