<?xml version="1.0" encoding="UTF-8" standalone="no"?>
<!-- Created with Inkscape (http://www.inkscape.org/) -->

<svg
   xmlns:dc="http://purl.org/dc/elements/1.1/"
   xmlns:cc="http://creativecommons.org/ns#"
   xmlns:rdf="http://www.w3.org/1999/02/22-rdf-syntax-ns#"
   xmlns:svg="http://www.w3.org/2000/svg"
   xmlns="http://www.w3.org/2000/svg"
   xmlns:xlink="http://www.w3.org/1999/xlink"
   xmlns:sodipodi="http://sodipodi.sourceforge.net/DTD/sodipodi-0.dtd"
   xmlns:inkscape="http://www.inkscape.org/namespaces/inkscape"
   width="30px"
   height="30px"
   version="1.1"
   id="svg8"
   inkscape:version="0.92.4 5da689c313, 2019-01-14"
   sodipodi:docname="container.svg">
  <defs
     id="defs2" />
  <sodipodi:namedview
     id="base"
     pagecolor="#ffffff"
     bordercolor="#666666"
     borderopacity="1.0"
     inkscape:pageopacity="0.0"
     inkscape:pageshadow="2"
     inkscape:zoom="13.049334"
     inkscape:cx="18.679046"
     inkscape:cy="12.165829"
     inkscape:document-units="px"
     inkscape:current-layer="layer1"
     showgrid="false"
     inkscape:snap-page="false"
     units="px"
     inkscape:window-width="1884"
     inkscape:window-height="1061"
     inkscape:window-x="0"
     inkscape:window-y="0"
     inkscape:window-maximized="1"
     fit-margin-top="0"
     fit-margin-left="0"
     fit-margin-right="0"
     fit-margin-bottom="0" />
  <metadata
     id="metadata5">
    <rdf:RDF>
      <cc:Work
         rdf:about="">
        <dc:format>image/svg+xml</dc:format>
        <dc:type
           rdf:resource="http://purl.org/dc/dcmitype/StillImage" />
        <dc:title></dc:title>
      </cc:Work>
    </rdf:RDF>
  </metadata>
    <circle
       style="color:#000000;clip-rule:nonzero;display:inline;overflow:visible;visibility:visible;opacity:1;isolation:auto;mix-blend-mode:normal;color-interpolation:sRGB;color-interpolation-filters:linearRGB;solid-color:#000000;solid-opacity:1;vector-effect:none;fill:#00b3cc;fill-opacity:1;fill-rule:evenodd;stroke:#ffffff;stroke-width:1;stroke-linecap:butt;stroke-linejoin:miter;stroke-miterlimit:4;stroke-dasharray:none;stroke-dashoffset:0;stroke-opacity:1;marker:none;color-rendering:auto;image-rendering:auto;shape-rendering:auto;text-rendering:auto;enable-background:accumulate"
       id="path815"
       cx="15"
       cy="15"
       r="14.5" />
<g transform="translate(8.5,6.5)"><path fill-rule="nonzero" fill="#FFFFFF" fill-opacity="1" d="M 0.9375 8.425781 C 3.144531 9.46875 5.636719 9.183594 7.523438 7.90625 L 7.054688 7.195312 C 5.410156 8.316406 3.230469 8.566406 1.300781 7.65625 C 1.285156 7.648438 1.273438 7.640625 1.257812 7.632812 L 0.898438 8.40625 C 0.910156 8.414062 0.925781 8.421875 0.9375 8.425781 Z M 0.9375 8.425781 "/>
<path fill-rule="nonzero" fill="#FFFFFF" fill-opacity="1" d="M 1.5625 6.992188 C 1.578125 7 1.589844 7.007812 1.605469 7.015625 C 3.304688 7.816406 5.21875 7.59375 6.667969 6.605469 L 3.828125 2.257812 C 3.785156 2.273438 1.5625 6.992188 1.5625 6.992188 Z M 1.5625 6.992188 "/>
<path fill-rule="nonzero" fill="#FFFFFF" fill-opacity="1" d="M 12.722656 0.0078125 L 8.421875 0.0078125 L 8.421875 0 L 7.621094 0 L 7.621094 0.0078125 L 0.402344 0.0078125 C 0.179688 0.0078125 0 0.1875 0 0.40625 L 0 15.296875 C 0 15.515625 0.179688 15.695312 0.402344 15.695312 L 1.996094 15.695312 L 1.996094 16.640625 C 1.996094 16.839844 2.160156 17 2.359375 17 L 3.339844 17 C 3.539062 17 3.703125 16.839844 3.703125 16.640625 L 3.703125 15.695312 L 9.492188 15.695312 L 9.492188 16.585938 C 9.492188 16.816406 9.675781 17 9.90625 17 L 10.78125 17 C 11.011719 17 11.195312 16.816406 11.195312 16.585938 L 11.195312 15.695312 L 12.722656 15.695312 C 12.945312 15.695312 13.125 15.515625 13.125 15.296875 L 13.125 0.40625 C 13.125 0.1875 12.945312 0.0078125 12.722656 0.0078125 Z M 6.09375 13.59375 L 1.808594 13.59375 C 1.480469 13.59375 1.210938 13.324219 1.210938 12.996094 C 1.210938 12.667969 1.480469 12.402344 1.808594 12.402344 L 6.09375 12.402344 C 6.421875 12.402344 6.691406 12.667969 6.691406 12.996094 C 6.691406 13.324219 6.421875 13.59375 6.09375 13.59375 Z M 7.621094 10.980469 L 0.800781 10.980469 L 0.800781 0.808594 L 7.621094 0.808594 Z M 10.703125 2.621094 L 11.335938 2.621094 L 11.335938 3.257812 L 10.703125 3.257812 Z M 10.703125 3.742188 L 11.335938 3.742188 L 11.335938 4.375 L 10.703125 4.375 Z M 10.703125 4.816406 L 11.335938 4.816406 L 11.335938 5.453125 L 10.703125 5.453125 Z M 10.703125 5.9375 L 11.335938 5.9375 L 11.335938 6.570312 L 10.703125 6.570312 Z M 9.269531 2.621094 L 9.90625 2.621094 L 9.90625 3.257812 L 9.269531 3.257812 Z M 9.269531 3.742188 L 9.90625 3.742188 L 9.90625 4.375 L 9.269531 4.375 Z M 9.269531 4.816406 L 9.90625 4.816406 L 9.90625 5.453125 L 9.269531 5.453125 Z M 9.269531 5.9375 L 9.90625 5.9375 L 9.90625 6.570312 L 9.269531 6.570312 Z M 11.019531 8.839844 L 9.671875 8.839844 C 9.34375 8.839844 9.074219 8.570312 9.074219 8.242188 C 9.074219 7.914062 9.34375 7.648438 9.671875 7.648438 L 11.019531 7.648438 C 11.347656 7.648438 11.613281 7.914062 11.613281 8.242188 C 11.613281 8.570312 11.347656 8.839844 11.019531 8.839844 Z M 11.019531 8.839844 "/>
</g>
</svg>
