<?xml version="1.0" encoding="UTF-8" standalone="no"?>
<!-- Created with Inkscape (http://www.inkscape.org/) -->

<svg
   xmlns:dc="http://purl.org/dc/elements/1.1/"
   xmlns:cc="http://creativecommons.org/ns#"
   xmlns:rdf="http://www.w3.org/1999/02/22-rdf-syntax-ns#"
   xmlns:svg="http://www.w3.org/2000/svg"
   xmlns="http://www.w3.org/2000/svg"
   xmlns:xlink="http://www.w3.org/1999/xlink"
   xmlns:sodipodi="http://sodipodi.sourceforge.net/DTD/sodipodi-0.dtd"
   xmlns:inkscape="http://www.inkscape.org/namespaces/inkscape"
   width="30px"
   height="30px"
   version="1.1"
   id="svg8"
   inkscape:version="0.92.4 5da689c313, 2019-01-14"
   sodipodi:docname="container.svg">
  <defs
     id="defs2" />
  <sodipodi:namedview
     id="base"
     pagecolor="#ffffff"
     bordercolor="#666666"
     borderopacity="1.0"
     inkscape:pageopacity="0.0"
     inkscape:pageshadow="2"
     inkscape:zoom="13.049334"
     inkscape:cx="18.679046"
     inkscape:cy="12.165829"
     inkscape:document-units="px"
     inkscape:current-layer="layer1"
     showgrid="false"
     inkscape:snap-page="false"
     units="px"
     inkscape:window-width="1884"
     inkscape:window-height="1061"
     inkscape:window-x="0"
     inkscape:window-y="0"
     inkscape:window-maximized="1"
     fit-margin-top="0"
     fit-margin-left="0"
     fit-margin-right="0"
     fit-margin-bottom="0" />
  <metadata
     id="metadata5">
    <rdf:RDF>
      <cc:Work
         rdf:about="">
        <dc:format>image/svg+xml</dc:format>
        <dc:type
           rdf:resource="http://purl.org/dc/dcmitype/StillImage" />
        <dc:title></dc:title>
      </cc:Work>
    </rdf:RDF>
  </metadata>
    <circle
       style="color:#000000;clip-rule:nonzero;display:inline;overflow:visible;visibility:visible;opacity:1;isolation:auto;mix-blend-mode:normal;color-interpolation:sRGB;color-interpolation-filters:linearRGB;solid-color:#000000;solid-opacity:1;vector-effect:none;fill:#00b3cc;fill-opacity:1;fill-rule:evenodd;stroke:#ffffff;stroke-width:1;stroke-linecap:butt;stroke-linejoin:miter;stroke-miterlimit:4;stroke-dasharray:none;stroke-dashoffset:0;stroke-opacity:1;marker:none;color-rendering:auto;image-rendering:auto;shape-rendering:auto;text-rendering:auto;enable-background:accumulate"
       id="path815"
       cx="15"
       cy="15"
       r="14.5" />
<g transform="translate(7.5,6.5)"><path fill-rule="nonzero" fill="#FFFFFF" fill-opacity="1" d="M 8.898438 11.382812 C 7.359375 12.394531 6.164062 13.273438 6.164062 13.273438 C 6.164062 13.273438 1.53125 8.242188 0.0117188 3.289062 C -0.328125 3.035156 6.464844 -0.234375 7.042969 0.0117188 C 7.261719 0.109375 8.796875 6.402344 11.195312 9.039062 C 12.03125 9.960938 14.257812 13.660156 14.878906 15.195312 C 15.015625 15.53125 14.890625 15.917969 14.585938 16.113281 L 13.066406 17 C 11.457031 15.414062 10.09375 13.507812 8.898438 11.382812 Z M 6.242188 12.316406 C 6.242188 12.316406 10.445312 9.316406 10.238281 9.121094 C 8.640625 7.601562 6.539062 1.023438 6.605469 0.820312 L 0.933594 3.457031 C 1.847656 6.722656 6.242188 12.316406 6.242188 12.316406 Z M 5.484375 2.570312 C 5.019531 2.570312 4.644531 2.964844 4.644531 3.449219 C 4.644531 3.933594 5.019531 4.328125 5.484375 4.328125 C 5.945312 4.328125 6.324219 3.933594 6.324219 3.449219 C 6.324219 2.964844 5.945312 2.570312 5.484375 2.570312 Z M 5.484375 2.570312 "/>
</g>
</svg>
