<?xml version="1.0" encoding="UTF-8" standalone="no"?>
<!-- Created with Inkscape (http://www.inkscape.org/) -->

<svg
   xmlns:dc="http://purl.org/dc/elements/1.1/"
   xmlns:cc="http://creativecommons.org/ns#"
   xmlns:rdf="http://www.w3.org/1999/02/22-rdf-syntax-ns#"
   xmlns:svg="http://www.w3.org/2000/svg"
   xmlns="http://www.w3.org/2000/svg"
   xmlns:xlink="http://www.w3.org/1999/xlink"
   xmlns:sodipodi="http://sodipodi.sourceforge.net/DTD/sodipodi-0.dtd"
   xmlns:inkscape="http://www.inkscape.org/namespaces/inkscape"
   width="30px"
   height="30px"
   version="1.1"
   id="svg8"
   inkscape:version="0.92.4 5da689c313, 2019-01-14"
   sodipodi:docname="container.svg">
  <defs
     id="defs2" />
  <sodipodi:namedview
     id="base"
     pagecolor="#ffffff"
     bordercolor="#666666"
     borderopacity="1.0"
     inkscape:pageopacity="0.0"
     inkscape:pageshadow="2"
     inkscape:zoom="13.049334"
     inkscape:cx="18.679046"
     inkscape:cy="12.165829"
     inkscape:document-units="px"
     inkscape:current-layer="layer1"
     showgrid="false"
     inkscape:snap-page="false"
     units="px"
     inkscape:window-width="1884"
     inkscape:window-height="1061"
     inkscape:window-x="0"
     inkscape:window-y="0"
     inkscape:window-maximized="1"
     fit-margin-top="0"
     fit-margin-left="0"
     fit-margin-right="0"
     fit-margin-bottom="0" />
  <metadata
     id="metadata5">
    <rdf:RDF>
      <cc:Work
         rdf:about="">
        <dc:format>image/svg+xml</dc:format>
        <dc:type
           rdf:resource="http://purl.org/dc/dcmitype/StillImage" />
        <dc:title></dc:title>
      </cc:Work>
    </rdf:RDF>
  </metadata>
    <circle
       style="color:#000000;clip-rule:nonzero;display:inline;overflow:visible;visibility:visible;opacity:1;isolation:auto;mix-blend-mode:normal;color-interpolation:sRGB;color-interpolation-filters:linearRGB;solid-color:#000000;solid-opacity:1;vector-effect:none;fill:#ffffff;fill-opacity:1;fill-rule:evenodd;stroke:#00a0c4;stroke-width:1;stroke-linecap:butt;stroke-linejoin:miter;stroke-miterlimit:4;stroke-dasharray:none;stroke-dashoffset:0;stroke-opacity:1;marker:none;color-rendering:auto;image-rendering:auto;shape-rendering:auto;text-rendering:auto;enable-background:accumulate"
       id="path815"
       cx="15"
       cy="15"
       r="14.5" />
<g transform="translate(6.5,8.0)"><path fill-rule="nonzero" fill="rgb(30%,30%,30%)" fill-opacity="1" d="M 15.074219 11.265625 L 4.835938 11.265625 C 4.398438 11.261719 4.046875 10.910156 4.046875 10.472656 C 4.046875 10.035156 4.398438 9.683594 4.835938 9.683594 L 14.972656 9.683594 C 15.128906 9.683594 15.261719 9.578125 15.300781 9.429688 L 16.992188 2.671875 C 17.015625 2.570312 16.992188 2.464844 16.929688 2.382812 C 16.863281 2.300781 16.765625 2.253906 16.664062 2.253906 L 3.40625 2.253906 L 2.910156 0.253906 C 2.871094 0.105469 2.738281 0 2.582031 0 L 0.335938 0 C 0.148438 0 0 0.148438 0 0.335938 C 0 0.519531 0.148438 0.671875 0.335938 0.671875 L 2.320312 0.671875 L 4.425781 9.09375 C 4.195312 9.160156 3.976562 9.265625 3.800781 9.441406 C 3.527344 9.714844 3.375 10.085938 3.375 10.472656 C 3.375 10.9375 3.601562 11.332031 3.941406 11.601562 C 3.894531 11.632812 3.839844 11.652344 3.800781 11.695312 C 3.382812 12.113281 3.257812 12.742188 3.484375 13.285156 C 3.710938 13.832031 4.242188 14.1875 4.832031 14.1875 L 4.839844 14.1875 C 5.644531 14.1875 6.296875 13.53125 6.296875 12.726562 C 6.296875 12.429688 6.1875 12.167969 6.03125 11.9375 L 13.878906 11.9375 C 13.722656 12.175781 13.613281 12.4375 13.613281 12.726562 C 13.613281 13.53125 14.265625 14.1875 15.074219 14.1875 L 15.078125 14.1875 C 15.886719 14.1875 16.539062 13.53125 16.539062 12.726562 C 16.535156 11.917969 15.882812 11.265625 15.074219 11.265625 Z M 15.074219 11.265625 "/>
</g>
</svg>
