<?xml version="1.0" encoding="UTF-8"?>
<svg xmlns="http://www.w3.org/2000/svg" xmlns:xlink="http://www.w3.org/1999/xlink" width="11" height="10.920396" viewBox="0 0 11 10.920396">
<path fill-rule="nonzero" fill="rgb(30%,30%,30%)" fill-opacity="1" d="M 10.980469 7.726562 C 9.847656 3.789062 6.726562 0.964844 3.023438 0 L 2.648438 1.378906 C 5.886719 2.214844 8.617188 4.683594 9.605469 8.121094 C 9.613281 8.148438 9.617188 8.175781 9.625 8.199219 L 11 7.804688 C 10.992188 7.777344 10.988281 7.75 10.980469 7.726562 Z M 10.980469 7.726562 "/>
<path fill-rule="nonzero" fill="rgb(30%,30%,30%)" fill-opacity="1" d="M 8.480469 8.527344 C 8.472656 8.503906 8.46875 8.476562 8.460938 8.453125 C 7.589844 5.417969 5.183594 3.25 2.335938 2.523438 L 0 10.917969 C 0.0664062 10.957031 4.488281 9.679688 4.488281 9.679688 C 4.351562 9.515625 4.25 9.320312 4.183594 9.105469 C 3.9375 8.242188 4.433594 7.335938 5.300781 7.089844 C 6.164062 6.839844 7.066406 7.339844 7.316406 8.203125 C 7.378906 8.417969 7.390625 8.640625 7.367188 8.847656 Z M 2.351562 9.632812 C 1.847656 9.777344 1.316406 9.488281 1.171875 8.980469 C 1.027344 8.476562 1.316406 7.945312 1.824219 7.800781 C 2.332031 7.652344 2.859375 7.945312 3.003906 8.453125 C 3.152344 8.960938 2.859375 9.488281 2.351562 9.632812 Z M 4.332031 6.457031 C 3.929688 6.574219 3.511719 6.34375 3.398438 5.945312 C 3.28125 5.542969 3.515625 5.125 3.914062 5.007812 C 4.316406 4.894531 4.734375 5.125 4.847656 5.523438 C 4.964844 5.925781 4.734375 6.34375 4.332031 6.457031 Z M 4.332031 6.457031 "/>
</svg>
