<?xml version="1.0" encoding="UTF-8"?>
<svg xmlns="http://www.w3.org/2000/svg" xmlns:xlink="http://www.w3.org/1999/xlink" width="11" height="9.577287" viewBox="0 0 11 9.577287">
<path fill-rule="nonzero" fill="rgb(30%,30%,30%)" fill-opacity="1" d="M 10.667969 0 L 0.582031 0 C 0.796875 1.199219 1.351562 2.535156 1.644531 2.730469 L 3.382812 2.210938 C 5.628906 1.507812 9.476562 0.355469 10.667969 0 Z M 10.667969 0 "/>
<path fill-rule="nonzero" fill="rgb(30%,30%,30%)" fill-opacity="1" d="M 0.144531 6.453125 C 0.386719 7.097656 0.71875 8.113281 1.183594 9.460938 C 0.972656 8.015625 1 3.203125 1.1875 2.921875 C 1.1875 2.921875 0.195312 0.847656 0.164062 0.136719 C 0.136719 -0.578125 -0.179688 4.574219 0.144531 6.453125 Z M 0.144531 6.453125 "/>
<path fill-rule="nonzero" fill="rgb(30%,30%,30%)" fill-opacity="1" d="M 10.417969 1.699219 C 10.417969 1.394531 10.632812 1.128906 10.929688 1.066406 L 10.929688 0.1875 L 1.648438 2.96875 C 1.492188 2.96875 1.402344 4.285156 1.382812 5.746094 C 1.359375 7.554688 1.445312 9.574219 1.648438 9.578125 L 10.929688 5.746094 C 11.054688 4.476562 10.984375 3.082031 10.929688 2.332031 C 10.632812 2.269531 10.417969 2.003906 10.417969 1.699219 Z M 10.417969 1.699219 "/>
<path fill-rule="nonzero" fill="rgb(30%,30%,30%)" fill-opacity="1" d="M 9.660156 2.75 C 9.300781 2.75 9.011719 3.042969 9.011719 3.398438 C 9.011719 3.757812 9.300781 4.046875 9.660156 4.046875 C 10.015625 4.046875 10.308594 3.757812 10.308594 3.398438 C 10.308594 3.042969 10.015625 2.75 9.660156 2.75 Z M 9.660156 2.75 "/>
<path fill-rule="nonzero" fill="rgb(30%,30%,30%)" fill-opacity="1" d="M 7.027344 2.105469 C 6.667969 2.105469 6.378906 2.394531 6.378906 2.75 C 6.378906 3.109375 6.667969 3.398438 7.027344 3.398438 C 7.382812 3.398438 7.675781 3.109375 7.675781 2.75 C 7.675781 2.394531 7.382812 2.105469 7.027344 2.105469 Z M 7.027344 2.105469 "/>
<path fill-rule="nonzero" fill="rgb(30%,30%,30%)" fill-opacity="1" d="M 7.675781 4.449219 C 7.4375 4.449219 7.242188 4.644531 7.242188 4.882812 C 7.242188 5.121094 7.433594 5.3125 7.675781 5.3125 C 7.914062 5.316406 8.105469 5.121094 8.105469 4.882812 C 8.105469 4.644531 7.914062 4.449219 7.675781 4.449219 Z M 7.675781 4.449219 "/>
<path fill-rule="nonzero" fill="rgb(30%,30%,30%)" fill-opacity="1" d="M 9.5625 4.882812 C 9.207031 4.882812 8.914062 5.171875 8.914062 5.53125 C 8.914062 5.886719 9.207031 6.175781 9.5625 6.175781 C 9.921875 6.175781 10.210938 5.886719 10.210938 5.53125 C 10.210938 5.171875 9.921875 4.882812 9.5625 4.882812 Z M 9.5625 4.882812 "/>
<path fill-rule="nonzero" fill="rgb(30%,30%,30%)" fill-opacity="1" d="M 4.382812 3.210938 C 4.023438 3.210938 3.734375 3.5 3.734375 3.859375 C 3.734375 4.214844 4.023438 4.503906 4.382812 4.503906 C 4.742188 4.503906 5.03125 4.214844 5.03125 3.859375 C 5.03125 3.5 4.742188 3.210938 4.382812 3.210938 Z M 4.382812 3.210938 "/>
<path fill-rule="nonzero" fill="rgb(30%,30%,30%)" fill-opacity="1" d="M 5.839844 5.3125 C 5.480469 5.316406 5.191406 5.605469 5.191406 5.960938 C 5.191406 6.320312 5.484375 6.609375 5.839844 6.609375 C 6.199219 6.609375 6.488281 6.320312 6.488281 5.960938 C 6.488281 5.789062 6.417969 5.625 6.296875 5.503906 C 6.175781 5.382812 6.011719 5.3125 5.839844 5.3125 Z M 5.839844 5.3125 "/>
<path fill-rule="nonzero" fill="rgb(30%,30%,30%)" fill-opacity="1" d="M 3.734375 6.960938 C 3.378906 6.960938 3.085938 7.25 3.085938 7.605469 C 3.085938 7.964844 3.378906 8.253906 3.734375 8.253906 C 4.09375 8.253906 4.382812 7.964844 4.382812 7.609375 C 4.382812 7.25 4.09375 6.960938 3.734375 6.960938 Z M 3.734375 6.960938 "/>
<path fill-rule="nonzero" fill="rgb(30%,30%,30%)" fill-opacity="1" d="M 3.089844 4.855469 C 2.835938 4.855469 2.628906 5.0625 2.628906 5.3125 C 2.628906 5.566406 2.835938 5.773438 3.085938 5.773438 C 3.339844 5.773438 3.546875 5.566406 3.546875 5.3125 C 3.546875 5.0625 3.339844 4.855469 3.089844 4.855469 Z M 3.089844 4.855469 "/>
</svg>
