<?xml version="1.0" encoding="UTF-8" standalone="no"?>
<!-- Created with Inkscape (http://www.inkscape.org/) -->

<svg
   xmlns:dc="http://purl.org/dc/elements/1.1/"
   xmlns:cc="http://creativecommons.org/ns#"
   xmlns:rdf="http://www.w3.org/1999/02/22-rdf-syntax-ns#"
   xmlns:svg="http://www.w3.org/2000/svg"
   xmlns="http://www.w3.org/2000/svg"
   xmlns:xlink="http://www.w3.org/1999/xlink"
   xmlns:sodipodi="http://sodipodi.sourceforge.net/DTD/sodipodi-0.dtd"
   xmlns:inkscape="http://www.inkscape.org/namespaces/inkscape"
   width="30px"
   height="30px"
   version="1.1"
   id="svg8"
   inkscape:version="0.92.4 5da689c313, 2019-01-14"
   sodipodi:docname="container.svg">
  <defs
     id="defs2" />
  <sodipodi:namedview
     id="base"
     pagecolor="#ffffff"
     bordercolor="#666666"
     borderopacity="1.0"
     inkscape:pageopacity="0.0"
     inkscape:pageshadow="2"
     inkscape:zoom="13.049334"
     inkscape:cx="18.679046"
     inkscape:cy="12.165829"
     inkscape:document-units="px"
     inkscape:current-layer="layer1"
     showgrid="false"
     inkscape:snap-page="false"
     units="px"
     inkscape:window-width="1884"
     inkscape:window-height="1061"
     inkscape:window-x="0"
     inkscape:window-y="0"
     inkscape:window-maximized="1"
     fit-margin-top="0"
     fit-margin-left="0"
     fit-margin-right="0"
     fit-margin-bottom="0" />
  <metadata
     id="metadata5">
    <rdf:RDF>
      <cc:Work
         rdf:about="">
        <dc:format>image/svg+xml</dc:format>
        <dc:type
           rdf:resource="http://purl.org/dc/dcmitype/StillImage" />
        <dc:title></dc:title>
      </cc:Work>
    </rdf:RDF>
  </metadata>
    <circle
       style="color:#000000;clip-rule:nonzero;display:inline;overflow:visible;visibility:visible;opacity:1;isolation:auto;mix-blend-mode:normal;color-interpolation:sRGB;color-interpolation-filters:linearRGB;solid-color:#000000;solid-opacity:1;vector-effect:none;fill:#ffffff;fill-opacity:1;fill-rule:evenodd;stroke:#00a0c4;stroke-width:1;stroke-linecap:butt;stroke-linejoin:miter;stroke-miterlimit:4;stroke-dasharray:none;stroke-dashoffset:0;stroke-opacity:1;marker:none;color-rendering:auto;image-rendering:auto;shape-rendering:auto;text-rendering:auto;enable-background:accumulate"
       id="path815"
       cx="15"
       cy="15"
       r="14.5" />
<g transform="translate(6.5,7.5)"><path fill-rule="nonzero" fill="rgb(30%,30%,30%)" fill-opacity="1" d="M 14.003906 5.808594 L 14.003906 10.039062 L 2.917969 10.039062 L 2.917969 5.808594 L 1.480469 5.808594 L 1.480469 14.777344 L 15.355469 14.777344 L 15.355469 5.808594 Z M 17 3.492188 C 17 3.46875 16.996094 3.449219 16.988281 3.429688 C 16.988281 3.429688 16.984375 3.429688 16.984375 3.429688 C 16.980469 3.414062 16.972656 3.402344 16.964844 3.390625 L 13.484375 0.0742188 C 13.449219 0.0273438 13.394531 0 13.335938 0 L 3.390625 0 C 3.335938 0 3.28125 0.0273438 3.246094 0.0703125 L 0.0351562 3.386719 C 0.015625 3.417969 0.00390625 3.453125 0 3.488281 C 0 3.492188 0 3.496094 0 3.496094 C 0 4.445312 0.808594 5.214844 1.804688 5.214844 C 2.527344 5.214844 3.148438 4.808594 3.4375 4.222656 C 3.722656 4.808594 4.347656 5.214844 5.070312 5.214844 C 5.867188 5.214844 6.546875 4.71875 6.78125 4.03125 C 7.019531 4.71875 7.695312 5.214844 8.496094 5.214844 C 9.296875 5.214844 9.980469 4.710938 10.214844 4.019531 C 10.445312 4.710938 11.128906 5.214844 11.929688 5.214844 C 12.652344 5.214844 13.277344 4.808594 13.5625 4.222656 C 13.851562 4.808594 14.472656 5.214844 15.195312 5.214844 C 16.191406 5.214844 17 4.445312 17 3.496094 C 17 3.496094 17 3.492188 17 3.492188 Z M 7.074219 3.316406 L 7.347656 0.363281 L 9.199219 0.363281 L 9.925781 3.316406 Z M 16.464844 3.316406 L 13.492188 3.316406 L 11.601562 0.363281 L 13.246094 0.363281 Z M 3.480469 0.363281 L 5.121094 0.363281 L 3.515625 3.316406 L 0.546875 3.316406 Z M 3.480469 0.363281 "/>
</g>
</svg>
