<?xml version="1.0" encoding="UTF-8"?>
<svg xmlns="http://www.w3.org/2000/svg" xmlns:xlink="http://www.w3.org/1999/xlink" width="7.866534" height="11" viewBox="0 0 7.866534 11">
<path fill-rule="nonzero" fill="rgb(30%,30%,30%)" fill-opacity="1" d="M 7.097656 0.875 C 7.097656 0.394531 6.707031 0 6.222656 0 L 1.621094 0 C 1.136719 0 0.746094 0.394531 0.746094 0.875 L 0.746094 1.554688 L 7.097656 1.554688 Z M 7.097656 0.875 "/>
<path fill-rule="nonzero" fill="rgb(30%,30%,30%)" fill-opacity="1" d="M 6.3125 2.386719 L 1.554688 2.386719 C 1.46875 3.460938 0.585938 3.617188 0.679688 3.59375 C 0.265625 3.773438 0 4.152344 0 4.632812 L 0 8.53125 C 0 9.890625 1.109375 11 2.46875 11 L 5.398438 11 C 6.753906 11 7.867188 9.890625 7.867188 8.53125 L 7.867188 4.632812 C 7.867188 4.238281 7.722656 3.988281 7.429688 3.703125 C 7.144531 3.441406 6.464844 3.570312 6.3125 2.386719 Z M 6.265625 7.910156 L 1.554688 7.910156 L 1.554688 5.5 L 6.265625 5.5 Z M 6.265625 7.910156 "/>
</svg>
