<?xml version="1.0" encoding="UTF-8" standalone="no"?>
<!-- Created with Inkscape (http://www.inkscape.org/) -->

<svg
   xmlns:dc="http://purl.org/dc/elements/1.1/"
   xmlns:cc="http://creativecommons.org/ns#"
   xmlns:rdf="http://www.w3.org/1999/02/22-rdf-syntax-ns#"
   xmlns:svg="http://www.w3.org/2000/svg"
   xmlns="http://www.w3.org/2000/svg"
   xmlns:xlink="http://www.w3.org/1999/xlink"
   xmlns:sodipodi="http://sodipodi.sourceforge.net/DTD/sodipodi-0.dtd"
   xmlns:inkscape="http://www.inkscape.org/namespaces/inkscape"
   width="30px"
   height="30px"
   version="1.1"
   id="svg8"
   inkscape:version="0.92.4 5da689c313, 2019-01-14"
   sodipodi:docname="container.svg">
  <defs
     id="defs2" />
  <sodipodi:namedview
     id="base"
     pagecolor="#ffffff"
     bordercolor="#666666"
     borderopacity="1.0"
     inkscape:pageopacity="0.0"
     inkscape:pageshadow="2"
     inkscape:zoom="13.049334"
     inkscape:cx="18.679046"
     inkscape:cy="12.165829"
     inkscape:document-units="px"
     inkscape:current-layer="layer1"
     showgrid="false"
     inkscape:snap-page="false"
     units="px"
     inkscape:window-width="1884"
     inkscape:window-height="1061"
     inkscape:window-x="0"
     inkscape:window-y="0"
     inkscape:window-maximized="1"
     fit-margin-top="0"
     fit-margin-left="0"
     fit-margin-right="0"
     fit-margin-bottom="0" />
  <metadata
     id="metadata5">
    <rdf:RDF>
      <cc:Work
         rdf:about="">
        <dc:format>image/svg+xml</dc:format>
        <dc:type
           rdf:resource="http://purl.org/dc/dcmitype/StillImage" />
        <dc:title></dc:title>
      </cc:Work>
    </rdf:RDF>
  </metadata>
    <circle
       style="color:#000000;clip-rule:nonzero;display:inline;overflow:visible;visibility:visible;opacity:1;isolation:auto;mix-blend-mode:normal;color-interpolation:sRGB;color-interpolation-filters:linearRGB;solid-color:#000000;solid-opacity:1;vector-effect:none;fill:#ffffff;fill-opacity:1;fill-rule:evenodd;stroke:#00a0c4;stroke-width:1;stroke-linecap:butt;stroke-linejoin:miter;stroke-miterlimit:4;stroke-dasharray:none;stroke-dashoffset:0;stroke-opacity:1;marker:none;color-rendering:auto;image-rendering:auto;shape-rendering:auto;text-rendering:auto;enable-background:accumulate"
       id="path815"
       cx="15"
       cy="15"
       r="14.5" />
<g transform="translate(8.5,6.5)"><path fill-rule="nonzero" fill="rgb(30%,30%,30%)" fill-opacity="1" d="M 12.722656 0.0078125 L 8.421875 0.0078125 L 8.421875 0 L 7.621094 0 L 7.621094 0.0078125 L 0.402344 0.0078125 C 0.179688 0.0078125 0 0.1875 0 0.40625 L 0 15.296875 C 0 15.515625 0.179688 15.695312 0.402344 15.695312 L 1.996094 15.695312 L 1.996094 16.640625 C 1.996094 16.839844 2.160156 17 2.359375 17 L 3.339844 17 C 3.539062 17 3.703125 16.839844 3.703125 16.640625 L 3.703125 15.695312 L 9.492188 15.695312 L 9.492188 16.585938 C 9.492188 16.816406 9.675781 17 9.90625 17 L 10.78125 17 C 11.011719 17 11.195312 16.816406 11.195312 16.585938 L 11.195312 15.695312 L 12.722656 15.695312 C 12.945312 15.695312 13.125 15.515625 13.125 15.296875 L 13.125 0.40625 C 13.125 0.1875 12.945312 0.0078125 12.722656 0.0078125 Z M 6.09375 13.59375 L 1.808594 13.59375 C 1.480469 13.59375 1.210938 13.324219 1.210938 12.996094 C 1.210938 12.667969 1.480469 12.402344 1.808594 12.402344 L 6.09375 12.402344 C 6.421875 12.402344 6.691406 12.667969 6.691406 12.996094 C 6.691406 13.324219 6.421875 13.59375 6.09375 13.59375 Z M 7.621094 10.980469 L 0.800781 10.980469 L 0.800781 0.808594 L 7.621094 0.808594 Z M 10.703125 2.621094 L 11.335938 2.621094 L 11.335938 3.257812 L 10.703125 3.257812 Z M 10.703125 3.742188 L 11.335938 3.742188 L 11.335938 4.375 L 10.703125 4.375 Z M 10.703125 4.816406 L 11.335938 4.816406 L 11.335938 5.453125 L 10.703125 5.453125 Z M 10.703125 5.9375 L 11.335938 5.9375 L 11.335938 6.570312 L 10.703125 6.570312 Z M 9.269531 2.621094 L 9.90625 2.621094 L 9.90625 3.257812 L 9.269531 3.257812 Z M 9.269531 3.742188 L 9.90625 3.742188 L 9.90625 4.375 L 9.269531 4.375 Z M 9.269531 4.816406 L 9.90625 4.816406 L 9.90625 5.453125 L 9.269531 5.453125 Z M 9.269531 5.9375 L 9.90625 5.9375 L 9.90625 6.570312 L 9.269531 6.570312 Z M 11.019531 8.839844 L 9.671875 8.839844 C 9.34375 8.839844 9.074219 8.570312 9.074219 8.242188 C 9.074219 7.914062 9.34375 7.648438 9.671875 7.648438 L 11.019531 7.648438 C 11.347656 7.648438 11.613281 7.914062 11.613281 8.242188 C 11.613281 8.570312 11.347656 8.839844 11.019531 8.839844 Z M 11.019531 8.839844 "/>
<path fill-rule="nonzero" fill="rgb(30%,30%,30%)" fill-opacity="1" d="M 5.328125 3.269531 C 5.796875 3.367188 6.136719 3.5625 6.347656 3.851562 C 6.382812 3.902344 6.375 3.976562 6.332031 4.015625 C 6.332031 4.019531 6.332031 4.019531 6.332031 4.019531 C 6.285156 4.058594 6.21875 4.050781 6.183594 4 C 5.925781 3.640625 5.429688 3.5 4.960938 3.453125 C 4.675781 3.609375 4.371094 3.804688 4.054688 4.046875 C 4.476562 4.066406 4.789062 4.222656 4.996094 4.367188 C 5.296875 4.585938 5.433594 4.828125 5.441406 4.839844 C 5.46875 4.890625 5.457031 4.957031 5.417969 4.992188 C 5.414062 4.996094 5.410156 5 5.40625 5.003906 C 5.359375 5.039062 5.292969 5.019531 5.261719 4.964844 C 5.261719 4.960938 5.136719 4.746094 4.875 4.5625 C 4.554688 4.335938 4.175781 4.246094 3.746094 4.289062 C 3.605469 4.40625 3.464844 4.527344 3.324219 4.660156 C 3.234375 4.742188 3.148438 4.824219 3.066406 4.90625 C 3.527344 4.914062 3.867188 5.078125 4.082031 5.230469 C 4.382812 5.445312 4.519531 5.691406 4.527344 5.703125 C 4.554688 5.753906 4.546875 5.820312 4.503906 5.855469 C 4.5 5.859375 4.496094 5.863281 4.492188 5.867188 C 4.445312 5.898438 4.378906 5.882812 4.347656 5.828125 C 4.347656 5.824219 4.222656 5.609375 3.960938 5.425781 C 3.636719 5.195312 3.253906 5.105469 2.820312 5.152344 C 2.585938 5.402344 2.371094 5.644531 2.183594 5.882812 C 2.605469 5.886719 2.929688 6.023438 3.140625 6.15625 C 3.4375 6.34375 3.589844 6.558594 3.59375 6.566406 C 3.628906 6.617188 3.621094 6.691406 3.578125 6.730469 C 3.578125 6.730469 3.578125 6.734375 3.578125 6.734375 C 3.53125 6.773438 3.464844 6.765625 3.429688 6.710938 C 3.425781 6.710938 3.292969 6.519531 3.03125 6.359375 C 2.722656 6.167969 2.375 6.09375 1.996094 6.128906 C 1.773438 6.4375 1.589844 6.734375 1.445312 7.015625 C 2.152344 7.027344 2.6875 7.511719 2.714844 7.535156 C 2.761719 7.578125 2.765625 7.652344 2.730469 7.703125 C 2.726562 7.707031 2.722656 7.714844 2.71875 7.71875 C 2.679688 7.753906 2.621094 7.753906 2.582031 7.71875 C 2.578125 7.714844 2.019531 7.210938 1.328125 7.253906 C 0.96875 8.046875 0.941406 8.683594 1.199219 9.011719 C 1.675781 9.621094 3.148438 8.539062 4.816406 6.960938 C 6.488281 5.382812 7.695312 3.6875 7.328125 3.191406 C 7.09375 2.878906 6.351562 2.804688 5.328125 3.269531 Z M 5.328125 3.269531 "/>
</g>
</svg>
