<?xml version="1.0" encoding="UTF-8"?>
<svg xmlns="http://www.w3.org/2000/svg" xmlns:xlink="http://www.w3.org/1999/xlink" width="8.492733" height="11" viewBox="0 0 8.492733 11">
<path fill-rule="nonzero" fill="rgb(30%,30%,30%)" fill-opacity="1" d="M 8.234375 0.00390625 L 5.449219 0.00390625 L 5.449219 0 L 4.929688 0 L 4.929688 0.00390625 L 0.257812 0.00390625 C 0.117188 0.00390625 0 0.121094 0 0.265625 L 0 9.898438 C 0 10.039062 0.117188 10.15625 0.257812 10.15625 L 1.292969 10.15625 L 1.292969 10.765625 C 1.292969 10.894531 1.398438 11 1.527344 11 L 2.164062 11 C 2.292969 11 2.394531 10.894531 2.394531 10.765625 L 2.394531 10.15625 L 6.140625 10.15625 L 6.140625 10.730469 C 6.140625 10.878906 6.261719 11 6.410156 11 L 6.976562 11 C 7.125 11 7.246094 10.878906 7.246094 10.730469 L 7.246094 10.15625 L 8.234375 10.15625 C 8.375 10.15625 8.492188 10.039062 8.492188 9.898438 L 8.492188 0.265625 C 8.492188 0.121094 8.375 0.00390625 8.234375 0.00390625 Z M 3.945312 8.796875 L 1.167969 8.796875 C 0.957031 8.796875 0.785156 8.621094 0.785156 8.410156 C 0.785156 8.199219 0.957031 8.023438 1.167969 8.023438 L 3.945312 8.023438 C 4.15625 8.023438 4.328125 8.199219 4.328125 8.410156 C 4.328125 8.621094 4.15625 8.796875 3.945312 8.796875 Z M 4.929688 7.105469 L 0.519531 7.105469 L 0.519531 0.523438 L 4.929688 0.523438 Z M 6.925781 1.695312 L 7.335938 1.695312 L 7.335938 2.105469 L 6.925781 2.105469 Z M 6.925781 2.421875 L 7.335938 2.421875 L 7.335938 2.832031 L 6.925781 2.832031 Z M 6.925781 3.117188 L 7.335938 3.117188 L 7.335938 3.527344 L 6.925781 3.527344 Z M 6.925781 3.839844 L 7.335938 3.839844 L 7.335938 4.253906 L 6.925781 4.253906 Z M 6 1.695312 L 6.410156 1.695312 L 6.410156 2.105469 L 6 2.105469 Z M 6 2.421875 L 6.410156 2.421875 L 6.410156 2.832031 L 6 2.832031 Z M 6 3.117188 L 6.410156 3.117188 L 6.410156 3.527344 L 6 3.527344 Z M 6 3.839844 L 6.410156 3.839844 L 6.410156 4.253906 L 6 4.253906 Z M 7.128906 5.71875 L 6.257812 5.71875 C 6.046875 5.71875 5.871094 5.546875 5.871094 5.335938 C 5.871094 5.121094 6.046875 4.949219 6.257812 4.949219 L 7.128906 4.949219 C 7.339844 4.949219 7.515625 5.121094 7.515625 5.335938 C 7.515625 5.546875 7.339844 5.71875 7.128906 5.71875 Z M 7.128906 5.71875 "/>
<path fill-rule="nonzero" fill="rgb(30%,30%,30%)" fill-opacity="1" d="M 3.449219 2.113281 C 3.75 2.175781 3.972656 2.304688 4.105469 2.492188 C 4.128906 2.527344 4.125 2.574219 4.097656 2.597656 C 4.097656 2.601562 4.097656 2.601562 4.097656 2.601562 C 4.066406 2.628906 4.023438 2.621094 4 2.589844 C 3.835938 2.355469 3.511719 2.265625 3.210938 2.234375 C 3.023438 2.335938 2.828125 2.460938 2.621094 2.617188 C 2.898438 2.632812 3.101562 2.730469 3.230469 2.828125 C 3.425781 2.964844 3.515625 3.125 3.519531 3.132812 C 3.539062 3.164062 3.53125 3.207031 3.507812 3.230469 C 3.503906 3.234375 3.5 3.234375 3.5 3.238281 C 3.46875 3.257812 3.425781 3.25 3.40625 3.210938 C 3.402344 3.210938 3.324219 3.070312 3.152344 2.953125 C 2.945312 2.804688 2.703125 2.746094 2.421875 2.777344 C 2.332031 2.851562 2.242188 2.929688 2.152344 3.015625 C 2.09375 3.066406 2.039062 3.121094 1.984375 3.175781 C 2.285156 3.179688 2.5 3.285156 2.640625 3.386719 C 2.835938 3.523438 2.925781 3.683594 2.929688 3.691406 C 2.945312 3.722656 2.941406 3.765625 2.914062 3.789062 C 2.914062 3.792969 2.910156 3.792969 2.90625 3.796875 C 2.875 3.816406 2.835938 3.808594 2.8125 3.769531 C 2.8125 3.769531 2.734375 3.628906 2.5625 3.511719 C 2.355469 3.363281 2.105469 3.304688 1.824219 3.335938 C 1.671875 3.496094 1.535156 3.652344 1.414062 3.808594 C 1.6875 3.808594 1.894531 3.898438 2.03125 3.984375 C 2.222656 4.105469 2.320312 4.242188 2.324219 4.25 C 2.347656 4.28125 2.34375 4.328125 2.316406 4.355469 C 2.316406 4.355469 2.316406 4.355469 2.3125 4.355469 C 2.285156 4.382812 2.242188 4.375 2.21875 4.34375 C 2.21875 4.339844 2.128906 4.21875 1.960938 4.113281 C 1.761719 3.992188 1.539062 3.941406 1.292969 3.96875 C 1.148438 4.164062 1.027344 4.359375 0.933594 4.539062 C 1.394531 4.546875 1.738281 4.859375 1.757812 4.875 C 1.785156 4.902344 1.789062 4.953125 1.765625 4.984375 C 1.765625 4.988281 1.761719 4.992188 1.757812 4.996094 C 1.734375 5.019531 1.695312 5.019531 1.671875 4.996094 C 1.667969 4.992188 1.304688 4.667969 0.859375 4.695312 C 0.625 5.207031 0.609375 5.617188 0.777344 5.832031 C 1.085938 6.226562 2.035156 5.523438 3.117188 4.503906 C 4.199219 3.484375 4.980469 2.386719 4.742188 2.066406 C 4.589844 1.863281 4.109375 1.816406 3.449219 2.113281 Z M 3.449219 2.113281 "/>
</svg>
