<?xml version="1.0" encoding="UTF-8"?>
<svg xmlns="http://www.w3.org/2000/svg" xmlns:xlink="http://www.w3.org/1999/xlink" width="11" height="10.540986" viewBox="0 0 11 10.540986">
<path fill-rule="nonzero" fill="rgb(30%,30%,30%)" fill-opacity="1" d="M 9.183594 4.789062 C 9.332031 4.828125 9.480469 4.738281 9.519531 4.589844 C 9.554688 4.445312 9.464844 4.296875 9.320312 4.257812 L 8.152344 3.960938 L 9.308594 3.261719 C 9.4375 3.183594 9.480469 3.015625 9.402344 2.886719 C 9.324219 2.757812 9.15625 2.714844 9.027344 2.792969 L 7.84375 3.507812 L 8.128906 2.3125 C 8.164062 2.164062 8.070312 2.015625 7.925781 1.984375 C 7.777344 1.949219 7.628906 2.039062 7.59375 2.1875 L 7.1875 3.90625 L 5.730469 4.789062 L 5.730469 2.960938 L 6.980469 1.734375 C 7.085938 1.628906 7.089844 1.453125 6.984375 1.347656 C 6.875 1.238281 6.703125 1.238281 6.59375 1.34375 L 5.730469 2.195312 L 5.730469 0.886719 C 5.730469 0.789062 5.679688 0.699219 5.59375 0.652344 C 5.507812 0.601562 5.402344 0.601562 5.320312 0.652344 C 5.234375 0.699219 5.183594 0.789062 5.183594 0.886719 L 5.183594 2.1875 L 4.3125 1.332031 C 4.203125 1.226562 4.03125 1.226562 3.925781 1.335938 C 3.820312 1.441406 3.820312 1.617188 3.929688 1.722656 L 5.183594 2.953125 L 5.183594 4.835938 L 3.589844 3.847656 L 3.207031 2.140625 C 3.171875 1.992188 3.027344 1.898438 2.878906 1.933594 C 2.734375 1.964844 2.640625 2.113281 2.671875 2.257812 L 2.9375 3.441406 L 1.832031 2.753906 C 1.703125 2.675781 1.53125 2.714844 1.453125 2.84375 C 1.375 2.972656 1.414062 3.140625 1.542969 3.21875 L 2.644531 3.90625 L 1.460938 4.195312 C 1.3125 4.230469 1.222656 4.378906 1.257812 4.523438 C 1.296875 4.671875 1.441406 4.761719 1.589844 4.726562 L 3.296875 4.308594 L 4.890625 5.296875 L 3.296875 6.265625 L 1.597656 5.832031 C 1.453125 5.792969 1.304688 5.882812 1.265625 6.027344 C 1.230469 6.175781 1.316406 6.324219 1.464844 6.363281 L 2.640625 6.660156 L 1.523438 7.339844 C 1.394531 7.417969 1.351562 7.585938 1.429688 7.714844 C 1.511719 7.84375 1.679688 7.882812 1.808594 7.804688 L 2.917969 7.132812 L 2.636719 8.320312 C 2.601562 8.46875 2.695312 8.613281 2.839844 8.648438 C 2.988281 8.683594 3.136719 8.59375 3.171875 8.445312 L 3.574219 6.734375 L 5.183594 5.761719 L 5.183594 7.539062 L 3.941406 8.761719 C 3.832031 8.867188 3.832031 9.039062 3.9375 9.148438 C 4.042969 9.253906 4.214844 9.257812 4.324219 9.152344 L 5.183594 8.308594 L 5.183594 9.660156 C 5.183594 9.757812 5.234375 9.847656 5.320312 9.898438 C 5.402344 9.945312 5.507812 9.945312 5.59375 9.898438 C 5.679688 9.847656 5.730469 9.757812 5.730469 9.660156 L 5.730469 8.28125 L 6.605469 9.140625 C 6.65625 9.191406 6.726562 9.21875 6.796875 9.21875 C 6.800781 9.21875 6.800781 9.21875 6.800781 9.21875 C 6.910156 9.21875 7.011719 9.152344 7.050781 9.046875 C 7.09375 8.945312 7.070312 8.828125 6.988281 8.75 L 5.730469 7.511719 L 5.730469 5.816406 L 7.195312 6.726562 L 7.578125 8.425781 C 7.609375 8.574219 7.757812 8.664062 7.90625 8.632812 C 8.050781 8.597656 8.144531 8.453125 8.113281 8.304688 L 7.847656 7.128906 L 8.996094 7.84375 C 9.125 7.921875 9.292969 7.882812 9.371094 7.753906 C 9.453125 7.625 9.414062 7.457031 9.285156 7.378906 L 8.113281 6.652344 L 9.304688 6.359375 C 9.453125 6.324219 9.542969 6.175781 9.507812 6.027344 C 9.46875 5.882812 9.324219 5.792969 9.175781 5.828125 L 7.460938 6.246094 L 5.9375 5.304688 L 7.496094 4.359375 Z M 9.183594 4.789062 "/>
<path fill-rule="nonzero" fill="rgb(30%,30%,30%)" fill-opacity="1" d="M 7.667969 0.445312 C 8.050781 0.441406 8.433594 0.519531 8.789062 0.671875 C 9.480469 0.96875 10.03125 1.519531 10.328125 2.210938 C 10.480469 2.566406 10.558594 2.949219 10.554688 3.332031 L 10.554688 7.207031 C 10.558594 7.59375 10.480469 7.976562 10.328125 8.328125 C 10.03125 9.023438 9.480469 9.574219 8.789062 9.871094 C 8.433594 10.019531 8.050781 10.097656 7.667969 10.097656 L 3.332031 10.097656 C 2.949219 10.097656 2.566406 10.019531 2.210938 9.871094 C 1.519531 9.574219 0.96875 9.023438 0.671875 8.328125 C 0.519531 7.976562 0.441406 7.59375 0.445312 7.207031 L 0.445312 3.332031 C 0.441406 2.949219 0.519531 2.566406 0.671875 2.210938 C 0.96875 1.519531 1.519531 0.96875 2.210938 0.671875 C 2.566406 0.519531 2.949219 0.441406 3.332031 0.445312 L 7.667969 0.445312 M 7.667969 0 L 3.332031 0 C 1.5 0 0 1.5 0 3.332031 L 0 7.207031 C 0 9.042969 1.5 10.539062 3.332031 10.539062 L 7.667969 10.539062 C 9.5 10.539062 11 9.042969 11 7.207031 L 11 3.332031 C 11 1.5 9.5 0 7.667969 0 Z M 7.667969 0 "/>
</svg>
