<?xml version="1.0" encoding="UTF-8" standalone="no"?>
<!-- Created with Inkscape (http://www.inkscape.org/) -->

<svg
   xmlns:dc="http://purl.org/dc/elements/1.1/"
   xmlns:cc="http://creativecommons.org/ns#"
   xmlns:rdf="http://www.w3.org/1999/02/22-rdf-syntax-ns#"
   xmlns:svg="http://www.w3.org/2000/svg"
   xmlns="http://www.w3.org/2000/svg"
   xmlns:xlink="http://www.w3.org/1999/xlink"
   xmlns:sodipodi="http://sodipodi.sourceforge.net/DTD/sodipodi-0.dtd"
   xmlns:inkscape="http://www.inkscape.org/namespaces/inkscape"
   width="30px"
   height="30px"
   version="1.1"
   id="svg8"
   inkscape:version="0.92.4 5da689c313, 2019-01-14"
   sodipodi:docname="container.svg">
  <defs
     id="defs2" />
  <sodipodi:namedview
     id="base"
     pagecolor="#ffffff"
     bordercolor="#666666"
     borderopacity="1.0"
     inkscape:pageopacity="0.0"
     inkscape:pageshadow="2"
     inkscape:zoom="13.049334"
     inkscape:cx="18.679046"
     inkscape:cy="12.165829"
     inkscape:document-units="px"
     inkscape:current-layer="layer1"
     showgrid="false"
     inkscape:snap-page="false"
     units="px"
     inkscape:window-width="1884"
     inkscape:window-height="1061"
     inkscape:window-x="0"
     inkscape:window-y="0"
     inkscape:window-maximized="1"
     fit-margin-top="0"
     fit-margin-left="0"
     fit-margin-right="0"
     fit-margin-bottom="0" />
  <metadata
     id="metadata5">
    <rdf:RDF>
      <cc:Work
         rdf:about="">
        <dc:format>image/svg+xml</dc:format>
        <dc:type
           rdf:resource="http://purl.org/dc/dcmitype/StillImage" />
        <dc:title></dc:title>
      </cc:Work>
    </rdf:RDF>
  </metadata>
    <circle
       style="color:#000000;clip-rule:nonzero;display:inline;overflow:visible;visibility:visible;opacity:1;isolation:auto;mix-blend-mode:normal;color-interpolation:sRGB;color-interpolation-filters:linearRGB;solid-color:#000000;solid-opacity:1;vector-effect:none;fill:#00b3cc;fill-opacity:1;fill-rule:evenodd;stroke:#ffffff;stroke-width:1;stroke-linecap:butt;stroke-linejoin:miter;stroke-miterlimit:4;stroke-dasharray:none;stroke-dashoffset:0;stroke-opacity:1;marker:none;color-rendering:auto;image-rendering:auto;shape-rendering:auto;text-rendering:auto;enable-background:accumulate"
       id="path815"
       cx="15"
       cy="15"
       r="14.5" />
<g transform="translate(6.5,6.5)"><path fill-rule="nonzero" fill="#FFFFFF" fill-opacity="1" d="M 16.972656 11.941406 C 15.21875 5.859375 10.394531 1.492188 4.675781 0 L 4.09375 2.128906 C 9.09375 3.425781 13.316406 7.234375 14.847656 12.550781 C 14.859375 12.59375 14.863281 12.632812 14.875 12.671875 L 17 12.058594 C 16.988281 12.019531 16.984375 11.980469 16.972656 11.941406 Z M 16.972656 11.941406 "/>
<path fill-rule="nonzero" fill="#FFFFFF" fill-opacity="1" d="M 13.105469 13.179688 C 13.09375 13.140625 13.089844 13.101562 13.078125 13.0625 C 11.726562 8.375 8.015625 5.023438 3.609375 3.898438 L 0 16.875 C 0.101562 16.933594 6.933594 14.960938 6.933594 14.960938 C 6.726562 14.707031 6.566406 14.40625 6.46875 14.070312 C 6.082031 12.734375 6.851562 11.339844 8.191406 10.953125 C 9.527344 10.570312 10.917969 11.339844 11.304688 12.675781 C 11.402344 13.011719 11.421875 13.351562 11.386719 13.675781 Z M 3.636719 14.886719 C 2.851562 15.113281 2.039062 14.660156 1.8125 13.878906 C 1.585938 13.097656 2.039062 12.28125 2.820312 12.054688 C 3.601562 11.828125 4.417969 12.28125 4.644531 13.0625 C 4.871094 13.847656 4.417969 14.660156 3.636719 14.886719 Z M 6.695312 9.980469 C 6.074219 10.160156 5.429688 9.804688 5.25 9.183594 C 5.074219 8.566406 5.429688 7.917969 6.050781 7.738281 C 6.667969 7.5625 7.316406 7.917969 7.492188 8.539062 C 7.671875 9.15625 7.316406 9.804688 6.695312 9.980469 Z M 6.695312 9.980469 "/>
</g>
</svg>
