<?xml version="1.0" encoding="UTF-8"?>
<svg xmlns="http://www.w3.org/2000/svg" xmlns:xlink="http://www.w3.org/1999/xlink" width="11" height="10.793939" viewBox="0 0 11 10.793939">
<path fill-rule="nonzero" fill="rgb(30%,30%,30%)" fill-opacity="1" stroke-width="1.85824" stroke-linecap="butt" stroke-linejoin="miter" stroke="rgb(100%, 100%, 100%)" stroke-opacity="1" stroke-miterlimit="10" d="M 679.954414 97.637171 C 750.222806 112.233987 801.14193 141.767079 832.372326 185.218065 C 837.803699 193.025664 836.785317 203.888411 830.335561 209.998705 C 830.335561 209.998705 829.9961 210.338166 829.9961 210.338166 C 823.206884 216.448461 813.36252 215.090618 807.931146 207.283019 C 769.232612 153.308747 694.890691 132.262176 624.622299 125.472959 C 581.850235 148.556296 536.362484 178.089388 488.498507 214.072235 C 552.317143 217.466844 599.162737 240.55018 629.714212 262.615134 C 674.862502 295.203373 695.569612 331.865143 696.587995 333.222986 C 700.661525 341.030585 699.303681 350.874949 693.532847 356.306322 C 692.853926 356.985244 692.175004 357.324705 691.496082 357.664166 C 684.367405 363.095539 674.523041 360.379852 669.770589 351.893332 C 669.431128 351.553871 651.100244 319.305092 611.722788 291.469304 C 563.858811 257.862682 506.829392 243.944788 442.331834 251.073466 C 421.624724 268.046507 400.578153 286.377392 379.531581 306.06612 C 365.953148 318.62617 353.053637 330.84676 340.833047 343.06735 C 410.083056 344.085733 460.662719 368.866373 492.911498 391.949709 C 538.059788 424.198488 558.766899 461.199718 559.44582 462.557562 C 563.858811 470.365161 562.500968 480.209525 556.390673 485.640898 C 556.051212 486.31982 555.37229 486.65928 554.693369 486.998741 C 547.22523 492.090654 537.720327 489.714428 532.967876 481.227907 C 532.628415 480.888446 514.29753 448.639668 474.920074 420.80388 C 426.377176 386.857797 369.008296 373.279364 303.831817 380.408041 C 268.527891 417.409271 236.618573 454.071041 208.443324 490.053889 C 271.922499 490.053889 320.125936 510.760999 351.695793 530.789188 C 396.504623 558.624976 418.909037 590.873755 419.92742 592.231598 C 425.019332 599.699736 424.00095 610.562483 417.551194 616.672778 C 417.551194 616.672778 417.211733 617.012238 417.211733 617.012238 C 410.422517 623.122533 400.578153 621.76469 395.146779 613.957091 C 394.807319 613.61763 374.77913 585.102921 335.401674 561.001202 C 289.235001 532.486492 237.297494 520.944824 180.607536 526.715658 C 147.000914 572.882331 119.504587 617.351699 97.779094 659.105381 C 203.690872 661.142146 284.143089 733.786763 288.216619 737.181372 C 295.005835 743.631127 296.024218 754.833335 290.592844 762.301473 C 289.913923 763.319855 289.235001 763.998777 288.216619 764.677699 C 282.785245 770.109072 273.959264 770.109072 268.18843 764.677699 C 267.509508 763.998777 183.662683 688.638473 80.127131 695.088229 C 26.152859 813.899519 22.079329 909.288011 61.117325 958.849292 C 132.404098 1049.824794 352.714176 887.562518 603.236267 650.958321 C 853.758358 414.693585 1034.69098 160.776885 979.358865 86.434964 C 944.054938 39.249909 833.051248 28.387162 679.954414 97.637171 Z M 679.954414 97.637171 " transform="matrix(0.0115072, 0, 0, 0.0115072, -0.394697, -0.545407)"/>
</svg>
