<?xml version="1.0" encoding="UTF-8"?>
<svg xmlns="http://www.w3.org/2000/svg" xmlns:xlink="http://www.w3.org/1999/xlink" width="10.95522" height="11" viewBox="0 0 10.95522 11">
<path fill-rule="nonzero" fill="rgb(30%,30%,30%)" fill-opacity="1" d="M 6.953125 4.039062 C 5.722656 2.808594 4.066406 2.457031 3.265625 3.257812 C 2.464844 4.058594 2.816406 5.714844 4.046875 6.945312 C 5.28125 8.179688 6.9375 8.53125 7.738281 7.730469 C 8.539062 6.929688 8.1875 5.273438 6.953125 4.039062 Z M 6.953125 4.039062 "/>
<path fill-rule="nonzero" fill="rgb(30%,30%,30%)" fill-opacity="1" d="M 9.429688 8.742188 L 7.988281 8.011719 L 8.769531 9.386719 C 8.8125 9.464844 8.792969 9.558594 8.726562 9.613281 C 8.65625 9.664062 8.558594 9.65625 8.496094 9.597656 C 8.488281 9.585938 8.476562 9.574219 8.46875 9.558594 L 7.820312 8.417969 L 7.84375 11 C 7.996094 10.949219 8.140625 10.941406 8.265625 10.9375 C 8.480469 10.925781 8.625 10.917969 8.792969 10.75 C 8.960938 10.582031 8.96875 10.441406 8.980469 10.226562 C 8.992188 9.976562 9.007812 9.671875 9.316406 9.359375 C 9.628906 9.050781 9.933594 9.035156 10.183594 9.023438 C 10.394531 9.011719 10.535156 9.003906 10.707031 8.835938 C 10.875 8.667969 10.882812 8.523438 10.890625 8.3125 C 10.898438 8.183594 10.90625 8.039062 10.957031 7.886719 L 8.464844 7.867188 L 9.585938 8.433594 C 9.671875 8.476562 9.707031 8.578125 9.660156 8.664062 C 9.617188 8.75 9.515625 8.785156 9.429688 8.742188 Z M 9.429688 8.742188 "/>
<path fill-rule="nonzero" fill="rgb(30%,30%,30%)" fill-opacity="1" d="M 2.460938 1.410156 C 2.546875 1.371094 2.648438 1.410156 2.691406 1.496094 L 3.132812 2.433594 L 3.113281 0 C 2.960938 0.0507812 2.816406 0.0585938 2.6875 0.0625 C 2.476562 0.0742188 2.332031 0.0820312 2.164062 0.25 C 1.996094 0.417969 1.988281 0.558594 1.976562 0.773438 C 1.964844 1.019531 1.949219 1.328125 1.640625 1.640625 C 1.332031 1.949219 1.023438 1.964844 0.773438 1.976562 C 0.5625 1.988281 0.417969 1.996094 0.25 2.164062 C 0.0820312 2.335938 0.0742188 2.476562 0.0625 2.6875 C 0.0585938 2.816406 0.0507812 2.960938 0 3.113281 L 2.542969 3.136719 L 1.5625 2.609375 C 1.550781 2.601562 1.535156 2.589844 1.523438 2.578125 C 1.464844 2.519531 1.457031 2.421875 1.507812 2.351562 C 1.558594 2.285156 1.652344 2.261719 1.730469 2.304688 L 3.019531 3 L 2.378906 1.644531 C 2.335938 1.554688 2.375 1.453125 2.460938 1.410156 Z M 2.460938 1.410156 "/>
</svg>
