<?xml version="1.0" encoding="UTF-8" standalone="no"?>
<!-- Created with Inkscape (http://www.inkscape.org/) -->

<svg
   xmlns:dc="http://purl.org/dc/elements/1.1/"
   xmlns:cc="http://creativecommons.org/ns#"
   xmlns:rdf="http://www.w3.org/1999/02/22-rdf-syntax-ns#"
   xmlns:svg="http://www.w3.org/2000/svg"
   xmlns="http://www.w3.org/2000/svg"
   xmlns:xlink="http://www.w3.org/1999/xlink"
   xmlns:sodipodi="http://sodipodi.sourceforge.net/DTD/sodipodi-0.dtd"
   xmlns:inkscape="http://www.inkscape.org/namespaces/inkscape"
   width="30px"
   height="30px"
   version="1.1"
   id="svg8"
   inkscape:version="0.92.4 5da689c313, 2019-01-14"
   sodipodi:docname="container.svg">
  <defs
     id="defs2" />
  <sodipodi:namedview
     id="base"
     pagecolor="#ffffff"
     bordercolor="#666666"
     borderopacity="1.0"
     inkscape:pageopacity="0.0"
     inkscape:pageshadow="2"
     inkscape:zoom="13.049334"
     inkscape:cx="18.679046"
     inkscape:cy="12.165829"
     inkscape:document-units="px"
     inkscape:current-layer="layer1"
     showgrid="false"
     inkscape:snap-page="false"
     units="px"
     inkscape:window-width="1884"
     inkscape:window-height="1061"
     inkscape:window-x="0"
     inkscape:window-y="0"
     inkscape:window-maximized="1"
     fit-margin-top="0"
     fit-margin-left="0"
     fit-margin-right="0"
     fit-margin-bottom="0" />
  <metadata
     id="metadata5">
    <rdf:RDF>
      <cc:Work
         rdf:about="">
        <dc:format>image/svg+xml</dc:format>
        <dc:type
           rdf:resource="http://purl.org/dc/dcmitype/StillImage" />
        <dc:title></dc:title>
      </cc:Work>
    </rdf:RDF>
  </metadata>
    <circle
       style="color:#000000;clip-rule:nonzero;display:inline;overflow:visible;visibility:visible;opacity:1;isolation:auto;mix-blend-mode:normal;color-interpolation:sRGB;color-interpolation-filters:linearRGB;solid-color:#000000;solid-opacity:1;vector-effect:none;fill:#00b3cc;fill-opacity:1;fill-rule:evenodd;stroke:#ffffff;stroke-width:1;stroke-linecap:butt;stroke-linejoin:miter;stroke-miterlimit:4;stroke-dasharray:none;stroke-dashoffset:0;stroke-opacity:1;marker:none;color-rendering:auto;image-rendering:auto;shape-rendering:auto;text-rendering:auto;enable-background:accumulate"
       id="path815"
       cx="15"
       cy="15"
       r="14.5" />
<g transform="translate(6.5,7.0)"><path fill-rule="nonzero" fill="#FFFFFF" fill-opacity="1" d="M 14.195312 7.402344 C 14.421875 7.460938 14.652344 7.324219 14.710938 7.097656 C 14.765625 6.871094 14.628906 6.640625 14.402344 6.582031 L 12.601562 6.121094 L 14.386719 5.039062 C 14.585938 4.917969 14.652344 4.660156 14.53125 4.457031 C 14.410156 4.257812 14.148438 4.195312 13.949219 4.316406 L 12.125 5.421875 L 12.5625 3.574219 C 12.613281 3.347656 12.472656 3.117188 12.246094 3.0625 C 12.019531 3.011719 11.792969 3.152344 11.738281 3.378906 L 11.109375 6.035156 L 8.855469 7.402344 L 8.855469 4.574219 L 10.785156 2.679688 C 10.953125 2.515625 10.953125 2.246094 10.792969 2.082031 C 10.628906 1.914062 10.359375 1.914062 10.191406 2.074219 L 8.855469 3.390625 L 8.855469 1.371094 C 8.855469 1.222656 8.773438 1.082031 8.644531 1.007812 C 8.511719 0.929688 8.351562 0.929688 8.222656 1.007812 C 8.089844 1.082031 8.007812 1.222656 8.007812 1.371094 L 8.007812 3.378906 L 6.664062 2.058594 C 6.5 1.894531 6.230469 1.898438 6.066406 2.0625 C 5.902344 2.230469 5.90625 2.5 6.070312 2.660156 L 8.007812 4.566406 L 8.007812 7.472656 L 5.550781 5.945312 L 4.957031 3.304688 C 4.90625 3.078125 4.679688 2.933594 4.449219 2.984375 C 4.222656 3.039062 4.078125 3.265625 4.132812 3.492188 L 4.542969 5.320312 L 2.828125 4.257812 C 2.628906 4.136719 2.371094 4.195312 2.246094 4.394531 C 2.125 4.59375 2.183594 4.855469 2.382812 4.976562 L 4.089844 6.035156 L 2.257812 6.480469 C 2.03125 6.535156 1.890625 6.765625 1.945312 6.992188 C 2 7.21875 2.230469 7.359375 2.457031 7.300781 L 5.097656 6.660156 L 7.558594 8.1875 L 5.09375 9.679688 L 2.472656 9.011719 C 2.246094 8.953125 2.015625 9.089844 1.957031 9.316406 C 1.898438 9.542969 2.035156 9.773438 2.261719 9.832031 L 4.078125 10.296875 L 2.355469 11.339844 C 2.15625 11.460938 2.089844 11.722656 2.210938 11.921875 C 2.332031 12.121094 2.59375 12.183594 2.792969 12.0625 L 4.511719 11.023438 L 4.078125 12.859375 C 4.023438 13.085938 4.164062 13.3125 4.390625 13.367188 C 4.617188 13.421875 4.84375 13.28125 4.898438 13.054688 L 5.523438 10.410156 L 8.007812 8.902344 L 8.007812 11.652344 L 6.089844 13.539062 C 5.921875 13.703125 5.921875 13.972656 6.085938 14.136719 C 6.25 14.304688 6.515625 14.308594 6.683594 14.144531 L 8.007812 12.839844 L 8.007812 14.929688 C 8.007812 15.082031 8.089844 15.21875 8.222656 15.296875 C 8.351562 15.371094 8.511719 15.371094 8.644531 15.296875 C 8.773438 15.21875 8.855469 15.082031 8.855469 14.929688 L 8.855469 12.796875 L 10.210938 14.125 C 10.289062 14.203125 10.394531 14.246094 10.507812 14.246094 C 10.507812 14.246094 10.507812 14.246094 10.511719 14.246094 C 10.679688 14.246094 10.835938 14.140625 10.898438 13.984375 C 10.960938 13.824219 10.925781 13.644531 10.804688 13.523438 L 8.855469 11.609375 L 8.855469 8.992188 L 11.121094 10.394531 L 11.710938 13.023438 C 11.761719 13.25 11.988281 13.394531 12.214844 13.339844 C 12.445312 13.289062 12.585938 13.0625 12.535156 12.835938 L 12.128906 11.019531 L 13.902344 12.121094 C 14.101562 12.246094 14.363281 12.183594 14.484375 11.984375 C 14.609375 11.785156 14.546875 11.527344 14.347656 11.402344 L 12.535156 10.277344 L 14.382812 9.828125 C 14.609375 9.773438 14.746094 9.542969 14.691406 9.316406 C 14.636719 9.089844 14.40625 8.953125 14.179688 9.007812 L 11.527344 9.652344 L 9.175781 8.195312 L 11.585938 6.738281 Z M 14.195312 7.402344 "/>
<path fill-rule="nonzero" fill="#FFFFFF" fill-opacity="1" d="M 11.851562 0.6875 C 12.445312 0.683594 13.035156 0.804688 13.582031 1.039062 C 14.652344 1.496094 15.503906 2.347656 15.960938 3.417969 C 16.195312 3.964844 16.316406 4.554688 16.3125 5.148438 L 16.3125 11.140625 C 16.316406 11.734375 16.195312 12.324219 15.960938 12.871094 C 15.503906 13.941406 14.652344 14.796875 13.582031 15.253906 C 13.035156 15.484375 12.445312 15.605469 11.851562 15.605469 L 5.148438 15.605469 C 4.554688 15.605469 3.964844 15.484375 3.417969 15.253906 C 2.347656 14.796875 1.496094 13.941406 1.039062 12.871094 C 0.804688 12.324219 0.683594 11.734375 0.6875 11.140625 L 0.6875 5.148438 C 0.683594 4.554688 0.804688 3.964844 1.039062 3.417969 C 1.496094 2.347656 2.347656 1.496094 3.417969 1.039062 C 3.964844 0.804688 4.554688 0.683594 5.148438 0.6875 L 11.851562 0.6875 M 11.851562 0 L 5.148438 0 C 2.316406 0 0 2.316406 0 5.148438 L 0 11.140625 C 0 13.972656 2.316406 16.289062 5.148438 16.289062 L 11.851562 16.289062 C 14.683594 16.289062 17 13.972656 17 11.140625 L 17 5.148438 C 17 2.316406 14.683594 0 11.851562 0 Z M 11.851562 0 "/>
</g>
</svg>
