<?xml version="1.0" encoding="UTF-8"?>
<svg xmlns="http://www.w3.org/2000/svg" xmlns:xlink="http://www.w3.org/1999/xlink" width="8.492733" height="11" viewBox="0 0 8.492733 11">
<path fill-rule="nonzero" fill="rgb(30%,30%,30%)" fill-opacity="1" d="M 0.605469 5.453125 C 2.035156 6.125 3.648438 5.941406 4.871094 5.117188 L 4.566406 4.65625 C 3.5 5.378906 2.089844 5.542969 0.84375 4.953125 C 0.832031 4.949219 0.824219 4.945312 0.816406 4.941406 L 0.582031 5.4375 C 0.589844 5.441406 0.597656 5.449219 0.605469 5.453125 Z M 0.605469 5.453125 "/>
<path fill-rule="nonzero" fill="rgb(30%,30%,30%)" fill-opacity="1" d="M 1.011719 4.523438 C 1.019531 4.527344 1.027344 4.535156 1.039062 4.539062 C 2.136719 5.058594 3.378906 4.914062 4.316406 4.273438 L 2.476562 1.460938 C 2.449219 1.46875 1.011719 4.523438 1.011719 4.523438 Z M 1.011719 4.523438 "/>
<path fill-rule="nonzero" fill="rgb(30%,30%,30%)" fill-opacity="1" d="M 8.234375 0.00390625 L 5.449219 0.00390625 L 5.449219 0 L 4.929688 0 L 4.929688 0.00390625 L 0.257812 0.00390625 C 0.117188 0.00390625 0 0.121094 0 0.265625 L 0 9.898438 C 0 10.039062 0.117188 10.15625 0.257812 10.15625 L 1.292969 10.15625 L 1.292969 10.765625 C 1.292969 10.894531 1.398438 11 1.527344 11 L 2.164062 11 C 2.292969 11 2.394531 10.894531 2.394531 10.765625 L 2.394531 10.15625 L 6.140625 10.15625 L 6.140625 10.730469 C 6.140625 10.878906 6.261719 11 6.410156 11 L 6.976562 11 C 7.125 11 7.246094 10.878906 7.246094 10.730469 L 7.246094 10.15625 L 8.234375 10.15625 C 8.375 10.15625 8.492188 10.039062 8.492188 9.898438 L 8.492188 0.265625 C 8.492188 0.121094 8.375 0.00390625 8.234375 0.00390625 Z M 3.945312 8.796875 L 1.167969 8.796875 C 0.957031 8.796875 0.785156 8.621094 0.785156 8.410156 C 0.785156 8.199219 0.957031 8.023438 1.167969 8.023438 L 3.945312 8.023438 C 4.15625 8.023438 4.328125 8.199219 4.328125 8.410156 C 4.328125 8.621094 4.15625 8.796875 3.945312 8.796875 Z M 4.929688 7.105469 L 0.519531 7.105469 L 0.519531 0.523438 L 4.929688 0.523438 Z M 6.925781 1.695312 L 7.335938 1.695312 L 7.335938 2.105469 L 6.925781 2.105469 Z M 6.925781 2.421875 L 7.335938 2.421875 L 7.335938 2.832031 L 6.925781 2.832031 Z M 6.925781 3.117188 L 7.335938 3.117188 L 7.335938 3.527344 L 6.925781 3.527344 Z M 6.925781 3.839844 L 7.335938 3.839844 L 7.335938 4.253906 L 6.925781 4.253906 Z M 6 1.695312 L 6.410156 1.695312 L 6.410156 2.105469 L 6 2.105469 Z M 6 2.421875 L 6.410156 2.421875 L 6.410156 2.832031 L 6 2.832031 Z M 6 3.117188 L 6.410156 3.117188 L 6.410156 3.527344 L 6 3.527344 Z M 6 3.839844 L 6.410156 3.839844 L 6.410156 4.253906 L 6 4.253906 Z M 7.128906 5.71875 L 6.257812 5.71875 C 6.046875 5.71875 5.871094 5.546875 5.871094 5.335938 C 5.871094 5.121094 6.046875 4.949219 6.257812 4.949219 L 7.128906 4.949219 C 7.339844 4.949219 7.515625 5.121094 7.515625 5.335938 C 7.515625 5.546875 7.339844 5.71875 7.128906 5.71875 Z M 7.128906 5.71875 "/>
</svg>
