<?xml version="1.0" encoding="UTF-8" standalone="no"?>
<!-- Created with Inkscape (http://www.inkscape.org/) -->

<svg
   xmlns:dc="http://purl.org/dc/elements/1.1/"
   xmlns:cc="http://creativecommons.org/ns#"
   xmlns:rdf="http://www.w3.org/1999/02/22-rdf-syntax-ns#"
   xmlns:svg="http://www.w3.org/2000/svg"
   xmlns="http://www.w3.org/2000/svg"
   xmlns:xlink="http://www.w3.org/1999/xlink"
   xmlns:sodipodi="http://sodipodi.sourceforge.net/DTD/sodipodi-0.dtd"
   xmlns:inkscape="http://www.inkscape.org/namespaces/inkscape"
   width="30px"
   height="30px"
   version="1.1"
   id="svg8"
   inkscape:version="0.92.4 5da689c313, 2019-01-14"
   sodipodi:docname="container.svg">
  <defs
     id="defs2" />
  <sodipodi:namedview
     id="base"
     pagecolor="#ffffff"
     bordercolor="#666666"
     borderopacity="1.0"
     inkscape:pageopacity="0.0"
     inkscape:pageshadow="2"
     inkscape:zoom="13.049334"
     inkscape:cx="18.679046"
     inkscape:cy="12.165829"
     inkscape:document-units="px"
     inkscape:current-layer="layer1"
     showgrid="false"
     inkscape:snap-page="false"
     units="px"
     inkscape:window-width="1884"
     inkscape:window-height="1061"
     inkscape:window-x="0"
     inkscape:window-y="0"
     inkscape:window-maximized="1"
     fit-margin-top="0"
     fit-margin-left="0"
     fit-margin-right="0"
     fit-margin-bottom="0" />
  <metadata
     id="metadata5">
    <rdf:RDF>
      <cc:Work
         rdf:about="">
        <dc:format>image/svg+xml</dc:format>
        <dc:type
           rdf:resource="http://purl.org/dc/dcmitype/StillImage" />
        <dc:title></dc:title>
      </cc:Work>
    </rdf:RDF>
  </metadata>
    <circle
       style="color:#000000;clip-rule:nonzero;display:inline;overflow:visible;visibility:visible;opacity:1;isolation:auto;mix-blend-mode:normal;color-interpolation:sRGB;color-interpolation-filters:linearRGB;solid-color:#000000;solid-opacity:1;vector-effect:none;fill:#ffffff;fill-opacity:1;fill-rule:evenodd;stroke:#00a0c4;stroke-width:1;stroke-linecap:butt;stroke-linejoin:miter;stroke-miterlimit:4;stroke-dasharray:none;stroke-dashoffset:0;stroke-opacity:1;marker:none;color-rendering:auto;image-rendering:auto;shape-rendering:auto;text-rendering:auto;enable-background:accumulate"
       id="path815"
       cx="15"
       cy="15"
       r="14.5" />
<g transform="translate(6.5,7.5)"><path fill-rule="nonzero" fill="rgb(30%,30%,30%)" fill-opacity="1" d="M 16.488281 0 L 0.898438 0 C 1.234375 1.855469 2.085938 3.917969 2.542969 4.222656 L 5.226562 3.417969 C 8.699219 2.332031 14.644531 0.550781 16.488281 0 Z M 16.488281 0 "/>
<path fill-rule="nonzero" fill="rgb(30%,30%,30%)" fill-opacity="1" d="M 0.226562 9.972656 C 0.597656 10.96875 1.109375 12.539062 1.828125 14.625 C 1.5 12.386719 1.546875 4.949219 1.835938 4.515625 C 1.835938 4.515625 0.304688 1.3125 0.257812 0.210938 C 0.207031 -0.890625 -0.277344 7.066406 0.226562 9.972656 Z M 0.226562 9.972656 "/>
<path fill-rule="nonzero" fill="rgb(30%,30%,30%)" fill-opacity="1" d="M 16.097656 2.625 C 16.101562 2.152344 16.429688 1.746094 16.890625 1.648438 L 16.890625 0.292969 L 2.546875 4.585938 C 2.304688 4.585938 2.164062 6.625 2.132812 8.878906 C 2.101562 11.671875 2.234375 14.800781 2.546875 14.800781 L 16.890625 8.878906 C 17.085938 6.917969 16.976562 4.761719 16.890625 3.605469 C 16.429688 3.503906 16.101562 3.097656 16.097656 2.625 Z M 16.097656 2.625 "/>
<path fill-rule="nonzero" fill="rgb(30%,30%,30%)" fill-opacity="1" d="M 14.929688 4.253906 C 14.375 4.253906 13.929688 4.699219 13.929688 5.253906 C 13.929688 5.804688 14.375 6.253906 14.929688 6.253906 C 15.480469 6.253906 15.929688 5.804688 15.929688 5.253906 C 15.929688 4.699219 15.480469 4.25 14.929688 4.253906 Z M 14.929688 4.253906 "/>
<path fill-rule="nonzero" fill="rgb(30%,30%,30%)" fill-opacity="1" d="M 10.859375 3.25 C 10.308594 3.25 9.859375 3.699219 9.859375 4.253906 C 9.859375 4.804688 10.308594 5.253906 10.859375 5.253906 C 11.414062 5.253906 11.859375 4.804688 11.859375 4.253906 C 11.859375 3.699219 11.414062 3.25 10.859375 3.25 Z M 10.859375 3.25 "/>
<path fill-rule="nonzero" fill="rgb(30%,30%,30%)" fill-opacity="1" d="M 11.859375 6.878906 C 11.492188 6.878906 11.191406 7.175781 11.191406 7.546875 C 11.191406 7.914062 11.492188 8.214844 11.859375 8.214844 C 12.226562 8.214844 12.527344 7.914062 12.527344 7.546875 C 12.527344 7.175781 12.230469 6.878906 11.859375 6.878906 Z M 11.859375 6.878906 "/>
<path fill-rule="nonzero" fill="rgb(30%,30%,30%)" fill-opacity="1" d="M 14.777344 7.546875 C 14.226562 7.546875 13.777344 7.992188 13.777344 8.546875 C 13.777344 9.097656 14.226562 9.546875 14.777344 9.546875 C 15.332031 9.546875 15.78125 9.097656 15.78125 8.546875 C 15.777344 7.992188 15.332031 7.546875 14.777344 7.546875 Z M 14.777344 7.546875 "/>
<path fill-rule="nonzero" fill="rgb(30%,30%,30%)" fill-opacity="1" d="M 6.773438 4.960938 C 6.222656 4.960938 5.773438 5.410156 5.773438 5.960938 C 5.773438 6.515625 6.222656 6.960938 6.773438 6.960938 C 7.324219 6.960938 7.773438 6.515625 7.773438 5.960938 C 7.773438 5.410156 7.328125 4.960938 6.773438 4.960938 Z M 6.773438 4.960938 "/>
<path fill-rule="nonzero" fill="rgb(30%,30%,30%)" fill-opacity="1" d="M 9.023438 8.214844 C 8.472656 8.214844 8.023438 8.660156 8.023438 9.214844 C 8.023438 9.765625 8.472656 10.214844 9.027344 10.214844 C 9.578125 10.214844 10.027344 9.765625 10.027344 9.214844 C 10.027344 8.949219 9.921875 8.695312 9.734375 8.503906 C 9.546875 8.316406 9.289062 8.210938 9.023438 8.214844 Z M 9.023438 8.214844 "/>
<path fill-rule="nonzero" fill="rgb(30%,30%,30%)" fill-opacity="1" d="M 5.773438 10.757812 C 5.21875 10.757812 4.773438 11.203125 4.773438 11.757812 C 4.773438 12.308594 5.21875 12.757812 5.773438 12.757812 C 6.324219 12.757812 6.773438 12.308594 6.773438 11.757812 C 6.773438 11.203125 6.324219 10.757812 5.773438 10.757812 Z M 5.773438 10.757812 "/>
<path fill-rule="nonzero" fill="rgb(30%,30%,30%)" fill-opacity="1" d="M 4.773438 7.503906 C 4.382812 7.503906 4.0625 7.820312 4.0625 8.214844 C 4.0625 8.605469 4.378906 8.921875 4.773438 8.921875 C 5.164062 8.921875 5.480469 8.605469 5.480469 8.214844 C 5.480469 7.820312 5.164062 7.503906 4.773438 7.503906 Z M 4.773438 7.503906 "/>
</g>
</svg>
