<?xml version="1.0" encoding="UTF-8" standalone="no"?>
<!-- Created with Inkscape (http://www.inkscape.org/) -->

<svg
   xmlns:dc="http://purl.org/dc/elements/1.1/"
   xmlns:cc="http://creativecommons.org/ns#"
   xmlns:rdf="http://www.w3.org/1999/02/22-rdf-syntax-ns#"
   xmlns:svg="http://www.w3.org/2000/svg"
   xmlns="http://www.w3.org/2000/svg"
   xmlns:xlink="http://www.w3.org/1999/xlink"
   xmlns:sodipodi="http://sodipodi.sourceforge.net/DTD/sodipodi-0.dtd"
   xmlns:inkscape="http://www.inkscape.org/namespaces/inkscape"
   width="30px"
   height="30px"
   version="1.1"
   id="svg8"
   inkscape:version="0.92.4 5da689c313, 2019-01-14"
   sodipodi:docname="container.svg">
  <defs
     id="defs2" />
  <sodipodi:namedview
     id="base"
     pagecolor="#ffffff"
     bordercolor="#666666"
     borderopacity="1.0"
     inkscape:pageopacity="0.0"
     inkscape:pageshadow="2"
     inkscape:zoom="13.049334"
     inkscape:cx="18.679046"
     inkscape:cy="12.165829"
     inkscape:document-units="px"
     inkscape:current-layer="layer1"
     showgrid="false"
     inkscape:snap-page="false"
     units="px"
     inkscape:window-width="1884"
     inkscape:window-height="1061"
     inkscape:window-x="0"
     inkscape:window-y="0"
     inkscape:window-maximized="1"
     fit-margin-top="0"
     fit-margin-left="0"
     fit-margin-right="0"
     fit-margin-bottom="0" />
  <metadata
     id="metadata5">
    <rdf:RDF>
      <cc:Work
         rdf:about="">
        <dc:format>image/svg+xml</dc:format>
        <dc:type
           rdf:resource="http://purl.org/dc/dcmitype/StillImage" />
        <dc:title></dc:title>
      </cc:Work>
    </rdf:RDF>
  </metadata>
    <circle
       style="color:#000000;clip-rule:nonzero;display:inline;overflow:visible;visibility:visible;opacity:1;isolation:auto;mix-blend-mode:normal;color-interpolation:sRGB;color-interpolation-filters:linearRGB;solid-color:#000000;solid-opacity:1;vector-effect:none;fill:#ffffff;fill-opacity:1;fill-rule:evenodd;stroke:#00a0c4;stroke-width:1;stroke-linecap:butt;stroke-linejoin:miter;stroke-miterlimit:4;stroke-dasharray:none;stroke-dashoffset:0;stroke-opacity:1;marker:none;color-rendering:auto;image-rendering:auto;shape-rendering:auto;text-rendering:auto;enable-background:accumulate"
       id="path815"
       cx="15"
       cy="15"
       r="14.5" />
<g transform="translate(11.0,6.5)"><path fill-rule="nonzero" fill="rgb(30%,30%,30%)" fill-opacity="1" d="M 2.9375 16.851562 C 3.34375 16.863281 3.585938 17 3.335938 17 L 0.214844 17 C -0.0351562 17 0.144531 16.863281 0.546875 16.851562 C 0.953125 16.835938 1.4375 16.675781 1.4375 15.664062 C 1.4375 14.652344 1.410156 14.320312 1.410156 13.640625 C 1.410156 12.960938 1.039062 13.019531 0.5625 12.527344 C 0.0859375 12.035156 -0.0859375 11.484375 0.0429688 10.5 C 0.125 9.855469 0.21875 9.332031 0.269531 9.042969 C 0.296875 8.90625 0.414062 8.808594 0.554688 8.808594 L 2.996094 8.808594 C 3.132812 8.808594 3.253906 8.90625 3.277344 9.042969 C 3.332031 9.328125 3.421875 9.855469 3.507812 10.5 C 3.640625 11.484375 3.464844 12.035156 2.988281 12.527344 C 2.511719 13.019531 2.140625 12.960938 2.140625 13.640625 C 2.140625 14.320312 2.113281 14.652344 2.113281 15.664062 C 2.113281 16.675781 2.53125 16.835938 2.9375 16.851562 Z M 7.710938 16.523438 C 7.707031 16.777344 7.503906 16.984375 7.25 16.984375 L 4.539062 16.984375 C 4.285156 16.984375 4.082031 16.777344 4.078125 16.523438 L 4.078125 6.289062 C 4.078125 6.035156 4.214844 5.671875 4.382812 5.480469 L 5.113281 4.636719 C 5.21875 4.519531 5.277344 4.367188 5.277344 4.207031 L 5.277344 1.042969 C 5.277344 1.019531 5.257812 1.003906 5.234375 1.003906 C 5.210938 1.003906 5.191406 0.984375 5.191406 0.960938 L 5.191406 0.285156 C 5.191406 0.128906 5.320312 0 5.476562 0 L 6.308594 0 C 6.46875 0 6.597656 0.128906 6.597656 0.285156 L 6.597656 0.960938 C 6.597656 0.984375 6.578125 1.003906 6.554688 1.003906 C 6.53125 1.003906 6.511719 1.019531 6.511719 1.042969 L 6.511719 4.207031 C 6.511719 4.367188 6.570312 4.519531 6.671875 4.636719 L 7.40625 5.480469 C 7.570312 5.671875 7.710938 6.035156 7.710938 6.289062 Z M 7.710938 16.523438 "/>
</g>
</svg>
