<?xml version="1.0" encoding="UTF-8"?>
<svg xmlns="http://www.w3.org/2000/svg" xmlns:xlink="http://www.w3.org/1999/xlink" width="8.492733" height="11" viewBox="0 0 8.492733 11">
<path fill-rule="nonzero" fill="rgb(30%,30%,30%)" fill-opacity="1" d="M 8.234375 0.00390625 L 5.449219 0.00390625 L 5.449219 0 L 4.929688 0 L 4.929688 0.00390625 L 0.257812 0.00390625 C 0.117188 0.00390625 0 0.121094 0 0.265625 L 0 9.898438 C 0 10.039062 0.117188 10.15625 0.257812 10.15625 L 1.292969 10.15625 L 1.292969 10.765625 C 1.292969 10.894531 1.398438 11 1.527344 11 L 2.164062 11 C 2.292969 11 2.394531 10.894531 2.394531 10.765625 L 2.394531 10.15625 L 6.140625 10.15625 L 6.140625 10.730469 C 6.140625 10.878906 6.261719 11 6.410156 11 L 6.976562 11 C 7.125 11 7.246094 10.878906 7.246094 10.730469 L 7.246094 10.15625 L 8.234375 10.15625 C 8.375 10.15625 8.492188 10.039062 8.492188 9.898438 L 8.492188 0.265625 C 8.492188 0.121094 8.375 0.00390625 8.234375 0.00390625 Z M 3.945312 8.796875 L 1.167969 8.796875 C 0.957031 8.796875 0.785156 8.621094 0.785156 8.410156 C 0.785156 8.199219 0.957031 8.023438 1.167969 8.023438 L 3.945312 8.023438 C 4.15625 8.023438 4.328125 8.199219 4.328125 8.410156 C 4.328125 8.621094 4.15625 8.796875 3.945312 8.796875 Z M 4.929688 7.105469 L 0.519531 7.105469 L 0.519531 0.523438 L 4.929688 0.523438 Z M 6.925781 1.695312 L 7.335938 1.695312 L 7.335938 2.105469 L 6.925781 2.105469 Z M 6.925781 2.421875 L 7.335938 2.421875 L 7.335938 2.832031 L 6.925781 2.832031 Z M 6.925781 3.117188 L 7.335938 3.117188 L 7.335938 3.527344 L 6.925781 3.527344 Z M 6.925781 3.839844 L 7.335938 3.839844 L 7.335938 4.253906 L 6.925781 4.253906 Z M 6 1.695312 L 6.410156 1.695312 L 6.410156 2.105469 L 6 2.105469 Z M 6 2.421875 L 6.410156 2.421875 L 6.410156 2.832031 L 6 2.832031 Z M 6 3.117188 L 6.410156 3.117188 L 6.410156 3.527344 L 6 3.527344 Z M 6 3.839844 L 6.410156 3.839844 L 6.410156 4.253906 L 6 4.253906 Z M 7.128906 5.71875 L 6.257812 5.71875 C 6.046875 5.71875 5.871094 5.546875 5.871094 5.335938 C 5.871094 5.121094 6.046875 4.949219 6.257812 4.949219 L 7.128906 4.949219 C 7.339844 4.949219 7.515625 5.121094 7.515625 5.335938 C 7.515625 5.546875 7.339844 5.71875 7.128906 5.71875 Z M 7.128906 5.71875 "/>
<path fill-rule="nonzero" fill="rgb(30%,30%,30%)" fill-opacity="1" d="M 2.261719 1.304688 C 2.179688 1.1875 3.53125 1.613281 4.453125 2.632812 C 4.953125 3.179688 4.699219 3.851562 4.699219 3.851562 C 4.699219 3.851562 4.703125 3.933594 4.269531 4.230469 C 3.832031 4.527344 2.882812 5.03125 2.882812 5.03125 C 2.882812 5.03125 2.527344 5.265625 2.304688 4.898438 C 2.050781 4.480469 2.023438 4.195312 2.460938 3.304688 C 2.585938 3.050781 2.542969 2.226562 2.460938 2.015625 C 2.148438 1.195312 2.261719 1.304688 2.261719 1.304688 Z M 2.261719 1.304688 "/>
<path fill-rule="nonzero" fill="rgb(30%,30%,30%)" fill-opacity="1" d="M 4.617188 4.507812 C 4.617188 4.507812 4.59375 5.101562 4.476562 5.210938 C 4.261719 5.421875 3.386719 5.875 3.3125 5.847656 C 3.238281 5.816406 2.691406 5.414062 2.742188 5.269531 C 2.792969 5.121094 3.59375 4.730469 3.859375 4.613281 C 4.121094 4.492188 4.476562 4.34375 4.515625 4.359375 C 4.644531 4.410156 4.617188 4.507812 4.617188 4.507812 Z M 4.617188 4.507812 "/>
<path fill-rule="nonzero" fill="rgb(30%,30%,30%)" fill-opacity="1" d="M 4.402344 5.429688 C 4.4375 5.421875 4.472656 5.441406 4.476562 5.476562 C 4.484375 5.558594 4.480469 5.710938 4.375 5.90625 C 4.324219 6 3.753906 6.289062 3.703125 6.265625 C 3.558594 6.1875 3.410156 6.011719 3.398438 5.972656 C 3.375 5.917969 3.859375 5.648438 4.054688 5.558594 C 4.1875 5.496094 4.324219 5.453125 4.402344 5.429688 Z M 4.402344 5.429688 "/>
<path fill-rule="nonzero" fill="rgb(30%,30%,30%)" fill-opacity="1" d="M 4.289062 6.089844 C 4.367188 6.0625 4.394531 6.066406 4.390625 6.167969 C 4.378906 6.304688 4.328125 6.550781 4.300781 6.574219 C 4.222656 6.644531 4.15625 6.695312 4.019531 6.589844 C 3.894531 6.5 3.832031 6.46875 3.792969 6.425781 C 3.769531 6.398438 3.785156 6.34375 3.816406 6.320312 C 3.867188 6.277344 3.953125 6.230469 4.03125 6.191406 C 4.101562 6.152344 4.214844 6.117188 4.289062 6.089844 Z M 4.289062 6.089844 "/>
<path fill-rule="nonzero" fill="rgb(30%,30%,30%)" fill-opacity="1" d="M 2.046875 1.480469 C 2.214844 1.460938 2.3125 1.820312 2.066406 1.875 C 1.425781 2.019531 0.835938 2.457031 0.945312 2.773438 C 1.175781 3.46875 2.042969 3.367188 2.136719 3.480469 C 2.257812 3.625 2.066406 4.234375 1.917969 4.21875 C 1.777344 4.207031 0.535156 3.296875 0.699219 2.492188 C 0.8125 1.945312 1.613281 1.535156 2.046875 1.480469 Z M 2.046875 1.480469 "/>
</svg>
