<?xml version="1.0" encoding="UTF-8" standalone="no"?>
<!-- Created with Inkscape (http://www.inkscape.org/) -->

<svg
   xmlns:dc="http://purl.org/dc/elements/1.1/"
   xmlns:cc="http://creativecommons.org/ns#"
   xmlns:rdf="http://www.w3.org/1999/02/22-rdf-syntax-ns#"
   xmlns:svg="http://www.w3.org/2000/svg"
   xmlns="http://www.w3.org/2000/svg"
   xmlns:xlink="http://www.w3.org/1999/xlink"
   xmlns:sodipodi="http://sodipodi.sourceforge.net/DTD/sodipodi-0.dtd"
   xmlns:inkscape="http://www.inkscape.org/namespaces/inkscape"
   width="30px"
   height="30px"
   version="1.1"
   id="svg8"
   inkscape:version="0.92.4 5da689c313, 2019-01-14"
   sodipodi:docname="container.svg">
  <defs
     id="defs2" />
  <sodipodi:namedview
     id="base"
     pagecolor="#ffffff"
     bordercolor="#666666"
     borderopacity="1.0"
     inkscape:pageopacity="0.0"
     inkscape:pageshadow="2"
     inkscape:zoom="13.049334"
     inkscape:cx="18.679046"
     inkscape:cy="12.165829"
     inkscape:document-units="px"
     inkscape:current-layer="layer1"
     showgrid="false"
     inkscape:snap-page="false"
     units="px"
     inkscape:window-width="1884"
     inkscape:window-height="1061"
     inkscape:window-x="0"
     inkscape:window-y="0"
     inkscape:window-maximized="1"
     fit-margin-top="0"
     fit-margin-left="0"
     fit-margin-right="0"
     fit-margin-bottom="0" />
  <metadata
     id="metadata5">
    <rdf:RDF>
      <cc:Work
         rdf:about="">
        <dc:format>image/svg+xml</dc:format>
        <dc:type
           rdf:resource="http://purl.org/dc/dcmitype/StillImage" />
        <dc:title></dc:title>
      </cc:Work>
    </rdf:RDF>
  </metadata>
    <circle
       style="color:#000000;clip-rule:nonzero;display:inline;overflow:visible;visibility:visible;opacity:1;isolation:auto;mix-blend-mode:normal;color-interpolation:sRGB;color-interpolation-filters:linearRGB;solid-color:#000000;solid-opacity:1;vector-effect:none;fill:#00b3cc;fill-opacity:1;fill-rule:evenodd;stroke:#ffffff;stroke-width:1;stroke-linecap:butt;stroke-linejoin:miter;stroke-miterlimit:4;stroke-dasharray:none;stroke-dashoffset:0;stroke-opacity:1;marker:none;color-rendering:auto;image-rendering:auto;shape-rendering:auto;text-rendering:auto;enable-background:accumulate"
       id="path815"
       cx="15"
       cy="15"
       r="14.5" />
<g transform="translate(6.5,6.5)"><path fill-rule="nonzero" fill="#FFFFFF" fill-opacity="1" d="M 10.746094 6.246094 C 8.84375 4.339844 6.285156 3.796875 5.046875 5.03125 C 3.808594 6.273438 4.351562 8.828125 6.257812 10.734375 C 8.164062 12.640625 10.71875 13.183594 11.957031 11.945312 C 13.195312 10.707031 12.652344 8.148438 10.746094 6.246094 Z M 10.746094 6.246094 "/>
<path fill-rule="nonzero" fill="#FFFFFF" fill-opacity="1" d="M 14.574219 13.507812 L 12.34375 12.378906 L 13.554688 14.507812 C 13.621094 14.625 13.589844 14.773438 13.484375 14.855469 C 13.378906 14.933594 13.226562 14.925781 13.132812 14.832031 C 13.117188 14.8125 13.101562 14.792969 13.089844 14.773438 L 12.085938 13.007812 L 12.121094 17 C 12.355469 16.925781 12.578125 16.914062 12.777344 16.902344 C 13.109375 16.886719 13.328125 16.875 13.585938 16.613281 C 13.847656 16.351562 13.859375 16.132812 13.875 15.804688 C 13.898438 15.421875 13.921875 14.945312 14.398438 14.46875 C 14.878906 13.988281 15.355469 13.964844 15.734375 13.945312 C 16.066406 13.925781 16.285156 13.917969 16.546875 13.65625 C 16.804688 13.394531 16.816406 13.175781 16.832031 12.847656 C 16.84375 12.648438 16.855469 12.425781 16.929688 12.1875 L 13.082031 12.15625 L 14.8125 13.03125 C 14.945312 13.097656 15 13.257812 14.933594 13.390625 C 14.867188 13.523438 14.703125 13.574219 14.574219 13.507812 Z M 14.574219 13.507812 "/>
<path fill-rule="nonzero" fill="#FFFFFF" fill-opacity="1" d="M 3.800781 2.179688 C 3.9375 2.121094 4.097656 2.175781 4.160156 2.3125 L 4.84375 3.757812 L 4.8125 0 C 4.574219 0.078125 4.351562 0.0898438 4.15625 0.0976562 C 3.824219 0.117188 3.605469 0.128906 3.347656 0.386719 C 3.085938 0.648438 3.074219 0.867188 3.058594 1.199219 C 3.039062 1.578125 3.011719 2.054688 2.535156 2.53125 C 2.054688 3.011719 1.582031 3.035156 1.199219 3.054688 C 0.867188 3.074219 0.648438 3.085938 0.386719 3.34375 C 0.128906 3.609375 0.117188 3.824219 0.0976562 4.15625 C 0.0898438 4.355469 0.078125 4.574219 0 4.8125 L 3.929688 4.847656 L 2.417969 4.03125 C 2.394531 4.019531 2.375 4.003906 2.355469 3.988281 C 2.261719 3.894531 2.25 3.742188 2.328125 3.636719 C 2.410156 3.53125 2.554688 3.496094 2.671875 3.5625 L 4.667969 4.636719 L 3.675781 2.539062 C 3.613281 2.40625 3.667969 2.246094 3.800781 2.179688 Z M 3.800781 2.179688 "/>
</g>
</svg>
