<?xml version="1.0" encoding="UTF-8"?>
<svg xmlns="http://www.w3.org/2000/svg" xmlns:xlink="http://www.w3.org/1999/xlink" width="11" height="9.180632" viewBox="0 0 11 9.180632">
<path fill-rule="nonzero" fill="rgb(30%,30%,30%)" fill-opacity="1" d="M 9.753906 7.289062 L 3.128906 7.289062 C 2.847656 7.289062 2.617188 7.058594 2.617188 6.777344 C 2.617188 6.496094 2.847656 6.265625 3.128906 6.265625 L 9.6875 6.265625 C 9.789062 6.265625 9.875 6.199219 9.898438 6.101562 L 10.992188 1.726562 C 11.007812 1.664062 10.996094 1.59375 10.953125 1.542969 C 10.914062 1.488281 10.847656 1.457031 10.78125 1.457031 L 2.203125 1.457031 L 1.882812 0.164062 C 1.859375 0.0664062 1.769531 0 1.671875 0 L 0.21875 0 C 0.0976562 0 0 0.0976562 0 0.21875 C 0 0.335938 0.0976562 0.433594 0.21875 0.433594 L 1.503906 0.433594 L 1.824219 1.726562 L 2.863281 5.882812 C 2.714844 5.925781 2.574219 5.996094 2.460938 6.109375 C 2.28125 6.285156 2.183594 6.527344 2.183594 6.777344 C 2.183594 7.078125 2.332031 7.332031 2.550781 7.507812 C 2.519531 7.527344 2.484375 7.539062 2.457031 7.566406 C 2.1875 7.835938 2.109375 8.242188 2.253906 8.597656 C 2.402344 8.949219 2.746094 9.179688 3.128906 9.179688 C 3.652344 9.179688 4.074219 8.757812 4.074219 8.234375 C 4.074219 8.042969 4.003906 7.875 3.902344 7.722656 L 8.980469 7.722656 C 8.878906 7.878906 8.808594 8.046875 8.808594 8.234375 C 8.808594 8.757812 9.230469 9.179688 9.753906 9.179688 L 9.757812 9.179688 C 10.277344 9.179688 10.703125 8.757812 10.703125 8.234375 C 10.699219 7.710938 10.277344 7.289062 9.753906 7.289062 Z M 9.753906 7.289062 "/>
</svg>
