<?xml version="1.0" encoding="UTF-8"?>
<svg xmlns="http://www.w3.org/2000/svg" xmlns:xlink="http://www.w3.org/1999/xlink" width="11" height="8.763384" viewBox="0 0 11 8.763384">
<path fill-rule="nonzero" fill="rgb(30%,30%,30%)" fill-opacity="1" d="M 9.554688 0 L 1.445312 0 L 0.00390625 1.703125 C 0 1.738281 0 1.773438 0 1.808594 C 0 2.378906 0.472656 2.839844 1.058594 2.839844 C 1.644531 2.839844 2.144531 2.378906 2.144531 1.808594 C 2.144531 2.378906 2.644531 2.839844 3.226562 2.839844 C 3.8125 2.839844 4.335938 2.378906 4.335938 1.808594 C 4.335938 2.378906 4.863281 2.839844 5.449219 2.839844 C 6.03125 2.839844 6.558594 2.378906 6.558594 1.808594 C 6.558594 2.378906 7.085938 2.839844 7.667969 2.839844 C 8.253906 2.839844 8.804688 2.378906 8.804688 1.808594 C 8.804688 2.378906 9.355469 2.839844 9.941406 2.839844 C 10.527344 2.839844 11 2.273438 11 1.703125 C 11 1.6875 11 1.722656 11 1.703125 Z M 9.554688 0 "/>
<path fill-rule="nonzero" fill="rgb(30%,30%,30%)" fill-opacity="1" d="M 6.230469 5.175781 L 4.636719 5.175781 L 4.636719 4.988281 C 4.636719 4.546875 4.992188 4.191406 5.433594 4.191406 C 5.871094 4.191406 6.230469 4.546875 6.230469 4.988281 Z M 7.519531 8.703125 L 7.253906 5.210938 C 7.253906 5.191406 7.234375 5.175781 7.214844 5.175781 L 6.53125 5.175781 L 6.53125 4.988281 C 6.53125 4.378906 6.039062 3.886719 5.433594 3.886719 C 4.824219 3.886719 4.332031 4.378906 4.332031 4.988281 L 4.332031 5.175781 L 3.648438 5.175781 C 3.628906 5.175781 3.613281 5.191406 3.609375 5.210938 L 3.34375 8.703125 C 3.34375 8.714844 3.347656 8.722656 3.355469 8.730469 C 3.363281 8.738281 3.371094 8.746094 3.382812 8.746094 L 7.480469 8.746094 C 7.492188 8.746094 7.503906 8.738281 7.507812 8.730469 C 7.515625 8.722656 7.519531 8.714844 7.519531 8.703125 Z M 7.519531 8.703125 "/>
<path fill-rule="nonzero" fill="rgb(30%,30%,30%)" fill-opacity="1" d="M 0.726562 3.296875 L 1.4375 3.296875 L 1.4375 8.761719 L 0.726562 8.761719 Z M 0.726562 3.296875 "/>
<path fill-rule="nonzero" fill="rgb(30%,30%,30%)" fill-opacity="1" d="M 9.535156 3.296875 L 10.25 3.296875 L 10.25 8.761719 L 9.535156 8.761719 Z M 9.535156 3.296875 "/>
</svg>
