<?xml version="1.0" encoding="UTF-8"?>
<svg xmlns="http://www.w3.org/2000/svg" xmlns:xlink="http://www.w3.org/1999/xlink" width="8.492733" height="11" viewBox="0 0 8.492733 11">
<path fill-rule="nonzero" fill="rgb(30%,30%,30%)" fill-opacity="1" d="M 8.234375 0.00390625 L 5.449219 0.00390625 L 5.449219 0 L 4.929688 0 L 4.929688 0.00390625 L 0.257812 0.00390625 C 0.117188 0.00390625 0 0.121094 0 0.265625 L 0 9.898438 C 0 10.039062 0.117188 10.15625 0.257812 10.15625 L 1.292969 10.15625 L 1.292969 10.765625 C 1.292969 10.894531 1.398438 11 1.527344 11 L 2.164062 11 C 2.292969 11 2.394531 10.894531 2.394531 10.765625 L 2.394531 10.15625 L 6.140625 10.15625 L 6.140625 10.730469 C 6.140625 10.878906 6.261719 11 6.410156 11 L 6.976562 11 C 7.125 11 7.246094 10.878906 7.246094 10.730469 L 7.246094 10.15625 L 8.234375 10.15625 C 8.375 10.15625 8.492188 10.039062 8.492188 9.898438 L 8.492188 0.265625 C 8.492188 0.121094 8.375 0.00390625 8.234375 0.00390625 Z M 3.945312 8.796875 L 1.167969 8.796875 C 0.957031 8.796875 0.785156 8.621094 0.785156 8.410156 C 0.785156 8.199219 0.957031 8.023438 1.167969 8.023438 L 3.945312 8.023438 C 4.15625 8.023438 4.328125 8.199219 4.328125 8.410156 C 4.328125 8.621094 4.15625 8.796875 3.945312 8.796875 Z M 4.929688 7.105469 L 0.519531 7.105469 L 0.519531 0.523438 L 4.929688 0.523438 Z M 6.925781 1.695312 L 7.335938 1.695312 L 7.335938 2.105469 L 6.925781 2.105469 Z M 6.925781 2.421875 L 7.335938 2.421875 L 7.335938 2.832031 L 6.925781 2.832031 Z M 6.925781 3.117188 L 7.335938 3.117188 L 7.335938 3.527344 L 6.925781 3.527344 Z M 6.925781 3.839844 L 7.335938 3.839844 L 7.335938 4.253906 L 6.925781 4.253906 Z M 6 1.695312 L 6.410156 1.695312 L 6.410156 2.105469 L 6 2.105469 Z M 6 2.421875 L 6.410156 2.421875 L 6.410156 2.832031 L 6 2.832031 Z M 6 3.117188 L 6.410156 3.117188 L 6.410156 3.527344 L 6 3.527344 Z M 6 3.839844 L 6.410156 3.839844 L 6.410156 4.253906 L 6 4.253906 Z M 7.128906 5.71875 L 6.257812 5.71875 C 6.046875 5.71875 5.871094 5.546875 5.871094 5.335938 C 5.871094 5.121094 6.046875 4.949219 6.257812 4.949219 L 7.128906 4.949219 C 7.339844 4.949219 7.515625 5.121094 7.515625 5.335938 C 7.515625 5.546875 7.339844 5.71875 7.128906 5.71875 Z M 7.128906 5.71875 "/>
<path fill-rule="nonzero" fill="rgb(30%,30%,30%)" fill-opacity="1" d="M 4.601562 3.617188 C 4.621094 3.507812 4.609375 3.394531 4.558594 3.296875 C 4.410156 2.992188 4.101562 3.035156 4.101562 2.996094 C 4.109375 2.699219 4.6875 1.226562 4.6875 1.226562 C 4.414062 1.6875 4.175781 2.140625 4.019531 2.574219 C 4.050781 1.953125 4.132812 1.292969 4.246094 0.613281 C 4.203125 0.667969 3.855469 1.910156 3.855469 1.992188 C 3.855469 2.003906 3.574219 1.175781 3.34375 0.894531 C 3.34375 0.894531 3.679688 1.769531 3.691406 2.191406 C 3.703125 2.613281 3.703125 2.984375 3.703125 2.984375 C 3.703125 2.984375 3.382812 3.0625 3.28125 3.261719 C 3.140625 3.53125 3.242188 3.867188 3.242188 3.867188 L 3.332031 4.757812 L 3.351562 4.863281 L 3.441406 5.6875 L 3.460938 5.792969 C 3.460938 5.792969 3.546875 6.214844 3.671875 6.546875 C 3.726562 6.6875 3.851562 6.78125 3.945312 6.574219 C 4.179688 6.058594 4.273438 5.332031 4.273438 5.332031 L 4.421875 4.523438 C 4.421875 4.523438 4.503906 4.128906 4.535156 3.992188 C 4.542969 3.96875 4.546875 3.945312 4.550781 3.917969 C 4.554688 3.863281 4.582031 3.722656 4.601562 3.617188 Z M 4.601562 3.617188 "/>
<path fill-rule="nonzero" fill="rgb(30%,30%,30%)" fill-opacity="1" d="M 1.921875 6.160156 C 1.789062 6.160156 1.628906 6.316406 1.335938 6.300781 C 1.097656 6.289062 0.625 5.835938 0.625 4.929688 C 0.625 4.375 1.25 3.773438 1.855469 4.265625 C 1.824219 4.132812 1.746094 3.910156 1.496094 3.8125 C 1.460938 3.800781 1.445312 3.761719 1.460938 3.730469 C 1.472656 3.699219 1.507812 3.683594 1.542969 3.695312 C 1.648438 3.738281 1.824219 3.898438 1.886719 3.96875 C 1.875 3.867188 1.996094 3.628906 2.058594 3.558594 C 2.289062 3.308594 2.578125 3.320312 2.578125 3.320312 C 2.578125 3.320312 2.644531 3.578125 2.320312 3.871094 C 2.238281 3.941406 1.996094 4.011719 1.898438 3.976562 C 1.945312 4.066406 1.980469 4.199219 1.992188 4.265625 C 2.265625 4.011719 3.207031 3.902344 3.207031 4.929688 C 3.207031 5.773438 2.761719 6.300781 2.472656 6.300781 C 2.222656 6.300781 2.035156 6.160156 1.921875 6.160156 Z M 1.921875 6.160156 "/>
</svg>
