<?xml version="1.0" encoding="UTF-8" standalone="no"?>
<!-- Created with Inkscape (http://www.inkscape.org/) -->

<svg
   xmlns:dc="http://purl.org/dc/elements/1.1/"
   xmlns:cc="http://creativecommons.org/ns#"
   xmlns:rdf="http://www.w3.org/1999/02/22-rdf-syntax-ns#"
   xmlns:svg="http://www.w3.org/2000/svg"
   xmlns="http://www.w3.org/2000/svg"
   xmlns:xlink="http://www.w3.org/1999/xlink"
   xmlns:sodipodi="http://sodipodi.sourceforge.net/DTD/sodipodi-0.dtd"
   xmlns:inkscape="http://www.inkscape.org/namespaces/inkscape"
   width="30px"
   height="30px"
   version="1.1"
   id="svg8"
   inkscape:version="0.92.4 5da689c313, 2019-01-14"
   sodipodi:docname="container.svg">
  <defs
     id="defs2" />
  <sodipodi:namedview
     id="base"
     pagecolor="#ffffff"
     bordercolor="#666666"
     borderopacity="1.0"
     inkscape:pageopacity="0.0"
     inkscape:pageshadow="2"
     inkscape:zoom="13.049334"
     inkscape:cx="18.679046"
     inkscape:cy="12.165829"
     inkscape:document-units="px"
     inkscape:current-layer="layer1"
     showgrid="false"
     inkscape:snap-page="false"
     units="px"
     inkscape:window-width="1884"
     inkscape:window-height="1061"
     inkscape:window-x="0"
     inkscape:window-y="0"
     inkscape:window-maximized="1"
     fit-margin-top="0"
     fit-margin-left="0"
     fit-margin-right="0"
     fit-margin-bottom="0" />
  <metadata
     id="metadata5">
    <rdf:RDF>
      <cc:Work
         rdf:about="">
        <dc:format>image/svg+xml</dc:format>
        <dc:type
           rdf:resource="http://purl.org/dc/dcmitype/StillImage" />
        <dc:title></dc:title>
      </cc:Work>
    </rdf:RDF>
  </metadata>
    <circle
       style="color:#000000;clip-rule:nonzero;display:inline;overflow:visible;visibility:visible;opacity:1;isolation:auto;mix-blend-mode:normal;color-interpolation:sRGB;color-interpolation-filters:linearRGB;solid-color:#000000;solid-opacity:1;vector-effect:none;fill:#00b3cc;fill-opacity:1;fill-rule:evenodd;stroke:#ffffff;stroke-width:1;stroke-linecap:butt;stroke-linejoin:miter;stroke-miterlimit:4;stroke-dasharray:none;stroke-dashoffset:0;stroke-opacity:1;marker:none;color-rendering:auto;image-rendering:auto;shape-rendering:auto;text-rendering:auto;enable-background:accumulate"
       id="path815"
       cx="15"
       cy="15"
       r="14.5" />
<g transform="translate(7.0,6.5)"><path fill-rule="nonzero" fill="#FFFFFF" fill-opacity="1" d="M 15.683594 8.511719 C 15.46875 7.242188 14.425781 7.410156 14.429688 7.296875 C 14.449219 6.578125 15.839844 3.042969 15.839844 3.042969 C 15.179688 4.152344 14.605469 5.238281 14.230469 6.28125 C 14.304688 4.792969 14.503906 3.207031 14.773438 1.566406 C 14.671875 1.703125 13.84375 4.683594 13.835938 4.882812 C 13.835938 4.910156 13.160156 2.925781 12.605469 2.25 C 12.605469 2.25 13.417969 4.351562 13.445312 5.363281 C 13.472656 6.375 13.472656 7.269531 13.472656 7.269531 C 13.472656 7.269531 12.707031 7.457031 12.460938 7.929688 C 12.117188 8.582031 12.363281 9.386719 12.363281 9.386719 C 12.363281 9.386719 13.640625 9.382812 13.664062 9.523438 C 13.699219 9.722656 12.398438 9.597656 12.398438 9.597656 L 12.582031 11.527344 C 12.582031 11.527344 13.421875 11.605469 13.433594 11.675781 C 13.445312 11.746094 12.632812 11.78125 12.632812 11.78125 L 12.84375 13.765625 C 12.84375 13.765625 13.738281 13.875 13.75 13.917969 C 13.761719 13.960938 12.890625 14.019531 12.890625 14.019531 C 12.890625 14.019531 13.097656 15.03125 13.402344 15.828125 C 13.527344 16.160156 13.832031 16.394531 14.058594 15.890625 C 14.613281 14.65625 14.78125 13.1875 14.78125 13.1875 L 14.113281 12.992188 C 14.101562 12.988281 14.144531 12.890625 14.113281 12.972656 L 14.84375 12.90625 L 15.195312 10.964844 C 15.195312 10.964844 13.988281 10.890625 13.992188 10.765625 C 13.996094 10.597656 15.195312 10.726562 15.21875 10.648438 C 15.351562 10.152344 15.660156 8.851562 15.675781 8.820312 C 15.652344 8.820312 14.203125 8.820312 14.195312 8.609375 C 14.1875 8.421875 15.683594 8.511719 15.683594 8.511719 Z M 15.683594 8.511719 "/>
<path fill-rule="nonzero" fill="#FFFFFF" fill-opacity="1" d="M 4.867188 5.507812 L 1.804688 2.121094 L 0.507812 4.054688 L 6.144531 8.832031 Z M 4.867188 5.507812 "/>
<path fill-rule="nonzero" fill="#FFFFFF" fill-opacity="1" d="M 1.777344 1.714844 L 4.730469 5.003906 L 3.976562 3.011719 L 4.851562 3.238281 L 2.882812 0 L 0.542969 1.066406 L 1.445312 2.230469 Z M 1.777344 1.714844 "/>
<path fill-rule="nonzero" fill="#FFFFFF" fill-opacity="1" d="M 12.222656 14.992188 C 12.304688 14.679688 9.25 10.230469 9.125 9.933594 C 9.003906 9.636719 6.675781 4.171875 6.675781 4.171875 L 4.363281 3.3125 L 6.734375 9.652344 C 6.734375 9.652344 7.070312 10.183594 7.554688 10.941406 C 6.273438 10.597656 4.835938 10.546875 3.710938 10.496094 C 3.320312 10.480469 1.867188 11.804688 2.214844 12.996094 C 2.214844 12.996094 5.753906 16.726562 7.742188 16.980469 C 8.613281 17.085938 9.484375 16.769531 10.078125 16.125 C 10.246094 15.941406 10.382812 15.734375 10.480469 15.507812 C 10.621094 15.71875 10.710938 15.851562 10.730469 15.875 C 10.777344 15.925781 10.917969 15.898438 11.09375 15.824219 L 10.761719 16.945312 L 10.9375 17 L 11.246094 15.953125 L 11.453125 16.644531 L 11.628906 16.589844 L 11.363281 15.699219 C 11.390625 15.679688 11.421875 15.664062 11.449219 15.648438 L 12.074219 16.621094 L 12.226562 16.523438 L 11.609375 15.554688 C 11.632812 15.535156 11.660156 15.519531 11.6875 15.503906 L 12.207031 16.132812 L 12.347656 16.015625 L 11.898438 15.472656 L 12.890625 15.726562 L 12.9375 15.546875 L 11.964844 15.296875 C 12.101562 15.183594 12.203125 15.074219 12.222656 14.992188 Z M 11.246094 15.339844 L 11.242188 15.335938 L 11.238281 15.34375 L 10.941406 15.554688 L 10.628906 15.046875 C 10.722656 14.601562 10.699219 14.125 10.59375 13.652344 C 10.304688 12.339844 9.375 11.589844 8.222656 11.15625 L 7.269531 9.617188 L 8.5625 9.734375 L 11.878906 14.980469 Z M 11.246094 15.339844 "/>
<path fill-rule="nonzero" fill="#FFFFFF" fill-opacity="1" d="M 2.027344 12.171875 C 2.121094 11.757812 2.316406 11.375 2.601562 11.058594 C 2.878906 10.75 3.210938 10.496094 3.542969 10.25 C 3.425781 10.335938 2.636719 10.207031 2.445312 10.234375 C 2.019531 10.296875 1.578125 10.453125 1.316406 10.8125 C 1.050781 10.667969 0.355469 10.285156 0.273438 10.285156 C 0.132812 10.277344 0 11.109375 0 11.21875 C 0.289062 11.078125 0.40625 10.789062 0.699219 10.855469 C 0.734375 10.863281 1.15625 11.105469 1.15625 11.109375 C 0.726562 12.238281 2.007812 13.128906 2.046875 13.152344 C 1.804688 12.988281 1.976562 12.394531 2.027344 12.171875 Z M 2.027344 12.171875 "/>
</g>
</svg>
