<?xml version="1.0" encoding="UTF-8"?>
<svg xmlns="http://www.w3.org/2000/svg" xmlns:xlink="http://www.w3.org/1999/xlink" width="11" height="9.561614" viewBox="0 0 11 9.561614">
<path fill-rule="nonzero" fill="rgb(30%,30%,30%)" fill-opacity="1" d="M 9.058594 3.757812 L 9.058594 6.496094 L 1.890625 6.496094 L 1.890625 3.757812 L 0.957031 3.757812 L 0.957031 9.5625 L 9.9375 9.5625 L 9.9375 3.757812 Z M 11 2.257812 C 11 2.246094 10.996094 2.230469 10.992188 2.21875 C 10.988281 2.210938 10.984375 2.203125 10.976562 2.195312 L 8.726562 0.046875 C 8.703125 0.0195312 8.667969 0 8.628906 0 L 2.195312 0 C 2.15625 0 2.125 0.015625 2.101562 0.046875 L 0.0234375 2.191406 C 0.0078125 2.210938 0 2.234375 0 2.257812 C 0 2.257812 0 2.261719 0 2.261719 C 0 2.875 0.523438 3.375 1.167969 3.375 C 1.632812 3.375 2.035156 3.109375 2.222656 2.734375 C 2.410156 3.109375 2.8125 3.375 3.28125 3.375 C 3.796875 3.375 4.234375 3.050781 4.386719 2.609375 C 4.542969 3.050781 4.980469 3.375 5.496094 3.375 C 6.015625 3.375 6.457031 3.046875 6.609375 2.601562 C 6.757812 3.046875 7.199219 3.375 7.71875 3.375 C 8.1875 3.375 8.589844 3.109375 8.777344 2.734375 C 8.964844 3.109375 9.367188 3.375 9.832031 3.375 C 10.476562 3.375 11 2.875 11 2.261719 C 11 2.261719 11 2.261719 11 2.257812 Z M 4.578125 2.144531 L 4.753906 0.234375 L 5.953125 0.234375 L 6.421875 2.144531 Z M 10.65625 2.144531 L 8.730469 2.144531 L 7.507812 0.234375 L 8.570312 0.234375 Z M 2.253906 0.234375 L 3.3125 0.234375 L 2.273438 2.144531 L 0.351562 2.144531 Z M 2.253906 0.234375 "/>
</svg>
