<?xml version="1.0" encoding="UTF-8"?>
<svg xmlns="http://www.w3.org/2000/svg" xmlns:xlink="http://www.w3.org/1999/xlink" width="4.988577" height="11" viewBox="0 0 4.988577 11">
<path fill-rule="nonzero" fill="rgb(30%,30%,30%)" fill-opacity="1" d="M 1.898438 10.902344 C 2.164062 10.914062 2.320312 11 2.15625 11 L 0.140625 11 C -0.0234375 11 0.09375 10.914062 0.355469 10.902344 C 0.617188 10.894531 0.929688 10.789062 0.929688 10.136719 C 0.929688 9.480469 0.910156 9.265625 0.910156 8.824219 C 0.910156 8.386719 0.671875 8.421875 0.363281 8.105469 C 0.0546875 7.789062 -0.0585938 7.429688 0.0273438 6.796875 C 0.0820312 6.378906 0.140625 6.039062 0.175781 5.851562 C 0.191406 5.765625 0.269531 5.699219 0.359375 5.699219 L 1.9375 5.699219 C 2.027344 5.699219 2.105469 5.765625 2.121094 5.851562 C 2.15625 6.035156 2.214844 6.378906 2.269531 6.796875 C 2.355469 7.429688 2.242188 7.789062 1.933594 8.105469 C 1.625 8.421875 1.386719 8.386719 1.386719 8.824219 C 1.386719 9.265625 1.367188 9.480469 1.367188 10.136719 C 1.367188 10.789062 1.636719 10.894531 1.898438 10.902344 Z M 4.988281 10.691406 C 4.988281 10.855469 4.855469 10.988281 4.691406 10.988281 L 2.9375 10.988281 C 2.773438 10.988281 2.640625 10.855469 2.640625 10.691406 L 2.640625 4.070312 C 2.640625 3.90625 2.726562 3.671875 2.835938 3.546875 L 3.308594 3 C 3.378906 2.925781 3.414062 2.824219 3.414062 2.722656 L 3.414062 0.675781 C 3.414062 0.660156 3.402344 0.648438 3.386719 0.648438 C 3.371094 0.648438 3.359375 0.636719 3.359375 0.621094 L 3.359375 0.1875 C 3.359375 0.0820312 3.441406 0 3.542969 0 L 4.082031 0 C 4.183594 0 4.269531 0.0820312 4.269531 0.1875 L 4.269531 0.621094 C 4.269531 0.636719 4.253906 0.648438 4.242188 0.648438 C 4.226562 0.648438 4.214844 0.660156 4.214844 0.675781 L 4.214844 2.722656 C 4.214844 2.824219 4.25 2.921875 4.316406 3 L 4.792969 3.546875 C 4.898438 3.671875 4.988281 3.90625 4.988281 4.070312 Z M 4.988281 10.691406 "/>
</svg>
