<?xml version="1.0" encoding="UTF-8"?>
<svg xmlns="http://www.w3.org/2000/svg" xmlns:xlink="http://www.w3.org/1999/xlink" width="11" height="6.440207" viewBox="0 0 11 6.440207">
<path fill-rule="nonzero" fill="rgb(30%,30%,30%)" fill-opacity="1" d="M 8.964844 2.460938 C 8.964844 2.226562 9.203125 2.058594 9.363281 2.058594 C 9.523438 2.058594 9.742188 2.203125 9.742188 2.4375 C 9.742188 2.671875 9.5 2.839844 9.339844 2.839844 C 9.179688 2.839844 8.964844 2.695312 8.964844 2.460938 Z M 7.742188 6.191406 C 7.320312 4.234375 7.320312 2.207031 7.742188 0.25 C 7.320312 0.0976562 6.875 0 6.414062 0 C 4.886719 0 3.519531 1.007812 2.609375 1.894531 C 2.417969 2.078125 2.175781 2.078125 1.984375 1.894531 C 1.46875 1.390625 0.804688 0.847656 0.0429688 0.472656 C 0.015625 0.460938 -0.0117188 0.507812 0.00390625 0.550781 C 0.195312 1.058594 0.355469 1.585938 0.480469 2.035156 C 0.695312 2.792969 0.695312 3.648438 0.480469 4.40625 C 0.355469 4.855469 0.195312 5.382812 0.00390625 5.886719 C -0.0117188 5.929688 0.015625 5.980469 0.0429688 5.964844 C 0.808594 5.589844 1.476562 5.042969 1.996094 4.539062 C 2.179688 4.359375 2.414062 4.355469 2.597656 4.539062 C 3.507812 5.425781 4.878906 6.441406 6.414062 6.441406 C 6.875 6.441406 7.320312 6.34375 7.742188 6.191406 Z M 10.746094 3.996094 C 11.085938 3.613281 11.085938 2.824219 10.746094 2.445312 C 10.15625 1.78125 9.1875 0.859375 8.023438 0.359375 C 7.613281 2.246094 7.613281 4.195312 8.023438 6.082031 C 9.1875 5.582031 10.15625 4.65625 10.746094 3.996094 Z M 10.746094 3.996094 "/>
</svg>
