<?xml version="1.0" encoding="UTF-8" standalone="no"?>
<!-- Created with Inkscape (http://www.inkscape.org/) -->

<svg
   xmlns:dc="http://purl.org/dc/elements/1.1/"
   xmlns:cc="http://creativecommons.org/ns#"
   xmlns:rdf="http://www.w3.org/1999/02/22-rdf-syntax-ns#"
   xmlns:svg="http://www.w3.org/2000/svg"
   xmlns="http://www.w3.org/2000/svg"
   xmlns:xlink="http://www.w3.org/1999/xlink"
   xmlns:sodipodi="http://sodipodi.sourceforge.net/DTD/sodipodi-0.dtd"
   xmlns:inkscape="http://www.inkscape.org/namespaces/inkscape"
   width="30px"
   height="30px"
   version="1.1"
   id="svg8"
   inkscape:version="0.92.4 5da689c313, 2019-01-14"
   sodipodi:docname="container.svg">
  <defs
     id="defs2" />
  <sodipodi:namedview
     id="base"
     pagecolor="#ffffff"
     bordercolor="#666666"
     borderopacity="1.0"
     inkscape:pageopacity="0.0"
     inkscape:pageshadow="2"
     inkscape:zoom="13.049334"
     inkscape:cx="18.679046"
     inkscape:cy="12.165829"
     inkscape:document-units="px"
     inkscape:current-layer="layer1"
     showgrid="false"
     inkscape:snap-page="false"
     units="px"
     inkscape:window-width="1884"
     inkscape:window-height="1061"
     inkscape:window-x="0"
     inkscape:window-y="0"
     inkscape:window-maximized="1"
     fit-margin-top="0"
     fit-margin-left="0"
     fit-margin-right="0"
     fit-margin-bottom="0" />
  <metadata
     id="metadata5">
    <rdf:RDF>
      <cc:Work
         rdf:about="">
        <dc:format>image/svg+xml</dc:format>
        <dc:type
           rdf:resource="http://purl.org/dc/dcmitype/StillImage" />
        <dc:title></dc:title>
      </cc:Work>
    </rdf:RDF>
  </metadata>
    <circle
       style="color:#000000;clip-rule:nonzero;display:inline;overflow:visible;visibility:visible;opacity:1;isolation:auto;mix-blend-mode:normal;color-interpolation:sRGB;color-interpolation-filters:linearRGB;solid-color:#000000;solid-opacity:1;vector-effect:none;fill:#00b3cc;fill-opacity:1;fill-rule:evenodd;stroke:#ffffff;stroke-width:1;stroke-linecap:butt;stroke-linejoin:miter;stroke-miterlimit:4;stroke-dasharray:none;stroke-dashoffset:0;stroke-opacity:1;marker:none;color-rendering:auto;image-rendering:auto;shape-rendering:auto;text-rendering:auto;enable-background:accumulate"
       id="path815"
       cx="15"
       cy="15"
       r="14.5" />
<g transform="translate(6.5,8.0)"><path fill-rule="nonzero" fill="#FFFFFF" fill-opacity="1" d="M 14.765625 0 L 2.234375 0 L 0.0078125 2.632812 C 0.00390625 2.6875 0 2.742188 0 2.792969 C 0 3.675781 0.734375 4.390625 1.636719 4.390625 C 2.539062 4.390625 3.3125 3.675781 3.3125 2.792969 C 3.3125 3.675781 4.085938 4.390625 4.988281 4.390625 C 5.890625 4.390625 6.703125 3.675781 6.703125 2.792969 C 6.703125 3.675781 7.515625 4.390625 8.417969 4.390625 C 9.324219 4.390625 10.136719 3.675781 10.136719 2.792969 C 10.136719 3.675781 10.949219 4.390625 11.851562 4.390625 C 12.753906 4.390625 13.609375 3.675781 13.609375 2.792969 C 13.609375 3.675781 14.460938 4.390625 15.363281 4.390625 C 16.265625 4.390625 17 3.515625 17 2.632812 C 17 2.605469 17 2.660156 17 2.632812 Z M 14.765625 0 "/>
<path fill-rule="nonzero" fill="#FFFFFF" fill-opacity="1" d="M 9.625 8 L 7.164062 8 L 7.164062 7.707031 C 7.164062 7.027344 7.714844 6.476562 8.394531 6.476562 C 9.074219 6.476562 9.625 7.027344 9.625 7.707031 Z M 11.621094 13.449219 L 11.210938 8.054688 C 11.207031 8.023438 11.183594 8 11.152344 8 L 10.097656 8 L 10.097656 7.707031 C 10.097656 6.765625 9.335938 6.003906 8.394531 6.003906 C 7.457031 6.003906 6.695312 6.765625 6.695312 7.707031 L 6.695312 8 L 5.636719 8 C 5.605469 8 5.582031 8.023438 5.578125 8.054688 L 5.167969 13.449219 C 5.167969 13.46875 5.171875 13.484375 5.183594 13.496094 C 5.195312 13.507812 5.210938 13.515625 5.226562 13.515625 L 11.5625 13.515625 C 11.578125 13.515625 11.59375 13.507812 11.605469 13.496094 C 11.617188 13.484375 11.621094 13.46875 11.621094 13.449219 Z M 11.621094 13.449219 "/>
<path fill-rule="nonzero" fill="#FFFFFF" fill-opacity="1" d="M 1.121094 5.09375 L 2.222656 5.09375 L 2.222656 13.542969 L 1.121094 13.542969 Z M 1.121094 5.09375 "/>
<path fill-rule="nonzero" fill="#FFFFFF" fill-opacity="1" d="M 14.738281 5.09375 L 15.839844 5.09375 L 15.839844 13.542969 L 14.738281 13.542969 Z M 14.738281 5.09375 "/>
</g>
</svg>
