<?xml version="1.0" encoding="UTF-8" standalone="no"?>
<!-- Created with Inkscape (http://www.inkscape.org/) -->

<svg
   xmlns:dc="http://purl.org/dc/elements/1.1/"
   xmlns:cc="http://creativecommons.org/ns#"
   xmlns:rdf="http://www.w3.org/1999/02/22-rdf-syntax-ns#"
   xmlns:svg="http://www.w3.org/2000/svg"
   xmlns="http://www.w3.org/2000/svg"
   xmlns:xlink="http://www.w3.org/1999/xlink"
   xmlns:sodipodi="http://sodipodi.sourceforge.net/DTD/sodipodi-0.dtd"
   xmlns:inkscape="http://www.inkscape.org/namespaces/inkscape"
   width="30px"
   height="30px"
   version="1.1"
   id="svg8"
   inkscape:version="0.92.4 5da689c313, 2019-01-14"
   sodipodi:docname="container.svg">
  <defs
     id="defs2" />
  <sodipodi:namedview
     id="base"
     pagecolor="#ffffff"
     bordercolor="#666666"
     borderopacity="1.0"
     inkscape:pageopacity="0.0"
     inkscape:pageshadow="2"
     inkscape:zoom="13.049334"
     inkscape:cx="18.679046"
     inkscape:cy="12.165829"
     inkscape:document-units="px"
     inkscape:current-layer="layer1"
     showgrid="false"
     inkscape:snap-page="false"
     units="px"
     inkscape:window-width="1884"
     inkscape:window-height="1061"
     inkscape:window-x="0"
     inkscape:window-y="0"
     inkscape:window-maximized="1"
     fit-margin-top="0"
     fit-margin-left="0"
     fit-margin-right="0"
     fit-margin-bottom="0" />
  <metadata
     id="metadata5">
    <rdf:RDF>
      <cc:Work
         rdf:about="">
        <dc:format>image/svg+xml</dc:format>
        <dc:type
           rdf:resource="http://purl.org/dc/dcmitype/StillImage" />
        <dc:title></dc:title>
      </cc:Work>
    </rdf:RDF>
  </metadata>
    <circle
       style="color:#000000;clip-rule:nonzero;display:inline;overflow:visible;visibility:visible;opacity:1;isolation:auto;mix-blend-mode:normal;color-interpolation:sRGB;color-interpolation-filters:linearRGB;solid-color:#000000;solid-opacity:1;vector-effect:none;fill:#ffffff;fill-opacity:1;fill-rule:evenodd;stroke:#00a0c4;stroke-width:1;stroke-linecap:butt;stroke-linejoin:miter;stroke-miterlimit:4;stroke-dasharray:none;stroke-dashoffset:0;stroke-opacity:1;marker:none;color-rendering:auto;image-rendering:auto;shape-rendering:auto;text-rendering:auto;enable-background:accumulate"
       id="path815"
       cx="15"
       cy="15"
       r="14.5" />
<g transform="translate(8.5,6.5)"><path fill-rule="nonzero" fill="rgb(30%,30%,30%)" fill-opacity="1" d="M 12.722656 0.0078125 L 8.421875 0.0078125 L 8.421875 0 L 7.621094 0 L 7.621094 0.0078125 L 0.402344 0.0078125 C 0.179688 0.0078125 0 0.1875 0 0.40625 L 0 15.296875 C 0 15.515625 0.179688 15.695312 0.402344 15.695312 L 1.996094 15.695312 L 1.996094 16.640625 C 1.996094 16.839844 2.160156 17 2.359375 17 L 3.339844 17 C 3.539062 17 3.703125 16.839844 3.703125 16.640625 L 3.703125 15.695312 L 9.492188 15.695312 L 9.492188 16.585938 C 9.492188 16.816406 9.675781 17 9.90625 17 L 10.78125 17 C 11.011719 17 11.195312 16.816406 11.195312 16.585938 L 11.195312 15.695312 L 12.722656 15.695312 C 12.945312 15.695312 13.125 15.515625 13.125 15.296875 L 13.125 0.40625 C 13.125 0.1875 12.945312 0.0078125 12.722656 0.0078125 Z M 6.09375 13.59375 L 1.808594 13.59375 C 1.480469 13.59375 1.210938 13.324219 1.210938 12.996094 C 1.210938 12.667969 1.480469 12.402344 1.808594 12.402344 L 6.09375 12.402344 C 6.421875 12.402344 6.691406 12.667969 6.691406 12.996094 C 6.691406 13.324219 6.421875 13.59375 6.09375 13.59375 Z M 7.621094 10.980469 L 0.800781 10.980469 L 0.800781 0.808594 L 7.621094 0.808594 Z M 10.703125 2.621094 L 11.335938 2.621094 L 11.335938 3.257812 L 10.703125 3.257812 Z M 10.703125 3.742188 L 11.335938 3.742188 L 11.335938 4.375 L 10.703125 4.375 Z M 10.703125 4.816406 L 11.335938 4.816406 L 11.335938 5.453125 L 10.703125 5.453125 Z M 10.703125 5.9375 L 11.335938 5.9375 L 11.335938 6.570312 L 10.703125 6.570312 Z M 9.269531 2.621094 L 9.90625 2.621094 L 9.90625 3.257812 L 9.269531 3.257812 Z M 9.269531 3.742188 L 9.90625 3.742188 L 9.90625 4.375 L 9.269531 4.375 Z M 9.269531 4.816406 L 9.90625 4.816406 L 9.90625 5.453125 L 9.269531 5.453125 Z M 9.269531 5.9375 L 9.90625 5.9375 L 9.90625 6.570312 L 9.269531 6.570312 Z M 11.019531 8.839844 L 9.671875 8.839844 C 9.34375 8.839844 9.074219 8.570312 9.074219 8.242188 C 9.074219 7.914062 9.34375 7.648438 9.671875 7.648438 L 11.019531 7.648438 C 11.347656 7.648438 11.613281 7.914062 11.613281 8.242188 C 11.613281 8.570312 11.347656 8.839844 11.019531 8.839844 Z M 11.019531 8.839844 "/>
<path fill-rule="nonzero" fill="rgb(30%,30%,30%)" fill-opacity="1" d="M 7.113281 5.59375 C 7.144531 5.421875 7.125 5.246094 7.046875 5.09375 C 6.8125 4.625 6.335938 4.691406 6.335938 4.632812 C 6.351562 4.167969 7.246094 1.894531 7.246094 1.894531 C 6.820312 2.605469 6.453125 3.304688 6.210938 3.976562 C 6.257812 3.019531 6.386719 2 6.558594 0.945312 C 6.496094 1.03125 5.960938 2.949219 5.957031 3.078125 C 5.957031 3.09375 5.523438 1.820312 5.164062 1.382812 C 5.164062 1.382812 5.6875 2.734375 5.703125 3.386719 C 5.722656 4.035156 5.722656 4.613281 5.722656 4.613281 C 5.722656 4.613281 5.230469 4.734375 5.070312 5.039062 C 4.851562 5.457031 5.007812 5.976562 5.007812 5.976562 L 5.152344 7.351562 L 5.183594 7.515625 L 5.316406 8.792969 L 5.347656 8.957031 C 5.347656 8.957031 5.484375 9.609375 5.675781 10.121094 C 5.757812 10.332031 5.957031 10.484375 6.101562 10.160156 C 6.457031 9.363281 6.605469 8.238281 6.605469 8.238281 L 6.832031 6.988281 C 6.832031 6.988281 6.960938 6.382812 7.011719 6.167969 C 7.019531 6.132812 7.027344 6.09375 7.03125 6.058594 C 7.042969 5.96875 7.082031 5.75 7.113281 5.59375 Z M 7.113281 5.59375 "/>
<path fill-rule="nonzero" fill="rgb(30%,30%,30%)" fill-opacity="1" d="M 2.96875 9.523438 C 2.765625 9.523438 2.515625 9.757812 2.066406 9.738281 C 1.699219 9.722656 0.964844 9.019531 0.964844 7.617188 C 0.964844 6.761719 1.933594 5.832031 2.867188 6.589844 C 2.816406 6.386719 2.695312 6.042969 2.3125 5.894531 C 2.261719 5.875 2.234375 5.816406 2.253906 5.765625 C 2.277344 5.714844 2.332031 5.691406 2.382812 5.710938 C 2.546875 5.773438 2.820312 6.023438 2.917969 6.132812 C 2.894531 5.980469 3.085938 5.605469 3.183594 5.496094 C 3.535156 5.113281 3.984375 5.128906 3.984375 5.128906 C 3.984375 5.128906 4.085938 5.53125 3.585938 5.980469 C 3.460938 6.09375 3.082031 6.199219 2.933594 6.148438 C 3.007812 6.285156 3.058594 6.492188 3.082031 6.589844 C 3.5 6.199219 4.953125 6.03125 4.953125 7.617188 C 4.953125 8.921875 4.269531 9.738281 3.820312 9.738281 C 3.433594 9.738281 3.144531 9.523438 2.96875 9.523438 Z M 2.96875 9.523438 "/>
</g>
</svg>
