<?xml version="1.0" encoding="UTF-8" standalone="no"?>
<!-- Created with Inkscape (http://www.inkscape.org/) -->

<svg
   xmlns:dc="http://purl.org/dc/elements/1.1/"
   xmlns:cc="http://creativecommons.org/ns#"
   xmlns:rdf="http://www.w3.org/1999/02/22-rdf-syntax-ns#"
   xmlns:svg="http://www.w3.org/2000/svg"
   xmlns="http://www.w3.org/2000/svg"
   xmlns:xlink="http://www.w3.org/1999/xlink"
   xmlns:sodipodi="http://sodipodi.sourceforge.net/DTD/sodipodi-0.dtd"
   xmlns:inkscape="http://www.inkscape.org/namespaces/inkscape"
   width="30px"
   height="30px"
   version="1.1"
   id="svg8"
   inkscape:version="0.92.4 5da689c313, 2019-01-14"
   sodipodi:docname="container.svg">
  <defs
     id="defs2" />
  <sodipodi:namedview
     id="base"
     pagecolor="#ffffff"
     bordercolor="#666666"
     borderopacity="1.0"
     inkscape:pageopacity="0.0"
     inkscape:pageshadow="2"
     inkscape:zoom="13.049334"
     inkscape:cx="18.679046"
     inkscape:cy="12.165829"
     inkscape:document-units="px"
     inkscape:current-layer="layer1"
     showgrid="false"
     inkscape:snap-page="false"
     units="px"
     inkscape:window-width="1884"
     inkscape:window-height="1061"
     inkscape:window-x="0"
     inkscape:window-y="0"
     inkscape:window-maximized="1"
     fit-margin-top="0"
     fit-margin-left="0"
     fit-margin-right="0"
     fit-margin-bottom="0" />
  <metadata
     id="metadata5">
    <rdf:RDF>
      <cc:Work
         rdf:about="">
        <dc:format>image/svg+xml</dc:format>
        <dc:type
           rdf:resource="http://purl.org/dc/dcmitype/StillImage" />
        <dc:title></dc:title>
      </cc:Work>
    </rdf:RDF>
  </metadata>
    <circle
       style="color:#000000;clip-rule:nonzero;display:inline;overflow:visible;visibility:visible;opacity:1;isolation:auto;mix-blend-mode:normal;color-interpolation:sRGB;color-interpolation-filters:linearRGB;solid-color:#000000;solid-opacity:1;vector-effect:none;fill:#00b3cc;fill-opacity:1;fill-rule:evenodd;stroke:#ffffff;stroke-width:1;stroke-linecap:butt;stroke-linejoin:miter;stroke-miterlimit:4;stroke-dasharray:none;stroke-dashoffset:0;stroke-opacity:1;marker:none;color-rendering:auto;image-rendering:auto;shape-rendering:auto;text-rendering:auto;enable-background:accumulate"
       id="path815"
       cx="15"
       cy="15"
       r="14.5" />
<g transform="translate(6.5,10.0)"><path fill-rule="nonzero" fill="#FFFFFF" fill-opacity="1" d="M 13.851562 3.800781 C 13.851562 3.4375 14.222656 3.183594 14.472656 3.183594 C 14.71875 3.183594 15.058594 3.40625 15.058594 3.769531 C 15.058594 4.132812 14.683594 4.386719 14.4375 4.386719 C 14.1875 4.386719 13.851562 4.164062 13.851562 3.800781 Z M 11.964844 9.570312 C 11.316406 6.542969 11.316406 3.410156 11.964844 0.382812 C 11.3125 0.148438 10.625 0 9.914062 0 C 7.550781 0 5.4375 1.554688 4.03125 2.925781 C 3.738281 3.214844 3.363281 3.210938 3.070312 2.925781 C 2.269531 2.148438 1.242188 1.3125 0.0664062 0.734375 C 0.0234375 0.710938 -0.015625 0.789062 0.0078125 0.851562 C 0.300781 1.636719 0.550781 2.449219 0.746094 3.144531 C 1.070312 4.3125 1.070312 5.640625 0.746094 6.808594 C 0.550781 7.503906 0.300781 8.316406 0.0078125 9.101562 C -0.015625 9.164062 0.0234375 9.242188 0.0664062 9.21875 C 1.25 8.640625 2.28125 7.796875 3.082031 7.015625 C 3.367188 6.734375 3.730469 6.734375 4.015625 7.011719 C 5.421875 8.386719 7.542969 9.953125 9.914062 9.953125 C 10.625 9.953125 11.3125 9.804688 11.964844 9.570312 Z M 16.605469 6.175781 C 17.132812 5.585938 17.132812 4.367188 16.605469 3.777344 C 15.691406 2.753906 14.199219 1.328125 12.402344 0.554688 C 11.765625 3.46875 11.765625 6.484375 12.402344 9.398438 C 14.199219 8.625 15.691406 7.199219 16.605469 6.175781 Z M 16.605469 6.175781 "/>
</g>
</svg>
