<?xml version="1.0" encoding="UTF-8"?>
<svg xmlns="http://www.w3.org/2000/svg" xmlns:xlink="http://www.w3.org/1999/xlink" width="9.662641" height="11" viewBox="0 0 9.662641 11">
<path fill-rule="nonzero" fill="rgb(30%,30%,30%)" fill-opacity="1" d="M 5.757812 7.363281 C 4.761719 8.019531 3.988281 8.589844 3.988281 8.589844 C 3.988281 8.589844 0.988281 5.332031 0.0078125 2.128906 C -0.210938 1.964844 4.183594 -0.152344 4.554688 0.0078125 C 4.699219 0.0703125 5.691406 4.144531 7.242188 5.847656 C 7.785156 6.445312 9.226562 8.839844 9.628906 9.832031 C 9.714844 10.050781 9.636719 10.300781 9.4375 10.425781 L 8.457031 11 C 7.414062 9.972656 6.53125 8.738281 5.757812 7.363281 Z M 4.039062 7.96875 C 4.039062 7.96875 6.757812 6.027344 6.625 5.902344 C 5.589844 4.917969 4.230469 0.664062 4.273438 0.53125 L 0.605469 2.238281 C 1.195312 4.351562 4.039062 7.96875 4.039062 7.96875 Z M 3.546875 1.664062 C 3.25 1.664062 3.003906 1.917969 3.003906 2.230469 C 3.003906 2.546875 3.25 2.800781 3.546875 2.800781 C 3.847656 2.800781 4.089844 2.546875 4.089844 2.230469 C 4.089844 1.917969 3.847656 1.664062 3.546875 1.664062 Z M 3.546875 1.664062 "/>
</svg>
