<?xml version="1.0" encoding="UTF-8"?>
<svg xmlns="http://www.w3.org/2000/svg" xmlns:xlink="http://www.w3.org/1999/xlink" width="10.248875" height="11" viewBox="0 0 10.248875 11">
<path fill-rule="nonzero" fill="rgb(30%,30%,30%)" fill-opacity="1" d="M 10.148438 5.507812 C 10.007812 4.6875 9.332031 4.796875 9.335938 4.722656 C 9.347656 4.257812 10.25 1.96875 10.25 1.96875 C 9.824219 2.6875 9.449219 3.390625 9.207031 4.066406 C 9.257812 3.101562 9.386719 2.074219 9.558594 1.015625 C 9.492188 1.101562 8.957031 3.03125 8.953125 3.160156 C 8.953125 3.175781 8.515625 1.894531 8.15625 1.457031 C 8.15625 1.457031 8.679688 2.816406 8.699219 3.46875 C 8.71875 4.125 8.71875 4.703125 8.71875 4.703125 C 8.71875 4.703125 8.222656 4.828125 8.0625 5.132812 C 7.839844 5.550781 8 6.074219 8 6.074219 C 8 6.074219 8.824219 6.070312 8.839844 6.160156 C 8.863281 6.292969 8.023438 6.210938 8.023438 6.210938 L 8.140625 7.457031 C 8.140625 7.457031 8.683594 7.511719 8.691406 7.554688 C 8.699219 7.601562 8.171875 7.621094 8.171875 7.621094 L 8.308594 8.90625 C 8.308594 8.90625 8.886719 8.976562 8.898438 9.003906 C 8.90625 9.03125 8.339844 9.070312 8.339844 9.070312 C 8.339844 9.070312 8.476562 9.726562 8.671875 10.242188 C 8.753906 10.457031 8.949219 10.609375 9.097656 10.28125 C 9.457031 9.480469 9.5625 8.535156 9.5625 8.535156 L 9.132812 8.40625 C 9.125 8.40625 9.152344 8.339844 9.132812 8.394531 L 9.605469 8.351562 L 9.832031 7.09375 C 9.832031 7.09375 9.050781 7.046875 9.054688 6.964844 C 9.058594 6.859375 9.832031 6.941406 9.847656 6.890625 C 9.933594 6.570312 10.132812 5.726562 10.144531 5.707031 C 10.128906 5.707031 9.191406 5.707031 9.183594 5.570312 C 9.179688 5.449219 10.148438 5.507812 10.148438 5.507812 Z M 10.148438 5.507812 "/>
<path fill-rule="nonzero" fill="rgb(30%,30%,30%)" fill-opacity="1" d="M 3.148438 3.5625 L 1.167969 1.371094 L 0.328125 2.625 L 3.976562 5.714844 Z M 3.148438 3.5625 "/>
<path fill-rule="nonzero" fill="rgb(30%,30%,30%)" fill-opacity="1" d="M 1.148438 1.109375 L 3.058594 3.238281 L 2.570312 1.949219 L 3.136719 2.09375 L 1.867188 0 L 0.351562 0.6875 L 0.933594 1.441406 Z M 1.148438 1.109375 "/>
<path fill-rule="nonzero" fill="rgb(30%,30%,30%)" fill-opacity="1" d="M 7.910156 9.703125 C 7.960938 9.5 5.984375 6.621094 5.90625 6.425781 C 5.824219 6.234375 4.320312 2.699219 4.320312 2.699219 L 2.824219 2.144531 L 4.355469 6.246094 C 4.355469 6.246094 4.574219 6.589844 4.886719 7.078125 C 4.058594 6.855469 3.128906 6.824219 2.402344 6.792969 C 2.148438 6.78125 1.210938 7.636719 1.433594 8.410156 C 1.433594 8.410156 3.722656 10.824219 5.011719 10.984375 C 5.574219 11.054688 6.136719 10.851562 6.519531 10.433594 C 6.628906 10.316406 6.71875 10.179688 6.78125 10.035156 C 6.871094 10.171875 6.929688 10.257812 6.941406 10.273438 C 6.972656 10.304688 7.0625 10.285156 7.179688 10.238281 L 6.964844 10.964844 L 7.078125 11 L 7.277344 10.324219 L 7.410156 10.769531 L 7.523438 10.734375 L 7.351562 10.15625 C 7.371094 10.148438 7.390625 10.136719 7.410156 10.125 L 7.8125 10.757812 L 7.910156 10.691406 L 7.511719 10.0625 C 7.527344 10.054688 7.546875 10.042969 7.5625 10.03125 L 7.898438 10.4375 L 7.992188 10.363281 L 7.699219 10.011719 L 8.339844 10.175781 L 8.371094 10.0625 L 7.742188 9.898438 C 7.832031 9.824219 7.894531 9.753906 7.910156 9.703125 Z M 7.277344 9.925781 L 7.273438 9.925781 L 7.082031 10.066406 L 6.878906 9.738281 C 6.9375 9.449219 6.921875 9.140625 6.855469 8.835938 C 6.667969 7.984375 6.066406 7.5 5.320312 7.21875 L 4.703125 6.222656 L 5.539062 6.296875 L 7.6875 9.695312 Z M 7.277344 9.925781 "/>
<path fill-rule="nonzero" fill="rgb(30%,30%,30%)" fill-opacity="1" d="M 1.3125 7.878906 C 1.371094 7.609375 1.5 7.359375 1.683594 7.15625 C 1.863281 6.953125 2.078125 6.792969 2.292969 6.632812 C 2.214844 6.6875 1.707031 6.605469 1.582031 6.621094 C 1.308594 6.664062 1.023438 6.765625 0.851562 6.996094 C 0.679688 6.902344 0.230469 6.65625 0.175781 6.652344 C 0.0859375 6.652344 0 7.1875 0 7.257812 C 0.1875 7.167969 0.261719 6.980469 0.453125 7.023438 C 0.476562 7.027344 0.75 7.1875 0.746094 7.1875 C 0.46875 7.917969 1.300781 8.496094 1.324219 8.511719 C 1.167969 8.40625 1.28125 8.019531 1.3125 7.878906 Z M 1.3125 7.878906 "/>
</svg>
