<?xml version="1.0" encoding="UTF-8" standalone="no"?>
<!-- Created with Inkscape (http://www.inkscape.org/) -->

<svg
   xmlns:dc="http://purl.org/dc/elements/1.1/"
   xmlns:cc="http://creativecommons.org/ns#"
   xmlns:rdf="http://www.w3.org/1999/02/22-rdf-syntax-ns#"
   xmlns:svg="http://www.w3.org/2000/svg"
   xmlns="http://www.w3.org/2000/svg"
   xmlns:xlink="http://www.w3.org/1999/xlink"
   xmlns:sodipodi="http://sodipodi.sourceforge.net/DTD/sodipodi-0.dtd"
   xmlns:inkscape="http://www.inkscape.org/namespaces/inkscape"
   width="30px"
   height="30px"
   version="1.1"
   id="svg8"
   inkscape:version="0.92.4 5da689c313, 2019-01-14"
   sodipodi:docname="container.svg">
  <defs
     id="defs2" />
  <sodipodi:namedview
     id="base"
     pagecolor="#ffffff"
     bordercolor="#666666"
     borderopacity="1.0"
     inkscape:pageopacity="0.0"
     inkscape:pageshadow="2"
     inkscape:zoom="13.049334"
     inkscape:cx="18.679046"
     inkscape:cy="12.165829"
     inkscape:document-units="px"
     inkscape:current-layer="layer1"
     showgrid="false"
     inkscape:snap-page="false"
     units="px"
     inkscape:window-width="1884"
     inkscape:window-height="1061"
     inkscape:window-x="0"
     inkscape:window-y="0"
     inkscape:window-maximized="1"
     fit-margin-top="0"
     fit-margin-left="0"
     fit-margin-right="0"
     fit-margin-bottom="0" />
  <metadata
     id="metadata5">
    <rdf:RDF>
      <cc:Work
         rdf:about="">
        <dc:format>image/svg+xml</dc:format>
        <dc:type
           rdf:resource="http://purl.org/dc/dcmitype/StillImage" />
        <dc:title></dc:title>
      </cc:Work>
    </rdf:RDF>
  </metadata>
    <circle
       style="color:#000000;clip-rule:nonzero;display:inline;overflow:visible;visibility:visible;opacity:1;isolation:auto;mix-blend-mode:normal;color-interpolation:sRGB;color-interpolation-filters:linearRGB;solid-color:#000000;solid-opacity:1;vector-effect:none;fill:#ffffff;fill-opacity:1;fill-rule:evenodd;stroke:#00a0c4;stroke-width:1;stroke-linecap:butt;stroke-linejoin:miter;stroke-miterlimit:4;stroke-dasharray:none;stroke-dashoffset:0;stroke-opacity:1;marker:none;color-rendering:auto;image-rendering:auto;shape-rendering:auto;text-rendering:auto;enable-background:accumulate"
       id="path815"
       cx="15"
       cy="15"
       r="14.5" />
<g transform="translate(8.5,6.5)"><path fill-rule="nonzero" fill="rgb(30%,30%,30%)" fill-opacity="1" d="M 12.722656 0.0078125 L 8.421875 0.0078125 L 8.421875 0 L 7.621094 0 L 7.621094 0.0078125 L 0.402344 0.0078125 C 0.179688 0.0078125 0 0.1875 0 0.40625 L 0 15.296875 C 0 15.515625 0.179688 15.695312 0.402344 15.695312 L 1.996094 15.695312 L 1.996094 16.640625 C 1.996094 16.839844 2.160156 17 2.359375 17 L 3.339844 17 C 3.539062 17 3.703125 16.839844 3.703125 16.640625 L 3.703125 15.695312 L 9.492188 15.695312 L 9.492188 16.585938 C 9.492188 16.816406 9.675781 17 9.90625 17 L 10.78125 17 C 11.011719 17 11.195312 16.816406 11.195312 16.585938 L 11.195312 15.695312 L 12.722656 15.695312 C 12.945312 15.695312 13.125 15.515625 13.125 15.296875 L 13.125 0.40625 C 13.125 0.1875 12.945312 0.0078125 12.722656 0.0078125 Z M 6.09375 13.59375 L 1.808594 13.59375 C 1.480469 13.59375 1.210938 13.324219 1.210938 12.996094 C 1.210938 12.667969 1.480469 12.402344 1.808594 12.402344 L 6.09375 12.402344 C 6.421875 12.402344 6.691406 12.667969 6.691406 12.996094 C 6.691406 13.324219 6.421875 13.59375 6.09375 13.59375 Z M 7.621094 10.980469 L 0.800781 10.980469 L 0.800781 0.808594 L 7.621094 0.808594 Z M 10.703125 2.621094 L 11.335938 2.621094 L 11.335938 3.257812 L 10.703125 3.257812 Z M 10.703125 3.742188 L 11.335938 3.742188 L 11.335938 4.375 L 10.703125 4.375 Z M 10.703125 4.816406 L 11.335938 4.816406 L 11.335938 5.453125 L 10.703125 5.453125 Z M 10.703125 5.9375 L 11.335938 5.9375 L 11.335938 6.570312 L 10.703125 6.570312 Z M 9.269531 2.621094 L 9.90625 2.621094 L 9.90625 3.257812 L 9.269531 3.257812 Z M 9.269531 3.742188 L 9.90625 3.742188 L 9.90625 4.375 L 9.269531 4.375 Z M 9.269531 4.816406 L 9.90625 4.816406 L 9.90625 5.453125 L 9.269531 5.453125 Z M 9.269531 5.9375 L 9.90625 5.9375 L 9.90625 6.570312 L 9.269531 6.570312 Z M 11.019531 8.839844 L 9.671875 8.839844 C 9.34375 8.839844 9.074219 8.570312 9.074219 8.242188 C 9.074219 7.914062 9.34375 7.648438 9.671875 7.648438 L 11.019531 7.648438 C 11.347656 7.648438 11.613281 7.914062 11.613281 8.242188 C 11.613281 8.570312 11.347656 8.839844 11.019531 8.839844 Z M 11.019531 8.839844 "/>
<path fill-rule="nonzero" fill="rgb(30%,30%,30%)" fill-opacity="1" d="M 3.496094 2.019531 C 3.367188 1.832031 5.457031 2.492188 6.886719 4.066406 C 7.652344 4.914062 7.265625 5.953125 7.265625 5.953125 C 7.265625 5.953125 7.269531 6.078125 6.597656 6.539062 C 5.921875 6.996094 4.457031 7.773438 4.457031 7.773438 C 4.457031 7.773438 3.902344 8.136719 3.5625 7.570312 C 3.171875 6.921875 3.125 6.484375 3.804688 5.105469 C 3.996094 4.71875 3.929688 3.441406 3.804688 3.113281 C 3.320312 1.84375 3.496094 2.019531 3.496094 2.019531 Z M 3.496094 2.019531 "/>
<path fill-rule="nonzero" fill="rgb(30%,30%,30%)" fill-opacity="1" d="M 7.136719 6.964844 C 7.136719 6.964844 7.097656 7.882812 6.917969 8.054688 C 6.582031 8.378906 5.230469 9.078125 5.117188 9.035156 C 5.007812 8.992188 4.160156 8.367188 4.238281 8.144531 C 4.320312 7.917969 5.558594 7.3125 5.964844 7.125 C 6.371094 6.941406 6.917969 6.710938 6.980469 6.734375 C 7.179688 6.8125 7.136719 6.964844 7.136719 6.964844 Z M 7.136719 6.964844 "/>
<path fill-rule="nonzero" fill="rgb(30%,30%,30%)" fill-opacity="1" d="M 6.804688 8.394531 C 6.855469 8.378906 6.910156 8.410156 6.917969 8.464844 C 6.929688 8.589844 6.921875 8.824219 6.761719 9.125 C 6.683594 9.269531 5.800781 9.722656 5.722656 9.679688 C 5.496094 9.566406 5.273438 9.289062 5.25 9.234375 C 5.214844 9.144531 5.964844 8.730469 6.269531 8.589844 C 6.472656 8.496094 6.683594 8.429688 6.804688 8.394531 Z M 6.804688 8.394531 "/>
<path fill-rule="nonzero" fill="rgb(30%,30%,30%)" fill-opacity="1" d="M 6.628906 9.410156 C 6.75 9.371094 6.792969 9.375 6.78125 9.53125 C 6.765625 9.746094 6.691406 10.121094 6.648438 10.160156 C 6.527344 10.273438 6.421875 10.34375 6.210938 10.1875 C 6.019531 10.042969 5.921875 9.996094 5.863281 9.933594 C 5.824219 9.886719 5.847656 9.804688 5.898438 9.765625 C 5.976562 9.703125 6.109375 9.632812 6.230469 9.566406 C 6.335938 9.507812 6.515625 9.453125 6.628906 9.410156 Z M 6.628906 9.410156 "/>
<path fill-rule="nonzero" fill="rgb(30%,30%,30%)" fill-opacity="1" d="M 3.164062 2.289062 C 3.425781 2.257812 3.574219 2.8125 3.191406 2.898438 C 2.203125 3.121094 1.292969 3.796875 1.457031 4.289062 C 1.820312 5.359375 3.15625 5.203125 3.304688 5.378906 C 3.492188 5.601562 3.195312 6.542969 2.960938 6.523438 C 2.746094 6.5 0.824219 5.09375 1.082031 3.851562 C 1.257812 3.007812 2.492188 2.375 3.164062 2.289062 Z M 3.164062 2.289062 "/>
</g>
</svg>
