<?xml version="1.0" encoding="UTF-8" standalone="no"?>
<!-- Created with Inkscape (http://www.inkscape.org/) -->

<svg
   xmlns:dc="http://purl.org/dc/elements/1.1/"
   xmlns:cc="http://creativecommons.org/ns#"
   xmlns:rdf="http://www.w3.org/1999/02/22-rdf-syntax-ns#"
   xmlns:svg="http://www.w3.org/2000/svg"
   xmlns="http://www.w3.org/2000/svg"
   xmlns:xlink="http://www.w3.org/1999/xlink"
   xmlns:sodipodi="http://sodipodi.sourceforge.net/DTD/sodipodi-0.dtd"
   xmlns:inkscape="http://www.inkscape.org/namespaces/inkscape"
   width="30px"
   height="30px"
   version="1.1"
   id="svg8"
   inkscape:version="0.92.4 5da689c313, 2019-01-14"
   sodipodi:docname="container.svg">
  <defs
     id="defs2" />
  <sodipodi:namedview
     id="base"
     pagecolor="#ffffff"
     bordercolor="#666666"
     borderopacity="1.0"
     inkscape:pageopacity="0.0"
     inkscape:pageshadow="2"
     inkscape:zoom="13.049334"
     inkscape:cx="18.679046"
     inkscape:cy="12.165829"
     inkscape:document-units="px"
     inkscape:current-layer="layer1"
     showgrid="false"
     inkscape:snap-page="false"
     units="px"
     inkscape:window-width="1884"
     inkscape:window-height="1061"
     inkscape:window-x="0"
     inkscape:window-y="0"
     inkscape:window-maximized="1"
     fit-margin-top="0"
     fit-margin-left="0"
     fit-margin-right="0"
     fit-margin-bottom="0" />
  <metadata
     id="metadata5">
    <rdf:RDF>
      <cc:Work
         rdf:about="">
        <dc:format>image/svg+xml</dc:format>
        <dc:type
           rdf:resource="http://purl.org/dc/dcmitype/StillImage" />
        <dc:title></dc:title>
      </cc:Work>
    </rdf:RDF>
  </metadata>
    <circle
       style="color:#000000;clip-rule:nonzero;display:inline;overflow:visible;visibility:visible;opacity:1;isolation:auto;mix-blend-mode:normal;color-interpolation:sRGB;color-interpolation-filters:linearRGB;solid-color:#000000;solid-opacity:1;vector-effect:none;fill:#ffffff;fill-opacity:1;fill-rule:evenodd;stroke:#3b74b9;stroke-width:1;stroke-linecap:butt;stroke-linejoin:miter;stroke-miterlimit:4;stroke-dasharray:none;stroke-dashoffset:0;stroke-opacity:1;marker:none;color-rendering:auto;image-rendering:auto;shape-rendering:auto;text-rendering:auto;enable-background:accumulate"
       id="path815"
       cx="15"
       cy="15"
       r="14.5" />
<g transform="translate(9.0,6.5)"><path fill-rule="nonzero" fill="rgb(30%,30%,30%)" fill-opacity="1" d="M 11.53125 6.515625 C 11.191406 5.265625 11.539062 4.28125 11.769531 3.632812 C 11.855469 3.386719 11.941406 3.195312 11.945312 3.023438 C 11.945312 2.640625 10.300781 0.988281 10.300781 0.988281 L 9.933594 1.324219 L 10.503906 1.941406 C 10.292969 2.414062 10.265625 2.972656 10.433594 3.515625 C 10.523438 3.796875 10.664062 4.054688 10.847656 4.285156 C 10.691406 4.929688 10.609375 5.746094 10.867188 6.695312 C 11.433594 8.78125 12.058594 13.238281 11.222656 14.332031 C 11.117188 14.46875 11.003906 14.53125 10.855469 14.53125 C 10.429688 14.53125 10.113281 14.394531 9.890625 14.121094 C 9.398438 13.523438 9.433594 12.367188 9.527344 11.898438 C 9.542969 11.828125 9.605469 11.644531 9.675781 11.453125 C 10.074219 10.34375 10.996094 7.777344 9.640625 6.179688 C 9.644531 6.136719 9.648438 6.089844 9.648438 6.046875 L 9.648438 1.421875 C 9.644531 0.636719 9.011719 0.00390625 8.226562 0 L 2.339844 0 C 1.554688 0.00390625 0.921875 0.636719 0.917969 1.421875 L 0.917969 6.046875 C 0.921875 6.828125 1.554688 7.464844 2.339844 7.464844 L 2.414062 7.464844 L 2.414062 16.195312 L 0.402344 16.195312 C 0.179688 16.195312 0 16.375 0 16.597656 C 0 16.820312 0.179688 17 0.402344 17 L 10.164062 17 C 10.386719 17 10.566406 16.820312 10.566406 16.597656 C 10.566406 16.375 10.386719 16.195312 10.164062 16.195312 L 8.15625 16.195312 L 8.15625 7.464844 L 8.226562 7.464844 C 8.660156 7.464844 9.066406 7.269531 9.335938 6.933594 C 10.097656 8.246094 9.386719 10.222656 9.027344 11.21875 C 8.9375 11.472656 8.875 11.640625 8.851562 11.761719 C 8.847656 11.78125 8.511719 13.527344 9.355469 14.558594 C 9.714844 14.996094 10.21875 15.21875 10.855469 15.21875 C 11.21875 15.21875 11.535156 15.058594 11.769531 14.75 C 12.992188 13.152344 11.8125 7.550781 11.53125 6.515625 Z M 10.765625 3.410156 C 10.65625 3.070312 10.640625 2.710938 10.722656 2.363281 C 10.96875 2.605469 11.195312 2.871094 11.253906 2.988281 C 11.234375 3.082031 11.179688 3.238281 11.121094 3.402344 C 11.074219 3.535156 11.019531 3.6875 10.964844 3.855469 C 10.882812 3.71875 10.8125 3.566406 10.765625 3.410156 Z M 8.449219 5.410156 C 8.445312 5.976562 7.988281 6.4375 7.417969 6.441406 L 3.148438 6.441406 C 2.582031 6.4375 2.121094 5.976562 2.121094 5.410156 L 2.121094 2.054688 C 2.121094 1.488281 2.582031 1.027344 3.148438 1.027344 L 7.417969 1.027344 C 7.988281 1.027344 8.445312 1.488281 8.449219 2.054688 Z M 8.449219 5.410156 "/>
</g>
</svg>
