<?xml version="1.0" encoding="UTF-8"?>
<svg xmlns="http://www.w3.org/2000/svg" xmlns:xlink="http://www.w3.org/1999/xlink" width="11" height="10.945149" viewBox="0 0 11 10.945149">
<path fill-rule="nonzero" fill="rgb(30%,30%,30%)" fill-opacity="1" d="M 10.664062 7.023438 L 10.023438 7.015625 C 9.980469 5.640625 8.628906 4.644531 6.785156 4.636719 C 5.8125 4.632812 4.914062 4.976562 4.316406 5.585938 C 3.894531 6.011719 3.664062 6.523438 3.667969 7.027344 L 3.117188 7.023438 C 2.933594 7.023438 2.78125 7.175781 2.78125 7.359375 C 2.78125 7.535156 2.808594 7.734375 3.378906 7.78125 C 3.171875 8.011719 3.15625 8.273438 3.15625 8.542969 C 3.15625 8.832031 3.257812 9.261719 3.484375 9.546875 C 3.476562 9.582031 3.472656 9.617188 3.472656 9.652344 L 3.472656 10.453125 C 3.472656 10.722656 3.695312 10.945312 3.964844 10.945312 L 4.257812 10.945312 C 4.527344 10.945312 4.746094 10.722656 4.746094 10.453125 L 4.746094 10.0625 C 4.75 10.0625 4.753906 10.0625 4.753906 10.0625 C 5.324219 10.109375 8.332031 10.109375 9.050781 10.050781 L 9.050781 10.453125 C 9.050781 10.722656 9.269531 10.945312 9.542969 10.945312 L 9.832031 10.945312 C 10.101562 10.945312 10.324219 10.722656 10.324219 10.453125 L 10.324219 9.652344 C 10.324219 9.625 10.320312 9.597656 10.316406 9.570312 C 10.53125 9.3125 10.613281 8.820312 10.613281 8.542969 C 10.613281 8.292969 10.589844 8.007812 10.40625 7.785156 C 10.480469 7.769531 10.546875 7.75 10.609375 7.730469 C 10.890625 7.644531 11 7.542969 11 7.359375 C 11 7.175781 10.847656 7.023438 10.664062 7.023438 Z M 4.65625 9.523438 C 4.371094 9.523438 4.136719 9.289062 4.136719 9 C 4.136719 8.714844 4.371094 8.480469 4.65625 8.480469 C 4.945312 8.480469 5.179688 8.714844 5.179688 9 C 5.179688 9.289062 4.945312 9.523438 4.65625 9.523438 Z M 9.09375 9.523438 C 8.804688 9.523438 8.570312 9.289062 8.570312 9 C 8.570312 8.714844 8.804688 8.480469 9.09375 8.480469 C 9.382812 8.480469 9.613281 8.714844 9.613281 9 C 9.613281 9.289062 9.382812 9.523438 9.09375 9.523438 Z M 9.679688 7.453125 C 9.640625 7.484375 9.585938 7.527344 9.519531 7.570312 C 9.382812 7.277344 9.125 7.054688 8.808594 6.964844 C 8.941406 6.859375 9.027344 6.695312 9.027344 6.511719 C 9.027344 6.195312 8.769531 5.9375 8.453125 5.9375 C 8.136719 5.9375 7.878906 6.195312 7.878906 6.511719 C 7.878906 6.707031 7.972656 6.878906 8.121094 6.980469 C 7.980469 7.03125 7.855469 7.105469 7.746094 7.199219 C 7.679688 6.839844 7.382812 6.554688 7.003906 6.472656 C 7.109375 6.398438 7.175781 6.277344 7.175781 6.140625 C 7.175781 5.914062 6.992188 5.730469 6.765625 5.730469 C 6.539062 5.730469 6.355469 5.914062 6.355469 6.140625 C 6.355469 6.28125 6.425781 6.40625 6.535156 6.480469 C 6.164062 6.574219 5.878906 6.867188 5.824219 7.226562 C 5.71875 7.125 5.589844 7.042969 5.449219 6.992188 C 5.605469 6.890625 5.707031 6.714844 5.707031 6.511719 C 5.707031 6.195312 5.449219 5.9375 5.132812 5.9375 C 4.8125 5.9375 4.554688 6.195312 4.554688 6.511719 C 4.554688 6.691406 4.636719 6.851562 4.761719 6.957031 C 4.46875 7.03125 4.21875 7.222656 4.066406 7.480469 C 4.042969 7.453125 4.023438 7.425781 4.003906 7.40625 C 3.980469 7.289062 3.964844 7.171875 3.960938 7.050781 C 3.953125 6.617188 4.152344 6.167969 4.527344 5.792969 C 5.066406 5.242188 5.882812 4.929688 6.765625 4.929688 C 6.773438 4.929688 6.777344 4.929688 6.78125 4.929688 C 8.476562 4.9375 9.71875 5.835938 9.730469 7.066406 C 9.730469 7.195312 9.714844 7.324219 9.679688 7.453125 Z M 9.679688 7.453125 "/>
<path fill-rule="nonzero" fill="rgb(30%,30%,30%)" fill-opacity="1" d="M 0 0.15625 C 0 0.0664062 0.0703125 0 0.15625 0 L 3.113281 0 C 5.457031 0 5.8125 1.511719 5.8125 2.410156 C 5.8125 3.933594 4.851562 4.777344 3.113281 4.777344 L 1.660156 4.777344 L 1.660156 7.214844 C 1.660156 7.300781 1.589844 7.367188 1.507812 7.367188 L 0.15625 7.367188 C 0.0664062 7.367188 0 7.296875 0 7.214844 Z M 4.175781 2.414062 C 4.175781 1.59375 3.671875 1.148438 2.753906 1.148438 L 1.660156 1.148438 L 1.660156 3.640625 L 2.753906 3.640625 C 3.402344 3.632812 4.175781 3.421875 4.175781 2.414062 Z M 4.175781 2.414062 "/>
</svg>
