<?xml version="1.0" encoding="UTF-8"?>
<svg xmlns="http://www.w3.org/2000/svg" xmlns:xlink="http://www.w3.org/1999/xlink" width="10.319079" height="11" viewBox="0 0 10.319079 11">
<path fill-rule="nonzero" fill="rgb(30%,30%,30%)" fill-opacity="1" d="M 9.898438 6.078125 L 9.242188 6.070312 C 9.160156 6.066406 9.089844 6.003906 9.085938 5.921875 C 9.035156 5.269531 8.699219 4.671875 8.195312 4.257812 C 7.898438 4.011719 7.566406 3.832031 7.183594 3.761719 C 6.90625 3.707031 6.628906 3.644531 6.34375 3.625 C 5.449219 3.566406 4.570312 3.542969 3.691406 3.621094 C 3.511719 3.636719 3.335938 3.65625 3.15625 3.679688 C 2.925781 3.710938 2.699219 3.792969 2.488281 3.894531 C 2.285156 3.996094 2.082031 4.105469 1.925781 4.265625 C 1.4375 4.761719 1.15625 5.347656 1.113281 5.929688 C 1.109375 6.015625 1.039062 6.078125 0.957031 6.078125 L 0.417969 6.078125 C 0.1875 6.078125 0 6.265625 0 6.496094 C 0 6.6875 0.0273438 6.902344 0.5 6.992188 C 0.550781 7.003906 0.59375 7.035156 0.613281 7.082031 C 0.636719 7.125 0.632812 7.179688 0.609375 7.222656 C 0.480469 7.464844 0.46875 7.71875 0.46875 7.984375 C 0.46875 8.328125 0.585938 8.835938 0.84375 9.191406 C 0.867188 9.222656 0.878906 9.265625 0.871094 9.304688 C 0.867188 9.328125 0.867188 9.351562 0.867188 9.378906 L 0.867188 10.226562 C 0.867188 10.652344 1.214844 11 1.640625 11 L 1.691406 11 C 2.121094 11 2.464844 10.652344 2.46875 10.226562 L 2.46875 9.890625 C 2.46875 9.890625 2.472656 9.890625 2.476562 9.894531 C 3.152344 9.949219 6.578125 9.953125 7.703125 9.886719 C 7.746094 9.886719 7.789062 9.902344 7.820312 9.929688 C 7.851562 9.960938 7.871094 10.003906 7.871094 10.046875 L 7.871094 10.226562 C 7.871094 10.652344 8.21875 11 8.644531 11 L 8.695312 11 C 9.121094 11 9.46875 10.652344 9.46875 10.226562 L 9.46875 9.378906 C 9.46875 9.363281 9.46875 9.347656 9.46875 9.335938 C 9.464844 9.296875 9.476562 9.253906 9.5 9.222656 C 9.738281 8.890625 9.832031 8.3125 9.832031 7.984375 C 9.832031 7.730469 9.816406 7.449219 9.6875 7.203125 C 9.664062 7.160156 9.664062 7.109375 9.679688 7.066406 C 9.699219 7.023438 9.738281 6.988281 9.78125 6.976562 C 9.796875 6.972656 9.8125 6.96875 9.828125 6.964844 C 10.179688 6.855469 10.320312 6.726562 10.320312 6.496094 C 10.320312 6.265625 10.128906 6.078125 9.898438 6.078125 Z M 2.410156 9.148438 C 2.046875 9.148438 1.75 8.851562 1.75 8.488281 C 1.75 8.121094 2.046875 7.828125 2.410156 7.828125 C 2.773438 7.828125 3.070312 8.121094 3.070312 8.488281 C 3.070312 8.851562 2.773438 9.148438 2.410156 9.148438 Z M 1.496094 6.308594 C 1.644531 4.101562 2.847656 3.976562 4.570312 3.96875 L 5.0625 3.96875 C 7.046875 3.96875 8.636719 4.117188 8.679688 6.308594 C 8.699219 7.222656 7.015625 7.449219 5.03125 7.449219 C 3.050781 7.449219 1.4375 7.21875 1.496094 6.308594 Z M 8.039062 9.148438 C 7.671875 9.148438 7.375 8.851562 7.375 8.488281 C 7.375 8.121094 7.671875 7.828125 8.039062 7.828125 C 8.402344 7.828125 8.699219 8.121094 8.699219 8.488281 C 8.699219 8.851562 8.402344 9.148438 8.039062 9.148438 Z M 8.039062 9.148438 "/>
<path fill-rule="nonzero" fill="rgb(30%,30%,30%)" fill-opacity="1" d="M 8.796875 1.507812 L 8.796875 1.808594 L 7.976562 2.5625 L 7.566406 2.132812 L 7.113281 2.589844 L 6.703125 2.132812 L 6.292969 2.617188 L 5.863281 2.152344 L 5.257812 2.691406 L 4.558594 2.691406 C 4.148438 3.382812 3.328125 3.710938 2.550781 3.5 C 1.777344 3.285156 1.242188 2.578125 1.246094 1.777344 C 1.25 0.972656 1.789062 0.269531 2.5625 0.0625 C 3.339844 -0.148438 4.160156 0.1875 4.566406 0.878906 L 8.148438 0.878906 Z M 2.265625 1.273438 C 1.988281 1.273438 1.765625 1.5 1.765625 1.773438 C 1.765625 2.050781 1.988281 2.273438 2.265625 2.273438 C 2.539062 2.273438 2.761719 2.050781 2.761719 1.773438 C 2.761719 1.5 2.539062 1.273438 2.265625 1.273438 Z M 2.265625 1.273438 "/>
</svg>
