<?xml version="1.0" encoding="UTF-8" standalone="no"?>
<!-- Created with Inkscape (http://www.inkscape.org/) -->

<svg
   xmlns:dc="http://purl.org/dc/elements/1.1/"
   xmlns:cc="http://creativecommons.org/ns#"
   xmlns:rdf="http://www.w3.org/1999/02/22-rdf-syntax-ns#"
   xmlns:svg="http://www.w3.org/2000/svg"
   xmlns="http://www.w3.org/2000/svg"
   xmlns:xlink="http://www.w3.org/1999/xlink"
   xmlns:sodipodi="http://sodipodi.sourceforge.net/DTD/sodipodi-0.dtd"
   xmlns:inkscape="http://www.inkscape.org/namespaces/inkscape"
   width="30px"
   height="30px"
   version="1.1"
   id="svg8"
   inkscape:version="0.92.4 5da689c313, 2019-01-14"
   sodipodi:docname="container.svg">
  <defs
     id="defs2" />
  <sodipodi:namedview
     id="base"
     pagecolor="#ffffff"
     bordercolor="#666666"
     borderopacity="1.0"
     inkscape:pageopacity="0.0"
     inkscape:pageshadow="2"
     inkscape:zoom="13.049334"
     inkscape:cx="18.679046"
     inkscape:cy="12.165829"
     inkscape:document-units="px"
     inkscape:current-layer="layer1"
     showgrid="false"
     inkscape:snap-page="false"
     units="px"
     inkscape:window-width="1884"
     inkscape:window-height="1061"
     inkscape:window-x="0"
     inkscape:window-y="0"
     inkscape:window-maximized="1"
     fit-margin-top="0"
     fit-margin-left="0"
     fit-margin-right="0"
     fit-margin-bottom="0" />
  <metadata
     id="metadata5">
    <rdf:RDF>
      <cc:Work
         rdf:about="">
        <dc:format>image/svg+xml</dc:format>
        <dc:type
           rdf:resource="http://purl.org/dc/dcmitype/StillImage" />
        <dc:title></dc:title>
      </cc:Work>
    </rdf:RDF>
  </metadata>
    <circle
       style="color:#000000;clip-rule:nonzero;display:inline;overflow:visible;visibility:visible;opacity:1;isolation:auto;mix-blend-mode:normal;color-interpolation:sRGB;color-interpolation-filters:linearRGB;solid-color:#000000;solid-opacity:1;vector-effect:none;fill:#ffffff;fill-opacity:1;fill-rule:evenodd;stroke:#3b74b9;stroke-width:1;stroke-linecap:butt;stroke-linejoin:miter;stroke-miterlimit:4;stroke-dasharray:none;stroke-dashoffset:0;stroke-opacity:1;marker:none;color-rendering:auto;image-rendering:auto;shape-rendering:auto;text-rendering:auto;enable-background:accumulate"
       id="path815"
       cx="15"
       cy="15"
       r="14.5" />
<g transform="translate(6.5,6.5)"><path fill-rule="nonzero" fill="rgb(30%,30%,30%)" fill-opacity="1" d="M 10.855469 3.769531 L 5.746094 3.769531 C 4.714844 3.769531 3.878906 4.601562 3.878906 5.632812 L 3.878906 11.953125 C 3.878906 12.3125 4.175781 12.605469 4.535156 12.605469 L 4.5625 12.605469 L 4.5625 13.445312 C 4.5625 13.734375 4.792969 13.96875 5.082031 13.96875 L 5.398438 13.96875 C 5.6875 13.96875 5.921875 13.734375 5.921875 13.445312 L 5.921875 12.605469 L 10.683594 12.605469 C 10.683594 12.625 10.679688 12.640625 10.679688 12.660156 L 10.679688 13.460938 C 10.679688 13.738281 10.90625 13.96875 11.183594 13.96875 L 11.535156 13.96875 C 11.8125 13.96875 12.039062 13.738281 12.039062 13.460938 L 12.039062 12.660156 C 12.039062 12.640625 12.035156 12.625 12.035156 12.605469 L 12.0625 12.605469 C 12.425781 12.605469 12.71875 12.3125 12.71875 11.953125 L 12.71875 5.632812 C 12.71875 4.601562 11.882812 3.769531 10.855469 3.769531 Z M 5.976562 4.789062 L 10.621094 4.789062 C 10.714844 4.789062 10.792969 4.867188 10.792969 4.957031 C 10.792969 5.050781 10.714844 5.128906 10.621094 5.128906 L 5.976562 5.128906 C 5.882812 5.128906 5.808594 5.050781 5.808594 4.957031 C 5.808594 4.867188 5.882812 4.789062 5.976562 4.789062 Z M 5.242188 11.925781 C 4.863281 11.925781 4.5625 11.621094 4.5625 11.246094 C 4.5625 10.871094 4.863281 10.566406 5.242188 10.566406 C 5.617188 10.566406 5.921875 10.871094 5.921875 11.246094 C 5.921875 11.621094 5.617188 11.925781 5.242188 11.925781 Z M 11.359375 11.925781 C 10.984375 11.925781 10.679688 11.621094 10.679688 11.246094 C 10.679688 10.871094 10.984375 10.566406 11.359375 10.566406 C 11.734375 10.566406 12.039062 10.871094 12.039062 11.246094 C 12.039062 11.621094 11.734375 11.925781 11.359375 11.925781 Z M 12.039062 8.949219 C 12.039062 9.09375 11.921875 9.207031 11.78125 9.207031 L 4.820312 9.207031 C 4.675781 9.207031 4.5625 9.09375 4.5625 8.949219 L 4.5625 6.066406 C 4.5625 5.925781 4.675781 5.808594 4.820312 5.808594 L 11.78125 5.808594 C 11.921875 5.808594 12.039062 5.925781 12.039062 6.066406 Z M 12.039062 8.949219 "/>
<path fill-rule="nonzero" fill="rgb(30%,30%,30%)" fill-opacity="1" d="M 8.5 17 C 7.351562 17 6.238281 16.773438 5.191406 16.332031 C 4.179688 15.902344 3.269531 15.289062 2.488281 14.511719 C 1.710938 13.730469 1.097656 12.820312 0.667969 11.808594 C 0.226562 10.761719 0 9.648438 0 8.5 C 0 7.351562 0.226562 6.238281 0.667969 5.191406 C 1.097656 4.179688 1.710938 3.269531 2.488281 2.488281 C 3.269531 1.710938 4.179688 1.097656 5.191406 0.667969 C 6.238281 0.226562 7.351562 0 8.5 0 C 9.648438 0 10.761719 0.226562 11.808594 0.667969 C 12.820312 1.097656 13.730469 1.710938 14.511719 2.488281 C 15.289062 3.269531 15.902344 4.179688 16.332031 5.191406 C 16.773438 6.238281 17 7.351562 17 8.5 C 17 9.648438 16.773438 10.761719 16.332031 11.808594 C 15.902344 12.820312 15.289062 13.730469 14.511719 14.511719 C 13.730469 15.289062 12.820312 15.902344 11.808594 16.332031 C 10.761719 16.773438 9.648438 17 8.5 17 Z M 8.5 0.765625 C 7.457031 0.765625 6.441406 0.972656 5.488281 1.375 C 4.570312 1.765625 3.742188 2.320312 3.03125 3.03125 C 2.320312 3.742188 1.765625 4.570312 1.375 5.488281 C 0.972656 6.441406 0.765625 7.457031 0.765625 8.5 C 0.765625 9.542969 0.972656 10.558594 1.375 11.511719 C 1.765625 12.429688 2.320312 13.257812 3.03125 13.96875 C 3.742188 14.679688 4.570312 15.234375 5.488281 15.625 C 6.441406 16.027344 7.457031 16.234375 8.5 16.234375 C 9.542969 16.234375 10.558594 16.027344 11.511719 15.625 C 12.429688 15.234375 13.257812 14.679688 13.96875 13.96875 C 14.679688 13.257812 15.234375 12.429688 15.625 11.511719 C 16.027344 10.558594 16.234375 9.542969 16.234375 8.5 C 16.234375 7.457031 16.027344 6.441406 15.625 5.488281 C 15.234375 4.570312 14.679688 3.742188 13.96875 3.03125 C 13.257812 2.320312 12.429688 1.765625 11.511719 1.375 C 10.558594 0.972656 9.542969 0.765625 8.5 0.765625 Z M 8.5 0.765625 "/>
</g>
</svg>
