<?xml version="1.0" encoding="UTF-8"?>
<svg xmlns="http://www.w3.org/2000/svg" xmlns:xlink="http://www.w3.org/1999/xlink" width="9.533333" height="11" viewBox="0 0 9.533333 11">
<path fill-rule="nonzero" fill="rgb(30%,30%,30%)" fill-opacity="1" d="M 7.523438 0 L 2.011719 0 C 0.898438 0 0 0.898438 0 2.011719 L 0 8.828125 C 0 9.21875 0.316406 9.535156 0.707031 9.535156 L 0.734375 9.535156 L 0.734375 10.4375 C 0.734375 10.75 0.984375 11 1.292969 11 L 1.636719 11 C 1.949219 11 2.199219 10.75 2.199219 10.4375 L 2.199219 9.535156 L 7.339844 9.535156 C 7.335938 9.550781 7.335938 9.570312 7.332031 9.589844 L 7.332031 10.457031 C 7.335938 10.753906 7.578125 11 7.878906 11 L 8.253906 11 C 8.554688 11 8.800781 10.753906 8.800781 10.457031 L 8.800781 9.589844 C 8.800781 9.570312 8.796875 9.550781 8.792969 9.535156 L 8.828125 9.535156 C 9.21875 9.535156 9.535156 9.21875 9.535156 8.828125 L 9.535156 2.011719 C 9.535156 0.898438 8.632812 0 7.523438 0 Z M 2.261719 1.101562 L 7.273438 1.101562 C 7.375 1.101562 7.457031 1.183594 7.457031 1.285156 C 7.457031 1.382812 7.375 1.464844 7.273438 1.464844 L 2.261719 1.464844 C 2.160156 1.464844 2.078125 1.382812 2.078125 1.285156 C 2.078125 1.183594 2.160156 1.101562 2.261719 1.101562 Z M 1.464844 8.800781 C 1.0625 8.800781 0.734375 8.472656 0.734375 8.066406 C 0.734375 7.660156 1.0625 7.332031 1.464844 7.332031 C 1.871094 7.332031 2.199219 7.660156 2.199219 8.066406 C 2.199219 8.472656 1.871094 8.800781 1.464844 8.800781 Z M 8.066406 8.800781 C 7.660156 8.800781 7.332031 8.472656 7.332031 8.066406 C 7.332031 7.660156 7.660156 7.332031 8.066406 7.332031 C 8.472656 7.332031 8.800781 7.660156 8.800781 8.066406 C 8.800781 8.472656 8.472656 8.800781 8.066406 8.800781 Z M 8.800781 5.585938 C 8.800781 5.742188 8.675781 5.867188 8.519531 5.867188 L 1.011719 5.867188 C 0.859375 5.867188 0.734375 5.742188 0.734375 5.585938 L 0.734375 2.480469 C 0.734375 2.324219 0.859375 2.199219 1.011719 2.199219 L 8.519531 2.199219 C 8.675781 2.199219 8.800781 2.324219 8.800781 2.480469 Z M 8.800781 5.585938 "/>
</svg>
