<?xml version="1.0" encoding="UTF-8"?>
<svg xmlns="http://www.w3.org/2000/svg" xmlns:xlink="http://www.w3.org/1999/xlink" width="11" height="8.446983" viewBox="0 0 11 8.446983">
<path fill-rule="nonzero" fill="rgb(30%,30%,30%)" fill-opacity="1" d="M 10.550781 3.199219 L 9.691406 3.1875 C 9.636719 1.347656 7.824219 0.0078125 5.355469 0 C 4.054688 -0.00390625 2.851562 0.457031 2.050781 1.269531 C 1.488281 1.84375 1.179688 2.527344 1.183594 3.203125 L 0.449219 3.199219 C 0.199219 3.199219 0 3.398438 0 3.644531 C 0 3.878906 0.0351562 4.152344 0.800781 4.210938 C 0.523438 4.519531 0.5 4.871094 0.5 5.234375 C 0.5 5.617188 0.636719 6.191406 0.941406 6.574219 C 0.929688 6.621094 0.925781 6.667969 0.925781 6.71875 L 0.925781 7.789062 C 0.925781 8.152344 1.21875 8.445312 1.582031 8.445312 L 1.972656 8.445312 C 2.335938 8.445312 2.628906 8.152344 2.628906 7.789062 L 2.628906 7.265625 C 2.632812 7.265625 2.636719 7.265625 2.640625 7.265625 C 3.402344 7.328125 7.429688 7.332031 8.390625 7.25 L 8.390625 7.789062 C 8.390625 8.152344 8.683594 8.445312 9.046875 8.445312 L 9.4375 8.445312 C 9.800781 8.445312 10.09375 8.152344 10.09375 7.789062 L 10.09375 6.71875 C 10.09375 6.679688 10.089844 6.644531 10.085938 6.605469 C 10.371094 6.261719 10.480469 5.601562 10.480469 5.234375 C 10.480469 4.894531 10.453125 4.515625 10.207031 4.21875 C 10.304688 4.195312 10.394531 4.167969 10.476562 4.144531 C 10.851562 4.027344 11 3.890625 11 3.644531 C 11 3.398438 10.800781 3.199219 10.550781 3.199219 Z M 2.332031 1.546875 C 3.054688 0.816406 4.148438 0.394531 5.332031 0.394531 C 5.339844 0.394531 5.347656 0.394531 5.355469 0.394531 C 7.625 0.40625 9.28125 1.605469 9.300781 3.253906 C 9.300781 3.429688 9.28125 3.601562 9.234375 3.769531 C 9.179688 3.816406 9.109375 3.871094 9.019531 3.925781 C 8.832031 3.535156 8.484375 3.242188 8.066406 3.117188 C 8.328125 2.914062 8.429688 2.5625 8.316406 2.25 C 8.203125 1.9375 7.902344 1.734375 7.570312 1.742188 C 7.238281 1.75 6.949219 1.972656 6.855469 2.289062 C 6.757812 2.605469 6.875 2.949219 7.144531 3.140625 C 6.960938 3.203125 6.789062 3.304688 6.640625 3.429688 C 6.554688 2.953125 6.160156 2.570312 5.652344 2.460938 C 5.847656 2.320312 5.925781 2.070312 5.851562 1.84375 C 5.777344 1.617188 5.5625 1.464844 5.320312 1.46875 C 5.082031 1.472656 4.871094 1.628906 4.804688 1.859375 C 4.734375 2.089844 4.824219 2.339844 5.023438 2.472656 C 4.523438 2.59375 4.144531 2.984375 4.074219 3.46875 C 3.925781 3.332031 3.757812 3.226562 3.570312 3.15625 C 3.847656 2.972656 3.972656 2.628906 3.886719 2.308594 C 3.800781 1.988281 3.515625 1.761719 3.183594 1.746094 C 2.851562 1.726562 2.546875 1.921875 2.425781 2.234375 C 2.304688 2.542969 2.394531 2.894531 2.652344 3.105469 C 2.261719 3.207031 1.925781 3.460938 1.71875 3.808594 C 1.6875 3.769531 1.660156 3.738281 1.636719 3.707031 C 1.601562 3.550781 1.582031 3.394531 1.578125 3.234375 C 1.566406 2.652344 1.835938 2.054688 2.332031 1.546875 Z M 1.976562 4.042969 C 2.242188 3.515625 2.855469 3.265625 3.414062 3.453125 C 3.96875 3.640625 4.308594 4.207031 4.207031 4.785156 C 3.027344 4.671875 2.351562 4.328125 1.976562 4.042969 Z M 6.453125 4.585938 C 6.453125 4.023438 6.84375 3.539062 7.394531 3.421875 C 7.941406 3.304688 8.496094 3.585938 8.726562 4.101562 C 8.269531 4.339844 7.550781 4.605469 6.464844 4.738281 C 6.457031 4.6875 6.453125 4.636719 6.453125 4.585938 Z M 6.421875 3.667969 C 6.222656 3.933594 6.113281 4.253906 6.113281 4.585938 C 6.113281 4.648438 6.117188 4.710938 6.125 4.777344 C 5.890625 4.796875 5.640625 4.8125 5.375 4.820312 C 5.074219 4.828125 4.800781 4.824219 4.546875 4.8125 C 4.558594 4.738281 4.5625 4.660156 4.5625 4.585938 C 4.5625 4.285156 4.472656 3.988281 4.304688 3.738281 C 4.300781 3.703125 4.296875 3.667969 4.296875 3.628906 C 4.296875 3.097656 4.773438 2.667969 5.359375 2.667969 C 5.945312 2.667969 6.425781 3.097656 6.425781 3.628906 C 6.425781 3.644531 6.421875 3.65625 6.421875 3.667969 Z M 6.421875 3.667969 "/>
</svg>
