<?xml version="1.0" encoding="UTF-8" standalone="no"?>
<!-- Created with Inkscape (http://www.inkscape.org/) -->

<svg
   xmlns:dc="http://purl.org/dc/elements/1.1/"
   xmlns:cc="http://creativecommons.org/ns#"
   xmlns:rdf="http://www.w3.org/1999/02/22-rdf-syntax-ns#"
   xmlns:svg="http://www.w3.org/2000/svg"
   xmlns="http://www.w3.org/2000/svg"
   xmlns:xlink="http://www.w3.org/1999/xlink"
   xmlns:sodipodi="http://sodipodi.sourceforge.net/DTD/sodipodi-0.dtd"
   xmlns:inkscape="http://www.inkscape.org/namespaces/inkscape"
   width="30px"
   height="30px"
   version="1.1"
   id="svg8"
   inkscape:version="0.92.4 5da689c313, 2019-01-14"
   sodipodi:docname="container.svg">
  <defs
     id="defs2" />
  <sodipodi:namedview
     id="base"
     pagecolor="#ffffff"
     bordercolor="#666666"
     borderopacity="1.0"
     inkscape:pageopacity="0.0"
     inkscape:pageshadow="2"
     inkscape:zoom="13.049334"
     inkscape:cx="18.679046"
     inkscape:cy="12.165829"
     inkscape:document-units="px"
     inkscape:current-layer="layer1"
     showgrid="false"
     inkscape:snap-page="false"
     units="px"
     inkscape:window-width="1884"
     inkscape:window-height="1061"
     inkscape:window-x="0"
     inkscape:window-y="0"
     inkscape:window-maximized="1"
     fit-margin-top="0"
     fit-margin-left="0"
     fit-margin-right="0"
     fit-margin-bottom="0" />
  <metadata
     id="metadata5">
    <rdf:RDF>
      <cc:Work
         rdf:about="">
        <dc:format>image/svg+xml</dc:format>
        <dc:type
           rdf:resource="http://purl.org/dc/dcmitype/StillImage" />
        <dc:title></dc:title>
      </cc:Work>
    </rdf:RDF>
  </metadata>
    <circle
       style="color:#000000;clip-rule:nonzero;display:inline;overflow:visible;visibility:visible;opacity:1;isolation:auto;mix-blend-mode:normal;color-interpolation:sRGB;color-interpolation-filters:linearRGB;solid-color:#000000;solid-opacity:1;vector-effect:none;fill:#008ecf;fill-opacity:1;fill-rule:evenodd;stroke:#ffffff;stroke-width:1;stroke-linecap:butt;stroke-linejoin:miter;stroke-miterlimit:4;stroke-dasharray:none;stroke-dashoffset:0;stroke-opacity:1;marker:none;color-rendering:auto;image-rendering:auto;shape-rendering:auto;text-rendering:auto;enable-background:accumulate"
       id="path815"
       cx="15"
       cy="15"
       r="14.5" />
<g transform="translate(6.5,7.0)"><path fill-rule="nonzero" fill="#FFFFFF" fill-opacity="1" d="M 16.332031 9.027344 C 15.789062 7.640625 15.039062 6.371094 14.753906 5.894531 C 13.78125 4.261719 13.074219 3.386719 12.609375 2.917969 C 12.628906 2.785156 12.625 2.65625 12.609375 2.523438 C 12.574219 2.214844 12.445312 1.898438 12.230469 1.609375 C 12.195312 1.558594 12.160156 1.507812 12.121094 1.457031 C 12.117188 1.453125 11.949219 1.289062 11.882812 1.226562 C 11.878906 1.222656 11.878906 1.222656 11.875 1.21875 L 10.230469 0.0429688 C 10.195312 0.0195312 10.15625 0.03125 10.136719 0.0703125 L 9.847656 0.496094 C 9.824219 0.53125 9.777344 0.539062 9.746094 0.515625 C 9.742188 0.515625 9.742188 0.515625 9.742188 0.515625 L 9.046875 0.015625 C 9.019531 -0.00390625 8.980469 -0.00390625 8.953125 0.015625 C 8.941406 0.0234375 8.929688 0.03125 8.921875 0.0429688 L 8.722656 0.324219 C 8.699219 0.359375 8.707031 0.40625 8.742188 0.425781 L 9.445312 0.921875 C 9.480469 0.945312 9.488281 0.992188 9.464844 1.023438 C 9.464844 1.023438 9.464844 1.027344 9.460938 1.027344 L 9.167969 1.421875 C 9.144531 1.453125 9.101562 1.460938 9.070312 1.4375 L 8.351562 0.933594 C 8.316406 0.914062 8.273438 0.921875 8.25 0.953125 L 8.050781 1.234375 C 8.027344 1.269531 8.035156 1.3125 8.070312 1.335938 L 8.800781 1.851562 C 8.832031 1.871094 8.828125 1.917969 8.792969 1.933594 C 8.789062 1.933594 8.789062 1.933594 8.789062 1.933594 L 8.484375 2.347656 C 8.464844 2.375 8.464844 2.414062 8.484375 2.4375 C 8.488281 2.445312 8.492188 2.449219 8.5 2.453125 L 10.140625 3.613281 C 10.140625 3.613281 10.144531 3.617188 10.148438 3.617188 C 10.875 4.011719 11.621094 4.019531 12.144531 3.632812 C 12.546875 4.0625 13.175781 4.867188 14.042969 6.320312 C 14.316406 6.78125 15.078125 7.992188 15.5625 9.328125 C 15.960938 10.429688 16.363281 11.683594 16.003906 12.855469 C 15.691406 13.871094 14.703125 14.679688 13.632812 14.738281 C 13.59375 14.742188 13.550781 14.742188 13.507812 14.742188 C 12.882812 14.742188 12.28125 14.507812 11.824219 14.085938 C 11.402344 13.699219 11.132812 13.1875 11.050781 12.632812 L 13.460938 12.632812 C 13.703125 12.632812 13.910156 12.445312 13.929688 12.203125 C 13.949219 12.074219 13.910156 11.941406 13.828125 11.84375 L 10.53125 7.863281 L 10.9375 6.660156 L 11.539062 6.664062 C 11.777344 6.664062 11.96875 6.46875 11.96875 6.234375 C 11.972656 5.996094 11.777344 5.804688 11.542969 5.804688 L 9.28125 5.796875 C 9.046875 5.796875 8.855469 5.988281 8.851562 6.226562 C 8.851562 6.460938 9.042969 6.65625 9.28125 6.65625 L 9.945312 6.660156 L 9.746094 7.246094 L 5.59375 7.234375 L 5.773438 6.703125 L 6.644531 6.703125 C 6.902344 6.703125 7.117188 6.503906 7.125 6.246094 C 7.132812 5.980469 6.917969 5.761719 6.65625 5.761719 L 5.097656 5.761719 L 4.410156 7.800781 L 4.042969 8.886719 C 3.839844 8.851562 3.632812 8.832031 3.425781 8.832031 C 1.535156 8.832031 -0.00390625 10.375 0 12.265625 C 0.00390625 14.144531 1.539062 15.679688 3.417969 15.683594 C 5.308594 15.6875 6.851562 14.148438 6.851562 12.257812 C 6.851562 10.949219 6.101562 9.757812 4.933594 9.183594 L 5.207031 8.375 L 8.210938 12.441406 C 8.300781 12.558594 8.441406 12.632812 8.589844 12.632812 C 8.597656 12.632812 8.605469 12.632812 8.613281 12.628906 C 8.617188 12.632812 8.625 12.632812 8.632812 12.632812 L 10.101562 12.632812 C 10.191406 13.441406 10.5625 14.191406 11.164062 14.757812 C 11.804688 15.355469 12.632812 15.683594 13.507812 15.683594 C 14.722656 15.683594 15.796875 15.042969 16.402344 14.085938 C 16.613281 13.792969 16.769531 13.460938 16.867188 13.09375 C 17.15625 12.035156 16.972656 10.667969 16.332031 9.027344 Z M 11.617188 10.648438 L 12.480469 11.691406 L 11.085938 11.691406 C 11.175781 11.304688 11.355469 10.949219 11.617188 10.648438 Z M 5.511719 10.910156 C 5.773438 11.3125 5.910156 11.777344 5.910156 12.257812 C 5.910156 13.628906 4.796875 14.742188 3.425781 14.742188 C 2.054688 14.742188 0.941406 13.628906 0.941406 12.257812 C 0.941406 10.886719 2.054688 9.773438 3.425781 9.773438 C 3.527344 9.773438 3.632812 9.777344 3.734375 9.792969 L 2.972656 12.023438 C 2.933594 12.140625 2.941406 12.269531 2.996094 12.382812 C 3.054688 12.496094 3.148438 12.578125 3.269531 12.621094 C 3.316406 12.636719 3.367188 12.644531 3.417969 12.644531 C 3.621094 12.644531 3.800781 12.515625 3.863281 12.324219 L 4.628906 10.082031 C 4.984375 10.28125 5.289062 10.566406 5.511719 10.910156 Z M 8.429688 11.15625 L 6.230469 8.175781 L 9.429688 8.1875 Z M 10.128906 11.691406 L 9.242188 11.691406 L 10.179688 8.910156 L 11.011719 9.914062 C 10.546875 10.40625 10.238281 11.03125 10.128906 11.691406 Z M 10.128906 11.691406 "/>
</g>
</svg>
