<?xml version="1.0" encoding="UTF-8" standalone="no"?>
<!-- Created with Inkscape (http://www.inkscape.org/) -->

<svg
   xmlns:dc="http://purl.org/dc/elements/1.1/"
   xmlns:cc="http://creativecommons.org/ns#"
   xmlns:rdf="http://www.w3.org/1999/02/22-rdf-syntax-ns#"
   xmlns:svg="http://www.w3.org/2000/svg"
   xmlns="http://www.w3.org/2000/svg"
   xmlns:xlink="http://www.w3.org/1999/xlink"
   xmlns:sodipodi="http://sodipodi.sourceforge.net/DTD/sodipodi-0.dtd"
   xmlns:inkscape="http://www.inkscape.org/namespaces/inkscape"
   width="30px"
   height="30px"
   version="1.1"
   id="svg8"
   inkscape:version="0.92.4 5da689c313, 2019-01-14"
   sodipodi:docname="container.svg">
  <defs
     id="defs2" />
  <sodipodi:namedview
     id="base"
     pagecolor="#ffffff"
     bordercolor="#666666"
     borderopacity="1.0"
     inkscape:pageopacity="0.0"
     inkscape:pageshadow="2"
     inkscape:zoom="13.049334"
     inkscape:cx="18.679046"
     inkscape:cy="12.165829"
     inkscape:document-units="px"
     inkscape:current-layer="layer1"
     showgrid="false"
     inkscape:snap-page="false"
     units="px"
     inkscape:window-width="1884"
     inkscape:window-height="1061"
     inkscape:window-x="0"
     inkscape:window-y="0"
     inkscape:window-maximized="1"
     fit-margin-top="0"
     fit-margin-left="0"
     fit-margin-right="0"
     fit-margin-bottom="0" />
  <metadata
     id="metadata5">
    <rdf:RDF>
      <cc:Work
         rdf:about="">
        <dc:format>image/svg+xml</dc:format>
        <dc:type
           rdf:resource="http://purl.org/dc/dcmitype/StillImage" />
        <dc:title></dc:title>
      </cc:Work>
    </rdf:RDF>
  </metadata>
    <circle
       style="color:#000000;clip-rule:nonzero;display:inline;overflow:visible;visibility:visible;opacity:1;isolation:auto;mix-blend-mode:normal;color-interpolation:sRGB;color-interpolation-filters:linearRGB;solid-color:#000000;solid-opacity:1;vector-effect:none;fill:#ffffff;fill-opacity:1;fill-rule:evenodd;stroke:#3b74b9;stroke-width:1;stroke-linecap:butt;stroke-linejoin:miter;stroke-miterlimit:4;stroke-dasharray:none;stroke-dashoffset:0;stroke-opacity:1;marker:none;color-rendering:auto;image-rendering:auto;shape-rendering:auto;text-rendering:auto;enable-background:accumulate"
       id="path815"
       cx="15"
       cy="15"
       r="14.5" />
<g transform="translate(6.5,7.0)"><path fill-rule="nonzero" fill="rgb(30%,30%,30%)" fill-opacity="1" d="M 5.046875 7.933594 L 7.421875 7.933594 C 7.875 7.929688 8.246094 7.5625 8.246094 7.105469 L 8.246094 0.824219 C 8.246094 0.371094 7.875 0 7.421875 0 L 1.800781 0 C 1.34375 0 0.976562 0.371094 0.976562 0.824219 L 0.976562 7.105469 C 0.976562 7.5625 1.34375 7.929688 1.800781 7.933594 Z M 2.925781 1.714844 C 2.925781 1.6875 2.9375 1.664062 2.953125 1.644531 C 2.972656 1.625 3 1.617188 3.023438 1.617188 L 4.910156 1.617188 C 6.402344 1.617188 6.628906 2.578125 6.628906 3.152344 C 6.628906 4.121094 6.015625 4.65625 4.910156 4.65625 L 3.984375 4.65625 L 3.984375 6.210938 C 3.984375 6.234375 3.972656 6.261719 3.957031 6.28125 C 3.9375 6.296875 3.910156 6.308594 3.886719 6.308594 L 3.023438 6.308594 C 3 6.308594 2.972656 6.296875 2.953125 6.28125 C 2.9375 6.261719 2.925781 6.234375 2.925781 6.210938 Z M 2.925781 1.714844 "/>
<path fill-rule="nonzero" fill="rgb(30%,30%,30%)" fill-opacity="1" d="M 5.585938 3.15625 C 5.585938 2.632812 5.265625 2.347656 4.679688 2.347656 L 3.984375 2.347656 L 3.984375 3.933594 L 4.679688 3.933594 C 5.09375 3.929688 5.585938 3.796875 5.585938 3.15625 Z M 5.585938 3.15625 "/>
<path fill-rule="nonzero" fill="rgb(30%,30%,30%)" fill-opacity="1" d="M 14.308594 10.410156 C 13.941406 10.410156 13.582031 10.484375 13.25 10.625 L 12.296875 9.144531 L 12.609375 9.15625 L 12.609375 7.492188 C 11.828125 7.492188 11.515625 7.824219 11.390625 8.066406 L 9.378906 6.996094 C 9.207031 6.90625 8.996094 6.96875 8.902344 7.140625 L 8.808594 7.316406 C 8.71875 7.488281 8.785156 7.699219 8.953125 7.792969 L 10.015625 8.355469 C 6.242188 8.816406 6.089844 10.015625 5.957031 9.925781 C 5.347656 9.519531 2.671875 9.480469 2.671875 9.480469 L 2.671875 10.089844 C 3.371094 9.988281 4.023438 10.128906 4.5625 10.472656 C 4.550781 10.480469 4.542969 10.488281 4.535156 10.496094 L 4.191406 10.867188 C 3.171875 10.179688 1.816406 10.273438 0.898438 11.09375 C -0.0195312 11.910156 -0.265625 13.246094 0.300781 14.339844 C 0.863281 15.429688 2.097656 16.003906 3.292969 15.726562 C 4.492188 15.453125 5.351562 14.402344 5.382812 13.171875 L 5.960938 13.101562 C 6.070312 13.324219 8.351562 13.734375 10.378906 13.535156 C 10.949219 13.480469 11.105469 12.765625 11.105469 12.765625 L 11.230469 9.359375 L 11.289062 9.152344 L 12.527344 11.082031 C 11.550781 11.941406 11.332031 13.375 12 14.488281 C 12.671875 15.605469 14.042969 16.082031 15.257812 15.621094 C 16.476562 15.160156 17.191406 13.898438 16.957031 12.617188 C 16.722656 11.339844 15.609375 10.410156 14.308594 10.410156 Z M 4.265625 12.09375 C 4.335938 12.199219 4.390625 12.3125 4.4375 12.429688 L 3.898438 12.492188 Z M 2.691406 14.972656 C 1.90625 14.976562 1.203125 14.484375 0.933594 13.746094 C 0.664062 13.007812 0.882812 12.179688 1.484375 11.671875 C 2.085938 11.164062 2.941406 11.089844 3.621094 11.480469 L 2.429688 12.769531 C 2.289062 12.921875 2.296875 13.160156 2.449219 13.300781 L 2.550781 13.394531 C 2.660156 13.496094 2.820312 13.523438 2.957031 13.464844 L 4.554688 13.273438 C 4.46875 14.234375 3.660156 14.972656 2.691406 14.972656 Z M 5.273438 12.328125 C 5.179688 12.019531 5.035156 11.734375 4.839844 11.476562 L 5.1875 11.097656 C 5.199219 11.089844 5.207031 11.078125 5.214844 11.0625 C 5.480469 11.390625 5.683594 11.796875 5.8125 12.261719 Z M 14.269531 14.972656 C 13.511719 14.972656 12.824219 14.511719 12.539062 13.808594 C 12.25 13.101562 12.421875 12.292969 12.964844 11.761719 L 13.9375 13.273438 C 14.0625 13.46875 14.328125 13.527344 14.523438 13.402344 C 14.722656 13.273438 14.78125 13.011719 14.652344 12.8125 L 13.695312 11.324219 C 14.398438 11.097656 15.167969 11.304688 15.664062 11.851562 C 16.15625 12.402344 16.28125 13.191406 15.980469 13.863281 C 15.679688 14.539062 15.011719 14.972656 14.269531 14.972656 Z M 14.269531 14.972656 "/>
</g>
</svg>
