<?xml version="1.0" encoding="UTF-8" standalone="no"?>
<!-- Created with Inkscape (http://www.inkscape.org/) -->

<svg
   xmlns:dc="http://purl.org/dc/elements/1.1/"
   xmlns:cc="http://creativecommons.org/ns#"
   xmlns:rdf="http://www.w3.org/1999/02/22-rdf-syntax-ns#"
   xmlns:svg="http://www.w3.org/2000/svg"
   xmlns="http://www.w3.org/2000/svg"
   xmlns:xlink="http://www.w3.org/1999/xlink"
   xmlns:sodipodi="http://sodipodi.sourceforge.net/DTD/sodipodi-0.dtd"
   xmlns:inkscape="http://www.inkscape.org/namespaces/inkscape"
   width="30px"
   height="30px"
   version="1.1"
   id="svg8"
   inkscape:version="0.92.4 5da689c313, 2019-01-14"
   sodipodi:docname="container.svg">
  <defs
     id="defs2" />
  <sodipodi:namedview
     id="base"
     pagecolor="#ffffff"
     bordercolor="#666666"
     borderopacity="1.0"
     inkscape:pageopacity="0.0"
     inkscape:pageshadow="2"
     inkscape:zoom="13.049334"
     inkscape:cx="18.679046"
     inkscape:cy="12.165829"
     inkscape:document-units="px"
     inkscape:current-layer="layer1"
     showgrid="false"
     inkscape:snap-page="false"
     units="px"
     inkscape:window-width="1884"
     inkscape:window-height="1061"
     inkscape:window-x="0"
     inkscape:window-y="0"
     inkscape:window-maximized="1"
     fit-margin-top="0"
     fit-margin-left="0"
     fit-margin-right="0"
     fit-margin-bottom="0" />
  <metadata
     id="metadata5">
    <rdf:RDF>
      <cc:Work
         rdf:about="">
        <dc:format>image/svg+xml</dc:format>
        <dc:type
           rdf:resource="http://purl.org/dc/dcmitype/StillImage" />
        <dc:title></dc:title>
      </cc:Work>
    </rdf:RDF>
  </metadata>
    <circle
       style="color:#000000;clip-rule:nonzero;display:inline;overflow:visible;visibility:visible;opacity:1;isolation:auto;mix-blend-mode:normal;color-interpolation:sRGB;color-interpolation-filters:linearRGB;solid-color:#000000;solid-opacity:1;vector-effect:none;fill:#ffffff;fill-opacity:1;fill-rule:evenodd;stroke:#3b74b9;stroke-width:1;stroke-linecap:butt;stroke-linejoin:miter;stroke-miterlimit:4;stroke-dasharray:none;stroke-dashoffset:0;stroke-opacity:1;marker:none;color-rendering:auto;image-rendering:auto;shape-rendering:auto;text-rendering:auto;enable-background:accumulate"
       id="path815"
       cx="15"
       cy="15"
       r="14.5" />
<g transform="translate(6.5,6.5)"><path fill-rule="nonzero" fill="rgb(30%,30%,30%)" fill-opacity="1" d="M 13.261719 10.492188 C 12.625 10.488281 12.007812 10.675781 11.476562 11.023438 L 10.144531 9.414062 L 10.820312 7.820312 C 10.820312 7.820312 11.082031 7.820312 11.085938 7.816406 L 13.425781 7.816406 C 13.875 7.816406 14.238281 7.453125 14.238281 7.003906 L 14.238281 0.8125 C 14.238281 0.363281 13.875 0 13.425781 0 L 7.886719 0 C 7.4375 0 7.074219 0.363281 7.074219 0.8125 L 7.074219 7.003906 C 7.074219 7.453125 7.4375 7.816406 7.886719 7.816406 L 10.066406 7.816406 L 9.632812 8.917969 L 5.273438 8.902344 L 5.257812 8.882812 C 5.25 8.867188 5.238281 8.855469 5.226562 8.84375 L 5.480469 8.085938 L 6.460938 8.085938 C 6.636719 8.085938 6.78125 7.941406 6.78125 7.765625 C 6.78125 7.585938 6.636719 7.445312 6.460938 7.445312 L 5.019531 7.445312 L 4.371094 9.367188 L 3.960938 10.566406 C 3.730469 10.515625 3.492188 10.492188 3.253906 10.492188 C 1.460938 10.492188 0 11.949219 0 13.746094 C 0 15.539062 1.460938 17 3.253906 17 C 5.050781 17 6.507812 15.539062 6.507812 13.746094 C 6.507812 12.417969 5.710938 11.277344 4.574219 10.769531 L 4.976562 9.582031 L 8.121094 13.839844 C 8.179688 13.921875 8.277344 13.96875 8.378906 13.96875 C 8.386719 13.96875 8.394531 13.96875 8.402344 13.96875 C 8.410156 13.96875 8.414062 13.96875 8.421875 13.96875 L 10.011719 13.96875 C 10.128906 15.660156 11.542969 17 13.261719 17 C 15.054688 17 16.515625 15.539062 16.515625 13.746094 C 16.515625 11.949219 15.054688 10.492188 13.261719 10.492188 Z M 8.996094 1.695312 C 8.996094 1.640625 9.039062 1.597656 9.09375 1.597656 L 10.949219 1.597656 C 12.421875 1.597656 12.640625 2.542969 12.640625 3.109375 C 12.640625 4.066406 12.039062 4.59375 10.949219 4.59375 L 10.039062 4.59375 L 10.039062 6.125 C 10.039062 6.175781 9.996094 6.222656 9.941406 6.222656 L 9.09375 6.222656 C 9.039062 6.222656 8.996094 6.175781 8.996094 6.125 Z M 5.867188 13.746094 C 5.867188 15.183594 4.695312 16.355469 3.253906 16.355469 C 1.816406 16.355469 0.644531 15.183594 0.644531 13.746094 C 0.644531 12.304688 1.816406 11.132812 3.253906 11.132812 C 3.421875 11.132812 3.589844 11.148438 3.753906 11.179688 L 2.945312 13.558594 C 2.886719 13.726562 2.976562 13.910156 3.144531 13.964844 C 3.3125 14.023438 3.496094 13.933594 3.554688 13.765625 L 4.363281 11.382812 C 5.28125 11.8125 5.867188 12.734375 5.867188 13.746094 Z M 12.550781 13.328125 L 10.683594 13.328125 C 10.769531 12.796875 11.015625 12.308594 11.390625 11.925781 Z M 8.273438 12.960938 L 5.75 9.546875 L 9.417969 9.558594 Z M 8.828125 13.328125 L 9.902344 10.128906 L 10.976562 11.425781 C 10.457031 11.9375 10.125 12.605469 10.03125 13.328125 Z M 13.261719 16.355469 C 11.894531 16.355469 10.773438 15.304688 10.65625 13.96875 L 13.214844 13.96875 C 13.34375 13.964844 13.457031 13.890625 13.507812 13.773438 C 13.5625 13.660156 13.542969 13.523438 13.464844 13.425781 L 11.890625 11.523438 C 12.300781 11.269531 12.777344 11.132812 13.261719 11.132812 C 14.699219 11.132812 15.871094 12.304688 15.871094 13.746094 C 15.871094 15.183594 14.699219 16.355469 13.261719 16.355469 Z M 13.261719 16.355469 "/>
<path fill-rule="nonzero" fill="rgb(30%,30%,30%)" fill-opacity="1" d="M 11.617188 3.109375 C 11.617188 2.59375 11.296875 2.3125 10.722656 2.3125 L 10.039062 2.3125 L 10.039062 3.875 L 10.722656 3.875 C 11.128906 3.875 11.617188 3.742188 11.617188 3.109375 Z M 11.617188 3.109375 "/>
</g>
</svg>
