<?xml version="1.0" encoding="UTF-8"?>
<svg xmlns="http://www.w3.org/2000/svg" xmlns:xlink="http://www.w3.org/1999/xlink" width="7.96856" height="11" viewBox="0 0 7.96856 11">
<path fill-rule="nonzero" fill="rgb(30%,30%,30%)" fill-opacity="1" d="M 7.460938 4.214844 C 7.242188 3.40625 7.464844 2.769531 7.617188 2.351562 C 7.671875 2.191406 7.726562 2.066406 7.726562 1.957031 C 7.730469 1.710938 6.664062 0.640625 6.664062 0.640625 L 6.429688 0.855469 L 6.796875 1.253906 C 6.660156 1.5625 6.640625 1.925781 6.753906 2.273438 C 6.808594 2.457031 6.898438 2.625 7.019531 2.773438 C 6.917969 3.191406 6.863281 3.71875 7.03125 4.332031 C 7.398438 5.679688 7.800781 8.566406 7.261719 9.273438 C 7.195312 9.363281 7.121094 9.402344 7.023438 9.402344 C 6.75 9.402344 6.546875 9.316406 6.398438 9.136719 C 6.082031 8.75 6.105469 8 6.164062 7.699219 C 6.175781 7.652344 6.214844 7.535156 6.261719 7.410156 C 6.519531 6.691406 7.117188 5.03125 6.238281 4 C 6.242188 3.96875 6.242188 3.941406 6.242188 3.910156 L 6.242188 0.917969 C 6.242188 0.414062 5.832031 0 5.324219 0 L 1.515625 0 C 1.007812 0 0.597656 0.414062 0.59375 0.917969 L 0.59375 3.910156 C 0.597656 4.417969 1.007812 4.828125 1.515625 4.832031 L 1.5625 4.832031 L 1.5625 10.480469 L 0.261719 10.480469 C 0.117188 10.480469 0 10.597656 0 10.738281 C 0 10.882812 0.117188 11 0.261719 11 L 6.578125 11 C 6.722656 11 6.835938 10.882812 6.835938 10.738281 C 6.835938 10.597656 6.722656 10.480469 6.578125 10.480469 L 5.277344 10.480469 L 5.277344 4.832031 L 5.324219 4.832031 C 5.601562 4.832031 5.867188 4.703125 6.039062 4.484375 C 6.53125 5.335938 6.074219 6.613281 5.839844 7.257812 C 5.78125 7.425781 5.742188 7.53125 5.726562 7.613281 C 5.726562 7.621094 5.507812 8.753906 6.054688 9.417969 C 6.285156 9.703125 6.613281 9.847656 7.023438 9.847656 C 7.261719 9.847656 7.464844 9.742188 7.617188 9.542969 C 8.40625 8.507812 7.644531 4.886719 7.460938 4.214844 Z M 6.964844 2.207031 C 6.894531 1.988281 6.886719 1.753906 6.9375 1.527344 C 7.097656 1.683594 7.246094 1.859375 7.28125 1.933594 C 7.269531 1.996094 7.234375 2.09375 7.195312 2.199219 C 7.164062 2.289062 7.128906 2.386719 7.09375 2.496094 C 7.039062 2.40625 6.996094 2.308594 6.964844 2.207031 Z M 5.464844 3.5 C 5.464844 3.867188 5.167969 4.164062 4.800781 4.167969 L 2.039062 4.167969 C 1.671875 4.164062 1.371094 3.867188 1.371094 3.5 L 1.371094 1.332031 C 1.371094 0.964844 1.671875 0.664062 2.039062 0.664062 L 4.800781 0.664062 C 5.167969 0.664062 5.464844 0.964844 5.464844 1.332031 Z M 5.464844 3.5 "/>
</svg>
