<?xml version="1.0" encoding="UTF-8"?>
<svg xmlns="http://www.w3.org/2000/svg" xmlns:xlink="http://www.w3.org/1999/xlink" width="10.686085" height="11" viewBox="0 0 10.686085 11">
<path fill-rule="nonzero" fill="rgb(30%,30%,30%)" fill-opacity="1" d="M 8.578125 6.789062 C 8.171875 6.789062 7.769531 6.90625 7.425781 7.132812 L 6.5625 6.089844 L 7 5.0625 C 7 5.058594 7.171875 5.058594 7.171875 5.058594 L 8.6875 5.058594 C 8.976562 5.058594 9.214844 4.820312 9.214844 4.53125 L 9.214844 0.527344 C 9.214844 0.234375 8.976562 0 8.6875 0 L 5.105469 0 C 4.8125 0 4.578125 0.234375 4.578125 0.527344 L 4.578125 4.53125 C 4.578125 4.820312 4.8125 5.058594 5.105469 5.058594 L 6.515625 5.058594 L 6.234375 5.769531 L 3.414062 5.761719 L 3.402344 5.746094 C 3.398438 5.738281 3.390625 5.730469 3.382812 5.722656 L 3.546875 5.234375 L 4.179688 5.234375 C 4.296875 5.234375 4.386719 5.140625 4.386719 5.023438 C 4.386719 4.910156 4.296875 4.816406 4.179688 4.816406 L 3.25 4.816406 L 2.828125 6.0625 L 2.5625 6.839844 C 2.414062 6.804688 2.261719 6.789062 2.105469 6.789062 C 0.945312 6.789062 0 7.734375 0 8.894531 C 0 10.054688 0.945312 11 2.105469 11 C 3.265625 11 4.210938 10.054688 4.210938 8.894531 C 4.210938 8.035156 3.695312 7.296875 2.957031 6.96875 L 3.21875 6.199219 L 5.253906 8.957031 C 5.292969 9.007812 5.355469 9.039062 5.421875 9.039062 C 5.425781 9.039062 5.433594 9.039062 5.4375 9.039062 C 5.441406 9.039062 5.445312 9.039062 5.449219 9.039062 L 6.480469 9.039062 C 6.554688 10.132812 7.46875 11 8.578125 11 C 9.742188 11 10.6875 10.054688 10.6875 8.894531 C 10.6875 7.734375 9.742188 6.789062 8.578125 6.789062 Z M 5.820312 1.097656 C 5.820312 1.0625 5.847656 1.03125 5.882812 1.03125 L 7.085938 1.03125 C 8.039062 1.03125 8.179688 1.644531 8.179688 2.011719 C 8.179688 2.632812 7.792969 2.972656 7.085938 2.972656 L 6.496094 2.972656 L 6.496094 3.960938 C 6.496094 3.996094 6.46875 4.023438 6.433594 4.023438 L 5.882812 4.023438 C 5.847656 4.023438 5.820312 3.996094 5.820312 3.960938 Z M 3.796875 8.894531 C 3.796875 9.824219 3.039062 10.585938 2.105469 10.585938 C 1.175781 10.585938 0.414062 9.824219 0.414062 8.894531 C 0.414062 7.960938 1.175781 7.203125 2.105469 7.203125 C 2.214844 7.203125 2.324219 7.214844 2.429688 7.234375 L 1.90625 8.773438 C 1.867188 8.882812 1.925781 9 2.035156 9.035156 C 2.144531 9.074219 2.261719 9.015625 2.300781 8.90625 L 2.824219 7.363281 C 3.417969 7.644531 3.796875 8.238281 3.796875 8.894531 Z M 8.121094 8.625 L 6.910156 8.625 C 6.96875 8.28125 7.128906 7.964844 7.371094 7.714844 Z M 5.351562 8.386719 L 3.71875 6.175781 L 6.09375 6.1875 Z M 5.710938 8.625 L 6.40625 6.554688 L 7.101562 7.394531 C 6.765625 7.722656 6.550781 8.15625 6.492188 8.625 Z M 8.578125 10.585938 C 7.699219 10.585938 6.96875 9.902344 6.894531 9.039062 L 8.550781 9.039062 C 8.632812 9.035156 8.707031 8.988281 8.742188 8.914062 C 8.773438 8.839844 8.765625 8.75 8.714844 8.6875 L 7.695312 7.457031 C 7.960938 7.289062 8.265625 7.203125 8.578125 7.203125 C 9.511719 7.203125 10.269531 7.960938 10.269531 8.894531 C 10.269531 9.824219 9.511719 10.585938 8.578125 10.585938 Z M 8.578125 10.585938 "/>
<path fill-rule="nonzero" fill="rgb(30%,30%,30%)" fill-opacity="1" d="M 7.515625 2.011719 C 7.515625 1.679688 7.3125 1.496094 6.9375 1.496094 L 6.496094 1.496094 L 6.496094 2.507812 L 6.9375 2.507812 C 7.203125 2.507812 7.515625 2.421875 7.515625 2.011719 Z M 7.515625 2.011719 "/>
</svg>
