<?xml version="1.0" encoding="UTF-8" standalone="no"?>
<!-- Created with Inkscape (http://www.inkscape.org/) -->

<svg
   xmlns:dc="http://purl.org/dc/elements/1.1/"
   xmlns:cc="http://creativecommons.org/ns#"
   xmlns:rdf="http://www.w3.org/1999/02/22-rdf-syntax-ns#"
   xmlns:svg="http://www.w3.org/2000/svg"
   xmlns="http://www.w3.org/2000/svg"
   xmlns:xlink="http://www.w3.org/1999/xlink"
   xmlns:sodipodi="http://sodipodi.sourceforge.net/DTD/sodipodi-0.dtd"
   xmlns:inkscape="http://www.inkscape.org/namespaces/inkscape"
   width="30px"
   height="30px"
   version="1.1"
   id="svg8"
   inkscape:version="0.92.4 5da689c313, 2019-01-14"
   sodipodi:docname="container.svg">
  <defs
     id="defs2" />
  <sodipodi:namedview
     id="base"
     pagecolor="#ffffff"
     bordercolor="#666666"
     borderopacity="1.0"
     inkscape:pageopacity="0.0"
     inkscape:pageshadow="2"
     inkscape:zoom="13.049334"
     inkscape:cx="18.679046"
     inkscape:cy="12.165829"
     inkscape:document-units="px"
     inkscape:current-layer="layer1"
     showgrid="false"
     inkscape:snap-page="false"
     units="px"
     inkscape:window-width="1884"
     inkscape:window-height="1061"
     inkscape:window-x="0"
     inkscape:window-y="0"
     inkscape:window-maximized="1"
     fit-margin-top="0"
     fit-margin-left="0"
     fit-margin-right="0"
     fit-margin-bottom="0" />
  <metadata
     id="metadata5">
    <rdf:RDF>
      <cc:Work
         rdf:about="">
        <dc:format>image/svg+xml</dc:format>
        <dc:type
           rdf:resource="http://purl.org/dc/dcmitype/StillImage" />
        <dc:title></dc:title>
      </cc:Work>
    </rdf:RDF>
  </metadata>
    <circle
       style="color:#000000;clip-rule:nonzero;display:inline;overflow:visible;visibility:visible;opacity:1;isolation:auto;mix-blend-mode:normal;color-interpolation:sRGB;color-interpolation-filters:linearRGB;solid-color:#000000;solid-opacity:1;vector-effect:none;fill:#ffffff;fill-opacity:1;fill-rule:evenodd;stroke:#3b74b9;stroke-width:1;stroke-linecap:butt;stroke-linejoin:miter;stroke-miterlimit:4;stroke-dasharray:none;stroke-dashoffset:0;stroke-opacity:1;marker:none;color-rendering:auto;image-rendering:auto;shape-rendering:auto;text-rendering:auto;enable-background:accumulate"
       id="path815"
       cx="15"
       cy="15"
       r="14.5" />
<g transform="translate(7.0,6.5)"><path fill-rule="nonzero" fill="rgb(30%,30%,30%)" fill-opacity="1" d="M 16.132812 2.285156 L 12.351562 2.285156 C 12.15625 2.285156 11.996094 2.445312 11.996094 2.636719 L 11.996094 9.691406 C 11.996094 9.886719 12.15625 10.046875 12.351562 10.046875 L 16.132812 10.046875 C 16.328125 10.046875 16.488281 9.886719 16.488281 9.691406 L 16.488281 2.636719 C 16.488281 2.445312 16.328125 2.285156 16.132812 2.285156 Z M 14.414062 8.195312 L 13.390625 9.085938 L 12.742188 8.128906 L 13.15625 8.15625 L 14.183594 6.300781 L 12.835938 6.300781 L 14.140625 3.242188 L 15.4375 3.242188 L 14.089844 5.640625 L 15.609375 5.53125 L 13.769531 8.15625 Z M 14.414062 8.195312 "/>
<path fill-rule="nonzero" fill="rgb(30%,30%,30%)" fill-opacity="1" d="M 11.578125 12.640625 C 11.273438 12.640625 10.984375 12.703125 10.722656 12.816406 L 9.953125 11.617188 L 10.203125 11.625 L 10.203125 10.28125 C 9.574219 10.28125 9.320312 10.550781 9.21875 10.742188 L 8.210938 10.207031 C 8.210938 10.207031 7.90625 10.042969 7.753906 9.953125 C 6.796875 9.394531 6.113281 8.492188 5.832031 7.417969 C 5.550781 6.34375 5.703125 5.226562 6.265625 4.265625 C 6.824219 3.308594 7.726562 2.625 8.800781 2.34375 C 8.816406 2.339844 8.828125 2.335938 8.835938 2.332031 C 8.898438 2.390625 8.96875 2.4375 9.035156 2.480469 C 9.242188 2.617188 9.5 2.695312 9.789062 2.710938 C 9.835938 2.714844 9.882812 2.71875 9.933594 2.722656 C 9.941406 2.722656 10.125 2.703125 10.199219 2.691406 C 10.199219 2.691406 10.203125 2.691406 10.203125 2.691406 L 11.746094 2.28125 C 11.777344 2.273438 11.796875 2.242188 11.789062 2.210938 L 11.675781 1.816406 C 11.664062 1.785156 11.683594 1.753906 11.714844 1.742188 L 12.375 1.570312 C 12.402344 1.5625 12.417969 1.539062 12.417969 1.515625 C 12.421875 1.503906 12.421875 1.492188 12.421875 1.480469 L 12.347656 1.214844 C 12.339844 1.183594 12.308594 1.167969 12.277344 1.175781 L 11.617188 1.355469 C 11.585938 1.363281 11.554688 1.347656 11.546875 1.316406 C 11.542969 1.316406 11.542969 1.3125 11.542969 1.3125 L 11.449219 0.933594 C 11.441406 0.902344 11.460938 0.871094 11.492188 0.863281 L 12.164062 0.679688 C 12.195312 0.671875 12.210938 0.640625 12.203125 0.609375 L 12.132812 0.34375 C 12.121094 0.3125 12.089844 0.296875 12.058594 0.304688 L 11.402344 0.484375 C 11.371094 0.492188 11.339844 0.476562 11.332031 0.445312 C 11.328125 0.445312 11.328125 0.441406 11.328125 0.441406 L 11.230469 0.0429688 C 11.222656 0.0117188 11.191406 -0.0078125 11.160156 0 C 11.160156 0 11.160156 0 11.160156 0.00390625 L 9.621094 0.417969 C 9.617188 0.417969 9.613281 0.417969 9.613281 0.421875 C 9.007812 0.664062 8.640625 1.105469 8.605469 1.617188 C 7.339844 1.949219 6.277344 2.753906 5.617188 3.886719 C 4.953125 5.019531 4.773438 6.339844 5.105469 7.609375 C 5.4375 8.878906 6.242188 9.941406 7.375 10.605469 C 7.53125 10.695312 7.691406 10.777344 7.851562 10.847656 L 7.855469 10.84375 L 8.105469 10.976562 C 5.054688 11.351562 4.929688 12.324219 4.820312 12.25 C 4.328125 11.921875 2.164062 11.886719 2.164062 11.886719 L 2.164062 12.382812 C 2.730469 12.300781 3.257812 12.414062 3.691406 12.691406 C 3.683594 12.699219 3.675781 12.703125 3.671875 12.710938 L 3.394531 13.011719 C 3.046875 12.777344 2.628906 12.640625 2.179688 12.640625 C 0.976562 12.640625 0 13.617188 0 14.820312 C 0 16.023438 0.976562 17 2.179688 17 C 3.363281 17 4.328125 16.054688 4.359375 14.875 L 4.824219 14.820312 C 4.910156 15 6.757812 15.332031 8.398438 15.171875 C 8.859375 15.125 8.988281 14.546875 8.988281 14.546875 L 9.085938 11.789062 L 9.136719 11.621094 L 10.140625 13.183594 C 9.6875 13.585938 9.398438 14.167969 9.398438 14.820312 C 9.398438 16.023438 10.375 17 11.578125 17 C 12.78125 17 13.757812 16.023438 13.757812 14.820312 C 13.757812 13.617188 12.78125 12.640625 11.578125 12.640625 Z M 3.453125 14.003906 C 3.507812 14.089844 3.554688 14.179688 3.589844 14.273438 L 3.15625 14.328125 Z M 2.179688 16.335938 C 1.34375 16.335938 0.664062 15.65625 0.664062 14.820312 C 0.664062 13.984375 1.34375 13.304688 2.179688 13.304688 C 2.453125 13.304688 2.710938 13.378906 2.933594 13.507812 L 1.964844 14.550781 C 1.851562 14.675781 1.859375 14.867188 1.980469 14.980469 L 2.0625 15.058594 C 2.15625 15.140625 2.285156 15.160156 2.390625 15.113281 L 3.6875 14.957031 C 3.617188 15.730469 2.96875 16.335938 2.179688 16.335938 Z M 4.265625 14.195312 C 4.191406 13.941406 4.070312 13.707031 3.917969 13.503906 L 4.199219 13.199219 C 4.207031 13.191406 4.214844 13.179688 4.222656 13.171875 C 4.433594 13.4375 4.597656 13.761719 4.703125 14.140625 Z M 11.550781 16.335938 C 10.714844 16.335938 10.035156 15.65625 10.035156 14.820312 C 10.035156 14.394531 10.210938 14.011719 10.492188 13.738281 L 11.277344 14.957031 C 11.382812 15.117188 11.59375 15.164062 11.753906 15.0625 C 11.914062 14.960938 11.960938 14.746094 11.859375 14.585938 L 11.085938 13.378906 C 11.230469 13.332031 11.386719 13.304688 11.550781 13.304688 C 12.386719 13.304688 13.0625 13.984375 13.0625 14.820312 C 13.0625 15.65625 12.386719 16.335938 11.550781 16.335938 Z M 11.550781 16.335938 "/>
</g>
</svg>
