<?xml version="1.0" encoding="UTF-8"?>
<svg xmlns="http://www.w3.org/2000/svg" xmlns:xlink="http://www.w3.org/1999/xlink" width="11" height="9.634161" viewBox="0 0 11 9.634161">
<path fill-rule="nonzero" fill="rgb(30%,30%,30%)" fill-opacity="1" d="M 10.550781 4.386719 L 9.851562 4.378906 C 9.761719 4.375 9.691406 4.308594 9.683594 4.222656 C 9.605469 3.195312 9.0625 2.503906 8.136719 2.113281 L 8.136719 0.402344 C 8.136719 0.179688 7.953125 0 7.730469 0 L 3.136719 0 C 2.914062 0 2.734375 0.179688 2.734375 0.402344 L 2.734375 2.011719 C 2.472656 2.121094 2.242188 2.265625 2.050781 2.457031 C 1.53125 2.984375 1.230469 3.605469 1.1875 4.230469 C 1.183594 4.320312 1.109375 4.390625 1.019531 4.390625 L 0.449219 4.386719 C 0.199219 4.386719 0 4.585938 0 4.832031 C 0 5.035156 0.0273438 5.265625 0.535156 5.363281 C 0.585938 5.371094 0.628906 5.40625 0.652344 5.453125 C 0.675781 5.503906 0.675781 5.558594 0.652344 5.605469 C 0.511719 5.859375 0.5 6.136719 0.5 6.421875 C 0.5 6.785156 0.625 7.324219 0.898438 7.707031 C 0.921875 7.742188 0.933594 7.78125 0.929688 7.824219 C 0.925781 7.851562 0.925781 7.878906 0.925781 7.90625 L 0.925781 8.808594 C 0.925781 9.265625 1.292969 9.632812 1.75 9.632812 L 1.804688 9.632812 C 2.257812 9.632812 2.628906 9.265625 2.628906 8.808594 L 2.628906 8.453125 C 2.632812 8.453125 2.636719 8.453125 2.640625 8.453125 C 3.363281 8.511719 7.007812 8.519531 8.210938 8.449219 C 8.257812 8.445312 8.300781 8.460938 8.335938 8.496094 C 8.371094 8.527344 8.390625 8.570312 8.390625 8.617188 L 8.390625 8.808594 C 8.390625 9.265625 8.757812 9.632812 9.214844 9.632812 L 9.269531 9.632812 C 9.722656 9.632812 10.09375 9.265625 10.09375 8.808594 L 10.09375 7.90625 C 10.09375 7.886719 10.09375 7.871094 10.09375 7.851562 C 10.089844 7.8125 10.101562 7.773438 10.125 7.738281 C 10.382812 7.382812 10.480469 6.769531 10.480469 6.421875 C 10.480469 6.144531 10.460938 5.84375 10.324219 5.582031 C 10.300781 5.539062 10.300781 5.488281 10.320312 5.441406 C 10.339844 5.394531 10.378906 5.359375 10.425781 5.34375 C 10.445312 5.339844 10.460938 5.335938 10.476562 5.332031 C 10.851562 5.214844 11 5.078125 11 4.832031 C 11 4.585938 10.800781 4.386719 10.550781 4.386719 Z M 2.570312 7.660156 C 2.179688 7.660156 1.863281 7.34375 1.863281 6.957031 C 1.863281 6.566406 2.179688 6.25 2.570312 6.25 C 2.957031 6.25 3.273438 6.566406 3.273438 6.957031 C 3.273438 7.34375 2.957031 7.660156 2.570312 7.660156 Z M 1.597656 4.632812 C 1.753906 2.28125 3.035156 2.144531 4.871094 2.140625 L 5.394531 2.140625 C 7.511719 2.140625 9.207031 2.296875 9.253906 4.632812 C 9.273438 5.605469 7.480469 5.851562 5.363281 5.851562 C 3.25 5.851562 1.53125 5.605469 1.597656 4.632812 Z M 8.566406 7.660156 C 8.179688 7.660156 7.863281 7.34375 7.863281 6.957031 C 7.863281 6.566406 8.179688 6.25 8.566406 6.25 C 8.957031 6.25 9.273438 6.566406 9.273438 6.957031 C 9.273438 7.34375 8.957031 7.660156 8.566406 7.660156 Z M 3.480469 0.550781 L 3.050781 0.550781 L 3.050781 0.25 L 4.28125 0.25 L 4.28125 0.550781 L 3.84375 0.550781 L 3.84375 1.847656 L 3.480469 1.847656 Z M 4.675781 1.4375 L 4.558594 1.847656 L 4.1875 1.847656 L 4.675781 0.25 L 5.148438 0.25 L 5.644531 1.847656 L 5.253906 1.847656 L 5.132812 1.4375 Z M 5.082031 1.167969 L 4.980469 0.828125 C 4.953125 0.730469 4.921875 0.613281 4.898438 0.519531 L 4.894531 0.519531 C 4.871094 0.613281 4.847656 0.734375 4.820312 0.828125 L 4.726562 1.167969 Z M 6.644531 1.847656 L 6.5 1.558594 C 6.441406 1.445312 6.402344 1.363281 6.355469 1.269531 L 6.351562 1.269531 C 6.320312 1.363281 6.277344 1.445312 6.226562 1.558594 L 6.09375 1.847656 L 5.683594 1.847656 L 6.144531 1.039062 L 5.699219 0.25 L 6.113281 0.25 L 6.253906 0.539062 C 6.300781 0.636719 6.335938 0.714844 6.375 0.804688 L 6.378906 0.804688 C 6.417969 0.703125 6.449219 0.632812 6.488281 0.539062 L 6.625 0.25 L 7.039062 0.25 L 6.585938 1.027344 L 7.0625 1.847656 Z M 7.617188 0.25 L 7.617188 1.847656 L 7.253906 1.847656 L 7.253906 0.25 Z M 7.617188 0.25 "/>
</svg>
