<?xml version="1.0" encoding="UTF-8"?>
<svg xmlns="http://www.w3.org/2000/svg" xmlns:xlink="http://www.w3.org/1999/xlink" width="11" height="6.666555" viewBox="0 0 11 6.666555">
<path fill-rule="nonzero" fill="rgb(30%,30%,30%)" fill-opacity="1" d="M 9.4375 2.425781 L 9.035156 1.132812 L 8.300781 1.132812 L 7.828125 0 L 7.191406 0 L 7.320312 1.132812 L 6.820312 1.132812 L 6.617188 2.035156 L 0.804688 2.035156 L 1.074219 2.726562 L 0 2.726562 L 0.632812 4.957031 C 0.800781 4.929688 0.980469 4.863281 1.164062 4.792969 C 1.421875 4.695312 1.683594 4.597656 1.960938 4.585938 C 2.339844 4.570312 2.65625 4.695312 2.933594 4.804688 C 3.152344 4.894531 3.339844 4.96875 3.53125 4.96875 C 3.84375 4.96875 4.0625 4.875 4.296875 4.777344 C 4.503906 4.691406 4.722656 4.601562 4.996094 4.585938 C 5.472656 4.558594 5.820312 4.699219 6.125 4.824219 C 6.289062 4.890625 6.4375 4.949219 6.582031 4.972656 L 6.90625 4.972656 C 7.128906 4.941406 7.292969 4.867188 7.460938 4.785156 C 7.660156 4.691406 7.867188 4.59375 8.152344 4.570312 C 8.585938 4.539062 8.910156 4.679688 9.195312 4.804688 C 9.386719 4.890625 9.550781 4.964844 9.722656 4.96875 L 10.824219 2.726562 L 11 2.425781 Z M 9.4375 2.425781 "/>
<path fill-rule="nonzero" fill="rgb(30%,30%,30%)" fill-opacity="1" d="M 9.675781 6.199219 C 9.507812 6.195312 9.339844 6.121094 9.148438 6.039062 C 8.863281 5.914062 8.542969 5.769531 8.105469 5.804688 C 7.824219 5.824219 7.617188 5.921875 7.417969 6.015625 C 7.195312 6.121094 6.984375 6.21875 6.648438 6.214844 C 6.46875 6.210938 6.289062 6.136719 6.082031 6.054688 C 5.773438 5.929688 5.429688 5.789062 4.949219 5.816406 C 4.675781 5.832031 4.460938 5.921875 4.25 6.011719 C 4.019531 6.109375 3.796875 6.199219 3.484375 6.199219 C 3.292969 6.199219 3.105469 6.125 2.886719 6.035156 C 2.609375 5.925781 2.292969 5.800781 1.914062 5.816406 C 1.640625 5.828125 1.375 5.929688 1.121094 6.023438 C 0.878906 6.113281 0.652344 6.199219 0.445312 6.199219 C 0.328125 6.199219 0.207031 6.183594 0.0898438 6.152344 L 0.09375 6.617188 C 0.210938 6.640625 0.328125 6.652344 0.445312 6.652344 C 0.734375 6.652344 1.011719 6.546875 1.277344 6.449219 C 1.511719 6.359375 1.730469 6.277344 1.933594 6.269531 C 2.21875 6.257812 2.460938 6.355469 2.71875 6.457031 C 2.957031 6.554688 3.207031 6.652344 3.484375 6.652344 C 3.890625 6.652344 4.171875 6.535156 4.425781 6.429688 C 4.613281 6.347656 4.777344 6.28125 4.976562 6.269531 C 5.351562 6.25 5.636719 6.363281 5.910156 6.472656 C 6.140625 6.566406 6.375 6.660156 6.640625 6.667969 C 6.65625 6.667969 6.667969 6.667969 6.683594 6.667969 C 7.101562 6.667969 7.371094 6.539062 7.609375 6.425781 C 7.789062 6.34375 7.941406 6.269531 8.140625 6.253906 C 8.460938 6.230469 8.707031 6.339844 8.964844 6.453125 C 9.183594 6.546875 9.40625 6.644531 9.664062 6.652344 C 9.679688 6.652344 9.699219 6.652344 9.714844 6.652344 C 10.0625 6.652344 10.378906 6.558594 10.589844 6.472656 L 10.589844 5.976562 C 10.476562 6.035156 10.097656 6.210938 9.675781 6.199219 Z M 9.675781 6.199219 "/>
<path fill-rule="nonzero" fill="rgb(30%,30%,30%)" fill-opacity="1" d="M 9.675781 5.34375 C 9.507812 5.339844 9.339844 5.265625 9.148438 5.183594 C 8.863281 5.058594 8.542969 4.914062 8.105469 4.949219 C 7.824219 4.96875 7.617188 5.066406 7.417969 5.160156 C 7.195312 5.265625 6.984375 5.363281 6.648438 5.359375 C 6.46875 5.355469 6.289062 5.28125 6.082031 5.199219 C 5.773438 5.074219 5.429688 4.9375 4.949219 4.960938 C 4.675781 4.976562 4.460938 5.066406 4.25 5.15625 C 4.019531 5.253906 3.796875 5.34375 3.484375 5.34375 C 3.292969 5.34375 3.105469 5.269531 2.886719 5.179688 C 2.609375 5.070312 2.292969 4.945312 1.914062 4.960938 C 1.640625 4.972656 1.375 5.074219 1.121094 5.167969 C 0.878906 5.257812 0.652344 5.34375 0.445312 5.34375 C 0.328125 5.34375 0.207031 5.328125 0.0898438 5.300781 L 0.09375 5.761719 C 0.210938 5.785156 0.328125 5.796875 0.445312 5.796875 C 0.734375 5.796875 1.011719 5.691406 1.277344 5.59375 C 1.511719 5.503906 1.730469 5.421875 1.933594 5.414062 C 2.21875 5.402344 2.460938 5.5 2.71875 5.601562 C 2.957031 5.699219 3.207031 5.796875 3.484375 5.796875 C 3.890625 5.796875 4.171875 5.679688 4.425781 5.574219 C 4.613281 5.492188 4.777344 5.425781 4.976562 5.414062 C 5.351562 5.394531 5.636719 5.507812 5.910156 5.617188 C 6.140625 5.710938 6.375 5.804688 6.640625 5.8125 C 6.65625 5.8125 6.667969 5.8125 6.683594 5.8125 C 7.101562 5.8125 7.371094 5.683594 7.609375 5.570312 C 7.789062 5.488281 7.941406 5.414062 8.140625 5.398438 C 8.460938 5.375 8.707031 5.484375 8.964844 5.597656 C 9.183594 5.691406 9.40625 5.789062 9.664062 5.796875 C 9.679688 5.796875 9.699219 5.796875 9.714844 5.796875 C 10.0625 5.796875 10.378906 5.703125 10.589844 5.617188 L 10.589844 5.121094 C 10.476562 5.179688 10.097656 5.355469 9.675781 5.34375 Z M 9.675781 5.34375 "/>
</svg>
