<?xml version="1.0" encoding="UTF-8" standalone="no"?>
<!-- Created with Inkscape (http://www.inkscape.org/) -->

<svg
   xmlns:dc="http://purl.org/dc/elements/1.1/"
   xmlns:cc="http://creativecommons.org/ns#"
   xmlns:rdf="http://www.w3.org/1999/02/22-rdf-syntax-ns#"
   xmlns:svg="http://www.w3.org/2000/svg"
   xmlns="http://www.w3.org/2000/svg"
   xmlns:xlink="http://www.w3.org/1999/xlink"
   xmlns:sodipodi="http://sodipodi.sourceforge.net/DTD/sodipodi-0.dtd"
   xmlns:inkscape="http://www.inkscape.org/namespaces/inkscape"
   width="30px"
   height="30px"
   version="1.1"
   id="svg8"
   inkscape:version="0.92.4 5da689c313, 2019-01-14"
   sodipodi:docname="container.svg">
  <defs
     id="defs2" />
  <sodipodi:namedview
     id="base"
     pagecolor="#ffffff"
     bordercolor="#666666"
     borderopacity="1.0"
     inkscape:pageopacity="0.0"
     inkscape:pageshadow="2"
     inkscape:zoom="13.049334"
     inkscape:cx="18.679046"
     inkscape:cy="12.165829"
     inkscape:document-units="px"
     inkscape:current-layer="layer1"
     showgrid="false"
     inkscape:snap-page="false"
     units="px"
     inkscape:window-width="1884"
     inkscape:window-height="1061"
     inkscape:window-x="0"
     inkscape:window-y="0"
     inkscape:window-maximized="1"
     fit-margin-top="0"
     fit-margin-left="0"
     fit-margin-right="0"
     fit-margin-bottom="0" />
  <metadata
     id="metadata5">
    <rdf:RDF>
      <cc:Work
         rdf:about="">
        <dc:format>image/svg+xml</dc:format>
        <dc:type
           rdf:resource="http://purl.org/dc/dcmitype/StillImage" />
        <dc:title></dc:title>
      </cc:Work>
    </rdf:RDF>
  </metadata>
    <circle
       style="color:#000000;clip-rule:nonzero;display:inline;overflow:visible;visibility:visible;opacity:1;isolation:auto;mix-blend-mode:normal;color-interpolation:sRGB;color-interpolation-filters:linearRGB;solid-color:#000000;solid-opacity:1;vector-effect:none;fill:#008ecf;fill-opacity:1;fill-rule:evenodd;stroke:#ffffff;stroke-width:1;stroke-linecap:butt;stroke-linejoin:miter;stroke-miterlimit:4;stroke-dasharray:none;stroke-dashoffset:0;stroke-opacity:1;marker:none;color-rendering:auto;image-rendering:auto;shape-rendering:auto;text-rendering:auto;enable-background:accumulate"
       id="path815"
       cx="15"
       cy="15"
       r="14.5" />
<g transform="translate(6.5,9.0)"><path fill-rule="nonzero" fill="#FFFFFF" fill-opacity="1" d="M 3.898438 0.0546875 L 5.609375 0.0546875 L 5.246094 12.082031 L 0 12.082031 Z M 16.683594 0 L 11.511719 0.0234375 C 11.21875 0.0234375 11.082031 0.390625 11.304688 0.578125 L 12.695312 1.761719 C 12.707031 1.773438 12.714844 1.792969 12.710938 1.8125 C 12.707031 1.828125 12.695312 1.84375 12.679688 1.851562 C 12.238281 2.007812 10.199219 2.789062 9.242188 4.105469 L 7.964844 0.0546875 L 6.171875 0.0546875 L 6.589844 12.082031 L 11.78125 12.082031 L 11.234375 10.332031 C 10.902344 9.054688 10.539062 7.394531 10.628906 6.53125 C 10.917969 3.816406 13.25 3.023438 13.566406 2.925781 C 13.585938 2.917969 13.609375 2.929688 13.613281 2.949219 L 14.328125 5.171875 C 14.417969 5.449219 14.804688 5.46875 14.917969 5.199219 L 16.972656 0.441406 C 17.015625 0.34375 17.007812 0.230469 16.949219 0.140625 C 16.886719 0.0546875 16.789062 0 16.683594 0 Z M 16.683594 0 "/>
</g>
</svg>
