<?xml version="1.0" encoding="UTF-8" standalone="no"?>
<!-- Created with Inkscape (http://www.inkscape.org/) -->

<svg
   xmlns:dc="http://purl.org/dc/elements/1.1/"
   xmlns:cc="http://creativecommons.org/ns#"
   xmlns:rdf="http://www.w3.org/1999/02/22-rdf-syntax-ns#"
   xmlns:svg="http://www.w3.org/2000/svg"
   xmlns="http://www.w3.org/2000/svg"
   xmlns:xlink="http://www.w3.org/1999/xlink"
   xmlns:sodipodi="http://sodipodi.sourceforge.net/DTD/sodipodi-0.dtd"
   xmlns:inkscape="http://www.inkscape.org/namespaces/inkscape"
   width="30px"
   height="30px"
   version="1.1"
   id="svg8"
   inkscape:version="0.92.4 5da689c313, 2019-01-14"
   sodipodi:docname="container.svg">
  <defs
     id="defs2" />
  <sodipodi:namedview
     id="base"
     pagecolor="#ffffff"
     bordercolor="#666666"
     borderopacity="1.0"
     inkscape:pageopacity="0.0"
     inkscape:pageshadow="2"
     inkscape:zoom="13.049334"
     inkscape:cx="18.679046"
     inkscape:cy="12.165829"
     inkscape:document-units="px"
     inkscape:current-layer="layer1"
     showgrid="false"
     inkscape:snap-page="false"
     units="px"
     inkscape:window-width="1884"
     inkscape:window-height="1061"
     inkscape:window-x="0"
     inkscape:window-y="0"
     inkscape:window-maximized="1"
     fit-margin-top="0"
     fit-margin-left="0"
     fit-margin-right="0"
     fit-margin-bottom="0" />
  <metadata
     id="metadata5">
    <rdf:RDF>
      <cc:Work
         rdf:about="">
        <dc:format>image/svg+xml</dc:format>
        <dc:type
           rdf:resource="http://purl.org/dc/dcmitype/StillImage" />
        <dc:title></dc:title>
      </cc:Work>
    </rdf:RDF>
  </metadata>
    <circle
       style="color:#000000;clip-rule:nonzero;display:inline;overflow:visible;visibility:visible;opacity:1;isolation:auto;mix-blend-mode:normal;color-interpolation:sRGB;color-interpolation-filters:linearRGB;solid-color:#000000;solid-opacity:1;vector-effect:none;fill:#008ecf;fill-opacity:1;fill-rule:evenodd;stroke:#ffffff;stroke-width:1;stroke-linecap:butt;stroke-linejoin:miter;stroke-miterlimit:4;stroke-dasharray:none;stroke-dashoffset:0;stroke-opacity:1;marker:none;color-rendering:auto;image-rendering:auto;shape-rendering:auto;text-rendering:auto;enable-background:accumulate"
       id="path815"
       cx="15"
       cy="15"
       r="14.5" />
<g transform="translate(6.5,7.0)"><path fill-rule="nonzero" fill="#FFFFFF" fill-opacity="1" d="M 16.996094 13.367188 C 16.96875 12.773438 16.703125 12.21875 16.246094 11.800781 C 15.792969 11.382812 15.21875 11.160156 14.621094 11.167969 C 14.601562 11.167969 14.574219 11.167969 14.539062 11.167969 L 11.484375 0.554688 L 11.484375 0.546875 L 11.480469 0.539062 C 11.402344 0.382812 11.257812 0.28125 11.085938 0.261719 L 8.699219 0.0078125 C 8.390625 -0.0351562 8.042969 0.121094 7.996094 0.445312 L 7.988281 0.476562 L 7.988281 0.484375 C 7.964844 0.65625 7.996094 0.796875 8.078125 0.902344 C 8.167969 1.015625 8.3125 1.085938 8.515625 1.109375 L 10.378906 1.300781 C 10.515625 1.3125 10.632812 1.394531 10.699219 1.515625 L 12.984375 9.597656 L 10.996094 12.714844 L 10.996094 12.71875 C 10.925781 12.839844 10.796875 12.914062 10.65625 12.914062 L 6.09375 12.941406 C 5.984375 12.128906 5.625 11.40625 5.046875 10.84375 C 4.355469 10.171875 3.421875 9.804688 2.414062 9.804688 C 2.136719 9.804688 1.914062 10.027344 1.914062 10.304688 C 1.914062 10.582031 2.136719 10.804688 2.414062 10.804688 C 3.769531 10.804688 4.851562 11.679688 5.082031 12.949219 L 4.554688 12.949219 C 4.414062 12.429688 4.132812 11.988281 3.734375 11.667969 C 3.320312 11.332031 2.8125 11.15625 2.273438 11.167969 C 1.6875 11.179688 1.132812 11.410156 0.707031 11.820312 C 0.28125 12.234375 0.03125 12.78125 0.00390625 13.363281 C -0.0273438 14.003906 0.195312 14.613281 0.636719 15.074219 C 1.078125 15.539062 1.675781 15.796875 2.3125 15.796875 C 3.386719 15.796875 4.273438 15.070312 4.542969 13.984375 L 11.222656 13.960938 C 11.40625 13.960938 11.582031 13.859375 11.671875 13.699219 L 13.390625 10.960938 L 13.542969 11.4375 C 13.105469 11.730469 12.773438 12.109375 12.578125 12.535156 C 12.367188 12.996094 12.316406 13.511719 12.433594 14.03125 C 12.609375 14.800781 13.175781 15.429688 13.917969 15.671875 C 14.679688 15.917969 15.46875 15.792969 16.085938 15.320312 C 16.695312 14.859375 17.035156 14.128906 16.996094 13.367188 Z M 13.78125 13.554688 C 13.804688 13.890625 14.011719 14.179688 14.3125 14.296875 C 14.601562 14.410156 14.910156 14.378906 15.152344 14.210938 C 15.394531 14.046875 15.535156 13.773438 15.535156 13.484375 C 15.535156 13.128906 15.335938 12.875 14.96875 12.757812 L 14.777344 12.113281 C 15.164062 12.152344 15.5 12.308594 15.738281 12.566406 C 15.980469 12.820312 16.109375 13.164062 16.097656 13.527344 C 16.085938 13.871094 15.949219 14.199219 15.707031 14.453125 C 15.46875 14.707031 15.148438 14.859375 14.804688 14.890625 C 14.40625 14.921875 14.023438 14.792969 13.730469 14.519531 C 13.441406 14.253906 13.273438 13.875 13.273438 13.480469 C 13.273438 13.066406 13.457031 12.6875 13.820312 12.351562 L 13.996094 12.941406 C 13.800781 13.195312 13.769531 13.367188 13.78125 13.554688 Z M 2.945312 12.972656 C 2.777344 12.726562 2.566406 12.609375 2.304688 12.605469 C 2.300781 12.605469 2.300781 12.605469 2.296875 12.605469 C 1.882812 12.605469 1.523438 12.894531 1.441406 13.296875 C 1.382812 13.5625 1.449219 13.832031 1.617188 14.039062 C 1.785156 14.246094 2.03125 14.363281 2.296875 14.363281 C 2.5625 14.363281 2.78125 14.242188 2.992188 13.976562 L 3.652344 13.972656 C 3.363281 14.558594 2.882812 14.894531 2.3125 14.894531 C 1.921875 14.894531 1.558594 14.738281 1.289062 14.453125 C 1.019531 14.167969 0.882812 13.796875 0.902344 13.40625 C 0.941406 12.671875 1.546875 12.085938 2.28125 12.070312 C 2.292969 12.070312 2.304688 12.070312 2.3125 12.070312 C 2.605469 12.070312 2.882812 12.160156 3.113281 12.328125 C 3.324219 12.484375 3.492188 12.703125 3.613281 12.96875 Z M 2.945312 12.972656 "/>
</g>
</svg>
