<?xml version="1.0" encoding="UTF-8"?>
<svg xmlns="http://www.w3.org/2000/svg" xmlns:xlink="http://www.w3.org/1999/xlink" width="6.378826" height="11" viewBox="0 0 6.378826 11">
<path fill-rule="nonzero" fill="rgb(30%,30%,30%)" fill-opacity="1" d="M 1.914062 7.21875 C 1.9375 7.183594 1.980469 7.164062 2.023438 7.167969 C 2.261719 7.203125 2.5 7.195312 2.730469 7.148438 C 3.210938 7.074219 3.683594 6.847656 4.117188 6.492188 C 4.191406 6.4375 4.265625 6.378906 4.339844 6.316406 C 4.347656 6.308594 4.589844 6.039062 4.679688 5.925781 C 4.683594 5.921875 4.683594 5.917969 4.6875 5.914062 L 6.359375 3.300781 C 6.394531 3.25 6.378906 3.179688 6.328125 3.144531 C 6.324219 3.144531 6.324219 3.144531 6.324219 3.144531 L 5.644531 2.726562 C 5.589844 2.695312 5.570312 2.625 5.605469 2.570312 L 6.324219 1.453125 C 6.355469 1.410156 6.347656 1.351562 6.3125 1.316406 C 6.304688 1.292969 6.289062 1.273438 6.269531 1.261719 L 5.820312 0.980469 C 5.765625 0.949219 5.695312 0.964844 5.664062 1.015625 L 4.957031 2.144531 C 4.921875 2.195312 4.851562 2.214844 4.800781 2.179688 C 4.796875 2.179688 4.796875 2.179688 4.796875 2.179688 L 4.164062 1.757812 C 4.113281 1.722656 4.097656 1.652344 4.128906 1.601562 L 4.847656 0.457031 C 4.882812 0.402344 4.867188 0.332031 4.8125 0.300781 L 4.363281 0.015625 C 4.3125 -0.015625 4.242188 0 4.207031 0.0546875 L 3.5 1.175781 C 3.46875 1.230469 3.398438 1.246094 3.34375 1.214844 C 3.34375 1.210938 3.34375 1.210938 3.34375 1.210938 L 2.679688 0.769531 C 2.625 0.734375 2.554688 0.75 2.519531 0.800781 C 2.519531 0.800781 2.519531 0.800781 2.519531 0.804688 L 0.859375 3.425781 C 0.855469 3.429688 0.855469 3.433594 0.851562 3.4375 C 0.277344 4.640625 0.351562 5.835938 1.066406 6.613281 C 1.101562 6.648438 1.109375 6.707031 1.078125 6.75 C 0.445312 7.738281 -0.34375 8.972656 0.160156 10.0625 C 0.332031 10.4375 0.621094 10.734375 0.964844 10.988281 L 2.933594 11 C 2.820312 10.941406 2.703125 10.882812 2.585938 10.820312 C 1.957031 10.503906 1.246094 10.140625 1.027344 9.664062 C 0.742188 9.046875 1.375 8.058594 1.882812 7.265625 C 1.894531 7.25 1.902344 7.234375 1.914062 7.21875 Z M 1.914062 7.21875 "/>
</svg>
