<?xml version="1.0" encoding="UTF-8" standalone="no"?>
<!-- Created with Inkscape (http://www.inkscape.org/) -->

<svg
   xmlns:dc="http://purl.org/dc/elements/1.1/"
   xmlns:cc="http://creativecommons.org/ns#"
   xmlns:rdf="http://www.w3.org/1999/02/22-rdf-syntax-ns#"
   xmlns:svg="http://www.w3.org/2000/svg"
   xmlns="http://www.w3.org/2000/svg"
   xmlns:xlink="http://www.w3.org/1999/xlink"
   xmlns:sodipodi="http://sodipodi.sourceforge.net/DTD/sodipodi-0.dtd"
   xmlns:inkscape="http://www.inkscape.org/namespaces/inkscape"
   width="30px"
   height="30px"
   version="1.1"
   id="svg8"
   inkscape:version="0.92.4 5da689c313, 2019-01-14"
   sodipodi:docname="container.svg">
  <defs
     id="defs2" />
  <sodipodi:namedview
     id="base"
     pagecolor="#ffffff"
     bordercolor="#666666"
     borderopacity="1.0"
     inkscape:pageopacity="0.0"
     inkscape:pageshadow="2"
     inkscape:zoom="13.049334"
     inkscape:cx="18.679046"
     inkscape:cy="12.165829"
     inkscape:document-units="px"
     inkscape:current-layer="layer1"
     showgrid="false"
     inkscape:snap-page="false"
     units="px"
     inkscape:window-width="1884"
     inkscape:window-height="1061"
     inkscape:window-x="0"
     inkscape:window-y="0"
     inkscape:window-maximized="1"
     fit-margin-top="0"
     fit-margin-left="0"
     fit-margin-right="0"
     fit-margin-bottom="0" />
  <metadata
     id="metadata5">
    <rdf:RDF>
      <cc:Work
         rdf:about="">
        <dc:format>image/svg+xml</dc:format>
        <dc:type
           rdf:resource="http://purl.org/dc/dcmitype/StillImage" />
        <dc:title></dc:title>
      </cc:Work>
    </rdf:RDF>
  </metadata>
    <circle
       style="color:#000000;clip-rule:nonzero;display:inline;overflow:visible;visibility:visible;opacity:1;isolation:auto;mix-blend-mode:normal;color-interpolation:sRGB;color-interpolation-filters:linearRGB;solid-color:#000000;solid-opacity:1;vector-effect:none;fill:#008ecf;fill-opacity:1;fill-rule:evenodd;stroke:#ffffff;stroke-width:1;stroke-linecap:butt;stroke-linejoin:miter;stroke-miterlimit:4;stroke-dasharray:none;stroke-dashoffset:0;stroke-opacity:1;marker:none;color-rendering:auto;image-rendering:auto;shape-rendering:auto;text-rendering:auto;enable-background:accumulate"
       id="path815"
       cx="15"
       cy="15"
       r="14.5" />
<g transform="translate(10.0,6.5)"><path fill-rule="nonzero" fill="#FFFFFF" fill-opacity="1" d="M 2.957031 11.160156 C 2.992188 11.101562 3.0625 11.070312 3.128906 11.082031 C 3.492188 11.132812 3.863281 11.121094 4.222656 11.046875 C 4.960938 10.929688 5.691406 10.585938 6.363281 10.035156 C 6.476562 9.949219 6.589844 9.859375 6.707031 9.761719 C 6.71875 9.75 7.089844 9.332031 7.230469 9.160156 C 7.234375 9.15625 7.242188 9.148438 7.246094 9.144531 L 9.832031 5.101562 C 9.882812 5.019531 9.859375 4.910156 9.777344 4.859375 C 9.777344 4.859375 9.773438 4.859375 9.773438 4.859375 L 8.71875 4.214844 C 8.636719 4.164062 8.613281 4.058594 8.660156 3.976562 C 8.664062 3.972656 8.664062 3.972656 8.664062 3.972656 L 9.777344 2.246094 C 9.820312 2.179688 9.8125 2.089844 9.757812 2.03125 C 9.742188 2 9.71875 1.972656 9.6875 1.953125 L 8.996094 1.515625 C 8.914062 1.464844 8.804688 1.488281 8.753906 1.570312 L 7.65625 3.3125 C 7.605469 3.394531 7.5 3.421875 7.417969 3.367188 C 7.414062 3.367188 7.414062 3.367188 7.414062 3.367188 L 6.433594 2.714844 C 6.355469 2.664062 6.332031 2.554688 6.382812 2.476562 L 7.496094 0.703125 C 7.546875 0.621094 7.519531 0.515625 7.4375 0.464844 L 6.746094 0.0273438 C 6.664062 -0.0234375 6.554688 0 6.503906 0.0820312 L 5.410156 1.820312 C 5.359375 1.902344 5.25 1.925781 5.167969 1.875 C 5.167969 1.875 5.167969 1.875 5.164062 1.871094 L 4.136719 1.1875 C 4.058594 1.136719 3.949219 1.15625 3.894531 1.238281 C 3.894531 1.238281 3.894531 1.242188 3.894531 1.242188 L 1.328125 5.292969 C 1.324219 5.300781 1.320312 5.308594 1.316406 5.3125 C 0.429688 7.167969 0.546875 9.019531 1.648438 10.21875 C 1.703125 10.277344 1.710938 10.363281 1.667969 10.433594 C 0.691406 11.960938 -0.527344 13.867188 0.246094 15.554688 C 0.511719 16.132812 0.960938 16.589844 1.488281 16.980469 L 4.53125 17 C 4.359375 16.90625 4.179688 16.816406 3.996094 16.722656 C 3.023438 16.230469 1.921875 15.671875 1.585938 14.9375 C 1.148438 13.984375 2.125 12.457031 2.914062 11.226562 C 2.925781 11.203125 2.941406 11.183594 2.957031 11.160156 Z M 2.957031 11.160156 "/>
</g>
</svg>
