<?xml version="1.0" encoding="UTF-8" standalone="no"?>
<!-- Created with Inkscape (http://www.inkscape.org/) -->

<svg
   xmlns:dc="http://purl.org/dc/elements/1.1/"
   xmlns:cc="http://creativecommons.org/ns#"
   xmlns:rdf="http://www.w3.org/1999/02/22-rdf-syntax-ns#"
   xmlns:svg="http://www.w3.org/2000/svg"
   xmlns="http://www.w3.org/2000/svg"
   xmlns:xlink="http://www.w3.org/1999/xlink"
   xmlns:sodipodi="http://sodipodi.sourceforge.net/DTD/sodipodi-0.dtd"
   xmlns:inkscape="http://www.inkscape.org/namespaces/inkscape"
   width="30px"
   height="30px"
   version="1.1"
   id="svg8"
   inkscape:version="0.92.4 5da689c313, 2019-01-14"
   sodipodi:docname="container.svg">
  <defs
     id="defs2" />
  <sodipodi:namedview
     id="base"
     pagecolor="#ffffff"
     bordercolor="#666666"
     borderopacity="1.0"
     inkscape:pageopacity="0.0"
     inkscape:pageshadow="2"
     inkscape:zoom="13.049334"
     inkscape:cx="18.679046"
     inkscape:cy="12.165829"
     inkscape:document-units="px"
     inkscape:current-layer="layer1"
     showgrid="false"
     inkscape:snap-page="false"
     units="px"
     inkscape:window-width="1884"
     inkscape:window-height="1061"
     inkscape:window-x="0"
     inkscape:window-y="0"
     inkscape:window-maximized="1"
     fit-margin-top="0"
     fit-margin-left="0"
     fit-margin-right="0"
     fit-margin-bottom="0" />
  <metadata
     id="metadata5">
    <rdf:RDF>
      <cc:Work
         rdf:about="">
        <dc:format>image/svg+xml</dc:format>
        <dc:type
           rdf:resource="http://purl.org/dc/dcmitype/StillImage" />
        <dc:title></dc:title>
      </cc:Work>
    </rdf:RDF>
  </metadata>
    <circle
       style="color:#000000;clip-rule:nonzero;display:inline;overflow:visible;visibility:visible;opacity:1;isolation:auto;mix-blend-mode:normal;color-interpolation:sRGB;color-interpolation-filters:linearRGB;solid-color:#000000;solid-opacity:1;vector-effect:none;fill:#008ecf;fill-opacity:1;fill-rule:evenodd;stroke:#ffffff;stroke-width:1;stroke-linecap:butt;stroke-linejoin:miter;stroke-miterlimit:4;stroke-dasharray:none;stroke-dashoffset:0;stroke-opacity:1;marker:none;color-rendering:auto;image-rendering:auto;shape-rendering:auto;text-rendering:auto;enable-background:accumulate"
       id="path815"
       cx="15"
       cy="15"
       r="14.5" />
<g transform="translate(6.5,10.0)"><path fill-rule="nonzero" fill="#FFFFFF" fill-opacity="1" d="M 14.585938 3.75 L 13.960938 1.753906 L 12.828125 1.753906 L 12.101562 0 L 11.113281 0 L 11.3125 1.753906 L 10.539062 1.753906 L 10.226562 3.144531 L 1.242188 3.144531 L 1.660156 4.214844 L 0 4.214844 L 0.980469 7.660156 C 1.238281 7.617188 1.511719 7.515625 1.800781 7.40625 C 2.195312 7.257812 2.601562 7.105469 3.03125 7.085938 C 3.617188 7.058594 4.101562 7.253906 4.53125 7.425781 C 4.871094 7.5625 5.160156 7.679688 5.457031 7.679688 C 5.941406 7.679688 6.28125 7.535156 6.636719 7.386719 C 6.960938 7.25 7.296875 7.109375 7.722656 7.085938 C 8.460938 7.046875 8.996094 7.261719 9.46875 7.453125 C 9.722656 7.554688 9.945312 7.644531 10.171875 7.683594 L 10.675781 7.683594 C 11.015625 7.640625 11.269531 7.519531 11.53125 7.394531 C 11.839844 7.25 12.160156 7.097656 12.597656 7.066406 C 13.269531 7.015625 13.769531 7.234375 14.207031 7.425781 C 14.503906 7.558594 14.761719 7.671875 15.023438 7.679688 C 15.027344 7.679688 15.027344 7.679688 15.027344 7.679688 L 16.726562 4.214844 L 17 3.75 Z M 14.585938 3.75 "/>
<path fill-rule="nonzero" fill="#FFFFFF" fill-opacity="1" d="M 14.953125 9.582031 C 14.691406 9.574219 14.433594 9.460938 14.136719 9.332031 C 13.699219 9.136719 13.199219 8.917969 12.527344 8.96875 C 12.089844 9.003906 11.769531 9.152344 11.460938 9.296875 C 11.121094 9.460938 10.796875 9.613281 10.277344 9.601562 C 9.996094 9.597656 9.71875 9.484375 9.398438 9.355469 C 8.925781 9.164062 8.390625 8.949219 7.652344 8.988281 C 7.226562 9.011719 6.890625 9.152344 6.566406 9.289062 C 6.210938 9.441406 5.871094 9.582031 5.386719 9.582031 C 5.089844 9.582031 4.796875 9.464844 4.460938 9.328125 C 4.03125 9.15625 3.546875 8.964844 2.960938 8.988281 C 2.53125 9.007812 2.125 9.160156 1.730469 9.308594 C 1.359375 9.449219 1.007812 9.582031 0.691406 9.582031 C 0.503906 9.578125 0.320312 9.554688 0.140625 9.511719 L 0.148438 10.226562 C 0.328125 10.261719 0.507812 10.28125 0.691406 10.28125 C 1.132812 10.28125 1.5625 10.121094 1.976562 9.964844 C 2.335938 9.828125 2.675781 9.703125 2.992188 9.6875 C 3.425781 9.667969 3.800781 9.820312 4.199219 9.980469 C 4.570312 10.128906 4.957031 10.28125 5.386719 10.28125 C 6.011719 10.28125 6.449219 10.097656 6.839844 9.933594 C 7.132812 9.8125 7.386719 9.703125 7.6875 9.6875 C 8.269531 9.65625 8.710938 9.835938 9.136719 10.003906 C 9.488281 10.148438 9.851562 10.292969 10.265625 10.300781 C 10.285156 10.300781 10.304688 10.304688 10.328125 10.304688 C 10.972656 10.304688 11.390625 10.105469 11.761719 9.929688 C 12.035156 9.800781 12.269531 9.691406 12.582031 9.667969 C 13.078125 9.628906 13.457031 9.796875 13.855469 9.972656 C 14.191406 10.117188 14.535156 10.269531 14.933594 10.28125 C 14.960938 10.28125 14.988281 10.28125 15.015625 10.28125 C 15.554688 10.28125 16.039062 10.132812 16.363281 10.003906 L 16.363281 9.234375 C 16.1875 9.328125 15.605469 9.601562 14.953125 9.582031 Z M 14.953125 9.582031 "/>
<path fill-rule="nonzero" fill="#FFFFFF" fill-opacity="1" d="M 14.953125 8.261719 C 14.691406 8.253906 14.433594 8.140625 14.136719 8.007812 C 13.699219 7.816406 13.199219 7.597656 12.527344 7.648438 C 12.089844 7.679688 11.769531 7.832031 11.460938 7.976562 C 11.121094 8.136719 10.796875 8.289062 10.277344 8.28125 C 9.996094 8.277344 9.71875 8.164062 9.398438 8.035156 C 8.925781 7.84375 8.390625 7.628906 7.652344 7.667969 C 7.226562 7.691406 6.890625 7.832031 6.566406 7.96875 C 6.210938 8.117188 5.871094 8.261719 5.386719 8.261719 C 5.089844 8.261719 4.796875 8.144531 4.460938 8.007812 C 4.03125 7.835938 3.546875 7.640625 2.960938 7.667969 C 2.53125 7.6875 2.125 7.839844 1.730469 7.988281 C 1.359375 8.128906 1.007812 8.261719 0.691406 8.261719 C 0.503906 8.257812 0.320312 8.234375 0.140625 8.1875 L 0.148438 8.90625 C 0.328125 8.941406 0.507812 8.957031 0.691406 8.960938 C 1.132812 8.960938 1.5625 8.796875 1.976562 8.644531 C 2.335938 8.507812 2.675781 8.382812 2.992188 8.367188 C 3.425781 8.347656 3.800781 8.496094 4.199219 8.65625 C 4.570312 8.804688 4.957031 8.960938 5.386719 8.960938 C 6.011719 8.960938 6.449219 8.773438 6.839844 8.613281 C 7.132812 8.488281 7.386719 8.382812 7.6875 8.367188 C 8.269531 8.335938 8.710938 8.511719 9.136719 8.683594 C 9.488281 8.824219 9.851562 8.972656 10.265625 8.980469 C 10.285156 8.980469 10.304688 8.980469 10.328125 8.980469 C 10.972656 8.980469 11.390625 8.785156 11.761719 8.609375 C 12.035156 8.480469 12.269531 8.367188 12.582031 8.34375 C 13.078125 8.308594 13.457031 8.472656 13.855469 8.648438 C 14.191406 8.796875 14.535156 8.949219 14.933594 8.960938 C 14.960938 8.960938 14.988281 8.960938 15.015625 8.960938 C 15.554688 8.960938 16.039062 8.8125 16.363281 8.683594 L 16.363281 7.914062 C 16.1875 8.003906 15.605469 8.277344 14.953125 8.261719 Z M 14.953125 8.261719 "/>
</g>
</svg>
