<?xml version="1.0" encoding="UTF-8"?>
<svg xmlns="http://www.w3.org/2000/svg" xmlns:xlink="http://www.w3.org/1999/xlink" width="11" height="10.768342" viewBox="0 0 11 10.768342">
<path fill-rule="nonzero" fill="rgb(30%,30%,30%)" fill-opacity="1" d="M 1.292969 0.0898438 C 1.292969 0.0390625 1.332031 0 1.382812 0 L 3.101562 0 C 4.464844 0 4.671875 0.878906 4.671875 1.402344 C 4.671875 2.285156 4.113281 2.777344 3.101562 2.777344 L 2.257812 2.777344 L 2.257812 4.191406 C 2.257812 4.246094 2.214844 4.28125 2.167969 4.28125 L 1.382812 4.28125 C 1.332031 4.28125 1.292969 4.242188 1.292969 4.191406 Z M 3.71875 1.402344 C 3.71875 0.925781 3.425781 0.667969 2.890625 0.667969 L 2.257812 0.667969 L 2.257812 2.117188 L 2.890625 2.117188 C 3.269531 2.113281 3.71875 1.988281 3.71875 1.402344 Z M 3.71875 1.402344 "/>
<path fill-rule="nonzero" fill="rgb(30%,30%,30%)" fill-opacity="1" d="M 10.617188 5.734375 L 0.382812 5.734375 C 0.171875 5.734375 0 5.902344 0 6.109375 L 0 10.527344 C 0 10.660156 0.109375 10.769531 0.242188 10.769531 C 0.375 10.769531 0.484375 10.660156 0.484375 10.527344 L 0.484375 6.21875 L 5.28125 6.21875 L 5.28125 10.570312 C 5.28125 10.679688 5.367188 10.769531 5.476562 10.769531 L 5.554688 10.769531 C 5.664062 10.769531 5.753906 10.679688 5.753906 10.570312 L 5.753906 6.21875 L 10.515625 6.21875 L 10.515625 10.527344 C 10.515625 10.660156 10.625 10.769531 10.757812 10.769531 C 10.890625 10.769531 11 10.660156 11 10.527344 L 11 6.109375 C 11 5.902344 10.828125 5.734375 10.617188 5.734375 Z M 10.617188 5.734375 "/>
<path fill-rule="nonzero" fill="rgb(30%,30%,30%)" fill-opacity="1" d="M 0.382812 5.109375 L 10.617188 5.109375 C 10.828125 5.109375 11 4.941406 11 4.738281 L 11 0.320312 C 11 0.183594 10.890625 0.0742188 10.757812 0.0742188 C 10.625 0.0742188 10.515625 0.183594 10.515625 0.320312 L 10.515625 4.625 L 5.71875 4.625 L 5.71875 0.273438 C 5.71875 0.164062 5.632812 0.0742188 5.523438 0.0742188 L 5.445312 0.0742188 C 5.335938 0.0742188 5.246094 0.164062 5.246094 0.273438 L 5.246094 4.625 L 0.484375 4.625 L 0.484375 0.320312 C 0.484375 0.183594 0.375 0.0742188 0.242188 0.0742188 C 0.109375 0.0742188 0 0.183594 0 0.320312 L 0 4.738281 C 0 4.941406 0.171875 5.109375 0.382812 5.109375 Z M 0.382812 5.109375 "/>
<path fill-rule="nonzero" fill="rgb(30%,30%,30%)" fill-opacity="1" d="M 8.523438 4.070312 L 7.988281 4.070312 C 7.355469 4.070312 6.839844 3.554688 6.839844 2.921875 L 6.839844 0.210938 L 9.671875 0.210938 L 9.671875 2.921875 C 9.671875 3.554688 9.15625 4.070312 8.523438 4.070312 Z M 7.085938 0.460938 L 7.085938 2.921875 C 7.085938 3.417969 7.492188 3.824219 7.988281 3.824219 L 8.523438 3.824219 C 9.019531 3.824219 9.421875 3.417969 9.421875 2.921875 L 9.421875 0.460938 Z M 7.085938 0.460938 "/>
<path fill-rule="nonzero" fill="rgb(30%,30%,30%)" fill-opacity="1" d="M 9.671875 10.539062 L 6.839844 10.539062 L 6.839844 7.828125 C 6.839844 7.195312 7.355469 6.679688 7.988281 6.679688 L 8.523438 6.679688 C 9.15625 6.679688 9.671875 7.195312 9.671875 7.828125 Z M 7.085938 10.289062 L 9.421875 10.289062 L 9.421875 7.828125 C 9.421875 7.332031 9.019531 6.925781 8.523438 6.925781 L 7.988281 6.925781 C 7.492188 6.925781 7.085938 7.332031 7.085938 7.828125 Z M 7.085938 10.289062 "/>
<path fill-rule="nonzero" fill="rgb(30%,30%,30%)" fill-opacity="1" d="M 4.234375 10.539062 L 1.402344 10.539062 L 1.402344 7.828125 C 1.402344 7.195312 1.917969 6.679688 2.550781 6.679688 L 3.085938 6.679688 C 3.71875 6.679688 4.234375 7.195312 4.234375 7.828125 Z M 1.648438 10.289062 L 3.984375 10.289062 L 3.984375 7.828125 C 3.984375 7.332031 3.582031 6.925781 3.085938 6.925781 L 2.550781 6.925781 C 2.054688 6.925781 1.648438 7.332031 1.648438 7.828125 Z M 1.648438 10.289062 "/>
</svg>
