<?xml version="1.0" encoding="UTF-8" standalone="no"?>
<!-- Created with Inkscape (http://www.inkscape.org/) -->

<svg
   xmlns:dc="http://purl.org/dc/elements/1.1/"
   xmlns:cc="http://creativecommons.org/ns#"
   xmlns:rdf="http://www.w3.org/1999/02/22-rdf-syntax-ns#"
   xmlns:svg="http://www.w3.org/2000/svg"
   xmlns="http://www.w3.org/2000/svg"
   xmlns:xlink="http://www.w3.org/1999/xlink"
   xmlns:sodipodi="http://sodipodi.sourceforge.net/DTD/sodipodi-0.dtd"
   xmlns:inkscape="http://www.inkscape.org/namespaces/inkscape"
   width="30px"
   height="30px"
   version="1.1"
   id="svg8"
   inkscape:version="0.92.4 5da689c313, 2019-01-14"
   sodipodi:docname="container.svg">
  <defs
     id="defs2" />
  <sodipodi:namedview
     id="base"
     pagecolor="#ffffff"
     bordercolor="#666666"
     borderopacity="1.0"
     inkscape:pageopacity="0.0"
     inkscape:pageshadow="2"
     inkscape:zoom="13.049334"
     inkscape:cx="18.679046"
     inkscape:cy="12.165829"
     inkscape:document-units="px"
     inkscape:current-layer="layer1"
     showgrid="false"
     inkscape:snap-page="false"
     units="px"
     inkscape:window-width="1884"
     inkscape:window-height="1061"
     inkscape:window-x="0"
     inkscape:window-y="0"
     inkscape:window-maximized="1"
     fit-margin-top="0"
     fit-margin-left="0"
     fit-margin-right="0"
     fit-margin-bottom="0" />
  <metadata
     id="metadata5">
    <rdf:RDF>
      <cc:Work
         rdf:about="">
        <dc:format>image/svg+xml</dc:format>
        <dc:type
           rdf:resource="http://purl.org/dc/dcmitype/StillImage" />
        <dc:title></dc:title>
      </cc:Work>
    </rdf:RDF>
  </metadata>
    <circle
       style="color:#000000;clip-rule:nonzero;display:inline;overflow:visible;visibility:visible;opacity:1;isolation:auto;mix-blend-mode:normal;color-interpolation:sRGB;color-interpolation-filters:linearRGB;solid-color:#000000;solid-opacity:1;vector-effect:none;fill:#008ecf;fill-opacity:1;fill-rule:evenodd;stroke:#ffffff;stroke-width:1;stroke-linecap:butt;stroke-linejoin:miter;stroke-miterlimit:4;stroke-dasharray:none;stroke-dashoffset:0;stroke-opacity:1;marker:none;color-rendering:auto;image-rendering:auto;shape-rendering:auto;text-rendering:auto;enable-background:accumulate"
       id="path815"
       cx="15"
       cy="15"
       r="14.5" />
<g transform="translate(7.5,6.5)"><path fill-rule="nonzero" fill="#FFFFFF" fill-opacity="1" d="M 11.628906 0 L 3.105469 0 C 1.390625 0 0 1.390625 0 3.105469 L 0 13.640625 C 0 14.246094 0.488281 14.734375 1.09375 14.734375 L 1.132812 14.734375 L 1.132812 16.132812 C 1.132812 16.609375 1.523438 17 2 17 L 2.53125 17 C 3.011719 17 3.398438 16.609375 3.398438 16.132812 L 3.398438 14.734375 L 11.34375 14.734375 C 11.335938 14.761719 11.335938 14.789062 11.332031 14.820312 L 11.332031 16.15625 C 11.335938 16.621094 11.710938 17 12.175781 17 L 12.757812 17 C 13.222656 17 13.597656 16.621094 13.601562 16.15625 L 13.601562 14.820312 C 13.597656 14.789062 13.59375 14.761719 13.589844 14.734375 L 13.640625 14.734375 C 14.246094 14.734375 14.734375 14.246094 14.734375 13.640625 L 14.734375 3.105469 C 14.734375 1.390625 13.34375 0 11.628906 0 Z M 3.496094 1.699219 L 11.238281 1.699219 C 11.394531 1.699219 11.523438 1.828125 11.523438 1.984375 C 11.523438 2.140625 11.394531 2.265625 11.238281 2.265625 L 3.496094 2.265625 C 3.339844 2.265625 3.210938 2.140625 3.210938 1.984375 C 3.210938 1.828125 3.339844 1.699219 3.496094 1.699219 Z M 2.265625 13.601562 C 1.640625 13.601562 1.132812 13.09375 1.132812 12.464844 C 1.132812 11.839844 1.640625 11.332031 2.265625 11.332031 C 2.894531 11.332031 3.398438 11.839844 3.398438 12.464844 C 3.398438 13.09375 2.894531 13.601562 2.265625 13.601562 Z M 12.464844 13.601562 C 11.839844 13.601562 11.332031 13.09375 11.332031 12.464844 C 11.332031 11.839844 11.839844 11.332031 12.464844 11.332031 C 13.09375 11.332031 13.601562 11.839844 13.601562 12.464844 C 13.601562 13.09375 13.09375 13.601562 12.464844 13.601562 Z M 13.601562 8.636719 C 13.601562 8.875 13.40625 9.066406 13.167969 9.066406 L 1.566406 9.066406 C 1.328125 9.066406 1.132812 8.875 1.132812 8.636719 L 1.132812 3.832031 C 1.132812 3.59375 1.328125 3.398438 1.566406 3.398438 L 13.167969 3.398438 C 13.40625 3.398438 13.601562 3.59375 13.601562 3.832031 Z M 13.601562 8.636719 "/>
</g>
</svg>
