<?xml version="1.0" encoding="UTF-8" standalone="no"?>
<!-- Created with Inkscape (http://www.inkscape.org/) -->

<svg
   xmlns:dc="http://purl.org/dc/elements/1.1/"
   xmlns:cc="http://creativecommons.org/ns#"
   xmlns:rdf="http://www.w3.org/1999/02/22-rdf-syntax-ns#"
   xmlns:svg="http://www.w3.org/2000/svg"
   xmlns="http://www.w3.org/2000/svg"
   xmlns:xlink="http://www.w3.org/1999/xlink"
   xmlns:sodipodi="http://sodipodi.sourceforge.net/DTD/sodipodi-0.dtd"
   xmlns:inkscape="http://www.inkscape.org/namespaces/inkscape"
   width="30px"
   height="30px"
   version="1.1"
   id="svg8"
   inkscape:version="0.92.4 5da689c313, 2019-01-14"
   sodipodi:docname="container.svg">
  <defs
     id="defs2" />
  <sodipodi:namedview
     id="base"
     pagecolor="#ffffff"
     bordercolor="#666666"
     borderopacity="1.0"
     inkscape:pageopacity="0.0"
     inkscape:pageshadow="2"
     inkscape:zoom="13.049334"
     inkscape:cx="18.679046"
     inkscape:cy="12.165829"
     inkscape:document-units="px"
     inkscape:current-layer="layer1"
     showgrid="false"
     inkscape:snap-page="false"
     units="px"
     inkscape:window-width="1884"
     inkscape:window-height="1061"
     inkscape:window-x="0"
     inkscape:window-y="0"
     inkscape:window-maximized="1"
     fit-margin-top="0"
     fit-margin-left="0"
     fit-margin-right="0"
     fit-margin-bottom="0" />
  <metadata
     id="metadata5">
    <rdf:RDF>
      <cc:Work
         rdf:about="">
        <dc:format>image/svg+xml</dc:format>
        <dc:type
           rdf:resource="http://purl.org/dc/dcmitype/StillImage" />
        <dc:title></dc:title>
      </cc:Work>
    </rdf:RDF>
  </metadata>
    <circle
       style="color:#000000;clip-rule:nonzero;display:inline;overflow:visible;visibility:visible;opacity:1;isolation:auto;mix-blend-mode:normal;color-interpolation:sRGB;color-interpolation-filters:linearRGB;solid-color:#000000;solid-opacity:1;vector-effect:none;fill:#ffffff;fill-opacity:1;fill-rule:evenodd;stroke:#3b74b9;stroke-width:1;stroke-linecap:butt;stroke-linejoin:miter;stroke-miterlimit:4;stroke-dasharray:none;stroke-dashoffset:0;stroke-opacity:1;marker:none;color-rendering:auto;image-rendering:auto;shape-rendering:auto;text-rendering:auto;enable-background:accumulate"
       id="path815"
       cx="15"
       cy="15"
       r="14.5" />
<g transform="translate(6.5,7.5)"><path fill-rule="nonzero" fill="rgb(30%,30%,30%)" fill-opacity="1" d="M 13.5625 8.121094 C 12.933594 8.121094 12.324219 8.292969 11.789062 8.613281 L 10.574219 7.148438 L 10.980469 5.941406 L 11.585938 5.941406 C 11.824219 5.941406 12.019531 5.75 12.019531 5.511719 C 12.019531 5.273438 11.828125 5.082031 11.589844 5.078125 L 9.320312 5.074219 C 9.082031 5.074219 8.890625 5.265625 8.886719 5.503906 C 8.886719 5.742188 9.082031 5.9375 9.320312 5.9375 L 9.984375 5.9375 L 9.785156 6.53125 L 5.617188 6.515625 L 5.796875 5.984375 L 6.683594 5.984375 C 6.941406 5.984375 7.15625 5.769531 7.15625 5.511719 C 7.15625 5.25 6.941406 5.039062 6.683594 5.039062 L 5.121094 5.039062 L 4.429688 7.085938 L 4.058594 8.175781 C 3.855469 8.140625 3.644531 8.121094 3.4375 8.121094 C 1.542969 8.121094 0 9.664062 0 11.558594 C 0 13.457031 1.542969 15 3.4375 15 C 5.335938 15 6.878906 13.457031 6.878906 11.558594 C 6.878906 10.246094 6.128906 9.050781 4.953125 8.472656 L 5.230469 7.660156 L 8.242188 11.742188 C 8.332031 11.863281 8.472656 11.933594 8.625 11.933594 C 8.632812 11.933594 8.640625 11.933594 8.648438 11.933594 C 8.652344 11.933594 8.660156 11.933594 8.664062 11.933594 L 10.140625 11.933594 C 10.230469 12.75 10.605469 13.503906 11.210938 14.070312 C 11.851562 14.667969 12.683594 15 13.5625 15 C 15.457031 15 17 13.457031 17 11.558594 C 17 9.664062 15.457031 8.121094 13.5625 8.121094 Z M 9.46875 7.472656 L 8.464844 10.453125 L 6.253906 7.460938 Z M 11.054688 9.207031 C 10.589844 9.703125 10.28125 10.328125 10.167969 10.992188 L 9.28125 10.992188 L 10.21875 8.199219 Z M 11.132812 10.992188 C 11.222656 10.605469 11.402344 10.246094 11.664062 9.941406 L 12.53125 10.992188 Z M 13.5625 14.054688 C 12.933594 14.054688 12.332031 13.820312 11.871094 13.394531 C 11.449219 13.007812 11.179688 12.492188 11.09375 11.933594 L 13.515625 11.933594 C 13.757812 11.933594 13.964844 11.746094 13.984375 11.507812 C 14.003906 11.375 13.964844 11.246094 13.882812 11.144531 L 12.398438 9.351562 C 12.757812 9.164062 13.15625 9.066406 13.5625 9.066406 C 14.9375 9.066406 16.054688 10.183594 16.054688 11.558594 C 16.054688 12.9375 14.9375 14.054688 13.5625 14.054688 Z M 2.988281 11.324219 C 2.945312 11.445312 2.953125 11.570312 3.011719 11.683594 C 3.066406 11.796875 3.160156 11.882812 3.28125 11.921875 C 3.332031 11.941406 3.382812 11.949219 3.433594 11.949219 C 3.636719 11.949219 3.816406 11.820312 3.878906 11.628906 L 4.644531 9.378906 C 5.003906 9.574219 5.308594 9.859375 5.535156 10.207031 C 5.796875 10.609375 5.933594 11.078125 5.933594 11.558594 C 5.933594 12.9375 4.816406 14.054688 3.4375 14.054688 C 2.0625 14.054688 0.945312 12.9375 0.945312 11.558594 C 0.945312 10.183594 2.0625 9.066406 3.4375 9.066406 C 3.542969 9.066406 3.644531 9.070312 3.75 9.085938 Z M 2.988281 11.324219 "/>
<path fill-rule="nonzero" fill="rgb(30%,30%,30%)" fill-opacity="1" d="M 14.25 0.00390625 C 13.351562 0.00390625 12.550781 0.5625 12.242188 1.410156 L 5.449219 1.410156 C 5.070312 0.316406 3.878906 -0.261719 2.789062 0.113281 C 2.363281 0.261719 1.996094 0.542969 1.742188 0.917969 C 1.644531 1.058594 1.683594 1.246094 1.820312 1.339844 C 1.871094 1.375 1.929688 1.394531 1.992188 1.394531 L 3.378906 1.394531 C 3.671875 1.394531 3.910156 1.632812 3.910156 1.925781 L 3.910156 2.230469 C 3.910156 2.59375 3.613281 2.890625 3.25 2.890625 L 2.066406 2.890625 C 1.898438 2.890625 1.761719 3.027344 1.761719 3.195312 C 1.761719 3.261719 1.785156 3.328125 1.824219 3.378906 C 2.539062 4.289062 3.851562 4.449219 4.761719 3.738281 C 5.054688 3.507812 5.28125 3.203125 5.417969 2.855469 L 12.261719 2.855469 C 12.664062 3.957031 13.882812 4.523438 14.984375 4.121094 C 16.085938 3.71875 16.652344 2.5 16.25 1.398438 C 15.941406 0.558594 15.144531 0.00390625 14.25 0.00390625 Z M 14.25 2.949219 C 13.785156 2.945312 13.414062 2.5625 13.417969 2.097656 C 13.425781 1.632812 13.804688 1.261719 14.269531 1.265625 C 14.730469 1.273438 15.101562 1.648438 15.101562 2.109375 C 15.101562 2.574219 14.722656 2.949219 14.257812 2.949219 C 14.257812 2.949219 14.253906 2.949219 14.25 2.949219 Z M 14.25 2.949219 "/>
</g>
</svg>
