<?xml version="1.0" encoding="UTF-8" standalone="no"?>
<!-- Created with Inkscape (http://www.inkscape.org/) -->

<svg
   xmlns:dc="http://purl.org/dc/elements/1.1/"
   xmlns:cc="http://creativecommons.org/ns#"
   xmlns:rdf="http://www.w3.org/1999/02/22-rdf-syntax-ns#"
   xmlns:svg="http://www.w3.org/2000/svg"
   xmlns="http://www.w3.org/2000/svg"
   xmlns:xlink="http://www.w3.org/1999/xlink"
   xmlns:sodipodi="http://sodipodi.sourceforge.net/DTD/sodipodi-0.dtd"
   xmlns:inkscape="http://www.inkscape.org/namespaces/inkscape"
   width="30px"
   height="30px"
   version="1.1"
   id="svg8"
   inkscape:version="0.92.4 5da689c313, 2019-01-14"
   sodipodi:docname="container.svg">
  <defs
     id="defs2" />
  <sodipodi:namedview
     id="base"
     pagecolor="#ffffff"
     bordercolor="#666666"
     borderopacity="1.0"
     inkscape:pageopacity="0.0"
     inkscape:pageshadow="2"
     inkscape:zoom="13.049334"
     inkscape:cx="18.679046"
     inkscape:cy="12.165829"
     inkscape:document-units="px"
     inkscape:current-layer="layer1"
     showgrid="false"
     inkscape:snap-page="false"
     units="px"
     inkscape:window-width="1884"
     inkscape:window-height="1061"
     inkscape:window-x="0"
     inkscape:window-y="0"
     inkscape:window-maximized="1"
     fit-margin-top="0"
     fit-margin-left="0"
     fit-margin-right="0"
     fit-margin-bottom="0" />
  <metadata
     id="metadata5">
    <rdf:RDF>
      <cc:Work
         rdf:about="">
        <dc:format>image/svg+xml</dc:format>
        <dc:type
           rdf:resource="http://purl.org/dc/dcmitype/StillImage" />
        <dc:title></dc:title>
      </cc:Work>
    </rdf:RDF>
  </metadata>
    <circle
       style="color:#000000;clip-rule:nonzero;display:inline;overflow:visible;visibility:visible;opacity:1;isolation:auto;mix-blend-mode:normal;color-interpolation:sRGB;color-interpolation-filters:linearRGB;solid-color:#000000;solid-opacity:1;vector-effect:none;fill:#ffffff;fill-opacity:1;fill-rule:evenodd;stroke:#3b74b9;stroke-width:1;stroke-linecap:butt;stroke-linejoin:miter;stroke-miterlimit:4;stroke-dasharray:none;stroke-dashoffset:0;stroke-opacity:1;marker:none;color-rendering:auto;image-rendering:auto;shape-rendering:auto;text-rendering:auto;enable-background:accumulate"
       id="path815"
       cx="15"
       cy="15"
       r="14.5" />
<g transform="translate(7.5,6.5)"><path fill-rule="nonzero" fill="rgb(30%,30%,30%)" fill-opacity="1" d="M 11.671875 0 C 9.636719 0 7.984375 3.804688 7.984375 8.5 C 7.984375 9.144531 8.015625 9.792969 8.082031 10.433594 C 8.28125 10.296875 8.5 10.199219 8.734375 10.144531 C 9 10.078125 9.28125 10.074219 9.550781 10.136719 C 9.5 9.671875 9.472656 9.199219 9.472656 8.730469 C 9.472656 5.726562 10.445312 3.289062 11.644531 3.289062 C 12.84375 3.289062 13.816406 5.726562 13.816406 8.726562 C 13.816406 10.289062 13.554688 11.699219 13.132812 12.691406 L 12.417969 12.128906 L 12.363281 12.199219 C 10.394531 10.667969 9.550781 10.398438 8.789062 10.585938 C 7.554688 10.890625 7.03125 12.269531 6.683594 13.183594 C 6.605469 13.386719 6.539062 13.5625 6.484375 13.671875 C 5.773438 15.097656 5.519531 15.097656 4.839844 15.097656 C 4.578125 15.097656 4.472656 15.019531 4.414062 14.960938 C 4.070312 14.605469 4.085938 13.449219 4.128906 12.078125 L 4.757812 12.078125 C 5.019531 12.078125 5.234375 11.863281 5.234375 11.601562 L 5.234375 7.863281 C 6.910156 7.15625 7.976562 5.273438 7.386719 3.253906 C 7.042969 2.070312 6.125 1.136719 4.945312 0.777344 C 2.363281 -0.00390625 0 1.914062 0 4.378906 C 0 5.910156 0.917969 7.234375 2.234375 7.824219 C 2.230469 7.84375 2.230469 7.863281 2.230469 7.882812 L 2.230469 11.597656 C 2.230469 11.859375 2.441406 12.074219 2.707031 12.074219 L 3.105469 12.074219 C 3.050781 13.835938 3.046875 15.015625 3.683594 15.671875 C 3.96875 15.96875 4.363281 16.121094 4.84375 16.121094 C 5.90625 16.121094 6.503906 15.925781 7.402344 14.128906 C 7.480469 13.972656 7.554688 13.777344 7.644531 13.546875 C 7.914062 12.832031 8.324219 11.757812 9.039062 11.582031 C 9.472656 11.472656 10.0625 11.703125 11.730469 13.003906 L 11.625 13.140625 L 12.449219 13.785156 C 12.203125 14.03125 11.929688 14.167969 11.648438 14.167969 C 11.011719 14.167969 10.4375 13.480469 10.039062 12.382812 C 9.726562 12.261719 9.402344 12.203125 9.234375 12.242188 C 9.023438 12.292969 8.6875 12.542969 8.492188 12.800781 C 9.136719 15.3125 10.316406 17 11.671875 17 C 13.710938 17 15.359375 13.195312 15.359375 8.5 C 15.355469 3.804688 13.707031 0 11.671875 0 Z M 3.492188 7.429688 C 2.03125 7.300781 0.851562 6.121094 0.722656 4.660156 C 0.550781 2.75 2.144531 1.15625 4.050781 1.328125 C 5.515625 1.457031 6.695312 2.636719 6.824219 4.101562 C 6.996094 6.007812 5.402344 7.601562 3.492188 7.429688 Z M 3.492188 7.429688 "/>
<path fill-rule="nonzero" fill="rgb(30%,30%,30%)" fill-opacity="1" d="M 4.355469 4.511719 C 4.355469 4.660156 4.296875 4.804688 4.191406 4.910156 C 4.085938 5.015625 3.941406 5.078125 3.789062 5.078125 C 3.730469 5.078125 3.671875 5.066406 3.617188 5.046875 C 3.582031 5.039062 3.550781 5.027344 3.519531 5.007812 C 3.351562 4.917969 3.242188 4.746094 3.226562 4.554688 C 2.859375 3.867188 2.117188 2.445312 2.292969 2.332031 C 2.460938 2.222656 3.417969 3.339844 3.929688 3.964844 C 4.179688 4.027344 4.355469 4.253906 4.355469 4.511719 Z M 3.789062 4.203125 C 3.628906 4.203125 3.503906 4.355469 3.503906 4.546875 C 3.503906 4.734375 3.632812 4.886719 3.789062 4.886719 C 3.953125 4.886719 4.078125 4.734375 4.078125 4.546875 C 4.082031 4.355469 3.953125 4.203125 3.789062 4.203125 Z M 3.789062 4.203125 "/>
</g>
</svg>
