<?xml version="1.0" encoding="UTF-8" standalone="no"?>
<!-- Created with Inkscape (http://www.inkscape.org/) -->

<svg
   xmlns:dc="http://purl.org/dc/elements/1.1/"
   xmlns:cc="http://creativecommons.org/ns#"
   xmlns:rdf="http://www.w3.org/1999/02/22-rdf-syntax-ns#"
   xmlns:svg="http://www.w3.org/2000/svg"
   xmlns="http://www.w3.org/2000/svg"
   xmlns:xlink="http://www.w3.org/1999/xlink"
   xmlns:sodipodi="http://sodipodi.sourceforge.net/DTD/sodipodi-0.dtd"
   xmlns:inkscape="http://www.inkscape.org/namespaces/inkscape"
   width="30px"
   height="30px"
   version="1.1"
   id="svg8"
   inkscape:version="0.92.4 5da689c313, 2019-01-14"
   sodipodi:docname="container.svg">
  <defs
     id="defs2" />
  <sodipodi:namedview
     id="base"
     pagecolor="#ffffff"
     bordercolor="#666666"
     borderopacity="1.0"
     inkscape:pageopacity="0.0"
     inkscape:pageshadow="2"
     inkscape:zoom="13.049334"
     inkscape:cx="18.679046"
     inkscape:cy="12.165829"
     inkscape:document-units="px"
     inkscape:current-layer="layer1"
     showgrid="false"
     inkscape:snap-page="false"
     units="px"
     inkscape:window-width="1884"
     inkscape:window-height="1061"
     inkscape:window-x="0"
     inkscape:window-y="0"
     inkscape:window-maximized="1"
     fit-margin-top="0"
     fit-margin-left="0"
     fit-margin-right="0"
     fit-margin-bottom="0" />
  <metadata
     id="metadata5">
    <rdf:RDF>
      <cc:Work
         rdf:about="">
        <dc:format>image/svg+xml</dc:format>
        <dc:type
           rdf:resource="http://purl.org/dc/dcmitype/StillImage" />
        <dc:title></dc:title>
      </cc:Work>
    </rdf:RDF>
  </metadata>
    <circle
       style="color:#000000;clip-rule:nonzero;display:inline;overflow:visible;visibility:visible;opacity:1;isolation:auto;mix-blend-mode:normal;color-interpolation:sRGB;color-interpolation-filters:linearRGB;solid-color:#000000;solid-opacity:1;vector-effect:none;fill:#ffffff;fill-opacity:1;fill-rule:evenodd;stroke:#3b74b9;stroke-width:1;stroke-linecap:butt;stroke-linejoin:miter;stroke-miterlimit:4;stroke-dasharray:none;stroke-dashoffset:0;stroke-opacity:1;marker:none;color-rendering:auto;image-rendering:auto;shape-rendering:auto;text-rendering:auto;enable-background:accumulate"
       id="path815"
       cx="15"
       cy="15"
       r="14.5" />
<g transform="translate(6.5,8.5)"><path fill-rule="nonzero" fill="rgb(30%,30%,30%)" fill-opacity="1" d="M 9.609375 10.5 L 8.890625 10.5 C 8.832031 10.5 8.773438 10.523438 8.734375 10.566406 L 6.757812 12.667969 C 6.699219 12.722656 6.6875 12.808594 6.722656 12.882812 C 6.753906 12.953125 6.832031 13 6.914062 13 L 8.425781 13 C 8.507812 13 8.578125 12.957031 8.613281 12.894531 L 9.792969 10.792969 C 9.828125 10.730469 9.828125 10.65625 9.789062 10.597656 C 9.75 10.539062 9.679688 10.5 9.609375 10.5 Z M 9.609375 10.5 "/>
<path fill-rule="nonzero" fill="rgb(30%,30%,30%)" fill-opacity="1" d="M 16.101562 0.984375 C 16.019531 0.441406 15.46875 0 14.890625 0 L 8.554688 0 C 7.972656 0 7.425781 0.441406 7.34375 0.984375 C 7.34375 0.984375 6.648438 4.085938 6.480469 5.515625 L 6 5.242188 C 6 5.242188 5.539062 5.347656 5.246094 5.222656 C 4.839844 5.046875 4.691406 4.699219 4.691406 4.699219 L 3.046875 5.15625 L 2.296875 6.761719 L 2.78125 6.988281 L 3.359375 5.75 L 4.074219 5.671875 L 3.5 7.789062 L 3.132812 8.878906 L 1.78125 10.699219 L 2.546875 11.234375 L 3.96875 9.347656 L 4.335938 8.554688 L 5.015625 9.371094 L 4.722656 11.203125 C 4.722656 11.203125 5.613281 11.234375 5.625 11.203125 C 5.636719 11.171875 5.960938 9.171875 5.960938 9.171875 L 4.871094 7.726562 L 5.394531 6.5 L 5.75 5.945312 L 6.445312 6.253906 L 6.445312 7.5 C 6.445312 9 6.96875 10 8.554688 10 L 14.890625 10 C 16.472656 10 17 8.5 17 7.5 L 17 6 C 17 5 16.101562 0.984375 16.101562 0.984375 Z M 9.609375 8.242188 C 9.609375 8.304688 9.578125 8.363281 9.527344 8.402344 C 9.476562 8.4375 9.410156 8.453125 9.347656 8.4375 L 7.660156 8.039062 C 7.5625 8.015625 7.496094 7.933594 7.496094 7.84375 L 7.496094 6.824219 C 7.496094 6.753906 7.535156 6.691406 7.597656 6.652344 C 7.664062 6.617188 7.738281 6.613281 7.804688 6.644531 L 9.492188 7.445312 C 9.566406 7.476562 9.609375 7.546875 9.609375 7.625 Z M 7.632812 5.570312 C 7.554688 5.527344 7.511719 5.441406 7.527344 5.359375 L 8.316406 1.140625 C 8.324219 1.085938 8.425781 1 8.492188 1 L 14.976562 1 C 15.042969 1 15.144531 1.085938 15.152344 1.140625 L 15.917969 5.359375 C 15.933594 5.441406 15.890625 5.527344 15.808594 5.570312 C 15.316406 5.820312 13.519531 6.65625 11.722656 6.65625 C 9.925781 6.65625 8.132812 5.820312 7.632812 5.570312 Z M 15.945312 7.84375 C 15.945312 7.933594 15.878906 8.015625 15.785156 8.039062 L 14.097656 8.4375 C 14.03125 8.453125 13.964844 8.4375 13.914062 8.402344 C 13.863281 8.363281 13.832031 8.304688 13.832031 8.242188 L 13.832031 7.625 C 13.832031 7.546875 13.875 7.476562 13.949219 7.445312 L 15.636719 6.644531 C 15.703125 6.613281 15.78125 6.617188 15.84375 6.652344 C 15.90625 6.691406 15.945312 6.753906 15.945312 6.824219 Z M 15.945312 7.84375 "/>
<path fill-rule="nonzero" fill="rgb(30%,30%,30%)" fill-opacity="1" d="M 14.671875 10.566406 C 14.632812 10.523438 14.574219 10.5 14.515625 10.5 L 13.804688 10.5 C 13.730469 10.5 13.660156 10.539062 13.621094 10.597656 C 13.585938 10.65625 13.582031 10.734375 13.621094 10.796875 L 14.828125 12.894531 C 14.867188 12.957031 14.9375 13 15.011719 13 L 16.523438 13 C 16.605469 13 16.683594 12.953125 16.71875 12.878906 C 16.753906 12.808594 16.738281 12.722656 16.679688 12.667969 Z M 14.671875 10.566406 "/>
<path fill-rule="nonzero" fill="rgb(30%,30%,30%)" fill-opacity="1" d="M 6.492188 4.195312 C 6.492188 4.648438 6.128906 5.011719 5.675781 5.011719 C 5.226562 5.011719 4.859375 4.648438 4.859375 4.195312 C 4.859375 3.746094 5.226562 3.378906 5.675781 3.378906 C 6.128906 3.378906 6.492188 3.746094 6.492188 4.195312 Z M 6.492188 4.195312 "/>
<path fill-rule="nonzero" fill="rgb(30%,30%,30%)" fill-opacity="1" d="M 0.828125 10.363281 C 1.070312 10.261719 1.277344 10.449219 1.277344 10.449219 L 2.316406 8.457031 L 1.339844 7.964844 L 0 10.5 L 0.503906 10.761719 C 0.503906 10.761719 0.554688 10.484375 0.828125 10.363281 Z M 0.828125 10.363281 "/>
<path fill-rule="nonzero" fill="rgb(30%,30%,30%)" fill-opacity="1" d="M 1.378906 10.855469 C 1.378906 11.074219 1.203125 11.25 0.984375 11.25 C 0.769531 11.25 0.589844 11.074219 0.589844 10.855469 C 0.589844 10.640625 0.769531 10.464844 0.984375 10.464844 C 1.203125 10.464844 1.378906 10.640625 1.378906 10.855469 Z M 1.378906 10.855469 "/>
<path fill-rule="nonzero" fill="rgb(30%,30%,30%)" fill-opacity="1" d="M 1.800781 7.984375 L 2.34375 7.039062 L 2.578125 7.175781 L 2.03125 8.117188 Z M 1.800781 7.984375 "/>
</g>
</svg>
