<?xml version="1.0" encoding="UTF-8" standalone="no"?>
<!-- Created with Inkscape (http://www.inkscape.org/) -->

<svg
   xmlns:dc="http://purl.org/dc/elements/1.1/"
   xmlns:cc="http://creativecommons.org/ns#"
   xmlns:rdf="http://www.w3.org/1999/02/22-rdf-syntax-ns#"
   xmlns:svg="http://www.w3.org/2000/svg"
   xmlns="http://www.w3.org/2000/svg"
   xmlns:xlink="http://www.w3.org/1999/xlink"
   xmlns:sodipodi="http://sodipodi.sourceforge.net/DTD/sodipodi-0.dtd"
   xmlns:inkscape="http://www.inkscape.org/namespaces/inkscape"
   width="30px"
   height="30px"
   version="1.1"
   id="svg8"
   inkscape:version="0.92.4 5da689c313, 2019-01-14"
   sodipodi:docname="container.svg">
  <defs
     id="defs2" />
  <sodipodi:namedview
     id="base"
     pagecolor="#ffffff"
     bordercolor="#666666"
     borderopacity="1.0"
     inkscape:pageopacity="0.0"
     inkscape:pageshadow="2"
     inkscape:zoom="13.049334"
     inkscape:cx="18.679046"
     inkscape:cy="12.165829"
     inkscape:document-units="px"
     inkscape:current-layer="layer1"
     showgrid="false"
     inkscape:snap-page="false"
     units="px"
     inkscape:window-width="1884"
     inkscape:window-height="1061"
     inkscape:window-x="0"
     inkscape:window-y="0"
     inkscape:window-maximized="1"
     fit-margin-top="0"
     fit-margin-left="0"
     fit-margin-right="0"
     fit-margin-bottom="0" />
  <metadata
     id="metadata5">
    <rdf:RDF>
      <cc:Work
         rdf:about="">
        <dc:format>image/svg+xml</dc:format>
        <dc:type
           rdf:resource="http://purl.org/dc/dcmitype/StillImage" />
        <dc:title></dc:title>
      </cc:Work>
    </rdf:RDF>
  </metadata>
    <circle
       style="color:#000000;clip-rule:nonzero;display:inline;overflow:visible;visibility:visible;opacity:1;isolation:auto;mix-blend-mode:normal;color-interpolation:sRGB;color-interpolation-filters:linearRGB;solid-color:#000000;solid-opacity:1;vector-effect:none;fill:#ffffff;fill-opacity:1;fill-rule:evenodd;stroke:#3b74b9;stroke-width:1;stroke-linecap:butt;stroke-linejoin:miter;stroke-miterlimit:4;stroke-dasharray:none;stroke-dashoffset:0;stroke-opacity:1;marker:none;color-rendering:auto;image-rendering:auto;shape-rendering:auto;text-rendering:auto;enable-background:accumulate"
       id="path815"
       cx="15"
       cy="15"
       r="14.5" />
<g transform="translate(6.5,8.5)"><path fill-rule="nonzero" fill="rgb(30%,30%,30%)" fill-opacity="1" d="M 13.078125 9.804688 L 9.941406 9.804688 L 9.941406 8.714844 L 13.078125 8.714844 Z M 2.09375 9.261719 L 6.800781 9.261719 C 8.371094 9.261719 8.894531 8.171875 8.894531 7.082031 L 8.894531 5.449219 L 8.007812 1.070312 C 7.917969 0.480469 7.375 0 6.800781 0 L 2.09375 0 C 1.515625 0 0.976562 0.480469 0.886719 1.070312 L 0 5.449219 L 0 7.082031 C 0 8.171875 0.523438 9.261719 2.09375 9.261719 Z M 7.847656 7.355469 L 5.753906 7.898438 L 5.753906 7.082031 L 7.847656 5.992188 Z M 1.855469 1.242188 C 1.863281 1.179688 1.96875 1.089844 2.027344 1.089844 L 6.890625 1.089844 C 6.949219 1.089844 7.054688 1.179688 7.0625 1.242188 L 7.847656 4.902344 C 7.847656 4.902344 6.539062 6.164062 4.445312 6.164062 C 2.355469 6.164062 1.046875 4.902344 1.046875 4.902344 Z M 1.046875 5.992188 L 3.140625 7.082031 L 3.140625 7.898438 L 1.046875 7.355469 Z M 2.335938 9.804688 L 3.480469 9.804688 L 2.09375 12.53125 L 0 12.53125 Z M 6.523438 9.804688 L 8.894531 12.53125 L 6.800781 12.53125 L 5.375 9.804688 Z M 6.523438 9.804688 "/>
<path fill-rule="nonzero" fill="rgb(30%,30%,30%)" fill-opacity="1" d="M 16.492188 6.246094 L 15.699219 6.238281 C 15.597656 6.238281 15.515625 6.160156 15.507812 6.0625 C 15.417969 4.898438 14.847656 4.074219 13.753906 3.671875 C 12.757812 3.195312 10.734375 3.097656 9.238281 3.230469 L 9.335938 3.714844 C 9.566406 3.707031 9.804688 3.703125 10.054688 3.703125 L 10.648438 3.703125 C 13.042969 3.703125 14.964844 3.878906 15.019531 6.527344 C 15.042969 7.632812 13.007812 7.910156 10.613281 7.910156 C 10.289062 7.910156 9.972656 7.902344 9.667969 7.890625 C 9.546875 8.894531 9 9.808594 7.734375 10.007812 L 8.476562 10.894531 C 10.023438 10.925781 12.777344 10.914062 13.839844 10.851562 C 13.890625 10.851562 13.941406 10.867188 13.980469 10.90625 C 14.019531 10.941406 14.039062 10.992188 14.039062 11.042969 L 14.039062 11.261719 C 14.042969 11.777344 14.460938 12.195312 14.976562 12.195312 L 15.039062 12.195312 C 15.554688 12.195312 15.972656 11.777344 15.972656 11.261719 L 15.972656 10.238281 C 15.972656 10.21875 15.972656 10.195312 15.972656 10.175781 C 15.96875 10.132812 15.980469 10.085938 16.007812 10.050781 C 16.296875 9.648438 16.414062 8.949219 16.414062 8.554688 C 16.414062 8.242188 16.390625 7.902344 16.234375 7.605469 C 16.207031 7.554688 16.207031 7.496094 16.230469 7.441406 C 16.25 7.390625 16.296875 7.351562 16.351562 7.335938 C 16.371094 7.328125 16.386719 7.324219 16.40625 7.320312 C 16.832031 7.1875 17 7.035156 17 6.753906 C 17 6.476562 16.773438 6.25 16.492188 6.246094 Z M 14.242188 9.960938 C 13.800781 9.960938 13.445312 9.601562 13.445312 9.160156 C 13.445312 8.71875 13.800781 8.363281 14.242188 8.363281 C 14.683594 8.363281 15.042969 8.71875 15.042969 9.160156 C 15.042969 9.601562 14.683594 9.960938 14.242188 9.960938 Z M 14.242188 9.960938 "/>
</g>
</svg>
