<?xml version="1.0" encoding="UTF-8" standalone="no"?>
<!-- Created with Inkscape (http://www.inkscape.org/) -->

<svg
   xmlns:dc="http://purl.org/dc/elements/1.1/"
   xmlns:cc="http://creativecommons.org/ns#"
   xmlns:rdf="http://www.w3.org/1999/02/22-rdf-syntax-ns#"
   xmlns:svg="http://www.w3.org/2000/svg"
   xmlns="http://www.w3.org/2000/svg"
   xmlns:xlink="http://www.w3.org/1999/xlink"
   xmlns:sodipodi="http://sodipodi.sourceforge.net/DTD/sodipodi-0.dtd"
   xmlns:inkscape="http://www.inkscape.org/namespaces/inkscape"
   width="30px"
   height="30px"
   version="1.1"
   id="svg8"
   inkscape:version="0.92.4 5da689c313, 2019-01-14"
   sodipodi:docname="container.svg">
  <defs
     id="defs2" />
  <sodipodi:namedview
     id="base"
     pagecolor="#ffffff"
     bordercolor="#666666"
     borderopacity="1.0"
     inkscape:pageopacity="0.0"
     inkscape:pageshadow="2"
     inkscape:zoom="13.049334"
     inkscape:cx="18.679046"
     inkscape:cy="12.165829"
     inkscape:document-units="px"
     inkscape:current-layer="layer1"
     showgrid="false"
     inkscape:snap-page="false"
     units="px"
     inkscape:window-width="1884"
     inkscape:window-height="1061"
     inkscape:window-x="0"
     inkscape:window-y="0"
     inkscape:window-maximized="1"
     fit-margin-top="0"
     fit-margin-left="0"
     fit-margin-right="0"
     fit-margin-bottom="0" />
  <metadata
     id="metadata5">
    <rdf:RDF>
      <cc:Work
         rdf:about="">
        <dc:format>image/svg+xml</dc:format>
        <dc:type
           rdf:resource="http://purl.org/dc/dcmitype/StillImage" />
        <dc:title></dc:title>
      </cc:Work>
    </rdf:RDF>
  </metadata>
    <circle
       style="color:#000000;clip-rule:nonzero;display:inline;overflow:visible;visibility:visible;opacity:1;isolation:auto;mix-blend-mode:normal;color-interpolation:sRGB;color-interpolation-filters:linearRGB;solid-color:#000000;solid-opacity:1;vector-effect:none;fill:#008ecf;fill-opacity:1;fill-rule:evenodd;stroke:#ffffff;stroke-width:1;stroke-linecap:butt;stroke-linejoin:miter;stroke-miterlimit:4;stroke-dasharray:none;stroke-dashoffset:0;stroke-opacity:1;marker:none;color-rendering:auto;image-rendering:auto;shape-rendering:auto;text-rendering:auto;enable-background:accumulate"
       id="path815"
       cx="15"
       cy="15"
       r="14.5" />
<g transform="translate(6.5,7.0)"><path fill-rule="nonzero" fill="#FFFFFF" fill-opacity="1" d="M 16.621094 2.34375 L 16.621094 2.8125 L 15.347656 3.984375 L 14.710938 3.316406 L 14.007812 4.03125 L 13.367188 3.316406 L 12.730469 4.070312 L 12.058594 3.347656 L 11.121094 4.1875 L 10.03125 4.1875 C 9.394531 5.261719 8.117188 5.773438 6.910156 5.441406 C 5.707031 5.109375 4.875 4.011719 4.878906 2.761719 C 4.882812 1.511719 5.722656 0.421875 6.929688 0.09375 C 8.136719 -0.230469 9.410156 0.292969 10.039062 1.371094 L 15.617188 1.371094 Z M 6.464844 1.984375 C 6.035156 1.984375 5.6875 2.332031 5.6875 2.757812 C 5.6875 3.1875 6.035156 3.535156 6.464844 3.535156 C 6.890625 3.535156 7.238281 3.1875 7.238281 2.757812 C 7.238281 2.332031 6.890625 1.984375 6.464844 1.984375 Z M 6.464844 1.984375 "/>
<path fill-rule="nonzero" fill="#FFFFFF" fill-opacity="1" d="M 13.648438 9.199219 C 12.996094 9.199219 12.359375 9.390625 11.816406 9.75 L 10.441406 8.09375 L 10.914062 6.6875 C 10.914062 6.6875 10.914062 6.683594 10.914062 6.683594 L 11.640625 6.683594 C 11.800781 6.683594 11.929688 6.554688 11.929688 6.394531 C 11.929688 6.234375 11.800781 6.105469 11.640625 6.105469 L 9.335938 6.101562 C 9.175781 6.101562 9.042969 6.230469 9.042969 6.390625 C 9.042969 6.550781 9.171875 6.679688 9.332031 6.679688 L 10.21875 6.679688 L 9.914062 7.582031 L 5.429688 7.566406 L 5.414062 7.546875 C 5.402344 7.53125 5.390625 7.519531 5.378906 7.507812 L 5.644531 6.726562 L 6.652344 6.726562 C 6.832031 6.726562 6.980469 6.578125 6.980469 6.394531 C 6.980469 6.214844 6.832031 6.066406 6.652344 6.066406 L 5.167969 6.066406 L 4.5 8.046875 L 4.078125 9.28125 C 3.839844 9.226562 3.59375 9.199219 3.351562 9.199219 C 1.503906 9.199219 0 10.703125 0 12.550781 C 0 14.398438 1.503906 15.902344 3.351562 15.902344 C 5.199219 15.902344 6.699219 14.398438 6.699219 12.550781 C 6.699219 11.1875 5.878906 10.011719 4.707031 9.488281 L 5.121094 8.265625 L 8.359375 12.648438 C 8.421875 12.734375 8.519531 12.78125 8.625 12.78125 C 8.632812 12.78125 8.640625 12.78125 8.648438 12.78125 C 8.65625 12.78125 8.664062 12.78125 8.667969 12.78125 L 10.308594 12.78125 C 10.425781 14.523438 11.878906 15.902344 13.648438 15.902344 C 15.496094 15.902344 17 14.398438 17 12.550781 C 17 10.703125 15.496094 9.199219 13.648438 9.199219 Z M 6.039062 12.550781 C 6.039062 14.035156 4.832031 15.238281 3.351562 15.238281 C 1.867188 15.238281 0.660156 14.035156 0.660156 12.550781 C 0.660156 11.070312 1.867188 9.863281 3.351562 9.863281 C 3.523438 9.863281 3.695312 9.878906 3.863281 9.910156 L 3.03125 12.359375 C 2.972656 12.53125 3.066406 12.71875 3.238281 12.777344 C 3.410156 12.835938 3.597656 12.746094 3.65625 12.570312 L 4.492188 10.117188 C 5.4375 10.5625 6.039062 11.507812 6.039062 12.550781 Z M 12.917969 12.121094 L 10.996094 12.121094 C 11.085938 11.578125 11.339844 11.074219 11.722656 10.675781 Z M 11.300781 10.164062 C 10.765625 10.691406 10.421875 11.378906 10.328125 12.121094 L 9.085938 12.121094 L 10.195312 8.828125 Z M 9.691406 8.242188 L 8.515625 11.746094 L 5.917969 8.230469 Z M 13.648438 15.238281 C 12.246094 15.238281 11.089844 14.15625 10.972656 12.78125 L 13.605469 12.78125 C 13.734375 12.777344 13.851562 12.699219 13.90625 12.582031 C 13.960938 12.464844 13.941406 12.324219 13.863281 12.222656 L 12.238281 10.261719 C 12.664062 10 13.152344 9.863281 13.648438 9.863281 C 15.132812 9.863281 16.339844 11.070312 16.339844 12.550781 C 16.339844 14.035156 15.132812 15.238281 13.648438 15.238281 Z M 13.648438 15.238281 "/>
</g>
</svg>
