<?xml version="1.0" encoding="UTF-8"?>
<svg xmlns="http://www.w3.org/2000/svg" xmlns:xlink="http://www.w3.org/1999/xlink" width="11" height="9.216758" viewBox="0 0 11 9.216758">
<path fill-rule="nonzero" fill="rgb(30%,30%,30%)" fill-opacity="1" d="M 6.964844 4.5625 L 6.964844 5.726562 L 6.4375 5.894531 L 6.4375 4.730469 Z M 7.4375 4.410156 L 7.4375 5.574219 L 7.964844 5.40625 L 7.964844 4.242188 Z M 8.433594 4.085938 L 8.433594 5.25 L 8.960938 5.082031 L 8.960938 3.917969 Z M 9.433594 3.765625 L 9.433594 4.929688 L 9.960938 4.761719 L 9.960938 3.597656 Z M 11 4.429688 L 10.660156 3.371094 L 10.429688 3.445312 L 10.429688 4.613281 Z M 5.964844 4.882812 L 5.964844 6.046875 L 5.441406 6.214844 L 5.410156 9.207031 L 0.0234375 9.214844 L 0.0117188 8.28125 L 0.335938 8.28125 L 0.335938 0.445312 L 0.0078125 0.445312 L 0 0.0078125 L 5.449219 0 L 5.457031 0.4375 L 4.261719 0.4375 L 4.261719 8.273438 L 4.40625 8.273438 L 4.40625 5.175781 C 4.40625 4.886719 4.640625 4.652344 4.929688 4.652344 C 5.175781 4.652344 5.386719 4.824219 5.441406 5.0625 L 5.441406 5.050781 Z M 3.796875 0.910156 L 0.785156 0.910156 L 0.785156 4.007812 L 3.796875 4.007812 Z M 3.796875 0.910156 "/>
</svg>
