<?xml version="1.0" encoding="UTF-8"?>
<svg xmlns="http://www.w3.org/2000/svg" xmlns:xlink="http://www.w3.org/1999/xlink" width="11" height="10.289307" viewBox="0 0 11 10.289307">
<path fill-rule="nonzero" fill="rgb(30%,30%,30%)" fill-opacity="1" d="M 10.753906 1.515625 L 10.753906 1.820312 L 9.929688 2.578125 L 9.519531 2.144531 L 9.0625 2.609375 L 8.648438 2.144531 L 8.238281 2.636719 L 7.804688 2.167969 L 7.195312 2.710938 L 6.492188 2.710938 C 6.078125 3.402344 5.25 3.734375 4.472656 3.519531 C 3.695312 3.304688 3.15625 2.59375 3.15625 1.785156 C 3.160156 0.980469 3.703125 0.273438 4.484375 0.0625 C 5.265625 -0.148438 6.089844 0.1875 6.496094 0.886719 L 10.105469 0.886719 Z M 4.183594 1.28125 C 3.90625 1.28125 3.679688 1.507812 3.679688 1.785156 C 3.679688 2.0625 3.90625 2.289062 4.183594 2.289062 C 4.460938 2.289062 4.683594 2.0625 4.683594 1.785156 C 4.683594 1.507812 4.460938 1.28125 4.183594 1.28125 Z M 4.183594 1.28125 "/>
<path fill-rule="nonzero" fill="rgb(30%,30%,30%)" fill-opacity="1" d="M 8.832031 5.953125 C 8.410156 5.953125 7.996094 6.078125 7.644531 6.308594 L 6.757812 5.234375 L 7.0625 4.328125 C 7.0625 4.328125 7.0625 4.324219 7.0625 4.324219 L 7.53125 4.324219 C 7.636719 4.324219 7.71875 4.242188 7.71875 4.136719 C 7.71875 4.035156 7.636719 3.953125 7.535156 3.949219 L 6.039062 3.945312 C 5.9375 3.945312 5.851562 4.03125 5.851562 4.132812 C 5.851562 4.238281 5.9375 4.320312 6.039062 4.320312 L 6.613281 4.324219 L 6.414062 4.90625 L 3.511719 4.894531 L 3.503906 4.882812 C 3.496094 4.875 3.488281 4.863281 3.480469 4.855469 L 3.652344 4.351562 L 4.304688 4.351562 C 4.421875 4.351562 4.515625 4.257812 4.515625 4.136719 C 4.515625 4.019531 4.421875 3.925781 4.304688 3.925781 L 3.34375 3.925781 L 2.910156 5.207031 L 2.640625 6.003906 C 2.484375 5.972656 2.328125 5.953125 2.167969 5.953125 C 0.972656 5.953125 0 6.925781 0 8.121094 C 0 9.316406 0.972656 10.289062 2.167969 10.289062 C 3.363281 10.289062 4.335938 9.316406 4.335938 8.121094 C 4.335938 7.238281 3.804688 6.476562 3.046875 6.140625 L 3.316406 5.347656 L 5.410156 8.183594 C 5.449219 8.238281 5.511719 8.269531 5.582031 8.269531 C 5.585938 8.269531 5.59375 8.269531 5.597656 8.269531 C 5.601562 8.269531 5.605469 8.269531 5.609375 8.269531 L 6.667969 8.269531 C 6.746094 9.398438 7.6875 10.289062 8.832031 10.289062 C 10.027344 10.289062 11 9.316406 11 8.121094 C 11 6.925781 10.027344 5.953125 8.832031 5.953125 Z M 3.90625 8.121094 C 3.90625 9.082031 3.128906 9.859375 2.167969 9.859375 C 1.207031 9.859375 0.429688 9.082031 0.429688 8.121094 C 0.429688 7.164062 1.207031 6.382812 2.167969 6.382812 C 2.28125 6.382812 2.390625 6.390625 2.5 6.414062 L 1.960938 7.996094 C 1.921875 8.109375 1.984375 8.230469 2.09375 8.269531 C 2.207031 8.308594 2.328125 8.246094 2.367188 8.136719 L 2.90625 6.546875 C 3.515625 6.832031 3.90625 7.445312 3.90625 8.121094 Z M 8.359375 7.84375 L 7.113281 7.84375 C 7.171875 7.492188 7.335938 7.164062 7.585938 6.910156 Z M 7.3125 6.578125 C 6.964844 6.917969 6.746094 7.363281 6.683594 7.84375 L 5.878906 7.84375 L 6.597656 5.714844 Z M 6.273438 5.332031 L 5.507812 7.597656 L 3.828125 5.324219 Z M 8.832031 9.859375 C 7.921875 9.859375 7.175781 9.160156 7.097656 8.269531 L 8.804688 8.269531 C 8.886719 8.269531 8.960938 8.21875 8.996094 8.140625 C 9.03125 8.0625 9.023438 7.972656 8.96875 7.910156 L 7.917969 6.640625 C 8.195312 6.472656 8.511719 6.382812 8.832031 6.382812 C 9.792969 6.382812 10.570312 7.164062 10.570312 8.121094 C 10.570312 9.082031 9.792969 9.859375 8.832031 9.859375 Z M 8.832031 9.859375 "/>
</svg>
