<?xml version="1.0" encoding="UTF-8" standalone="no"?>
<!-- Created with Inkscape (http://www.inkscape.org/) -->

<svg
   xmlns:dc="http://purl.org/dc/elements/1.1/"
   xmlns:cc="http://creativecommons.org/ns#"
   xmlns:rdf="http://www.w3.org/1999/02/22-rdf-syntax-ns#"
   xmlns:svg="http://www.w3.org/2000/svg"
   xmlns="http://www.w3.org/2000/svg"
   xmlns:xlink="http://www.w3.org/1999/xlink"
   xmlns:sodipodi="http://sodipodi.sourceforge.net/DTD/sodipodi-0.dtd"
   xmlns:inkscape="http://www.inkscape.org/namespaces/inkscape"
   width="30px"
   height="30px"
   version="1.1"
   id="svg8"
   inkscape:version="0.92.4 5da689c313, 2019-01-14"
   sodipodi:docname="container.svg">
  <defs
     id="defs2" />
  <sodipodi:namedview
     id="base"
     pagecolor="#ffffff"
     bordercolor="#666666"
     borderopacity="1.0"
     inkscape:pageopacity="0.0"
     inkscape:pageshadow="2"
     inkscape:zoom="13.049334"
     inkscape:cx="18.679046"
     inkscape:cy="12.165829"
     inkscape:document-units="px"
     inkscape:current-layer="layer1"
     showgrid="false"
     inkscape:snap-page="false"
     units="px"
     inkscape:window-width="1884"
     inkscape:window-height="1061"
     inkscape:window-x="0"
     inkscape:window-y="0"
     inkscape:window-maximized="1"
     fit-margin-top="0"
     fit-margin-left="0"
     fit-margin-right="0"
     fit-margin-bottom="0" />
  <metadata
     id="metadata5">
    <rdf:RDF>
      <cc:Work
         rdf:about="">
        <dc:format>image/svg+xml</dc:format>
        <dc:type
           rdf:resource="http://purl.org/dc/dcmitype/StillImage" />
        <dc:title></dc:title>
      </cc:Work>
    </rdf:RDF>
  </metadata>
    <circle
       style="color:#000000;clip-rule:nonzero;display:inline;overflow:visible;visibility:visible;opacity:1;isolation:auto;mix-blend-mode:normal;color-interpolation:sRGB;color-interpolation-filters:linearRGB;solid-color:#000000;solid-opacity:1;vector-effect:none;fill:#ffffff;fill-opacity:1;fill-rule:evenodd;stroke:#3b74b9;stroke-width:1;stroke-linecap:butt;stroke-linejoin:miter;stroke-miterlimit:4;stroke-dasharray:none;stroke-dashoffset:0;stroke-opacity:1;marker:none;color-rendering:auto;image-rendering:auto;shape-rendering:auto;text-rendering:auto;enable-background:accumulate"
       id="path815"
       cx="15"
       cy="15"
       r="14.5" />
<g transform="translate(6.5,8.0)"><path fill-rule="nonzero" fill="rgb(30%,30%,30%)" fill-opacity="1" d="M 10.765625 7.046875 L 10.765625 8.847656 L 9.953125 9.109375 L 9.953125 7.308594 Z M 11.496094 6.8125 L 11.496094 8.613281 L 12.308594 8.355469 L 12.308594 6.554688 Z M 13.035156 6.3125 L 13.035156 8.113281 L 13.847656 7.851562 L 13.847656 6.050781 Z M 14.578125 5.816406 L 14.578125 7.617188 L 15.390625 7.359375 L 15.390625 5.558594 Z M 17 6.84375 L 16.476562 5.210938 L 16.121094 5.328125 L 16.121094 7.128906 Z M 9.21875 7.542969 L 9.21875 9.34375 L 8.410156 9.605469 L 8.359375 14.230469 L 0.0351562 14.242188 L 0.0195312 12.796875 L 0.515625 12.796875 L 0.515625 0.6875 L 0.015625 0.6875 L 0 0.0117188 L 8.417969 0 L 8.433594 0.675781 L 6.589844 0.679688 L 6.589844 12.789062 L 6.808594 12.789062 L 6.808594 7.996094 C 6.808594 7.550781 7.171875 7.191406 7.617188 7.191406 C 7.996094 7.191406 8.328125 7.453125 8.40625 7.824219 L 8.40625 7.804688 Z M 5.867188 1.40625 L 1.214844 1.40625 L 1.214844 6.195312 L 5.867188 6.195312 Z M 5.867188 1.40625 "/>
</g>
</svg>
