<?xml version="1.0" encoding="UTF-8"?>
<svg xmlns="http://www.w3.org/2000/svg" xmlns:xlink="http://www.w3.org/1999/xlink" width="11" height="10.220649" viewBox="0 0 11 10.220649">
<path fill-rule="nonzero" fill="rgb(30%,30%,30%)" fill-opacity="1" d="M 11 8.648438 C 10.980469 8.265625 10.808594 7.90625 10.511719 7.636719 C 10.21875 7.367188 9.847656 7.222656 9.460938 7.226562 C 9.449219 7.226562 9.429688 7.226562 9.40625 7.226562 L 7.433594 0.359375 L 7.429688 0.351562 L 7.429688 0.347656 C 7.378906 0.25 7.285156 0.183594 7.171875 0.171875 L 5.628906 0.00390625 C 5.429688 -0.0234375 5.203125 0.078125 5.175781 0.289062 L 5.167969 0.308594 L 5.167969 0.3125 C 5.152344 0.421875 5.171875 0.515625 5.226562 0.582031 C 5.285156 0.65625 5.378906 0.703125 5.507812 0.71875 L 6.714844 0.839844 C 6.804688 0.851562 6.882812 0.902344 6.921875 0.980469 L 8.402344 6.210938 L 7.117188 8.226562 L 7.113281 8.230469 C 7.070312 8.308594 6.984375 8.355469 6.894531 8.355469 L 3.941406 8.375 C 3.871094 7.847656 3.640625 7.378906 3.265625 7.015625 C 2.820312 6.582031 2.214844 6.34375 1.5625 6.34375 C 1.382812 6.34375 1.238281 6.488281 1.238281 6.667969 C 1.238281 6.847656 1.382812 6.992188 1.5625 6.992188 C 2.441406 6.992188 3.140625 7.558594 3.289062 8.378906 L 2.945312 8.378906 C 2.855469 8.042969 2.671875 7.757812 2.417969 7.550781 C 2.148438 7.332031 1.820312 7.21875 1.46875 7.226562 C 1.09375 7.234375 0.734375 7.382812 0.457031 7.648438 C 0.183594 7.914062 0.0195312 8.269531 0 8.648438 C -0.0195312 9.0625 0.128906 9.453125 0.414062 9.753906 C 0.699219 10.054688 1.082031 10.21875 1.496094 10.21875 C 2.191406 10.21875 2.765625 9.753906 2.941406 9.050781 L 7.261719 9.035156 C 7.382812 9.035156 7.492188 8.96875 7.550781 8.863281 L 8.664062 7.09375 L 8.761719 7.398438 C 8.480469 7.589844 8.265625 7.835938 8.136719 8.109375 C 8.003906 8.410156 7.96875 8.742188 8.046875 9.078125 C 8.160156 9.578125 8.527344 9.984375 9.003906 10.140625 C 9.5 10.300781 10.011719 10.21875 10.410156 9.914062 C 10.800781 9.613281 11.023438 9.140625 11 8.648438 Z M 8.917969 8.769531 C 8.933594 8.988281 9.066406 9.175781 9.261719 9.25 C 9.449219 9.324219 9.648438 9.304688 9.804688 9.195312 C 9.960938 9.089844 10.054688 8.914062 10.054688 8.726562 C 10.054688 8.496094 9.921875 8.332031 9.683594 8.257812 L 9.5625 7.839844 C 9.8125 7.863281 10.03125 7.964844 10.183594 8.128906 C 10.339844 8.296875 10.421875 8.519531 10.417969 8.753906 C 10.410156 8.976562 10.320312 9.1875 10.164062 9.351562 C 10.007812 9.515625 9.800781 9.617188 9.578125 9.632812 C 9.320312 9.65625 9.074219 9.570312 8.882812 9.394531 C 8.695312 9.222656 8.589844 8.976562 8.589844 8.722656 C 8.589844 8.453125 8.707031 8.210938 8.945312 7.992188 L 9.054688 8.375 C 8.929688 8.539062 8.910156 8.648438 8.917969 8.769531 Z M 1.90625 8.394531 C 1.796875 8.234375 1.660156 8.15625 1.492188 8.15625 C 1.488281 8.15625 1.488281 8.15625 1.488281 8.15625 C 1.21875 8.15625 0.984375 8.34375 0.933594 8.601562 C 0.894531 8.773438 0.9375 8.949219 1.046875 9.082031 C 1.15625 9.21875 1.316406 9.292969 1.488281 9.292969 C 1.660156 9.292969 1.800781 9.214844 1.9375 9.042969 L 2.363281 9.042969 C 2.175781 9.421875 1.867188 9.636719 1.496094 9.636719 C 1.246094 9.636719 1.007812 9.535156 0.835938 9.351562 C 0.660156 9.167969 0.570312 8.925781 0.585938 8.675781 C 0.609375 8.199219 1 7.820312 1.476562 7.808594 C 1.484375 7.808594 1.492188 7.808594 1.496094 7.808594 C 1.6875 7.808594 1.863281 7.867188 2.015625 7.976562 C 2.148438 8.078125 2.261719 8.21875 2.335938 8.394531 Z M 1.90625 8.394531 "/>
</svg>
