<?xml version="1.0" encoding="UTF-8"?>
<svg xmlns="http://www.w3.org/2000/svg" xmlns:xlink="http://www.w3.org/1999/xlink" width="11" height="10.259612" viewBox="0 0 11 10.259612">
<path fill-rule="nonzero" fill="rgb(30%,30%,30%)" fill-opacity="1" d="M 0.0273438 6.464844 L 2.566406 9.734375 L 10.355469 10.257812 L 10.589844 8.386719 L 10.988281 8.332031 L 11 7.714844 L 0.105469 6.25 C 0.015625 6.234375 -0.0351562 6.378906 0.0273438 6.464844 Z M 0.0273438 6.464844 "/>
<path fill-rule="nonzero" fill="rgb(30%,30%,30%)" fill-opacity="1" d="M 3.605469 4.9375 L 4.15625 5.039062 L 3.742188 6.5625 L 2.921875 6.445312 Z M 3.605469 4.9375 "/>
<path fill-rule="nonzero" fill="rgb(30%,30%,30%)" fill-opacity="1" d="M 4.378906 5.082031 L 4.8125 5.1875 L 4.40625 6.652344 L 3.980469 6.589844 Z M 4.378906 5.082031 "/>
<path fill-rule="nonzero" fill="rgb(30%,30%,30%)" fill-opacity="1" d="M 4.953125 5.230469 L 5.777344 5.410156 L 6.617188 6.953125 L 4.574219 6.671875 Z M 4.953125 5.230469 "/>
<path fill-rule="nonzero" fill="rgb(30%,30%,30%)" fill-opacity="1" d="M 10.175781 1.652344 L 10.175781 1.980469 L 9.277344 2.808594 L 8.828125 2.335938 L 8.332031 2.839844 L 7.882812 2.335938 L 7.433594 2.871094 L 6.960938 2.359375 L 6.296875 2.953125 L 5.53125 2.953125 C 5.1875 3.523438 4.566406 3.90625 3.855469 3.90625 C 2.773438 3.90625 1.902344 3.03125 1.902344 1.953125 C 1.902344 0.875 2.773438 0 3.855469 0 C 4.570312 0 5.195312 0.386719 5.535156 0.964844 L 9.464844 0.964844 Z M 3.015625 1.398438 C 2.714844 1.398438 2.46875 1.644531 2.46875 1.945312 C 2.46875 2.246094 2.714844 2.492188 3.015625 2.492188 C 3.316406 2.492188 3.5625 2.246094 3.5625 1.945312 C 3.5625 1.644531 3.316406 1.398438 3.015625 1.398438 Z M 3.015625 1.398438 "/>
</svg>
