<?xml version="1.0" encoding="UTF-8"?>
<svg xmlns="http://www.w3.org/2000/svg" xmlns:xlink="http://www.w3.org/1999/xlink" width="11" height="9.705764" viewBox="0 0 11 9.705764">
<path fill-rule="nonzero" fill="rgb(30%,30%,30%)" fill-opacity="1" d="M 8.773438 5.253906 C 8.367188 5.253906 7.972656 5.363281 7.628906 5.574219 L 6.84375 4.625 L 7.105469 3.84375 L 7.496094 3.84375 C 7.652344 3.84375 7.777344 3.71875 7.777344 3.566406 C 7.777344 3.414062 7.652344 3.289062 7.5 3.285156 L 6.03125 3.28125 C 5.878906 3.28125 5.75 3.40625 5.75 3.5625 C 5.75 3.714844 5.875 3.839844 6.03125 3.839844 L 6.460938 3.84375 L 6.332031 4.226562 L 3.636719 4.214844 L 3.75 3.871094 L 4.324219 3.871094 C 4.492188 3.871094 4.628906 3.734375 4.628906 3.566406 C 4.628906 3.398438 4.492188 3.261719 4.324219 3.261719 L 3.3125 3.261719 L 2.867188 4.585938 L 2.625 5.292969 C 2.492188 5.265625 2.359375 5.253906 2.226562 5.253906 C 1 5.253906 0 6.253906 0 7.480469 C 0 8.707031 1 9.707031 2.226562 9.707031 C 3.453125 9.707031 4.449219 8.707031 4.449219 7.480469 C 4.449219 6.632812 3.964844 5.855469 3.207031 5.484375 L 3.382812 4.957031 L 5.335938 7.597656 C 5.390625 7.675781 5.484375 7.722656 5.578125 7.722656 C 5.585938 7.722656 5.589844 7.722656 5.59375 7.722656 C 5.597656 7.722656 5.601562 7.722656 5.605469 7.722656 L 6.5625 7.722656 C 6.621094 8.25 6.863281 8.738281 7.253906 9.101562 C 7.667969 9.492188 8.207031 9.707031 8.773438 9.707031 C 10 9.707031 11 8.707031 11 7.480469 C 11 6.253906 10 5.253906 8.773438 5.253906 Z M 6.125 4.835938 L 5.476562 6.765625 L 4.046875 4.828125 Z M 7.152344 5.957031 C 6.851562 6.277344 6.652344 6.683594 6.578125 7.113281 L 6.003906 7.113281 L 6.613281 5.304688 Z M 7.203125 7.113281 C 7.261719 6.863281 7.378906 6.628906 7.546875 6.433594 L 8.109375 7.113281 Z M 8.773438 9.09375 C 8.367188 9.09375 7.980469 8.941406 7.679688 8.667969 C 7.410156 8.414062 7.234375 8.082031 7.179688 7.722656 L 8.746094 7.722656 C 8.902344 7.722656 9.035156 7.601562 9.050781 7.445312 C 9.0625 7.359375 9.035156 7.277344 8.984375 7.210938 L 8.023438 6.050781 C 8.253906 5.929688 8.511719 5.867188 8.773438 5.867188 C 9.664062 5.867188 10.390625 6.589844 10.390625 7.480469 C 10.390625 8.371094 9.664062 9.09375 8.773438 9.09375 Z M 1.933594 7.328125 C 1.90625 7.40625 1.910156 7.488281 1.949219 7.5625 C 1.984375 7.632812 2.046875 7.6875 2.125 7.714844 C 2.15625 7.726562 2.1875 7.730469 2.222656 7.730469 C 2.351562 7.730469 2.46875 7.648438 2.511719 7.523438 L 3.007812 6.066406 C 3.238281 6.195312 3.4375 6.378906 3.582031 6.605469 C 3.75 6.867188 3.839844 7.167969 3.839844 7.480469 C 3.839844 8.371094 3.117188 9.09375 2.226562 9.09375 C 1.335938 9.09375 0.609375 8.371094 0.609375 7.480469 C 0.609375 6.589844 1.335938 5.867188 2.226562 5.867188 C 2.292969 5.867188 2.359375 5.871094 2.425781 5.878906 Z M 1.933594 7.328125 "/>
<path fill-rule="nonzero" fill="rgb(30%,30%,30%)" fill-opacity="1" d="M 9.21875 0.00390625 C 8.640625 0 8.121094 0.363281 7.921875 0.910156 L 3.523438 0.910156 C 3.28125 0.207031 2.511719 -0.167969 1.804688 0.0742188 C 1.527344 0.171875 1.289062 0.351562 1.125 0.59375 C 1.066406 0.683594 1.089844 0.808594 1.179688 0.867188 C 1.210938 0.890625 1.25 0.902344 1.289062 0.902344 L 2.1875 0.902344 C 2.375 0.902344 2.53125 1.054688 2.53125 1.246094 L 2.53125 1.441406 C 2.53125 1.679688 2.339844 1.871094 2.101562 1.871094 L 1.335938 1.871094 C 1.226562 1.871094 1.140625 1.957031 1.140625 2.066406 C 1.140625 2.109375 1.15625 2.152344 1.179688 2.1875 C 1.640625 2.777344 2.492188 2.878906 3.082031 2.417969 C 3.269531 2.269531 3.417969 2.074219 3.503906 1.847656 L 7.933594 1.847656 C 8.195312 2.5625 8.984375 2.925781 9.695312 2.667969 C 10.40625 2.40625 10.773438 1.617188 10.511719 0.90625 C 10.316406 0.363281 9.796875 0.00390625 9.21875 0.00390625 Z M 9.21875 1.910156 C 8.921875 1.90625 8.679688 1.660156 8.683594 1.359375 C 8.6875 1.058594 8.933594 0.816406 9.234375 0.820312 C 9.53125 0.824219 9.769531 1.066406 9.769531 1.363281 C 9.769531 1.664062 9.527344 1.910156 9.226562 1.910156 C 9.226562 1.910156 9.222656 1.910156 9.21875 1.910156 Z M 9.21875 1.910156 "/>
</svg>
