<?xml version="1.0" encoding="UTF-8"?>
<svg xmlns="http://www.w3.org/2000/svg" xmlns:xlink="http://www.w3.org/1999/xlink" width="11" height="8.107807" viewBox="0 0 11 8.107807">
<path fill-rule="nonzero" fill="rgb(30%,30%,30%)" fill-opacity="1" d="M 8.460938 6.34375 L 6.429688 6.34375 L 6.429688 5.640625 L 8.460938 5.640625 Z M 1.355469 5.992188 L 4.402344 5.992188 C 5.414062 5.992188 5.753906 5.289062 5.753906 4.582031 L 5.753906 3.523438 L 5.179688 0.691406 C 5.125 0.308594 4.773438 0 4.398438 0 L 1.355469 0 C 0.980469 0 0.628906 0.308594 0.574219 0.691406 L 0 3.523438 L 0 4.582031 C 0 5.289062 0.339844 5.992188 1.355469 5.992188 Z M 5.078125 4.757812 L 3.722656 5.113281 L 3.722656 4.582031 L 5.078125 3.878906 Z M 1.199219 0.804688 C 1.207031 0.765625 1.273438 0.703125 1.3125 0.703125 L 4.457031 0.703125 C 4.496094 0.703125 4.5625 0.765625 4.570312 0.804688 L 5.078125 3.171875 C 5.078125 3.171875 4.230469 3.988281 2.878906 3.988281 C 1.523438 3.988281 0.675781 3.171875 0.675781 3.171875 Z M 0.675781 3.878906 L 2.03125 4.582031 L 2.03125 5.113281 L 0.675781 4.757812 Z M 1.511719 6.34375 L 2.253906 6.34375 L 1.355469 8.109375 L 0 8.109375 Z M 4.21875 6.34375 L 5.753906 8.109375 L 4.402344 8.109375 L 3.476562 6.34375 Z M 4.21875 6.34375 "/>
<path fill-rule="nonzero" fill="rgb(30%,30%,30%)" fill-opacity="1" d="M 10.671875 4.042969 L 10.15625 4.035156 C 10.09375 4.035156 10.039062 3.984375 10.035156 3.921875 C 9.976562 3.167969 9.609375 2.636719 8.898438 2.375 C 8.253906 2.066406 6.945312 2.003906 5.976562 2.089844 L 6.042969 2.402344 C 6.191406 2.398438 6.34375 2.394531 6.503906 2.394531 L 6.890625 2.394531 C 8.441406 2.394531 9.683594 2.511719 9.71875 4.222656 C 9.734375 4.9375 8.417969 5.117188 6.867188 5.117188 C 6.65625 5.117188 6.453125 5.113281 6.253906 5.105469 C 6.175781 5.757812 5.824219 6.347656 5.003906 6.476562 L 5.484375 7.050781 C 6.488281 7.070312 8.265625 7.0625 8.953125 7.023438 C 8.988281 7.019531 9.023438 7.03125 9.046875 7.054688 C 9.070312 7.078125 9.085938 7.113281 9.085938 7.144531 L 9.085938 7.285156 C 9.085938 7.621094 9.355469 7.890625 9.691406 7.890625 L 9.730469 7.890625 C 10.0625 7.890625 10.335938 7.621094 10.335938 7.285156 L 10.335938 6.625 C 10.335938 6.609375 10.335938 6.597656 10.335938 6.585938 C 10.332031 6.554688 10.339844 6.527344 10.359375 6.503906 C 10.546875 6.242188 10.621094 5.789062 10.621094 5.535156 C 10.621094 5.332031 10.605469 5.113281 10.503906 4.921875 C 10.488281 4.886719 10.488281 4.851562 10.5 4.816406 C 10.515625 4.78125 10.542969 4.757812 10.582031 4.746094 C 10.59375 4.742188 10.605469 4.738281 10.613281 4.734375 C 10.890625 4.652344 11 4.550781 11 4.371094 C 11 4.191406 10.851562 4.042969 10.671875 4.042969 Z M 9.214844 6.445312 C 8.929688 6.445312 8.699219 6.210938 8.699219 5.925781 C 8.699219 5.640625 8.929688 5.410156 9.214844 5.410156 C 9.5 5.410156 9.734375 5.640625 9.734375 5.925781 C 9.734375 6.210938 9.5 6.445312 9.214844 6.445312 Z M 9.214844 6.445312 "/>
</svg>
