<?xml version="1.0" encoding="UTF-8"?>
<svg xmlns="http://www.w3.org/2000/svg" xmlns:xlink="http://www.w3.org/1999/xlink" width="10.669691" height="11" viewBox="0 0 10.669691 11">
<path fill-rule="nonzero" fill="rgb(30%,30%,30%)" fill-opacity="1" d="M 10.441406 1.476562 L 7.992188 1.476562 C 7.867188 1.476562 7.761719 1.582031 7.761719 1.707031 L 7.761719 6.269531 C 7.761719 6.394531 7.867188 6.5 7.992188 6.5 L 10.441406 6.5 C 10.566406 6.5 10.667969 6.394531 10.667969 6.269531 L 10.667969 1.707031 C 10.667969 1.582031 10.566406 1.476562 10.441406 1.476562 Z M 9.324219 5.300781 L 8.664062 5.878906 L 8.246094 5.257812 L 8.515625 5.277344 L 9.175781 4.074219 L 8.304688 4.074219 L 9.148438 2.097656 L 9.988281 2.097656 L 9.117188 3.652344 L 10.097656 3.578125 L 8.910156 5.277344 Z M 9.324219 5.300781 "/>
<path fill-rule="nonzero" fill="rgb(30%,30%,30%)" fill-opacity="1" d="M 7.492188 8.179688 C 7.296875 8.179688 7.109375 8.21875 6.9375 8.292969 L 6.4375 7.515625 L 6.601562 7.523438 L 6.601562 6.652344 C 6.195312 6.652344 6.03125 6.824219 5.964844 6.953125 L 5.3125 6.605469 C 5.3125 6.605469 5.117188 6.5 5.019531 6.441406 C 4.398438 6.078125 3.957031 5.496094 3.773438 4.800781 C 3.589844 4.105469 3.691406 3.382812 4.054688 2.761719 C 4.417969 2.140625 5 1.699219 5.695312 1.515625 C 5.703125 1.515625 5.710938 1.511719 5.71875 1.511719 C 5.757812 1.546875 5.800781 1.578125 5.847656 1.605469 C 5.980469 1.691406 6.148438 1.746094 6.332031 1.753906 C 6.363281 1.757812 6.394531 1.761719 6.429688 1.761719 C 6.433594 1.761719 6.550781 1.75 6.597656 1.742188 C 6.601562 1.742188 6.601562 1.742188 6.601562 1.742188 L 7.601562 1.476562 C 7.621094 1.472656 7.632812 1.449219 7.628906 1.429688 L 7.554688 1.175781 C 7.546875 1.15625 7.558594 1.132812 7.578125 1.128906 C 7.578125 1.128906 7.582031 1.128906 7.582031 1.128906 L 8.007812 1.015625 C 8.023438 1.011719 8.035156 0.996094 8.035156 0.980469 C 8.039062 0.972656 8.039062 0.964844 8.035156 0.957031 L 7.988281 0.785156 C 7.984375 0.765625 7.964844 0.753906 7.945312 0.761719 L 7.515625 0.878906 C 7.496094 0.882812 7.476562 0.871094 7.46875 0.851562 L 7.410156 0.605469 C 7.40625 0.585938 7.417969 0.5625 7.4375 0.558594 L 7.871094 0.441406 C 7.890625 0.433594 7.902344 0.414062 7.894531 0.394531 L 7.851562 0.222656 C 7.84375 0.203125 7.824219 0.191406 7.804688 0.195312 L 7.378906 0.3125 C 7.359375 0.320312 7.335938 0.308594 7.332031 0.289062 C 7.332031 0.285156 7.332031 0.285156 7.332031 0.285156 L 7.265625 0.0273438 C 7.261719 0.0078125 7.242188 -0.00390625 7.222656 0 L 6.222656 0.269531 C 6.222656 0.269531 6.222656 0.273438 6.21875 0.273438 C 5.828125 0.429688 5.589844 0.714844 5.570312 1.046875 C 4.75 1.261719 4.0625 1.78125 3.632812 2.515625 C 3.207031 3.246094 3.089844 4.101562 3.304688 4.925781 C 3.519531 5.746094 4.039062 6.433594 4.773438 6.863281 C 4.875 6.921875 4.976562 6.972656 5.082031 7.019531 L 5.082031 7.015625 L 5.242188 7.101562 C 3.269531 7.34375 3.191406 7.972656 3.121094 7.925781 C 2.800781 7.714844 1.398438 7.691406 1.398438 7.691406 L 1.398438 8.011719 C 1.765625 7.957031 2.109375 8.03125 2.386719 8.210938 C 2.382812 8.214844 2.378906 8.21875 2.375 8.222656 L 2.195312 8.417969 C 1.972656 8.265625 1.699219 8.179688 1.410156 8.179688 C 0.632812 8.179688 0 8.8125 0 9.589844 C 0 10.367188 0.632812 11 1.410156 11 C 2.175781 11 2.800781 10.386719 2.820312 9.625 L 3.121094 9.589844 C 3.179688 9.707031 4.371094 9.921875 5.433594 9.816406 C 5.734375 9.785156 5.816406 9.414062 5.816406 9.414062 L 5.878906 7.628906 L 5.910156 7.519531 L 6.5625 8.53125 C 6.265625 8.789062 6.082031 9.167969 6.082031 9.589844 C 6.082031 10.367188 6.714844 11 7.492188 11 C 8.269531 11 8.902344 10.367188 8.902344 9.589844 C 8.902344 8.8125 8.269531 8.179688 7.492188 8.179688 Z M 2.234375 9.0625 C 2.269531 9.117188 2.300781 9.175781 2.324219 9.238281 L 2.042969 9.269531 Z M 1.410156 10.570312 C 0.867188 10.570312 0.429688 10.132812 0.429688 9.589844 C 0.429688 9.046875 0.867188 8.609375 1.410156 8.609375 C 1.585938 8.609375 1.753906 8.65625 1.898438 8.742188 L 1.273438 9.414062 C 1.199219 9.496094 1.203125 9.621094 1.28125 9.695312 L 1.335938 9.742188 C 1.394531 9.796875 1.476562 9.808594 1.546875 9.777344 L 2.386719 9.679688 C 2.339844 10.179688 1.921875 10.570312 1.410156 10.570312 Z M 2.761719 9.183594 C 2.710938 9.019531 2.632812 8.871094 2.535156 8.738281 L 2.71875 8.539062 C 2.722656 8.535156 2.726562 8.527344 2.730469 8.523438 C 2.867188 8.695312 2.976562 8.90625 3.042969 9.148438 Z M 7.472656 10.570312 C 6.933594 10.570312 6.492188 10.132812 6.492188 9.589844 C 6.492188 9.316406 6.609375 9.066406 6.789062 8.886719 L 7.296875 9.679688 C 7.363281 9.78125 7.503906 9.8125 7.605469 9.746094 C 7.710938 9.679688 7.738281 9.539062 7.671875 9.4375 L 7.171875 8.65625 C 7.265625 8.625 7.367188 8.609375 7.472656 8.609375 C 8.015625 8.609375 8.453125 9.046875 8.453125 9.589844 C 8.453125 10.132812 8.015625 10.570312 7.472656 10.570312 Z M 7.472656 10.570312 "/>
</svg>
