<?xml version="1.0" encoding="UTF-8" standalone="no"?>
<!-- Created with Inkscape (http://www.inkscape.org/) -->

<svg
   xmlns:dc="http://purl.org/dc/elements/1.1/"
   xmlns:cc="http://creativecommons.org/ns#"
   xmlns:rdf="http://www.w3.org/1999/02/22-rdf-syntax-ns#"
   xmlns:svg="http://www.w3.org/2000/svg"
   xmlns="http://www.w3.org/2000/svg"
   xmlns:xlink="http://www.w3.org/1999/xlink"
   xmlns:sodipodi="http://sodipodi.sourceforge.net/DTD/sodipodi-0.dtd"
   xmlns:inkscape="http://www.inkscape.org/namespaces/inkscape"
   width="30px"
   height="30px"
   version="1.1"
   id="svg8"
   inkscape:version="0.92.4 5da689c313, 2019-01-14"
   sodipodi:docname="container.svg">
  <defs
     id="defs2" />
  <sodipodi:namedview
     id="base"
     pagecolor="#ffffff"
     bordercolor="#666666"
     borderopacity="1.0"
     inkscape:pageopacity="0.0"
     inkscape:pageshadow="2"
     inkscape:zoom="13.049334"
     inkscape:cx="18.679046"
     inkscape:cy="12.165829"
     inkscape:document-units="px"
     inkscape:current-layer="layer1"
     showgrid="false"
     inkscape:snap-page="false"
     units="px"
     inkscape:window-width="1884"
     inkscape:window-height="1061"
     inkscape:window-x="0"
     inkscape:window-y="0"
     inkscape:window-maximized="1"
     fit-margin-top="0"
     fit-margin-left="0"
     fit-margin-right="0"
     fit-margin-bottom="0" />
  <metadata
     id="metadata5">
    <rdf:RDF>
      <cc:Work
         rdf:about="">
        <dc:format>image/svg+xml</dc:format>
        <dc:type
           rdf:resource="http://purl.org/dc/dcmitype/StillImage" />
        <dc:title></dc:title>
      </cc:Work>
    </rdf:RDF>
  </metadata>
    <circle
       style="color:#000000;clip-rule:nonzero;display:inline;overflow:visible;visibility:visible;opacity:1;isolation:auto;mix-blend-mode:normal;color-interpolation:sRGB;color-interpolation-filters:linearRGB;solid-color:#000000;solid-opacity:1;vector-effect:none;fill:#008ecf;fill-opacity:1;fill-rule:evenodd;stroke:#ffffff;stroke-width:1;stroke-linecap:butt;stroke-linejoin:miter;stroke-miterlimit:4;stroke-dasharray:none;stroke-dashoffset:0;stroke-opacity:1;marker:none;color-rendering:auto;image-rendering:auto;shape-rendering:auto;text-rendering:auto;enable-background:accumulate"
       id="path815"
       cx="15"
       cy="15"
       r="14.5" />
<g transform="translate(6.5,6.5)"><path fill-rule="nonzero" fill="#FFFFFF" fill-opacity="1" d="M 16.484375 10.855469 L 15.492188 10.84375 C 15.425781 8.71875 13.332031 7.175781 10.484375 7.164062 C 8.980469 7.160156 7.59375 7.691406 6.667969 8.628906 C 6.019531 9.289062 5.664062 10.082031 5.667969 10.859375 L 4.816406 10.855469 C 4.535156 10.855469 4.300781 11.089844 4.300781 11.371094 C 4.300781 11.644531 4.34375 11.957031 5.222656 12.023438 C 4.902344 12.382812 4.878906 12.785156 4.878906 13.207031 C 4.878906 13.648438 5.035156 14.3125 5.386719 14.753906 C 5.375 14.808594 5.367188 14.863281 5.367188 14.917969 L 5.367188 16.15625 C 5.367188 16.574219 5.710938 16.914062 6.128906 16.914062 L 6.578125 16.914062 C 6.996094 16.914062 7.335938 16.574219 7.335938 16.15625 L 7.335938 15.550781 C 7.339844 15.550781 7.34375 15.550781 7.347656 15.550781 C 8.230469 15.625 12.878906 15.625 13.984375 15.53125 L 13.984375 16.15625 C 13.984375 16.574219 14.328125 16.914062 14.746094 16.914062 L 15.195312 16.914062 C 15.613281 16.914062 15.953125 16.574219 15.953125 16.15625 L 15.953125 14.917969 C 15.953125 14.875 15.949219 14.832031 15.941406 14.789062 C 16.273438 14.390625 16.402344 13.628906 16.402344 13.207031 C 16.402344 12.8125 16.367188 12.375 16.082031 12.035156 C 16.195312 12.003906 16.300781 11.976562 16.394531 11.949219 C 16.832031 11.8125 17 11.65625 17 11.371094 C 17 11.089844 16.765625 10.855469 16.484375 10.855469 Z M 7.199219 14.714844 C 6.753906 14.714844 6.390625 14.355469 6.390625 13.910156 C 6.390625 13.464844 6.753906 13.105469 7.199219 13.105469 C 7.640625 13.105469 8.003906 13.464844 8.003906 13.910156 C 8.003906 14.355469 7.640625 14.714844 7.199219 14.714844 Z M 14.054688 14.714844 C 13.609375 14.714844 13.246094 14.355469 13.246094 13.910156 C 13.246094 13.464844 13.609375 13.105469 14.054688 13.105469 C 14.496094 13.105469 14.859375 13.464844 14.859375 13.910156 C 14.859375 14.355469 14.496094 14.714844 14.054688 14.714844 Z M 14.960938 11.515625 C 14.898438 11.570312 14.816406 11.628906 14.714844 11.695312 C 14.5 11.25 14.101562 10.902344 13.613281 10.761719 C 13.820312 10.601562 13.953125 10.347656 13.953125 10.066406 C 13.953125 9.574219 13.554688 9.175781 13.0625 9.175781 C 12.574219 9.175781 12.175781 9.574219 12.175781 10.066406 C 12.175781 10.363281 12.324219 10.628906 12.550781 10.789062 C 12.335938 10.863281 12.136719 10.980469 11.96875 11.125 C 11.867188 10.574219 11.414062 10.128906 10.824219 10.003906 C 10.984375 9.890625 11.089844 9.703125 11.089844 9.492188 C 11.089844 9.140625 10.804688 8.855469 10.457031 8.855469 C 10.105469 8.855469 9.820312 9.140625 9.820312 9.492188 C 9.820312 9.710938 9.933594 9.902344 10.101562 10.015625 C 9.523438 10.160156 9.085938 10.609375 9.003906 11.164062 C 8.835938 11.011719 8.640625 10.886719 8.421875 10.804688 C 8.660156 10.644531 8.820312 10.375 8.820312 10.066406 C 8.820312 9.574219 8.421875 9.175781 7.929688 9.175781 C 7.4375 9.175781 7.039062 9.574219 7.039062 10.066406 C 7.039062 10.339844 7.164062 10.585938 7.363281 10.75 C 6.90625 10.867188 6.523438 11.164062 6.285156 11.558594 C 6.246094 11.515625 6.214844 11.476562 6.191406 11.445312 C 6.148438 11.265625 6.125 11.082031 6.121094 10.898438 C 6.109375 10.226562 6.417969 9.535156 6.996094 8.949219 C 7.828125 8.105469 9.089844 7.621094 10.457031 7.621094 C 10.464844 7.621094 10.472656 7.621094 10.480469 7.621094 C 13.101562 7.628906 15.015625 9.019531 15.039062 10.917969 C 15.039062 11.121094 15.015625 11.320312 14.960938 11.515625 Z M 14.960938 11.515625 "/>
<path fill-rule="nonzero" fill="#FFFFFF" fill-opacity="1" d="M 0 0.238281 C 0 0.101562 0.109375 0 0.238281 0 L 4.8125 0 C 8.433594 0 8.980469 2.335938 8.980469 3.722656 C 8.980469 6.078125 7.5 7.378906 4.8125 7.378906 L 2.570312 7.378906 L 2.570312 11.148438 C 2.570312 11.285156 2.457031 11.386719 2.328125 11.386719 L 0.238281 11.386719 C 0.101562 11.386719 0 11.277344 0 11.148438 Z M 6.457031 3.734375 C 6.457031 2.464844 5.675781 1.773438 4.253906 1.773438 L 2.570312 1.773438 L 2.570312 5.625 L 4.253906 5.625 C 5.257812 5.617188 6.457031 5.292969 6.457031 3.734375 Z M 6.457031 3.734375 "/>
</g>
</svg>
