<?xml version="1.0" encoding="UTF-8"?>
<svg xmlns="http://www.w3.org/2000/svg" xmlns:xlink="http://www.w3.org/1999/xlink" width="11" height="5.566662" viewBox="0 0 11 5.566662">
<path fill-rule="nonzero" fill="rgb(30%,30%,30%)" fill-opacity="1" d="M 2.363281 3.75 C 2.410156 3.742188 2.453125 3.71875 2.496094 3.71875 C 2.539062 3.71875 2.617188 3.742188 2.902344 4.027344 C 3.488281 4.609375 4.355469 5.28125 5.644531 5.566406 L 0.628906 5.421875 C 0.363281 5.414062 0.230469 5.28125 0.0898438 4.996094 L 0 4.820312 Z M 5.226562 3.464844 L 10.570312 4.996094 C 10.800781 5.070312 11 5.246094 11 5.476562 C 11 5.554688 10.976562 5.566406 10.902344 5.566406 L 7.027344 5.367188 Z M 5.050781 3.199219 L 3.507812 1.585938 C 2.476562 0.496094 1.648438 0.21875 1.398438 0.132812 C 1.5625 0.0429688 1.746094 -0.00390625 1.9375 0 C 3.5625 0 5.707031 2.925781 6.0625 3.496094 Z M 6.785156 5.414062 L 6.664062 5.414062 C 4.882812 5.414062 4.464844 5.148438 1.703125 2.640625 C 1.101562 2.089844 0.484375 1.210938 0.484375 0.8125 C 0.484375 0.453125 0.671875 0.210938 1.046875 0.210938 C 1.320312 0.210938 1.945312 0.386719 3.355469 1.847656 Z M 5.652344 2.144531 L 7.359375 1.871094 L 7.46875 2.046875 L 6.65625 2.871094 C 6.480469 2.828125 6.3125 2.804688 6.136719 2.828125 Z M 8.238281 3.070312 L 7.808594 4.003906 L 6.257812 3.554688 L 7.734375 2.070312 L 7.535156 1.738281 L 10.128906 2.550781 L 10.539062 3.34375 Z M 8.238281 3.070312 "/>
</svg>
