<?xml version="1.0" encoding="UTF-8"?>
<svg xmlns="http://www.w3.org/2000/svg" xmlns:xlink="http://www.w3.org/1999/xlink" width="8.675939" height="11" viewBox="0 0 8.675939 11">
<path fill-rule="nonzero" fill="rgb(30%,30%,30%)" fill-opacity="1" d="M 0 0.230469 C 0 0.171875 0.0234375 0.109375 0.0664062 0.0664062 C 0.109375 0.0234375 0.171875 0 0.230469 0 L 4.648438 0 C 8.148438 0 8.675781 2.257812 8.675781 3.597656 C 8.675781 5.871094 7.246094 7.128906 4.648438 7.128906 L 2.480469 7.128906 L 2.480469 10.769531 C 2.480469 10.828125 2.457031 10.890625 2.414062 10.933594 C 2.371094 10.976562 2.3125 11 2.25 11 L 0.230469 11 C 0.171875 11 0.109375 10.976562 0.0664062 10.933594 C 0.0234375 10.890625 0 10.828125 0 10.769531 Z M 6.234375 3.605469 C 6.234375 2.382812 5.484375 1.710938 4.109375 1.710938 L 2.480469 1.710938 L 2.480469 5.433594 L 4.109375 5.433594 C 5.078125 5.425781 6.234375 5.109375 6.234375 3.605469 Z M 6.234375 3.605469 "/>
</svg>
