<?xml version="1.0" encoding="UTF-8"?>
<svg xmlns="http://www.w3.org/2000/svg" xmlns:xlink="http://www.w3.org/1999/xlink" width="11" height="10.148298" viewBox="0 0 11 10.148298">
<path fill-rule="nonzero" fill="rgb(30%,30%,30%)" fill-opacity="1" d="M 10.570312 5.839844 C 10.21875 4.941406 9.730469 4.125 9.546875 3.816406 C 8.917969 2.757812 8.460938 2.191406 8.160156 1.886719 C 8.171875 1.804688 8.171875 1.71875 8.15625 1.632812 C 8.136719 1.433594 8.054688 1.230469 7.914062 1.039062 C 7.890625 1.007812 7.867188 0.976562 7.84375 0.945312 C 7.839844 0.941406 7.734375 0.832031 7.6875 0.792969 C 7.6875 0.792969 7.683594 0.789062 7.683594 0.789062 L 6.617188 0.0273438 C 6.597656 0.0117188 6.570312 0.0195312 6.558594 0.0429688 C 6.558594 0.046875 6.558594 0.046875 6.558594 0.046875 L 6.371094 0.320312 C 6.355469 0.34375 6.328125 0.347656 6.304688 0.335938 C 6.304688 0.335938 6.304688 0.335938 6.304688 0.332031 L 5.851562 0.0078125 C 5.835938 -0.00390625 5.8125 -0.00390625 5.792969 0.0117188 C 5.785156 0.015625 5.777344 0.0195312 5.773438 0.0273438 L 5.644531 0.210938 C 5.628906 0.230469 5.632812 0.261719 5.65625 0.277344 L 6.113281 0.597656 C 6.132812 0.613281 6.140625 0.640625 6.125 0.664062 C 6.125 0.664062 6.125 0.664062 6.121094 0.664062 L 5.933594 0.921875 C 5.917969 0.941406 5.890625 0.945312 5.867188 0.929688 L 5.402344 0.605469 C 5.382812 0.589844 5.351562 0.59375 5.335938 0.617188 L 5.210938 0.800781 C 5.195312 0.820312 5.199219 0.851562 5.222656 0.863281 L 5.695312 1.195312 C 5.714844 1.210938 5.710938 1.242188 5.6875 1.25 L 5.488281 1.519531 C 5.476562 1.535156 5.476562 1.5625 5.488281 1.578125 C 5.492188 1.582031 5.496094 1.585938 5.5 1.585938 L 6.5625 2.335938 C 6.5625 2.339844 6.5625 2.339844 6.566406 2.339844 C 7.035156 2.597656 7.519531 2.601562 7.855469 2.351562 C 8.117188 2.628906 8.527344 3.148438 9.085938 4.089844 C 9.261719 4.386719 9.753906 5.171875 10.070312 6.035156 C 10.328125 6.75 10.589844 7.5625 10.355469 8.316406 C 10.152344 8.972656 9.515625 9.5 8.824219 9.539062 C 8.792969 9.539062 8.765625 9.539062 8.738281 9.539062 C 8.335938 9.539062 7.949219 9.386719 7.648438 9.113281 C 7.378906 8.863281 7.203125 8.53125 7.148438 8.171875 L 8.710938 8.171875 C 8.867188 8.171875 9 8.050781 9.011719 7.898438 C 9.023438 7.8125 9 7.726562 8.945312 7.664062 L 6.816406 5.085938 L 7.078125 4.308594 L 7.46875 4.3125 C 7.621094 4.3125 7.746094 4.1875 7.746094 4.035156 C 7.746094 3.878906 7.621094 3.753906 7.46875 3.753906 L 6.007812 3.75 C 5.855469 3.75 5.730469 3.875 5.726562 4.027344 C 5.726562 4.183594 5.851562 4.308594 6.003906 4.308594 L 6.433594 4.308594 L 6.304688 4.691406 L 3.621094 4.679688 L 3.738281 4.335938 L 4.300781 4.335938 C 4.464844 4.335938 4.605469 4.207031 4.609375 4.042969 C 4.617188 3.871094 4.476562 3.730469 4.308594 3.730469 L 3.300781 3.730469 L 2.855469 5.046875 L 2.613281 5.75 C 2.484375 5.726562 2.351562 5.714844 2.214844 5.714844 C 0.992188 5.714844 -0.00390625 6.710938 0 7.9375 C 0.00390625 9.152344 0.996094 10.144531 2.210938 10.148438 C 3.4375 10.152344 4.433594 9.15625 4.433594 7.933594 C 4.433594 7.085938 3.949219 6.3125 3.191406 5.941406 L 3.371094 5.417969 L 5.3125 8.050781 C 5.371094 8.128906 5.460938 8.171875 5.558594 8.171875 C 5.5625 8.171875 5.566406 8.171875 5.574219 8.171875 C 5.578125 8.171875 5.582031 8.171875 5.585938 8.171875 L 6.535156 8.171875 C 6.59375 8.699219 6.835938 9.183594 7.222656 9.546875 C 7.636719 9.933594 8.175781 10.148438 8.738281 10.148438 C 9.527344 10.148438 10.222656 9.734375 10.613281 9.113281 C 10.75 8.925781 10.851562 8.710938 10.914062 8.472656 C 11.101562 7.789062 10.984375 6.902344 10.570312 5.839844 Z M 7.515625 6.890625 L 8.074219 7.566406 L 7.171875 7.566406 C 7.230469 7.316406 7.347656 7.085938 7.515625 6.890625 Z M 3.566406 7.058594 C 3.734375 7.320312 3.824219 7.621094 3.824219 7.933594 C 3.824219 8.820312 3.101562 9.539062 2.214844 9.539062 C 1.328125 9.539062 0.609375 8.820312 0.609375 7.933594 C 0.609375 7.046875 1.328125 6.324219 2.214844 6.324219 C 2.28125 6.324219 2.351562 6.328125 2.414062 6.335938 L 1.925781 7.78125 C 1.898438 7.855469 1.902344 7.9375 1.941406 8.011719 C 1.976562 8.085938 2.039062 8.140625 2.113281 8.164062 C 2.144531 8.175781 2.179688 8.179688 2.210938 8.179688 C 2.34375 8.179688 2.457031 8.097656 2.5 7.976562 L 2.996094 6.523438 C 3.226562 6.652344 3.421875 6.835938 3.566406 7.058594 Z M 5.457031 7.21875 L 4.03125 5.289062 L 6.101562 5.296875 Z M 6.554688 7.566406 L 5.980469 7.566406 L 6.585938 5.765625 L 7.125 6.414062 C 6.824219 6.734375 6.625 7.136719 6.554688 7.566406 Z M 6.554688 7.566406 "/>
</svg>
