<?xml version="1.0" encoding="UTF-8" standalone="no"?>
<!-- Created with Inkscape (http://www.inkscape.org/) -->

<svg
   xmlns:dc="http://purl.org/dc/elements/1.1/"
   xmlns:cc="http://creativecommons.org/ns#"
   xmlns:rdf="http://www.w3.org/1999/02/22-rdf-syntax-ns#"
   xmlns:svg="http://www.w3.org/2000/svg"
   xmlns="http://www.w3.org/2000/svg"
   xmlns:xlink="http://www.w3.org/1999/xlink"
   xmlns:sodipodi="http://sodipodi.sourceforge.net/DTD/sodipodi-0.dtd"
   xmlns:inkscape="http://www.inkscape.org/namespaces/inkscape"
   width="30px"
   height="30px"
   version="1.1"
   id="svg8"
   inkscape:version="0.92.4 5da689c313, 2019-01-14"
   sodipodi:docname="container.svg">
  <defs
     id="defs2" />
  <sodipodi:namedview
     id="base"
     pagecolor="#ffffff"
     bordercolor="#666666"
     borderopacity="1.0"
     inkscape:pageopacity="0.0"
     inkscape:pageshadow="2"
     inkscape:zoom="13.049334"
     inkscape:cx="18.679046"
     inkscape:cy="12.165829"
     inkscape:document-units="px"
     inkscape:current-layer="layer1"
     showgrid="false"
     inkscape:snap-page="false"
     units="px"
     inkscape:window-width="1884"
     inkscape:window-height="1061"
     inkscape:window-x="0"
     inkscape:window-y="0"
     inkscape:window-maximized="1"
     fit-margin-top="0"
     fit-margin-left="0"
     fit-margin-right="0"
     fit-margin-bottom="0" />
  <metadata
     id="metadata5">
    <rdf:RDF>
      <cc:Work
         rdf:about="">
        <dc:format>image/svg+xml</dc:format>
        <dc:type
           rdf:resource="http://purl.org/dc/dcmitype/StillImage" />
        <dc:title></dc:title>
      </cc:Work>
    </rdf:RDF>
  </metadata>
    <circle
       style="color:#000000;clip-rule:nonzero;display:inline;overflow:visible;visibility:visible;opacity:1;isolation:auto;mix-blend-mode:normal;color-interpolation:sRGB;color-interpolation-filters:linearRGB;solid-color:#000000;solid-opacity:1;vector-effect:none;fill:#ffffff;fill-opacity:1;fill-rule:evenodd;stroke:#3b74b9;stroke-width:1;stroke-linecap:butt;stroke-linejoin:miter;stroke-miterlimit:4;stroke-dasharray:none;stroke-dashoffset:0;stroke-opacity:1;marker:none;color-rendering:auto;image-rendering:auto;shape-rendering:auto;text-rendering:auto;enable-background:accumulate"
       id="path815"
       cx="15"
       cy="15"
       r="14.5" />
<g transform="translate(6.5,7.0)"><path fill-rule="nonzero" fill="rgb(30%,30%,30%)" fill-opacity="1" d="M 0.0429688 9.988281 L 3.96875 15.046875 L 16.003906 15.855469 L 16.363281 12.957031 L 16.980469 12.875 L 17 11.921875 L 0.160156 9.65625 C 0.0234375 9.636719 -0.0546875 9.859375 0.0429688 9.988281 Z M 0.0429688 9.988281 "/>
<path fill-rule="nonzero" fill="rgb(30%,30%,30%)" fill-opacity="1" d="M 5.574219 7.628906 L 6.421875 7.789062 L 5.785156 10.144531 L 4.511719 9.964844 Z M 5.574219 7.628906 "/>
<path fill-rule="nonzero" fill="rgb(30%,30%,30%)" fill-opacity="1" d="M 6.765625 7.855469 L 7.4375 8.019531 L 6.808594 10.277344 L 6.152344 10.183594 Z M 6.765625 7.855469 "/>
<path fill-rule="nonzero" fill="rgb(30%,30%,30%)" fill-opacity="1" d="M 7.65625 8.082031 L 8.925781 8.363281 L 10.230469 10.746094 L 7.070312 10.308594 Z M 7.65625 8.082031 "/>
<path fill-rule="nonzero" fill="rgb(30%,30%,30%)" fill-opacity="1" d="M 15.726562 2.550781 L 15.726562 3.0625 L 14.335938 4.339844 L 13.640625 3.609375 L 12.875 4.390625 L 12.179688 3.609375 L 11.488281 4.4375 L 10.753906 3.648438 L 9.734375 4.5625 L 8.546875 4.5625 C 8.019531 5.441406 7.058594 6.035156 5.957031 6.035156 C 4.289062 6.035156 2.9375 4.683594 2.9375 3.019531 C 2.9375 1.351562 4.289062 0 5.957031 0 C 7.066406 0 8.03125 0.601562 8.554688 1.492188 L 14.628906 1.492188 Z M 4.660156 2.160156 C 4.191406 2.160156 3.8125 2.539062 3.8125 3.003906 C 3.8125 3.472656 4.191406 3.851562 4.660156 3.851562 C 5.125 3.851562 5.503906 3.472656 5.503906 3.003906 C 5.503906 2.539062 5.125 2.160156 4.660156 2.160156 Z M 4.660156 2.160156 "/>
</g>
</svg>
