<?xml version="1.0" encoding="UTF-8" standalone="no"?>
<!-- Created with Inkscape (http://www.inkscape.org/) -->

<svg
   xmlns:dc="http://purl.org/dc/elements/1.1/"
   xmlns:cc="http://creativecommons.org/ns#"
   xmlns:rdf="http://www.w3.org/1999/02/22-rdf-syntax-ns#"
   xmlns:svg="http://www.w3.org/2000/svg"
   xmlns="http://www.w3.org/2000/svg"
   xmlns:xlink="http://www.w3.org/1999/xlink"
   xmlns:sodipodi="http://sodipodi.sourceforge.net/DTD/sodipodi-0.dtd"
   xmlns:inkscape="http://www.inkscape.org/namespaces/inkscape"
   width="30px"
   height="30px"
   version="1.1"
   id="svg8"
   inkscape:version="0.92.4 5da689c313, 2019-01-14"
   sodipodi:docname="container.svg">
  <defs
     id="defs2" />
  <sodipodi:namedview
     id="base"
     pagecolor="#ffffff"
     bordercolor="#666666"
     borderopacity="1.0"
     inkscape:pageopacity="0.0"
     inkscape:pageshadow="2"
     inkscape:zoom="13.049334"
     inkscape:cx="18.679046"
     inkscape:cy="12.165829"
     inkscape:document-units="px"
     inkscape:current-layer="layer1"
     showgrid="false"
     inkscape:snap-page="false"
     units="px"
     inkscape:window-width="1884"
     inkscape:window-height="1061"
     inkscape:window-x="0"
     inkscape:window-y="0"
     inkscape:window-maximized="1"
     fit-margin-top="0"
     fit-margin-left="0"
     fit-margin-right="0"
     fit-margin-bottom="0" />
  <metadata
     id="metadata5">
    <rdf:RDF>
      <cc:Work
         rdf:about="">
        <dc:format>image/svg+xml</dc:format>
        <dc:type
           rdf:resource="http://purl.org/dc/dcmitype/StillImage" />
        <dc:title></dc:title>
      </cc:Work>
    </rdf:RDF>
  </metadata>
    <circle
       style="color:#000000;clip-rule:nonzero;display:inline;overflow:visible;visibility:visible;opacity:1;isolation:auto;mix-blend-mode:normal;color-interpolation:sRGB;color-interpolation-filters:linearRGB;solid-color:#000000;solid-opacity:1;vector-effect:none;fill:#008ecf;fill-opacity:1;fill-rule:evenodd;stroke:#ffffff;stroke-width:1;stroke-linecap:butt;stroke-linejoin:miter;stroke-miterlimit:4;stroke-dasharray:none;stroke-dashoffset:0;stroke-opacity:1;marker:none;color-rendering:auto;image-rendering:auto;shape-rendering:auto;text-rendering:auto;enable-background:accumulate"
       id="path815"
       cx="15"
       cy="15"
       r="14.5" />
<g transform="translate(7.0,6.5)"><path fill-rule="nonzero" fill="#FFFFFF" fill-opacity="1" d="M 15.300781 9.390625 L 14.28125 9.378906 C 14.15625 9.378906 14.050781 9.28125 14.039062 9.152344 C 13.964844 8.140625 13.445312 7.222656 12.667969 6.582031 C 12.207031 6.199219 11.695312 5.925781 11.101562 5.8125 C 10.671875 5.730469 10.242188 5.628906 9.804688 5.601562 C 8.417969 5.511719 7.066406 5.472656 5.703125 5.597656 C 5.429688 5.621094 5.15625 5.652344 4.878906 5.6875 C 4.519531 5.734375 4.171875 5.863281 3.84375 6.019531 C 3.53125 6.175781 3.21875 6.347656 2.976562 6.59375 C 2.222656 7.359375 1.785156 8.261719 1.722656 9.167969 C 1.714844 9.296875 1.605469 9.394531 1.476562 9.394531 L 0.648438 9.390625 C 0.289062 9.390625 0 9.679688 0 10.039062 C 0 10.335938 0.0390625 10.667969 0.773438 10.808594 C 0.851562 10.820312 0.914062 10.871094 0.949219 10.941406 C 0.980469 11.015625 0.980469 11.097656 0.941406 11.164062 C 0.742188 11.535156 0.722656 11.933594 0.722656 12.339844 C 0.722656 12.871094 0.90625 13.652344 1.304688 14.203125 C 1.339844 14.253906 1.355469 14.316406 1.347656 14.378906 C 1.34375 14.417969 1.339844 14.457031 1.339844 14.492188 L 1.339844 15.800781 C 1.34375 16.464844 1.878906 17 2.539062 17 L 2.613281 17 C 3.277344 17 3.8125 16.464844 3.8125 15.800781 L 3.8125 15.289062 C 3.816406 15.289062 3.820312 15.289062 3.828125 15.289062 C 4.875 15.375 10.164062 15.382812 11.90625 15.28125 C 11.972656 15.277344 12.039062 15.300781 12.085938 15.347656 C 12.136719 15.394531 12.164062 15.457031 12.164062 15.527344 L 12.164062 15.800781 C 12.164062 16.464844 12.699219 17 13.359375 17 L 13.4375 17 C 14.097656 17 14.632812 16.464844 14.636719 15.800781 L 14.636719 14.492188 C 14.636719 14.472656 14.632812 14.449219 14.632812 14.425781 C 14.628906 14.367188 14.644531 14.304688 14.679688 14.253906 C 15.050781 13.738281 15.195312 12.847656 15.195312 12.339844 C 15.195312 11.945312 15.167969 11.511719 14.972656 11.132812 C 14.9375 11.066406 14.933594 10.988281 14.960938 10.921875 C 14.988281 10.855469 15.046875 10.804688 15.117188 10.78125 C 15.140625 10.773438 15.164062 10.769531 15.1875 10.761719 C 15.734375 10.59375 15.949219 10.394531 15.949219 10.039062 C 15.945312 9.679688 15.65625 9.390625 15.300781 9.390625 Z M 3.726562 14.136719 C 3.160156 14.136719 2.703125 13.679688 2.703125 13.117188 C 2.703125 12.550781 3.160156 12.09375 3.726562 12.09375 C 4.289062 12.09375 4.746094 12.550781 4.746094 13.117188 C 4.746094 13.679688 4.289062 14.136719 3.726562 14.136719 Z M 2.316406 9.75 C 2.542969 6.335938 4.398438 6.144531 7.0625 6.136719 L 7.824219 6.136719 C 10.886719 6.136719 13.347656 6.363281 13.414062 9.75 C 13.445312 11.160156 10.84375 11.515625 7.777344 11.515625 C 4.710938 11.515625 2.21875 11.15625 2.316406 9.75 Z M 12.421875 14.136719 C 11.855469 14.136719 11.398438 13.679688 11.398438 13.117188 C 11.398438 12.550781 11.855469 12.09375 12.421875 12.09375 C 12.984375 12.09375 13.441406 12.550781 13.441406 13.117188 C 13.441406 13.679688 12.984375 14.136719 12.421875 14.136719 Z M 12.421875 14.136719 "/>
<path fill-rule="nonzero" fill="#FFFFFF" fill-opacity="1" d="M 13.59375 2.328125 L 13.59375 2.792969 L 12.328125 3.960938 L 11.695312 3.292969 L 10.996094 4.003906 L 10.359375 3.292969 L 9.726562 4.046875 L 9.0625 3.328125 L 8.128906 4.160156 L 7.046875 4.160156 C 6.410156 5.226562 5.140625 5.738281 3.945312 5.40625 C 2.75 5.074219 1.921875 3.984375 1.925781 2.746094 C 1.929688 1.503906 2.765625 0.417969 3.960938 0.09375 C 5.160156 -0.226562 6.425781 0.289062 7.054688 1.359375 L 12.59375 1.359375 Z M 3.5 1.96875 C 3.074219 1.96875 2.730469 2.316406 2.730469 2.742188 C 2.730469 3.167969 3.074219 3.511719 3.5 3.511719 C 3.925781 3.511719 4.269531 3.167969 4.269531 2.742188 C 4.269531 2.316406 3.925781 1.96875 3.5 1.96875 Z M 3.5 1.96875 "/>
</g>
</svg>
