<?xml version="1.0" encoding="UTF-8"?>
<svg xmlns="http://www.w3.org/2000/svg" xmlns:xlink="http://www.w3.org/1999/xlink" width="11" height="6.365055" viewBox="0 0 11 6.365055">
<path fill-rule="nonzero" fill="rgb(30%,30%,30%)" fill-opacity="1" d="M 8.832031 2.027344 C 8.410156 2.027344 7.996094 2.152344 7.644531 2.382812 L 6.757812 1.3125 L 7.0625 0.402344 C 7.0625 0.402344 7.0625 0.402344 7.0625 0.398438 L 7.53125 0.402344 C 7.636719 0.402344 7.71875 0.316406 7.71875 0.214844 C 7.71875 0.109375 7.636719 0.0273438 7.535156 0.0273438 L 6.039062 0.0234375 C 5.9375 0.0234375 5.851562 0.105469 5.851562 0.210938 C 5.851562 0.3125 5.9375 0.398438 6.039062 0.398438 L 6.613281 0.398438 L 6.414062 0.980469 L 3.511719 0.972656 L 3.503906 0.957031 C 3.496094 0.949219 3.488281 0.941406 3.480469 0.933594 L 3.652344 0.429688 L 4.304688 0.429688 C 4.421875 0.429688 4.515625 0.332031 4.515625 0.214844 C 4.515625 0.0976562 4.421875 0 4.304688 0 L 3.34375 0 L 2.910156 1.28125 L 2.640625 2.082031 C 2.484375 2.046875 2.328125 2.027344 2.167969 2.027344 C 0.972656 2.027344 0 3 0 4.195312 C 0 5.390625 0.972656 6.363281 2.167969 6.363281 C 3.363281 6.363281 4.335938 5.390625 4.335938 4.195312 C 4.335938 3.3125 3.804688 2.550781 3.046875 2.214844 L 3.316406 1.425781 L 5.410156 4.261719 C 5.449219 4.316406 5.511719 4.347656 5.582031 4.347656 C 5.585938 4.347656 5.59375 4.347656 5.597656 4.347656 C 5.601562 4.347656 5.605469 4.347656 5.609375 4.347656 L 6.667969 4.347656 C 6.746094 5.472656 7.6875 6.363281 8.832031 6.363281 C 10.027344 6.363281 11 5.390625 11 4.195312 C 11 3 10.027344 2.027344 8.832031 2.027344 Z M 3.90625 4.195312 C 3.90625 5.15625 3.128906 5.9375 2.167969 5.9375 C 1.207031 5.9375 0.429688 5.15625 0.429688 4.195312 C 0.429688 3.238281 1.207031 2.457031 2.167969 2.457031 C 2.28125 2.457031 2.390625 2.46875 2.5 2.488281 L 1.960938 4.074219 C 1.921875 4.183594 1.984375 4.304688 2.09375 4.34375 C 2.207031 4.382812 2.328125 4.324219 2.367188 4.210938 L 2.90625 2.621094 C 3.515625 2.910156 3.90625 3.523438 3.90625 4.195312 Z M 8.359375 3.917969 L 7.113281 3.917969 C 7.171875 3.566406 7.335938 3.242188 7.585938 2.984375 Z M 7.3125 2.652344 C 6.964844 2.992188 6.746094 3.4375 6.683594 3.917969 L 5.878906 3.917969 L 6.597656 1.789062 Z M 6.273438 1.410156 L 5.507812 3.675781 L 3.828125 1.402344 Z M 8.832031 5.9375 C 7.921875 5.9375 7.175781 5.238281 7.097656 4.347656 L 8.804688 4.347656 C 8.886719 4.34375 8.960938 4.292969 8.996094 4.214844 C 9.03125 4.140625 9.023438 4.050781 8.96875 3.984375 L 7.917969 2.714844 C 8.195312 2.546875 8.511719 2.457031 8.832031 2.457031 C 9.792969 2.457031 10.570312 3.238281 10.570312 4.195312 C 10.570312 5.15625 9.792969 5.9375 8.832031 5.9375 Z M 8.832031 5.9375 "/>
</svg>
