<?xml version="1.0" encoding="UTF-8" standalone="no"?>
<!-- Created with Inkscape (http://www.inkscape.org/) -->

<svg
   xmlns:dc="http://purl.org/dc/elements/1.1/"
   xmlns:cc="http://creativecommons.org/ns#"
   xmlns:rdf="http://www.w3.org/1999/02/22-rdf-syntax-ns#"
   xmlns:svg="http://www.w3.org/2000/svg"
   xmlns="http://www.w3.org/2000/svg"
   xmlns:xlink="http://www.w3.org/1999/xlink"
   xmlns:sodipodi="http://sodipodi.sourceforge.net/DTD/sodipodi-0.dtd"
   xmlns:inkscape="http://www.inkscape.org/namespaces/inkscape"
   width="30px"
   height="30px"
   version="1.1"
   id="svg8"
   inkscape:version="0.92.4 5da689c313, 2019-01-14"
   sodipodi:docname="container.svg">
  <defs
     id="defs2" />
  <sodipodi:namedview
     id="base"
     pagecolor="#ffffff"
     bordercolor="#666666"
     borderopacity="1.0"
     inkscape:pageopacity="0.0"
     inkscape:pageshadow="2"
     inkscape:zoom="13.049334"
     inkscape:cx="18.679046"
     inkscape:cy="12.165829"
     inkscape:document-units="px"
     inkscape:current-layer="layer1"
     showgrid="false"
     inkscape:snap-page="false"
     units="px"
     inkscape:window-width="1884"
     inkscape:window-height="1061"
     inkscape:window-x="0"
     inkscape:window-y="0"
     inkscape:window-maximized="1"
     fit-margin-top="0"
     fit-margin-left="0"
     fit-margin-right="0"
     fit-margin-bottom="0" />
  <metadata
     id="metadata5">
    <rdf:RDF>
      <cc:Work
         rdf:about="">
        <dc:format>image/svg+xml</dc:format>
        <dc:type
           rdf:resource="http://purl.org/dc/dcmitype/StillImage" />
        <dc:title></dc:title>
      </cc:Work>
    </rdf:RDF>
  </metadata>
    <circle
       style="color:#000000;clip-rule:nonzero;display:inline;overflow:visible;visibility:visible;opacity:1;isolation:auto;mix-blend-mode:normal;color-interpolation:sRGB;color-interpolation-filters:linearRGB;solid-color:#000000;solid-opacity:1;vector-effect:none;fill:#ffffff;fill-opacity:1;fill-rule:evenodd;stroke:#3b74b9;stroke-width:1;stroke-linecap:butt;stroke-linejoin:miter;stroke-miterlimit:4;stroke-dasharray:none;stroke-dashoffset:0;stroke-opacity:1;marker:none;color-rendering:auto;image-rendering:auto;shape-rendering:auto;text-rendering:auto;enable-background:accumulate"
       id="path815"
       cx="15"
       cy="15"
       r="14.5" />
<g transform="translate(6.5,8.5)"><path fill-rule="nonzero" fill="rgb(30%,30%,30%)" fill-opacity="1" d="M 16.308594 4.941406 L 14.980469 4.929688 C 14.890625 2.082031 12.089844 0.015625 8.277344 0 C 6.265625 -0.00390625 4.40625 0.707031 3.171875 1.960938 C 2.300781 2.847656 1.824219 3.90625 1.828125 4.949219 L 0.691406 4.941406 C 0.308594 4.945312 0 5.253906 0 5.632812 C 0 5.996094 0.0546875 6.414062 1.234375 6.503906 C 0.804688 6.984375 0.773438 7.527344 0.773438 8.089844 C 0.773438 8.679688 0.984375 9.570312 1.453125 10.160156 C 1.4375 10.234375 1.429688 10.308594 1.429688 10.382812 L 1.429688 12.039062 C 1.429688 12.597656 1.882812 13.054688 2.445312 13.054688 L 3.046875 13.054688 C 3.609375 13.054688 4.0625 12.597656 4.0625 12.039062 L 4.0625 11.230469 C 4.070312 11.230469 4.074219 11.230469 4.078125 11.230469 C 5.257812 11.328125 11.480469 11.328125 12.964844 11.203125 L 12.964844 12.039062 C 12.96875 12.597656 13.421875 13.054688 13.980469 13.054688 L 14.585938 13.054688 C 15.144531 13.054688 15.597656 12.597656 15.601562 12.039062 L 15.601562 10.382812 C 15.601562 10.324219 15.59375 10.265625 15.585938 10.207031 C 16.027344 9.675781 16.199219 8.65625 16.199219 8.089844 C 16.199219 7.5625 16.152344 6.976562 15.773438 6.519531 C 15.921875 6.480469 16.066406 6.441406 16.1875 6.402344 C 16.773438 6.222656 17 6.015625 17 5.632812 C 17 5.253906 16.691406 4.945312 16.308594 4.941406 Z M 3.605469 2.390625 C 4.722656 1.257812 6.410156 0.609375 8.242188 0.609375 C 8.253906 0.609375 8.261719 0.609375 8.273438 0.613281 C 11.78125 0.625 14.347656 2.484375 14.371094 5.027344 C 14.375 5.296875 14.339844 5.566406 14.273438 5.828125 C 14.183594 5.898438 14.074219 5.980469 13.941406 6.070312 C 13.648438 5.460938 13.113281 5.007812 12.46875 4.820312 C 12.871094 4.5 13.023438 3.960938 12.851562 3.480469 C 12.675781 2.996094 12.214844 2.679688 11.703125 2.691406 C 11.1875 2.707031 10.742188 3.046875 10.59375 3.535156 C 10.441406 4.027344 10.625 4.558594 11.042969 4.855469 C 10.757812 4.953125 10.492188 5.105469 10.265625 5.304688 C 10.132812 4.5625 9.519531 3.972656 8.734375 3.804688 C 9.035156 3.589844 9.160156 3.199219 9.042969 2.847656 C 8.925781 2.496094 8.59375 2.261719 8.222656 2.265625 C 7.851562 2.273438 7.527344 2.519531 7.425781 2.875 C 7.320312 3.230469 7.457031 3.613281 7.765625 3.820312 C 6.992188 4.011719 6.402344 4.613281 6.292969 5.359375 C 6.070312 5.148438 5.804688 4.984375 5.519531 4.875 C 5.945312 4.589844 6.140625 4.066406 6.007812 3.570312 C 5.871094 3.074219 5.433594 2.722656 4.921875 2.695312 C 4.410156 2.667969 3.9375 2.972656 3.75 3.449219 C 3.5625 3.929688 3.703125 4.472656 4.097656 4.800781 C 3.492188 4.957031 2.976562 5.347656 2.660156 5.882812 C 2.605469 5.828125 2.5625 5.777344 2.527344 5.730469 C 2.472656 5.492188 2.445312 5.246094 2.4375 4.996094 C 2.421875 4.097656 2.835938 3.175781 3.605469 2.390625 Z M 3.054688 6.246094 C 3.46875 5.433594 4.410156 5.046875 5.273438 5.335938 C 6.136719 5.625 6.65625 6.5 6.5 7.394531 C 4.679688 7.21875 3.632812 6.691406 3.054688 6.246094 Z M 9.972656 7.085938 C 9.972656 6.21875 10.578125 5.472656 11.425781 5.289062 C 12.273438 5.109375 13.132812 5.542969 13.488281 6.335938 C 12.78125 6.707031 11.671875 7.117188 9.988281 7.324219 C 9.980469 7.246094 9.972656 7.167969 9.972656 7.085938 Z M 9.925781 5.667969 C 9.617188 6.078125 9.449219 6.574219 9.449219 7.085938 C 9.449219 7.183594 9.457031 7.285156 9.46875 7.378906 C 9.105469 7.414062 8.71875 7.4375 8.304688 7.449219 C 7.84375 7.464844 7.417969 7.457031 7.023438 7.4375 C 7.042969 7.320312 7.050781 7.203125 7.050781 7.085938 C 7.050781 6.621094 6.910156 6.164062 6.652344 5.777344 C 6.644531 5.722656 6.640625 5.664062 6.640625 5.609375 C 6.640625 4.789062 7.378906 4.121094 8.285156 4.121094 C 9.191406 4.121094 9.929688 4.789062 9.929688 5.609375 C 9.929688 5.628906 9.925781 5.648438 9.925781 5.667969 Z M 9.925781 5.667969 "/>
</g>
</svg>
