<?xml version="1.0" encoding="UTF-8"?>
<svg xmlns="http://www.w3.org/2000/svg" xmlns:xlink="http://www.w3.org/1999/xlink" width="11" height="8.411845" viewBox="0 0 11 8.411845">
<path fill-rule="nonzero" fill="rgb(30%,30%,30%)" fill-opacity="1" d="M 6.21875 6.792969 L 5.753906 6.792969 C 5.714844 6.792969 5.675781 6.808594 5.652344 6.835938 L 4.371094 8.195312 C 4.335938 8.234375 4.328125 8.289062 4.351562 8.335938 C 4.371094 8.382812 4.421875 8.410156 4.472656 8.410156 L 5.453125 8.410156 C 5.503906 8.410156 5.550781 8.386719 5.574219 8.34375 L 6.335938 6.984375 C 6.359375 6.945312 6.359375 6.894531 6.335938 6.855469 C 6.308594 6.816406 6.265625 6.792969 6.21875 6.792969 Z M 6.21875 6.792969 "/>
<path fill-rule="nonzero" fill="rgb(30%,30%,30%)" fill-opacity="1" d="M 10.417969 0.636719 C 10.367188 0.285156 10.011719 0 9.632812 0 L 5.535156 0 C 5.160156 0 4.804688 0.285156 4.75 0.636719 C 4.75 0.636719 4.300781 2.644531 4.191406 3.570312 L 3.882812 3.394531 C 3.882812 3.394531 3.585938 3.460938 3.394531 3.378906 C 3.132812 3.265625 3.035156 3.039062 3.035156 3.039062 L 1.96875 3.335938 L 1.484375 4.375 L 1.796875 4.523438 L 2.171875 3.71875 L 2.636719 3.671875 L 2.261719 5.039062 L 2.027344 5.746094 L 1.152344 6.921875 L 1.648438 7.269531 L 2.570312 6.050781 L 2.804688 5.535156 L 3.246094 6.0625 L 3.054688 7.25 C 3.054688 7.25 3.632812 7.269531 3.640625 7.25 C 3.644531 7.230469 3.855469 5.933594 3.855469 5.933594 L 3.152344 5 L 3.492188 4.207031 L 3.722656 3.847656 L 4.167969 4.046875 L 4.167969 4.851562 C 4.167969 5.824219 4.511719 6.472656 5.535156 6.472656 L 9.632812 6.472656 C 10.660156 6.472656 11 5.5 11 4.851562 L 11 3.882812 C 11 3.234375 10.417969 0.636719 10.417969 0.636719 Z M 6.21875 5.332031 C 6.21875 5.375 6.199219 5.410156 6.164062 5.4375 C 6.132812 5.460938 6.089844 5.46875 6.046875 5.460938 L 4.957031 5.203125 C 4.894531 5.1875 4.851562 5.132812 4.851562 5.074219 L 4.851562 4.414062 C 4.851562 4.371094 4.875 4.328125 4.917969 4.304688 C 4.957031 4.28125 5.007812 4.28125 5.050781 4.300781 L 6.144531 4.816406 C 6.191406 4.839844 6.21875 4.882812 6.21875 4.933594 Z M 4.941406 3.605469 C 4.886719 3.578125 4.859375 3.523438 4.871094 3.464844 L 5.382812 0.738281 C 5.386719 0.703125 5.453125 0.648438 5.492188 0.648438 L 9.691406 0.648438 C 9.734375 0.648438 9.796875 0.703125 9.804688 0.738281 L 10.300781 3.46875 C 10.308594 3.523438 10.285156 3.578125 10.230469 3.605469 C 9.910156 3.765625 8.746094 4.304688 7.585938 4.304688 C 6.421875 4.304688 5.261719 3.765625 4.941406 3.605469 Z M 10.316406 5.074219 C 10.316406 5.132812 10.273438 5.1875 10.214844 5.203125 L 9.121094 5.460938 C 9.078125 5.46875 9.035156 5.460938 9.003906 5.4375 C 8.972656 5.410156 8.949219 5.375 8.949219 5.332031 L 8.949219 4.933594 C 8.949219 4.882812 8.980469 4.839844 9.027344 4.816406 L 10.117188 4.300781 C 10.160156 4.28125 10.210938 4.28125 10.253906 4.304688 C 10.292969 4.328125 10.316406 4.371094 10.316406 4.414062 Z M 10.316406 5.074219 "/>
<path fill-rule="nonzero" fill="rgb(30%,30%,30%)" fill-opacity="1" d="M 9.492188 6.835938 C 9.46875 6.808594 9.429688 6.792969 9.390625 6.792969 L 8.933594 6.792969 C 8.882812 6.792969 8.839844 6.816406 8.816406 6.855469 C 8.789062 6.894531 8.789062 6.945312 8.8125 6.988281 L 9.59375 8.34375 C 9.621094 8.386719 9.664062 8.410156 9.714844 8.410156 L 10.691406 8.410156 C 10.746094 8.410156 10.792969 8.382812 10.816406 8.332031 C 10.839844 8.289062 10.828125 8.234375 10.792969 8.195312 Z M 9.492188 6.835938 "/>
<path fill-rule="nonzero" fill="rgb(30%,30%,30%)" fill-opacity="1" d="M 4.203125 2.714844 C 4.203125 3.007812 3.964844 3.242188 3.671875 3.242188 C 3.382812 3.242188 3.144531 3.007812 3.144531 2.714844 C 3.144531 2.421875 3.382812 2.1875 3.671875 2.1875 C 3.964844 2.1875 4.203125 2.421875 4.203125 2.714844 Z M 4.203125 2.714844 "/>
<path fill-rule="nonzero" fill="rgb(30%,30%,30%)" fill-opacity="1" d="M 0.535156 6.707031 C 0.691406 6.640625 0.828125 6.761719 0.828125 6.761719 L 1.496094 5.472656 L 0.867188 5.15625 L 0 6.792969 L 0.324219 6.964844 C 0.324219 6.964844 0.359375 6.785156 0.535156 6.707031 Z M 0.535156 6.707031 "/>
<path fill-rule="nonzero" fill="rgb(30%,30%,30%)" fill-opacity="1" d="M 0.890625 7.023438 C 0.890625 7.164062 0.777344 7.28125 0.636719 7.28125 C 0.496094 7.28125 0.382812 7.164062 0.382812 7.023438 C 0.382812 6.886719 0.496094 6.769531 0.636719 6.769531 C 0.777344 6.769531 0.890625 6.886719 0.890625 7.023438 Z M 0.890625 7.023438 "/>
<path fill-rule="nonzero" fill="rgb(30%,30%,30%)" fill-opacity="1" d="M 1.164062 5.164062 L 1.519531 4.554688 L 1.667969 4.640625 L 1.316406 5.253906 Z M 1.164062 5.164062 "/>
</svg>
