<?xml version="1.0" encoding="UTF-8"?>
<svg xmlns="http://www.w3.org/2000/svg" xmlns:xlink="http://www.w3.org/1999/xlink" width="8.461602" height="11" viewBox="0 0 8.461602 11">
<path fill-rule="nonzero" fill="rgb(30%,30%,30%)" fill-opacity="1" d="M 0 6.347656 L 0 5.078125 C 0 4.230469 0.71875 0.832031 0.71875 0.832031 C 0.785156 0.371094 1.226562 0 1.691406 0 L 6.769531 0 C 7.234375 0 7.675781 0.371094 7.742188 0.832031 C 7.742188 0.832031 8.460938 4.230469 8.460938 5.078125 L 8.460938 6.347656 C 8.460938 7.191406 8.039062 8.460938 6.769531 8.460938 L 1.691406 8.460938 C 0.421875 8.460938 0 7.617188 0 6.347656 Z M 1.960938 8.882812 L 2.535156 8.882812 C 2.59375 8.882812 2.648438 8.914062 2.679688 8.964844 C 2.710938 9.019531 2.714844 9.082031 2.683594 9.132812 L 1.738281 10.910156 C 1.710938 10.964844 1.652344 11 1.589844 11 L 0.378906 11 C 0.3125 11 0.25 10.960938 0.222656 10.898438 C 0.195312 10.839844 0.207031 10.769531 0.25 10.71875 L 1.835938 8.941406 C 1.867188 8.90625 1.914062 8.882812 1.960938 8.882812 Z M 7.507812 4.710938 C 7.570312 4.679688 7.605469 4.605469 7.59375 4.535156 L 6.980469 0.964844 C 6.972656 0.917969 6.890625 0.847656 6.839844 0.847656 L 1.640625 0.847656 C 1.589844 0.847656 1.507812 0.917969 1.5 0.964844 L 0.867188 4.535156 C 0.855469 4.605469 0.890625 4.679688 0.953125 4.714844 C 1.355469 4.925781 2.792969 5.632812 4.230469 5.632812 C 5.671875 5.632812 7.109375 4.925781 7.507812 4.710938 Z M 2.445312 6.300781 L 1.089844 5.621094 C 1.039062 5.597656 0.976562 5.597656 0.925781 5.628906 C 0.875 5.660156 0.847656 5.714844 0.847656 5.773438 L 0.847656 6.636719 C 0.847656 6.714844 0.898438 6.78125 0.972656 6.800781 L 2.328125 7.140625 C 2.378906 7.152344 2.433594 7.140625 2.472656 7.109375 C 2.515625 7.078125 2.539062 7.027344 2.539062 6.976562 L 2.539062 6.449219 C 2.539062 6.386719 2.503906 6.328125 2.445312 6.300781 Z M 5.898438 8.882812 L 6.46875 8.882812 C 6.515625 8.882812 6.5625 8.90625 6.59375 8.941406 L 8.203125 10.71875 C 8.25 10.765625 8.261719 10.839844 8.234375 10.898438 C 8.207031 10.960938 8.148438 11 8.078125 11 L 6.871094 11 C 6.808594 11 6.75 10.964844 6.722656 10.910156 L 5.75 9.136719 C 5.722656 9.082031 5.722656 9.019531 5.753906 8.96875 C 5.785156 8.917969 5.839844 8.882812 5.898438 8.882812 Z M 7.617188 6.636719 L 7.617188 5.773438 C 7.617188 5.714844 7.585938 5.660156 7.535156 5.628906 C 7.484375 5.597656 7.421875 5.597656 7.371094 5.621094 L 6.015625 6.300781 C 5.960938 6.328125 5.921875 6.386719 5.921875 6.449219 L 5.921875 6.976562 C 5.921875 7.027344 5.945312 7.078125 5.988281 7.109375 C 6.027344 7.140625 6.082031 7.152344 6.132812 7.140625 L 7.488281 6.800781 C 7.5625 6.78125 7.617188 6.714844 7.617188 6.636719 Z M 7.617188 6.636719 "/>
</svg>
