<?xml version="1.0" encoding="UTF-8"?>
<svg xmlns="http://www.w3.org/2000/svg" xmlns:xlink="http://www.w3.org/1999/xlink" width="7.303124" height="11" viewBox="0 0 7.303124 11">
<path fill-rule="nonzero" fill="rgb(30%,30%,30%)" fill-opacity="1" d="M 5.511719 8.59375 L 1.785156 8.59375 C 1.054688 8.59375 0.460938 8 0.460938 7.269531 L 0.460938 3.214844 C 0.460938 1.917969 1.507812 0.871094 2.804688 0.871094 L 4.488281 0.871094 C 5.785156 0.871094 6.835938 1.917969 6.835938 3.214844 L 6.835938 7.269531 C 6.835938 8 6.242188 8.59375 5.511719 8.59375 Z M 1.859375 6.707031 C 1.550781 6.707031 1.300781 6.957031 1.300781 7.265625 C 1.300781 7.570312 1.550781 7.820312 1.859375 7.820312 C 2.164062 7.820312 2.414062 7.570312 2.414062 7.265625 C 2.414062 6.957031 2.164062 6.707031 1.859375 6.707031 Z M 5.441406 6.707031 C 5.136719 6.707031 4.886719 6.957031 4.886719 7.265625 C 4.886719 7.570312 5.136719 7.820312 5.441406 7.820312 C 5.75 7.820312 6 7.570312 6 7.265625 C 6 6.957031 5.75 6.707031 5.441406 6.707031 Z M 4.867188 1.632812 C 4.863281 1.398438 4.675781 1.210938 4.441406 1.210938 L 2.882812 1.210938 C 2.652344 1.210938 2.460938 1.398438 2.460938 1.632812 C 2.460938 1.867188 2.652344 2.054688 2.882812 2.054688 L 4.441406 2.054688 C 4.675781 2.054688 4.863281 1.867188 4.867188 1.632812 Z M 6.078125 4.222656 L 6.078125 3.035156 C 6.078125 2.652344 5.765625 2.339844 5.378906 2.339844 L 1.96875 2.339844 C 1.582031 2.339844 1.269531 2.652344 1.269531 3.035156 L 1.269531 4.222656 C 1.269531 4.609375 1.582031 4.921875 1.96875 4.921875 L 5.378906 4.921875 C 5.765625 4.921875 6.078125 4.609375 6.078125 4.222656 Z M 6.078125 4.222656 "/>
<path fill-rule="nonzero" fill="rgb(30%,30%,30%)" fill-opacity="1" d="M 3.515625 0.390625 C 3.515625 0.605469 3.339844 0.777344 3.125 0.777344 C 2.910156 0.777344 2.734375 0.605469 2.734375 0.390625 C 2.734375 0.175781 2.910156 0 3.125 0 C 3.339844 0 3.515625 0.175781 3.515625 0.390625 Z M 3.515625 0.390625 "/>
<path fill-rule="nonzero" fill="rgb(30%,30%,30%)" fill-opacity="1" d="M 4.5625 0.390625 C 4.5625 0.605469 4.386719 0.777344 4.171875 0.777344 C 3.957031 0.777344 3.78125 0.605469 3.78125 0.390625 C 3.78125 0.175781 3.957031 0 4.171875 0 C 4.386719 0 4.5625 0.175781 4.5625 0.390625 Z M 4.5625 0.390625 "/>
<path fill-rule="nonzero" fill="rgb(30%,30%,30%)" fill-opacity="1" d="M 2.136719 9.21875 L 1.226562 9.21875 L 0 11 L 0.914062 11 Z M 2.136719 9.21875 "/>
<path fill-rule="nonzero" fill="rgb(30%,30%,30%)" fill-opacity="1" d="M 6.191406 9.21875 L 5.277344 9.21875 L 6.390625 11 L 7.304688 11 Z M 6.191406 9.21875 "/>
</svg>
