<?xml version="1.0" encoding="UTF-8"?>
<svg xmlns="http://www.w3.org/2000/svg" xmlns:xlink="http://www.w3.org/1999/xlink" width="9.938455" height="11" viewBox="0 0 9.938455 11">
<path fill-rule="nonzero" fill="rgb(30%,30%,30%)" fill-opacity="1" d="M 7.550781 0 C 6.234375 0 5.167969 2.460938 5.167969 5.5 C 5.167969 5.917969 5.1875 6.335938 5.230469 6.75 C 5.359375 6.664062 5.5 6.601562 5.652344 6.5625 C 5.824219 6.519531 6.003906 6.519531 6.179688 6.558594 C 6.148438 6.257812 6.128906 5.953125 6.128906 5.648438 C 6.128906 3.703125 6.761719 2.128906 7.535156 2.128906 C 8.308594 2.128906 8.941406 3.703125 8.941406 5.648438 C 8.941406 6.65625 8.769531 7.570312 8.496094 8.210938 L 8.035156 7.847656 L 8 7.894531 C 6.726562 6.902344 6.179688 6.730469 5.6875 6.851562 C 4.886719 7.046875 4.550781 7.941406 4.324219 8.53125 C 4.273438 8.664062 4.230469 8.773438 4.195312 8.847656 C 3.734375 9.769531 3.570312 9.769531 3.132812 9.769531 C 2.960938 9.769531 2.894531 9.71875 2.855469 9.679688 C 2.632812 9.449219 2.644531 8.703125 2.671875 7.816406 L 3.078125 7.816406 C 3.25 7.816406 3.386719 7.675781 3.386719 7.507812 L 3.386719 5.085938 C 4.472656 4.628906 5.160156 3.410156 4.78125 2.105469 C 4.554688 1.339844 3.960938 0.738281 3.199219 0.503906 C 1.53125 -0.00390625 0 1.238281 0 2.832031 C 0 3.824219 0.59375 4.679688 1.445312 5.0625 C 1.445312 5.074219 1.441406 5.089844 1.441406 5.101562 L 1.441406 7.503906 C 1.441406 7.675781 1.582031 7.8125 1.75 7.8125 L 2.007812 7.8125 C 1.972656 8.953125 1.972656 9.714844 2.382812 10.140625 C 2.570312 10.332031 2.824219 10.429688 3.132812 10.429688 C 3.824219 10.429688 4.210938 10.304688 4.789062 9.144531 C 4.839844 9.039062 4.886719 8.914062 4.945312 8.765625 C 5.121094 8.304688 5.386719 7.605469 5.847656 7.496094 C 6.128906 7.425781 6.511719 7.570312 7.589844 8.414062 L 7.519531 8.503906 L 8.054688 8.917969 C 7.894531 9.078125 7.71875 9.167969 7.539062 9.167969 C 7.125 9.167969 6.753906 8.722656 6.496094 8.011719 C 6.292969 7.933594 6.085938 7.894531 5.972656 7.921875 C 5.835938 7.953125 5.621094 8.117188 5.496094 8.28125 C 5.910156 9.90625 6.675781 11 7.554688 11 C 8.871094 11 9.9375 8.539062 9.9375 5.5 C 9.9375 2.460938 8.867188 0 7.550781 0 Z M 2.261719 4.808594 C 1.3125 4.726562 0.550781 3.960938 0.464844 3.015625 C 0.355469 1.78125 1.386719 0.75 2.621094 0.859375 C 3.570312 0.941406 4.332031 1.707031 4.414062 2.652344 C 4.527344 3.886719 3.496094 4.917969 2.261719 4.808594 Z M 2.261719 4.808594 "/>
<path fill-rule="nonzero" fill="rgb(30%,30%,30%)" fill-opacity="1" d="M 2.820312 2.917969 C 2.820312 3.121094 2.65625 3.285156 2.453125 3.285156 C 2.414062 3.285156 2.375 3.277344 2.339844 3.265625 C 2.316406 3.261719 2.296875 3.253906 2.277344 3.238281 C 2.167969 3.179688 2.097656 3.070312 2.089844 2.949219 C 1.847656 2.503906 1.371094 1.582031 1.484375 1.507812 C 1.589844 1.4375 2.210938 2.160156 2.542969 2.566406 C 2.703125 2.605469 2.816406 2.75 2.820312 2.917969 Z M 2.453125 2.71875 C 2.347656 2.71875 2.265625 2.820312 2.265625 2.941406 C 2.265625 3.0625 2.351562 3.164062 2.453125 3.164062 C 2.558594 3.164062 2.636719 3.0625 2.636719 2.941406 C 2.640625 2.820312 2.558594 2.71875 2.453125 2.71875 Z M 2.453125 2.71875 "/>
</svg>
