<?xml version="1.0" encoding="UTF-8" standalone="no"?>
<!-- Created with Inkscape (http://www.inkscape.org/) -->

<svg
   xmlns:dc="http://purl.org/dc/elements/1.1/"
   xmlns:cc="http://creativecommons.org/ns#"
   xmlns:rdf="http://www.w3.org/1999/02/22-rdf-syntax-ns#"
   xmlns:svg="http://www.w3.org/2000/svg"
   xmlns="http://www.w3.org/2000/svg"
   xmlns:xlink="http://www.w3.org/1999/xlink"
   xmlns:sodipodi="http://sodipodi.sourceforge.net/DTD/sodipodi-0.dtd"
   xmlns:inkscape="http://www.inkscape.org/namespaces/inkscape"
   width="30px"
   height="30px"
   version="1.1"
   id="svg8"
   inkscape:version="0.92.4 5da689c313, 2019-01-14"
   sodipodi:docname="container.svg">
  <defs
     id="defs2" />
  <sodipodi:namedview
     id="base"
     pagecolor="#ffffff"
     bordercolor="#666666"
     borderopacity="1.0"
     inkscape:pageopacity="0.0"
     inkscape:pageshadow="2"
     inkscape:zoom="13.049334"
     inkscape:cx="18.679046"
     inkscape:cy="12.165829"
     inkscape:document-units="px"
     inkscape:current-layer="layer1"
     showgrid="false"
     inkscape:snap-page="false"
     units="px"
     inkscape:window-width="1884"
     inkscape:window-height="1061"
     inkscape:window-x="0"
     inkscape:window-y="0"
     inkscape:window-maximized="1"
     fit-margin-top="0"
     fit-margin-left="0"
     fit-margin-right="0"
     fit-margin-bottom="0" />
  <metadata
     id="metadata5">
    <rdf:RDF>
      <cc:Work
         rdf:about="">
        <dc:format>image/svg+xml</dc:format>
        <dc:type
           rdf:resource="http://purl.org/dc/dcmitype/StillImage" />
        <dc:title></dc:title>
      </cc:Work>
    </rdf:RDF>
  </metadata>
    <circle
       style="color:#000000;clip-rule:nonzero;display:inline;overflow:visible;visibility:visible;opacity:1;isolation:auto;mix-blend-mode:normal;color-interpolation:sRGB;color-interpolation-filters:linearRGB;solid-color:#000000;solid-opacity:1;vector-effect:none;fill:#008ecf;fill-opacity:1;fill-rule:evenodd;stroke:#ffffff;stroke-width:1;stroke-linecap:butt;stroke-linejoin:miter;stroke-miterlimit:4;stroke-dasharray:none;stroke-dashoffset:0;stroke-opacity:1;marker:none;color-rendering:auto;image-rendering:auto;shape-rendering:auto;text-rendering:auto;enable-background:accumulate"
       id="path815"
       cx="15"
       cy="15"
       r="14.5" />
<g transform="translate(9.5,6.5)"><path fill-rule="nonzero" fill="#FFFFFF" fill-opacity="1" d="M 8.515625 13.285156 L 2.757812 13.285156 C 1.628906 13.285156 0.710938 12.367188 0.710938 11.234375 L 0.710938 4.96875 C 0.710938 2.964844 2.332031 1.34375 4.335938 1.34375 L 6.9375 1.34375 C 8.941406 1.34375 10.5625 2.964844 10.5625 4.96875 L 10.5625 11.234375 C 10.5625 12.367188 9.648438 13.285156 8.515625 13.285156 Z M 2.871094 10.367188 C 2.398438 10.367188 2.011719 10.75 2.011719 11.226562 C 2.011719 11.703125 2.398438 12.085938 2.871094 12.085938 C 3.347656 12.085938 3.730469 11.703125 3.730469 11.226562 C 3.730469 10.75 3.347656 10.367188 2.871094 10.367188 Z M 8.414062 10.367188 C 7.9375 10.367188 7.550781 10.75 7.550781 11.226562 C 7.550781 11.703125 7.9375 12.085938 8.414062 12.085938 C 8.886719 12.085938 9.273438 11.703125 9.273438 11.226562 C 9.273438 10.75 8.886719 10.367188 8.414062 10.367188 Z M 7.519531 2.523438 C 7.519531 2.164062 7.226562 1.871094 6.867188 1.871094 L 4.457031 1.871094 C 4.097656 1.871094 3.804688 2.164062 3.804688 2.523438 C 3.804688 2.882812 4.097656 3.175781 4.457031 3.175781 L 6.867188 3.175781 C 7.226562 3.175781 7.519531 2.882812 7.519531 2.523438 Z M 9.394531 6.527344 L 9.394531 4.691406 C 9.394531 4.097656 8.910156 3.613281 8.316406 3.613281 L 3.039062 3.613281 C 2.445312 3.613281 1.960938 4.097656 1.960938 4.691406 L 1.960938 6.527344 C 1.960938 7.121094 2.445312 7.605469 3.039062 7.605469 L 8.316406 7.605469 C 8.910156 7.605469 9.394531 7.121094 9.394531 6.527344 Z M 9.394531 6.527344 "/>
<path fill-rule="nonzero" fill="#FFFFFF" fill-opacity="1" d="M 5.433594 0.601562 C 5.433594 0.933594 5.164062 1.203125 4.828125 1.203125 C 4.496094 1.203125 4.226562 0.933594 4.226562 0.601562 C 4.226562 0.269531 4.496094 0 4.828125 0 C 5.164062 0 5.433594 0.269531 5.433594 0.601562 Z M 5.433594 0.601562 "/>
<path fill-rule="nonzero" fill="#FFFFFF" fill-opacity="1" d="M 7.050781 0.601562 C 7.050781 0.933594 6.78125 1.203125 6.449219 1.203125 C 6.113281 1.203125 5.84375 0.933594 5.84375 0.601562 C 5.84375 0.269531 6.113281 0 6.449219 0 C 6.78125 0 7.050781 0.269531 7.050781 0.601562 Z M 7.050781 0.601562 "/>
<path fill-rule="nonzero" fill="#FFFFFF" fill-opacity="1" d="M 3.304688 14.246094 L 1.894531 14.246094 L 0 17 L 1.410156 17 Z M 3.304688 14.246094 "/>
<path fill-rule="nonzero" fill="#FFFFFF" fill-opacity="1" d="M 9.566406 14.246094 L 8.15625 14.246094 L 9.875 17 L 11.285156 17 Z M 9.566406 14.246094 "/>
</g>
</svg>
