<?xml version="1.0" encoding="UTF-8"?>
<svg xmlns="http://www.w3.org/2000/svg" xmlns:xlink="http://www.w3.org/1999/xlink" width="11" height="11.000006" viewBox="0 0 11 11.000006">
<path fill-rule="nonzero" fill="rgb(30%,30%,30%)" fill-opacity="1" d="M 7.023438 2.4375 L 3.71875 2.4375 C 3.050781 2.4375 2.511719 2.980469 2.511719 3.644531 L 2.511719 7.734375 C 2.511719 7.96875 2.699219 8.15625 2.933594 8.15625 L 2.949219 8.15625 L 2.949219 8.699219 C 2.949219 8.886719 3.101562 9.039062 3.289062 9.039062 L 3.492188 9.039062 C 3.679688 9.039062 3.832031 8.886719 3.832031 8.699219 L 3.832031 8.15625 L 6.914062 8.15625 C 6.914062 8.167969 6.910156 8.179688 6.910156 8.191406 L 6.910156 8.710938 C 6.910156 8.890625 7.058594 9.039062 7.238281 9.039062 L 7.464844 9.039062 C 7.644531 9.039062 7.789062 8.890625 7.789062 8.710938 L 7.789062 8.191406 C 7.789062 8.179688 7.789062 8.167969 7.785156 8.15625 L 7.804688 8.15625 C 8.039062 8.15625 8.230469 7.96875 8.230469 7.734375 L 8.230469 3.644531 C 8.230469 2.980469 7.691406 2.4375 7.023438 2.4375 Z M 3.867188 3.097656 L 6.875 3.097656 C 6.933594 3.097656 6.984375 3.148438 6.984375 3.207031 C 6.984375 3.269531 6.933594 3.320312 6.875 3.320312 L 3.867188 3.320312 C 3.808594 3.320312 3.757812 3.269531 3.757812 3.207031 C 3.757812 3.148438 3.808594 3.097656 3.867188 3.097656 Z M 3.390625 7.71875 C 3.148438 7.71875 2.949219 7.519531 2.949219 7.277344 C 2.949219 7.035156 3.148438 6.835938 3.390625 6.835938 C 3.632812 6.835938 3.832031 7.035156 3.832031 7.277344 C 3.832031 7.519531 3.632812 7.71875 3.390625 7.71875 Z M 7.351562 7.71875 C 7.105469 7.71875 6.910156 7.519531 6.910156 7.277344 C 6.910156 7.035156 7.105469 6.835938 7.351562 6.835938 C 7.59375 6.835938 7.789062 7.035156 7.789062 7.277344 C 7.789062 7.519531 7.59375 7.71875 7.351562 7.71875 Z M 7.789062 5.789062 C 7.789062 5.882812 7.714844 5.957031 7.621094 5.957031 L 3.117188 5.957031 C 3.027344 5.957031 2.949219 5.882812 2.949219 5.789062 L 2.949219 3.925781 C 2.949219 3.832031 3.027344 3.757812 3.117188 3.757812 L 7.621094 3.757812 C 7.714844 3.757812 7.789062 3.832031 7.789062 3.925781 Z M 7.789062 5.789062 "/>
<path fill-rule="nonzero" fill="rgb(30%,30%,30%)" fill-opacity="1" d="M 5.5 11 C 4.757812 11 4.039062 10.855469 3.359375 10.566406 C 2.703125 10.289062 2.117188 9.894531 1.609375 9.390625 C 1.105469 8.882812 0.710938 8.296875 0.433594 7.640625 C 0.144531 6.960938 0 6.242188 0 5.5 C 0 4.757812 0.144531 4.039062 0.433594 3.359375 C 0.710938 2.703125 1.105469 2.117188 1.609375 1.609375 C 2.117188 1.105469 2.703125 0.710938 3.359375 0.433594 C 4.039062 0.144531 4.757812 0 5.5 0 C 6.242188 0 6.960938 0.144531 7.640625 0.433594 C 8.296875 0.710938 8.882812 1.105469 9.390625 1.609375 C 9.894531 2.117188 10.289062 2.703125 10.566406 3.359375 C 10.855469 4.039062 11 4.757812 11 5.5 C 11 6.242188 10.855469 6.960938 10.566406 7.640625 C 10.289062 8.296875 9.894531 8.882812 9.390625 9.390625 C 8.882812 9.894531 8.296875 10.289062 7.640625 10.566406 C 6.960938 10.855469 6.242188 11 5.5 11 Z M 5.5 0.496094 C 4.824219 0.496094 4.167969 0.628906 3.550781 0.890625 C 2.957031 1.140625 2.421875 1.503906 1.960938 1.960938 C 1.503906 2.421875 1.140625 2.957031 0.890625 3.550781 C 0.628906 4.167969 0.496094 4.824219 0.496094 5.5 C 0.496094 6.175781 0.628906 6.832031 0.890625 7.449219 C 1.140625 8.042969 1.503906 8.578125 1.960938 9.039062 C 2.421875 9.496094 2.957031 9.859375 3.550781 10.109375 C 4.167969 10.371094 4.824219 10.503906 5.5 10.503906 C 6.175781 10.503906 6.832031 10.371094 7.449219 10.109375 C 8.042969 9.859375 8.578125 9.496094 9.039062 9.039062 C 9.496094 8.578125 9.859375 8.042969 10.109375 7.449219 C 10.371094 6.832031 10.503906 6.175781 10.503906 5.5 C 10.503906 4.824219 10.371094 4.167969 10.109375 3.550781 C 9.859375 2.957031 9.496094 2.421875 9.039062 1.960938 C 8.578125 1.503906 8.042969 1.140625 7.449219 0.890625 C 6.832031 0.628906 6.175781 0.496094 5.5 0.496094 Z M 5.5 0.496094 "/>
</svg>
