<?xml version="1.0" encoding="UTF-8" standalone="no"?>
<!-- Created with Inkscape (http://www.inkscape.org/) -->

<svg
   xmlns:dc="http://purl.org/dc/elements/1.1/"
   xmlns:cc="http://creativecommons.org/ns#"
   xmlns:rdf="http://www.w3.org/1999/02/22-rdf-syntax-ns#"
   xmlns:svg="http://www.w3.org/2000/svg"
   xmlns="http://www.w3.org/2000/svg"
   xmlns:xlink="http://www.w3.org/1999/xlink"
   xmlns:sodipodi="http://sodipodi.sourceforge.net/DTD/sodipodi-0.dtd"
   xmlns:inkscape="http://www.inkscape.org/namespaces/inkscape"
   width="30px"
   height="30px"
   version="1.1"
   id="svg8"
   inkscape:version="0.92.4 5da689c313, 2019-01-14"
   sodipodi:docname="container.svg">
  <defs
     id="defs2" />
  <sodipodi:namedview
     id="base"
     pagecolor="#ffffff"
     bordercolor="#666666"
     borderopacity="1.0"
     inkscape:pageopacity="0.0"
     inkscape:pageshadow="2"
     inkscape:zoom="13.049334"
     inkscape:cx="18.679046"
     inkscape:cy="12.165829"
     inkscape:document-units="px"
     inkscape:current-layer="layer1"
     showgrid="false"
     inkscape:snap-page="false"
     units="px"
     inkscape:window-width="1884"
     inkscape:window-height="1061"
     inkscape:window-x="0"
     inkscape:window-y="0"
     inkscape:window-maximized="1"
     fit-margin-top="0"
     fit-margin-left="0"
     fit-margin-right="0"
     fit-margin-bottom="0" />
  <metadata
     id="metadata5">
    <rdf:RDF>
      <cc:Work
         rdf:about="">
        <dc:format>image/svg+xml</dc:format>
        <dc:type
           rdf:resource="http://purl.org/dc/dcmitype/StillImage" />
        <dc:title></dc:title>
      </cc:Work>
    </rdf:RDF>
  </metadata>
    <circle
       style="color:#000000;clip-rule:nonzero;display:inline;overflow:visible;visibility:visible;opacity:1;isolation:auto;mix-blend-mode:normal;color-interpolation:sRGB;color-interpolation-filters:linearRGB;solid-color:#000000;solid-opacity:1;vector-effect:none;fill:#ffffff;fill-opacity:1;fill-rule:evenodd;stroke:#3b74b9;stroke-width:1;stroke-linecap:butt;stroke-linejoin:miter;stroke-miterlimit:4;stroke-dasharray:none;stroke-dashoffset:0;stroke-opacity:1;marker:none;color-rendering:auto;image-rendering:auto;shape-rendering:auto;text-rendering:auto;enable-background:accumulate"
       id="path815"
       cx="15"
       cy="15"
       r="14.5" />
<g transform="translate(6.5,7.5)"><path fill-rule="nonzero" fill="rgb(30%,30%,30%)" fill-opacity="1" d="M 16.308594 6.777344 L 15.222656 6.765625 C 15.089844 6.761719 14.976562 6.660156 14.96875 6.523438 C 14.84375 4.9375 14.007812 3.871094 12.574219 3.265625 L 12.574219 0.625 C 12.574219 0.28125 12.292969 0 11.949219 0 L 4.847656 0 C 4.503906 0 4.226562 0.28125 4.222656 0.625 L 4.222656 3.113281 C 3.824219 3.277344 3.464844 3.5 3.171875 3.796875 C 2.367188 4.613281 1.902344 5.574219 1.835938 6.539062 C 1.828125 6.675781 1.714844 6.78125 1.574219 6.78125 L 0.691406 6.777344 C 0.308594 6.777344 0 7.085938 0 7.46875 C 0 7.785156 0.0429688 8.140625 0.824219 8.289062 C 0.90625 8.300781 0.972656 8.355469 1.011719 8.429688 C 1.046875 8.503906 1.046875 8.589844 1.007812 8.664062 C 0.792969 9.058594 0.773438 9.484375 0.773438 9.921875 C 0.773438 10.484375 0.964844 11.320312 1.390625 11.910156 C 1.425781 11.960938 1.445312 12.027344 1.4375 12.09375 C 1.429688 12.132812 1.429688 12.175781 1.429688 12.21875 L 1.429688 13.613281 C 1.429688 14.316406 2 14.886719 2.707031 14.890625 L 2.789062 14.890625 C 3.492188 14.886719 4.0625 14.316406 4.0625 13.613281 L 4.0625 13.0625 C 4.070312 13.0625 4.074219 13.0625 4.078125 13.066406 C 5.195312 13.15625 10.832031 13.164062 12.691406 13.058594 C 12.761719 13.054688 12.832031 13.078125 12.882812 13.128906 C 12.9375 13.175781 12.964844 13.246094 12.964844 13.316406 L 12.964844 13.613281 C 12.96875 14.316406 13.539062 14.886719 14.242188 14.890625 L 14.324219 14.890625 C 15.027344 14.886719 15.597656 14.316406 15.601562 13.613281 L 15.601562 12.21875 C 15.601562 12.191406 15.597656 12.164062 15.597656 12.136719 C 15.59375 12.074219 15.609375 12.011719 15.648438 11.960938 C 16.042969 11.414062 16.199219 10.460938 16.199219 9.921875 C 16.199219 9.5 16.167969 9.035156 15.957031 8.628906 C 15.921875 8.558594 15.917969 8.480469 15.949219 8.40625 C 15.980469 8.335938 16.039062 8.28125 16.113281 8.261719 C 16.140625 8.253906 16.164062 8.246094 16.1875 8.238281 C 16.773438 8.058594 17 7.851562 17 7.46875 C 17 7.085938 16.691406 6.777344 16.308594 6.777344 Z M 3.96875 11.839844 C 3.371094 11.839844 2.882812 11.351562 2.882812 10.75 C 2.882812 10.148438 3.371094 9.660156 3.96875 9.660156 C 4.570312 9.660156 5.058594 10.148438 5.058594 10.75 C 5.058594 11.351562 4.570312 11.839844 3.96875 11.839844 Z M 2.46875 7.160156 C 2.710938 3.523438 4.691406 3.316406 7.527344 3.308594 L 8.339844 3.308594 C 11.605469 3.308594 14.226562 3.550781 14.300781 7.160156 C 14.332031 8.664062 11.558594 9.042969 8.289062 9.042969 C 5.023438 9.042969 2.367188 8.660156 2.46875 7.160156 Z M 13.242188 11.839844 C 12.640625 11.839844 12.152344 11.351562 12.152344 10.75 C 12.152344 10.148438 12.640625 9.660156 13.242188 9.660156 C 13.84375 9.660156 14.328125 10.148438 14.328125 10.75 C 14.328125 11.351562 13.84375 11.839844 13.242188 11.839844 Z M 5.378906 0.851562 L 4.714844 0.851562 L 4.714844 0.382812 L 6.617188 0.382812 L 6.617188 0.851562 L 5.941406 0.851562 L 5.941406 2.855469 L 5.378906 2.855469 Z M 7.222656 2.222656 L 7.046875 2.855469 L 6.46875 2.855469 L 7.222656 0.382812 L 7.957031 0.382812 L 8.722656 2.855469 L 8.121094 2.855469 L 7.933594 2.222656 Z M 7.851562 1.804688 L 7.695312 1.277344 C 7.652344 1.132812 7.609375 0.949219 7.574219 0.800781 L 7.566406 0.800781 C 7.527344 0.949219 7.492188 1.136719 7.453125 1.277344 L 7.304688 1.804688 Z M 10.265625 2.855469 L 10.042969 2.40625 C 9.953125 2.234375 9.894531 2.105469 9.824219 1.964844 L 9.816406 1.964844 C 9.765625 2.105469 9.703125 2.234375 9.625 2.40625 L 9.421875 2.855469 L 8.78125 2.855469 L 9.496094 1.605469 L 8.808594 0.382812 L 9.449219 0.382812 L 9.667969 0.835938 C 9.738281 0.984375 9.792969 1.105469 9.851562 1.246094 L 9.859375 1.246094 C 9.917969 1.085938 9.964844 0.976562 10.027344 0.835938 L 10.238281 0.382812 L 10.875 0.382812 L 10.179688 1.589844 L 10.914062 2.855469 Z M 11.773438 0.382812 L 11.773438 2.855469 L 11.214844 2.855469 L 11.214844 0.382812 Z M 11.773438 0.382812 "/>
</g>
</svg>
