<?xml version="1.0" encoding="UTF-8" standalone="no"?>
<!-- Created with Inkscape (http://www.inkscape.org/) -->

<svg
   xmlns:dc="http://purl.org/dc/elements/1.1/"
   xmlns:cc="http://creativecommons.org/ns#"
   xmlns:rdf="http://www.w3.org/1999/02/22-rdf-syntax-ns#"
   xmlns:svg="http://www.w3.org/2000/svg"
   xmlns="http://www.w3.org/2000/svg"
   xmlns:xlink="http://www.w3.org/1999/xlink"
   xmlns:sodipodi="http://sodipodi.sourceforge.net/DTD/sodipodi-0.dtd"
   xmlns:inkscape="http://www.inkscape.org/namespaces/inkscape"
   width="30px"
   height="30px"
   version="1.1"
   id="svg8"
   inkscape:version="0.92.4 5da689c313, 2019-01-14"
   sodipodi:docname="container.svg">
  <defs
     id="defs2" />
  <sodipodi:namedview
     id="base"
     pagecolor="#ffffff"
     bordercolor="#666666"
     borderopacity="1.0"
     inkscape:pageopacity="0.0"
     inkscape:pageshadow="2"
     inkscape:zoom="13.049334"
     inkscape:cx="18.679046"
     inkscape:cy="12.165829"
     inkscape:document-units="px"
     inkscape:current-layer="layer1"
     showgrid="false"
     inkscape:snap-page="false"
     units="px"
     inkscape:window-width="1884"
     inkscape:window-height="1061"
     inkscape:window-x="0"
     inkscape:window-y="0"
     inkscape:window-maximized="1"
     fit-margin-top="0"
     fit-margin-left="0"
     fit-margin-right="0"
     fit-margin-bottom="0" />
  <metadata
     id="metadata5">
    <rdf:RDF>
      <cc:Work
         rdf:about="">
        <dc:format>image/svg+xml</dc:format>
        <dc:type
           rdf:resource="http://purl.org/dc/dcmitype/StillImage" />
        <dc:title></dc:title>
      </cc:Work>
    </rdf:RDF>
  </metadata>
    <circle
       style="color:#000000;clip-rule:nonzero;display:inline;overflow:visible;visibility:visible;opacity:1;isolation:auto;mix-blend-mode:normal;color-interpolation:sRGB;color-interpolation-filters:linearRGB;solid-color:#000000;solid-opacity:1;vector-effect:none;fill:#008ecf;fill-opacity:1;fill-rule:evenodd;stroke:#ffffff;stroke-width:1;stroke-linecap:butt;stroke-linejoin:miter;stroke-miterlimit:4;stroke-dasharray:none;stroke-dashoffset:0;stroke-opacity:1;marker:none;color-rendering:auto;image-rendering:auto;shape-rendering:auto;text-rendering:auto;enable-background:accumulate"
       id="path815"
       cx="15"
       cy="15"
       r="14.5" />
<g transform="translate(6.5,10.5)"><path fill-rule="nonzero" fill="#FFFFFF" fill-opacity="1" d="M 3.65625 5.796875 C 3.722656 5.78125 3.792969 5.746094 3.859375 5.746094 C 3.925781 5.746094 4.046875 5.78125 4.488281 6.222656 C 5.390625 7.125 6.730469 8.160156 8.722656 8.601562 L 0.96875 8.382812 C 0.5625 8.367188 0.355469 8.160156 0.136719 7.71875 L 0 7.449219 Z M 8.074219 5.355469 L 16.335938 7.71875 C 16.695312 7.839844 17 8.109375 17 8.464844 C 17 8.585938 16.964844 8.601562 16.847656 8.601562 L 10.863281 8.296875 Z M 7.804688 4.945312 L 5.421875 2.449219 C 3.824219 0.765625 2.550781 0.339844 2.160156 0.207031 C 2.414062 0.0664062 2.703125 -0.00390625 2.992188 0 C 5.507812 0 8.824219 4.523438 9.367188 5.40625 Z M 10.488281 8.367188 L 10.300781 8.367188 C 7.546875 8.367188 6.902344 7.957031 2.632812 4.082031 C 1.699219 3.230469 0.746094 1.871094 0.746094 1.257812 C 0.746094 0.699219 1.039062 0.324219 1.613281 0.324219 C 2.039062 0.324219 3.007812 0.597656 5.1875 2.855469 Z M 8.738281 3.316406 L 11.371094 2.890625 L 11.542969 3.164062 L 10.285156 4.4375 C 10.011719 4.371094 9.757812 4.335938 9.484375 4.371094 Z M 12.734375 4.746094 L 12.070312 6.1875 L 9.671875 5.492188 L 11.949219 3.195312 L 11.644531 2.6875 L 15.65625 3.945312 L 16.285156 5.167969 Z M 12.734375 4.746094 "/>
</g>
</svg>
