<?xml version="1.0" encoding="UTF-8"?>
<svg xmlns="http://www.w3.org/2000/svg" xmlns:xlink="http://www.w3.org/1999/xlink" width="11" height="7.818355" viewBox="0 0 11 7.818355">
<path fill-rule="nonzero" fill="rgb(30%,30%,30%)" fill-opacity="1" d="M 2.523438 0.0351562 L 3.628906 0.0351562 L 3.394531 7.816406 L 0 7.816406 Z M 10.792969 0 L 7.449219 0.015625 C 7.257812 0.015625 7.171875 0.25 7.316406 0.375 L 8.214844 1.140625 C 8.222656 1.148438 8.226562 1.160156 8.226562 1.171875 C 8.222656 1.183594 8.214844 1.191406 8.203125 1.195312 C 7.917969 1.296875 6.601562 1.804688 5.980469 2.65625 L 5.152344 0.0351562 L 3.992188 0.0351562 L 4.265625 7.816406 L 7.621094 7.816406 L 7.269531 6.6875 C 7.054688 5.859375 6.820312 4.785156 6.878906 4.226562 C 7.0625 2.46875 8.574219 1.957031 8.777344 1.894531 C 8.792969 1.890625 8.804688 1.894531 8.808594 1.910156 L 9.269531 3.34375 C 9.328125 3.523438 9.578125 3.539062 9.652344 3.363281 L 10.984375 0.285156 C 11.011719 0.222656 11.003906 0.148438 10.964844 0.09375 C 10.929688 0.0351562 10.863281 0 10.792969 0 Z M 10.792969 0 "/>
</svg>
