<?xml version="1.0" encoding="UTF-8" standalone="no"?>
<!-- Created with Inkscape (http://www.inkscape.org/) -->

<svg
   xmlns:dc="http://purl.org/dc/elements/1.1/"
   xmlns:cc="http://creativecommons.org/ns#"
   xmlns:rdf="http://www.w3.org/1999/02/22-rdf-syntax-ns#"
   xmlns:svg="http://www.w3.org/2000/svg"
   xmlns="http://www.w3.org/2000/svg"
   xmlns:xlink="http://www.w3.org/1999/xlink"
   xmlns:sodipodi="http://sodipodi.sourceforge.net/DTD/sodipodi-0.dtd"
   xmlns:inkscape="http://www.inkscape.org/namespaces/inkscape"
   width="30px"
   height="30px"
   version="1.1"
   id="svg8"
   inkscape:version="0.92.4 5da689c313, 2019-01-14"
   sodipodi:docname="container.svg">
  <defs
     id="defs2" />
  <sodipodi:namedview
     id="base"
     pagecolor="#ffffff"
     bordercolor="#666666"
     borderopacity="1.0"
     inkscape:pageopacity="0.0"
     inkscape:pageshadow="2"
     inkscape:zoom="13.049334"
     inkscape:cx="18.679046"
     inkscape:cy="12.165829"
     inkscape:document-units="px"
     inkscape:current-layer="layer1"
     showgrid="false"
     inkscape:snap-page="false"
     units="px"
     inkscape:window-width="1884"
     inkscape:window-height="1061"
     inkscape:window-x="0"
     inkscape:window-y="0"
     inkscape:window-maximized="1"
     fit-margin-top="0"
     fit-margin-left="0"
     fit-margin-right="0"
     fit-margin-bottom="0" />
  <metadata
     id="metadata5">
    <rdf:RDF>
      <cc:Work
         rdf:about="">
        <dc:format>image/svg+xml</dc:format>
        <dc:type
           rdf:resource="http://purl.org/dc/dcmitype/StillImage" />
        <dc:title></dc:title>
      </cc:Work>
    </rdf:RDF>
  </metadata>
    <circle
       style="color:#000000;clip-rule:nonzero;display:inline;overflow:visible;visibility:visible;opacity:1;isolation:auto;mix-blend-mode:normal;color-interpolation:sRGB;color-interpolation-filters:linearRGB;solid-color:#000000;solid-opacity:1;vector-effect:none;fill:#008ecf;fill-opacity:1;fill-rule:evenodd;stroke:#ffffff;stroke-width:1;stroke-linecap:butt;stroke-linejoin:miter;stroke-miterlimit:4;stroke-dasharray:none;stroke-dashoffset:0;stroke-opacity:1;marker:none;color-rendering:auto;image-rendering:auto;shape-rendering:auto;text-rendering:auto;enable-background:accumulate"
       id="path815"
       cx="15"
       cy="15"
       r="14.5" />
<g transform="translate(6.5,7.0)"><path fill-rule="nonzero" fill="#FFFFFF" fill-opacity="1" d="M 16.996094 9.03125 C 16.984375 8.875 16.96875 8.71875 16.953125 8.5625 C 16.933594 8.355469 16.925781 8.148438 16.886719 7.941406 C 16.796875 7.460938 16.347656 7.144531 15.847656 7.195312 C 15.773438 7.199219 15.699219 7.207031 15.617188 7.214844 C 15.628906 7.1875 15.636719 7.167969 15.644531 7.148438 C 15.734375 6.9375 15.773438 6.71875 15.757812 6.488281 C 15.742188 6.300781 15.726562 6.113281 15.703125 5.921875 C 15.644531 5.429688 15.195312 5.0625 14.703125 5.105469 C 14.449219 5.128906 14.195312 5.152344 13.945312 5.179688 C 13.0625 5.265625 12.183594 5.351562 11.304688 5.433594 C 10.449219 5.519531 9.589844 5.601562 8.734375 5.683594 C 8.65625 5.691406 8.578125 5.695312 8.492188 5.703125 C 8.5 5.675781 8.503906 5.65625 8.511719 5.640625 C 8.722656 4.890625 8.933594 4.140625 9.15625 3.390625 C 9.257812 3.042969 9.316406 2.695312 9.277344 2.332031 C 9.234375 1.914062 9.128906 1.507812 8.96875 1.117188 C 8.691406 0.433594 8.183594 0.0507812 7.441406 0.00390625 C 7.019531 -0.0234375 6.707031 0.167969 6.507812 0.539062 C 6.4375 0.664062 6.390625 0.792969 6.386719 0.941406 C 6.382812 1.277344 6.363281 1.613281 6.351562 1.949219 C 6.34375 2.136719 6.351562 2.328125 6.320312 2.511719 C 6.203125 3.164062 5.96875 3.773438 5.625 4.34375 C 5.300781 4.878906 4.972656 5.410156 4.644531 5.941406 C 4.527344 6.132812 4.476562 6.34375 4.492188 6.558594 C 4.539062 7.15625 4.789062 9.683594 4.84375 10.257812 C 4.988281 11.773438 5.136719 13.289062 5.28125 14.804688 C 5.320312 15.195312 5.632812 15.453125 6.027344 15.414062 C 6.550781 15.363281 7.074219 15.3125 7.601562 15.261719 C 8.699219 15.15625 9.800781 15.050781 10.898438 14.941406 C 12.144531 14.824219 13.386719 14.703125 14.628906 14.582031 C 15.144531 14.53125 15.539062 14.085938 15.5 13.585938 C 15.484375 13.386719 15.464844 13.183594 15.441406 12.984375 C 15.429688 12.894531 15.402344 12.808594 15.378906 12.71875 C 15.273438 12.496094 15.28125 12.53125 15.273438 12.496094 C 15.238281 12.441406 15.207031 12.390625 15.171875 12.332031 C 15.273438 12.320312 15.371094 12.3125 15.46875 12.296875 C 15.921875 12.214844 16.265625 11.769531 16.226562 11.3125 C 16.21875 11.179688 16.199219 11.046875 16.1875 10.914062 C 16.167969 10.609375 16.085938 10.328125 15.902344 10.078125 C 15.902344 10.074219 15.902344 10.066406 15.902344 10.058594 C 15.988281 10.050781 16.074219 10.039062 16.15625 10.03125 C 16.65625 9.984375 17.035156 9.53125 16.996094 9.03125 Z M 16.996094 9.03125 "/>
<path fill-rule="nonzero" fill="#FFFFFF" fill-opacity="1" d="M 4.746094 14.695312 C 4.652344 13.707031 4.554688 12.714844 4.460938 11.726562 C 4.367188 10.761719 4.273438 9.800781 4.179688 8.835938 C 4.167969 8.710938 4.132812 8.359375 4.132812 8.347656 C 4.085938 7.886719 4.046875 7.429688 3.996094 6.972656 C 3.945312 6.5 3.550781 6.191406 3.074219 6.242188 C 2.75 6.277344 2.425781 6.304688 2.097656 6.335938 C 1.640625 6.378906 1.179688 6.421875 0.722656 6.46875 C 0.25 6.523438 -0.0742188 6.957031 0.015625 7.425781 C 0.0703125 7.738281 0.132812 8.046875 0.191406 8.355469 C 0.195312 8.378906 0.222656 8.503906 0.226562 8.523438 C 0.402344 9.429688 0.578125 10.339844 0.753906 11.246094 C 1.003906 12.527344 1.25 13.8125 1.5 15.09375 C 1.585938 15.535156 1.957031 15.808594 2.40625 15.765625 C 2.929688 15.714844 3.457031 15.660156 3.980469 15.613281 C 4.472656 15.566406 4.792969 15.1875 4.746094 14.695312 Z M 4.746094 14.695312 "/>
</g>
</svg>
