<?xml version="1.0" encoding="UTF-8"?>
<svg xmlns="http://www.w3.org/2000/svg" xmlns:xlink="http://www.w3.org/1999/xlink" width="11" height="10.220944" viewBox="0 0 11 10.220944">
<path fill-rule="nonzero" fill="rgb(30%,30%,30%)" fill-opacity="1" d="M 3.265625 5.132812 L 4.800781 5.132812 C 5.097656 5.132812 5.335938 4.894531 5.335938 4.597656 L 5.335938 0.535156 C 5.335938 0.238281 5.097656 0 4.800781 0 L 1.164062 0 C 0.871094 0 0.632812 0.238281 0.628906 0.535156 L 0.628906 4.597656 C 0.632812 4.894531 0.871094 5.132812 1.164062 5.132812 Z M 1.894531 1.109375 C 1.894531 1.09375 1.898438 1.078125 1.910156 1.0625 C 1.925781 1.050781 1.941406 1.046875 1.957031 1.046875 L 3.175781 1.046875 C 4.140625 1.046875 4.289062 1.667969 4.289062 2.039062 C 4.289062 2.667969 3.894531 3.015625 3.175781 3.015625 L 2.578125 3.015625 L 2.578125 4.019531 C 2.578125 4.035156 2.570312 4.050781 2.558594 4.0625 C 2.546875 4.074219 2.53125 4.082031 2.515625 4.082031 L 1.957031 4.082031 C 1.941406 4.082031 1.925781 4.074219 1.910156 4.0625 C 1.898438 4.050781 1.894531 4.035156 1.894531 4.019531 Z M 1.894531 1.109375 "/>
<path fill-rule="nonzero" fill="rgb(30%,30%,30%)" fill-opacity="1" d="M 3.613281 2.042969 C 3.613281 1.703125 3.40625 1.519531 3.027344 1.519531 L 2.578125 1.519531 L 2.578125 2.546875 L 3.027344 2.546875 C 3.296875 2.542969 3.613281 2.457031 3.613281 2.042969 Z M 3.613281 2.042969 "/>
<path fill-rule="nonzero" fill="rgb(30%,30%,30%)" fill-opacity="1" d="M 9.257812 6.734375 C 9.023438 6.734375 8.789062 6.785156 8.574219 6.875 L 7.957031 5.917969 L 8.15625 5.925781 L 8.15625 4.847656 C 7.652344 4.847656 7.453125 5.0625 7.371094 5.21875 L 6.066406 4.527344 C 5.957031 4.46875 5.820312 4.507812 5.761719 4.621094 L 5.699219 4.734375 C 5.640625 4.847656 5.683594 4.984375 5.792969 5.042969 L 6.480469 5.40625 C 4.039062 5.707031 3.941406 6.480469 3.855469 6.421875 C 3.460938 6.160156 1.730469 6.132812 1.730469 6.132812 L 1.730469 6.527344 C 2.183594 6.464844 2.605469 6.554688 2.953125 6.777344 C 2.945312 6.78125 2.941406 6.785156 2.933594 6.789062 L 2.710938 7.03125 C 2.050781 6.585938 1.175781 6.648438 0.582031 7.175781 C -0.0117188 7.707031 -0.171875 8.570312 0.195312 9.277344 C 0.558594 9.984375 1.355469 10.355469 2.132812 10.175781 C 2.90625 10 3.464844 9.320312 3.484375 8.523438 L 3.859375 8.476562 C 3.925781 8.621094 5.402344 8.886719 6.714844 8.757812 C 7.082031 8.722656 7.1875 8.261719 7.1875 8.261719 L 7.265625 6.054688 L 7.304688 5.921875 L 8.105469 7.171875 C 7.476562 7.726562 7.332031 8.65625 7.765625 9.375 C 8.199219 10.097656 9.085938 10.40625 9.875 10.109375 C 10.660156 9.808594 11.121094 8.992188 10.972656 8.164062 C 10.820312 7.335938 10.097656 6.734375 9.257812 6.734375 Z M 2.761719 7.824219 C 2.804688 7.894531 2.839844 7.964844 2.871094 8.042969 L 2.523438 8.082031 Z M 1.742188 9.6875 C 1.234375 9.691406 0.777344 9.371094 0.605469 8.894531 C 0.429688 8.417969 0.570312 7.878906 0.960938 7.550781 C 1.351562 7.222656 1.902344 7.175781 2.34375 7.429688 L 1.570312 8.261719 C 1.480469 8.363281 1.488281 8.515625 1.585938 8.605469 L 1.648438 8.667969 C 1.722656 8.734375 1.824219 8.75 1.914062 8.710938 L 2.949219 8.585938 C 2.890625 9.210938 2.367188 9.6875 1.742188 9.6875 Z M 3.410156 7.976562 C 3.351562 7.777344 3.257812 7.589844 3.132812 7.425781 L 3.359375 7.183594 C 3.363281 7.175781 3.371094 7.167969 3.375 7.160156 C 3.546875 7.371094 3.675781 7.632812 3.761719 7.933594 Z M 9.234375 9.6875 C 8.742188 9.6875 8.296875 9.390625 8.113281 8.933594 C 7.925781 8.476562 8.035156 7.957031 8.390625 7.613281 L 9.019531 8.589844 C 9.101562 8.714844 9.269531 8.753906 9.398438 8.671875 C 9.527344 8.589844 9.5625 8.417969 9.480469 8.289062 L 8.863281 7.328125 C 9.316406 7.179688 9.816406 7.3125 10.136719 7.667969 C 10.453125 8.023438 10.535156 8.535156 10.339844 8.972656 C 10.144531 9.40625 9.710938 9.6875 9.234375 9.6875 Z M 9.234375 9.6875 "/>
</svg>
