<?xml version="1.0" encoding="UTF-8"?>
<svg xmlns="http://www.w3.org/2000/svg" xmlns:xlink="http://www.w3.org/1999/xlink" width="11" height="10.203664" viewBox="0 0 11 10.203664">
<path fill-rule="nonzero" fill="rgb(30%,30%,30%)" fill-opacity="1" d="M 11 5.84375 C 10.992188 5.742188 10.980469 5.640625 10.96875 5.542969 C 10.957031 5.40625 10.953125 5.273438 10.925781 5.140625 C 10.867188 4.828125 10.578125 4.621094 10.253906 4.65625 C 10.207031 4.660156 10.160156 4.664062 10.105469 4.667969 C 10.113281 4.648438 10.117188 4.636719 10.121094 4.625 C 10.179688 4.488281 10.207031 4.347656 10.195312 4.199219 C 10.1875 4.078125 10.175781 3.953125 10.160156 3.832031 C 10.121094 3.515625 9.832031 3.277344 9.511719 3.304688 C 9.351562 3.316406 9.1875 3.335938 9.023438 3.351562 C 8.453125 3.40625 7.882812 3.460938 7.316406 3.515625 C 6.761719 3.570312 6.207031 3.625 5.652344 3.679688 C 5.601562 3.683594 5.550781 3.6875 5.496094 3.691406 C 5.5 3.671875 5.503906 3.660156 5.507812 3.648438 C 5.644531 3.164062 5.78125 2.679688 5.925781 2.195312 C 5.988281 1.96875 6.03125 1.742188 6.003906 1.507812 C 5.976562 1.238281 5.90625 0.976562 5.804688 0.722656 C 5.621094 0.28125 5.292969 0.03125 4.816406 0 C 4.542969 -0.015625 4.339844 0.109375 4.210938 0.347656 C 4.167969 0.429688 4.136719 0.515625 4.132812 0.609375 C 4.128906 0.828125 4.117188 1.042969 4.109375 1.261719 C 4.105469 1.382812 4.109375 1.503906 4.089844 1.625 C 4.011719 2.046875 3.863281 2.441406 3.640625 2.808594 C 3.429688 3.15625 3.21875 3.5 3.003906 3.84375 C 2.929688 3.96875 2.894531 4.105469 2.90625 4.242188 C 2.9375 4.628906 3.097656 6.265625 3.132812 6.636719 C 3.230469 7.617188 3.324219 8.597656 3.417969 9.578125 C 3.441406 9.832031 3.644531 9.996094 3.898438 9.972656 C 4.238281 9.941406 4.578125 9.90625 4.917969 9.875 C 5.628906 9.804688 6.339844 9.738281 7.054688 9.667969 C 7.855469 9.589844 8.660156 9.511719 9.464844 9.433594 C 9.800781 9.402344 10.054688 9.113281 10.03125 8.792969 C 10.019531 8.660156 10.007812 8.53125 9.992188 8.402344 C 9.984375 8.34375 9.964844 8.289062 9.953125 8.230469 C 9.882812 8.085938 9.886719 8.109375 9.882812 8.085938 C 9.859375 8.050781 9.839844 8.019531 9.816406 7.980469 C 9.882812 7.972656 9.945312 7.964844 10.007812 7.957031 C 10.300781 7.90625 10.527344 7.613281 10.5 7.320312 C 10.492188 7.234375 10.480469 7.148438 10.476562 7.0625 C 10.460938 6.863281 10.410156 6.683594 10.289062 6.523438 C 10.289062 6.519531 10.289062 6.515625 10.289062 6.507812 C 10.34375 6.503906 10.398438 6.496094 10.453125 6.492188 C 10.777344 6.460938 11.023438 6.167969 11 5.84375 Z M 11 5.84375 "/>
<path fill-rule="nonzero" fill="rgb(30%,30%,30%)" fill-opacity="1" d="M 3.070312 9.507812 C 3.011719 8.867188 2.949219 8.226562 2.886719 7.585938 C 2.824219 6.964844 2.765625 6.339844 2.703125 5.71875 C 2.695312 5.636719 2.675781 5.410156 2.671875 5.402344 C 2.644531 5.105469 2.617188 4.808594 2.585938 4.511719 C 2.554688 4.203125 2.296875 4.003906 1.992188 4.039062 C 1.78125 4.0625 1.570312 4.078125 1.359375 4.101562 C 1.0625 4.128906 0.765625 4.15625 0.46875 4.1875 C 0.160156 4.21875 -0.046875 4.503906 0.0078125 4.804688 C 0.046875 5.007812 0.0859375 5.207031 0.125 5.40625 C 0.125 5.421875 0.144531 5.503906 0.148438 5.515625 C 0.261719 6.101562 0.375 6.6875 0.488281 7.277344 C 0.648438 8.105469 0.808594 8.9375 0.96875 9.765625 C 1.027344 10.054688 1.265625 10.230469 1.554688 10.199219 C 1.894531 10.167969 2.234375 10.132812 2.574219 10.101562 C 2.894531 10.070312 3.101562 9.828125 3.070312 9.507812 Z M 3.070312 9.507812 "/>
</svg>
