<?xml version="1.0" encoding="UTF-8" standalone="no"?>
<!-- Created with Inkscape (http://www.inkscape.org/) -->

<svg
   xmlns:dc="http://purl.org/dc/elements/1.1/"
   xmlns:cc="http://creativecommons.org/ns#"
   xmlns:rdf="http://www.w3.org/1999/02/22-rdf-syntax-ns#"
   xmlns:svg="http://www.w3.org/2000/svg"
   xmlns="http://www.w3.org/2000/svg"
   xmlns:xlink="http://www.w3.org/1999/xlink"
   xmlns:sodipodi="http://sodipodi.sourceforge.net/DTD/sodipodi-0.dtd"
   xmlns:inkscape="http://www.inkscape.org/namespaces/inkscape"
   width="30px"
   height="30px"
   version="1.1"
   id="svg8"
   inkscape:version="0.92.4 5da689c313, 2019-01-14"
   sodipodi:docname="container.svg">
  <defs
     id="defs2" />
  <sodipodi:namedview
     id="base"
     pagecolor="#ffffff"
     bordercolor="#666666"
     borderopacity="1.0"
     inkscape:pageopacity="0.0"
     inkscape:pageshadow="2"
     inkscape:zoom="13.049334"
     inkscape:cx="18.679046"
     inkscape:cy="12.165829"
     inkscape:document-units="px"
     inkscape:current-layer="layer1"
     showgrid="false"
     inkscape:snap-page="false"
     units="px"
     inkscape:window-width="1884"
     inkscape:window-height="1061"
     inkscape:window-x="0"
     inkscape:window-y="0"
     inkscape:window-maximized="1"
     fit-margin-top="0"
     fit-margin-left="0"
     fit-margin-right="0"
     fit-margin-bottom="0" />
  <metadata
     id="metadata5">
    <rdf:RDF>
      <cc:Work
         rdf:about="">
        <dc:format>image/svg+xml</dc:format>
        <dc:type
           rdf:resource="http://purl.org/dc/dcmitype/StillImage" />
        <dc:title></dc:title>
      </cc:Work>
    </rdf:RDF>
  </metadata>
    <circle
       style="color:#000000;clip-rule:nonzero;display:inline;overflow:visible;visibility:visible;opacity:1;isolation:auto;mix-blend-mode:normal;color-interpolation:sRGB;color-interpolation-filters:linearRGB;solid-color:#000000;solid-opacity:1;vector-effect:none;fill:#ffffff;fill-opacity:1;fill-rule:evenodd;stroke:#3b74b9;stroke-width:1;stroke-linecap:butt;stroke-linejoin:miter;stroke-miterlimit:4;stroke-dasharray:none;stroke-dashoffset:0;stroke-opacity:1;marker:none;color-rendering:auto;image-rendering:auto;shape-rendering:auto;text-rendering:auto;enable-background:accumulate"
       id="path815"
       cx="15"
       cy="15"
       r="14.5" />
<g transform="translate(6.5,6.5)"><path fill-rule="nonzero" fill="rgb(30%,30%,30%)" fill-opacity="1" d="M 1.996094 0.140625 C 1.996094 0.0585938 2.0625 0 2.136719 0 L 4.792969 0 C 6.898438 0 7.21875 1.359375 7.21875 2.164062 C 7.21875 3.535156 6.355469 4.289062 4.792969 4.289062 L 3.488281 4.289062 L 3.488281 6.480469 C 3.488281 6.558594 3.425781 6.621094 3.351562 6.621094 L 2.136719 6.621094 C 2.054688 6.621094 1.996094 6.554688 1.996094 6.480469 Z M 5.75 2.171875 C 5.75 1.433594 5.296875 1.03125 4.46875 1.03125 L 3.488281 1.03125 L 3.488281 3.269531 L 4.46875 3.269531 C 5.050781 3.265625 5.75 3.074219 5.75 2.171875 Z M 5.75 2.171875 "/>
<path fill-rule="nonzero" fill="rgb(30%,30%,30%)" fill-opacity="1" d="M 16.40625 8.859375 L 0.59375 8.859375 C 0.265625 8.859375 0 9.121094 0 9.4375 L 0 16.265625 C 0 16.472656 0.167969 16.640625 0.375 16.640625 C 0.582031 16.640625 0.75 16.472656 0.75 16.265625 L 0.75 9.609375 L 8.160156 9.609375 L 8.160156 16.335938 C 8.160156 16.503906 8.296875 16.640625 8.464844 16.640625 L 8.585938 16.640625 C 8.753906 16.640625 8.890625 16.503906 8.890625 16.335938 L 8.890625 9.609375 L 16.25 9.609375 L 16.25 16.265625 C 16.25 16.472656 16.417969 16.640625 16.625 16.640625 C 16.832031 16.640625 17 16.472656 17 16.265625 L 17 9.4375 C 17 9.121094 16.734375 8.859375 16.40625 8.859375 Z M 16.40625 8.859375 "/>
<path fill-rule="nonzero" fill="rgb(30%,30%,30%)" fill-opacity="1" d="M 0.59375 7.898438 L 16.40625 7.898438 C 16.734375 7.898438 17 7.640625 17 7.320312 L 17 0.492188 C 17 0.285156 16.832031 0.117188 16.625 0.117188 C 16.417969 0.117188 16.25 0.285156 16.25 0.492188 L 16.25 7.148438 L 8.839844 7.148438 L 8.839844 0.421875 C 8.839844 0.253906 8.703125 0.117188 8.535156 0.117188 L 8.414062 0.117188 C 8.246094 0.117188 8.109375 0.253906 8.109375 0.421875 L 8.109375 7.148438 L 0.75 7.148438 L 0.75 0.492188 C 0.75 0.285156 0.582031 0.117188 0.375 0.117188 C 0.167969 0.117188 0 0.285156 0 0.492188 L 0 7.320312 C 0 7.640625 0.265625 7.898438 0.59375 7.898438 Z M 0.59375 7.898438 "/>
<path fill-rule="nonzero" fill="rgb(30%,30%,30%)" fill-opacity="1" d="M 13.167969 6.292969 L 12.34375 6.292969 C 11.367188 6.292969 10.570312 5.496094 10.570312 4.515625 L 10.570312 0.328125 L 14.945312 0.328125 L 14.945312 4.515625 C 14.945312 5.496094 14.148438 6.292969 13.167969 6.292969 Z M 10.953125 0.710938 L 10.953125 4.515625 C 10.953125 5.285156 11.578125 5.910156 12.34375 5.910156 L 13.167969 5.910156 C 13.9375 5.910156 14.5625 5.285156 14.5625 4.515625 L 14.5625 0.710938 Z M 10.953125 0.710938 "/>
<path fill-rule="nonzero" fill="rgb(30%,30%,30%)" fill-opacity="1" d="M 14.945312 16.289062 L 10.570312 16.289062 L 10.570312 12.097656 C 10.570312 11.117188 11.367188 10.320312 12.34375 10.320312 L 13.167969 10.320312 C 14.148438 10.320312 14.945312 11.117188 14.945312 12.097656 Z M 10.953125 15.902344 L 14.5625 15.902344 L 14.5625 12.097656 C 14.5625 11.328125 13.9375 10.703125 13.167969 10.703125 L 12.34375 10.703125 C 11.578125 10.703125 10.953125 11.328125 10.953125 12.097656 Z M 10.953125 15.902344 "/>
<path fill-rule="nonzero" fill="rgb(30%,30%,30%)" fill-opacity="1" d="M 6.542969 16.289062 L 2.167969 16.289062 L 2.167969 12.097656 C 2.167969 11.117188 2.964844 10.320312 3.941406 10.320312 L 4.765625 10.320312 C 5.746094 10.320312 6.542969 11.117188 6.542969 12.097656 Z M 2.550781 15.902344 L 6.160156 15.902344 L 6.160156 12.097656 C 6.160156 11.328125 5.535156 10.703125 4.765625 10.703125 L 3.941406 10.703125 C 3.175781 10.703125 2.550781 11.328125 2.550781 12.097656 Z M 2.550781 15.902344 "/>
</g>
</svg>
