<?xml version="1.0" encoding="UTF-8"?>
<svg xmlns="http://www.w3.org/2000/svg" xmlns:xlink="http://www.w3.org/1999/xlink" width="11" height="9.39" viewBox="0 0 11 9.39">
<path fill-rule="nonzero" fill="rgb(30%,30%,30%)" fill-opacity="1" d="M 11 2.710938 L 10.996094 2.710938 C 10.996094 6.089844 5.375 9.390625 5.375 9.390625 C 5.375 9.390625 0 6.089844 0 2.710938 L 0.00390625 2.710938 C 0.00390625 1.019531 1.15625 0.0546875 2.671875 0 C 3.535156 -0.03125 5.5 0.519531 5.4375 2.210938 C 5.5 0.492188 7.523438 0 8.167969 0 C 9.6875 0 11 1.019531 11 2.710938 M 5.140625 4.957031 C 6.800781 3.480469 8.875 3.128906 8.875 3.128906 C 8.875 3.128906 6.8125 3.976562 5.589844 5.09375 C 4.445312 6.144531 3.523438 7.84375 3.523438 7.84375 C 3.523438 7.84375 4.867188 8.53125 6.472656 7.59375 C 7.699219 6.875 8.960938 4.019531 9.578125 3.308594 C 9.976562 2.851562 10.136719 2.769531 10.136719 2.769531 C 10.136719 2.769531 7.195312 1.882812 4.894531 3.40625 C 2.742188 4.835938 3.238281 7.449219 3.238281 7.449219 C 3.238281 7.449219 3.988281 5.980469 5.140625 4.957031 Z M 5.140625 4.957031 "/>
</svg>
