<?xml version="1.0" encoding="UTF-8"?>
<svg xmlns="http://www.w3.org/2000/svg" xmlns:xlink="http://www.w3.org/1999/xlink" width="6.086566" height="11" viewBox="0 0 6.086566 11">
<path fill-rule="nonzero" fill="rgb(30%,30%,30%)" fill-opacity="1" d="M 0 0 L 6.085938 0 L 6.085938 0.53125 L 0 0.53125 Z M 0 0 "/>
<path fill-rule="nonzero" fill="rgb(30%,30%,30%)" fill-opacity="1" d="M 5.769531 4.914062 L 5.769531 0.730469 L 0.378906 0.730469 L 0.378906 4.914062 L 0.375 4.914062 L 0.375 11 L 0.902344 11 L 0.902344 5.441406 L 1.566406 5.441406 L 1.566406 11 L 1.773438 11 L 1.773438 10.496094 L 2.855469 10.496094 L 2.855469 11 L 3.0625 11 L 3.0625 5.441406 L 5.242188 5.441406 L 5.242188 11 L 5.769531 11 Z M 2.855469 10.339844 L 1.773438 10.339844 L 1.773438 9.757812 L 2.855469 9.757812 Z M 2.855469 9.601562 L 1.773438 9.601562 L 1.773438 9.023438 L 2.855469 9.023438 Z M 2.855469 8.867188 L 1.773438 8.867188 L 1.773438 8.285156 L 2.855469 8.285156 Z M 2.855469 8.128906 L 1.773438 8.128906 L 1.773438 7.546875 L 2.855469 7.546875 Z M 2.855469 7.390625 L 1.773438 7.390625 L 1.773438 6.8125 L 2.855469 6.8125 Z M 2.855469 6.65625 L 1.773438 6.65625 L 1.773438 6.074219 L 2.855469 6.074219 Z M 2.855469 5.917969 L 1.773438 5.917969 L 1.773438 5.441406 L 2.855469 5.441406 Z M 0.789062 2.679688 L 0.789062 1.433594 L 5.367188 1.433594 L 5.367188 2.679688 Z M 0.789062 2.679688 "/>
</svg>
