<?xml version="1.0" encoding="UTF-8" standalone="no"?>
<!-- Created with Inkscape (http://www.inkscape.org/) -->

<svg
   xmlns:dc="http://purl.org/dc/elements/1.1/"
   xmlns:cc="http://creativecommons.org/ns#"
   xmlns:rdf="http://www.w3.org/1999/02/22-rdf-syntax-ns#"
   xmlns:svg="http://www.w3.org/2000/svg"
   xmlns="http://www.w3.org/2000/svg"
   xmlns:xlink="http://www.w3.org/1999/xlink"
   xmlns:sodipodi="http://sodipodi.sourceforge.net/DTD/sodipodi-0.dtd"
   xmlns:inkscape="http://www.inkscape.org/namespaces/inkscape"
   width="30px"
   height="30px"
   version="1.1"
   id="svg8"
   inkscape:version="0.92.4 5da689c313, 2019-01-14"
   sodipodi:docname="container.svg">
  <defs
     id="defs2" />
  <sodipodi:namedview
     id="base"
     pagecolor="#ffffff"
     bordercolor="#666666"
     borderopacity="1.0"
     inkscape:pageopacity="0.0"
     inkscape:pageshadow="2"
     inkscape:zoom="13.049334"
     inkscape:cx="18.679046"
     inkscape:cy="12.165829"
     inkscape:document-units="px"
     inkscape:current-layer="layer1"
     showgrid="false"
     inkscape:snap-page="false"
     units="px"
     inkscape:window-width="1884"
     inkscape:window-height="1061"
     inkscape:window-x="0"
     inkscape:window-y="0"
     inkscape:window-maximized="1"
     fit-margin-top="0"
     fit-margin-left="0"
     fit-margin-right="0"
     fit-margin-bottom="0" />
  <metadata
     id="metadata5">
    <rdf:RDF>
      <cc:Work
         rdf:about="">
        <dc:format>image/svg+xml</dc:format>
        <dc:type
           rdf:resource="http://purl.org/dc/dcmitype/StillImage" />
        <dc:title></dc:title>
      </cc:Work>
    </rdf:RDF>
  </metadata>
    <circle
       style="color:#000000;clip-rule:nonzero;display:inline;overflow:visible;visibility:visible;opacity:1;isolation:auto;mix-blend-mode:normal;color-interpolation:sRGB;color-interpolation-filters:linearRGB;solid-color:#000000;solid-opacity:1;vector-effect:none;fill:#ffffff;fill-opacity:1;fill-rule:evenodd;stroke:#70b06a;stroke-width:1;stroke-linecap:butt;stroke-linejoin:miter;stroke-miterlimit:4;stroke-dasharray:none;stroke-dashoffset:0;stroke-opacity:1;marker:none;color-rendering:auto;image-rendering:auto;shape-rendering:auto;text-rendering:auto;enable-background:accumulate"
       id="path815"
       cx="15"
       cy="15"
       r="14.5" />
<g transform="translate(7.0,6.5)"><path fill-rule="nonzero" fill="rgb(30%,30%,30%)" fill-opacity="1" d="M 15.941406 4.886719 C 15.941406 7.589844 13.75 9.777344 11.050781 9.777344 C 8.351562 9.777344 6.164062 7.589844 6.164062 4.886719 C 6.164062 2.1875 8.351562 0 11.050781 0 C 13.75 0 15.941406 2.1875 15.941406 4.886719 Z M 15.941406 4.886719 "/>
<path fill-rule="nonzero" fill="rgb(30%,30%,30%)" fill-opacity="1" d="M 2.746094 2.652344 C -1.234375 8.035156 0.738281 9.511719 1.984375 9.914062 C 2.476562 10.074219 3.003906 10.074219 3.492188 9.917969 C 4.742188 9.519531 6.734375 8.050781 2.746094 2.652344 Z M 2.746094 2.652344 "/>
<path fill-rule="nonzero" fill="rgb(30%,30%,30%)" fill-opacity="1" d="M 14.792969 13.316406 C 14.792969 15.351562 11.480469 17 7.398438 17 C 3.3125 17 0 15.351562 0 13.316406 C 0 12.257812 0.894531 11.304688 2.328125 10.632812 C 2.375 10.609375 2.238281 11.875 2.238281 11.875 L 3.242188 11.894531 L 3.105469 10.316406 C 3.105469 10.316406 4.878906 9.585938 7.398438 9.632812 C 8.414062 9.652344 9.382812 9.734375 10.261719 9.917969 C 10.265625 9.921875 9.636719 13.964844 9.636719 13.964844 L 12.121094 13.964844 C 12.121094 13.964844 11.71875 10.324219 11.792969 10.351562 C 13.613281 11.023438 14.792969 12.101562 14.792969 13.316406 Z M 14.792969 13.316406 "/>
</g>
</svg>
