<?xml version="1.0" encoding="UTF-8"?>
<svg xmlns="http://www.w3.org/2000/svg" xmlns:xlink="http://www.w3.org/1999/xlink" width="11" height="8.034897" viewBox="0 0 11 8.034897">
<path fill-rule="nonzero" fill="rgb(30%,30%,30%)" fill-opacity="1" d="M 3.390625 0.402344 C 2.953125 0.5 2.941406 0.542969 2.941406 0.542969 L 3.070312 0.328125 C 3.257812 0.121094 3.601562 0 3.984375 0 C 4.570312 0 5.046875 0.316406 5.046875 0.714844 L 5.019531 0.929688 C 4.929688 0.828125 4.828125 0.738281 4.71875 0.660156 C 4.71875 0.660156 4.113281 0.246094 3.390625 0.402344 Z M 7.535156 0.402344 C 7.972656 0.5 7.988281 0.542969 7.988281 0.542969 L 7.855469 0.328125 C 7.671875 0.121094 7.324219 0 6.945312 0 C 6.359375 0 5.878906 0.316406 5.878906 0.714844 L 5.90625 0.929688 C 6 0.828125 6.097656 0.738281 6.210938 0.660156 C 6.210938 0.660156 6.816406 0.246094 7.535156 0.402344 Z M 11 5.664062 C 11 6.972656 9.9375 8.035156 8.628906 8.035156 C 7.320312 8.035156 6.257812 6.972656 6.257812 5.664062 C 6.257812 5.65625 6.257812 5.648438 6.257812 5.640625 C 6.257812 5.644531 6.257812 5.652344 6.257812 5.660156 C 6.257812 5.660156 6.261719 5.527344 6.257812 5.640625 C 6.265625 4.992188 6.25 4.613281 5.46875 4.625 C 4.804688 4.632812 4.742188 4.929688 4.734375 5.46875 C 4.730469 5.433594 4.742188 5.597656 4.742188 5.664062 C 4.742188 6.972656 3.679688 8.035156 2.371094 8.035156 C 1.0625 8.035156 0 6.972656 0 5.664062 C 0 5.105469 0.195312 4.566406 0.554688 4.140625 C 0.5 4.160156 2.425781 1.324219 2.425781 1.324219 C 2.457031 1.257812 2.5 1.199219 2.550781 1.144531 C 2.773438 0.894531 3.175781 0.730469 3.636719 0.730469 C 4.34375 0.730469 4.914062 1.121094 4.914062 1.601562 C 4.914062 1.613281 4.914062 1.625 4.914062 1.636719 C 4.914062 1.664062 4.910156 1.6875 4.90625 1.710938 L 4.804688 2.554688 C 4.90625 2.105469 5.164062 1.789062 5.464844 1.789062 C 5.761719 1.789062 6.015625 2.09375 6.121094 2.523438 L 6.023438 1.710938 C 6.019531 1.6875 6.015625 1.664062 6.011719 1.636719 C 6.011719 1.625 6.011719 1.613281 6.011719 1.601562 C 6.011719 1.121094 6.585938 0.730469 7.289062 0.730469 C 7.75 0.730469 8.152344 0.894531 8.378906 1.144531 C 8.425781 1.199219 8.46875 1.257812 8.5 1.324219 L 10.417969 4.109375 C 10.792969 4.542969 11 5.09375 11 5.664062 Z M 4.132812 5.648438 C 4.132812 4.671875 3.339844 3.878906 2.363281 3.878906 C 1.386719 3.878906 0.59375 4.671875 0.59375 5.648438 C 0.59375 6.625 1.386719 7.414062 2.363281 7.414062 C 3.339844 7.414062 4.132812 6.625 4.132812 5.648438 Z M 10.390625 5.648438 C 10.390625 4.671875 9.597656 3.878906 8.621094 3.878906 C 7.644531 3.878906 6.851562 4.671875 6.851562 5.648438 C 6.851562 6.625 7.644531 7.414062 8.621094 7.414062 C 9.597656 7.414062 10.390625 6.625 10.390625 5.648438 Z M 5.484375 3.625 C 5.296875 3.625 5.148438 3.773438 5.148438 3.957031 C 5.148438 4.144531 5.296875 4.292969 5.484375 4.292969 C 5.667969 4.292969 5.816406 4.144531 5.816406 3.957031 C 5.816406 3.773438 5.667969 3.625 5.484375 3.625 Z M 5.484375 3.625 "/>
</svg>
