<?xml version="1.0" encoding="UTF-8" standalone="no"?>
<!-- Created with Inkscape (http://www.inkscape.org/) -->

<svg
   xmlns:dc="http://purl.org/dc/elements/1.1/"
   xmlns:cc="http://creativecommons.org/ns#"
   xmlns:rdf="http://www.w3.org/1999/02/22-rdf-syntax-ns#"
   xmlns:svg="http://www.w3.org/2000/svg"
   xmlns="http://www.w3.org/2000/svg"
   xmlns:xlink="http://www.w3.org/1999/xlink"
   xmlns:sodipodi="http://sodipodi.sourceforge.net/DTD/sodipodi-0.dtd"
   xmlns:inkscape="http://www.inkscape.org/namespaces/inkscape"
   width="30px"
   height="30px"
   version="1.1"
   id="svg8"
   inkscape:version="0.92.4 5da689c313, 2019-01-14"
   sodipodi:docname="container.svg">
  <defs
     id="defs2" />
  <sodipodi:namedview
     id="base"
     pagecolor="#ffffff"
     bordercolor="#666666"
     borderopacity="1.0"
     inkscape:pageopacity="0.0"
     inkscape:pageshadow="2"
     inkscape:zoom="13.049334"
     inkscape:cx="18.679046"
     inkscape:cy="12.165829"
     inkscape:document-units="px"
     inkscape:current-layer="layer1"
     showgrid="false"
     inkscape:snap-page="false"
     units="px"
     inkscape:window-width="1884"
     inkscape:window-height="1061"
     inkscape:window-x="0"
     inkscape:window-y="0"
     inkscape:window-maximized="1"
     fit-margin-top="0"
     fit-margin-left="0"
     fit-margin-right="0"
     fit-margin-bottom="0" />
  <metadata
     id="metadata5">
    <rdf:RDF>
      <cc:Work
         rdf:about="">
        <dc:format>image/svg+xml</dc:format>
        <dc:type
           rdf:resource="http://purl.org/dc/dcmitype/StillImage" />
        <dc:title></dc:title>
      </cc:Work>
    </rdf:RDF>
  </metadata>
    <circle
       style="color:#000000;clip-rule:nonzero;display:inline;overflow:visible;visibility:visible;opacity:1;isolation:auto;mix-blend-mode:normal;color-interpolation:sRGB;color-interpolation-filters:linearRGB;solid-color:#000000;solid-opacity:1;vector-effect:none;fill:#8cc56f;fill-opacity:1;fill-rule:evenodd;stroke:#ffffff;stroke-width:1;stroke-linecap:butt;stroke-linejoin:miter;stroke-miterlimit:4;stroke-dasharray:none;stroke-dashoffset:0;stroke-opacity:1;marker:none;color-rendering:auto;image-rendering:auto;shape-rendering:auto;text-rendering:auto;enable-background:accumulate"
       id="path815"
       cx="15"
       cy="15"
       r="14.5" />
<g transform="translate(6.5,6.5)"><path fill-rule="nonzero" fill="#FFFFFF" fill-opacity="1" d="M 15.980469 15.847656 L 13.527344 15.847656 C 13.464844 15.847656 13.414062 15.796875 13.414062 15.730469 L 13.414062 13.507812 C 13.414062 13.453125 13.453125 13.40625 13.507812 13.394531 C 13.691406 13.363281 13.871094 13.316406 14.050781 13.261719 C 16.324219 12.535156 19.96875 9.851562 12.683594 0 C 5.421875 9.824219 9.019531 12.519531 11.296875 13.253906 C 11.480469 13.3125 11.664062 13.359375 11.851562 13.394531 C 11.90625 13.40625 11.945312 13.453125 11.945312 13.507812 L 11.945312 15.730469 C 11.945312 15.796875 11.894531 15.847656 11.832031 15.847656 L 4.789062 15.847656 C 4.757812 15.847656 4.730469 15.835938 4.707031 15.8125 C 4.6875 15.792969 4.675781 15.761719 4.675781 15.730469 L 4.683594 14.570312 C 4.671875 14.527344 4.679688 14.476562 4.710938 14.441406 C 4.738281 14.40625 4.78125 14.382812 4.828125 14.382812 L 6.089844 14.382812 C 6.910156 14.382812 8.015625 13.882812 8.015625 12.820312 L 8.015625 12.675781 C 8.015625 12.59375 7.949219 12.523438 7.867188 12.523438 L 4.585938 12.523438 C 4.5 12.523438 4.433594 12.457031 4.433594 12.375 L 4.433594 10.847656 C 4.433594 10.761719 4.5 10.695312 4.585938 10.695312 L 5.210938 10.695312 C 5.601562 10.695312 5.921875 10.378906 5.921875 9.988281 C 5.921875 9.90625 5.851562 9.839844 5.769531 9.839844 L 4.320312 9.839844 C 4.28125 9.839844 4.242188 9.820312 4.210938 9.792969 C 4.183594 9.765625 4.167969 9.726562 4.167969 9.6875 L 4.179688 8.597656 C 4.179688 8.445312 4.285156 8.320312 4.433594 8.292969 C 4.582031 8.269531 4.726562 8.351562 4.773438 8.492188 C 4.796875 8.554688 4.851562 8.59375 4.917969 8.597656 L 4.925781 8.597656 C 4.976562 8.597656 5.019531 8.570312 5.046875 8.53125 C 5.078125 8.492188 5.082031 8.441406 5.066406 8.394531 C 5.003906 8.207031 4.851562 8.0625 4.660156 8.007812 C 4.46875 7.949219 4.261719 7.988281 4.105469 8.113281 C 4.050781 8.15625 3.972656 8.15625 3.917969 8.113281 C 3.761719 7.988281 3.554688 7.949219 3.363281 8.007812 C 3.171875 8.0625 3.019531 8.207031 2.957031 8.394531 C 2.941406 8.441406 2.949219 8.492188 2.976562 8.53125 C 3.003906 8.570312 3.050781 8.597656 3.097656 8.597656 L 3.105469 8.597656 C 3.171875 8.59375 3.226562 8.554688 3.25 8.492188 C 3.300781 8.351562 3.441406 8.269531 3.589844 8.292969 C 3.738281 8.316406 3.84375 8.445312 3.84375 8.59375 L 3.835938 9.6875 C 3.835938 9.773438 3.769531 9.839844 3.683594 9.839844 L 2.304688 9.839844 C 2.222656 9.839844 2.15625 9.90625 2.15625 9.988281 C 2.15625 10.378906 2.472656 10.695312 2.863281 10.695312 L 3.425781 10.695312 C 3.507812 10.695312 3.578125 10.761719 3.578125 10.847656 L 3.578125 12.375 C 3.578125 12.457031 3.507812 12.523438 3.425781 12.523438 L 0.148438 12.523438 C 0.0664062 12.523438 0 12.59375 0 12.675781 L 0 12.820312 C 0 13.882812 1.019531 14.382812 1.925781 14.382812 L 3.277344 14.382812 C 3.320312 14.382812 3.367188 14.40625 3.394531 14.441406 C 3.421875 14.476562 3.433594 14.523438 3.421875 14.570312 L 3.390625 15.734375 C 3.386719 15.796875 3.335938 15.847656 3.273438 15.847656 L 1.152344 15.847656 C 0.890625 15.847656 0.679688 16.058594 0.679688 16.320312 C 0.679688 16.582031 0.890625 16.796875 1.152344 16.796875 L 15.980469 16.796875 C 16.242188 16.796875 16.453125 16.582031 16.453125 16.320312 C 16.453125 16.058594 16.242188 15.847656 15.980469 15.847656 Z M 15.980469 15.847656 "/>
<path fill-rule="nonzero" fill="#FFFFFF" fill-opacity="1" d="M 3.019531 8.894531 C 3.410156 9.410156 3.21875 9.558594 3.09375 9.589844 C 3.039062 9.605469 2.976562 9.605469 2.949219 9.59375 C 2.835938 9.53125 2.632812 9.414062 3.019531 8.894531 Z M 3.019531 8.894531 "/>
<path fill-rule="nonzero" fill="#FFFFFF" fill-opacity="1" d="M 4.980469 8.894531 C 5.367188 9.410156 5.179688 9.558594 5.054688 9.589844 C 5 9.605469 4.933594 9.605469 4.90625 9.59375 C 4.796875 9.53125 4.59375 9.414062 4.980469 8.894531 Z M 4.980469 8.894531 "/>
</g>
</svg>
