<?xml version="1.0" encoding="UTF-8"?>
<svg xmlns="http://www.w3.org/2000/svg" xmlns:xlink="http://www.w3.org/1999/xlink" width="9.627529" height="11" viewBox="0 0 9.627529 11">
<path fill-rule="nonzero" fill="rgb(30%,30%,30%)" fill-opacity="1" d="M 9.121094 7.566406 L 7.441406 5.125 C 7.414062 5.070312 7.375 5.019531 7.332031 4.96875 C 7.136719 4.75 6.808594 4.667969 6.40625 4.667969 C 5.789062 4.667969 5.230469 5.09375 5.253906 5.335938 C 5.253906 5.34375 5.261719 5.390625 5.261719 5.402344 C 5.265625 5.421875 5.265625 5.441406 5.269531 5.464844 L 5.355469 6.179688 C 5.347656 6.210938 5.070312 6.15625 4.898438 6.144531 L 4.898438 4.757812 C 5.378906 4.765625 5.882812 4.589844 6.570312 4.382812 C 6.597656 4.375 7.175781 4.183594 7.75 3.863281 C 7.78125 3.871094 7.707031 3.851562 7.710938 3.855469 C 7.703125 3.851562 6.753906 3.566406 6.578125 3.117188 C 6.417969 2.714844 6.226562 2.066406 5.296875 1.863281 C 5.210938 1.84375 5.125 1.828125 5.035156 1.832031 C 4.804688 1.847656 4.328125 1.898438 4.085938 2.125 C 4.222656 1.78125 4.394531 1.457031 4.359375 1.117188 C 4.296875 0.535156 3.855469 0 3.273438 0 C 2.898438 0 2.578125 0.140625 2.382812 0.441406 L 1.53125 0.429688 L 2.222656 0.832031 C 2.21875 0.851562 2.214844 0.871094 2.210938 0.890625 L 1.414062 0.878906 L 2.179688 1.304688 C 2.207031 2.132812 2.65625 4.527344 4.660156 4.742188 L 4.660156 6.152344 C 4.476562 6.175781 4.214844 6.210938 4.203125 6.203125 L 4.292969 5.464844 C 4.296875 5.441406 4.300781 5.421875 4.300781 5.402344 C 4.300781 5.390625 4.300781 5.378906 4.300781 5.371094 C 4.300781 4.949219 3.757812 4.667969 3.136719 4.667969 C 2.738281 4.667969 2.429688 4.75 2.230469 4.96875 C 2.1875 5.019531 2.152344 5.070312 2.125 5.125 C 2.125 5.125 0.4375 7.605469 0.484375 7.59375 C 0.183594 7.953125 0 8.417969 0 8.925781 C 0 10.074219 0.925781 11 2.074219 11 C 3.222656 11 4.148438 10.070312 4.148438 8.925781 C 4.148438 8.867188 4.140625 8.722656 4.144531 8.753906 C 4.152344 8.28125 4.207031 8.023438 4.789062 8.015625 C 5.472656 8.003906 5.480469 8.335938 5.476562 8.902344 C 5.480469 8.804688 5.476562 8.921875 5.476562 8.921875 C 5.476562 8.914062 5.476562 8.910156 5.476562 8.902344 C 5.476562 8.910156 5.476562 8.917969 5.476562 8.925781 C 5.476562 10.070312 6.40625 11 7.550781 11 C 8.695312 11 9.617188 10.085938 9.628906 8.945312 C 9.632812 8.417969 9.441406 7.933594 9.121094 7.566406 Z M 2.949219 1.023438 C 2.792969 1.023438 2.667969 0.894531 2.667969 0.738281 C 2.667969 0.582031 2.792969 0.453125 2.949219 0.453125 C 3.109375 0.453125 3.234375 0.582031 3.234375 0.738281 C 3.234375 0.894531 3.109375 1.023438 2.949219 1.023438 Z M 2.066406 10.457031 C 1.214844 10.457031 0.519531 9.765625 0.519531 8.910156 C 0.519531 8.054688 1.214844 7.363281 2.066406 7.363281 C 2.921875 7.363281 3.617188 8.054688 3.617188 8.910156 C 3.617188 9.765625 2.921875 10.457031 2.066406 10.457031 Z M 7.546875 10.457031 C 6.691406 10.457031 5.996094 9.765625 5.996094 8.910156 C 5.996094 8.054688 6.691406 7.363281 7.546875 7.363281 C 8.398438 7.363281 9.09375 8.054688 9.09375 8.910156 C 9.09375 9.765625 8.398438 10.457031 7.546875 10.457031 Z M 7.546875 10.457031 "/>
</svg>
