<?xml version="1.0" encoding="UTF-8"?>
<svg xmlns="http://www.w3.org/2000/svg" xmlns:xlink="http://www.w3.org/1999/xlink" width="10.314017" height="11" viewBox="0 0 10.314017 11">
<path fill-rule="nonzero" fill="rgb(30%,30%,30%)" fill-opacity="1" d="M 10.3125 3.164062 C 10.3125 4.910156 8.898438 6.328125 7.152344 6.328125 C 5.402344 6.328125 3.988281 4.910156 3.988281 3.164062 C 3.988281 1.417969 5.402344 0 7.152344 0 C 8.898438 0 10.3125 1.417969 10.3125 3.164062 Z M 10.3125 3.164062 "/>
<path fill-rule="nonzero" fill="rgb(30%,30%,30%)" fill-opacity="1" d="M 1.777344 1.714844 C -0.796875 5.199219 0.476562 6.15625 1.285156 6.414062 C 1.601562 6.519531 1.941406 6.519531 2.261719 6.417969 C 3.066406 6.160156 4.359375 5.210938 1.777344 1.714844 Z M 1.777344 1.714844 "/>
<path fill-rule="nonzero" fill="rgb(30%,30%,30%)" fill-opacity="1" d="M 9.574219 8.617188 C 9.574219 9.933594 7.429688 11 4.785156 11 C 2.144531 11 0 9.933594 0 8.617188 C 0 7.933594 0.578125 7.316406 1.503906 6.882812 C 1.539062 6.867188 1.449219 7.683594 1.449219 7.683594 L 2.097656 7.695312 L 2.007812 6.675781 C 2.007812 6.675781 3.15625 6.203125 4.785156 6.234375 C 5.445312 6.246094 6.070312 6.300781 6.640625 6.417969 C 6.644531 6.421875 6.234375 9.039062 6.234375 9.039062 L 7.84375 9.039062 C 7.84375 9.039062 7.582031 6.679688 7.628906 6.699219 C 8.808594 7.132812 9.574219 7.832031 9.574219 8.617188 Z M 9.574219 8.617188 "/>
</svg>
