<?xml version="1.0" encoding="UTF-8" standalone="no"?>
<!-- Created with Inkscape (http://www.inkscape.org/) -->

<svg
   xmlns:dc="http://purl.org/dc/elements/1.1/"
   xmlns:cc="http://creativecommons.org/ns#"
   xmlns:rdf="http://www.w3.org/1999/02/22-rdf-syntax-ns#"
   xmlns:svg="http://www.w3.org/2000/svg"
   xmlns="http://www.w3.org/2000/svg"
   xmlns:xlink="http://www.w3.org/1999/xlink"
   xmlns:sodipodi="http://sodipodi.sourceforge.net/DTD/sodipodi-0.dtd"
   xmlns:inkscape="http://www.inkscape.org/namespaces/inkscape"
   width="30px"
   height="30px"
   version="1.1"
   id="svg8"
   inkscape:version="0.92.4 5da689c313, 2019-01-14"
   sodipodi:docname="container.svg">
  <defs
     id="defs2" />
  <sodipodi:namedview
     id="base"
     pagecolor="#ffffff"
     bordercolor="#666666"
     borderopacity="1.0"
     inkscape:pageopacity="0.0"
     inkscape:pageshadow="2"
     inkscape:zoom="13.049334"
     inkscape:cx="18.679046"
     inkscape:cy="12.165829"
     inkscape:document-units="px"
     inkscape:current-layer="layer1"
     showgrid="false"
     inkscape:snap-page="false"
     units="px"
     inkscape:window-width="1884"
     inkscape:window-height="1061"
     inkscape:window-x="0"
     inkscape:window-y="0"
     inkscape:window-maximized="1"
     fit-margin-top="0"
     fit-margin-left="0"
     fit-margin-right="0"
     fit-margin-bottom="0" />
  <metadata
     id="metadata5">
    <rdf:RDF>
      <cc:Work
         rdf:about="">
        <dc:format>image/svg+xml</dc:format>
        <dc:type
           rdf:resource="http://purl.org/dc/dcmitype/StillImage" />
        <dc:title></dc:title>
      </cc:Work>
    </rdf:RDF>
  </metadata>
    <circle
       style="color:#000000;clip-rule:nonzero;display:inline;overflow:visible;visibility:visible;opacity:1;isolation:auto;mix-blend-mode:normal;color-interpolation:sRGB;color-interpolation-filters:linearRGB;solid-color:#000000;solid-opacity:1;vector-effect:none;fill:#8cc56f;fill-opacity:1;fill-rule:evenodd;stroke:#ffffff;stroke-width:1;stroke-linecap:butt;stroke-linejoin:miter;stroke-miterlimit:4;stroke-dasharray:none;stroke-dashoffset:0;stroke-opacity:1;marker:none;color-rendering:auto;image-rendering:auto;shape-rendering:auto;text-rendering:auto;enable-background:accumulate"
       id="path815"
       cx="15"
       cy="15"
       r="14.5" />
<g transform="translate(7.5,6.5)"><path fill-rule="nonzero" fill="#FFFFFF" fill-opacity="1" d="M 14.09375 11.691406 L 11.5 7.921875 C 11.457031 7.835938 11.402344 7.753906 11.332031 7.679688 C 11.027344 7.34375 10.523438 7.214844 9.902344 7.214844 C 8.949219 7.214844 8.082031 7.871094 8.121094 8.246094 C 8.121094 8.261719 8.132812 8.332031 8.132812 8.347656 C 8.136719 8.378906 8.140625 8.410156 8.144531 8.445312 L 8.277344 9.546875 C 8.261719 9.597656 7.835938 9.511719 7.566406 9.492188 L 7.566406 7.351562 C 8.3125 7.367188 9.089844 7.09375 10.15625 6.773438 C 10.195312 6.761719 11.089844 6.464844 11.976562 5.96875 C 12.023438 5.980469 11.910156 5.953125 11.917969 5.957031 C 11.902344 5.953125 10.4375 5.511719 10.164062 4.820312 C 9.917969 4.195312 9.625 3.195312 8.1875 2.882812 C 8.050781 2.851562 7.917969 2.824219 7.78125 2.832031 C 7.429688 2.851562 6.691406 2.9375 6.3125 3.285156 C 6.523438 2.75 6.789062 2.25 6.734375 1.726562 C 6.644531 0.828125 5.960938 0 5.054688 0 C 4.476562 0 3.988281 0.214844 3.683594 0.679688 L 2.367188 0.664062 L 3.433594 1.289062 C 3.429688 1.316406 3.421875 1.347656 3.417969 1.375 L 2.183594 1.359375 L 3.367188 2.015625 C 3.410156 3.296875 4.105469 6.996094 7.203125 7.328125 L 7.203125 9.511719 C 6.917969 9.542969 6.515625 9.597656 6.496094 9.585938 L 6.636719 8.445312 C 6.640625 8.410156 6.644531 8.378906 6.648438 8.347656 C 6.648438 8.332031 6.648438 8.316406 6.648438 8.300781 C 6.648438 7.648438 5.804688 7.214844 4.851562 7.214844 C 4.230469 7.214844 3.753906 7.34375 3.449219 7.679688 C 3.378906 7.753906 3.324219 7.835938 3.28125 7.921875 C 3.28125 7.921875 0.675781 11.757812 0.75 11.734375 C 0.28125 12.292969 0 13.011719 0 13.796875 C 0 15.570312 1.433594 17 3.207031 17 C 4.976562 17 6.414062 15.5625 6.414062 13.792969 C 6.414062 13.703125 6.398438 13.480469 6.402344 13.527344 C 6.414062 12.796875 6.5 12.398438 7.398438 12.386719 C 8.453125 12.371094 8.472656 12.882812 8.464844 13.757812 C 8.46875 13.609375 8.464844 13.785156 8.464844 13.785156 C 8.464844 13.777344 8.464844 13.769531 8.464844 13.757812 C 8.464844 13.769531 8.464844 13.78125 8.464844 13.792969 C 8.464844 15.5625 9.902344 17 11.671875 17 C 13.4375 17 14.863281 15.589844 14.878906 13.824219 C 14.886719 13.007812 14.589844 12.261719 14.09375 11.691406 Z M 4.558594 1.578125 C 4.316406 1.578125 4.121094 1.382812 4.121094 1.140625 C 4.121094 0.898438 4.316406 0.703125 4.558594 0.703125 C 4.800781 0.703125 5 0.898438 5 1.140625 C 5 1.382812 4.800781 1.578125 4.558594 1.578125 Z M 3.195312 16.164062 C 1.875 16.164062 0.804688 15.089844 0.804688 13.769531 C 0.804688 12.449219 1.875 11.378906 3.195312 11.378906 C 4.515625 11.378906 5.589844 12.449219 5.589844 13.769531 C 5.589844 15.089844 4.515625 16.164062 3.195312 16.164062 Z M 11.660156 16.164062 C 10.339844 16.164062 9.269531 15.089844 9.269531 13.769531 C 9.269531 12.449219 10.339844 11.378906 11.660156 11.378906 C 12.980469 11.378906 14.054688 12.449219 14.054688 13.769531 C 14.054688 15.089844 12.980469 16.164062 11.660156 16.164062 Z M 11.660156 16.164062 "/>
</g>
</svg>
