<?xml version="1.0" encoding="UTF-8"?>
<svg xmlns="http://www.w3.org/2000/svg" xmlns:xlink="http://www.w3.org/1999/xlink" width="11" height="8.483588" viewBox="0 0 11 8.483588">
<path fill-rule="nonzero" fill="rgb(30%,30%,30%)" fill-opacity="1" d="M 10.996094 6.980469 L 10.710938 5.128906 C 10.683594 4.941406 10.507812 4.8125 10.320312 4.839844 C 10.132812 4.871094 10.003906 5.046875 10.03125 5.234375 L 10.046875 5.328125 L 9.558594 5.976562 L 4.941406 6.644531 L 6.898438 3.796875 C 6.898438 3.796875 5.949219 1.957031 4.050781 1.277344 C 3.933594 1.234375 3.871094 0.0234375 2.980469 0 C 1.882812 -0.0273438 1.144531 0.921875 1.054688 2.699219 C 0.964844 4.480469 0.980469 4.019531 0.980469 4.019531 L 0 4.9375 C 0 4.9375 0.046875 6.289062 3.605469 8.484375 C 3.679688 8.527344 9.382812 6.652344 9.753906 6.53125 L 10.300781 6.984375 L 10.316406 7.085938 C 10.34375 7.273438 10.519531 7.402344 10.707031 7.375 C 10.894531 7.34375 11.023438 7.167969 10.996094 6.980469 Z M 3.546875 1.335938 L 1.675781 3.261719 C 1.675781 3.261719 1.707031 1.484375 2.597656 0.980469 C 3.726562 0.339844 3.546875 1.335938 3.546875 1.335938 Z M 3.546875 1.335938 "/>
</svg>
