<?xml version="1.0" encoding="UTF-8" standalone="no"?>
<!-- Created with Inkscape (http://www.inkscape.org/) -->

<svg
   xmlns:dc="http://purl.org/dc/elements/1.1/"
   xmlns:cc="http://creativecommons.org/ns#"
   xmlns:rdf="http://www.w3.org/1999/02/22-rdf-syntax-ns#"
   xmlns:svg="http://www.w3.org/2000/svg"
   xmlns="http://www.w3.org/2000/svg"
   xmlns:xlink="http://www.w3.org/1999/xlink"
   xmlns:sodipodi="http://sodipodi.sourceforge.net/DTD/sodipodi-0.dtd"
   xmlns:inkscape="http://www.inkscape.org/namespaces/inkscape"
   width="30px"
   height="30px"
   version="1.1"
   id="svg8"
   inkscape:version="0.92.4 5da689c313, 2019-01-14"
   sodipodi:docname="container.svg">
  <defs
     id="defs2" />
  <sodipodi:namedview
     id="base"
     pagecolor="#ffffff"
     bordercolor="#666666"
     borderopacity="1.0"
     inkscape:pageopacity="0.0"
     inkscape:pageshadow="2"
     inkscape:zoom="13.049334"
     inkscape:cx="18.679046"
     inkscape:cy="12.165829"
     inkscape:document-units="px"
     inkscape:current-layer="layer1"
     showgrid="false"
     inkscape:snap-page="false"
     units="px"
     inkscape:window-width="1884"
     inkscape:window-height="1061"
     inkscape:window-x="0"
     inkscape:window-y="0"
     inkscape:window-maximized="1"
     fit-margin-top="0"
     fit-margin-left="0"
     fit-margin-right="0"
     fit-margin-bottom="0" />
  <metadata
     id="metadata5">
    <rdf:RDF>
      <cc:Work
         rdf:about="">
        <dc:format>image/svg+xml</dc:format>
        <dc:type
           rdf:resource="http://purl.org/dc/dcmitype/StillImage" />
        <dc:title></dc:title>
      </cc:Work>
    </rdf:RDF>
  </metadata>
    <circle
       style="color:#000000;clip-rule:nonzero;display:inline;overflow:visible;visibility:visible;opacity:1;isolation:auto;mix-blend-mode:normal;color-interpolation:sRGB;color-interpolation-filters:linearRGB;solid-color:#000000;solid-opacity:1;vector-effect:none;fill:#ffffff;fill-opacity:1;fill-rule:evenodd;stroke:#70b06a;stroke-width:1;stroke-linecap:butt;stroke-linejoin:miter;stroke-miterlimit:4;stroke-dasharray:none;stroke-dashoffset:0;stroke-opacity:1;marker:none;color-rendering:auto;image-rendering:auto;shape-rendering:auto;text-rendering:auto;enable-background:accumulate"
       id="path815"
       cx="15"
       cy="15"
       r="14.5" />
<g transform="translate(10.5,6.5)"><path fill-rule="nonzero" fill="rgb(30%,30%,30%)" fill-opacity="1" d="M 0 0 L 9.40625 0 L 9.40625 0.816406 L 0 0.816406 Z M 0 0 "/>
<path fill-rule="nonzero" fill="rgb(30%,30%,30%)" fill-opacity="1" d="M 8.914062 7.59375 L 8.914062 1.132812 L 0.585938 1.132812 L 0.585938 7.59375 L 0.578125 7.59375 L 0.578125 17 L 1.394531 17 L 1.394531 8.410156 L 2.421875 8.410156 L 2.421875 17 L 2.738281 17 L 2.738281 16.21875 L 4.414062 16.21875 L 4.414062 17 L 4.730469 17 L 4.730469 8.410156 L 8.101562 8.410156 L 8.101562 17 L 8.917969 17 L 8.917969 7.59375 Z M 4.414062 15.980469 L 2.738281 15.980469 L 2.738281 15.082031 L 4.414062 15.082031 Z M 4.414062 14.839844 L 2.738281 14.839844 L 2.738281 13.941406 L 4.414062 13.941406 Z M 4.414062 13.703125 L 2.738281 13.703125 L 2.738281 12.804688 L 4.414062 12.804688 Z M 4.414062 12.5625 L 2.738281 12.5625 L 2.738281 11.664062 L 4.414062 11.664062 Z M 4.414062 11.425781 L 2.738281 11.425781 L 2.738281 10.527344 L 4.414062 10.527344 Z M 4.414062 10.285156 L 2.738281 10.285156 L 2.738281 9.386719 L 4.414062 9.386719 Z M 4.414062 9.144531 L 2.738281 9.144531 L 2.738281 8.410156 L 4.414062 8.410156 Z M 1.21875 4.140625 L 1.21875 2.214844 L 8.292969 2.214844 L 8.292969 4.140625 Z M 1.21875 4.140625 "/>
</g>
</svg>
