<?xml version="1.0" encoding="UTF-8" standalone="no"?>
<!-- Created with Inkscape (http://www.inkscape.org/) -->

<svg
   xmlns:dc="http://purl.org/dc/elements/1.1/"
   xmlns:cc="http://creativecommons.org/ns#"
   xmlns:rdf="http://www.w3.org/1999/02/22-rdf-syntax-ns#"
   xmlns:svg="http://www.w3.org/2000/svg"
   xmlns="http://www.w3.org/2000/svg"
   xmlns:xlink="http://www.w3.org/1999/xlink"
   xmlns:sodipodi="http://sodipodi.sourceforge.net/DTD/sodipodi-0.dtd"
   xmlns:inkscape="http://www.inkscape.org/namespaces/inkscape"
   width="30px"
   height="30px"
   version="1.1"
   id="svg8"
   inkscape:version="0.92.4 5da689c313, 2019-01-14"
   sodipodi:docname="container.svg">
  <defs
     id="defs2" />
  <sodipodi:namedview
     id="base"
     pagecolor="#ffffff"
     bordercolor="#666666"
     borderopacity="1.0"
     inkscape:pageopacity="0.0"
     inkscape:pageshadow="2"
     inkscape:zoom="13.049334"
     inkscape:cx="18.679046"
     inkscape:cy="12.165829"
     inkscape:document-units="px"
     inkscape:current-layer="layer1"
     showgrid="false"
     inkscape:snap-page="false"
     units="px"
     inkscape:window-width="1884"
     inkscape:window-height="1061"
     inkscape:window-x="0"
     inkscape:window-y="0"
     inkscape:window-maximized="1"
     fit-margin-top="0"
     fit-margin-left="0"
     fit-margin-right="0"
     fit-margin-bottom="0" />
  <metadata
     id="metadata5">
    <rdf:RDF>
      <cc:Work
         rdf:about="">
        <dc:format>image/svg+xml</dc:format>
        <dc:type
           rdf:resource="http://purl.org/dc/dcmitype/StillImage" />
        <dc:title></dc:title>
      </cc:Work>
    </rdf:RDF>
  </metadata>
    <circle
       style="color:#000000;clip-rule:nonzero;display:inline;overflow:visible;visibility:visible;opacity:1;isolation:auto;mix-blend-mode:normal;color-interpolation:sRGB;color-interpolation-filters:linearRGB;solid-color:#000000;solid-opacity:1;vector-effect:none;fill:#ffffff;fill-opacity:1;fill-rule:evenodd;stroke:#70b06a;stroke-width:1;stroke-linecap:butt;stroke-linejoin:miter;stroke-miterlimit:4;stroke-dasharray:none;stroke-dashoffset:0;stroke-opacity:1;marker:none;color-rendering:auto;image-rendering:auto;shape-rendering:auto;text-rendering:auto;enable-background:accumulate"
       id="path815"
       cx="15"
       cy="15"
       r="14.5" />
<g transform="translate(6.5,8.5)"><path fill-rule="nonzero" fill="rgb(30%,30%,30%)" fill-opacity="1" d="M 16.992188 10.789062 L 16.554688 7.925781 C 16.511719 7.636719 16.242188 7.4375 15.949219 7.480469 C 15.660156 7.527344 15.460938 7.796875 15.503906 8.085938 L 15.527344 8.230469 L 14.773438 9.234375 L 7.632812 10.269531 L 10.660156 5.867188 C 10.660156 5.867188 9.191406 3.027344 6.257812 1.972656 C 6.082031 1.90625 5.984375 0.0390625 4.609375 0 C 2.914062 -0.0429688 1.765625 1.421875 1.628906 4.171875 C 1.492188 6.921875 1.511719 6.210938 1.511719 6.210938 L 0 7.628906 C 0 7.628906 0.0703125 9.71875 5.570312 13.109375 C 5.683594 13.179688 14.503906 10.28125 15.074219 10.09375 L 15.917969 10.792969 L 15.941406 10.953125 C 15.988281 11.242188 16.257812 11.441406 16.546875 11.394531 C 16.839844 11.351562 17.039062 11.082031 16.992188 10.789062 Z M 5.480469 2.0625 L 2.59375 5.042969 C 2.59375 5.042969 2.636719 2.292969 4.011719 1.511719 C 5.761719 0.523438 5.480469 2.0625 5.480469 2.0625 Z M 5.480469 2.0625 "/>
</g>
</svg>
