<?xml version="1.0" encoding="UTF-8" standalone="no"?>
<!-- Created with Inkscape (http://www.inkscape.org/) -->

<svg
   xmlns:dc="http://purl.org/dc/elements/1.1/"
   xmlns:cc="http://creativecommons.org/ns#"
   xmlns:rdf="http://www.w3.org/1999/02/22-rdf-syntax-ns#"
   xmlns:svg="http://www.w3.org/2000/svg"
   xmlns="http://www.w3.org/2000/svg"
   xmlns:xlink="http://www.w3.org/1999/xlink"
   xmlns:sodipodi="http://sodipodi.sourceforge.net/DTD/sodipodi-0.dtd"
   xmlns:inkscape="http://www.inkscape.org/namespaces/inkscape"
   width="30px"
   height="30px"
   version="1.1"
   id="svg8"
   inkscape:version="0.92.4 5da689c313, 2019-01-14"
   sodipodi:docname="container.svg">
  <defs
     id="defs2" />
  <sodipodi:namedview
     id="base"
     pagecolor="#ffffff"
     bordercolor="#666666"
     borderopacity="1.0"
     inkscape:pageopacity="0.0"
     inkscape:pageshadow="2"
     inkscape:zoom="13.049334"
     inkscape:cx="18.679046"
     inkscape:cy="12.165829"
     inkscape:document-units="px"
     inkscape:current-layer="layer1"
     showgrid="false"
     inkscape:snap-page="false"
     units="px"
     inkscape:window-width="1884"
     inkscape:window-height="1061"
     inkscape:window-x="0"
     inkscape:window-y="0"
     inkscape:window-maximized="1"
     fit-margin-top="0"
     fit-margin-left="0"
     fit-margin-right="0"
     fit-margin-bottom="0" />
  <metadata
     id="metadata5">
    <rdf:RDF>
      <cc:Work
         rdf:about="">
        <dc:format>image/svg+xml</dc:format>
        <dc:type
           rdf:resource="http://purl.org/dc/dcmitype/StillImage" />
        <dc:title></dc:title>
      </cc:Work>
    </rdf:RDF>
  </metadata>
    <circle
       style="color:#000000;clip-rule:nonzero;display:inline;overflow:visible;visibility:visible;opacity:1;isolation:auto;mix-blend-mode:normal;color-interpolation:sRGB;color-interpolation-filters:linearRGB;solid-color:#000000;solid-opacity:1;vector-effect:none;fill:#8cc56f;fill-opacity:1;fill-rule:evenodd;stroke:#ffffff;stroke-width:1;stroke-linecap:butt;stroke-linejoin:miter;stroke-miterlimit:4;stroke-dasharray:none;stroke-dashoffset:0;stroke-opacity:1;marker:none;color-rendering:auto;image-rendering:auto;shape-rendering:auto;text-rendering:auto;enable-background:accumulate"
       id="path815"
       cx="15"
       cy="15"
       r="14.5" />
<g transform="translate(6.5,7.5)"><path fill-rule="nonzero" fill="#FFFFFF" fill-opacity="1" d="M 17 4.1875 L 16.996094 4.1875 C 16.996094 9.410156 8.308594 14.511719 8.308594 14.511719 C 8.308594 14.511719 0 9.410156 0 4.1875 L 0.00390625 4.1875 C 0.00390625 1.574219 1.785156 0.0859375 4.132812 0 C 5.464844 -0.046875 8.496094 0.804688 8.40625 3.414062 C 8.5 0.761719 11.628906 0 12.625 0 C 14.972656 0 17 1.574219 17 4.1875 M 7.941406 7.660156 C 10.511719 5.378906 13.714844 4.839844 13.714844 4.839844 C 13.714844 4.839844 10.527344 6.144531 8.640625 7.875 C 6.871094 9.496094 5.445312 12.121094 5.445312 12.121094 C 5.445312 12.121094 7.519531 13.1875 10 11.734375 C 11.902344 10.625 13.847656 6.214844 14.804688 5.113281 C 15.417969 4.40625 15.667969 4.277344 15.667969 4.277344 C 15.667969 4.277344 11.121094 2.910156 7.5625 5.265625 C 4.234375 7.472656 5.007812 11.507812 5.007812 11.507812 C 5.007812 11.507812 6.164062 9.242188 7.941406 7.660156 Z M 7.941406 7.660156 "/>
</g>
</svg>
