<?xml version="1.0" encoding="UTF-8"?>
<svg xmlns="http://www.w3.org/2000/svg" xmlns:xlink="http://www.w3.org/1999/xlink" width="11" height="10.867936" viewBox="0 0 11 10.867936">
<path fill-rule="nonzero" fill="rgb(30%,30%,30%)" fill-opacity="1" d="M 10.339844 10.253906 L 8.753906 10.253906 C 8.710938 10.253906 8.679688 10.21875 8.679688 10.179688 L 8.679688 8.742188 C 8.679688 8.707031 8.703125 8.675781 8.738281 8.667969 C 8.859375 8.644531 8.976562 8.617188 9.089844 8.582031 C 10.5625 8.109375 12.917969 6.375 8.207031 0 C 3.507812 6.355469 5.835938 8.101562 7.308594 8.574219 C 7.429688 8.613281 7.546875 8.644531 7.667969 8.667969 C 7.703125 8.671875 7.730469 8.703125 7.730469 8.738281 L 7.730469 10.179688 C 7.730469 10.21875 7.695312 10.253906 7.65625 10.253906 L 3.097656 10.253906 C 3.078125 10.253906 3.058594 10.246094 3.046875 10.230469 C 3.03125 10.21875 3.023438 10.199219 3.023438 10.179688 L 3.03125 9.429688 C 3.023438 9.398438 3.027344 9.367188 3.046875 9.34375 C 3.066406 9.320312 3.09375 9.308594 3.125 9.308594 L 3.941406 9.308594 C 4.472656 9.308594 5.1875 8.984375 5.1875 8.296875 L 5.1875 8.203125 C 5.1875 8.148438 5.144531 8.105469 5.089844 8.105469 L 2.964844 8.105469 C 2.914062 8.105469 2.871094 8.0625 2.871094 8.007812 L 2.871094 7.019531 C 2.871094 6.964844 2.914062 6.921875 2.964844 6.921875 L 3.371094 6.921875 C 3.625 6.921875 3.832031 6.714844 3.832031 6.464844 C 3.832031 6.410156 3.789062 6.367188 3.734375 6.367188 L 2.792969 6.367188 C 2.769531 6.367188 2.746094 6.355469 2.726562 6.335938 C 2.707031 6.320312 2.699219 6.292969 2.699219 6.269531 L 2.703125 5.5625 C 2.703125 5.464844 2.773438 5.382812 2.867188 5.367188 C 2.964844 5.351562 3.058594 5.402344 3.089844 5.496094 C 3.101562 5.535156 3.140625 5.5625 3.183594 5.5625 L 3.1875 5.5625 C 3.21875 5.5625 3.25 5.546875 3.265625 5.519531 C 3.285156 5.496094 3.289062 5.460938 3.277344 5.433594 C 3.238281 5.3125 3.140625 5.21875 3.015625 5.179688 C 2.890625 5.144531 2.757812 5.167969 2.65625 5.25 C 2.621094 5.277344 2.570312 5.277344 2.535156 5.25 C 2.433594 5.167969 2.300781 5.144531 2.175781 5.179688 C 2.050781 5.21875 1.953125 5.3125 1.914062 5.433594 C 1.902344 5.460938 1.90625 5.496094 1.925781 5.519531 C 1.945312 5.546875 1.972656 5.5625 2.003906 5.5625 L 2.011719 5.5625 C 2.050781 5.5625 2.089844 5.535156 2.101562 5.496094 C 2.136719 5.40625 2.226562 5.351562 2.324219 5.367188 C 2.417969 5.382812 2.488281 5.464844 2.488281 5.5625 L 2.480469 6.269531 C 2.480469 6.324219 2.4375 6.367188 2.382812 6.367188 L 1.492188 6.367188 C 1.4375 6.367188 1.394531 6.410156 1.394531 6.464844 C 1.394531 6.714844 1.597656 6.921875 1.851562 6.921875 L 2.21875 6.921875 C 2.269531 6.921875 2.3125 6.964844 2.3125 7.019531 L 2.3125 8.007812 C 2.3125 8.0625 2.269531 8.105469 2.21875 8.105469 L 0.0976562 8.105469 C 0.0429688 8.105469 0 8.148438 0 8.203125 L 0 8.296875 C 0 8.984375 0.660156 9.308594 1.246094 9.308594 L 2.121094 9.308594 C 2.148438 9.308594 2.179688 9.320312 2.195312 9.34375 C 2.214844 9.367188 2.222656 9.398438 2.214844 9.425781 L 2.191406 10.179688 C 2.191406 10.222656 2.160156 10.253906 2.117188 10.253906 L 0.746094 10.253906 C 0.578125 10.253906 0.441406 10.390625 0.441406 10.5625 C 0.441406 10.730469 0.578125 10.867188 0.746094 10.867188 L 10.339844 10.867188 C 10.507812 10.867188 10.648438 10.730469 10.648438 10.5625 C 10.648438 10.390625 10.507812 10.253906 10.339844 10.253906 Z M 10.339844 10.253906 "/>
<path fill-rule="nonzero" fill="rgb(30%,30%,30%)" fill-opacity="1" d="M 1.953125 5.753906 C 2.207031 6.089844 2.082031 6.183594 2.003906 6.207031 C 1.964844 6.214844 1.925781 6.214844 1.90625 6.207031 C 1.835938 6.167969 1.703125 6.089844 1.953125 5.753906 Z M 1.953125 5.753906 "/>
<path fill-rule="nonzero" fill="rgb(30%,30%,30%)" fill-opacity="1" d="M 3.222656 5.753906 C 3.472656 6.089844 3.351562 6.183594 3.269531 6.207031 C 3.234375 6.214844 3.191406 6.214844 3.175781 6.207031 C 3.105469 6.167969 2.972656 6.089844 3.222656 5.753906 Z M 3.222656 5.753906 "/>
</svg>
