<?xml version="1.0" encoding="UTF-8" standalone="no"?>
<!-- Created with Inkscape (http://www.inkscape.org/) -->

<svg
   xmlns:dc="http://purl.org/dc/elements/1.1/"
   xmlns:cc="http://creativecommons.org/ns#"
   xmlns:rdf="http://www.w3.org/1999/02/22-rdf-syntax-ns#"
   xmlns:svg="http://www.w3.org/2000/svg"
   xmlns="http://www.w3.org/2000/svg"
   xmlns:xlink="http://www.w3.org/1999/xlink"
   xmlns:sodipodi="http://sodipodi.sourceforge.net/DTD/sodipodi-0.dtd"
   xmlns:inkscape="http://www.inkscape.org/namespaces/inkscape"
   width="30px"
   height="30px"
   version="1.1"
   id="svg8"
   inkscape:version="0.92.4 5da689c313, 2019-01-14"
   sodipodi:docname="container.svg">
  <defs
     id="defs2" />
  <sodipodi:namedview
     id="base"
     pagecolor="#ffffff"
     bordercolor="#666666"
     borderopacity="1.0"
     inkscape:pageopacity="0.0"
     inkscape:pageshadow="2"
     inkscape:zoom="13.049334"
     inkscape:cx="18.679046"
     inkscape:cy="12.165829"
     inkscape:document-units="px"
     inkscape:current-layer="layer1"
     showgrid="false"
     inkscape:snap-page="false"
     units="px"
     inkscape:window-width="1884"
     inkscape:window-height="1061"
     inkscape:window-x="0"
     inkscape:window-y="0"
     inkscape:window-maximized="1"
     fit-margin-top="0"
     fit-margin-left="0"
     fit-margin-right="0"
     fit-margin-bottom="0" />
  <metadata
     id="metadata5">
    <rdf:RDF>
      <cc:Work
         rdf:about="">
        <dc:format>image/svg+xml</dc:format>
        <dc:type
           rdf:resource="http://purl.org/dc/dcmitype/StillImage" />
        <dc:title></dc:title>
      </cc:Work>
    </rdf:RDF>
  </metadata>
    <circle
       style="color:#000000;clip-rule:nonzero;display:inline;overflow:visible;visibility:visible;opacity:1;isolation:auto;mix-blend-mode:normal;color-interpolation:sRGB;color-interpolation-filters:linearRGB;solid-color:#000000;solid-opacity:1;vector-effect:none;fill:#8cc56f;fill-opacity:1;fill-rule:evenodd;stroke:#ffffff;stroke-width:1;stroke-linecap:butt;stroke-linejoin:miter;stroke-miterlimit:4;stroke-dasharray:none;stroke-dashoffset:0;stroke-opacity:1;marker:none;color-rendering:auto;image-rendering:auto;shape-rendering:auto;text-rendering:auto;enable-background:accumulate"
       id="path815"
       cx="15"
       cy="15"
       r="14.5" />
<g transform="translate(6.5,9.0)"><path fill-rule="nonzero" fill="#FFFFFF" fill-opacity="1" d="M 5.242188 0.625 C 4.566406 0.773438 4.546875 0.839844 4.546875 0.839844 L 4.746094 0.507812 C 5.035156 0.1875 5.566406 0 6.15625 0 C 7.0625 0 7.800781 0.488281 7.800781 1.105469 L 7.757812 1.433594 C 7.617188 1.28125 7.460938 1.140625 7.292969 1.023438 C 7.292969 1.023438 6.355469 0.378906 5.242188 0.625 Z M 11.648438 0.625 C 12.324219 0.773438 12.34375 0.839844 12.34375 0.839844 L 12.144531 0.507812 C 11.855469 0.1875 11.320312 0 10.734375 0 C 9.828125 0 9.085938 0.488281 9.085938 1.105469 L 9.128906 1.433594 C 9.269531 1.28125 9.425781 1.140625 9.597656 1.023438 C 9.597656 1.023438 10.53125 0.378906 11.648438 0.625 Z M 17 8.753906 C 17 10.777344 15.359375 12.417969 13.335938 12.417969 C 11.3125 12.417969 9.671875 10.777344 9.671875 8.753906 C 9.671875 8.742188 9.671875 8.726562 9.671875 8.714844 C 9.671875 8.726562 9.671875 8.734375 9.671875 8.746094 C 9.671875 8.746094 9.675781 8.542969 9.671875 8.714844 C 9.679688 7.714844 9.660156 7.128906 8.453125 7.144531 C 7.425781 7.160156 7.332031 7.617188 7.316406 8.449219 C 7.3125 8.398438 7.328125 8.652344 7.328125 8.753906 C 7.328125 10.777344 5.6875 12.417969 3.664062 12.417969 C 1.640625 12.417969 0 10.777344 0 8.753906 C 0 7.894531 0.300781 7.058594 0.855469 6.402344 C 0.773438 6.425781 3.75 2.046875 3.75 2.046875 C 3.800781 1.945312 3.863281 1.851562 3.941406 1.769531 C 4.289062 1.382812 4.910156 1.128906 5.621094 1.128906 C 6.710938 1.128906 7.597656 1.730469 7.597656 2.476562 C 7.597656 2.496094 7.59375 2.511719 7.59375 2.53125 C 7.59375 2.570312 7.585938 2.605469 7.582031 2.640625 L 7.421875 3.945312 C 7.582031 3.257812 7.980469 2.765625 8.445312 2.765625 C 8.902344 2.765625 9.292969 3.234375 9.460938 3.902344 L 9.308594 2.640625 C 9.300781 2.605469 9.296875 2.570312 9.292969 2.53125 C 9.292969 2.511719 9.292969 2.496094 9.292969 2.476562 C 9.292969 1.730469 10.175781 1.128906 11.265625 1.128906 C 11.976562 1.128906 12.597656 1.382812 12.949219 1.769531 C 13.023438 1.851562 13.089844 1.945312 13.136719 2.046875 L 16.101562 6.351562 C 16.683594 7.019531 17 7.871094 17 8.753906 Z M 6.386719 8.726562 C 6.386719 7.21875 5.160156 5.996094 3.652344 5.996094 C 2.140625 5.996094 0.917969 7.21875 0.917969 8.726562 C 0.917969 10.238281 2.140625 11.460938 3.652344 11.460938 C 5.160156 11.460938 6.386719 10.238281 6.386719 8.726562 Z M 16.054688 8.726562 C 16.054688 7.21875 14.832031 5.996094 13.324219 5.996094 C 11.8125 5.996094 10.589844 7.21875 10.589844 8.726562 C 10.589844 10.238281 11.8125 11.460938 13.324219 11.460938 C 14.832031 11.460938 16.054688 10.238281 16.054688 8.726562 Z M 8.472656 5.601562 C 8.1875 5.601562 7.957031 5.832031 7.957031 6.117188 C 7.957031 6.402344 8.1875 6.636719 8.472656 6.636719 C 8.757812 6.636719 8.992188 6.402344 8.992188 6.117188 C 8.992188 5.832031 8.757812 5.601562 8.472656 5.601562 Z M 8.472656 5.601562 "/>
</g>
</svg>
