<?xml version="1.0" encoding="UTF-8" standalone="no"?>
<!-- Created with Inkscape (http://www.inkscape.org/) -->

<svg
   xmlns:dc="http://purl.org/dc/elements/1.1/"
   xmlns:cc="http://creativecommons.org/ns#"
   xmlns:rdf="http://www.w3.org/1999/02/22-rdf-syntax-ns#"
   xmlns:svg="http://www.w3.org/2000/svg"
   xmlns="http://www.w3.org/2000/svg"
   xmlns:xlink="http://www.w3.org/1999/xlink"
   xmlns:sodipodi="http://sodipodi.sourceforge.net/DTD/sodipodi-0.dtd"
   xmlns:inkscape="http://www.inkscape.org/namespaces/inkscape"
   width="30px"
   height="30px"
   version="1.1"
   id="svg8"
   inkscape:version="0.92.4 5da689c313, 2019-01-14"
   sodipodi:docname="container.svg">
  <defs
     id="defs2" />
  <sodipodi:namedview
     id="base"
     pagecolor="#ffffff"
     bordercolor="#666666"
     borderopacity="1.0"
     inkscape:pageopacity="0.0"
     inkscape:pageshadow="2"
     inkscape:zoom="13.049334"
     inkscape:cx="18.679046"
     inkscape:cy="12.165829"
     inkscape:document-units="px"
     inkscape:current-layer="layer1"
     showgrid="false"
     inkscape:snap-page="false"
     units="px"
     inkscape:window-width="1884"
     inkscape:window-height="1061"
     inkscape:window-x="0"
     inkscape:window-y="0"
     inkscape:window-maximized="1"
     fit-margin-top="0"
     fit-margin-left="0"
     fit-margin-right="0"
     fit-margin-bottom="0" />
  <metadata
     id="metadata5">
    <rdf:RDF>
      <cc:Work
         rdf:about="">
        <dc:format>image/svg+xml</dc:format>
        <dc:type
           rdf:resource="http://purl.org/dc/dcmitype/StillImage" />
        <dc:title></dc:title>
      </cc:Work>
    </rdf:RDF>
  </metadata>
    <circle
       style="color:#000000;clip-rule:nonzero;display:inline;overflow:visible;visibility:visible;opacity:1;isolation:auto;mix-blend-mode:normal;color-interpolation:sRGB;color-interpolation-filters:linearRGB;solid-color:#000000;solid-opacity:1;vector-effect:none;fill:#ffffff;fill-opacity:1;fill-rule:evenodd;stroke:#f25c05;stroke-width:1;stroke-linecap:butt;stroke-linejoin:miter;stroke-miterlimit:4;stroke-dasharray:none;stroke-dashoffset:0;stroke-opacity:1;marker:none;color-rendering:auto;image-rendering:auto;shape-rendering:auto;text-rendering:auto;enable-background:accumulate"
       id="path815"
       cx="15"
       cy="15"
       r="14.5" />
<g transform="translate(7.5,6.5)"><path fill-rule="nonzero" fill="rgb(30%,30%,30%)" fill-opacity="1" d="M 6.816406 8.019531 C 8.273438 7.996094 9.425781 6.179688 9.386719 3.964844 C 9.351562 1.75 8.140625 -0.0234375 6.683594 0 C 5.226562 0.0234375 4.074219 1.839844 4.113281 4.054688 C 4.148438 6.269531 5.359375 8.046875 6.816406 8.019531 Z M 6.414062 3.949219 C 6.859375 2.089844 6.683594 0.480469 6.710938 0.429688 C 6.730469 0.5 7.539062 2.074219 7.085938 4.070312 C 6.640625 5.933594 6.816406 7.539062 6.789062 7.59375 C 6.773438 7.519531 5.957031 5.949219 6.414062 3.949219 Z M 6.414062 3.949219 "/>
<path fill-rule="nonzero" fill="rgb(30%,30%,30%)" fill-opacity="1" d="M 14.300781 6.964844 C 13.148438 5.839844 10.820312 6.347656 9.109375 8.105469 C 7.394531 9.863281 6.945312 12.199219 8.097656 13.324219 C 9.253906 14.453125 11.578125 13.941406 13.289062 12.183594 C 15.003906 10.429688 15.457031 8.09375 14.300781 6.964844 Z M 11.414062 10.457031 C 9.601562 11.558594 8.476562 12.949219 8.414062 12.96875 C 8.457031 12.898438 9.058594 11.035156 10.988281 9.832031 C 12.796875 8.734375 13.921875 7.34375 13.988281 7.320312 C 13.945312 7.394531 13.339844 9.257812 11.414062 10.457031 Z M 11.414062 10.457031 "/>
<path fill-rule="nonzero" fill="rgb(30%,30%,30%)" fill-opacity="1" d="M 1.566406 7.722656 C -0.0820312 8.46875 -0.496094 11.109375 0.640625 13.617188 C 1.777344 16.125 4.035156 17.546875 5.6875 16.800781 C 7.335938 16.054688 7.75 13.414062 6.613281 10.90625 C 5.472656 8.398438 3.21875 6.972656 1.566406 7.722656 Z M 3.214844 12.359375 C 2.800781 10.015625 1.808594 8.269531 1.8125 8.199219 C 1.867188 8.269531 3.570312 9.660156 4.039062 12.167969 C 4.453125 14.507812 5.445312 16.253906 5.441406 16.324219 C 5.382812 16.253906 3.679688 14.863281 3.214844 12.359375 Z M 3.214844 12.359375 "/>
</g>
</svg>
