<?xml version="1.0" encoding="UTF-8" standalone="no"?>
<!-- Created with Inkscape (http://www.inkscape.org/) -->

<svg
   xmlns:dc="http://purl.org/dc/elements/1.1/"
   xmlns:cc="http://creativecommons.org/ns#"
   xmlns:rdf="http://www.w3.org/1999/02/22-rdf-syntax-ns#"
   xmlns:svg="http://www.w3.org/2000/svg"
   xmlns="http://www.w3.org/2000/svg"
   xmlns:xlink="http://www.w3.org/1999/xlink"
   xmlns:sodipodi="http://sodipodi.sourceforge.net/DTD/sodipodi-0.dtd"
   xmlns:inkscape="http://www.inkscape.org/namespaces/inkscape"
   width="30px"
   height="30px"
   version="1.1"
   id="svg8"
   inkscape:version="0.92.4 5da689c313, 2019-01-14"
   sodipodi:docname="container.svg">
  <defs
     id="defs2" />
  <sodipodi:namedview
     id="base"
     pagecolor="#ffffff"
     bordercolor="#666666"
     borderopacity="1.0"
     inkscape:pageopacity="0.0"
     inkscape:pageshadow="2"
     inkscape:zoom="13.049334"
     inkscape:cx="18.679046"
     inkscape:cy="12.165829"
     inkscape:document-units="px"
     inkscape:current-layer="layer1"
     showgrid="false"
     inkscape:snap-page="false"
     units="px"
     inkscape:window-width="1884"
     inkscape:window-height="1061"
     inkscape:window-x="0"
     inkscape:window-y="0"
     inkscape:window-maximized="1"
     fit-margin-top="0"
     fit-margin-left="0"
     fit-margin-right="0"
     fit-margin-bottom="0" />
  <metadata
     id="metadata5">
    <rdf:RDF>
      <cc:Work
         rdf:about="">
        <dc:format>image/svg+xml</dc:format>
        <dc:type
           rdf:resource="http://purl.org/dc/dcmitype/StillImage" />
        <dc:title></dc:title>
      </cc:Work>
    </rdf:RDF>
  </metadata>
    <circle
       style="color:#000000;clip-rule:nonzero;display:inline;overflow:visible;visibility:visible;opacity:1;isolation:auto;mix-blend-mode:normal;color-interpolation:sRGB;color-interpolation-filters:linearRGB;solid-color:#000000;solid-opacity:1;vector-effect:none;fill:#ffffff;fill-opacity:1;fill-rule:evenodd;stroke:#f25c05;stroke-width:1;stroke-linecap:butt;stroke-linejoin:miter;stroke-miterlimit:4;stroke-dasharray:none;stroke-dashoffset:0;stroke-opacity:1;marker:none;color-rendering:auto;image-rendering:auto;shape-rendering:auto;text-rendering:auto;enable-background:accumulate"
       id="path815"
       cx="15"
       cy="15"
       r="14.5" />
<g transform="translate(6.5,6.5)"><path fill-rule="nonzero" fill="rgb(30%,30%,30%)" fill-opacity="1" d="M 8.980469 9.484375 L 8.066406 9.484375 L 8.058594 9.015625 C 8.105469 9 8.148438 8.984375 8.1875 8.96875 C 8.726562 8.753906 9.101562 8.203125 9.195312 7.492188 C 9.246094 7.089844 9.207031 6.683594 9.074219 6.300781 C 8.933594 5.886719 8.691406 5.542969 8.378906 5.308594 C 7.972656 5.007812 7.273438 4.753906 6.195312 5.179688 C 6 5.011719 5.628906 4.773438 5.15625 4.839844 C 4.894531 4.878906 4.636719 4.941406 4.386719 5.03125 C 4.265625 4.949219 4.128906 4.886719 3.984375 4.851562 C 3.519531 4.722656 2.953125 4.777344 2.296875 5.011719 C 1.636719 5.246094 1.324219 5.707031 1.175781 6.054688 C 1.097656 6.238281 1.046875 6.4375 1.023438 6.636719 C 0.761719 6.925781 -0.0703125 7.941406 0.00390625 9.113281 C 0.0703125 10.152344 0.621094 10.796875 0.898438 11.0625 L 0.871094 15.574219 C 0.871094 16.207031 1.386719 16.722656 2.019531 16.722656 L 6.976562 16.722656 C 7.613281 16.722656 8.128906 16.207031 8.128906 15.574219 L 8.15625 15.082031 L 8.96875 15.070312 C 9.601562 15.066406 10.117188 14.550781 10.121094 13.914062 L 10.121094 10.625 C 10.121094 9.996094 9.609375 9.484375 8.980469 9.484375 Z M 7.480469 8.601562 C 7.121094 8.675781 6.675781 8.734375 6.285156 8.777344 L 6.28125 8.777344 C 6.238281 8.78125 6.199219 8.785156 6.15625 8.789062 L 6.152344 8.789062 C 6.113281 8.792969 6.074219 8.796875 6.035156 8.800781 L 6.03125 8.804688 C 6.011719 8.804688 5.992188 8.804688 5.972656 8.808594 C 5.957031 8.808594 5.9375 8.8125 5.921875 8.8125 L 5.914062 8.8125 C 5.898438 8.816406 5.878906 8.816406 5.863281 8.816406 L 5.859375 8.820312 C 5.84375 8.820312 5.828125 8.820312 5.8125 8.824219 L 5.804688 8.824219 L 5.761719 8.828125 L 5.753906 8.828125 L 5.714844 8.832031 L 5.707031 8.832031 C 5.695312 8.832031 5.679688 8.832031 5.667969 8.835938 L 5.660156 8.835938 L 5.621094 8.839844 C 5.59375 8.839844 5.566406 8.84375 5.542969 8.84375 C 5.402344 8.851562 5.289062 8.964844 5.28125 9.105469 C 5.277344 9.113281 5.210938 9.816406 4.886719 9.855469 C 4.855469 9.816406 4.789062 9.699219 4.734375 9.441406 C 4.707031 9.308594 4.6875 9.171875 4.675781 9.039062 L 4.671875 9.023438 C 4.660156 8.871094 4.523438 8.753906 4.371094 8.765625 C 4.214844 8.777344 4.097656 8.914062 4.109375 9.066406 C 4.109375 9.070312 4.109375 9.078125 4.113281 9.09375 C 4.179688 9.921875 4.140625 11.210938 3.847656 11.527344 C 3.808594 11.570312 3.78125 11.570312 3.769531 11.570312 C 3.757812 11.570312 3.746094 11.570312 3.722656 11.542969 C 3.667969 11.480469 3.492188 11.1875 3.542969 10.074219 C 3.5625 9.589844 3.617188 9.140625 3.644531 8.949219 C 3.644531 8.945312 3.640625 8.941406 3.640625 8.933594 C 3.601562 8.582031 3.40625 8.542969 3 8.699219 C 2.546875 8.871094 3.039062 12.285156 2.414062 12.382812 C 2.363281 12.390625 2.296875 12.351562 2.226562 12.296875 L 2.226562 12.308594 C 2.207031 12.304688 2.191406 12.296875 2.175781 12.285156 C 2.027344 12.199219 1.851562 11.96875 1.695312 11.652344 C 1.554688 11.371094 1.488281 11.132812 1.472656 11.050781 C 1.496094 10.941406 1.453125 10.832031 1.363281 10.769531 L 1.359375 10.765625 C 1.355469 10.761719 1.351562 10.757812 1.347656 10.757812 L 1.34375 10.753906 C 1.339844 10.75 1.335938 10.746094 1.332031 10.742188 L 1.328125 10.742188 C 1.148438 10.585938 0.996094 10.402344 0.875 10.199219 C 0.679688 9.867188 0.5625 9.492188 0.542969 9.109375 C 0.472656 8.007812 1.464844 6.996094 1.472656 6.988281 C 1.527344 6.933594 1.554688 6.863281 1.554688 6.785156 C 1.554688 6.777344 1.566406 5.890625 2.460938 5.570312 C 3.105469 5.339844 3.523438 5.359375 3.757812 5.410156 C 3.980469 5.460938 4.082031 5.550781 4.101562 5.570312 C 4.183594 5.675781 4.316406 5.699219 4.4375 5.636719 C 4.441406 5.636719 4.726562 5.5 5.210938 5.429688 C 5.585938 5.375 5.882812 5.714844 5.890625 5.722656 C 5.972656 5.816406 6.105469 5.847656 6.222656 5.796875 C 6.957031 5.46875 7.578125 5.46875 8.015625 5.792969 C 8.453125 6.121094 8.695312 6.785156 8.605469 7.445312 C 8.542969 7.953125 8.296875 8.335938 7.949219 8.472656 C 7.832031 8.519531 7.667969 8.5625 7.480469 8.601562 Z M 9.515625 13.949219 C 9.515625 14.25 9.269531 14.5 8.96875 14.5 L 8.066406 14.5 L 8.066406 10.117188 L 8.96875 10.117188 C 9.269531 10.117188 9.515625 10.363281 9.515625 10.667969 Z M 16.4375 7.351562 C 15.957031 6.996094 14.363281 8.132812 13.8125 9.253906 C 13.242188 8.164062 11.824219 6.9375 11.394531 7.210938 C 10.664062 7.714844 12.261719 11.613281 13.777344 10.59375 C 13.796875 10.578125 13.820312 10.5625 13.839844 10.542969 C 13.886719 10.601562 13.941406 10.652344 14 10.695312 C 15.125 11.550781 17.039062 7.832031 16.4375 7.351562 Z M 16.4375 7.351562 "/>
<path fill-rule="nonzero" fill="rgb(30%,30%,30%)" fill-opacity="1" d="M 13.738281 12.058594 C 13.191406 10.953125 11.722656 9.675781 11.285156 9.957031 C 10.59375 10.429688 11.984375 13.933594 13.417969 13.460938 L 13.351562 16.703125 C 13.347656 16.863281 13.476562 16.992188 13.636719 16.996094 C 13.796875 17 13.925781 16.875 13.933594 16.714844 L 13.996094 13.59375 C 15.328125 14.089844 17.0625 10.652344 16.253906 10.160156 C 15.789062 9.8125 14.324219 10.96875 13.738281 12.058594 Z M 14.085938 0 C 13.925781 -0.00390625 13.792969 0.125 13.789062 0.285156 L 13.757812 1.789062 C 12.953125 2.140625 12.601562 3.929688 12.9375 5.078125 C 12.625 4.777344 12.304688 4.535156 12.035156 4.398438 L 12.066406 2.980469 C 12.066406 2.820312 11.941406 2.6875 11.78125 2.683594 C 11.617188 2.683594 11.484375 2.808594 11.484375 2.96875 L 11.453125 4.386719 C 10.890625 5.058594 12.390625 8.605469 13.839844 7.746094 C 13.921875 7.847656 14.050781 7.914062 14.238281 7.9375 C 15.65625 8.121094 16.476562 5.699219 16.414062 4.882812 L 16.449219 3.238281 C 16.453125 3.078125 16.324219 2.945312 16.164062 2.941406 C 16.003906 2.9375 15.871094 3.066406 15.867188 3.226562 L 15.835938 4.683594 C 15.574219 4.792969 15.273438 5.011719 14.988281 5.285156 C 15.410156 4.214844 15.066406 2.371094 14.339844 1.863281 L 14.371094 0.296875 C 14.375 0.136719 14.246094 0.00390625 14.085938 0 Z M 13.734375 6.035156 C 13.8125 6.054688 13.894531 6.066406 13.976562 6.066406 C 14.109375 6.066406 14.242188 6.042969 14.367188 5.992188 C 14.238281 6.164062 14.121094 6.347656 14.015625 6.539062 C 13.933594 6.363281 13.839844 6.195312 13.734375 6.035156 Z M 13.734375 6.035156 "/>
</g>
</svg>
