<?xml version="1.0" encoding="UTF-8" standalone="no"?>
<!-- Created with Inkscape (http://www.inkscape.org/) -->

<svg
   xmlns:dc="http://purl.org/dc/elements/1.1/"
   xmlns:cc="http://creativecommons.org/ns#"
   xmlns:rdf="http://www.w3.org/1999/02/22-rdf-syntax-ns#"
   xmlns:svg="http://www.w3.org/2000/svg"
   xmlns="http://www.w3.org/2000/svg"
   xmlns:xlink="http://www.w3.org/1999/xlink"
   xmlns:sodipodi="http://sodipodi.sourceforge.net/DTD/sodipodi-0.dtd"
   xmlns:inkscape="http://www.inkscape.org/namespaces/inkscape"
   width="30px"
   height="30px"
   version="1.1"
   id="svg8"
   inkscape:version="0.92.4 5da689c313, 2019-01-14"
   sodipodi:docname="container.svg">
  <defs
     id="defs2" />
  <sodipodi:namedview
     id="base"
     pagecolor="#ffffff"
     bordercolor="#666666"
     borderopacity="1.0"
     inkscape:pageopacity="0.0"
     inkscape:pageshadow="2"
     inkscape:zoom="13.049334"
     inkscape:cx="18.679046"
     inkscape:cy="12.165829"
     inkscape:document-units="px"
     inkscape:current-layer="layer1"
     showgrid="false"
     inkscape:snap-page="false"
     units="px"
     inkscape:window-width="1884"
     inkscape:window-height="1061"
     inkscape:window-x="0"
     inkscape:window-y="0"
     inkscape:window-maximized="1"
     fit-margin-top="0"
     fit-margin-left="0"
     fit-margin-right="0"
     fit-margin-bottom="0" />
  <metadata
     id="metadata5">
    <rdf:RDF>
      <cc:Work
         rdf:about="">
        <dc:format>image/svg+xml</dc:format>
        <dc:type
           rdf:resource="http://purl.org/dc/dcmitype/StillImage" />
        <dc:title></dc:title>
      </cc:Work>
    </rdf:RDF>
  </metadata>
    <circle
       style="color:#000000;clip-rule:nonzero;display:inline;overflow:visible;visibility:visible;opacity:1;isolation:auto;mix-blend-mode:normal;color-interpolation:sRGB;color-interpolation-filters:linearRGB;solid-color:#000000;solid-opacity:1;vector-effect:none;fill:#ffffff;fill-opacity:1;fill-rule:evenodd;stroke:#f25c05;stroke-width:1;stroke-linecap:butt;stroke-linejoin:miter;stroke-miterlimit:4;stroke-dasharray:none;stroke-dashoffset:0;stroke-opacity:1;marker:none;color-rendering:auto;image-rendering:auto;shape-rendering:auto;text-rendering:auto;enable-background:accumulate"
       id="path815"
       cx="15"
       cy="15"
       r="14.5" />
<g transform="translate(6.5,6.5)"><path fill-rule="nonzero" fill="rgb(30%,30%,30%)" fill-opacity="1" d="M 8.003906 8.773438 C 9.597656 8.746094 10.855469 6.757812 10.816406 4.335938 C 10.773438 1.914062 9.449219 -0.0273438 7.859375 0 C 6.265625 0.0273438 5.007812 2.011719 5.046875 4.433594 C 5.085938 6.855469 6.410156 8.796875 8.003906 8.773438 Z M 7.5625 4.316406 C 8.050781 2.285156 7.859375 0.527344 7.886719 0.46875 C 7.910156 0.546875 8.796875 2.265625 8.300781 4.453125 C 7.8125 6.488281 8.003906 8.246094 7.976562 8.304688 C 7.957031 8.222656 7.066406 6.503906 7.5625 4.316406 Z M 7.5625 4.316406 "/>
<path fill-rule="nonzero" fill="rgb(30%,30%,30%)" fill-opacity="1" d="M 16.101562 6.765625 C 14.84375 5.53125 12.300781 6.089844 10.425781 8.011719 C 8.554688 9.929688 8.058594 12.488281 9.324219 13.71875 C 10.585938 14.949219 13.128906 14.394531 15 12.472656 C 16.871094 10.550781 17.367188 7.996094 16.101562 6.765625 Z M 12.945312 10.582031 C 10.96875 11.785156 9.734375 13.308594 9.667969 13.328125 C 9.714844 13.25 10.371094 11.210938 12.480469 9.898438 C 14.457031 8.695312 15.691406 7.175781 15.761719 7.152344 C 15.714844 7.230469 15.054688 9.269531 12.945312 10.582031 Z M 12.945312 10.582031 "/>
<path fill-rule="nonzero" fill="rgb(30%,30%,30%)" fill-opacity="1" d="M 1.714844 6.855469 C -0.0898438 7.671875 -0.542969 10.558594 0.699219 13.300781 C 1.945312 16.042969 4.414062 17.601562 6.21875 16.78125 C 8.019531 15.964844 8.472656 13.078125 7.230469 10.335938 C 5.988281 7.59375 3.519531 6.035156 1.714844 6.855469 Z M 3.511719 11.921875 C 3.0625 9.363281 1.976562 7.453125 1.980469 7.375 C 2.039062 7.453125 3.90625 8.972656 4.417969 11.714844 C 4.867188 14.273438 5.953125 16.183594 5.949219 16.261719 C 5.886719 16.183594 4.023438 14.664062 3.511719 11.921875 Z M 3.511719 11.921875 "/>
</g>
</svg>
