<?xml version="1.0" encoding="UTF-8"?>
<svg xmlns="http://www.w3.org/2000/svg" xmlns:xlink="http://www.w3.org/1999/xlink" width="11" height="10.507857" viewBox="0 0 11 10.507857">
<path fill-rule="nonzero" fill="rgb(30%,30%,30%)" fill-opacity="1" d="M 11 5.167969 C 10.933594 6.160156 10.613281 7.125 10.070312 7.960938 C 10.054688 7.894531 10.039062 7.832031 10.015625 7.769531 C 9.785156 7.09375 8.753906 6.058594 7.8125 5.246094 C 7.546875 5.019531 7.203125 4.960938 7.078125 5.132812 C 6.816406 5.488281 7.78125 6.507812 7.78125 6.507812 C 7.78125 6.507812 6.820312 6 5.980469 5.660156 C 5.199219 5.339844 4.726562 5.105469 4.558594 5.566406 C 4.484375 5.757812 4.785156 5.929688 5.210938 6.152344 C 5.636719 6.371094 6.210938 6.578125 6.429688 6.722656 C 6.515625 6.78125 6.496094 6.964844 6.25 6.875 C 6.082031 6.8125 5.859375 6.722656 5.136719 6.433594 C 4.054688 6.003906 3.496094 5.796875 3.367188 6.183594 C 3.210938 6.65625 4.347656 6.980469 4.757812 7.132812 C 5.496094 7.402344 5.953125 7.621094 6.019531 7.660156 C 6.175781 7.75 6.085938 7.996094 5.867188 7.914062 C 5.671875 7.84375 5.386719 7.722656 5.265625 7.691406 C 4.953125 7.609375 3.644531 6.785156 3.453125 7.304688 C 3.167969 8.070312 5.921875 8.429688 5.761719 8.867188 C 5.644531 9.191406 4.65625 8.535156 4.171875 8.46875 C 4.039062 8.449219 3.96875 8.503906 3.9375 8.597656 C 3.785156 9.007812 5.511719 9.800781 6.5625 10.066406 C 6.789062 10.121094 7.019531 10.167969 7.242188 10.203125 C 6.675781 10.40625 6.074219 10.511719 5.472656 10.507812 C 2.5 10.492188 0.21875 8.203125 0 5.15625 C -0.0117188 4.960938 0.125 4.792969 0.300781 4.792969 L 10.691406 4.792969 C 10.867188 4.792969 11.011719 4.964844 11 5.167969 Z M 5.96875 4.050781 L 5.96875 0.394531 C 5.96875 0.175781 5.789062 0 5.574219 0 L 5.460938 0 C 5.242188 0 5.066406 0.175781 5.066406 0.394531 L 5.066406 4.050781 C 5.066406 4.265625 5.242188 4.445312 5.460938 4.445312 L 5.574219 4.445312 C 5.789062 4.445312 5.96875 4.265625 5.96875 4.050781 Z M 5.96875 4.050781 "/>
</svg>
