<?xml version="1.0" encoding="UTF-8"?>
<svg xmlns="http://www.w3.org/2000/svg" xmlns:xlink="http://www.w3.org/1999/xlink" width="6.721627" height="11" viewBox="0 0 6.721627 11">
<path fill-rule="nonzero" fill="rgb(30%,30%,30%)" fill-opacity="1" d="M 5.703125 1.714844 L 0.996094 1.707031 L 0.984375 9.253906 L 5.691406 9.261719 Z M 3.292969 6.804688 L 1.78125 5.292969 L 3.292969 3.792969 L 4.804688 5.304688 Z M 3.292969 6.804688 "/>
<path fill-rule="nonzero" fill="rgb(30%,30%,30%)" fill-opacity="1" d="M 6.722656 10.242188 L 6.722656 0.144531 C 6.722656 0.140625 6.71875 0.136719 6.71875 0.128906 C 6.714844 0.0507812 6.671875 0 6.617188 0 L 6.609375 0 C 6.554688 0 6.511719 0.0507812 6.511719 0.128906 L 6.523438 0.65625 L 6.113281 0.65625 L 6.105469 0.148438 C 6.105469 0.0742188 6.058594 0.0078125 6.007812 0.0117188 L 6.003906 0.0117188 C 5.949219 0.0117188 5.910156 0.078125 5.910156 0.152344 L 5.910156 0.65625 L 5.578125 0.65625 L 5.570312 0.152344 C 5.566406 0.078125 5.523438 0.0078125 5.46875 0.0117188 L 5.464844 0.0117188 C 5.414062 0.0117188 5.371094 0.0820312 5.371094 0.15625 L 5.375 0.65625 L 5.039062 0.65625 L 5.03125 0.15625 C 5.03125 0.0820312 4.984375 0.0078125 4.929688 0.0117188 C 4.875 0.0117188 4.835938 0.0859375 4.835938 0.160156 L 4.835938 0.65625 L 4.503906 0.65625 L 4.496094 0.160156 C 4.492188 0.0859375 4.449219 0.0078125 4.394531 0.0117188 L 4.390625 0.0117188 C 4.339844 0.0117188 4.296875 0.0898438 4.296875 0.164062 L 4.300781 0.65625 L 3.964844 0.65625 L 3.957031 0.164062 C 3.957031 0.0859375 3.910156 0.0078125 3.855469 0.0117188 C 3.800781 0.0117188 3.757812 0.09375 3.761719 0.167969 L 3.761719 0.65625 L 3.429688 0.65625 L 3.421875 0.167969 C 3.417969 0.0898438 3.375 0.0078125 3.320312 0.0117188 L 3.316406 0.0117188 C 3.265625 0.0117188 3.222656 0.0976562 3.222656 0.171875 L 3.226562 0.65625 L 2.890625 0.65625 L 2.882812 0.171875 C 2.882812 0.09375 2.835938 0.0078125 2.78125 0.0117188 C 2.726562 0.0117188 2.683594 0.101562 2.6875 0.175781 L 2.6875 0.65625 L 2.355469 0.65625 L 2.34375 0.175781 C 2.34375 0.0976562 2.300781 0.0078125 2.246094 0.0117188 L 2.242188 0.0117188 C 2.191406 0.0117188 2.148438 0.101562 2.148438 0.179688 L 2.152344 0.65625 L 1.816406 0.65625 L 1.808594 0.179688 C 1.808594 0.101562 1.761719 0.0078125 1.707031 0.0117188 C 1.652344 0.0117188 1.609375 0.105469 1.613281 0.183594 L 1.613281 0.65625 L 1.28125 0.65625 L 1.269531 0.183594 C 1.269531 0.105469 1.226562 0.0078125 1.171875 0.0117188 L 1.167969 0.0117188 C 1.117188 0.0117188 1.074219 0.109375 1.074219 0.1875 L 1.078125 0.65625 L 0.742188 0.65625 L 0.734375 0.1875 C 0.734375 0.109375 0.6875 0.0078125 0.632812 0.0117188 C 0.578125 0.0117188 0.535156 0.113281 0.539062 0.191406 L 0.539062 0.65625 L 0.207031 0.65625 L 0.195312 0.191406 C 0.195312 0.113281 0.152344 0.0078125 0.0976562 0.0117188 L 0.09375 0.0117188 C 0.0429688 0.0117188 0 0.117188 0 0.195312 L 0 10.867188 C 0 10.875 0 10.878906 0.00390625 10.886719 C 0.0117188 10.957031 0.0546875 11 0.105469 11 L 0.113281 11 C 0.167969 11 0.210938 10.949219 0.207031 10.871094 L 0.199219 10.296875 L 0.605469 10.292969 L 0.609375 10.867188 C 0.609375 10.945312 0.652344 10.996094 0.707031 10.992188 L 0.71875 10.992188 C 0.773438 10.992188 0.8125 10.941406 0.8125 10.867188 L 0.800781 10.292969 L 1.140625 10.292969 L 1.144531 10.867188 C 1.144531 10.945312 1.191406 10.996094 1.246094 10.992188 L 1.253906 10.992188 C 1.308594 10.992188 1.351562 10.941406 1.351562 10.867188 L 1.339844 10.292969 L 1.679688 10.292969 L 1.683594 10.867188 C 1.683594 10.945312 1.726562 10.996094 1.78125 10.992188 L 1.792969 10.992188 C 1.847656 10.992188 1.886719 10.941406 1.886719 10.867188 L 1.875 10.292969 L 2.214844 10.292969 L 2.21875 10.867188 C 2.21875 10.945312 2.265625 10.996094 2.320312 10.992188 L 2.328125 10.992188 C 2.382812 10.992188 2.425781 10.941406 2.425781 10.867188 L 2.414062 10.292969 L 2.753906 10.292969 L 2.757812 10.867188 C 2.757812 10.945312 2.800781 10.996094 2.855469 10.992188 L 2.867188 10.992188 C 2.921875 10.992188 2.960938 10.941406 2.960938 10.867188 L 2.949219 10.292969 L 3.289062 10.292969 L 3.292969 10.867188 C 3.292969 10.945312 3.339844 10.996094 3.394531 10.992188 L 3.402344 10.992188 C 3.457031 10.992188 3.5 10.941406 3.5 10.867188 L 3.488281 10.292969 L 3.828125 10.292969 L 3.832031 10.867188 C 3.832031 10.945312 3.878906 10.996094 3.929688 10.992188 L 3.941406 10.992188 C 3.996094 10.992188 4.035156 10.941406 4.035156 10.867188 L 4.023438 10.292969 L 4.363281 10.292969 L 4.367188 10.867188 C 4.371094 10.945312 4.414062 10.996094 4.46875 10.992188 L 4.476562 10.992188 C 4.53125 10.992188 4.574219 10.941406 4.574219 10.867188 L 4.5625 10.292969 L 4.902344 10.292969 L 4.90625 10.867188 C 4.90625 10.945312 4.953125 10.996094 5.003906 10.992188 L 5.015625 10.992188 C 5.070312 10.992188 5.113281 10.941406 5.109375 10.867188 L 5.101562 10.292969 L 5.441406 10.292969 L 5.441406 10.867188 C 5.445312 10.945312 5.488281 10.996094 5.542969 10.992188 L 5.550781 10.992188 C 5.605469 10.992188 5.648438 10.941406 5.648438 10.867188 L 5.636719 10.292969 L 5.976562 10.292969 L 5.980469 10.867188 C 5.980469 10.945312 6.027344 10.996094 6.078125 10.992188 L 6.089844 10.992188 C 6.144531 10.992188 6.1875 10.941406 6.183594 10.867188 L 6.175781 10.292969 L 6.515625 10.292969 L 6.515625 10.867188 C 6.519531 10.945312 6.5625 10.996094 6.617188 10.992188 L 6.625 10.992188 C 6.679688 10.992188 6.722656 10.941406 6.722656 10.867188 L 6.722656 10.257812 C 6.722656 10.253906 6.722656 10.25 6.722656 10.242188 Z M 5.972656 9.542969 L 0.703125 9.535156 L 0.714844 1.425781 L 5.984375 1.433594 Z M 5.972656 9.542969 "/>
</svg>
