<?xml version="1.0" encoding="UTF-8" standalone="no"?>
<!-- Created with Inkscape (http://www.inkscape.org/) -->

<svg
   xmlns:dc="http://purl.org/dc/elements/1.1/"
   xmlns:cc="http://creativecommons.org/ns#"
   xmlns:rdf="http://www.w3.org/1999/02/22-rdf-syntax-ns#"
   xmlns:svg="http://www.w3.org/2000/svg"
   xmlns="http://www.w3.org/2000/svg"
   xmlns:xlink="http://www.w3.org/1999/xlink"
   xmlns:sodipodi="http://sodipodi.sourceforge.net/DTD/sodipodi-0.dtd"
   xmlns:inkscape="http://www.inkscape.org/namespaces/inkscape"
   width="30px"
   height="30px"
   version="1.1"
   id="svg8"
   inkscape:version="0.92.4 5da689c313, 2019-01-14"
   sodipodi:docname="container.svg">
  <defs
     id="defs2" />
  <sodipodi:namedview
     id="base"
     pagecolor="#ffffff"
     bordercolor="#666666"
     borderopacity="1.0"
     inkscape:pageopacity="0.0"
     inkscape:pageshadow="2"
     inkscape:zoom="13.049334"
     inkscape:cx="18.679046"
     inkscape:cy="12.165829"
     inkscape:document-units="px"
     inkscape:current-layer="layer1"
     showgrid="false"
     inkscape:snap-page="false"
     units="px"
     inkscape:window-width="1884"
     inkscape:window-height="1061"
     inkscape:window-x="0"
     inkscape:window-y="0"
     inkscape:window-maximized="1"
     fit-margin-top="0"
     fit-margin-left="0"
     fit-margin-right="0"
     fit-margin-bottom="0" />
  <metadata
     id="metadata5">
    <rdf:RDF>
      <cc:Work
         rdf:about="">
        <dc:format>image/svg+xml</dc:format>
        <dc:type
           rdf:resource="http://purl.org/dc/dcmitype/StillImage" />
        <dc:title></dc:title>
      </cc:Work>
    </rdf:RDF>
  </metadata>
    <circle
       style="color:#000000;clip-rule:nonzero;display:inline;overflow:visible;visibility:visible;opacity:1;isolation:auto;mix-blend-mode:normal;color-interpolation:sRGB;color-interpolation-filters:linearRGB;solid-color:#000000;solid-opacity:1;vector-effect:none;fill:#f25c05;fill-opacity:1;fill-rule:evenodd;stroke:#ffffff;stroke-width:1;stroke-linecap:butt;stroke-linejoin:miter;stroke-miterlimit:4;stroke-dasharray:none;stroke-dashoffset:0;stroke-opacity:1;marker:none;color-rendering:auto;image-rendering:auto;shape-rendering:auto;text-rendering:auto;enable-background:accumulate"
       id="path815"
       cx="15"
       cy="15"
       r="14.5" />
<g transform="translate(9.0,6.5)"><path fill-rule="nonzero" fill="#FFFFFF" fill-opacity="1" d="M 8.949219 4.023438 L 2.648438 4.023438 C 2.460938 4.023438 2.308594 3.871094 2.308594 3.683594 L 2.308594 3.59375 C 2.308594 3.40625 2.460938 3.253906 2.648438 3.253906 L 8.949219 3.253906 C 9.136719 3.253906 9.285156 3.40625 9.285156 3.59375 L 9.285156 3.683594 C 9.285156 3.871094 9.136719 4.023438 8.949219 4.023438 Z M 8.949219 4.023438 "/>
<path fill-rule="nonzero" fill="#FFFFFF" fill-opacity="1" d="M 9.882812 5.195312 L 1.808594 5.195312 C 1.597656 5.195312 1.429688 5.027344 1.429688 4.816406 L 1.429688 4.808594 C 1.429688 4.597656 1.597656 4.429688 1.808594 4.429688 L 9.882812 4.429688 C 10.09375 4.429688 10.261719 4.597656 10.261719 4.808594 L 10.261719 4.816406 C 10.261719 5.027344 10.09375 5.195312 9.882812 5.195312 Z M 9.882812 5.195312 "/>
<path fill-rule="nonzero" fill="#FFFFFF" fill-opacity="1" d="M 10.34375 6.398438 L 1.3125 6.398438 C 1.101562 6.394531 0.929688 6.226562 0.929688 6.011719 C 0.929688 5.800781 1.101562 5.628906 1.3125 5.628906 L 10.34375 5.628906 C 10.554688 5.628906 10.726562 5.800781 10.726562 6.011719 C 10.726562 6.226562 10.554688 6.394531 10.34375 6.398438 Z M 10.34375 6.398438 "/>
<path fill-rule="nonzero" fill="#FFFFFF" fill-opacity="1" d="M 10.328125 13.445312 L 1.292969 13.445312 C 1.082031 13.445312 0.910156 13.273438 0.910156 13.0625 C 0.910156 12.851562 1.082031 12.679688 1.292969 12.679688 L 10.328125 12.679688 C 10.539062 12.679688 10.710938 12.851562 10.710938 13.0625 C 10.710938 13.273438 10.539062 13.445312 10.328125 13.445312 Z M 10.328125 13.445312 "/>
<path fill-rule="nonzero" fill="#FFFFFF" fill-opacity="1" d="M 9.875 14.644531 L 1.796875 14.644531 C 1.585938 14.644531 1.417969 14.476562 1.417969 14.265625 L 1.417969 14.257812 C 1.417969 14.046875 1.585938 13.878906 1.796875 13.878906 L 9.875 13.878906 C 10.082031 13.878906 10.253906 14.046875 10.253906 14.257812 L 10.253906 14.265625 C 10.253906 14.476562 10.082031 14.644531 9.875 14.644531 Z M 9.875 14.644531 "/>
<path fill-rule="nonzero" fill="#FFFFFF" fill-opacity="1" d="M 8.949219 15.820312 L 2.648438 15.820312 C 2.460938 15.820312 2.308594 15.667969 2.308594 15.484375 L 2.308594 15.390625 C 2.308594 15.203125 2.460938 15.054688 2.648438 15.054688 L 8.949219 15.054688 C 9.136719 15.054688 9.285156 15.203125 9.285156 15.390625 L 9.285156 15.484375 C 9.285156 15.667969 9.136719 15.820312 8.949219 15.820312 Z M 8.949219 15.820312 "/>
<path fill-rule="nonzero" fill="#FFFFFF" fill-opacity="1" d="M 8.355469 17 L 3.308594 17 C 3.140625 17 3.007812 16.863281 3.003906 16.695312 L 3.003906 16.535156 C 3.007812 16.367188 3.140625 16.234375 3.308594 16.230469 L 8.355469 16.230469 C 8.523438 16.234375 8.65625 16.367188 8.65625 16.535156 L 8.65625 16.695312 C 8.65625 16.863281 8.523438 17 8.355469 17 Z M 8.355469 17 "/>
<path fill-rule="nonzero" fill="#FFFFFF" fill-opacity="1" d="M 8.355469 2.953125 L 3.308594 2.953125 C 3.140625 2.953125 3.007812 2.816406 3.003906 2.648438 C 3.078125 1.820312 5.472656 2.109375 5.5625 0.390625 L 5.59375 0.191406 C 5.609375 0.0820312 5.707031 0 5.816406 0 C 5.929688 0 6.027344 0.0820312 6.042969 0.195312 L 6.0625 0.355469 C 6.035156 2.066406 8.65625 1.800781 8.65625 2.648438 C 8.65625 2.816406 8.523438 2.953125 8.355469 2.953125 Z M 8.355469 2.953125 "/>
<path fill-rule="nonzero" fill="#FFFFFF" fill-opacity="1" d="M 0.875 7.574219 L 10.789062 7.574219 C 11 7.574219 11.171875 7.402344 11.171875 7.191406 C 11.171875 6.976562 11 6.804688 10.789062 6.804688 L 0.875 6.804688 C 0.660156 6.804688 0.488281 6.976562 0.488281 7.191406 C 0.488281 7.402344 0.660156 7.574219 0.875 7.574219 Z M 0.875 7.574219 "/>
<path fill-rule="nonzero" fill="#FFFFFF" fill-opacity="1" d="M 2.628906 7.976562 C 2.980469 7.976562 3.292969 8.265625 3.503906 8.71875 L 11.085938 8.71875 C 11.296875 8.71875 11.46875 8.546875 11.46875 8.332031 C 11.46875 8.121094 11.296875 7.949219 11.085938 7.949219 L 0.601562 7.949219 C 0.390625 7.949219 0.21875 8.121094 0.21875 8.332031 C 0.21875 8.546875 0.390625 8.71875 0.601562 8.71875 L 1.753906 8.71875 C 1.964844 8.265625 2.28125 7.976562 2.628906 7.976562 Z M 2.628906 7.976562 "/>
<path fill-rule="nonzero" fill="#FFFFFF" fill-opacity="1" d="M 0.382812 9.125 C 0.171875 9.125 0 9.296875 0 9.507812 C 0 9.71875 0.171875 9.890625 0.382812 9.890625 L 1.488281 9.890625 C 1.5 9.632812 1.539062 9.375 1.605469 9.125 Z M 0.382812 9.125 "/>
<path fill-rule="nonzero" fill="#FFFFFF" fill-opacity="1" d="M 11.628906 9.507812 C 11.628906 9.296875 11.457031 9.125 11.246094 9.125 L 3.652344 9.125 C 3.722656 9.375 3.761719 9.632812 3.769531 9.890625 L 11.242188 9.890625 C 11.457031 9.890625 11.628906 9.71875 11.628906 9.507812 Z M 11.628906 9.507812 "/>
<path fill-rule="nonzero" fill="#FFFFFF" fill-opacity="1" d="M 11.082031 11.09375 C 11.296875 11.09375 11.46875 10.921875 11.46875 10.707031 C 11.46875 10.496094 11.296875 10.324219 11.082031 10.324219 L 3.765625 10.324219 C 3.75 10.585938 3.703125 10.84375 3.628906 11.09375 Z M 11.082031 11.09375 "/>
<path fill-rule="nonzero" fill="#FFFFFF" fill-opacity="1" d="M 0.550781 10.324219 C 0.339844 10.324219 0.167969 10.496094 0.167969 10.707031 C 0.167969 10.921875 0.339844 11.09375 0.550781 11.09375 L 1.628906 11.09375 C 1.554688 10.84375 1.507812 10.585938 1.492188 10.324219 Z M 0.550781 10.324219 "/>
<path fill-rule="nonzero" fill="#FFFFFF" fill-opacity="1" d="M 2.628906 12.164062 C 2.300781 12.164062 2.003906 11.910156 1.792969 11.5 L 0.808594 11.5 C 0.597656 11.5 0.425781 11.671875 0.425781 11.886719 C 0.425781 12.097656 0.597656 12.269531 0.808594 12.269531 L 10.785156 12.269531 C 11 12.269531 11.171875 12.097656 11.171875 11.886719 C 11.171875 11.671875 11 11.5 10.785156 11.5 L 3.464844 11.5 C 3.257812 11.90625 2.960938 12.164062 2.628906 12.164062 Z M 2.628906 12.164062 "/>
</g>
</svg>
