<?xml version="1.0" encoding="UTF-8"?>
<svg xmlns="http://www.w3.org/2000/svg" xmlns:xlink="http://www.w3.org/1999/xlink" width="10.87289" height="11" viewBox="0 0 10.87289 11">
<path fill-rule="nonzero" fill="rgb(30%,30%,30%)" fill-opacity="1" d="M 5.179688 5.675781 C 6.210938 5.65625 7.023438 4.375 7 2.804688 C 6.972656 1.238281 6.113281 -0.0195312 5.085938 0 C 4.054688 0.015625 3.238281 1.300781 3.265625 2.871094 C 3.292969 4.4375 4.148438 5.691406 5.179688 5.675781 Z M 4.894531 2.792969 C 5.207031 1.476562 5.085938 0.339844 5.105469 0.304688 C 5.117188 0.355469 5.691406 1.46875 5.371094 2.882812 C 5.054688 4.199219 5.179688 5.335938 5.160156 5.375 C 5.148438 5.320312 4.570312 4.210938 4.894531 2.792969 Z M 4.894531 2.792969 "/>
<path fill-rule="nonzero" fill="rgb(30%,30%,30%)" fill-opacity="1" d="M 10.417969 4.378906 C 9.605469 3.578125 7.957031 3.941406 6.746094 5.183594 C 5.535156 6.425781 5.214844 8.078125 6.03125 8.875 C 6.847656 9.675781 8.496094 9.3125 9.707031 8.070312 C 10.917969 6.828125 11.238281 5.171875 10.417969 4.378906 Z M 8.375 6.847656 C 7.097656 7.625 6.296875 8.609375 6.253906 8.625 C 6.285156 8.574219 6.710938 7.253906 8.074219 6.40625 C 9.355469 5.625 10.152344 4.644531 10.199219 4.628906 C 10.167969 4.679688 9.742188 6 8.375 6.847656 Z M 8.375 6.847656 "/>
<path fill-rule="nonzero" fill="rgb(30%,30%,30%)" fill-opacity="1" d="M 1.109375 4.433594 C -0.0585938 4.964844 -0.351562 6.832031 0.453125 8.605469 C 1.257812 10.378906 2.855469 11.386719 4.023438 10.859375 C 5.191406 10.328125 5.484375 8.464844 4.679688 6.6875 C 3.875 4.914062 2.277344 3.90625 1.109375 4.433594 Z M 2.273438 7.714844 C 1.980469 6.058594 1.277344 4.824219 1.28125 4.769531 C 1.320312 4.820312 2.527344 5.804688 2.859375 7.578125 C 3.148438 9.234375 3.851562 10.472656 3.851562 10.523438 C 3.808594 10.472656 2.601562 9.488281 2.273438 7.714844 Z M 2.273438 7.714844 "/>
</svg>
