<?xml version="1.0" encoding="UTF-8" standalone="no"?>
<!-- Created with Inkscape (http://www.inkscape.org/) -->

<svg
   xmlns:dc="http://purl.org/dc/elements/1.1/"
   xmlns:cc="http://creativecommons.org/ns#"
   xmlns:rdf="http://www.w3.org/1999/02/22-rdf-syntax-ns#"
   xmlns:svg="http://www.w3.org/2000/svg"
   xmlns="http://www.w3.org/2000/svg"
   xmlns:xlink="http://www.w3.org/1999/xlink"
   xmlns:sodipodi="http://sodipodi.sourceforge.net/DTD/sodipodi-0.dtd"
   xmlns:inkscape="http://www.inkscape.org/namespaces/inkscape"
   width="30px"
   height="30px"
   version="1.1"
   id="svg8"
   inkscape:version="0.92.4 5da689c313, 2019-01-14"
   sodipodi:docname="container.svg">
  <defs
     id="defs2" />
  <sodipodi:namedview
     id="base"
     pagecolor="#ffffff"
     bordercolor="#666666"
     borderopacity="1.0"
     inkscape:pageopacity="0.0"
     inkscape:pageshadow="2"
     inkscape:zoom="13.049334"
     inkscape:cx="18.679046"
     inkscape:cy="12.165829"
     inkscape:document-units="px"
     inkscape:current-layer="layer1"
     showgrid="false"
     inkscape:snap-page="false"
     units="px"
     inkscape:window-width="1884"
     inkscape:window-height="1061"
     inkscape:window-x="0"
     inkscape:window-y="0"
     inkscape:window-maximized="1"
     fit-margin-top="0"
     fit-margin-left="0"
     fit-margin-right="0"
     fit-margin-bottom="0" />
  <metadata
     id="metadata5">
    <rdf:RDF>
      <cc:Work
         rdf:about="">
        <dc:format>image/svg+xml</dc:format>
        <dc:type
           rdf:resource="http://purl.org/dc/dcmitype/StillImage" />
        <dc:title></dc:title>
      </cc:Work>
    </rdf:RDF>
  </metadata>
    <circle
       style="color:#000000;clip-rule:nonzero;display:inline;overflow:visible;visibility:visible;opacity:1;isolation:auto;mix-blend-mode:normal;color-interpolation:sRGB;color-interpolation-filters:linearRGB;solid-color:#000000;solid-opacity:1;vector-effect:none;fill:#ffffff;fill-opacity:1;fill-rule:evenodd;stroke:#f25c05;stroke-width:1;stroke-linecap:butt;stroke-linejoin:miter;stroke-miterlimit:4;stroke-dasharray:none;stroke-dashoffset:0;stroke-opacity:1;marker:none;color-rendering:auto;image-rendering:auto;shape-rendering:auto;text-rendering:auto;enable-background:accumulate"
       id="path815"
       cx="15"
       cy="15"
       r="14.5" />
<g transform="translate(7.5,6.5)"><path fill-rule="nonzero" fill="rgb(30%,30%,30%)" fill-opacity="1" d="M 14.195312 4.714844 L 10.714844 4.714844 C 10.84375 5.65625 10.929688 6.59375 10.929688 7.429688 L 10.929688 7.609375 C 11.265625 7.714844 11.472656 8.050781 11.421875 8.398438 C 11.367188 8.746094 11.066406 9.003906 10.714844 9.003906 C 10.363281 9.003906 10.0625 8.746094 10.007812 8.398438 C 9.953125 8.050781 10.164062 7.714844 10.5 7.609375 L 10.5 7.429688 C 10.5 6.597656 10.414062 5.65625 10.285156 4.714844 L 7.5 4.714844 L 7.5 12.144531 L 10.179688 12.144531 C 10.296875 11.085938 10.398438 10.003906 10.453125 8.996094 L 10.878906 9.019531 C 10.824219 10.019531 10.726562 11.09375 10.613281 12.144531 L 14.238281 12.144531 C 14.457031 10.980469 14.570312 9.730469 14.570312 8.429688 C 14.574219 7.179688 14.445312 5.9375 14.195312 4.714844 Z M 14.195312 4.714844 "/>
<path fill-rule="nonzero" fill="rgb(30%,30%,30%)" fill-opacity="1" d="M 7.070312 4.714844 L 4 4.714844 C 3.785156 7.066406 3.804688 9.699219 4.054688 12.144531 L 7.070312 12.144531 Z M 7.070312 4.714844 "/>
<path fill-rule="nonzero" fill="rgb(30%,30%,30%)" fill-opacity="1" d="M 3.582031 4.714844 L 0.375 4.714844 C 0.125 5.9375 0 7.179688 0 8.429688 C 0 9.730469 0.0742188 10.980469 0.242188 12.144531 L 3.632812 12.144531 C 3.386719 9.703125 3.371094 7.074219 3.582031 4.714844 Z M 3.582031 4.714844 "/>
<path fill-rule="nonzero" fill="rgb(30%,30%,30%)" fill-opacity="1" d="M 0.390625 13 C 0.703125 14.566406 1.214844 15.941406 2 17 L 4.539062 17 C 4.179688 15.824219 3.910156 14.457031 3.726562 13 Z M 0.390625 13 "/>
<path fill-rule="nonzero" fill="rgb(30%,30%,30%)" fill-opacity="1" d="M 7.5 13 L 7.5 17 L 9.519531 17 C 9.664062 16.085938 9.882812 14.617188 10.082031 13 Z M 7.5 13 "/>
<path fill-rule="nonzero" fill="rgb(30%,30%,30%)" fill-opacity="1" d="M 12.285156 17 C 13.070312 15.941406 13.664062 14.566406 14.050781 13 L 10.511719 13 C 10.320312 14.605469 10.097656 16.070312 9.953125 17 Z M 12.285156 17 "/>
<path fill-rule="nonzero" fill="rgb(30%,30%,30%)" fill-opacity="1" d="M 4.152344 13 C 4.339844 14.464844 4.617188 15.832031 4.984375 17 L 7.070312 17 L 7.070312 13 Z M 4.152344 13 "/>
<path fill-rule="nonzero" fill="rgb(30%,30%,30%)" fill-opacity="1" d="M 13.992188 3.855469 C 13.605469 2.394531 13.042969 1.085938 12.34375 0 L 9.796875 0 C 10.03125 0.953125 10.347656 2.371094 10.585938 3.855469 Z M 13.992188 3.855469 "/>
<path fill-rule="nonzero" fill="rgb(30%,30%,30%)" fill-opacity="1" d="M 10.152344 3.855469 C 9.910156 2.359375 9.585938 0.933594 9.359375 0 L 7.5 0 L 7.5 3.855469 Z M 10.152344 3.855469 "/>
<path fill-rule="nonzero" fill="rgb(30%,30%,30%)" fill-opacity="1" d="M 7.070312 3.855469 L 7.070312 0 L 4.890625 0 C 4.53125 1.058594 4.261719 2.386719 4.089844 3.855469 Z M 7.070312 3.855469 "/>
<path fill-rule="nonzero" fill="rgb(30%,30%,30%)" fill-opacity="1" d="M 2.230469 0 C 1.527344 1.085938 0.964844 2.394531 0.578125 3.855469 L 3.667969 3.855469 C 3.839844 2.398438 4.097656 1.074219 4.445312 0 Z M 2.230469 0 "/>
<path fill-rule="nonzero" fill="rgb(30%,30%,30%)" fill-opacity="1" stroke-width="15" stroke-linecap="butt" stroke-linejoin="miter" stroke="rgb(100%, 100%, 100%)" stroke-opacity="1" stroke-miterlimit="10" d="M 598.212891 434.150391 C 598.212891 454.863281 581.396484 471.474609 560.683594 471.474609 C 539.970703 471.474609 523.154297 454.863281 523.154297 434.150391 C 523.154297 413.4375 539.970703 396.621094 560.683594 396.621094 C 581.396484 396.621094 598.212891 413.4375 598.212891 434.150391 Z M 598.212891 434.150391 " transform="matrix(0.0190476, 0, 0, 0.0190476, 0, 0)"/>
</g>
</svg>
