<?xml version="1.0" encoding="UTF-8"?>
<svg xmlns="http://www.w3.org/2000/svg" xmlns:xlink="http://www.w3.org/1999/xlink" width="10.847001" height="11" viewBox="0 0 10.847001 11">
<path fill-rule="nonzero" fill="rgb(30%,30%,30%)" fill-opacity="1" d="M 9.335938 1.726562 C 8.289062 0.609375 6.84375 -0.0117188 5.347656 0 C 3.871094 0.0195312 2.4375 0.683594 1.421875 1.816406 C 0.421875 2.929688 -0.0859375 4.402344 0.0117188 5.878906 C 0.0117188 5.882812 0.0117188 5.882812 0.0117188 5.882812 C 0.0351562 6.75 1.296875 10.460938 1.4375 10.957031 C 1.445312 10.980469 1.46875 11 1.496094 11 L 9.261719 11 C 9.289062 11 9.3125 10.984375 9.320312 10.957031 C 9.464844 10.480469 10.804688 6.652344 10.839844 5.996094 C 10.917969 4.503906 10.359375 2.816406 9.335938 1.726562 Z M 9.921875 5.855469 L 9.550781 5.855469 C 9.53125 5.855469 9.511719 5.84375 9.5 5.828125 C 9.488281 5.808594 9.484375 5.789062 9.492188 5.769531 C 9.554688 5.628906 9.597656 5.503906 9.609375 5.429688 C 9.644531 5.214844 9.699219 4.625 9.324219 4.214844 C 8.996094 3.855469 8.472656 3.695312 8.203125 3.65625 C 8.113281 3.644531 7.976562 3.582031 7.933594 3.5 C 7.929688 3.5 7.929688 3.496094 7.925781 3.492188 C 8.167969 3.261719 8.695312 2.746094 8.734375 2.609375 C 8.757812 2.539062 8.6875 2.484375 8.609375 2.429688 C 8.324219 2.234375 8.289062 2.214844 8.246094 2.597656 C 8.234375 2.699219 8.199219 2.800781 8.164062 2.859375 C 8.078125 3 8 3.148438 7.929688 3.300781 C 7.917969 3.320312 7.898438 3.335938 7.875 3.335938 C 7.855469 3.335938 7.832031 3.324219 7.820312 3.304688 C 7.71875 3.144531 7.578125 2.992188 7.378906 3.019531 C 7.109375 3.054688 5.414062 3.554688 5.484375 4.839844 C 5.507812 5.214844 5.683594 5.511719 5.925781 5.742188 C 5.941406 5.761719 5.949219 5.785156 5.941406 5.8125 C 5.929688 5.835938 5.90625 5.851562 5.882812 5.847656 L 5.398438 5.847656 C 5.382812 5.847656 5.367188 5.84375 5.355469 5.828125 C 5.34375 5.816406 5.335938 5.800781 5.335938 5.785156 C 5.34375 5.476562 5.28125 5.167969 5.109375 4.894531 C 4.84375 4.464844 4.222656 4.203125 4.164062 4.144531 C 4.105469 4.085938 4.046875 3.777344 3.980469 3.613281 C 3.972656 3.589844 3.953125 3.574219 3.929688 3.574219 C 3.90625 3.570312 3.882812 3.582031 3.871094 3.601562 C 3.722656 3.84375 3.265625 4.507812 2.285156 4.972656 C 2.152344 5.039062 1.894531 5.15625 1.621094 5.164062 C 1.5625 5.164062 1.496094 5.15625 1.441406 5.125 C 1.332031 5.054688 1.289062 5.019531 1.265625 4.9375 C 1.453125 5.195312 2.164062 5.011719 2.855469 4.523438 C 3.554688 4.035156 3.96875 3.425781 3.78125 3.160156 C 3.597656 2.898438 2.882812 3.082031 2.1875 3.570312 C 1.933594 3.75 1.699219 3.957031 1.503906 4.199219 C 1.371094 4.367188 1.230469 4.570312 1.21875 4.792969 C 1.210938 4.949219 1.269531 5.070312 1.386719 5.175781 C 1.539062 5.316406 1.816406 5.285156 1.828125 5.566406 C 1.828125 5.667969 1.839844 5.757812 1.847656 5.84375 L 0.929688 5.839844 C 0.898438 5.839844 0.867188 5.816406 0.867188 5.78125 C 0.796875 4.550781 1.226562 3.324219 2.058594 2.390625 C 2.917969 1.433594 4.121094 0.875 5.359375 0.859375 C 6.605469 0.84375 7.828125 1.375 8.710938 2.316406 C 9.535156 3.195312 9.992188 4.570312 9.988281 5.792969 C 9.984375 5.828125 9.957031 5.855469 9.921875 5.855469 Z M 9.921875 5.855469 "/>
</svg>
