<?xml version="1.0" encoding="UTF-8"?>
<svg xmlns="http://www.w3.org/2000/svg" xmlns:xlink="http://www.w3.org/1999/xlink" width="7.525311" height="11" viewBox="0 0 7.525311 11">
<path fill-rule="nonzero" fill="rgb(30%,30%,30%)" fill-opacity="1" d="M 5.789062 2.601562 L 1.710938 2.601562 C 1.59375 2.601562 1.496094 2.503906 1.496094 2.382812 L 1.496094 2.324219 C 1.496094 2.203125 1.59375 2.105469 1.710938 2.105469 L 5.789062 2.105469 C 5.910156 2.105469 6.007812 2.203125 6.007812 2.324219 L 6.007812 2.382812 C 6.007812 2.503906 5.910156 2.601562 5.789062 2.601562 Z M 5.789062 2.601562 "/>
<path fill-rule="nonzero" fill="rgb(30%,30%,30%)" fill-opacity="1" d="M 6.394531 3.363281 L 1.167969 3.363281 C 1.035156 3.363281 0.925781 3.253906 0.925781 3.117188 L 0.925781 3.113281 C 0.925781 2.976562 1.035156 2.867188 1.167969 2.867188 L 6.394531 2.867188 C 6.53125 2.867188 6.640625 2.976562 6.640625 3.113281 L 6.640625 3.117188 C 6.640625 3.253906 6.53125 3.363281 6.394531 3.363281 Z M 6.394531 3.363281 "/>
<path fill-rule="nonzero" fill="rgb(30%,30%,30%)" fill-opacity="1" d="M 6.691406 4.140625 L 0.851562 4.140625 C 0.714844 4.140625 0.601562 4.027344 0.601562 3.890625 C 0.601562 3.753906 0.714844 3.644531 0.851562 3.640625 L 6.691406 3.640625 C 6.828125 3.644531 6.941406 3.753906 6.941406 3.890625 C 6.941406 4.027344 6.828125 4.140625 6.691406 4.140625 Z M 6.691406 4.140625 "/>
<path fill-rule="nonzero" fill="rgb(30%,30%,30%)" fill-opacity="1" d="M 6.683594 8.699219 L 0.835938 8.699219 C 0.699219 8.699219 0.589844 8.589844 0.589844 8.453125 C 0.589844 8.316406 0.699219 8.203125 0.835938 8.203125 L 6.683594 8.203125 C 6.820312 8.203125 6.929688 8.316406 6.929688 8.453125 C 6.929688 8.589844 6.820312 8.699219 6.683594 8.699219 Z M 6.683594 8.699219 "/>
<path fill-rule="nonzero" fill="rgb(30%,30%,30%)" fill-opacity="1" d="M 6.386719 9.476562 L 1.164062 9.476562 C 1.027344 9.476562 0.917969 9.367188 0.917969 9.230469 L 0.917969 9.226562 C 0.917969 9.089844 1.027344 8.980469 1.164062 8.980469 L 6.386719 8.980469 C 6.523438 8.980469 6.632812 9.089844 6.632812 9.226562 L 6.632812 9.230469 C 6.632812 9.367188 6.523438 9.476562 6.386719 9.476562 Z M 6.386719 9.476562 "/>
<path fill-rule="nonzero" fill="rgb(30%,30%,30%)" fill-opacity="1" d="M 5.789062 10.238281 L 1.710938 10.238281 C 1.59375 10.238281 1.496094 10.140625 1.496094 10.019531 L 1.496094 9.957031 C 1.496094 9.839844 1.59375 9.742188 1.710938 9.742188 L 5.789062 9.742188 C 5.910156 9.742188 6.007812 9.839844 6.007812 9.957031 L 6.007812 10.019531 C 6.007812 10.140625 5.910156 10.238281 5.789062 10.238281 Z M 5.789062 10.238281 "/>
<path fill-rule="nonzero" fill="rgb(30%,30%,30%)" fill-opacity="1" d="M 5.40625 11 L 2.140625 11 C 2.03125 11 1.945312 10.910156 1.945312 10.804688 L 1.945312 10.699219 C 1.945312 10.589844 2.03125 10.503906 2.140625 10.503906 L 5.40625 10.503906 C 5.515625 10.503906 5.601562 10.589844 5.601562 10.699219 L 5.601562 10.804688 C 5.601562 10.910156 5.515625 11 5.40625 11 Z M 5.40625 11 "/>
<path fill-rule="nonzero" fill="rgb(30%,30%,30%)" fill-opacity="1" d="M 5.40625 1.910156 L 2.140625 1.910156 C 2.03125 1.910156 1.945312 1.824219 1.945312 1.714844 C 1.992188 1.179688 3.539062 1.363281 3.597656 0.253906 L 3.621094 0.125 C 3.628906 0.0546875 3.691406 0 3.765625 0 C 3.835938 0 3.898438 0.0546875 3.910156 0.125 L 3.921875 0.230469 C 3.90625 1.335938 5.601562 1.164062 5.601562 1.714844 C 5.601562 1.824219 5.515625 1.910156 5.40625 1.910156 Z M 5.40625 1.910156 "/>
<path fill-rule="nonzero" fill="rgb(30%,30%,30%)" fill-opacity="1" d="M 0.566406 4.902344 L 6.980469 4.902344 C 7.117188 4.902344 7.230469 4.789062 7.230469 4.652344 C 7.230469 4.515625 7.117188 4.402344 6.980469 4.402344 L 0.566406 4.402344 C 0.429688 4.402344 0.316406 4.515625 0.316406 4.652344 C 0.316406 4.789062 0.429688 4.902344 0.566406 4.902344 Z M 0.566406 4.902344 "/>
<path fill-rule="nonzero" fill="rgb(30%,30%,30%)" fill-opacity="1" d="M 1.703125 5.160156 C 1.929688 5.160156 2.132812 5.347656 2.269531 5.640625 L 7.171875 5.640625 C 7.308594 5.640625 7.421875 5.53125 7.421875 5.390625 C 7.421875 5.253906 7.308594 5.144531 7.171875 5.144531 L 0.390625 5.144531 C 0.25 5.144531 0.140625 5.253906 0.140625 5.390625 C 0.140625 5.53125 0.25 5.640625 0.390625 5.640625 L 1.136719 5.640625 C 1.273438 5.347656 1.476562 5.160156 1.703125 5.160156 Z M 1.703125 5.160156 "/>
<path fill-rule="nonzero" fill="rgb(30%,30%,30%)" fill-opacity="1" d="M 0.25 5.902344 C 0.109375 5.902344 0 6.015625 0 6.152344 C 0 6.289062 0.109375 6.402344 0.25 6.402344 L 0.960938 6.402344 C 0.96875 6.234375 0.996094 6.066406 1.039062 5.902344 Z M 0.25 5.902344 "/>
<path fill-rule="nonzero" fill="rgb(30%,30%,30%)" fill-opacity="1" d="M 7.523438 6.152344 C 7.523438 6.015625 7.414062 5.90625 7.277344 5.902344 L 2.363281 5.902344 C 2.40625 6.066406 2.433594 6.234375 2.441406 6.402344 L 7.277344 6.402344 C 7.414062 6.402344 7.523438 6.289062 7.523438 6.152344 Z M 7.523438 6.152344 "/>
<path fill-rule="nonzero" fill="rgb(30%,30%,30%)" fill-opacity="1" d="M 7.171875 7.175781 C 7.308594 7.175781 7.421875 7.066406 7.421875 6.929688 C 7.421875 6.792969 7.308594 6.679688 7.171875 6.679688 L 2.4375 6.679688 C 2.425781 6.847656 2.398438 7.015625 2.347656 7.175781 Z M 7.171875 7.175781 "/>
<path fill-rule="nonzero" fill="rgb(30%,30%,30%)" fill-opacity="1" d="M 0.355469 6.679688 C 0.21875 6.679688 0.109375 6.792969 0.109375 6.929688 C 0.109375 7.066406 0.21875 7.175781 0.355469 7.175781 L 1.054688 7.175781 C 1.007812 7.015625 0.976562 6.847656 0.964844 6.679688 Z M 0.355469 6.679688 "/>
<path fill-rule="nonzero" fill="rgb(30%,30%,30%)" fill-opacity="1" d="M 1.703125 7.871094 C 1.488281 7.871094 1.296875 7.707031 1.160156 7.441406 L 0.523438 7.441406 C 0.386719 7.441406 0.273438 7.554688 0.273438 7.691406 C 0.273438 7.828125 0.386719 7.9375 0.523438 7.9375 L 6.980469 7.9375 C 7.117188 7.9375 7.226562 7.828125 7.226562 7.691406 C 7.226562 7.554688 7.117188 7.441406 6.980469 7.441406 L 2.242188 7.441406 C 2.105469 7.703125 1.914062 7.871094 1.703125 7.871094 Z M 1.703125 7.871094 "/>
</svg>
