<?xml version="1.0" encoding="UTF-8" standalone="no"?>
<!-- Created with Inkscape (http://www.inkscape.org/) -->

<svg
   xmlns:dc="http://purl.org/dc/elements/1.1/"
   xmlns:cc="http://creativecommons.org/ns#"
   xmlns:rdf="http://www.w3.org/1999/02/22-rdf-syntax-ns#"
   xmlns:svg="http://www.w3.org/2000/svg"
   xmlns="http://www.w3.org/2000/svg"
   xmlns:xlink="http://www.w3.org/1999/xlink"
   xmlns:sodipodi="http://sodipodi.sourceforge.net/DTD/sodipodi-0.dtd"
   xmlns:inkscape="http://www.inkscape.org/namespaces/inkscape"
   width="30px"
   height="30px"
   version="1.1"
   id="svg8"
   inkscape:version="0.92.4 5da689c313, 2019-01-14"
   sodipodi:docname="container.svg">
  <defs
     id="defs2" />
  <sodipodi:namedview
     id="base"
     pagecolor="#ffffff"
     bordercolor="#666666"
     borderopacity="1.0"
     inkscape:pageopacity="0.0"
     inkscape:pageshadow="2"
     inkscape:zoom="13.049334"
     inkscape:cx="18.679046"
     inkscape:cy="12.165829"
     inkscape:document-units="px"
     inkscape:current-layer="layer1"
     showgrid="false"
     inkscape:snap-page="false"
     units="px"
     inkscape:window-width="1884"
     inkscape:window-height="1061"
     inkscape:window-x="0"
     inkscape:window-y="0"
     inkscape:window-maximized="1"
     fit-margin-top="0"
     fit-margin-left="0"
     fit-margin-right="0"
     fit-margin-bottom="0" />
  <metadata
     id="metadata5">
    <rdf:RDF>
      <cc:Work
         rdf:about="">
        <dc:format>image/svg+xml</dc:format>
        <dc:type
           rdf:resource="http://purl.org/dc/dcmitype/StillImage" />
        <dc:title></dc:title>
      </cc:Work>
    </rdf:RDF>
  </metadata>
    <circle
       style="color:#000000;clip-rule:nonzero;display:inline;overflow:visible;visibility:visible;opacity:1;isolation:auto;mix-blend-mode:normal;color-interpolation:sRGB;color-interpolation-filters:linearRGB;solid-color:#000000;solid-opacity:1;vector-effect:none;fill:#ffffff;fill-opacity:1;fill-rule:evenodd;stroke:#f25c05;stroke-width:1;stroke-linecap:butt;stroke-linejoin:miter;stroke-miterlimit:4;stroke-dasharray:none;stroke-dashoffset:0;stroke-opacity:1;marker:none;color-rendering:auto;image-rendering:auto;shape-rendering:auto;text-rendering:auto;enable-background:accumulate"
       id="path815"
       cx="15"
       cy="15"
       r="14.5" />
<g transform="translate(7.0,6.5)"><path fill-rule="nonzero" fill="rgb(30%,30%,30%)" fill-opacity="1" d="M 16.210938 11.292969 L 15.503906 11.292969 C 15.40625 9.714844 15.09375 8.5625 14.726562 8.5625 C 14.71875 8.5625 14.714844 8.5625 14.707031 8.5625 C 14.714844 8.5625 14.71875 8.5625 14.726562 8.5625 L 12.484375 8.5625 C 12.117188 8.5625 11.804688 9.714844 11.707031 11.292969 L 11.386719 11.292969 L 11.441406 5.53125 L 15.1875 2.691406 L 15.179688 2.691406 C 15.183594 2.6875 15.183594 2.683594 15.1875 2.675781 L 15.1875 0.277344 C 15.1875 0.125 12.917969 0 10.125 0 C 7.328125 0 5.0625 0.125 5.0625 0.277344 L 5.0625 2.675781 C 5.0625 2.683594 5.066406 2.6875 5.070312 2.691406 L 5.0625 2.691406 L 8.777344 5.53125 L 8.789062 11.292969 L 7.839844 11.292969 L 7.839844 9.121094 L 8.632812 6.847656 L 1.257812 6.875 L 0 9.351562 L 0 17 L 7.839844 17 L 7.839844 13.378906 L 8.792969 13.382812 L 8.800781 16.925781 C 8.800781 16.964844 9.367188 17 10.066406 17 C 10.765625 17 11.332031 16.964844 11.332031 16.925781 L 11.363281 13.386719 L 11.707031 13.390625 C 11.800781 14.972656 12.113281 16.132812 12.484375 16.132812 L 14.726562 16.132812 C 14.71875 16.132812 14.714844 16.132812 14.707031 16.132812 C 14.714844 16.132812 14.71875 16.132812 14.726562 16.132812 C 15.09375 16.132812 15.40625 14.976562 15.503906 13.398438 L 16.179688 13.402344 L 16.210938 13.402344 C 16.308594 13.402344 16.386719 12.929688 16.386719 12.347656 C 16.386719 11.765625 16.308594 11.292969 16.210938 11.292969 Z M 14.894531 10.039062 C 14.964844 10.453125 15.011719 10.875 15.035156 11.292969 L 14.417969 11.292969 C 14.441406 10.875 14.488281 10.453125 14.558594 10.039062 C 14.613281 9.714844 14.671875 9.488281 14.726562 9.328125 C 14.777344 9.488281 14.835938 9.714844 14.894531 10.039062 Z M 14.699219 8.566406 C 14.695312 8.566406 14.691406 8.566406 14.6875 8.566406 C 14.691406 8.566406 14.695312 8.566406 14.699219 8.566406 Z M 14.679688 8.570312 C 14.675781 8.570312 14.671875 8.570312 14.667969 8.574219 C 14.671875 8.570312 14.675781 8.570312 14.679688 8.570312 Z M 14.660156 8.574219 C 14.65625 8.578125 14.652344 8.578125 14.648438 8.582031 C 14.652344 8.578125 14.65625 8.578125 14.660156 8.574219 Z M 14.640625 8.582031 C 14.636719 8.585938 14.628906 8.589844 14.625 8.59375 C 14.628906 8.589844 14.636719 8.585938 14.640625 8.582031 Z M 14.621094 8.59375 C 14.613281 8.597656 14.609375 8.601562 14.605469 8.605469 C 14.609375 8.601562 14.613281 8.597656 14.621094 8.59375 Z M 14.597656 8.609375 C 14.59375 8.613281 14.589844 8.617188 14.585938 8.617188 C 14.589844 8.617188 14.59375 8.613281 14.597656 8.609375 Z M 14.578125 8.625 C 14.574219 8.628906 14.570312 8.632812 14.566406 8.636719 C 14.570312 8.632812 14.574219 8.628906 14.578125 8.625 Z M 14.558594 8.640625 C 14.554688 8.644531 14.550781 8.652344 14.546875 8.65625 C 14.550781 8.652344 14.554688 8.644531 14.558594 8.640625 Z M 13.945312 11.292969 Z M 14.542969 8.660156 C 14.535156 8.667969 14.53125 8.671875 14.523438 8.679688 C 14.53125 8.671875 14.535156 8.667969 14.542969 8.660156 Z M 14.519531 8.6875 C 14.515625 8.691406 14.511719 8.699219 14.507812 8.703125 C 14.511719 8.699219 14.515625 8.691406 14.519531 8.6875 Z M 14.5 8.710938 C 14.496094 8.71875 14.492188 8.722656 14.488281 8.726562 C 14.492188 8.722656 14.496094 8.71875 14.5 8.710938 Z M 14.480469 8.738281 C 14.476562 8.742188 14.472656 8.75 14.46875 8.753906 C 14.472656 8.75 14.476562 8.742188 14.480469 8.738281 Z M 14.464844 8.765625 C 14.460938 8.773438 14.453125 8.78125 14.449219 8.789062 C 14.453125 8.78125 14.460938 8.773438 14.464844 8.765625 Z M 14.445312 8.792969 C 14.441406 8.800781 14.433594 8.8125 14.429688 8.824219 C 14.433594 8.8125 14.441406 8.800781 14.445312 8.792969 Z M 14.421875 8.835938 C 14.421875 8.839844 14.417969 8.847656 14.414062 8.855469 C 14.417969 8.847656 14.421875 8.839844 14.421875 8.835938 Z M 14.40625 8.867188 C 14.402344 8.875 14.398438 8.882812 14.394531 8.886719 C 14.398438 8.882812 14.402344 8.875 14.40625 8.867188 Z M 14.390625 8.902344 C 14.386719 8.910156 14.382812 8.917969 14.378906 8.925781 C 14.382812 8.917969 14.386719 8.910156 14.390625 8.902344 Z M 14.371094 8.9375 C 14.367188 8.949219 14.363281 8.960938 14.359375 8.972656 C 14.363281 8.960938 14.367188 8.949219 14.371094 8.9375 Z M 14.351562 8.988281 C 14.347656 8.996094 14.34375 9.003906 14.339844 9.015625 C 14.34375 9.003906 14.347656 8.996094 14.351562 8.988281 Z M 14.335938 9.03125 C 14.332031 9.039062 14.328125 9.046875 14.324219 9.054688 C 14.328125 9.046875 14.332031 9.039062 14.335938 9.03125 Z M 14.316406 9.074219 C 14.316406 9.082031 14.3125 9.089844 14.308594 9.097656 C 14.3125 9.089844 14.316406 9.082031 14.316406 9.074219 Z M 14.300781 9.117188 C 14.300781 9.125 14.296875 9.132812 14.292969 9.144531 C 14.296875 9.132812 14.300781 9.125 14.300781 9.117188 Z M 14.289062 9.164062 C 14.28125 9.175781 14.277344 9.191406 14.273438 9.207031 C 14.277344 9.191406 14.28125 9.175781 14.289062 9.164062 Z M 14.265625 9.226562 C 14.265625 9.234375 14.261719 9.246094 14.257812 9.253906 C 14.261719 9.246094 14.265625 9.234375 14.265625 9.226562 Z M 14.25 9.277344 C 14.25 9.285156 14.246094 9.292969 14.246094 9.300781 C 14.246094 9.292969 14.25 9.285156 14.25 9.277344 Z M 14.238281 9.328125 C 14.234375 9.335938 14.234375 9.34375 14.230469 9.351562 C 14.234375 9.34375 14.234375 9.335938 14.238281 9.328125 Z M 14.222656 9.378906 C 14.21875 9.386719 14.21875 9.394531 14.214844 9.402344 C 14.21875 9.394531 14.21875 9.386719 14.222656 9.378906 Z M 14.203125 9.457031 C 14.199219 9.464844 14.199219 9.472656 14.195312 9.480469 C 14.199219 9.472656 14.199219 9.464844 14.203125 9.457031 Z M 14.1875 9.511719 C 14.1875 9.519531 14.183594 9.527344 14.183594 9.535156 C 14.183594 9.527344 14.1875 9.519531 14.1875 9.511719 Z M 14.175781 9.566406 C 14.175781 9.574219 14.171875 9.582031 14.171875 9.589844 C 14.171875 9.582031 14.175781 9.574219 14.175781 9.566406 Z M 14.164062 9.621094 C 14.160156 9.628906 14.160156 9.636719 14.15625 9.644531 C 14.160156 9.636719 14.160156 9.628906 14.164062 9.621094 Z M 14.152344 9.679688 C 14.148438 9.6875 14.148438 9.695312 14.144531 9.699219 C 14.148438 9.695312 14.148438 9.6875 14.152344 9.679688 Z M 14.128906 9.777344 C 14.128906 9.78125 14.128906 9.789062 14.128906 9.792969 C 14.128906 9.789062 14.128906 9.78125 14.128906 9.777344 Z M 14.121094 9.832031 C 14.117188 9.839844 14.117188 9.847656 14.117188 9.855469 C 14.117188 9.847656 14.117188 9.839844 14.121094 9.832031 Z M 14.109375 9.894531 C 14.105469 9.902344 14.105469 9.910156 14.105469 9.917969 C 14.105469 9.910156 14.105469 9.902344 14.109375 9.894531 Z M 14.097656 9.957031 C 14.097656 9.964844 14.09375 9.96875 14.09375 9.976562 C 14.09375 9.96875 14.097656 9.964844 14.097656 9.957031 Z M 14.070312 10.128906 C 14.066406 10.132812 14.066406 10.136719 14.066406 10.144531 C 14.066406 10.136719 14.066406 10.132812 14.070312 10.128906 Z M 14.058594 10.1875 C 14.058594 10.195312 14.058594 10.203125 14.054688 10.210938 C 14.058594 10.203125 14.058594 10.195312 14.058594 10.1875 Z M 14.050781 10.253906 C 14.050781 10.261719 14.046875 10.269531 14.046875 10.277344 C 14.046875 10.269531 14.050781 10.261719 14.050781 10.253906 Z M 14.039062 10.324219 C 14.039062 10.328125 14.039062 10.335938 14.039062 10.339844 C 14.039062 10.335938 14.039062 10.328125 14.039062 10.324219 Z M 14.015625 10.511719 C 14.015625 10.515625 14.015625 10.519531 14.015625 10.527344 C 14.015625 10.519531 14.015625 10.515625 14.015625 10.511719 Z M 14.007812 10.578125 C 14.007812 10.582031 14.007812 10.589844 14.007812 10.597656 C 14.007812 10.589844 14.007812 10.582031 14.007812 10.578125 Z M 14 10.648438 C 14 10.65625 14 10.660156 14 10.667969 C 14 10.660156 14 10.65625 14 10.648438 Z M 13.992188 10.722656 C 13.992188 10.726562 13.992188 10.726562 13.992188 10.730469 C 13.992188 10.726562 13.992188 10.726562 13.992188 10.722656 Z M 13.972656 10.921875 C 13.972656 10.925781 13.972656 10.933594 13.972656 10.9375 C 13.972656 10.933594 13.972656 10.925781 13.972656 10.921875 Z M 13.96875 10.992188 C 13.96875 11 13.96875 11.007812 13.964844 11.015625 C 13.96875 11.007812 13.96875 11 13.96875 10.992188 Z M 13.960938 11.070312 C 13.960938 11.074219 13.960938 11.082031 13.960938 11.089844 C 13.960938 11.082031 13.960938 11.074219 13.960938 11.070312 Z M 13.945312 13.394531 C 13.945312 13.398438 13.945312 13.402344 13.945312 13.402344 C 13.945312 13.402344 13.945312 13.398438 13.945312 13.394531 Z M 14.546875 16.039062 C 14.550781 16.042969 14.554688 16.050781 14.558594 16.054688 C 14.554688 16.050781 14.550781 16.042969 14.546875 16.039062 Z M 13.953125 13.519531 C 13.957031 13.527344 13.957031 13.539062 13.957031 13.546875 C 13.957031 13.539062 13.957031 13.527344 13.953125 13.519531 Z M 13.960938 13.59375 C 13.960938 13.605469 13.960938 13.617188 13.960938 13.625 C 13.960938 13.617188 13.960938 13.605469 13.960938 13.59375 Z M 13.964844 13.671875 C 13.96875 13.683594 13.96875 13.695312 13.96875 13.703125 C 13.96875 13.695312 13.96875 13.683594 13.964844 13.671875 Z M 13.972656 13.75 C 13.972656 13.761719 13.972656 13.769531 13.976562 13.777344 C 13.972656 13.769531 13.972656 13.761719 13.972656 13.75 Z M 13.992188 13.945312 C 13.992188 13.953125 13.992188 13.964844 13.992188 13.972656 C 13.992188 13.964844 13.992188 13.953125 13.992188 13.945312 Z M 13.996094 14.019531 C 14 14.027344 14 14.039062 14 14.046875 C 14 14.039062 14 14.027344 13.996094 14.019531 Z M 14.007812 14.089844 C 14.007812 14.101562 14.007812 14.109375 14.007812 14.121094 C 14.007812 14.109375 14.007812 14.101562 14.007812 14.089844 Z M 14.015625 14.164062 C 14.015625 14.171875 14.015625 14.183594 14.015625 14.191406 C 14.015625 14.183594 14.015625 14.171875 14.015625 14.164062 Z M 14.027344 14.285156 C 14.03125 14.289062 14.03125 14.296875 14.03125 14.300781 C 14.03125 14.296875 14.03125 14.289062 14.027344 14.285156 Z M 14.035156 14.34375 C 14.039062 14.351562 14.039062 14.363281 14.039062 14.371094 C 14.039062 14.363281 14.039062 14.351562 14.035156 14.34375 Z M 14.046875 14.414062 C 14.046875 14.421875 14.046875 14.429688 14.050781 14.441406 C 14.046875 14.429688 14.046875 14.421875 14.046875 14.414062 Z M 14.054688 14.480469 C 14.058594 14.492188 14.058594 14.5 14.058594 14.507812 C 14.058594 14.5 14.058594 14.492188 14.054688 14.480469 Z M 14.066406 14.546875 C 14.066406 14.558594 14.070312 14.566406 14.070312 14.574219 C 14.070312 14.566406 14.066406 14.558594 14.066406 14.546875 Z M 14.082031 14.648438 C 14.082031 14.65625 14.085938 14.664062 14.085938 14.675781 C 14.085938 14.664062 14.082031 14.65625 14.082031 14.648438 Z M 14.09375 14.710938 C 14.09375 14.71875 14.09375 14.730469 14.097656 14.738281 C 14.09375 14.730469 14.09375 14.71875 14.09375 14.710938 Z M 14.105469 14.773438 C 14.105469 14.785156 14.105469 14.792969 14.109375 14.804688 C 14.105469 14.792969 14.105469 14.785156 14.105469 14.773438 Z M 14.113281 14.835938 C 14.117188 14.847656 14.117188 14.855469 14.121094 14.867188 C 14.117188 14.855469 14.117188 14.847656 14.113281 14.835938 Z M 14.125 14.898438 C 14.128906 14.910156 14.132812 14.921875 14.132812 14.933594 C 14.132812 14.921875 14.128906 14.910156 14.125 14.898438 Z M 14.144531 14.984375 C 14.144531 14.996094 14.148438 15.003906 14.152344 15.015625 C 14.148438 15.003906 14.144531 14.996094 14.144531 14.984375 Z M 14.15625 15.042969 C 14.160156 15.054688 14.160156 15.0625 14.164062 15.074219 C 14.160156 15.0625 14.160156 15.054688 14.15625 15.042969 Z M 14.167969 15.101562 C 14.171875 15.113281 14.175781 15.121094 14.175781 15.128906 C 14.175781 15.121094 14.171875 15.113281 14.167969 15.101562 Z M 14.183594 15.160156 C 14.183594 15.167969 14.1875 15.179688 14.191406 15.1875 C 14.1875 15.179688 14.183594 15.167969 14.183594 15.160156 Z M 14.195312 15.214844 C 14.199219 15.230469 14.203125 15.246094 14.207031 15.265625 C 14.203125 15.246094 14.199219 15.230469 14.195312 15.214844 Z M 14.214844 15.289062 C 14.21875 15.296875 14.21875 15.308594 14.222656 15.316406 C 14.21875 15.308594 14.21875 15.296875 14.214844 15.289062 Z M 14.230469 15.339844 C 14.230469 15.351562 14.234375 15.359375 14.238281 15.367188 C 14.234375 15.359375 14.230469 15.351562 14.230469 15.339844 Z M 14.242188 15.390625 C 14.246094 15.402344 14.25 15.410156 14.25 15.417969 C 14.25 15.410156 14.246094 15.402344 14.242188 15.390625 Z M 14.257812 15.441406 C 14.261719 15.453125 14.265625 15.460938 14.269531 15.472656 C 14.265625 15.460938 14.261719 15.453125 14.257812 15.441406 Z M 14.273438 15.488281 C 14.277344 15.503906 14.28125 15.519531 14.289062 15.53125 C 14.28125 15.519531 14.277344 15.503906 14.273438 15.488281 Z M 14.292969 15.550781 C 14.296875 15.558594 14.300781 15.566406 14.300781 15.578125 C 14.300781 15.566406 14.296875 15.558594 14.292969 15.550781 Z M 14.308594 15.597656 C 14.3125 15.605469 14.316406 15.613281 14.316406 15.621094 C 14.316406 15.613281 14.3125 15.605469 14.308594 15.597656 Z M 14.324219 15.640625 C 14.328125 15.648438 14.332031 15.65625 14.335938 15.664062 C 14.332031 15.65625 14.328125 15.648438 14.324219 15.640625 Z M 14.339844 15.679688 C 14.34375 15.691406 14.351562 15.703125 14.355469 15.714844 C 14.351562 15.703125 14.34375 15.691406 14.339844 15.679688 Z M 14.359375 15.722656 C 14.363281 15.734375 14.367188 15.746094 14.371094 15.753906 C 14.367188 15.746094 14.363281 15.734375 14.359375 15.722656 Z M 14.378906 15.769531 C 14.382812 15.777344 14.386719 15.785156 14.390625 15.792969 C 14.386719 15.785156 14.382812 15.777344 14.378906 15.769531 Z M 14.394531 15.804688 C 14.398438 15.8125 14.402344 15.820312 14.40625 15.828125 C 14.402344 15.820312 14.398438 15.8125 14.394531 15.804688 Z M 14.414062 15.839844 C 14.417969 15.847656 14.421875 15.855469 14.425781 15.863281 C 14.421875 15.855469 14.417969 15.847656 14.414062 15.839844 Z M 14.429688 15.871094 C 14.433594 15.882812 14.441406 15.890625 14.445312 15.902344 C 14.441406 15.890625 14.433594 15.882812 14.429688 15.871094 Z M 14.449219 15.910156 C 14.453125 15.917969 14.460938 15.921875 14.464844 15.929688 C 14.460938 15.921875 14.453125 15.917969 14.449219 15.910156 Z M 14.46875 15.941406 C 14.472656 15.945312 14.476562 15.953125 14.480469 15.957031 C 14.476562 15.953125 14.472656 15.945312 14.46875 15.941406 Z M 14.488281 15.96875 C 14.492188 15.972656 14.496094 15.976562 14.5 15.984375 C 14.496094 15.976562 14.492188 15.972656 14.488281 15.96875 Z M 14.507812 15.992188 C 14.511719 15.996094 14.515625 16.003906 14.519531 16.007812 C 14.515625 16.003906 14.511719 15.996094 14.507812 15.992188 Z M 14.523438 16.015625 C 14.53125 16.023438 14.535156 16.027344 14.542969 16.035156 C 14.535156 16.027344 14.53125 16.023438 14.523438 16.015625 Z M 14.6875 16.128906 C 14.691406 16.128906 14.695312 16.128906 14.699219 16.128906 C 14.695312 16.128906 14.691406 16.128906 14.6875 16.128906 Z M 14.566406 16.058594 C 14.570312 16.0625 14.574219 16.066406 14.578125 16.070312 C 14.574219 16.066406 14.570312 16.0625 14.566406 16.058594 Z M 14.585938 16.078125 C 14.589844 16.078125 14.59375 16.082031 14.597656 16.085938 C 14.59375 16.082031 14.589844 16.078125 14.585938 16.078125 Z M 14.605469 16.089844 C 14.609375 16.09375 14.613281 16.097656 14.621094 16.101562 C 14.613281 16.097656 14.609375 16.09375 14.605469 16.089844 Z M 14.621094 16.101562 C 14.628906 16.105469 14.636719 16.109375 14.640625 16.113281 C 14.636719 16.109375 14.628906 16.105469 14.621094 16.101562 Z M 14.648438 16.113281 C 14.652344 16.117188 14.65625 16.117188 14.660156 16.121094 C 14.65625 16.117188 14.652344 16.117188 14.648438 16.113281 Z M 14.667969 16.121094 C 14.671875 16.125 14.675781 16.125 14.679688 16.125 C 14.675781 16.125 14.671875 16.125 14.667969 16.121094 Z M 14.894531 14.65625 C 14.835938 14.980469 14.777344 15.207031 14.726562 15.367188 C 14.671875 15.207031 14.613281 14.980469 14.558594 14.65625 C 14.488281 14.238281 14.441406 13.820312 14.414062 13.394531 L 15.035156 13.398438 C 15.011719 13.820312 14.964844 14.238281 14.894531 14.65625 Z M 14.894531 14.65625 "/>
</g>
</svg>
