<?xml version="1.0" encoding="UTF-8"?>
<svg xmlns="http://www.w3.org/2000/svg" xmlns:xlink="http://www.w3.org/1999/xlink" width="11" height="10.629578" viewBox="0 0 11 10.629578">
<path fill-rule="nonzero" fill="rgb(30%,30%,30%)" fill-opacity="1" d="M 10.738281 8.089844 C 10.574219 8.074219 10.417969 8.0625 10.269531 8.050781 C 9.355469 7.984375 8.972656 7.929688 8.757812 7.277344 C 8.605469 6.828125 8.773438 6.550781 9.03125 6.132812 C 9.382812 5.554688 9.863281 4.765625 9.488281 3.226562 C 9.460938 3.113281 9.402344 2.980469 9.324219 2.832031 C 10.050781 2.164062 10.5 1.734375 10.488281 1.726562 C 10.882812 1.332031 10.882812 0.691406 10.488281 0.296875 C 10.09375 -0.0976562 9.449219 -0.0976562 9.007812 0.296875 L 0.0195312 10.355469 C -0.0625 10.503906 0.128906 10.710938 0.289062 10.597656 C 2.191406 9.230469 6.535156 5.375 8.894531 3.222656 C 8.914062 3.265625 8.933594 3.3125 8.945312 3.359375 C 9.265625 4.671875 8.886719 5.292969 8.554688 5.839844 C 8.28125 6.292969 7.996094 6.757812 8.226562 7.453125 C 8.570312 8.484375 9.339844 8.539062 10.230469 8.605469 C 10.378906 8.617188 10.53125 8.628906 10.695312 8.644531 C 10.703125 8.644531 10.710938 8.644531 10.722656 8.644531 C 10.796875 8.644531 10.871094 8.613281 10.921875 8.558594 C 10.976562 8.507812 11.003906 8.433594 11 8.355469 C 10.996094 8.214844 10.878906 8.101562 10.738281 8.089844 Z M 7.320312 3.742188 C 7 3.984375 6.71875 3.816406 6.984375 3.515625 L 9.238281 0.796875 C 9.433594 0.601562 9.753906 0.601562 9.953125 0.796875 C 10.148438 0.996094 10.148438 1.316406 9.953125 1.515625 C 9.953125 1.515625 9.585938 1.859375 9.011719 2.355469 C 8.933594 2.253906 8.84375 2.152344 8.753906 2.050781 C 8.710938 2.003906 8.296875 2.375 8.335938 2.417969 C 8.429688 2.523438 8.511719 2.625 8.585938 2.71875 C 8.210938 3.035156 7.777344 3.386719 7.320312 3.742188 Z M 7.320312 3.742188 "/>
<path fill-rule="nonzero" fill="rgb(30%,30%,30%)" fill-opacity="1" d="M 7.324219 1.550781 C 6.453125 0.988281 5.074219 0.527344 3.453125 1.523438 C 3.320312 1.605469 3.148438 1.566406 3.070312 1.433594 C 2.988281 1.300781 3.03125 1.128906 3.160156 1.050781 C 5.03125 -0.0976562 6.648438 0.417969 7.65625 1.066406 C 7.6875 1.085938 7.347656 1.5625 7.324219 1.550781 Z M 7.324219 1.550781 "/>
</svg>
