<?xml version="1.0" encoding="UTF-8" standalone="no"?>
<!-- Created with Inkscape (http://www.inkscape.org/) -->

<svg
   xmlns:dc="http://purl.org/dc/elements/1.1/"
   xmlns:cc="http://creativecommons.org/ns#"
   xmlns:rdf="http://www.w3.org/1999/02/22-rdf-syntax-ns#"
   xmlns:svg="http://www.w3.org/2000/svg"
   xmlns="http://www.w3.org/2000/svg"
   xmlns:xlink="http://www.w3.org/1999/xlink"
   xmlns:sodipodi="http://sodipodi.sourceforge.net/DTD/sodipodi-0.dtd"
   xmlns:inkscape="http://www.inkscape.org/namespaces/inkscape"
   width="30px"
   height="30px"
   version="1.1"
   id="svg8"
   inkscape:version="0.92.4 5da689c313, 2019-01-14"
   sodipodi:docname="container.svg">
  <defs
     id="defs2" />
  <sodipodi:namedview
     id="base"
     pagecolor="#ffffff"
     bordercolor="#666666"
     borderopacity="1.0"
     inkscape:pageopacity="0.0"
     inkscape:pageshadow="2"
     inkscape:zoom="13.049334"
     inkscape:cx="18.679046"
     inkscape:cy="12.165829"
     inkscape:document-units="px"
     inkscape:current-layer="layer1"
     showgrid="false"
     inkscape:snap-page="false"
     units="px"
     inkscape:window-width="1884"
     inkscape:window-height="1061"
     inkscape:window-x="0"
     inkscape:window-y="0"
     inkscape:window-maximized="1"
     fit-margin-top="0"
     fit-margin-left="0"
     fit-margin-right="0"
     fit-margin-bottom="0" />
  <metadata
     id="metadata5">
    <rdf:RDF>
      <cc:Work
         rdf:about="">
        <dc:format>image/svg+xml</dc:format>
        <dc:type
           rdf:resource="http://purl.org/dc/dcmitype/StillImage" />
        <dc:title></dc:title>
      </cc:Work>
    </rdf:RDF>
  </metadata>
    <circle
       style="color:#000000;clip-rule:nonzero;display:inline;overflow:visible;visibility:visible;opacity:1;isolation:auto;mix-blend-mode:normal;color-interpolation:sRGB;color-interpolation-filters:linearRGB;solid-color:#000000;solid-opacity:1;vector-effect:none;fill:#ffffff;fill-opacity:1;fill-rule:evenodd;stroke:#f25c05;stroke-width:1;stroke-linecap:butt;stroke-linejoin:miter;stroke-miterlimit:4;stroke-dasharray:none;stroke-dashoffset:0;stroke-opacity:1;marker:none;color-rendering:auto;image-rendering:auto;shape-rendering:auto;text-rendering:auto;enable-background:accumulate"
       id="path815"
       cx="15"
       cy="15"
       r="14.5" />
<g transform="translate(6.5,7.0)"><path fill-rule="nonzero" fill="rgb(30%,30%,30%)" fill-opacity="1" d="M 16.59375 12.5 C 16.34375 12.476562 16.101562 12.457031 15.875 12.441406 C 14.457031 12.335938 13.867188 12.253906 13.53125 11.246094 C 13.300781 10.550781 13.5625 10.125 13.957031 9.476562 C 14.5 8.585938 15.242188 7.363281 14.660156 4.988281 C 14.617188 4.8125 14.53125 4.601562 14.40625 4.375 C 15.53125 3.34375 16.226562 2.683594 16.207031 2.667969 C 16.816406 2.054688 16.816406 1.066406 16.207031 0.457031 C 15.601562 -0.152344 14.605469 -0.152344 13.921875 0.457031 L 0.03125 16.003906 C -0.0976562 16.230469 0.199219 16.554688 0.445312 16.375 C 3.386719 14.265625 10.101562 8.304688 13.746094 4.980469 C 13.777344 5.050781 13.804688 5.121094 13.824219 5.195312 C 14.320312 7.21875 13.734375 8.179688 13.21875 9.027344 C 12.796875 9.726562 12.359375 10.445312 12.714844 11.515625 C 13.246094 13.113281 14.433594 13.199219 15.808594 13.300781 C 16.039062 13.316406 16.277344 13.335938 16.527344 13.359375 C 16.539062 13.363281 16.554688 13.363281 16.570312 13.363281 C 16.6875 13.363281 16.796875 13.3125 16.878906 13.230469 C 16.960938 13.144531 17.003906 13.03125 17 12.914062 C 16.992188 12.695312 16.808594 12.523438 16.59375 12.5 Z M 11.3125 5.78125 C 10.820312 6.160156 10.382812 5.898438 10.796875 5.4375 L 14.277344 1.234375 C 14.582031 0.929688 15.074219 0.929688 15.382812 1.234375 C 15.6875 1.539062 15.6875 2.035156 15.382812 2.339844 C 15.382812 2.339844 14.8125 2.871094 13.925781 3.640625 C 13.804688 3.484375 13.671875 3.324219 13.527344 3.167969 C 13.464844 3.097656 12.820312 3.671875 12.882812 3.738281 C 13.027344 3.898438 13.15625 4.054688 13.269531 4.203125 C 12.6875 4.691406 12.023438 5.234375 11.3125 5.78125 Z M 11.3125 5.78125 "/>
<path fill-rule="nonzero" fill="rgb(30%,30%,30%)" fill-opacity="1" d="M 11.320312 2.394531 C 9.972656 1.527344 7.84375 0.816406 5.335938 2.355469 C 5.132812 2.480469 4.867188 2.417969 4.742188 2.214844 C 4.621094 2.011719 4.683594 1.746094 4.886719 1.621094 C 7.773438 -0.148438 10.277344 0.644531 11.832031 1.644531 C 11.878906 1.675781 11.355469 2.417969 11.320312 2.394531 Z M 11.320312 2.394531 "/>
</g>
</svg>
