<?xml version="1.0" encoding="UTF-8" standalone="no"?>
<!-- Created with Inkscape (http://www.inkscape.org/) -->

<svg
   xmlns:dc="http://purl.org/dc/elements/1.1/"
   xmlns:cc="http://creativecommons.org/ns#"
   xmlns:rdf="http://www.w3.org/1999/02/22-rdf-syntax-ns#"
   xmlns:svg="http://www.w3.org/2000/svg"
   xmlns="http://www.w3.org/2000/svg"
   xmlns:xlink="http://www.w3.org/1999/xlink"
   xmlns:sodipodi="http://sodipodi.sourceforge.net/DTD/sodipodi-0.dtd"
   xmlns:inkscape="http://www.inkscape.org/namespaces/inkscape"
   width="30px"
   height="30px"
   version="1.1"
   id="svg8"
   inkscape:version="0.92.4 5da689c313, 2019-01-14"
   sodipodi:docname="container.svg">
  <defs
     id="defs2" />
  <sodipodi:namedview
     id="base"
     pagecolor="#ffffff"
     bordercolor="#666666"
     borderopacity="1.0"
     inkscape:pageopacity="0.0"
     inkscape:pageshadow="2"
     inkscape:zoom="13.049334"
     inkscape:cx="18.679046"
     inkscape:cy="12.165829"
     inkscape:document-units="px"
     inkscape:current-layer="layer1"
     showgrid="false"
     inkscape:snap-page="false"
     units="px"
     inkscape:window-width="1884"
     inkscape:window-height="1061"
     inkscape:window-x="0"
     inkscape:window-y="0"
     inkscape:window-maximized="1"
     fit-margin-top="0"
     fit-margin-left="0"
     fit-margin-right="0"
     fit-margin-bottom="0" />
  <metadata
     id="metadata5">
    <rdf:RDF>
      <cc:Work
         rdf:about="">
        <dc:format>image/svg+xml</dc:format>
        <dc:type
           rdf:resource="http://purl.org/dc/dcmitype/StillImage" />
        <dc:title></dc:title>
      </cc:Work>
    </rdf:RDF>
  </metadata>
    <circle
       style="color:#000000;clip-rule:nonzero;display:inline;overflow:visible;visibility:visible;opacity:1;isolation:auto;mix-blend-mode:normal;color-interpolation:sRGB;color-interpolation-filters:linearRGB;solid-color:#000000;solid-opacity:1;vector-effect:none;fill:#f25c05;fill-opacity:1;fill-rule:evenodd;stroke:#ffffff;stroke-width:1;stroke-linecap:butt;stroke-linejoin:miter;stroke-miterlimit:4;stroke-dasharray:none;stroke-dashoffset:0;stroke-opacity:1;marker:none;color-rendering:auto;image-rendering:auto;shape-rendering:auto;text-rendering:auto;enable-background:accumulate"
       id="path815"
       cx="15"
       cy="15"
       r="14.5" />
<g transform="translate(9.5,6.5)"><path fill-rule="nonzero" fill="#FFFFFF" fill-opacity="1" d="M 6.765625 9.472656 L 6.765625 9.363281 C 6.765625 8.867188 6.363281 8.46875 5.871094 8.464844 L 3.644531 8.464844 C 3.152344 8.46875 2.75 8.867188 2.75 9.363281 L 2.75 9.472656 C 2.75 9.683594 2.816406 9.835938 2.902344 10.179688 L 6.558594 10.179688 C 6.699219 9.835938 6.765625 9.683594 6.765625 9.472656 Z M 9.304688 12.484375 C 9.316406 13.117188 8.300781 17 8.300781 17 L 1.480469 17 C 1.511719 17.007812 0 13.753906 0 12.484375 C 0 11.003906 2.832031 10.378906 2.75 10.371094 L 6.554688 10.371094 C 7.976562 10.503906 9.289062 11.675781 9.304688 12.484375 Z M 0.792969 12.457031 C 0.792969 12.457031 0.847656 12.0625 1.480469 11.636719 C 1.863281 11.382812 2.273438 11.160156 2.695312 10.976562 C 0.421875 11.636719 0.421875 12.484375 0.421875 12.484375 Z M 4.757812 11.847656 C 4.117188 11.847656 3.59375 12.371094 3.59375 13.011719 C 3.59375 13.65625 4.117188 14.175781 4.757812 14.175781 C 5.398438 14.175781 5.921875 13.65625 5.921875 13.011719 C 5.921875 12.371094 5.398438 11.847656 4.757812 11.847656 Z M 5.871094 8.253906 C 5.910156 8.257812 5.953125 8.261719 5.996094 8.265625 L 5.609375 2.011719 L 3.804688 2.011719 C 3.804688 3.601562 3.601562 6.980469 3.523438 8.265625 C 3.5625 8.261719 3.605469 8.257812 3.644531 8.253906 Z M 5.921875 0.0078125 C 5.46875 0.0742188 3.917969 0.0117188 3.8125 1.800781 L 5.585938 1.800781 C 5.5625 1.683594 5.578125 1.171875 6.238281 1.171875 C 6.332031 1.171875 6.453125 1.179688 6.597656 1.191406 L 6.726562 0.0625 C 6.363281 0.0117188 6.074219 -0.015625 5.921875 0.0078125 Z M 6.933594 0.0898438 L 6.808594 1.214844 C 8.074219 1.355469 10.46875 1.804688 10.46875 1.804688 L 10.574219 0.855469 C 10.574219 0.855469 8.34375 0.3125 6.933594 0.0898438 Z M 6.933594 0.0898438 "/>
<path fill-rule="nonzero" fill="#FFFFFF" fill-opacity="1" d="M 5.367188 13.035156 C 5.367188 13.355469 5.105469 13.617188 4.785156 13.617188 C 4.464844 13.617188 4.203125 13.355469 4.203125 13.035156 C 4.203125 12.714844 4.464844 12.453125 4.785156 12.453125 C 5.105469 12.453125 5.367188 12.714844 5.367188 13.035156 Z M 5.367188 13.035156 "/>
</g>
</svg>
