<?xml version="1.0" encoding="UTF-8" standalone="no"?>
<!-- Created with Inkscape (http://www.inkscape.org/) -->

<svg
   xmlns:dc="http://purl.org/dc/elements/1.1/"
   xmlns:cc="http://creativecommons.org/ns#"
   xmlns:rdf="http://www.w3.org/1999/02/22-rdf-syntax-ns#"
   xmlns:svg="http://www.w3.org/2000/svg"
   xmlns="http://www.w3.org/2000/svg"
   xmlns:xlink="http://www.w3.org/1999/xlink"
   xmlns:sodipodi="http://sodipodi.sourceforge.net/DTD/sodipodi-0.dtd"
   xmlns:inkscape="http://www.inkscape.org/namespaces/inkscape"
   width="30px"
   height="30px"
   version="1.1"
   id="svg8"
   inkscape:version="0.92.4 5da689c313, 2019-01-14"
   sodipodi:docname="container.svg">
  <defs
     id="defs2" />
  <sodipodi:namedview
     id="base"
     pagecolor="#ffffff"
     bordercolor="#666666"
     borderopacity="1.0"
     inkscape:pageopacity="0.0"
     inkscape:pageshadow="2"
     inkscape:zoom="13.049334"
     inkscape:cx="18.679046"
     inkscape:cy="12.165829"
     inkscape:document-units="px"
     inkscape:current-layer="layer1"
     showgrid="false"
     inkscape:snap-page="false"
     units="px"
     inkscape:window-width="1884"
     inkscape:window-height="1061"
     inkscape:window-x="0"
     inkscape:window-y="0"
     inkscape:window-maximized="1"
     fit-margin-top="0"
     fit-margin-left="0"
     fit-margin-right="0"
     fit-margin-bottom="0" />
  <metadata
     id="metadata5">
    <rdf:RDF>
      <cc:Work
         rdf:about="">
        <dc:format>image/svg+xml</dc:format>
        <dc:type
           rdf:resource="http://purl.org/dc/dcmitype/StillImage" />
        <dc:title></dc:title>
      </cc:Work>
    </rdf:RDF>
  </metadata>
    <circle
       style="color:#000000;clip-rule:nonzero;display:inline;overflow:visible;visibility:visible;opacity:1;isolation:auto;mix-blend-mode:normal;color-interpolation:sRGB;color-interpolation-filters:linearRGB;solid-color:#000000;solid-opacity:1;vector-effect:none;fill:#f25c05;fill-opacity:1;fill-rule:evenodd;stroke:#ffffff;stroke-width:1;stroke-linecap:butt;stroke-linejoin:miter;stroke-miterlimit:4;stroke-dasharray:none;stroke-dashoffset:0;stroke-opacity:1;marker:none;color-rendering:auto;image-rendering:auto;shape-rendering:auto;text-rendering:auto;enable-background:accumulate"
       id="path815"
       cx="15"
       cy="15"
       r="14.5" />
<g transform="translate(10.0,6.5)"><path fill-rule="nonzero" fill="#FFFFFF" fill-opacity="1" d="M 8.8125 2.652344 L 1.539062 2.640625 L 1.523438 14.304688 L 8.796875 14.3125 Z M 5.089844 10.519531 L 2.753906 8.179688 L 5.089844 5.859375 L 7.425781 8.199219 Z M 5.089844 10.519531 "/>
<path fill-rule="nonzero" fill="#FFFFFF" fill-opacity="1" d="M 10.386719 15.828125 L 10.386719 0.226562 C 10.386719 0.21875 10.386719 0.207031 10.378906 0.203125 L 10.378906 0.199219 C 10.378906 0.078125 10.308594 -0.00390625 10.226562 0 L 10.210938 0 C 10.128906 0.00390625 10.0625 0.078125 10.066406 0.199219 L 10.078125 1.015625 L 9.449219 1.011719 L 9.4375 0.230469 C 9.433594 0.113281 9.363281 0.015625 9.28125 0.015625 L 9.277344 0.015625 C 9.195312 0.0195312 9.132812 0.121094 9.132812 0.238281 L 9.136719 1.011719 L 8.621094 1.011719 L 8.605469 0.238281 C 8.605469 0.117188 8.535156 0.015625 8.453125 0.015625 L 8.449219 0.015625 C 8.367188 0.0195312 8.300781 0.125 8.300781 0.242188 L 8.304688 1.011719 L 7.789062 1.011719 L 7.777344 0.242188 C 7.773438 0.125 7.703125 0.015625 7.621094 0.015625 L 7.617188 0.015625 C 7.535156 0.0195312 7.472656 0.132812 7.472656 0.25 L 7.476562 1.011719 L 6.960938 1.011719 L 6.945312 0.25 C 6.945312 0.128906 6.875 0.015625 6.792969 0.015625 L 6.789062 0.015625 C 6.707031 0.0195312 6.640625 0.136719 6.640625 0.253906 L 6.644531 1.011719 L 6.128906 1.011719 L 6.117188 0.253906 C 6.113281 0.136719 6.042969 0.015625 5.960938 0.015625 L 5.957031 0.015625 C 5.875 0.0195312 5.808594 0.144531 5.8125 0.261719 L 5.816406 1.011719 L 5.300781 1.011719 L 5.285156 0.257812 C 5.28125 0.140625 5.214844 0.015625 5.132812 0.015625 L 5.128906 0.015625 C 5.046875 0.0195312 4.980469 0.148438 4.980469 0.265625 L 4.984375 1.011719 L 4.46875 1.011719 L 4.457031 0.265625 C 4.453125 0.148438 4.382812 0.015625 4.300781 0.015625 L 4.296875 0.015625 C 4.214844 0.0195312 4.148438 0.15625 4.152344 0.269531 L 4.15625 1.011719 L 3.640625 1.011719 L 3.625 0.269531 C 3.621094 0.152344 3.554688 0.015625 3.46875 0.015625 L 3.464844 0.015625 C 3.386719 0.0195312 3.320312 0.160156 3.320312 0.277344 L 3.324219 1.011719 L 2.808594 1.011719 L 2.792969 0.277344 C 2.792969 0.15625 2.722656 0.015625 2.640625 0.015625 L 2.636719 0.015625 C 2.554688 0.0195312 2.488281 0.164062 2.492188 0.28125 L 2.496094 1.011719 L 1.980469 1.011719 L 1.964844 0.28125 C 1.960938 0.164062 1.894531 0.015625 1.808594 0.015625 L 1.804688 0.015625 C 1.722656 0.0195312 1.660156 0.171875 1.660156 0.289062 L 1.664062 1.011719 L 1.148438 1.011719 L 1.132812 0.289062 C 1.132812 0.167969 1.0625 0.015625 0.980469 0.015625 L 0.976562 0.015625 C 0.894531 0.0195312 0.828125 0.175781 0.832031 0.292969 L 0.835938 1.011719 L 0.320312 1.011719 L 0.304688 0.292969 C 0.300781 0.175781 0.234375 0.015625 0.148438 0.015625 L 0.144531 0.015625 C 0.0625 0.0195312 0 0.183594 0 0.300781 L 0 16.792969 C 0 16.804688 0 16.816406 0.0078125 16.824219 C 0.015625 16.933594 0.0820312 17.003906 0.160156 17 L 0.175781 17 C 0.257812 16.996094 0.324219 16.921875 0.320312 16.800781 L 0.308594 15.914062 L 0.933594 15.90625 L 0.941406 16.792969 C 0.941406 16.914062 1.011719 16.992188 1.09375 16.992188 L 1.109375 16.992188 C 1.191406 16.988281 1.257812 16.910156 1.253906 16.792969 L 1.238281 15.90625 L 1.765625 15.90625 L 1.769531 16.792969 C 1.769531 16.914062 1.839844 16.992188 1.925781 16.992188 L 1.941406 16.992188 C 2.023438 16.988281 2.089844 16.910156 2.085938 16.792969 L 2.070312 15.90625 L 2.59375 15.90625 L 2.601562 16.792969 C 2.601562 16.914062 2.671875 16.992188 2.753906 16.992188 L 2.769531 16.992188 C 2.851562 16.988281 2.917969 16.910156 2.914062 16.792969 L 2.898438 15.90625 L 3.425781 15.90625 L 3.429688 16.792969 C 3.433594 16.914062 3.5 16.992188 3.585938 16.992188 L 3.601562 16.992188 C 3.683594 16.988281 3.75 16.910156 3.746094 16.792969 L 3.730469 15.90625 L 4.253906 15.90625 L 4.261719 16.792969 C 4.261719 16.914062 4.332031 16.992188 4.414062 16.992188 L 4.429688 16.992188 C 4.511719 16.988281 4.578125 16.910156 4.578125 16.792969 L 4.5625 15.90625 L 5.085938 15.90625 L 5.089844 16.792969 C 5.09375 16.914062 5.160156 16.992188 5.246094 16.992188 L 5.261719 16.992188 C 5.34375 16.988281 5.410156 16.910156 5.40625 16.792969 L 5.390625 15.90625 L 5.914062 15.90625 L 5.921875 16.792969 C 5.921875 16.914062 5.992188 16.992188 6.074219 16.992188 L 6.089844 16.992188 C 6.171875 16.988281 6.238281 16.910156 6.238281 16.792969 L 6.222656 15.90625 L 6.746094 15.90625 L 6.75 16.792969 C 6.753906 16.914062 6.820312 16.992188 6.90625 16.992188 L 6.921875 16.992188 C 7.003906 16.988281 7.070312 16.910156 7.066406 16.792969 L 7.050781 15.90625 L 7.578125 15.90625 L 7.582031 16.792969 C 7.582031 16.914062 7.652344 16.992188 7.734375 16.992188 L 7.75 16.992188 C 7.832031 16.988281 7.898438 16.910156 7.898438 16.792969 L 7.882812 15.90625 L 8.40625 15.90625 L 8.410156 16.792969 C 8.414062 16.914062 8.480469 16.992188 8.566406 16.992188 L 8.582031 16.992188 C 8.664062 16.988281 8.730469 16.910156 8.726562 16.792969 L 8.710938 15.90625 L 9.238281 15.90625 L 9.242188 16.792969 C 9.242188 16.914062 9.3125 16.992188 9.394531 16.992188 L 9.410156 16.992188 C 9.496094 16.988281 9.558594 16.910156 9.558594 16.792969 L 9.542969 15.90625 L 10.066406 15.90625 L 10.070312 16.792969 C 10.074219 16.914062 10.140625 16.992188 10.226562 16.992188 L 10.242188 16.992188 C 10.324219 16.988281 10.390625 16.910156 10.386719 16.792969 L 10.386719 15.855469 C 10.386719 15.847656 10.386719 15.839844 10.386719 15.828125 Z M 9.230469 14.75 L 1.089844 14.738281 L 1.105469 2.207031 L 9.25 2.21875 Z M 9.230469 14.75 "/>
</g>
</svg>
