<?xml version="1.0" encoding="UTF-8"?>
<svg xmlns="http://www.w3.org/2000/svg" xmlns:xlink="http://www.w3.org/1999/xlink" width="6.841073" height="11" viewBox="0 0 6.841073 11">
<path fill-rule="nonzero" fill="rgb(30%,30%,30%)" fill-opacity="1" d="M 4.378906 6.128906 L 4.378906 6.058594 C 4.378906 5.738281 4.117188 5.480469 3.796875 5.476562 L 2.359375 5.476562 C 2.039062 5.480469 1.78125 5.738281 1.777344 6.058594 L 1.777344 6.128906 C 1.777344 6.265625 1.824219 6.363281 1.878906 6.585938 L 4.246094 6.585938 C 4.335938 6.363281 4.378906 6.265625 4.378906 6.128906 Z M 6.019531 8.078125 C 6.027344 8.488281 5.371094 11 5.371094 11 L 0.957031 11 C 0.980469 11.003906 0 8.898438 0 8.078125 C 0 7.121094 1.832031 6.714844 1.777344 6.710938 L 4.242188 6.710938 C 5.160156 6.796875 6.011719 7.554688 6.019531 8.078125 Z M 0.511719 8.0625 C 0.511719 8.0625 0.546875 7.804688 0.957031 7.53125 C 1.207031 7.363281 1.46875 7.222656 1.746094 7.101562 C 0.273438 7.53125 0.273438 8.078125 0.273438 8.078125 Z M 3.078125 7.667969 C 2.664062 7.667969 2.324219 8.003906 2.324219 8.417969 C 2.324219 8.835938 2.664062 9.171875 3.078125 9.171875 C 3.492188 9.171875 3.832031 8.835938 3.832031 8.417969 C 3.832031 8.003906 3.492188 7.667969 3.078125 7.667969 Z M 3.796875 5.339844 C 3.824219 5.34375 3.851562 5.34375 3.878906 5.347656 L 3.628906 1.304688 L 2.460938 1.304688 C 2.460938 2.332031 2.332031 4.515625 2.277344 5.347656 C 2.304688 5.34375 2.332031 5.34375 2.359375 5.339844 Z M 3.832031 0.00390625 C 3.539062 0.046875 2.535156 0.0078125 2.46875 1.164062 L 3.613281 1.164062 C 3.597656 1.089844 3.609375 0.757812 4.035156 0.757812 C 4.097656 0.757812 4.175781 0.761719 4.269531 0.773438 L 4.351562 0.0390625 C 4.117188 0.0078125 3.929688 -0.0078125 3.832031 0.00390625 Z M 4.488281 0.0585938 L 4.40625 0.785156 C 5.222656 0.878906 6.773438 1.167969 6.773438 1.167969 L 6.839844 0.550781 C 6.839844 0.550781 5.398438 0.203125 4.488281 0.0585938 Z M 4.488281 0.0585938 "/>
<path fill-rule="nonzero" fill="rgb(30%,30%,30%)" fill-opacity="1" d="M 3.472656 8.433594 C 3.472656 8.640625 3.304688 8.8125 3.09375 8.8125 C 2.886719 8.8125 2.71875 8.640625 2.71875 8.433594 C 2.71875 8.226562 2.886719 8.058594 3.09375 8.058594 C 3.304688 8.058594 3.472656 8.226562 3.472656 8.433594 Z M 3.472656 8.433594 "/>
</svg>
