<?xml version="1.0" encoding="UTF-8"?>
<svg xmlns="http://www.w3.org/2000/svg" xmlns:xlink="http://www.w3.org/1999/xlink" width="9.667233" height="11" viewBox="0 0 9.667233 11">
<path fill-rule="nonzero" fill="rgb(30%,30%,30%)" fill-opacity="1" d="M 4.410156 5.191406 C 5.355469 5.171875 6.097656 4 6.074219 2.566406 C 6.050781 1.132812 5.265625 -0.015625 4.324219 0 C 3.382812 0.015625 2.636719 1.191406 2.660156 2.625 C 2.683594 4.058594 3.46875 5.207031 4.410156 5.191406 Z M 4.148438 2.554688 C 4.4375 1.351562 4.324219 0.3125 4.339844 0.277344 C 4.355469 0.324219 4.878906 1.339844 4.585938 2.632812 C 4.296875 3.839844 4.410156 4.878906 4.394531 4.914062 C 4.382812 4.867188 3.855469 3.847656 4.148438 2.554688 Z M 4.148438 2.554688 "/>
<path fill-rule="nonzero" fill="rgb(30%,30%,30%)" fill-opacity="1" d="M 9.253906 4.507812 C 8.507812 3.777344 7.003906 4.109375 5.894531 5.246094 C 4.785156 6.382812 4.492188 7.894531 5.242188 8.621094 C 5.988281 9.351562 7.492188 9.019531 8.601562 7.882812 C 9.707031 6.746094 10 5.234375 9.253906 4.507812 Z M 7.382812 6.765625 C 6.214844 7.480469 5.484375 8.378906 5.445312 8.390625 C 5.472656 8.347656 5.863281 7.140625 7.109375 6.363281 C 8.28125 5.652344 9.007812 4.75 9.050781 4.738281 C 9.023438 4.785156 8.632812 5.988281 7.382812 6.765625 Z M 7.382812 6.765625 "/>
<path fill-rule="nonzero" fill="rgb(30%,30%,30%)" fill-opacity="1" d="M 1.015625 4.996094 C -0.0507812 5.480469 -0.320312 7.1875 0.414062 8.808594 C 1.148438 10.433594 2.613281 11.355469 3.679688 10.871094 C 4.746094 10.386719 5.015625 8.679688 4.277344 7.058594 C 3.542969 5.433594 2.082031 4.511719 1.015625 4.996094 Z M 2.078125 7.996094 C 1.8125 6.480469 1.167969 5.351562 1.171875 5.304688 C 1.207031 5.351562 2.3125 6.25 2.613281 7.871094 C 2.882812 9.386719 3.523438 10.515625 3.523438 10.5625 C 3.484375 10.515625 2.382812 9.617188 2.078125 7.996094 Z M 2.078125 7.996094 "/>
</svg>
