<?xml version="1.0" encoding="UTF-8"?>
<svg xmlns="http://www.w3.org/2000/svg" xmlns:xlink="http://www.w3.org/1999/xlink" width="6.655553" height="11" viewBox="0 0 6.655553 11">
<path fill-rule="nonzero" fill="rgb(30%,30%,30%)" fill-opacity="1" d="M 5.917969 6.402344 C 6.363281 5.902344 6.65625 5.070312 6.65625 4.121094 C 6.65625 2.40625 5.867188 1.339844 4.933594 1.339844 C 4.789062 1.339844 4.644531 1.371094 4.511719 1.433594 C 4.625 1.378906 4.742188 1.347656 4.867188 1.335938 L 3.933594 1.382812 C 3.832031 1.382812 3.734375 1.398438 3.632812 1.425781 L 3.617188 0.0585938 C 3.617188 0.0234375 3.417969 0 3.175781 0 C 2.929688 0 2.734375 0.0234375 2.734375 0.0585938 L 2.757812 1.984375 C 2.296875 2.476562 1.960938 3.238281 1.960938 4.105469 C 1.960938 4.949219 2.179688 5.617188 2.53125 6.0625 C 1.085938 6.125 0 6.40625 0 6.742188 L 0.0585938 9.820312 C 0.0585938 10.203125 1.417969 11 3.164062 11 C 4.914062 11 6.226562 10.183594 6.226562 9.796875 L 6.328125 6.742188 C 6.328125 6.621094 6.175781 6.5 5.917969 6.402344 Z M 3.65625 3.335938 C 3.730469 2.957031 3.859375 2.613281 4.03125 2.328125 C 4.292969 1.902344 4.625 1.667969 4.964844 1.667969 C 5.21875 1.667969 5.585938 1.769531 5.902344 2.261719 C 6.195312 2.71875 6.347656 3.359375 6.347656 4.121094 C 6.347656 5.054688 6.039062 5.882812 5.59375 6.296875 C 5.414062 6.441406 5.425781 6.425781 5.339844 6.484375 C 5.222656 6.542969 5.097656 6.578125 4.964844 6.578125 C 4.765625 6.578125 4.570312 6.496094 4.386719 6.34375 C 4.296875 6.265625 4.214844 6.179688 4.144531 6.082031 C 4.105469 6.03125 4.070312 5.976562 4.03125 5.917969 C 3.875 5.65625 3.753906 5.34375 3.675781 5.003906 C 3.613281 4.714844 3.582031 4.417969 3.582031 4.121094 C 3.582031 3.859375 3.605469 3.59375 3.65625 3.335938 Z M 5.210938 7.03125 C 4.648438 7.140625 3.921875 7.199219 3.164062 7.199219 C 2.40625 7.199219 1.679688 7.140625 1.117188 7.03125 C 0.582031 6.925781 0.34375 6.808594 0.261719 6.742188 C 0.34375 6.679688 0.582031 6.558594 1.117188 6.457031 C 1.578125 6.367188 2.144531 6.3125 2.75 6.292969 C 2.769531 6.3125 2.789062 6.328125 2.808594 6.34375 L 2.8125 6.664062 C 2.8125 6.695312 3.011719 6.71875 3.253906 6.71875 C 3.457031 6.71875 3.628906 6.703125 3.679688 6.679688 L 4.640625 6.832031 C 4.660156 6.835938 4.679688 6.84375 4.699219 6.847656 C 4.707031 6.851562 4.714844 6.851562 4.722656 6.855469 C 4.742188 6.859375 4.757812 6.863281 4.777344 6.867188 C 4.785156 6.867188 4.796875 6.871094 4.804688 6.871094 C 4.824219 6.875 4.839844 6.875 4.859375 6.878906 C 4.867188 6.878906 4.875 6.878906 4.886719 6.878906 C 4.910156 6.882812 4.9375 6.882812 4.964844 6.882812 C 5.238281 6.882812 5.5 6.777344 5.726562 6.585938 C 5.894531 6.644531 6.023438 6.710938 6.066406 6.742188 C 5.984375 6.808594 5.746094 6.925781 5.210938 7.03125 Z M 5.660156 4.171875 C 5.660156 4.4375 5.507812 4.648438 5.320312 4.648438 C 5.132812 4.648438 4.980469 4.4375 4.980469 4.171875 C 4.980469 3.910156 5.132812 3.695312 5.320312 3.695312 C 5.507812 3.695312 5.660156 3.910156 5.660156 4.171875 Z M 5.660156 4.171875 "/>
</svg>
