<?xml version="1.0" encoding="UTF-8"?>
<svg xmlns="http://www.w3.org/2000/svg" xmlns:xlink="http://www.w3.org/1999/xlink" width="9.428571" height="11" viewBox="0 0 9.428571 11">
<path fill-rule="nonzero" fill="rgb(30%,30%,30%)" fill-opacity="1" d="M 9.183594 3.050781 L 6.933594 3.050781 C 7.015625 3.660156 7.070312 4.265625 7.070312 4.808594 L 7.070312 4.921875 C 7.289062 4.992188 7.425781 5.207031 7.390625 5.433594 C 7.355469 5.660156 7.160156 5.824219 6.933594 5.824219 C 6.703125 5.824219 6.511719 5.660156 6.476562 5.433594 C 6.441406 5.207031 6.578125 4.992188 6.792969 4.921875 L 6.792969 4.808594 C 6.792969 4.269531 6.738281 3.660156 6.652344 3.050781 L 4.851562 3.050781 L 4.851562 7.855469 L 6.585938 7.855469 C 6.664062 7.175781 6.726562 6.472656 6.761719 5.820312 L 7.039062 5.835938 C 7.003906 6.484375 6.941406 7.179688 6.867188 7.855469 L 9.210938 7.855469 C 9.355469 7.105469 9.429688 6.296875 9.429688 5.453125 C 9.429688 4.644531 9.347656 3.839844 9.183594 3.050781 Z M 9.183594 3.050781 "/>
<path fill-rule="nonzero" fill="rgb(30%,30%,30%)" fill-opacity="1" d="M 4.574219 3.050781 L 2.585938 3.050781 C 2.449219 4.574219 2.460938 6.277344 2.625 7.855469 L 4.574219 7.855469 Z M 4.574219 3.050781 "/>
<path fill-rule="nonzero" fill="rgb(30%,30%,30%)" fill-opacity="1" d="M 2.316406 3.050781 L 0.242188 3.050781 C 0.0820312 3.839844 0 4.644531 0 5.453125 C 0 6.296875 0.046875 7.105469 0.15625 7.855469 L 2.351562 7.855469 C 2.191406 6.277344 2.179688 4.578125 2.316406 3.050781 Z M 2.316406 3.050781 "/>
<path fill-rule="nonzero" fill="rgb(30%,30%,30%)" fill-opacity="1" d="M 0.253906 8.410156 C 0.453125 9.425781 0.785156 10.3125 1.292969 11 L 2.9375 11 C 2.707031 10.238281 2.53125 9.355469 2.410156 8.410156 Z M 0.253906 8.410156 "/>
<path fill-rule="nonzero" fill="rgb(30%,30%,30%)" fill-opacity="1" d="M 4.851562 8.410156 L 4.851562 11 L 6.160156 11 C 6.253906 10.410156 6.394531 9.457031 6.523438 8.410156 Z M 4.851562 8.410156 "/>
<path fill-rule="nonzero" fill="rgb(30%,30%,30%)" fill-opacity="1" d="M 7.949219 11 C 8.457031 10.3125 8.839844 9.425781 9.089844 8.410156 L 6.800781 8.410156 C 6.675781 9.449219 6.535156 10.398438 6.441406 11 Z M 7.949219 11 "/>
<path fill-rule="nonzero" fill="rgb(30%,30%,30%)" fill-opacity="1" d="M 2.6875 8.410156 C 2.808594 9.359375 2.988281 10.246094 3.226562 11 L 4.574219 11 L 4.574219 8.410156 Z M 2.6875 8.410156 "/>
<path fill-rule="nonzero" fill="rgb(30%,30%,30%)" fill-opacity="1" d="M 9.054688 2.496094 C 8.804688 1.550781 8.441406 0.703125 7.988281 0 L 6.339844 0 C 6.492188 0.617188 6.695312 1.535156 6.851562 2.496094 Z M 9.054688 2.496094 "/>
<path fill-rule="nonzero" fill="rgb(30%,30%,30%)" fill-opacity="1" d="M 6.570312 2.496094 C 6.410156 1.527344 6.203125 0.601562 6.054688 0 L 4.851562 0 L 4.851562 2.496094 Z M 6.570312 2.496094 "/>
<path fill-rule="nonzero" fill="rgb(30%,30%,30%)" fill-opacity="1" d="M 4.574219 2.496094 L 4.574219 0 L 3.164062 0 C 2.929688 0.683594 2.757812 1.542969 2.644531 2.496094 Z M 4.574219 2.496094 "/>
<path fill-rule="nonzero" fill="rgb(30%,30%,30%)" fill-opacity="1" d="M 1.441406 0 C 0.988281 0.703125 0.625 1.550781 0.375 2.496094 L 2.375 2.496094 C 2.484375 1.554688 2.652344 0.695312 2.875 0 Z M 1.441406 0 "/>
<path fill-rule="nonzero" fill="rgb(30%,30%,30%)" fill-opacity="1" stroke-width="15" stroke-linecap="butt" stroke-linejoin="miter" stroke="rgb(100%, 100%, 100%)" stroke-opacity="1" stroke-miterlimit="10" d="M 598.063743 434.206321 C 598.063743 454.807351 581.26598 471.605114 560.66495 471.605114 C 540.06392 471.605114 523.266158 454.807351 523.266158 434.206321 C 523.266158 413.288352 540.06392 396.490589 560.66495 396.490589 C 581.26598 396.490589 598.063743 413.288352 598.063743 434.206321 Z M 598.063743 434.206321 " transform="matrix(0.0123249, 0, 0, 0.0123249, 0, 0)"/>
</svg>
