<?xml version="1.0" encoding="UTF-8" standalone="no"?>
<!-- Created with Inkscape (http://www.inkscape.org/) -->

<svg
   xmlns:dc="http://purl.org/dc/elements/1.1/"
   xmlns:cc="http://creativecommons.org/ns#"
   xmlns:rdf="http://www.w3.org/1999/02/22-rdf-syntax-ns#"
   xmlns:svg="http://www.w3.org/2000/svg"
   xmlns="http://www.w3.org/2000/svg"
   xmlns:xlink="http://www.w3.org/1999/xlink"
   xmlns:sodipodi="http://sodipodi.sourceforge.net/DTD/sodipodi-0.dtd"
   xmlns:inkscape="http://www.inkscape.org/namespaces/inkscape"
   width="30px"
   height="30px"
   version="1.1"
   id="svg8"
   inkscape:version="0.92.4 5da689c313, 2019-01-14"
   sodipodi:docname="container.svg">
  <defs
     id="defs2" />
  <sodipodi:namedview
     id="base"
     pagecolor="#ffffff"
     bordercolor="#666666"
     borderopacity="1.0"
     inkscape:pageopacity="0.0"
     inkscape:pageshadow="2"
     inkscape:zoom="13.049334"
     inkscape:cx="18.679046"
     inkscape:cy="12.165829"
     inkscape:document-units="px"
     inkscape:current-layer="layer1"
     showgrid="false"
     inkscape:snap-page="false"
     units="px"
     inkscape:window-width="1884"
     inkscape:window-height="1061"
     inkscape:window-x="0"
     inkscape:window-y="0"
     inkscape:window-maximized="1"
     fit-margin-top="0"
     fit-margin-left="0"
     fit-margin-right="0"
     fit-margin-bottom="0" />
  <metadata
     id="metadata5">
    <rdf:RDF>
      <cc:Work
         rdf:about="">
        <dc:format>image/svg+xml</dc:format>
        <dc:type
           rdf:resource="http://purl.org/dc/dcmitype/StillImage" />
        <dc:title></dc:title>
      </cc:Work>
    </rdf:RDF>
  </metadata>
    <circle
       style="color:#000000;clip-rule:nonzero;display:inline;overflow:visible;visibility:visible;opacity:1;isolation:auto;mix-blend-mode:normal;color-interpolation:sRGB;color-interpolation-filters:linearRGB;solid-color:#000000;solid-opacity:1;vector-effect:none;fill:#f25c05;fill-opacity:1;fill-rule:evenodd;stroke:#ffffff;stroke-width:1;stroke-linecap:butt;stroke-linejoin:miter;stroke-miterlimit:4;stroke-dasharray:none;stroke-dashoffset:0;stroke-opacity:1;marker:none;color-rendering:auto;image-rendering:auto;shape-rendering:auto;text-rendering:auto;enable-background:accumulate"
       id="path815"
       cx="15"
       cy="15"
       r="14.5" />
<g transform="translate(6.5,6.5)"><path fill-rule="nonzero" fill="#FFFFFF" fill-opacity="1" d="M 14.429688 2.671875 C 12.808594 0.941406 10.574219 -0.0195312 8.265625 0 C 5.980469 0.03125 3.769531 1.054688 2.195312 2.808594 C 0.652344 4.53125 -0.132812 6.804688 0.0195312 9.085938 C 0.0195312 9.089844 0.0195312 9.089844 0.0195312 9.09375 C 0.0507812 10.433594 2.003906 16.167969 2.222656 16.929688 C 2.234375 16.972656 2.273438 17 2.316406 17 L 14.3125 17 C 14.355469 17 14.390625 16.972656 14.402344 16.933594 C 14.628906 16.199219 16.699219 10.28125 16.753906 9.265625 C 16.871094 6.960938 16.007812 4.351562 14.429688 2.671875 Z M 15.335938 9.050781 L 14.761719 9.050781 C 14.726562 9.050781 14.699219 9.035156 14.679688 9.007812 C 14.660156 8.980469 14.660156 8.945312 14.671875 8.914062 C 14.765625 8.695312 14.832031 8.503906 14.851562 8.390625 C 14.90625 8.058594 14.992188 7.148438 14.410156 6.515625 C 13.902344 5.957031 13.097656 5.707031 12.679688 5.652344 C 12.539062 5.636719 12.324219 5.535156 12.257812 5.410156 C 12.257812 5.40625 12.253906 5.402344 12.25 5.398438 C 12.625 5.039062 13.4375 4.242188 13.5 4.03125 C 13.53125 3.921875 13.429688 3.839844 13.304688 3.753906 C 12.867188 3.453125 12.808594 3.421875 12.742188 4.011719 C 12.726562 4.171875 12.671875 4.328125 12.617188 4.417969 C 12.484375 4.636719 12.363281 4.867188 12.253906 5.101562 C 12.238281 5.132812 12.207031 5.152344 12.171875 5.15625 C 12.136719 5.15625 12.105469 5.140625 12.085938 5.109375 C 11.925781 4.859375 11.710938 4.625 11.402344 4.664062 C 10.988281 4.722656 8.367188 5.492188 8.476562 7.480469 C 8.511719 8.0625 8.785156 8.515625 9.15625 8.875 C 9.183594 8.902344 9.195312 8.945312 9.179688 8.980469 C 9.164062 9.015625 9.128906 9.039062 9.089844 9.039062 L 8.34375 9.039062 C 8.316406 9.039062 8.292969 9.027344 8.273438 9.007812 C 8.257812 8.992188 8.246094 8.964844 8.246094 8.941406 C 8.257812 8.464844 8.160156 7.984375 7.898438 7.5625 C 7.484375 6.902344 6.527344 6.496094 6.4375 6.402344 C 6.34375 6.3125 6.257812 5.839844 6.152344 5.582031 C 6.136719 5.550781 6.105469 5.527344 6.070312 5.523438 C 6.035156 5.519531 6 5.539062 5.980469 5.570312 C 5.753906 5.941406 5.042969 6.964844 3.53125 7.6875 C 3.328125 7.785156 2.929688 7.96875 2.507812 7.980469 C 2.414062 7.980469 2.3125 7.96875 2.230469 7.917969 C 2.058594 7.8125 1.996094 7.757812 1.953125 7.632812 C 2.246094 8.03125 3.34375 7.746094 4.414062 6.992188 C 5.492188 6.234375 6.132812 5.292969 5.84375 4.886719 C 5.558594 4.480469 4.457031 4.765625 3.378906 5.519531 C 2.988281 5.792969 2.625 6.117188 2.328125 6.488281 C 2.117188 6.75 1.898438 7.0625 1.882812 7.40625 C 1.871094 7.648438 1.960938 7.835938 2.140625 8 C 2.378906 8.21875 2.808594 8.167969 2.824219 8.601562 C 2.828125 8.757812 2.839844 8.898438 2.859375 9.03125 L 1.4375 9.027344 C 1.386719 9.027344 1.34375 8.988281 1.339844 8.933594 C 1.230469 7.03125 1.894531 5.132812 3.183594 3.695312 C 4.511719 2.214844 6.367188 1.351562 8.285156 1.328125 C 10.207031 1.304688 12.097656 2.121094 13.460938 3.578125 C 14.738281 4.9375 15.441406 7.0625 15.433594 8.953125 C 15.433594 9.007812 15.386719 9.050781 15.335938 9.050781 Z M 15.335938 9.050781 "/>
</g>
</svg>
