<?xml version="1.0" encoding="UTF-8" standalone="no"?>
<!-- Created with Inkscape (http://www.inkscape.org/) -->

<svg
   xmlns:dc="http://purl.org/dc/elements/1.1/"
   xmlns:cc="http://creativecommons.org/ns#"
   xmlns:rdf="http://www.w3.org/1999/02/22-rdf-syntax-ns#"
   xmlns:svg="http://www.w3.org/2000/svg"
   xmlns="http://www.w3.org/2000/svg"
   xmlns:xlink="http://www.w3.org/1999/xlink"
   xmlns:sodipodi="http://sodipodi.sourceforge.net/DTD/sodipodi-0.dtd"
   xmlns:inkscape="http://www.inkscape.org/namespaces/inkscape"
   width="30px"
   height="30px"
   version="1.1"
   id="svg8"
   inkscape:version="0.92.4 5da689c313, 2019-01-14"
   sodipodi:docname="container.svg">
  <defs
     id="defs2" />
  <sodipodi:namedview
     id="base"
     pagecolor="#ffffff"
     bordercolor="#666666"
     borderopacity="1.0"
     inkscape:pageopacity="0.0"
     inkscape:pageshadow="2"
     inkscape:zoom="13.049334"
     inkscape:cx="18.679046"
     inkscape:cy="12.165829"
     inkscape:document-units="px"
     inkscape:current-layer="layer1"
     showgrid="false"
     inkscape:snap-page="false"
     units="px"
     inkscape:window-width="1884"
     inkscape:window-height="1061"
     inkscape:window-x="0"
     inkscape:window-y="0"
     inkscape:window-maximized="1"
     fit-margin-top="0"
     fit-margin-left="0"
     fit-margin-right="0"
     fit-margin-bottom="0" />
  <metadata
     id="metadata5">
    <rdf:RDF>
      <cc:Work
         rdf:about="">
        <dc:format>image/svg+xml</dc:format>
        <dc:type
           rdf:resource="http://purl.org/dc/dcmitype/StillImage" />
        <dc:title></dc:title>
      </cc:Work>
    </rdf:RDF>
  </metadata>
    <circle
       style="color:#000000;clip-rule:nonzero;display:inline;overflow:visible;visibility:visible;opacity:1;isolation:auto;mix-blend-mode:normal;color-interpolation:sRGB;color-interpolation-filters:linearRGB;solid-color:#000000;solid-opacity:1;vector-effect:none;fill:#f25c05;fill-opacity:1;fill-rule:evenodd;stroke:#ffffff;stroke-width:1;stroke-linecap:butt;stroke-linejoin:miter;stroke-miterlimit:4;stroke-dasharray:none;stroke-dashoffset:0;stroke-opacity:1;marker:none;color-rendering:auto;image-rendering:auto;shape-rendering:auto;text-rendering:auto;enable-background:accumulate"
       id="path815"
       cx="15"
       cy="15"
       r="14.5" />
<g transform="translate(10.5,6.5)"><path fill-rule="nonzero" fill="#FFFFFF" fill-opacity="1" d="M 8.398438 2.769531 L 5.949219 2.757812 L 5.933594 0 L 0 0 L 0 17 L 8.671875 17 L 8.671875 2.769531 Z M 3.304688 0.554688 L 5.382812 0.554688 L 5.382812 0.867188 L 3.609375 0.867188 L 3.609375 2.785156 L 3.304688 2.785156 Z M 3.304688 3.339844 L 5.394531 3.335938 L 5.394531 3.675781 L 3.609375 3.675781 L 3.609375 5.28125 L 3.304688 5.28125 Z M 0.554688 0.554688 L 2.75 0.554688 L 2.75 0.867188 L 0.796875 0.867188 L 0.796875 2.792969 L 0.554688 2.792969 Z M 0.554688 3.347656 L 2.75 3.339844 L 2.75 3.675781 L 0.796875 3.675781 L 0.796875 5.265625 L 0.554688 5.265625 Z M 2.75 6.28125 L 0.796875 6.28125 L 0.796875 8.046875 L 0.554688 8.046875 L 0.554688 5.820312 L 2.75 5.832031 Z M 5.394531 6.28125 L 3.609375 6.28125 L 3.609375 8.039062 L 3.304688 8.039062 L 3.304688 5.835938 L 5.394531 5.847656 Z M 8.117188 6.28125 L 6.28125 6.28125 L 6.28125 8.03125 L 5.949219 8.035156 L 5.949219 5.851562 L 8.117188 5.863281 Z M 8.117188 3.710938 L 6.28125 3.710938 L 6.28125 5.296875 L 5.949219 5.296875 L 5.949219 3.332031 L 8.117188 3.328125 Z M 8.117188 3.710938 "/>
</g>
</svg>
