<?xml version="1.0" encoding="UTF-8"?>
<svg xmlns="http://www.w3.org/2000/svg" xmlns:xlink="http://www.w3.org/1999/xlink" width="5.612245" height="11" viewBox="0 0 5.612245 11">
<path fill-rule="nonzero" fill="rgb(30%,30%,30%)" fill-opacity="1" d="M 5.433594 1.792969 L 3.847656 1.785156 L 3.839844 0 L 0 0 L 0 11 L 5.613281 11 L 5.613281 1.792969 Z M 2.140625 0.359375 L 3.484375 0.359375 L 3.484375 0.5625 L 2.335938 0.5625 L 2.335938 1.800781 L 2.140625 1.800781 Z M 2.140625 2.160156 L 3.492188 2.15625 L 3.492188 2.378906 L 2.335938 2.378906 L 2.335938 3.417969 L 2.140625 3.417969 Z M 0.359375 0.359375 L 1.78125 0.359375 L 1.78125 0.5625 L 0.515625 0.5625 L 0.515625 1.804688 L 0.359375 1.808594 Z M 0.359375 2.164062 L 1.78125 2.160156 L 1.78125 2.378906 L 0.515625 2.378906 L 0.515625 3.40625 L 0.359375 3.40625 Z M 1.78125 4.0625 L 0.515625 4.0625 L 0.515625 5.207031 L 0.359375 5.207031 L 0.359375 3.765625 L 1.78125 3.773438 Z M 3.492188 4.0625 L 2.335938 4.0625 L 2.335938 5.203125 L 2.140625 5.203125 L 2.140625 3.777344 L 3.492188 3.785156 Z M 5.253906 4.0625 L 4.0625 4.0625 L 4.0625 5.199219 L 3.851562 5.199219 L 3.851562 3.785156 L 5.253906 3.792969 Z M 5.253906 2.402344 L 4.0625 2.402344 L 4.0625 3.429688 L 3.851562 3.425781 L 3.851562 2.15625 L 5.253906 2.152344 Z M 5.253906 2.402344 "/>
</svg>
