<?xml version="1.0" encoding="UTF-8"?>
<svg xmlns="http://www.w3.org/2000/svg" xmlns:xlink="http://www.w3.org/1999/xlink" width="10.70972" height="11" viewBox="0 0 10.70972 11">
<path fill-rule="nonzero" fill="rgb(30%,30%,30%)" fill-opacity="1" d="M 5.8125 6.136719 L 5.21875 6.136719 L 5.214844 5.832031 C 5.246094 5.824219 5.273438 5.8125 5.296875 5.804688 C 5.644531 5.664062 5.890625 5.308594 5.949219 4.847656 C 5.984375 4.589844 5.957031 4.324219 5.871094 4.078125 C 5.78125 3.808594 5.625 3.585938 5.421875 3.4375 C 5.160156 3.242188 4.707031 3.074219 4.007812 3.351562 C 3.882812 3.242188 3.640625 3.089844 3.335938 3.132812 C 3.167969 3.15625 3 3.195312 2.839844 3.253906 C 2.757812 3.203125 2.671875 3.164062 2.578125 3.136719 C 2.277344 3.054688 1.910156 3.089844 1.484375 3.242188 C 1.058594 3.394531 0.855469 3.691406 0.761719 3.917969 C 0.710938 4.039062 0.675781 4.164062 0.664062 4.296875 C 0.492188 4.480469 -0.0429688 5.140625 0.00390625 5.898438 C 0.0429688 6.570312 0.402344 6.988281 0.582031 7.15625 L 0.5625 10.078125 C 0.5625 10.488281 0.894531 10.820312 1.308594 10.820312 L 4.515625 10.820312 C 4.925781 10.820312 5.257812 10.488281 5.261719 10.078125 L 5.277344 9.757812 L 5.800781 9.75 C 6.214844 9.75 6.546875 9.414062 6.546875 9.003906 L 6.546875 6.875 C 6.546875 6.46875 6.21875 6.136719 5.8125 6.136719 Z M 4.839844 5.566406 C 4.609375 5.613281 4.320312 5.652344 4.066406 5.679688 C 4.039062 5.683594 4.011719 5.683594 3.984375 5.6875 L 3.980469 5.6875 C 3.957031 5.691406 3.929688 5.691406 3.90625 5.695312 L 3.902344 5.695312 C 3.890625 5.695312 3.878906 5.699219 3.867188 5.699219 L 3.863281 5.699219 C 3.851562 5.699219 3.84375 5.703125 3.832031 5.703125 L 3.828125 5.703125 C 3.816406 5.703125 3.804688 5.703125 3.792969 5.707031 L 3.789062 5.707031 C 3.78125 5.707031 3.769531 5.707031 3.761719 5.707031 L 3.757812 5.710938 L 3.722656 5.710938 L 3.695312 5.714844 L 3.691406 5.714844 C 3.683594 5.714844 3.675781 5.714844 3.667969 5.714844 L 3.660156 5.71875 L 3.636719 5.71875 C 3.621094 5.71875 3.601562 5.722656 3.585938 5.722656 C 3.496094 5.730469 3.421875 5.800781 3.417969 5.890625 C 3.414062 5.894531 3.371094 6.351562 3.160156 6.375 C 3.140625 6.351562 3.097656 6.277344 3.0625 6.109375 C 3.046875 6.023438 3.03125 5.933594 3.023438 5.847656 L 3.023438 5.839844 C 3.015625 5.738281 2.929688 5.664062 2.828125 5.671875 C 2.726562 5.679688 2.652344 5.765625 2.660156 5.867188 C 2.660156 5.867188 2.660156 5.875 2.660156 5.882812 C 2.703125 6.417969 2.679688 7.253906 2.488281 7.460938 C 2.464844 7.488281 2.449219 7.488281 2.4375 7.488281 C 2.429688 7.488281 2.425781 7.488281 2.410156 7.46875 C 2.375 7.429688 2.261719 7.238281 2.292969 6.519531 C 2.304688 6.203125 2.339844 5.914062 2.359375 5.792969 C 2.359375 5.789062 2.355469 5.785156 2.355469 5.78125 C 2.332031 5.554688 2.207031 5.527344 1.941406 5.628906 C 1.648438 5.742188 1.964844 7.949219 1.5625 8.011719 C 1.53125 8.019531 1.488281 7.992188 1.441406 7.957031 L 1.441406 7.964844 C 1.429688 7.960938 1.417969 7.957031 1.40625 7.949219 C 1.3125 7.894531 1.199219 7.746094 1.097656 7.539062 C 1.007812 7.359375 0.960938 7.203125 0.953125 7.148438 C 0.96875 7.082031 0.9375 7.007812 0.882812 6.96875 L 0.878906 6.964844 C 0.875 6.964844 0.875 6.960938 0.871094 6.960938 L 0.867188 6.957031 C 0.867188 6.957031 0.863281 6.953125 0.863281 6.953125 L 0.859375 6.949219 C 0.742188 6.851562 0.644531 6.730469 0.566406 6.601562 C 0.4375 6.386719 0.363281 6.144531 0.351562 5.894531 C 0.304688 5.179688 0.945312 4.527344 0.953125 4.519531 C 0.988281 4.488281 1.007812 4.441406 1.007812 4.390625 C 1.007812 4.386719 1.011719 3.8125 1.589844 3.605469 C 2.007812 3.457031 2.277344 3.464844 2.433594 3.5 C 2.574219 3.535156 2.640625 3.59375 2.652344 3.605469 C 2.707031 3.671875 2.792969 3.6875 2.871094 3.648438 C 2.875 3.648438 3.058594 3.558594 3.371094 3.511719 C 3.617188 3.476562 3.808594 3.699219 3.8125 3.703125 C 3.863281 3.765625 3.953125 3.785156 4.027344 3.75 C 4.5 3.539062 4.902344 3.539062 5.183594 3.746094 C 5.472656 3.960938 5.625 4.390625 5.570312 4.820312 C 5.527344 5.144531 5.367188 5.394531 5.144531 5.484375 C 5.070312 5.511719 4.960938 5.542969 4.839844 5.566406 Z M 6.15625 9.023438 C 6.160156 9.222656 6 9.382812 5.800781 9.382812 L 5.21875 9.382812 L 5.21875 6.546875 L 5.800781 6.546875 C 6 6.546875 6.15625 6.707031 6.15625 6.902344 Z M 10.636719 4.757812 C 10.324219 4.527344 9.292969 5.261719 8.9375 5.988281 C 8.570312 5.28125 7.652344 4.488281 7.371094 4.667969 C 6.898438 4.992188 7.933594 7.515625 8.914062 6.855469 C 8.929688 6.84375 8.941406 6.832031 8.957031 6.824219 C 8.988281 6.859375 9.023438 6.890625 9.058594 6.921875 C 9.789062 7.472656 11.023438 5.066406 10.636719 4.757812 Z M 10.636719 4.757812 "/>
<path fill-rule="nonzero" fill="rgb(30%,30%,30%)" fill-opacity="1" d="M 8.886719 7.800781 C 8.535156 7.089844 7.585938 6.261719 7.300781 6.441406 C 6.855469 6.75 7.753906 9.015625 8.683594 8.710938 L 8.636719 10.808594 C 8.636719 10.910156 8.71875 10.996094 8.824219 11 C 8.925781 11 9.011719 10.917969 9.015625 10.816406 L 9.054688 8.796875 C 9.917969 9.117188 11.042969 6.894531 10.515625 6.574219 C 10.214844 6.347656 9.269531 7.097656 8.886719 7.800781 Z M 9.113281 0 C 9.011719 -0.00390625 8.925781 0.0820312 8.921875 0.183594 L 8.902344 1.15625 C 8.378906 1.386719 8.152344 2.542969 8.371094 3.285156 C 8.167969 3.089844 7.960938 2.933594 7.789062 2.847656 L 7.804688 1.929688 C 7.808594 1.824219 7.726562 1.738281 7.621094 1.738281 C 7.519531 1.734375 7.433594 1.816406 7.429688 1.921875 L 7.410156 2.839844 C 7.046875 3.273438 8.019531 5.570312 8.957031 5.011719 C 9.007812 5.078125 9.089844 5.121094 9.214844 5.136719 C 10.128906 5.253906 10.660156 3.6875 10.621094 3.160156 L 10.644531 2.09375 C 10.644531 1.992188 10.5625 1.90625 10.460938 1.902344 C 10.355469 1.902344 10.269531 1.984375 10.265625 2.085938 L 10.246094 3.03125 C 10.078125 3.101562 9.882812 3.242188 9.699219 3.421875 C 9.972656 2.726562 9.746094 1.535156 9.277344 1.207031 L 9.300781 0.191406 C 9.300781 0.0898438 9.21875 0.00390625 9.113281 0 Z M 8.886719 3.90625 C 8.9375 3.917969 8.992188 3.925781 9.042969 3.925781 C 9.128906 3.925781 9.214844 3.910156 9.296875 3.875 C 9.210938 3.988281 9.136719 4.109375 9.070312 4.230469 C 9.015625 4.117188 8.957031 4.007812 8.886719 3.90625 Z M 8.886719 3.90625 "/>
</svg>
