<?xml version="1.0" encoding="UTF-8"?>
<svg xmlns="http://www.w3.org/2000/svg" xmlns:xlink="http://www.w3.org/1999/xlink" width="10.60241" height="11" viewBox="0 0 10.60241 11">
<path fill-rule="nonzero" fill="rgb(30%,30%,30%)" fill-opacity="1" d="M 10.488281 7.308594 L 10.03125 7.308594 C 9.96875 6.289062 9.769531 5.539062 9.527344 5.539062 C 9.523438 5.539062 9.519531 5.539062 9.515625 5.542969 C 9.519531 5.539062 9.523438 5.539062 9.527344 5.539062 L 8.078125 5.539062 C 7.839844 5.539062 7.636719 6.289062 7.574219 7.308594 L 7.367188 7.308594 L 7.402344 3.578125 L 9.824219 1.742188 L 9.820312 1.742188 C 9.824219 1.738281 9.824219 1.734375 9.824219 1.730469 L 9.824219 0.179688 C 9.824219 0.0820312 8.359375 0 6.550781 0 C 4.742188 0 3.273438 0.0820312 3.273438 0.179688 L 3.273438 1.730469 C 3.277344 1.734375 3.277344 1.738281 3.28125 1.742188 L 3.273438 1.742188 L 5.679688 3.578125 L 5.6875 7.308594 L 5.074219 7.308594 L 5.074219 5.902344 L 5.585938 4.429688 L 0.8125 4.449219 L 0 6.050781 L 0 11 L 5.074219 11 L 5.074219 8.65625 L 5.691406 8.660156 L 5.695312 10.953125 C 5.695312 10.976562 6.0625 11 6.511719 11 C 6.964844 11 7.332031 10.976562 7.332031 10.953125 L 7.355469 8.664062 L 7.574219 8.664062 C 7.636719 9.6875 7.839844 10.4375 8.078125 10.4375 L 9.527344 10.4375 C 9.523438 10.4375 9.519531 10.4375 9.515625 10.4375 C 9.519531 10.4375 9.523438 10.4375 9.527344 10.4375 C 9.769531 10.4375 9.96875 9.691406 10.03125 8.671875 L 10.488281 8.671875 C 10.550781 8.671875 10.601562 8.367188 10.601562 7.988281 C 10.601562 7.613281 10.550781 7.308594 10.488281 7.308594 Z M 9.636719 6.496094 C 9.683594 6.765625 9.714844 7.035156 9.730469 7.308594 L 9.328125 7.308594 C 9.34375 7.035156 9.375 6.765625 9.417969 6.496094 C 9.457031 6.285156 9.496094 6.140625 9.527344 6.035156 C 9.5625 6.140625 9.601562 6.285156 9.636719 6.496094 Z M 9.511719 5.542969 C 9.507812 5.542969 9.507812 5.542969 9.503906 5.542969 C 9.507812 5.542969 9.507812 5.542969 9.511719 5.542969 Z M 9.5 5.542969 C 9.496094 5.546875 9.492188 5.546875 9.492188 5.546875 C 9.492188 5.546875 9.496094 5.546875 9.5 5.542969 Z M 9.488281 5.546875 C 9.484375 5.550781 9.480469 5.550781 9.476562 5.550781 C 9.480469 5.550781 9.484375 5.550781 9.488281 5.546875 Z M 9.472656 5.554688 C 9.46875 5.554688 9.464844 5.558594 9.460938 5.558594 C 9.464844 5.558594 9.46875 5.554688 9.472656 5.554688 Z M 9.460938 5.5625 C 9.457031 5.5625 9.453125 5.566406 9.449219 5.566406 C 9.453125 5.566406 9.457031 5.5625 9.460938 5.5625 Z M 9.445312 5.570312 C 9.441406 5.574219 9.441406 5.574219 9.4375 5.578125 C 9.441406 5.574219 9.441406 5.574219 9.445312 5.570312 Z M 9.433594 5.582031 C 9.429688 5.582031 9.429688 5.585938 9.425781 5.585938 C 9.429688 5.585938 9.429688 5.582031 9.433594 5.582031 Z M 9.421875 5.589844 C 9.417969 5.59375 9.414062 5.597656 9.414062 5.601562 C 9.414062 5.597656 9.417969 5.59375 9.421875 5.589844 Z M 9.023438 7.304688 L 9.023438 7.308594 Z M 9.410156 5.605469 C 9.40625 5.609375 9.402344 5.613281 9.398438 5.617188 C 9.402344 5.613281 9.40625 5.609375 9.410156 5.605469 Z M 9.394531 5.621094 C 9.390625 5.625 9.390625 5.628906 9.386719 5.632812 C 9.390625 5.628906 9.390625 5.625 9.394531 5.621094 Z M 9.382812 5.636719 C 9.378906 5.640625 9.378906 5.644531 9.375 5.648438 C 9.378906 5.644531 9.378906 5.640625 9.382812 5.636719 Z M 9.371094 5.652344 C 9.367188 5.65625 9.367188 5.660156 9.363281 5.664062 C 9.367188 5.660156 9.367188 5.65625 9.371094 5.652344 Z M 9.359375 5.671875 C 9.355469 5.675781 9.351562 5.679688 9.351562 5.6875 C 9.351562 5.679688 9.355469 5.675781 9.359375 5.671875 Z M 9.347656 5.691406 C 9.34375 5.695312 9.339844 5.703125 9.335938 5.707031 C 9.339844 5.703125 9.34375 5.695312 9.347656 5.691406 Z M 9.332031 5.714844 C 9.332031 5.71875 9.328125 5.726562 9.324219 5.730469 C 9.328125 5.726562 9.332031 5.71875 9.332031 5.714844 Z M 9.320312 5.738281 C 9.320312 5.742188 9.316406 5.746094 9.316406 5.75 C 9.316406 5.746094 9.320312 5.742188 9.320312 5.738281 Z M 9.3125 5.761719 C 9.308594 5.765625 9.304688 5.769531 9.304688 5.773438 C 9.304688 5.769531 9.308594 5.765625 9.3125 5.761719 Z M 9.300781 5.785156 C 9.296875 5.792969 9.292969 5.796875 9.289062 5.804688 C 9.292969 5.796875 9.296875 5.792969 9.300781 5.785156 Z M 9.285156 5.816406 C 9.285156 5.820312 9.28125 5.828125 9.28125 5.832031 C 9.28125 5.828125 9.285156 5.820312 9.285156 5.816406 Z M 9.273438 5.84375 C 9.273438 5.847656 9.269531 5.855469 9.269531 5.859375 C 9.269531 5.855469 9.273438 5.847656 9.273438 5.84375 Z M 9.265625 5.871094 C 9.261719 5.875 9.261719 5.882812 9.257812 5.886719 C 9.261719 5.882812 9.261719 5.875 9.265625 5.871094 Z M 9.253906 5.898438 C 9.253906 5.90625 9.25 5.910156 9.25 5.917969 C 9.25 5.910156 9.253906 5.90625 9.253906 5.898438 Z M 9.246094 5.929688 C 9.242188 5.9375 9.238281 5.945312 9.234375 5.957031 C 9.238281 5.945312 9.242188 5.9375 9.246094 5.929688 Z M 9.230469 5.972656 C 9.230469 5.976562 9.226562 5.980469 9.226562 5.988281 C 9.226562 5.980469 9.230469 5.976562 9.230469 5.972656 Z M 9.222656 6.003906 C 9.21875 6.007812 9.21875 6.011719 9.21875 6.019531 C 9.21875 6.011719 9.21875 6.007812 9.222656 6.003906 Z M 9.210938 6.035156 C 9.210938 6.039062 9.210938 6.046875 9.207031 6.050781 C 9.210938 6.046875 9.210938 6.039062 9.210938 6.035156 Z M 9.203125 6.070312 C 9.203125 6.074219 9.199219 6.078125 9.199219 6.085938 C 9.199219 6.078125 9.203125 6.074219 9.203125 6.070312 Z M 9.191406 6.117188 C 9.1875 6.125 9.1875 6.128906 9.1875 6.132812 C 9.1875 6.128906 9.1875 6.125 9.191406 6.117188 Z M 9.179688 6.152344 C 9.179688 6.160156 9.179688 6.164062 9.175781 6.167969 C 9.179688 6.164062 9.179688 6.160156 9.179688 6.152344 Z M 9.171875 6.191406 C 9.171875 6.195312 9.171875 6.199219 9.167969 6.207031 C 9.171875 6.199219 9.171875 6.195312 9.171875 6.191406 Z M 9.164062 6.226562 C 9.164062 6.230469 9.164062 6.238281 9.160156 6.242188 C 9.164062 6.238281 9.164062 6.230469 9.164062 6.226562 Z M 9.15625 6.265625 C 9.15625 6.269531 9.15625 6.273438 9.152344 6.277344 C 9.15625 6.273438 9.15625 6.269531 9.15625 6.265625 Z M 9.144531 6.328125 C 9.144531 6.328125 9.140625 6.332031 9.140625 6.335938 C 9.140625 6.332031 9.144531 6.328125 9.144531 6.328125 Z M 9.136719 6.363281 C 9.136719 6.367188 9.132812 6.371094 9.132812 6.375 C 9.132812 6.371094 9.136719 6.367188 9.136719 6.363281 Z M 9.128906 6.402344 C 9.128906 6.40625 9.128906 6.410156 9.125 6.417969 C 9.128906 6.410156 9.128906 6.40625 9.128906 6.402344 Z M 9.121094 6.441406 C 9.121094 6.445312 9.121094 6.453125 9.121094 6.457031 C 9.121094 6.453125 9.121094 6.445312 9.121094 6.441406 Z M 9.101562 6.554688 C 9.101562 6.554688 9.101562 6.558594 9.101562 6.5625 C 9.101562 6.558594 9.101562 6.554688 9.101562 6.554688 Z M 9.097656 6.59375 C 9.097656 6.597656 9.097656 6.601562 9.09375 6.605469 C 9.097656 6.601562 9.097656 6.597656 9.097656 6.59375 Z M 9.089844 6.636719 C 9.089844 6.640625 9.089844 6.644531 9.089844 6.648438 C 9.089844 6.644531 9.089844 6.640625 9.089844 6.636719 Z M 9.085938 6.679688 C 9.085938 6.683594 9.085938 6.6875 9.082031 6.691406 C 9.085938 6.6875 9.085938 6.683594 9.085938 6.679688 Z M 9.070312 6.800781 C 9.070312 6.804688 9.070312 6.808594 9.070312 6.8125 C 9.070312 6.808594 9.070312 6.804688 9.070312 6.800781 Z M 9.066406 6.84375 C 9.0625 6.847656 9.0625 6.851562 9.0625 6.855469 C 9.0625 6.851562 9.0625 6.847656 9.066406 6.84375 Z M 9.058594 6.890625 C 9.058594 6.894531 9.058594 6.898438 9.058594 6.902344 C 9.058594 6.898438 9.058594 6.894531 9.058594 6.890625 Z M 9.054688 6.9375 C 9.054688 6.941406 9.054688 6.941406 9.054688 6.941406 C 9.054688 6.941406 9.054688 6.941406 9.054688 6.9375 Z M 9.042969 7.066406 C 9.042969 7.070312 9.042969 7.074219 9.042969 7.078125 C 9.042969 7.074219 9.042969 7.070312 9.042969 7.066406 Z M 9.039062 7.113281 C 9.039062 7.117188 9.039062 7.121094 9.039062 7.125 C 9.039062 7.121094 9.039062 7.117188 9.039062 7.113281 Z M 9.035156 7.164062 C 9.035156 7.167969 9.035156 7.171875 9.035156 7.175781 C 9.035156 7.171875 9.035156 7.167969 9.035156 7.164062 Z M 9.023438 8.667969 C 9.023438 8.667969 9.023438 8.671875 9.023438 8.671875 C 9.023438 8.671875 9.023438 8.667969 9.023438 8.667969 Z M 9.414062 10.378906 C 9.414062 10.382812 9.417969 10.382812 9.421875 10.386719 C 9.417969 10.382812 9.414062 10.382812 9.414062 10.378906 Z M 9.03125 8.746094 C 9.03125 8.753906 9.03125 8.757812 9.03125 8.765625 C 9.03125 8.757812 9.03125 8.753906 9.03125 8.746094 Z M 9.03125 8.796875 C 9.035156 8.804688 9.035156 8.808594 9.035156 8.816406 C 9.035156 8.808594 9.035156 8.804688 9.03125 8.796875 Z M 9.035156 8.847656 C 9.039062 8.855469 9.039062 8.859375 9.039062 8.867188 C 9.039062 8.859375 9.039062 8.855469 9.035156 8.847656 Z M 9.042969 8.898438 C 9.042969 8.902344 9.042969 8.910156 9.042969 8.914062 C 9.042969 8.910156 9.042969 8.902344 9.042969 8.898438 Z M 9.050781 9.023438 C 9.054688 9.027344 9.054688 9.035156 9.054688 9.042969 C 9.054688 9.035156 9.054688 9.027344 9.050781 9.023438 Z M 9.058594 9.070312 C 9.058594 9.078125 9.058594 9.082031 9.058594 9.089844 C 9.058594 9.082031 9.058594 9.078125 9.058594 9.070312 Z M 9.0625 9.117188 C 9.0625 9.125 9.0625 9.128906 9.066406 9.136719 C 9.0625 9.128906 9.0625 9.125 9.0625 9.117188 Z M 9.066406 9.164062 C 9.070312 9.171875 9.070312 9.175781 9.070312 9.183594 C 9.070312 9.175781 9.070312 9.171875 9.066406 9.164062 Z M 9.078125 9.242188 C 9.078125 9.246094 9.078125 9.25 9.078125 9.253906 C 9.078125 9.25 9.078125 9.246094 9.078125 9.242188 Z M 9.082031 9.28125 C 9.082031 9.285156 9.085938 9.292969 9.085938 9.300781 C 9.085938 9.292969 9.082031 9.285156 9.082031 9.28125 Z M 9.089844 9.324219 C 9.089844 9.332031 9.089844 9.339844 9.089844 9.34375 C 9.089844 9.339844 9.089844 9.332031 9.089844 9.324219 Z M 9.09375 9.371094 C 9.097656 9.375 9.097656 9.382812 9.097656 9.386719 C 9.097656 9.382812 9.097656 9.375 9.09375 9.371094 Z M 9.101562 9.414062 C 9.101562 9.417969 9.101562 9.425781 9.105469 9.429688 C 9.101562 9.425781 9.101562 9.417969 9.101562 9.414062 Z M 9.113281 9.476562 C 9.113281 9.484375 9.113281 9.488281 9.113281 9.496094 C 9.113281 9.488281 9.113281 9.484375 9.113281 9.476562 Z M 9.117188 9.519531 C 9.121094 9.523438 9.121094 9.53125 9.121094 9.539062 C 9.121094 9.53125 9.121094 9.523438 9.117188 9.519531 Z M 9.125 9.558594 C 9.125 9.566406 9.128906 9.574219 9.128906 9.578125 C 9.128906 9.574219 9.125 9.566406 9.125 9.558594 Z M 9.132812 9.601562 C 9.132812 9.605469 9.136719 9.613281 9.136719 9.621094 C 9.136719 9.613281 9.132812 9.605469 9.132812 9.601562 Z M 9.140625 9.640625 C 9.140625 9.648438 9.144531 9.65625 9.144531 9.664062 C 9.144531 9.65625 9.140625 9.648438 9.140625 9.640625 Z M 9.152344 9.695312 C 9.152344 9.703125 9.15625 9.707031 9.15625 9.714844 C 9.15625 9.707031 9.152344 9.703125 9.152344 9.695312 Z M 9.160156 9.734375 C 9.160156 9.742188 9.164062 9.746094 9.164062 9.753906 C 9.164062 9.746094 9.160156 9.742188 9.160156 9.734375 Z M 9.167969 9.773438 C 9.171875 9.777344 9.171875 9.785156 9.171875 9.789062 C 9.171875 9.785156 9.171875 9.777344 9.167969 9.773438 Z M 9.175781 9.808594 C 9.179688 9.816406 9.179688 9.820312 9.183594 9.828125 C 9.179688 9.820312 9.179688 9.816406 9.175781 9.808594 Z M 9.1875 9.84375 C 9.1875 9.855469 9.191406 9.867188 9.195312 9.875 C 9.191406 9.867188 9.1875 9.855469 9.1875 9.84375 Z M 9.199219 9.890625 C 9.199219 9.898438 9.203125 9.90625 9.203125 9.910156 C 9.203125 9.90625 9.199219 9.898438 9.199219 9.890625 Z M 9.207031 9.925781 C 9.207031 9.933594 9.210938 9.9375 9.210938 9.945312 C 9.210938 9.9375 9.207031 9.933594 9.207031 9.925781 Z M 9.214844 9.960938 C 9.21875 9.964844 9.21875 9.972656 9.222656 9.976562 C 9.21875 9.972656 9.21875 9.964844 9.214844 9.960938 Z M 9.226562 9.992188 C 9.226562 9.996094 9.230469 10.003906 9.230469 10.011719 C 9.230469 10.003906 9.226562 9.996094 9.226562 9.992188 Z M 9.234375 10.023438 C 9.238281 10.03125 9.242188 10.039062 9.246094 10.050781 C 9.242188 10.039062 9.238281 10.03125 9.234375 10.023438 Z M 9.25 10.0625 C 9.25 10.066406 9.253906 10.074219 9.253906 10.078125 C 9.253906 10.074219 9.25 10.066406 9.25 10.0625 Z M 9.257812 10.089844 C 9.261719 10.097656 9.261719 10.101562 9.265625 10.109375 C 9.261719 10.101562 9.261719 10.097656 9.257812 10.089844 Z M 9.269531 10.121094 C 9.269531 10.125 9.273438 10.128906 9.273438 10.136719 C 9.273438 10.128906 9.269531 10.125 9.269531 10.121094 Z M 9.28125 10.144531 C 9.28125 10.152344 9.285156 10.160156 9.289062 10.167969 C 9.285156 10.160156 9.28125 10.152344 9.28125 10.144531 Z M 9.292969 10.175781 C 9.292969 10.179688 9.296875 10.1875 9.300781 10.195312 C 9.296875 10.1875 9.292969 10.179688 9.292969 10.175781 Z M 9.304688 10.203125 C 9.304688 10.207031 9.308594 10.214844 9.3125 10.21875 C 9.308594 10.214844 9.304688 10.207031 9.304688 10.203125 Z M 9.316406 10.226562 C 9.316406 10.230469 9.320312 10.238281 9.320312 10.242188 C 9.320312 10.238281 9.316406 10.230469 9.316406 10.226562 Z M 9.324219 10.25 C 9.328125 10.253906 9.332031 10.257812 9.332031 10.261719 C 9.332031 10.257812 9.328125 10.253906 9.324219 10.25 Z M 9.335938 10.269531 C 9.339844 10.277344 9.34375 10.285156 9.347656 10.289062 C 9.34375 10.285156 9.339844 10.277344 9.335938 10.269531 Z M 9.351562 10.292969 C 9.351562 10.296875 9.355469 10.304688 9.359375 10.308594 C 9.355469 10.304688 9.351562 10.296875 9.351562 10.292969 Z M 9.363281 10.316406 C 9.367188 10.316406 9.367188 10.320312 9.371094 10.324219 C 9.367188 10.320312 9.367188 10.316406 9.363281 10.316406 Z M 9.375 10.332031 C 9.378906 10.335938 9.378906 10.339844 9.382812 10.34375 C 9.378906 10.339844 9.378906 10.335938 9.375 10.332031 Z M 9.386719 10.347656 C 9.390625 10.351562 9.390625 10.355469 9.394531 10.359375 C 9.390625 10.355469 9.390625 10.351562 9.386719 10.347656 Z M 9.398438 10.363281 C 9.402344 10.367188 9.40625 10.371094 9.410156 10.375 C 9.40625 10.371094 9.402344 10.367188 9.398438 10.363281 Z M 9.503906 10.4375 C 9.507812 10.4375 9.507812 10.4375 9.511719 10.4375 C 9.507812 10.4375 9.507812 10.4375 9.503906 10.4375 Z M 9.425781 10.390625 C 9.429688 10.394531 9.429688 10.394531 9.433594 10.398438 C 9.429688 10.394531 9.429688 10.394531 9.425781 10.390625 Z M 9.4375 10.402344 C 9.441406 10.40625 9.441406 10.40625 9.445312 10.410156 C 9.441406 10.40625 9.441406 10.40625 9.4375 10.402344 Z M 9.449219 10.410156 C 9.453125 10.414062 9.457031 10.414062 9.460938 10.417969 C 9.457031 10.414062 9.453125 10.414062 9.449219 10.410156 Z M 9.460938 10.417969 C 9.464844 10.421875 9.46875 10.421875 9.472656 10.425781 C 9.46875 10.421875 9.464844 10.421875 9.460938 10.417969 Z M 9.476562 10.425781 C 9.480469 10.429688 9.484375 10.429688 9.488281 10.429688 C 9.484375 10.429688 9.480469 10.429688 9.476562 10.425781 Z M 9.492188 10.433594 C 9.492188 10.433594 9.496094 10.433594 9.5 10.433594 C 9.496094 10.433594 9.492188 10.433594 9.492188 10.433594 Z M 9.636719 9.484375 C 9.601562 9.691406 9.5625 9.839844 9.527344 9.945312 C 9.496094 9.839844 9.457031 9.691406 9.417969 9.484375 C 9.375 9.214844 9.34375 8.941406 9.328125 8.667969 L 9.730469 8.667969 C 9.714844 8.941406 9.683594 9.214844 9.636719 9.484375 Z M 9.636719 9.484375 "/>
</svg>
