<?xml version="1.0" encoding="UTF-8"?>
<svg xmlns="http://www.w3.org/2000/svg" xmlns:xlink="http://www.w3.org/1999/xlink" width="11" height="8.65992" viewBox="0 0 11 8.65992">
<path fill-rule="nonzero" fill="rgb(30%,30%,30%)" fill-opacity="1" d="M 9.605469 7.070312 L 10.675781 7.070312 C 11.117188 7.070312 10.980469 7.78125 10.976562 8.230469 C 10.972656 8.507812 10.988281 8.660156 10.550781 8.65625 C 10.421875 8.65625 10.292969 8.660156 10.167969 8.660156 C 7.035156 8.660156 4.015625 8.660156 0.75 8.660156 C 0.046875 8.660156 -0.00390625 8.609375 0 7.921875 C 0 7.886719 0 7.847656 0 7.808594 C 0 7.121094 0.0507812 7.070312 0.753906 7.070312 C 2.773438 7.070312 4.789062 7.070312 6.808594 7.070312 C 6.933594 7.070312 7.0625 7.070312 7.222656 7.070312 C 7.484375 6.09375 7.742188 5.128906 8 4.164062 C 8.03125 4.050781 8.058594 3.941406 8.089844 3.828125 C 8.21875 3.335938 8.164062 2.894531 7.675781 2.742188 C 7.550781 2.703125 7.148438 2.722656 6.96875 2.71875 C 5.851562 2.714844 4.730469 2.738281 3.613281 2.738281 C 2.992188 2.773438 2.71875 2.652344 2.570312 3.328125 C 2.253906 4.761719 1.980469 5.011719 1.515625 5.285156 C 1.515625 5.285156 1.507812 6.21875 1.507812 6.539062 C 1.460938 6.542969 1.417969 6.535156 1.371094 6.539062 C 1.371094 6.277344 1.339844 5.277344 1.339844 5.277344 C 0.90625 5.277344 0.789062 4.648438 0.769531 4.339844 C 0.71875 3.492188 0.738281 2.640625 0.75 1.792969 C 0.753906 1.472656 0.921875 1.128906 1.25 1.128906 C 1.472656 1.128906 1.722656 1.148438 1.886719 1.347656 C 2.238281 1.773438 2.707031 1.917969 3.230469 1.855469 C 4.859375 1.660156 6.492188 1.371094 8.148438 1.160156 L 8.183594 0 C 8.25 0 8.183594 0 8.25 0 C 8.269531 0.375 8.289062 0.734375 8.3125 1.167969 C 8.738281 1.074219 9.214844 0.984375 9.449219 1.421875 C 9.59375 1.6875 9.542969 2.203125 9.605469 2.554688 L 9.953125 2.554688 C 9.953125 2.554688 9.957031 1.34375 9.960938 0.917969 C 9.96875 0.605469 10.03125 0.382812 10.363281 0.398438 C 10.746094 0.414062 10.765625 0.730469 10.765625 1.1875 L 10.765625 3.601562 C 10.765625 4.175781 10.753906 4.488281 10.359375 4.488281 C 10.015625 4.488281 9.960938 4.015625 9.953125 3.699219 C 9.949219 3.429688 9.953125 3.160156 9.953125 3.160156 L 9.65625 3.160156 C 9.65625 3.160156 9.605469 6.664062 9.605469 7.070312 Z M 9.605469 7.070312 "/>
</svg>
