<?xml version="1.0" encoding="UTF-8" standalone="no"?>
<!-- Created with Inkscape (http://www.inkscape.org/) -->

<svg
   xmlns:dc="http://purl.org/dc/elements/1.1/"
   xmlns:cc="http://creativecommons.org/ns#"
   xmlns:rdf="http://www.w3.org/1999/02/22-rdf-syntax-ns#"
   xmlns:svg="http://www.w3.org/2000/svg"
   xmlns="http://www.w3.org/2000/svg"
   xmlns:xlink="http://www.w3.org/1999/xlink"
   xmlns:sodipodi="http://sodipodi.sourceforge.net/DTD/sodipodi-0.dtd"
   xmlns:inkscape="http://www.inkscape.org/namespaces/inkscape"
   width="30px"
   height="30px"
   version="1.1"
   id="svg8"
   inkscape:version="0.92.4 5da689c313, 2019-01-14"
   sodipodi:docname="container.svg">
  <defs
     id="defs2" />
  <sodipodi:namedview
     id="base"
     pagecolor="#ffffff"
     bordercolor="#666666"
     borderopacity="1.0"
     inkscape:pageopacity="0.0"
     inkscape:pageshadow="2"
     inkscape:zoom="13.049334"
     inkscape:cx="18.679046"
     inkscape:cy="12.165829"
     inkscape:document-units="px"
     inkscape:current-layer="layer1"
     showgrid="false"
     inkscape:snap-page="false"
     units="px"
     inkscape:window-width="1884"
     inkscape:window-height="1061"
     inkscape:window-x="0"
     inkscape:window-y="0"
     inkscape:window-maximized="1"
     fit-margin-top="0"
     fit-margin-left="0"
     fit-margin-right="0"
     fit-margin-bottom="0" />
  <metadata
     id="metadata5">
    <rdf:RDF>
      <cc:Work
         rdf:about="">
        <dc:format>image/svg+xml</dc:format>
        <dc:type
           rdf:resource="http://purl.org/dc/dcmitype/StillImage" />
        <dc:title></dc:title>
      </cc:Work>
    </rdf:RDF>
  </metadata>
    <circle
       style="color:#000000;clip-rule:nonzero;display:inline;overflow:visible;visibility:visible;opacity:1;isolation:auto;mix-blend-mode:normal;color-interpolation:sRGB;color-interpolation-filters:linearRGB;solid-color:#000000;solid-opacity:1;vector-effect:none;fill:#ffffff;fill-opacity:1;fill-rule:evenodd;stroke:#f25c05;stroke-width:1;stroke-linecap:butt;stroke-linejoin:miter;stroke-miterlimit:4;stroke-dasharray:none;stroke-dashoffset:0;stroke-opacity:1;marker:none;color-rendering:auto;image-rendering:auto;shape-rendering:auto;text-rendering:auto;enable-background:accumulate"
       id="path815"
       cx="15"
       cy="15"
       r="14.5" />
<g transform="translate(10.0,6.5)"><path fill-rule="nonzero" fill="rgb(30%,30%,30%)" fill-opacity="1" d="M 9.148438 9.890625 C 9.835938 9.125 10.285156 7.832031 10.285156 6.371094 C 10.289062 3.71875 9.066406 2.066406 7.625 2.066406 C 7.398438 2.070312 7.175781 2.117188 6.972656 2.210938 C 7.144531 2.132812 7.332031 2.082031 7.519531 2.0625 L 6.082031 2.136719 C 5.925781 2.140625 5.769531 2.160156 5.617188 2.199219 L 5.589844 0.0859375 C 5.589844 0.0390625 5.285156 0 4.90625 0 C 4.53125 0 4.222656 0.0390625 4.222656 0.0859375 L 4.261719 3.066406 C 3.550781 3.828125 3.03125 5.003906 3.03125 6.347656 C 3.03125 7.648438 3.371094 8.683594 3.914062 9.371094 C 1.679688 9.46875 0 9.902344 0 10.421875 L 0.0898438 15.175781 C 0.0898438 15.769531 2.191406 17 4.890625 17 C 7.589844 17 9.621094 15.734375 9.621094 15.140625 L 9.78125 10.421875 C 9.78125 10.230469 9.546875 10.046875 9.148438 9.890625 Z M 5.652344 5.15625 C 5.765625 4.574219 5.960938 4.039062 6.234375 3.597656 C 6.636719 2.9375 7.148438 2.574219 7.675781 2.574219 C 8.0625 2.574219 8.632812 2.734375 9.121094 3.496094 C 9.574219 4.199219 9.8125 5.195312 9.8125 6.371094 C 9.808594 7.808594 9.332031 9.09375 8.644531 9.734375 C 8.367188 9.953125 8.386719 9.929688 8.25 10.019531 C 8.074219 10.113281 7.875 10.164062 7.675781 10.167969 C 7.363281 10.167969 7.058594 10.039062 6.78125 9.800781 C 6.640625 9.683594 6.515625 9.546875 6.40625 9.402344 C 6.347656 9.320312 6.289062 9.234375 6.234375 9.144531 C 5.984375 8.738281 5.800781 8.257812 5.683594 7.734375 C 5.585938 7.285156 5.535156 6.828125 5.535156 6.371094 C 5.535156 5.964844 5.574219 5.558594 5.652344 5.15625 Z M 8.054688 10.867188 C 7.183594 11.035156 6.058594 11.128906 4.890625 11.128906 C 3.722656 11.128906 2.597656 11.035156 1.726562 10.867188 C 0.898438 10.707031 0.53125 10.519531 0.40625 10.421875 C 0.53125 10.324219 0.898438 10.140625 1.726562 9.976562 C 2.4375 9.839844 3.316406 9.753906 4.25 9.726562 C 4.28125 9.753906 4.308594 9.777344 4.339844 9.804688 L 4.347656 10.296875 C 4.347656 10.34375 4.652344 10.382812 5.03125 10.382812 C 5.34375 10.382812 5.605469 10.355469 5.6875 10.320312 L 7.167969 10.558594 C 7.199219 10.566406 7.230469 10.578125 7.261719 10.585938 C 7.273438 10.585938 7.285156 10.589844 7.296875 10.59375 C 7.328125 10.601562 7.355469 10.605469 7.382812 10.609375 C 7.398438 10.613281 7.410156 10.617188 7.425781 10.617188 C 7.453125 10.621094 7.484375 10.625 7.511719 10.628906 C 7.523438 10.628906 7.535156 10.632812 7.550781 10.632812 C 7.589844 10.636719 7.632812 10.636719 7.675781 10.636719 C 8.097656 10.636719 8.496094 10.472656 8.851562 10.179688 C 9.105469 10.269531 9.308594 10.367188 9.375 10.421875 C 9.25 10.519531 8.882812 10.707031 8.054688 10.867188 Z M 8.746094 6.449219 C 8.746094 6.855469 8.511719 7.1875 8.21875 7.1875 C 7.929688 7.1875 7.695312 6.855469 7.695312 6.449219 C 7.695312 6.042969 7.929688 5.714844 8.21875 5.714844 C 8.511719 5.714844 8.746094 6.042969 8.746094 6.449219 Z M 8.746094 6.449219 "/>
</g>
</svg>
