<?xml version="1.0" encoding="UTF-8"?>
<svg xmlns="http://www.w3.org/2000/svg" xmlns:xlink="http://www.w3.org/1999/xlink" width="10.673313" height="11" viewBox="0 0 10.673313 11">
<path fill-rule="nonzero" fill="rgb(30%,30%,30%)" fill-opacity="1" d="M 7.816406 4.058594 L 7.738281 6.238281 C 7.738281 6.269531 7.714844 6.300781 7.6875 6.3125 C 7.65625 6.324219 7.621094 6.316406 7.597656 6.292969 L 5.285156 4.058594 C 5.234375 4.007812 5.152344 3.988281 5.144531 4.058594 L 4.945312 6.207031 C 4.941406 6.238281 4.921875 6.265625 4.890625 6.277344 C 4.859375 6.285156 4.828125 6.28125 4.804688 6.257812 L 2.476562 4.058594 C 2.421875 4.007812 2.335938 3.984375 2.335938 4.058594 L 2.335938 6.175781 C 2.335938 6.222656 2.296875 6.257812 2.25 6.257812 L 1.90625 6.257812 C 1.859375 6.257812 1.820312 6.222656 1.820312 6.175781 L 1.820312 0.0820312 C 1.820312 0.0507812 1.800781 0.0195312 1.765625 0.00390625 C 1.734375 -0.0078125 1.699219 0.00390625 1.675781 0.0273438 L 0.0195312 1.890625 C 0.0078125 1.90625 0 1.925781 0 1.945312 L 0.046875 10.917969 C 0.046875 10.960938 0.0820312 11 0.128906 11 L 10.589844 11 C 10.636719 11 10.671875 10.960938 10.671875 10.917969 L 10.671875 6.507812 C 10.671875 6.484375 10.664062 6.460938 10.644531 6.445312 L 7.953125 4.058594 C 7.902344 4.011719 7.820312 3.988281 7.816406 4.058594 Z M 7.816406 4.058594 "/>
</svg>
