<?xml version="1.0" encoding="UTF-8" standalone="no"?>
<!-- Created with Inkscape (http://www.inkscape.org/) -->

<svg
   xmlns:dc="http://purl.org/dc/elements/1.1/"
   xmlns:cc="http://creativecommons.org/ns#"
   xmlns:rdf="http://www.w3.org/1999/02/22-rdf-syntax-ns#"
   xmlns:svg="http://www.w3.org/2000/svg"
   xmlns="http://www.w3.org/2000/svg"
   xmlns:xlink="http://www.w3.org/1999/xlink"
   xmlns:sodipodi="http://sodipodi.sourceforge.net/DTD/sodipodi-0.dtd"
   xmlns:inkscape="http://www.inkscape.org/namespaces/inkscape"
   width="30px"
   height="30px"
   version="1.1"
   id="svg8"
   inkscape:version="0.92.4 5da689c313, 2019-01-14"
   sodipodi:docname="container.svg">
  <defs
     id="defs2" />
  <sodipodi:namedview
     id="base"
     pagecolor="#ffffff"
     bordercolor="#666666"
     borderopacity="1.0"
     inkscape:pageopacity="0.0"
     inkscape:pageshadow="2"
     inkscape:zoom="13.049334"
     inkscape:cx="18.679046"
     inkscape:cy="12.165829"
     inkscape:document-units="px"
     inkscape:current-layer="layer1"
     showgrid="false"
     inkscape:snap-page="false"
     units="px"
     inkscape:window-width="1884"
     inkscape:window-height="1061"
     inkscape:window-x="0"
     inkscape:window-y="0"
     inkscape:window-maximized="1"
     fit-margin-top="0"
     fit-margin-left="0"
     fit-margin-right="0"
     fit-margin-bottom="0" />
  <metadata
     id="metadata5">
    <rdf:RDF>
      <cc:Work
         rdf:about="">
        <dc:format>image/svg+xml</dc:format>
        <dc:type
           rdf:resource="http://purl.org/dc/dcmitype/StillImage" />
        <dc:title></dc:title>
      </cc:Work>
    </rdf:RDF>
  </metadata>
    <circle
       style="color:#000000;clip-rule:nonzero;display:inline;overflow:visible;visibility:visible;opacity:1;isolation:auto;mix-blend-mode:normal;color-interpolation:sRGB;color-interpolation-filters:linearRGB;solid-color:#000000;solid-opacity:1;vector-effect:none;fill:#1d1d1b;fill-opacity:1;fill-rule:evenodd;stroke:#ffffff;stroke-width:1;stroke-linecap:butt;stroke-linejoin:miter;stroke-miterlimit:4;stroke-dasharray:none;stroke-dashoffset:0;stroke-opacity:1;marker:none;color-rendering:auto;image-rendering:auto;shape-rendering:auto;text-rendering:auto;enable-background:accumulate"
       id="path815"
       cx="15"
       cy="15"
       r="14.5" />
<g transform="translate(6.5,6.5)"><path fill-rule="nonzero" fill="#FFFFFF" fill-opacity="1" d="M 6.210938 10.414062 C 6.25 10.078125 6.535156 9.675781 6.871094 9.675781 L 11.199219 9.6875 L 10.953125 4.066406 L 8.554688 4.066406 C 8.347656 1.457031 7.335938 0.0234375 5.652344 0 C 5.054688 -0.0078125 4.523438 0.207031 4.082031 0.644531 C 3.390625 1.328125 2.953125 2.523438 2.816406 4.066406 L 0.417969 4.066406 L 0 14.398438 C -0.00390625 14.507812 0.0351562 14.617188 0.113281 14.695312 C 0.1875 14.773438 0.292969 14.816406 0.402344 14.816406 L 5.671875 14.804688 Z M 8.015625 5.117188 C 8.015625 5.265625 8.125 5.398438 8.273438 5.414062 C 8.355469 5.421875 8.4375 5.394531 8.5 5.339844 C 8.558594 5.285156 8.59375 5.207031 8.59375 5.125 C 8.59375 4.917969 8.589844 4.71875 8.582031 4.527344 C 8.886719 4.660156 9.054688 4.992188 8.984375 5.316406 C 8.917969 5.644531 8.628906 5.875 8.296875 5.878906 C 7.960938 5.878906 7.675781 5.644531 7.605469 5.320312 C 7.535156 4.992188 7.699219 4.664062 8.003906 4.527344 C 8.011719 4.714844 8.015625 4.910156 8.015625 5.117188 Z M 4.488281 1.054688 C 4.816406 0.734375 5.207031 0.574219 5.644531 0.578125 C 6.617188 0.59375 7.753906 1.238281 7.976562 4.066406 L 3.398438 4.066406 C 3.527344 2.695312 3.910156 1.628906 4.488281 1.054688 Z M 3.039062 5.875 C 2.71875 5.851562 2.453125 5.617188 2.394531 5.300781 C 2.335938 4.984375 2.496094 4.667969 2.785156 4.53125 C 2.777344 4.722656 2.773438 4.917969 2.773438 5.117188 C 2.773438 5.265625 2.882812 5.398438 3.03125 5.414062 C 3.113281 5.421875 3.195312 5.394531 3.253906 5.339844 C 3.316406 5.285156 3.351562 5.207031 3.351562 5.125 C 3.351562 4.917969 3.355469 4.71875 3.367188 4.519531 C 3.683594 4.65625 3.855469 5 3.777344 5.335938 C 3.695312 5.671875 3.382812 5.898438 3.039062 5.875 Z M 3.039062 5.875 "/>
<path fill-rule="nonzero" fill="#FFFFFF" fill-opacity="1" d="M 15.792969 17 L 6.839844 17 C 6.574219 17 6.324219 16.886719 6.152344 16.691406 C 5.976562 16.496094 5.898438 16.234375 5.929688 15.972656 L 6.546875 10.914062 C 6.601562 10.453125 6.992188 10.109375 7.457031 10.109375 L 7.460938 10.109375 L 15.132812 10.132812 C 15.59375 10.136719 15.976562 10.476562 16.039062 10.929688 L 16.703125 15.964844 C 16.734375 16.226562 16.65625 16.488281 16.480469 16.6875 C 16.308594 16.886719 16.058594 17 15.792969 17 Z M 7.457031 10.609375 C 7.246094 10.613281 7.070312 10.765625 7.046875 10.976562 L 6.425781 16.035156 C 6.414062 16.152344 6.449219 16.269531 6.527344 16.359375 C 6.605469 16.445312 6.71875 16.496094 6.839844 16.496094 L 15.792969 16.496094 C 15.914062 16.496094 16.027344 16.445312 16.105469 16.355469 C 16.183594 16.265625 16.21875 16.148438 16.203125 16.03125 L 15.542969 10.996094 C 15.511719 10.789062 15.339844 10.636719 15.132812 10.636719 Z M 7.457031 10.609375 "/>
<path fill-rule="nonzero" fill="#FFFFFF" fill-opacity="1" d="M 13.539062 11.472656 C 13.539062 11.175781 13.324219 10.921875 13.027344 10.871094 C 12.734375 10.816406 12.445312 10.984375 12.347656 11.265625 C 12.246094 11.546875 12.359375 11.859375 12.621094 12.007812 C 12.554688 12.441406 12.410156 12.832031 12.195312 13.136719 C 11.945312 13.492188 11.628906 13.6875 11.304688 13.6875 C 10.695312 13.6875 10.152344 12.96875 9.996094 12.023438 C 10.253906 11.890625 10.386719 11.59375 10.308594 11.3125 C 10.234375 11.03125 9.96875 10.84375 9.679688 10.863281 C 9.386719 10.878906 9.152344 11.101562 9.109375 11.390625 C 9.070312 11.675781 9.238281 11.953125 9.511719 12.050781 C 9.585938 12.566406 9.765625 13.039062 10.023438 13.410156 C 10.367188 13.902344 10.820312 14.171875 11.304688 14.171875 C 11.792969 14.171875 12.25 13.902344 12.59375 13.414062 C 12.851562 13.042969 13.027344 12.574219 13.101562 12.0625 C 13.359375 11.984375 13.539062 11.746094 13.539062 11.472656 Z M 9.273438 11.472656 C 9.269531 11.261719 9.421875 11.078125 9.628906 11.035156 C 9.835938 10.992188 10.046875 11.105469 10.128906 11.300781 C 10.210938 11.496094 10.144531 11.722656 9.972656 11.839844 C 9.964844 11.78125 9.960938 11.71875 9.957031 11.660156 C 9.949219 11.527344 9.835938 11.421875 9.703125 11.429688 C 9.570312 11.4375 9.46875 11.550781 9.472656 11.683594 C 9.476562 11.742188 9.480469 11.800781 9.488281 11.855469 C 9.355469 11.773438 9.273438 11.628906 9.273438 11.472656 Z M 13.125 11.875 C 13.128906 11.808594 13.136719 11.746094 13.136719 11.683594 C 13.144531 11.550781 13.039062 11.4375 12.90625 11.433594 C 12.773438 11.425781 12.660156 11.527344 12.65625 11.660156 C 12.652344 11.714844 12.648438 11.769531 12.644531 11.820312 C 12.488281 11.695312 12.433594 11.484375 12.511719 11.304688 C 12.585938 11.121094 12.773438 11.007812 12.972656 11.03125 C 13.167969 11.050781 13.328125 11.199219 13.363281 11.394531 C 13.398438 11.589844 13.300781 11.785156 13.125 11.875 Z M 13.125 11.875 "/>
</g>
</svg>
