<?xml version="1.0" encoding="UTF-8"?>
<svg xmlns="http://www.w3.org/2000/svg" xmlns:xlink="http://www.w3.org/1999/xlink" width="8.845944" height="11" viewBox="0 0 8.845944 11">
<path fill-rule="nonzero" fill="rgb(30%,30%,30%)" fill-opacity="1" d="M 0 0 L 0.53125 0 L 0.53125 11 L 0 11 Z M 0 0 "/>
<path fill-rule="nonzero" fill="rgb(30%,30%,30%)" fill-opacity="1" d="M 8.3125 0 L 8.847656 0 L 8.847656 11 L 8.3125 11 Z M 8.3125 0 "/>
<path fill-rule="nonzero" fill="rgb(30%,30%,30%)" fill-opacity="1" d="M 6.234375 0 L 6.234375 3.273438 L 4.691406 3.273438 L 4.691406 0 L 4.15625 0 L 4.15625 3.273438 L 2.613281 3.273438 L 2.613281 0 L 2.078125 0 L 2.078125 11 L 2.613281 11 L 2.613281 7.785156 L 4.15625 7.785156 L 4.15625 11 L 4.691406 11 L 4.691406 7.785156 L 6.234375 7.785156 L 6.234375 11 L 6.769531 11 L 6.769531 0 Z M 3.710938 7.027344 L 4.160156 4.984375 C 3.890625 4.878906 3.734375 4.597656 3.789062 4.316406 C 3.84375 4.035156 4.09375 3.832031 4.382812 3.835938 C 4.671875 3.839844 4.914062 4.050781 4.960938 4.335938 C 5.003906 4.621094 4.839844 4.894531 4.566406 4.988281 L 5.015625 7.015625 Z M 3.710938 7.027344 "/>
</svg>
