<?xml version="1.0" encoding="UTF-8" standalone="no"?>
<!-- Created with Inkscape (http://www.inkscape.org/) -->

<svg
   xmlns:dc="http://purl.org/dc/elements/1.1/"
   xmlns:cc="http://creativecommons.org/ns#"
   xmlns:rdf="http://www.w3.org/1999/02/22-rdf-syntax-ns#"
   xmlns:svg="http://www.w3.org/2000/svg"
   xmlns="http://www.w3.org/2000/svg"
   xmlns:xlink="http://www.w3.org/1999/xlink"
   xmlns:sodipodi="http://sodipodi.sourceforge.net/DTD/sodipodi-0.dtd"
   xmlns:inkscape="http://www.inkscape.org/namespaces/inkscape"
   width="30px"
   height="30px"
   version="1.1"
   id="svg8"
   inkscape:version="0.92.4 5da689c313, 2019-01-14"
   sodipodi:docname="container.svg">
  <defs
     id="defs2" />
  <sodipodi:namedview
     id="base"
     pagecolor="#ffffff"
     bordercolor="#666666"
     borderopacity="1.0"
     inkscape:pageopacity="0.0"
     inkscape:pageshadow="2"
     inkscape:zoom="13.049334"
     inkscape:cx="18.679046"
     inkscape:cy="12.165829"
     inkscape:document-units="px"
     inkscape:current-layer="layer1"
     showgrid="false"
     inkscape:snap-page="false"
     units="px"
     inkscape:window-width="1884"
     inkscape:window-height="1061"
     inkscape:window-x="0"
     inkscape:window-y="0"
     inkscape:window-maximized="1"
     fit-margin-top="0"
     fit-margin-left="0"
     fit-margin-right="0"
     fit-margin-bottom="0" />
  <metadata
     id="metadata5">
    <rdf:RDF>
      <cc:Work
         rdf:about="">
        <dc:format>image/svg+xml</dc:format>
        <dc:type
           rdf:resource="http://purl.org/dc/dcmitype/StillImage" />
        <dc:title></dc:title>
      </cc:Work>
    </rdf:RDF>
  </metadata>
    <circle
       style="color:#000000;clip-rule:nonzero;display:inline;overflow:visible;visibility:visible;opacity:1;isolation:auto;mix-blend-mode:normal;color-interpolation:sRGB;color-interpolation-filters:linearRGB;solid-color:#000000;solid-opacity:1;vector-effect:none;fill:#1d1d1b;fill-opacity:1;fill-rule:evenodd;stroke:#ffffff;stroke-width:1;stroke-linecap:butt;stroke-linejoin:miter;stroke-miterlimit:4;stroke-dasharray:none;stroke-dashoffset:0;stroke-opacity:1;marker:none;color-rendering:auto;image-rendering:auto;shape-rendering:auto;text-rendering:auto;enable-background:accumulate"
       id="path815"
       cx="15"
       cy="15"
       r="14.5" />
<g transform="translate(7.0,6.5)"><path fill-rule="nonzero" fill="#FFFFFF" fill-opacity="1" d="M 12.082031 6.269531 L 11.957031 9.640625 C 11.957031 9.691406 11.925781 9.734375 11.878906 9.753906 C 11.832031 9.773438 11.777344 9.761719 11.738281 9.726562 L 8.167969 6.269531 C 8.089844 6.195312 7.960938 6.164062 7.949219 6.269531 L 7.640625 9.589844 C 7.636719 9.640625 7.605469 9.679688 7.558594 9.699219 C 7.511719 9.714844 7.460938 9.707031 7.421875 9.671875 L 3.828125 6.269531 C 3.746094 6.191406 3.609375 6.15625 3.609375 6.269531 L 3.609375 9.542969 C 3.609375 9.613281 3.550781 9.671875 3.480469 9.671875 L 2.945312 9.671875 C 2.875 9.671875 2.816406 9.613281 2.816406 9.542969 L 2.816406 0.128906 C 2.816406 0.0742188 2.78125 0.0273438 2.730469 0.0078125 C 2.679688 -0.0117188 2.625 0.00390625 2.589844 0.0429688 L 0.03125 2.921875 C 0.0117188 2.945312 0 2.976562 0 3.007812 L 0.0703125 16.871094 C 0.0703125 16.941406 0.128906 17 0.199219 17 L 16.367188 17 C 16.4375 17 16.496094 16.941406 16.496094 16.871094 L 16.496094 10.058594 C 16.496094 10.019531 16.476562 9.984375 16.449219 9.957031 L 12.292969 6.269531 C 12.210938 6.199219 12.085938 6.164062 12.082031 6.269531 Z M 12.082031 6.269531 "/>
</g>
</svg>
