<?xml version="1.0" encoding="UTF-8"?>
<svg xmlns="http://www.w3.org/2000/svg" xmlns:xlink="http://www.w3.org/1999/xlink" width="11" height="10.256158" viewBox="0 0 11 10.256158">
<path fill-rule="nonzero" fill="rgb(30%,30%,30%)" fill-opacity="1" d="M 3.613281 8.21875 L 1.679688 8.21875 L 1.679688 2.203125 C 1.679688 1.652344 2.125 1.207031 2.671875 1.207031 C 3.222656 1.207031 3.667969 1.652344 3.667969 2.203125 Z M 2.667969 2.929688 C 2.300781 2.929688 2.003906 3.226562 2.003906 3.589844 C 2.003906 3.957031 2.300781 4.25 2.667969 4.25 C 3.03125 4.25 3.328125 3.957031 3.328125 3.589844 C 3.328125 3.226562 3.03125 2.929688 2.667969 2.929688 Z M 2.667969 2.929688 "/>
<path fill-rule="nonzero" fill="rgb(30%,30%,30%)" fill-opacity="1" d="M 11 10.242188 L 0.640625 10.257812 L 0.621094 8.476562 L 10.980469 8.460938 Z M 11 10.242188 "/>
<path fill-rule="nonzero" fill="rgb(30%,30%,30%)" fill-opacity="1" d="M 6.050781 1.355469 L 6.050781 3.570312 L 7.054688 3.25 L 7.054688 1.035156 Z M 6.050781 1.355469 "/>
<path fill-rule="nonzero" fill="rgb(30%,30%,30%)" fill-opacity="1" d="M 0 3.296875 L 0.644531 5.304688 L 1.355469 5.078125 L 1.355469 2.863281 Z M 0 3.296875 "/>
<path fill-rule="nonzero" fill="rgb(30%,30%,30%)" fill-opacity="1" d="M 7.953125 0.746094 L 7.953125 2.960938 L 8.953125 2.640625 L 8.953125 0.425781 Z M 7.953125 0.746094 "/>
<path fill-rule="nonzero" fill="rgb(30%,30%,30%)" fill-opacity="1" d="M 10.929688 2.007812 L 10.285156 0 L 9.847656 0.140625 L 9.847656 2.355469 Z M 10.929688 2.007812 "/>
<path fill-rule="nonzero" fill="rgb(30%,30%,30%)" fill-opacity="1" d="M 4.152344 1.964844 L 4.152344 4.179688 L 5.152344 3.859375 L 5.152344 1.644531 Z M 4.152344 1.964844 "/>
</svg>
