<?xml version="1.0" encoding="UTF-8"?>
<svg xmlns="http://www.w3.org/2000/svg" xmlns:xlink="http://www.w3.org/1999/xlink" width="8.677286" height="11" viewBox="0 0 8.677286 11">
<path fill-rule="nonzero" fill="rgb(30%,30%,30%)" fill-opacity="1" d="M 0.636719 0.558594 L 0.636719 10.496094 C 0.636719 10.804688 0.496094 11 0.320312 11 C 0.144531 11 0 10.832031 0 10.523438 C 0 10.515625 0 10.503906 0 10.496094 L 0 0.558594 C 0 0.25 0.144531 0 0.320312 0 C 0.496094 0 0.636719 0.25 0.636719 0.558594 Z M 8.675781 0.445312 L 8.675781 6.253906 C 8.132812 6.054688 7.671875 5.976562 7.273438 5.976562 C 5.867188 5.976562 5.152344 6.921875 3.765625 6.921875 C 1.976562 6.921875 1.085938 6.253906 1.085938 6.253906 L 1.085938 0.445312 C 1.085938 0.445312 1.976562 1.117188 3.765625 1.117188 C 5.152344 1.117188 5.867188 0.171875 7.273438 0.171875 C 7.671875 0.171875 8.132812 0.25 8.675781 0.445312 Z M 8.675781 0.445312 "/>
</svg>
