<?xml version="1.0" encoding="UTF-8"?>
<svg xmlns="http://www.w3.org/2000/svg" xmlns:xlink="http://www.w3.org/1999/xlink" width="10.811999" height="11" viewBox="0 0 10.811999 11">
<path fill-rule="nonzero" fill="rgb(30%,30%,30%)" fill-opacity="1" d="M 4.019531 6.738281 C 4.046875 6.523438 4.230469 6.261719 4.445312 6.261719 L 7.246094 6.269531 L 7.085938 2.632812 L 5.535156 2.632812 C 5.402344 0.941406 4.746094 0.015625 3.65625 0 C 3.269531 -0.00390625 2.925781 0.136719 2.640625 0.417969 C 2.191406 0.859375 1.910156 1.632812 1.824219 2.632812 L 0.269531 2.632812 L 0 9.316406 C -0.00390625 9.386719 0.0234375 9.457031 0.0742188 9.507812 C 0.121094 9.558594 0.1875 9.585938 0.261719 9.585938 L 3.671875 9.582031 Z M 5.1875 3.3125 C 5.1875 3.40625 5.257812 3.492188 5.351562 3.503906 C 5.40625 3.507812 5.460938 3.492188 5.5 3.457031 C 5.539062 3.421875 5.5625 3.371094 5.5625 3.316406 C 5.5625 3.183594 5.558594 3.054688 5.554688 2.929688 C 5.75 3.015625 5.859375 3.230469 5.816406 3.441406 C 5.769531 3.652344 5.582031 3.800781 5.367188 3.804688 C 5.152344 3.804688 4.964844 3.652344 4.921875 3.441406 C 4.875 3.230469 4.984375 3.015625 5.179688 2.929688 C 5.183594 3.050781 5.1875 3.179688 5.1875 3.3125 Z M 2.902344 0.683594 C 3.117188 0.472656 3.367188 0.371094 3.652344 0.375 C 4.28125 0.382812 5.015625 0.800781 5.160156 2.632812 L 2.199219 2.632812 C 2.28125 1.746094 2.527344 1.054688 2.902344 0.683594 Z M 1.964844 3.800781 C 1.757812 3.785156 1.585938 3.632812 1.550781 3.429688 C 1.511719 3.226562 1.617188 3.019531 1.804688 2.933594 C 1.796875 3.054688 1.792969 3.183594 1.792969 3.3125 C 1.792969 3.40625 1.863281 3.492188 1.960938 3.503906 C 2.011719 3.507812 2.066406 3.492188 2.105469 3.457031 C 2.144531 3.421875 2.167969 3.371094 2.167969 3.316406 C 2.167969 3.183594 2.171875 3.050781 2.179688 2.925781 C 2.382812 3.011719 2.496094 3.238281 2.441406 3.453125 C 2.390625 3.671875 2.1875 3.816406 1.964844 3.800781 Z M 1.964844 3.800781 "/>
<path fill-rule="nonzero" fill="rgb(30%,30%,30%)" fill-opacity="1" d="M 10.21875 11 L 4.425781 11 C 4.253906 11 4.09375 10.925781 3.980469 10.800781 C 3.867188 10.671875 3.816406 10.503906 3.835938 10.335938 L 4.238281 7.0625 C 4.273438 6.765625 4.523438 6.542969 4.824219 6.542969 L 4.828125 6.542969 L 9.792969 6.558594 C 10.089844 6.558594 10.339844 6.777344 10.378906 7.074219 L 10.808594 10.328125 C 10.828125 10.5 10.777344 10.667969 10.664062 10.796875 C 10.550781 10.925781 10.390625 11 10.21875 11 Z M 4.824219 6.867188 C 4.691406 6.867188 4.574219 6.96875 4.558594 7.101562 L 4.160156 10.375 C 4.148438 10.449219 4.171875 10.527344 4.222656 10.585938 C 4.273438 10.640625 4.347656 10.675781 4.425781 10.675781 L 10.21875 10.675781 C 10.296875 10.675781 10.371094 10.640625 10.421875 10.582031 C 10.472656 10.527344 10.496094 10.449219 10.484375 10.371094 L 10.054688 7.113281 C 10.039062 6.980469 9.925781 6.882812 9.792969 6.882812 Z M 4.824219 6.867188 "/>
<path fill-rule="nonzero" fill="rgb(30%,30%,30%)" fill-opacity="1" d="M 8.757812 7.425781 C 8.761719 7.230469 8.621094 7.066406 8.429688 7.03125 C 8.242188 7 8.054688 7.109375 7.988281 7.289062 C 7.921875 7.472656 8 7.675781 8.167969 7.769531 C 8.125 8.050781 8.03125 8.304688 7.890625 8.5 C 7.730469 8.730469 7.527344 8.855469 7.316406 8.855469 C 6.921875 8.855469 6.566406 8.390625 6.46875 7.777344 C 6.636719 7.691406 6.722656 7.5 6.671875 7.320312 C 6.621094 7.136719 6.449219 7.015625 6.261719 7.027344 C 6.074219 7.039062 5.921875 7.183594 5.894531 7.371094 C 5.867188 7.554688 5.976562 7.734375 6.152344 7.796875 C 6.203125 8.128906 6.316406 8.4375 6.484375 8.675781 C 6.707031 8.996094 7.003906 9.171875 7.316406 9.171875 C 7.628906 9.171875 7.925781 8.996094 8.148438 8.679688 C 8.316406 8.441406 8.429688 8.136719 8.476562 7.804688 C 8.644531 7.753906 8.757812 7.601562 8.757812 7.425781 Z M 6 7.425781 C 6 7.289062 6.097656 7.167969 6.230469 7.140625 C 6.363281 7.113281 6.5 7.183594 6.554688 7.3125 C 6.609375 7.4375 6.566406 7.585938 6.453125 7.664062 C 6.449219 7.625 6.445312 7.582031 6.441406 7.542969 C 6.4375 7.457031 6.363281 7.390625 6.277344 7.394531 C 6.191406 7.402344 6.125 7.472656 6.128906 7.558594 C 6.132812 7.597656 6.136719 7.632812 6.140625 7.671875 C 6.050781 7.621094 6 7.527344 6 7.425781 Z M 8.492188 7.683594 C 8.496094 7.640625 8.5 7.601562 8.5 7.558594 C 8.503906 7.472656 8.4375 7.402344 8.351562 7.398438 C 8.265625 7.394531 8.191406 7.460938 8.1875 7.546875 C 8.1875 7.578125 8.183594 7.613281 8.179688 7.648438 C 8.082031 7.570312 8.046875 7.433594 8.09375 7.3125 C 8.144531 7.195312 8.265625 7.125 8.394531 7.136719 C 8.519531 7.152344 8.625 7.246094 8.648438 7.371094 C 8.667969 7.5 8.605469 7.625 8.492188 7.683594 Z M 8.492188 7.683594 "/>
</svg>
