<?xml version="1.0" encoding="UTF-8" standalone="no"?>
<!-- Created with Inkscape (http://www.inkscape.org/) -->

<svg
   xmlns:dc="http://purl.org/dc/elements/1.1/"
   xmlns:cc="http://creativecommons.org/ns#"
   xmlns:rdf="http://www.w3.org/1999/02/22-rdf-syntax-ns#"
   xmlns:svg="http://www.w3.org/2000/svg"
   xmlns="http://www.w3.org/2000/svg"
   xmlns:xlink="http://www.w3.org/1999/xlink"
   xmlns:sodipodi="http://sodipodi.sourceforge.net/DTD/sodipodi-0.dtd"
   xmlns:inkscape="http://www.inkscape.org/namespaces/inkscape"
   width="30px"
   height="30px"
   version="1.1"
   id="svg8"
   inkscape:version="0.92.4 5da689c313, 2019-01-14"
   sodipodi:docname="container.svg">
  <defs
     id="defs2" />
  <sodipodi:namedview
     id="base"
     pagecolor="#ffffff"
     bordercolor="#666666"
     borderopacity="1.0"
     inkscape:pageopacity="0.0"
     inkscape:pageshadow="2"
     inkscape:zoom="13.049334"
     inkscape:cx="18.679046"
     inkscape:cy="12.165829"
     inkscape:document-units="px"
     inkscape:current-layer="layer1"
     showgrid="false"
     inkscape:snap-page="false"
     units="px"
     inkscape:window-width="1884"
     inkscape:window-height="1061"
     inkscape:window-x="0"
     inkscape:window-y="0"
     inkscape:window-maximized="1"
     fit-margin-top="0"
     fit-margin-left="0"
     fit-margin-right="0"
     fit-margin-bottom="0" />
  <metadata
     id="metadata5">
    <rdf:RDF>
      <cc:Work
         rdf:about="">
        <dc:format>image/svg+xml</dc:format>
        <dc:type
           rdf:resource="http://purl.org/dc/dcmitype/StillImage" />
        <dc:title></dc:title>
      </cc:Work>
    </rdf:RDF>
  </metadata>
    <circle
       style="color:#000000;clip-rule:nonzero;display:inline;overflow:visible;visibility:visible;opacity:1;isolation:auto;mix-blend-mode:normal;color-interpolation:sRGB;color-interpolation-filters:linearRGB;solid-color:#000000;solid-opacity:1;vector-effect:none;fill:#1d1d1b;fill-opacity:1;fill-rule:evenodd;stroke:#ffffff;stroke-width:1;stroke-linecap:butt;stroke-linejoin:miter;stroke-miterlimit:4;stroke-dasharray:none;stroke-dashoffset:0;stroke-opacity:1;marker:none;color-rendering:auto;image-rendering:auto;shape-rendering:auto;text-rendering:auto;enable-background:accumulate"
       id="path815"
       cx="15"
       cy="15"
       r="14.5" />
<g transform="translate(8.0,6.5)"><path fill-rule="nonzero" fill="#FFFFFF" fill-opacity="1" d="M 0 0 L 0.824219 0 L 0.824219 17 L 0 17 Z M 0 0 "/>
<path fill-rule="nonzero" fill="#FFFFFF" fill-opacity="1" d="M 12.847656 0 L 13.671875 0 L 13.671875 17 L 12.847656 17 Z M 12.847656 0 "/>
<path fill-rule="nonzero" fill="#FFFFFF" fill-opacity="1" d="M 9.636719 0 L 9.636719 5.058594 L 7.246094 5.058594 L 7.246094 0 L 6.421875 0 L 6.421875 5.058594 L 4.035156 5.058594 L 4.035156 0 L 3.210938 0 L 3.210938 17 L 4.035156 17 L 4.035156 12.03125 L 6.421875 12.03125 L 6.421875 17 L 7.246094 17 L 7.246094 12.03125 L 9.636719 12.03125 L 9.636719 17 L 10.460938 17 L 10.460938 0 Z M 5.734375 10.859375 L 6.429688 7.703125 C 6.011719 7.542969 5.773438 7.109375 5.855469 6.671875 C 5.941406 6.234375 6.328125 5.917969 6.773438 5.925781 C 7.21875 5.933594 7.59375 6.257812 7.664062 6.699219 C 7.734375 7.140625 7.480469 7.566406 7.058594 7.710938 L 7.75 10.839844 Z M 5.734375 10.859375 "/>
</g>
</svg>
