<?xml version="1.0" encoding="UTF-8"?>
<svg xmlns="http://www.w3.org/2000/svg" xmlns:xlink="http://www.w3.org/1999/xlink" width="8.678885" height="11" viewBox="0 0 8.678885 11">
<path fill-rule="nonzero" fill="rgb(30%,30%,30%)" fill-opacity="1" d="M 8.675781 4.523438 C 8.574219 6.917969 4.503906 11.121094 4.398438 10.996094 C 2.652344 8.960938 -0.0976562 6.550781 0.00390625 4.15625 C 0.105469 1.761719 2.128906 -0.0976562 4.523438 0.00390625 C 6.917969 0.105469 8.777344 2.128906 8.675781 4.523438 Z M 4.484375 0.707031 L 1.824219 3.367188 L 7.144531 3.367188 Z M 1.824219 4.003906 L 1.824219 7.714844 L 3.460938 7.714844 L 3.460938 6.648438 C 3.460938 6.027344 3.96875 5.523438 4.585938 5.523438 C 5.203125 5.523438 5.707031 6.027344 5.707031 6.648438 L 5.707031 7.714844 L 7.144531 7.714844 L 7.144531 4.003906 Z M 1.824219 4.003906 "/>
</svg>
