<?xml version="1.0" encoding="UTF-8" standalone="no"?>
<!-- Created with Inkscape (http://www.inkscape.org/) -->

<svg
   xmlns:dc="http://purl.org/dc/elements/1.1/"
   xmlns:cc="http://creativecommons.org/ns#"
   xmlns:rdf="http://www.w3.org/1999/02/22-rdf-syntax-ns#"
   xmlns:svg="http://www.w3.org/2000/svg"
   xmlns="http://www.w3.org/2000/svg"
   xmlns:xlink="http://www.w3.org/1999/xlink"
   xmlns:sodipodi="http://sodipodi.sourceforge.net/DTD/sodipodi-0.dtd"
   xmlns:inkscape="http://www.inkscape.org/namespaces/inkscape"
   width="30px"
   height="30px"
   version="1.1"
   id="svg8"
   inkscape:version="0.92.4 5da689c313, 2019-01-14"
   sodipodi:docname="container.svg">
  <defs
     id="defs2" />
  <sodipodi:namedview
     id="base"
     pagecolor="#ffffff"
     bordercolor="#666666"
     borderopacity="1.0"
     inkscape:pageopacity="0.0"
     inkscape:pageshadow="2"
     inkscape:zoom="13.049334"
     inkscape:cx="18.679046"
     inkscape:cy="12.165829"
     inkscape:document-units="px"
     inkscape:current-layer="layer1"
     showgrid="false"
     inkscape:snap-page="false"
     units="px"
     inkscape:window-width="1884"
     inkscape:window-height="1061"
     inkscape:window-x="0"
     inkscape:window-y="0"
     inkscape:window-maximized="1"
     fit-margin-top="0"
     fit-margin-left="0"
     fit-margin-right="0"
     fit-margin-bottom="0" />
  <metadata
     id="metadata5">
    <rdf:RDF>
      <cc:Work
         rdf:about="">
        <dc:format>image/svg+xml</dc:format>
        <dc:type
           rdf:resource="http://purl.org/dc/dcmitype/StillImage" />
        <dc:title></dc:title>
      </cc:Work>
    </rdf:RDF>
  </metadata>
    <circle
       style="color:#000000;clip-rule:nonzero;display:inline;overflow:visible;visibility:visible;opacity:1;isolation:auto;mix-blend-mode:normal;color-interpolation:sRGB;color-interpolation-filters:linearRGB;solid-color:#000000;solid-opacity:1;vector-effect:none;fill:#e50980;fill-opacity:1;fill-rule:evenodd;stroke:#ffffff;stroke-width:1;stroke-linecap:butt;stroke-linejoin:miter;stroke-miterlimit:4;stroke-dasharray:none;stroke-dashoffset:0;stroke-opacity:1;marker:none;color-rendering:auto;image-rendering:auto;shape-rendering:auto;text-rendering:auto;enable-background:accumulate"
       id="path815"
       cx="15"
       cy="15"
       r="14.5" />
<g transform="translate(8.5,6.5)"><path fill-rule="nonzero" fill="#FFFFFF" fill-opacity="1" d="M 11.96875 13.976562 C 11.96875 13.976562 11.652344 13.394531 11.589844 13.503906 C 10.785156 14.933594 8.828125 15.667969 7.871094 15.984375 C 6.820312 16.34375 6.292969 17 6.292969 17 L 6.285156 16.707031 L 6.277344 17 C 6.277344 17 5.753906 16.34375 4.699219 15.984375 C 3.742188 15.667969 1.789062 14.933594 0.980469 13.503906 C 0.917969 13.394531 0.605469 13.976562 0.605469 13.976562 C -0.636719 12.117188 0.417969 9.503906 0.417969 9.503906 C 0.417969 9.503906 1.222656 11.496094 2.539062 12.511719 L 1.957031 12.585938 C 1.957031 12.585938 2.484375 13.5625 3.984375 13.824219 C 4.898438 13.984375 5.199219 13.964844 5.417969 13.550781 C 5.425781 13.535156 5.433594 13.515625 5.433594 13.492188 L 5.433594 6.949219 C 5.433594 6.75 5.269531 6.589844 5.074219 6.589844 L 3.089844 6.589844 C 3.007812 6.589844 2.933594 6.628906 2.890625 6.695312 C 2.609375 7.109375 2.089844 7.292969 1.609375 7.148438 C 1.128906 7.007812 0.796875 6.570312 0.789062 6.066406 C 0.777344 5.566406 1.09375 5.117188 1.566406 4.957031 C 2.042969 4.792969 2.566406 4.957031 2.863281 5.359375 C 2.910156 5.421875 2.980469 5.457031 3.054688 5.457031 L 5.261719 5.457031 C 5.460938 5.457031 5.621094 5.292969 5.621094 5.097656 L 5.621094 4.179688 C 4.589844 3.851562 3.96875 2.804688 4.171875 1.742188 C 4.371094 0.679688 5.335938 -0.0664062 6.414062 0.00390625 C 7.457031 0.0703125 8.316406 0.902344 8.40625 1.945312 C 8.5 2.941406 7.886719 3.871094 6.933594 4.179688 L 6.933594 5.097656 C 6.933594 5.292969 7.097656 5.457031 7.296875 5.457031 L 9.5 5.457031 C 9.578125 5.457031 9.648438 5.417969 9.695312 5.359375 C 9.992188 4.957031 10.515625 4.796875 10.988281 4.957031 C 11.464844 5.121094 11.777344 5.570312 11.765625 6.066406 C 11.757812 6.566406 11.425781 7.003906 10.945312 7.148438 C 10.46875 7.292969 9.953125 7.109375 9.667969 6.695312 C 9.625 6.628906 9.550781 6.589844 9.46875 6.589844 L 7.519531 6.589844 C 7.324219 6.589844 7.160156 6.75 7.160156 6.949219 L 7.160156 13.53125 C 7.160156 13.554688 7.167969 13.574219 7.179688 13.59375 C 7.394531 13.964844 7.707031 13.980469 8.585938 13.824219 C 10.089844 13.5625 10.613281 12.585938 10.613281 12.585938 L 10.03125 12.511719 C 11.347656 11.496094 12.15625 9.503906 12.15625 9.503906 C 12.15625 9.503906 13.207031 12.117188 11.96875 13.976562 Z M 6.308594 1.199219 C 5.777344 1.199219 5.347656 1.628906 5.347656 2.160156 C 5.347656 2.6875 5.777344 3.117188 6.308594 3.117188 C 6.835938 3.117188 7.265625 2.6875 7.265625 2.160156 C 7.265625 1.628906 6.835938 1.199219 6.308594 1.199219 Z M 6.308594 1.199219 "/>
</g>
</svg>
