<?xml version="1.0" encoding="UTF-8"?>
<svg xmlns="http://www.w3.org/2000/svg" xmlns:xlink="http://www.w3.org/1999/xlink" width="11" height="9.889479" viewBox="0 0 11 9.889479">
<path fill-rule="nonzero" fill="rgb(30%,30%,30%)" fill-opacity="1" d="M 8.398438 4.082031 C 8.398438 4.082031 7.949219 3.632812 7.800781 3.78125 C 7.609375 3.972656 8.023438 4.902344 8.769531 4.902344 C 9.515625 4.902344 9.746094 4.382812 9.8125 4.15625 C 9.945312 3.714844 9.589844 1.695312 9.589844 1.695312 C 9.589844 1.695312 8.238281 0.304688 9.367188 0.0546875 C 10.585938 -0.214844 10.175781 0.574219 10.097656 1.050781 C 10.089844 1.078125 9.984375 1.421875 10.003906 1.683594 C 10.023438 1.96875 10.34375 3.414062 10.261719 4.15625 C 10.152344 5.148438 9.351562 5.429688 8.769531 5.421875 C 8.398438 5.417969 7.65625 5.226562 7.351562 4.378906 C 6.980469 3.335938 8.097656 2.144531 8.097656 2.144531 C 7.800781 2.8125 8.398438 4.082031 8.398438 4.082031 Z M 9.722656 1.328125 C 9.722656 1.328125 9.894531 0.722656 9.855469 0.488281 C 9.816406 0.285156 9.351562 0.378906 9.3125 0.488281 C 9.199219 0.832031 9.722656 1.328125 9.722656 1.328125 Z M 9.722656 1.328125 "/>
<path fill-rule="nonzero" fill="rgb(30%,30%,30%)" fill-opacity="1" d="M 9.0625 7.339844 C 9.0625 7.179688 9.191406 7.050781 9.351562 7.050781 C 9.511719 7.050781 9.640625 7.179688 9.640625 7.339844 C 9.640625 7.5 9.511719 7.628906 9.351562 7.628906 C 9.273438 7.628906 9.199219 7.597656 9.144531 7.542969 C 9.09375 7.488281 9.0625 7.414062 9.0625 7.339844 Z M 7.742188 9.730469 C 7.320312 8.492188 7.320312 7.148438 7.742188 5.910156 C 7.320312 5.8125 6.875 5.75 6.414062 5.75 C 4.886719 5.75 3.519531 6.398438 2.609375 6.96875 C 2.417969 7.085938 2.175781 7.085938 1.984375 6.96875 C 1.46875 6.644531 0.804688 6.296875 0.0429688 6.054688 C 0.03125 6.050781 0.015625 6.054688 0.0078125 6.066406 C 0 6.078125 -0.00390625 6.09375 0.00390625 6.105469 C 0.183594 6.414062 0.339844 6.734375 0.480469 7.058594 C 0.695312 7.542969 0.695312 8.097656 0.480469 8.582031 C 0.339844 8.90625 0.183594 9.226562 0.00390625 9.535156 C -0.00390625 9.546875 0 9.5625 0.0078125 9.574219 C 0.015625 9.585938 0.03125 9.589844 0.0429688 9.585938 C 0.808594 9.34375 1.476562 8.992188 1.996094 8.667969 C 2.179688 8.550781 2.414062 8.550781 2.597656 8.667969 C 3.507812 9.238281 4.878906 9.890625 6.414062 9.890625 C 6.875 9.890625 7.320312 9.828125 7.742188 9.730469 Z M 10.746094 8.320312 C 10.90625 8.203125 11 8.019531 11 7.820312 C 11 7.625 10.90625 7.4375 10.746094 7.324219 C 10.15625 6.898438 9.1875 6.304688 8.023438 5.980469 C 7.613281 7.171875 7.613281 8.46875 8.023438 9.660156 C 9.1875 9.339844 10.15625 8.746094 10.746094 8.320312 Z M 10.746094 8.320312 "/>
</svg>
