<?xml version="1.0" encoding="UTF-8" standalone="no"?>
<!-- Created with Inkscape (http://www.inkscape.org/) -->

<svg
   xmlns:dc="http://purl.org/dc/elements/1.1/"
   xmlns:cc="http://creativecommons.org/ns#"
   xmlns:rdf="http://www.w3.org/1999/02/22-rdf-syntax-ns#"
   xmlns:svg="http://www.w3.org/2000/svg"
   xmlns="http://www.w3.org/2000/svg"
   xmlns:xlink="http://www.w3.org/1999/xlink"
   xmlns:sodipodi="http://sodipodi.sourceforge.net/DTD/sodipodi-0.dtd"
   xmlns:inkscape="http://www.inkscape.org/namespaces/inkscape"
   width="30px"
   height="30px"
   version="1.1"
   id="svg8"
   inkscape:version="0.92.4 5da689c313, 2019-01-14"
   sodipodi:docname="container.svg">
  <defs
     id="defs2" />
  <sodipodi:namedview
     id="base"
     pagecolor="#ffffff"
     bordercolor="#666666"
     borderopacity="1.0"
     inkscape:pageopacity="0.0"
     inkscape:pageshadow="2"
     inkscape:zoom="13.049334"
     inkscape:cx="18.679046"
     inkscape:cy="12.165829"
     inkscape:document-units="px"
     inkscape:current-layer="layer1"
     showgrid="false"
     inkscape:snap-page="false"
     units="px"
     inkscape:window-width="1884"
     inkscape:window-height="1061"
     inkscape:window-x="0"
     inkscape:window-y="0"
     inkscape:window-maximized="1"
     fit-margin-top="0"
     fit-margin-left="0"
     fit-margin-right="0"
     fit-margin-bottom="0" />
  <metadata
     id="metadata5">
    <rdf:RDF>
      <cc:Work
         rdf:about="">
        <dc:format>image/svg+xml</dc:format>
        <dc:type
           rdf:resource="http://purl.org/dc/dcmitype/StillImage" />
        <dc:title></dc:title>
      </cc:Work>
    </rdf:RDF>
  </metadata>
    <circle
       style="color:#000000;clip-rule:nonzero;display:inline;overflow:visible;visibility:visible;opacity:1;isolation:auto;mix-blend-mode:normal;color-interpolation:sRGB;color-interpolation-filters:linearRGB;solid-color:#000000;solid-opacity:1;vector-effect:none;fill:#ffffff;fill-opacity:1;fill-rule:evenodd;stroke:#e50980;stroke-width:1;stroke-linecap:butt;stroke-linejoin:miter;stroke-miterlimit:4;stroke-dasharray:none;stroke-dashoffset:0;stroke-opacity:1;marker:none;color-rendering:auto;image-rendering:auto;shape-rendering:auto;text-rendering:auto;enable-background:accumulate"
       id="path815"
       cx="15"
       cy="15"
       r="14.5" />
<g transform="translate(8.5,6.5)"><path fill-rule="nonzero" fill="rgb(30%,30%,30%)" fill-opacity="1" d="M 3.8125 1.9375 L 3.8125 5.953125 L 4.253906 5.953125 L 4.253906 2.648438 L 5.433594 2.648438 L 5.433594 7.855469 L 7.113281 7.855469 L 7.113281 9.125 L 3.777344 9.125 L 3.777344 11.117188 L 4.207031 11.117188 L 4.207031 9.550781 L 7.539062 9.550781 L 7.539062 7.429688 L 5.859375 7.429688 L 5.859375 2.648438 L 7.039062 2.648438 L 7.039062 4.613281 L 8.738281 4.613281 L 8.738281 5.742188 L 7.25 5.742188 L 7.25 6.167969 L 8.742188 6.167969 L 8.742188 7.855469 L 10.785156 7.855469 L 10.785156 7.429688 L 9.167969 7.429688 L 9.164062 4.613281 L 10.761719 4.613281 L 10.761719 4.1875 L 7.464844 4.1875 L 7.464844 2.648438 L 12.238281 2.648438 L 12.238281 5.742188 L 10.488281 5.742188 L 10.488281 6.167969 L 12.238281 6.167969 L 12.238281 14.199219 L 10.824219 14.199219 L 10.824219 12.472656 L 10.386719 12.472656 L 10.386719 14.910156 L 12.949219 14.910156 L 12.949219 1.9375 Z M 3.8125 1.9375 "/>
<path fill-rule="nonzero" fill="rgb(30%,30%,30%)" fill-opacity="1" d="M 8.792969 14.199219 L 5.859375 14.199219 L 5.859375 12.789062 L 7.566406 12.789062 L 7.566406 11.183594 L 10.875 11.183594 L 10.875 9.125 L 8.957031 9.125 L 8.957031 9.550781 L 10.449219 9.550781 L 10.449219 10.757812 L 5.546875 10.757812 L 5.546875 11.183594 L 7.136719 11.183594 L 7.136719 12.359375 L 2.234375 12.359375 L 2.234375 12.789062 L 5.433594 12.789062 L 5.433594 14.199219 L 0.710938 14.199219 L 0.710938 9.480469 L 2.074219 9.507812 L 2.074219 11.070312 L 2.5 11.070312 L 2.5 7.855469 L 4.042969 7.855469 L 4.042969 7.429688 L 2.074219 7.429688 L 2.074219 9.082031 L 0.710938 9.050781 L 0.710938 2.648438 L 2.074219 2.648438 L 2.074219 5.953125 L 2.5 5.953125 L 2.5 1.9375 L 0 1.9375 L 0 14.910156 L 9.105469 14.910156 L 9.105469 14.90625 L 9.222656 14.90625 L 9.222656 12.472656 L 8.792969 12.472656 Z M 8.792969 14.199219 "/>
<path fill-rule="nonzero" fill="rgb(30%,30%,30%)" fill-opacity="1" d="M 3.675781 1.046875 L 3.675781 0.0859375 L 2.589844 0.0859375 L 2.589844 1.046875 L 1.507812 1.046875 L 3.132812 2.320312 L 4.753906 1.046875 Z M 3.675781 1.046875 "/>
<path fill-rule="nonzero" fill="rgb(30%,30%,30%)" fill-opacity="1" d="M 9.242188 15.972656 L 9.242188 16.933594 L 10.328125 16.929688 L 10.328125 15.96875 L 11.40625 15.96875 L 9.78125 14.699219 L 8.160156 15.972656 Z M 9.242188 15.972656 "/>
</g>
</svg>
