<?xml version="1.0" encoding="UTF-8" standalone="no"?>
<!-- Created with Inkscape (http://www.inkscape.org/) -->

<svg
   xmlns:dc="http://purl.org/dc/elements/1.1/"
   xmlns:cc="http://creativecommons.org/ns#"
   xmlns:rdf="http://www.w3.org/1999/02/22-rdf-syntax-ns#"
   xmlns:svg="http://www.w3.org/2000/svg"
   xmlns="http://www.w3.org/2000/svg"
   xmlns:xlink="http://www.w3.org/1999/xlink"
   xmlns:sodipodi="http://sodipodi.sourceforge.net/DTD/sodipodi-0.dtd"
   xmlns:inkscape="http://www.inkscape.org/namespaces/inkscape"
   width="30px"
   height="30px"
   version="1.1"
   id="svg8"
   inkscape:version="0.92.4 5da689c313, 2019-01-14"
   sodipodi:docname="container.svg">
  <defs
     id="defs2" />
  <sodipodi:namedview
     id="base"
     pagecolor="#ffffff"
     bordercolor="#666666"
     borderopacity="1.0"
     inkscape:pageopacity="0.0"
     inkscape:pageshadow="2"
     inkscape:zoom="13.049334"
     inkscape:cx="18.679046"
     inkscape:cy="12.165829"
     inkscape:document-units="px"
     inkscape:current-layer="layer1"
     showgrid="false"
     inkscape:snap-page="false"
     units="px"
     inkscape:window-width="1884"
     inkscape:window-height="1061"
     inkscape:window-x="0"
     inkscape:window-y="0"
     inkscape:window-maximized="1"
     fit-margin-top="0"
     fit-margin-left="0"
     fit-margin-right="0"
     fit-margin-bottom="0" />
  <metadata
     id="metadata5">
    <rdf:RDF>
      <cc:Work
         rdf:about="">
        <dc:format>image/svg+xml</dc:format>
        <dc:type
           rdf:resource="http://purl.org/dc/dcmitype/StillImage" />
        <dc:title></dc:title>
      </cc:Work>
    </rdf:RDF>
  </metadata>
    <circle
       style="color:#000000;clip-rule:nonzero;display:inline;overflow:visible;visibility:visible;opacity:1;isolation:auto;mix-blend-mode:normal;color-interpolation:sRGB;color-interpolation-filters:linearRGB;solid-color:#000000;solid-opacity:1;vector-effect:none;fill:#ffffff;fill-opacity:1;fill-rule:evenodd;stroke:#e50980;stroke-width:1;stroke-linecap:butt;stroke-linejoin:miter;stroke-miterlimit:4;stroke-dasharray:none;stroke-dashoffset:0;stroke-opacity:1;marker:none;color-rendering:auto;image-rendering:auto;shape-rendering:auto;text-rendering:auto;enable-background:accumulate"
       id="path815"
       cx="15"
       cy="15"
       r="14.5" />
<g transform="translate(6.5,6.5)"><path fill-rule="nonzero" fill="rgb(30%,30%,30%)" fill-opacity="1" d="M 16.996094 8.21875 C 16.972656 7.46875 16.847656 6.722656 16.628906 6.003906 C 15.558594 2.527344 12.324219 0 8.5 0 C 4.460938 0 1.082031 2.816406 0.214844 6.589844 C 0.179688 6.746094 0.148438 6.902344 0.121094 7.0625 C -0.03125 7.949219 -0.0390625 8.859375 0.0898438 9.75 C 0.109375 9.878906 0.132812 10.007812 0.15625 10.136719 C 0.386719 11.316406 0.867188 12.4375 1.566406 13.417969 C 3.109375 15.585938 5.636719 17 8.5 17 C 11.46875 17 14.078125 15.480469 15.601562 13.175781 C 16.351562 12.035156 16.816406 10.734375 16.957031 9.375 C 16.984375 9.085938 17 8.792969 17 8.5 C 17 8.40625 17 8.3125 16.996094 8.21875 Z M 3.164062 3.164062 C 4.859375 1.46875 7.261719 0.679688 9.632812 1.042969 C 12.003906 1.402344 14.0625 2.867188 15.179688 4.988281 C 14.816406 4.847656 14.425781 4.773438 14.035156 4.769531 C 14.019531 4.769531 14.003906 4.769531 13.988281 4.769531 C 12.382812 4.769531 11.578125 5.65625 10.925781 6.371094 C 10.3125 7.042969 9.828125 7.578125 8.71875 7.578125 C 7.660156 7.578125 7.203125 7.054688 6.625 6.390625 C 5.996094 5.667969 5.210938 4.769531 3.589844 4.769531 C 3.574219 4.769531 3.558594 4.769531 3.542969 4.769531 C 2.757812 4.78125 2.15625 4.996094 1.667969 5.292969 C 2.039062 4.503906 2.546875 3.78125 3.164062 3.164062 Z M 13.835938 13.835938 C 12.25 15.417969 10.046875 16.214844 7.816406 16.011719 C 5.585938 15.808594 3.558594 14.628906 2.285156 12.785156 C 2.628906 12.558594 3.019531 12.414062 3.558594 12.410156 C 3.570312 12.410156 3.582031 12.410156 3.589844 12.410156 C 4.597656 12.410156 5.023438 12.894531 5.609375 13.566406 C 6.25 14.300781 7.046875 15.214844 8.71875 15.214844 C 10.425781 15.214844 11.257812 14.300781 11.925781 13.566406 C 12.535156 12.894531 12.976562 12.410156 13.988281 12.410156 C 14 12.410156 14.007812 12.410156 14.019531 12.410156 C 14.332031 12.410156 14.59375 12.476562 14.835938 12.597656 C 14.546875 13.046875 14.210938 13.460938 13.835938 13.835938 Z M 15.464844 11.40625 C 15.066406 11.199219 14.597656 11.066406 14.035156 11.058594 C 14.019531 11.058594 14.003906 11.058594 13.988281 11.058594 C 12.382812 11.058594 11.578125 11.945312 10.925781 12.65625 C 10.3125 13.332031 9.828125 13.867188 8.71875 13.867188 C 7.660156 13.867188 7.203125 13.34375 6.625 12.679688 C 5.988281 11.949219 5.195312 11.039062 3.542969 11.058594 C 2.734375 11.070312 2.117188 11.296875 1.621094 11.609375 C 1.597656 11.550781 1.570312 11.496094 1.546875 11.4375 C 1.421875 11.140625 1.3125 10.832031 1.226562 10.519531 C 1.285156 10.460938 1.34375 10.398438 1.402344 10.335938 C 2.027344 9.683594 2.523438 9.167969 3.558594 9.15625 C 3.570312 9.15625 3.582031 9.15625 3.589844 9.15625 C 4.597656 9.15625 5.023438 9.644531 5.609375 10.316406 C 6.25 11.046875 7.046875 11.960938 8.71875 11.960938 C 10.425781 11.960938 11.257812 11.046875 11.925781 10.3125 C 12.542969 9.636719 12.984375 9.136719 14.019531 9.15625 C 14.78125 9.164062 15.242188 9.546875 15.859375 10.179688 C 15.761719 10.597656 15.632812 11.007812 15.464844 11.40625 Z M 16.046875 8.523438 C 15.523438 8.121094 14.890625 7.816406 14.035156 7.808594 C 12.402344 7.78125 11.582031 8.6875 10.925781 9.40625 C 10.3125 10.082031 9.828125 10.613281 8.71875 10.613281 C 7.660156 10.613281 7.203125 10.089844 6.625 9.425781 C 5.988281 8.699219 5.195312 7.789062 3.542969 7.808594 C 2.332031 7.820312 1.558594 8.324219 0.964844 8.871094 C 0.957031 8.746094 0.953125 8.625 0.953125 8.5 C 0.953125 8.238281 0.96875 7.976562 0.992188 7.71875 C 1.136719 7.578125 1.273438 7.4375 1.402344 7.300781 C 2.027344 6.648438 2.523438 6.132812 3.558594 6.121094 C 3.570312 6.121094 3.582031 6.121094 3.589844 6.121094 C 4.597656 6.121094 5.023438 6.605469 5.609375 7.277344 C 6.25 8.011719 7.046875 8.925781 8.71875 8.925781 C 10.425781 8.925781 11.257812 8.011719 11.925781 7.277344 C 12.535156 6.605469 12.976562 6.121094 13.988281 6.121094 C 14 6.121094 14.007812 6.121094 14.019531 6.121094 C 14.816406 6.128906 15.28125 6.546875 15.941406 7.230469 C 16.011719 7.648438 16.046875 8.074219 16.046875 8.5 C 16.046875 8.507812 16.046875 8.515625 16.046875 8.523438 Z M 16.046875 8.523438 "/>
</g>
</svg>
