<?xml version="1.0" encoding="UTF-8" standalone="no"?>
<!-- Created with Inkscape (http://www.inkscape.org/) -->

<svg
   xmlns:dc="http://purl.org/dc/elements/1.1/"
   xmlns:cc="http://creativecommons.org/ns#"
   xmlns:rdf="http://www.w3.org/1999/02/22-rdf-syntax-ns#"
   xmlns:svg="http://www.w3.org/2000/svg"
   xmlns="http://www.w3.org/2000/svg"
   xmlns:xlink="http://www.w3.org/1999/xlink"
   xmlns:sodipodi="http://sodipodi.sourceforge.net/DTD/sodipodi-0.dtd"
   xmlns:inkscape="http://www.inkscape.org/namespaces/inkscape"
   width="30px"
   height="30px"
   version="1.1"
   id="svg8"
   inkscape:version="0.92.4 5da689c313, 2019-01-14"
   sodipodi:docname="container.svg">
  <defs
     id="defs2" />
  <sodipodi:namedview
     id="base"
     pagecolor="#ffffff"
     bordercolor="#666666"
     borderopacity="1.0"
     inkscape:pageopacity="0.0"
     inkscape:pageshadow="2"
     inkscape:zoom="13.049334"
     inkscape:cx="18.679046"
     inkscape:cy="12.165829"
     inkscape:document-units="px"
     inkscape:current-layer="layer1"
     showgrid="false"
     inkscape:snap-page="false"
     units="px"
     inkscape:window-width="1884"
     inkscape:window-height="1061"
     inkscape:window-x="0"
     inkscape:window-y="0"
     inkscape:window-maximized="1"
     fit-margin-top="0"
     fit-margin-left="0"
     fit-margin-right="0"
     fit-margin-bottom="0" />
  <metadata
     id="metadata5">
    <rdf:RDF>
      <cc:Work
         rdf:about="">
        <dc:format>image/svg+xml</dc:format>
        <dc:type
           rdf:resource="http://purl.org/dc/dcmitype/StillImage" />
        <dc:title></dc:title>
      </cc:Work>
    </rdf:RDF>
  </metadata>
    <circle
       style="color:#000000;clip-rule:nonzero;display:inline;overflow:visible;visibility:visible;opacity:1;isolation:auto;mix-blend-mode:normal;color-interpolation:sRGB;color-interpolation-filters:linearRGB;solid-color:#000000;solid-opacity:1;vector-effect:none;fill:#e50980;fill-opacity:1;fill-rule:evenodd;stroke:#ffffff;stroke-width:1;stroke-linecap:butt;stroke-linejoin:miter;stroke-miterlimit:4;stroke-dasharray:none;stroke-dashoffset:0;stroke-opacity:1;marker:none;color-rendering:auto;image-rendering:auto;shape-rendering:auto;text-rendering:auto;enable-background:accumulate"
       id="path815"
       cx="15"
       cy="15"
       r="14.5" />
<g transform="translate(6.5,8.5)"><path fill-rule="nonzero" fill="#FFFFFF" fill-opacity="1" d="M 13.25 1.953125 C 13.25 2.9375 12.453125 3.734375 11.46875 3.734375 C 10.484375 3.734375 9.683594 2.9375 9.683594 1.953125 C 9.683594 0.96875 10.484375 0.171875 11.46875 0.171875 C 12.453125 0.171875 13.25 0.96875 13.25 1.953125 Z M 3.824219 1.792969 C 5.164062 1.605469 6.703125 2.671875 6.703125 2.671875 L 2.027344 4.84375 C 2.058594 4.84375 2.09375 4.84375 2.128906 4.84375 C 3.066406 4.851562 3.59375 5.402344 4.058594 5.890625 C 4.488281 6.339844 4.824219 6.695312 5.449219 6.679688 C 6.011719 6.664062 6.386719 6.464844 6.628906 6.25 L 7.070312 5.722656 C 7.488281 5.300781 8.023438 4.851562 8.949219 4.84375 C 10.03125 4.828125 10.550781 5.425781 10.964844 5.902344 C 11.34375 6.335938 11.644531 6.679688 12.335938 6.679688 C 13.058594 6.679688 13.378906 6.328125 13.78125 5.886719 C 14.207031 5.417969 14.746094 4.824219 15.8125 4.84375 C 16.171875 4.84375 16.527344 4.9375 16.839844 5.117188 C 16.84375 5.105469 16.84375 5.089844 16.847656 5.078125 C 16.894531 4.769531 16.441406 3.90625 15.578125 4.25 C 14.964844 4.492188 13.8125 5.535156 11.546875 4.964844 C 9.742188 4.507812 9.421875 2.679688 8.019531 1.417969 C 6.410156 -0.03125 4.40625 -0.289062 2.425781 0.28125 C 0.476562 0.84375 -0.121094 1.671875 0.460938 2.378906 C 1.222656 3.304688 1.746094 2.085938 3.824219 1.792969 Z M 15.792969 6.070312 C 14.726562 6.050781 14.1875 6.644531 13.761719 7.113281 C 13.359375 7.554688 13.042969 7.90625 12.316406 7.90625 C 11.625 7.90625 11.324219 7.5625 10.945312 7.128906 C 10.53125 6.652344 10.011719 6.054688 8.929688 6.070312 C 8.003906 6.078125 7.46875 6.527344 7.054688 6.949219 L 6.609375 7.476562 C 6.367188 7.691406 5.992188 7.890625 5.429688 7.90625 C 4.804688 7.921875 4.472656 7.566406 4.042969 7.117188 C 3.574219 6.628906 3.046875 6.078125 2.109375 6.070312 C 1.042969 6.050781 0.503906 6.644531 0.078125 7.113281 C 0.0507812 7.140625 0.0234375 7.171875 0 7.199219 L 0 8.382812 C 0.296875 8.183594 0.523438 7.933594 0.730469 7.707031 C 1.132812 7.265625 1.421875 6.9375 2.101562 6.949219 C 2.640625 6.957031 2.945312 7.25 3.402344 7.726562 C 3.855469 8.199219 4.417969 8.789062 5.390625 8.789062 C 5.414062 8.789062 5.433594 8.785156 5.453125 8.785156 C 6.738281 8.753906 7.382812 8.035156 7.664062 7.585938 C 8.015625 7.226562 8.335938 6.957031 8.941406 6.949219 C 8.945312 6.949219 8.953125 6.949219 8.960938 6.949219 C 9.621094 6.949219 9.898438 7.269531 10.28125 7.707031 C 10.699219 8.1875 11.222656 8.785156 12.316406 8.785156 C 13.429688 8.785156 13.976562 8.1875 14.414062 7.707031 C 14.816406 7.265625 15.105469 6.9375 15.785156 6.949219 C 16.289062 6.957031 16.589844 7.210938 17 7.636719 L 17 6.457031 C 16.679688 6.234375 16.296875 6.074219 15.792969 6.070312 Z M 15.871094 8.167969 C 14.800781 8.152344 14.265625 8.746094 13.835938 9.214844 C 13.433594 9.65625 13.117188 10.003906 12.394531 10.003906 C 11.699219 10.003906 11.402344 9.664062 11.023438 9.230469 C 10.605469 8.753906 10.085938 8.15625 9.003906 8.167969 C 8.078125 8.179688 7.542969 8.628906 7.128906 9.050781 L 6.6875 9.578125 C 6.441406 9.792969 6.066406 9.992188 5.507812 10.003906 C 4.882812 10.019531 4.546875 9.667969 4.117188 9.21875 C 3.652344 8.730469 3.121094 8.179688 2.1875 8.167969 C 1.117188 8.152344 0.582031 8.746094 0.152344 9.214844 C 0.101562 9.273438 0.0507812 9.328125 0 9.382812 L 0 10.535156 C 0.335938 10.324219 0.585938 10.050781 0.804688 9.808594 C 1.210938 9.367188 1.5 9.039062 2.175781 9.050781 C 2.714844 9.058594 3.023438 9.351562 3.480469 9.828125 C 3.933594 10.300781 4.496094 10.886719 5.46875 10.886719 C 5.488281 10.886719 5.507812 10.886719 5.527344 10.886719 C 6.816406 10.855469 7.460938 10.136719 7.738281 9.6875 C 8.089844 9.328125 8.414062 9.058594 9.015625 9.050781 C 9.023438 9.050781 9.03125 9.050781 9.039062 9.050781 C 9.695312 9.050781 9.976562 9.371094 10.359375 9.808594 C 10.777344 10.289062 11.296875 10.886719 12.394531 10.886719 C 13.507812 10.886719 14.050781 10.289062 14.488281 9.808594 C 14.894531 9.367188 15.183594 9.039062 15.859375 9.050781 C 16.332031 9.058594 16.628906 9.28125 17 9.660156 L 17 8.507812 C 16.664062 8.289062 16.269531 8.171875 15.871094 8.167969 Z M 15.925781 10.402344 C 14.859375 10.382812 14.324219 10.976562 13.894531 11.449219 C 13.492188 11.890625 13.175781 12.238281 12.449219 12.238281 C 11.757812 12.238281 11.457031 11.894531 11.078125 11.460938 C 10.664062 10.984375 10.144531 10.390625 9.0625 10.402344 C 8.136719 10.414062 7.601562 10.859375 7.1875 11.28125 L 6.742188 11.8125 C 6.5 12.023438 6.125 12.222656 5.5625 12.238281 C 4.9375 12.253906 4.605469 11.898438 4.175781 11.449219 C 3.707031 10.964844 3.179688 10.414062 2.242188 10.402344 C 1.175781 10.382812 0.636719 10.976562 0.210938 11.449219 C 0.136719 11.527344 0.0703125 11.601562 0 11.671875 L 0 12.800781 C 0.363281 12.585938 0.628906 12.296875 0.863281 12.042969 C 1.265625 11.597656 1.554688 11.269531 2.234375 11.285156 C 2.773438 11.289062 3.078125 11.582031 3.535156 12.0625 C 3.992188 12.535156 4.550781 13.121094 5.527344 13.121094 C 5.546875 13.121094 5.566406 13.121094 5.585938 13.121094 C 6.871094 13.089844 7.515625 12.371094 7.796875 11.921875 C 8.148438 11.558594 8.46875 11.292969 9.074219 11.285156 C 9.082031 11.285156 9.085938 11.285156 9.09375 11.285156 C 9.753906 11.285156 10.03125 11.601562 10.414062 12.042969 C 10.835938 12.523438 11.355469 13.121094 12.449219 13.121094 C 13.5625 13.121094 14.109375 12.523438 14.546875 12.042969 C 14.949219 11.597656 15.238281 11.269531 15.917969 11.285156 C 16.363281 11.289062 16.652344 11.492188 17 11.835938 L 17 10.703125 C 16.675781 10.507812 16.304688 10.402344 15.925781 10.402344 Z M 15.925781 10.402344 "/>
</g>
</svg>
