<?xml version="1.0" encoding="UTF-8"?>
<svg xmlns="http://www.w3.org/2000/svg" xmlns:xlink="http://www.w3.org/1999/xlink" width="10.924341" height="11" viewBox="0 0 10.924341 11">
<path fill-rule="nonzero" fill="rgb(30%,30%,30%)" fill-opacity="1" d="M 6.695312 1.722656 L 10.925781 0.636719 L 10.925781 2.003906 Z M 0 0.613281 L 0 1.980469 L 4.226562 1.699219 Z M 10.734375 9.464844 C 10.730469 9.480469 10.589844 9.835938 10.113281 9.847656 C 9.863281 9.851562 9.734375 9.710938 9.5625 9.535156 C 9.378906 9.34375 9.171875 9.125 8.800781 9.121094 C 8.378906 9.117188 8.167969 9.347656 8 9.535156 C 7.839844 9.707031 7.714844 9.847656 7.429688 9.847656 C 7.289062 9.847656 7.296875 9.855469 7.214844 9.796875 L 7.066406 8.628906 L 3.832031 8.628906 L 3.710938 9.234375 C 3.605469 9.179688 3.550781 9.125 3.40625 9.121094 C 2.984375 9.117188 2.773438 9.347656 2.605469 9.535156 C 2.445312 9.707031 2.320312 9.847656 2.035156 9.847656 C 1.761719 9.847656 1.644531 9.710938 1.492188 9.539062 C 1.328125 9.351562 1.125 9.117188 0.699219 9.121094 C 0.492188 9.125 0.335938 9.183594 0.210938 9.261719 L 0.214844 9.703125 C 0.347656 9.570312 0.472656 9.472656 0.703125 9.46875 C 0.707031 9.46875 0.707031 9.46875 0.710938 9.46875 C 0.972656 9.46875 1.082031 9.597656 1.230469 9.769531 C 1.398438 9.957031 1.601562 10.195312 2.035156 10.195312 C 2.472656 10.195312 2.6875 9.957031 2.859375 9.769531 C 3.019531 9.59375 3.132812 9.464844 3.402344 9.46875 C 3.613281 9.472656 3.734375 9.589844 3.914062 9.777344 C 4.09375 9.964844 4.316406 10.195312 4.699219 10.195312 C 4.707031 10.195312 4.714844 10.195312 4.722656 10.195312 C 5.230469 10.183594 5.484375 9.898438 5.59375 9.722656 C 5.734375 9.578125 5.859375 9.472656 6.097656 9.46875 C 6.101562 9.46875 6.105469 9.46875 6.109375 9.46875 C 6.367188 9.46875 6.476562 9.597656 6.628906 9.769531 C 6.792969 9.957031 7 10.195312 7.429688 10.195312 C 7.871094 10.195312 8.085938 9.957031 8.257812 9.769531 C 8.417969 9.59375 8.53125 9.464844 8.796875 9.46875 C 9.011719 9.472656 9.132812 9.589844 9.3125 9.777344 C 9.492188 9.964844 9.710938 10.195312 10.097656 10.195312 C 10.105469 10.195312 10.113281 10.195312 10.121094 10.195312 C 10.40625 10.1875 10.613281 10.09375 10.757812 9.980469 L 10.757812 9.472656 Z M 10.734375 10.269531 C 10.730469 10.285156 10.589844 10.640625 10.113281 10.652344 C 9.863281 10.65625 9.734375 10.519531 9.5625 10.339844 C 9.378906 10.148438 9.171875 9.933594 8.800781 9.929688 C 8.378906 9.921875 8.167969 10.15625 8 10.339844 C 7.839844 10.515625 7.714844 10.652344 7.429688 10.652344 C 7.15625 10.652344 7.039062 10.515625 6.890625 10.347656 C 6.726562 10.15625 6.519531 9.921875 6.09375 9.929688 C 5.730469 9.933594 5.554688 10.117188 5.390625 10.28125 L 5.179688 10.484375 C 5.082031 10.566406 4.9375 10.644531 4.714844 10.652344 C 4.46875 10.65625 4.335938 10.519531 4.167969 10.339844 C 3.984375 10.148438 3.773438 9.933594 3.40625 9.929688 C 2.984375 9.921875 2.773438 10.15625 2.605469 10.339844 C 2.445312 10.515625 2.320312 10.652344 2.035156 10.652344 C 1.761719 10.652344 1.644531 10.515625 1.492188 10.347656 C 1.328125 10.15625 1.125 9.921875 0.699219 9.929688 C 0.5 9.929688 0.34375 9.984375 0.21875 10.058594 L 0.226562 10.5 C 0.355469 10.371094 0.480469 10.277344 0.703125 10.277344 C 0.707031 10.277344 0.707031 10.277344 0.710938 10.277344 C 0.972656 10.277344 1.082031 10.402344 1.230469 10.574219 C 1.398438 10.765625 1.601562 11 2.035156 11 C 2.472656 11 2.6875 10.765625 2.859375 10.574219 C 3.019531 10.398438 3.132812 10.269531 3.402344 10.277344 C 3.613281 10.277344 3.734375 10.394531 3.914062 10.582031 C 4.09375 10.769531 4.316406 11 4.699219 11 C 4.707031 11 4.714844 11 4.722656 11 C 5.230469 10.988281 5.484375 10.703125 5.59375 10.527344 C 5.734375 10.382812 5.859375 10.277344 6.097656 10.277344 C 6.101562 10.277344 6.105469 10.277344 6.109375 10.277344 C 6.367188 10.277344 6.476562 10.402344 6.628906 10.574219 C 6.792969 10.765625 7 11 7.429688 11 C 7.871094 11 8.085938 10.765625 8.257812 10.574219 C 8.417969 10.398438 8.53125 10.269531 8.796875 10.277344 C 9.011719 10.277344 9.132812 10.394531 9.3125 10.582031 C 9.492188 10.769531 9.710938 11 10.097656 11 C 10.105469 11 10.113281 11 10.121094 11 C 10.40625 10.992188 10.613281 10.898438 10.757812 10.785156 L 10.757812 10.277344 Z M 6.582031 4 L 4.316406 4 L 4.238281 4.832031 L 6.660156 4.867188 Z M 6.742188 5.542969 L 4.15625 5.542969 L 4.074219 6.410156 L 6.824219 6.410156 Z M 6.902344 7.085938 L 3.992188 7.085938 L 3.910156 7.957031 L 6.984375 7.957031 Z M 6.503906 2.277344 L 6.746094 2.277344 L 6.746094 2.855469 L 6.417969 2.855469 L 6.464844 3.273438 L 6.5 3.628906 L 4.398438 3.628906 L 4.46875 2.855469 L 4.136719 2.855469 L 4.136719 2.277344 L 4.378906 2.277344 L 4.378906 1.066406 L 4.136719 1.066406 L 4.136719 0.632812 L 5.410156 0 L 6.699219 0.632812 L 6.699219 1.066406 L 6.503906 1.066406 Z M 6.132812 1.066406 L 4.746094 1.066406 L 4.746094 2.277344 L 6.132812 2.277344 Z M 6.132812 1.066406 "/>
</svg>
