<?xml version="1.0" encoding="UTF-8" standalone="no"?>
<!-- Created with Inkscape (http://www.inkscape.org/) -->

<svg
   xmlns:dc="http://purl.org/dc/elements/1.1/"
   xmlns:cc="http://creativecommons.org/ns#"
   xmlns:rdf="http://www.w3.org/1999/02/22-rdf-syntax-ns#"
   xmlns:svg="http://www.w3.org/2000/svg"
   xmlns="http://www.w3.org/2000/svg"
   xmlns:xlink="http://www.w3.org/1999/xlink"
   xmlns:sodipodi="http://sodipodi.sourceforge.net/DTD/sodipodi-0.dtd"
   xmlns:inkscape="http://www.inkscape.org/namespaces/inkscape"
   width="30px"
   height="30px"
   version="1.1"
   id="svg8"
   inkscape:version="0.92.4 5da689c313, 2019-01-14"
   sodipodi:docname="container.svg">
  <defs
     id="defs2" />
  <sodipodi:namedview
     id="base"
     pagecolor="#ffffff"
     bordercolor="#666666"
     borderopacity="1.0"
     inkscape:pageopacity="0.0"
     inkscape:pageshadow="2"
     inkscape:zoom="13.049334"
     inkscape:cx="18.679046"
     inkscape:cy="12.165829"
     inkscape:document-units="px"
     inkscape:current-layer="layer1"
     showgrid="false"
     inkscape:snap-page="false"
     units="px"
     inkscape:window-width="1884"
     inkscape:window-height="1061"
     inkscape:window-x="0"
     inkscape:window-y="0"
     inkscape:window-maximized="1"
     fit-margin-top="0"
     fit-margin-left="0"
     fit-margin-right="0"
     fit-margin-bottom="0" />
  <metadata
     id="metadata5">
    <rdf:RDF>
      <cc:Work
         rdf:about="">
        <dc:format>image/svg+xml</dc:format>
        <dc:type
           rdf:resource="http://purl.org/dc/dcmitype/StillImage" />
        <dc:title></dc:title>
      </cc:Work>
    </rdf:RDF>
  </metadata>
    <circle
       style="color:#000000;clip-rule:nonzero;display:inline;overflow:visible;visibility:visible;opacity:1;isolation:auto;mix-blend-mode:normal;color-interpolation:sRGB;color-interpolation-filters:linearRGB;solid-color:#000000;solid-opacity:1;vector-effect:none;fill:#e50980;fill-opacity:1;fill-rule:evenodd;stroke:#ffffff;stroke-width:1;stroke-linecap:butt;stroke-linejoin:miter;stroke-miterlimit:4;stroke-dasharray:none;stroke-dashoffset:0;stroke-opacity:1;marker:none;color-rendering:auto;image-rendering:auto;shape-rendering:auto;text-rendering:auto;enable-background:accumulate"
       id="path815"
       cx="15"
       cy="15"
       r="14.5" />
<g transform="translate(6.5,6.5)"><path fill-rule="nonzero" fill="#FFFFFF" fill-opacity="1" d="M 16.625 13.179688 C 16.40625 12.957031 16.199219 12.746094 15.839844 12.742188 C 15.832031 12.742188 15.828125 12.742188 15.824219 12.742188 C 15.632812 12.742188 15.480469 12.785156 15.335938 12.875 C 15.214844 12.953125 15.113281 13.058594 15.007812 13.171875 C 14.898438 13.289062 14.789062 13.40625 14.640625 13.496094 C 14.476562 13.597656 14.289062 13.648438 14.070312 13.648438 C 13.855469 13.648438 13.675781 13.601562 13.519531 13.5 C 13.375 13.410156 13.269531 13.289062 13.164062 13.175781 L 13.171875 13.167969 L 13.152344 13.148438 C 12.917969 12.914062 12.714844 12.707031 12.375 12.703125 C 12.371094 12.703125 12.367188 12.703125 12.363281 12.703125 C 12.171875 12.703125 12.015625 12.746094 11.875 12.835938 C 11.75 12.914062 11.652344 13.023438 11.546875 13.132812 C 11.519531 13.164062 11.492188 13.191406 11.464844 13.222656 C 11.433594 13.253906 11.398438 13.285156 11.367188 13.316406 C 11.308594 13.367188 11.246094 13.417969 11.179688 13.460938 C 11.015625 13.5625 10.828125 13.609375 10.609375 13.609375 C 10.59375 13.609375 10.578125 13.609375 10.566406 13.609375 C 10.378906 13.585938 10.160156 13.503906 9.976562 13.40625 C 9.875 13.324219 9.789062 13.230469 9.703125 13.136719 C 9.503906 12.914062 9.316406 12.703125 8.902344 12.703125 L 8.886719 12.703125 C 8.601562 12.707031 8.425781 12.820312 8.277344 12.957031 C 8.195312 13.023438 8.125 13.101562 8.050781 13.179688 C 7.941406 13.296875 7.832031 13.414062 7.683594 13.503906 C 7.515625 13.605469 7.332031 13.65625 7.113281 13.65625 C 6.898438 13.65625 6.71875 13.609375 6.558594 13.507812 C 6.417969 13.417969 6.3125 13.296875 6.207031 13.183594 L 6.214844 13.175781 L 6.195312 13.15625 C 5.960938 12.921875 5.757812 12.714844 5.417969 12.710938 C 5.414062 12.710938 5.410156 12.710938 5.40625 12.710938 C 5.214844 12.710938 5.058594 12.753906 4.917969 12.84375 C 4.792969 12.921875 4.695312 13.03125 4.589844 13.140625 C 4.5625 13.171875 4.535156 13.199219 4.503906 13.230469 C 4.472656 13.261719 4.441406 13.292969 4.410156 13.324219 C 4.351562 13.378906 4.289062 13.425781 4.222656 13.46875 C 4.054688 13.570312 3.871094 13.617188 3.652344 13.617188 C 3.4375 13.617188 3.257812 13.570312 3.097656 13.46875 C 2.957031 13.378906 2.847656 13.257812 2.746094 13.144531 C 2.585938 12.96875 2.433594 12.796875 2.167969 12.734375 C 2.089844 12.710938 2.011719 12.699219 1.933594 12.699219 C 1.929688 12.699219 1.921875 12.699219 1.917969 12.699219 C 1.734375 12.699219 1.582031 12.742188 1.445312 12.828125 C 1.371094 12.875 1.308594 12.929688 1.246094 12.992188 C 1.191406 13.042969 1.140625 13.09375 1.089844 13.144531 L 1.085938 13.148438 C 1.03125 13.203125 0.972656 13.261719 0.910156 13.316406 L 0.917969 13.324219 C 0.871094 13.363281 0.820312 13.402344 0.765625 13.433594 C 0.605469 13.535156 0.421875 13.582031 0.210938 13.582031 C 0.140625 13.582031 0.0703125 13.578125 0 13.5625 L 0 13.914062 C 0.0703125 13.921875 0.140625 13.925781 0.210938 13.925781 C 0.652344 13.925781 0.9375 13.761719 1.144531 13.582031 L 1.148438 13.582031 C 1.167969 13.5625 1.183594 13.546875 1.203125 13.527344 C 1.214844 13.515625 1.226562 13.503906 1.242188 13.492188 C 1.273438 13.460938 1.308594 13.425781 1.339844 13.394531 C 1.539062 13.191406 1.660156 13.070312 1.933594 13.066406 L 1.941406 13.066406 C 2.015625 13.066406 2.074219 13.074219 2.128906 13.089844 C 2.222656 13.140625 2.316406 13.226562 2.453125 13.367188 C 2.503906 13.414062 2.554688 13.46875 2.613281 13.523438 C 2.828125 13.742188 3.128906 13.972656 3.652344 13.972656 C 4.101562 13.972656 4.394531 13.804688 4.609375 13.621094 C 4.621094 13.609375 4.632812 13.597656 4.644531 13.585938 C 4.683594 13.550781 4.722656 13.515625 4.757812 13.476562 C 4.769531 13.464844 4.785156 13.449219 4.800781 13.433594 C 5 13.230469 5.121094 13.109375 5.394531 13.105469 L 5.40625 13.105469 C 5.660156 13.105469 5.753906 13.210938 5.945312 13.421875 C 6.167969 13.667969 6.476562 14.011719 7.113281 14.011719 C 7.757812 14.011719 8.074219 13.671875 8.308594 13.421875 C 8.3125 13.417969 8.3125 13.417969 8.316406 13.414062 L 8.320312 13.417969 C 8.347656 13.390625 8.371094 13.363281 8.398438 13.339844 C 8.4375 13.296875 8.472656 13.257812 8.507812 13.226562 C 8.605469 13.148438 8.707031 13.105469 8.867188 13.105469 C 8.867188 13.105469 8.871094 13.105469 8.875 13.105469 C 9.070312 13.105469 9.183594 13.203125 9.414062 13.433594 C 9.503906 13.523438 9.621094 13.640625 9.769531 13.722656 C 9.953125 13.859375 10.203125 13.949219 10.539062 13.960938 C 10.660156 13.972656 10.753906 13.964844 10.824219 13.953125 L 10.824219 13.949219 C 11.15625 13.90625 11.386719 13.765625 11.566406 13.613281 C 11.578125 13.601562 11.589844 13.589844 11.601562 13.578125 C 11.640625 13.542969 11.679688 13.507812 11.714844 13.46875 C 11.730469 13.457031 11.742188 13.441406 11.757812 13.425781 C 11.960938 13.222656 12.082031 13.101562 12.351562 13.097656 L 12.363281 13.097656 C 12.617188 13.097656 12.714844 13.203125 12.902344 13.414062 C 13.128906 13.660156 13.433594 14.003906 14.070312 14.003906 C 14.714844 14.003906 15.03125 13.664062 15.265625 13.414062 C 15.457031 13.210938 15.566406 13.097656 15.824219 13.097656 C 15.828125 13.097656 15.828125 13.097656 15.832031 13.097656 C 16.03125 13.097656 16.144531 13.195312 16.375 13.425781 C 16.53125 13.585938 16.726562 13.78125 17 13.898438 L 17 13.5 C 16.855469 13.410156 16.734375 13.292969 16.625 13.179688 Z M 16.625 13.179688 "/>
<path fill-rule="nonzero" fill="#FFFFFF" fill-opacity="1" d="M 16.625 14.425781 C 16.40625 14.207031 16.199219 13.996094 15.839844 13.992188 C 15.832031 13.992188 15.828125 13.992188 15.824219 13.992188 C 15.632812 13.992188 15.480469 14.035156 15.335938 14.125 C 15.214844 14.203125 15.113281 14.308594 15.007812 14.421875 C 14.898438 14.535156 14.789062 14.65625 14.640625 14.746094 C 14.476562 14.847656 14.289062 14.898438 14.070312 14.898438 C 13.855469 14.898438 13.675781 14.847656 13.519531 14.75 C 13.375 14.65625 13.269531 14.539062 13.164062 14.425781 C 13.164062 14.425781 13.164062 14.425781 13.164062 14.421875 L 13.171875 14.417969 L 13.152344 14.398438 C 12.917969 14.160156 12.714844 13.957031 12.375 13.953125 C 12.371094 13.953125 12.367188 13.953125 12.363281 13.953125 C 12.171875 13.953125 12.015625 13.996094 11.875 14.085938 C 11.75 14.164062 11.652344 14.269531 11.546875 14.382812 C 11.519531 14.410156 11.492188 14.441406 11.464844 14.46875 C 11.433594 14.5 11.398438 14.535156 11.367188 14.5625 C 11.308594 14.617188 11.246094 14.664062 11.179688 14.707031 C 11.015625 14.808594 10.828125 14.859375 10.609375 14.859375 C 10.59375 14.859375 10.578125 14.859375 10.566406 14.859375 C 10.378906 14.835938 10.160156 14.753906 9.976562 14.65625 C 9.875 14.574219 9.789062 14.476562 9.703125 14.386719 C 9.503906 14.164062 9.316406 13.953125 8.902344 13.953125 L 8.886719 13.953125 C 8.601562 13.957031 8.425781 14.070312 8.277344 14.207031 C 8.195312 14.273438 8.125 14.347656 8.050781 14.429688 C 7.941406 14.542969 7.832031 14.664062 7.683594 14.753906 C 7.515625 14.855469 7.332031 14.90625 7.113281 14.90625 C 6.898438 14.90625 6.71875 14.855469 6.558594 14.757812 C 6.417969 14.664062 6.3125 14.546875 6.207031 14.433594 L 6.214844 14.425781 L 6.195312 14.40625 C 5.960938 14.167969 5.757812 13.964844 5.417969 13.960938 C 5.414062 13.960938 5.410156 13.960938 5.40625 13.960938 C 5.214844 13.960938 5.058594 14.003906 4.917969 14.09375 C 4.792969 14.171875 4.695312 14.277344 4.589844 14.390625 C 4.5625 14.417969 4.535156 14.449219 4.503906 14.476562 C 4.472656 14.511719 4.441406 14.542969 4.410156 14.570312 C 4.351562 14.625 4.289062 14.671875 4.222656 14.714844 C 4.054688 14.816406 3.871094 14.867188 3.652344 14.867188 C 3.4375 14.867188 3.257812 14.816406 3.097656 14.71875 C 2.957031 14.625 2.847656 14.507812 2.746094 14.394531 C 2.585938 14.214844 2.433594 14.046875 2.167969 13.984375 C 2.089844 13.960938 2.011719 13.949219 1.933594 13.949219 C 1.929688 13.949219 1.921875 13.949219 1.917969 13.949219 C 1.734375 13.949219 1.582031 13.988281 1.445312 14.078125 C 1.371094 14.125 1.308594 14.179688 1.246094 14.242188 C 1.191406 14.289062 1.140625 14.339844 1.089844 14.394531 L 1.085938 14.394531 C 1.03125 14.453125 0.972656 14.511719 0.910156 14.566406 L 0.917969 14.570312 C 0.871094 14.613281 0.820312 14.652344 0.765625 14.683594 C 0.605469 14.78125 0.421875 14.832031 0.210938 14.832031 C 0.140625 14.832031 0.0703125 14.824219 0 14.8125 L 0 15.160156 C 0.0703125 15.171875 0.140625 15.175781 0.210938 15.175781 C 0.652344 15.175781 0.9375 15.011719 1.144531 14.828125 L 1.148438 14.828125 C 1.167969 14.8125 1.183594 14.792969 1.203125 14.777344 C 1.214844 14.765625 1.226562 14.753906 1.242188 14.742188 C 1.273438 14.707031 1.308594 14.675781 1.339844 14.644531 C 1.539062 14.441406 1.660156 14.316406 1.933594 14.3125 L 1.941406 14.3125 C 2.015625 14.3125 2.074219 14.324219 2.128906 14.339844 C 2.222656 14.386719 2.316406 14.476562 2.453125 14.613281 C 2.503906 14.664062 2.554688 14.71875 2.613281 14.769531 C 2.828125 14.992188 3.128906 15.21875 3.652344 15.21875 C 4.101562 15.21875 4.394531 15.054688 4.609375 14.867188 C 4.621094 14.859375 4.632812 14.847656 4.644531 14.835938 C 4.683594 14.800781 4.722656 14.761719 4.757812 14.726562 C 4.769531 14.710938 4.785156 14.699219 4.800781 14.683594 L 4.800781 14.679688 C 5 14.480469 5.121094 14.355469 5.394531 14.351562 L 5.40625 14.351562 C 5.660156 14.351562 5.753906 14.457031 5.945312 14.667969 C 6.167969 14.917969 6.476562 15.257812 7.113281 15.257812 C 7.757812 15.257812 8.074219 14.917969 8.308594 14.671875 C 8.3125 14.667969 8.3125 14.664062 8.316406 14.660156 L 8.320312 14.667969 C 8.347656 14.640625 8.371094 14.613281 8.398438 14.585938 C 8.4375 14.546875 8.472656 14.507812 8.507812 14.476562 C 8.605469 14.394531 8.707031 14.351562 8.867188 14.351562 C 8.867188 14.351562 8.871094 14.351562 8.875 14.351562 C 9.070312 14.355469 9.183594 14.449219 9.414062 14.683594 C 9.503906 14.773438 9.621094 14.890625 9.769531 14.972656 C 9.953125 15.109375 10.203125 15.195312 10.539062 15.210938 C 10.660156 15.222656 10.753906 15.214844 10.824219 15.203125 L 10.824219 15.199219 C 11.15625 15.15625 11.386719 15.015625 11.566406 14.859375 C 11.578125 14.851562 11.589844 14.839844 11.601562 14.828125 C 11.640625 14.792969 11.679688 14.753906 11.714844 14.71875 C 11.730469 14.703125 11.742188 14.691406 11.757812 14.675781 L 11.757812 14.671875 C 11.960938 14.472656 12.082031 14.347656 12.351562 14.34375 L 12.363281 14.34375 C 12.617188 14.34375 12.714844 14.449219 12.902344 14.660156 C 13.128906 14.910156 13.433594 15.25 14.070312 15.25 C 14.714844 15.25 15.03125 14.910156 15.265625 14.664062 C 15.457031 14.457031 15.566406 14.34375 15.824219 14.34375 C 15.828125 14.34375 15.828125 14.34375 15.832031 14.34375 C 16.03125 14.347656 16.144531 14.441406 16.375 14.675781 C 16.53125 14.835938 16.726562 15.03125 17 15.148438 L 17 14.75 C 16.855469 14.660156 16.734375 14.539062 16.625 14.425781 Z M 16.625 14.425781 "/>
<path fill-rule="nonzero" fill="#FFFFFF" fill-opacity="1" d="M 16.625 15.675781 C 16.40625 15.453125 16.199219 15.246094 15.839844 15.242188 C 15.832031 15.242188 15.828125 15.242188 15.824219 15.242188 C 15.632812 15.242188 15.480469 15.28125 15.335938 15.375 C 15.214844 15.453125 15.113281 15.558594 15.007812 15.667969 C 14.898438 15.785156 14.789062 15.902344 14.640625 15.996094 C 14.476562 16.097656 14.289062 16.144531 14.070312 16.144531 C 13.855469 16.144531 13.675781 16.097656 13.519531 15.996094 C 13.375 15.90625 13.269531 15.789062 13.164062 15.671875 L 13.171875 15.667969 L 13.152344 15.648438 C 12.917969 15.410156 12.714844 15.207031 12.375 15.203125 C 12.371094 15.203125 12.367188 15.203125 12.363281 15.203125 C 12.171875 15.203125 12.015625 15.242188 11.875 15.335938 C 11.75 15.414062 11.652344 15.519531 11.546875 15.628906 C 11.519531 15.660156 11.492188 15.691406 11.464844 15.71875 C 11.433594 15.75 11.398438 15.78125 11.367188 15.8125 C 11.308594 15.867188 11.246094 15.914062 11.179688 15.957031 C 11.015625 16.058594 10.828125 16.105469 10.609375 16.105469 C 10.59375 16.105469 10.578125 16.105469 10.566406 16.105469 C 10.378906 16.085938 10.160156 16.003906 9.976562 15.902344 C 9.875 15.820312 9.789062 15.726562 9.703125 15.632812 C 9.503906 15.410156 9.316406 15.203125 8.902344 15.203125 L 8.886719 15.203125 C 8.601562 15.203125 8.425781 15.320312 8.277344 15.457031 C 8.195312 15.523438 8.125 15.597656 8.050781 15.675781 C 7.941406 15.792969 7.832031 15.910156 7.683594 16.003906 C 7.515625 16.105469 7.332031 16.152344 7.113281 16.152344 C 6.898438 16.152344 6.71875 16.105469 6.558594 16.003906 C 6.417969 15.914062 6.3125 15.796875 6.207031 15.679688 L 6.214844 15.675781 L 6.195312 15.65625 C 5.960938 15.417969 5.757812 15.214844 5.417969 15.210938 C 5.414062 15.210938 5.410156 15.210938 5.40625 15.210938 C 5.214844 15.210938 5.058594 15.25 4.917969 15.34375 C 4.792969 15.421875 4.695312 15.527344 4.589844 15.640625 C 4.5625 15.667969 4.535156 15.699219 4.503906 15.726562 C 4.472656 15.757812 4.441406 15.789062 4.410156 15.820312 C 4.351562 15.875 4.289062 15.921875 4.222656 15.964844 C 4.054688 16.066406 3.871094 16.113281 3.652344 16.113281 C 3.4375 16.113281 3.257812 16.066406 3.097656 15.964844 C 2.957031 15.875 2.847656 15.757812 2.746094 15.640625 C 2.585938 15.464844 2.433594 15.292969 2.167969 15.234375 C 2.089844 15.210938 2.011719 15.199219 1.933594 15.195312 C 1.929688 15.195312 1.921875 15.195312 1.917969 15.195312 C 1.734375 15.195312 1.582031 15.238281 1.445312 15.328125 C 1.371094 15.371094 1.308594 15.429688 1.246094 15.488281 C 1.191406 15.539062 1.140625 15.589844 1.089844 15.644531 L 1.085938 15.644531 C 1.03125 15.699219 0.972656 15.757812 0.910156 15.8125 L 0.917969 15.820312 C 0.871094 15.863281 0.820312 15.898438 0.765625 15.933594 C 0.605469 16.03125 0.421875 16.078125 0.210938 16.078125 C 0.140625 16.078125 0.0703125 16.074219 0 16.0625 L 0 16.410156 C 0.0703125 16.417969 0.140625 16.425781 0.210938 16.425781 C 0.652344 16.425781 0.9375 16.257812 1.144531 16.078125 L 1.148438 16.078125 C 1.167969 16.0625 1.183594 16.042969 1.203125 16.027344 C 1.214844 16.015625 1.226562 16.003906 1.242188 15.992188 C 1.273438 15.957031 1.308594 15.925781 1.339844 15.894531 L 1.339844 15.890625 C 1.539062 15.6875 1.660156 15.566406 1.933594 15.5625 L 1.941406 15.5625 C 2.015625 15.5625 2.074219 15.570312 2.128906 15.589844 C 2.222656 15.636719 2.316406 15.726562 2.453125 15.863281 C 2.503906 15.914062 2.554688 15.964844 2.613281 16.019531 C 2.828125 16.238281 3.128906 16.46875 3.652344 16.46875 C 4.101562 16.46875 4.394531 16.300781 4.609375 16.117188 C 4.621094 16.105469 4.632812 16.09375 4.644531 16.085938 C 4.683594 16.046875 4.722656 16.011719 4.757812 15.976562 C 4.769531 15.960938 4.785156 15.945312 4.800781 15.929688 C 5 15.726562 5.121094 15.605469 5.394531 15.601562 L 5.40625 15.601562 C 5.660156 15.601562 5.753906 15.707031 5.945312 15.917969 C 6.167969 16.167969 6.476562 16.507812 7.113281 16.507812 C 7.757812 16.507812 8.074219 16.167969 8.308594 15.917969 C 8.3125 15.917969 8.3125 15.914062 8.316406 15.910156 L 8.320312 15.914062 C 8.347656 15.886719 8.371094 15.863281 8.398438 15.835938 C 8.4375 15.792969 8.472656 15.757812 8.507812 15.722656 C 8.605469 15.644531 8.707031 15.601562 8.867188 15.601562 C 8.867188 15.601562 8.871094 15.601562 8.875 15.601562 C 9.070312 15.605469 9.183594 15.699219 9.414062 15.933594 C 9.503906 16.019531 9.621094 16.136719 9.769531 16.222656 C 9.953125 16.359375 10.203125 16.445312 10.539062 16.460938 C 10.660156 16.472656 10.753906 16.464844 10.824219 16.449219 C 11.15625 16.402344 11.386719 16.261719 11.566406 16.109375 C 11.578125 16.097656 11.589844 16.085938 11.601562 16.078125 C 11.640625 16.039062 11.679688 16.003906 11.714844 15.96875 C 11.730469 15.953125 11.742188 15.9375 11.757812 15.921875 C 11.960938 15.71875 12.082031 15.597656 12.351562 15.59375 L 12.363281 15.59375 C 12.617188 15.59375 12.714844 15.699219 12.902344 15.910156 C 13.128906 16.160156 13.433594 16.5 14.070312 16.5 C 14.714844 16.5 15.03125 16.160156 15.265625 15.910156 C 15.457031 15.707031 15.566406 15.59375 15.824219 15.59375 C 15.828125 15.59375 15.828125 15.59375 15.832031 15.59375 C 16.03125 15.597656 16.144531 15.691406 16.375 15.925781 C 16.53125 16.082031 16.726562 16.28125 17 16.398438 L 17 16 C 16.855469 15.910156 16.734375 15.789062 16.625 15.675781 Z M 16.625 15.675781 "/>
<path fill-rule="nonzero" fill="#FFFFFF" fill-opacity="1" d="M 8.203125 11.925781 C 8.203125 12.632812 7.730469 13.207031 7.148438 13.207031 C 6.5625 13.207031 6.089844 12.632812 6.089844 11.925781 C 6.089844 11.21875 6.5625 10.644531 7.148438 10.644531 C 7.730469 10.644531 8.203125 11.21875 8.203125 11.925781 Z M 8.203125 11.925781 "/>
<path fill-rule="nonzero" fill="#FFFFFF" fill-opacity="1" d="M 14.257812 7.429688 C 14.96875 8.121094 13.738281 8.5625 13.738281 8.5625 C 13.738281 8.5625 15.671875 8.339844 15.613281 7.097656 C 15.566406 6.136719 15.011719 5.222656 12.273438 4.398438 L 12.238281 6.492188 C 12.871094 6.589844 13.765625 6.953125 14.257812 7.429688 Z M 14.257812 7.429688 "/>
<path fill-rule="nonzero" fill="#FFFFFF" fill-opacity="1" d="M 16.847656 2.132812 L 16.8125 0 C 16.8125 0 13.558594 0 10.257812 0.0820312 C 9.945312 0.101562 9.636719 0.125 9.328125 0.148438 C 8.902344 0.1875 8.480469 0.230469 8.070312 0.28125 C 7.945312 0.296875 7.824219 0.316406 7.703125 0.332031 C 5.882812 0.597656 4.371094 1.054688 3.890625 1.832031 C 3.1875 2.96875 4.351562 4.285156 4.351562 4.285156 C 4.4375 2.75 6.746094 2.578125 9.242188 2.28125 C 11.175781 2.109375 16.847656 2.132812 16.847656 2.132812 Z M 16.847656 2.132812 "/>
<path fill-rule="nonzero" fill="#FFFFFF" fill-opacity="1" d="M 10.660156 2.625 L 10.625 3.988281 C 7.96875 3.484375 7.628906 3.023438 7.601562 3.023438 C 5.171875 3.1875 4.761719 4.628906 4.761719 4.628906 C 6.042969 5.273438 8.925781 5.917969 10.660156 6.273438 L 10.664062 9.566406 L 7.304688 10.320312 C 7.304688 10.320312 7.308594 10.320312 7.320312 10.320312 C 7.371094 10.316406 7.425781 10.316406 7.480469 10.320312 C 8.042969 10.351562 8.796875 11.0625 8.628906 12.058594 C 8.582031 12.351562 8.417969 12.882812 8.1875 13.042969 C 8.675781 12.945312 9.484375 12.753906 10.769531 12.507812 C 11.175781 12.429688 11.609375 12.332031 11.96875 12.261719 C 12.570312 12.136719 13.09375 12.027344 13.46875 11.933594 C 15.390625 11.453125 16.757812 10.40625 16.914062 8.683594 C 17.1875 7.242188 15.234375 5.867188 15.234375 5.867188 C 15.5625 6.171875 16.800781 7.71875 14.746094 8.566406 C 14.1875 8.796875 13.371094 9.15625 12.363281 9.339844 L 12.3125 2.660156 C 11.535156 2.507812 10.839844 2.609375 10.660156 2.625 Z M 10.660156 2.625 "/>
</g>
</svg>
