<?xml version="1.0" encoding="UTF-8"?>
<svg xmlns="http://www.w3.org/2000/svg" xmlns:xlink="http://www.w3.org/1999/xlink" width="11" height="10.681361" viewBox="0 0 11 10.681361">
<path fill-rule="nonzero" fill="rgb(30%,30%,30%)" fill-opacity="1" d="M 10.757812 8.527344 C 10.617188 8.382812 10.480469 8.25 10.25 8.246094 C 10.246094 8.246094 10.242188 8.246094 10.238281 8.246094 C 10.117188 8.246094 10.015625 8.273438 9.921875 8.332031 C 9.84375 8.382812 9.78125 8.449219 9.710938 8.523438 C 9.640625 8.597656 9.570312 8.675781 9.472656 8.734375 C 9.367188 8.800781 9.246094 8.832031 9.105469 8.832031 C 8.964844 8.832031 8.847656 8.800781 8.746094 8.734375 C 8.65625 8.675781 8.585938 8.601562 8.519531 8.527344 C 8.519531 8.523438 8.519531 8.523438 8.519531 8.523438 L 8.523438 8.519531 L 8.511719 8.507812 C 8.359375 8.355469 8.226562 8.222656 8.007812 8.21875 C 8.003906 8.21875 8.003906 8.21875 8 8.21875 C 7.875 8.21875 7.777344 8.246094 7.683594 8.304688 C 7.605469 8.355469 7.539062 8.425781 7.472656 8.5 C 7.453125 8.515625 7.4375 8.535156 7.417969 8.554688 C 7.398438 8.574219 7.375 8.597656 7.355469 8.617188 C 7.316406 8.652344 7.277344 8.683594 7.234375 8.707031 C 7.125 8.773438 7.003906 8.804688 6.863281 8.804688 C 6.855469 8.804688 6.84375 8.804688 6.835938 8.804688 C 6.71875 8.792969 6.574219 8.738281 6.457031 8.675781 C 6.386719 8.621094 6.332031 8.558594 6.277344 8.5 C 6.148438 8.355469 6.027344 8.21875 5.757812 8.21875 L 5.75 8.21875 C 5.566406 8.222656 5.449219 8.296875 5.355469 8.386719 C 5.304688 8.425781 5.257812 8.476562 5.210938 8.527344 C 5.140625 8.601562 5.066406 8.679688 4.972656 8.738281 C 4.863281 8.804688 4.742188 8.835938 4.601562 8.835938 C 4.464844 8.835938 4.347656 8.804688 4.246094 8.738281 C 4.152344 8.679688 4.082031 8.605469 4.015625 8.53125 L 4.019531 8.527344 L 4.007812 8.515625 C 3.855469 8.359375 3.726562 8.226562 3.507812 8.226562 C 3.503906 8.226562 3.5 8.226562 3.496094 8.226562 C 3.375 8.226562 3.273438 8.253906 3.179688 8.3125 C 3.101562 8.363281 3.039062 8.429688 2.96875 8.503906 C 2.953125 8.523438 2.933594 8.542969 2.914062 8.558594 C 2.894531 8.582031 2.875 8.601562 2.851562 8.621094 C 2.816406 8.65625 2.773438 8.6875 2.730469 8.714844 C 2.625 8.78125 2.503906 8.8125 2.363281 8.8125 C 2.222656 8.8125 2.105469 8.78125 2.003906 8.714844 C 1.914062 8.65625 1.84375 8.578125 1.777344 8.503906 C 1.671875 8.390625 1.574219 8.28125 1.402344 8.242188 C 1.351562 8.226562 1.300781 8.21875 1.25 8.21875 C 1.246094 8.21875 1.246094 8.21875 1.242188 8.21875 C 1.121094 8.21875 1.023438 8.242188 0.933594 8.300781 C 0.886719 8.332031 0.847656 8.367188 0.804688 8.40625 C 0.769531 8.4375 0.738281 8.472656 0.703125 8.507812 C 0.667969 8.542969 0.628906 8.582031 0.589844 8.617188 L 0.59375 8.621094 C 0.5625 8.648438 0.53125 8.671875 0.496094 8.691406 C 0.390625 8.757812 0.273438 8.789062 0.136719 8.789062 C 0.0898438 8.789062 0.0429688 8.785156 0 8.777344 L 0 9.003906 C 0.046875 9.007812 0.0898438 9.011719 0.136719 9.011719 C 0.421875 9.011719 0.605469 8.90625 0.742188 8.789062 C 0.753906 8.777344 0.765625 8.765625 0.777344 8.753906 C 0.785156 8.746094 0.792969 8.738281 0.804688 8.730469 C 0.824219 8.710938 0.84375 8.6875 0.867188 8.667969 C 0.996094 8.535156 1.074219 8.457031 1.25 8.453125 L 1.257812 8.453125 C 1.304688 8.453125 1.34375 8.460938 1.378906 8.472656 C 1.4375 8.503906 1.5 8.558594 1.589844 8.648438 C 1.621094 8.679688 1.652344 8.714844 1.691406 8.75 C 1.832031 8.890625 2.023438 9.039062 2.363281 9.039062 C 2.652344 9.039062 2.84375 8.933594 2.980469 8.8125 C 2.988281 8.804688 2.996094 8.796875 3.003906 8.792969 C 3.03125 8.769531 3.054688 8.746094 3.078125 8.722656 C 3.085938 8.710938 3.097656 8.703125 3.105469 8.691406 C 3.234375 8.5625 3.3125 8.480469 3.492188 8.480469 L 3.496094 8.480469 C 3.664062 8.480469 3.722656 8.546875 3.847656 8.683594 C 3.992188 8.84375 4.191406 9.066406 4.601562 9.066406 C 5.019531 9.066406 5.226562 8.84375 5.375 8.683594 C 5.378906 8.683594 5.378906 8.679688 5.382812 8.679688 L 5.382812 8.683594 C 5.402344 8.664062 5.417969 8.648438 5.433594 8.632812 C 5.457031 8.605469 5.480469 8.578125 5.503906 8.558594 C 5.570312 8.507812 5.632812 8.480469 5.738281 8.480469 C 5.738281 8.480469 5.742188 8.480469 5.742188 8.480469 C 5.871094 8.480469 5.941406 8.542969 6.09375 8.691406 C 6.148438 8.75 6.222656 8.828125 6.320312 8.878906 C 6.4375 8.96875 6.601562 9.027344 6.820312 9.035156 C 6.898438 9.042969 6.957031 9.039062 7.003906 9.027344 C 7.21875 9 7.367188 8.90625 7.484375 8.808594 C 7.492188 8.800781 7.5 8.792969 7.507812 8.785156 C 7.53125 8.761719 7.558594 8.738281 7.578125 8.714844 C 7.589844 8.707031 7.597656 8.695312 7.609375 8.6875 C 7.738281 8.554688 7.816406 8.476562 7.992188 8.472656 L 8 8.472656 C 8.164062 8.472656 8.226562 8.542969 8.347656 8.679688 C 8.492188 8.839844 8.691406 9.058594 9.105469 9.058594 C 9.519531 9.058594 9.726562 8.839844 9.878906 8.679688 C 10.003906 8.546875 10.070312 8.472656 10.238281 8.472656 C 10.242188 8.472656 10.242188 8.472656 10.246094 8.472656 C 10.371094 8.476562 10.445312 8.539062 10.59375 8.6875 C 10.695312 8.789062 10.820312 8.917969 11 8.996094 L 11 8.738281 C 10.90625 8.679688 10.828125 8.601562 10.757812 8.527344 Z M 10.757812 8.527344 "/>
<path fill-rule="nonzero" fill="rgb(30%,30%,30%)" fill-opacity="1" d="M 10.757812 9.335938 C 10.617188 9.191406 10.480469 9.054688 10.25 9.054688 C 10.246094 9.054688 10.242188 9.054688 10.238281 9.054688 C 10.117188 9.054688 10.015625 9.082031 9.921875 9.140625 C 9.84375 9.191406 9.78125 9.257812 9.710938 9.332031 C 9.640625 9.40625 9.570312 9.484375 9.472656 9.542969 C 9.367188 9.609375 9.246094 9.640625 9.105469 9.640625 C 8.964844 9.640625 8.847656 9.609375 8.746094 9.542969 C 8.65625 9.484375 8.585938 9.40625 8.519531 9.332031 L 8.523438 9.328125 L 8.511719 9.316406 C 8.359375 9.164062 8.226562 9.03125 8.007812 9.027344 C 8.003906 9.027344 8.003906 9.027344 8 9.027344 C 7.875 9.027344 7.777344 9.054688 7.683594 9.113281 C 7.605469 9.164062 7.539062 9.234375 7.472656 9.304688 C 7.453125 9.324219 7.4375 9.34375 7.417969 9.363281 C 7.398438 9.382812 7.375 9.402344 7.355469 9.425781 C 7.316406 9.457031 7.277344 9.488281 7.234375 9.515625 C 7.125 9.582031 7.003906 9.613281 6.863281 9.613281 C 6.855469 9.613281 6.84375 9.613281 6.835938 9.613281 C 6.71875 9.601562 6.574219 9.546875 6.457031 9.480469 C 6.386719 9.429688 6.332031 9.367188 6.277344 9.308594 C 6.148438 9.164062 6.027344 9.027344 5.757812 9.027344 L 5.75 9.027344 C 5.566406 9.03125 5.449219 9.105469 5.355469 9.191406 C 5.304688 9.234375 5.257812 9.285156 5.210938 9.335938 C 5.140625 9.410156 5.066406 9.488281 4.972656 9.546875 C 4.863281 9.613281 4.742188 9.644531 4.601562 9.644531 C 4.464844 9.644531 4.347656 9.613281 4.246094 9.546875 C 4.152344 9.488281 4.082031 9.414062 4.015625 9.339844 L 4.019531 9.335938 L 4.007812 9.320312 C 3.855469 9.167969 3.726562 9.035156 3.507812 9.035156 C 3.503906 9.035156 3.5 9.035156 3.496094 9.035156 C 3.375 9.035156 3.273438 9.0625 3.179688 9.121094 C 3.101562 9.171875 3.039062 9.238281 2.96875 9.3125 C 2.953125 9.332031 2.933594 9.347656 2.914062 9.367188 C 2.894531 9.390625 2.875 9.410156 2.851562 9.429688 C 2.816406 9.464844 2.773438 9.496094 2.730469 9.523438 C 2.625 9.585938 2.503906 9.621094 2.363281 9.621094 C 2.222656 9.621094 2.105469 9.589844 2.003906 9.523438 C 1.914062 9.464844 1.84375 9.386719 1.777344 9.3125 C 1.671875 9.199219 1.574219 9.089844 1.402344 9.050781 C 1.351562 9.035156 1.300781 9.027344 1.25 9.023438 C 1.246094 9.023438 1.246094 9.023438 1.242188 9.023438 C 1.121094 9.023438 1.023438 9.050781 0.933594 9.109375 C 0.886719 9.140625 0.847656 9.175781 0.804688 9.214844 C 0.769531 9.246094 0.738281 9.28125 0.703125 9.3125 L 0.703125 9.316406 C 0.667969 9.351562 0.628906 9.390625 0.589844 9.425781 L 0.59375 9.429688 C 0.5625 9.457031 0.53125 9.480469 0.496094 9.5 C 0.390625 9.566406 0.273438 9.597656 0.136719 9.597656 C 0.0898438 9.597656 0.0429688 9.59375 0 9.585938 L 0 9.8125 C 0.046875 9.816406 0.0898438 9.820312 0.136719 9.820312 C 0.421875 9.820312 0.605469 9.714844 0.742188 9.59375 C 0.753906 9.585938 0.765625 9.574219 0.777344 9.5625 C 0.785156 9.554688 0.792969 9.546875 0.804688 9.539062 C 0.824219 9.515625 0.84375 9.496094 0.867188 9.476562 C 0.996094 9.34375 1.074219 9.265625 1.25 9.261719 L 1.257812 9.261719 C 1.304688 9.261719 1.34375 9.269531 1.378906 9.277344 C 1.4375 9.308594 1.5 9.367188 1.589844 9.457031 C 1.621094 9.488281 1.652344 9.523438 1.691406 9.558594 C 1.832031 9.699219 2.023438 9.847656 2.363281 9.847656 C 2.652344 9.847656 2.84375 9.742188 2.980469 9.621094 C 2.988281 9.613281 2.996094 9.605469 3.003906 9.601562 C 3.03125 9.578125 3.054688 9.550781 3.078125 9.527344 C 3.085938 9.519531 3.097656 9.511719 3.105469 9.5 C 3.234375 9.367188 3.3125 9.289062 3.492188 9.289062 L 3.496094 9.289062 C 3.664062 9.289062 3.722656 9.355469 3.847656 9.492188 C 3.992188 9.652344 4.191406 9.875 4.601562 9.875 C 5.019531 9.875 5.226562 9.652344 5.375 9.492188 C 5.378906 9.492188 5.378906 9.488281 5.382812 9.488281 C 5.402344 9.472656 5.417969 9.457031 5.433594 9.4375 C 5.457031 9.410156 5.480469 9.386719 5.503906 9.367188 C 5.570312 9.316406 5.632812 9.289062 5.738281 9.289062 C 5.738281 9.289062 5.742188 9.289062 5.742188 9.289062 C 5.871094 9.289062 5.941406 9.351562 6.09375 9.5 C 6.148438 9.558594 6.222656 9.632812 6.320312 9.6875 C 6.4375 9.777344 6.601562 9.832031 6.820312 9.84375 C 6.898438 9.851562 6.957031 9.84375 7.003906 9.835938 C 7.21875 9.804688 7.367188 9.714844 7.484375 9.617188 C 7.492188 9.609375 7.5 9.601562 7.507812 9.59375 C 7.53125 9.570312 7.558594 9.546875 7.578125 9.523438 C 7.589844 9.515625 7.597656 9.503906 7.609375 9.496094 C 7.738281 9.363281 7.816406 9.285156 7.992188 9.28125 L 8 9.28125 C 8.164062 9.28125 8.226562 9.351562 8.347656 9.488281 C 8.492188 9.648438 8.691406 9.867188 9.105469 9.867188 C 9.519531 9.867188 9.726562 9.648438 9.878906 9.488281 C 10.003906 9.355469 10.070312 9.28125 10.238281 9.28125 C 10.242188 9.28125 10.242188 9.28125 10.246094 9.28125 C 10.371094 9.285156 10.445312 9.34375 10.59375 9.496094 C 10.695312 9.597656 10.820312 9.726562 11 9.800781 L 11 9.542969 C 10.90625 9.484375 10.828125 9.40625 10.757812 9.335938 Z M 10.757812 9.335938 "/>
<path fill-rule="nonzero" fill="rgb(30%,30%,30%)" fill-opacity="1" d="M 10.757812 10.144531 C 10.617188 10 10.480469 9.863281 10.25 9.863281 C 10.246094 9.863281 10.242188 9.863281 10.238281 9.863281 C 10.117188 9.863281 10.015625 9.890625 9.921875 9.949219 C 9.84375 10 9.78125 10.066406 9.710938 10.140625 C 9.640625 10.214844 9.570312 10.289062 9.472656 10.351562 C 9.367188 10.414062 9.246094 10.449219 9.105469 10.449219 C 8.964844 10.449219 8.847656 10.414062 8.746094 10.351562 C 8.65625 10.292969 8.585938 10.214844 8.519531 10.140625 L 8.523438 10.136719 L 8.511719 10.125 C 8.359375 9.972656 8.226562 9.839844 8.007812 9.835938 C 8.003906 9.835938 8.003906 9.835938 8 9.835938 C 7.875 9.835938 7.777344 9.863281 7.683594 9.921875 C 7.605469 9.972656 7.539062 10.042969 7.472656 10.113281 C 7.453125 10.132812 7.4375 10.152344 7.417969 10.171875 C 7.398438 10.191406 7.375 10.210938 7.355469 10.230469 C 7.316406 10.265625 7.277344 10.296875 7.234375 10.324219 C 7.125 10.390625 7.003906 10.421875 6.863281 10.421875 C 6.855469 10.421875 6.84375 10.421875 6.835938 10.421875 C 6.71875 10.40625 6.574219 10.355469 6.457031 10.289062 C 6.386719 10.238281 6.332031 10.175781 6.277344 10.117188 C 6.148438 9.972656 6.027344 9.835938 5.757812 9.835938 L 5.75 9.835938 C 5.566406 9.839844 5.449219 9.910156 5.355469 10 C 5.304688 10.042969 5.257812 10.09375 5.210938 10.144531 C 5.140625 10.21875 5.066406 10.296875 4.972656 10.355469 C 4.863281 10.421875 4.742188 10.453125 4.601562 10.453125 C 4.464844 10.453125 4.347656 10.421875 4.246094 10.355469 C 4.152344 10.296875 4.082031 10.21875 4.015625 10.144531 L 4.019531 10.140625 L 4.007812 10.128906 C 3.855469 9.976562 3.726562 9.84375 3.507812 9.839844 C 3.503906 9.839844 3.5 9.839844 3.496094 9.839844 C 3.375 9.839844 3.273438 9.867188 3.179688 9.925781 C 3.101562 9.976562 3.039062 10.046875 2.96875 10.121094 C 2.953125 10.136719 2.933594 10.15625 2.914062 10.175781 C 2.894531 10.195312 2.875 10.21875 2.851562 10.238281 C 2.816406 10.273438 2.773438 10.300781 2.730469 10.328125 C 2.625 10.394531 2.503906 10.425781 2.363281 10.425781 C 2.222656 10.425781 2.105469 10.394531 2.003906 10.332031 C 1.914062 10.273438 1.84375 10.195312 1.777344 10.121094 C 1.671875 10.007812 1.574219 9.894531 1.402344 9.855469 C 1.351562 9.839844 1.300781 9.832031 1.25 9.832031 C 1.246094 9.832031 1.246094 9.832031 1.242188 9.832031 C 1.121094 9.832031 1.023438 9.859375 0.933594 9.917969 C 0.886719 9.945312 0.847656 9.984375 0.804688 10.023438 C 0.769531 10.054688 0.738281 10.089844 0.703125 10.121094 C 0.667969 10.160156 0.628906 10.199219 0.589844 10.234375 L 0.59375 10.238281 C 0.5625 10.261719 0.53125 10.289062 0.496094 10.308594 C 0.390625 10.375 0.273438 10.40625 0.136719 10.40625 C 0.0898438 10.40625 0.0429688 10.402344 0 10.394531 L 0 10.617188 C 0.046875 10.625 0.0898438 10.628906 0.136719 10.628906 C 0.421875 10.628906 0.605469 10.519531 0.742188 10.402344 C 0.753906 10.390625 0.765625 10.382812 0.777344 10.371094 C 0.785156 10.363281 0.792969 10.355469 0.804688 10.347656 C 0.824219 10.324219 0.84375 10.304688 0.867188 10.285156 L 0.867188 10.28125 C 0.996094 10.152344 1.074219 10.070312 1.25 10.070312 L 1.257812 10.070312 C 1.304688 10.070312 1.34375 10.074219 1.378906 10.085938 C 1.4375 10.117188 1.5 10.175781 1.589844 10.265625 C 1.621094 10.296875 1.652344 10.332031 1.691406 10.367188 C 1.832031 10.507812 2.023438 10.65625 2.363281 10.65625 C 2.652344 10.65625 2.84375 10.546875 2.980469 10.429688 C 2.988281 10.421875 2.996094 10.414062 3.003906 10.40625 C 3.03125 10.382812 3.054688 10.359375 3.078125 10.335938 C 3.085938 10.328125 3.097656 10.316406 3.105469 10.308594 C 3.234375 10.175781 3.3125 10.097656 3.492188 10.09375 L 3.496094 10.09375 C 3.664062 10.09375 3.722656 10.164062 3.847656 10.300781 C 3.992188 10.460938 4.191406 10.679688 4.601562 10.679688 C 5.019531 10.679688 5.226562 10.460938 5.375 10.300781 C 5.378906 10.300781 5.378906 10.296875 5.382812 10.296875 C 5.402344 10.28125 5.417969 10.261719 5.433594 10.246094 C 5.457031 10.21875 5.480469 10.195312 5.503906 10.175781 C 5.570312 10.121094 5.632812 10.09375 5.738281 10.09375 C 5.738281 10.09375 5.742188 10.09375 5.742188 10.09375 C 5.871094 10.097656 5.941406 10.160156 6.09375 10.308594 C 6.148438 10.367188 6.222656 10.441406 6.320312 10.496094 C 6.4375 10.585938 6.601562 10.640625 6.820312 10.648438 C 6.898438 10.65625 6.957031 10.652344 7.003906 10.644531 L 7.003906 10.640625 C 7.21875 10.613281 7.367188 10.523438 7.484375 10.421875 C 7.492188 10.417969 7.5 10.410156 7.507812 10.402344 C 7.53125 10.378906 7.558594 10.355469 7.578125 10.332031 C 7.589844 10.324219 7.597656 10.3125 7.609375 10.304688 C 7.738281 10.171875 7.816406 10.09375 7.992188 10.089844 L 8 10.089844 C 8.164062 10.089844 8.226562 10.160156 8.347656 10.292969 C 8.492188 10.457031 8.691406 10.675781 9.105469 10.675781 C 9.519531 10.675781 9.726562 10.457031 9.878906 10.296875 C 10.003906 10.164062 10.070312 10.089844 10.238281 10.089844 C 10.242188 10.089844 10.242188 10.089844 10.246094 10.089844 C 10.371094 10.089844 10.445312 10.152344 10.59375 10.304688 C 10.695312 10.40625 10.820312 10.535156 11 10.609375 L 11 10.351562 C 10.90625 10.292969 10.828125 10.214844 10.757812 10.144531 Z M 10.757812 10.144531 "/>
<path fill-rule="nonzero" fill="rgb(30%,30%,30%)" fill-opacity="1" d="M 5.308594 7.714844 C 5.308594 8.175781 5.003906 8.546875 4.625 8.546875 C 4.246094 8.546875 3.941406 8.175781 3.941406 7.714844 C 3.941406 7.257812 4.246094 6.886719 4.625 6.886719 C 5.003906 6.886719 5.308594 7.257812 5.308594 7.714844 Z M 5.308594 7.714844 "/>
<path fill-rule="nonzero" fill="rgb(30%,30%,30%)" fill-opacity="1" d="M 9.226562 4.808594 C 9.6875 5.253906 8.890625 5.542969 8.890625 5.542969 C 8.890625 5.542969 10.140625 5.398438 10.101562 4.59375 C 10.074219 3.972656 9.710938 3.378906 7.941406 2.847656 L 7.917969 4.199219 C 8.328125 4.265625 8.90625 4.5 9.226562 4.808594 Z M 9.226562 4.808594 "/>
<path fill-rule="nonzero" fill="rgb(30%,30%,30%)" fill-opacity="1" d="M 10.898438 1.378906 L 10.878906 0 C 10.878906 0 8.773438 0 6.636719 0.0546875 C 6.433594 0.0664062 6.234375 0.078125 6.035156 0.0976562 C 5.757812 0.121094 5.484375 0.148438 5.222656 0.183594 C 5.140625 0.191406 5.0625 0.203125 4.984375 0.214844 C 3.808594 0.386719 2.828125 0.683594 2.515625 1.1875 C 2.0625 1.921875 2.816406 2.773438 2.816406 2.773438 C 2.871094 1.777344 4.367188 1.667969 5.980469 1.476562 C 7.230469 1.363281 10.898438 1.378906 10.898438 1.378906 Z M 10.898438 1.378906 "/>
<path fill-rule="nonzero" fill="rgb(30%,30%,30%)" fill-opacity="1" d="M 6.898438 1.699219 L 6.875 2.578125 C 5.15625 2.253906 4.9375 1.957031 4.917969 1.957031 C 3.34375 2.0625 3.078125 2.996094 3.078125 2.996094 C 3.910156 3.410156 5.777344 3.828125 6.898438 4.058594 L 6.898438 6.1875 L 4.726562 6.675781 C 4.726562 6.675781 4.730469 6.675781 4.734375 6.679688 C 4.769531 6.675781 4.804688 6.675781 4.839844 6.675781 C 5.203125 6.699219 5.691406 7.15625 5.585938 7.804688 C 5.550781 7.992188 5.445312 8.335938 5.296875 8.441406 C 5.613281 8.375 6.136719 8.25 6.96875 8.09375 C 7.230469 8.042969 7.511719 7.980469 7.746094 7.933594 C 8.132812 7.855469 8.472656 7.78125 8.714844 7.71875 C 9.960938 7.410156 10.84375 6.734375 10.945312 5.617188 C 11.121094 4.6875 9.859375 3.796875 9.859375 3.796875 C 10.070312 3.992188 10.871094 4.996094 9.542969 5.542969 C 9.179688 5.691406 8.652344 5.925781 8 6.042969 L 7.96875 1.722656 C 7.460938 1.625 7.011719 1.6875 6.898438 1.699219 Z M 6.898438 1.699219 "/>
</svg>
