<?xml version="1.0" encoding="UTF-8" standalone="no"?>
<!-- Created with Inkscape (http://www.inkscape.org/) -->

<svg
   xmlns:dc="http://purl.org/dc/elements/1.1/"
   xmlns:cc="http://creativecommons.org/ns#"
   xmlns:rdf="http://www.w3.org/1999/02/22-rdf-syntax-ns#"
   xmlns:svg="http://www.w3.org/2000/svg"
   xmlns="http://www.w3.org/2000/svg"
   xmlns:xlink="http://www.w3.org/1999/xlink"
   xmlns:sodipodi="http://sodipodi.sourceforge.net/DTD/sodipodi-0.dtd"
   xmlns:inkscape="http://www.inkscape.org/namespaces/inkscape"
   width="30px"
   height="30px"
   version="1.1"
   id="svg8"
   inkscape:version="0.92.4 5da689c313, 2019-01-14"
   sodipodi:docname="container.svg">
  <defs
     id="defs2" />
  <sodipodi:namedview
     id="base"
     pagecolor="#ffffff"
     bordercolor="#666666"
     borderopacity="1.0"
     inkscape:pageopacity="0.0"
     inkscape:pageshadow="2"
     inkscape:zoom="13.049334"
     inkscape:cx="18.679046"
     inkscape:cy="12.165829"
     inkscape:document-units="px"
     inkscape:current-layer="layer1"
     showgrid="false"
     inkscape:snap-page="false"
     units="px"
     inkscape:window-width="1884"
     inkscape:window-height="1061"
     inkscape:window-x="0"
     inkscape:window-y="0"
     inkscape:window-maximized="1"
     fit-margin-top="0"
     fit-margin-left="0"
     fit-margin-right="0"
     fit-margin-bottom="0" />
  <metadata
     id="metadata5">
    <rdf:RDF>
      <cc:Work
         rdf:about="">
        <dc:format>image/svg+xml</dc:format>
        <dc:type
           rdf:resource="http://purl.org/dc/dcmitype/StillImage" />
        <dc:title></dc:title>
      </cc:Work>
    </rdf:RDF>
  </metadata>
    <circle
       style="color:#000000;clip-rule:nonzero;display:inline;overflow:visible;visibility:visible;opacity:1;isolation:auto;mix-blend-mode:normal;color-interpolation:sRGB;color-interpolation-filters:linearRGB;solid-color:#000000;solid-opacity:1;vector-effect:none;fill:#e50980;fill-opacity:1;fill-rule:evenodd;stroke:#ffffff;stroke-width:1;stroke-linecap:butt;stroke-linejoin:miter;stroke-miterlimit:4;stroke-dasharray:none;stroke-dashoffset:0;stroke-opacity:1;marker:none;color-rendering:auto;image-rendering:auto;shape-rendering:auto;text-rendering:auto;enable-background:accumulate"
       id="path815"
       cx="15"
       cy="15"
       r="14.5" />
<g transform="translate(6.5,6.5)"><path fill-rule="nonzero" fill="#FFFFFF" fill-opacity="1" d="M 16.914062 3.027344 C 15.089844 1.101562 12.4375 0 9.640625 0 C 9.597656 0 9.558594 0 9.515625 0 C 8.582031 0.0117188 7.65625 0.144531 6.761719 0.398438 C 6.628906 0.3125 6.464844 0.292969 6.316406 0.339844 C 6.167969 0.390625 6.050781 0.503906 5.996094 0.652344 C 5.140625 0.96875 4.328125 1.40625 3.589844 1.945312 C 2.859375 2.476562 2.214844 3.113281 1.667969 3.835938 C 0.558594 5.3125 -0.0195312 7.042969 0 8.832031 C 0 8.886719 0.00390625 8.941406 0.0078125 8.992188 L 0.0078125 9.058594 C 0.015625 9.183594 0.09375 9.292969 0.210938 9.339844 C 0.328125 9.382812 0.460938 9.351562 0.546875 9.257812 C 1.351562 8.402344 2.554688 7.910156 3.847656 7.910156 C 4.429688 7.90625 5.003906 8.011719 5.550781 8.210938 C 5.558594 8.214844 5.566406 8.21875 5.578125 8.222656 L 5.582031 8.242188 L 5.59375 8.226562 C 5.738281 8.257812 5.882812 8.183594 5.941406 8.046875 C 6.296875 7.25 6.976562 6.589844 7.871094 6.179688 L 11.554688 16.359375 C 11.652344 16.628906 11.945312 16.765625 12.214844 16.667969 C 12.480469 16.570312 12.621094 16.277344 12.523438 16.011719 L 8.84375 5.851562 C 9.773438 5.648438 10.738281 5.71875 11.628906 6.054688 C 11.742188 6.101562 11.875 6.070312 11.960938 5.984375 L 11.980469 5.992188 L 11.96875 5.972656 C 11.992188 5.945312 12.011719 5.917969 12.023438 5.882812 C 12.617188 4.460938 14.214844 3.503906 16 3.503906 C 16.214844 3.503906 16.433594 3.519531 16.648438 3.546875 C 16.78125 3.566406 16.90625 3.5 16.964844 3.382812 C 17.027344 3.265625 17.003906 3.121094 16.914062 3.027344 Z M 5.746094 7.960938 C 5.742188 7.976562 5.734375 7.988281 5.722656 7.996094 C 5.738281 7.96875 5.753906 7.941406 5.769531 7.914062 C 5.761719 7.929688 5.753906 7.945312 5.746094 7.960938 Z M 8.605469 5.476562 C 8.464844 5.515625 8.335938 5.554688 8.214844 5.597656 C 8.070312 5.652344 7.941406 5.703125 7.824219 5.753906 C 7.003906 6.09375 6.347656 6.542969 5.664062 7.675781 C 5.328125 6.246094 5.191406 4.785156 5.277344 3.53125 C 5.367188 2.265625 5.679688 1.3125 6.144531 0.910156 C 6.226562 0.835938 6.328125 0.777344 6.433594 0.738281 C 6.550781 0.699219 6.671875 0.675781 6.792969 0.675781 C 6.804688 0.675781 6.8125 0.675781 6.824219 0.675781 C 7.179688 0.675781 7.578125 0.832031 8.003906 1.140625 C 8.394531 1.421875 8.820312 1.839844 9.269531 2.382812 C 10.089844 3.363281 10.851562 4.582031 11.472656 5.578125 C 10.273438 5.191406 9.261719 5.304688 8.605469 5.476562 Z M 8.605469 5.476562 "/>
</g>
</svg>
