<?xml version="1.0" encoding="UTF-8"?>
<svg xmlns="http://www.w3.org/2000/svg" xmlns:xlink="http://www.w3.org/1999/xlink" width="11" height="6.644718" viewBox="0 0 11 6.644718">
<path fill-rule="nonzero" fill="rgb(30%,30%,30%)" fill-opacity="1" d="M 5.5625 0 C 5.542969 0 5.519531 0 5.5 0 C 5.488281 0 5.472656 0 5.460938 0 C 2.441406 0.00390625 0 0.476562 0 1.0625 L 0 5.582031 C 0 6.167969 2.441406 6.640625 5.460938 6.644531 L 5.5625 6.644531 C 8.570312 6.636719 11 6.164062 11 5.582031 L 11 1.0625 C 11 0.480469 8.570312 0.0078125 5.5625 0 M 10.128906 2.046875 C 10.222656 2.027344 10.273438 2.011719 10.367188 1.988281 L 10.367188 2.3125 C 10.273438 2.335938 10.222656 2.351562 10.128906 2.371094 Z M 0.589844 1.96875 C 0.6875 1.992188 0.734375 2.007812 0.832031 2.027344 L 0.832031 2.351562 C 0.734375 2.328125 0.6875 2.316406 0.589844 2.292969 Z M 0.957031 5.675781 C 0.761719 5.628906 0.664062 5.605469 0.460938 5.550781 L 0.460938 4.585938 C 0.460938 4.585938 0.492188 4.3125 0.710938 4.363281 C 0.925781 4.421875 0.957031 4.710938 0.957031 4.710938 Z M 0.957031 3.964844 C 0.761719 3.917969 0.664062 3.890625 0.460938 3.839844 L 0.460938 2.875 C 0.460938 2.875 0.492188 2.597656 0.710938 2.652344 C 0.925781 2.710938 0.957031 3 0.957031 3 Z M 2.28125 5.941406 C 2.082031 5.910156 1.984375 5.894531 1.792969 5.859375 L 1.792969 4.894531 C 1.792969 4.894531 1.816406 4.613281 2.03125 4.652344 C 2.246094 4.6875 2.28125 4.980469 2.28125 4.980469 Z M 2.28125 4.230469 C 2.082031 4.199219 1.984375 4.1875 1.792969 4.148438 L 1.792969 3.183594 C 1.792969 3.183594 1.816406 2.902344 2.03125 2.941406 C 2.246094 2.976562 2.28125 3.269531 2.28125 3.269531 Z M 1.917969 2.589844 L 1.917969 2.265625 C 2.007812 2.28125 2.054688 2.289062 2.152344 2.304688 L 2.152344 2.628906 C 2.054688 2.613281 2.007812 2.609375 1.917969 2.589844 M 3.828125 6.09375 C 3.5625 6.082031 3.433594 6.074219 3.207031 6.054688 L 3.207031 5.085938 C 3.207031 5.085938 3.230469 4.808594 3.503906 4.828125 C 3.777344 4.84375 3.828125 5.132812 3.828125 5.132812 Z M 3.828125 4.382812 C 3.5625 4.371094 3.4375 4.363281 3.207031 4.34375 L 3.207031 3.378906 C 3.207031 3.378906 3.230469 3.097656 3.503906 3.113281 C 3.777344 3.132812 3.828125 3.417969 3.828125 3.417969 Z M 3.355469 2.773438 L 3.355469 2.445312 C 3.472656 2.457031 3.535156 2.460938 3.660156 2.46875 L 3.660156 2.792969 C 3.535156 2.785156 3.472656 2.78125 3.355469 2.773438 M 5.835938 6.132812 C 5.730469 6.136719 5.644531 6.136719 5.5625 6.136719 L 5.460938 6.136719 C 5.347656 6.136719 5.230469 6.136719 5.082031 6.132812 L 5.082031 5.167969 C 5.082031 5.167969 5.125 4.882812 5.457031 4.886719 L 5.460938 4.886719 C 5.5 4.886719 5.53125 4.890625 5.5625 4.898438 C 5.796875 4.949219 5.835938 5.167969 5.835938 5.167969 Z M 5.835938 4.425781 L 5.460938 4.425781 C 5.347656 4.425781 5.230469 4.425781 5.082031 4.421875 L 5.082031 3.457031 C 5.082031 3.457031 5.125 3.175781 5.457031 3.175781 L 5.460938 3.175781 C 5.5 3.175781 5.53125 3.179688 5.5625 3.1875 C 5.796875 3.238281 5.835938 3.457031 5.835938 3.457031 Z M 5.273438 2.84375 L 5.273438 2.519531 L 5.640625 2.519531 L 5.640625 2.84375 L 5.5625 2.84375 C 5.527344 2.84375 5.492188 2.84375 5.460938 2.84375 L 5.273438 2.84375 M 7.738281 6.058594 C 7.503906 6.082031 7.375 6.085938 7.105469 6.101562 L 7.105469 5.136719 C 7.105469 5.136719 7.148438 4.851562 7.429688 4.832031 C 7.710938 4.816406 7.738281 5.09375 7.738281 5.09375 Z M 7.738281 4.351562 C 7.503906 4.367188 7.375 4.378906 7.105469 4.390625 L 7.105469 3.425781 C 7.105469 3.425781 7.148438 3.140625 7.429688 3.121094 C 7.710938 3.101562 7.738281 3.382812 7.738281 3.382812 Z M 7.273438 2.800781 L 7.273438 2.472656 C 7.402344 2.46875 7.464844 2.464844 7.582031 2.457031 L 7.582031 2.78125 C 7.464844 2.789062 7.402344 2.792969 7.273438 2.800781 M 8.679688 5.953125 L 8.679688 4.988281 C 8.679688 4.988281 8.707031 4.703125 8.921875 4.667969 C 9.140625 4.628906 9.167969 4.90625 9.167969 4.90625 L 9.167969 5.871094 C 8.976562 5.90625 8.878906 5.925781 8.679688 5.953125 M 8.679688 4.242188 L 8.679688 3.28125 C 8.679688 3.28125 8.707031 2.992188 8.921875 2.953125 C 9.140625 2.917969 9.167969 3.195312 9.167969 3.195312 L 9.167969 4.164062 C 8.976562 4.199219 8.878906 4.214844 8.679688 4.242188 M 8.808594 2.644531 L 8.808594 2.320312 C 8.902344 2.304688 8.949219 2.292969 9.046875 2.277344 L 9.046875 2.601562 C 8.949219 2.621094 8.902344 2.628906 8.808594 2.644531 M 5.5625 1.941406 L 5.460938 1.941406 C 2.960938 1.9375 0.9375 1.546875 0.9375 1.0625 C 0.9375 0.578125 2.960938 0.183594 5.460938 0.183594 L 5.5625 0.183594 C 8.054688 0.1875 10.058594 0.582031 10.058594 1.0625 C 10.058594 1.546875 8.050781 1.933594 5.5625 1.941406 M 10.5 5.574219 C 10.296875 5.625 10.199219 5.648438 10.003906 5.695312 L 10.003906 4.730469 C 10.003906 4.730469 10.03125 4.441406 10.246094 4.382812 C 10.460938 4.332031 10.5 4.605469 10.5 4.605469 Z M 10.5 3.863281 C 10.296875 3.914062 10.199219 3.9375 10.003906 3.984375 L 10.003906 3.019531 C 10.003906 3.019531 10.03125 2.726562 10.246094 2.675781 C 10.460938 2.621094 10.5 2.894531 10.5 2.894531 Z M 10.5 3.863281 "/>
</svg>
