<?xml version="1.0" encoding="UTF-8"?>
<svg xmlns="http://www.w3.org/2000/svg" xmlns:xlink="http://www.w3.org/1999/xlink" width="11" height="10.100889" viewBox="0 0 11 10.100889">
<path fill-rule="nonzero" fill="rgb(30%,30%,30%)" fill-opacity="1" d="M 8.101562 0.152344 L 8.246094 0.230469 C 8.863281 0.570312 8.980469 1.40625 8.480469 1.902344 L 5.996094 4.34375 C 5.960938 4.378906 5.90625 4.386719 5.863281 4.363281 C 5.820312 4.339844 5.796875 4.289062 5.808594 4.242188 L 6.570312 0.84375 C 6.722656 0.160156 7.488281 -0.183594 8.101562 0.152344 Z M 8.101562 0.152344 "/>
<path fill-rule="nonzero" fill="rgb(30%,30%,30%)" fill-opacity="1" d="M 10.996094 4.878906 L 11 5.046875 C 11.011719 5.75 10.339844 6.265625 9.664062 6.074219 L 6.3125 5.128906 C 6.265625 5.113281 6.230469 5.070312 6.230469 5.019531 C 6.230469 4.96875 6.261719 4.925781 6.308594 4.910156 L 9.640625 3.894531 C 10.308594 3.6875 10.984375 4.183594 10.996094 4.878906 Z M 10.996094 4.878906 "/>
<path fill-rule="nonzero" fill="rgb(30%,30%,30%)" fill-opacity="1" d="M 8.574219 9.574219 L 8.4375 9.667969 C 7.855469 10.0625 7.054688 9.78125 6.84375 9.113281 L 5.800781 5.789062 C 5.789062 5.742188 5.804688 5.6875 5.847656 5.660156 C 5.890625 5.632812 5.945312 5.636719 5.984375 5.667969 L 8.65625 7.894531 C 9.195312 8.34375 9.152344 9.179688 8.574219 9.574219 Z M 8.574219 9.574219 "/>
<path fill-rule="nonzero" fill="rgb(30%,30%,30%)" fill-opacity="1" d="M 3.046875 9.992188 L 2.894531 9.917969 C 2.261719 9.605469 2.109375 8.773438 2.589844 8.261719 L 4.964844 5.710938 C 4.996094 5.675781 5.050781 5.664062 5.097656 5.6875 C 5.140625 5.710938 5.167969 5.757812 5.15625 5.808594 L 4.542969 9.234375 C 4.421875 9.921875 3.671875 10.300781 3.046875 9.992188 Z M 3.046875 9.992188 "/>
<path fill-rule="nonzero" fill="rgb(30%,30%,30%)" fill-opacity="1" d="M 0 5.023438 L 0 4.855469 C 0.00390625 4.152344 0.683594 3.648438 1.355469 3.855469 L 4.6875 4.867188 C 4.738281 4.882812 4.769531 4.925781 4.769531 4.976562 C 4.769531 5.027344 4.734375 5.070312 4.6875 5.082031 L 1.339844 6.035156 C 0.664062 6.226562 -0.00390625 5.722656 0 5.023438 Z M 0 5.023438 "/>
<path fill-rule="nonzero" fill="rgb(30%,30%,30%)" fill-opacity="1" d="M 2.769531 0.21875 L 2.917969 0.136719 C 3.53125 -0.210938 4.304688 0.132812 4.457031 0.820312 L 5.226562 4.21875 C 5.238281 4.265625 5.214844 4.316406 5.171875 4.339844 C 5.125 4.363281 5.070312 4.359375 5.035156 4.324219 L 2.550781 1.882812 C 2.054688 1.394531 2.164062 0.5625 2.769531 0.21875 Z M 2.769531 0.21875 "/>
</svg>
