<?xml version="1.0" encoding="UTF-8"?>
<svg xmlns="http://www.w3.org/2000/svg" xmlns:xlink="http://www.w3.org/1999/xlink" width="11" height="5.557899" viewBox="0 0 11 5.557899">
<path fill-rule="nonzero" fill="rgb(30%,30%,30%)" fill-opacity="1" d="M 0 5.558594 C 0 5.558594 0 3.742188 1.804688 1.949219 C 3.855469 -0.0898438 5.496094 0 5.496094 0 C 5.496094 0 6.597656 0 8.226562 1.109375 C 9.492188 1.96875 10.390625 3.480469 10.503906 3.757812 C 10.613281 4.039062 11.058594 4.945312 10.992188 5.558594 L 10.304688 5.558594 C 10.304688 5.558594 10.058594 3.796875 8.671875 2.527344 C 7.234375 1.214844 6.355469 0.796875 5.46875 0.796875 C 4.667969 0.800781 3.375 1.59375 2.433594 2.394531 C 1.082031 3.546875 0.765625 5.375 0.765625 5.558594 Z M 0 5.558594 "/>
<path fill-rule="nonzero" fill="rgb(30%,30%,30%)" fill-opacity="1" d="M 2.378906 5.558594 L 8.699219 5.558594 C 8.699219 5.558594 8.300781 4.265625 7.484375 3.480469 C 6.671875 2.695312 6.0625 2.378906 5.441406 2.394531 C 5.070312 2.40625 4.15625 2.554688 3.164062 3.859375 C 2.289062 5.011719 2.378906 5.558594 2.378906 5.558594 Z M 2.378906 5.558594 "/>
</svg>
