<?xml version="1.0" encoding="UTF-8"?>
<svg xmlns="http://www.w3.org/2000/svg" xmlns:xlink="http://www.w3.org/1999/xlink" width="11" height="10.987054" viewBox="0 0 11 10.987054">
<path fill-rule="nonzero" fill="rgb(30%,30%,30%)" fill-opacity="1" d="M 11 1.761719 C 11 1.761719 8.574219 2.410156 7.601562 3.703125 C 7.117188 4.351562 7.441406 5.324219 8.25 5.484375 C 9.253906 5.6875 10.675781 5.324219 10.675781 5.324219 C 10.191406 5.484375 9.765625 6.320312 9.632812 6.8125 C 9.460938 7.441406 9.707031 8.558594 9.707031 8.558594 C 9.582031 8.589844 7.601562 6.617188 6.308594 7.75 C 5.050781 8.847656 6.308594 10.988281 6.308594 10.988281 C 0.644531 8.398438 0.480469 4.351562 0.480469 4.351562 C 4.851562 -0.015625 11 1.761719 11 1.761719 Z M 2.125 4.164062 C 1.769531 4.164062 1.476562 4.453125 1.476562 4.8125 C 1.476562 5.167969 1.769531 5.460938 2.125 5.460938 C 2.484375 5.460938 2.773438 5.167969 2.773438 4.8125 C 2.773438 4.453125 2.484375 4.164062 2.125 4.164062 Z M 0.226562 3.296875 C 0.351562 3.296875 0.457031 3.398438 0.457031 3.523438 C 0.457031 3.648438 0.351562 3.75 0.226562 3.75 C 0.101562 3.75 0 3.652344 0 3.523438 C 0 3.398438 0.101562 3.296875 0.226562 3.296875 Z M 1.167969 2.015625 C 1.316406 2.015625 1.4375 2.136719 1.4375 2.285156 C 1.4375 2.433594 1.316406 2.558594 1.167969 2.558594 C 1.019531 2.558594 0.898438 2.433594 0.898438 2.285156 C 0.898438 2.136719 1.019531 2.015625 1.167969 2.015625 Z M 2.535156 0.820312 C 2.714844 0.820312 2.859375 0.96875 2.859375 1.148438 C 2.859375 1.328125 2.714844 1.472656 2.535156 1.472656 C 2.355469 1.472656 2.210938 1.328125 2.210938 1.148438 C 2.210938 0.96875 2.355469 0.820312 2.535156 0.820312 Z M 4.199219 0 C 4.425781 0 4.605469 0.179688 4.605469 0.40625 C 4.605469 0.632812 4.425781 0.8125 4.199219 0.8125 C 3.976562 0.8125 3.792969 0.632812 3.792969 0.40625 C 3.792969 0.179688 3.976562 0 4.199219 0 Z M 4.199219 0 "/>
</svg>
