<?xml version="1.0" encoding="UTF-8" standalone="no"?>
<!-- Created with Inkscape (http://www.inkscape.org/) -->

<svg
   xmlns:dc="http://purl.org/dc/elements/1.1/"
   xmlns:cc="http://creativecommons.org/ns#"
   xmlns:rdf="http://www.w3.org/1999/02/22-rdf-syntax-ns#"
   xmlns:svg="http://www.w3.org/2000/svg"
   xmlns="http://www.w3.org/2000/svg"
   xmlns:xlink="http://www.w3.org/1999/xlink"
   xmlns:sodipodi="http://sodipodi.sourceforge.net/DTD/sodipodi-0.dtd"
   xmlns:inkscape="http://www.inkscape.org/namespaces/inkscape"
   width="30px"
   height="30px"
   version="1.1"
   id="svg8"
   inkscape:version="0.92.4 5da689c313, 2019-01-14"
   sodipodi:docname="container.svg">
  <defs
     id="defs2" />
  <sodipodi:namedview
     id="base"
     pagecolor="#ffffff"
     bordercolor="#666666"
     borderopacity="1.0"
     inkscape:pageopacity="0.0"
     inkscape:pageshadow="2"
     inkscape:zoom="13.049334"
     inkscape:cx="18.679046"
     inkscape:cy="12.165829"
     inkscape:document-units="px"
     inkscape:current-layer="layer1"
     showgrid="false"
     inkscape:snap-page="false"
     units="px"
     inkscape:window-width="1884"
     inkscape:window-height="1061"
     inkscape:window-x="0"
     inkscape:window-y="0"
     inkscape:window-maximized="1"
     fit-margin-top="0"
     fit-margin-left="0"
     fit-margin-right="0"
     fit-margin-bottom="0" />
  <metadata
     id="metadata5">
    <rdf:RDF>
      <cc:Work
         rdf:about="">
        <dc:format>image/svg+xml</dc:format>
        <dc:type
           rdf:resource="http://purl.org/dc/dcmitype/StillImage" />
        <dc:title></dc:title>
      </cc:Work>
    </rdf:RDF>
  </metadata>
    <circle
       style="color:#000000;clip-rule:nonzero;display:inline;overflow:visible;visibility:visible;opacity:1;isolation:auto;mix-blend-mode:normal;color-interpolation:sRGB;color-interpolation-filters:linearRGB;solid-color:#000000;solid-opacity:1;vector-effect:none;fill:#ffffff;fill-opacity:1;fill-rule:evenodd;stroke:#e50980;stroke-width:1;stroke-linecap:butt;stroke-linejoin:miter;stroke-miterlimit:4;stroke-dasharray:none;stroke-dashoffset:0;stroke-opacity:1;marker:none;color-rendering:auto;image-rendering:auto;shape-rendering:auto;text-rendering:auto;enable-background:accumulate"
       id="path815"
       cx="15"
       cy="15"
       r="14.5" />
<g transform="translate(7.0,6.5)"><path fill-rule="nonzero" fill="rgb(30%,30%,30%)" fill-opacity="1" d="M 14.402344 9.425781 C 14.46875 8.207031 14.457031 4.761719 14.402344 4.476562 C 14.210938 3.476562 14.226562 1.945312 11.558594 0.601562 C 9.992188 -0.1875 7.457031 0.0273438 7.457031 0.0273438 L 0 0.0390625 C -0.0078125 0.0546875 0.0234375 2.652344 0.0234375 2.652344 C 0.0234375 2.652344 2.578125 2.414062 3.304688 3.195312 C 3.6875 3.605469 4.003906 3.820312 3.949219 5.921875 C 3.902344 7.683594 3.765625 9.316406 4.671875 10.660156 C 5.71875 12.214844 7.207031 12.136719 7.207031 12.136719 C 7.207031 12.136719 6.476562 10.648438 6.542969 9.425781 C 6.609375 8.207031 6.644531 4.75 6.542969 4.476562 C 6.261719 3.746094 5.789062 3.101562 5.175781 2.617188 C 5.945312 2.644531 6.882812 2.769531 7.273438 3.195312 C 7.65625 3.605469 7.972656 3.820312 7.917969 5.921875 C 7.871094 7.683594 7.734375 9.316406 8.640625 10.660156 C 9.6875 12.214844 11.175781 12.136719 11.175781 12.136719 C 11.175781 12.136719 10.445312 10.648438 10.511719 9.425781 C 10.582031 8.207031 10.625 4.75 10.554688 4.390625 C 10.484375 4.007812 9.941406 3.25 9.089844 2.617188 C 9.855469 2.648438 10.773438 2.773438 11.164062 3.195312 C 11.546875 3.605469 11.863281 3.820312 11.808594 5.921875 C 11.761719 7.683594 11.625 9.316406 12.53125 10.660156 C 13.578125 12.214844 15.066406 12.136719 15.066406 12.136719 C 15.066406 12.136719 14.335938 10.648438 14.402344 9.425781 Z M 14.402344 9.425781 "/>
<path fill-rule="nonzero" fill="rgb(30%,30%,30%)" fill-opacity="1" d="M 16.183594 13.746094 C 15.761719 13.402344 15.242188 12.976562 14.152344 12.984375 C 13.21875 12.992188 12.765625 13.328125 12.347656 13.628906 L 11.816406 14 C 11.570312 14.152344 11.191406 14.296875 10.628906 14.304688 C 9.996094 14.316406 9.660156 14.0625 9.226562 13.738281 C 8.757812 13.386719 8.226562 12.992188 7.28125 12.984375 C 6.203125 12.972656 5.664062 13.398438 5.234375 13.738281 C 4.828125 14.054688 4.507812 14.304688 3.777344 14.304688 C 3.082031 14.304688 2.777344 14.058594 2.398438 13.746094 C 2.085938 13.492188 1.71875 13.191406 1.105469 13.054688 L 1.105469 15.777344 C 1.367188 15.875 1.5625 16.035156 1.792969 16.222656 C 2.214844 16.570312 2.738281 17 3.84375 17 C 4.964844 17 5.511719 16.570312 5.953125 16.222656 C 6.359375 15.902344 6.652344 15.667969 7.335938 15.675781 C 7.878906 15.679688 8.1875 15.890625 8.648438 16.238281 C 9.105469 16.578125 9.671875 17 10.652344 17 C 10.671875 17 10.691406 17 10.710938 17 C 12.007812 16.976562 12.65625 16.460938 12.9375 16.136719 C 13.292969 15.875 13.617188 15.683594 14.226562 15.675781 C 14.234375 15.675781 14.242188 15.675781 14.25 15.675781 C 14.910156 15.675781 15.191406 15.90625 15.578125 16.222656 C 15.769531 16.378906 15.984375 16.554688 16.261719 16.699219 L 16.261719 13.8125 C 16.234375 13.789062 16.210938 13.769531 16.183594 13.746094 Z M 16.183594 13.746094 "/>
</g>
</svg>
