<?xml version="1.0" encoding="UTF-8" standalone="no"?>
<!-- Created with Inkscape (http://www.inkscape.org/) -->

<svg
   xmlns:dc="http://purl.org/dc/elements/1.1/"
   xmlns:cc="http://creativecommons.org/ns#"
   xmlns:rdf="http://www.w3.org/1999/02/22-rdf-syntax-ns#"
   xmlns:svg="http://www.w3.org/2000/svg"
   xmlns="http://www.w3.org/2000/svg"
   xmlns:xlink="http://www.w3.org/1999/xlink"
   xmlns:sodipodi="http://sodipodi.sourceforge.net/DTD/sodipodi-0.dtd"
   xmlns:inkscape="http://www.inkscape.org/namespaces/inkscape"
   width="30px"
   height="30px"
   version="1.1"
   id="svg8"
   inkscape:version="0.92.4 5da689c313, 2019-01-14"
   sodipodi:docname="container.svg">
  <defs
     id="defs2" />
  <sodipodi:namedview
     id="base"
     pagecolor="#ffffff"
     bordercolor="#666666"
     borderopacity="1.0"
     inkscape:pageopacity="0.0"
     inkscape:pageshadow="2"
     inkscape:zoom="13.049334"
     inkscape:cx="18.679046"
     inkscape:cy="12.165829"
     inkscape:document-units="px"
     inkscape:current-layer="layer1"
     showgrid="false"
     inkscape:snap-page="false"
     units="px"
     inkscape:window-width="1884"
     inkscape:window-height="1061"
     inkscape:window-x="0"
     inkscape:window-y="0"
     inkscape:window-maximized="1"
     fit-margin-top="0"
     fit-margin-left="0"
     fit-margin-right="0"
     fit-margin-bottom="0" />
  <metadata
     id="metadata5">
    <rdf:RDF>
      <cc:Work
         rdf:about="">
        <dc:format>image/svg+xml</dc:format>
        <dc:type
           rdf:resource="http://purl.org/dc/dcmitype/StillImage" />
        <dc:title></dc:title>
      </cc:Work>
    </rdf:RDF>
  </metadata>
    <circle
       style="color:#000000;clip-rule:nonzero;display:inline;overflow:visible;visibility:visible;opacity:1;isolation:auto;mix-blend-mode:normal;color-interpolation:sRGB;color-interpolation-filters:linearRGB;solid-color:#000000;solid-opacity:1;vector-effect:none;fill:#e50980;fill-opacity:1;fill-rule:evenodd;stroke:#ffffff;stroke-width:1;stroke-linecap:butt;stroke-linejoin:miter;stroke-miterlimit:4;stroke-dasharray:none;stroke-dashoffset:0;stroke-opacity:1;marker:none;color-rendering:auto;image-rendering:auto;shape-rendering:auto;text-rendering:auto;enable-background:accumulate"
       id="path815"
       cx="15"
       cy="15"
       r="14.5" />
<g transform="translate(6.5,10.0)"><path fill-rule="nonzero" fill="#FFFFFF" fill-opacity="1" d="M 8.597656 0 C 8.5625 0 8.53125 0 8.5 0 C 8.480469 0 8.457031 0 8.441406 0 C 3.773438 0.0078125 0 0.738281 0 1.640625 L 0 8.628906 C 0 9.53125 3.773438 10.261719 8.441406 10.269531 L 8.597656 10.269531 C 13.246094 10.257812 17 9.527344 17 8.628906 L 17 1.640625 C 17 0.742188 13.246094 0.0117188 8.597656 0 M 15.65625 3.164062 C 15.800781 3.128906 15.875 3.109375 16.023438 3.074219 L 16.023438 3.574219 C 15.875 3.613281 15.800781 3.632812 15.65625 3.664062 Z M 0.910156 3.039062 C 1.0625 3.078125 1.136719 3.101562 1.285156 3.132812 L 1.285156 3.636719 C 1.136719 3.601562 1.0625 3.582031 0.910156 3.542969 Z M 1.476562 8.769531 C 1.175781 8.699219 1.027344 8.660156 0.710938 8.578125 L 0.710938 7.085938 C 0.710938 7.085938 0.757812 6.660156 1.097656 6.746094 C 1.433594 6.832031 1.476562 7.28125 1.476562 7.28125 Z M 1.476562 6.128906 C 1.175781 6.054688 1.027344 6.015625 0.710938 5.933594 L 0.710938 4.445312 C 0.710938 4.445312 0.757812 4.015625 1.097656 4.101562 C 1.433594 4.1875 1.476562 4.636719 1.476562 4.636719 Z M 3.523438 9.183594 C 3.214844 9.136719 3.066406 9.113281 2.769531 9.054688 L 2.769531 7.5625 C 2.769531 7.5625 2.808594 7.128906 3.140625 7.1875 C 3.46875 7.246094 3.523438 7.695312 3.523438 7.695312 Z M 3.523438 6.539062 C 3.214844 6.492188 3.066406 6.46875 2.769531 6.410156 L 2.769531 4.917969 C 2.769531 4.917969 2.808594 4.488281 3.140625 4.546875 C 3.46875 4.601562 3.523438 5.050781 3.523438 5.050781 Z M 2.960938 4 L 2.960938 3.5 C 3.105469 3.527344 3.175781 3.539062 3.328125 3.5625 L 3.328125 4.0625 C 3.175781 4.042969 3.105469 4.03125 2.960938 4 M 5.914062 9.417969 C 5.503906 9.402344 5.308594 9.386719 4.957031 9.355469 L 4.957031 7.863281 C 4.957031 7.863281 4.992188 7.429688 5.414062 7.457031 C 5.835938 7.488281 5.914062 7.929688 5.914062 7.929688 Z M 5.914062 6.777344 C 5.503906 6.753906 5.308594 6.742188 4.957031 6.710938 L 4.957031 5.21875 C 4.957031 5.21875 4.992188 4.785156 5.414062 4.8125 C 5.835938 4.84375 5.914062 5.285156 5.914062 5.285156 Z M 5.1875 4.285156 L 5.1875 3.78125 C 5.367188 3.796875 5.460938 3.804688 5.65625 3.816406 L 5.65625 4.316406 C 5.460938 4.304688 5.367188 4.296875 5.1875 4.285156 M 9.019531 9.480469 C 8.859375 9.484375 8.722656 9.484375 8.597656 9.484375 L 8.441406 9.484375 C 8.261719 9.484375 8.085938 9.484375 7.851562 9.480469 L 7.851562 7.988281 C 7.851562 7.988281 7.917969 7.546875 8.433594 7.550781 L 8.441406 7.550781 C 8.5 7.550781 8.550781 7.558594 8.597656 7.570312 C 8.960938 7.648438 9.019531 7.988281 9.019531 7.988281 Z M 9.019531 6.839844 L 8.441406 6.839844 C 8.261719 6.839844 8.085938 6.839844 7.851562 6.835938 L 7.851562 5.34375 C 7.851562 5.34375 7.917969 4.90625 8.433594 4.90625 L 8.441406 4.910156 C 8.5 4.910156 8.550781 4.914062 8.597656 4.925781 C 8.960938 5.007812 9.019531 5.34375 9.019531 5.34375 Z M 8.148438 4.394531 L 8.148438 3.894531 L 8.71875 3.894531 L 8.71875 4.394531 L 8.597656 4.394531 C 8.539062 4.394531 8.492188 4.394531 8.441406 4.394531 L 8.148438 4.394531 M 11.960938 9.363281 L 11.957031 9.363281 C 11.59375 9.398438 11.398438 9.40625 10.980469 9.429688 L 10.980469 7.9375 C 10.980469 7.9375 11.050781 7.496094 11.480469 7.464844 C 11.914062 7.441406 11.960938 7.875 11.960938 7.875 Z M 11.960938 6.722656 L 11.957031 6.722656 C 11.59375 6.75 11.398438 6.765625 10.980469 6.785156 L 10.980469 5.292969 C 10.980469 5.292969 11.050781 4.851562 11.480469 4.824219 C 11.914062 4.792969 11.960938 5.230469 11.960938 5.230469 Z M 11.242188 4.328125 L 11.242188 3.824219 C 11.4375 3.8125 11.539062 3.808594 11.71875 3.796875 L 11.71875 4.296875 C 11.535156 4.308594 11.4375 4.316406 11.242188 4.328125 M 13.414062 9.199219 L 13.414062 7.710938 C 13.414062 7.710938 13.457031 7.269531 13.792969 7.210938 C 14.125 7.15625 14.167969 7.582031 14.167969 7.582031 L 14.167969 9.074219 C 13.871094 9.128906 13.722656 9.160156 13.414062 9.199219 M 13.414062 6.554688 L 13.414062 5.066406 C 13.414062 5.066406 13.457031 4.625 13.792969 4.566406 C 14.125 4.511719 14.167969 4.941406 14.167969 4.941406 L 14.167969 6.433594 C 13.871094 6.488281 13.722656 6.511719 13.414062 6.554688 M 13.609375 4.085938 L 13.609375 3.582031 C 13.757812 3.558594 13.832031 3.546875 13.980469 3.519531 L 13.980469 4.023438 C 13.832031 4.050781 13.757812 4.058594 13.609375 4.085938 M 8.597656 3 L 8.441406 3 C 4.574219 2.996094 1.453125 2.386719 1.453125 1.640625 C 1.453125 0.894531 4.574219 0.285156 8.441406 0.28125 L 8.597656 0.28125 C 12.445312 0.289062 15.546875 0.898438 15.546875 1.640625 C 15.546875 2.386719 12.445312 2.992188 8.597656 3 M 16.226562 8.613281 C 15.910156 8.695312 15.761719 8.730469 15.460938 8.800781 L 15.460938 7.3125 C 15.460938 7.3125 15.503906 6.863281 15.835938 6.777344 C 16.167969 6.695312 16.226562 7.121094 16.226562 7.121094 Z M 16.226562 5.96875 C 15.910156 6.050781 15.761719 6.085938 15.460938 6.15625 L 15.460938 4.664062 C 15.460938 4.664062 15.503906 4.214844 15.835938 4.132812 C 16.167969 4.050781 16.226562 4.476562 16.226562 4.476562 Z M 16.226562 5.96875 "/>
</g>
</svg>
