<?xml version="1.0" encoding="UTF-8"?>
<svg xmlns="http://www.w3.org/2000/svg" xmlns:xlink="http://www.w3.org/1999/xlink" width="8.377894" height="11" viewBox="0 0 8.377894 11">
<path fill-rule="nonzero" fill="rgb(30%,30%,30%)" fill-opacity="1" d="M 2.464844 1.253906 L 2.464844 3.851562 L 2.753906 3.851562 L 2.753906 1.714844 L 3.515625 1.714844 L 3.515625 5.082031 L 4.601562 5.082031 L 4.601562 5.90625 L 2.445312 5.90625 L 2.445312 7.195312 L 2.722656 7.195312 L 2.722656 6.179688 L 4.878906 6.179688 L 4.878906 4.808594 L 3.792969 4.808594 L 3.792969 1.714844 L 4.554688 1.714844 L 4.554688 2.984375 L 5.652344 2.984375 L 5.65625 3.714844 L 4.691406 3.714844 L 4.691406 3.988281 L 5.65625 3.988281 L 5.65625 5.082031 L 6.980469 5.082031 L 6.980469 4.808594 L 5.933594 4.808594 L 5.929688 2.984375 L 6.964844 2.984375 L 6.964844 2.707031 L 4.832031 2.707031 L 4.832031 1.714844 L 7.917969 1.714844 L 7.917969 3.714844 L 6.785156 3.714844 L 6.785156 3.988281 L 7.917969 3.988281 L 7.917969 9.1875 L 7.003906 9.1875 L 7.003906 8.070312 L 6.71875 8.070312 L 6.71875 9.648438 L 8.378906 9.648438 L 8.378906 1.253906 Z M 2.464844 1.253906 "/>
<path fill-rule="nonzero" fill="rgb(30%,30%,30%)" fill-opacity="1" d="M 5.691406 9.1875 L 3.792969 9.1875 L 3.792969 8.273438 L 4.894531 8.273438 L 4.894531 7.234375 L 7.035156 7.234375 L 7.035156 5.90625 L 5.796875 5.90625 L 5.796875 6.179688 L 6.761719 6.179688 L 6.761719 6.960938 L 3.589844 6.960938 L 3.589844 7.234375 L 4.617188 7.234375 L 4.617188 8 L 1.445312 8 L 1.445312 8.273438 L 3.515625 8.273438 L 3.515625 9.1875 L 0.460938 9.1875 L 0.460938 6.132812 L 1.339844 6.152344 L 1.339844 7.164062 L 1.617188 7.164062 L 1.617188 5.082031 L 2.617188 5.082031 L 2.617188 4.808594 L 1.339844 4.808594 L 1.339844 5.875 L 0.460938 5.855469 L 0.460938 1.714844 L 1.339844 1.714844 L 1.339844 3.851562 L 1.617188 3.851562 L 1.617188 1.253906 L 0 1.253906 L 0 9.648438 L 5.890625 9.648438 L 5.890625 9.644531 L 5.964844 9.644531 L 5.964844 8.070312 L 5.691406 8.070312 Z M 5.691406 9.1875 "/>
<path fill-rule="nonzero" fill="rgb(30%,30%,30%)" fill-opacity="1" d="M 2.378906 0.679688 L 2.378906 0.0546875 L 1.675781 0.0546875 L 1.675781 0.679688 L 0.976562 0.679688 L 2.027344 1.503906 L 3.078125 0.679688 Z M 2.378906 0.679688 "/>
<path fill-rule="nonzero" fill="rgb(30%,30%,30%)" fill-opacity="1" d="M 5.980469 10.335938 L 5.980469 10.957031 L 6.683594 10.953125 L 6.683594 10.332031 L 7.378906 10.332031 L 6.328125 9.511719 L 5.28125 10.335938 Z M 5.980469 10.335938 "/>
</svg>
