<?xml version="1.0" encoding="UTF-8"?>
<svg xmlns="http://www.w3.org/2000/svg" xmlns:xlink="http://www.w3.org/1999/xlink" width="8.134554" height="11" viewBox="0 0 8.134554 11">
<path fill-rule="nonzero" fill="rgb(30%,30%,30%)" fill-opacity="1" d="M 7.742188 9.042969 C 7.742188 9.042969 7.539062 8.667969 7.5 8.738281 C 6.976562 9.664062 5.714844 10.136719 5.09375 10.34375 C 4.414062 10.574219 4.074219 11 4.074219 11 L 4.066406 10.808594 L 4.0625 11 C 4.0625 11 3.722656 10.574219 3.042969 10.34375 C 2.421875 10.136719 1.15625 9.664062 0.632812 8.738281 C 0.59375 8.667969 0.390625 9.042969 0.390625 9.042969 C -0.410156 7.839844 0.269531 6.148438 0.269531 6.148438 C 0.269531 6.148438 0.792969 7.4375 1.644531 8.09375 L 1.265625 8.144531 C 1.265625 8.144531 1.605469 8.777344 2.578125 8.945312 C 3.167969 9.050781 3.363281 9.035156 3.507812 8.769531 C 3.511719 8.757812 3.515625 8.746094 3.515625 8.730469 L 3.515625 4.496094 C 3.515625 4.367188 3.410156 4.265625 3.28125 4.265625 L 2 4.265625 C 1.945312 4.265625 1.898438 4.289062 1.871094 4.332031 C 1.6875 4.601562 1.351562 4.71875 1.042969 4.625 C 0.730469 4.535156 0.515625 4.25 0.507812 3.925781 C 0.503906 3.601562 0.707031 3.3125 1.015625 3.207031 C 1.320312 3.101562 1.660156 3.207031 1.851562 3.46875 C 1.882812 3.507812 1.929688 3.53125 1.976562 3.53125 L 3.402344 3.53125 C 3.53125 3.53125 3.636719 3.425781 3.636719 3.296875 L 3.636719 2.707031 C 2.972656 2.492188 2.570312 1.816406 2.699219 1.128906 C 2.828125 0.441406 3.453125 -0.0429688 4.148438 0.00390625 C 4.824219 0.046875 5.378906 0.585938 5.441406 1.257812 C 5.5 1.902344 5.105469 2.503906 4.488281 2.703125 L 4.488281 3.296875 C 4.488281 3.425781 4.59375 3.53125 4.722656 3.53125 L 6.148438 3.53125 C 6.199219 3.53125 6.242188 3.507812 6.273438 3.464844 C 6.464844 3.207031 6.804688 3.101562 7.109375 3.207031 C 7.417969 3.3125 7.621094 3.601562 7.613281 3.925781 C 7.609375 4.25 7.394531 4.53125 7.082031 4.625 C 6.773438 4.71875 6.4375 4.601562 6.257812 4.332031 C 6.226562 4.289062 6.179688 4.265625 6.125 4.265625 L 4.867188 4.265625 C 4.738281 4.265625 4.632812 4.367188 4.632812 4.496094 L 4.632812 8.753906 C 4.632812 8.769531 4.636719 8.785156 4.644531 8.796875 C 4.785156 9.035156 4.988281 9.046875 5.554688 8.945312 C 6.527344 8.777344 6.867188 8.144531 6.867188 8.144531 L 6.492188 8.09375 C 7.34375 7.4375 7.863281 6.148438 7.863281 6.148438 C 7.863281 6.148438 8.546875 7.839844 7.742188 9.042969 Z M 4.082031 0.777344 C 3.738281 0.777344 3.460938 1.054688 3.460938 1.398438 C 3.460938 1.738281 3.738281 2.015625 4.082031 2.015625 C 4.421875 2.015625 4.703125 1.738281 4.703125 1.398438 C 4.703125 1.054688 4.421875 0.777344 4.082031 0.777344 Z M 4.082031 0.777344 "/>
</svg>
