<?xml version="1.0" encoding="UTF-8"?>
<svg xmlns="http://www.w3.org/2000/svg" xmlns:xlink="http://www.w3.org/1999/xlink" width="11" height="7.036549" viewBox="0 0 11 7.036549">
<path fill-rule="nonzero" fill="rgb(30%,30%,30%)" fill-opacity="1" d="M 7.726562 0.976562 C 7.726562 0.976562 7.355469 1.71875 6.875 2.679688 L 5.515625 0 L 4.164062 2.648438 L 3.304688 0.976562 C 3.304688 0.976562 0.0859375 6.894531 0 7.035156 L 9.089844 7.035156 L 11 7.007812 Z M 3.933594 3.636719 L 3.316406 4.335938 L 2.597656 3.617188 L 1.9375 4.019531 L 3.289062 1.566406 L 4.59375 3.878906 Z M 5.558594 2.613281 L 5.027344 2.011719 L 4.507812 2.339844 L 5.515625 0.546875 L 6.492188 2.296875 L 6.03125 2.082031 Z M 8.359375 3.609375 L 7.738281 4.308594 L 7.023438 3.589844 L 6.363281 3.992188 L 7.710938 1.535156 L 9.019531 3.847656 Z M 8.359375 3.609375 "/>
</svg>
