<?xml version="1.0" encoding="UTF-8"?>
<svg xmlns="http://www.w3.org/2000/svg" xmlns:xlink="http://www.w3.org/1999/xlink" width="11" height="7.005455" viewBox="0 0 11 7.005455">
<path fill-rule="nonzero" fill="rgb(30%,30%,30%)" fill-opacity="1" d="M 0.929688 1.707031 L 0.558594 1.457031 C 0.675781 1.28125 0.8125 1.117188 0.964844 0.964844 C 1.402344 0.523438 1.957031 0.214844 2.566406 0.078125 L 2.667969 0.515625 C 2.140625 0.632812 1.660156 0.898438 1.28125 1.28125 C 1.152344 1.410156 1.03125 1.554688 0.929688 1.707031 Z M 0.449219 3.722656 L 0.449219 3.285156 C 0.449219 2.890625 0.527344 2.503906 0.6875 2.148438 L 0.285156 1.945312 C 0.0976562 2.367188 0 2.824219 0 3.285156 L 0 3.722656 C 0 4.160156 0.0859375 4.589844 0.257812 4.992188 L 0.660156 4.800781 C 0.519531 4.457031 0.449219 4.089844 0.449219 3.722656 Z M 3.285156 0.449219 L 5.230469 0.449219 L 5.210938 0 L 3.285156 0 C 3.242188 0 3.203125 0 3.164062 0.00390625 L 3.207031 0.449219 C 3.230469 0.449219 3.257812 0.449219 3.285156 0.449219 Z M 9.71875 5.722656 C 9.3125 6.132812 8.785156 6.410156 8.21875 6.511719 L 8.324219 6.949219 C 8.972656 6.824219 9.570312 6.507812 10.035156 6.042969 C 10.1875 5.890625 10.324219 5.722656 10.445312 5.542969 L 10.0625 5.308594 C 9.960938 5.457031 9.847656 5.597656 9.71875 5.722656 Z M 5.800781 6.558594 L 5.839844 7.003906 L 7.714844 7.003906 C 7.726562 7.003906 7.738281 7.003906 7.746094 7.003906 L 7.699219 6.558594 Z M 7.644531 0.449219 L 7.675781 0 L 5.835938 0 L 5.800781 0.449219 Z M 3.296875 6.558594 L 3.257812 7.003906 C 3.265625 7.003906 3.273438 7.003906 3.285156 7.003906 L 5.207031 7.003906 L 5.230469 6.558594 Z M 1.28125 5.722656 C 1.144531 5.585938 1.023438 5.4375 0.914062 5.277344 L 0.539062 5.519531 C 0.664062 5.707031 0.804688 5.882812 0.964844 6.042969 C 1.429688 6.507812 2.023438 6.824219 2.671875 6.949219 L 2.769531 6.511719 C 2.203125 6.40625 1.683594 6.132812 1.28125 5.722656 Z M 10.550781 3.285156 L 10.550781 3.722656 C 10.550781 4.105469 10.476562 4.484375 10.324219 4.835938 L 10.734375 5.015625 C 10.910156 4.605469 11 4.167969 11 3.722656 L 11 3.285156 C 11 2.808594 10.898438 2.339844 10.695312 1.90625 L 10.300781 2.117188 C 10.464844 2.484375 10.550781 2.882812 10.550781 3.285156 Z M 9.71875 1.28125 C 9.839844 1.402344 9.949219 1.53125 10.042969 1.667969 L 10.410156 1.410156 C 10.296875 1.25 10.171875 1.101562 10.035156 0.964844 C 9.5625 0.488281 8.953125 0.167969 8.292969 0.0507812 L 8.203125 0.488281 C 8.777344 0.589844 9.308594 0.867188 9.71875 1.28125 Z M 8.855469 5.089844 C 8.609375 5.277344 8.300781 5.417969 7.96875 5.503906 L 8.074219 5.9375 C 8.46875 5.835938 8.828125 5.671875 9.125 5.449219 C 9.292969 5.324219 9.445312 5.179688 9.574219 5.011719 L 9.1875 4.777344 C 9.089844 4.894531 8.980469 5 8.855469 5.089844 Z M 9.601562 3.5625 L 9.601562 3.582031 C 9.601562 3.890625 9.539062 4.175781 9.414062 4.429688 L 9.824219 4.613281 C 9.972656 4.304688 10.050781 3.957031 10.050781 3.582031 L 10.050781 3.5625 C 10.050781 3.125 9.949219 2.738281 9.773438 2.398438 L 9.375 2.609375 C 9.519531 2.886719 9.601562 3.207031 9.601562 3.5625 Z M 9.167969 2.292969 L 9.535156 2.03125 C 9.175781 1.5625 8.652344 1.234375 8.085938 1.066406 L 7.996094 1.507812 C 8.457031 1.652344 8.875 1.917969 9.167969 2.292969 Z M 2.167969 1.960938 C 2.390625 1.789062 2.640625 1.648438 2.902344 1.554688 L 2.804688 1.113281 C 2.472656 1.226562 2.164062 1.394531 1.890625 1.609375 C 1.726562 1.742188 1.578125 1.890625 1.449219 2.058594 L 1.820312 2.308594 C 1.921875 2.179688 2.039062 2.0625 2.167969 1.960938 Z M 3.847656 5.597656 C 3.691406 5.597656 3.535156 5.585938 3.382812 5.5625 L 3.34375 6.007812 C 3.511719 6.035156 3.679688 6.046875 3.847656 6.046875 L 5.253906 6.046875 L 5.273438 5.597656 Z M 3.847656 1.382812 L 5.273438 1.382812 L 5.253906 0.9375 L 3.847656 0.9375 C 3.648438 0.9375 3.453125 0.957031 3.257812 0.992188 L 3.300781 1.441406 C 3.480469 1.402344 3.664062 1.382812 3.847656 1.382812 Z M 7.207031 1.382812 C 7.332031 1.382812 7.457031 1.394531 7.578125 1.410156 L 7.609375 0.964844 C 7.476562 0.945312 7.339844 0.9375 7.207031 0.9375 L 5.757812 0.9375 L 5.722656 1.382812 Z M 1.386719 3.554688 C 1.386719 3.175781 1.480469 2.867188 1.617188 2.613281 L 1.21875 2.414062 C 1.03125 2.765625 0.9375 3.15625 0.9375 3.554688 C 0.9375 3.917969 1.011719 4.257812 1.160156 4.5625 L 1.566406 4.371094 C 1.457031 4.144531 1.386719 3.875 1.386719 3.554688 Z M 7.207031 5.597656 L 5.722656 5.597656 L 5.757812 6.046875 L 7.207031 6.046875 C 7.351562 6.046875 7.496094 6.035156 7.636719 6.019531 L 7.589844 5.574219 C 7.460938 5.589844 7.332031 5.597656 7.207031 5.597656 Z M 2.164062 5.078125 C 2.023438 4.972656 1.894531 4.851562 1.785156 4.714844 L 1.40625 4.960938 C 1.546875 5.140625 1.710938 5.304688 1.898438 5.4375 C 2.183594 5.648438 2.527344 5.8125 2.898438 5.914062 L 2.992188 5.476562 C 2.6875 5.386719 2.402344 5.253906 2.164062 5.078125 Z M 2.726562 4.414062 C 2.648438 4.367188 2.582031 4.304688 2.527344 4.238281 L 2.148438 4.480469 C 2.238281 4.601562 2.351562 4.703125 2.476562 4.785156 C 2.640625 4.898438 2.84375 4.988281 3.085938 5.054688 L 3.183594 4.617188 C 3 4.5625 2.847656 4.496094 2.726562 4.414062 Z M 8.304688 2.609375 C 8.371094 2.660156 8.429688 2.71875 8.484375 2.78125 L 8.847656 2.523438 C 8.769531 2.421875 8.679688 2.328125 8.578125 2.25 C 8.394531 2.113281 8.171875 2.003906 7.910156 1.933594 L 7.820312 2.375 C 8.015625 2.429688 8.175781 2.507812 8.304688 2.609375 Z M 6.863281 2.253906 C 7.082031 2.253906 7.300781 2.269531 7.519531 2.304688 L 7.550781 1.855469 C 7.324219 1.820312 7.09375 1.804688 6.863281 1.804688 L 5.6875 1.804688 L 5.648438 2.253906 Z M 6.863281 4.746094 L 5.648438 4.746094 L 5.6875 5.195312 L 6.867188 5.195312 C 7.09375 5.191406 7.316406 5.175781 7.539062 5.144531 L 7.492188 4.699219 C 7.28125 4.726562 7.074219 4.742188 6.863281 4.746094 Z M 8.710938 3.542969 L 8.710938 3.554688 C 8.710938 3.738281 8.691406 3.917969 8.617188 4.078125 L 9.023438 4.257812 C 9.113281 4.054688 9.160156 3.820312 9.160156 3.554688 L 9.160156 3.542969 C 9.160156 3.265625 9.113281 3.019531 9.015625 2.800781 L 8.617188 3.011719 C 8.679688 3.164062 8.710938 3.339844 8.710938 3.542969 Z M 4.210938 4.746094 C 3.925781 4.738281 3.675781 4.714844 3.457031 4.679688 L 3.417969 5.125 C 3.679688 5.167969 3.941406 5.191406 4.203125 5.195312 L 5.292969 5.195312 L 5.316406 4.746094 Z M 4.210938 2.253906 L 5.316406 2.253906 L 5.292969 1.804688 L 4.207031 1.804688 C 3.882812 1.808594 3.597656 1.835938 3.34375 1.886719 L 3.386719 2.335938 C 3.621094 2.285156 3.898438 2.257812 4.210938 2.253906 Z M 2.3125 3.542969 C 2.316406 3.335938 2.351562 3.160156 2.417969 3.011719 L 2.015625 2.808594 C 1.921875 3.019531 1.871094 3.261719 1.863281 3.53125 L 1.863281 3.539062 C 1.863281 3.777344 1.902344 3.988281 1.976562 4.175781 L 2.382812 3.984375 C 2.335938 3.855469 2.3125 3.710938 2.3125 3.542969 Z M 2.738281 2.605469 C 2.847656 2.527344 2.972656 2.460938 3.101562 2.417969 L 3 1.976562 C 2.796875 2.046875 2.621094 2.136719 2.472656 2.246094 C 2.355469 2.328125 2.253906 2.429688 2.171875 2.542969 L 2.542969 2.796875 C 2.597656 2.722656 2.664062 2.660156 2.738281 2.605469 Z M 7.757812 4.652344 L 7.867188 5.085938 C 8.148438 5.019531 8.382812 4.925781 8.566406 4.796875 C 8.667969 4.730469 8.753906 4.652344 8.832031 4.558594 L 8.441406 4.324219 C 8.300781 4.460938 8.082031 4.574219 7.757812 4.652344 Z M 7.757812 4.652344 "/>
</svg>
