<?xml version="1.0" encoding="UTF-8" standalone="no"?>
<!-- Created with Inkscape (http://www.inkscape.org/) -->

<svg
   xmlns:dc="http://purl.org/dc/elements/1.1/"
   xmlns:cc="http://creativecommons.org/ns#"
   xmlns:rdf="http://www.w3.org/1999/02/22-rdf-syntax-ns#"
   xmlns:svg="http://www.w3.org/2000/svg"
   xmlns="http://www.w3.org/2000/svg"
   xmlns:xlink="http://www.w3.org/1999/xlink"
   xmlns:sodipodi="http://sodipodi.sourceforge.net/DTD/sodipodi-0.dtd"
   xmlns:inkscape="http://www.inkscape.org/namespaces/inkscape"
   width="30px"
   height="30px"
   version="1.1"
   id="svg8"
   inkscape:version="0.92.4 5da689c313, 2019-01-14"
   sodipodi:docname="container.svg">
  <defs
     id="defs2" />
  <sodipodi:namedview
     id="base"
     pagecolor="#ffffff"
     bordercolor="#666666"
     borderopacity="1.0"
     inkscape:pageopacity="0.0"
     inkscape:pageshadow="2"
     inkscape:zoom="13.049334"
     inkscape:cx="18.679046"
     inkscape:cy="12.165829"
     inkscape:document-units="px"
     inkscape:current-layer="layer1"
     showgrid="false"
     inkscape:snap-page="false"
     units="px"
     inkscape:window-width="1884"
     inkscape:window-height="1061"
     inkscape:window-x="0"
     inkscape:window-y="0"
     inkscape:window-maximized="1"
     fit-margin-top="0"
     fit-margin-left="0"
     fit-margin-right="0"
     fit-margin-bottom="0" />
  <metadata
     id="metadata5">
    <rdf:RDF>
      <cc:Work
         rdf:about="">
        <dc:format>image/svg+xml</dc:format>
        <dc:type
           rdf:resource="http://purl.org/dc/dcmitype/StillImage" />
        <dc:title></dc:title>
      </cc:Work>
    </rdf:RDF>
  </metadata>
    <circle
       style="color:#000000;clip-rule:nonzero;display:inline;overflow:visible;visibility:visible;opacity:1;isolation:auto;mix-blend-mode:normal;color-interpolation:sRGB;color-interpolation-filters:linearRGB;solid-color:#000000;solid-opacity:1;vector-effect:none;fill:#e50980;fill-opacity:1;fill-rule:evenodd;stroke:#ffffff;stroke-width:1;stroke-linecap:butt;stroke-linejoin:miter;stroke-miterlimit:4;stroke-dasharray:none;stroke-dashoffset:0;stroke-opacity:1;marker:none;color-rendering:auto;image-rendering:auto;shape-rendering:auto;text-rendering:auto;enable-background:accumulate"
       id="path815"
       cx="15"
       cy="15"
       r="14.5" />
<g transform="translate(7.0,6.5)"><path fill-rule="nonzero" fill="#FFFFFF" fill-opacity="1" d="M 5.675781 8.148438 C 5.65625 7.933594 5.796875 7.507812 6.078125 7.425781 L 9.835938 6.53125 L 8.59375 2.152344 L 6.636719 2.660156 C 5.988281 0.648438 4.894531 -0.265625 3.519531 0.0664062 C 3.03125 0.1875 2.636719 0.46875 2.359375 0.90625 C 1.917969 1.589844 1.78125 2.621094 1.957031 3.867188 L 0 4.371094 L 2.015625 15.351562 C 2.050781 15.535156 2.234375 15.644531 2.417969 15.597656 L 6.71875 14.476562 Z M 6.394531 3.601562 C 6.421875 3.714844 6.535156 3.796875 6.65625 3.777344 C 6.804688 3.757812 6.898438 3.617188 6.867188 3.484375 C 6.828125 3.320312 6.789062 3.164062 6.746094 3.015625 C 6.96875 3.050781 7.152344 3.207031 7.207031 3.433594 C 7.28125 3.753906 7.0625 4.085938 6.71875 4.148438 C 6.429688 4.203125 6.144531 4.039062 6.0625 3.765625 C 5.992188 3.527344 6.085938 3.28125 6.273438 3.136719 C 6.316406 3.285156 6.355469 3.4375 6.394531 3.601562 Z M 2.765625 1.144531 C 2.972656 0.820312 3.261719 0.613281 3.621094 0.523438 C 4.414062 0.332031 5.460938 0.601562 6.167969 2.78125 L 2.433594 3.742188 C 2.285156 2.636719 2.398438 1.714844 2.765625 1.144531 Z M 2.472656 5.242188 C 2.183594 5.296875 1.902344 5.132812 1.816406 4.863281 C 1.746094 4.632812 1.835938 4.386719 2.019531 4.238281 C 2.046875 4.390625 2.078125 4.546875 2.117188 4.703125 C 2.144531 4.820312 2.257812 4.898438 2.378906 4.882812 C 2.527344 4.859375 2.621094 4.722656 2.589844 4.585938 C 2.550781 4.425781 2.519531 4.265625 2.492188 4.109375 C 2.714844 4.140625 2.90625 4.300781 2.960938 4.53125 C 3.035156 4.851562 2.816406 5.179688 2.472656 5.242188 Z M 2.472656 5.242188 "/>
<path fill-rule="nonzero" fill="#FFFFFF" fill-opacity="1" d="M 9.222656 8.199219 C 9.175781 8.003906 8.976562 7.886719 8.777344 7.9375 C 8.574219 7.988281 8.449219 8.183594 8.492188 8.378906 C 8.519531 8.507812 8.613281 8.601562 8.734375 8.636719 C 8.71875 8.59375 8.707031 8.550781 8.691406 8.503906 C 8.664062 8.402344 8.726562 8.289062 8.835938 8.257812 C 8.941406 8.226562 9.054688 8.28125 9.082031 8.386719 C 9.097656 8.433594 9.113281 8.480469 9.128906 8.527344 C 9.207031 8.441406 9.246094 8.320312 9.222656 8.199219 Z M 9.222656 8.199219 "/>
<path fill-rule="nonzero" fill="#FFFFFF" fill-opacity="1" d="M 16.300781 14.160156 L 13.925781 6.578125 C 13.800781 6.234375 13.421875 6.042969 13.046875 6.132812 L 6.769531 7.667969 L 6.765625 7.667969 C 6.386719 7.761719 6.128906 8.113281 6.164062 8.488281 L 7.496094 16.347656 C 7.515625 16.5625 7.628906 16.75 7.804688 16.871094 C 7.984375 16.992188 8.207031 17.03125 8.421875 16.976562 L 15.742188 15.164062 C 15.957031 15.109375 16.144531 14.96875 16.25 14.777344 C 16.359375 14.585938 16.375 14.359375 16.300781 14.160156 Z M 11.726562 8.066406 C 11.753906 8.488281 11.695312 8.894531 11.546875 9.238281 C 11.355469 9.695312 11.027344 10 10.628906 10.097656 C 10.234375 10.195312 9.8125 10.074219 9.445312 9.753906 C 9.167969 9.515625 8.941406 9.175781 8.789062 8.789062 C 8.578125 8.769531 8.402344 8.625 8.355469 8.414062 C 8.292969 8.144531 8.472656 7.875 8.746094 7.804688 C 9.023438 7.734375 9.296875 7.898438 9.359375 8.164062 C 9.398438 8.351562 9.324219 8.542969 9.179688 8.664062 C 9.472656 9.382812 10.046875 9.839844 10.542969 9.714844 C 10.808594 9.648438 11.035156 9.429688 11.175781 9.097656 C 11.296875 8.816406 11.347656 8.476562 11.324219 8.121094 C 11.152344 8.078125 11.015625 7.945312 10.976562 7.765625 C 10.914062 7.496094 11.089844 7.222656 11.367188 7.15625 C 11.644531 7.085938 11.917969 7.25 11.980469 7.515625 C 12.027344 7.734375 11.917969 7.957031 11.726562 8.066406 Z M 11.726562 8.066406 "/>
<path fill-rule="nonzero" fill="#FFFFFF" fill-opacity="1" d="M 11.398438 7.289062 C 11.195312 7.335938 11.066406 7.535156 11.113281 7.730469 C 11.136719 7.839844 11.210938 7.925781 11.308594 7.972656 C 11.304688 7.929688 11.296875 7.882812 11.289062 7.839844 C 11.269531 7.734375 11.34375 7.628906 11.457031 7.609375 C 11.566406 7.585938 11.671875 7.65625 11.6875 7.761719 C 11.699219 7.8125 11.703125 7.863281 11.710938 7.914062 C 11.816406 7.828125 11.871094 7.6875 11.839844 7.550781 C 11.796875 7.355469 11.597656 7.238281 11.398438 7.289062 Z M 11.398438 7.289062 "/>
</g>
</svg>
