<?xml version="1.0" encoding="UTF-8"?>
<svg xmlns="http://www.w3.org/2000/svg" xmlns:xlink="http://www.w3.org/1999/xlink" width="10.67527" height="11" viewBox="0 0 10.67527 11">
<path fill-rule="nonzero" fill="rgb(30%,30%,30%)" fill-opacity="1" d="M 8.082031 5.421875 C 8.035156 5.335938 7.957031 5.191406 7.910156 5.105469 C 7.910156 5.105469 6.6875 2.753906 6.355469 2.597656 C 6.265625 2.558594 6.902344 2.324219 7.105469 1.574219 C 7.253906 1.027344 7.199219 1.054688 7.105469 1.027344 C 6.902344 0.957031 6.550781 1.308594 6.550781 1.308594 C 6.480469 1.378906 6.34375 1.453125 6.246094 1.476562 C 6.246094 1.476562 5.691406 1.535156 5.636719 1.574219 C 5.578125 1.609375 5.460938 1.601562 5.375 1.550781 L 5.367188 1.546875 C 5.277344 1.496094 5.183594 1.421875 5.152344 1.378906 C 5.125 1.335938 5.191406 1.160156 5.242188 1.089844 C 5.289062 1.015625 5.351562 0.925781 5.382812 0.886719 C 5.410156 0.847656 5.507812 0.777344 5.59375 0.726562 C 5.59375 0.726562 5.808594 0.613281 5.808594 0.410156 C 5.808594 0.183594 5.609375 0 5.363281 0 C 5.117188 0 4.917969 0.183594 4.917969 0.410156 L 4.917969 0.449219 C 4.925781 0.488281 4.875 0.574219 4.800781 0.640625 L 4.4375 0.972656 C 4.402344 1.003906 4.355469 1.019531 4.3125 1.015625 C 4.265625 1.011719 4.222656 0.988281 4.195312 0.949219 C 4.195312 0.949219 4.023438 0.71875 3.621094 0.820312 C 3.074219 0.957031 2.730469 1.777344 2.320312 1.984375 C 2.015625 2.136719 0.269531 2.597656 0.0625 3.078125 C -0.140625 3.554688 0.199219 3.625 0.335938 3.625 C 0.472656 3.625 0.683594 3.925781 0.882812 3.964844 C 1.226562 4.035156 1.5 3.898438 1.773438 3.898438 C 2.046875 3.898438 2.800781 4.101562 3.414062 4.101562 C 4.101562 4.101562 4.484375 4.070312 4.78125 4.238281 C 5.261719 4.511719 6.921875 10.421875 6.921875 10.421875 C 6.957031 10.539062 7 10.652344 7.050781 10.761719 C 7.050781 10.761719 7.242188 11.144531 9.636719 10.941406 C 10.347656 10.878906 10.640625 10.347656 10.640625 10.347656 C 10.691406 10.257812 10.683594 10.121094 10.628906 10.035156 Z M 3.824219 2.597656 C 3.585938 2.542969 3.371094 2.371094 3.414062 2.1875 C 3.457031 2.003906 3.585938 1.925781 3.824219 1.984375 C 4.0625 2.039062 4.371094 2.1875 4.371094 2.324219 C 4.371094 2.511719 4.0625 2.65625 3.824219 2.597656 Z M 9.183594 8.265625 C 9.234375 8.355469 9.199219 8.453125 9.105469 8.488281 L 8.898438 8.566406 C 8.804688 8.601562 8.660156 8.582031 8.582031 8.523438 L 7.644531 7.847656 C 7.5625 7.789062 7.542969 7.675781 7.597656 7.589844 L 7.671875 7.480469 C 7.726562 7.398438 7.851562 7.34375 7.949219 7.355469 L 8.546875 7.441406 C 8.648438 7.457031 8.769531 7.539062 8.816406 7.625 Z M 8.304688 6.546875 C 8.34375 6.660156 8.375 6.777344 8.394531 6.894531 L 8.410156 7.015625 C 8.425781 7.113281 8.359375 7.175781 8.261719 7.15625 L 7.65625 7.027344 C 7.558594 7.007812 7.433594 6.921875 7.378906 6.839844 L 6.96875 6.25 C 6.910156 6.167969 6.917969 6.039062 6.984375 5.964844 L 7.222656 5.691406 C 7.289062 5.613281 7.425781 5.5625 7.523438 5.574219 L 7.777344 5.601562 C 7.878906 5.613281 7.988281 5.699219 8.023438 5.792969 Z M 7.632812 5.070312 C 7.6875 5.15625 7.648438 5.222656 7.546875 5.214844 L 7.355469 5.207031 C 7.257812 5.199219 7.128906 5.128906 7.074219 5.046875 L 6.730469 4.527344 C 6.671875 4.445312 6.695312 4.332031 6.777344 4.273438 L 6.886719 4.203125 C 6.925781 4.175781 6.976562 4.167969 7.023438 4.175781 C 7.066406 4.1875 7.109375 4.214844 7.132812 4.257812 Z M 6.304688 3.214844 C 6.371094 3.140625 6.472656 3.140625 6.535156 3.21875 L 6.855469 3.617188 C 6.917969 3.699219 6.90625 3.8125 6.832031 3.878906 L 6.628906 4.050781 C 6.554688 4.117188 6.449219 4.101562 6.398438 4.015625 L 6.175781 3.644531 C 6.121094 3.558594 6.132812 3.425781 6.195312 3.347656 Z M 6.488281 4.648438 C 6.570312 4.640625 6.957031 5.25 6.96875 5.46875 C 6.972656 5.535156 6.480469 6.023438 6.480469 6.023438 C 6.410156 6.097656 6.304688 6.085938 6.25 6.003906 L 5.910156 5.511719 C 5.851562 5.429688 5.859375 5.296875 5.925781 5.222656 C 5.925781 5.222656 6.414062 4.65625 6.488281 4.648438 Z M 5.964844 6.792969 C 5.914062 6.703125 5.957031 6.621094 6.054688 6.601562 L 6.492188 6.53125 C 6.589844 6.515625 6.722656 6.566406 6.785156 6.644531 L 7.164062 7.121094 C 7.226562 7.199219 7.226562 7.324219 7.160156 7.398438 L 6.75 7.863281 C 6.683594 7.9375 6.589844 7.929688 6.539062 7.839844 Z M 6.910156 8.566406 C 6.878906 8.53125 6.863281 8.484375 6.867188 8.4375 C 6.871094 8.386719 6.894531 8.34375 6.933594 8.3125 L 7.0625 8.203125 C 7.140625 8.140625 7.265625 8.136719 7.34375 8.199219 L 8.472656 9.097656 C 8.550781 9.160156 8.546875 9.257812 8.460938 9.308594 L 8.015625 9.59375 C 7.929688 9.648438 7.8125 9.628906 7.746094 9.554688 Z M 9.484375 9.960938 C 9.386719 9.933594 9.285156 9.832031 9.253906 9.738281 L 9.058594 8.984375 C 9.011719 8.894531 9.046875 8.785156 9.132812 8.734375 L 9.332031 8.621094 C 9.371094 8.597656 9.417969 8.589844 9.464844 8.605469 C 9.507812 8.621094 9.542969 8.65625 9.558594 8.699219 L 10.113281 9.988281 C 10.144531 10.082031 10.09375 10.136719 9.996094 10.109375 Z M 9.484375 9.960938 "/>
</svg>
