<?xml version="1.0" encoding="UTF-8"?>
<svg xmlns="http://www.w3.org/2000/svg" xmlns:xlink="http://www.w3.org/1999/xlink" width="10.522265" height="11" viewBox="0 0 10.522265 11">
<path fill-rule="nonzero" fill="rgb(30%,30%,30%)" fill-opacity="1" d="M 9.320312 6.101562 C 9.363281 5.308594 9.355469 3.082031 9.320312 2.898438 C 9.195312 2.25 9.207031 1.257812 7.480469 0.390625 C 6.464844 -0.121094 4.824219 0.015625 4.824219 0.015625 L 0 0.0234375 C -0.00390625 0.0351562 0.015625 1.71875 0.015625 1.71875 C 0.015625 1.71875 1.667969 1.5625 2.140625 2.066406 C 2.386719 2.332031 2.589844 2.472656 2.554688 3.832031 C 2.527344 4.972656 2.433594 6.027344 3.023438 6.898438 C 3.699219 7.90625 4.664062 7.851562 4.664062 7.851562 C 4.664062 7.851562 4.191406 6.890625 4.234375 6.101562 C 4.277344 5.308594 4.300781 3.074219 4.234375 2.898438 C 4.050781 2.421875 3.746094 2.007812 3.347656 1.695312 C 3.847656 1.710938 4.453125 1.792969 4.707031 2.066406 C 4.953125 2.332031 5.15625 2.472656 5.125 3.832031 C 5.09375 4.972656 5.003906 6.027344 5.589844 6.898438 C 6.269531 7.90625 7.230469 7.851562 7.230469 7.851562 C 7.230469 7.851562 6.757812 6.890625 6.800781 6.101562 C 6.847656 5.308594 6.875 3.074219 6.832031 2.839844 C 6.785156 2.59375 6.433594 2.101562 5.878906 1.695312 C 6.378906 1.710938 6.972656 1.796875 7.222656 2.066406 C 7.472656 2.332031 7.675781 2.472656 7.640625 3.832031 C 7.609375 4.972656 7.519531 6.027344 8.105469 6.898438 C 8.785156 7.90625 9.75 7.851562 9.75 7.851562 C 9.75 7.851562 9.277344 6.890625 9.320312 6.101562 Z M 9.320312 6.101562 "/>
<path fill-rule="nonzero" fill="rgb(30%,30%,30%)" fill-opacity="1" d="M 10.472656 8.894531 C 10.199219 8.671875 9.863281 8.394531 9.15625 8.402344 C 8.554688 8.40625 8.261719 8.621094 7.988281 8.820312 L 7.644531 9.058594 C 7.484375 9.15625 7.242188 9.25 6.875 9.257812 C 6.46875 9.265625 6.25 9.097656 5.96875 8.890625 C 5.667969 8.664062 5.320312 8.40625 4.710938 8.402344 C 4.015625 8.394531 3.664062 8.667969 3.386719 8.886719 C 3.125 9.09375 2.917969 9.257812 2.445312 9.257812 C 1.992188 9.257812 1.796875 9.097656 1.550781 8.894531 C 1.351562 8.730469 1.113281 8.535156 0.714844 8.449219 L 0.714844 10.210938 C 0.882812 10.273438 1.011719 10.375 1.160156 10.496094 C 1.433594 10.722656 1.773438 11 2.484375 11 C 3.210938 11 3.566406 10.722656 3.851562 10.496094 C 4.117188 10.289062 4.304688 10.136719 4.746094 10.144531 C 5.097656 10.148438 5.296875 10.285156 5.597656 10.507812 C 5.890625 10.726562 6.257812 11 6.890625 11 C 6.90625 11 6.917969 11 6.933594 11 C 7.769531 10.984375 8.191406 10.648438 8.371094 10.441406 C 8.601562 10.273438 8.8125 10.148438 9.203125 10.144531 C 9.210938 10.144531 9.214844 10.144531 9.21875 10.144531 C 9.648438 10.144531 9.828125 10.292969 10.078125 10.496094 C 10.203125 10.597656 10.34375 10.710938 10.523438 10.804688 L 10.523438 8.9375 C 10.503906 8.921875 10.488281 8.910156 10.472656 8.894531 Z M 10.472656 8.894531 "/>
</svg>
