<?xml version="1.0" encoding="UTF-8"?>
<svg xmlns="http://www.w3.org/2000/svg" xmlns:xlink="http://www.w3.org/1999/xlink" width="11" height="10.510927" viewBox="0 0 11 10.510927">
<path fill-rule="nonzero" fill="rgb(30%,30%,30%)" fill-opacity="1" d="M 5.523438 3.664062 L 6.007812 5.140625 L 7.511719 5.140625 L 6.320312 6.003906 L 6.78125 7.496094 L 5.523438 6.59375 L 4.277344 7.511719 L 4.738281 6.003906 L 3.542969 5.140625 L 5.035156 5.140625 Z M 5.523438 3.664062 "/>
<path fill-rule="nonzero" fill="rgb(30%,30%,30%)" fill-opacity="1" d="M 2.113281 10.511719 L 3.414062 6.5 L 0 4.019531 L 4.226562 4.019531 L 5.519531 0 L 6.839844 4.019531 L 11 4.019531 L 7.632812 6.5 L 8.910156 10.511719 L 5.519531 8.023438 Z M 4.683594 4.6875 L 2.09375 4.6875 L 4.164062 6.1875 L 3.363281 8.804688 L 5.523438 7.210938 L 7.714844 8.777344 L 6.910156 6.1875 L 8.984375 4.6875 L 6.367188 4.6875 L 5.523438 2.121094 Z M 4.683594 4.6875 "/>
</svg>
