<?xml version="1.0" encoding="UTF-8"?>
<svg xmlns="http://www.w3.org/2000/svg" xmlns:xlink="http://www.w3.org/1999/xlink" width="10.57745" height="11" viewBox="0 0 10.57745 11">
<path fill-rule="nonzero" fill="rgb(30%,30%,30%)" fill-opacity="1" d="M 3.671875 5.273438 C 3.660156 5.132812 3.75 4.859375 3.933594 4.804688 L 6.363281 4.226562 L 5.5625 1.394531 L 4.296875 1.71875 C 3.875 0.417969 3.167969 -0.171875 2.277344 0.0429688 C 1.960938 0.121094 1.707031 0.304688 1.527344 0.585938 C 1.242188 1.027344 1.152344 1.695312 1.265625 2.5 L 0 2.828125 L 1.304688 9.933594 C 1.324219 10.050781 1.445312 10.121094 1.566406 10.089844 L 4.347656 9.367188 Z M 4.136719 2.328125 C 4.15625 2.40625 4.226562 2.457031 4.308594 2.445312 C 4.402344 2.429688 4.464844 2.339844 4.445312 2.253906 C 4.417969 2.148438 4.394531 2.046875 4.367188 1.949219 C 4.507812 1.972656 4.628906 2.074219 4.664062 2.222656 C 4.710938 2.429688 4.570312 2.644531 4.347656 2.683594 C 4.160156 2.71875 3.976562 2.613281 3.921875 2.4375 C 3.878906 2.285156 3.9375 2.125 4.058594 2.03125 C 4.085938 2.125 4.113281 2.222656 4.136719 2.328125 Z M 1.789062 0.742188 C 1.921875 0.53125 2.109375 0.394531 2.34375 0.339844 C 2.855469 0.214844 3.535156 0.390625 3.992188 1.800781 L 1.574219 2.421875 C 1.476562 1.707031 1.550781 1.109375 1.789062 0.742188 Z M 1.601562 3.394531 C 1.414062 3.429688 1.230469 3.324219 1.175781 3.148438 C 1.128906 2.996094 1.1875 2.839844 1.308594 2.742188 C 1.324219 2.839844 1.347656 2.941406 1.371094 3.042969 C 1.386719 3.117188 1.460938 3.171875 1.539062 3.160156 C 1.636719 3.144531 1.695312 3.054688 1.675781 2.96875 C 1.652344 2.863281 1.628906 2.761719 1.613281 2.660156 C 1.757812 2.679688 1.878906 2.78125 1.914062 2.929688 C 1.964844 3.136719 1.820312 3.351562 1.601562 3.394531 Z M 1.601562 3.394531 "/>
<path fill-rule="nonzero" fill="rgb(30%,30%,30%)" fill-opacity="1" d="M 5.964844 5.304688 C 5.9375 5.179688 5.808594 5.101562 5.679688 5.136719 C 5.550781 5.167969 5.464844 5.296875 5.492188 5.421875 C 5.511719 5.503906 5.574219 5.566406 5.652344 5.589844 C 5.640625 5.558594 5.632812 5.53125 5.625 5.503906 C 5.605469 5.4375 5.648438 5.363281 5.71875 5.34375 C 5.785156 5.320312 5.859375 5.359375 5.878906 5.425781 C 5.886719 5.457031 5.894531 5.488281 5.90625 5.519531 C 5.957031 5.460938 5.984375 5.382812 5.964844 5.304688 Z M 5.964844 5.304688 "/>
<path fill-rule="nonzero" fill="rgb(30%,30%,30%)" fill-opacity="1" d="M 10.546875 9.164062 L 9.011719 4.257812 C 8.929688 4.035156 8.683594 3.910156 8.441406 3.96875 L 4.378906 4.960938 C 4.132812 5.023438 3.964844 5.25 3.988281 5.492188 L 4.851562 10.578125 C 4.863281 10.714844 4.9375 10.839844 5.050781 10.917969 C 5.164062 10.996094 5.308594 11.019531 5.449219 10.984375 L 10.1875 9.8125 C 10.324219 9.777344 10.445312 9.6875 10.515625 9.5625 C 10.585938 9.4375 10.597656 9.292969 10.546875 9.164062 Z M 7.585938 5.21875 C 7.605469 5.492188 7.566406 5.753906 7.472656 5.976562 C 7.347656 6.273438 7.136719 6.46875 6.878906 6.535156 C 6.621094 6.597656 6.351562 6.519531 6.113281 6.3125 C 5.933594 6.15625 5.785156 5.9375 5.6875 5.6875 C 5.550781 5.671875 5.4375 5.578125 5.40625 5.445312 C 5.367188 5.269531 5.480469 5.09375 5.660156 5.050781 C 5.839844 5.003906 6.015625 5.109375 6.054688 5.285156 C 6.082031 5.40625 6.035156 5.527344 5.941406 5.605469 C 6.128906 6.070312 6.5 6.367188 6.824219 6.285156 C 6.996094 6.246094 7.140625 6.101562 7.230469 5.886719 C 7.308594 5.703125 7.339844 5.484375 7.328125 5.257812 C 7.214844 5.226562 7.128906 5.140625 7.101562 5.023438 C 7.0625 4.851562 7.175781 4.675781 7.355469 4.628906 C 7.535156 4.585938 7.710938 4.691406 7.75 4.863281 C 7.78125 5.003906 7.710938 5.148438 7.585938 5.21875 Z M 7.585938 5.21875 "/>
<path fill-rule="nonzero" fill="rgb(30%,30%,30%)" fill-opacity="1" d="M 7.375 4.714844 C 7.246094 4.746094 7.160156 4.875 7.191406 5.003906 C 7.207031 5.074219 7.253906 5.128906 7.316406 5.15625 C 7.3125 5.128906 7.308594 5.101562 7.304688 5.074219 C 7.292969 5.003906 7.339844 4.9375 7.414062 4.921875 C 7.484375 4.910156 7.550781 4.953125 7.5625 5.023438 C 7.570312 5.054688 7.574219 5.089844 7.578125 5.121094 C 7.644531 5.0625 7.683594 4.972656 7.664062 4.886719 C 7.632812 4.757812 7.503906 4.683594 7.375 4.714844 Z M 7.375 4.714844 "/>
</svg>
