<?xml version="1.0" encoding="UTF-8"?>
<svg xmlns="http://www.w3.org/2000/svg" xmlns:xlink="http://www.w3.org/1999/xlink" width="4.965828" height="11" viewBox="0 0 4.965828 11">
<path fill-rule="nonzero" fill="rgb(30%,30%,30%)" fill-opacity="1" d="M 4.621094 9.105469 L 3.917969 9.105469 L 3.679688 3.5 L 3.78125 3.5 C 4.125 3.503906 4.125 3.589844 4.125 3.15625 L 4.125 2.9375 C 4.125 2.746094 3.972656 2.589844 3.78125 2.589844 L 3.691406 2.589844 L 3.640625 1.503906 C 3.640625 1.1875 3.238281 0.585938 2.671875 0.546875 L 2.671875 0 L 2.316406 0 L 2.316406 0.546875 C 1.65625 0.570312 1.363281 1.1875 1.363281 1.507812 L 1.320312 2.589844 L 1.203125 2.589844 C 1.015625 2.589844 0.859375 2.746094 0.859375 2.9375 L 0.859375 3.15625 C 0.859375 3.566406 0.800781 3.507812 1.203125 3.5 L 1.285156 3.5 L 1.0625 9.105469 L 0.34375 9.105469 C 0.152344 9.105469 0 9.257812 0 9.449219 L 0 11 L 4.964844 11 L 4.964844 9.449219 C 4.964844 9.257812 4.8125 9.105469 4.621094 9.105469 Z M 3.027344 2.644531 L 1.9375 2.644531 C 1.824219 2.644531 1.730469 2.550781 1.730469 2.4375 L 1.730469 1.921875 C 1.730469 1.808594 1.824219 1.714844 1.9375 1.714844 L 3.027344 1.714844 C 3.140625 1.714844 3.234375 1.808594 3.234375 1.921875 L 3.234375 2.4375 C 3.234375 2.550781 3.140625 2.644531 3.027344 2.644531 Z M 3.027344 2.644531 "/>
</svg>
