<?xml version="1.0" encoding="UTF-8" standalone="no"?>
<!-- Created with Inkscape (http://www.inkscape.org/) -->

<svg
   xmlns:dc="http://purl.org/dc/elements/1.1/"
   xmlns:cc="http://creativecommons.org/ns#"
   xmlns:rdf="http://www.w3.org/1999/02/22-rdf-syntax-ns#"
   xmlns:svg="http://www.w3.org/2000/svg"
   xmlns="http://www.w3.org/2000/svg"
   xmlns:xlink="http://www.w3.org/1999/xlink"
   xmlns:sodipodi="http://sodipodi.sourceforge.net/DTD/sodipodi-0.dtd"
   xmlns:inkscape="http://www.inkscape.org/namespaces/inkscape"
   width="30px"
   height="30px"
   version="1.1"
   id="svg8"
   inkscape:version="0.92.4 5da689c313, 2019-01-14"
   sodipodi:docname="container.svg">
  <defs
     id="defs2" />
  <sodipodi:namedview
     id="base"
     pagecolor="#ffffff"
     bordercolor="#666666"
     borderopacity="1.0"
     inkscape:pageopacity="0.0"
     inkscape:pageshadow="2"
     inkscape:zoom="13.049334"
     inkscape:cx="18.679046"
     inkscape:cy="12.165829"
     inkscape:document-units="px"
     inkscape:current-layer="layer1"
     showgrid="false"
     inkscape:snap-page="false"
     units="px"
     inkscape:window-width="1884"
     inkscape:window-height="1061"
     inkscape:window-x="0"
     inkscape:window-y="0"
     inkscape:window-maximized="1"
     fit-margin-top="0"
     fit-margin-left="0"
     fit-margin-right="0"
     fit-margin-bottom="0" />
  <metadata
     id="metadata5">
    <rdf:RDF>
      <cc:Work
         rdf:about="">
        <dc:format>image/svg+xml</dc:format>
        <dc:type
           rdf:resource="http://purl.org/dc/dcmitype/StillImage" />
        <dc:title></dc:title>
      </cc:Work>
    </rdf:RDF>
  </metadata>
    <circle
       style="color:#000000;clip-rule:nonzero;display:inline;overflow:visible;visibility:visible;opacity:1;isolation:auto;mix-blend-mode:normal;color-interpolation:sRGB;color-interpolation-filters:linearRGB;solid-color:#000000;solid-opacity:1;vector-effect:none;fill:#e50980;fill-opacity:1;fill-rule:evenodd;stroke:#ffffff;stroke-width:1;stroke-linecap:butt;stroke-linejoin:miter;stroke-miterlimit:4;stroke-dasharray:none;stroke-dashoffset:0;stroke-opacity:1;marker:none;color-rendering:auto;image-rendering:auto;shape-rendering:auto;text-rendering:auto;enable-background:accumulate"
       id="path815"
       cx="15"
       cy="15"
       r="14.5" />
<g transform="translate(7.0,6.5)"><path fill-rule="nonzero" fill="#FFFFFF" fill-opacity="1" d="M 12.492188 8.382812 C 12.417969 8.246094 12.296875 8.023438 12.226562 7.886719 C 12.226562 7.886719 10.332031 4.257812 9.820312 4.015625 C 9.683594 3.953125 10.664062 3.59375 10.984375 2.429688 C 11.210938 1.589844 11.125 1.632812 10.984375 1.585938 C 10.664062 1.480469 10.125 2.019531 10.125 2.019531 C 10.015625 2.128906 9.804688 2.246094 9.652344 2.28125 C 9.652344 2.28125 8.796875 2.371094 8.710938 2.429688 C 8.625 2.488281 8.441406 2.472656 8.308594 2.398438 L 8.292969 2.386719 C 8.160156 2.3125 8.011719 2.195312 7.964844 2.128906 C 7.917969 2.0625 8.023438 1.796875 8.097656 1.683594 C 8.175781 1.570312 8.273438 1.429688 8.316406 1.367188 C 8.363281 1.308594 8.511719 1.199219 8.648438 1.125 C 8.648438 1.125 8.976562 0.949219 8.976562 0.632812 C 8.976562 0.285156 8.667969 0 8.289062 0 C 7.910156 0 7.601562 0.285156 7.601562 0.632812 L 7.601562 0.691406 C 7.617188 0.753906 7.535156 0.886719 7.417969 0.992188 L 6.859375 1.5 C 6.804688 1.550781 6.734375 1.574219 6.660156 1.570312 C 6.589844 1.5625 6.523438 1.523438 6.480469 1.464844 C 6.480469 1.464844 6.21875 1.113281 5.59375 1.269531 C 4.75 1.480469 4.21875 2.746094 3.585938 3.0625 C 3.113281 3.300781 0.414062 4.015625 0.0976562 4.753906 C -0.21875 5.496094 0.308594 5.601562 0.523438 5.601562 C 0.734375 5.601562 1.054688 6.066406 1.367188 6.128906 C 1.894531 6.234375 2.316406 6.023438 2.742188 6.023438 C 3.164062 6.023438 4.324219 6.339844 5.277344 6.339844 C 6.339844 6.339844 6.929688 6.289062 7.390625 6.550781 C 8.128906 6.972656 10.695312 16.109375 10.695312 16.109375 C 10.75 16.285156 10.816406 16.460938 10.898438 16.628906 C 10.898438 16.628906 11.195312 17.222656 14.890625 16.90625 C 15.992188 16.8125 16.445312 15.988281 16.445312 15.988281 C 16.523438 15.855469 16.511719 15.640625 16.429688 15.511719 Z M 5.910156 4.015625 C 5.542969 3.929688 5.210938 3.664062 5.277344 3.382812 C 5.34375 3.097656 5.542969 2.976562 5.910156 3.0625 C 6.28125 3.152344 6.757812 3.382812 6.757812 3.59375 C 6.757812 3.882812 6.28125 4.101562 5.910156 4.015625 Z M 14.195312 12.777344 C 14.273438 12.910156 14.214844 13.066406 14.070312 13.117188 L 13.75 13.238281 C 13.605469 13.292969 13.386719 13.261719 13.261719 13.171875 L 11.816406 12.128906 C 11.6875 12.035156 11.65625 11.859375 11.742188 11.730469 L 11.855469 11.5625 C 11.941406 11.433594 12.132812 11.347656 12.289062 11.371094 L 13.210938 11.5 C 13.363281 11.523438 13.550781 11.652344 13.628906 11.785156 Z M 12.835938 10.117188 C 12.898438 10.292969 12.945312 10.472656 12.972656 10.65625 L 13 10.839844 C 13.023438 10.992188 12.917969 11.09375 12.765625 11.058594 L 11.835938 10.859375 C 11.683594 10.828125 11.488281 10.699219 11.402344 10.570312 L 10.769531 9.660156 C 10.679688 9.53125 10.691406 9.332031 10.792969 9.214844 L 11.164062 8.792969 C 11.265625 8.675781 11.476562 8.597656 11.628906 8.613281 L 12.019531 8.65625 C 12.175781 8.675781 12.34375 8.804688 12.398438 8.949219 Z M 11.796875 7.835938 C 11.878906 7.96875 11.820312 8.070312 11.664062 8.0625 L 11.367188 8.046875 C 11.214844 8.039062 11.019531 7.925781 10.933594 7.796875 L 10.398438 6.996094 C 10.3125 6.867188 10.347656 6.691406 10.476562 6.605469 L 10.644531 6.496094 C 10.703125 6.453125 10.78125 6.441406 10.851562 6.457031 C 10.921875 6.472656 10.984375 6.515625 11.023438 6.578125 Z M 9.746094 4.96875 C 9.84375 4.851562 10.003906 4.855469 10.101562 4.972656 L 10.597656 5.59375 C 10.691406 5.714844 10.675781 5.890625 10.558594 5.996094 L 10.246094 6.261719 C 10.128906 6.363281 9.964844 6.335938 9.886719 6.203125 L 9.542969 5.628906 C 9.460938 5.496094 9.480469 5.292969 9.578125 5.171875 Z M 10.027344 7.1875 C 10.15625 7.175781 10.75 8.113281 10.769531 8.453125 C 10.777344 8.550781 10.015625 9.3125 10.015625 9.3125 C 9.90625 9.421875 9.746094 9.40625 9.65625 9.277344 L 9.132812 8.515625 C 9.046875 8.386719 9.058594 8.1875 9.15625 8.070312 C 9.15625 8.070312 9.914062 7.195312 10.027344 7.1875 Z M 9.214844 10.496094 C 9.140625 10.359375 9.207031 10.230469 9.359375 10.207031 L 10.03125 10.097656 C 10.183594 10.070312 10.386719 10.152344 10.484375 10.269531 L 11.074219 11.003906 C 11.171875 11.125 11.164062 11.320312 11.0625 11.433594 L 10.429688 12.152344 C 10.328125 12.269531 10.183594 12.253906 10.109375 12.117188 Z M 10.679688 13.242188 C 10.632812 13.183594 10.609375 13.113281 10.613281 13.039062 C 10.621094 12.964844 10.65625 12.894531 10.714844 12.847656 L 10.917969 12.679688 C 11.035156 12.578125 11.230469 12.578125 11.351562 12.675781 L 13.09375 14.0625 C 13.214844 14.160156 13.207031 14.304688 13.078125 14.386719 L 12.390625 14.828125 C 12.253906 14.910156 12.078125 14.882812 11.96875 14.761719 Z M 14.65625 15.394531 C 14.507812 15.351562 14.347656 15.195312 14.304688 15.050781 L 13.996094 13.886719 C 13.929688 13.746094 13.980469 13.574219 14.117188 13.496094 L 14.421875 13.320312 C 14.484375 13.285156 14.558594 13.277344 14.625 13.300781 C 14.695312 13.324219 14.75 13.375 14.773438 13.441406 L 15.628906 15.4375 C 15.679688 15.582031 15.597656 15.667969 15.449219 15.625 Z M 14.65625 15.394531 "/>
</g>
</svg>
