<?xml version="1.0" encoding="UTF-8" standalone="no"?>
<!-- Created with Inkscape (http://www.inkscape.org/) -->

<svg
   xmlns:dc="http://purl.org/dc/elements/1.1/"
   xmlns:cc="http://creativecommons.org/ns#"
   xmlns:rdf="http://www.w3.org/1999/02/22-rdf-syntax-ns#"
   xmlns:svg="http://www.w3.org/2000/svg"
   xmlns="http://www.w3.org/2000/svg"
   xmlns:xlink="http://www.w3.org/1999/xlink"
   xmlns:sodipodi="http://sodipodi.sourceforge.net/DTD/sodipodi-0.dtd"
   xmlns:inkscape="http://www.inkscape.org/namespaces/inkscape"
   width="30px"
   height="30px"
   version="1.1"
   id="svg8"
   inkscape:version="0.92.4 5da689c313, 2019-01-14"
   sodipodi:docname="container.svg">
  <defs
     id="defs2" />
  <sodipodi:namedview
     id="base"
     pagecolor="#ffffff"
     bordercolor="#666666"
     borderopacity="1.0"
     inkscape:pageopacity="0.0"
     inkscape:pageshadow="2"
     inkscape:zoom="13.049334"
     inkscape:cx="18.679046"
     inkscape:cy="12.165829"
     inkscape:document-units="px"
     inkscape:current-layer="layer1"
     showgrid="false"
     inkscape:snap-page="false"
     units="px"
     inkscape:window-width="1884"
     inkscape:window-height="1061"
     inkscape:window-x="0"
     inkscape:window-y="0"
     inkscape:window-maximized="1"
     fit-margin-top="0"
     fit-margin-left="0"
     fit-margin-right="0"
     fit-margin-bottom="0" />
  <metadata
     id="metadata5">
    <rdf:RDF>
      <cc:Work
         rdf:about="">
        <dc:format>image/svg+xml</dc:format>
        <dc:type
           rdf:resource="http://purl.org/dc/dcmitype/StillImage" />
        <dc:title></dc:title>
      </cc:Work>
    </rdf:RDF>
  </metadata>
    <circle
       style="color:#000000;clip-rule:nonzero;display:inline;overflow:visible;visibility:visible;opacity:1;isolation:auto;mix-blend-mode:normal;color-interpolation:sRGB;color-interpolation-filters:linearRGB;solid-color:#000000;solid-opacity:1;vector-effect:none;fill:#e50980;fill-opacity:1;fill-rule:evenodd;stroke:#ffffff;stroke-width:1;stroke-linecap:butt;stroke-linejoin:miter;stroke-miterlimit:4;stroke-dasharray:none;stroke-dashoffset:0;stroke-opacity:1;marker:none;color-rendering:auto;image-rendering:auto;shape-rendering:auto;text-rendering:auto;enable-background:accumulate"
       id="path815"
       cx="15"
       cy="15"
       r="14.5" />
<g transform="translate(6.5,9.5)"><path fill-rule="nonzero" fill="#FFFFFF" fill-opacity="1" d="M 1.4375 2.640625 L 0.863281 2.25 C 1.046875 1.980469 1.257812 1.722656 1.492188 1.492188 C 2.167969 0.808594 3.027344 0.332031 3.964844 0.121094 L 4.121094 0.796875 C 3.308594 0.980469 2.566406 1.390625 1.980469 1.980469 C 1.777344 2.183594 1.597656 2.402344 1.4375 2.640625 Z M 0.691406 5.75 L 0.691406 5.074219 C 0.691406 4.46875 0.816406 3.871094 1.0625 3.316406 L 0.441406 3.007812 C 0.148438 3.65625 0 4.363281 0 5.074219 L 0 5.75 C 0 6.425781 0.132812 7.09375 0.394531 7.714844 L 1.023438 7.417969 C 0.804688 6.890625 0.691406 6.324219 0.691406 5.75 Z M 5.074219 0.691406 L 8.082031 0.691406 L 8.050781 0 L 5.074219 0 C 5.011719 0 4.953125 0 4.890625 0.00390625 L 4.957031 0.695312 C 4.996094 0.695312 5.035156 0.691406 5.074219 0.691406 Z M 15.019531 8.847656 C 14.390625 9.480469 13.578125 9.90625 12.699219 10.066406 L 12.867188 10.738281 C 13.867188 10.550781 14.789062 10.058594 15.507812 9.335938 C 15.746094 9.101562 15.957031 8.84375 16.144531 8.566406 L 15.550781 8.207031 C 15.394531 8.4375 15.214844 8.648438 15.019531 8.847656 Z M 8.964844 10.132812 L 9.023438 10.828125 L 11.925781 10.828125 C 11.941406 10.828125 11.957031 10.824219 11.972656 10.824219 L 11.898438 10.132812 Z M 11.816406 0.691406 L 11.863281 0 L 9.019531 0 L 8.964844 0.691406 Z M 5.09375 10.132812 L 5.035156 10.824219 C 5.050781 10.828125 5.0625 10.828125 5.074219 10.828125 L 8.050781 10.828125 L 8.082031 10.132812 Z M 1.980469 8.847656 C 1.769531 8.636719 1.582031 8.40625 1.414062 8.15625 L 0.832031 8.53125 C 1.023438 8.820312 1.246094 9.089844 1.492188 9.335938 C 2.207031 10.058594 3.128906 10.546875 4.128906 10.738281 L 4.277344 10.0625 C 3.40625 9.898438 2.605469 9.476562 1.980469 8.847656 Z M 16.308594 5.074219 L 16.308594 5.75 C 16.308594 6.34375 16.1875 6.929688 15.953125 7.472656 L 16.589844 7.75 C 16.859375 7.121094 17 6.441406 17 5.75 L 17 5.074219 C 17 4.339844 16.839844 3.613281 16.53125 2.949219 L 15.917969 3.273438 C 16.175781 3.839844 16.308594 4.453125 16.308594 5.074219 Z M 15.019531 1.980469 C 15.203125 2.164062 15.375 2.367188 15.523438 2.582031 L 16.085938 2.179688 C 15.914062 1.933594 15.722656 1.703125 15.507812 1.492188 C 14.777344 0.753906 13.835938 0.261719 12.8125 0.078125 L 12.675781 0.757812 C 13.566406 0.914062 14.382812 1.339844 15.019531 1.980469 Z M 13.6875 7.867188 C 13.300781 8.15625 12.828125 8.371094 12.316406 8.503906 L 12.480469 9.175781 C 13.085938 9.019531 13.644531 8.765625 14.101562 8.425781 C 14.363281 8.230469 14.597656 8.003906 14.796875 7.75 L 14.199219 7.382812 C 14.050781 7.566406 13.878906 7.726562 13.6875 7.867188 Z M 14.839844 5.507812 L 14.839844 5.535156 C 14.839844 6.015625 14.738281 6.457031 14.546875 6.847656 L 15.183594 7.128906 C 15.414062 6.652344 15.53125 6.117188 15.53125 5.535156 L 15.53125 5.507812 C 15.53125 4.832031 15.375 4.230469 15.101562 3.707031 L 14.488281 4.035156 C 14.710938 4.460938 14.839844 4.957031 14.839844 5.507812 Z M 14.171875 3.542969 L 14.738281 3.140625 C 14.179688 2.417969 13.375 1.90625 12.496094 1.648438 L 12.359375 2.328125 C 13.070312 2.550781 13.714844 2.964844 14.171875 3.542969 Z M 3.351562 3.03125 C 3.695312 2.761719 4.078125 2.550781 4.488281 2.402344 L 4.332031 1.722656 C 3.820312 1.894531 3.34375 2.15625 2.921875 2.488281 C 2.667969 2.691406 2.4375 2.921875 2.238281 3.179688 L 2.8125 3.566406 C 2.972656 3.371094 3.152344 3.191406 3.351562 3.03125 Z M 5.945312 8.652344 C 5.703125 8.652344 5.464844 8.632812 5.226562 8.597656 L 5.167969 9.285156 C 5.425781 9.324219 5.683594 9.34375 5.945312 9.34375 L 8.121094 9.34375 L 8.152344 8.652344 Z M 5.945312 2.140625 L 8.152344 2.140625 L 8.117188 1.445312 L 5.945312 1.445312 C 5.640625 1.445312 5.335938 1.476562 5.035156 1.535156 L 5.101562 2.226562 C 5.378906 2.167969 5.660156 2.140625 5.945312 2.140625 Z M 11.136719 2.140625 C 11.328125 2.140625 11.523438 2.152344 11.714844 2.179688 L 11.761719 1.488281 C 11.554688 1.460938 11.34375 1.445312 11.136719 1.445312 L 8.902344 1.445312 L 8.84375 2.140625 Z M 2.144531 5.492188 C 2.144531 4.910156 2.289062 4.429688 2.5 4.035156 L 1.882812 3.726562 C 1.597656 4.269531 1.449219 4.875 1.449219 5.492188 C 1.449219 6.058594 1.566406 6.582031 1.792969 7.054688 L 2.421875 6.753906 C 2.253906 6.40625 2.144531 5.988281 2.144531 5.492188 Z M 11.136719 8.652344 L 8.839844 8.652344 L 8.898438 9.34375 L 11.136719 9.34375 C 11.359375 9.34375 11.582031 9.328125 11.804688 9.300781 L 11.726562 8.613281 C 11.53125 8.636719 11.332031 8.652344 11.136719 8.652344 Z M 3.34375 7.847656 C 3.125 7.6875 2.925781 7.5 2.757812 7.289062 L 2.171875 7.667969 C 2.390625 7.949219 2.644531 8.195312 2.933594 8.402344 C 3.375 8.730469 3.90625 8.980469 4.480469 9.140625 L 4.625 8.464844 C 4.152344 8.328125 3.710938 8.117188 3.34375 7.847656 Z M 4.210938 6.824219 C 4.097656 6.746094 3.992188 6.652344 3.902344 6.546875 L 3.320312 6.925781 C 3.460938 7.109375 3.632812 7.269531 3.824219 7.398438 C 4.082031 7.570312 4.394531 7.707031 4.769531 7.808594 L 4.917969 7.132812 C 4.636719 7.054688 4.402344 6.949219 4.210938 6.824219 Z M 12.835938 4.03125 C 12.9375 4.109375 13.03125 4.199219 13.109375 4.300781 L 13.675781 3.898438 C 13.554688 3.742188 13.414062 3.601562 13.253906 3.480469 C 12.972656 3.265625 12.632812 3.101562 12.226562 2.984375 L 12.089844 3.667969 C 12.386719 3.757812 12.636719 3.878906 12.835938 4.03125 Z M 10.605469 3.480469 C 10.945312 3.480469 11.285156 3.507812 11.617188 3.5625 L 11.667969 2.867188 C 11.316406 2.8125 10.964844 2.789062 10.609375 2.789062 L 8.789062 2.789062 L 8.730469 3.480469 Z M 10.605469 7.335938 L 8.730469 7.335938 L 8.789062 8.027344 L 10.617188 8.027344 C 10.960938 8.023438 11.308594 7.996094 11.652344 7.953125 L 11.578125 7.261719 C 11.253906 7.308594 10.929688 7.332031 10.605469 7.335938 Z M 13.464844 5.476562 L 13.464844 5.496094 C 13.464844 5.777344 13.429688 6.050781 13.316406 6.300781 L 13.945312 6.578125 C 14.085938 6.269531 14.15625 5.90625 14.15625 5.496094 L 14.15625 5.476562 C 14.15625 5.046875 14.082031 4.664062 13.933594 4.332031 L 13.316406 4.65625 C 13.414062 4.890625 13.464844 5.164062 13.464844 5.476562 Z M 6.511719 7.335938 C 6.066406 7.324219 5.679688 7.289062 5.34375 7.230469 L 5.285156 7.921875 C 5.6875 7.984375 6.089844 8.019531 6.496094 8.027344 L 8.183594 8.027344 L 8.214844 7.335938 Z M 6.507812 3.480469 L 8.214844 3.480469 L 8.183594 2.789062 L 6.503906 2.789062 C 6.003906 2.792969 5.558594 2.835938 5.167969 2.914062 L 5.234375 3.609375 C 5.597656 3.53125 6.023438 3.488281 6.507812 3.480469 Z M 3.574219 5.472656 C 3.582031 5.15625 3.636719 4.886719 3.734375 4.652344 L 3.113281 4.34375 C 2.96875 4.667969 2.890625 5.039062 2.882812 5.460938 L 2.882812 5.46875 C 2.882812 5.835938 2.9375 6.164062 3.054688 6.453125 L 3.679688 6.15625 C 3.609375 5.960938 3.574219 5.734375 3.574219 5.472656 Z M 4.230469 4.027344 C 4.402344 3.902344 4.59375 3.804688 4.792969 3.738281 L 4.636719 3.054688 C 4.324219 3.160156 4.050781 3.300781 3.820312 3.472656 C 3.644531 3.601562 3.484375 3.757812 3.355469 3.933594 L 3.929688 4.320312 C 4.015625 4.210938 4.117188 4.109375 4.230469 4.027344 Z M 11.992188 7.1875 L 12.15625 7.859375 C 12.59375 7.757812 12.953125 7.609375 13.242188 7.414062 C 13.394531 7.3125 13.53125 7.1875 13.652344 7.046875 L 13.046875 6.679688 C 12.824219 6.894531 12.492188 7.070312 11.992188 7.1875 Z M 11.992188 7.1875 "/>
</g>
</svg>
