<?xml version="1.0" encoding="UTF-8" standalone="no"?>
<!-- Created with Inkscape (http://www.inkscape.org/) -->

<svg
   xmlns:dc="http://purl.org/dc/elements/1.1/"
   xmlns:cc="http://creativecommons.org/ns#"
   xmlns:rdf="http://www.w3.org/1999/02/22-rdf-syntax-ns#"
   xmlns:svg="http://www.w3.org/2000/svg"
   xmlns="http://www.w3.org/2000/svg"
   xmlns:xlink="http://www.w3.org/1999/xlink"
   xmlns:sodipodi="http://sodipodi.sourceforge.net/DTD/sodipodi-0.dtd"
   xmlns:inkscape="http://www.inkscape.org/namespaces/inkscape"
   width="30px"
   height="30px"
   version="1.1"
   id="svg8"
   inkscape:version="0.92.4 5da689c313, 2019-01-14"
   sodipodi:docname="container.svg">
  <defs
     id="defs2" />
  <sodipodi:namedview
     id="base"
     pagecolor="#ffffff"
     bordercolor="#666666"
     borderopacity="1.0"
     inkscape:pageopacity="0.0"
     inkscape:pageshadow="2"
     inkscape:zoom="13.049334"
     inkscape:cx="18.679046"
     inkscape:cy="12.165829"
     inkscape:document-units="px"
     inkscape:current-layer="layer1"
     showgrid="false"
     inkscape:snap-page="false"
     units="px"
     inkscape:window-width="1884"
     inkscape:window-height="1061"
     inkscape:window-x="0"
     inkscape:window-y="0"
     inkscape:window-maximized="1"
     fit-margin-top="0"
     fit-margin-left="0"
     fit-margin-right="0"
     fit-margin-bottom="0" />
  <metadata
     id="metadata5">
    <rdf:RDF>
      <cc:Work
         rdf:about="">
        <dc:format>image/svg+xml</dc:format>
        <dc:type
           rdf:resource="http://purl.org/dc/dcmitype/StillImage" />
        <dc:title></dc:title>
      </cc:Work>
    </rdf:RDF>
  </metadata>
    <circle
       style="color:#000000;clip-rule:nonzero;display:inline;overflow:visible;visibility:visible;opacity:1;isolation:auto;mix-blend-mode:normal;color-interpolation:sRGB;color-interpolation-filters:linearRGB;solid-color:#000000;solid-opacity:1;vector-effect:none;fill:#e50980;fill-opacity:1;fill-rule:evenodd;stroke:#ffffff;stroke-width:1;stroke-linecap:butt;stroke-linejoin:miter;stroke-miterlimit:4;stroke-dasharray:none;stroke-dashoffset:0;stroke-opacity:1;marker:none;color-rendering:auto;image-rendering:auto;shape-rendering:auto;text-rendering:auto;enable-background:accumulate"
       id="path815"
       cx="15"
       cy="15"
       r="14.5" />
<g transform="translate(6.5,7.0)"><path fill-rule="nonzero" fill="#FFFFFF" fill-opacity="1" d="M 12.519531 0.234375 L 12.746094 0.359375 C 13.699219 0.882812 13.878906 2.175781 13.105469 2.9375 L 9.269531 6.714844 C 9.214844 6.769531 9.128906 6.78125 9.0625 6.742188 C 8.996094 6.707031 8.960938 6.628906 8.976562 6.554688 L 10.15625 1.300781 C 10.390625 0.25 11.570312 -0.285156 12.519531 0.234375 Z M 12.519531 0.234375 "/>
<path fill-rule="nonzero" fill="#FFFFFF" fill-opacity="1" d="M 16.996094 7.542969 L 17 7.800781 C 17.015625 8.890625 15.980469 9.6875 14.933594 9.390625 L 9.753906 7.925781 C 9.679688 7.902344 9.628906 7.835938 9.628906 7.757812 C 9.628906 7.679688 9.679688 7.613281 9.75 7.589844 L 14.898438 6.015625 C 15.929688 5.699219 16.976562 6.460938 16.996094 7.542969 Z M 16.996094 7.542969 "/>
<path fill-rule="nonzero" fill="#FFFFFF" fill-opacity="1" d="M 13.253906 14.792969 L 13.039062 14.941406 C 12.136719 15.550781 10.902344 15.121094 10.578125 14.082031 L 8.96875 8.945312 C 8.945312 8.871094 8.972656 8.789062 9.039062 8.746094 C 9.101562 8.703125 9.1875 8.710938 9.246094 8.757812 L 13.378906 12.203125 C 14.210938 12.894531 14.144531 14.1875 13.253906 14.792969 Z M 13.253906 14.792969 "/>
<path fill-rule="nonzero" fill="#FFFFFF" fill-opacity="1" d="M 4.707031 15.441406 L 4.472656 15.328125 C 3.496094 14.847656 3.261719 13.5625 4.003906 12.765625 L 7.671875 8.824219 C 7.722656 8.769531 7.808594 8.753906 7.875 8.789062 C 7.945312 8.824219 7.984375 8.898438 7.96875 8.976562 L 7.019531 14.273438 C 6.832031 15.335938 5.675781 15.917969 4.707031 15.441406 Z M 4.707031 15.441406 "/>
<path fill-rule="nonzero" fill="#FFFFFF" fill-opacity="1" d="M 0 7.761719 L 0 7.503906 C 0.00390625 6.414062 1.054688 5.640625 2.097656 5.957031 L 7.246094 7.519531 C 7.320312 7.542969 7.371094 7.613281 7.371094 7.6875 C 7.371094 7.765625 7.316406 7.835938 7.242188 7.855469 L 2.066406 9.328125 C 1.027344 9.625 -0.00390625 8.84375 0 7.761719 Z M 0 7.761719 "/>
<path fill-rule="nonzero" fill="#FFFFFF" fill-opacity="1" d="M 4.28125 0.339844 L 4.507812 0.210938 C 5.453125 -0.324219 6.648438 0.207031 6.890625 1.265625 L 8.074219 6.515625 C 8.09375 6.59375 8.058594 6.671875 7.992188 6.707031 C 7.921875 6.746094 7.839844 6.734375 7.785156 6.679688 L 3.945312 2.910156 C 3.171875 2.152344 3.339844 0.871094 4.28125 0.339844 Z M 4.28125 0.339844 "/>
</g>
</svg>
