<?xml version="1.0" encoding="UTF-8"?>
<svg xmlns="http://www.w3.org/2000/svg" xmlns:xlink="http://www.w3.org/1999/xlink" width="11" height="10.805621" viewBox="0 0 11 10.805621">
<path fill-rule="nonzero" fill="rgb(30%,30%,30%)" fill-opacity="1" d="M 10.945312 1.957031 C 9.761719 0.714844 8.046875 0 6.238281 0 C 6.210938 0 6.183594 0 6.15625 0 C 5.554688 0.0078125 4.953125 0.09375 4.375 0.257812 C 4.289062 0.203125 4.183594 0.1875 4.085938 0.21875 C 3.992188 0.253906 3.914062 0.328125 3.878906 0.421875 C 3.324219 0.628906 2.800781 0.910156 2.324219 1.257812 C 1.851562 1.601562 1.433594 2.015625 1.078125 2.480469 C 0.359375 3.4375 -0.0117188 4.558594 0 5.714844 C 0 5.75 0.00390625 5.785156 0.00390625 5.820312 L 0.0078125 5.863281 C 0.0078125 5.941406 0.0625 6.015625 0.136719 6.042969 C 0.210938 6.070312 0.296875 6.050781 0.351562 5.992188 C 0.875 5.4375 1.652344 5.117188 2.488281 5.117188 C 2.867188 5.117188 3.238281 5.183594 3.589844 5.3125 C 3.597656 5.316406 3.601562 5.316406 3.609375 5.320312 L 3.613281 5.335938 L 3.617188 5.324219 C 3.710938 5.34375 3.804688 5.292969 3.84375 5.207031 C 4.074219 4.691406 4.515625 4.265625 5.09375 3.996094 L 7.476562 10.585938 C 7.539062 10.757812 7.730469 10.847656 7.902344 10.785156 C 8.074219 10.722656 8.164062 10.53125 8.101562 10.359375 L 5.722656 3.785156 C 6.324219 3.652344 6.949219 3.699219 7.523438 3.917969 C 7.597656 3.945312 7.683594 3.929688 7.738281 3.871094 L 7.753906 3.875 L 7.746094 3.863281 C 7.761719 3.847656 7.773438 3.828125 7.78125 3.808594 C 8.164062 2.886719 9.195312 2.269531 10.351562 2.269531 C 10.492188 2.269531 10.632812 2.277344 10.773438 2.296875 C 10.859375 2.308594 10.941406 2.265625 10.976562 2.1875 C 11.015625 2.113281 11.003906 2.019531 10.945312 1.957031 Z M 3.71875 5.152344 C 3.714844 5.160156 3.710938 5.167969 3.703125 5.171875 C 3.710938 5.15625 3.722656 5.136719 3.734375 5.121094 C 3.726562 5.132812 3.722656 5.140625 3.71875 5.152344 Z M 5.570312 3.542969 C 5.476562 3.566406 5.394531 3.59375 5.316406 3.621094 C 5.222656 3.660156 5.136719 3.691406 5.0625 3.722656 C 4.53125 3.941406 4.109375 4.234375 3.664062 4.96875 C 3.449219 4.042969 3.359375 3.09375 3.414062 2.285156 C 3.472656 1.464844 3.675781 0.847656 3.976562 0.589844 C 4.03125 0.539062 4.09375 0.503906 4.164062 0.476562 C 4.238281 0.453125 4.316406 0.4375 4.394531 0.4375 C 4.402344 0.4375 4.410156 0.4375 4.414062 0.4375 C 4.644531 0.4375 4.902344 0.539062 5.179688 0.738281 C 5.433594 0.921875 5.707031 1.191406 6 1.539062 C 6.527344 2.175781 7.023438 2.964844 7.421875 3.609375 C 6.644531 3.359375 5.992188 3.433594 5.570312 3.542969 Z M 5.570312 3.542969 "/>
</svg>
