<?xml version="1.0" encoding="UTF-8"?>
<svg xmlns="http://www.w3.org/2000/svg" xmlns:xlink="http://www.w3.org/1999/xlink" width="10.628318" height="11" viewBox="0 0 10.628318 11">
<path fill-rule="nonzero" fill="rgb(30%,30%,30%)" fill-opacity="1" d="M 8.058594 5.113281 C 8.078125 5.242188 8.089844 5.375 8.089844 5.507812 C 8.089844 6.242188 7.796875 6.945312 7.277344 7.460938 C 7.246094 7.496094 7.210938 7.527344 7.179688 7.558594 C 7.367188 7.476562 7.574219 7.433594 7.78125 7.433594 C 7.800781 7.433594 7.820312 7.433594 7.839844 7.433594 C 8.261719 6.886719 8.492188 6.214844 8.492188 5.523438 C 8.324219 5.417969 8.175781 5.277344 8.058594 5.113281 Z M 8.058594 5.113281 "/>
<path fill-rule="nonzero" fill="rgb(30%,30%,30%)" fill-opacity="1" d="M 5.765625 2.78125 C 6.632812 2.921875 7.378906 3.464844 7.78125 4.246094 C 7.78125 4.242188 7.78125 4.242188 7.78125 4.238281 C 7.78125 4.039062 7.820312 3.84375 7.898438 3.660156 C 7.503906 3.109375 6.945312 2.703125 6.300781 2.492188 C 6.144531 2.625 5.960938 2.722656 5.765625 2.78125 Z M 5.765625 2.78125 "/>
<path fill-rule="nonzero" fill="rgb(30%,30%,30%)" fill-opacity="1" d="M 3.371094 7.460938 C 2.851562 6.945312 2.5625 6.242188 2.5625 5.507812 C 2.5625 5.355469 2.574219 5.207031 2.601562 5.054688 C 2.484375 5.230469 2.332031 5.382812 2.15625 5.5 C 2.15625 5.503906 2.15625 5.507812 2.15625 5.507812 C 2.15625 6.203125 2.382812 6.875 2.804688 7.425781 C 2.8125 7.425781 2.820312 7.425781 2.832031 7.425781 C 3.0625 7.425781 3.292969 7.480469 3.5 7.582031 C 3.457031 7.542969 3.414062 7.503906 3.371094 7.460938 Z M 3.371094 7.460938 "/>
<path fill-rule="nonzero" fill="rgb(30%,30%,30%)" fill-opacity="1" d="M 2.84375 4.230469 C 2.84375 4.25 2.84375 4.273438 2.84375 4.292969 C 3.238281 3.484375 4.003906 2.921875 4.890625 2.78125 C 4.695312 2.722656 4.515625 2.621094 4.355469 2.492188 C 3.703125 2.703125 3.136719 3.117188 2.742188 3.675781 C 2.808594 3.851562 2.84375 4.039062 2.84375 4.230469 Z M 2.84375 4.230469 "/>
<path fill-rule="nonzero" fill="rgb(30%,30%,30%)" fill-opacity="1" d="M 6.984375 11 L 5.84375 8.640625 C 5.84375 8.640625 5.84375 8.636719 5.839844 8.636719 C 6.003906 8.609375 6.167969 8.570312 6.324219 8.515625 C 6.390625 8.296875 6.503906 8.097656 6.660156 7.929688 C 5.804688 8.402344 4.761719 8.386719 3.921875 7.890625 C 4.089844 8.0625 4.214844 8.273438 4.285156 8.503906 C 4.457031 8.5625 4.636719 8.609375 4.816406 8.636719 L 3.503906 11 Z M 6.984375 11 "/>
<path fill-rule="nonzero" fill="rgb(30%,30%,30%)" fill-opacity="1" d="M 7.78125 10.042969 C 7.242188 10.042969 6.785156 9.648438 6.703125 9.117188 L 8.832031 9.234375 C 8.703125 9.710938 8.273438 10.042969 7.78125 10.042969 Z M 2.832031 10.035156 C 2.441406 10.035156 2.082031 9.828125 1.886719 9.492188 L 3.917969 8.851562 C 3.921875 8.882812 3.921875 8.914062 3.921875 8.945312 C 3.921875 9.546875 3.433594 10.035156 2.832031 10.035156 Z M 5.316406 6.226562 C 5.191406 6.226562 5.070312 6.195312 4.960938 6.132812 L 4.902344 6.097656 L 4.851562 6.054688 C 4.695312 5.917969 4.605469 5.722656 4.605469 5.515625 C 4.605469 5.46875 4.609375 5.421875 4.617188 5.375 L 4.628906 5.308594 L 4.65625 5.246094 C 4.753906 5 4.984375 4.828125 5.246094 4.804688 L 5.3125 4.796875 L 5.382812 4.804688 C 5.648438 4.828125 5.878906 4.996094 5.980469 5.246094 L 6.003906 5.308594 L 6.019531 5.375 C 6.070312 5.628906 5.976562 5.890625 5.78125 6.058594 L 5.726562 6.101562 L 5.667969 6.136719 C 5.5625 6.195312 5.441406 6.226562 5.316406 6.226562 Z M 9.300781 5.328125 C 8.910156 5.328125 8.550781 5.117188 8.355469 4.78125 L 10.386719 4.140625 C 10.390625 4.175781 10.390625 4.207031 10.390625 4.238281 C 10.390625 4.839844 9.902344 5.328125 9.300781 5.328125 Z M 1.328125 5.320312 C 0.726562 5.316406 0.238281 4.832031 0.238281 4.230469 C 0.238281 4.195312 0.238281 4.164062 0.242188 4.128906 L 2.285156 4.746094 C 2.09375 5.097656 1.726562 5.316406 1.328125 5.320312 Z M 5.273438 2.414062 C 4.78125 2.390625 4.367188 2.039062 4.265625 1.554688 L 6.394531 1.554688 C 6.289062 2.046875 5.863281 2.402344 5.359375 2.417969 L 5.316406 2.417969 Z M 5.273438 2.414062 "/>
<path fill-rule="nonzero" fill="rgb(30%,30%,30%)" fill-opacity="1" d="M 6.046875 1.792969 C 6.015625 1.839844 5.980469 1.882812 5.941406 1.921875 C 5.785156 2.082031 5.574219 2.175781 5.351562 2.179688 L 5.285156 2.179688 C 5.070312 2.167969 4.863281 2.074219 4.714844 1.914062 C 4.675781 1.875 4.644531 1.835938 4.613281 1.792969 L 6.046875 1.792969 M 0.503906 4.457031 L 1.882812 4.875 C 1.863281 4.890625 1.839844 4.910156 1.816406 4.925781 C 1.671875 5.027344 1.5 5.082031 1.328125 5.082031 C 0.945312 5.082031 0.609375 4.824219 0.503906 4.457031 M 10.121094 4.472656 C 10.015625 4.839844 9.683594 5.089844 9.300781 5.09375 C 9.125 5.09375 8.953125 5.039062 8.808594 4.9375 C 8.792969 4.925781 8.777344 4.914062 8.765625 4.902344 L 10.121094 4.472656 M 5.316406 5.035156 L 5.359375 5.039062 C 5.539062 5.054688 5.691406 5.167969 5.757812 5.335938 L 5.777344 5.375 L 5.785156 5.421875 C 5.792969 5.449219 5.792969 5.484375 5.792969 5.515625 C 5.792969 5.652344 5.734375 5.785156 5.625 5.878906 L 5.59375 5.90625 L 5.550781 5.929688 C 5.40625 6.011719 5.226562 6.011719 5.082031 5.925781 L 5.042969 5.90625 L 5.007812 5.875 C 4.902344 5.785156 4.839844 5.652344 4.839844 5.515625 C 4.839844 5.484375 4.84375 5.453125 4.851562 5.421875 L 4.859375 5.378906 L 4.875 5.335938 C 4.941406 5.171875 5.09375 5.058594 5.269531 5.039062 L 5.316406 5.035156 M 3.652344 9.183594 C 3.570312 9.457031 3.359375 9.675781 3.085938 9.757812 C 2.816406 9.84375 2.519531 9.789062 2.296875 9.609375 L 3.652344 9.183594 M 7.039062 9.371094 L 8.472656 9.453125 C 8.300781 9.6875 8.023438 9.820312 7.734375 9.804688 C 7.441406 9.789062 7.179688 9.625 7.039062 9.371094 M 5.328125 0 C 4.609375 0 4.023438 0.574219 4.003906 1.292969 C 3.984375 2.011719 4.542969 2.617188 5.261719 2.652344 L 5.222656 4.566406 C 4.871094 4.601562 4.570312 4.832031 4.4375 5.15625 L 2.601562 4.601562 C 2.804688 3.90625 2.414062 3.175781 1.726562 2.960938 C 1.035156 2.742188 0.296875 3.117188 0.0664062 3.804688 C -0.164062 4.488281 0.195312 5.234375 0.878906 5.476562 C 1.558594 5.722656 2.308594 5.375 2.566406 4.699219 L 4.386719 5.332031 C 4.320312 5.664062 4.4375 6.011719 4.695312 6.234375 L 3.574219 7.847656 C 2.972656 7.4375 2.15625 7.585938 1.738281 8.179688 C 1.320312 8.773438 1.453125 9.59375 2.039062 10.023438 C 2.621094 10.453125 3.445312 10.335938 3.882812 9.757812 C 4.324219 9.183594 4.222656 8.359375 3.65625 7.90625 L 4.84375 6.339844 C 5.136719 6.503906 5.492188 6.507812 5.785156 6.339844 L 6.96875 7.90625 C 6.398438 8.347656 6.289062 9.164062 6.71875 9.742188 C 7.152344 10.320312 7.964844 10.449219 8.550781 10.027344 C 9.136719 9.605469 9.28125 8.796875 8.871094 8.199219 C 8.464844 7.605469 7.65625 7.445312 7.050781 7.84375 L 5.933594 6.238281 C 6.195312 6.015625 6.316406 5.664062 6.25 5.328125 L 8.058594 4.699219 C 8.308594 5.371094 9.046875 5.71875 9.726562 5.484375 C 10.402344 5.246094 10.761719 4.511719 10.539062 3.832031 C 10.316406 3.148438 9.589844 2.773438 8.902344 2.984375 C 8.21875 3.195312 7.828125 3.914062 8.027344 4.601562 L 6.199219 5.15625 C 6.0625 4.828125 5.757812 4.601562 5.402344 4.566406 L 5.363281 2.652344 C 6.089844 2.632812 6.667969 2.035156 6.65625 1.308594 C 6.648438 0.582031 6.054688 0 5.328125 0 Z M 4.207031 1.316406 C 4.210938 0.699219 4.714844 0.203125 5.328125 0.203125 C 5.945312 0.203125 6.449219 0.699219 6.453125 1.316406 Z M 2.40625 4.535156 L 0.257812 3.886719 C 0.441406 3.304688 1.0625 2.976562 1.652344 3.152344 C 2.238281 3.332031 2.574219 3.945312 2.40625 4.535156 Z M 8.226562 4.570312 C 8.042969 3.980469 8.375 3.351562 8.964844 3.167969 C 9.554688 2.980469 10.183594 3.308594 10.371094 3.898438 Z M 1.757812 9.28125 C 1.574219 8.691406 1.902344 8.058594 2.496094 7.875 C 3.085938 7.6875 3.71875 8.015625 3.902344 8.609375 Z M 8.902344 9.003906 L 6.660156 8.878906 C 6.699219 8.273438 7.210938 7.808594 7.816406 7.828125 C 8.421875 7.847656 8.902344 8.347656 8.902344 8.953125 C 8.902344 8.96875 8.902344 8.984375 8.902344 9.003906 Z M 8.902344 9.003906 "/>
</svg>
