<?xml version="1.0" encoding="UTF-8" standalone="no"?>
<!-- Created with Inkscape (http://www.inkscape.org/) -->

<svg
   xmlns:dc="http://purl.org/dc/elements/1.1/"
   xmlns:cc="http://creativecommons.org/ns#"
   xmlns:rdf="http://www.w3.org/1999/02/22-rdf-syntax-ns#"
   xmlns:svg="http://www.w3.org/2000/svg"
   xmlns="http://www.w3.org/2000/svg"
   xmlns:xlink="http://www.w3.org/1999/xlink"
   xmlns:sodipodi="http://sodipodi.sourceforge.net/DTD/sodipodi-0.dtd"
   xmlns:inkscape="http://www.inkscape.org/namespaces/inkscape"
   width="30px"
   height="30px"
   version="1.1"
   id="svg8"
   inkscape:version="0.92.4 5da689c313, 2019-01-14"
   sodipodi:docname="container.svg">
  <defs
     id="defs2" />
  <sodipodi:namedview
     id="base"
     pagecolor="#ffffff"
     bordercolor="#666666"
     borderopacity="1.0"
     inkscape:pageopacity="0.0"
     inkscape:pageshadow="2"
     inkscape:zoom="13.049334"
     inkscape:cx="18.679046"
     inkscape:cy="12.165829"
     inkscape:document-units="px"
     inkscape:current-layer="layer1"
     showgrid="false"
     inkscape:snap-page="false"
     units="px"
     inkscape:window-width="1884"
     inkscape:window-height="1061"
     inkscape:window-x="0"
     inkscape:window-y="0"
     inkscape:window-maximized="1"
     fit-margin-top="0"
     fit-margin-left="0"
     fit-margin-right="0"
     fit-margin-bottom="0" />
  <metadata
     id="metadata5">
    <rdf:RDF>
      <cc:Work
         rdf:about="">
        <dc:format>image/svg+xml</dc:format>
        <dc:type
           rdf:resource="http://purl.org/dc/dcmitype/StillImage" />
        <dc:title></dc:title>
      </cc:Work>
    </rdf:RDF>
  </metadata>
    <circle
       style="color:#000000;clip-rule:nonzero;display:inline;overflow:visible;visibility:visible;opacity:1;isolation:auto;mix-blend-mode:normal;color-interpolation:sRGB;color-interpolation-filters:linearRGB;solid-color:#000000;solid-opacity:1;vector-effect:none;fill:#e50980;fill-opacity:1;fill-rule:evenodd;stroke:#ffffff;stroke-width:1;stroke-linecap:butt;stroke-linejoin:miter;stroke-miterlimit:4;stroke-dasharray:none;stroke-dashoffset:0;stroke-opacity:1;marker:none;color-rendering:auto;image-rendering:auto;shape-rendering:auto;text-rendering:auto;enable-background:accumulate"
       id="path815"
       cx="15"
       cy="15"
       r="14.5" />
<g transform="translate(7.0,6.5)"><path fill-rule="nonzero" fill="#FFFFFF" fill-opacity="1" d="M 12.457031 7.902344 C 12.484375 8.105469 12.5 8.308594 12.5 8.515625 C 12.5 9.648438 12.050781 10.734375 11.25 11.535156 C 11.199219 11.585938 11.148438 11.632812 11.09375 11.679688 C 11.386719 11.554688 11.703125 11.488281 12.023438 11.488281 C 12.054688 11.488281 12.085938 11.488281 12.117188 11.492188 C 12.769531 10.644531 13.125 9.605469 13.128906 8.539062 C 12.863281 8.371094 12.636719 8.15625 12.457031 7.902344 Z M 12.457031 7.902344 "/>
<path fill-rule="nonzero" fill="#FFFFFF" fill-opacity="1" d="M 8.910156 4.296875 C 10.25 4.515625 11.40625 5.355469 12.027344 6.5625 C 12.027344 6.558594 12.027344 6.554688 12.027344 6.550781 C 12.027344 6.242188 12.089844 5.9375 12.207031 5.65625 C 11.597656 4.808594 10.730469 4.175781 9.738281 3.855469 C 9.496094 4.054688 9.214844 4.207031 8.910156 4.296875 Z M 8.910156 4.296875 "/>
<path fill-rule="nonzero" fill="#FFFFFF" fill-opacity="1" d="M 5.210938 11.535156 C 4.410156 10.734375 3.960938 9.648438 3.960938 8.515625 C 3.960938 8.277344 3.980469 8.042969 4.019531 7.8125 C 3.839844 8.085938 3.605469 8.320312 3.332031 8.5 C 3.332031 8.503906 3.332031 8.507812 3.332031 8.515625 C 3.332031 9.585938 3.683594 10.628906 4.332031 11.480469 C 4.347656 11.476562 4.363281 11.476562 4.375 11.476562 C 4.734375 11.476562 5.085938 11.558594 5.40625 11.71875 C 5.339844 11.65625 5.273438 11.597656 5.210938 11.535156 Z M 5.210938 11.535156 "/>
<path fill-rule="nonzero" fill="#FFFFFF" fill-opacity="1" d="M 4.398438 6.535156 C 4.398438 6.570312 4.394531 6.601562 4.394531 6.636719 C 5.003906 5.386719 6.1875 4.515625 7.558594 4.296875 C 7.257812 4.207031 6.976562 4.054688 6.734375 3.851562 C 5.726562 4.175781 4.847656 4.816406 4.234375 5.679688 C 4.34375 5.953125 4.398438 6.242188 4.398438 6.535156 Z M 4.398438 6.535156 "/>
<path fill-rule="nonzero" fill="#FFFFFF" fill-opacity="1" d="M 10.792969 17 L 9.03125 13.351562 C 9.03125 13.351562 9.03125 13.351562 9.027344 13.347656 C 9.28125 13.304688 9.53125 13.242188 9.777344 13.164062 C 9.878906 12.824219 10.054688 12.515625 10.292969 12.253906 C 8.96875 12.984375 7.359375 12.960938 6.058594 12.191406 C 6.320312 12.460938 6.511719 12.785156 6.621094 13.140625 C 6.890625 13.234375 7.164062 13.304688 7.445312 13.347656 L 5.417969 17 Z M 10.792969 17 "/>
<path fill-rule="nonzero" fill="#FFFFFF" fill-opacity="1" d="M 12.023438 15.519531 C 11.191406 15.519531 10.484375 14.910156 10.359375 14.089844 L 13.652344 14.273438 C 13.453125 15.007812 12.785156 15.519531 12.023438 15.519531 Z M 4.375 15.507812 C 3.773438 15.507812 3.21875 15.1875 2.917969 14.667969 L 6.054688 13.683594 C 6.058594 13.730469 6.0625 13.777344 6.0625 13.824219 C 6.058594 14.753906 5.304688 15.507812 4.375 15.507812 Z M 8.21875 9.625 C 8.027344 9.625 7.835938 9.574219 7.667969 9.476562 L 7.578125 9.425781 L 7.496094 9.355469 C 7.253906 9.148438 7.117188 8.84375 7.117188 8.523438 C 7.117188 8.449219 7.121094 8.378906 7.136719 8.308594 L 7.15625 8.207031 L 7.195312 8.109375 C 7.347656 7.726562 7.699219 7.464844 8.109375 7.425781 L 8.210938 7.414062 L 8.316406 7.421875 C 8.730469 7.460938 9.085938 7.722656 9.242188 8.105469 L 9.28125 8.203125 L 9.300781 8.304688 C 9.378906 8.699219 9.238281 9.101562 8.933594 9.363281 L 8.851562 9.429688 L 8.761719 9.480469 C 8.59375 9.574219 8.410156 9.625 8.21875 9.625 Z M 14.375 8.234375 C 13.773438 8.234375 13.214844 7.910156 12.914062 7.386719 L 16.054688 6.402344 C 16.058594 6.449219 16.058594 6.5 16.058594 6.550781 C 16.058594 7.480469 15.304688 8.234375 14.375 8.234375 Z M 2.050781 8.21875 C 1.121094 8.21875 0.367188 7.464844 0.367188 6.535156 C 0.367188 6.484375 0.367188 6.433594 0.371094 6.382812 L 3.53125 7.335938 C 3.234375 7.878906 2.667969 8.214844 2.050781 8.21875 Z M 8.152344 3.734375 C 7.390625 3.695312 6.75 3.148438 6.589844 2.402344 L 9.886719 2.402344 C 9.722656 3.164062 9.058594 3.710938 8.28125 3.734375 Z M 8.152344 3.734375 "/>
<path fill-rule="nonzero" fill="#FFFFFF" fill-opacity="1" d="M 9.34375 2.769531 C 9.296875 2.839844 9.242188 2.910156 9.179688 2.96875 C 8.941406 3.214844 8.617188 3.359375 8.273438 3.367188 L 8.222656 3.371094 L 8.171875 3.367188 C 7.832031 3.351562 7.515625 3.203125 7.285156 2.960938 C 7.226562 2.902344 7.175781 2.835938 7.132812 2.769531 L 9.34375 2.769531 M 0.78125 6.890625 L 2.910156 7.53125 C 2.878906 7.5625 2.84375 7.589844 2.804688 7.613281 C 2.585938 7.769531 2.320312 7.855469 2.050781 7.851562 C 1.457031 7.851562 0.941406 7.457031 0.78125 6.890625 M 15.640625 6.914062 C 15.480469 7.480469 14.964844 7.867188 14.375 7.871094 C 14.101562 7.871094 13.835938 7.785156 13.617188 7.628906 C 13.589844 7.609375 13.566406 7.59375 13.542969 7.574219 L 15.640625 6.914062 M 8.214844 7.78125 L 8.285156 7.789062 C 8.558594 7.8125 8.796875 7.988281 8.902344 8.246094 L 8.929688 8.308594 L 8.941406 8.375 C 8.949219 8.425781 8.957031 8.472656 8.957031 8.523438 C 8.957031 8.738281 8.859375 8.941406 8.695312 9.082031 L 8.640625 9.128906 L 8.582031 9.164062 C 8.355469 9.292969 8.078125 9.289062 7.851562 9.160156 L 7.789062 9.125 L 7.738281 9.078125 C 7.574219 8.941406 7.480469 8.734375 7.480469 8.523438 C 7.480469 8.472656 7.484375 8.425781 7.496094 8.378906 L 7.507812 8.3125 L 7.535156 8.246094 C 7.636719 7.992188 7.871094 7.816406 8.144531 7.789062 L 8.214844 7.78125 M 5.640625 14.195312 C 5.519531 14.617188 5.191406 14.949219 4.773438 15.082031 C 4.351562 15.214844 3.894531 15.128906 3.550781 14.851562 L 5.640625 14.195312 M 10.878906 14.484375 L 13.089844 14.609375 C 12.828125 14.972656 12.398438 15.175781 11.949219 15.152344 C 11.503906 15.128906 11.097656 14.875 10.878906 14.484375 M 8.238281 0 C 7.125 0 6.214844 0.886719 6.1875 2 C 6.160156 3.109375 7.023438 4.042969 8.132812 4.097656 L 8.074219 7.058594 C 7.53125 7.113281 7.0625 7.464844 6.855469 7.972656 L 4.019531 7.113281 C 4.332031 6.039062 3.734375 4.910156 2.664062 4.574219 C 1.597656 4.238281 0.460938 4.816406 0.101562 5.878906 C -0.253906 6.9375 0.304688 8.089844 1.355469 8.464844 C 2.410156 8.84375 3.570312 8.308594 3.96875 7.261719 L 6.777344 8.238281 C 6.675781 8.753906 6.859375 9.289062 7.257812 9.632812 L 5.523438 12.125 C 4.59375 11.496094 3.332031 11.726562 2.6875 12.644531 C 2.039062 13.558594 2.246094 14.824219 3.148438 15.488281 C 4.050781 16.152344 5.320312 15.972656 6.003906 15.082031 C 6.683594 14.191406 6.527344 12.917969 5.648438 12.21875 L 7.484375 9.796875 C 7.9375 10.054688 8.488281 10.054688 8.941406 9.800781 L 10.769531 12.214844 C 9.886719 12.902344 9.71875 14.164062 10.382812 15.058594 C 11.050781 15.949219 12.308594 16.144531 13.214844 15.496094 C 14.125 14.847656 14.34375 13.59375 13.710938 12.671875 C 13.082031 11.753906 11.832031 11.507812 10.898438 12.121094 L 9.171875 9.640625 C 9.578125 9.292969 9.761719 8.757812 9.660156 8.234375 L 12.453125 7.265625 C 12.839844 8.300781 13.984375 8.839844 15.03125 8.472656 C 16.074219 8.105469 16.632812 6.972656 16.289062 5.921875 C 15.941406 4.867188 14.820312 4.285156 13.761719 4.609375 C 12.703125 4.9375 12.097656 6.046875 12.402344 7.113281 L 9.578125 7.96875 C 9.371094 7.460938 8.898438 7.109375 8.351562 7.058594 L 8.292969 4.101562 C 9.414062 4.070312 10.300781 3.144531 10.289062 2.023438 C 10.273438 0.902344 9.359375 0 8.238281 0 Z M 6.5 2.035156 C 6.507812 1.082031 7.285156 0.3125 8.238281 0.3125 C 9.191406 0.3125 9.964844 1.082031 9.972656 2.035156 Z M 3.722656 7.011719 L 0.394531 6.007812 C 0.683594 5.105469 1.644531 4.597656 2.550781 4.871094 C 3.460938 5.148438 3.980469 6.097656 3.722656 7.011719 Z M 12.714844 7.066406 C 12.433594 6.152344 12.941406 5.179688 13.855469 4.894531 C 14.769531 4.609375 15.742188 5.113281 16.03125 6.023438 Z M 2.71875 14.34375 C 2.433594 13.429688 2.941406 12.457031 3.855469 12.167969 C 4.769531 11.878906 5.746094 12.390625 6.035156 13.304688 Z M 13.757812 13.914062 L 10.292969 13.71875 C 10.355469 12.785156 11.144531 12.070312 12.082031 12.101562 C 13.019531 12.132812 13.761719 12.898438 13.761719 13.835938 C 13.761719 13.859375 13.761719 13.886719 13.757812 13.914062 Z M 13.757812 13.914062 "/>
</g>
</svg>
