<?xml version="1.0" encoding="UTF-8"?>
<svg xmlns="http://www.w3.org/2000/svg" xmlns:xlink="http://www.w3.org/1999/xlink" width="11" height="10.301993" viewBox="0 0 11 10.301993">
<path fill-rule="nonzero" fill="rgb(30%,30%,30%)" fill-opacity="1" d="M 9.007812 3.507812 C 8.902344 3.554688 9.09375 3.816406 9.015625 4.074219 C 8.9375 4.332031 9.035156 4.410156 9.292969 4.429688 C 10.382812 4.507812 11.070312 3.851562 10.996094 3.707031 C 10.917969 3.566406 10.003906 3.851562 9.699219 3.757812 C 9.390625 3.660156 9.175781 3.429688 9.007812 3.507812 Z M 9.007812 3.507812 "/>
<path fill-rule="nonzero" fill="rgb(30%,30%,30%)" fill-opacity="1" d="M 8.238281 2.835938 C 7.902344 2.402344 7.488281 1.289062 7.078125 0.808594 C 6.15625 -0.261719 4.414062 -0.140625 3.1875 0.425781 C 2.5625 0.714844 1.699219 1.617188 0.363281 1.5 C 0.363281 1.5 0.257812 1.496094 0.0507812 1.476562 L 0.0273438 7.070312 C 0.277344 7.046875 0.664062 6.847656 1.074219 6.734375 C 2.53125 6.324219 2.703125 6.515625 2.726562 6.648438 C 2.746094 6.765625 2.257812 6.925781 2.101562 6.972656 C 1.949219 7.023438 1.746094 7.214844 1.449219 7.222656 C 1.152344 7.234375 1.21875 7.15625 1.132812 7.128906 C 1.046875 7.097656 0.910156 7.253906 0.738281 7.289062 C 0.566406 7.328125 0.558594 7.25 0.5 7.28125 C 0.382812 7.339844 0.105469 7.863281 0.0117188 8.078125 C -0.00390625 8.113281 -0.00390625 8.148438 0.0117188 8.183594 C 0.0234375 8.214844 0.0507812 8.238281 0.0859375 8.25 C 0.179688 8.28125 0.390625 8.214844 0.527344 8.203125 C 0.777344 8.183594 0.878906 7.683594 1.546875 7.683594 C 1.976562 7.683594 3.160156 7.234375 3.226562 7.261719 C 3.292969 7.289062 3.421875 7.433594 3.640625 7.597656 C 4.195312 8.019531 4.300781 8.730469 4.320312 9.046875 C 4.339844 9.363281 4.378906 9.527344 4.492188 9.644531 C 4.609375 9.757812 4.609375 9.832031 4.683594 10.066406 C 4.742188 10.246094 4.949219 10.113281 5.183594 10.199219 C 5.367188 10.265625 5.507812 10.292969 5.597656 10.300781 C 5.628906 10.304688 5.660156 10.292969 5.683594 10.273438 C 5.707031 10.253906 5.71875 10.222656 5.71875 10.191406 C 5.714844 10.066406 5.710938 9.886719 5.703125 9.855469 C 5.695312 9.804688 5.039062 9.460938 4.683594 8.941406 C 4.582031 8.792969 4.234375 7.328125 4.136719 6.910156 C 4.128906 6.886719 4.136719 6.859375 4.152344 6.84375 C 4.171875 6.824219 4.195312 6.816406 4.21875 6.824219 L 4.570312 6.867188 C 4.792969 6.859375 5.128906 6.597656 5.203125 6.070312 C 5.253906 5.738281 5.347656 5.449219 5.453125 5.339844 C 5.664062 5.128906 5.742188 4.765625 5.886719 4.792969 C 6 4.816406 5.972656 5.160156 5.980469 5.351562 C 5.992188 5.542969 6.175781 5.675781 6.210938 5.746094 C 6.25 5.8125 6.203125 6.042969 6.191406 6.4375 C 6.183594 6.828125 6.367188 7.15625 6.527344 7.195312 C 6.691406 7.234375 7.5 7.382812 7.585938 7.269531 C 7.738281 7.070312 7.605469 6.695312 7.699219 6.472656 C 7.75 6.359375 7.90625 5.855469 8.015625 5.648438 C 8.140625 5.417969 8.304688 5.230469 8.699219 4.574219 C 9.167969 3.785156 8.636719 3.347656 8.238281 2.835938 Z M 6.953125 5.285156 C 6.847656 5.265625 6.933594 5.023438 6.933594 5.023438 C 6.933594 5.023438 7.257812 4.957031 7.308594 5.140625 C 7.335938 5.25 7.058594 5.304688 6.953125 5.285156 Z M 6.828125 4.371094 C 6.351562 4.191406 6.039062 3.707031 6.191406 3.277344 C 6.347656 2.84375 7.105469 3.105469 7.105469 3.105469 C 7.507812 3.304688 7.304688 3.757812 7.5 3.9375 C 7.757812 4.179688 8.507812 3.84375 8.566406 3.976562 C 8.632812 4.140625 7.710938 4.707031 6.828125 4.371094 Z M 6.828125 4.371094 "/>
</svg>
