<?xml version="1.0" encoding="UTF-8"?>
<svg xmlns="http://www.w3.org/2000/svg" xmlns:xlink="http://www.w3.org/1999/xlink" width="11" height="8.49" viewBox="0 0 11 8.49">
<path fill-rule="nonzero" fill="rgb(30%,30%,30%)" fill-opacity="1" d="M 8.574219 1.265625 C 8.574219 1.902344 8.058594 2.417969 7.417969 2.417969 C 6.78125 2.417969 6.265625 1.902344 6.265625 1.265625 C 6.265625 0.628906 6.78125 0.109375 7.417969 0.109375 C 8.058594 0.109375 8.574219 0.628906 8.574219 1.265625 Z M 2.476562 1.160156 C 3.339844 1.039062 4.335938 1.726562 4.335938 1.726562 L 1.3125 3.132812 C 1.332031 3.132812 1.355469 3.132812 1.378906 3.132812 C 1.984375 3.140625 2.324219 3.496094 2.628906 3.8125 C 2.90625 4.101562 3.121094 4.332031 3.527344 4.320312 C 3.890625 4.3125 4.132812 4.183594 4.289062 4.042969 L 4.574219 3.703125 C 4.84375 3.429688 5.191406 3.140625 5.789062 3.132812 C 6.492188 3.125 6.824219 3.511719 7.09375 3.820312 C 7.339844 4.097656 7.535156 4.320312 7.980469 4.320312 C 8.449219 4.320312 8.65625 4.09375 8.917969 3.808594 C 9.195312 3.503906 9.539062 3.121094 10.230469 3.132812 C 10.464844 3.132812 10.695312 3.195312 10.894531 3.3125 C 10.898438 3.300781 10.898438 3.292969 10.902344 3.285156 C 10.933594 3.085938 10.636719 2.527344 10.082031 2.75 C 9.683594 2.90625 8.9375 3.582031 7.472656 3.210938 C 6.304688 2.917969 6.097656 1.734375 5.1875 0.917969 C 4.148438 -0.0195312 2.851562 -0.1875 1.570312 0.183594 C 0.308594 0.546875 -0.078125 1.082031 0.296875 1.539062 C 0.792969 2.136719 1.128906 1.351562 2.476562 1.160156 Z M 10.21875 3.925781 C 9.527344 3.914062 9.179688 4.296875 8.902344 4.601562 C 8.644531 4.890625 8.4375 5.113281 7.96875 5.113281 C 7.519531 5.113281 7.328125 4.894531 7.082031 4.613281 C 6.8125 4.304688 6.476562 3.917969 5.777344 3.925781 C 5.179688 3.933594 4.832031 4.222656 4.5625 4.496094 L 4.277344 4.839844 C 4.121094 4.976562 3.875 5.105469 3.515625 5.113281 C 3.109375 5.125 2.894531 4.894531 2.613281 4.605469 C 2.3125 4.289062 1.972656 3.933594 1.363281 3.925781 C 0.671875 3.914062 0.328125 4.296875 0.0507812 4.601562 C 0.03125 4.621094 0.015625 4.640625 0 4.65625 L 0 5.425781 C 0.191406 5.292969 0.339844 5.132812 0.472656 4.988281 C 0.734375 4.699219 0.921875 4.488281 1.359375 4.496094 C 1.707031 4.5 1.90625 4.691406 2.203125 5 C 2.496094 5.304688 2.859375 5.6875 3.488281 5.6875 C 3.503906 5.6875 3.515625 5.6875 3.527344 5.683594 C 4.359375 5.664062 4.777344 5.199219 4.957031 4.910156 C 5.1875 4.675781 5.394531 4.503906 5.785156 4.496094 C 5.789062 4.496094 5.792969 4.496094 5.800781 4.496094 C 6.226562 4.496094 6.40625 4.703125 6.652344 4.988281 C 6.925781 5.296875 7.261719 5.683594 7.96875 5.683594 C 8.691406 5.683594 9.042969 5.296875 9.328125 4.988281 C 9.585938 4.699219 9.773438 4.488281 10.214844 4.496094 C 10.539062 4.5 10.734375 4.667969 11 4.941406 L 11 4.179688 C 10.792969 4.035156 10.542969 3.929688 10.21875 3.925781 Z M 10.269531 5.285156 C 9.578125 5.273438 9.230469 5.65625 8.953125 5.960938 C 8.691406 6.25 8.488281 6.472656 8.019531 6.472656 C 7.570312 6.472656 7.378906 6.253906 7.132812 5.972656 C 6.863281 5.664062 6.527344 5.277344 5.828125 5.285156 C 5.226562 5.292969 4.882812 5.582031 4.613281 5.855469 L 4.328125 6.199219 C 4.167969 6.335938 3.925781 6.464844 3.5625 6.472656 C 3.160156 6.484375 2.941406 6.253906 2.664062 5.964844 C 2.363281 5.648438 2.019531 5.292969 1.414062 5.285156 C 0.722656 5.273438 0.375 5.65625 0.0976562 5.960938 C 0.0664062 6 0.03125 6.035156 0 6.070312 L 0 6.816406 C 0.21875 6.679688 0.378906 6.503906 0.519531 6.347656 C 0.78125 6.058594 0.96875 5.847656 1.40625 5.855469 C 1.757812 5.859375 1.957031 6.050781 2.25 6.359375 C 2.546875 6.664062 2.910156 7.046875 3.539062 7.046875 C 3.550781 7.046875 3.5625 7.046875 3.578125 7.046875 C 4.410156 7.023438 4.828125 6.558594 5.007812 6.269531 C 5.234375 6.035156 5.445312 5.863281 5.832031 5.855469 C 5.839844 5.855469 5.84375 5.855469 5.847656 5.855469 C 6.273438 5.855469 6.453125 6.0625 6.703125 6.347656 C 6.972656 6.660156 7.3125 7.046875 8.019531 7.046875 C 8.738281 7.046875 9.09375 6.65625 9.375 6.347656 C 9.636719 6.058594 9.824219 5.847656 10.261719 5.855469 C 10.566406 5.859375 10.757812 6.007812 11 6.25 L 11 5.503906 C 10.78125 5.363281 10.527344 5.285156 10.269531 5.285156 Z M 10.304688 6.730469 C 9.613281 6.71875 9.265625 7.101562 8.988281 7.40625 C 8.730469 7.691406 8.523438 7.917969 8.054688 7.917969 C 7.605469 7.917969 7.414062 7.695312 7.167969 7.417969 C 6.898438 7.109375 6.5625 6.722656 5.863281 6.730469 C 5.265625 6.738281 4.917969 7.027344 4.648438 7.300781 L 4.363281 7.640625 C 4.207031 7.78125 3.964844 7.910156 3.601562 7.917969 C 3.195312 7.929688 2.980469 7.699219 2.699219 7.410156 C 2.398438 7.09375 2.058594 6.738281 1.449219 6.730469 C 0.761719 6.71875 0.414062 7.101562 0.136719 7.40625 C 0.0898438 7.457031 0.0429688 7.507812 0 7.554688 L 0 8.285156 C 0.234375 8.144531 0.40625 7.957031 0.558594 7.792969 C 0.820312 7.503906 1.007812 7.292969 1.445312 7.300781 C 1.792969 7.304688 1.992188 7.496094 2.289062 7.804688 C 2.582031 8.109375 2.945312 8.488281 3.574219 8.488281 C 3.589844 8.488281 3.601562 8.488281 3.613281 8.488281 C 4.445312 8.46875 4.863281 8.003906 5.042969 7.714844 C 5.273438 7.480469 5.480469 7.304688 5.871094 7.300781 C 5.875 7.300781 5.878906 7.300781 5.886719 7.300781 C 6.3125 7.300781 6.492188 7.507812 6.738281 7.792969 C 7.011719 8.101562 7.347656 8.488281 8.054688 8.488281 C 8.777344 8.488281 9.128906 8.101562 9.414062 7.792969 C 9.671875 7.503906 9.859375 7.292969 10.300781 7.300781 C 10.589844 7.304688 10.777344 7.4375 11 7.65625 L 11 6.925781 C 10.789062 6.800781 10.550781 6.730469 10.304688 6.730469 Z M 10.304688 6.730469 "/>
</svg>
