<?xml version="1.0" encoding="UTF-8" standalone="no"?>
<!-- Created with Inkscape (http://www.inkscape.org/) -->

<svg
   xmlns:dc="http://purl.org/dc/elements/1.1/"
   xmlns:cc="http://creativecommons.org/ns#"
   xmlns:rdf="http://www.w3.org/1999/02/22-rdf-syntax-ns#"
   xmlns:svg="http://www.w3.org/2000/svg"
   xmlns="http://www.w3.org/2000/svg"
   xmlns:xlink="http://www.w3.org/1999/xlink"
   xmlns:sodipodi="http://sodipodi.sourceforge.net/DTD/sodipodi-0.dtd"
   xmlns:inkscape="http://www.inkscape.org/namespaces/inkscape"
   width="30px"
   height="30px"
   version="1.1"
   id="svg8"
   inkscape:version="0.92.4 5da689c313, 2019-01-14"
   sodipodi:docname="container.svg">
  <defs
     id="defs2" />
  <sodipodi:namedview
     id="base"
     pagecolor="#ffffff"
     bordercolor="#666666"
     borderopacity="1.0"
     inkscape:pageopacity="0.0"
     inkscape:pageshadow="2"
     inkscape:zoom="13.049334"
     inkscape:cx="18.679046"
     inkscape:cy="12.165829"
     inkscape:document-units="px"
     inkscape:current-layer="layer1"
     showgrid="false"
     inkscape:snap-page="false"
     units="px"
     inkscape:window-width="1884"
     inkscape:window-height="1061"
     inkscape:window-x="0"
     inkscape:window-y="0"
     inkscape:window-maximized="1"
     fit-margin-top="0"
     fit-margin-left="0"
     fit-margin-right="0"
     fit-margin-bottom="0" />
  <metadata
     id="metadata5">
    <rdf:RDF>
      <cc:Work
         rdf:about="">
        <dc:format>image/svg+xml</dc:format>
        <dc:type
           rdf:resource="http://purl.org/dc/dcmitype/StillImage" />
        <dc:title></dc:title>
      </cc:Work>
    </rdf:RDF>
  </metadata>
    <circle
       style="color:#000000;clip-rule:nonzero;display:inline;overflow:visible;visibility:visible;opacity:1;isolation:auto;mix-blend-mode:normal;color-interpolation:sRGB;color-interpolation-filters:linearRGB;solid-color:#000000;solid-opacity:1;vector-effect:none;fill:#e50980;fill-opacity:1;fill-rule:evenodd;stroke:#ffffff;stroke-width:1;stroke-linecap:butt;stroke-linejoin:miter;stroke-miterlimit:4;stroke-dasharray:none;stroke-dashoffset:0;stroke-opacity:1;marker:none;color-rendering:auto;image-rendering:auto;shape-rendering:auto;text-rendering:auto;enable-background:accumulate"
       id="path815"
       cx="15"
       cy="15"
       r="14.5" />
<g transform="translate(11.0,6.5)"><path fill-rule="nonzero" fill="#FFFFFF" fill-opacity="1" d="M 7.140625 14.070312 L 6.058594 14.070312 L 5.691406 5.410156 L 5.84375 5.410156 C 6.375 5.414062 6.375 5.546875 6.375 4.878906 L 6.375 4.539062 C 6.375 4.242188 6.136719 4.003906 5.84375 4.003906 L 5.707031 4.003906 L 5.625 2.324219 C 5.625 1.835938 5.003906 0.90625 4.128906 0.847656 L 4.128906 0 L 3.578125 0 L 3.578125 0.847656 C 2.558594 0.878906 2.109375 1.835938 2.109375 2.328125 L 2.042969 4.003906 L 1.863281 4.003906 C 1.566406 4.003906 1.328125 4.242188 1.328125 4.539062 L 1.328125 4.878906 C 1.324219 5.511719 1.238281 5.421875 1.863281 5.410156 L 1.988281 5.410156 L 1.640625 14.070312 L 0.53125 14.070312 C 0.238281 14.070312 0 14.308594 0 14.601562 L 0 17 L 7.675781 17 L 7.675781 14.601562 C 7.675781 14.308594 7.4375 14.070312 7.140625 14.070312 Z M 4.675781 4.085938 L 2.996094 4.085938 C 2.820312 4.085938 2.675781 3.941406 2.675781 3.765625 L 2.675781 2.96875 C 2.675781 2.792969 2.820312 2.648438 2.996094 2.648438 L 4.675781 2.648438 C 4.855469 2.648438 5 2.792969 5 2.96875 L 5 3.765625 C 5 3.941406 4.855469 4.085938 4.675781 4.085938 Z M 4.675781 4.085938 "/>
</g>
</svg>
