<?xml version="1.0" encoding="UTF-8" standalone="no"?>
<!-- Created with Inkscape (http://www.inkscape.org/) -->

<svg
   xmlns:dc="http://purl.org/dc/elements/1.1/"
   xmlns:cc="http://creativecommons.org/ns#"
   xmlns:rdf="http://www.w3.org/1999/02/22-rdf-syntax-ns#"
   xmlns:svg="http://www.w3.org/2000/svg"
   xmlns="http://www.w3.org/2000/svg"
   xmlns:xlink="http://www.w3.org/1999/xlink"
   xmlns:sodipodi="http://sodipodi.sourceforge.net/DTD/sodipodi-0.dtd"
   xmlns:inkscape="http://www.inkscape.org/namespaces/inkscape"
   width="30px"
   height="30px"
   version="1.1"
   id="svg8"
   inkscape:version="0.92.4 5da689c313, 2019-01-14"
   sodipodi:docname="container.svg">
  <defs
     id="defs2" />
  <sodipodi:namedview
     id="base"
     pagecolor="#ffffff"
     bordercolor="#666666"
     borderopacity="1.0"
     inkscape:pageopacity="0.0"
     inkscape:pageshadow="2"
     inkscape:zoom="13.049334"
     inkscape:cx="18.679046"
     inkscape:cy="12.165829"
     inkscape:document-units="px"
     inkscape:current-layer="layer1"
     showgrid="false"
     inkscape:snap-page="false"
     units="px"
     inkscape:window-width="1884"
     inkscape:window-height="1061"
     inkscape:window-x="0"
     inkscape:window-y="0"
     inkscape:window-maximized="1"
     fit-margin-top="0"
     fit-margin-left="0"
     fit-margin-right="0"
     fit-margin-bottom="0" />
  <metadata
     id="metadata5">
    <rdf:RDF>
      <cc:Work
         rdf:about="">
        <dc:format>image/svg+xml</dc:format>
        <dc:type
           rdf:resource="http://purl.org/dc/dcmitype/StillImage" />
        <dc:title></dc:title>
      </cc:Work>
    </rdf:RDF>
  </metadata>
    <circle
       style="color:#000000;clip-rule:nonzero;display:inline;overflow:visible;visibility:visible;opacity:1;isolation:auto;mix-blend-mode:normal;color-interpolation:sRGB;color-interpolation-filters:linearRGB;solid-color:#000000;solid-opacity:1;vector-effect:none;fill:#e50980;fill-opacity:1;fill-rule:evenodd;stroke:#ffffff;stroke-width:1;stroke-linecap:butt;stroke-linejoin:miter;stroke-miterlimit:4;stroke-dasharray:none;stroke-dashoffset:0;stroke-opacity:1;marker:none;color-rendering:auto;image-rendering:auto;shape-rendering:auto;text-rendering:auto;enable-background:accumulate"
       id="path815"
       cx="15"
       cy="15"
       r="14.5" />
<g transform="translate(6.5,7.5)"><path fill-rule="nonzero" fill="#FFFFFF" fill-opacity="1" d="M 12.976562 6.308594 C 12.976562 6.308594 12.285156 5.617188 12.054688 5.847656 C 11.761719 6.140625 12.402344 7.574219 13.554688 7.574219 C 14.707031 7.574219 15.0625 6.769531 15.167969 6.421875 C 15.371094 5.742188 14.820312 2.621094 14.820312 2.621094 C 14.820312 2.621094 12.730469 0.472656 14.476562 0.0859375 C 16.363281 -0.332031 15.726562 0.886719 15.601562 1.621094 C 15.597656 1.664062 15.429688 2.199219 15.460938 2.601562 C 15.492188 3.042969 15.984375 5.273438 15.859375 6.421875 C 15.691406 7.957031 14.449219 8.390625 13.554688 8.382812 C 12.976562 8.375 11.832031 8.078125 11.363281 6.769531 C 10.789062 5.15625 12.515625 3.3125 12.515625 3.3125 C 12.054688 4.347656 12.976562 6.308594 12.976562 6.308594 Z M 15.027344 2.054688 C 15.027344 2.054688 15.292969 1.117188 15.230469 0.757812 C 15.171875 0.441406 14.449219 0.585938 14.394531 0.757812 C 14.21875 1.285156 15.027344 2.054688 15.027344 2.054688 Z M 15.027344 2.054688 "/>
<path fill-rule="nonzero" fill="#FFFFFF" fill-opacity="1" d="M 14.003906 11.34375 C 14.003906 11.097656 14.203125 10.898438 14.453125 10.898438 C 14.699219 10.898438 14.898438 11.097656 14.898438 11.34375 C 14.898438 11.589844 14.695312 11.789062 14.449219 11.789062 C 14.332031 11.789062 14.21875 11.742188 14.136719 11.660156 C 14.050781 11.574219 14.003906 11.460938 14.003906 11.34375 Z M 11.964844 15.035156 C 11.316406 13.125 11.316406 11.046875 11.964844 9.136719 C 11.3125 8.984375 10.625 8.886719 9.914062 8.886719 C 7.550781 8.886719 5.4375 9.886719 4.03125 10.769531 C 3.738281 10.953125 3.363281 10.953125 3.070312 10.769531 C 2.269531 10.269531 1.242188 9.730469 0.0664062 9.359375 C 0.046875 9.351562 0.0234375 9.359375 0.0117188 9.378906 C -0.00390625 9.394531 -0.00390625 9.417969 0.0078125 9.4375 C 0.28125 9.914062 0.527344 10.40625 0.746094 10.910156 C 1.070312 11.660156 1.070312 12.511719 0.746094 13.261719 C 0.527344 13.765625 0.28125 14.257812 0.0078125 14.734375 C -0.00390625 14.753906 -0.00390625 14.777344 0.0117188 14.796875 C 0.0234375 14.8125 0.046875 14.820312 0.0664062 14.8125 C 1.25 14.4375 2.28125 13.898438 3.082031 13.394531 C 3.367188 13.214844 3.730469 13.214844 4.015625 13.394531 C 5.421875 14.277344 7.542969 15.285156 9.914062 15.285156 C 10.625 15.285156 11.3125 15.1875 11.964844 15.035156 Z M 16.605469 12.855469 C 16.855469 12.675781 17 12.390625 17 12.085938 C 17 11.78125 16.851562 11.496094 16.605469 11.316406 C 15.691406 10.660156 14.199219 9.742188 12.402344 9.246094 C 11.765625 11.085938 11.765625 13.085938 12.402344 14.929688 C 14.199219 14.429688 15.691406 13.515625 16.605469 12.855469 Z M 16.605469 12.855469 "/>
</g>
</svg>
