<?xml version="1.0" encoding="UTF-8"?>
<svg xmlns="http://www.w3.org/2000/svg" xmlns:xlink="http://www.w3.org/1999/xlink" width="11" height="11" viewBox="0 0 11 11">
<path fill-rule="nonzero" fill="rgb(30%,30%,30%)" fill-opacity="1" d="M 10.996094 5.320312 C 10.980469 4.832031 10.902344 4.351562 10.757812 3.882812 C 10.070312 1.636719 7.976562 0 5.5 0 C 2.886719 0 0.699219 1.820312 0.140625 4.265625 C 0.117188 4.363281 0.0976562 4.464844 0.078125 4.570312 C -0.0195312 5.144531 -0.0273438 5.730469 0.0585938 6.308594 C 0.0703125 6.394531 0.0859375 6.476562 0.101562 6.558594 C 0.25 7.324219 0.5625 8.046875 1.015625 8.683594 C 2.011719 10.085938 3.648438 11 5.5 11 C 7.421875 11 9.109375 10.015625 10.09375 8.523438 C 10.582031 7.789062 10.882812 6.945312 10.972656 6.066406 C 10.992188 5.878906 11 5.6875 11 5.5 C 11 5.4375 11 5.378906 10.996094 5.320312 Z M 2.046875 2.046875 C 3.144531 0.949219 4.699219 0.441406 6.234375 0.671875 C 7.765625 0.90625 9.097656 1.855469 9.824219 3.226562 C 9.585938 3.136719 9.335938 3.089844 9.082031 3.085938 C 9.070312 3.085938 9.0625 3.085938 9.050781 3.085938 C 8.011719 3.085938 7.492188 3.660156 7.070312 4.121094 C 6.671875 4.558594 6.359375 4.902344 5.640625 4.902344 C 4.957031 4.902344 4.660156 4.5625 4.285156 4.136719 C 3.878906 3.667969 3.371094 3.085938 2.324219 3.085938 C 2.3125 3.085938 2.300781 3.085938 2.292969 3.085938 C 1.785156 3.09375 1.394531 3.230469 1.078125 3.425781 C 1.320312 2.914062 1.648438 2.445312 2.046875 2.046875 Z M 8.953125 8.953125 C 7.925781 9.976562 6.5 10.492188 5.058594 10.359375 C 3.613281 10.230469 2.304688 9.464844 1.480469 8.273438 C 1.699219 8.125 1.953125 8.03125 2.300781 8.027344 C 2.308594 8.027344 2.316406 8.027344 2.324219 8.027344 C 2.976562 8.027344 3.25 8.34375 3.628906 8.777344 C 4.042969 9.253906 4.558594 9.84375 5.640625 9.84375 C 6.746094 9.84375 7.285156 9.253906 7.714844 8.777344 C 8.109375 8.34375 8.398438 8.027344 9.050781 8.027344 C 9.058594 8.027344 9.066406 8.027344 9.074219 8.027344 C 9.273438 8.03125 9.445312 8.074219 9.601562 8.152344 C 9.414062 8.441406 9.195312 8.710938 8.953125 8.953125 Z M 10.007812 7.378906 C 9.746094 7.246094 9.445312 7.160156 9.082031 7.15625 C 9.070312 7.15625 9.0625 7.15625 9.050781 7.15625 C 8.011719 7.15625 7.492188 7.730469 7.070312 8.191406 C 6.671875 8.625 6.359375 8.972656 5.640625 8.972656 C 4.957031 8.972656 4.660156 8.632812 4.285156 8.203125 C 3.875 7.730469 3.363281 7.144531 2.292969 7.15625 C 1.769531 7.160156 1.371094 7.308594 1.050781 7.511719 C 1.03125 7.476562 1.015625 7.4375 1 7.398438 C 0.917969 7.207031 0.851562 7.007812 0.792969 6.808594 C 0.832031 6.769531 0.871094 6.726562 0.90625 6.6875 C 1.3125 6.265625 1.632812 5.933594 2.300781 5.925781 C 2.308594 5.925781 2.316406 5.925781 2.324219 5.925781 C 2.976562 5.925781 3.25 6.238281 3.628906 6.675781 C 4.042969 7.148438 4.558594 7.742188 5.640625 7.742188 C 6.746094 7.742188 7.285156 7.148438 7.714844 6.671875 C 8.117188 6.234375 8.402344 5.910156 9.074219 5.925781 C 9.566406 5.929688 9.863281 6.179688 10.261719 6.585938 C 10.199219 6.859375 10.113281 7.125 10.007812 7.378906 Z M 10.382812 5.515625 C 10.042969 5.253906 9.636719 5.058594 9.082031 5.050781 C 8.023438 5.035156 7.496094 5.621094 7.070312 6.085938 C 6.671875 6.523438 6.359375 6.867188 5.640625 6.867188 C 4.957031 6.867188 4.660156 6.527344 4.285156 6.101562 C 3.875 5.628906 3.363281 5.039062 2.292969 5.050781 C 1.507812 5.058594 1.007812 5.386719 0.625 5.738281 C 0.621094 5.660156 0.617188 5.582031 0.617188 5.5 C 0.617188 5.332031 0.625 5.164062 0.644531 4.996094 C 0.734375 4.90625 0.824219 4.8125 0.910156 4.722656 C 1.3125 4.300781 1.632812 3.96875 2.300781 3.960938 C 2.308594 3.960938 2.316406 3.960938 2.324219 3.960938 C 2.976562 3.960938 3.25 4.273438 3.628906 4.710938 C 4.042969 5.183594 4.558594 5.777344 5.640625 5.777344 C 6.746094 5.777344 7.285156 5.183594 7.714844 4.707031 C 8.109375 4.273438 8.398438 3.960938 9.050781 3.960938 C 9.058594 3.960938 9.066406 3.960938 9.074219 3.960938 C 9.585938 3.964844 9.886719 4.234375 10.3125 4.675781 C 10.359375 4.949219 10.382812 5.222656 10.382812 5.5 C 10.382812 5.503906 10.382812 5.507812 10.382812 5.515625 Z M 10.382812 5.515625 "/>
</svg>
