<?xml version="1.0" encoding="UTF-8" standalone="no"?>
<!-- Created with Inkscape (http://www.inkscape.org/) -->

<svg
   xmlns:dc="http://purl.org/dc/elements/1.1/"
   xmlns:cc="http://creativecommons.org/ns#"
   xmlns:rdf="http://www.w3.org/1999/02/22-rdf-syntax-ns#"
   xmlns:svg="http://www.w3.org/2000/svg"
   xmlns="http://www.w3.org/2000/svg"
   xmlns:xlink="http://www.w3.org/1999/xlink"
   xmlns:sodipodi="http://sodipodi.sourceforge.net/DTD/sodipodi-0.dtd"
   xmlns:inkscape="http://www.inkscape.org/namespaces/inkscape"
   width="30px"
   height="30px"
   version="1.1"
   id="svg8"
   inkscape:version="0.92.4 5da689c313, 2019-01-14"
   sodipodi:docname="container.svg">
  <defs
     id="defs2" />
  <sodipodi:namedview
     id="base"
     pagecolor="#ffffff"
     bordercolor="#666666"
     borderopacity="1.0"
     inkscape:pageopacity="0.0"
     inkscape:pageshadow="2"
     inkscape:zoom="13.049334"
     inkscape:cx="18.679046"
     inkscape:cy="12.165829"
     inkscape:document-units="px"
     inkscape:current-layer="layer1"
     showgrid="false"
     inkscape:snap-page="false"
     units="px"
     inkscape:window-width="1884"
     inkscape:window-height="1061"
     inkscape:window-x="0"
     inkscape:window-y="0"
     inkscape:window-maximized="1"
     fit-margin-top="0"
     fit-margin-left="0"
     fit-margin-right="0"
     fit-margin-bottom="0" />
  <metadata
     id="metadata5">
    <rdf:RDF>
      <cc:Work
         rdf:about="">
        <dc:format>image/svg+xml</dc:format>
        <dc:type
           rdf:resource="http://purl.org/dc/dcmitype/StillImage" />
        <dc:title></dc:title>
      </cc:Work>
    </rdf:RDF>
  </metadata>
    <circle
       style="color:#000000;clip-rule:nonzero;display:inline;overflow:visible;visibility:visible;opacity:1;isolation:auto;mix-blend-mode:normal;color-interpolation:sRGB;color-interpolation-filters:linearRGB;solid-color:#000000;solid-opacity:1;vector-effect:none;fill:#ffffff;fill-opacity:1;fill-rule:evenodd;stroke:#e50980;stroke-width:1;stroke-linecap:butt;stroke-linejoin:miter;stroke-miterlimit:4;stroke-dasharray:none;stroke-dashoffset:0;stroke-opacity:1;marker:none;color-rendering:auto;image-rendering:auto;shape-rendering:auto;text-rendering:auto;enable-background:accumulate"
       id="path815"
       cx="15"
       cy="15"
       r="14.5" />
<g transform="translate(6.5,6.5)"><path fill-rule="nonzero" fill="rgb(30%,30%,30%)" fill-opacity="1" d="M 10.347656 2.664062 L 16.882812 0.980469 L 16.882812 3.097656 Z M 0 0.949219 L 0 3.0625 L 6.535156 2.628906 Z M 16.589844 14.625 C 16.582031 14.648438 16.367188 15.199219 15.628906 15.21875 C 15.246094 15.226562 15.042969 15.011719 14.78125 14.738281 C 14.496094 14.441406 14.175781 14.105469 13.601562 14.097656 C 12.953125 14.085938 12.625 14.449219 12.363281 14.734375 C 12.117188 15.003906 11.925781 15.21875 11.484375 15.21875 C 11.269531 15.21875 11.28125 15.230469 11.152344 15.140625 L 10.917969 13.335938 L 5.921875 13.335938 L 5.730469 14.269531 C 5.570312 14.1875 5.488281 14.101562 5.261719 14.097656 C 4.613281 14.085938 4.285156 14.449219 4.023438 14.734375 C 3.777344 15.003906 3.585938 15.21875 3.144531 15.21875 C 2.722656 15.21875 2.539062 15.007812 2.308594 14.746094 C 2.054688 14.453125 1.738281 14.089844 1.078125 14.097656 C 0.761719 14.101562 0.519531 14.191406 0.324219 14.3125 L 0.332031 15 C 0.539062 14.792969 0.730469 14.640625 1.085938 14.636719 C 1.089844 14.636719 1.09375 14.636719 1.097656 14.636719 C 1.5 14.636719 1.671875 14.832031 1.902344 15.097656 C 2.160156 15.390625 2.476562 15.753906 3.144531 15.753906 C 3.824219 15.753906 4.15625 15.390625 4.421875 15.097656 C 4.667969 14.828125 4.84375 14.628906 5.257812 14.636719 C 5.585938 14.640625 5.773438 14.816406 6.050781 15.109375 C 6.328125 15.398438 6.671875 15.753906 7.265625 15.753906 C 7.277344 15.753906 7.289062 15.753906 7.300781 15.753906 C 8.085938 15.734375 8.476562 15.296875 8.648438 15.023438 C 8.863281 14.804688 9.058594 14.640625 9.425781 14.636719 C 9.429688 14.636719 9.433594 14.636719 9.4375 14.636719 C 9.839844 14.636719 10.011719 14.832031 10.242188 15.097656 C 10.5 15.390625 10.816406 15.753906 11.484375 15.753906 C 12.164062 15.753906 12.496094 15.390625 12.761719 15.097656 C 13.007812 14.828125 13.183594 14.628906 13.597656 14.636719 C 13.925781 14.640625 14.113281 14.816406 14.390625 15.109375 C 14.667969 15.398438 15.011719 15.753906 15.601562 15.753906 C 15.617188 15.753906 15.628906 15.753906 15.640625 15.753906 C 16.082031 15.742188 16.402344 15.597656 16.625 15.425781 L 16.625 14.636719 Z M 16.589844 15.871094 C 16.582031 15.894531 16.367188 16.445312 15.628906 16.460938 C 15.246094 16.472656 15.042969 16.253906 14.78125 15.980469 C 14.496094 15.683594 14.175781 15.347656 13.601562 15.34375 C 12.953125 15.332031 12.625 15.691406 12.363281 15.980469 C 12.117188 16.25 11.925781 16.460938 11.484375 16.460938 C 11.0625 16.460938 10.878906 16.253906 10.648438 15.988281 C 10.394531 15.699219 10.078125 15.335938 9.417969 15.34375 C 8.855469 15.347656 8.582031 15.632812 8.328125 15.890625 L 8.007812 16.203125 C 7.855469 16.332031 7.628906 16.453125 7.289062 16.460938 C 6.90625 16.472656 6.703125 16.253906 6.441406 15.980469 C 6.15625 15.683594 5.835938 15.347656 5.261719 15.34375 C 4.613281 15.332031 4.285156 15.691406 4.023438 15.980469 C 3.777344 16.25 3.585938 16.460938 3.144531 16.460938 C 2.722656 16.460938 2.539062 16.253906 2.308594 15.988281 C 2.054688 15.699219 1.738281 15.335938 1.078125 15.34375 C 0.769531 15.347656 0.53125 15.429688 0.339844 15.546875 L 0.347656 16.226562 C 0.546875 16.027344 0.742188 15.882812 1.085938 15.882812 C 1.089844 15.882812 1.09375 15.882812 1.097656 15.882812 C 1.5 15.882812 1.671875 16.074219 1.902344 16.34375 C 2.160156 16.636719 2.476562 17 3.144531 17 C 3.824219 17 4.15625 16.636719 4.421875 16.34375 C 4.667969 16.070312 4.84375 15.871094 5.257812 15.882812 C 5.585938 15.882812 5.773438 16.0625 6.050781 16.355469 C 6.328125 16.640625 6.671875 17 7.265625 17 C 7.277344 17 7.289062 17 7.300781 17 C 8.085938 16.980469 8.476562 16.542969 8.648438 16.269531 C 8.863281 16.046875 9.058594 15.886719 9.425781 15.882812 C 9.429688 15.882812 9.433594 15.882812 9.4375 15.882812 C 9.839844 15.882812 10.011719 16.074219 10.242188 16.34375 C 10.5 16.636719 10.816406 17 11.484375 17 C 12.164062 17 12.496094 16.636719 12.761719 16.34375 C 13.007812 16.070312 13.183594 15.871094 13.597656 15.882812 C 13.925781 15.882812 14.113281 16.0625 14.390625 16.355469 C 14.667969 16.640625 15.011719 17 15.601562 17 C 15.617188 17 15.628906 17 15.640625 17 C 16.082031 16.988281 16.402344 16.84375 16.625 16.671875 L 16.625 15.882812 Z M 10.167969 6.179688 L 6.671875 6.179688 L 6.550781 7.46875 L 10.296875 7.523438 Z M 10.417969 8.566406 L 6.421875 8.566406 L 6.296875 9.910156 L 10.546875 9.910156 Z M 10.667969 10.949219 L 6.171875 10.949219 L 6.042969 12.292969 L 10.796875 12.292969 Z M 10.054688 3.515625 L 10.425781 3.515625 L 10.425781 4.414062 L 9.921875 4.414062 L 9.992188 5.058594 L 10.042969 5.609375 L 6.796875 5.609375 L 6.90625 4.414062 L 6.394531 4.414062 L 6.394531 3.515625 L 6.765625 3.515625 L 6.765625 1.648438 L 6.394531 1.648438 L 6.394531 0.976562 L 8.363281 0 L 10.351562 0.976562 L 10.351562 1.648438 L 10.054688 1.648438 Z M 9.476562 1.648438 L 7.335938 1.648438 L 7.335938 3.515625 L 9.476562 3.515625 Z M 9.476562 1.648438 "/>
</g>
</svg>
