<?xml version="1.0" encoding="UTF-8" standalone="no"?>
<!-- Created with Inkscape (http://www.inkscape.org/) -->

<svg
   xmlns:dc="http://purl.org/dc/elements/1.1/"
   xmlns:cc="http://creativecommons.org/ns#"
   xmlns:rdf="http://www.w3.org/1999/02/22-rdf-syntax-ns#"
   xmlns:svg="http://www.w3.org/2000/svg"
   xmlns="http://www.w3.org/2000/svg"
   xmlns:xlink="http://www.w3.org/1999/xlink"
   xmlns:sodipodi="http://sodipodi.sourceforge.net/DTD/sodipodi-0.dtd"
   xmlns:inkscape="http://www.inkscape.org/namespaces/inkscape"
   width="30px"
   height="30px"
   version="1.1"
   id="svg8"
   inkscape:version="0.92.4 5da689c313, 2019-01-14"
   sodipodi:docname="container.svg">
  <defs
     id="defs2" />
  <sodipodi:namedview
     id="base"
     pagecolor="#ffffff"
     bordercolor="#666666"
     borderopacity="1.0"
     inkscape:pageopacity="0.0"
     inkscape:pageshadow="2"
     inkscape:zoom="13.049334"
     inkscape:cx="18.679046"
     inkscape:cy="12.165829"
     inkscape:document-units="px"
     inkscape:current-layer="layer1"
     showgrid="false"
     inkscape:snap-page="false"
     units="px"
     inkscape:window-width="1884"
     inkscape:window-height="1061"
     inkscape:window-x="0"
     inkscape:window-y="0"
     inkscape:window-maximized="1"
     fit-margin-top="0"
     fit-margin-left="0"
     fit-margin-right="0"
     fit-margin-bottom="0" />
  <metadata
     id="metadata5">
    <rdf:RDF>
      <cc:Work
         rdf:about="">
        <dc:format>image/svg+xml</dc:format>
        <dc:type
           rdf:resource="http://purl.org/dc/dcmitype/StillImage" />
        <dc:title></dc:title>
      </cc:Work>
    </rdf:RDF>
  </metadata>
    <circle
       style="color:#000000;clip-rule:nonzero;display:inline;overflow:visible;visibility:visible;opacity:1;isolation:auto;mix-blend-mode:normal;color-interpolation:sRGB;color-interpolation-filters:linearRGB;solid-color:#000000;solid-opacity:1;vector-effect:none;fill:#e42224;fill-opacity:1;fill-rule:evenodd;stroke:#ffffff;stroke-width:1;stroke-linecap:butt;stroke-linejoin:miter;stroke-miterlimit:4;stroke-dasharray:none;stroke-dashoffset:0;stroke-opacity:1;marker:none;color-rendering:auto;image-rendering:auto;shape-rendering:auto;text-rendering:auto;enable-background:accumulate"
       id="path815"
       cx="15"
       cy="15"
       r="14.5" />
<g transform="translate(6.5,6.5)"><path fill-rule="nonzero" fill="#FFFFFF" fill-opacity="1" d="M 16.347656 5.25 C 15.035156 2.070312 11.9375 0 8.5 0 C 5.058594 0 1.960938 2.070312 0.648438 5.25 C -0.429688 7.863281 -0.140625 10.839844 1.421875 13.195312 C 2.984375 15.550781 5.613281 16.976562 8.441406 17 C 8.460938 17 8.480469 17 8.5 17 C 11.339844 17 13.992188 15.585938 15.566406 13.222656 C 17.144531 10.863281 17.4375 7.871094 16.347656 5.25 Z M 14.34375 2.570312 C 15.136719 3.351562 15.765625 4.285156 16.1875 5.316406 L 13.433594 6.457031 C 12.886719 5.136719 11.859375 4.109375 10.542969 3.566406 L 11.6875 0.808594 C 12.679688 1.21875 13.582031 1.816406 14.34375 2.570312 Z M 10.476562 13.277344 C 7.839844 14.371094 4.816406 13.117188 3.722656 10.480469 C 3.191406 9.199219 3.191406 7.792969 3.722656 6.523438 C 4.246094 5.253906 5.253906 4.246094 6.519531 3.722656 C 7.789062 3.199219 9.210938 3.199219 10.476562 3.726562 C 11.753906 4.25 12.746094 5.242188 13.273438 6.523438 C 13.804688 7.800781 13.804688 9.207031 13.277344 10.480469 C 12.753906 11.75 11.746094 12.757812 10.476562 13.277344 Z M 2.566406 2.65625 C 3.351562 1.863281 4.285156 1.234375 5.3125 0.808594 L 6.457031 3.566406 C 5.144531 4.105469 4.101562 5.148438 3.5625 6.457031 L 0.808594 5.316406 C 1.214844 4.324219 1.8125 3.417969 2.566406 2.65625 Z M 2.65625 14.433594 C 1.863281 13.648438 1.234375 12.714844 0.808594 11.6875 L 0.808594 11.683594 L 3.5625 10.546875 C 4.109375 11.867188 5.136719 12.894531 6.453125 13.4375 L 5.3125 16.191406 C 4.320312 15.78125 3.417969 15.183594 2.65625 14.433594 Z M 14.429688 14.34375 C 13.648438 15.136719 12.714844 15.765625 11.6875 16.1875 L 11.683594 16.191406 L 10.542969 13.441406 L 10.542969 13.4375 C 11.855469 12.898438 12.894531 11.859375 13.4375 10.546875 L 16.191406 11.6875 C 15.78125 12.679688 15.183594 13.582031 14.429688 14.34375 Z M 14.429688 14.34375 "/>
</g>
</svg>
