<?xml version="1.0" encoding="UTF-8"?>
<svg xmlns="http://www.w3.org/2000/svg" xmlns:xlink="http://www.w3.org/1999/xlink" width="10.786976" height="11" viewBox="0 0 10.786976 11">
<path fill-rule="nonzero" fill="rgb(30%,30%,30%)" fill-opacity="1" d="M 10.753906 0.03125 C 10.679688 -0.0390625 10.519531 0.0117188 10.394531 0.136719 L 8.027344 2.515625 L 7.960938 2.460938 C 7.875 2.378906 7.722656 2.398438 7.617188 2.503906 L 7.457031 2.671875 L 7.347656 2.566406 C 7.183594 2.40625 6.996094 2.25 6.890625 2.234375 C 6.683594 2.167969 6.578125 2.230469 6.371094 2.445312 L 2.40625 6.722656 L 2.320312 6.640625 C 2.191406 6.515625 1.988281 6.519531 1.863281 6.648438 L 1.609375 6.90625 C 1.484375 7.035156 1.484375 7.242188 1.613281 7.367188 L 2.429688 8.164062 L 0.988281 9.636719 L 0.65625 9.3125 C 0.476562 9.136719 0.21875 9.105469 0.0820312 9.246094 C -0.0546875 9.382812 -0.0195312 9.640625 0.164062 9.816406 L 1.214844 10.84375 C 1.398438 11.023438 1.652344 11.050781 1.789062 10.914062 C 1.925781 10.773438 1.890625 10.515625 1.710938 10.339844 L 1.375 10.015625 L 2.816406 8.542969 L 3.632812 9.339844 C 3.761719 9.464844 3.964844 9.460938 4.089844 9.332031 L 4.34375 9.074219 C 4.46875 8.945312 4.46875 8.738281 4.339844 8.613281 L 4.253906 8.53125 L 8.285156 4.316406 C 8.375 4.222656 8.480469 4.097656 8.542969 4.019531 C 8.597656 3.953125 8.609375 3.859375 8.566406 3.785156 C 8.53125 3.722656 8.464844 3.660156 8.347656 3.539062 L 8.179688 3.371094 L 8.34375 3.207031 C 8.449219 3.097656 8.464844 2.945312 8.382812 2.863281 L 8.304688 2.796875 L 10.65625 0.390625 C 10.78125 0.261719 10.824219 0.101562 10.753906 0.03125 Z M 3.953125 8.234375 L 3.515625 7.808594 L 4.183594 7.128906 L 4.296875 7.238281 C 4.402344 7.34375 4.570312 7.339844 4.675781 7.234375 C 4.777344 7.128906 4.777344 6.960938 4.671875 6.859375 L 4.054688 6.253906 C 3.949219 6.152344 3.777344 6.152344 3.675781 6.257812 C 3.570312 6.363281 3.574219 6.535156 3.679688 6.636719 L 3.796875 6.75 L 3.128906 7.429688 L 2.707031 7.019531 C 2.707031 7.019531 6.769531 2.648438 6.8125 2.625 C 6.878906 2.6875 6.839844 2.640625 6.929688 2.730469 L 4.152344 5.722656 L 5.21875 6.6875 C 5.21875 6.6875 7.945312 3.796875 7.972656 3.757812 L 8.078125 3.847656 C 8.085938 3.851562 3.953125 8.234375 3.953125 8.234375 Z M 3.953125 8.234375 "/>
</svg>
