<?xml version="1.0" encoding="UTF-8"?>
<svg xmlns="http://www.w3.org/2000/svg" xmlns:xlink="http://www.w3.org/1999/xlink" width="7.965848" height="11" viewBox="0 0 7.965848 11">
<path fill-rule="nonzero" fill="rgb(30%,30%,30%)" fill-opacity="1" d="M 7.007812 3.753906 C 6.539062 2.910156 6.445312 1.316406 6.445312 1.316406 C 4.570312 2.066406 5.132812 3.941406 4.757812 3.660156 C 4.382812 3.378906 3.257812 1.785156 4.007812 0.00390625 C 1.664062 -0.183594 -0.960938 5.441406 0.351562 7.972656 C 1.433594 10.058594 2.507812 10.601562 3.164062 10.882812 C 3.292969 10.933594 3.425781 10.972656 3.566406 11 C 3.210938 10.660156 2.765625 10.027344 2.414062 9.097656 C 1.664062 7.128906 2.890625 4.488281 4.195312 4.597656 C 3.777344 5.640625 3.90625 8.035156 4.851562 8.347656 C 5.132812 8.441406 5.789062 6.847656 5.789062 6.847656 C 7.21875 8.53125 5.925781 10.371094 5.378906 10.929688 C 5.570312 10.871094 5.746094 10.792969 5.882812 10.695312 C 6.539062 10.226562 9.445312 8.144531 7.007812 3.753906 Z M 7.007812 3.753906 "/>
</svg>
