<?xml version="1.0" encoding="UTF-8"?>
<svg xmlns="http://www.w3.org/2000/svg" xmlns:xlink="http://www.w3.org/1999/xlink" width="11" height="9.592417" viewBox="0 0 11 9.592417">
<path fill-rule="nonzero" fill="rgb(30%,30%,30%)" fill-opacity="1" d="M 7.394531 3.179688 L 3.816406 3.179688 C 3.910156 2.261719 4.679688 1.5625 5.605469 1.5625 C 6.527344 1.5625 7.300781 2.261719 7.394531 3.179688 Z M 4.714844 8.707031 L 4.714844 7.121094 L 3.132812 7.121094 L 3.132812 5.539062 L 4.714844 5.539062 L 4.714844 3.953125 L 6.300781 3.953125 L 6.300781 5.539062 L 7.882812 5.539062 L 7.882812 7.121094 L 6.300781 7.121094 L 6.300781 8.707031 Z M 9.167969 3.230469 L 8.707031 3.230469 C 8.707031 3.222656 8.707031 3.214844 8.707031 3.207031 C 8.707031 1.433594 7.269531 0 5.5 0 C 3.730469 0 2.292969 1.433594 2.292969 3.207031 C 2.292969 3.214844 2.292969 3.222656 2.292969 3.230469 L 1.832031 3.230469 C 0.824219 3.230469 0 4.054688 0 5.0625 L 0 9.59375 L 11 9.59375 L 11 5.0625 C 11 4.054688 10.175781 3.230469 9.167969 3.230469 Z M 9.167969 3.230469 "/>
</svg>
