<?xml version="1.0" encoding="UTF-8"?>
<svg xmlns="http://www.w3.org/2000/svg" xmlns:xlink="http://www.w3.org/1999/xlink" width="8.190296" height="11" viewBox="0 0 8.190296 11">
<path fill-rule="nonzero" fill="rgb(30%,30%,30%)" fill-opacity="1" d="M 1.449219 7.953125 C 1.21875 7.953125 1.027344 7.765625 1.023438 7.535156 C 1.023438 7.300781 1.21875 7.105469 1.457031 7.105469 L 3.828125 7.105469 C 3.828125 7.105469 3.828125 6.371094 3.828125 6.371094 L 1.457031 6.371094 C 1.21875 6.371094 1.023438 6.179688 1.023438 5.945312 C 1.027344 5.714844 1.21875 5.527344 1.449219 5.527344 L 3.828125 5.527344 L 3.828125 3.183594 C 3.097656 3.035156 2.539062 2.386719 2.539062 1.613281 L 2.539062 0 L 1.402344 0 L 1.402344 3.570312 C 1.402344 4.230469 0.859375 4.769531 0.199219 4.769531 C 0.132812 4.769531 0.0664062 4.761719 0 4.75 L 0 10.21875 C 0 10.648438 0.351562 11 0.78125 11 L 3.828125 11 L 3.828125 7.953125 Z M 1.449219 7.953125 "/>
<path fill-rule="nonzero" fill="rgb(30%,30%,30%)" fill-opacity="1" d="M 6.882812 7.953125 C 7.113281 7.953125 7.300781 7.765625 7.304688 7.535156 C 7.308594 7.300781 7.109375 7.105469 6.875 7.105469 L 4.359375 7.105469 C 4.359375 7.105469 4.359375 6.371094 4.359375 6.371094 L 6.875 6.371094 C 7.109375 6.371094 7.308594 6.179688 7.304688 5.945312 C 7.300781 5.714844 7.113281 5.527344 6.882812 5.527344 L 4.359375 5.527344 L 4.359375 3.183594 C 5.09375 3.035156 5.652344 2.386719 5.652344 1.613281 L 5.652344 0 L 6.789062 0 L 6.789062 3.570312 C 6.789062 4.230469 7.328125 4.769531 7.988281 4.769531 C 8.058594 4.769531 8.125 4.761719 8.191406 4.75 L 8.191406 10.21875 C 8.191406 10.648438 7.839844 11 7.40625 11 L 4.359375 11 L 4.359375 7.953125 Z M 6.882812 7.953125 "/>
</svg>
