<?xml version="1.0" encoding="UTF-8" standalone="no"?>
<!-- Created with Inkscape (http://www.inkscape.org/) -->

<svg
   xmlns:dc="http://purl.org/dc/elements/1.1/"
   xmlns:cc="http://creativecommons.org/ns#"
   xmlns:rdf="http://www.w3.org/1999/02/22-rdf-syntax-ns#"
   xmlns:svg="http://www.w3.org/2000/svg"
   xmlns="http://www.w3.org/2000/svg"
   xmlns:xlink="http://www.w3.org/1999/xlink"
   xmlns:sodipodi="http://sodipodi.sourceforge.net/DTD/sodipodi-0.dtd"
   xmlns:inkscape="http://www.inkscape.org/namespaces/inkscape"
   width="30px"
   height="30px"
   version="1.1"
   id="svg8"
   inkscape:version="0.92.4 5da689c313, 2019-01-14"
   sodipodi:docname="container.svg">
  <defs
     id="defs2" />
  <sodipodi:namedview
     id="base"
     pagecolor="#ffffff"
     bordercolor="#666666"
     borderopacity="1.0"
     inkscape:pageopacity="0.0"
     inkscape:pageshadow="2"
     inkscape:zoom="13.049334"
     inkscape:cx="18.679046"
     inkscape:cy="12.165829"
     inkscape:document-units="px"
     inkscape:current-layer="layer1"
     showgrid="false"
     inkscape:snap-page="false"
     units="px"
     inkscape:window-width="1884"
     inkscape:window-height="1061"
     inkscape:window-x="0"
     inkscape:window-y="0"
     inkscape:window-maximized="1"
     fit-margin-top="0"
     fit-margin-left="0"
     fit-margin-right="0"
     fit-margin-bottom="0" />
  <metadata
     id="metadata5">
    <rdf:RDF>
      <cc:Work
         rdf:about="">
        <dc:format>image/svg+xml</dc:format>
        <dc:type
           rdf:resource="http://purl.org/dc/dcmitype/StillImage" />
        <dc:title></dc:title>
      </cc:Work>
    </rdf:RDF>
  </metadata>
    <circle
       style="color:#000000;clip-rule:nonzero;display:inline;overflow:visible;visibility:visible;opacity:1;isolation:auto;mix-blend-mode:normal;color-interpolation:sRGB;color-interpolation-filters:linearRGB;solid-color:#000000;solid-opacity:1;vector-effect:none;fill:#ffffff;fill-opacity:1;fill-rule:evenodd;stroke:#e42224;stroke-width:1;stroke-linecap:butt;stroke-linejoin:miter;stroke-miterlimit:4;stroke-dasharray:none;stroke-dashoffset:0;stroke-opacity:1;marker:none;color-rendering:auto;image-rendering:auto;shape-rendering:auto;text-rendering:auto;enable-background:accumulate"
       id="path815"
       cx="15"
       cy="15"
       r="14.5" />
<g transform="translate(6.5,7.5)"><path fill-rule="nonzero" fill="rgb(30%,30%,30%)" fill-opacity="1" d="M 8.648438 2.144531 C 8.648438 3.328125 7.691406 4.285156 6.507812 4.285156 C 5.324219 4.285156 4.363281 3.328125 4.363281 2.144531 C 4.363281 0.960938 5.324219 0 6.507812 0 C 7.691406 0 8.648438 0.960938 8.648438 2.144531 Z M 8.648438 2.144531 "/>
<path fill-rule="nonzero" fill="rgb(30%,30%,30%)" fill-opacity="1" d="M 15.605469 10.082031 C 15.605469 11.265625 14.644531 12.222656 13.460938 12.222656 C 12.277344 12.222656 11.320312 11.265625 11.320312 10.082031 C 11.320312 8.898438 12.277344 7.9375 13.460938 7.9375 C 14.644531 7.9375 15.605469 8.898438 15.605469 10.082031 Z M 15.605469 10.082031 "/>
<path fill-rule="nonzero" fill="rgb(30%,30%,30%)" fill-opacity="1" d="M 16.015625 12.859375 L 12.402344 12.859375 C 12.398438 12.859375 13.40625 13.257812 12.398438 12.859375 C 11.390625 12.460938 10.695312 9.921875 9.070312 10.082031 L 0.785156 10.082031 C 0.351562 10.082031 0 10.429688 0 10.863281 L 0 12.84375 C 0 13.277344 0.351562 13.625 0.785156 13.625 L 10.289062 13.625 C 10.328125 13.625 10.371094 13.640625 10.398438 13.671875 L 11.117188 14.335938 C 11.125 14.339844 11.132812 14.347656 11.136719 14.351562 C 11.320312 14.605469 11.613281 14.753906 11.921875 14.753906 L 16.050781 14.753906 C 16.3125 14.753906 16.5625 14.648438 16.742188 14.457031 C 16.921875 14.265625 17.015625 14.007812 17 13.75 C 16.96875 13.242188 16.523438 12.859375 16.015625 12.859375 Z M 16.015625 12.859375 "/>
<path fill-rule="nonzero" fill="rgb(30%,30%,30%)" fill-opacity="1" d="M 10.820312 7.761719 L 9.171875 7.085938 C 8.980469 7.003906 8.496094 6.765625 8.496094 6.765625 C 8.496094 6.765625 6.09375 4.464844 5.601562 4.414062 L 4.941406 4.347656 C 4.675781 4.3125 4.128906 4.265625 3.980469 4.300781 C 3.703125 4.332031 3.46875 4.515625 3.367188 4.773438 L 2.199219 7.734375 L 2.101562 7.96875 L 2.109375 7.964844 L 1.507812 9.539062 L 5.027344 9.539062 L 6.675781 7.558594 C 6.738281 7.484375 6.847656 7.472656 6.921875 7.535156 L 7.828125 8.257812 C 7.867188 8.289062 7.910156 8.3125 7.957031 8.332031 L 9.882812 9.066406 L 9.863281 9.035156 L 10.085938 9.117188 C 10.488281 9.292969 11.054688 9.21875 11.234375 8.816406 C 11.410156 8.410156 11.226562 7.9375 10.820312 7.761719 Z M 10.820312 7.761719 "/>
<path fill-rule="nonzero" fill="rgb(30%,30%,30%)" fill-opacity="1" d="M 0.300781 14.203125 L 10.332031 14.203125 C 10.480469 14.203125 10.601562 14.324219 10.601562 14.472656 C 10.601562 14.621094 10.480469 14.742188 10.332031 14.742188 L 0.300781 14.742188 C 0.148438 14.742188 0.0273438 14.621094 0.0273438 14.472656 C 0.0273438 14.324219 0.148438 14.203125 0.300781 14.203125 Z M 0.300781 14.203125 "/>
</g>
</svg>
