<?xml version="1.0" encoding="UTF-8"?>
<svg xmlns="http://www.w3.org/2000/svg" xmlns:xlink="http://www.w3.org/1999/xlink" width="11" height="10.660441" viewBox="0 0 11 10.660441">
<path fill-rule="nonzero" fill="rgb(30%,30%,30%)" fill-opacity="1" d="M 10.015625 1.050781 L 10.015625 0 L 9.175781 0 L 9.175781 1.050781 L 8.191406 1.050781 L 8.191406 1.953125 L 9.175781 1.953125 L 9.175781 3.003906 L 10.015625 3.003906 L 10.015625 1.953125 L 11 1.953125 L 11 1.050781 Z M 10.015625 1.050781 "/>
<path fill-rule="nonzero" fill="rgb(30%,30%,30%)" fill-opacity="1" d="M 9.175781 5.035156 C 9.175781 7.769531 4.589844 10.660156 4.589844 10.660156 C 4.589844 10.660156 0 7.769531 0 5.035156 L 0.00390625 5.035156 C 0.00390625 3.671875 1.027344 2.5625 2.296875 2.5625 C 3.5625 2.5625 4.589844 3.671875 4.589844 5.035156 C 4.589844 3.671875 5.617188 2.5625 6.882812 2.5625 C 8.148438 2.5625 9.175781 3.671875 9.175781 5.035156 Z M 5.046875 7.414062 L 4.316406 9.671875 L 6.476562 6.710938 L 5.3125 6.6875 L 6.1875 4.429688 L 3.734375 7.394531 Z M 5.046875 7.414062 "/>
</svg>
