<?xml version="1.0" encoding="UTF-8"?>
<svg xmlns="http://www.w3.org/2000/svg" xmlns:xlink="http://www.w3.org/1999/xlink" width="11" height="10.639336" viewBox="0 0 11 10.639336">
<path fill-rule="nonzero" fill="rgb(30%,30%,30%)" fill-opacity="1" d="M 3.011719 0.0234375 C 2.910156 0.0078125 2.804688 0.0117188 2.703125 0.0117188 L 1.445312 0.0117188 C 1.160156 0.0117188 0.851562 -0.0195312 0.570312 0.0234375 C 0.234375 0.0742188 0.015625 0.355469 0 0.683594 C -0.015625 0.972656 0.179688 1.195312 0.425781 1.296875 C 0.402344 1.882812 0.429688 3.84375 0.429688 4.425781 L 0.429688 9.179688 C 0.429688 9.519531 0.441406 9.839844 0.664062 10.125 C 1.105469 10.707031 2.0625 10.796875 2.652344 10.386719 C 3.027344 10.121094 3.152344 9.722656 3.152344 9.285156 L 3.152344 1.890625 C 3.152344 1.695312 3.160156 1.496094 3.15625 1.296875 C 3.382812 1.203125 3.539062 1.011719 3.574219 0.75 C 3.582031 0.726562 3.582031 0.707031 3.582031 0.683594 C 3.582031 0.660156 3.582031 0.636719 3.574219 0.613281 C 3.53125 0.316406 3.324219 0.0703125 3.011719 0.0234375 Z M 2.941406 0.933594 C 2.832031 0.945312 2.722656 1.019531 2.730469 1.144531 C 2.765625 1.777344 2.730469 3.789062 2.730469 4.425781 L 2.730469 9.179688 C 2.730469 9.5 2.726562 9.800781 2.4375 10.023438 C 1.914062 10.425781 0.867188 10.203125 0.851562 9.445312 C 0.84375 9.261719 0.851562 9.078125 0.851562 8.898438 L 0.851562 1.445312 C 0.851562 1.34375 0.847656 1.242188 0.851562 1.144531 C 0.859375 1.019531 0.75 0.945312 0.640625 0.933594 C 0.421875 0.90625 0.34375 0.617188 0.519531 0.484375 C 0.597656 0.425781 0.679688 0.433594 0.769531 0.433594 L 2.609375 0.433594 C 2.820312 0.433594 3.144531 0.382812 3.160156 0.683594 C 3.152344 0.808594 3.070312 0.917969 2.941406 0.933594 Z M 2.941406 0.933594 "/>
<path fill-rule="nonzero" fill="rgb(30%,30%,30%)" fill-opacity="1" d="M 1.09375 9.375 C 1.09375 9.660156 1.367188 9.890625 1.703125 9.890625 L 1.878906 9.890625 C 2.214844 9.890625 2.488281 9.660156 2.488281 9.375 L 2.488281 3.796875 L 1.09375 3.796875 Z M 1.09375 9.375 "/>
<path fill-rule="nonzero" fill="rgb(30%,30%,30%)" fill-opacity="1" d="M 6.722656 0.0234375 C 6.621094 0.0078125 6.515625 0.0117188 6.414062 0.0117188 L 5.15625 0.0117188 C 4.871094 0.0117188 4.5625 -0.0195312 4.277344 0.0234375 C 3.945312 0.0742188 3.726562 0.355469 3.710938 0.683594 C 3.695312 0.972656 3.886719 1.195312 4.132812 1.296875 C 4.109375 1.882812 4.136719 3.84375 4.136719 4.425781 L 4.136719 9.179688 C 4.136719 9.519531 4.152344 9.839844 4.371094 10.125 C 4.816406 10.707031 5.773438 10.796875 6.359375 10.386719 C 6.734375 10.121094 6.863281 9.722656 6.863281 9.285156 L 6.863281 1.890625 C 6.863281 1.695312 6.871094 1.496094 6.867188 1.296875 C 7.09375 1.203125 7.25 1.011719 7.285156 0.75 C 7.289062 0.726562 7.292969 0.707031 7.289062 0.683594 C 7.292969 0.660156 7.289062 0.636719 7.285156 0.613281 C 7.242188 0.316406 7.03125 0.0703125 6.722656 0.0234375 Z M 6.648438 0.933594 C 6.539062 0.945312 6.429688 1.019531 6.4375 1.144531 C 6.472656 1.777344 6.441406 3.789062 6.441406 4.425781 L 6.441406 9.179688 C 6.441406 9.5 6.433594 9.800781 6.148438 10.023438 C 5.625 10.425781 4.578125 10.203125 4.558594 9.445312 C 4.554688 9.261719 4.558594 9.078125 4.558594 8.898438 L 4.558594 1.445312 C 4.558594 1.34375 4.554688 1.242188 4.5625 1.144531 C 4.570312 1.019531 4.460938 0.945312 4.351562 0.933594 C 4.132812 0.90625 4.054688 0.617188 4.230469 0.484375 C 4.304688 0.425781 4.390625 0.433594 4.476562 0.433594 L 6.320312 0.433594 C 6.527344 0.433594 6.855469 0.382812 6.871094 0.683594 C 6.863281 0.808594 6.777344 0.917969 6.648438 0.933594 Z M 6.648438 0.933594 "/>
<path fill-rule="nonzero" fill="rgb(30%,30%,30%)" fill-opacity="1" d="M 4.804688 9.375 C 4.804688 9.660156 5.078125 9.890625 5.410156 9.890625 L 5.589844 9.890625 C 5.921875 9.890625 6.195312 9.660156 6.195312 9.375 L 6.195312 3.796875 L 4.804688 3.796875 Z M 4.804688 9.375 "/>
<path fill-rule="nonzero" fill="rgb(30%,30%,30%)" fill-opacity="1" d="M 10.429688 0.0234375 C 10.328125 0.0078125 10.226562 0.0117188 10.121094 0.0117188 L 8.863281 0.0117188 C 8.578125 0.0117188 8.269531 -0.0195312 7.988281 0.0234375 C 7.652344 0.0742188 7.4375 0.355469 7.417969 0.683594 C 7.40625 0.972656 7.597656 1.195312 7.84375 1.296875 C 7.820312 1.882812 7.847656 3.84375 7.847656 4.425781 L 7.847656 9.179688 C 7.847656 9.519531 7.859375 9.839844 8.082031 10.125 C 8.523438 10.707031 9.480469 10.796875 10.070312 10.386719 C 10.445312 10.121094 10.570312 9.722656 10.570312 9.285156 L 10.570312 1.890625 C 10.570312 1.695312 10.578125 1.496094 10.574219 1.296875 C 10.804688 1.203125 10.960938 1.011719 10.992188 0.75 C 11 0.726562 11 0.707031 11 0.683594 C 11 0.660156 11 0.636719 10.992188 0.613281 C 10.953125 0.316406 10.742188 0.0703125 10.429688 0.0234375 Z M 10.359375 0.933594 C 10.25 0.945312 10.140625 1.019531 10.148438 1.144531 C 10.183594 1.777344 10.152344 3.789062 10.152344 4.425781 L 10.152344 9.179688 C 10.152344 9.5 10.144531 9.800781 9.855469 10.023438 C 9.332031 10.425781 8.289062 10.203125 8.269531 9.445312 C 8.261719 9.261719 8.269531 9.078125 8.269531 8.898438 L 8.269531 1.445312 C 8.269531 1.34375 8.265625 1.242188 8.269531 1.144531 C 8.277344 1.019531 8.167969 0.945312 8.058594 0.933594 C 7.84375 0.90625 7.761719 0.617188 7.9375 0.484375 C 8.015625 0.425781 8.097656 0.433594 8.1875 0.433594 L 10.03125 0.433594 C 10.238281 0.433594 10.5625 0.382812 10.578125 0.683594 C 10.570312 0.808594 10.488281 0.917969 10.359375 0.933594 Z M 10.359375 0.933594 "/>
<path fill-rule="nonzero" fill="rgb(30%,30%,30%)" fill-opacity="1" d="M 8.515625 9.375 C 8.515625 9.660156 8.785156 9.890625 9.121094 9.890625 L 9.296875 9.890625 C 9.632812 9.890625 9.90625 9.660156 9.90625 9.375 L 9.90625 3.796875 L 8.515625 3.796875 Z M 8.515625 9.375 "/>
</svg>
