<?xml version="1.0" encoding="UTF-8" standalone="no"?>
<!-- Created with Inkscape (http://www.inkscape.org/) -->

<svg
   xmlns:dc="http://purl.org/dc/elements/1.1/"
   xmlns:cc="http://creativecommons.org/ns#"
   xmlns:rdf="http://www.w3.org/1999/02/22-rdf-syntax-ns#"
   xmlns:svg="http://www.w3.org/2000/svg"
   xmlns="http://www.w3.org/2000/svg"
   xmlns:xlink="http://www.w3.org/1999/xlink"
   xmlns:sodipodi="http://sodipodi.sourceforge.net/DTD/sodipodi-0.dtd"
   xmlns:inkscape="http://www.inkscape.org/namespaces/inkscape"
   width="30px"
   height="30px"
   version="1.1"
   id="svg8"
   inkscape:version="0.92.4 5da689c313, 2019-01-14"
   sodipodi:docname="container.svg">
  <defs
     id="defs2" />
  <sodipodi:namedview
     id="base"
     pagecolor="#ffffff"
     bordercolor="#666666"
     borderopacity="1.0"
     inkscape:pageopacity="0.0"
     inkscape:pageshadow="2"
     inkscape:zoom="13.049334"
     inkscape:cx="18.679046"
     inkscape:cy="12.165829"
     inkscape:document-units="px"
     inkscape:current-layer="layer1"
     showgrid="false"
     inkscape:snap-page="false"
     units="px"
     inkscape:window-width="1884"
     inkscape:window-height="1061"
     inkscape:window-x="0"
     inkscape:window-y="0"
     inkscape:window-maximized="1"
     fit-margin-top="0"
     fit-margin-left="0"
     fit-margin-right="0"
     fit-margin-bottom="0" />
  <metadata
     id="metadata5">
    <rdf:RDF>
      <cc:Work
         rdf:about="">
        <dc:format>image/svg+xml</dc:format>
        <dc:type
           rdf:resource="http://purl.org/dc/dcmitype/StillImage" />
        <dc:title></dc:title>
      </cc:Work>
    </rdf:RDF>
  </metadata>
    <circle
       style="color:#000000;clip-rule:nonzero;display:inline;overflow:visible;visibility:visible;opacity:1;isolation:auto;mix-blend-mode:normal;color-interpolation:sRGB;color-interpolation-filters:linearRGB;solid-color:#000000;solid-opacity:1;vector-effect:none;fill:#e42224;fill-opacity:1;fill-rule:evenodd;stroke:#ffffff;stroke-width:1;stroke-linecap:butt;stroke-linejoin:miter;stroke-miterlimit:4;stroke-dasharray:none;stroke-dashoffset:0;stroke-opacity:1;marker:none;color-rendering:auto;image-rendering:auto;shape-rendering:auto;text-rendering:auto;enable-background:accumulate"
       id="path815"
       cx="15"
       cy="15"
       r="14.5" />
<g transform="translate(8.5,6.5)"><path fill-rule="nonzero" fill="#FFFFFF" fill-opacity="1" d="M 2.238281 12.289062 C 1.878906 12.289062 1.589844 12 1.582031 11.644531 C 1.578125 11.28125 1.886719 10.984375 2.25 10.984375 L 5.917969 10.984375 C 5.917969 10.984375 5.917969 9.847656 5.917969 9.847656 L 2.25 9.847656 C 1.886719 9.847656 1.578125 9.550781 1.582031 9.1875 C 1.589844 8.832031 1.878906 8.542969 2.238281 8.542969 L 5.917969 8.542969 L 5.917969 4.917969 C 4.785156 4.691406 3.925781 3.6875 3.925781 2.492188 L 3.925781 0 L 2.167969 0 L 2.167969 5.515625 C 2.167969 6.539062 1.332031 7.375 0.308594 7.375 C 0.203125 7.375 0.101562 7.359375 0 7.339844 L 0 15.789062 C 0 16.457031 0.542969 17 1.210938 17 L 5.917969 17 L 5.917969 12.289062 Z M 2.238281 12.289062 "/>
<path fill-rule="nonzero" fill="#FFFFFF" fill-opacity="1" d="M 10.636719 12.289062 C 10.992188 12.289062 11.285156 12 11.289062 11.644531 C 11.292969 11.28125 10.988281 10.984375 10.625 10.984375 L 6.738281 10.984375 C 6.738281 10.984375 6.738281 9.847656 6.738281 9.847656 L 10.625 9.847656 C 10.988281 9.847656 11.292969 9.550781 11.289062 9.1875 C 11.285156 8.832031 10.992188 8.542969 10.636719 8.542969 L 6.738281 8.542969 L 6.738281 4.917969 C 7.871094 4.691406 8.734375 3.6875 8.734375 2.492188 L 8.734375 0 L 10.492188 0 L 10.492188 5.515625 C 10.492188 6.539062 11.328125 7.375 12.347656 7.375 C 12.453125 7.375 12.554688 7.359375 12.65625 7.339844 L 12.65625 15.789062 C 12.65625 16.457031 12.117188 17 11.449219 17 L 6.738281 17 L 6.738281 12.289062 Z M 10.636719 12.289062 "/>
</g>
</svg>
