<?xml version="1.0" encoding="UTF-8"?>
<svg xmlns="http://www.w3.org/2000/svg" xmlns:xlink="http://www.w3.org/1999/xlink" width="11" height="10.436089" viewBox="0 0 11 10.436089">
<path fill-rule="nonzero" fill="rgb(30%,30%,30%)" fill-opacity="1" d="M 6.3125 0 L 4.6875 0 C 3.820312 0 3.117188 0.703125 3.117188 1.570312 L 3.117188 1.789062 L 4 1.789062 L 4 1.570312 C 4 1.191406 4.308594 0.882812 4.6875 0.882812 L 6.3125 0.882812 C 6.691406 0.882812 7 1.191406 7 1.570312 L 7 1.789062 L 7.882812 1.789062 L 7.882812 1.570312 C 7.882812 0.703125 7.179688 0 6.3125 0 Z M 6.3125 0 "/>
<path fill-rule="nonzero" fill="rgb(30%,30%,30%)" fill-opacity="1" d="M 9.488281 2.039062 L 1.511719 2.039062 C 0.675781 2.039062 0 2.714844 0 3.550781 L 0 8.925781 C 0 9.757812 0.675781 10.4375 1.511719 10.4375 L 9.488281 10.4375 C 10.324219 10.4375 11 9.757812 11 8.925781 L 11 3.550781 C 11 2.714844 10.324219 2.039062 9.488281 2.039062 Z M 5.5 8.773438 C 4.101562 8.773438 2.964844 7.636719 2.964844 6.238281 C 2.964844 4.835938 4.101562 3.703125 5.5 3.703125 C 6.898438 3.703125 8.035156 4.835938 8.035156 6.238281 C 8.035156 7.636719 6.898438 8.773438 5.5 8.773438 Z M 5.5 8.773438 "/>
<path fill-rule="nonzero" fill="rgb(30%,30%,30%)" fill-opacity="1" d="M 3.335938 5.683594 L 4.792969 5.683594 L 4.792969 4.242188 L 6.058594 4.242188 L 6.058594 5.683594 L 7.515625 5.683594 L 7.515625 6.941406 L 6.058594 6.941406 L 6.058594 8.386719 L 4.792969 8.386719 L 4.792969 6.941406 L 3.335938 6.941406 Z M 3.335938 5.683594 "/>
</svg>
