<?xml version="1.0" encoding="UTF-8"?>
<svg xmlns="http://www.w3.org/2000/svg" xmlns:xlink="http://www.w3.org/1999/xlink" width="11" height="9.677905" viewBox="0 0 11 9.677905">
<path fill-rule="nonzero" fill="rgb(30%,30%,30%)" fill-opacity="1" d="M 6.621094 0 L 4.945312 3.285156 L 3.878906 1.210938 C 3.878906 1.210938 0.105469 9.476562 0 9.65625 L 11 9.679688 Z M 3.425781 3.324219 L 2.972656 3.582031 L 3.910156 1.671875 L 4.871094 3.5 L 4.355469 3.3125 L 3.875 3.859375 Z M 7.167969 7.25 L 6.15625 7.25 L 6.15625 8.265625 L 4.886719 8.265625 L 4.886719 7.25 L 3.851562 7.25 L 3.851562 5.980469 L 4.886719 5.980469 L 4.886719 4.945312 L 6.15625 4.945312 L 6.15625 5.980469 L 7.167969 5.980469 Z M 7.011719 1.890625 L 6.671875 2.359375 L 6.1875 1.808594 L 5.714844 2.109375 L 6.632812 0.46875 L 7.417969 2.132812 Z M 7.011719 1.890625 "/>
</svg>
