<?xml version="1.0" encoding="UTF-8"?>
<svg xmlns="http://www.w3.org/2000/svg" xmlns:xlink="http://www.w3.org/1999/xlink" width="11" height="10.835984" viewBox="0 0 11 10.835984">
<path fill-rule="nonzero" fill="rgb(30%,30%,30%)" fill-opacity="1" d="M 7.101562 2.050781 L 5.054688 2.050781 L 5.054688 0 L 2.570312 0 L 2.570312 2.050781 L 0.511719 2.050781 L 0.511719 4.539062 L 2.570312 4.539062 L 2.570312 6.589844 L 5.054688 6.589844 L 5.054688 4.539062 L 7.101562 4.539062 Z M 7.101562 2.050781 "/>
<path fill-rule="nonzero" fill="rgb(30%,30%,30%)" fill-opacity="1" d="M 0 9.503906 L 7.515625 9.503906 L 7.515625 10.671875 C 7.515625 10.734375 7.550781 10.792969 7.609375 10.820312 C 7.664062 10.847656 7.734375 10.839844 7.78125 10.800781 L 10.9375 8.296875 C 10.976562 8.265625 11 8.21875 11 8.167969 C 11 8.117188 10.976562 8.074219 10.9375 8.042969 L 7.78125 5.535156 C 7.734375 5.496094 7.664062 5.488281 7.609375 5.515625 C 7.550781 5.542969 7.515625 5.601562 7.515625 5.664062 L 7.515625 7.085938 L 0 7.085938 Z M 0 9.503906 "/>
</svg>
