<?xml version="1.0" encoding="UTF-8"?>
<svg xmlns="http://www.w3.org/2000/svg" xmlns:xlink="http://www.w3.org/1999/xlink" width="11" height="10.207679" viewBox="0 0 11 10.207679">
<path fill-rule="nonzero" fill="rgb(30%,30%,30%)" fill-opacity="1" d="M 3.570312 5.578125 C 3.792969 6.039062 3.714844 6.539062 3.394531 6.695312 C 3.074219 6.851562 2.632812 6.609375 2.40625 6.148438 C 2.179688 5.691406 2.257812 5.191406 2.578125 5.035156 C 2.902344 4.878906 3.34375 5.121094 3.570312 5.578125 Z M 3.570312 5.578125 "/>
<path fill-rule="nonzero" fill="rgb(30%,30%,30%)" fill-opacity="1" d="M 8.367188 5.007812 C 8.699219 5.132812 8.824219 5.621094 8.644531 6.097656 C 8.464844 6.578125 8.046875 6.863281 7.714844 6.734375 C 7.378906 6.609375 7.253906 6.121094 7.433594 5.640625 C 7.617188 5.164062 8.03125 4.878906 8.367188 5.007812 Z M 8.367188 5.007812 "/>
<path fill-rule="nonzero" fill="rgb(30%,30%,30%)" fill-opacity="1" d="M 6.78125 3.757812 C 7.164062 3.835938 7.390625 4.335938 7.28125 4.878906 C 7.171875 5.417969 6.769531 5.792969 6.382812 5.714844 C 5.996094 5.636719 5.773438 5.136719 5.882812 4.59375 C 5.992188 4.054688 6.394531 3.679688 6.78125 3.757812 Z M 6.78125 3.757812 "/>
<path fill-rule="nonzero" fill="rgb(30%,30%,30%)" fill-opacity="1" d="M 5.160156 4.628906 C 5.261719 5.175781 5.035156 5.679688 4.65625 5.75 C 4.273438 5.820312 3.882812 5.4375 3.777344 4.886719 C 3.675781 4.339844 3.902344 3.839844 4.28125 3.765625 C 4.664062 3.695312 5.054688 4.082031 5.160156 4.628906 Z M 5.160156 4.628906 "/>
<path fill-rule="nonzero" fill="rgb(30%,30%,30%)" fill-opacity="1" d="M 5.488281 10.207031 C 4.316406 10.207031 3.363281 9.257812 3.363281 8.082031 C 3.363281 6.910156 4.316406 5.957031 5.488281 5.957031 C 6.664062 5.957031 7.613281 6.910156 7.613281 8.082031 C 7.613281 9.257812 6.664062 10.207031 5.488281 10.207031 Z M 5.488281 10.207031 "/>
<path fill-rule="nonzero" fill="rgb(30%,30%,30%)" fill-opacity="1" d="M 10.921875 4.894531 C 10.972656 4.847656 11.003906 4.78125 11 4.710938 C 10.996094 4.640625 10.964844 4.574219 10.910156 4.53125 L 5.65625 0.0703125 C 5.542969 -0.0273438 5.359375 -0.0234375 5.246094 0.078125 L 0.0820312 4.742188 C 0.03125 4.785156 0 4.855469 0 4.925781 C 0 4.996094 0.03125 5.0625 0.0820312 5.105469 L 0.332031 5.332031 C 0.445312 5.433594 0.628906 5.433594 0.738281 5.332031 L 5.269531 1.246094 C 5.382812 1.144531 5.566406 1.144531 5.683594 1.242188 L 10.273438 5.136719 C 10.390625 5.234375 10.570312 5.230469 10.679688 5.125 Z M 10.921875 4.894531 "/>
</svg>
