<?xml version="1.0" encoding="UTF-8" standalone="no"?>
<!-- Created with Inkscape (http://www.inkscape.org/) -->

<svg
   xmlns:dc="http://purl.org/dc/elements/1.1/"
   xmlns:cc="http://creativecommons.org/ns#"
   xmlns:rdf="http://www.w3.org/1999/02/22-rdf-syntax-ns#"
   xmlns:svg="http://www.w3.org/2000/svg"
   xmlns="http://www.w3.org/2000/svg"
   xmlns:xlink="http://www.w3.org/1999/xlink"
   xmlns:sodipodi="http://sodipodi.sourceforge.net/DTD/sodipodi-0.dtd"
   xmlns:inkscape="http://www.inkscape.org/namespaces/inkscape"
   width="30px"
   height="30px"
   version="1.1"
   id="svg8"
   inkscape:version="0.92.4 5da689c313, 2019-01-14"
   sodipodi:docname="container.svg">
  <defs
     id="defs2" />
  <sodipodi:namedview
     id="base"
     pagecolor="#ffffff"
     bordercolor="#666666"
     borderopacity="1.0"
     inkscape:pageopacity="0.0"
     inkscape:pageshadow="2"
     inkscape:zoom="13.049334"
     inkscape:cx="18.679046"
     inkscape:cy="12.165829"
     inkscape:document-units="px"
     inkscape:current-layer="layer1"
     showgrid="false"
     inkscape:snap-page="false"
     units="px"
     inkscape:window-width="1884"
     inkscape:window-height="1061"
     inkscape:window-x="0"
     inkscape:window-y="0"
     inkscape:window-maximized="1"
     fit-margin-top="0"
     fit-margin-left="0"
     fit-margin-right="0"
     fit-margin-bottom="0" />
  <metadata
     id="metadata5">
    <rdf:RDF>
      <cc:Work
         rdf:about="">
        <dc:format>image/svg+xml</dc:format>
        <dc:type
           rdf:resource="http://purl.org/dc/dcmitype/StillImage" />
        <dc:title></dc:title>
      </cc:Work>
    </rdf:RDF>
  </metadata>
    <circle
       style="color:#000000;clip-rule:nonzero;display:inline;overflow:visible;visibility:visible;opacity:1;isolation:auto;mix-blend-mode:normal;color-interpolation:sRGB;color-interpolation-filters:linearRGB;solid-color:#000000;solid-opacity:1;vector-effect:none;fill:#ffffff;fill-opacity:1;fill-rule:evenodd;stroke:#e42224;stroke-width:1;stroke-linecap:butt;stroke-linejoin:miter;stroke-miterlimit:4;stroke-dasharray:none;stroke-dashoffset:0;stroke-opacity:1;marker:none;color-rendering:auto;image-rendering:auto;shape-rendering:auto;text-rendering:auto;enable-background:accumulate"
       id="path815"
       cx="15"
       cy="15"
       r="14.5" />
<g transform="translate(6.5,7.5)"><path fill-rule="nonzero" fill="rgb(30%,30%,30%)" fill-opacity="1" d="M 8.757812 0.101562 C 8.601562 -0.0351562 8.347656 -0.0351562 8.191406 0.101562 L 0.09375 7.160156 C -0.0625 7.296875 -0.0195312 7.40625 0.1875 7.40625 L 2.050781 7.40625 C 2.257812 7.40625 2.425781 7.574219 2.429688 7.78125 L 2.429688 14.613281 C 2.429688 14.820312 2.597656 14.988281 2.804688 14.988281 L 14.140625 14.988281 C 14.347656 14.988281 14.515625 14.820312 14.515625 14.613281 L 14.515625 7.78125 C 14.515625 7.574219 14.683594 7.40625 14.890625 7.40625 L 16.8125 7.40625 C 17.019531 7.40625 17.0625 7.296875 16.90625 7.160156 Z M 12.558594 9.980469 C 12.558594 10.1875 12.390625 10.355469 12.183594 10.355469 L 10.0625 10.355469 C 9.855469 10.355469 9.6875 10.523438 9.6875 10.730469 L 9.6875 12.851562 C 9.6875 13.058594 9.519531 13.226562 9.3125 13.226562 L 7.597656 13.226562 C 7.390625 13.226562 7.222656 13.058594 7.222656 12.851562 L 7.222656 10.730469 C 7.222656 10.523438 7.054688 10.355469 6.847656 10.355469 L 4.726562 10.355469 C 4.519531 10.355469 4.351562 10.1875 4.351562 9.980469 L 4.351562 8.265625 C 4.351562 8.058594 4.519531 7.890625 4.726562 7.890625 L 6.847656 7.890625 C 7.054688 7.890625 7.222656 7.722656 7.222656 7.515625 L 7.222656 5.394531 C 7.222656 5.1875 7.390625 5.019531 7.597656 5.019531 L 9.3125 5.019531 C 9.519531 5.019531 9.6875 5.1875 9.6875 5.394531 L 9.6875 7.515625 C 9.6875 7.722656 9.855469 7.890625 10.0625 7.890625 L 12.183594 7.890625 C 12.390625 7.890625 12.558594 8.058594 12.558594 8.265625 Z M 12.558594 9.980469 "/>
</g>
</svg>
