<?xml version="1.0" encoding="UTF-8"?>
<svg xmlns="http://www.w3.org/2000/svg" xmlns:xlink="http://www.w3.org/1999/xlink" width="10.998821" height="11" viewBox="0 0 10.998821 11">
<path fill-rule="nonzero" fill="rgb(30%,30%,30%)" fill-opacity="1" d="M 10.578125 3.398438 C 9.730469 1.339844 7.722656 0 5.5 0 C 3.273438 0 1.269531 1.339844 0.417969 3.398438 C -0.277344 5.085938 -0.09375 7.015625 0.917969 8.539062 C 1.929688 10.0625 3.632812 10.984375 5.460938 11 C 5.472656 11 5.488281 11 5.5 11 C 7.335938 11 9.054688 10.085938 10.074219 8.554688 C 11.09375 7.027344 11.28125 5.09375 10.578125 3.398438 Z M 9.28125 1.664062 C 9.796875 2.167969 10.199219 2.773438 10.476562 3.4375 L 8.691406 4.179688 C 8.339844 3.324219 7.675781 2.660156 6.824219 2.308594 L 7.5625 0.523438 C 8.203125 0.789062 8.789062 1.175781 9.28125 1.664062 Z M 6.78125 8.59375 C 5.074219 9.300781 3.117188 8.488281 2.410156 6.78125 C 2.066406 5.953125 2.066406 5.042969 2.410156 4.222656 C 2.746094 3.402344 3.398438 2.75 4.21875 2.410156 C 5.039062 2.070312 5.960938 2.070312 6.78125 2.410156 C 7.605469 2.75 8.246094 3.394531 8.589844 4.222656 C 8.933594 5.046875 8.933594 5.957031 8.589844 6.78125 C 8.253906 7.601562 7.601562 8.253906 6.78125 8.59375 Z M 1.660156 1.71875 C 2.167969 1.203125 2.773438 0.796875 3.4375 0.523438 L 4.175781 2.308594 C 3.328125 2.65625 2.65625 3.332031 2.304688 4.179688 L 0.523438 3.441406 L 0.523438 3.4375 C 0.785156 2.796875 1.171875 2.210938 1.660156 1.71875 Z M 1.71875 9.339844 C 1.203125 8.832031 0.796875 8.226562 0.523438 7.5625 L 0.523438 7.558594 L 2.304688 6.824219 C 2.660156 7.679688 3.324219 8.34375 4.175781 8.695312 L 3.4375 10.476562 C 2.796875 10.210938 2.210938 9.824219 1.71875 9.339844 Z M 9.339844 9.28125 C 8.832031 9.792969 8.226562 10.199219 7.5625 10.476562 L 7.558594 10.476562 L 6.820312 8.695312 L 6.824219 8.695312 C 7.671875 8.347656 8.34375 7.671875 8.695312 6.824219 L 10.476562 7.5625 C 10.210938 8.203125 9.824219 8.789062 9.339844 9.28125 Z M 9.339844 9.28125 "/>
</svg>
