<?xml version="1.0" encoding="UTF-8"?>
<svg xmlns="http://www.w3.org/2000/svg" xmlns:xlink="http://www.w3.org/1999/xlink" width="11" height="10.436089" viewBox="0 0 11 10.436089">
<path fill-rule="nonzero" fill="rgb(30%,30%,30%)" fill-opacity="1" d="M 6.3125 0 L 4.6875 0 C 3.820312 0 3.117188 0.703125 3.117188 1.570312 L 3.117188 1.789062 L 4 1.789062 L 4 1.570312 C 4 1.1875 4.308594 0.882812 4.6875 0.882812 L 6.3125 0.882812 C 6.691406 0.882812 7 1.1875 7 1.570312 L 7 1.789062 L 7.882812 1.789062 L 7.882812 1.570312 C 7.882812 0.703125 7.179688 0 6.3125 0 Z M 6.3125 0 "/>
<path fill-rule="nonzero" fill="rgb(30%,30%,30%)" fill-opacity="1" d="M 9.488281 2.039062 L 1.511719 2.039062 C 0.675781 2.039062 0 2.714844 0 3.550781 L 0 8.925781 C 0 9.757812 0.675781 10.4375 1.511719 10.4375 L 9.488281 10.4375 C 10.324219 10.4375 11 9.757812 11 8.925781 L 11 3.550781 C 11 2.714844 10.324219 2.039062 9.488281 2.039062 Z M 5.5 8.773438 C 4.101562 8.773438 2.964844 7.636719 2.964844 6.238281 C 2.964844 4.835938 4.101562 3.703125 5.5 3.703125 C 6.898438 3.703125 8.035156 4.835938 8.035156 6.238281 C 8.035156 7.636719 6.898438 8.773438 5.5 8.773438 Z M 5.5 8.773438 "/>
<path fill-rule="nonzero" fill="rgb(30%,30%,30%)" fill-opacity="1" d="M 6.957031 5.828125 L 5.90625 5.828125 L 5.90625 4.78125 C 5.90625 4.75 5.882812 4.726562 5.851562 4.726562 L 5.148438 4.726562 C 5.117188 4.726562 5.09375 4.75 5.09375 4.78125 L 5.09375 5.828125 L 4.042969 5.828125 C 4.011719 5.828125 3.988281 5.855469 3.988281 5.886719 L 3.988281 6.589844 C 3.988281 6.621094 4.011719 6.644531 4.042969 6.644531 L 5.09375 6.644531 L 5.09375 7.695312 C 5.09375 7.710938 5.097656 7.722656 5.109375 7.734375 C 5.117188 7.746094 5.132812 7.75 5.148438 7.75 L 5.851562 7.75 C 5.867188 7.75 5.882812 7.746094 5.890625 7.734375 C 5.902344 7.722656 5.90625 7.710938 5.90625 7.695312 L 5.90625 6.644531 L 6.957031 6.644531 C 6.972656 6.644531 6.984375 6.640625 6.996094 6.628906 C 7.007812 6.617188 7.011719 6.605469 7.011719 6.589844 L 7.011719 5.886719 C 7.011719 5.855469 6.988281 5.828125 6.957031 5.828125 Z M 6.957031 5.828125 "/>
</svg>
