<?xml version="1.0" encoding="UTF-8" standalone="no"?>
<!-- Created with Inkscape (http://www.inkscape.org/) -->

<svg
   xmlns:dc="http://purl.org/dc/elements/1.1/"
   xmlns:cc="http://creativecommons.org/ns#"
   xmlns:rdf="http://www.w3.org/1999/02/22-rdf-syntax-ns#"
   xmlns:svg="http://www.w3.org/2000/svg"
   xmlns="http://www.w3.org/2000/svg"
   xmlns:xlink="http://www.w3.org/1999/xlink"
   xmlns:sodipodi="http://sodipodi.sourceforge.net/DTD/sodipodi-0.dtd"
   xmlns:inkscape="http://www.inkscape.org/namespaces/inkscape"
   width="30px"
   height="30px"
   version="1.1"
   id="svg8"
   inkscape:version="0.92.4 5da689c313, 2019-01-14"
   sodipodi:docname="container.svg">
  <defs
     id="defs2" />
  <sodipodi:namedview
     id="base"
     pagecolor="#ffffff"
     bordercolor="#666666"
     borderopacity="1.0"
     inkscape:pageopacity="0.0"
     inkscape:pageshadow="2"
     inkscape:zoom="13.049334"
     inkscape:cx="18.679046"
     inkscape:cy="12.165829"
     inkscape:document-units="px"
     inkscape:current-layer="layer1"
     showgrid="false"
     inkscape:snap-page="false"
     units="px"
     inkscape:window-width="1884"
     inkscape:window-height="1061"
     inkscape:window-x="0"
     inkscape:window-y="0"
     inkscape:window-maximized="1"
     fit-margin-top="0"
     fit-margin-left="0"
     fit-margin-right="0"
     fit-margin-bottom="0" />
  <metadata
     id="metadata5">
    <rdf:RDF>
      <cc:Work
         rdf:about="">
        <dc:format>image/svg+xml</dc:format>
        <dc:type
           rdf:resource="http://purl.org/dc/dcmitype/StillImage" />
        <dc:title></dc:title>
      </cc:Work>
    </rdf:RDF>
  </metadata>
    <circle
       style="color:#000000;clip-rule:nonzero;display:inline;overflow:visible;visibility:visible;opacity:1;isolation:auto;mix-blend-mode:normal;color-interpolation:sRGB;color-interpolation-filters:linearRGB;solid-color:#000000;solid-opacity:1;vector-effect:none;fill:#ffffff;fill-opacity:1;fill-rule:evenodd;stroke:#e42224;stroke-width:1;stroke-linecap:butt;stroke-linejoin:miter;stroke-miterlimit:4;stroke-dasharray:none;stroke-dashoffset:0;stroke-opacity:1;marker:none;color-rendering:auto;image-rendering:auto;shape-rendering:auto;text-rendering:auto;enable-background:accumulate"
       id="path815"
       cx="15"
       cy="15"
       r="14.5" />
<g transform="translate(7.5,6.5)"><path fill-rule="nonzero" fill="rgb(30%,30%,30%)" fill-opacity="1" d="M 8.578125 5.613281 L 12.371094 1.820312 C 12.351562 1.6875 12.351562 1.554688 12.371094 1.421875 C 12.371094 0.636719 13.007812 0 13.792969 0 C 14.582031 0 15.21875 0.636719 15.21875 1.421875 C 15.21875 2.207031 14.582031 2.847656 13.796875 2.847656 L 13.585938 2.847656 L 11.421875 5.617188 L 8.578125 5.617188 M 15.179688 9.085938 L 13.601562 12.257812 L 15.179688 15.425781 L 15.179688 17 L 0 17 L 0 15.425781 L 1.59375 12.253906 L 0.125 9.339844 C 0.0429688 9.175781 0 8.988281 0 8.804688 L 0 7.511719 L 15.179688 7.511719 L 15.179688 9.085938 M 11.421875 11.304688 L 8.578125 11.304688 L 8.578125 8.460938 L 6.679688 8.460938 L 6.679688 11.304688 L 3.835938 11.304688 L 3.835938 13.203125 L 6.679688 13.203125 L 6.679688 16.046875 L 8.578125 16.046875 L 8.578125 13.203125 L 11.421875 13.203125 L 11.421875 11.304688 "/>
</g>
</svg>
