<?xml version="1.0" encoding="UTF-8"?>
<svg xmlns="http://www.w3.org/2000/svg" xmlns:xlink="http://www.w3.org/1999/xlink" width="8.190296" height="11" viewBox="0 0 8.190296 11">
<path fill-rule="nonzero" fill="rgb(30%,30%,30%)" fill-opacity="1" d="M 2.875 7.953125 C 2.640625 7.953125 2.453125 7.765625 2.449219 7.535156 C 2.449219 7.300781 2.644531 7.105469 2.882812 7.105469 L 3.828125 7.105469 L 3.828125 6.371094 L 2.882812 6.371094 C 2.644531 6.371094 2.449219 6.179688 2.449219 5.945312 C 2.453125 5.714844 2.640625 5.527344 2.875 5.527344 L 3.828125 5.527344 L 3.828125 3.183594 C 3.097656 3.035156 2.539062 2.386719 2.539062 1.613281 L 2.539062 0 L 1.402344 0 L 1.402344 3.570312 C 1.402344 4.230469 0.859375 4.769531 0.199219 4.769531 C 0.132812 4.769531 0.0664062 4.761719 0 4.75 L 0 10.21875 C 0 10.648438 0.351562 11 0.78125 11 L 3.828125 11 L 3.828125 7.953125 Z M 2.875 7.953125 "/>
<path fill-rule="nonzero" fill="rgb(30%,30%,30%)" fill-opacity="1" d="M 5.316406 7.953125 C 5.546875 7.953125 5.734375 7.765625 5.738281 7.535156 C 5.742188 7.300781 5.542969 7.105469 5.308594 7.105469 L 4.359375 7.105469 L 4.359375 6.371094 L 5.308594 6.371094 C 5.542969 6.371094 5.742188 6.179688 5.738281 5.945312 C 5.734375 5.714844 5.546875 5.527344 5.316406 5.527344 L 4.359375 5.527344 L 4.359375 3.183594 C 5.09375 3.035156 5.652344 2.386719 5.652344 1.613281 L 5.652344 0 L 6.789062 0 L 6.789062 3.570312 C 6.789062 4.230469 7.328125 4.769531 7.988281 4.769531 C 8.058594 4.769531 8.125 4.761719 8.191406 4.75 L 8.191406 10.21875 C 8.191406 10.648438 7.839844 11 7.40625 11 L 4.359375 11 L 4.359375 7.953125 Z M 5.316406 7.953125 "/>
</svg>
