<?xml version="1.0" encoding="UTF-8"?>
<svg xmlns="http://www.w3.org/2000/svg" xmlns:xlink="http://www.w3.org/1999/xlink" width="11" height="10.993524" viewBox="0 0 11 10.993524">
<path fill-rule="nonzero" fill="rgb(30%,30%,30%)" fill-opacity="1" d="M 0 0.882812 L 0.3125 6.0625 C 0.3125 6.550781 0.664062 6.945312 1.09375 6.945312 L 4.320312 6.945312 L 5.5 10.992188 L 6.679688 6.945312 L 9.90625 6.945312 C 10.335938 6.945312 10.6875 6.550781 10.6875 6.0625 L 11 0.882812 C 11 0.394531 10.648438 0 10.21875 0 L 0.78125 0 C 0.351562 0 0 0.394531 0 0.882812 Z M 3.269531 2.867188 L 4.824219 2.867188 L 4.824219 1.328125 L 6.175781 1.328125 L 6.175781 2.867188 L 7.730469 2.867188 L 7.730469 4.207031 L 6.175781 4.207031 L 6.175781 5.746094 L 4.824219 5.746094 L 4.824219 4.207031 L 3.269531 4.207031 Z M 3.269531 2.867188 "/>
</svg>
