<?xml version="1.0" encoding="UTF-8" standalone="no"?>
<!-- Created with Inkscape (http://www.inkscape.org/) -->

<svg
   xmlns:dc="http://purl.org/dc/elements/1.1/"
   xmlns:cc="http://creativecommons.org/ns#"
   xmlns:rdf="http://www.w3.org/1999/02/22-rdf-syntax-ns#"
   xmlns:svg="http://www.w3.org/2000/svg"
   xmlns="http://www.w3.org/2000/svg"
   xmlns:xlink="http://www.w3.org/1999/xlink"
   xmlns:sodipodi="http://sodipodi.sourceforge.net/DTD/sodipodi-0.dtd"
   xmlns:inkscape="http://www.inkscape.org/namespaces/inkscape"
   width="30px"
   height="30px"
   version="1.1"
   id="svg8"
   inkscape:version="0.92.4 5da689c313, 2019-01-14"
   sodipodi:docname="container.svg">
  <defs
     id="defs2" />
  <sodipodi:namedview
     id="base"
     pagecolor="#ffffff"
     bordercolor="#666666"
     borderopacity="1.0"
     inkscape:pageopacity="0.0"
     inkscape:pageshadow="2"
     inkscape:zoom="13.049334"
     inkscape:cx="18.679046"
     inkscape:cy="12.165829"
     inkscape:document-units="px"
     inkscape:current-layer="layer1"
     showgrid="false"
     inkscape:snap-page="false"
     units="px"
     inkscape:window-width="1884"
     inkscape:window-height="1061"
     inkscape:window-x="0"
     inkscape:window-y="0"
     inkscape:window-maximized="1"
     fit-margin-top="0"
     fit-margin-left="0"
     fit-margin-right="0"
     fit-margin-bottom="0" />
  <metadata
     id="metadata5">
    <rdf:RDF>
      <cc:Work
         rdf:about="">
        <dc:format>image/svg+xml</dc:format>
        <dc:type
           rdf:resource="http://purl.org/dc/dcmitype/StillImage" />
        <dc:title></dc:title>
      </cc:Work>
    </rdf:RDF>
  </metadata>
    <circle
       style="color:#000000;clip-rule:nonzero;display:inline;overflow:visible;visibility:visible;opacity:1;isolation:auto;mix-blend-mode:normal;color-interpolation:sRGB;color-interpolation-filters:linearRGB;solid-color:#000000;solid-opacity:1;vector-effect:none;fill:#e42224;fill-opacity:1;fill-rule:evenodd;stroke:#ffffff;stroke-width:1;stroke-linecap:butt;stroke-linejoin:miter;stroke-miterlimit:4;stroke-dasharray:none;stroke-dashoffset:0;stroke-opacity:1;marker:none;color-rendering:auto;image-rendering:auto;shape-rendering:auto;text-rendering:auto;enable-background:accumulate"
       id="path815"
       cx="15"
       cy="15"
       r="14.5" />
<g transform="translate(6.5,7.0)"><path fill-rule="nonzero" fill="#FFFFFF" fill-opacity="1" d="M 5.515625 8.625 C 5.863281 9.332031 5.742188 10.101562 5.246094 10.347656 C 4.75 10.589844 4.066406 10.214844 3.71875 9.503906 C 3.371094 8.796875 3.492188 8.023438 3.988281 7.78125 C 4.484375 7.539062 5.167969 7.914062 5.515625 8.625 Z M 5.515625 8.625 "/>
<path fill-rule="nonzero" fill="#FFFFFF" fill-opacity="1" d="M 12.929688 7.738281 C 13.445312 7.929688 13.636719 8.6875 13.359375 9.425781 C 13.082031 10.164062 12.4375 10.605469 11.921875 10.410156 C 11.40625 10.214844 11.210938 9.457031 11.492188 8.71875 C 11.769531 7.980469 12.414062 7.542969 12.929688 7.738281 Z M 12.929688 7.738281 "/>
<path fill-rule="nonzero" fill="#FFFFFF" fill-opacity="1" d="M 10.476562 5.804688 C 11.074219 5.925781 11.421875 6.703125 11.25 7.539062 C 11.082031 8.375 10.460938 8.953125 9.863281 8.832031 C 9.265625 8.710938 8.921875 7.9375 9.089844 7.101562 C 9.261719 6.265625 9.882812 5.683594 10.476562 5.804688 Z M 10.476562 5.804688 "/>
<path fill-rule="nonzero" fill="#FFFFFF" fill-opacity="1" d="M 7.972656 7.152344 C 8.132812 8 7.785156 8.777344 7.195312 8.886719 C 6.605469 8.996094 6 8.402344 5.839844 7.554688 C 5.679688 6.707031 6.027344 5.933594 6.617188 5.820312 C 7.207031 5.710938 7.8125 6.304688 7.972656 7.152344 Z M 7.972656 7.152344 "/>
<path fill-rule="nonzero" fill="#FFFFFF" fill-opacity="1" d="M 8.484375 15.777344 C 6.667969 15.777344 5.199219 14.304688 5.199219 12.492188 C 5.199219 10.675781 6.667969 9.207031 8.484375 9.207031 C 10.296875 9.207031 11.765625 10.675781 11.765625 12.492188 C 11.765625 14.304688 10.296875 15.777344 8.484375 15.777344 Z M 8.484375 15.777344 "/>
<path fill-rule="nonzero" fill="#FFFFFF" fill-opacity="1" d="M 16.878906 7.566406 C 16.960938 7.492188 17.003906 7.386719 17 7.28125 C 16.996094 7.171875 16.945312 7.070312 16.863281 7 L 8.742188 0.109375 C 8.566406 -0.0390625 8.28125 -0.0351562 8.109375 0.121094 L 0.128906 7.328125 C 0.046875 7.398438 0 7.5 0 7.609375 C 0 7.71875 0.046875 7.820312 0.128906 7.890625 L 0.515625 8.242188 C 0.6875 8.394531 0.96875 8.394531 1.144531 8.242188 L 8.148438 1.925781 C 8.320312 1.769531 8.605469 1.765625 8.78125 1.917969 L 15.878906 7.941406 C 16.058594 8.089844 16.339844 8.082031 16.507812 7.921875 Z M 16.878906 7.566406 "/>
</g>
</svg>
