<?xml version="1.0" encoding="UTF-8"?>
<svg xmlns="http://www.w3.org/2000/svg" xmlns:xlink="http://www.w3.org/1999/xlink" width="9.846491" height="11" viewBox="0 0 9.846491 11">
<path fill-rule="nonzero" fill="rgb(30%,30%,30%)" fill-opacity="1" d="M 5.550781 3.632812 L 8.003906 1.179688 C 7.992188 1.09375 7.992188 1.003906 8.003906 0.921875 C 8.003906 0.410156 8.417969 0 8.925781 0 C 9.433594 0 9.847656 0.414062 9.847656 0.921875 C 9.847656 1.429688 9.433594 1.839844 8.925781 1.84375 L 8.789062 1.84375 L 7.390625 3.636719 L 5.550781 3.636719 M 9.820312 5.878906 L 8.800781 7.929688 L 9.820312 9.980469 L 9.820312 11 L 0 11 L 0 9.980469 L 1.03125 7.929688 L 0.0820312 6.042969 C 0.0273438 5.9375 0 5.816406 0 5.695312 L 0 4.859375 L 9.820312 4.859375 L 9.820312 5.878906 M 7.390625 7.316406 L 5.550781 7.316406 L 5.550781 5.472656 L 4.320312 5.472656 L 4.320312 7.316406 L 2.480469 7.316406 L 2.480469 8.542969 L 4.320312 8.542969 L 4.320312 10.382812 L 5.550781 10.382812 L 5.550781 8.542969 L 7.390625 8.542969 L 7.390625 7.316406 "/>
</svg>
