<?xml version="1.0" encoding="UTF-8" standalone="no"?>
<!-- Created with Inkscape (http://www.inkscape.org/) -->

<svg
   xmlns:dc="http://purl.org/dc/elements/1.1/"
   xmlns:cc="http://creativecommons.org/ns#"
   xmlns:rdf="http://www.w3.org/1999/02/22-rdf-syntax-ns#"
   xmlns:svg="http://www.w3.org/2000/svg"
   xmlns="http://www.w3.org/2000/svg"
   xmlns:xlink="http://www.w3.org/1999/xlink"
   xmlns:sodipodi="http://sodipodi.sourceforge.net/DTD/sodipodi-0.dtd"
   xmlns:inkscape="http://www.inkscape.org/namespaces/inkscape"
   width="30px"
   height="30px"
   version="1.1"
   id="svg8"
   inkscape:version="0.92.4 5da689c313, 2019-01-14"
   sodipodi:docname="container.svg">
  <defs
     id="defs2" />
  <sodipodi:namedview
     id="base"
     pagecolor="#ffffff"
     bordercolor="#666666"
     borderopacity="1.0"
     inkscape:pageopacity="0.0"
     inkscape:pageshadow="2"
     inkscape:zoom="13.049334"
     inkscape:cx="18.679046"
     inkscape:cy="12.165829"
     inkscape:document-units="px"
     inkscape:current-layer="layer1"
     showgrid="false"
     inkscape:snap-page="false"
     units="px"
     inkscape:window-width="1884"
     inkscape:window-height="1061"
     inkscape:window-x="0"
     inkscape:window-y="0"
     inkscape:window-maximized="1"
     fit-margin-top="0"
     fit-margin-left="0"
     fit-margin-right="0"
     fit-margin-bottom="0" />
  <metadata
     id="metadata5">
    <rdf:RDF>
      <cc:Work
         rdf:about="">
        <dc:format>image/svg+xml</dc:format>
        <dc:type
           rdf:resource="http://purl.org/dc/dcmitype/StillImage" />
        <dc:title></dc:title>
      </cc:Work>
    </rdf:RDF>
  </metadata>
    <circle
       style="color:#000000;clip-rule:nonzero;display:inline;overflow:visible;visibility:visible;opacity:1;isolation:auto;mix-blend-mode:normal;color-interpolation:sRGB;color-interpolation-filters:linearRGB;solid-color:#000000;solid-opacity:1;vector-effect:none;fill:#ffffff;fill-opacity:1;fill-rule:evenodd;stroke:#e42224;stroke-width:1;stroke-linecap:butt;stroke-linejoin:miter;stroke-miterlimit:4;stroke-dasharray:none;stroke-dashoffset:0;stroke-opacity:1;marker:none;color-rendering:auto;image-rendering:auto;shape-rendering:auto;text-rendering:auto;enable-background:accumulate"
       id="path815"
       cx="15"
       cy="15"
       r="14.5" />
<g transform="translate(6.5,7.0)"><path fill-rule="nonzero" fill="rgb(30%,30%,30%)" fill-opacity="1" d="M 4.65625 0.0351562 C 4.5 0.0117188 4.335938 0.0195312 4.179688 0.0195312 L 2.234375 0.0195312 C 1.792969 0.0195312 1.316406 -0.03125 0.878906 0.0351562 C 0.363281 0.113281 0.0273438 0.550781 0 1.054688 C -0.0195312 1.503906 0.277344 1.847656 0.65625 2.003906 C 0.621094 2.90625 0.664062 5.9375 0.664062 6.839844 L 0.664062 14.1875 C 0.664062 14.714844 0.683594 15.203125 1.023438 15.648438 C 1.710938 16.542969 3.1875 16.6875 4.097656 16.050781 C 4.679688 15.640625 4.875 15.027344 4.875 14.351562 L 4.875 2.925781 C 4.875 2.621094 4.882812 2.3125 4.878906 2.007812 C 5.230469 1.863281 5.472656 1.5625 5.523438 1.15625 C 5.535156 1.125 5.535156 1.089844 5.535156 1.054688 C 5.535156 1.019531 5.535156 0.984375 5.523438 0.949219 C 5.460938 0.488281 5.136719 0.109375 4.65625 0.0351562 Z M 4.542969 1.441406 C 4.375 1.460938 4.207031 1.574219 4.21875 1.765625 C 4.273438 2.746094 4.222656 5.859375 4.222656 6.839844 L 4.222656 14.1875 C 4.222656 14.683594 4.210938 15.148438 3.769531 15.488281 C 2.957031 16.109375 1.34375 15.765625 1.3125 14.59375 C 1.304688 14.316406 1.3125 14.03125 1.3125 13.75 L 1.3125 2.234375 C 1.3125 2.078125 1.308594 1.921875 1.316406 1.765625 C 1.328125 1.574219 1.160156 1.460938 0.992188 1.441406 C 0.65625 1.402344 0.53125 0.949219 0.804688 0.746094 C 0.921875 0.660156 1.050781 0.671875 1.1875 0.671875 L 4.035156 0.671875 C 4.359375 0.671875 4.859375 0.59375 4.882812 1.054688 C 4.875 1.25 4.742188 1.417969 4.542969 1.441406 Z M 4.542969 1.441406 "/>
<path fill-rule="nonzero" fill="rgb(30%,30%,30%)" fill-opacity="1" d="M 1.691406 14.488281 C 1.691406 14.925781 2.113281 15.285156 2.632812 15.285156 L 2.90625 15.285156 C 3.421875 15.285156 3.84375 14.925781 3.84375 14.488281 L 3.84375 5.867188 L 1.691406 5.867188 Z M 1.691406 14.488281 "/>
<path fill-rule="nonzero" fill="rgb(30%,30%,30%)" fill-opacity="1" d="M 10.390625 0.0351562 C 10.230469 0.0117188 10.070312 0.0195312 9.910156 0.0195312 L 7.96875 0.0195312 C 7.527344 0.0195312 7.050781 -0.03125 6.613281 0.0351562 C 6.09375 0.113281 5.757812 0.550781 5.734375 1.054688 C 5.710938 1.503906 6.007812 1.847656 6.390625 2.003906 C 6.355469 2.90625 6.394531 5.9375 6.394531 6.839844 L 6.394531 14.1875 C 6.394531 14.714844 6.417969 15.203125 6.757812 15.648438 C 7.441406 16.542969 8.921875 16.6875 9.828125 16.050781 C 10.410156 15.640625 10.605469 15.027344 10.605469 14.351562 L 10.605469 2.925781 C 10.605469 2.621094 10.617188 2.3125 10.609375 2.007812 C 10.964844 1.863281 11.203125 1.5625 11.257812 1.15625 C 11.265625 1.125 11.269531 1.089844 11.265625 1.054688 C 11.269531 1.019531 11.265625 0.984375 11.257812 0.949219 C 11.191406 0.488281 10.867188 0.109375 10.390625 0.0351562 Z M 10.277344 1.441406 C 10.109375 1.460938 9.941406 1.574219 9.949219 1.765625 C 10.003906 2.746094 9.953125 5.859375 9.953125 6.839844 L 9.953125 14.1875 C 9.953125 14.683594 9.945312 15.148438 9.5 15.488281 C 8.691406 16.109375 7.074219 15.765625 7.046875 14.59375 C 7.039062 14.316406 7.046875 14.03125 7.046875 13.75 L 7.046875 2.234375 C 7.046875 2.078125 7.042969 1.921875 7.050781 1.765625 C 7.0625 1.574219 6.894531 1.460938 6.726562 1.441406 C 6.386719 1.402344 6.265625 0.949219 6.539062 0.746094 C 6.652344 0.660156 6.785156 0.671875 6.917969 0.671875 L 9.769531 0.671875 C 10.089844 0.671875 10.59375 0.59375 10.617188 1.054688 C 10.605469 1.25 10.476562 1.417969 10.277344 1.441406 Z M 10.277344 1.441406 "/>
<path fill-rule="nonzero" fill="rgb(30%,30%,30%)" fill-opacity="1" d="M 7.425781 14.488281 C 7.425781 14.925781 7.847656 15.285156 8.363281 15.285156 L 8.636719 15.285156 C 9.15625 15.285156 9.574219 14.925781 9.574219 14.488281 L 9.574219 5.867188 L 7.425781 5.867188 Z M 7.425781 14.488281 "/>
<path fill-rule="nonzero" fill="rgb(30%,30%,30%)" fill-opacity="1" d="M 16.121094 0.0351562 C 15.964844 0.0117188 15.800781 0.0195312 15.644531 0.0195312 L 13.699219 0.0195312 C 13.257812 0.0195312 12.78125 -0.03125 12.34375 0.0351562 C 11.828125 0.113281 11.492188 0.550781 11.464844 1.054688 C 11.445312 1.503906 11.742188 1.847656 12.121094 2.003906 C 12.085938 2.90625 12.128906 5.9375 12.128906 6.839844 L 12.128906 14.1875 C 12.128906 14.714844 12.148438 15.203125 12.488281 15.648438 C 13.175781 16.542969 14.652344 16.6875 15.5625 16.050781 C 16.144531 15.640625 16.339844 15.027344 16.339844 14.351562 L 16.339844 2.925781 C 16.339844 2.621094 16.347656 2.3125 16.34375 2.007812 C 16.695312 1.863281 16.9375 1.5625 16.988281 1.15625 C 17 1.125 17 1.089844 17 1.054688 C 17 1.019531 17 0.984375 16.988281 0.949219 C 16.925781 0.488281 16.601562 0.109375 16.121094 0.0351562 Z M 16.007812 1.441406 C 15.839844 1.460938 15.671875 1.574219 15.683594 1.765625 C 15.738281 2.746094 15.6875 5.859375 15.6875 6.839844 L 15.6875 14.1875 C 15.6875 14.683594 15.675781 15.148438 15.234375 15.488281 C 14.421875 16.109375 12.808594 15.765625 12.777344 14.59375 C 12.769531 14.316406 12.777344 14.03125 12.777344 13.75 L 12.777344 2.234375 C 12.777344 2.078125 12.773438 1.921875 12.78125 1.765625 C 12.792969 1.574219 12.625 1.460938 12.457031 1.441406 C 12.121094 1.402344 11.996094 0.949219 12.269531 0.746094 C 12.386719 0.660156 12.515625 0.671875 12.652344 0.671875 L 15.5 0.671875 C 15.824219 0.671875 16.324219 0.59375 16.347656 1.054688 C 16.339844 1.25 16.207031 1.417969 16.007812 1.441406 Z M 16.007812 1.441406 "/>
<path fill-rule="nonzero" fill="rgb(30%,30%,30%)" fill-opacity="1" d="M 13.15625 14.488281 C 13.15625 14.925781 13.578125 15.285156 14.097656 15.285156 L 14.371094 15.285156 C 14.886719 15.285156 15.308594 14.925781 15.308594 14.488281 L 15.308594 5.867188 L 13.15625 5.867188 Z M 13.15625 14.488281 "/>
</g>
</svg>
