<?xml version="1.0" encoding="UTF-8"?>
<svg xmlns="http://www.w3.org/2000/svg" xmlns:xlink="http://www.w3.org/1999/xlink" width="11" height="9.698775" viewBox="0 0 11 9.698775">
<path fill-rule="nonzero" fill="rgb(30%,30%,30%)" fill-opacity="1" d="M 5.667969 0.0664062 C 5.566406 -0.0234375 5.402344 -0.0234375 5.300781 0.0664062 L 0.0625 4.632812 C -0.0390625 4.722656 -0.0117188 4.792969 0.121094 4.792969 L 1.328125 4.792969 C 1.460938 4.792969 1.570312 4.902344 1.570312 5.035156 L 1.570312 9.457031 C 1.570312 9.589844 1.679688 9.699219 1.8125 9.699219 L 9.148438 9.699219 C 9.285156 9.699219 9.394531 9.589844 9.394531 9.457031 L 9.394531 5.035156 C 9.394531 4.902344 9.503906 4.792969 9.636719 4.792969 L 10.878906 4.792969 C 11.011719 4.792969 11.039062 4.722656 10.9375 4.632812 Z M 8.125 6.457031 C 8.125 6.589844 8.015625 6.699219 7.882812 6.699219 L 6.511719 6.699219 C 6.378906 6.699219 6.269531 6.808594 6.269531 6.945312 L 6.269531 8.316406 C 6.269531 8.449219 6.160156 8.558594 6.023438 8.558594 L 4.917969 8.558594 C 4.78125 8.558594 4.675781 8.449219 4.671875 8.316406 L 4.671875 6.945312 C 4.671875 6.808594 4.566406 6.699219 4.429688 6.699219 L 3.058594 6.699219 C 2.925781 6.699219 2.816406 6.589844 2.816406 6.457031 L 2.816406 5.347656 C 2.816406 5.214844 2.925781 5.105469 3.058594 5.105469 L 4.429688 5.105469 C 4.566406 5.105469 4.671875 4.996094 4.671875 4.863281 L 4.671875 3.492188 C 4.675781 3.359375 4.78125 3.25 4.917969 3.25 L 6.023438 3.25 C 6.160156 3.25 6.269531 3.359375 6.269531 3.492188 L 6.269531 4.863281 C 6.269531 4.996094 6.378906 5.105469 6.511719 5.105469 L 7.882812 5.105469 C 8.015625 5.105469 8.125 5.214844 8.125 5.347656 Z M 8.125 6.457031 "/>
</svg>
