<?xml version="1.0" encoding="UTF-8" standalone="no"?>
<!-- Created with Inkscape (http://www.inkscape.org/) -->

<svg
   xmlns:dc="http://purl.org/dc/elements/1.1/"
   xmlns:cc="http://creativecommons.org/ns#"
   xmlns:rdf="http://www.w3.org/1999/02/22-rdf-syntax-ns#"
   xmlns:svg="http://www.w3.org/2000/svg"
   xmlns="http://www.w3.org/2000/svg"
   xmlns:xlink="http://www.w3.org/1999/xlink"
   xmlns:sodipodi="http://sodipodi.sourceforge.net/DTD/sodipodi-0.dtd"
   xmlns:inkscape="http://www.inkscape.org/namespaces/inkscape"
   width="30px"
   height="30px"
   version="1.1"
   id="svg8"
   inkscape:version="0.92.4 5da689c313, 2019-01-14"
   sodipodi:docname="container.svg">
  <defs
     id="defs2" />
  <sodipodi:namedview
     id="base"
     pagecolor="#ffffff"
     bordercolor="#666666"
     borderopacity="1.0"
     inkscape:pageopacity="0.0"
     inkscape:pageshadow="2"
     inkscape:zoom="13.049334"
     inkscape:cx="18.679046"
     inkscape:cy="12.165829"
     inkscape:document-units="px"
     inkscape:current-layer="layer1"
     showgrid="false"
     inkscape:snap-page="false"
     units="px"
     inkscape:window-width="1884"
     inkscape:window-height="1061"
     inkscape:window-x="0"
     inkscape:window-y="0"
     inkscape:window-maximized="1"
     fit-margin-top="0"
     fit-margin-left="0"
     fit-margin-right="0"
     fit-margin-bottom="0" />
  <metadata
     id="metadata5">
    <rdf:RDF>
      <cc:Work
         rdf:about="">
        <dc:format>image/svg+xml</dc:format>
        <dc:type
           rdf:resource="http://purl.org/dc/dcmitype/StillImage" />
        <dc:title></dc:title>
      </cc:Work>
    </rdf:RDF>
  </metadata>
    <circle
       style="color:#000000;clip-rule:nonzero;display:inline;overflow:visible;visibility:visible;opacity:1;isolation:auto;mix-blend-mode:normal;color-interpolation:sRGB;color-interpolation-filters:linearRGB;solid-color:#000000;solid-opacity:1;vector-effect:none;fill:#ffffff;fill-opacity:1;fill-rule:evenodd;stroke:#e42224;stroke-width:1;stroke-linecap:butt;stroke-linejoin:miter;stroke-miterlimit:4;stroke-dasharray:none;stroke-dashoffset:0;stroke-opacity:1;marker:none;color-rendering:auto;image-rendering:auto;shape-rendering:auto;text-rendering:auto;enable-background:accumulate"
       id="path815"
       cx="15"
       cy="15"
       r="14.5" />
<g transform="translate(6.5,7.0)"><path fill-rule="nonzero" fill="rgb(30%,30%,30%)" fill-opacity="1" d="M 9.757812 0 L 7.242188 0 C 5.902344 0 4.820312 1.085938 4.816406 2.425781 L 4.816406 2.761719 L 6.179688 2.761719 L 6.179688 2.425781 C 6.179688 1.839844 6.65625 1.363281 7.242188 1.363281 L 9.757812 1.363281 C 10.34375 1.363281 10.820312 1.839844 10.820312 2.425781 L 10.820312 2.761719 L 12.183594 2.761719 L 12.183594 2.425781 C 12.179688 1.085938 11.097656 0 9.757812 0 Z M 9.757812 0 "/>
<path fill-rule="nonzero" fill="rgb(30%,30%,30%)" fill-opacity="1" d="M 14.664062 3.152344 L 2.335938 3.152344 C 1.046875 3.152344 0 4.195312 0 5.488281 L 0 13.792969 C 0 15.082031 1.046875 16.128906 2.335938 16.128906 L 14.664062 16.128906 C 15.953125 16.128906 17 15.082031 17 13.792969 L 17 5.488281 C 17 4.195312 15.953125 3.152344 14.664062 3.152344 Z M 8.5 13.558594 C 6.335938 13.558594 4.582031 11.804688 4.582031 9.640625 C 4.582031 7.476562 6.335938 5.722656 8.5 5.722656 C 10.664062 5.722656 12.417969 7.476562 12.417969 9.640625 C 12.417969 11.804688 10.664062 13.558594 8.5 13.558594 Z M 8.5 13.558594 "/>
<path fill-rule="nonzero" fill="rgb(30%,30%,30%)" fill-opacity="1" d="M 10.753906 9.011719 L 9.128906 9.011719 L 9.128906 7.386719 C 9.128906 7.339844 9.089844 7.300781 9.042969 7.300781 L 7.957031 7.300781 C 7.910156 7.300781 7.871094 7.339844 7.871094 7.386719 L 7.871094 9.011719 L 6.246094 9.011719 C 6.199219 9.011719 6.160156 9.046875 6.160156 9.09375 L 6.160156 10.183594 C 6.160156 10.230469 6.199219 10.269531 6.246094 10.269531 L 7.871094 10.269531 L 7.871094 11.894531 C 7.871094 11.914062 7.878906 11.9375 7.894531 11.953125 C 7.910156 11.96875 7.933594 11.976562 7.957031 11.976562 L 9.042969 11.976562 C 9.066406 11.976562 9.089844 11.96875 9.105469 11.953125 C 9.121094 11.9375 9.128906 11.914062 9.128906 11.894531 L 9.128906 10.269531 L 10.753906 10.269531 C 10.773438 10.269531 10.796875 10.261719 10.8125 10.246094 C 10.828125 10.230469 10.839844 10.207031 10.839844 10.183594 L 10.839844 9.09375 C 10.839844 9.046875 10.800781 9.011719 10.753906 9.011719 Z M 10.753906 9.011719 "/>
</g>
</svg>
