<?xml version="1.0" encoding="UTF-8"?>
<svg xmlns="http://www.w3.org/2000/svg" xmlns:xlink="http://www.w3.org/1999/xlink" width="7.888801" height="11" viewBox="0 0 7.888801 11">
<path fill-rule="nonzero" fill="rgb(30%,30%,30%)" fill-opacity="1" d="M 1.257812 5.464844 C 0.566406 5.464844 0 6.03125 0 6.726562 L 0 11 L 1.261719 11 L 5.585938 5.464844 Z M 1.257812 5.464844 "/>
<path fill-rule="nonzero" fill="rgb(30%,30%,30%)" fill-opacity="1" d="M 7.890625 6.726562 C 7.890625 6.070312 7.382812 5.527344 6.742188 5.472656 L 2.410156 11 L 7.890625 11 Z M 7.890625 6.726562 "/>
<path fill-rule="nonzero" fill="rgb(30%,30%,30%)" fill-opacity="1" d="M 6.394531 0.769531 L 5.671875 0 L 2.34375 0 L 1.523438 0.796875 L 1.535156 1.574219 L 6.429688 1.574219 Z M 6.394531 0.769531 "/>
<path fill-rule="nonzero" fill="rgb(30%,30%,30%)" fill-opacity="1" d="M 1.546875 2.378906 C 1.546875 3.667969 2.644531 4.714844 3.996094 4.714844 C 5.332031 4.714844 6.421875 3.6875 6.441406 2.417969 L 6.441406 2.398438 C 6.441406 2.390625 6.441406 2.386719 6.441406 2.378906 L 6.441406 2.375 L 1.546875 2.375 Z M 1.546875 2.378906 "/>
</svg>
