<?xml version="1.0" encoding="UTF-8" standalone="no"?>
<!-- Created with Inkscape (http://www.inkscape.org/) -->

<svg
   xmlns:dc="http://purl.org/dc/elements/1.1/"
   xmlns:cc="http://creativecommons.org/ns#"
   xmlns:rdf="http://www.w3.org/1999/02/22-rdf-syntax-ns#"
   xmlns:svg="http://www.w3.org/2000/svg"
   xmlns="http://www.w3.org/2000/svg"
   xmlns:xlink="http://www.w3.org/1999/xlink"
   xmlns:sodipodi="http://sodipodi.sourceforge.net/DTD/sodipodi-0.dtd"
   xmlns:inkscape="http://www.inkscape.org/namespaces/inkscape"
   width="30px"
   height="30px"
   version="1.1"
   id="svg8"
   inkscape:version="0.92.4 5da689c313, 2019-01-14"
   sodipodi:docname="container.svg">
  <defs
     id="defs2" />
  <sodipodi:namedview
     id="base"
     pagecolor="#ffffff"
     bordercolor="#666666"
     borderopacity="1.0"
     inkscape:pageopacity="0.0"
     inkscape:pageshadow="2"
     inkscape:zoom="13.049334"
     inkscape:cx="18.679046"
     inkscape:cy="12.165829"
     inkscape:document-units="px"
     inkscape:current-layer="layer1"
     showgrid="false"
     inkscape:snap-page="false"
     units="px"
     inkscape:window-width="1884"
     inkscape:window-height="1061"
     inkscape:window-x="0"
     inkscape:window-y="0"
     inkscape:window-maximized="1"
     fit-margin-top="0"
     fit-margin-left="0"
     fit-margin-right="0"
     fit-margin-bottom="0" />
  <metadata
     id="metadata5">
    <rdf:RDF>
      <cc:Work
         rdf:about="">
        <dc:format>image/svg+xml</dc:format>
        <dc:type
           rdf:resource="http://purl.org/dc/dcmitype/StillImage" />
        <dc:title></dc:title>
      </cc:Work>
    </rdf:RDF>
  </metadata>
    <circle
       style="color:#000000;clip-rule:nonzero;display:inline;overflow:visible;visibility:visible;opacity:1;isolation:auto;mix-blend-mode:normal;color-interpolation:sRGB;color-interpolation-filters:linearRGB;solid-color:#000000;solid-opacity:1;vector-effect:none;fill:#e42224;fill-opacity:1;fill-rule:evenodd;stroke:#ffffff;stroke-width:1;stroke-linecap:butt;stroke-linejoin:miter;stroke-miterlimit:4;stroke-dasharray:none;stroke-dashoffset:0;stroke-opacity:1;marker:none;color-rendering:auto;image-rendering:auto;shape-rendering:auto;text-rendering:auto;enable-background:accumulate"
       id="path815"
       cx="15"
       cy="15"
       r="14.5" />
<g transform="translate(8.5,6.5)"><path fill-rule="nonzero" fill="#FFFFFF" fill-opacity="1" d="M 10.078125 0.00390625 C 7.910156 -0.078125 8.101562 0.90625 6.324219 0.933594 C 4.550781 0.90625 4.742188 -0.078125 2.570312 0.00390625 C -1.296875 0.15625 0.21875 4.933594 0.683594 6.164062 C 2.019531 9.738281 2.027344 10.625 1.980469 12.277344 C 1.828125 17 2.535156 17 3.652344 17 C 4.4375 17 4.566406 12.992188 4.636719 11.539062 C 4.75 9.175781 8.074219 9.46875 8.015625 11.539062 C 7.976562 12.992188 8.21875 17 9 17 C 10.117188 17 10.824219 17 10.675781 12.277344 C 10.621094 10.625 10.628906 9.738281 11.96875 6.164062 C 12.429688 4.933594 13.945312 0.15625 10.078125 0.00390625 Z M 8.84375 1.894531 C 8.328125 1.988281 7.851562 2.21875 7.457031 2.558594 C 7.328125 2.667969 7.207031 2.789062 7.09375 2.914062 C 7.628906 3.210938 8.121094 3.554688 8.542969 3.957031 C 8.855469 4.257812 8.382812 4.730469 8.070312 4.433594 C 6.875 3.28125 5.050781 2.683594 3.503906 2.230469 C 3.09375 2.109375 3.265625 1.464844 3.683594 1.585938 C 4.589844 1.851562 5.570312 2.167969 6.488281 2.601562 C 7.027344 1.925781 7.8125 1.40625 8.664062 1.25 C 9.085938 1.171875 9.265625 1.816406 8.84375 1.894531 Z M 8.84375 1.894531 "/>
</g>
</svg>
