<?xml version="1.0" encoding="UTF-8"?>
<svg xmlns="http://www.w3.org/2000/svg" xmlns:xlink="http://www.w3.org/1999/xlink" width="10.981454" height="11" viewBox="0 0 10.981454 11">
<path fill-rule="nonzero" fill="rgb(30%,30%,30%)" fill-opacity="1" d="M 2.199219 3.121094 C 2.582031 3.902344 2.449219 4.75 1.902344 5.019531 C 1.355469 5.289062 0.601562 4.871094 0.21875 4.09375 C -0.164062 3.3125 -0.03125 2.460938 0.515625 2.195312 C 1.0625 1.925781 1.816406 2.339844 2.199219 3.121094 Z M 2.199219 3.121094 "/>
<path fill-rule="nonzero" fill="rgb(30%,30%,30%)" fill-opacity="1" d="M 10.367188 2.144531 C 10.933594 2.359375 11.148438 3.191406 10.839844 4.003906 C 10.535156 4.816406 9.824219 5.300781 9.253906 5.085938 C 8.6875 4.871094 8.472656 4.039062 8.78125 3.226562 C 9.089844 2.414062 9.796875 1.929688 10.367188 2.144531 Z M 10.367188 2.144531 "/>
<path fill-rule="nonzero" fill="rgb(30%,30%,30%)" fill-opacity="1" d="M 7.664062 0.0195312 C 8.324219 0.152344 8.703125 1.003906 8.515625 1.925781 C 8.328125 2.847656 7.644531 3.484375 6.988281 3.351562 C 6.332031 3.21875 5.949219 2.363281 6.136719 1.441406 C 6.324219 0.523438 7.007812 -0.117188 7.664062 0.0195312 Z M 7.664062 0.0195312 "/>
<path fill-rule="nonzero" fill="rgb(30%,30%,30%)" fill-opacity="1" d="M 4.90625 1.5 C 5.082031 2.433594 4.699219 3.289062 4.050781 3.410156 C 3.398438 3.535156 2.730469 2.875 2.554688 1.945312 C 2.378906 1.011719 2.761719 0.15625 3.410156 0.0351562 C 4.0625 -0.0898438 4.730469 0.566406 4.90625 1.5 Z M 4.90625 1.5 "/>
<path fill-rule="nonzero" fill="rgb(30%,30%,30%)" fill-opacity="1" d="M 5.46875 11 C 3.46875 11 1.847656 9.378906 1.847656 7.382812 C 1.847656 5.382812 3.46875 3.761719 5.46875 3.761719 C 7.464844 3.761719 9.085938 5.382812 9.085938 7.382812 C 9.085938 9.378906 7.464844 11 5.46875 11 Z M 7.554688 6.792969 L 6.050781 6.792969 L 6.050781 5.292969 C 6.050781 5.25 6.015625 5.214844 5.972656 5.214844 L 4.96875 5.214844 C 4.925781 5.214844 4.890625 5.25 4.890625 5.292969 L 4.890625 6.792969 L 3.390625 6.792969 C 3.347656 6.792969 3.3125 6.828125 3.3125 6.875 L 3.3125 7.875 C 3.3125 7.921875 3.347656 7.957031 3.390625 7.957031 L 4.890625 7.957031 L 4.890625 9.457031 C 4.890625 9.5 4.925781 9.535156 4.96875 9.535156 L 5.972656 9.535156 C 6.015625 9.535156 6.050781 9.5 6.050781 9.457031 L 6.050781 7.957031 L 7.554688 7.957031 C 7.597656 7.957031 7.632812 7.921875 7.632812 7.875 L 7.632812 6.875 C 7.632812 6.828125 7.597656 6.792969 7.554688 6.792969 Z M 7.554688 6.792969 "/>
</svg>
