<?xml version="1.0" encoding="UTF-8"?>
<svg xmlns="http://www.w3.org/2000/svg" xmlns:xlink="http://www.w3.org/1999/xlink" width="8.185524" height="11" viewBox="0 0 8.185524 11">
<path fill-rule="nonzero" fill="rgb(30%,30%,30%)" fill-opacity="1" d="M 6.519531 0.00390625 C 5.117188 -0.0507812 5.242188 0.585938 4.09375 0.605469 C 2.945312 0.585938 3.066406 -0.0507812 1.664062 0.00390625 C -0.839844 0.101562 0.140625 3.191406 0.441406 3.988281 C 1.308594 6.300781 1.3125 6.875 1.28125 7.945312 C 1.183594 11 1.640625 11 2.363281 11 C 2.871094 11 2.953125 8.40625 3 7.464844 C 3.074219 5.9375 5.226562 6.128906 5.1875 7.464844 C 5.160156 8.40625 5.316406 11 5.824219 11 C 6.546875 11 7.003906 11 6.90625 7.945312 C 6.871094 6.875 6.878906 6.300781 7.746094 3.988281 C 8.042969 3.191406 9.023438 0.101562 6.519531 0.00390625 Z M 5.722656 1.226562 C 5.390625 1.285156 5.082031 1.433594 4.824219 1.65625 C 4.742188 1.726562 4.664062 1.804688 4.589844 1.886719 C 4.933594 2.078125 5.253906 2.300781 5.527344 2.5625 C 5.730469 2.753906 5.425781 3.0625 5.222656 2.867188 C 4.449219 2.125 3.269531 1.738281 2.269531 1.445312 C 2 1.367188 2.113281 0.949219 2.382812 1.027344 C 2.96875 1.199219 3.605469 1.402344 4.199219 1.683594 C 4.546875 1.246094 5.054688 0.910156 5.605469 0.808594 C 5.878906 0.757812 5.996094 1.175781 5.722656 1.226562 Z M 5.722656 1.226562 "/>
</svg>
