<?xml version="1.0" encoding="UTF-8"?>
<svg xmlns="http://www.w3.org/2000/svg" xmlns:xlink="http://www.w3.org/1999/xlink" width="10.96017" height="11" viewBox="0 0 10.96017 11">
<path fill-rule="nonzero" fill="rgb(30%,30%,30%)" fill-opacity="1" d="M 10.371094 3.507812 C 10.03125 2.980469 9.558594 2.554688 9.003906 2.265625 L 9.101562 2.167969 C 9.148438 2.121094 9.148438 2.042969 9.101562 1.992188 C 9.054688 1.945312 8.976562 1.945312 8.925781 1.992188 L 8.835938 2.082031 C 8.234375 0.804688 6.945312 -0.00390625 5.535156 0 C 4.125 0.00390625 2.84375 0.828125 2.253906 2.109375 L 2.140625 1.996094 C 2.09375 1.949219 2.015625 1.949219 1.96875 1.996094 C 1.917969 2.046875 1.917969 2.125 1.96875 2.171875 L 2.066406 2.273438 C 0.8125 2.871094 0.0117188 4.132812 0 5.523438 C -0.0117188 6.914062 0.773438 8.1875 2.019531 8.804688 L 1.910156 8.914062 C 1.863281 8.960938 1.863281 9.039062 1.910156 9.085938 C 1.957031 9.136719 2.035156 9.136719 2.085938 9.089844 L 2.195312 8.980469 C 2.8125 10.226562 4.085938 11.007812 5.472656 11 C 6.863281 10.992188 8.125 10.191406 8.726562 8.9375 C 8.734375 8.929688 8.738281 8.925781 8.746094 8.917969 L 8.929688 9.101562 C 8.976562 9.152344 9.054688 9.152344 9.105469 9.101562 C 9.152344 9.054688 9.152344 8.976562 9.105469 8.929688 L 8.925781 8.75 C 9.859375 8.292969 10.554688 7.457031 10.828125 6.453125 C 11.105469 5.453125 10.941406 4.378906 10.371094 3.507812 Z M 7.921875 6.753906 C 7.953125 6.695312 7.980469 6.636719 8.003906 6.578125 C 8.328125 5.808594 8.277344 4.933594 7.859375 4.210938 L 9.457031 3.507812 C 9.511719 3.613281 9.5625 3.71875 9.609375 3.828125 C 10.136719 5.078125 10.058594 6.5 9.398438 7.683594 Z M 5.554688 7.953125 C 4.21875 7.953125 3.140625 6.875 3.140625 5.539062 C 3.140625 4.207031 4.21875 3.125 5.554688 3.125 C 6.886719 3.125 7.96875 4.207031 7.96875 5.539062 C 7.96875 6.875 6.886719 7.953125 5.554688 7.953125 Z M 7.558594 9.457031 C 7.464844 9.507812 7.367188 9.554688 7.265625 9.597656 C 6.015625 10.125 4.589844 10.046875 3.40625 9.382812 L 4.21875 7.84375 C 4.941406 8.261719 5.820312 8.316406 6.589844 7.992188 C 6.660156 7.960938 6.730469 7.929688 6.796875 7.894531 Z M 1.640625 7.558594 C 1.589844 7.457031 1.542969 7.355469 1.496094 7.253906 C 1.035156 6.160156 1.035156 4.921875 1.496094 3.828125 C 1.554688 3.691406 1.617188 3.5625 1.6875 3.433594 L 3.242188 4.21875 C 2.832031 4.941406 2.777344 5.8125 3.101562 6.578125 C 3.128906 6.644531 3.160156 6.710938 3.195312 6.777344 Z M 3.488281 1.652344 C 3.601562 1.59375 3.71875 1.535156 3.839844 1.484375 C 5.082031 0.960938 6.492188 1.03125 7.675781 1.683594 L 6.777344 3.175781 C 6.714844 3.144531 6.652344 3.117188 6.589844 3.089844 C 5.832031 2.769531 4.964844 2.816406 4.246094 3.222656 Z M 3.644531 0.835938 C 4.417969 0.304688 5.382812 0.125 6.296875 0.332031 C 7.214844 0.539062 8.003906 1.117188 8.476562 1.929688 C 6.769531 0.546875 4.328125 0.546875 2.621094 1.933594 C 2.875 1.496094 3.222656 1.121094 3.644531 0.835938 Z M 0.246094 5.550781 C 0.246094 4.34375 0.890625 3.222656 1.9375 2.617188 C 0.546875 4.335938 0.5625 6.796875 1.96875 8.5 C 0.90625 7.902344 0.246094 6.773438 0.246094 5.550781 Z M 7.34375 10.171875 C 6.566406 10.699219 5.601562 10.878906 4.6875 10.667969 C 3.769531 10.453125 2.984375 9.871094 2.515625 9.058594 C 4.109375 10.4375 6.429688 10.570312 8.171875 9.382812 C 7.941406 9.691406 7.664062 9.957031 7.34375 10.171875 Z M 10.132812 7.386719 C 9.925781 7.691406 9.667969 7.960938 9.375 8.1875 C 10.535156 6.511719 10.46875 4.28125 9.214844 2.675781 C 9.960938 3.179688 10.476562 3.957031 10.648438 4.839844 C 10.824219 5.722656 10.636719 6.640625 10.132812 7.386719 Z M 10.132812 7.386719 "/>
</svg>
