<?xml version="1.0" encoding="UTF-8" standalone="no"?>
<!-- Created with Inkscape (http://www.inkscape.org/) -->

<svg
   xmlns:dc="http://purl.org/dc/elements/1.1/"
   xmlns:cc="http://creativecommons.org/ns#"
   xmlns:rdf="http://www.w3.org/1999/02/22-rdf-syntax-ns#"
   xmlns:svg="http://www.w3.org/2000/svg"
   xmlns="http://www.w3.org/2000/svg"
   xmlns:xlink="http://www.w3.org/1999/xlink"
   xmlns:sodipodi="http://sodipodi.sourceforge.net/DTD/sodipodi-0.dtd"
   xmlns:inkscape="http://www.inkscape.org/namespaces/inkscape"
   width="30px"
   height="30px"
   version="1.1"
   id="svg8"
   inkscape:version="0.92.4 5da689c313, 2019-01-14"
   sodipodi:docname="container.svg">
  <defs
     id="defs2" />
  <sodipodi:namedview
     id="base"
     pagecolor="#ffffff"
     bordercolor="#666666"
     borderopacity="1.0"
     inkscape:pageopacity="0.0"
     inkscape:pageshadow="2"
     inkscape:zoom="13.049334"
     inkscape:cx="18.679046"
     inkscape:cy="12.165829"
     inkscape:document-units="px"
     inkscape:current-layer="layer1"
     showgrid="false"
     inkscape:snap-page="false"
     units="px"
     inkscape:window-width="1884"
     inkscape:window-height="1061"
     inkscape:window-x="0"
     inkscape:window-y="0"
     inkscape:window-maximized="1"
     fit-margin-top="0"
     fit-margin-left="0"
     fit-margin-right="0"
     fit-margin-bottom="0" />
  <metadata
     id="metadata5">
    <rdf:RDF>
      <cc:Work
         rdf:about="">
        <dc:format>image/svg+xml</dc:format>
        <dc:type
           rdf:resource="http://purl.org/dc/dcmitype/StillImage" />
        <dc:title></dc:title>
      </cc:Work>
    </rdf:RDF>
  </metadata>
    <circle
       style="color:#000000;clip-rule:nonzero;display:inline;overflow:visible;visibility:visible;opacity:1;isolation:auto;mix-blend-mode:normal;color-interpolation:sRGB;color-interpolation-filters:linearRGB;solid-color:#000000;solid-opacity:1;vector-effect:none;fill:#e42224;fill-opacity:1;fill-rule:evenodd;stroke:#ffffff;stroke-width:1;stroke-linecap:butt;stroke-linejoin:miter;stroke-miterlimit:4;stroke-dasharray:none;stroke-dashoffset:0;stroke-opacity:1;marker:none;color-rendering:auto;image-rendering:auto;shape-rendering:auto;text-rendering:auto;enable-background:accumulate"
       id="path815"
       cx="15"
       cy="15"
       r="14.5" />
<g transform="translate(6.5,6.5)"><path fill-rule="nonzero" fill="#FFFFFF" fill-opacity="1" d="M 16.617188 0.0507812 C 16.507812 -0.0585938 16.257812 0.015625 16.066406 0.214844 L 12.410156 3.890625 L 12.300781 3.800781 C 12.171875 3.675781 11.933594 3.707031 11.773438 3.871094 L 11.523438 4.128906 L 11.355469 3.964844 C 11.101562 3.71875 10.8125 3.480469 10.652344 3.449219 C 10.328125 3.347656 10.167969 3.449219 9.847656 3.777344 L 3.71875 10.390625 L 3.589844 10.265625 C 3.390625 10.070312 3.070312 10.074219 2.878906 10.273438 L 2.484375 10.675781 C 2.292969 10.875 2.296875 11.191406 2.496094 11.386719 L 3.753906 12.617188 L 1.527344 14.894531 L 1.011719 14.390625 C 0.734375 14.117188 0.339844 14.074219 0.128906 14.289062 C -0.0820312 14.503906 -0.0273438 14.898438 0.25 15.167969 L 1.878906 16.761719 C 2.160156 17.035156 2.554688 17.078125 2.765625 16.863281 C 2.976562 16.648438 2.921875 16.253906 2.640625 15.980469 L 2.125 15.480469 L 4.351562 13.203125 L 5.613281 14.429688 C 5.8125 14.625 6.128906 14.621094 6.324219 14.421875 L 6.714844 14.023438 C 6.90625 13.824219 6.902344 13.507812 6.707031 13.3125 L 6.574219 13.183594 L 12.800781 6.667969 C 12.941406 6.527344 13.105469 6.332031 13.203125 6.210938 C 13.289062 6.109375 13.304688 5.964844 13.234375 5.847656 C 13.183594 5.753906 13.085938 5.652344 12.898438 5.472656 L 12.644531 5.210938 L 12.894531 4.953125 C 13.054688 4.789062 13.082031 4.550781 12.953125 4.425781 L 12.832031 4.324219 L 16.46875 0.605469 C 16.660156 0.40625 16.726562 0.15625 16.617188 0.0507812 Z M 6.109375 12.726562 L 5.4375 12.070312 L 6.464844 11.015625 L 6.640625 11.1875 C 6.804688 11.347656 7.066406 11.34375 7.226562 11.183594 C 7.382812 11.019531 7.382812 10.757812 7.21875 10.597656 L 6.265625 9.664062 C 6.101562 9.507812 5.839844 9.507812 5.679688 9.671875 C 5.519531 9.835938 5.523438 10.097656 5.6875 10.257812 L 5.867188 10.429688 L 4.835938 11.484375 L 4.183594 10.847656 C 4.183594 10.847656 10.464844 4.089844 10.527344 4.054688 C 10.628906 4.152344 10.570312 4.082031 10.710938 4.21875 L 6.417969 8.84375 L 8.0625 10.335938 C 8.0625 10.335938 12.28125 5.871094 12.324219 5.804688 L 12.484375 5.945312 C 12.496094 5.953125 6.109375 12.726562 6.109375 12.726562 Z M 6.109375 12.726562 "/>
</g>
</svg>
