<?xml version="1.0" encoding="UTF-8" standalone="no"?>
<!-- Created with Inkscape (http://www.inkscape.org/) -->

<svg
   xmlns:dc="http://purl.org/dc/elements/1.1/"
   xmlns:cc="http://creativecommons.org/ns#"
   xmlns:rdf="http://www.w3.org/1999/02/22-rdf-syntax-ns#"
   xmlns:svg="http://www.w3.org/2000/svg"
   xmlns="http://www.w3.org/2000/svg"
   xmlns:xlink="http://www.w3.org/1999/xlink"
   xmlns:sodipodi="http://sodipodi.sourceforge.net/DTD/sodipodi-0.dtd"
   xmlns:inkscape="http://www.inkscape.org/namespaces/inkscape"
   width="30px"
   height="30px"
   version="1.1"
   id="svg8"
   inkscape:version="0.92.4 5da689c313, 2019-01-14"
   sodipodi:docname="container.svg">
  <defs
     id="defs2" />
  <sodipodi:namedview
     id="base"
     pagecolor="#ffffff"
     bordercolor="#666666"
     borderopacity="1.0"
     inkscape:pageopacity="0.0"
     inkscape:pageshadow="2"
     inkscape:zoom="13.049334"
     inkscape:cx="18.679046"
     inkscape:cy="12.165829"
     inkscape:document-units="px"
     inkscape:current-layer="layer1"
     showgrid="false"
     inkscape:snap-page="false"
     units="px"
     inkscape:window-width="1884"
     inkscape:window-height="1061"
     inkscape:window-x="0"
     inkscape:window-y="0"
     inkscape:window-maximized="1"
     fit-margin-top="0"
     fit-margin-left="0"
     fit-margin-right="0"
     fit-margin-bottom="0" />
  <metadata
     id="metadata5">
    <rdf:RDF>
      <cc:Work
         rdf:about="">
        <dc:format>image/svg+xml</dc:format>
        <dc:type
           rdf:resource="http://purl.org/dc/dcmitype/StillImage" />
        <dc:title></dc:title>
      </cc:Work>
    </rdf:RDF>
  </metadata>
    <circle
       style="color:#000000;clip-rule:nonzero;display:inline;overflow:visible;visibility:visible;opacity:1;isolation:auto;mix-blend-mode:normal;color-interpolation:sRGB;color-interpolation-filters:linearRGB;solid-color:#000000;solid-opacity:1;vector-effect:none;fill:#ffffff;fill-opacity:1;fill-rule:evenodd;stroke:#e42224;stroke-width:1;stroke-linecap:butt;stroke-linejoin:miter;stroke-miterlimit:4;stroke-dasharray:none;stroke-dashoffset:0;stroke-opacity:1;marker:none;color-rendering:auto;image-rendering:auto;shape-rendering:auto;text-rendering:auto;enable-background:accumulate"
       id="path815"
       cx="15"
       cy="15"
       r="14.5" />
<g transform="translate(6.5,6.5)"><path fill-rule="nonzero" fill="rgb(30%,30%,30%)" fill-opacity="1" d="M 16.03125 5.421875 C 15.5 4.609375 14.773438 3.945312 13.914062 3.5 L 14.0625 3.351562 C 14.136719 3.277344 14.140625 3.15625 14.066406 3.082031 C 13.992188 3.003906 13.871094 3.003906 13.796875 3.078125 L 13.65625 3.214844 C 12.726562 1.246094 10.738281 -0.0078125 8.554688 0 C 6.375 0.0078125 4.398438 1.277344 3.480469 3.257812 L 3.308594 3.085938 C 3.234375 3.011719 3.113281 3.011719 3.039062 3.085938 C 2.964844 3.160156 2.964844 3.28125 3.039062 3.355469 L 3.195312 3.511719 C 1.257812 4.4375 0.015625 6.386719 0 8.535156 C -0.015625 10.683594 1.195312 12.65625 3.121094 13.609375 L 2.953125 13.773438 C 2.878906 13.847656 2.878906 13.96875 2.953125 14.042969 C 3.027344 14.117188 3.148438 14.121094 3.222656 14.046875 L 3.390625 13.878906 C 4.34375 15.804688 6.3125 17.015625 8.460938 17 C 10.605469 16.984375 12.558594 15.746094 13.484375 13.8125 C 13.496094 13.800781 13.503906 13.792969 13.515625 13.785156 L 13.800781 14.070312 C 13.875 14.144531 13.996094 14.144531 14.070312 14.066406 C 14.144531 13.992188 14.144531 13.871094 14.070312 13.796875 L 13.796875 13.527344 C 15.238281 12.816406 16.308594 11.523438 16.738281 9.976562 C 17.164062 8.425781 16.90625 6.765625 16.03125 5.421875 Z M 12.246094 10.433594 C 12.289062 10.347656 12.332031 10.257812 12.371094 10.164062 C 12.875 8.976562 12.789062 7.621094 12.144531 6.507812 L 14.617188 5.421875 C 14.699219 5.582031 14.777344 5.746094 14.847656 5.914062 C 15.667969 7.84375 15.546875 10.042969 14.523438 11.875 Z M 8.582031 12.292969 C 6.519531 12.292969 4.851562 10.625 4.851562 8.5625 C 4.851562 6.503906 6.519531 4.832031 8.582031 4.832031 C 10.640625 4.832031 12.3125 6.503906 12.3125 8.5625 C 12.3125 10.625 10.640625 12.292969 8.582031 12.292969 Z M 11.683594 14.617188 C 11.535156 14.695312 11.382812 14.765625 11.230469 14.832031 C 9.296875 15.648438 7.09375 15.527344 5.261719 14.503906 L 6.523438 12.125 C 7.640625 12.769531 8.992188 12.851562 10.183594 12.351562 C 10.292969 12.304688 10.402344 12.253906 10.503906 12.199219 Z M 2.535156 11.679688 C 2.457031 11.527344 2.382812 11.371094 2.3125 11.210938 C 1.601562 9.515625 1.601562 7.609375 2.3125 5.914062 C 2.402344 5.707031 2.5 5.503906 2.609375 5.304688 L 5.011719 6.523438 C 4.375 7.636719 4.292969 8.980469 4.792969 10.164062 C 4.835938 10.269531 4.886719 10.371094 4.9375 10.472656 Z M 5.390625 2.554688 C 5.566406 2.460938 5.75 2.375 5.933594 2.296875 C 7.851562 1.484375 10.035156 1.597656 11.859375 2.601562 L 10.472656 4.910156 C 10.378906 4.859375 10.28125 4.816406 10.183594 4.773438 C 9.011719 4.277344 7.671875 4.351562 6.566406 4.976562 Z M 5.628906 1.292969 C 6.828125 0.472656 8.316406 0.191406 9.734375 0.511719 C 11.148438 0.832031 12.371094 1.726562 13.101562 2.980469 C 10.460938 0.84375 6.6875 0.847656 4.050781 2.988281 C 4.445312 2.3125 4.984375 1.730469 5.628906 1.292969 Z M 0.382812 8.578125 C 0.382812 6.710938 1.378906 4.984375 2.996094 4.046875 C 0.847656 6.703125 0.867188 10.503906 3.042969 13.136719 C 1.398438 12.210938 0.382812 10.46875 0.382812 8.578125 Z M 11.351562 15.722656 C 10.148438 16.535156 8.660156 16.8125 7.242188 16.484375 C 5.828125 16.15625 4.613281 15.257812 3.886719 14 C 6.347656 16.128906 9.9375 16.332031 12.628906 14.5 C 12.273438 14.976562 11.84375 15.390625 11.351562 15.722656 Z M 15.660156 11.414062 C 15.339844 11.886719 14.945312 12.304688 14.488281 12.652344 C 16.277344 10.0625 16.179688 6.613281 14.238281 4.136719 C 15.394531 4.910156 16.191406 6.113281 16.460938 7.480469 C 16.726562 8.84375 16.4375 10.261719 15.660156 11.414062 Z M 15.660156 11.414062 "/>
</g>
</svg>
