<?xml version="1.0" encoding="UTF-8"?>
<svg xmlns="http://www.w3.org/2000/svg" xmlns:xlink="http://www.w3.org/1999/xlink" width="9.255202" height="11" viewBox="0 0 9.255202 11">
<path fill-rule="nonzero" fill="rgb(30%,30%,30%)" fill-opacity="1" d="M 0.667969 4.699219 C 0.898438 4.867188 1 5.109375 0.898438 5.246094 C 0.800781 5.386719 0.535156 5.363281 0.308594 5.199219 C 0.0820312 5.03125 -0.0234375 4.789062 0.078125 4.652344 C 0.175781 4.511719 0.441406 4.535156 0.667969 4.699219 Z M 0.667969 4.699219 "/>
<path fill-rule="nonzero" fill="rgb(30%,30%,30%)" fill-opacity="1" d="M 1.789062 1.652344 C 2.050781 1.972656 2.101562 2.367188 1.902344 2.527344 C 1.703125 2.691406 1.328125 2.5625 1.066406 2.242188 C 0.804688 1.921875 0.753906 1.527344 0.953125 1.367188 C 1.152344 1.203125 1.523438 1.332031 1.789062 1.652344 Z M 1.789062 1.652344 "/>
<path fill-rule="nonzero" fill="rgb(30%,30%,30%)" fill-opacity="1" d="M 3.292969 0.628906 C 3.628906 1.148438 3.628906 1.75 3.289062 1.964844 C 2.953125 2.183594 2.410156 1.933594 2.074219 1.414062 C 1.738281 0.894531 1.742188 0.296875 2.078125 0.078125 C 2.414062 -0.136719 2.957031 0.109375 3.292969 0.628906 Z M 3.292969 0.628906 "/>
<path fill-rule="nonzero" fill="rgb(30%,30%,30%)" fill-opacity="1" d="M 1.09375 2.5625 C 1.339844 2.808594 1.414062 3.140625 1.253906 3.300781 C 1.09375 3.457031 0.761719 3.382812 0.515625 3.132812 C 0.269531 2.882812 0.199219 2.554688 0.359375 2.394531 C 0.519531 2.238281 0.847656 2.3125 1.09375 2.5625 Z M 1.09375 2.5625 "/>
<path fill-rule="nonzero" fill="rgb(30%,30%,30%)" fill-opacity="1" d="M 0.75 3.617188 C 0.980469 3.847656 1.054688 4.152344 0.910156 4.296875 C 0.769531 4.4375 0.464844 4.363281 0.234375 4.128906 C 0.00390625 3.894531 -0.0703125 3.589844 0.0742188 3.449219 C 0.214844 3.308594 0.519531 3.382812 0.75 3.617188 Z M 0.75 3.617188 "/>
<path fill-rule="nonzero" fill="rgb(30%,30%,30%)" fill-opacity="1" d="M 8.976562 8.777344 C 8.640625 8.292969 7.832031 7.726562 7.160156 7.667969 C 6.902344 7.613281 6.285156 7.453125 5.996094 7.203125 C 5.703125 6.945312 5.394531 6.480469 5.257812 6.078125 C 5.253906 6.027344 5.25 5.976562 5.238281 5.925781 C 5.054688 5.082031 5.53125 3.734375 5.199219 3.183594 C 4.539062 2.097656 3.21875 2.03125 2.152344 2.71875 C 1.082031 3.40625 0.78125 4.925781 1.46875 5.992188 C 1.585938 6.171875 1.722656 6.335938 1.875 6.484375 C 1.863281 6.488281 2.867188 7.351562 3.875 7.925781 C 4.644531 8.363281 6.0625 10.058594 6.234375 10.15625 C 6.234375 10.15625 6.238281 10.160156 6.238281 10.160156 C 6.902344 10.960938 7.960938 11.214844 8.582031 10.8125 C 9.261719 10.375 9.488281 9.507812 8.976562 8.777344 Z M 4.289062 4.820312 C 4.289062 4.84375 4.273438 4.859375 4.253906 4.859375 L 3.523438 4.859375 L 3.523438 5.585938 C 3.523438 5.597656 3.519531 5.605469 3.515625 5.613281 C 3.507812 5.621094 3.496094 5.625 3.488281 5.625 L 3 5.625 C 2.988281 5.625 2.980469 5.621094 2.972656 5.613281 C 2.964844 5.605469 2.960938 5.597656 2.960938 5.585938 L 2.960938 4.859375 L 2.234375 4.859375 C 2.210938 4.859375 2.195312 4.84375 2.195312 4.820312 L 2.195312 4.332031 C 2.195312 4.3125 2.210938 4.296875 2.234375 4.296875 L 2.960938 4.296875 L 2.960938 3.566406 C 2.960938 3.546875 2.976562 3.53125 3 3.53125 L 3.488281 3.53125 C 3.507812 3.53125 3.523438 3.546875 3.523438 3.566406 L 3.523438 4.296875 L 4.253906 4.296875 C 4.273438 4.296875 4.289062 4.3125 4.289062 4.332031 Z M 4.289062 4.820312 "/>
</svg>
