<?xml version="1.0" encoding="UTF-8" standalone="no"?>
<!-- Created with Inkscape (http://www.inkscape.org/) -->

<svg
   xmlns:dc="http://purl.org/dc/elements/1.1/"
   xmlns:cc="http://creativecommons.org/ns#"
   xmlns:rdf="http://www.w3.org/1999/02/22-rdf-syntax-ns#"
   xmlns:svg="http://www.w3.org/2000/svg"
   xmlns="http://www.w3.org/2000/svg"
   xmlns:xlink="http://www.w3.org/1999/xlink"
   xmlns:sodipodi="http://sodipodi.sourceforge.net/DTD/sodipodi-0.dtd"
   xmlns:inkscape="http://www.inkscape.org/namespaces/inkscape"
   width="30px"
   height="30px"
   version="1.1"
   id="svg8"
   inkscape:version="0.92.4 5da689c313, 2019-01-14"
   sodipodi:docname="container.svg">
  <defs
     id="defs2" />
  <sodipodi:namedview
     id="base"
     pagecolor="#ffffff"
     bordercolor="#666666"
     borderopacity="1.0"
     inkscape:pageopacity="0.0"
     inkscape:pageshadow="2"
     inkscape:zoom="13.049334"
     inkscape:cx="18.679046"
     inkscape:cy="12.165829"
     inkscape:document-units="px"
     inkscape:current-layer="layer1"
     showgrid="false"
     inkscape:snap-page="false"
     units="px"
     inkscape:window-width="1884"
     inkscape:window-height="1061"
     inkscape:window-x="0"
     inkscape:window-y="0"
     inkscape:window-maximized="1"
     fit-margin-top="0"
     fit-margin-left="0"
     fit-margin-right="0"
     fit-margin-bottom="0" />
  <metadata
     id="metadata5">
    <rdf:RDF>
      <cc:Work
         rdf:about="">
        <dc:format>image/svg+xml</dc:format>
        <dc:type
           rdf:resource="http://purl.org/dc/dcmitype/StillImage" />
        <dc:title></dc:title>
      </cc:Work>
    </rdf:RDF>
  </metadata>
    <circle
       style="color:#000000;clip-rule:nonzero;display:inline;overflow:visible;visibility:visible;opacity:1;isolation:auto;mix-blend-mode:normal;color-interpolation:sRGB;color-interpolation-filters:linearRGB;solid-color:#000000;solid-opacity:1;vector-effect:none;fill:#ffffff;fill-opacity:1;fill-rule:evenodd;stroke:#e42224;stroke-width:1;stroke-linecap:butt;stroke-linejoin:miter;stroke-miterlimit:4;stroke-dasharray:none;stroke-dashoffset:0;stroke-opacity:1;marker:none;color-rendering:auto;image-rendering:auto;shape-rendering:auto;text-rendering:auto;enable-background:accumulate"
       id="path815"
       cx="15"
       cy="15"
       r="14.5" />
<g transform="translate(8.0,6.5)"><path fill-rule="nonzero" fill="rgb(30%,30%,30%)" fill-opacity="1" d="M 1.035156 7.265625 C 1.386719 7.519531 1.546875 7.898438 1.390625 8.109375 C 1.238281 8.324219 0.828125 8.289062 0.476562 8.035156 C 0.125 7.777344 -0.0351562 7.398438 0.121094 7.1875 C 0.273438 6.976562 0.683594 7.007812 1.035156 7.265625 Z M 1.035156 7.265625 "/>
<path fill-rule="nonzero" fill="rgb(30%,30%,30%)" fill-opacity="1" d="M 2.761719 2.554688 C 3.167969 3.050781 3.246094 3.65625 2.9375 3.90625 C 2.632812 4.160156 2.054688 3.960938 1.648438 3.464844 C 1.246094 2.96875 1.164062 2.363281 1.472656 2.113281 C 1.78125 1.859375 2.355469 2.058594 2.761719 2.554688 Z M 2.761719 2.554688 "/>
<path fill-rule="nonzero" fill="rgb(30%,30%,30%)" fill-opacity="1" d="M 5.089844 0.972656 C 5.609375 1.777344 5.605469 2.703125 5.085938 3.035156 C 4.566406 3.371094 3.722656 2.992188 3.207031 2.183594 C 2.6875 1.378906 2.691406 0.457031 3.210938 0.121094 C 3.730469 -0.214844 4.574219 0.167969 5.089844 0.972656 Z M 5.089844 0.972656 "/>
<path fill-rule="nonzero" fill="rgb(30%,30%,30%)" fill-opacity="1" d="M 1.691406 3.957031 C 2.074219 4.34375 2.183594 4.855469 1.9375 5.097656 C 1.6875 5.34375 1.179688 5.226562 0.796875 4.84375 C 0.417969 4.457031 0.308594 3.945312 0.554688 3.703125 C 0.800781 3.457031 1.308594 3.574219 1.691406 3.957031 Z M 1.691406 3.957031 "/>
<path fill-rule="nonzero" fill="rgb(30%,30%,30%)" fill-opacity="1" d="M 1.160156 5.589844 C 1.519531 5.949219 1.628906 6.417969 1.410156 6.636719 C 1.1875 6.855469 0.71875 6.742188 0.363281 6.378906 C 0.00390625 6.019531 -0.105469 5.546875 0.113281 5.328125 C 0.335938 5.113281 0.804688 5.226562 1.160156 5.589844 Z M 1.160156 5.589844 "/>
<path fill-rule="nonzero" fill="rgb(30%,30%,30%)" fill-opacity="1" d="M 13.871094 13.5625 C 13.351562 12.820312 12.101562 11.945312 11.066406 11.851562 C 10.664062 11.761719 9.710938 11.519531 9.269531 11.128906 C 8.816406 10.730469 8.335938 10.015625 8.125 9.394531 C 8.121094 9.316406 8.113281 9.238281 8.09375 9.160156 C 7.8125 7.851562 8.546875 5.769531 8.03125 4.921875 C 7.015625 3.242188 4.976562 3.136719 3.324219 4.199219 C 1.671875 5.265625 1.210938 7.609375 2.273438 9.261719 C 2.449219 9.539062 2.660156 9.792969 2.898438 10.019531 C 2.875 10.027344 4.429688 11.363281 5.988281 12.246094 C 7.179688 12.921875 9.367188 15.546875 9.636719 15.699219 C 9.636719 15.699219 9.636719 15.699219 9.640625 15.699219 C 10.667969 16.9375 12.300781 17.328125 13.261719 16.710938 C 14.316406 16.035156 14.660156 14.695312 13.871094 13.5625 Z M 6.632812 7.453125 C 6.632812 7.484375 6.605469 7.511719 6.570312 7.511719 L 5.449219 7.511719 L 5.449219 8.632812 C 5.449219 8.648438 5.441406 8.664062 5.429688 8.675781 C 5.417969 8.6875 5.40625 8.695312 5.390625 8.695312 L 4.632812 8.695312 C 4.617188 8.695312 4.605469 8.6875 4.59375 8.675781 C 4.582031 8.664062 4.574219 8.648438 4.574219 8.632812 L 4.574219 7.511719 L 3.453125 7.511719 C 3.417969 7.511719 3.390625 7.484375 3.390625 7.453125 L 3.390625 6.695312 C 3.390625 6.664062 3.417969 6.636719 3.453125 6.636719 L 4.574219 6.636719 L 4.574219 5.515625 C 4.574219 5.480469 4.601562 5.453125 4.632812 5.453125 L 5.390625 5.453125 C 5.421875 5.453125 5.449219 5.480469 5.449219 5.515625 L 5.449219 6.636719 L 6.570312 6.636719 C 6.605469 6.636719 6.632812 6.664062 6.632812 6.695312 Z M 6.632812 7.453125 "/>
</g>
</svg>
