<?xml version="1.0" encoding="UTF-8"?>
<svg xmlns="http://www.w3.org/2000/svg" xmlns:xlink="http://www.w3.org/1999/xlink" width="11" height="10.387404" viewBox="0 0 11 10.387404">
<path fill-rule="nonzero" fill="rgb(30%,30%,30%)" fill-opacity="1" d="M 11 4.367188 C 11 3.59375 10.605469 2.871094 9.949219 2.457031 C 9.296875 2.039062 8.476562 1.988281 7.773438 2.320312 C 7.773438 2.300781 7.777344 2.28125 7.777344 2.265625 C 7.777344 1.015625 6.761719 0 5.511719 0 C 4.265625 0 3.25 1.015625 3.25 2.265625 C 3.25 2.269531 3.25 2.273438 3.25 2.28125 C 2.550781 1.9375 1.722656 1.980469 1.058594 2.394531 C 0.398438 2.808594 0 3.535156 0 4.316406 C 0 5.433594 0.8125 6.359375 1.875 6.542969 C 1.296875 7.199219 1.144531 8.128906 1.488281 8.933594 C 1.832031 9.734375 2.605469 10.269531 3.480469 10.304688 C 4.351562 10.339844 5.167969 9.867188 5.574219 9.09375 C 5.957031 9.902344 6.777344 10.410156 7.671875 10.386719 C 8.566406 10.367188 9.363281 9.820312 9.707031 8.992188 C 10.050781 8.167969 9.875 7.21875 9.261719 6.570312 C 10.28125 6.328125 11 5.414062 11 4.367188 Z M 7.722656 5.539062 C 7.722656 6.789062 6.710938 7.804688 5.460938 7.804688 C 4.210938 7.804688 3.195312 6.789062 3.195312 5.539062 C 3.195312 4.289062 4.210938 3.277344 5.460938 3.277344 C 6.710938 3.277344 7.722656 4.289062 7.722656 5.539062 Z M 7.722656 5.539062 "/>
</svg>
