<?xml version="1.0" encoding="UTF-8" standalone="no"?>
<!-- Created with Inkscape (http://www.inkscape.org/) -->

<svg
   xmlns:dc="http://purl.org/dc/elements/1.1/"
   xmlns:cc="http://creativecommons.org/ns#"
   xmlns:rdf="http://www.w3.org/1999/02/22-rdf-syntax-ns#"
   xmlns:svg="http://www.w3.org/2000/svg"
   xmlns="http://www.w3.org/2000/svg"
   xmlns:xlink="http://www.w3.org/1999/xlink"
   xmlns:sodipodi="http://sodipodi.sourceforge.net/DTD/sodipodi-0.dtd"
   xmlns:inkscape="http://www.inkscape.org/namespaces/inkscape"
   width="30px"
   height="30px"
   version="1.1"
   id="svg8"
   inkscape:version="0.92.4 5da689c313, 2019-01-14"
   sodipodi:docname="container.svg">
  <defs
     id="defs2" />
  <sodipodi:namedview
     id="base"
     pagecolor="#ffffff"
     bordercolor="#666666"
     borderopacity="1.0"
     inkscape:pageopacity="0.0"
     inkscape:pageshadow="2"
     inkscape:zoom="13.049334"
     inkscape:cx="18.679046"
     inkscape:cy="12.165829"
     inkscape:document-units="px"
     inkscape:current-layer="layer1"
     showgrid="false"
     inkscape:snap-page="false"
     units="px"
     inkscape:window-width="1884"
     inkscape:window-height="1061"
     inkscape:window-x="0"
     inkscape:window-y="0"
     inkscape:window-maximized="1"
     fit-margin-top="0"
     fit-margin-left="0"
     fit-margin-right="0"
     fit-margin-bottom="0" />
  <metadata
     id="metadata5">
    <rdf:RDF>
      <cc:Work
         rdf:about="">
        <dc:format>image/svg+xml</dc:format>
        <dc:type
           rdf:resource="http://purl.org/dc/dcmitype/StillImage" />
        <dc:title></dc:title>
      </cc:Work>
    </rdf:RDF>
  </metadata>
    <circle
       style="color:#000000;clip-rule:nonzero;display:inline;overflow:visible;visibility:visible;opacity:1;isolation:auto;mix-blend-mode:normal;color-interpolation:sRGB;color-interpolation-filters:linearRGB;solid-color:#000000;solid-opacity:1;vector-effect:none;fill:#ffffff;fill-opacity:1;fill-rule:evenodd;stroke:#2a62ac;stroke-width:1;stroke-linecap:butt;stroke-linejoin:miter;stroke-miterlimit:4;stroke-dasharray:none;stroke-dashoffset:0;stroke-opacity:1;marker:none;color-rendering:auto;image-rendering:auto;shape-rendering:auto;text-rendering:auto;enable-background:accumulate"
       id="path815"
       cx="15"
       cy="15"
       r="14.5" />
<g transform="translate(6.5,8.0)"><path fill-rule="nonzero" fill="rgb(30%,30%,30%)" fill-opacity="1" d="M 14.308594 8.308594 C 13.941406 8.308594 13.582031 8.378906 13.25 8.523438 L 12.296875 7.042969 L 12.609375 7.054688 L 12.609375 5.390625 C 11.828125 5.390625 11.515625 5.722656 11.390625 5.960938 L 9.378906 4.890625 C 9.207031 4.800781 8.996094 4.867188 8.902344 5.039062 L 8.808594 5.214844 C 8.71875 5.386719 8.785156 5.597656 8.953125 5.6875 L 10.015625 6.253906 C 6.242188 6.714844 6.089844 7.914062 5.957031 7.824219 C 5.347656 7.417969 2.671875 7.378906 2.671875 7.378906 L 2.671875 7.984375 C 3.371094 7.886719 4.023438 8.027344 4.5625 8.371094 C 4.550781 8.378906 4.542969 8.382812 4.535156 8.390625 L 4.191406 8.761719 C 3.171875 8.078125 1.816406 8.171875 0.898438 8.988281 C -0.0195312 9.808594 -0.265625 11.144531 0.300781 12.238281 C 0.863281 13.328125 2.097656 13.898438 3.292969 13.625 C 4.492188 13.351562 5.351562 12.300781 5.382812 11.070312 L 5.960938 11 C 6.070312 11.222656 8.351562 11.632812 10.378906 11.433594 C 10.949219 11.378906 11.105469 10.664062 11.105469 10.664062 L 11.230469 7.257812 L 11.289062 7.050781 L 12.527344 8.980469 C 11.550781 9.839844 11.332031 11.273438 12 12.386719 C 12.671875 13.503906 14.042969 13.976562 15.257812 13.519531 C 16.476562 13.058594 17.191406 11.796875 16.957031 10.515625 C 16.722656 9.238281 15.609375 8.308594 14.308594 8.308594 Z M 4.265625 9.992188 C 4.335938 10.097656 4.390625 10.210938 4.4375 10.324219 L 3.898438 10.390625 Z M 2.691406 12.871094 C 1.90625 12.871094 1.203125 12.382812 0.933594 11.644531 C 0.664062 10.90625 0.882812 10.074219 1.484375 9.570312 C 2.085938 9.0625 2.941406 8.988281 3.621094 9.378906 L 2.429688 10.667969 C 2.289062 10.820312 2.296875 11.058594 2.449219 11.199219 L 2.550781 11.292969 C 2.660156 11.394531 2.820312 11.421875 2.957031 11.359375 L 4.554688 11.167969 C 4.46875 12.132812 3.660156 12.871094 2.691406 12.871094 Z M 5.273438 10.226562 C 5.179688 9.917969 5.035156 9.628906 4.839844 9.375 L 5.1875 8.996094 C 5.199219 8.984375 5.207031 8.972656 5.214844 8.960938 C 5.480469 9.289062 5.683594 9.691406 5.8125 10.160156 Z M 14.269531 12.871094 C 13.511719 12.871094 12.824219 12.410156 12.539062 11.707031 C 12.25 11 12.421875 10.191406 12.964844 9.660156 L 13.9375 11.171875 C 14.0625 11.367188 14.328125 11.425781 14.523438 11.296875 C 14.722656 11.171875 14.78125 10.90625 14.652344 10.710938 L 13.695312 9.21875 C 14.398438 8.992188 15.167969 9.199219 15.664062 9.75 C 16.15625 10.300781 16.28125 11.085938 15.980469 11.761719 C 15.679688 12.4375 15.011719 12.871094 14.269531 12.871094 Z M 14.269531 12.871094 "/>
<path fill-rule="nonzero" fill="rgb(30%,30%,30%)" fill-opacity="1" d="M 13.273438 0.00390625 C 12.441406 0.00390625 11.699219 0.523438 11.414062 1.304688 L 5.109375 1.304688 C 4.871094 0.613281 4.261719 0.113281 3.53125 0.015625 C 2.804688 -0.078125 2.085938 0.246094 1.671875 0.851562 C 1.613281 0.9375 1.609375 1.050781 1.65625 1.144531 C 1.707031 1.234375 1.800781 1.292969 1.90625 1.292969 L 3.191406 1.292969 C 3.464844 1.292969 3.6875 1.515625 3.6875 1.785156 L 3.6875 2.066406 C 3.683594 2.40625 3.410156 2.679688 3.074219 2.679688 L 1.976562 2.679688 C 1.867188 2.679688 1.769531 2.742188 1.722656 2.839844 C 1.675781 2.933594 1.6875 3.050781 1.753906 3.136719 C 2.179688 3.683594 2.871094 3.957031 3.558594 3.859375 C 4.246094 3.757812 4.828125 3.296875 5.082031 2.648438 L 11.429688 2.648438 C 11.773438 3.585938 12.765625 4.121094 13.738281 3.886719 C 14.707031 3.65625 15.351562 2.734375 15.234375 1.742188 C 15.117188 0.75 14.273438 0.00390625 13.273438 0.00390625 Z M 13.273438 2.734375 C 12.84375 2.730469 12.5 2.378906 12.503906 1.949219 C 12.507812 1.519531 12.855469 1.171875 13.285156 1.175781 C 13.714844 1.175781 14.0625 1.527344 14.0625 1.957031 C 14.0625 2.164062 13.980469 2.363281 13.832031 2.511719 C 13.683594 2.65625 13.484375 2.738281 13.273438 2.734375 Z M 13.273438 2.734375 "/>
</g>
</svg>
