<?xml version="1.0" encoding="UTF-8"?>
<svg xmlns="http://www.w3.org/2000/svg" xmlns:xlink="http://www.w3.org/1999/xlink" width="11" height="7.318826" viewBox="0 0 11 7.318826">
<path fill-rule="nonzero" fill="rgb(30%,30%,30%)" fill-opacity="1" d="M 0.25 4.835938 L 5.261719 2.984375 L 5.523438 3.699219 L 0.511719 5.550781 C 0.3125 5.621094 0.09375 5.519531 0.0234375 5.324219 C -0.046875 5.125 0.0546875 4.90625 0.25 4.835938 Z M 0.25 4.835938 "/>
<path fill-rule="nonzero" fill="rgb(30%,30%,30%)" fill-opacity="1" d="M 9.75 3.753906 L 9.726562 3.695312 C 9.660156 3.515625 9.457031 3.425781 9.277344 3.492188 L 9.25 3.503906 L 8.1875 0.71875 C 8.347656 0.640625 8.425781 0.453125 8.359375 0.28125 L 8.339844 0.226562 C 8.269531 0.046875 8.070312 -0.046875 7.890625 0.0234375 L 4.765625 1.203125 C 4.585938 1.269531 4.496094 1.472656 4.5625 1.652344 L 4.582031 1.707031 C 4.652344 1.886719 4.851562 1.980469 5.035156 1.910156 L 5.101562 1.886719 L 6.164062 4.667969 L 6.152344 4.671875 C 5.972656 4.742188 5.882812 4.941406 5.949219 5.121094 L 5.972656 5.179688 C 6.039062 5.359375 6.242188 5.449219 6.421875 5.382812 L 9.546875 4.203125 C 9.726562 4.136719 9.816406 3.933594 9.75 3.753906 Z M 9.75 3.753906 "/>
<path fill-rule="nonzero" fill="rgb(30%,30%,30%)" fill-opacity="1" d="M 5.339844 6.570312 L 10.625 6.570312 C 10.832031 6.570312 11 6.738281 11 6.945312 C 11 7.152344 10.832031 7.320312 10.625 7.320312 L 5.339844 7.320312 C 5.132812 7.320312 4.964844 7.152344 4.964844 6.945312 C 4.964844 6.738281 5.132812 6.570312 5.339844 6.570312 Z M 5.339844 6.570312 "/>
</svg>
