<?xml version="1.0" encoding="UTF-8" standalone="no"?>
<!-- Created with Inkscape (http://www.inkscape.org/) -->

<svg
   xmlns:dc="http://purl.org/dc/elements/1.1/"
   xmlns:cc="http://creativecommons.org/ns#"
   xmlns:rdf="http://www.w3.org/1999/02/22-rdf-syntax-ns#"
   xmlns:svg="http://www.w3.org/2000/svg"
   xmlns="http://www.w3.org/2000/svg"
   xmlns:xlink="http://www.w3.org/1999/xlink"
   xmlns:sodipodi="http://sodipodi.sourceforge.net/DTD/sodipodi-0.dtd"
   xmlns:inkscape="http://www.inkscape.org/namespaces/inkscape"
   width="30px"
   height="30px"
   version="1.1"
   id="svg8"
   inkscape:version="0.92.4 5da689c313, 2019-01-14"
   sodipodi:docname="container.svg">
  <defs
     id="defs2" />
  <sodipodi:namedview
     id="base"
     pagecolor="#ffffff"
     bordercolor="#666666"
     borderopacity="1.0"
     inkscape:pageopacity="0.0"
     inkscape:pageshadow="2"
     inkscape:zoom="13.049334"
     inkscape:cx="18.679046"
     inkscape:cy="12.165829"
     inkscape:document-units="px"
     inkscape:current-layer="layer1"
     showgrid="false"
     inkscape:snap-page="false"
     units="px"
     inkscape:window-width="1884"
     inkscape:window-height="1061"
     inkscape:window-x="0"
     inkscape:window-y="0"
     inkscape:window-maximized="1"
     fit-margin-top="0"
     fit-margin-left="0"
     fit-margin-right="0"
     fit-margin-bottom="0" />
  <metadata
     id="metadata5">
    <rdf:RDF>
      <cc:Work
         rdf:about="">
        <dc:format>image/svg+xml</dc:format>
        <dc:type
           rdf:resource="http://purl.org/dc/dcmitype/StillImage" />
        <dc:title></dc:title>
      </cc:Work>
    </rdf:RDF>
  </metadata>
    <circle
       style="color:#000000;clip-rule:nonzero;display:inline;overflow:visible;visibility:visible;opacity:1;isolation:auto;mix-blend-mode:normal;color-interpolation:sRGB;color-interpolation-filters:linearRGB;solid-color:#000000;solid-opacity:1;vector-effect:none;fill:#ffffff;fill-opacity:1;fill-rule:evenodd;stroke:#2a62ac;stroke-width:1;stroke-linecap:butt;stroke-linejoin:miter;stroke-miterlimit:4;stroke-dasharray:none;stroke-dashoffset:0;stroke-opacity:1;marker:none;color-rendering:auto;image-rendering:auto;shape-rendering:auto;text-rendering:auto;enable-background:accumulate"
       id="path815"
       cx="15"
       cy="15"
       r="14.5" />
<g transform="translate(8.0,6.5)"><path fill-rule="nonzero" fill="rgb(30%,30%,30%)" fill-opacity="1" d="M 7.269531 3.648438 L 7.269531 2.425781 L 10.277344 2.425781 L 8.699219 1.222656 L 10.199219 0.0195312 C 9.144531 0.0117188 8.085938 0.0078125 7.03125 0 L 7.03125 3.648438 L 0 7.382812 L 0 8.464844 L 14.296875 8.464844 L 14.296875 7.382812 Z M 7.269531 3.648438 "/>
<path fill-rule="nonzero" fill="rgb(30%,30%,30%)" fill-opacity="1" d="M 14.300781 8.929688 L 14.316406 10.976562 L 13.183594 10.976562 L 13.183594 15.722656 L 14.316406 15.722656 L 14.316406 17 C 14.03125 16.976562 0.292969 17 0.0078125 17 L 0.0078125 15.707031 L 1.09375 15.707031 L 1.09375 10.976562 L 0.0195312 10.976562 L 0 8.980469 C 2.230469 8.980469 4.402344 8.984375 6.578125 8.976562 C 9.152344 8.96875 11.726562 8.945312 14.300781 8.929688 Z M 3.957031 10.90625 L 2.414062 10.90625 L 2.414062 15.660156 L 3.957031 15.660156 Z M 6.722656 10.90625 L 5.179688 10.90625 L 5.179688 15.660156 L 6.722656 15.660156 Z M 9.488281 10.90625 L 7.945312 10.90625 L 7.945312 15.660156 L 9.488281 15.660156 Z M 12.253906 10.90625 L 10.710938 10.90625 L 10.710938 15.660156 L 12.253906 15.660156 Z M 12.253906 10.90625 "/>
</g>
</svg>
