<?xml version="1.0" encoding="UTF-8"?>
<svg xmlns="http://www.w3.org/2000/svg" xmlns:xlink="http://www.w3.org/1999/xlink" width="11" height="7.912281" viewBox="0 0 11 7.912281">
<path fill-rule="nonzero" fill="rgb(30%,30%,30%)" fill-opacity="1" d="M 11 6.855469 L 11 6.875 C 11 7.449219 10.535156 7.914062 9.960938 7.914062 L 1.039062 7.914062 C 0.464844 7.914062 0 7.449219 0 6.875 L 0 6.855469 C 0 6.761719 0.0429688 6.671875 0.113281 6.609375 C 0.292969 6.953125 0.648438 7.171875 1.039062 7.171875 L 9.960938 7.171875 C 10.351562 7.171875 10.707031 6.953125 10.886719 6.609375 C 10.957031 6.671875 11 6.761719 11 6.855469 Z M 10.210938 4.003906 L 10.210938 2.378906 C 9.378906 2.378906 8.699219 1.703125 8.699219 0.867188 L 2.363281 0.867188 C 2.363281 1.703125 1.6875 2.378906 0.851562 2.378906 L 0.851562 4.003906 C 1.6875 4.003906 2.363281 4.679688 2.363281 5.515625 L 8.699219 5.515625 C 8.699219 4.679688 9.378906 4.003906 10.210938 4.003906 Z M 10.15625 6.335938 L 0.878906 6.335938 C 0.429688 6.335938 0.0625 5.972656 0.0625 5.523438 L 0.0625 0 L 10.96875 0 L 10.96875 5.523438 C 10.96875 5.972656 10.605469 6.335938 10.15625 6.335938 Z M 5.53125 1.625 C 4.261719 1.625 3.234375 2.328125 3.234375 3.199219 C 3.234375 4.070312 4.261719 4.777344 5.53125 4.777344 C 6.800781 4.777344 7.832031 4.070312 7.832031 3.199219 C 7.832031 2.328125 6.800781 1.625 5.53125 1.625 Z M 5.53125 1.625 "/>
</svg>
