<?xml version="1.0" encoding="UTF-8"?>
<svg xmlns="http://www.w3.org/2000/svg" xmlns:xlink="http://www.w3.org/1999/xlink" width="10.508783" height="11" viewBox="0 0 10.508783 11">
<path fill-rule="nonzero" fill="rgb(30%,30%,30%)" fill-opacity="1" d="M 6.226562 0.972656 C 6.226562 1.511719 5.792969 1.945312 5.253906 1.945312 C 4.714844 1.945312 4.28125 1.511719 4.28125 0.972656 C 4.28125 0.4375 4.714844 0 5.253906 0 C 5.792969 0 6.226562 0.4375 6.226562 0.972656 Z M 6.226562 0.972656 "/>
<path fill-rule="nonzero" fill="rgb(30%,30%,30%)" fill-opacity="1" d="M 0 5.90625 L 10.507812 5.90625 L 10.507812 11 L 0 11 Z M 0 5.90625 "/>
<path fill-rule="nonzero" fill="rgb(30%,30%,30%)" fill-opacity="1" d="M 3.945312 2.261719 L 6.5625 2.261719 C 6.796875 2.261719 6.988281 2.449219 6.988281 2.683594 L 6.988281 5.585938 L 3.519531 5.585938 L 3.519531 2.683594 C 3.519531 2.449219 3.710938 2.261719 3.945312 2.261719 Z M 3.945312 2.261719 "/>
</svg>
