<?xml version="1.0" encoding="UTF-8" standalone="no"?>
<!-- Created with Inkscape (http://www.inkscape.org/) -->

<svg
   xmlns:dc="http://purl.org/dc/elements/1.1/"
   xmlns:cc="http://creativecommons.org/ns#"
   xmlns:rdf="http://www.w3.org/1999/02/22-rdf-syntax-ns#"
   xmlns:svg="http://www.w3.org/2000/svg"
   xmlns="http://www.w3.org/2000/svg"
   xmlns:xlink="http://www.w3.org/1999/xlink"
   xmlns:sodipodi="http://sodipodi.sourceforge.net/DTD/sodipodi-0.dtd"
   xmlns:inkscape="http://www.inkscape.org/namespaces/inkscape"
   width="30px"
   height="30px"
   version="1.1"
   id="svg8"
   inkscape:version="0.92.4 5da689c313, 2019-01-14"
   sodipodi:docname="container.svg">
  <defs
     id="defs2" />
  <sodipodi:namedview
     id="base"
     pagecolor="#ffffff"
     bordercolor="#666666"
     borderopacity="1.0"
     inkscape:pageopacity="0.0"
     inkscape:pageshadow="2"
     inkscape:zoom="13.049334"
     inkscape:cx="18.679046"
     inkscape:cy="12.165829"
     inkscape:document-units="px"
     inkscape:current-layer="layer1"
     showgrid="false"
     inkscape:snap-page="false"
     units="px"
     inkscape:window-width="1884"
     inkscape:window-height="1061"
     inkscape:window-x="0"
     inkscape:window-y="0"
     inkscape:window-maximized="1"
     fit-margin-top="0"
     fit-margin-left="0"
     fit-margin-right="0"
     fit-margin-bottom="0" />
  <metadata
     id="metadata5">
    <rdf:RDF>
      <cc:Work
         rdf:about="">
        <dc:format>image/svg+xml</dc:format>
        <dc:type
           rdf:resource="http://purl.org/dc/dcmitype/StillImage" />
        <dc:title></dc:title>
      </cc:Work>
    </rdf:RDF>
  </metadata>
    <circle
       style="color:#000000;clip-rule:nonzero;display:inline;overflow:visible;visibility:visible;opacity:1;isolation:auto;mix-blend-mode:normal;color-interpolation:sRGB;color-interpolation-filters:linearRGB;solid-color:#000000;solid-opacity:1;vector-effect:none;fill:#ffffff;fill-opacity:1;fill-rule:evenodd;stroke:#2a62ac;stroke-width:1;stroke-linecap:butt;stroke-linejoin:miter;stroke-miterlimit:4;stroke-dasharray:none;stroke-dashoffset:0;stroke-opacity:1;marker:none;color-rendering:auto;image-rendering:auto;shape-rendering:auto;text-rendering:auto;enable-background:accumulate"
       id="path815"
       cx="15"
       cy="15"
       r="14.5" />
<g transform="translate(6.5,6.5)"><path fill-rule="nonzero" fill="rgb(30%,30%,30%)" fill-opacity="1" d="M 0 17 L 13.15625 17 L 0 3.84375 Z M 2.792969 14.203125 L 2.792969 10.589844 L 6.40625 14.203125 Z M 11.636719 15.785156 L 11.171875 16.246094 C 11.132812 16.285156 11.046875 16.199219 11.085938 16.160156 L 11.546875 15.695312 C 11.585938 15.660156 11.675781 15.746094 11.636719 15.785156 Z M 11.152344 15.242188 C 11.195312 15.28125 11.203125 15.339844 11.175781 15.367188 L 10.363281 16.179688 C 10.335938 16.210938 10.277344 16.199219 10.234375 16.15625 C 10.195312 16.117188 10.183594 16.058594 10.210938 16.03125 L 11.023438 15.21875 C 11.050781 15.1875 11.109375 15.199219 11.152344 15.242188 Z M 10.695312 14.84375 L 10.234375 15.308594 C 10.195312 15.34375 10.105469 15.261719 10.148438 15.222656 L 10.609375 14.757812 C 10.648438 14.71875 10.734375 14.804688 10.695312 14.84375 Z M 10.210938 14.300781 C 10.253906 14.34375 10.265625 14.402344 10.234375 14.429688 L 9.421875 15.242188 C 9.394531 15.269531 9.339844 15.261719 9.296875 15.21875 C 9.253906 15.175781 9.242188 15.121094 9.273438 15.089844 L 10.085938 14.277344 C 10.113281 14.25 10.171875 14.261719 10.210938 14.300781 Z M 9.757812 13.90625 L 9.292969 14.367188 C 9.253906 14.40625 9.167969 14.320312 9.207031 14.28125 L 9.667969 13.820312 C 9.710938 13.777344 9.796875 13.867188 9.757812 13.90625 Z M 9.273438 13.363281 C 9.316406 13.402344 9.324219 13.460938 9.296875 13.488281 L 8.484375 14.300781 C 8.457031 14.332031 8.398438 14.320312 8.355469 14.277344 C 8.316406 14.238281 8.304688 14.179688 8.332031 14.152344 L 9.144531 13.339844 C 9.175781 13.308594 9.230469 13.320312 9.273438 13.363281 Z M 8.816406 12.964844 L 8.355469 13.429688 C 8.316406 13.46875 8.226562 13.378906 8.269531 13.34375 L 8.730469 12.878906 C 8.769531 12.839844 8.855469 12.925781 8.816406 12.964844 Z M 8.332031 12.421875 C 8.375 12.464844 8.386719 12.523438 8.355469 12.550781 L 7.546875 13.363281 C 7.515625 13.390625 7.460938 13.378906 7.417969 13.339844 C 7.375 13.296875 7.363281 13.242188 7.394531 13.210938 L 8.207031 12.398438 C 8.234375 12.371094 8.292969 12.382812 8.332031 12.421875 Z M 7.878906 12.027344 L 7.414062 12.488281 C 7.375 12.527344 7.289062 12.441406 7.328125 12.402344 L 7.792969 11.941406 C 7.832031 11.902344 7.917969 11.988281 7.878906 12.027344 Z M 7.394531 11.484375 C 7.4375 11.527344 7.445312 11.582031 7.417969 11.609375 L 6.605469 12.425781 C 6.578125 12.453125 6.519531 12.441406 6.476562 12.398438 C 6.4375 12.359375 6.425781 12.300781 6.453125 12.273438 L 7.265625 11.460938 C 7.296875 11.429688 7.351562 11.441406 7.394531 11.484375 Z M 6.9375 11.085938 L 6.476562 11.550781 C 6.4375 11.585938 6.351562 11.503906 6.390625 11.464844 L 6.851562 11 C 6.890625 10.960938 6.976562 11.046875 6.9375 11.085938 Z M 6.453125 10.542969 C 6.496094 10.585938 6.507812 10.644531 6.476562 10.671875 L 5.667969 11.484375 C 5.636719 11.511719 5.582031 11.503906 5.539062 11.460938 C 5.496094 11.417969 5.484375 11.363281 5.515625 11.332031 L 6.328125 10.519531 C 6.355469 10.492188 6.414062 10.503906 6.453125 10.542969 Z M 6 10.148438 L 5.535156 10.609375 C 5.496094 10.648438 5.410156 10.5625 5.449219 10.523438 L 5.914062 10.0625 C 5.953125 10.023438 6.039062 10.109375 6 10.148438 Z M 5.515625 9.605469 C 5.558594 9.648438 5.566406 9.703125 5.539062 9.734375 L 4.726562 10.542969 C 4.699219 10.574219 4.640625 10.5625 4.597656 10.519531 C 4.558594 10.480469 4.546875 10.421875 4.574219 10.390625 L 5.386719 9.582031 C 5.417969 9.550781 5.472656 9.5625 5.515625 9.605469 Z M 5.058594 9.207031 L 4.597656 9.671875 C 4.554688 9.710938 4.472656 9.625 4.511719 9.585938 L 4.972656 9.121094 C 5.011719 9.082031 5.097656 9.167969 5.058594 9.207031 Z M 4.574219 8.664062 C 4.617188 8.707031 4.628906 8.765625 4.597656 8.792969 L 3.789062 9.605469 C 3.757812 9.632812 3.703125 9.625 3.660156 9.582031 C 3.617188 9.539062 3.609375 9.484375 3.636719 9.453125 L 4.449219 8.640625 C 4.476562 8.613281 4.535156 8.625 4.574219 8.664062 Z M 4.121094 8.269531 L 3.65625 8.730469 C 3.617188 8.769531 3.53125 8.683594 3.570312 8.644531 L 4.035156 8.183594 C 4.074219 8.144531 4.160156 8.230469 4.121094 8.269531 Z M 3.636719 7.726562 C 3.679688 7.769531 3.691406 7.824219 3.660156 7.855469 L 2.847656 8.664062 C 2.820312 8.695312 2.761719 8.683594 2.71875 8.644531 C 2.679688 8.601562 2.667969 8.542969 2.695312 8.515625 L 3.507812 7.703125 C 3.539062 7.675781 3.59375 7.683594 3.636719 7.726562 Z M 3.179688 7.328125 L 2.71875 7.792969 C 2.679688 7.832031 2.59375 7.746094 2.632812 7.707031 L 3.09375 7.242188 C 3.132812 7.203125 3.21875 7.289062 3.179688 7.328125 Z M 2.699219 6.785156 C 2.738281 6.828125 2.75 6.886719 2.722656 6.914062 L 1.910156 7.726562 C 1.878906 7.753906 1.824219 7.746094 1.78125 7.703125 C 1.738281 7.660156 1.730469 7.605469 1.757812 7.574219 L 2.570312 6.761719 C 2.597656 6.734375 2.65625 6.746094 2.699219 6.785156 Z M 2.242188 6.390625 L 1.777344 6.851562 C 1.738281 6.890625 1.652344 6.804688 1.691406 6.765625 L 2.15625 6.304688 C 2.195312 6.265625 2.28125 6.351562 2.242188 6.390625 Z M 1.757812 5.847656 C 1.800781 5.890625 1.8125 5.945312 1.78125 5.976562 L 0.96875 6.789062 C 0.941406 6.816406 0.882812 6.804688 0.84375 6.765625 C 0.800781 6.722656 0.789062 6.664062 0.816406 6.636719 L 1.628906 5.824219 C 1.660156 5.796875 1.714844 5.804688 1.757812 5.847656 Z M 0.753906 5.828125 L 1.214844 5.363281 C 1.253906 5.324219 1.339844 5.410156 1.300781 5.449219 L 0.839844 5.914062 C 0.824219 5.929688 0.789062 5.925781 0.765625 5.898438 C 0.742188 5.875 0.738281 5.84375 0.753906 5.828125 Z M 0.753906 5.828125 "/>
<path fill-rule="nonzero" fill="rgb(30%,30%,30%)" fill-opacity="1" d="M 3.976562 0 L 1.652344 2.324219 L 14.675781 15.347656 L 17 13.023438 Z M 2.332031 2.582031 C 2.289062 2.535156 2.289062 2.464844 2.332031 2.417969 L 3.582031 1.167969 C 3.628906 1.125 3.699219 1.125 3.742188 1.167969 C 3.789062 1.214844 3.789062 1.285156 3.742188 1.328125 L 2.492188 2.582031 C 2.449219 2.625 2.378906 2.625 2.332031 2.582031 Z M 2.832031 3.078125 C 2.804688 3.054688 2.804688 3.011719 2.832031 2.988281 L 3.542969 2.273438 C 3.570312 2.25 3.609375 2.25 3.632812 2.273438 C 3.660156 2.300781 3.660156 2.339844 3.632812 2.367188 L 2.921875 3.078125 C 2.898438 3.105469 2.855469 3.105469 2.832031 3.078125 Z M 3.328125 3.574219 C 3.285156 3.53125 3.285156 3.460938 3.328125 3.414062 L 4.578125 2.164062 C 4.625 2.121094 4.695312 2.121094 4.738281 2.164062 C 4.785156 2.210938 4.785156 2.28125 4.738281 2.324219 L 3.488281 3.574219 C 3.445312 3.621094 3.371094 3.621094 3.328125 3.574219 Z M 3.828125 4.074219 C 3.800781 4.046875 3.800781 4.007812 3.828125 3.984375 L 4.539062 3.269531 C 4.566406 3.246094 4.605469 3.246094 4.632812 3.269531 C 4.65625 3.296875 4.65625 3.335938 4.632812 3.363281 L 3.917969 4.074219 C 3.894531 4.097656 3.851562 4.097656 3.828125 4.074219 Z M 4.324219 4.570312 C 4.28125 4.527344 4.28125 4.457031 4.324219 4.410156 L 5.574219 3.160156 C 5.621094 3.117188 5.691406 3.117188 5.734375 3.160156 C 5.78125 3.207031 5.78125 3.277344 5.734375 3.320312 L 4.484375 4.570312 C 4.441406 4.617188 4.371094 4.617188 4.324219 4.570312 Z M 4.824219 5.070312 C 4.796875 5.042969 4.796875 5.003906 4.824219 4.976562 L 5.535156 4.265625 C 5.558594 4.242188 5.601562 4.242188 5.625 4.265625 C 5.652344 4.292969 5.652344 4.332031 5.625 4.359375 L 4.914062 5.070312 C 4.890625 5.09375 4.847656 5.09375 4.824219 5.070312 Z M 5.320312 5.566406 C 5.277344 5.523438 5.277344 5.453125 5.320312 5.40625 L 6.570312 4.15625 C 6.617188 4.113281 6.6875 4.113281 6.730469 4.15625 C 6.777344 4.199219 6.777344 4.273438 6.730469 4.316406 L 5.480469 5.566406 C 5.4375 5.613281 5.363281 5.613281 5.320312 5.566406 Z M 5.820312 6.066406 C 5.792969 6.039062 5.792969 6 5.820312 5.972656 L 6.53125 5.261719 C 6.558594 5.238281 6.597656 5.238281 6.621094 5.261719 C 6.648438 5.289062 6.648438 5.328125 6.621094 5.351562 L 5.910156 6.066406 C 5.882812 6.089844 5.84375 6.089844 5.820312 6.066406 Z M 6.316406 6.5625 C 6.273438 6.519531 6.273438 6.449219 6.316406 6.402344 L 7.566406 5.152344 C 7.609375 5.109375 7.683594 5.109375 7.726562 5.152344 C 7.773438 5.199219 7.773438 5.269531 7.726562 5.3125 L 6.476562 6.5625 C 6.433594 6.609375 6.359375 6.609375 6.316406 6.5625 Z M 6.816406 7.0625 C 6.789062 7.035156 6.789062 6.996094 6.816406 6.96875 L 7.527344 6.257812 C 7.550781 6.234375 7.59375 6.234375 7.617188 6.257812 C 7.644531 6.285156 7.644531 6.324219 7.617188 6.347656 L 6.90625 7.0625 C 6.878906 7.085938 6.839844 7.085938 6.816406 7.0625 Z M 7.3125 7.558594 C 7.269531 7.515625 7.269531 7.445312 7.3125 7.398438 L 8.5625 6.148438 C 8.605469 6.105469 8.679688 6.105469 8.722656 6.148438 C 8.769531 6.191406 8.769531 6.265625 8.722656 6.308594 L 7.472656 7.558594 C 7.429688 7.605469 7.355469 7.605469 7.3125 7.558594 Z M 7.808594 8.058594 C 7.785156 8.03125 7.785156 7.992188 7.808594 7.964844 L 8.523438 7.253906 C 8.546875 7.226562 8.589844 7.226562 8.613281 7.253906 C 8.640625 7.277344 8.640625 7.320312 8.613281 7.34375 L 7.902344 8.058594 C 7.875 8.082031 7.835938 8.082031 7.808594 8.058594 Z M 8.308594 8.554688 C 8.265625 8.511719 8.265625 8.441406 8.308594 8.394531 L 9.558594 7.144531 C 9.601562 7.101562 9.675781 7.101562 9.71875 7.144531 C 9.761719 7.1875 9.761719 7.261719 9.71875 7.304688 L 8.46875 8.554688 C 8.425781 8.601562 8.351562 8.601562 8.308594 8.554688 Z M 8.804688 9.054688 C 8.78125 9.027344 8.78125 8.988281 8.804688 8.960938 L 9.519531 8.25 C 9.542969 8.222656 9.585938 8.222656 9.609375 8.25 C 9.636719 8.273438 9.636719 8.316406 9.609375 8.339844 L 8.898438 9.054688 C 8.871094 9.078125 8.832031 9.078125 8.804688 9.054688 Z M 9.304688 9.550781 C 9.257812 9.507812 9.257812 9.4375 9.304688 9.390625 L 10.554688 8.140625 C 10.597656 8.097656 10.671875 8.097656 10.714844 8.140625 C 10.757812 8.183594 10.757812 8.257812 10.714844 8.300781 L 9.464844 9.550781 C 9.417969 9.59375 9.347656 9.59375 9.304688 9.550781 Z M 9.800781 10.050781 C 9.777344 10.023438 9.777344 9.984375 9.800781 9.957031 L 10.515625 9.246094 C 10.539062 9.21875 10.582031 9.21875 10.605469 9.246094 C 10.632812 9.269531 10.632812 9.3125 10.605469 9.335938 L 9.894531 10.050781 C 9.867188 10.074219 9.828125 10.074219 9.800781 10.050781 Z M 10.300781 10.546875 C 10.253906 10.503906 10.253906 10.429688 10.300781 10.386719 L 11.550781 9.136719 C 11.59375 9.09375 11.667969 9.09375 11.710938 9.136719 C 11.753906 9.179688 11.753906 9.253906 11.710938 9.296875 L 10.460938 10.546875 C 10.414062 10.589844 10.34375 10.589844 10.300781 10.546875 Z M 10.796875 11.046875 C 10.773438 11.019531 10.773438 10.980469 10.796875 10.953125 L 11.511719 10.242188 C 11.535156 10.214844 11.578125 10.214844 11.601562 10.242188 C 11.628906 10.265625 11.628906 10.308594 11.601562 10.332031 L 10.890625 11.046875 C 10.863281 11.070312 10.824219 11.070312 10.796875 11.046875 Z M 11.296875 11.542969 C 11.25 11.5 11.25 11.425781 11.296875 11.382812 L 12.546875 10.132812 C 12.589844 10.085938 12.664062 10.085938 12.707031 10.132812 C 12.75 10.175781 12.75 10.25 12.707031 10.292969 L 11.457031 11.542969 C 11.410156 11.585938 11.339844 11.585938 11.296875 11.542969 Z M 11.792969 12.042969 C 11.769531 12.015625 11.769531 11.976562 11.792969 11.949219 L 12.507812 11.238281 C 12.53125 11.210938 12.574219 11.210938 12.597656 11.238281 C 12.625 11.261719 12.625 11.304688 12.597656 11.328125 L 11.886719 12.042969 C 11.859375 12.066406 11.820312 12.066406 11.792969 12.042969 Z M 12.292969 12.539062 C 12.246094 12.496094 12.246094 12.421875 12.292969 12.378906 L 13.542969 11.128906 C 13.585938 11.082031 13.65625 11.082031 13.703125 11.128906 C 13.746094 11.171875 13.746094 11.246094 13.703125 11.289062 L 12.453125 12.539062 C 12.40625 12.582031 12.335938 12.582031 12.292969 12.539062 Z M 12.789062 13.035156 C 12.765625 13.011719 12.765625 12.96875 12.789062 12.945312 L 13.503906 12.234375 C 13.527344 12.207031 13.570312 12.207031 13.59375 12.234375 C 13.621094 12.257812 13.621094 12.300781 13.59375 12.324219 L 12.882812 13.035156 C 12.855469 13.0625 12.816406 13.0625 12.789062 13.035156 Z M 13.289062 13.535156 C 13.242188 13.492188 13.242188 13.417969 13.289062 13.375 L 14.539062 12.125 C 14.582031 12.078125 14.652344 12.078125 14.699219 12.125 C 14.742188 12.167969 14.742188 12.238281 14.699219 12.285156 L 13.449219 13.535156 C 13.402344 13.578125 13.332031 13.578125 13.289062 13.535156 Z M 13.785156 14.03125 C 13.761719 14.007812 13.761719 13.964844 13.785156 13.941406 L 14.5 13.230469 C 14.523438 13.203125 14.5625 13.203125 14.589844 13.230469 C 14.613281 13.253906 14.613281 13.296875 14.589844 13.320312 L 13.878906 14.03125 C 13.851562 14.058594 13.808594 14.058594 13.785156 14.03125 Z M 14.445312 14.53125 C 14.398438 14.574219 14.328125 14.574219 14.285156 14.53125 C 14.238281 14.484375 14.238281 14.414062 14.285156 14.371094 L 15.535156 13.121094 C 15.578125 13.074219 15.648438 13.074219 15.695312 13.121094 C 15.738281 13.164062 15.738281 13.234375 15.695312 13.28125 Z M 14.445312 14.53125 "/>
</g>
</svg>
