<?xml version="1.0" encoding="UTF-8"?>
<svg xmlns="http://www.w3.org/2000/svg" xmlns:xlink="http://www.w3.org/1999/xlink" width="11" height="10.998861" viewBox="0 0 11 10.998861">
<path fill-rule="nonzero" fill="rgb(30%,30%,30%)" fill-opacity="1" d="M 4.589844 5.761719 L 6.886719 5.761719 C 7.054688 5.761719 7.195312 5.902344 7.195312 6.074219 L 7.195312 10.6875 C 7.195312 10.859375 7.054688 11 6.886719 11 L 4.589844 11 C 4.417969 11 4.28125 10.859375 4.28125 10.6875 L 4.28125 6.074219 C 4.28125 5.902344 4.417969 5.761719 4.589844 5.761719 Z M 4.589844 5.761719 "/>
<path fill-rule="nonzero" fill="rgb(30%,30%,30%)" fill-opacity="1" d="M 5.710938 3.785156 C 5.710938 3.640625 5.59375 3.523438 5.449219 3.523438 L 4.574219 3.523438 C 4.429688 3.523438 4.3125 3.640625 4.3125 3.785156 L 4.3125 5.148438 L 5.710938 5.148438 Z M 5.710938 3.785156 "/>
<path fill-rule="nonzero" fill="rgb(30%,30%,30%)" fill-opacity="1" d="M 4.296875 5.328125 L 4.3125 5.433594 C 4.3125 5.578125 4.429688 5.695312 4.574219 5.695312 L 5.449219 5.695312 C 5.59375 5.695312 5.710938 5.578125 5.710938 5.433594 L 5.695312 5.328125 Z M 4.296875 5.328125 "/>
<path fill-rule="nonzero" fill="rgb(30%,30%,30%)" fill-opacity="1" d="M 4.636719 3.21875 L 4.957031 3.21875 C 5.011719 3.21875 5.058594 3.265625 5.058594 3.320312 L 5.058594 3.355469 C 5.058594 3.414062 5.011719 3.457031 4.957031 3.457031 L 4.636719 3.457031 C 4.578125 3.457031 4.53125 3.414062 4.53125 3.355469 L 4.53125 3.320312 C 4.53125 3.265625 4.578125 3.21875 4.636719 3.21875 Z M 4.636719 3.21875 "/>
<path fill-rule="nonzero" fill="rgb(30%,30%,30%)" fill-opacity="1" d="M 4.699219 2.464844 L 4.882812 2.464844 C 4.976562 2.464844 5.050781 2.542969 5.050781 2.636719 L 5.050781 2.960938 C 5.050781 3.054688 4.976562 3.128906 4.882812 3.128906 L 4.699219 3.128906 C 4.605469 3.128906 4.527344 3.054688 4.527344 2.960938 L 4.527344 2.636719 C 4.527344 2.542969 4.605469 2.464844 4.699219 2.464844 Z M 4.699219 2.464844 "/>
<path fill-rule="nonzero" fill="rgb(30%,30%,30%)" fill-opacity="1" d="M 2.679688 6.308594 C 2.535156 6.292969 2.402344 6.230469 2.269531 6.175781 C 2.003906 6.054688 1.753906 5.894531 1.5625 5.667969 C 1.101562 5.105469 1.335938 4.449219 1.898438 4.074219 C 2.019531 3.992188 2.148438 3.921875 2.285156 3.867188 C 2.285156 3.867188 2.300781 3.890625 2.300781 3.890625 C 2.132812 4.089844 1.957031 4.277344 1.804688 4.488281 C 1.660156 4.707031 1.511719 4.945312 1.554688 5.214844 C 1.632812 5.609375 1.980469 5.894531 2.308594 6.101562 C 2.425781 6.171875 2.546875 6.246094 2.679688 6.28125 C 2.679688 6.28125 2.679688 6.308594 2.679688 6.308594 Z M 2.679688 6.308594 "/>
<path fill-rule="nonzero" fill="rgb(30%,30%,30%)" fill-opacity="1" d="M 1.449219 5.191406 C 1.132812 5.191406 0.148438 5.101562 0.0078125 3.988281 C -0.0664062 3.398438 0.316406 3.023438 0.59375 2.863281 C 0.570312 2.753906 0.542969 2.566406 0.554688 2.355469 C 0.582031 1.898438 0.769531 1.535156 1.101562 1.308594 C 2.050781 0.664062 2.820312 0.957031 3.109375 1.085938 C 3.367188 0.621094 3.695312 0.335938 4.082031 0.230469 C 4.367188 0.152344 4.820312 0.140625 5.402344 0.5 C 5.773438 0.0625 6.363281 -0.109375 6.9375 0.0703125 C 7.445312 0.226562 7.789062 0.605469 7.847656 1.050781 C 7.871094 1.046875 7.894531 1.042969 7.917969 1.042969 C 8.347656 0.988281 9.464844 0.851562 9.695312 2.09375 C 10.070312 2.109375 10.730469 2.503906 10.933594 3.03125 C 11.089844 3.441406 11.046875 4.0625 9.957031 4.691406 L 9.828125 4.460938 C 10.339844 4.167969 10.90625 3.695312 10.6875 3.125 C 10.5 2.644531 9.835938 2.316406 9.644531 2.359375 C 9.570312 2.375 9.507812 2.332031 9.476562 2.292969 L 9.457031 2.265625 L 9.449219 2.230469 C 9.320312 1.269531 8.652344 1.21875 7.949219 1.304688 C 7.78125 1.324219 7.707031 1.335938 7.644531 1.28125 C 7.613281 1.253906 7.59375 1.214844 7.59375 1.171875 C 7.585938 0.792969 7.296875 0.457031 6.859375 0.320312 C 6.457031 0.199219 5.898438 0.246094 5.542969 0.75 C 5.507812 0.800781 5.445312 0.839844 5.328125 0.765625 C 4.792969 0.414062 4.394531 0.421875 4.152344 0.484375 C 3.808594 0.578125 3.519531 0.851562 3.292969 1.308594 C 3.230469 1.425781 3.105469 1.371094 3.039062 1.34375 C 2.8125 1.242188 2.121094 0.9375 1.25 1.527344 C 0.609375 1.964844 0.867188 2.890625 0.871094 2.898438 L 0.902344 3.011719 L 0.796875 3.058594 C 0.769531 3.066406 0.191406 3.324219 0.269531 3.957031 C 0.328125 4.402344 0.546875 4.699219 0.929688 4.839844 C 1.230469 4.949219 1.519531 4.925781 1.519531 4.925781 L 1.546875 5.1875 C 1.542969 5.1875 1.507812 5.191406 1.449219 5.191406 Z M 1.449219 5.191406 "/>
<path fill-rule="nonzero" fill="rgb(30%,30%,30%)" fill-opacity="1" d="M 8.75 3.496094 C 9.285156 3.5625 9.828125 3.921875 9.914062 4.492188 C 9.960938 4.773438 9.925781 5.070312 9.796875 5.324219 C 9.492188 5.925781 8.722656 6.121094 8.097656 6.027344 C 8.097656 6.027344 8.097656 6.003906 8.097656 6.003906 C 8.269531 5.957031 8.433594 5.910156 8.59375 5.855469 C 9.035156 5.691406 9.535156 5.46875 9.691406 4.996094 C 9.84375 4.492188 9.679688 3.996094 9.21875 3.722656 C 9.074219 3.632812 8.910156 3.5625 8.746094 3.519531 C 8.746094 3.519531 8.75 3.496094 8.75 3.496094 Z M 8.75 3.496094 "/>
<path fill-rule="nonzero" fill="rgb(30%,30%,30%)" fill-opacity="1" d="M 7.519531 2.085938 C 7.765625 1.976562 8.070312 1.902344 8.328125 2.035156 C 8.644531 2.195312 8.65625 2.585938 8.433594 2.828125 C 8.433594 2.828125 8.410156 2.824219 8.410156 2.824219 C 8.386719 2.757812 8.375 2.695312 8.363281 2.628906 C 8.285156 2.292969 8.289062 2.152344 7.902344 2.105469 C 7.78125 2.089844 7.65625 2.097656 7.527344 2.113281 C 7.527344 2.113281 7.519531 2.085938 7.519531 2.085938 Z M 7.519531 2.085938 "/>
<path fill-rule="nonzero" fill="rgb(30%,30%,30%)" fill-opacity="1" d="M 5.289062 1.445312 C 5.105469 1.375 4.875 1.308594 4.71875 1.445312 C 4.65625 1.507812 4.648438 1.597656 4.605469 1.675781 C 4.5625 1.765625 4.519531 1.867188 4.441406 1.976562 L 4.414062 1.976562 C 4.183594 1.566406 4.542969 1.089844 4.996094 1.238281 C 5.113281 1.28125 5.214844 1.34375 5.300781 1.421875 Z M 5.289062 1.445312 "/>
<path fill-rule="nonzero" fill="rgb(30%,30%,30%)" fill-opacity="1" d="M 4.621094 2.15625 C 4.273438 2 3.753906 1.835938 3.453125 2.121094 C 3.335938 2.242188 3.300781 2.425781 3.265625 2.585938 C 3.207031 2.816406 3.1875 3.050781 3.125 3.304688 C 3.125 3.304688 3.097656 3.308594 3.097656 3.308594 C 3.054688 3.199219 3.023438 3.089844 3.003906 2.972656 C 2.878906 2.316406 3.285156 1.652344 4.023438 1.84375 C 4.246094 1.902344 4.449219 2.003906 4.636719 2.132812 C 4.636719 2.132812 4.621094 2.15625 4.621094 2.15625 Z M 4.621094 2.15625 "/>
</svg>
