<?xml version="1.0" encoding="UTF-8" standalone="no"?>
<!-- Created with Inkscape (http://www.inkscape.org/) -->

<svg
   xmlns:dc="http://purl.org/dc/elements/1.1/"
   xmlns:cc="http://creativecommons.org/ns#"
   xmlns:rdf="http://www.w3.org/1999/02/22-rdf-syntax-ns#"
   xmlns:svg="http://www.w3.org/2000/svg"
   xmlns="http://www.w3.org/2000/svg"
   xmlns:xlink="http://www.w3.org/1999/xlink"
   xmlns:sodipodi="http://sodipodi.sourceforge.net/DTD/sodipodi-0.dtd"
   xmlns:inkscape="http://www.inkscape.org/namespaces/inkscape"
   width="30px"
   height="30px"
   version="1.1"
   id="svg8"
   inkscape:version="0.92.4 5da689c313, 2019-01-14"
   sodipodi:docname="container.svg">
  <defs
     id="defs2" />
  <sodipodi:namedview
     id="base"
     pagecolor="#ffffff"
     bordercolor="#666666"
     borderopacity="1.0"
     inkscape:pageopacity="0.0"
     inkscape:pageshadow="2"
     inkscape:zoom="13.049334"
     inkscape:cx="18.679046"
     inkscape:cy="12.165829"
     inkscape:document-units="px"
     inkscape:current-layer="layer1"
     showgrid="false"
     inkscape:snap-page="false"
     units="px"
     inkscape:window-width="1884"
     inkscape:window-height="1061"
     inkscape:window-x="0"
     inkscape:window-y="0"
     inkscape:window-maximized="1"
     fit-margin-top="0"
     fit-margin-left="0"
     fit-margin-right="0"
     fit-margin-bottom="0" />
  <metadata
     id="metadata5">
    <rdf:RDF>
      <cc:Work
         rdf:about="">
        <dc:format>image/svg+xml</dc:format>
        <dc:type
           rdf:resource="http://purl.org/dc/dcmitype/StillImage" />
        <dc:title></dc:title>
      </cc:Work>
    </rdf:RDF>
  </metadata>
    <circle
       style="color:#000000;clip-rule:nonzero;display:inline;overflow:visible;visibility:visible;opacity:1;isolation:auto;mix-blend-mode:normal;color-interpolation:sRGB;color-interpolation-filters:linearRGB;solid-color:#000000;solid-opacity:1;vector-effect:none;fill:#7093c3;fill-opacity:1;fill-rule:evenodd;stroke:#ffffff;stroke-width:1;stroke-linecap:butt;stroke-linejoin:miter;stroke-miterlimit:4;stroke-dasharray:none;stroke-dashoffset:0;stroke-opacity:1;marker:none;color-rendering:auto;image-rendering:auto;shape-rendering:auto;text-rendering:auto;enable-background:accumulate"
       id="path815"
       cx="15"
       cy="15"
       r="14.5" />
<g transform="translate(6.5,7.0)"><path fill-rule="nonzero" fill="#FFFFFF" fill-opacity="1" d="M 16.1875 0 L 0.8125 0 C 0.367188 0 0 0.367188 0 0.8125 L 0 4.441406 C 0 4.886719 0.367188 5.253906 0.8125 5.253906 L 4.03125 5.253906 C 3.171875 6.472656 2.78125 7.425781 2.726562 8.222656 C 2.71875 8.339844 2.617188 8.433594 2.5 8.433594 L 1.726562 8.429688 C 1.394531 8.429688 1.121094 8.699219 1.121094 9.035156 C 1.121094 9.308594 1.160156 9.617188 1.84375 9.746094 C 1.996094 9.777344 2.074219 9.945312 2 10.082031 C 1.816406 10.425781 1.796875 10.796875 1.796875 11.175781 C 1.796875 11.667969 1.964844 12.398438 2.335938 12.910156 C 2.371094 12.957031 2.382812 13.015625 2.378906 13.074219 C 2.375 13.109375 2.371094 13.144531 2.371094 13.179688 L 2.371094 14.398438 C 2.371094 15.011719 2.871094 15.511719 3.484375 15.511719 L 3.558594 15.511719 C 4.171875 15.511719 4.671875 15.011719 4.671875 14.398438 L 4.671875 13.917969 C 4.675781 13.917969 4.679688 13.917969 4.6875 13.921875 C 5.660156 14 10.585938 14.007812 12.207031 13.914062 C 12.335938 13.90625 12.445312 14.011719 12.445312 14.140625 L 12.445312 14.398438 C 12.445312 15.011719 12.949219 15.511719 13.5625 15.511719 L 13.632812 15.511719 C 14.246094 15.511719 14.75 15.011719 14.75 14.398438 L 14.75 13.179688 C 14.75 13.160156 14.746094 13.136719 14.746094 13.117188 C 14.742188 13.0625 14.753906 13.003906 14.789062 12.957031 C 15.132812 12.476562 15.269531 11.648438 15.269531 11.175781 C 15.269531 10.808594 15.246094 10.402344 15.0625 10.050781 C 14.992188 9.921875 15.058594 9.765625 15.199219 9.722656 C 15.21875 9.71875 15.242188 9.710938 15.261719 9.707031 C 15.773438 9.546875 15.96875 9.367188 15.96875 9.035156 C 15.96875 8.699219 15.699219 8.429688 15.367188 8.429688 L 14.472656 8.417969 C 14.351562 8.417969 14.214844 8.328125 14.195312 8.210938 C 14.027344 7.171875 13.683594 6.40625 12.984375 5.253906 L 16.1875 5.253906 C 16.632812 5.253906 17 4.886719 17 4.441406 L 17 0.8125 C 17 0.367188 16.632812 0 16.1875 0 Z M 4.589844 12.847656 C 4.066406 12.847656 3.640625 12.421875 3.640625 11.898438 C 3.640625 11.371094 4.066406 10.945312 4.589844 10.945312 C 5.117188 10.945312 5.542969 11.371094 5.542969 11.898438 C 5.542969 12.421875 5.117188 12.847656 4.589844 12.847656 Z M 12.6875 12.847656 C 12.160156 12.847656 11.734375 12.421875 11.734375 11.898438 C 11.734375 11.371094 12.160156 10.945312 12.6875 10.945312 C 13.210938 10.945312 13.636719 11.371094 13.636719 11.898438 C 13.636719 12.421875 13.210938 12.847656 12.6875 12.847656 Z M 8.363281 10.40625 C 5.511719 10.40625 3.191406 10.074219 3.277344 8.765625 C 3.488281 5.585938 5.21875 5.40625 7.699219 5.398438 L 8.40625 5.398438 C 11.257812 5.398438 13.546875 5.609375 13.613281 8.765625 C 13.640625 10.078125 11.21875 10.40625 8.363281 10.40625 Z M 1.5625 3.929688 C 1.515625 3.929688 1.464844 3.921875 1.402344 3.910156 C 1.339844 3.898438 1.289062 3.875 1.242188 3.839844 C 1.195312 3.804688 1.171875 3.757812 1.167969 3.695312 L 1.167969 3.273438 C 1.164062 3.214844 1.148438 3.171875 1.113281 3.140625 C 1.082031 3.113281 1.046875 3.097656 1.007812 3.097656 C 0.964844 3.097656 0.925781 3.113281 0.890625 3.144531 C 0.855469 3.175781 0.832031 3.21875 0.828125 3.277344 L 0.816406 3.660156 C 0.808594 3.75 0.769531 3.820312 0.699219 3.863281 C 0.625 3.90625 0.546875 3.929688 0.460938 3.929688 C 0.398438 3.929688 0.339844 3.917969 0.285156 3.898438 C 0.230469 3.878906 0.183594 3.847656 0.148438 3.804688 C 0.109375 3.761719 0.09375 3.707031 0.09375 3.644531 L 0.09375 3.632812 C 0.105469 3.289062 0.132812 2.957031 0.179688 2.632812 C 0.238281 2.207031 0.328125 1.863281 0.453125 1.601562 C 0.597656 1.285156 0.789062 1.125 1.023438 1.125 C 1.167969 1.128906 1.292969 1.195312 1.390625 1.320312 C 1.492188 1.445312 1.574219 1.609375 1.636719 1.8125 C 1.699219 2.011719 1.75 2.226562 1.78125 2.457031 C 1.816406 2.6875 1.839844 2.910156 1.855469 3.125 C 1.867188 3.339844 1.875 3.519531 1.875 3.667969 C 1.875 3.734375 1.84375 3.796875 1.773438 3.847656 C 1.707031 3.902344 1.636719 3.929688 1.5625 3.929688 Z M 1.003906 2.527344 C 1.03125 2.527344 1.054688 2.511719 1.078125 2.480469 C 1.101562 2.445312 1.109375 2.398438 1.109375 2.332031 C 1.109375 2.304688 1.109375 2.277344 1.105469 2.246094 C 1.078125 2.078125 1.050781 1.996094 1.019531 1.996094 C 0.984375 1.996094 0.953125 2.085938 0.917969 2.273438 C 0.910156 2.304688 0.910156 2.332031 0.910156 2.359375 C 0.910156 2.414062 0.917969 2.457031 0.9375 2.484375 C 0.957031 2.515625 0.980469 2.527344 1.003906 2.527344 Z M 2.878906 3.929688 L 2.859375 3.929688 C 2.71875 3.929688 2.597656 3.894531 2.496094 3.820312 C 2.398438 3.746094 2.316406 3.648438 2.25 3.523438 C 2.183594 3.398438 2.128906 3.257812 2.09375 3.101562 C 2.054688 2.945312 2.027344 2.785156 2.011719 2.613281 C 1.996094 2.445312 1.988281 2.28125 1.988281 2.121094 C 1.988281 1.824219 2.003906 1.566406 2.042969 1.347656 C 2.054688 1.269531 2.089844 1.214844 2.148438 1.179688 C 2.207031 1.144531 2.273438 1.125 2.347656 1.125 C 2.40625 1.125 2.46875 1.136719 2.527344 1.160156 C 2.585938 1.183594 2.632812 1.21875 2.671875 1.261719 C 2.710938 1.308594 2.730469 1.359375 2.730469 1.425781 C 2.730469 1.480469 2.722656 1.554688 2.714844 1.640625 C 2.691406 1.855469 2.679688 2.054688 2.679688 2.238281 C 2.679688 2.347656 2.6875 2.449219 2.695312 2.542969 C 2.707031 2.636719 2.726562 2.714844 2.757812 2.773438 C 2.785156 2.832031 2.824219 2.859375 2.878906 2.859375 C 2.9375 2.859375 2.980469 2.835938 3.015625 2.785156 C 3.046875 2.734375 3.070312 2.667969 3.085938 2.582031 C 3.097656 2.496094 3.105469 2.40625 3.105469 2.304688 C 3.105469 2.078125 3.078125 1.816406 3.027344 1.515625 C 3.027344 1.496094 3.023438 1.476562 3.023438 1.457031 C 3.023438 1.382812 3.042969 1.324219 3.082031 1.277344 C 3.121094 1.226562 3.171875 1.191406 3.230469 1.164062 C 3.289062 1.136719 3.347656 1.125 3.410156 1.125 C 3.476562 1.125 3.539062 1.140625 3.589844 1.175781 C 3.644531 1.207031 3.679688 1.253906 3.695312 1.320312 C 3.742188 1.582031 3.765625 1.867188 3.765625 2.179688 C 3.765625 2.386719 3.753906 2.597656 3.722656 2.800781 C 3.695312 3.007812 3.644531 3.195312 3.578125 3.367188 C 3.507812 3.535156 3.417969 3.667969 3.304688 3.769531 C 3.191406 3.871094 3.046875 3.925781 2.878906 3.929688 Z M 4.738281 3.9375 C 4.660156 3.9375 4.589844 3.914062 4.527344 3.867188 C 4.464844 3.824219 4.429688 3.75 4.421875 3.648438 C 4.386719 3.203125 4.371094 2.765625 4.371094 2.335938 L 4.371094 2.070312 C 4.371094 2.007812 4.371094 1.960938 4.363281 1.933594 C 4.355469 1.90625 4.335938 1.890625 4.308594 1.890625 C 4.285156 1.890625 4.257812 1.898438 4.226562 1.910156 C 4.191406 1.921875 4.148438 1.9375 4.09375 1.957031 C 4.074219 1.964844 4.058594 1.964844 4.042969 1.964844 C 4.003906 1.964844 3.96875 1.949219 3.941406 1.914062 C 3.914062 1.878906 3.894531 1.835938 3.882812 1.777344 C 3.871094 1.722656 3.863281 1.664062 3.863281 1.601562 C 3.863281 1.503906 3.878906 1.414062 3.910156 1.332031 C 3.941406 1.246094 3.984375 1.195312 4.042969 1.183594 C 4.28125 1.144531 4.515625 1.125 4.753906 1.125 C 4.992188 1.125 5.230469 1.144531 5.464844 1.183594 C 5.527344 1.195312 5.574219 1.246094 5.605469 1.324219 C 5.640625 1.40625 5.65625 1.492188 5.65625 1.585938 C 5.65625 1.652344 5.648438 1.710938 5.632812 1.769531 C 5.617188 1.828125 5.597656 1.875 5.566406 1.910156 C 5.539062 1.945312 5.503906 1.964844 5.460938 1.964844 C 5.445312 1.964844 5.429688 1.960938 5.414062 1.957031 L 5.347656 1.9375 C 5.277344 1.914062 5.226562 1.898438 5.191406 1.898438 C 5.160156 1.898438 5.136719 1.914062 5.125 1.941406 C 5.113281 1.972656 5.109375 2.023438 5.109375 2.09375 L 5.109375 2.222656 C 5.109375 2.691406 5.117188 3.152344 5.132812 3.605469 L 5.132812 3.613281 C 5.132812 3.679688 5.113281 3.738281 5.074219 3.785156 C 5.035156 3.832031 4.984375 3.871094 4.921875 3.898438 C 4.863281 3.925781 4.800781 3.9375 4.738281 3.9375 Z M 6.535156 3.910156 C 6.421875 3.910156 6.3125 3.882812 6.203125 3.828125 C 6.097656 3.769531 6 3.683594 5.914062 3.570312 C 5.828125 3.457031 5.757812 3.3125 5.707031 3.140625 C 5.65625 2.96875 5.628906 2.769531 5.628906 2.539062 C 5.632812 2.230469 5.679688 1.96875 5.765625 1.761719 C 5.851562 1.554688 5.964844 1.402344 6.101562 1.296875 C 6.242188 1.195312 6.386719 1.144531 6.535156 1.144531 C 6.6875 1.144531 6.832031 1.195312 6.96875 1.296875 C 7.105469 1.402344 7.21875 1.554688 7.304688 1.761719 C 7.390625 1.96875 7.4375 2.230469 7.4375 2.539062 C 7.4375 2.769531 7.414062 2.96875 7.363281 3.140625 C 7.3125 3.3125 7.242188 3.457031 7.15625 3.570312 C 7.070312 3.683594 6.972656 3.769531 6.867188 3.828125 C 6.757812 3.882812 6.648438 3.910156 6.535156 3.910156 Z M 6.539062 2.769531 C 6.613281 2.765625 6.667969 2.726562 6.703125 2.65625 C 6.738281 2.589844 6.753906 2.507812 6.753906 2.421875 C 6.753906 2.359375 6.746094 2.296875 6.730469 2.238281 C 6.710938 2.175781 6.6875 2.128906 6.652344 2.089844 C 6.621094 2.050781 6.582031 2.03125 6.535156 2.03125 C 6.488281 2.03125 6.449219 2.050781 6.414062 2.089844 C 6.382812 2.128906 6.355469 2.175781 6.339844 2.238281 C 6.320312 2.296875 6.3125 2.359375 6.3125 2.421875 C 6.3125 2.480469 6.320312 2.535156 6.335938 2.589844 C 6.351562 2.640625 6.375 2.683594 6.410156 2.71875 C 6.441406 2.75 6.484375 2.769531 6.535156 2.769531 Z M 9.367188 3.910156 C 9.265625 3.910156 9.160156 3.910156 9.046875 3.90625 C 8.9375 3.90625 8.84375 3.890625 8.773438 3.867188 C 8.703125 3.84375 8.644531 3.796875 8.601562 3.726562 C 8.5625 3.65625 8.53125 3.546875 8.507812 3.402344 C 8.460938 3.074219 8.441406 2.75 8.441406 2.425781 C 8.441406 2.105469 8.457031 1.800781 8.496094 1.507812 C 8.507812 1.382812 8.546875 1.289062 8.605469 1.226562 C 8.667969 1.164062 8.773438 1.132812 8.925781 1.128906 L 9.195312 1.128906 C 9.402344 1.128906 9.585938 1.140625 9.742188 1.15625 C 9.789062 1.167969 9.828125 1.207031 9.851562 1.277344 C 9.878906 1.34375 9.890625 1.417969 9.890625 1.5 C 9.890625 1.558594 9.882812 1.613281 9.871094 1.667969 C 9.859375 1.71875 9.839844 1.761719 9.816406 1.796875 C 9.792969 1.832031 9.761719 1.847656 9.726562 1.847656 C 9.65625 1.84375 9.589844 1.839844 9.523438 1.832031 C 9.457031 1.824219 9.386719 1.820312 9.3125 1.820312 C 9.257812 1.820312 9.214844 1.84375 9.1875 1.886719 C 9.160156 1.929688 9.148438 1.976562 9.148438 2.023438 C 9.148438 2.070312 9.15625 2.113281 9.179688 2.148438 C 9.203125 2.1875 9.238281 2.207031 9.285156 2.207031 C 9.339844 2.203125 9.390625 2.199219 9.433594 2.191406 C 9.472656 2.183594 9.519531 2.183594 9.570312 2.183594 L 9.601562 2.183594 C 9.652344 2.1875 9.691406 2.222656 9.71875 2.292969 C 9.742188 2.359375 9.757812 2.433594 9.757812 2.511719 C 9.757812 2.574219 9.746094 2.632812 9.726562 2.683594 C 9.703125 2.734375 9.671875 2.761719 9.628906 2.761719 L 9.292969 2.761719 C 9.25 2.761719 9.21875 2.777344 9.199219 2.8125 C 9.179688 2.847656 9.167969 2.886719 9.167969 2.929688 C 9.167969 2.976562 9.179688 3.023438 9.207031 3.066406 C 9.230469 3.109375 9.269531 3.132812 9.320312 3.132812 C 9.402344 3.128906 9.476562 3.125 9.539062 3.117188 C 9.601562 3.109375 9.664062 3.105469 9.730469 3.105469 C 9.765625 3.105469 9.796875 3.125 9.820312 3.160156 C 9.84375 3.199219 9.863281 3.246094 9.875 3.308594 C 9.886719 3.367188 9.890625 3.429688 9.890625 3.492188 C 9.890625 3.589844 9.878906 3.675781 9.855469 3.757812 C 9.828125 3.835938 9.792969 3.882812 9.742188 3.890625 C 9.636719 3.90625 9.511719 3.910156 9.367188 3.910156 Z M 9.070312 0.992188 C 9.039062 0.992188 9.011719 0.976562 8.988281 0.941406 C 8.964844 0.910156 8.953125 0.875 8.953125 0.835938 C 8.953125 0.789062 8.996094 0.703125 9.082031 0.585938 C 9.132812 0.519531 9.183594 0.457031 9.234375 0.402344 C 9.285156 0.347656 9.320312 0.308594 9.347656 0.292969 C 9.371094 0.273438 9.398438 0.265625 9.421875 0.265625 C 9.46875 0.265625 9.507812 0.289062 9.542969 0.335938 C 9.578125 0.382812 9.597656 0.433594 9.597656 0.484375 C 9.597656 0.535156 9.578125 0.574219 9.539062 0.601562 C 9.445312 0.671875 9.371094 0.730469 9.308594 0.78125 C 9.25 0.835938 9.191406 0.894531 9.132812 0.960938 C 9.113281 0.980469 9.089844 0.992188 9.070312 0.992188 Z M 10.953125 3.917969 C 10.789062 3.917969 10.648438 3.878906 10.527344 3.800781 C 10.40625 3.722656 10.308594 3.617188 10.226562 3.488281 C 10.148438 3.355469 10.085938 3.207031 10.046875 3.042969 C 10.007812 2.878906 9.988281 2.710938 9.988281 2.539062 C 9.988281 2.363281 10.007812 2.195312 10.046875 2.027344 C 10.089844 1.859375 10.148438 1.710938 10.226562 1.578125 C 10.308594 1.445312 10.40625 1.339844 10.527344 1.257812 C 10.644531 1.179688 10.785156 1.140625 10.941406 1.140625 C 11.074219 1.140625 11.207031 1.183594 11.335938 1.265625 C 11.460938 1.351562 11.578125 1.480469 11.683594 1.65625 C 11.707031 1.707031 11.722656 1.753906 11.722656 1.800781 C 11.722656 1.871094 11.699219 1.9375 11.65625 2 C 11.609375 2.0625 11.558594 2.117188 11.492188 2.15625 C 11.429688 2.195312 11.367188 2.214844 11.308594 2.214844 C 11.234375 2.214844 11.179688 2.179688 11.144531 2.109375 C 11.082031 1.988281 11.023438 1.925781 10.960938 1.925781 L 10.953125 1.925781 C 10.859375 1.933594 10.789062 1.988281 10.742188 2.097656 C 10.695312 2.203125 10.671875 2.324219 10.671875 2.464844 C 10.671875 2.554688 10.679688 2.644531 10.703125 2.726562 C 10.722656 2.8125 10.757812 2.878906 10.800781 2.929688 C 10.84375 2.984375 10.898438 3.011719 10.964844 3.011719 C 11.015625 3.011719 11.0625 2.988281 11.105469 2.941406 C 11.152344 2.898438 11.191406 2.828125 11.226562 2.734375 C 11.242188 2.695312 11.273438 2.675781 11.320312 2.675781 C 11.363281 2.675781 11.414062 2.691406 11.46875 2.71875 C 11.527344 2.746094 11.582031 2.78125 11.632812 2.828125 C 11.6875 2.875 11.730469 2.929688 11.765625 2.988281 C 11.800781 3.046875 11.816406 3.105469 11.816406 3.167969 C 11.816406 3.210938 11.808594 3.253906 11.789062 3.296875 C 11.679688 3.507812 11.554688 3.664062 11.40625 3.765625 C 11.257812 3.867188 11.105469 3.917969 10.953125 3.917969 Z M 12.773438 3.910156 C 12.660156 3.910156 12.546875 3.882812 12.441406 3.828125 C 12.332031 3.769531 12.238281 3.683594 12.148438 3.570312 C 12.0625 3.457031 11.996094 3.3125 11.945312 3.140625 C 11.894531 2.96875 11.867188 2.769531 11.867188 2.539062 C 11.871094 2.230469 11.914062 1.96875 12.003906 1.761719 C 12.089844 1.554688 12.199219 1.402344 12.339844 1.296875 C 12.476562 1.195312 12.621094 1.144531 12.773438 1.144531 C 12.925781 1.144531 13.070312 1.195312 13.207031 1.296875 C 13.34375 1.402344 13.457031 1.554688 13.542969 1.761719 C 13.628906 1.96875 13.671875 2.230469 13.675781 2.539062 C 13.675781 2.769531 13.652344 2.96875 13.597656 3.140625 C 13.546875 3.3125 13.480469 3.457031 13.394531 3.570312 C 13.308594 3.683594 13.210938 3.769531 13.101562 3.828125 C 12.996094 3.882812 12.886719 3.910156 12.773438 3.910156 Z M 12.773438 2.769531 C 12.851562 2.765625 12.90625 2.726562 12.941406 2.65625 C 12.972656 2.589844 12.992188 2.507812 12.992188 2.421875 C 12.992188 2.359375 12.984375 2.296875 12.964844 2.238281 C 12.949219 2.175781 12.921875 2.128906 12.890625 2.089844 C 12.859375 2.050781 12.820312 2.03125 12.773438 2.03125 C 12.726562 2.03125 12.683594 2.050781 12.652344 2.089844 C 12.617188 2.128906 12.59375 2.175781 12.578125 2.238281 C 12.558594 2.296875 12.550781 2.359375 12.550781 2.421875 C 12.550781 2.480469 12.558594 2.535156 12.574219 2.589844 C 12.589844 2.640625 12.613281 2.683594 12.644531 2.71875 C 12.679688 2.75 12.722656 2.769531 12.773438 2.769531 Z M 14.542969 3.925781 L 14.5 3.925781 C 14.390625 3.925781 14.296875 3.917969 14.21875 3.898438 C 14.140625 3.878906 14.074219 3.832031 14.027344 3.757812 C 13.980469 3.6875 13.945312 3.570312 13.921875 3.414062 C 13.871094 3.078125 13.847656 2.742188 13.847656 2.402344 C 13.847656 1.992188 13.882812 1.617188 13.945312 1.273438 C 13.957031 1.226562 13.996094 1.191406 14.066406 1.164062 C 14.136719 1.136719 14.210938 1.121094 14.296875 1.121094 C 14.394531 1.121094 14.480469 1.140625 14.546875 1.179688 C 14.609375 1.214844 14.644531 1.277344 14.644531 1.363281 C 14.644531 1.398438 14.640625 1.480469 14.632812 1.617188 C 14.609375 1.996094 14.601562 2.289062 14.601562 2.503906 C 14.601562 2.84375 14.617188 3.035156 14.65625 3.074219 C 14.671875 3.09375 14.703125 3.101562 14.742188 3.101562 C 14.777344 3.101562 14.820312 3.097656 14.875 3.085938 C 14.9375 3.078125 15.015625 3.066406 15.113281 3.058594 C 15.117188 3.058594 15.121094 3.058594 15.121094 3.054688 L 15.140625 3.054688 C 15.183594 3.054688 15.21875 3.074219 15.25 3.109375 C 15.277344 3.148438 15.296875 3.195312 15.308594 3.25 C 15.324219 3.308594 15.328125 3.367188 15.328125 3.429688 C 15.328125 3.535156 15.316406 3.628906 15.285156 3.71875 C 15.253906 3.808594 15.214844 3.863281 15.160156 3.875 C 14.992188 3.90625 14.785156 3.925781 14.542969 3.925781 Z M 16.332031 3.910156 C 16.230469 3.910156 16.121094 3.910156 16.011719 3.90625 C 15.898438 3.90625 15.804688 3.890625 15.734375 3.867188 C 15.664062 3.84375 15.605469 3.796875 15.566406 3.726562 C 15.523438 3.65625 15.492188 3.546875 15.46875 3.402344 C 15.425781 3.074219 15.402344 2.75 15.402344 2.425781 C 15.402344 2.105469 15.421875 1.800781 15.457031 1.507812 C 15.46875 1.382812 15.507812 1.289062 15.566406 1.226562 C 15.628906 1.164062 15.734375 1.132812 15.890625 1.128906 L 16.15625 1.128906 C 16.367188 1.128906 16.546875 1.140625 16.703125 1.15625 C 16.753906 1.167969 16.789062 1.207031 16.8125 1.277344 C 16.839844 1.34375 16.851562 1.417969 16.851562 1.5 C 16.851562 1.558594 16.84375 1.613281 16.832031 1.667969 C 16.820312 1.71875 16.804688 1.761719 16.777344 1.796875 C 16.753906 1.832031 16.722656 1.847656 16.6875 1.847656 C 16.621094 1.84375 16.550781 1.839844 16.484375 1.832031 C 16.417969 1.824219 16.347656 1.820312 16.273438 1.820312 C 16.21875 1.820312 16.179688 1.84375 16.148438 1.886719 C 16.121094 1.929688 16.109375 1.976562 16.109375 2.023438 C 16.109375 2.070312 16.121094 2.113281 16.144531 2.148438 C 16.164062 2.1875 16.199219 2.207031 16.246094 2.207031 C 16.300781 2.203125 16.351562 2.199219 16.394531 2.191406 C 16.4375 2.183594 16.480469 2.183594 16.53125 2.183594 L 16.566406 2.183594 C 16.613281 2.1875 16.652344 2.222656 16.679688 2.292969 C 16.707031 2.359375 16.71875 2.433594 16.71875 2.511719 C 16.71875 2.574219 16.710938 2.632812 16.6875 2.683594 C 16.667969 2.734375 16.632812 2.761719 16.589844 2.761719 L 16.253906 2.761719 C 16.210938 2.761719 16.179688 2.777344 16.160156 2.8125 C 16.140625 2.847656 16.128906 2.886719 16.128906 2.929688 C 16.128906 2.976562 16.144531 3.023438 16.167969 3.066406 C 16.195312 3.109375 16.230469 3.132812 16.28125 3.132812 C 16.363281 3.128906 16.4375 3.125 16.503906 3.117188 C 16.5625 3.109375 16.628906 3.105469 16.695312 3.105469 C 16.730469 3.105469 16.757812 3.125 16.78125 3.160156 C 16.808594 3.199219 16.824219 3.246094 16.835938 3.308594 C 16.847656 3.367188 16.851562 3.429688 16.851562 3.492188 C 16.851562 3.589844 16.839844 3.675781 16.816406 3.757812 C 16.789062 3.835938 16.753906 3.882812 16.703125 3.890625 C 16.597656 3.90625 16.472656 3.910156 16.332031 3.910156 Z M 16.332031 3.910156 "/>
</g>
</svg>
