<?xml version="1.0" encoding="UTF-8" standalone="no"?>
<!-- Created with Inkscape (http://www.inkscape.org/) -->

<svg
   xmlns:dc="http://purl.org/dc/elements/1.1/"
   xmlns:cc="http://creativecommons.org/ns#"
   xmlns:rdf="http://www.w3.org/1999/02/22-rdf-syntax-ns#"
   xmlns:svg="http://www.w3.org/2000/svg"
   xmlns="http://www.w3.org/2000/svg"
   xmlns:xlink="http://www.w3.org/1999/xlink"
   xmlns:sodipodi="http://sodipodi.sourceforge.net/DTD/sodipodi-0.dtd"
   xmlns:inkscape="http://www.inkscape.org/namespaces/inkscape"
   width="30px"
   height="30px"
   version="1.1"
   id="svg8"
   inkscape:version="0.92.4 5da689c313, 2019-01-14"
   sodipodi:docname="container.svg">
  <defs
     id="defs2" />
  <sodipodi:namedview
     id="base"
     pagecolor="#ffffff"
     bordercolor="#666666"
     borderopacity="1.0"
     inkscape:pageopacity="0.0"
     inkscape:pageshadow="2"
     inkscape:zoom="13.049334"
     inkscape:cx="18.679046"
     inkscape:cy="12.165829"
     inkscape:document-units="px"
     inkscape:current-layer="layer1"
     showgrid="false"
     inkscape:snap-page="false"
     units="px"
     inkscape:window-width="1884"
     inkscape:window-height="1061"
     inkscape:window-x="0"
     inkscape:window-y="0"
     inkscape:window-maximized="1"
     fit-margin-top="0"
     fit-margin-left="0"
     fit-margin-right="0"
     fit-margin-bottom="0" />
  <metadata
     id="metadata5">
    <rdf:RDF>
      <cc:Work
         rdf:about="">
        <dc:format>image/svg+xml</dc:format>
        <dc:type
           rdf:resource="http://purl.org/dc/dcmitype/StillImage" />
        <dc:title></dc:title>
      </cc:Work>
    </rdf:RDF>
  </metadata>
    <circle
       style="color:#000000;clip-rule:nonzero;display:inline;overflow:visible;visibility:visible;opacity:1;isolation:auto;mix-blend-mode:normal;color-interpolation:sRGB;color-interpolation-filters:linearRGB;solid-color:#000000;solid-opacity:1;vector-effect:none;fill:#ffffff;fill-opacity:1;fill-rule:evenodd;stroke:#2a62ac;stroke-width:1;stroke-linecap:butt;stroke-linejoin:miter;stroke-miterlimit:4;stroke-dasharray:none;stroke-dashoffset:0;stroke-opacity:1;marker:none;color-rendering:auto;image-rendering:auto;shape-rendering:auto;text-rendering:auto;enable-background:accumulate"
       id="path815"
       cx="15"
       cy="15"
       r="14.5" />
<g transform="translate(6.5,7.0)"><path fill-rule="nonzero" fill="rgb(30%,30%,30%)" fill-opacity="1" d="M 10.03125 11.726562 C 10.089844 11.800781 10.160156 11.863281 10.238281 11.910156 L 16.410156 11.910156 C 16.4375 11.910156 16.460938 11.898438 16.476562 11.878906 C 16.496094 11.859375 16.503906 11.835938 16.503906 11.808594 L 15.851562 3.25 C 15.847656 3.199219 15.808594 3.164062 15.757812 3.164062 L 14.082031 3.164062 L 14.082031 2.699219 C 14.082031 1.210938 12.875 0 11.386719 0 C 9.898438 0 8.6875 1.210938 8.6875 2.699219 L 8.6875 3.164062 L 7.011719 3.164062 C 6.964844 3.164062 6.921875 3.199219 6.917969 3.25 L 6.417969 9.84375 C 6.515625 9.828125 6.621094 9.816406 6.726562 9.804688 C 8.554688 9.578125 9.578125 11.171875 10.03125 11.726562 Z M 9.453125 2.71875 C 9.453125 1.644531 10.332031 0.765625 11.40625 0.765625 C 12.484375 0.765625 13.363281 1.644531 13.363281 2.71875 L 13.363281 3.183594 L 9.453125 3.183594 Z M 9.453125 2.71875 "/>
<path fill-rule="nonzero" fill="rgb(30%,30%,30%)" fill-opacity="1" d="M 16.03125 12.570312 L 12.75 13.4375 C 12.75 13.4375 13.015625 14.320312 12.691406 14.371094 C 11.695312 14.523438 9.335938 14.191406 9.335938 14.191406 C 9.335938 14.191406 7.910156 13.484375 7.4375 13.171875 C 7.230469 13.039062 7.410156 12.949219 7.589844 13.050781 L 9.398438 13.984375 C 9.484375 14.027344 9.578125 14.058594 9.675781 14.066406 L 10.660156 14.175781 C 11.101562 14.222656 12.578125 14.3125 12.636719 14.152344 C 12.746094 13.863281 12.613281 13.152344 11.671875 12.820312 C 11.058594 12.605469 10.550781 12.457031 10.261719 12.382812 C 10.179688 12.359375 10.105469 12.328125 10.039062 12.285156 C 9.960938 12.238281 9.890625 12.175781 9.832031 12.105469 C 9.378906 11.546875 8.355469 9.953125 6.527344 10.179688 C 6.421875 10.191406 6.320312 10.203125 6.21875 10.21875 C 2.878906 10.640625 3.371094 10.800781 0 11.234375 L 0.558594 15.226562 L 3.988281 14.710938 C 4.398438 14.652344 4.785156 14.855469 4.953125 14.917969 L 8.808594 16.425781 C 8.867188 16.449219 8.929688 16.457031 8.992188 16.449219 L 13.105469 15.886719 C 13.140625 15.882812 13.488281 15.832031 13.519531 15.8125 C 13.910156 15.550781 16.390625 13.992188 16.851562 13.554688 C 17.238281 13.1875 16.832031 12.320312 16.03125 12.570312 Z M 16.03125 12.570312 "/>
</g>
</svg>
