<?xml version="1.0" encoding="UTF-8"?>
<svg xmlns="http://www.w3.org/2000/svg" xmlns:xlink="http://www.w3.org/1999/xlink" width="10.813559" height="11" viewBox="0 0 10.813559 11">
<path fill-rule="nonzero" fill="rgb(30%,30%,30%)" fill-opacity="1" d="M 10.066406 1.304688 L 0.746094 1.304688 L 1.117188 0 L 9.695312 0 Z M 10.066406 2.238281 L 0.746094 2.238281 L 0 3.542969 L 0 4.660156 L 10.8125 4.660156 L 10.8125 3.542969 Z M 10.066406 7.269531 L 9.695312 7.269531 L 9.695312 5.40625 L 8.761719 5.40625 L 8.761719 7.269531 L 2.050781 7.269531 L 2.050781 5.40625 L 1.117188 5.40625 L 1.117188 7.269531 L 0.746094 7.269531 L 0.746094 9.320312 L 1.117188 9.320312 L 1.117188 11 L 2.050781 11 L 2.050781 9.320312 L 8.761719 9.320312 L 8.761719 11 L 9.695312 11 L 9.695312 9.320312 L 10.066406 9.320312 Z M 10.066406 7.269531 "/>
</svg>
