<?xml version="1.0" encoding="UTF-8"?>
<svg xmlns="http://www.w3.org/2000/svg" xmlns:xlink="http://www.w3.org/1999/xlink" width="11" height="10.999538" viewBox="0 0 11 10.999538">
<path fill-rule="nonzero" fill="rgb(30%,30%,30%)" fill-opacity="1" d="M 0 11 L 8.511719 11 L 0 2.488281 Z M 1.808594 9.191406 L 1.808594 6.851562 L 4.144531 9.191406 Z M 7.527344 10.210938 L 7.230469 10.511719 C 7.203125 10.539062 7.148438 10.480469 7.171875 10.457031 L 7.472656 10.15625 C 7.496094 10.132812 7.554688 10.1875 7.527344 10.210938 Z M 7.214844 9.863281 C 7.242188 9.890625 7.25 9.925781 7.230469 9.945312 L 6.707031 10.46875 C 6.6875 10.488281 6.648438 10.480469 6.621094 10.453125 C 6.597656 10.425781 6.589844 10.390625 6.609375 10.371094 L 7.132812 9.847656 C 7.152344 9.828125 7.1875 9.835938 7.214844 9.863281 Z M 6.921875 9.605469 L 6.621094 9.90625 C 6.597656 9.929688 6.539062 9.875 6.566406 9.847656 L 6.863281 9.550781 C 6.890625 9.523438 6.945312 9.578125 6.921875 9.605469 Z M 6.609375 9.253906 C 6.636719 9.28125 6.640625 9.316406 6.625 9.335938 L 6.097656 9.863281 C 6.078125 9.878906 6.042969 9.875 6.015625 9.847656 C 5.988281 9.820312 5.980469 9.78125 6 9.765625 L 6.527344 9.238281 C 6.542969 9.21875 6.582031 9.226562 6.609375 9.253906 Z M 6.3125 8.996094 L 6.011719 9.296875 C 5.988281 9.320312 5.933594 9.265625 5.957031 9.242188 L 6.257812 8.941406 C 6.28125 8.914062 6.339844 8.972656 6.3125 8.996094 Z M 6 8.644531 C 6.027344 8.671875 6.035156 8.710938 6.015625 8.730469 L 5.488281 9.253906 C 5.472656 9.273438 5.433594 9.265625 5.40625 9.238281 C 5.378906 9.210938 5.375 9.175781 5.390625 9.15625 L 5.917969 8.628906 C 5.9375 8.613281 5.972656 8.617188 6 8.644531 Z M 5.703125 8.390625 L 5.40625 8.6875 C 5.378906 8.714844 5.324219 8.65625 5.351562 8.632812 L 5.648438 8.332031 C 5.675781 8.308594 5.730469 8.363281 5.703125 8.390625 Z M 5.390625 8.039062 C 5.417969 8.066406 5.425781 8.101562 5.40625 8.121094 L 4.882812 8.648438 C 4.863281 8.664062 4.828125 8.65625 4.800781 8.628906 C 4.773438 8.605469 4.765625 8.566406 4.785156 8.546875 L 5.308594 8.023438 C 5.328125 8.003906 5.367188 8.011719 5.390625 8.039062 Z M 5.097656 7.78125 L 4.796875 8.082031 C 4.773438 8.105469 4.714844 8.050781 4.742188 8.023438 L 5.042969 7.726562 C 5.066406 7.699219 5.121094 7.757812 5.097656 7.78125 Z M 4.785156 7.429688 C 4.8125 7.457031 4.816406 7.496094 4.800781 7.511719 L 4.273438 8.039062 C 4.253906 8.058594 4.21875 8.050781 4.191406 8.023438 C 4.164062 7.996094 4.15625 7.960938 4.175781 7.941406 L 4.703125 7.414062 C 4.71875 7.398438 4.757812 7.402344 4.785156 7.429688 Z M 4.488281 7.171875 L 4.191406 7.472656 C 4.164062 7.496094 4.109375 7.441406 4.132812 7.417969 L 4.433594 7.117188 C 4.457031 7.09375 4.515625 7.148438 4.488281 7.171875 Z M 4.175781 6.824219 C 4.203125 6.847656 4.210938 6.886719 4.191406 6.90625 L 3.667969 7.429688 C 3.648438 7.449219 3.609375 7.441406 3.582031 7.414062 C 3.554688 7.386719 3.550781 7.351562 3.570312 7.332031 L 4.09375 6.808594 C 4.113281 6.789062 4.148438 6.796875 4.175781 6.824219 Z M 3.882812 6.566406 L 3.582031 6.867188 C 3.558594 6.890625 3.5 6.835938 3.527344 6.808594 L 3.824219 6.511719 C 3.851562 6.484375 3.90625 6.539062 3.882812 6.566406 Z M 3.570312 6.214844 C 3.597656 6.242188 3.601562 6.277344 3.585938 6.296875 L 3.058594 6.824219 C 3.039062 6.839844 3.003906 6.835938 2.976562 6.808594 C 2.949219 6.78125 2.941406 6.742188 2.960938 6.722656 L 3.484375 6.199219 C 3.503906 6.179688 3.542969 6.1875 3.570312 6.214844 Z M 3.273438 5.957031 L 2.972656 6.257812 C 2.949219 6.28125 2.894531 6.226562 2.917969 6.203125 L 3.21875 5.902344 C 3.242188 5.875 3.300781 5.933594 3.273438 5.957031 Z M 2.960938 5.605469 C 2.988281 5.632812 2.996094 5.671875 2.976562 5.691406 L 2.449219 6.214844 C 2.433594 6.234375 2.394531 6.226562 2.367188 6.199219 C 2.339844 6.171875 2.335938 6.136719 2.351562 6.117188 L 2.878906 5.59375 C 2.898438 5.574219 2.933594 5.582031 2.960938 5.605469 Z M 2.664062 5.351562 L 2.367188 5.648438 C 2.339844 5.675781 2.285156 5.621094 2.308594 5.59375 L 2.609375 5.292969 C 2.636719 5.269531 2.691406 5.324219 2.664062 5.351562 Z M 2.351562 5 C 2.378906 5.027344 2.386719 5.0625 2.367188 5.082031 L 1.84375 5.605469 C 1.824219 5.625 1.789062 5.621094 1.761719 5.59375 C 1.734375 5.566406 1.726562 5.527344 1.746094 5.511719 L 2.269531 4.984375 C 2.289062 4.964844 2.324219 4.972656 2.351562 5 Z M 2.058594 4.742188 L 1.757812 5.042969 C 1.734375 5.066406 1.675781 5.011719 1.703125 4.988281 L 2.003906 4.6875 C 2.027344 4.660156 2.082031 4.71875 2.058594 4.742188 Z M 1.746094 4.390625 C 1.773438 4.417969 1.78125 4.457031 1.761719 4.472656 L 1.234375 5 C 1.214844 5.019531 1.179688 5.011719 1.152344 4.984375 C 1.125 4.957031 1.117188 4.921875 1.136719 4.902344 L 1.664062 4.375 C 1.679688 4.359375 1.71875 4.363281 1.746094 4.390625 Z M 1.449219 4.136719 L 1.152344 4.433594 C 1.125 4.460938 1.070312 4.402344 1.09375 4.378906 L 1.394531 4.078125 C 1.417969 4.054688 1.476562 4.109375 1.449219 4.136719 Z M 1.136719 3.785156 C 1.164062 3.8125 1.171875 3.847656 1.152344 3.867188 L 0.628906 4.390625 C 0.609375 4.410156 0.570312 4.402344 0.542969 4.375 C 0.515625 4.351562 0.511719 4.3125 0.53125 4.292969 L 1.054688 3.769531 C 1.074219 3.75 1.109375 3.757812 1.136719 3.785156 Z M 0.488281 3.769531 L 0.785156 3.472656 C 0.8125 3.445312 0.867188 3.5 0.84375 3.527344 L 0.542969 3.828125 C 0.53125 3.835938 0.511719 3.832031 0.496094 3.816406 C 0.480469 3.800781 0.476562 3.78125 0.488281 3.769531 Z M 0.488281 3.769531 "/>
<path fill-rule="nonzero" fill="rgb(30%,30%,30%)" fill-opacity="1" d="M 2.574219 0 L 1.070312 1.503906 L 9.496094 9.929688 L 11 8.425781 Z M 1.507812 1.667969 C 1.480469 1.640625 1.480469 1.59375 1.507812 1.566406 L 2.320312 0.757812 C 2.347656 0.726562 2.394531 0.726562 2.421875 0.757812 C 2.453125 0.785156 2.453125 0.832031 2.421875 0.859375 L 1.613281 1.667969 C 1.585938 1.699219 1.539062 1.699219 1.507812 1.667969 Z M 1.832031 1.992188 C 1.816406 1.976562 1.816406 1.949219 1.832031 1.933594 L 2.292969 1.472656 C 2.308594 1.457031 2.335938 1.457031 2.351562 1.472656 C 2.367188 1.488281 2.367188 1.515625 2.351562 1.53125 L 1.890625 1.992188 C 1.875 2.007812 1.847656 2.007812 1.832031 1.992188 Z M 2.152344 2.3125 C 2.125 2.285156 2.125 2.238281 2.152344 2.210938 L 2.964844 1.402344 C 2.992188 1.371094 3.039062 1.371094 3.066406 1.402344 C 3.09375 1.429688 3.09375 1.476562 3.066406 1.503906 L 2.257812 2.3125 C 2.230469 2.34375 2.183594 2.34375 2.152344 2.3125 Z M 2.476562 2.636719 C 2.460938 2.621094 2.460938 2.59375 2.476562 2.578125 L 2.9375 2.117188 C 2.953125 2.101562 2.980469 2.101562 2.996094 2.117188 C 3.011719 2.132812 3.011719 2.160156 2.996094 2.175781 L 2.535156 2.636719 C 2.519531 2.652344 2.492188 2.652344 2.476562 2.636719 Z M 2.796875 2.957031 C 2.769531 2.929688 2.769531 2.882812 2.796875 2.855469 L 3.609375 2.046875 C 3.636719 2.015625 3.683594 2.015625 3.710938 2.046875 C 3.738281 2.074219 3.738281 2.121094 3.710938 2.148438 L 2.902344 2.957031 C 2.875 2.988281 2.828125 2.988281 2.796875 2.957031 Z M 3.121094 3.28125 C 3.105469 3.265625 3.105469 3.238281 3.121094 3.222656 L 3.582031 2.761719 C 3.597656 2.742188 3.625 2.742188 3.640625 2.761719 C 3.65625 2.777344 3.65625 2.804688 3.640625 2.820312 L 3.179688 3.28125 C 3.164062 3.296875 3.136719 3.296875 3.121094 3.28125 Z M 3.441406 3.601562 C 3.414062 3.574219 3.414062 3.527344 3.441406 3.5 L 4.25 2.691406 C 4.28125 2.660156 4.328125 2.660156 4.355469 2.691406 C 4.382812 2.71875 4.382812 2.765625 4.355469 2.792969 L 3.546875 3.601562 C 3.519531 3.632812 3.472656 3.632812 3.441406 3.601562 Z M 3.765625 3.925781 C 3.75 3.910156 3.75 3.882812 3.765625 3.867188 L 4.226562 3.40625 C 4.242188 3.386719 4.269531 3.386719 4.285156 3.40625 C 4.300781 3.421875 4.300781 3.449219 4.285156 3.464844 L 3.824219 3.925781 C 3.808594 3.941406 3.78125 3.941406 3.765625 3.925781 Z M 4.085938 4.246094 C 4.058594 4.21875 4.058594 4.171875 4.085938 4.144531 L 4.894531 3.335938 C 4.925781 3.304688 4.972656 3.304688 5 3.335938 C 5.027344 3.363281 5.027344 3.410156 5 3.4375 L 4.191406 4.246094 C 4.164062 4.277344 4.117188 4.277344 4.085938 4.246094 Z M 4.410156 4.570312 C 4.394531 4.554688 4.394531 4.527344 4.410156 4.511719 L 4.871094 4.050781 C 4.886719 4.03125 4.914062 4.03125 4.929688 4.050781 C 4.945312 4.066406 4.945312 4.09375 4.929688 4.109375 L 4.46875 4.570312 C 4.453125 4.585938 4.425781 4.585938 4.410156 4.570312 Z M 4.730469 4.890625 C 4.703125 4.863281 4.703125 4.816406 4.730469 4.789062 L 5.539062 3.976562 C 5.570312 3.949219 5.617188 3.949219 5.644531 3.976562 C 5.671875 4.007812 5.671875 4.054688 5.644531 4.082031 L 4.835938 4.890625 C 4.804688 4.921875 4.761719 4.921875 4.730469 4.890625 Z M 5.054688 5.214844 C 5.039062 5.199219 5.039062 5.171875 5.054688 5.15625 L 5.515625 4.695312 C 5.53125 4.675781 5.558594 4.675781 5.574219 4.695312 C 5.589844 4.710938 5.589844 4.738281 5.574219 4.753906 L 5.113281 5.214844 C 5.097656 5.230469 5.070312 5.230469 5.054688 5.214844 Z M 5.375 5.535156 C 5.347656 5.507812 5.347656 5.460938 5.375 5.433594 L 6.183594 4.621094 C 6.214844 4.59375 6.261719 4.59375 6.289062 4.621094 C 6.316406 4.652344 6.316406 4.699219 6.289062 4.726562 L 5.480469 5.535156 C 5.449219 5.566406 5.40625 5.566406 5.375 5.535156 Z M 5.699219 5.859375 C 5.679688 5.839844 5.679688 5.816406 5.699219 5.800781 L 6.160156 5.339844 C 6.175781 5.320312 6.203125 5.320312 6.21875 5.339844 C 6.234375 5.355469 6.234375 5.378906 6.21875 5.398438 L 5.757812 5.859375 C 5.742188 5.875 5.714844 5.875 5.699219 5.859375 Z M 6.019531 6.179688 C 5.992188 6.152344 5.992188 6.105469 6.019531 6.078125 L 6.828125 5.265625 C 6.859375 5.238281 6.90625 5.238281 6.933594 5.265625 C 6.960938 5.296875 6.960938 5.34375 6.933594 5.371094 L 6.125 6.179688 C 6.09375 6.207031 6.046875 6.207031 6.019531 6.179688 Z M 6.34375 6.503906 C 6.328125 6.484375 6.328125 6.460938 6.34375 6.445312 L 6.804688 5.980469 C 6.820312 5.964844 6.847656 5.964844 6.863281 5.980469 C 6.878906 6 6.878906 6.023438 6.863281 6.042969 L 6.402344 6.503906 C 6.386719 6.519531 6.359375 6.519531 6.34375 6.503906 Z M 6.664062 6.824219 C 6.636719 6.796875 6.636719 6.75 6.664062 6.722656 L 7.472656 5.910156 C 7.503906 5.882812 7.546875 5.882812 7.578125 5.910156 C 7.605469 5.941406 7.605469 5.988281 7.578125 6.015625 L 6.769531 6.824219 C 6.738281 6.851562 6.691406 6.851562 6.664062 6.824219 Z M 6.988281 7.148438 C 6.96875 7.128906 6.96875 7.105469 6.988281 7.085938 L 7.449219 6.625 C 7.464844 6.609375 7.492188 6.609375 7.507812 6.625 C 7.523438 6.644531 7.523438 6.667969 7.507812 6.6875 L 7.046875 7.148438 C 7.03125 7.164062 7.003906 7.164062 6.988281 7.148438 Z M 7.308594 7.46875 C 7.28125 7.441406 7.28125 7.394531 7.308594 7.363281 L 8.117188 6.554688 C 8.148438 6.527344 8.191406 6.527344 8.222656 6.554688 C 8.25 6.585938 8.25 6.632812 8.222656 6.660156 L 7.414062 7.46875 C 7.382812 7.496094 7.335938 7.496094 7.308594 7.46875 Z M 7.632812 7.792969 C 7.613281 7.773438 7.613281 7.75 7.632812 7.730469 L 8.09375 7.269531 C 8.109375 7.253906 8.136719 7.253906 8.152344 7.269531 C 8.167969 7.285156 8.167969 7.3125 8.152344 7.328125 L 7.691406 7.792969 C 7.675781 7.808594 7.648438 7.808594 7.632812 7.792969 Z M 7.953125 8.113281 C 7.925781 8.085938 7.925781 8.039062 7.953125 8.007812 L 8.761719 7.199219 C 8.792969 7.171875 8.835938 7.171875 8.867188 7.199219 C 8.894531 7.230469 8.894531 7.277344 8.867188 7.304688 L 8.058594 8.113281 C 8.027344 8.140625 7.980469 8.140625 7.953125 8.113281 Z M 8.277344 8.4375 C 8.257812 8.417969 8.257812 8.394531 8.277344 8.375 L 8.738281 7.914062 C 8.753906 7.898438 8.78125 7.898438 8.796875 7.914062 C 8.8125 7.933594 8.8125 7.957031 8.796875 7.972656 L 8.335938 8.4375 C 8.320312 8.453125 8.292969 8.453125 8.277344 8.4375 Z M 8.597656 8.757812 C 8.570312 8.730469 8.570312 8.683594 8.597656 8.65625 L 9.40625 7.84375 C 9.4375 7.816406 9.480469 7.816406 9.511719 7.84375 C 9.539062 7.875 9.539062 7.921875 9.511719 7.949219 L 8.703125 8.757812 C 8.671875 8.785156 8.625 8.785156 8.597656 8.757812 Z M 8.917969 9.082031 C 8.902344 9.0625 8.902344 9.039062 8.917969 9.019531 L 9.382812 8.558594 C 9.398438 8.542969 9.425781 8.542969 9.441406 8.558594 C 9.457031 8.574219 9.457031 8.601562 9.441406 8.617188 L 8.980469 9.082031 C 8.960938 9.097656 8.9375 9.097656 8.917969 9.082031 Z M 9.347656 9.402344 C 9.316406 9.429688 9.269531 9.429688 9.242188 9.402344 C 9.214844 9.375 9.214844 9.328125 9.242188 9.296875 L 10.050781 8.488281 C 10.082031 8.460938 10.125 8.460938 10.15625 8.488281 C 10.183594 8.519531 10.183594 8.566406 10.15625 8.59375 Z M 9.347656 9.402344 "/>
</svg>
