<?xml version="1.0" encoding="UTF-8" standalone="no"?>
<!-- Created with Inkscape (http://www.inkscape.org/) -->

<svg
   xmlns:dc="http://purl.org/dc/elements/1.1/"
   xmlns:cc="http://creativecommons.org/ns#"
   xmlns:rdf="http://www.w3.org/1999/02/22-rdf-syntax-ns#"
   xmlns:svg="http://www.w3.org/2000/svg"
   xmlns="http://www.w3.org/2000/svg"
   xmlns:xlink="http://www.w3.org/1999/xlink"
   xmlns:sodipodi="http://sodipodi.sourceforge.net/DTD/sodipodi-0.dtd"
   xmlns:inkscape="http://www.inkscape.org/namespaces/inkscape"
   width="30px"
   height="30px"
   version="1.1"
   id="svg8"
   inkscape:version="0.92.4 5da689c313, 2019-01-14"
   sodipodi:docname="container.svg">
  <defs
     id="defs2" />
  <sodipodi:namedview
     id="base"
     pagecolor="#ffffff"
     bordercolor="#666666"
     borderopacity="1.0"
     inkscape:pageopacity="0.0"
     inkscape:pageshadow="2"
     inkscape:zoom="13.049334"
     inkscape:cx="18.679046"
     inkscape:cy="12.165829"
     inkscape:document-units="px"
     inkscape:current-layer="layer1"
     showgrid="false"
     inkscape:snap-page="false"
     units="px"
     inkscape:window-width="1884"
     inkscape:window-height="1061"
     inkscape:window-x="0"
     inkscape:window-y="0"
     inkscape:window-maximized="1"
     fit-margin-top="0"
     fit-margin-left="0"
     fit-margin-right="0"
     fit-margin-bottom="0" />
  <metadata
     id="metadata5">
    <rdf:RDF>
      <cc:Work
         rdf:about="">
        <dc:format>image/svg+xml</dc:format>
        <dc:type
           rdf:resource="http://purl.org/dc/dcmitype/StillImage" />
        <dc:title></dc:title>
      </cc:Work>
    </rdf:RDF>
  </metadata>
    <circle
       style="color:#000000;clip-rule:nonzero;display:inline;overflow:visible;visibility:visible;opacity:1;isolation:auto;mix-blend-mode:normal;color-interpolation:sRGB;color-interpolation-filters:linearRGB;solid-color:#000000;solid-opacity:1;vector-effect:none;fill:#7093c3;fill-opacity:1;fill-rule:evenodd;stroke:#ffffff;stroke-width:1;stroke-linecap:butt;stroke-linejoin:miter;stroke-miterlimit:4;stroke-dasharray:none;stroke-dashoffset:0;stroke-opacity:1;marker:none;color-rendering:auto;image-rendering:auto;shape-rendering:auto;text-rendering:auto;enable-background:accumulate"
       id="path815"
       cx="15"
       cy="15"
       r="14.5" />
<g transform="translate(6.5,7.5)"><path fill-rule="nonzero" fill="#FFFFFF" fill-opacity="1" d="M 4.554688 8.699219 C 4.234375 8.195312 3.769531 7.835938 2.925781 7.851562 C 3.238281 7.246094 3.921875 6.976562 4.808594 6.886719 C 4.175781 6.414062 3.328125 6.296875 2.511719 7.089844 C 2.382812 6.671875 2.898438 5.601562 3.292969 4.617188 C 2.277344 4.882812 1.765625 5.882812 1.769531 7.644531 C 1.296875 7.144531 1.09375 6.382812 1.121094 5.378906 C 0.488281 6.574219 0.539062 7.628906 1.316406 8.527344 C 0.65625 8.765625 0.214844 9.507812 0 10.117188 C 0.355469 9.828125 0.867188 9.285156 1.363281 9.472656 C 1.285156 10.238281 1.488281 10.925781 1.921875 11.414062 C 1.761719 10.875 1.789062 10.316406 1.910156 9.746094 C 2.222656 10.984375 2.917969 11.625 3.792969 11.980469 C 3.023438 11.261719 2.292969 9.984375 2.425781 8.585938 C 3.03125 8.207031 3.96875 8.472656 4.554688 8.699219 Z M 4.554688 8.699219 "/>
<path fill-rule="nonzero" fill="#FFFFFF" fill-opacity="1" d="M 13.21875 2.113281 C 14.632812 1.816406 15.933594 1.925781 17 2.867188 C 16.148438 1.496094 14.859375 0.667969 12.484375 1.15625 C 12.578125 0.617188 12.914062 0.269531 13.535156 0.152344 C 12.6875 -0.21875 11.917969 0.105469 11.214844 0.972656 C 10.4375 0.355469 9.359375 0.355469 8.078125 0.757812 C 8.957031 0.824219 9.707031 1.179688 10.292969 1.890625 C 8.6875 1.875 7.652344 2.976562 7 4.828125 C 8.320312 3.851562 9.792969 3.308594 11.433594 3.25 C 12.175781 4.289062 11.984375 5.542969 11.34375 6.90625 C 12.589844 6.636719 13.488281 5.917969 13.316406 3.835938 C 14.535156 3.691406 15.339844 4.289062 15.855469 5.40625 C 15.9375 3.753906 15 2.6875 13.21875 2.113281 Z M 13.21875 2.113281 "/>
<path fill-rule="nonzero" fill="#FFFFFF" fill-opacity="1" d="M 10.964844 10.871094 C 10.980469 10.867188 10.996094 10.859375 11.007812 10.847656 C 11.085938 10.789062 11.054688 10.679688 10.964844 10.640625 C 10.566406 10.488281 10.191406 10.484375 9.792969 10.640625 C 9.707031 10.679688 9.675781 10.789062 9.75 10.847656 C 9.765625 10.859375 9.78125 10.867188 9.796875 10.871094 C 9.824219 10.878906 9.855469 10.875 9.882812 10.863281 C 10.460938 10.648438 10.800781 10.855469 10.914062 10.875 C 10.929688 10.875 10.945312 10.875 10.964844 10.871094 Z M 10.964844 10.871094 "/>
<path fill-rule="nonzero" fill="#FFFFFF" fill-opacity="1" d="M 11.355469 3.289062 C 8.691406 5.355469 6.898438 8.457031 6.238281 11.929688 C 5.40625 10.414062 4.113281 9.257812 2.507812 8.675781 C 4.417969 9.695312 5.652344 11.425781 6.023438 13.507812 C 5.988281 13.902344 5.96875 14.292969 5.960938 14.691406 C 6.019531 14.6875 6.078125 14.683594 6.136719 14.679688 C 6.136719 14.683594 6.136719 14.6875 6.136719 14.691406 C 6.199219 14.683594 6.261719 14.675781 6.324219 14.675781 C 6.355469 14.675781 6.382812 14.675781 6.414062 14.675781 C 6.660156 14.675781 6.910156 14.714844 7.164062 14.691406 C 7.25 14.691406 7.339844 14.691406 7.429688 14.691406 C 6.957031 10.53125 8.394531 6.234375 11.355469 3.289062 Z M 11.355469 3.289062 "/>
<path fill-rule="nonzero" fill="#FFFFFF" fill-opacity="1" d="M 12.832031 11.074219 L 7.875 11.074219 C 7.734375 11.078125 7.621094 11.191406 7.625 11.332031 L 7.625 14.453125 C 7.625 14.582031 7.714844 14.707031 7.902344 14.707031 L 12.832031 14.707031 C 12.96875 14.707031 13.082031 14.59375 13.082031 14.453125 L 13.082031 11.332031 C 13.082031 11.191406 12.96875 11.078125 12.832031 11.074219 Z M 12.832031 11.074219 "/>
</g>
</svg>
