<?xml version="1.0" encoding="UTF-8"?>
<svg xmlns="http://www.w3.org/2000/svg" xmlns:xlink="http://www.w3.org/1999/xlink" width="11" height="9.517547" viewBox="0 0 11 9.517547">
<path fill-rule="nonzero" fill="rgb(30%,30%,30%)" fill-opacity="1" d="M 2.949219 5.628906 C 2.742188 5.300781 2.4375 5.070312 1.894531 5.082031 C 2.09375 4.691406 2.539062 4.511719 3.113281 4.457031 C 2.703125 4.152344 2.152344 4.074219 1.625 4.589844 C 1.542969 4.316406 1.875 3.625 2.128906 2.988281 C 1.472656 3.160156 1.140625 3.804688 1.144531 4.945312 C 0.839844 4.625 0.707031 4.128906 0.726562 3.480469 C 0.316406 4.253906 0.347656 4.9375 0.851562 5.515625 C 0.421875 5.671875 0.140625 6.152344 0 6.546875 C 0.230469 6.359375 0.5625 6.007812 0.882812 6.128906 C 0.832031 6.625 0.960938 7.070312 1.242188 7.386719 C 1.140625 7.035156 1.15625 6.675781 1.234375 6.304688 C 1.4375 7.105469 1.886719 7.519531 2.453125 7.75 C 1.957031 7.285156 1.484375 6.460938 1.570312 5.554688 C 1.960938 5.3125 2.566406 5.484375 2.949219 5.628906 Z M 2.949219 5.628906 "/>
<path fill-rule="nonzero" fill="rgb(30%,30%,30%)" fill-opacity="1" d="M 8.550781 1.367188 C 9.46875 1.175781 10.308594 1.246094 11 1.855469 C 10.449219 0.96875 9.613281 0.433594 8.078125 0.75 C 8.140625 0.402344 8.355469 0.175781 8.757812 0.0976562 C 8.210938 -0.144531 7.710938 0.0664062 7.257812 0.628906 C 6.753906 0.230469 6.054688 0.230469 5.226562 0.488281 C 5.796875 0.535156 6.28125 0.761719 6.660156 1.222656 C 5.621094 1.214844 4.953125 1.925781 4.527344 3.125 C 5.382812 2.492188 6.335938 2.140625 7.398438 2.105469 C 7.878906 2.777344 7.753906 3.585938 7.339844 4.46875 C 8.148438 4.292969 8.726562 3.828125 8.617188 2.484375 C 9.40625 2.390625 9.925781 2.777344 10.257812 3.5 C 10.3125 2.429688 9.707031 1.738281 8.550781 1.367188 Z M 8.550781 1.367188 "/>
<path fill-rule="nonzero" fill="rgb(30%,30%,30%)" fill-opacity="1" d="M 7.09375 7.035156 C 7.105469 7.03125 7.113281 7.027344 7.125 7.019531 C 7.171875 6.980469 7.152344 6.910156 7.097656 6.882812 C 6.839844 6.785156 6.59375 6.785156 6.335938 6.882812 C 6.28125 6.910156 6.261719 6.980469 6.308594 7.019531 C 6.320312 7.027344 6.328125 7.03125 6.339844 7.035156 C 6.359375 7.039062 6.378906 7.035156 6.394531 7.027344 C 6.769531 6.890625 6.988281 7.023438 7.0625 7.035156 C 7.074219 7.039062 7.082031 7.035156 7.09375 7.035156 Z M 7.09375 7.035156 "/>
<path fill-rule="nonzero" fill="rgb(30%,30%,30%)" fill-opacity="1" d="M 7.347656 2.128906 C 5.625 3.464844 4.460938 5.472656 4.039062 7.71875 C 3.5 6.738281 2.664062 5.988281 1.621094 5.613281 C 2.859375 6.273438 3.65625 7.394531 3.898438 8.742188 C 3.875 8.996094 3.863281 9.25 3.859375 9.507812 C 3.894531 9.503906 3.933594 9.5 3.96875 9.5 C 3.96875 9.5 3.96875 9.503906 3.96875 9.507812 C 4.011719 9.5 4.050781 9.496094 4.09375 9.496094 C 4.113281 9.496094 4.132812 9.496094 4.152344 9.496094 C 4.308594 9.496094 4.472656 9.523438 4.632812 9.507812 L 4.632812 9.503906 C 4.691406 9.507812 4.75 9.507812 4.808594 9.507812 C 4.5 6.8125 5.429688 4.035156 7.347656 2.128906 Z M 7.347656 2.128906 "/>
<path fill-rule="nonzero" fill="rgb(30%,30%,30%)" fill-opacity="1" d="M 8.300781 7.167969 L 5.09375 7.167969 C 5.003906 7.167969 4.933594 7.242188 4.933594 7.332031 L 4.933594 9.351562 C 4.933594 9.433594 4.992188 9.515625 5.113281 9.515625 L 8.300781 9.515625 C 8.390625 9.515625 8.464844 9.441406 8.464844 9.351562 L 8.464844 7.332031 C 8.464844 7.242188 8.390625 7.167969 8.300781 7.167969 Z M 8.300781 7.167969 "/>
</svg>
