<?xml version="1.0" encoding="UTF-8"?>
<svg xmlns="http://www.w3.org/2000/svg" xmlns:xlink="http://www.w3.org/1999/xlink" width="11" height="11" viewBox="0 0 11 11">
<path fill-rule="nonzero" fill="rgb(30%,30%,30%)" fill-opacity="1" d="M 9.265625 1.5 C 8.386719 0.792969 7.503906 0.441406 7.503906 0.441406 L 2.929688 3.785156 C 2.929688 3.785156 2.753906 5.371094 2.226562 6.777344 C 1.699219 8.1875 0.554688 9.636719 0.554688 9.636719 L 0.90625 9.988281 L 4.539062 6.441406 C 4.460938 6.339844 4.417969 6.210938 4.417969 6.074219 C 4.417969 5.730469 4.695312 5.449219 5.042969 5.449219 C 5.386719 5.449219 5.664062 5.730469 5.664062 6.074219 C 5.664062 6.417969 5.386719 6.699219 5.042969 6.699219 C 4.902344 6.699219 4.773438 6.652344 4.671875 6.574219 L 0.992188 10.078125 L 1.324219 10.441406 C 1.324219 10.441406 3.28125 9.242188 4.160156 8.890625 C 5.042969 8.539062 7.289062 8.167969 7.289062 8.167969 L 10.496094 3.609375 C 10.496094 3.609375 10.144531 2.203125 9.265625 1.5 Z M 9.265625 1.5 "/>
</svg>
