<?xml version="1.0" encoding="UTF-8"?>
<svg xmlns="http://www.w3.org/2000/svg" xmlns:xlink="http://www.w3.org/1999/xlink" width="7.035714" height="11" viewBox="0 0 7.035714 11">
<path fill-rule="nonzero" fill="rgb(30%,30%,30%)" fill-opacity="1" d="M 4.433594 0.00390625 C 2.660156 -0.0742188 1.292969 1.550781 1.660156 3.28125 C 1.773438 3.675781 1.589844 3.257812 2.75 5.898438 C 3.074219 6.628906 3.496094 7.59375 4.058594 8.875 C 5.089844 6.976562 5.726562 5.804688 6.128906 5.066406 C 6.917969 3.613281 6.792969 3.828125 6.917969 3.503906 C 7.433594 1.792969 6.195312 0.078125 4.433594 0.00390625 Z M 6.222656 2.839844 C 6.179688 3.894531 5.289062 4.710938 4.234375 4.667969 C 3.183594 4.621094 2.363281 3.730469 2.410156 2.679688 C 2.453125 1.625 3.34375 0.808594 4.398438 0.851562 C 5.449219 0.898438 6.265625 1.789062 6.222656 2.839844 Z M 6.222656 2.839844 "/>
<path fill-rule="nonzero" fill="rgb(30%,30%,30%)" fill-opacity="1" d="M 6.613281 4.660156 C 6.550781 4.839844 6.566406 4.78125 6.351562 5.21875 L 6.351562 10.054688 C 6.351562 10.285156 6.203125 10.488281 5.984375 10.558594 C 5.5 10.710938 5.847656 10.582031 0.945312 10.582031 C 0.65625 10.582031 0.417969 10.347656 0.417969 10.054688 L 0.414062 5.175781 C 0.417969 4.886719 0.652344 4.648438 0.945312 4.648438 L 1.867188 4.648438 C 1.808594 4.476562 1.78125 4.402344 1.753906 4.234375 L 0.945312 4.234375 C 0.421875 4.234375 0 4.65625 0 5.175781 L 0.00390625 10.054688 C 0.00390625 10.578125 0.425781 11 0.945312 11 L 5.824219 10.996094 C 6.347656 10.996094 6.769531 10.574219 6.769531 10.054688 L 6.765625 5.175781 C 6.765625 4.992188 6.714844 4.8125 6.613281 4.660156 Z M 6.613281 4.660156 "/>
</svg>
