<?xml version="1.0" encoding="UTF-8"?>
<svg xmlns="http://www.w3.org/2000/svg" xmlns:xlink="http://www.w3.org/1999/xlink" width="11" height="9.415434" viewBox="0 0 11 9.415434">
<path fill-rule="nonzero" fill="rgb(30%,30%,30%)" fill-opacity="1" d="M 11 1.5625 L 11 9.414062 L 0 9.414062 L 0 1.5625 L 1.585938 1.5625 L 1.585938 0 L 3.914062 0 L 3.914062 1.5625 L 7.09375 1.5625 L 7.09375 0 L 9.425781 0 L 9.425781 1.5625 Z M 5.519531 4.710938 L 3.964844 4.710938 L 3.964844 3.160156 L 2.65625 3.160156 L 2.65625 4.710938 L 1.023438 4.710938 L 1.023438 5.980469 L 2.65625 5.980469 L 2.65625 7.65625 L 3.964844 7.65625 L 3.964844 5.980469 L 5.519531 5.980469 Z M 10.21875 4.710938 L 7.035156 4.710938 L 7.035156 5.980469 L 10.21875 5.980469 Z M 10.21875 4.710938 "/>
</svg>
