<?xml version="1.0" encoding="UTF-8" standalone="no"?>
<!-- Created with Inkscape (http://www.inkscape.org/) -->

<svg
   xmlns:dc="http://purl.org/dc/elements/1.1/"
   xmlns:cc="http://creativecommons.org/ns#"
   xmlns:rdf="http://www.w3.org/1999/02/22-rdf-syntax-ns#"
   xmlns:svg="http://www.w3.org/2000/svg"
   xmlns="http://www.w3.org/2000/svg"
   xmlns:xlink="http://www.w3.org/1999/xlink"
   xmlns:sodipodi="http://sodipodi.sourceforge.net/DTD/sodipodi-0.dtd"
   xmlns:inkscape="http://www.inkscape.org/namespaces/inkscape"
   width="30px"
   height="30px"
   version="1.1"
   id="svg8"
   inkscape:version="0.92.4 5da689c313, 2019-01-14"
   sodipodi:docname="container.svg">
  <defs
     id="defs2" />
  <sodipodi:namedview
     id="base"
     pagecolor="#ffffff"
     bordercolor="#666666"
     borderopacity="1.0"
     inkscape:pageopacity="0.0"
     inkscape:pageshadow="2"
     inkscape:zoom="13.049334"
     inkscape:cx="18.679046"
     inkscape:cy="12.165829"
     inkscape:document-units="px"
     inkscape:current-layer="layer1"
     showgrid="false"
     inkscape:snap-page="false"
     units="px"
     inkscape:window-width="1884"
     inkscape:window-height="1061"
     inkscape:window-x="0"
     inkscape:window-y="0"
     inkscape:window-maximized="1"
     fit-margin-top="0"
     fit-margin-left="0"
     fit-margin-right="0"
     fit-margin-bottom="0" />
  <metadata
     id="metadata5">
    <rdf:RDF>
      <cc:Work
         rdf:about="">
        <dc:format>image/svg+xml</dc:format>
        <dc:type
           rdf:resource="http://purl.org/dc/dcmitype/StillImage" />
        <dc:title></dc:title>
      </cc:Work>
    </rdf:RDF>
  </metadata>
    <circle
       style="color:#000000;clip-rule:nonzero;display:inline;overflow:visible;visibility:visible;opacity:1;isolation:auto;mix-blend-mode:normal;color-interpolation:sRGB;color-interpolation-filters:linearRGB;solid-color:#000000;solid-opacity:1;vector-effect:none;fill:#ffffff;fill-opacity:1;fill-rule:evenodd;stroke:#2a62ac;stroke-width:1;stroke-linecap:butt;stroke-linejoin:miter;stroke-miterlimit:4;stroke-dasharray:none;stroke-dashoffset:0;stroke-opacity:1;marker:none;color-rendering:auto;image-rendering:auto;shape-rendering:auto;text-rendering:auto;enable-background:accumulate"
       id="path815"
       cx="15"
       cy="15"
       r="14.5" />
<g transform="translate(6.5,6.5)"><path fill-rule="nonzero" fill="rgb(30%,30%,30%)" fill-opacity="1" d="M 16.308594 8.46875 L 15.222656 8.457031 C 15.089844 8.453125 14.976562 8.351562 14.96875 8.214844 C 14.882812 7.136719 14.335938 6.15625 13.503906 5.472656 C 13.011719 5.066406 12.464844 4.773438 11.835938 4.652344 C 11.375 4.566406 10.917969 4.460938 10.453125 4.429688 C 8.976562 4.332031 7.53125 4.292969 6.082031 4.425781 C 5.789062 4.453125 5.496094 4.484375 5.203125 4.519531 C 4.816406 4.570312 4.445312 4.707031 4.097656 4.875 C 3.765625 5.039062 3.429688 5.222656 3.171875 5.488281 C 2.367188 6.300781 1.902344 7.265625 1.835938 8.230469 C 1.828125 8.367188 1.710938 8.472656 1.574219 8.472656 L 0.691406 8.46875 C 0.3125 8.46875 0 8.78125 0 9.160156 C 0 9.472656 0.0429688 9.832031 0.824219 9.976562 C 0.996094 10.011719 1.085938 10.203125 1.003906 10.359375 C 0.792969 10.753906 0.773438 11.175781 0.773438 11.613281 C 0.773438 12.175781 0.964844 13.011719 1.390625 13.601562 C 1.429688 13.652344 1.445312 13.71875 1.4375 13.785156 C 1.429688 13.824219 1.429688 13.867188 1.429688 13.90625 L 1.429688 15.304688 C 1.429688 16.003906 2.003906 16.578125 2.707031 16.578125 L 2.789062 16.578125 C 3.488281 16.578125 4.0625 16.003906 4.0625 15.304688 L 4.0625 14.753906 C 4.070312 14.753906 4.074219 14.753906 4.078125 14.753906 C 5.195312 14.847656 10.835938 14.855469 12.691406 14.75 C 12.839844 14.738281 12.964844 14.859375 12.964844 15.007812 L 12.964844 15.304688 C 12.964844 16.003906 13.539062 16.578125 14.242188 16.578125 L 14.324219 16.578125 C 15.027344 16.578125 15.601562 16.003906 15.601562 15.304688 L 15.601562 13.90625 C 15.601562 13.882812 15.601562 13.859375 15.597656 13.835938 C 15.59375 13.773438 15.609375 13.707031 15.648438 13.652344 C 16.042969 13.101562 16.199219 12.152344 16.199219 11.613281 C 16.199219 11.191406 16.171875 10.726562 15.957031 10.324219 C 15.882812 10.179688 15.957031 9.996094 16.117188 9.953125 C 16.140625 9.945312 16.164062 9.9375 16.1875 9.929688 C 16.773438 9.75 17 9.539062 17 9.160156 C 17 8.78125 16.6875 8.46875 16.308594 8.46875 Z M 3.96875 13.527344 C 3.371094 13.527344 2.882812 13.042969 2.882812 12.441406 C 2.882812 11.839844 3.371094 11.351562 3.96875 11.351562 C 4.570312 11.351562 5.058594 11.839844 5.058594 12.441406 C 5.058594 13.042969 4.570312 13.527344 3.96875 13.527344 Z M 2.46875 8.851562 C 2.710938 5.214844 4.691406 5.007812 7.527344 4.996094 L 8.339844 4.996094 C 11.605469 4.996094 14.226562 5.238281 14.300781 8.851562 C 14.332031 10.355469 11.558594 10.734375 8.289062 10.734375 C 5.023438 10.734375 2.367188 10.351562 2.46875 8.851562 Z M 13.242188 13.527344 C 12.640625 13.527344 12.152344 13.042969 12.152344 12.441406 C 12.152344 11.839844 12.640625 11.351562 13.242188 11.351562 C 13.84375 11.351562 14.328125 11.839844 14.328125 12.441406 C 14.328125 13.042969 13.84375 13.527344 13.242188 13.527344 Z M 13.242188 13.527344 "/>
<path fill-rule="nonzero" fill="rgb(30%,30%,30%)" fill-opacity="1" d="M 14.035156 0.0078125 C 13.082031 0.00390625 12.226562 0.597656 11.902344 1.496094 L 4.679688 1.496094 C 4.28125 0.335938 3.015625 -0.277344 1.855469 0.121094 C 1.402344 0.277344 1.011719 0.578125 0.742188 0.976562 C 0.640625 1.125 0.679688 1.324219 0.828125 1.425781 C 0.878906 1.460938 0.945312 1.480469 1.007812 1.480469 L 2.484375 1.480469 C 2.796875 1.480469 3.046875 1.734375 3.050781 2.046875 L 3.050781 2.367188 C 3.046875 2.757812 2.734375 3.070312 2.34375 3.070312 L 1.089844 3.070312 C 0.910156 3.070312 0.765625 3.214844 0.765625 3.394531 C 0.765625 3.464844 0.789062 3.535156 0.832031 3.59375 C 1.589844 4.558594 2.984375 4.726562 3.953125 3.972656 C 4.261719 3.726562 4.503906 3.40625 4.648438 3.035156 L 11.921875 3.035156 C 12.351562 4.207031 13.644531 4.808594 14.816406 4.378906 C 15.984375 3.949219 16.585938 2.65625 16.15625 1.488281 C 15.832031 0.59375 14.984375 0.00390625 14.035156 0.0078125 Z M 14.035156 3.132812 C 13.542969 3.128906 13.144531 2.722656 13.152344 2.230469 C 13.15625 1.738281 13.5625 1.339844 14.054688 1.347656 C 14.546875 1.351562 14.9375 1.75 14.9375 2.242188 C 14.9375 2.738281 14.53125 3.136719 14.035156 3.132812 Z M 14.035156 3.132812 "/>
</g>
</svg>
