<?xml version="1.0" encoding="UTF-8" standalone="no"?>
<!-- Created with Inkscape (http://www.inkscape.org/) -->

<svg
   xmlns:dc="http://purl.org/dc/elements/1.1/"
   xmlns:cc="http://creativecommons.org/ns#"
   xmlns:rdf="http://www.w3.org/1999/02/22-rdf-syntax-ns#"
   xmlns:svg="http://www.w3.org/2000/svg"
   xmlns="http://www.w3.org/2000/svg"
   xmlns:xlink="http://www.w3.org/1999/xlink"
   xmlns:sodipodi="http://sodipodi.sourceforge.net/DTD/sodipodi-0.dtd"
   xmlns:inkscape="http://www.inkscape.org/namespaces/inkscape"
   width="30px"
   height="30px"
   version="1.1"
   id="svg8"
   inkscape:version="0.92.4 5da689c313, 2019-01-14"
   sodipodi:docname="container.svg">
  <defs
     id="defs2" />
  <sodipodi:namedview
     id="base"
     pagecolor="#ffffff"
     bordercolor="#666666"
     borderopacity="1.0"
     inkscape:pageopacity="0.0"
     inkscape:pageshadow="2"
     inkscape:zoom="13.049334"
     inkscape:cx="18.679046"
     inkscape:cy="12.165829"
     inkscape:document-units="px"
     inkscape:current-layer="layer1"
     showgrid="false"
     inkscape:snap-page="false"
     units="px"
     inkscape:window-width="1884"
     inkscape:window-height="1061"
     inkscape:window-x="0"
     inkscape:window-y="0"
     inkscape:window-maximized="1"
     fit-margin-top="0"
     fit-margin-left="0"
     fit-margin-right="0"
     fit-margin-bottom="0" />
  <metadata
     id="metadata5">
    <rdf:RDF>
      <cc:Work
         rdf:about="">
        <dc:format>image/svg+xml</dc:format>
        <dc:type
           rdf:resource="http://purl.org/dc/dcmitype/StillImage" />
        <dc:title></dc:title>
      </cc:Work>
    </rdf:RDF>
  </metadata>
    <circle
       style="color:#000000;clip-rule:nonzero;display:inline;overflow:visible;visibility:visible;opacity:1;isolation:auto;mix-blend-mode:normal;color-interpolation:sRGB;color-interpolation-filters:linearRGB;solid-color:#000000;solid-opacity:1;vector-effect:none;fill:#2a62ac;fill-opacity:1;fill-rule:evenodd;stroke:#ffffff;stroke-width:1;stroke-linecap:butt;stroke-linejoin:miter;stroke-miterlimit:4;stroke-dasharray:none;stroke-dashoffset:0;stroke-opacity:1;marker:none;color-rendering:auto;image-rendering:auto;shape-rendering:auto;text-rendering:auto;enable-background:accumulate"
       id="path815"
       cx="15"
       cy="15"
       r="14.5" />
<g transform="translate(6.5,9.5)"><path fill-rule="nonzero" fill="#FFFFFF" fill-opacity="1" d="M 0.386719 7.472656 L 8.128906 4.613281 L 8.535156 5.71875 L 0.789062 8.578125 C 0.484375 8.6875 0.148438 8.53125 0.0351562 8.226562 C -0.0742188 7.921875 0.0820312 7.585938 0.386719 7.472656 Z M 0.386719 7.472656 "/>
<path fill-rule="nonzero" fill="#FFFFFF" fill-opacity="1" d="M 15.066406 5.800781 L 15.035156 5.714844 C 14.929688 5.433594 14.617188 5.292969 14.339844 5.398438 L 14.292969 5.414062 L 12.652344 1.113281 C 12.902344 0.988281 13.019531 0.699219 12.921875 0.4375 L 12.886719 0.347656 C 12.78125 0.0703125 12.472656 -0.0703125 12.191406 0.0351562 L 7.367188 1.855469 C 7.085938 1.964844 6.945312 2.273438 7.050781 2.554688 L 7.082031 2.640625 C 7.191406 2.917969 7.5 3.058594 7.78125 2.953125 L 7.886719 2.914062 L 9.527344 7.214844 L 9.511719 7.222656 C 9.234375 7.328125 9.09375 7.636719 9.195312 7.917969 L 9.230469 8.003906 C 9.335938 8.28125 9.644531 8.421875 9.925781 8.320312 L 14.753906 6.496094 C 15.03125 6.390625 15.171875 6.078125 15.066406 5.800781 Z M 15.066406 5.800781 "/>
<path fill-rule="nonzero" fill="#FFFFFF" fill-opacity="1" d="M 8.253906 10.15625 L 16.421875 10.15625 C 16.742188 10.15625 17 10.414062 17 10.734375 C 17 11.050781 16.742188 11.3125 16.421875 11.3125 L 8.253906 11.3125 C 7.933594 11.3125 7.675781 11.050781 7.675781 10.734375 C 7.675781 10.414062 7.933594 10.15625 8.253906 10.15625 Z M 8.253906 10.15625 "/>
</g>
</svg>
