<?xml version="1.0" encoding="UTF-8" standalone="no"?>
<!-- Created with Inkscape (http://www.inkscape.org/) -->

<svg
   xmlns:dc="http://purl.org/dc/elements/1.1/"
   xmlns:cc="http://creativecommons.org/ns#"
   xmlns:rdf="http://www.w3.org/1999/02/22-rdf-syntax-ns#"
   xmlns:svg="http://www.w3.org/2000/svg"
   xmlns="http://www.w3.org/2000/svg"
   xmlns:xlink="http://www.w3.org/1999/xlink"
   xmlns:sodipodi="http://sodipodi.sourceforge.net/DTD/sodipodi-0.dtd"
   xmlns:inkscape="http://www.inkscape.org/namespaces/inkscape"
   width="30px"
   height="30px"
   version="1.1"
   id="svg8"
   inkscape:version="0.92.4 5da689c313, 2019-01-14"
   sodipodi:docname="container.svg">
  <defs
     id="defs2" />
  <sodipodi:namedview
     id="base"
     pagecolor="#ffffff"
     bordercolor="#666666"
     borderopacity="1.0"
     inkscape:pageopacity="0.0"
     inkscape:pageshadow="2"
     inkscape:zoom="13.049334"
     inkscape:cx="18.679046"
     inkscape:cy="12.165829"
     inkscape:document-units="px"
     inkscape:current-layer="layer1"
     showgrid="false"
     inkscape:snap-page="false"
     units="px"
     inkscape:window-width="1884"
     inkscape:window-height="1061"
     inkscape:window-x="0"
     inkscape:window-y="0"
     inkscape:window-maximized="1"
     fit-margin-top="0"
     fit-margin-left="0"
     fit-margin-right="0"
     fit-margin-bottom="0" />
  <metadata
     id="metadata5">
    <rdf:RDF>
      <cc:Work
         rdf:about="">
        <dc:format>image/svg+xml</dc:format>
        <dc:type
           rdf:resource="http://purl.org/dc/dcmitype/StillImage" />
        <dc:title></dc:title>
      </cc:Work>
    </rdf:RDF>
  </metadata>
    <circle
       style="color:#000000;clip-rule:nonzero;display:inline;overflow:visible;visibility:visible;opacity:1;isolation:auto;mix-blend-mode:normal;color-interpolation:sRGB;color-interpolation-filters:linearRGB;solid-color:#000000;solid-opacity:1;vector-effect:none;fill:#ffffff;fill-opacity:1;fill-rule:evenodd;stroke:#2a62ac;stroke-width:1;stroke-linecap:butt;stroke-linejoin:miter;stroke-miterlimit:4;stroke-dasharray:none;stroke-dashoffset:0;stroke-opacity:1;marker:none;color-rendering:auto;image-rendering:auto;shape-rendering:auto;text-rendering:auto;enable-background:accumulate"
       id="path815"
       cx="15"
       cy="15"
       r="14.5" />
<g transform="translate(8.0,6.5)"><path fill-rule="nonzero" fill="rgb(30%,30%,30%)" fill-opacity="1" d="M 10.808594 13.300781 C 11.152344 13.679688 11.636719 13.898438 12.148438 13.894531 C 13.144531 13.894531 13.949219 13.085938 13.949219 12.089844 C 13.949219 11.734375 13.84375 11.382812 13.644531 11.085938 C 13.09375 10.257812 11.972656 10.03125 11.144531 10.585938 C 11.085938 10.199219 10.988281 9.820312 10.84375 9.457031 L 1.386719 9.457031 C 1.148438 10.050781 1.027344 10.6875 1.027344 11.332031 C 1.027344 13.445312 2.316406 15.261719 4.15625 16.027344 L 0.667969 16.027344 C 0.300781 16.027344 0 16.246094 0 16.515625 C 0 16.78125 0.300781 17 0.667969 17 L 11.5625 17 C 11.933594 17 12.230469 16.78125 12.230469 16.515625 C 12.230469 16.246094 11.933594 16.027344 11.5625 16.027344 L 8.074219 16.027344 C 9.285156 15.523438 10.277344 14.558594 10.808594 13.300781 Z M 12.167969 11.039062 C 12.757812 11.039062 13.234375 11.519531 13.234375 12.109375 C 13.234375 12.699219 12.757812 13.175781 12.167969 13.175781 C 11.578125 13.175781 11.097656 12.699219 11.097656 12.109375 C 11.097656 11.519531 11.578125 11.039062 12.167969 11.039062 Z M 12.167969 11.039062 "/>
<path fill-rule="nonzero" fill="rgb(30%,30%,30%)" fill-opacity="1" d="M 0.574219 2.707031 C 0.601562 2.613281 0.65625 2.527344 0.722656 2.457031 C 1.027344 2.148438 1.316406 1.816406 1.65625 1.554688 C 4.640625 -0.746094 9.023438 -0.460938 11.699219 2.195312 C 11.804688 2.300781 11.886719 2.429688 11.976562 2.546875 L 11.992188 2.859375 C 11.6875 3.375 11.328125 3.421875 10.898438 3.007812 C 8.332031 0.511719 4.269531 0.511719 1.707031 3.003906 C 1.058594 3.6875 0.421875 3.222656 0.574219 2.707031 Z M 0.574219 2.707031 "/>
<path fill-rule="nonzero" fill="rgb(30%,30%,30%)" fill-opacity="1" d="M 6.480469 2.148438 C 7.917969 2.183594 9.28125 2.765625 10.382812 3.925781 C 10.664062 4.21875 10.671875 4.566406 10.421875 4.796875 C 10.175781 5.027344 9.835938 4.996094 9.554688 4.707031 C 8.628906 3.746094 7.5 3.253906 6.171875 3.292969 C 4.96875 3.324219 3.941406 3.792969 3.09375 4.65625 C 2.980469 4.773438 2.835938 4.886719 2.683594 4.929688 C 2.449219 5 2.238281 4.902344 2.097656 4.691406 C 1.957031 4.484375 1.953125 4.203125 2.148438 4.015625 C 2.511719 3.671875 2.878906 3.316406 3.292969 3.039062 C 4.203125 2.429688 5.226562 2.15625 6.480469 2.148438 Z M 6.480469 2.148438 "/>
<path fill-rule="nonzero" fill="rgb(30%,30%,30%)" fill-opacity="1" d="M 8.515625 6.632812 C 8.351562 6.582031 8.265625 6.515625 8.167969 6.386719 C 7.230469 5.109375 5.339844 5.144531 4.445312 6.386719 C 4.238281 6.671875 3.878906 6.714844 3.621094 6.515625 C 3.359375 6.3125 3.324219 5.988281 3.539062 5.691406 C 4.863281 3.84375 7.757812 3.851562 9.074219 5.703125 C 9.21875 5.910156 9.253906 6.121094 9.132812 6.339844 C 9.023438 6.542969 8.84375 6.636719 8.515625 6.632812 Z M 8.515625 6.632812 "/>
<path fill-rule="nonzero" fill="rgb(30%,30%,30%)" fill-opacity="1" d="M 6.308594 6.453125 C 7.011719 6.453125 7.589844 7.035156 7.589844 7.734375 C 7.589844 8.4375 7.011719 9.019531 6.308594 9.023438 C 5.597656 9.027344 5.003906 8.429688 5.015625 7.722656 C 5.023438 7.019531 5.601562 6.449219 6.308594 6.453125 Z M 6.308594 6.453125 "/>
</g>
</svg>
