<?xml version="1.0" encoding="UTF-8" standalone="no"?>
<!-- Created with Inkscape (http://www.inkscape.org/) -->

<svg
   xmlns:dc="http://purl.org/dc/elements/1.1/"
   xmlns:cc="http://creativecommons.org/ns#"
   xmlns:rdf="http://www.w3.org/1999/02/22-rdf-syntax-ns#"
   xmlns:svg="http://www.w3.org/2000/svg"
   xmlns="http://www.w3.org/2000/svg"
   xmlns:xlink="http://www.w3.org/1999/xlink"
   xmlns:sodipodi="http://sodipodi.sourceforge.net/DTD/sodipodi-0.dtd"
   xmlns:inkscape="http://www.inkscape.org/namespaces/inkscape"
   width="30px"
   height="30px"
   version="1.1"
   id="svg8"
   inkscape:version="0.92.4 5da689c313, 2019-01-14"
   sodipodi:docname="container.svg">
  <defs
     id="defs2" />
  <sodipodi:namedview
     id="base"
     pagecolor="#ffffff"
     bordercolor="#666666"
     borderopacity="1.0"
     inkscape:pageopacity="0.0"
     inkscape:pageshadow="2"
     inkscape:zoom="13.049334"
     inkscape:cx="18.679046"
     inkscape:cy="12.165829"
     inkscape:document-units="px"
     inkscape:current-layer="layer1"
     showgrid="false"
     inkscape:snap-page="false"
     units="px"
     inkscape:window-width="1884"
     inkscape:window-height="1061"
     inkscape:window-x="0"
     inkscape:window-y="0"
     inkscape:window-maximized="1"
     fit-margin-top="0"
     fit-margin-left="0"
     fit-margin-right="0"
     fit-margin-bottom="0" />
  <metadata
     id="metadata5">
    <rdf:RDF>
      <cc:Work
         rdf:about="">
        <dc:format>image/svg+xml</dc:format>
        <dc:type
           rdf:resource="http://purl.org/dc/dcmitype/StillImage" />
        <dc:title></dc:title>
      </cc:Work>
    </rdf:RDF>
  </metadata>
    <circle
       style="color:#000000;clip-rule:nonzero;display:inline;overflow:visible;visibility:visible;opacity:1;isolation:auto;mix-blend-mode:normal;color-interpolation:sRGB;color-interpolation-filters:linearRGB;solid-color:#000000;solid-opacity:1;vector-effect:none;fill:#7093c3;fill-opacity:1;fill-rule:evenodd;stroke:#ffffff;stroke-width:1;stroke-linecap:butt;stroke-linejoin:miter;stroke-miterlimit:4;stroke-dasharray:none;stroke-dashoffset:0;stroke-opacity:1;marker:none;color-rendering:auto;image-rendering:auto;shape-rendering:auto;text-rendering:auto;enable-background:accumulate"
       id="path815"
       cx="15"
       cy="15"
       r="14.5" />
<g transform="translate(6.5,7.5)"><path fill-rule="nonzero" fill="#FFFFFF" fill-opacity="1" d="M 15.453125 7.609375 C 14.894531 6.574219 12.710938 5.804688 12.710938 5.886719 C 12.710938 6.460938 12.890625 8.285156 12.101562 9.269531 C 12.042969 9.34375 10.359375 8.25 10.359375 8.25 C 10.359375 8.25 11.8125 5.664062 11.921875 5.484375 C 12.035156 5.292969 12.53125 4.871094 11.839844 4.554688 C 11.25 4.285156 10.234375 4.074219 8.910156 4.023438 L 8.914062 2.675781 C 9.628906 2.519531 10.136719 1.800781 9.9375 1.007812 C 9.828125 0.570312 9.5 0.21875 9.074219 0.0742188 C 8.292969 -0.1875 7.515625 0.273438 7.320312 1.007812 C 7.28125 1.160156 7.367188 1.316406 7.519531 1.367188 C 7.671875 1.414062 7.832031 1.332031 7.886719 1.183594 C 7.964844 0.964844 8.085938 0.753906 8.300781 0.664062 C 8.976562 0.375 9.621094 1.035156 9.304688 1.710938 C 9.179688 1.972656 8.898438 2.09375 8.609375 2.113281 C 8.449219 2.128906 8.328125 2.261719 8.320312 2.421875 L 8.3125 4.015625 C 6.875 4.046875 5.78125 4.273438 5.160156 4.554688 C 4.46875 4.871094 4.964844 5.292969 5.078125 5.484375 C 5.1875 5.664062 6.640625 8.25 6.640625 8.25 C 6.640625 8.25 4.957031 9.34375 4.898438 9.269531 C 4.109375 8.285156 4.289062 6.460938 4.289062 5.886719 C 4.289062 5.804688 2.105469 6.574219 1.546875 7.609375 C 0.640625 9.289062 0 15.335938 0 15.335938 L 3.023438 15.335938 C 3.023438 15.335938 3.351562 13.234375 3.59375 12.835938 C 3.730469 12.605469 3.796875 12.964844 3.800781 13.207031 C 3.804688 13.632812 3.746094 15.335938 3.746094 15.335938 L 8.070312 15.335938 L 8.011719 8.042969 L 6.363281 5.4375 C 6.316406 5.367188 6.367188 5.246094 6.441406 5.210938 C 7.023438 4.914062 7.882812 4.871094 8.3125 4.867188 L 8.90625 4.871094 C 9.367188 4.890625 10.0625 4.960938 10.558594 5.210938 C 10.632812 5.246094 10.683594 5.367188 10.636719 5.4375 L 8.988281 8.042969 L 8.929688 15.335938 L 13.253906 15.335938 C 13.253906 15.335938 13.195312 13.632812 13.199219 13.207031 C 13.203125 12.964844 13.269531 12.605469 13.40625 12.835938 C 13.648438 13.234375 13.976562 15.335938 13.976562 15.335938 L 17 15.335938 C 17 15.335938 16.359375 9.289062 15.453125 7.609375 Z M 15.453125 7.609375 "/>
</g>
</svg>
