<?xml version="1.0" encoding="UTF-8"?>
<svg xmlns="http://www.w3.org/2000/svg" xmlns:xlink="http://www.w3.org/1999/xlink" width="11" height="8.860542" viewBox="0 0 11 8.860542">
<path fill-rule="nonzero" fill="rgb(30%,30%,30%)" fill-opacity="1" d="M 9.257812 5.375 C 9.023438 5.375 8.789062 5.421875 8.574219 5.515625 L 7.957031 4.558594 L 8.15625 4.5625 L 8.15625 3.488281 C 7.652344 3.488281 7.453125 3.703125 7.371094 3.859375 L 6.066406 3.164062 C 5.957031 3.105469 5.820312 3.148438 5.761719 3.257812 L 5.699219 3.375 C 5.640625 3.484375 5.683594 3.621094 5.792969 3.679688 L 6.480469 4.046875 C 4.039062 4.34375 3.941406 5.121094 3.855469 5.0625 C 3.460938 4.800781 1.730469 4.773438 1.730469 4.773438 L 1.730469 5.167969 C 2.183594 5.101562 2.605469 5.195312 2.953125 5.414062 C 2.945312 5.421875 2.941406 5.425781 2.933594 5.429688 L 2.710938 5.671875 C 2.050781 5.226562 1.175781 5.289062 0.582031 5.816406 C -0.0117188 6.347656 -0.171875 7.210938 0.195312 7.917969 C 0.558594 8.625 1.355469 8.996094 2.132812 8.816406 C 2.90625 8.636719 3.464844 7.957031 3.484375 7.164062 L 3.859375 7.117188 C 3.925781 7.261719 5.402344 7.527344 6.714844 7.398438 C 7.082031 7.363281 7.1875 6.898438 7.1875 6.898438 L 7.265625 4.695312 L 7.304688 4.5625 L 8.105469 5.808594 C 7.476562 6.367188 7.332031 7.292969 7.765625 8.015625 C 8.199219 8.738281 9.085938 9.042969 9.875 8.746094 C 10.660156 8.449219 11.121094 7.632812 10.972656 6.804688 C 10.820312 5.976562 10.097656 5.375 9.257812 5.375 Z M 2.761719 6.464844 C 2.804688 6.535156 2.839844 6.605469 2.871094 6.679688 L 2.523438 6.722656 Z M 1.742188 8.328125 C 1.234375 8.328125 0.777344 8.011719 0.605469 7.535156 C 0.429688 7.054688 0.570312 6.519531 0.960938 6.191406 C 1.351562 5.863281 1.902344 5.816406 2.34375 6.066406 L 1.570312 6.902344 C 1.480469 7 1.488281 7.15625 1.585938 7.246094 L 1.648438 7.308594 C 1.722656 7.371094 1.824219 7.390625 1.914062 7.351562 L 2.949219 7.226562 C 2.890625 7.851562 2.367188 8.328125 1.742188 8.328125 Z M 3.410156 6.617188 C 3.351562 6.417969 3.257812 6.230469 3.132812 6.066406 L 3.359375 5.820312 C 3.363281 5.8125 3.371094 5.808594 3.375 5.796875 C 3.546875 6.011719 3.675781 6.273438 3.761719 6.574219 Z M 9.234375 8.328125 C 8.742188 8.328125 8.296875 8.03125 8.113281 7.574219 C 7.925781 7.117188 8.035156 6.59375 8.390625 6.25 L 9.019531 7.226562 C 9.101562 7.355469 9.269531 7.394531 9.398438 7.3125 C 9.527344 7.226562 9.5625 7.058594 9.480469 6.929688 L 8.863281 5.964844 C 9.316406 5.820312 9.816406 5.953125 10.136719 6.308594 C 10.453125 6.664062 10.535156 7.175781 10.339844 7.609375 C 10.144531 8.046875 9.710938 8.328125 9.234375 8.328125 Z M 9.234375 8.328125 "/>
<path fill-rule="nonzero" fill="rgb(30%,30%,30%)" fill-opacity="1" d="M 8.589844 0.00390625 C 8.050781 0 7.570312 0.339844 7.386719 0.84375 L 3.308594 0.84375 C 3.152344 0.394531 2.757812 0.0742188 2.285156 0.0117188 C 1.816406 -0.0507812 1.347656 0.160156 1.082031 0.550781 C 1.042969 0.609375 1.039062 0.679688 1.070312 0.738281 C 1.101562 0.800781 1.164062 0.835938 1.234375 0.835938 L 2.066406 0.835938 C 2.242188 0.835938 2.386719 0.980469 2.386719 1.15625 L 2.386719 1.335938 C 2.382812 1.558594 2.207031 1.734375 1.988281 1.734375 L 1.277344 1.734375 C 1.207031 1.734375 1.144531 1.773438 1.113281 1.835938 C 1.082031 1.898438 1.089844 1.972656 1.132812 2.027344 C 1.410156 2.382812 1.855469 2.5625 2.300781 2.496094 C 2.746094 2.433594 3.125 2.132812 3.289062 1.714844 L 7.394531 1.714844 C 7.617188 2.320312 8.261719 2.664062 8.886719 2.515625 C 9.515625 2.367188 9.933594 1.769531 9.855469 1.125 C 9.78125 0.484375 9.234375 0 8.589844 0.00390625 Z M 8.589844 1.769531 C 8.3125 1.765625 8.089844 1.539062 8.089844 1.261719 C 8.09375 0.984375 8.320312 0.757812 8.597656 0.761719 C 8.875 0.761719 9.101562 0.988281 9.101562 1.265625 C 9.101562 1.398438 9.046875 1.53125 8.949219 1.625 C 8.855469 1.71875 8.722656 1.773438 8.589844 1.769531 Z M 8.589844 1.769531 "/>
</svg>
