<?xml version="1.0" encoding="UTF-8"?>
<svg xmlns="http://www.w3.org/2000/svg" xmlns:xlink="http://www.w3.org/1999/xlink" width="11" height="6.89704" viewBox="0 0 11 6.89704">
<path fill-rule="nonzero" fill="rgb(30%,30%,30%)" fill-opacity="1" d="M 3.417969 5.605469 C 3.378906 5.613281 3.339844 5.601562 3.3125 5.570312 C 3.285156 5.542969 3.273438 5.503906 3.28125 5.464844 C 3.3125 5.316406 3.269531 5.171875 3.167969 5.0625 C 3.058594 4.949219 2.898438 4.898438 2.742188 4.929688 C 2.703125 4.9375 2.664062 4.925781 2.636719 4.898438 C 2.609375 4.867188 2.597656 4.828125 2.605469 4.789062 C 2.636719 4.640625 2.59375 4.492188 2.488281 4.386719 C 2.378906 4.269531 2.21875 4.222656 2.058594 4.257812 C 2 4.273438 1.941406 4.234375 1.921875 4.175781 C 1.878906 4.019531 1.765625 3.902344 1.609375 3.859375 C 1.445312 3.8125 1.277344 3.859375 1.160156 3.976562 L 1.027344 4.109375 C 0.898438 4.238281 0.859375 4.414062 0.921875 4.582031 C 0.96875 4.71875 1.101562 4.867188 1.328125 4.878906 C 1.386719 4.882812 1.433594 4.929688 1.4375 4.992188 C 1.441406 5.121094 1.5 5.238281 1.601562 5.320312 C 1.707031 5.40625 1.847656 5.441406 1.980469 5.410156 C 2.019531 5.402344 2.058594 5.417969 2.085938 5.445312 C 2.113281 5.472656 2.125 5.515625 2.117188 5.554688 C 2.082031 5.71875 2.140625 5.878906 2.269531 5.988281 C 2.40625 6.101562 2.59375 6.128906 2.757812 6.050781 C 2.773438 6.046875 2.789062 6.042969 2.804688 6.042969 C 2.828125 6.042969 2.847656 6.046875 2.867188 6.0625 C 2.902344 6.085938 2.921875 6.125 2.917969 6.167969 C 2.914062 6.355469 3.011719 6.511719 3.179688 6.59375 C 3.320312 6.65625 3.53125 6.667969 3.699219 6.5 L 3.832031 6.367188 C 4.003906 6.199219 3.988281 5.988281 3.917969 5.847656 C 3.84375 5.703125 3.671875 5.554688 3.417969 5.605469 Z M 3.417969 5.605469 "/>
<path fill-rule="nonzero" fill="rgb(30%,30%,30%)" fill-opacity="1" d="M 2.261719 0 L 0 2.261719 L 0.375 2.636719 L 2.636719 0.375 Z M 2.261719 0 "/>
<path fill-rule="nonzero" fill="rgb(30%,30%,30%)" fill-opacity="1" d="M 7.578125 1.160156 L 7.546875 1.164062 C 6.976562 1.28125 6.480469 1.054688 6.082031 0.875 C 5.980469 0.828125 5.886719 0.785156 5.796875 0.75 C 5.621094 0.683594 5.421875 0.675781 5.234375 0.730469 L 2.972656 1.410156 C 3.117188 1.796875 3.738281 2.078125 4.167969 2.015625 L 6.113281 1.738281 L 6.152344 1.78125 L 6.96875 2.59375 L 8.53125 4.160156 C 9.023438 4.003906 9.617188 3.617188 9.851562 3.152344 L 9.867188 3.117188 L 10.292969 2.902344 L 8.308594 0.921875 C 7.957031 1.082031 7.839844 1.105469 7.578125 1.160156 Z M 7.578125 1.160156 "/>
<path fill-rule="nonzero" fill="rgb(30%,30%,30%)" fill-opacity="1" d="M 6.03125 1.992188 L 4.199219 2.253906 C 3.605469 2.339844 2.804688 1.9375 2.71875 1.34375 L 2.707031 1.242188 L 3 1.152344 C 2.800781 1.035156 2.628906 0.894531 2.535156 0.808594 L 0.808594 2.53125 L 1.128906 2.851562 C 1.398438 3.121094 1.433594 3.40625 1.394531 3.609375 C 1.484375 3.597656 1.578125 3.601562 1.667969 3.628906 C 1.867188 3.683594 2.027344 3.824219 2.109375 4.011719 C 2.3125 3.996094 2.507812 4.070312 2.652344 4.214844 C 2.773438 4.34375 2.84375 4.507812 2.847656 4.683594 C 3.027344 4.683594 3.203125 4.761719 3.332031 4.894531 C 3.453125 5.023438 3.519531 5.183594 3.523438 5.355469 C 3.777344 5.359375 4.003906 5.496094 4.121094 5.738281 C 4.207031 5.910156 4.21875 6.097656 4.164062 6.265625 L 4.648438 6.753906 C 4.828125 6.933594 5.140625 6.949219 5.320312 6.769531 C 5.402344 6.683594 5.449219 6.570312 5.449219 6.453125 C 5.449219 6.332031 5.402344 6.21875 5.316406 6.132812 L 4.859375 5.679688 C 4.816406 5.632812 4.8125 5.554688 4.859375 5.507812 C 4.902344 5.460938 4.976562 5.460938 5.023438 5.503906 L 5.613281 6.097656 L 5.863281 6.347656 C 6.042969 6.527344 6.355469 6.546875 6.535156 6.363281 C 6.617188 6.28125 6.664062 6.167969 6.664062 6.046875 C 6.664062 5.929688 6.617188 5.816406 6.53125 5.730469 L 5.671875 4.867188 C 5.625 4.824219 5.625 4.746094 5.667969 4.699219 C 5.710938 4.652344 5.785156 4.648438 5.832031 4.695312 L 6.941406 5.808594 C 7.125 5.988281 7.433594 6.007812 7.613281 5.824219 C 7.695312 5.742188 7.742188 5.628906 7.742188 5.507812 C 7.742188 5.390625 7.695312 5.277344 7.609375 5.191406 L 6.480469 4.058594 C 6.433594 4.011719 6.433594 3.9375 6.476562 3.890625 C 6.523438 3.84375 6.59375 3.839844 6.640625 3.886719 L 7.773438 5.019531 C 7.773438 5.019531 7.773438 5.019531 7.777344 5.023438 L 7.777344 5.019531 C 7.976562 5.222656 8.375 5.320312 8.558594 5.148438 C 8.640625 5.074219 8.6875 4.964844 8.691406 4.847656 C 8.691406 4.726562 8.644531 4.605469 8.554688 4.515625 Z M 6.03125 1.992188 "/>
<path fill-rule="nonzero" fill="rgb(30%,30%,30%)" fill-opacity="1" d="M 8.738281 0.269531 L 8.363281 0.644531 L 10.625 2.90625 L 11 2.53125 Z M 8.738281 0.269531 "/>
</svg>
