<?xml version="1.0" encoding="UTF-8" standalone="no"?>
<!-- Created with Inkscape (http://www.inkscape.org/) -->

<svg
   xmlns:dc="http://purl.org/dc/elements/1.1/"
   xmlns:cc="http://creativecommons.org/ns#"
   xmlns:rdf="http://www.w3.org/1999/02/22-rdf-syntax-ns#"
   xmlns:svg="http://www.w3.org/2000/svg"
   xmlns="http://www.w3.org/2000/svg"
   xmlns:xlink="http://www.w3.org/1999/xlink"
   xmlns:sodipodi="http://sodipodi.sourceforge.net/DTD/sodipodi-0.dtd"
   xmlns:inkscape="http://www.inkscape.org/namespaces/inkscape"
   width="30px"
   height="30px"
   version="1.1"
   id="svg8"
   inkscape:version="0.92.4 5da689c313, 2019-01-14"
   sodipodi:docname="container.svg">
  <defs
     id="defs2" />
  <sodipodi:namedview
     id="base"
     pagecolor="#ffffff"
     bordercolor="#666666"
     borderopacity="1.0"
     inkscape:pageopacity="0.0"
     inkscape:pageshadow="2"
     inkscape:zoom="13.049334"
     inkscape:cx="18.679046"
     inkscape:cy="12.165829"
     inkscape:document-units="px"
     inkscape:current-layer="layer1"
     showgrid="false"
     inkscape:snap-page="false"
     units="px"
     inkscape:window-width="1884"
     inkscape:window-height="1061"
     inkscape:window-x="0"
     inkscape:window-y="0"
     inkscape:window-maximized="1"
     fit-margin-top="0"
     fit-margin-left="0"
     fit-margin-right="0"
     fit-margin-bottom="0" />
  <metadata
     id="metadata5">
    <rdf:RDF>
      <cc:Work
         rdf:about="">
        <dc:format>image/svg+xml</dc:format>
        <dc:type
           rdf:resource="http://purl.org/dc/dcmitype/StillImage" />
        <dc:title></dc:title>
      </cc:Work>
    </rdf:RDF>
  </metadata>
    <circle
       style="color:#000000;clip-rule:nonzero;display:inline;overflow:visible;visibility:visible;opacity:1;isolation:auto;mix-blend-mode:normal;color-interpolation:sRGB;color-interpolation-filters:linearRGB;solid-color:#000000;solid-opacity:1;vector-effect:none;fill:#ffffff;fill-opacity:1;fill-rule:evenodd;stroke:#2a62ac;stroke-width:1;stroke-linecap:butt;stroke-linejoin:miter;stroke-miterlimit:4;stroke-dasharray:none;stroke-dashoffset:0;stroke-opacity:1;marker:none;color-rendering:auto;image-rendering:auto;shape-rendering:auto;text-rendering:auto;enable-background:accumulate"
       id="path815"
       cx="15"
       cy="15"
       r="14.5" />
<g transform="translate(6.5,7.5)"><path fill-rule="nonzero" fill="rgb(30%,30%,30%)" fill-opacity="1" d="M 6.964844 10.675781 C 6.964844 7.78125 9.332031 5.433594 12.25 5.433594 C 12.859375 5.433594 13.445312 5.535156 13.988281 5.722656 L 13.988281 5.652344 L 10.605469 2.917969 L 6.992188 0 L 0 5.652344 L 0 13.367188 L 7.710938 13.367188 C 7.238281 12.582031 6.964844 11.660156 6.964844 10.675781 Z M 6.964844 10.675781 "/>
<path fill-rule="nonzero" fill="rgb(30%,30%,30%)" fill-opacity="1" d="M 12.25 5.964844 C 9.628906 5.964844 7.5 8.074219 7.5 10.675781 C 7.5 13.277344 9.628906 15.386719 12.25 15.386719 C 14.875 15.386719 17 13.277344 17 10.675781 C 17 8.074219 14.875 5.964844 12.25 5.964844 Z M 14.433594 13.664062 C 14.40625 13.761719 14.363281 13.835938 14.308594 13.886719 C 14.257812 13.941406 14.179688 13.996094 14.078125 14.050781 C 13.980469 14.105469 13.855469 14.15625 13.710938 14.203125 C 13.5625 14.25 13.394531 14.289062 13.207031 14.316406 C 13.019531 14.347656 12.8125 14.363281 12.585938 14.363281 C 12.15625 14.363281 11.777344 14.308594 11.445312 14.199219 C 11.113281 14.089844 10.832031 13.933594 10.597656 13.726562 C 10.363281 13.523438 10.171875 13.269531 10.023438 12.96875 C 9.878906 12.671875 9.773438 12.332031 9.707031 11.949219 L 9.160156 11.949219 C 9.105469 11.949219 9.058594 11.914062 9.023438 11.839844 C 8.992188 11.765625 8.972656 11.644531 8.972656 11.472656 C 8.972656 11.382812 8.976562 11.3125 8.980469 11.25 C 8.988281 11.191406 8.996094 11.140625 9.011719 11.105469 C 9.023438 11.070312 9.042969 11.042969 9.0625 11.027344 C 9.082031 11.011719 9.109375 11.003906 9.140625 11.003906 L 9.644531 11.003906 C 9.644531 10.945312 9.644531 10.886719 9.644531 10.824219 C 9.640625 10.761719 9.640625 10.699219 9.640625 10.640625 C 9.640625 10.566406 9.640625 10.492188 9.644531 10.417969 C 9.644531 10.34375 9.644531 10.273438 9.644531 10.207031 L 9.140625 10.207031 C 9.082031 10.207031 9.039062 10.171875 9.015625 10.101562 C 8.988281 10.03125 8.972656 9.910156 8.972656 9.730469 C 8.972656 9.640625 8.980469 9.566406 8.988281 9.503906 C 8.996094 9.445312 9.011719 9.398438 9.027344 9.363281 C 9.046875 9.324219 9.066406 9.300781 9.085938 9.285156 C 9.109375 9.269531 9.136719 9.261719 9.160156 9.261719 L 9.75 9.261719 C 9.824219 8.902344 9.933594 8.570312 10.082031 8.273438 C 10.226562 7.972656 10.414062 7.714844 10.644531 7.496094 C 10.875 7.28125 11.148438 7.113281 11.472656 6.996094 C 11.792969 6.875 12.167969 6.816406 12.59375 6.816406 C 12.792969 6.816406 12.984375 6.832031 13.167969 6.859375 C 13.351562 6.886719 13.519531 6.925781 13.667969 6.96875 C 13.8125 7.015625 13.9375 7.0625 14.035156 7.109375 C 14.128906 7.15625 14.199219 7.195312 14.242188 7.230469 C 14.285156 7.261719 14.3125 7.296875 14.332031 7.335938 C 14.351562 7.371094 14.367188 7.414062 14.378906 7.46875 C 14.390625 7.519531 14.398438 7.585938 14.40625 7.667969 C 14.414062 7.75 14.417969 7.847656 14.417969 7.964844 C 14.417969 8.066406 14.414062 8.148438 14.40625 8.210938 C 14.398438 8.277344 14.386719 8.328125 14.371094 8.367188 C 14.351562 8.40625 14.332031 8.433594 14.308594 8.449219 C 14.28125 8.464844 14.253906 8.472656 14.222656 8.472656 C 14.164062 8.472656 14.09375 8.445312 14.011719 8.394531 C 13.929688 8.339844 13.828125 8.28125 13.710938 8.222656 C 13.589844 8.160156 13.445312 8.101562 13.277344 8.050781 C 13.113281 8 12.917969 7.976562 12.691406 7.976562 C 12.480469 7.976562 12.292969 8.003906 12.132812 8.0625 C 11.976562 8.121094 11.835938 8.207031 11.722656 8.320312 C 11.605469 8.433594 11.511719 8.566406 11.441406 8.726562 C 11.367188 8.882812 11.3125 9.0625 11.273438 9.261719 L 12.835938 9.261719 C 12.859375 9.261719 12.886719 9.269531 12.910156 9.285156 C 12.9375 9.300781 12.957031 9.324219 12.972656 9.363281 C 12.988281 9.398438 13 9.445312 13.007812 9.503906 C 13.019531 9.566406 13.023438 9.640625 13.023438 9.730469 C 13.023438 9.910156 13.003906 10.03125 12.972656 10.101562 C 12.9375 10.171875 12.890625 10.207031 12.835938 10.207031 L 11.160156 10.207031 C 11.15625 10.265625 11.152344 10.328125 11.152344 10.390625 C 11.148438 10.453125 11.148438 10.519531 11.148438 10.59375 C 11.148438 10.664062 11.148438 10.730469 11.152344 10.796875 C 11.152344 10.863281 11.15625 10.929688 11.160156 11.003906 L 12.835938 11.003906 C 12.859375 11.003906 12.886719 11.011719 12.910156 11.027344 C 12.9375 11.042969 12.957031 11.070312 12.972656 11.105469 C 12.988281 11.140625 13 11.191406 13.007812 11.25 C 13.019531 11.3125 13.023438 11.382812 13.023438 11.472656 C 13.023438 11.644531 13.003906 11.765625 12.972656 11.839844 C 12.9375 11.914062 12.890625 11.949219 12.835938 11.949219 L 11.269531 11.949219 C 11.300781 12.144531 11.351562 12.316406 11.421875 12.46875 C 11.496094 12.621094 11.589844 12.75 11.710938 12.855469 C 11.828125 12.960938 11.976562 13.042969 12.148438 13.097656 C 12.320312 13.152344 12.527344 13.183594 12.765625 13.183594 C 12.992188 13.183594 13.183594 13.15625 13.351562 13.101562 C 13.515625 13.050781 13.660156 12.992188 13.78125 12.929688 C 13.902344 12.863281 14.003906 12.804688 14.085938 12.753906 C 14.167969 12.699219 14.234375 12.675781 14.285156 12.675781 C 14.316406 12.675781 14.34375 12.679688 14.371094 12.695312 C 14.394531 12.710938 14.414062 12.742188 14.433594 12.785156 C 14.449219 12.828125 14.460938 12.886719 14.46875 12.964844 C 14.476562 13.042969 14.480469 13.144531 14.480469 13.273438 C 14.480469 13.4375 14.464844 13.570312 14.433594 13.664062 Z M 14.433594 13.664062 "/>
</g>
</svg>
