<?xml version="1.0" encoding="UTF-8"?>
<svg xmlns="http://www.w3.org/2000/svg" xmlns:xlink="http://www.w3.org/1999/xlink" width="11" height="10.728069" viewBox="0 0 11 10.728069">
<path fill-rule="nonzero" fill="rgb(30%,30%,30%)" fill-opacity="1" d="M 10.550781 5.480469 L 9.851562 5.472656 C 9.761719 5.46875 9.691406 5.402344 9.683594 5.316406 C 9.632812 4.617188 9.273438 3.984375 8.738281 3.542969 C 8.417969 3.277344 8.066406 3.089844 7.660156 3.011719 C 7.359375 2.953125 7.066406 2.886719 6.761719 2.867188 C 5.808594 2.804688 4.875 2.777344 3.933594 2.863281 C 3.746094 2.878906 3.554688 2.902344 3.367188 2.925781 C 3.117188 2.957031 2.875 3.046875 2.652344 3.15625 C 2.4375 3.261719 2.21875 3.378906 2.050781 3.550781 C 1.53125 4.078125 1.230469 4.703125 1.1875 5.324219 C 1.183594 5.414062 1.109375 5.484375 1.019531 5.484375 L 0.449219 5.480469 C 0.203125 5.480469 0 5.679688 0 5.925781 C 0 6.128906 0.0273438 6.359375 0.53125 6.457031 C 0.644531 6.476562 0.703125 6.601562 0.648438 6.703125 C 0.511719 6.957031 0.5 7.230469 0.5 7.515625 C 0.5 7.878906 0.625 8.417969 0.898438 8.800781 C 0.925781 8.835938 0.933594 8.878906 0.929688 8.921875 C 0.925781 8.945312 0.925781 8.972656 0.925781 9 L 0.925781 9.902344 C 0.925781 10.355469 1.296875 10.726562 1.75 10.726562 L 1.804688 10.726562 C 2.257812 10.726562 2.628906 10.355469 2.628906 9.902344 L 2.628906 9.546875 C 2.632812 9.546875 2.636719 9.546875 2.640625 9.546875 C 3.363281 9.609375 7.011719 9.613281 8.210938 9.542969 C 8.308594 9.539062 8.390625 9.613281 8.390625 9.710938 L 8.390625 9.902344 C 8.390625 10.355469 8.761719 10.726562 9.214844 10.726562 L 9.269531 10.726562 C 9.722656 10.726562 10.09375 10.355469 10.09375 9.902344 L 10.09375 9 C 10.09375 8.984375 10.09375 8.96875 10.09375 8.953125 C 10.089844 8.910156 10.101562 8.867188 10.125 8.832031 C 10.382812 8.476562 10.480469 7.863281 10.480469 7.515625 C 10.480469 7.242188 10.464844 6.941406 10.328125 6.679688 C 10.277344 6.585938 10.324219 6.46875 10.425781 6.4375 C 10.445312 6.433594 10.460938 6.429688 10.476562 6.425781 C 10.851562 6.308594 11 6.171875 11 5.925781 C 11 5.679688 10.796875 5.480469 10.550781 5.480469 Z M 2.570312 8.753906 C 2.179688 8.753906 1.863281 8.4375 1.863281 8.050781 C 1.863281 7.660156 2.179688 7.34375 2.570312 7.34375 C 2.957031 7.34375 3.273438 7.660156 3.273438 8.050781 C 3.273438 8.4375 2.957031 8.753906 2.570312 8.753906 Z M 1.597656 5.726562 C 1.753906 3.375 3.035156 3.238281 4.871094 3.234375 L 5.394531 3.234375 C 7.511719 3.234375 9.207031 3.390625 9.253906 5.726562 C 9.273438 6.699219 7.480469 6.945312 5.363281 6.945312 C 3.25 6.945312 1.53125 6.699219 1.597656 5.726562 Z M 8.566406 8.753906 C 8.179688 8.753906 7.863281 8.4375 7.863281 8.050781 C 7.863281 7.660156 8.179688 7.34375 8.566406 7.34375 C 8.957031 7.34375 9.273438 7.660156 9.273438 8.050781 C 9.273438 8.4375 8.957031 8.753906 8.566406 8.753906 Z M 8.566406 8.753906 "/>
<path fill-rule="nonzero" fill="rgb(30%,30%,30%)" fill-opacity="1" d="M 9.082031 0.00390625 C 8.464844 0 7.910156 0.386719 7.703125 0.96875 L 3.027344 0.96875 C 2.769531 0.21875 1.953125 -0.179688 1.203125 0.078125 C 0.90625 0.179688 0.65625 0.375 0.480469 0.632812 C 0.414062 0.726562 0.441406 0.855469 0.535156 0.921875 C 0.570312 0.945312 0.609375 0.957031 0.652344 0.957031 L 1.605469 0.957031 C 1.808594 0.960938 1.972656 1.121094 1.972656 1.324219 L 1.972656 1.53125 C 1.972656 1.785156 1.769531 1.988281 1.519531 1.988281 L 0.703125 1.988281 C 0.589844 1.988281 0.496094 2.082031 0.496094 2.195312 C 0.496094 2.242188 0.511719 2.289062 0.539062 2.324219 C 1.027344 2.949219 1.933594 3.058594 2.558594 2.570312 C 2.757812 2.410156 2.914062 2.203125 3.007812 1.964844 L 7.714844 1.964844 C 7.992188 2.722656 8.828125 3.109375 9.585938 2.832031 C 10.34375 2.554688 10.730469 1.71875 10.457031 0.960938 C 10.246094 0.386719 9.695312 0.00390625 9.082031 0.00390625 Z M 9.082031 2.027344 C 8.761719 2.023438 8.507812 1.761719 8.507812 1.441406 C 8.511719 1.125 8.773438 0.867188 9.09375 0.871094 C 9.410156 0.875 9.667969 1.132812 9.667969 1.449219 C 9.664062 1.769531 9.402344 2.03125 9.082031 2.027344 Z M 9.082031 2.027344 "/>
</svg>
