<?xml version="1.0" encoding="UTF-8"?>
<svg xmlns="http://www.w3.org/2000/svg" xmlns:xlink="http://www.w3.org/1999/xlink" width="9.264719" height="11" viewBox="0 0 9.264719 11">
<path fill-rule="nonzero" fill="rgb(30%,30%,30%)" fill-opacity="1" d="M 4.703125 2.359375 L 4.703125 1.570312 L 6.648438 1.570312 L 5.628906 0.789062 L 6.601562 0.0117188 C 5.917969 0.0078125 5.234375 0.00390625 4.546875 0 L 4.546875 2.359375 L 0 4.777344 L 0 5.476562 L 9.25 5.476562 L 9.25 4.777344 Z M 4.703125 2.359375 "/>
<path fill-rule="nonzero" fill="rgb(30%,30%,30%)" fill-opacity="1" d="M 9.253906 5.777344 L 9.265625 7.101562 L 8.53125 7.101562 L 8.53125 10.175781 L 9.265625 10.175781 L 9.265625 11 C 9.078125 10.984375 0.191406 11 0.0078125 11 L 0.0078125 10.164062 L 0.707031 10.164062 L 0.707031 7.101562 L 0.0117188 7.101562 L 0 5.808594 C 1.441406 5.808594 2.847656 5.816406 4.253906 5.808594 C 5.921875 5.804688 7.585938 5.789062 9.253906 5.777344 Z M 2.558594 7.058594 L 1.5625 7.058594 L 1.5625 10.132812 L 2.558594 10.132812 Z M 4.347656 7.058594 L 3.351562 7.058594 L 3.351562 10.132812 L 4.347656 10.132812 Z M 6.140625 7.058594 L 5.140625 7.058594 L 5.140625 10.132812 L 6.140625 10.132812 Z M 7.929688 7.058594 L 6.929688 7.058594 L 6.929688 10.132812 L 7.929688 10.132812 Z M 7.929688 7.058594 "/>
</svg>
