<?xml version="1.0" encoding="UTF-8"?>
<svg xmlns="http://www.w3.org/2000/svg" xmlns:xlink="http://www.w3.org/1999/xlink" width="10.95385" height="11" viewBox="0 0 10.95385 11">
<path fill-rule="evenodd" fill="rgb(30%,30%,30%)" fill-opacity="1" d="M 10.933594 8.359375 C 10.871094 8.167969 10.613281 8.066406 10.328125 8.101562 C 10.253906 8.117188 10.164062 8.136719 10.085938 8.152344 C 9.726562 8.289062 7.886719 8.992188 7.871094 9.011719 L 7.824219 9.027344 L 7.855469 9.0625 C 8.066406 9.25 8.171875 9.457031 8.113281 9.628906 C 8.050781 9.902344 7.75 10.054688 7.265625 10.089844 C 6.8125 10.140625 6.269531 10.089844 5.621094 9.953125 C 5.683594 9.953125 5.773438 9.953125 5.847656 9.972656 C 6.316406 9.972656 6.753906 9.972656 7.101562 9.9375 C 7.628906 9.886719 7.886719 9.746094 7.914062 9.523438 C 7.929688 9.371094 7.855469 9.25 7.675781 9.148438 C 7.476562 9.027344 7.054688 8.976562 6.664062 8.890625 C 6.375 8.839844 6.136719 8.804688 5.9375 8.753906 C 5.304688 8.5625 4.65625 8.375 3.886719 8.445312 C 3.765625 8.460938 3.648438 8.460938 3.527344 8.496094 C 2.953125 8.617188 2.378906 8.769531 1.777344 8.957031 L 1.699219 8.976562 L 2.589844 10.417969 C 2.742188 10.382812 2.90625 10.347656 3.074219 10.332031 C 3.285156 10.3125 3.480469 10.3125 3.660156 10.347656 C 3.902344 10.398438 4.519531 10.535156 5.109375 10.675781 C 5.714844 10.828125 6.300781 10.949219 6.511719 10.984375 C 6.648438 11 6.769531 11 6.890625 11 C 7.191406 10.964844 7.492188 10.777344 7.78125 10.605469 C 7.871094 10.535156 7.960938 10.503906 8.050781 10.433594 L 10.675781 8.820312 C 10.976562 8.617188 10.976562 8.445312 10.933594 8.359375 Z M 10.933594 8.359375 "/>
<path fill-rule="evenodd" fill="rgb(30%,30%,30%)" fill-opacity="1" d="M 0.0546875 8.875 L 1.21875 8.875 C 1.277344 8.875 1.355469 8.925781 1.382812 8.976562 L 2.5 10.8125 C 2.546875 10.863281 2.53125 10.914062 2.46875 10.914062 L 1.292969 10.914062 C 1.25 10.914062 1.171875 10.863281 1.140625 10.8125 L 0.0273438 8.976562 C -0.0195312 8.925781 -0.00390625 8.875 0.0546875 8.875 Z M 0.0546875 8.875 "/>
<path fill-rule="nonzero" fill="rgb(30%,30%,30%)" fill-opacity="1" d="M 10.730469 5.136719 L 10.316406 5.132812 C 10.289062 4.246094 9.417969 3.605469 8.230469 3.601562 C 7.605469 3.597656 7.027344 3.820312 6.644531 4.210938 C 6.375 4.484375 6.226562 4.8125 6.226562 5.140625 L 5.875 5.136719 C 5.753906 5.136719 5.65625 5.234375 5.65625 5.351562 C 5.65625 5.464844 5.675781 5.59375 6.042969 5.621094 C 5.910156 5.773438 5.898438 5.941406 5.898438 6.113281 C 5.898438 6.296875 5.964844 6.574219 6.109375 6.757812 C 6.105469 6.78125 6.101562 6.804688 6.101562 6.828125 L 6.101562 7.34375 C 6.101562 7.515625 6.246094 7.660156 6.417969 7.660156 L 6.605469 7.660156 C 6.78125 7.660156 6.921875 7.515625 6.921875 7.34375 L 6.921875 7.089844 C 6.921875 7.089844 6.925781 7.09375 6.925781 7.09375 C 7.292969 7.121094 9.226562 7.121094 9.691406 7.082031 L 9.691406 7.34375 C 9.691406 7.515625 9.832031 7.660156 10.003906 7.660156 L 10.191406 7.660156 C 10.367188 7.660156 10.507812 7.515625 10.507812 7.34375 L 10.507812 6.828125 C 10.507812 6.808594 10.507812 6.792969 10.503906 6.773438 C 10.640625 6.609375 10.695312 6.292969 10.695312 6.113281 C 10.695312 5.953125 10.679688 5.769531 10.5625 5.628906 C 10.609375 5.617188 10.652344 5.601562 10.691406 5.589844 C 10.875 5.535156 10.945312 5.46875 10.945312 5.351562 C 10.945312 5.234375 10.847656 5.136719 10.730469 5.136719 Z M 6.800781 6.6875 C 6.625 6.6875 6.488281 6.550781 6.488281 6.375 C 6.488281 6.203125 6.625 6.0625 6.800781 6.0625 C 6.972656 6.0625 7.109375 6.203125 7.109375 6.375 C 7.109375 6.550781 6.972656 6.6875 6.800781 6.6875 Z M 9.679688 6.6875 C 9.507812 6.6875 9.367188 6.550781 9.367188 6.375 C 9.367188 6.203125 9.507812 6.0625 9.679688 6.0625 C 9.851562 6.0625 9.992188 6.203125 9.992188 6.375 C 9.992188 6.550781 9.851562 6.6875 9.679688 6.6875 Z M 10.097656 5.410156 C 10.070312 5.433594 10.035156 5.460938 9.992188 5.488281 C 8.988281 6.214844 6.917969 5.964844 6.484375 5.429688 C 6.46875 5.410156 6.457031 5.394531 6.445312 5.382812 C 6.425781 5.308594 6.417969 5.230469 6.417969 5.152344 C 6.410156 4.875 6.539062 4.585938 6.78125 4.34375 C 7.125 3.992188 7.652344 3.789062 8.222656 3.789062 C 8.222656 3.789062 8.226562 3.789062 8.230469 3.789062 C 9.320312 3.792969 10.117188 4.371094 10.128906 5.164062 C 10.128906 5.246094 10.117188 5.332031 10.097656 5.410156 Z M 10.097656 5.410156 "/>
<path fill-rule="evenodd" fill="rgb(30%,30%,30%)" fill-opacity="1" d="M 1.066406 4.644531 C 1.261719 4.652344 1.4375 4.835938 1.425781 5.039062 C 1.410156 5.226562 1.234375 5.390625 1.046875 5.382812 C 0.84375 5.375 0.6875 5.207031 0.695312 4.984375 C 0.714844 4.789062 0.871094 4.632812 1.066406 4.644531 Z M 1.066406 4.644531 "/>
<path fill-rule="evenodd" fill="rgb(30%,30%,30%)" fill-opacity="1" d="M 3.535156 3.117188 C 3.535156 3.394531 3.316406 3.605469 3.035156 3.605469 C 2.75 3.605469 2.527344 3.375 2.539062 3.089844 C 2.546875 2.800781 2.769531 2.597656 3.054688 2.605469 C 3.324219 2.605469 3.546875 2.839844 3.535156 3.117188 Z M 3.535156 3.117188 "/>
<path fill-rule="evenodd" fill="rgb(30%,30%,30%)" fill-opacity="1" d="M 2.390625 4.585938 C 2.34375 4.652344 2.296875 4.71875 2.269531 4.78125 C 2.09375 5.140625 1.816406 5.429688 1.539062 5.707031 C 1.453125 5.789062 1.425781 5.863281 1.425781 5.976562 L 1.425781 7.4375 C 1.425781 7.539062 1.4375 7.648438 1.296875 7.660156 C 1.160156 7.660156 1.121094 7.566406 1.128906 7.445312 C 1.128906 7.207031 1.140625 6.964844 1.128906 6.726562 C 1.128906 6.667969 1.167969 6.550781 1.058594 6.550781 C 0.957031 6.550781 0.992188 6.652344 0.992188 6.714844 C 0.984375 6.945312 0.992188 7.1875 0.992188 7.410156 C 0.992188 7.53125 1 7.660156 0.835938 7.660156 C 0.675781 7.648438 0.695312 7.53125 0.695312 7.429688 L 0.695312 6.09375 C 0.695312 6.023438 0.722656 5.949219 0.605469 5.816406 C 0.605469 6.03125 0.613281 6.1875 0.605469 6.335938 C 0.605469 6.429688 0.621094 6.53125 0.484375 6.53125 C 0.363281 6.53125 0.371094 6.429688 0.371094 6.34375 C 0.371094 6.179688 0.371094 6.003906 0.382812 5.828125 C 0.382812 5.640625 0.472656 5.539062 0.667969 5.550781 C 0.824219 5.558594 0.992188 5.550781 1.140625 5.550781 C 1.425781 5.550781 1.539062 5.449219 1.667969 5.1875 C 1.910156 4.71875 2.175781 4.261719 2.5 3.839844 C 2.59375 3.71875 2.714844 3.632812 2.878906 3.78125 C 2.972656 3.867188 3.121094 3.855469 3.210938 3.773438 C 3.34375 3.652344 3.433594 3.707031 3.535156 3.800781 C 3.675781 3.929688 3.769531 4.097656 3.859375 4.253906 C 4.019531 4.503906 4.164062 4.753906 4.324219 5.003906 C 4.398438 5.125 4.488281 5.261719 4.324219 5.355469 C 4.183594 5.449219 4.121094 5.28125 4.0625 5.1875 C 3.933594 4.984375 3.8125 4.78125 3.648438 4.597656 C 3.738281 4.910156 3.839844 5.234375 3.933594 5.558594 C 4.019531 5.84375 3.980469 5.910156 3.675781 5.902344 C 3.519531 5.890625 3.488281 5.957031 3.488281 6.09375 C 3.5 6.503906 3.488281 6.917969 3.5 7.335938 C 3.5 7.484375 3.5 7.648438 3.304688 7.648438 C 3.121094 7.648438 3.128906 7.484375 3.128906 7.34375 C 3.128906 6.9375 3.128906 6.539062 3.121094 6.132812 C 3.121094 6.058594 3.183594 5.917969 3.046875 5.910156 C 2.890625 5.910156 2.953125 6.050781 2.953125 6.125 L 2.953125 7.382812 C 2.953125 7.5 2.933594 7.621094 2.804688 7.648438 C 2.628906 7.6875 2.582031 7.546875 2.582031 7.410156 C 2.582031 6.984375 2.574219 6.558594 2.582031 6.125 C 2.59375 5.957031 2.546875 5.890625 2.363281 5.902344 C 2.113281 5.910156 2.066406 5.835938 2.128906 5.605469 C 2.222656 5.273438 2.324219 4.949219 2.417969 4.613281 C 2.40625 4.605469 2.398438 4.605469 2.390625 4.585938 Z M 2.390625 4.585938 "/>
<path fill-rule="evenodd" fill="rgb(30%,30%,30%)" fill-opacity="1" d="M 7 1.875 L 7 1.722656 L 7.386719 1.722656 C 7.191406 1.546875 6.972656 1.355469 6.78125 1.175781 L 6.78125 0.160156 C 6.78125 0.09375 6.726562 0.0390625 6.660156 0.0390625 L 6.207031 0.0390625 C 6.136719 0.0390625 6.082031 0.09375 6.082031 0.160156 L 6.082031 0.542969 C 5.90625 0.378906 5.726562 0.214844 5.546875 0.0507812 C 5.480469 -0.015625 5.4375 -0.015625 5.371094 0.0507812 C 4.78125 0.574219 4.191406 1.09375 3.601562 1.613281 C 3.5625 1.640625 3.519531 1.683594 3.480469 1.722656 L 3.78125 1.722656 L 3.78125 3.53125 C 3.78125 3.617188 3.792969 3.628906 3.875 3.628906 L 4.808594 3.628906 C 4.875 3.628906 4.902344 3.601562 4.902344 3.53125 C 4.890625 3.273438 4.902344 3 4.902344 2.722656 C 4.902344 2.574219 4.988281 2.492188 5.136719 2.476562 L 5.5625 2.476562 C 5.824219 2.476562 5.890625 2.558594 5.890625 2.820312 L 5.890625 3.546875 C 5.890625 3.601562 5.90625 3.628906 5.972656 3.628906 L 6.890625 3.628906 C 6.972656 3.628906 7 3.617188 7 3.558594 Z M 7 1.875 "/>
</svg>
