<?xml version="1.0" encoding="UTF-8"?>
<svg xmlns="http://www.w3.org/2000/svg" xmlns:xlink="http://www.w3.org/1999/xlink" width="11" height="7.496149" viewBox="0 0 11 7.496149">
<path fill-rule="nonzero" fill="rgb(30%,30%,30%)" fill-opacity="1" d="M 5.632812 0 L 5.457031 0 L 5.457031 0.210938 L 4.484375 0.210938 L 4.484375 0.898438 L 5.457031 0.898438 L 5.457031 1.738281 L 3.429688 2.46875 L 3.429688 7.496094 L 5.339844 7.496094 L 5.339844 6.554688 L 5.691406 6.554688 L 5.691406 7.496094 L 7.601562 7.496094 L 7.601562 2.46875 L 5.632812 1.738281 Z M 6.695312 6.1875 L 6.339844 6.1875 L 6.339844 4.941406 L 6.695312 4.941406 Z M 6.339844 3.191406 L 6.695312 3.191406 L 6.695312 4.433594 L 6.339844 4.433594 Z M 4.472656 6.1875 L 4.117188 6.1875 L 4.117188 4.941406 L 4.472656 4.941406 Z M 4.472656 4.433594 L 4.117188 4.433594 L 4.117188 3.191406 L 4.472656 3.191406 Z M 5.582031 6.1875 L 5.226562 6.1875 L 5.226562 4.941406 L 5.582031 4.941406 Z M 5.582031 4.433594 L 5.226562 4.433594 L 5.226562 3.191406 L 5.582031 3.191406 Z M 5.582031 4.433594 "/>
<path fill-rule="nonzero" fill="rgb(30%,30%,30%)" fill-opacity="1" d="M 0 7.496094 L 3.128906 7.496094 L 3.128906 4.183594 L 0 4.183594 Z M 1.945312 4.941406 L 2.296875 4.941406 L 2.296875 6.1875 L 1.945312 6.1875 Z M 0.832031 4.941406 L 1.1875 4.941406 L 1.1875 6.1875 L 0.832031 6.1875 Z M 0.832031 4.941406 "/>
<path fill-rule="nonzero" fill="rgb(30%,30%,30%)" fill-opacity="1" d="M 7.871094 4.152344 L 7.871094 7.464844 L 11 7.464844 L 11 4.152344 Z M 9.058594 6.152344 L 8.703125 6.152344 L 8.703125 4.910156 L 9.058594 4.910156 Z M 10.167969 6.152344 L 9.8125 6.152344 L 9.8125 4.910156 L 10.167969 4.910156 Z M 10.167969 6.152344 "/>
</svg>
