<?xml version="1.0" encoding="UTF-8" standalone="no"?>
<!-- Created with Inkscape (http://www.inkscape.org/) -->

<svg
   xmlns:dc="http://purl.org/dc/elements/1.1/"
   xmlns:cc="http://creativecommons.org/ns#"
   xmlns:rdf="http://www.w3.org/1999/02/22-rdf-syntax-ns#"
   xmlns:svg="http://www.w3.org/2000/svg"
   xmlns="http://www.w3.org/2000/svg"
   xmlns:xlink="http://www.w3.org/1999/xlink"
   xmlns:sodipodi="http://sodipodi.sourceforge.net/DTD/sodipodi-0.dtd"
   xmlns:inkscape="http://www.inkscape.org/namespaces/inkscape"
   width="30px"
   height="30px"
   version="1.1"
   id="svg8"
   inkscape:version="0.92.4 5da689c313, 2019-01-14"
   sodipodi:docname="container.svg">
  <defs
     id="defs2" />
  <sodipodi:namedview
     id="base"
     pagecolor="#ffffff"
     bordercolor="#666666"
     borderopacity="1.0"
     inkscape:pageopacity="0.0"
     inkscape:pageshadow="2"
     inkscape:zoom="13.049334"
     inkscape:cx="18.679046"
     inkscape:cy="12.165829"
     inkscape:document-units="px"
     inkscape:current-layer="layer1"
     showgrid="false"
     inkscape:snap-page="false"
     units="px"
     inkscape:window-width="1884"
     inkscape:window-height="1061"
     inkscape:window-x="0"
     inkscape:window-y="0"
     inkscape:window-maximized="1"
     fit-margin-top="0"
     fit-margin-left="0"
     fit-margin-right="0"
     fit-margin-bottom="0" />
  <metadata
     id="metadata5">
    <rdf:RDF>
      <cc:Work
         rdf:about="">
        <dc:format>image/svg+xml</dc:format>
        <dc:type
           rdf:resource="http://purl.org/dc/dcmitype/StillImage" />
        <dc:title></dc:title>
      </cc:Work>
    </rdf:RDF>
  </metadata>
    <circle
       style="color:#000000;clip-rule:nonzero;display:inline;overflow:visible;visibility:visible;opacity:1;isolation:auto;mix-blend-mode:normal;color-interpolation:sRGB;color-interpolation-filters:linearRGB;solid-color:#000000;solid-opacity:1;vector-effect:none;fill:#ffffff;fill-opacity:1;fill-rule:evenodd;stroke:#2a62ac;stroke-width:1;stroke-linecap:butt;stroke-linejoin:miter;stroke-miterlimit:4;stroke-dasharray:none;stroke-dashoffset:0;stroke-opacity:1;marker:none;color-rendering:auto;image-rendering:auto;shape-rendering:auto;text-rendering:auto;enable-background:accumulate"
       id="path815"
       cx="15"
       cy="15"
       r="14.5" />
<g transform="translate(6.5,6.5)"><path fill-rule="evenodd" fill="rgb(30%,30%,30%)" fill-opacity="1" d="M 16.894531 12.917969 C 16.800781 12.625 16.40625 12.46875 15.960938 12.519531 C 15.84375 12.546875 15.707031 12.574219 15.589844 12.601562 C 15.03125 12.8125 12.1875 13.898438 12.164062 13.925781 L 12.09375 13.953125 L 12.140625 14.003906 C 12.464844 14.296875 12.628906 14.613281 12.535156 14.878906 C 12.441406 15.304688 11.976562 15.542969 11.230469 15.59375 C 10.53125 15.675781 9.691406 15.59375 8.6875 15.382812 C 8.78125 15.382812 8.921875 15.382812 9.039062 15.410156 C 9.761719 15.410156 10.4375 15.410156 10.972656 15.355469 C 11.789062 15.277344 12.1875 15.066406 12.234375 14.71875 C 12.253906 14.480469 12.140625 14.296875 11.859375 14.136719 C 11.558594 13.953125 10.902344 13.871094 10.296875 13.738281 C 9.855469 13.660156 9.480469 13.605469 9.179688 13.527344 C 8.199219 13.234375 7.199219 12.945312 6.007812 13.050781 C 5.820312 13.078125 5.636719 13.078125 5.449219 13.128906 C 4.5625 13.316406 3.675781 13.554688 2.746094 13.84375 L 2.628906 13.871094 L 4.003906 16.097656 C 4.238281 16.046875 4.492188 15.992188 4.75 15.964844 C 5.074219 15.9375 5.378906 15.9375 5.660156 15.992188 C 6.03125 16.070312 6.988281 16.285156 7.894531 16.496094 C 8.828125 16.734375 9.738281 16.921875 10.066406 16.972656 C 10.273438 17 10.460938 17 10.648438 17 C 11.113281 16.945312 11.582031 16.65625 12.023438 16.390625 C 12.164062 16.285156 12.300781 16.230469 12.441406 16.125 L 16.5 13.632812 C 16.964844 13.316406 16.964844 13.050781 16.894531 12.917969 Z M 16.894531 12.917969 "/>
<path fill-rule="evenodd" fill="rgb(30%,30%,30%)" fill-opacity="1" d="M 0.0859375 13.714844 L 1.882812 13.714844 C 1.976562 13.714844 2.09375 13.792969 2.140625 13.871094 L 3.863281 16.707031 C 3.933594 16.789062 3.910156 16.867188 3.816406 16.867188 L 2 16.867188 C 1.929688 16.867188 1.8125 16.789062 1.765625 16.707031 L 0.0390625 13.871094 C -0.0273438 13.792969 -0.0078125 13.714844 0.0859375 13.714844 Z M 0.0859375 13.714844 "/>
<path fill-rule="nonzero" fill="rgb(30%,30%,30%)" fill-opacity="1" d="M 16.582031 7.9375 L 15.941406 7.933594 C 15.898438 6.5625 14.554688 5.570312 12.722656 5.5625 C 11.753906 5.5625 10.863281 5.902344 10.269531 6.507812 C 9.851562 6.929688 9.621094 7.441406 9.621094 7.941406 L 9.078125 7.9375 C 8.894531 7.9375 8.746094 8.089844 8.746094 8.269531 C 8.746094 8.445312 8.769531 8.644531 9.339844 8.691406 C 9.132812 8.921875 9.113281 9.179688 9.113281 9.449219 C 9.113281 9.734375 9.21875 10.164062 9.441406 10.445312 C 9.433594 10.480469 9.429688 10.515625 9.429688 10.554688 L 9.429688 11.347656 C 9.429688 11.617188 9.652344 11.835938 9.917969 11.835938 L 10.207031 11.835938 C 10.476562 11.835938 10.699219 11.617188 10.699219 11.347656 L 10.699219 10.960938 C 10.699219 10.960938 10.703125 10.960938 10.703125 10.960938 C 11.269531 11.007812 14.261719 11.007812 14.976562 10.949219 L 14.976562 11.347656 C 14.976562 11.617188 15.195312 11.835938 15.464844 11.835938 L 15.753906 11.835938 C 16.023438 11.835938 16.242188 11.617188 16.242188 11.347656 L 16.242188 10.554688 C 16.242188 10.523438 16.238281 10.496094 16.234375 10.46875 C 16.445312 10.214844 16.527344 9.722656 16.527344 9.449219 C 16.527344 9.199219 16.507812 8.917969 16.324219 8.695312 C 16.394531 8.679688 16.464844 8.660156 16.523438 8.640625 C 16.804688 8.554688 16.914062 8.453125 16.914062 8.269531 C 16.914062 8.089844 16.765625 7.9375 16.582031 7.9375 Z M 10.507812 10.335938 C 10.242188 10.335938 10.023438 10.121094 10.023438 9.855469 C 10.023438 9.585938 10.242188 9.371094 10.507812 9.371094 C 10.773438 9.371094 10.988281 9.585938 10.988281 9.855469 C 10.988281 10.121094 10.773438 10.335938 10.507812 10.335938 Z M 14.960938 10.335938 C 14.695312 10.335938 14.476562 10.121094 14.476562 9.855469 C 14.476562 9.585938 14.695312 9.371094 14.960938 9.371094 C 15.226562 9.371094 15.441406 9.585938 15.441406 9.855469 C 15.441406 10.121094 15.226562 10.335938 14.960938 10.335938 Z M 15.601562 8.363281 C 15.5625 8.398438 15.507812 8.4375 15.441406 8.480469 C 13.890625 9.605469 10.691406 9.21875 10.023438 8.390625 C 9.996094 8.363281 9.976562 8.339844 9.960938 8.316406 C 9.933594 8.203125 9.917969 8.085938 9.917969 7.964844 C 9.90625 7.535156 10.105469 7.089844 10.476562 6.714844 C 11.011719 6.167969 11.824219 5.859375 12.707031 5.859375 C 12.710938 5.859375 12.714844 5.859375 12.71875 5.859375 C 14.40625 5.863281 15.636719 6.757812 15.652344 7.980469 C 15.652344 8.109375 15.636719 8.238281 15.601562 8.363281 Z M 15.601562 8.363281 "/>
<path fill-rule="evenodd" fill="rgb(30%,30%,30%)" fill-opacity="1" d="M 1.648438 7.175781 C 1.949219 7.191406 2.21875 7.476562 2.207031 7.789062 C 2.175781 8.078125 1.90625 8.332031 1.617188 8.320312 C 1.304688 8.304688 1.0625 8.046875 1.074219 7.703125 C 1.105469 7.402344 1.347656 7.160156 1.648438 7.175781 Z M 1.648438 7.175781 "/>
<path fill-rule="evenodd" fill="rgb(30%,30%,30%)" fill-opacity="1" d="M 5.464844 4.816406 C 5.464844 5.246094 5.121094 5.574219 4.695312 5.574219 C 4.25 5.574219 3.90625 5.214844 3.921875 4.773438 C 3.9375 4.328125 4.277344 4.015625 4.722656 4.03125 C 5.136719 4.03125 5.480469 4.386719 5.464844 4.816406 Z M 5.464844 4.816406 "/>
<path fill-rule="evenodd" fill="rgb(30%,30%,30%)" fill-opacity="1" d="M 3.691406 7.089844 C 3.621094 7.191406 3.550781 7.289062 3.507812 7.390625 C 3.234375 7.949219 2.804688 8.390625 2.378906 8.820312 C 2.246094 8.949219 2.207031 9.0625 2.207031 9.234375 L 2.207031 11.492188 C 2.207031 11.652344 2.21875 11.824219 2.003906 11.835938 C 1.789062 11.835938 1.734375 11.695312 1.746094 11.507812 C 1.746094 11.136719 1.761719 10.765625 1.746094 10.394531 C 1.746094 10.308594 1.804688 10.121094 1.632812 10.121094 C 1.476562 10.121094 1.535156 10.277344 1.535156 10.378906 C 1.519531 10.734375 1.535156 11.109375 1.535156 11.449219 C 1.535156 11.636719 1.546875 11.835938 1.289062 11.835938 C 1.046875 11.824219 1.074219 11.636719 1.074219 11.480469 L 1.074219 9.421875 C 1.074219 9.304688 1.117188 9.191406 0.933594 8.992188 C 0.933594 9.320312 0.945312 9.5625 0.933594 9.792969 C 0.933594 9.933594 0.960938 10.09375 0.746094 10.09375 C 0.5625 10.09375 0.574219 9.933594 0.574219 9.804688 C 0.574219 9.550781 0.574219 9.277344 0.589844 9.003906 C 0.589844 8.71875 0.734375 8.5625 1.03125 8.578125 C 1.277344 8.589844 1.535156 8.578125 1.761719 8.578125 C 2.207031 8.578125 2.378906 8.417969 2.578125 8.019531 C 2.949219 7.289062 3.363281 6.589844 3.863281 5.929688 C 4.007812 5.746094 4.191406 5.617188 4.449219 5.84375 C 4.59375 5.972656 4.820312 5.960938 4.964844 5.832031 C 5.164062 5.644531 5.308594 5.730469 5.464844 5.875 C 5.679688 6.074219 5.824219 6.332031 5.964844 6.574219 C 6.210938 6.960938 6.4375 7.347656 6.679688 7.734375 C 6.796875 7.917969 6.9375 8.132812 6.679688 8.277344 C 6.464844 8.417969 6.367188 8.160156 6.28125 8.019531 C 6.082031 7.703125 5.894531 7.390625 5.636719 7.105469 C 5.78125 7.589844 5.9375 8.089844 6.082031 8.589844 C 6.210938 9.035156 6.152344 9.132812 5.679688 9.121094 C 5.4375 9.105469 5.394531 9.207031 5.394531 9.421875 C 5.410156 10.050781 5.394531 10.691406 5.410156 11.335938 C 5.410156 11.566406 5.410156 11.824219 5.109375 11.824219 C 4.820312 11.824219 4.835938 11.566406 4.835938 11.351562 C 4.835938 10.722656 4.835938 10.105469 4.820312 9.476562 C 4.820312 9.363281 4.921875 9.148438 4.707031 9.132812 C 4.464844 9.132812 4.566406 9.347656 4.566406 9.464844 L 4.566406 11.40625 C 4.566406 11.59375 4.535156 11.78125 4.335938 11.824219 C 4.0625 11.878906 3.992188 11.664062 3.992188 11.449219 C 3.992188 10.792969 3.980469 10.136719 3.992188 9.464844 C 4.007812 9.207031 3.9375 9.105469 3.648438 9.121094 C 3.261719 9.132812 3.191406 9.019531 3.292969 8.664062 C 3.433594 8.148438 3.59375 7.648438 3.734375 7.132812 C 3.722656 7.117188 3.707031 7.117188 3.691406 7.089844 Z M 3.691406 7.089844 "/>
<path fill-rule="evenodd" fill="rgb(30%,30%,30%)" fill-opacity="1" d="M 10.820312 2.898438 L 10.820312 2.664062 L 11.414062 2.664062 C 11.117188 2.386719 10.777344 2.09375 10.480469 1.816406 L 10.480469 0.25 C 10.480469 0.144531 10.394531 0.0585938 10.289062 0.0585938 L 9.589844 0.0585938 C 9.484375 0.0585938 9.402344 0.144531 9.402344 0.25 L 9.402344 0.84375 C 9.125 0.589844 8.851562 0.332031 8.574219 0.078125 C 8.46875 -0.0273438 8.40625 -0.0273438 8.300781 0.078125 C 7.386719 0.882812 6.476562 1.6875 5.566406 2.496094 C 5.503906 2.535156 5.441406 2.601562 5.375 2.664062 L 5.84375 2.664062 L 5.84375 5.460938 C 5.84375 5.585938 5.863281 5.609375 5.992188 5.609375 L 7.429688 5.609375 C 7.535156 5.609375 7.578125 5.566406 7.578125 5.460938 C 7.558594 5.058594 7.578125 4.632812 7.578125 4.210938 C 7.578125 3.976562 7.707031 3.851562 7.9375 3.828125 L 8.597656 3.828125 C 9 3.828125 9.105469 3.957031 9.105469 4.359375 L 9.105469 5.480469 C 9.105469 5.566406 9.125 5.609375 9.230469 5.609375 L 10.652344 5.609375 C 10.777344 5.609375 10.820312 5.585938 10.820312 5.503906 Z M 10.820312 2.898438 "/>
</g>
</svg>
