<?xml version="1.0" encoding="UTF-8" standalone="no"?>
<!-- Created with Inkscape (http://www.inkscape.org/) -->

<svg
   xmlns:dc="http://purl.org/dc/elements/1.1/"
   xmlns:cc="http://creativecommons.org/ns#"
   xmlns:rdf="http://www.w3.org/1999/02/22-rdf-syntax-ns#"
   xmlns:svg="http://www.w3.org/2000/svg"
   xmlns="http://www.w3.org/2000/svg"
   xmlns:xlink="http://www.w3.org/1999/xlink"
   xmlns:sodipodi="http://sodipodi.sourceforge.net/DTD/sodipodi-0.dtd"
   xmlns:inkscape="http://www.inkscape.org/namespaces/inkscape"
   width="30px"
   height="30px"
   version="1.1"
   id="svg8"
   inkscape:version="0.92.4 5da689c313, 2019-01-14"
   sodipodi:docname="container.svg">
  <defs
     id="defs2" />
  <sodipodi:namedview
     id="base"
     pagecolor="#ffffff"
     bordercolor="#666666"
     borderopacity="1.0"
     inkscape:pageopacity="0.0"
     inkscape:pageshadow="2"
     inkscape:zoom="13.049334"
     inkscape:cx="18.679046"
     inkscape:cy="12.165829"
     inkscape:document-units="px"
     inkscape:current-layer="layer1"
     showgrid="false"
     inkscape:snap-page="false"
     units="px"
     inkscape:window-width="1884"
     inkscape:window-height="1061"
     inkscape:window-x="0"
     inkscape:window-y="0"
     inkscape:window-maximized="1"
     fit-margin-top="0"
     fit-margin-left="0"
     fit-margin-right="0"
     fit-margin-bottom="0" />
  <metadata
     id="metadata5">
    <rdf:RDF>
      <cc:Work
         rdf:about="">
        <dc:format>image/svg+xml</dc:format>
        <dc:type
           rdf:resource="http://purl.org/dc/dcmitype/StillImage" />
        <dc:title></dc:title>
      </cc:Work>
    </rdf:RDF>
  </metadata>
    <circle
       style="color:#000000;clip-rule:nonzero;display:inline;overflow:visible;visibility:visible;opacity:1;isolation:auto;mix-blend-mode:normal;color-interpolation:sRGB;color-interpolation-filters:linearRGB;solid-color:#000000;solid-opacity:1;vector-effect:none;fill:#ffffff;fill-opacity:1;fill-rule:evenodd;stroke:#2a62ac;stroke-width:1;stroke-linecap:butt;stroke-linejoin:miter;stroke-miterlimit:4;stroke-dasharray:none;stroke-dashoffset:0;stroke-opacity:1;marker:none;color-rendering:auto;image-rendering:auto;shape-rendering:auto;text-rendering:auto;enable-background:accumulate"
       id="path815"
       cx="15"
       cy="15"
       r="14.5" />
<g transform="translate(6.5,7.0)"><path fill-rule="nonzero" fill="rgb(30%,30%,30%)" fill-opacity="1" d="M 0 8.621094 L 0.226562 7.691406 L 3.492188 7.722656 L 0.621094 6.078125 L 0.8125 5.289062 L 4.125 5.144531 L 1.210938 3.675781 L 1.4375 2.742188 L 6 5.046875 L 5.78125 5.957031 L 2.425781 6.109375 L 5.335938 7.777344 L 5.113281 8.675781 Z M 0 8.621094 "/>
<path fill-rule="nonzero" fill="rgb(30%,30%,30%)" fill-opacity="1" d="M 5.375 0 L 6.335938 0 L 7.074219 3.179688 L 7.992188 0 L 8.804688 0 L 9.734375 3.183594 L 10.46875 0.00390625 L 11.429688 0.00390625 L 10.273438 4.984375 L 9.335938 4.984375 L 8.390625 1.761719 L 7.460938 4.980469 L 6.535156 4.980469 Z M 5.375 0 "/>
<path fill-rule="nonzero" fill="rgb(30%,30%,30%)" fill-opacity="1" d="M 15.574219 2.738281 L 15.800781 3.671875 L 12.882812 5.144531 L 16.191406 5.285156 L 16.382812 6.074219 L 13.511719 7.726562 L 16.773438 7.691406 L 17 8.625 L 11.886719 8.675781 L 11.667969 7.765625 L 14.574219 6.085938 L 11.226562 5.945312 L 11.007812 5.042969 Z M 15.574219 2.738281 "/>
<path fill-rule="nonzero" fill="rgb(30%,30%,30%)" fill-opacity="1" d="M 15.839844 12.300781 L 15.113281 12.933594 L 12.46875 11.023438 L 13.867188 14.019531 L 13.253906 14.554688 L 10.464844 12.765625 L 12 15.648438 L 11.273438 16.277344 L 8.875 11.761719 L 9.578125 11.148438 L 12.40625 12.957031 L 10.992188 9.917969 L 11.691406 9.308594 Z M 15.839844 12.300781 "/>
<path fill-rule="nonzero" fill="rgb(30%,30%,30%)" fill-opacity="1" d="M 5.785156 16.320312 L 5.046875 15.707031 L 6.503906 12.785156 L 3.769531 14.648438 L 3.144531 14.128906 L 4.460938 11.089844 L 1.863281 13.066406 L 1.125 12.453125 L 5.195312 9.359375 L 5.914062 9.957031 L 4.585938 13.039062 L 7.355469 11.152344 L 8.070312 11.742188 Z M 5.785156 16.320312 "/>
</g>
</svg>
