<?xml version="1.0" encoding="UTF-8"?>
<svg xmlns="http://www.w3.org/2000/svg" xmlns:xlink="http://www.w3.org/1999/xlink" width="8.382046" height="11" viewBox="0 0 8.382046 11">
<path fill-rule="nonzero" fill="rgb(30%,30%,30%)" fill-opacity="1" d="M 5.71875 11 L 0.574219 11 C 0.257812 11 0 10.742188 0 10.425781 L 0 2.660156 C 0 2.371094 0.234375 2.136719 0.523438 2.136719 L 5.71875 2.136719 C 6.035156 2.136719 6.292969 2.390625 6.292969 2.707031 L 6.292969 10.425781 C 6.292969 10.742188 6.035156 11 5.71875 11 Z M 0.523438 2.59375 C 0.488281 2.59375 0.460938 2.625 0.460938 2.660156 L 0.460938 10.425781 C 0.460938 10.488281 0.511719 10.539062 0.574219 10.539062 L 5.71875 10.539062 C 5.78125 10.539062 5.832031 10.488281 5.832031 10.425781 L 5.832031 2.707031 C 5.832031 2.644531 5.78125 2.59375 5.71875 2.59375 Z M 0.523438 2.59375 "/>
<path fill-rule="nonzero" fill="rgb(30%,30%,30%)" fill-opacity="1" d="M 6.707031 9.964844 L 6.410156 9.964844 L 6.410156 9.507812 L 6.707031 9.507812 C 6.769531 9.507812 6.820312 9.457031 6.820312 9.394531 L 6.820312 1.675781 C 6.820312 1.613281 6.769531 1.5625 6.707031 1.5625 L 1.511719 1.5625 C 1.476562 1.5625 1.445312 1.589844 1.445312 1.625 L 1.445312 1.933594 L 0.988281 1.933594 L 0.988281 1.625 C 0.988281 1.335938 1.222656 1.101562 1.511719 1.101562 L 6.707031 1.101562 C 7.023438 1.101562 7.28125 1.359375 7.28125 1.675781 L 7.28125 9.394531 C 7.28125 9.710938 7.023438 9.964844 6.707031 9.964844 Z M 6.707031 9.964844 "/>
<path fill-rule="nonzero" fill="rgb(30%,30%,30%)" fill-opacity="1" d="M 7.808594 8.863281 L 7.488281 8.863281 L 7.488281 8.40625 L 7.808594 8.40625 C 7.871094 8.40625 7.921875 8.355469 7.921875 8.292969 L 7.921875 0.574219 C 7.921875 0.511719 7.871094 0.460938 7.808594 0.460938 L 2.613281 0.460938 C 2.578125 0.460938 2.550781 0.488281 2.550781 0.523438 L 2.550781 0.894531 L 2.089844 0.894531 L 2.089844 0.523438 C 2.089844 0.234375 2.324219 0 2.613281 0 L 7.808594 0 C 8.125 0 8.382812 0.257812 8.382812 0.574219 L 8.382812 8.292969 C 8.382812 8.609375 8.125 8.863281 7.808594 8.863281 Z M 7.808594 8.863281 "/>
<path fill-rule="nonzero" fill="rgb(30%,30%,30%)" fill-opacity="1" d="M 5.074219 5.695312 L 1.078125 5.695312 C 0.976562 5.695312 0.894531 5.613281 0.894531 5.511719 C 0.894531 5.410156 0.976562 5.328125 1.078125 5.328125 L 5.074219 5.328125 C 5.175781 5.328125 5.257812 5.410156 5.257812 5.511719 C 5.257812 5.613281 5.175781 5.695312 5.074219 5.695312 Z M 5.074219 5.695312 "/>
<path fill-rule="nonzero" fill="rgb(30%,30%,30%)" fill-opacity="1" d="M 5.074219 4.640625 L 1.078125 4.640625 C 0.976562 4.640625 0.894531 4.554688 0.894531 4.457031 C 0.894531 4.355469 0.976562 4.269531 1.078125 4.269531 L 5.074219 4.269531 C 5.175781 4.269531 5.257812 4.355469 5.257812 4.457031 C 5.257812 4.554688 5.175781 4.640625 5.074219 4.640625 Z M 5.074219 4.640625 "/>
<path fill-rule="nonzero" fill="rgb(30%,30%,30%)" fill-opacity="1" d="M 5.074219 6.75 L 1.078125 6.75 C 0.976562 6.75 0.894531 6.667969 0.894531 6.566406 C 0.894531 6.464844 0.976562 6.382812 1.078125 6.382812 L 5.074219 6.382812 C 5.175781 6.382812 5.257812 6.464844 5.257812 6.566406 C 5.257812 6.667969 5.175781 6.75 5.074219 6.75 Z M 5.074219 6.75 "/>
<path fill-rule="nonzero" fill="rgb(30%,30%,30%)" fill-opacity="1" d="M 5.074219 7.808594 L 1.078125 7.808594 C 0.976562 7.808594 0.894531 7.726562 0.894531 7.625 C 0.894531 7.523438 0.976562 7.441406 1.078125 7.441406 L 5.074219 7.441406 C 5.175781 7.441406 5.257812 7.523438 5.257812 7.625 C 5.257812 7.726562 5.175781 7.808594 5.074219 7.808594 Z M 5.074219 7.808594 "/>
<path fill-rule="nonzero" fill="rgb(30%,30%,30%)" fill-opacity="1" d="M 5.074219 8.863281 L 1.078125 8.863281 C 0.976562 8.863281 0.894531 8.78125 0.894531 8.679688 C 0.894531 8.578125 0.976562 8.496094 1.078125 8.496094 L 5.074219 8.496094 C 5.175781 8.496094 5.257812 8.578125 5.257812 8.679688 C 5.257812 8.78125 5.175781 8.863281 5.074219 8.863281 Z M 5.074219 8.863281 "/>
</svg>
