<?xml version="1.0" encoding="UTF-8"?>
<svg xmlns="http://www.w3.org/2000/svg" xmlns:xlink="http://www.w3.org/1999/xlink" width="11" height="11" viewBox="0 0 11 11">
<path fill-rule="nonzero" fill="rgb(30%,30%,30%)" fill-opacity="1" d="M 4.230469 8.925781 C 3.539062 6.855469 4 4.554688 5.476562 2.703125 C 5.371094 3.832031 6.5 4.84375 7.445312 5.113281 C 6.21875 6.214844 5.414062 8.582031 5.683594 10.636719 C 5.683594 10.636719 5.753906 10.972656 5.539062 11 C 5.160156 11.046875 4.425781 9.511719 4.230469 8.925781 Z M 4.230469 8.925781 "/>
<path fill-rule="nonzero" fill="rgb(30%,30%,30%)" fill-opacity="1" d="M 9.417969 3.828125 C 8.820312 4.136719 7.472656 4.394531 6.683594 3.585938 C 5.832031 2.714844 6.242188 1.5625 6.714844 1.125 L 5.652344 0.0625 C 5.570312 -0.0195312 5.433594 -0.0195312 5.347656 0.0625 L 0.0625 5.34375 C -0.0195312 5.429688 -0.0195312 5.566406 0.0625 5.652344 L 3.691406 9.273438 C 2.261719 5.226562 5.488281 2.675781 5.488281 2.675781 C 6.050781 4.320312 7.449219 4.816406 8.699219 4.566406 C 7.164062 5.960938 5.800781 8.019531 5.953125 10.628906 L 10.9375 5.652344 C 11.019531 5.566406 11.019531 5.425781 10.9375 5.34375 Z M 9.417969 3.828125 "/>
<path fill-rule="nonzero" fill="rgb(30%,30%,30%)" fill-opacity="1" d="M 9.210938 2.167969 C 9.277344 2.570312 9.144531 2.980469 8.855469 3.269531 C 8.566406 3.558594 8.15625 3.691406 7.753906 3.625 C 7.21875 3.542969 6.78125 3.105469 6.699219 2.570312 C 6.636719 2.167969 6.769531 1.757812 7.058594 1.472656 C 7.34375 1.183594 7.753906 1.050781 8.15625 1.113281 C 8.691406 1.195312 9.128906 1.632812 9.210938 2.167969 Z M 9.210938 2.167969 "/>
</svg>
