<?xml version="1.0" encoding="UTF-8" standalone="no"?>
<!-- Created with Inkscape (http://www.inkscape.org/) -->

<svg
   xmlns:dc="http://purl.org/dc/elements/1.1/"
   xmlns:cc="http://creativecommons.org/ns#"
   xmlns:rdf="http://www.w3.org/1999/02/22-rdf-syntax-ns#"
   xmlns:svg="http://www.w3.org/2000/svg"
   xmlns="http://www.w3.org/2000/svg"
   xmlns:xlink="http://www.w3.org/1999/xlink"
   xmlns:sodipodi="http://sodipodi.sourceforge.net/DTD/sodipodi-0.dtd"
   xmlns:inkscape="http://www.inkscape.org/namespaces/inkscape"
   width="30px"
   height="30px"
   version="1.1"
   id="svg8"
   inkscape:version="0.92.4 5da689c313, 2019-01-14"
   sodipodi:docname="container.svg">
  <defs
     id="defs2" />
  <sodipodi:namedview
     id="base"
     pagecolor="#ffffff"
     bordercolor="#666666"
     borderopacity="1.0"
     inkscape:pageopacity="0.0"
     inkscape:pageshadow="2"
     inkscape:zoom="13.049334"
     inkscape:cx="18.679046"
     inkscape:cy="12.165829"
     inkscape:document-units="px"
     inkscape:current-layer="layer1"
     showgrid="false"
     inkscape:snap-page="false"
     units="px"
     inkscape:window-width="1884"
     inkscape:window-height="1061"
     inkscape:window-x="0"
     inkscape:window-y="0"
     inkscape:window-maximized="1"
     fit-margin-top="0"
     fit-margin-left="0"
     fit-margin-right="0"
     fit-margin-bottom="0" />
  <metadata
     id="metadata5">
    <rdf:RDF>
      <cc:Work
         rdf:about="">
        <dc:format>image/svg+xml</dc:format>
        <dc:type
           rdf:resource="http://purl.org/dc/dcmitype/StillImage" />
        <dc:title></dc:title>
      </cc:Work>
    </rdf:RDF>
  </metadata>
    <circle
       style="color:#000000;clip-rule:nonzero;display:inline;overflow:visible;visibility:visible;opacity:1;isolation:auto;mix-blend-mode:normal;color-interpolation:sRGB;color-interpolation-filters:linearRGB;solid-color:#000000;solid-opacity:1;vector-effect:none;fill:#ffffff;fill-opacity:1;fill-rule:evenodd;stroke:#2a62ac;stroke-width:1;stroke-linecap:butt;stroke-linejoin:miter;stroke-miterlimit:4;stroke-dasharray:none;stroke-dashoffset:0;stroke-opacity:1;marker:none;color-rendering:auto;image-rendering:auto;shape-rendering:auto;text-rendering:auto;enable-background:accumulate"
       id="path815"
       cx="15"
       cy="15"
       r="14.5" />
<g transform="translate(6.5,9.5)"><path fill-rule="nonzero" fill="rgb(30%,30%,30%)" fill-opacity="1" d="M 5.28125 8.664062 C 5.222656 8.675781 5.160156 8.65625 5.121094 8.613281 C 5.078125 8.566406 5.058594 8.503906 5.070312 8.441406 C 5.117188 8.21875 5.054688 7.992188 4.894531 7.824219 C 4.726562 7.648438 4.480469 7.570312 4.238281 7.621094 C 4.179688 7.632812 4.117188 7.613281 4.078125 7.570312 C 4.035156 7.523438 4.015625 7.460938 4.027344 7.402344 C 4.074219 7.171875 4.007812 6.945312 3.847656 6.777344 C 3.675781 6.601562 3.425781 6.527344 3.183594 6.582031 C 3.089844 6.605469 3 6.546875 2.972656 6.453125 C 2.90625 6.210938 2.726562 6.03125 2.488281 5.964844 C 2.234375 5.894531 1.976562 5.960938 1.792969 6.144531 L 1.585938 6.351562 C 1.390625 6.550781 1.328125 6.820312 1.421875 7.078125 C 1.5 7.289062 1.703125 7.523438 2.050781 7.539062 C 2.140625 7.546875 2.214844 7.621094 2.21875 7.714844 C 2.230469 7.917969 2.320312 8.097656 2.476562 8.222656 C 2.640625 8.355469 2.855469 8.40625 3.0625 8.363281 C 3.121094 8.351562 3.183594 8.371094 3.222656 8.414062 C 3.265625 8.460938 3.285156 8.523438 3.273438 8.582031 C 3.21875 8.835938 3.308594 9.089844 3.507812 9.253906 C 3.71875 9.429688 4.007812 9.46875 4.261719 9.351562 C 4.285156 9.34375 4.308594 9.335938 4.332031 9.335938 C 4.367188 9.335938 4.402344 9.347656 4.433594 9.367188 C 4.484375 9.40625 4.515625 9.464844 4.511719 9.53125 C 4.5 9.820312 4.652344 10.066406 4.914062 10.1875 C 5.132812 10.289062 5.457031 10.304688 5.714844 10.046875 L 5.925781 9.839844 C 6.183594 9.578125 6.164062 9.253906 6.054688 9.039062 C 5.941406 8.816406 5.671875 8.582031 5.28125 8.664062 Z M 5.28125 8.664062 "/>
<path fill-rule="nonzero" fill="rgb(30%,30%,30%)" fill-opacity="1" d="M 3.496094 0 L 0 3.496094 L 0.578125 4.070312 L 4.070312 0.578125 Z M 3.496094 0 "/>
<path fill-rule="nonzero" fill="rgb(30%,30%,30%)" fill-opacity="1" d="M 11.710938 1.792969 L 11.660156 1.800781 C 10.78125 1.976562 10.015625 1.628906 9.398438 1.351562 C 9.242188 1.28125 9.097656 1.214844 8.960938 1.160156 C 8.683594 1.054688 8.375 1.042969 8.089844 1.128906 L 4.597656 2.179688 C 4.816406 2.777344 5.773438 3.210938 6.441406 3.117188 L 9.445312 2.6875 L 13.1875 6.429688 C 13.945312 6.1875 14.863281 5.589844 15.222656 4.871094 L 15.25 4.816406 L 15.90625 4.488281 L 12.839844 1.421875 C 12.296875 1.675781 12.117188 1.710938 11.710938 1.792969 Z M 11.710938 1.792969 "/>
<path fill-rule="nonzero" fill="rgb(30%,30%,30%)" fill-opacity="1" d="M 9.324219 3.078125 L 6.488281 3.484375 C 5.570312 3.617188 4.335938 2.992188 4.203125 2.078125 L 4.179688 1.917969 L 4.632812 1.78125 C 4.328125 1.601562 4.066406 1.378906 3.917969 1.246094 L 1.25 3.914062 L 1.742188 4.40625 C 2.164062 4.824219 2.21875 5.261719 2.15625 5.574219 C 2.292969 5.558594 2.4375 5.566406 2.578125 5.605469 C 2.886719 5.691406 3.132812 5.90625 3.261719 6.195312 C 3.574219 6.175781 3.878906 6.289062 4.097656 6.515625 C 4.289062 6.710938 4.394531 6.96875 4.398438 7.234375 C 4.679688 7.242188 4.949219 7.355469 5.148438 7.566406 C 5.335938 7.761719 5.4375 8.011719 5.445312 8.277344 C 5.835938 8.28125 6.183594 8.496094 6.371094 8.867188 C 6.503906 9.132812 6.523438 9.421875 6.433594 9.683594 L 7.1875 10.4375 C 7.464844 10.714844 7.945312 10.742188 8.222656 10.460938 C 8.351562 10.332031 8.421875 10.15625 8.421875 9.972656 C 8.421875 9.789062 8.351562 9.613281 8.21875 9.480469 L 7.511719 8.777344 C 7.441406 8.703125 7.441406 8.585938 7.507812 8.511719 C 7.578125 8.441406 7.691406 8.4375 7.761719 8.507812 L 9.0625 9.808594 C 9.339844 10.089844 9.820312 10.117188 10.097656 9.835938 C 10.226562 9.707031 10.300781 9.53125 10.300781 9.347656 C 10.300781 9.160156 10.226562 8.988281 10.09375 8.855469 L 8.761719 7.523438 C 8.691406 7.453125 8.691406 7.335938 8.757812 7.261719 C 8.828125 7.1875 8.941406 7.1875 9.011719 7.257812 L 10.730469 8.976562 C 11.007812 9.253906 11.488281 9.28125 11.765625 9.003906 C 11.894531 8.871094 11.96875 8.699219 11.96875 8.511719 C 11.96875 8.328125 11.894531 8.152344 11.761719 8.019531 L 10.015625 6.273438 C 9.945312 6.203125 9.941406 6.085938 10.011719 6.011719 C 10.078125 5.9375 10.191406 5.9375 10.261719 6.007812 L 12.011719 7.753906 C 12.011719 7.757812 12.015625 7.761719 12.019531 7.761719 C 12.328125 8.070312 12.945312 8.222656 13.226562 7.957031 C 13.355469 7.839844 13.429688 7.671875 13.429688 7.492188 C 13.433594 7.300781 13.359375 7.113281 13.222656 6.980469 Z M 9.324219 3.078125 "/>
<path fill-rule="nonzero" fill="rgb(30%,30%,30%)" fill-opacity="1" d="M 13.503906 0.417969 L 12.925781 0.992188 L 13.21875 1.28125 L 16.421875 4.488281 L 17 3.914062 Z M 13.503906 0.417969 "/>
</g>
</svg>
