<?xml version="1.0" encoding="UTF-8" standalone="no"?>
<!-- Created with Inkscape (http://www.inkscape.org/) -->

<svg
   xmlns:dc="http://purl.org/dc/elements/1.1/"
   xmlns:cc="http://creativecommons.org/ns#"
   xmlns:rdf="http://www.w3.org/1999/02/22-rdf-syntax-ns#"
   xmlns:svg="http://www.w3.org/2000/svg"
   xmlns="http://www.w3.org/2000/svg"
   xmlns:xlink="http://www.w3.org/1999/xlink"
   xmlns:sodipodi="http://sodipodi.sourceforge.net/DTD/sodipodi-0.dtd"
   xmlns:inkscape="http://www.inkscape.org/namespaces/inkscape"
   width="30px"
   height="30px"
   version="1.1"
   id="svg8"
   inkscape:version="0.92.4 5da689c313, 2019-01-14"
   sodipodi:docname="container.svg">
  <defs
     id="defs2" />
  <sodipodi:namedview
     id="base"
     pagecolor="#ffffff"
     bordercolor="#666666"
     borderopacity="1.0"
     inkscape:pageopacity="0.0"
     inkscape:pageshadow="2"
     inkscape:zoom="13.049334"
     inkscape:cx="18.679046"
     inkscape:cy="12.165829"
     inkscape:document-units="px"
     inkscape:current-layer="layer1"
     showgrid="false"
     inkscape:snap-page="false"
     units="px"
     inkscape:window-width="1884"
     inkscape:window-height="1061"
     inkscape:window-x="0"
     inkscape:window-y="0"
     inkscape:window-maximized="1"
     fit-margin-top="0"
     fit-margin-left="0"
     fit-margin-right="0"
     fit-margin-bottom="0" />
  <metadata
     id="metadata5">
    <rdf:RDF>
      <cc:Work
         rdf:about="">
        <dc:format>image/svg+xml</dc:format>
        <dc:type
           rdf:resource="http://purl.org/dc/dcmitype/StillImage" />
        <dc:title></dc:title>
      </cc:Work>
    </rdf:RDF>
  </metadata>
    <circle
       style="color:#000000;clip-rule:nonzero;display:inline;overflow:visible;visibility:visible;opacity:1;isolation:auto;mix-blend-mode:normal;color-interpolation:sRGB;color-interpolation-filters:linearRGB;solid-color:#000000;solid-opacity:1;vector-effect:none;fill:#ffffff;fill-opacity:1;fill-rule:evenodd;stroke:#2a62ac;stroke-width:1;stroke-linecap:butt;stroke-linejoin:miter;stroke-miterlimit:4;stroke-dasharray:none;stroke-dashoffset:0;stroke-opacity:1;marker:none;color-rendering:auto;image-rendering:auto;shape-rendering:auto;text-rendering:auto;enable-background:accumulate"
       id="path815"
       cx="15"
       cy="15"
       r="14.5" />
<g transform="translate(6.5,6.5)"><path fill-rule="nonzero" fill="rgb(30%,30%,30%)" fill-opacity="1" d="M 7.09375 8.90625 L 10.640625 8.90625 C 10.90625 8.90625 11.117188 9.121094 11.117188 9.386719 L 11.117188 16.519531 C 11.117188 16.785156 10.90625 17 10.640625 17 L 7.09375 17 C 6.828125 17 6.613281 16.785156 6.613281 16.519531 L 6.613281 9.386719 C 6.613281 9.121094 6.828125 8.90625 7.09375 8.90625 Z M 7.09375 8.90625 "/>
<path fill-rule="nonzero" fill="rgb(30%,30%,30%)" fill-opacity="1" d="M 8.828125 5.851562 C 8.828125 5.625 8.648438 5.445312 8.425781 5.445312 L 7.070312 5.445312 C 6.847656 5.445312 6.664062 5.625 6.664062 5.851562 L 6.664062 7.957031 L 8.828125 7.957031 Z M 8.828125 5.851562 "/>
<path fill-rule="nonzero" fill="rgb(30%,30%,30%)" fill-opacity="1" d="M 6.640625 8.234375 L 6.664062 8.398438 C 6.664062 8.625 6.847656 8.804688 7.070312 8.804688 L 8.425781 8.804688 C 8.648438 8.804688 8.828125 8.625 8.828125 8.398438 L 8.804688 8.234375 Z M 6.640625 8.234375 "/>
<path fill-rule="nonzero" fill="rgb(30%,30%,30%)" fill-opacity="1" d="M 7.164062 4.976562 L 7.65625 4.976562 C 7.746094 4.976562 7.816406 5.046875 7.816406 5.132812 L 7.816406 5.1875 C 7.816406 5.273438 7.746094 5.34375 7.65625 5.34375 L 7.164062 5.34375 C 7.078125 5.34375 7.003906 5.273438 7.003906 5.1875 L 7.003906 5.132812 C 7.003906 5.046875 7.078125 4.976562 7.164062 4.976562 Z M 7.164062 4.976562 "/>
<path fill-rule="nonzero" fill="rgb(30%,30%,30%)" fill-opacity="1" d="M 7.261719 3.8125 L 7.546875 3.8125 C 7.691406 3.8125 7.808594 3.929688 7.808594 4.074219 L 7.808594 4.574219 C 7.808594 4.71875 7.691406 4.839844 7.546875 4.839844 L 7.261719 4.839844 C 7.117188 4.839844 7 4.71875 7 4.574219 L 7 4.074219 C 7 3.929688 7.117188 3.8125 7.261719 3.8125 Z M 7.261719 3.8125 "/>
<path fill-rule="nonzero" fill="rgb(30%,30%,30%)" fill-opacity="1" d="M 4.140625 9.746094 C 3.914062 9.722656 3.710938 9.632812 3.507812 9.542969 C 3.097656 9.355469 2.714844 9.109375 2.417969 8.757812 C 1.707031 7.894531 2.0625 6.875 2.933594 6.292969 C 3.121094 6.167969 3.320312 6.058594 3.53125 5.980469 C 3.53125 5.980469 3.554688 6.011719 3.554688 6.011719 C 3.300781 6.324219 3.023438 6.609375 2.789062 6.9375 C 2.566406 7.277344 2.335938 7.640625 2.40625 8.058594 C 2.519531 8.667969 3.058594 9.113281 3.566406 9.429688 C 3.746094 9.535156 3.9375 9.652344 4.140625 9.707031 C 4.140625 9.707031 4.140625 9.746094 4.140625 9.746094 Z M 4.140625 9.746094 "/>
<path fill-rule="nonzero" fill="rgb(30%,30%,30%)" fill-opacity="1" d="M 2.238281 8.023438 C 1.75 8.023438 0.230469 7.882812 0.015625 6.164062 C -0.101562 5.25 0.488281 4.671875 0.914062 4.425781 C 0.882812 4.253906 0.839844 3.96875 0.859375 3.640625 C 0.898438 2.933594 1.191406 2.375 1.703125 2.023438 C 3.167969 1.027344 4.355469 1.480469 4.808594 1.675781 C 5.203125 0.960938 5.710938 0.515625 6.308594 0.355469 C 6.746094 0.238281 7.449219 0.21875 8.351562 0.773438 C 8.921875 0.09375 9.832031 -0.167969 10.71875 0.109375 C 11.503906 0.351562 12.039062 0.933594 12.128906 1.625 C 12.164062 1.621094 12.203125 1.613281 12.234375 1.609375 C 12.898438 1.527344 14.628906 1.316406 14.984375 3.234375 C 15.566406 3.257812 16.582031 3.871094 16.894531 4.6875 C 17.140625 5.320312 17.074219 6.277344 15.390625 7.25 L 15.1875 6.894531 C 15.980469 6.4375 16.851562 5.710938 16.515625 4.832031 C 16.230469 4.089844 15.203125 3.582031 14.902344 3.644531 C 14.789062 3.667969 14.691406 3.605469 14.644531 3.546875 L 14.613281 3.503906 L 14.605469 3.449219 C 14.402344 1.964844 13.371094 1.882812 12.285156 2.015625 C 12.027344 2.046875 11.910156 2.0625 11.8125 1.976562 C 11.765625 1.933594 11.738281 1.875 11.734375 1.8125 C 11.726562 1.222656 11.28125 0.707031 10.597656 0.496094 C 9.976562 0.304688 9.117188 0.378906 8.566406 1.160156 C 8.511719 1.234375 8.414062 1.300781 8.234375 1.183594 C 7.410156 0.644531 6.789062 0.648438 6.414062 0.75 C 5.890625 0.890625 5.441406 1.320312 5.085938 2.019531 C 4.996094 2.203125 4.800781 2.121094 4.699219 2.074219 C 4.347656 1.917969 3.277344 1.445312 1.933594 2.359375 C 0.945312 3.035156 1.339844 4.464844 1.347656 4.480469 L 1.394531 4.652344 L 1.230469 4.722656 C 1.191406 4.738281 0.296875 5.136719 0.417969 6.113281 C 0.503906 6.800781 0.847656 7.261719 1.4375 7.480469 C 1.898438 7.652344 2.34375 7.609375 2.351562 7.609375 L 2.390625 8.015625 C 2.386719 8.015625 2.332031 8.023438 2.238281 8.023438 Z M 2.238281 8.023438 "/>
<path fill-rule="nonzero" fill="rgb(30%,30%,30%)" fill-opacity="1" d="M 13.519531 5.402344 C 14.351562 5.503906 15.191406 6.0625 15.320312 6.941406 C 15.394531 7.375 15.34375 7.835938 15.136719 8.226562 C 14.667969 9.160156 13.476562 9.457031 12.515625 9.316406 C 12.515625 9.316406 12.511719 9.277344 12.511719 9.277344 C 12.777344 9.207031 13.035156 9.132812 13.285156 9.046875 C 13.960938 8.796875 14.734375 8.453125 14.980469 7.722656 C 15.214844 6.945312 14.957031 6.175781 14.246094 5.75 C 14.023438 5.613281 13.773438 5.503906 13.515625 5.441406 C 13.515625 5.441406 13.519531 5.402344 13.519531 5.402344 Z M 13.519531 5.402344 "/>
<path fill-rule="nonzero" fill="rgb(30%,30%,30%)" fill-opacity="1" d="M 11.621094 3.226562 C 12.003906 3.054688 12.472656 2.941406 12.871094 3.148438 C 13.355469 3.394531 13.378906 4 13.035156 4.375 C 13.035156 4.375 12.996094 4.363281 12.996094 4.363281 C 12.960938 4.261719 12.945312 4.164062 12.925781 4.0625 C 12.804688 3.542969 12.8125 3.324219 12.214844 3.253906 C 12.027344 3.230469 11.828125 3.238281 11.632812 3.261719 C 11.632812 3.261719 11.621094 3.226562 11.621094 3.226562 Z M 11.621094 3.226562 "/>
<path fill-rule="nonzero" fill="rgb(30%,30%,30%)" fill-opacity="1" d="M 8.171875 2.230469 C 7.890625 2.128906 7.535156 2.023438 7.292969 2.230469 C 7.195312 2.328125 7.183594 2.46875 7.117188 2.59375 C 7.050781 2.730469 6.984375 2.886719 6.863281 3.054688 L 6.824219 3.050781 C 6.460938 2.421875 7.023438 1.679688 7.71875 1.914062 C 7.902344 1.976562 8.058594 2.074219 8.195312 2.199219 Z M 8.171875 2.230469 "/>
<path fill-rule="nonzero" fill="rgb(30%,30%,30%)" fill-opacity="1" d="M 7.144531 3.332031 C 6.605469 3.089844 5.800781 2.835938 5.335938 3.28125 C 5.15625 3.464844 5.101562 3.746094 5.046875 3.992188 C 4.957031 4.355469 4.925781 4.714844 4.832031 5.109375 C 4.832031 5.109375 4.789062 5.113281 4.789062 5.113281 C 4.71875 4.945312 4.671875 4.773438 4.640625 4.597656 C 4.445312 3.582031 5.074219 2.550781 6.214844 2.847656 C 6.558594 2.9375 6.878906 3.09375 7.164062 3.296875 C 7.164062 3.296875 7.144531 3.332031 7.144531 3.332031 Z M 7.144531 3.332031 "/>
</g>
</svg>
