<?xml version="1.0" encoding="UTF-8" standalone="no"?>
<!-- Created with Inkscape (http://www.inkscape.org/) -->

<svg
   xmlns:dc="http://purl.org/dc/elements/1.1/"
   xmlns:cc="http://creativecommons.org/ns#"
   xmlns:rdf="http://www.w3.org/1999/02/22-rdf-syntax-ns#"
   xmlns:svg="http://www.w3.org/2000/svg"
   xmlns="http://www.w3.org/2000/svg"
   xmlns:xlink="http://www.w3.org/1999/xlink"
   xmlns:sodipodi="http://sodipodi.sourceforge.net/DTD/sodipodi-0.dtd"
   xmlns:inkscape="http://www.inkscape.org/namespaces/inkscape"
   width="30px"
   height="30px"
   version="1.1"
   id="svg8"
   inkscape:version="0.92.4 5da689c313, 2019-01-14"
   sodipodi:docname="container.svg">
  <defs
     id="defs2" />
  <sodipodi:namedview
     id="base"
     pagecolor="#ffffff"
     bordercolor="#666666"
     borderopacity="1.0"
     inkscape:pageopacity="0.0"
     inkscape:pageshadow="2"
     inkscape:zoom="13.049334"
     inkscape:cx="18.679046"
     inkscape:cy="12.165829"
     inkscape:document-units="px"
     inkscape:current-layer="layer1"
     showgrid="false"
     inkscape:snap-page="false"
     units="px"
     inkscape:window-width="1884"
     inkscape:window-height="1061"
     inkscape:window-x="0"
     inkscape:window-y="0"
     inkscape:window-maximized="1"
     fit-margin-top="0"
     fit-margin-left="0"
     fit-margin-right="0"
     fit-margin-bottom="0" />
  <metadata
     id="metadata5">
    <rdf:RDF>
      <cc:Work
         rdf:about="">
        <dc:format>image/svg+xml</dc:format>
        <dc:type
           rdf:resource="http://purl.org/dc/dcmitype/StillImage" />
        <dc:title></dc:title>
      </cc:Work>
    </rdf:RDF>
  </metadata>
    <circle
       style="color:#000000;clip-rule:nonzero;display:inline;overflow:visible;visibility:visible;opacity:1;isolation:auto;mix-blend-mode:normal;color-interpolation:sRGB;color-interpolation-filters:linearRGB;solid-color:#000000;solid-opacity:1;vector-effect:none;fill:#ffffff;fill-opacity:1;fill-rule:evenodd;stroke:#2a62ac;stroke-width:1;stroke-linecap:butt;stroke-linejoin:miter;stroke-miterlimit:4;stroke-dasharray:none;stroke-dashoffset:0;stroke-opacity:1;marker:none;color-rendering:auto;image-rendering:auto;shape-rendering:auto;text-rendering:auto;enable-background:accumulate"
       id="path815"
       cx="15"
       cy="15"
       r="14.5" />
<g transform="translate(6.5,7.0)"><path fill-rule="nonzero" fill="rgb(30%,30%,30%)" fill-opacity="1" d="M 17 6.75 C 17.003906 5.554688 16.390625 4.4375 15.378906 3.796875 C 14.367188 3.152344 13.097656 3.074219 12.015625 3.585938 C 12.015625 3.558594 12.019531 3.527344 12.019531 3.5 C 12.019531 1.566406 10.453125 0.00390625 8.519531 0.00390625 C 6.589844 0.00390625 5.023438 1.566406 5.023438 3.5 C 5.023438 3.507812 5.023438 3.515625 5.023438 3.523438 C 3.941406 2.996094 2.660156 3.0625 1.640625 3.703125 C 0.617188 4.339844 -0.00390625 5.464844 0 6.667969 C 0 8.394531 1.253906 9.828125 2.902344 10.113281 C 2.003906 11.125 1.769531 12.558594 2.296875 13.804688 C 2.828125 15.046875 4.027344 15.875 5.378906 15.925781 C 6.726562 15.980469 7.988281 15.25 8.613281 14.054688 C 9.207031 15.300781 10.476562 16.085938 11.859375 16.054688 C 13.242188 16.019531 14.472656 15.175781 15.003906 13.898438 C 15.535156 12.625 15.261719 11.152344 14.3125 10.152344 C 15.886719 9.777344 17 8.371094 17 6.75 Z M 11.9375 8.5625 C 11.9375 10.492188 10.371094 12.058594 8.4375 12.058594 C 6.507812 12.058594 4.941406 10.492188 4.941406 8.5625 C 4.941406 6.628906 6.507812 5.0625 8.4375 5.0625 C 10.371094 5.0625 11.9375 6.628906 11.9375 8.5625 Z M 11.9375 8.5625 "/>
</g>
</svg>
