<?xml version="1.0" encoding="UTF-8" standalone="no"?>
<!-- Created with Inkscape (http://www.inkscape.org/) -->

<svg
   xmlns:dc="http://purl.org/dc/elements/1.1/"
   xmlns:cc="http://creativecommons.org/ns#"
   xmlns:rdf="http://www.w3.org/1999/02/22-rdf-syntax-ns#"
   xmlns:svg="http://www.w3.org/2000/svg"
   xmlns="http://www.w3.org/2000/svg"
   xmlns:xlink="http://www.w3.org/1999/xlink"
   xmlns:sodipodi="http://sodipodi.sourceforge.net/DTD/sodipodi-0.dtd"
   xmlns:inkscape="http://www.inkscape.org/namespaces/inkscape"
   width="30px"
   height="30px"
   version="1.1"
   id="svg8"
   inkscape:version="0.92.4 5da689c313, 2019-01-14"
   sodipodi:docname="container.svg">
  <defs
     id="defs2" />
  <sodipodi:namedview
     id="base"
     pagecolor="#ffffff"
     bordercolor="#666666"
     borderopacity="1.0"
     inkscape:pageopacity="0.0"
     inkscape:pageshadow="2"
     inkscape:zoom="13.049334"
     inkscape:cx="18.679046"
     inkscape:cy="12.165829"
     inkscape:document-units="px"
     inkscape:current-layer="layer1"
     showgrid="false"
     inkscape:snap-page="false"
     units="px"
     inkscape:window-width="1884"
     inkscape:window-height="1061"
     inkscape:window-x="0"
     inkscape:window-y="0"
     inkscape:window-maximized="1"
     fit-margin-top="0"
     fit-margin-left="0"
     fit-margin-right="0"
     fit-margin-bottom="0" />
  <metadata
     id="metadata5">
    <rdf:RDF>
      <cc:Work
         rdf:about="">
        <dc:format>image/svg+xml</dc:format>
        <dc:type
           rdf:resource="http://purl.org/dc/dcmitype/StillImage" />
        <dc:title></dc:title>
      </cc:Work>
    </rdf:RDF>
  </metadata>
    <circle
       style="color:#000000;clip-rule:nonzero;display:inline;overflow:visible;visibility:visible;opacity:1;isolation:auto;mix-blend-mode:normal;color-interpolation:sRGB;color-interpolation-filters:linearRGB;solid-color:#000000;solid-opacity:1;vector-effect:none;fill:#ffffff;fill-opacity:1;fill-rule:evenodd;stroke:#2a62ac;stroke-width:1;stroke-linecap:butt;stroke-linejoin:miter;stroke-miterlimit:4;stroke-dasharray:none;stroke-dashoffset:0;stroke-opacity:1;marker:none;color-rendering:auto;image-rendering:auto;shape-rendering:auto;text-rendering:auto;enable-background:accumulate"
       id="path815"
       cx="15"
       cy="15"
       r="14.5" />
<g transform="translate(6.5,8.0)"><path fill-rule="nonzero" fill="rgb(30%,30%,30%)" fill-opacity="1" stroke-width="1.2" stroke-linecap="butt" stroke-linejoin="miter" stroke="rgb(11.764706%, 11.764706%, 10.980392%)" stroke-opacity="1" stroke-miterlimit="10" d="M 390.211071 285.102193 C 384.572182 285.102193 378.707738 285.102193 372.843295 285.102193 C 226.232199 285.102193 106.913322 267.959972 111.424433 200.744424 C 122.251098 37.216663 211.119978 27.968886 338.784409 27.517775 L 375.09885 27.517775 C 520.582168 27.517775 637.645489 38.34444 642.833267 196.90998 C 676.215485 206.383312 707.116593 223.525532 733.281035 247.208863 C 755.385477 239.539975 763.956587 230.292198 763.956587 214.503311 C 763.956587 197.361091 749.972144 183.376648 733.055479 183.376648 L 684.335484 182.925537 C 678.245485 182.925537 673.283263 178.18887 672.832152 172.098871 C 667.193264 100.823323 629.751046 0.676667 413.668846 0.676667 L 325.476633 0.676667 C 203.45109 0.676667 156.084428 36.314441 143.002207 49.622217 C 106.913322 86.162213 86.162213 129.468875 83.004436 172.775538 C 82.553325 178.865537 77.591103 183.827759 71.275548 183.602203 L 31.577774 183.376648 C 14.66111 183.376648 0.676667 197.361091 0.676667 214.503311 C 0.676667 228.71331 2.481111 244.727752 37.667774 251.268863 C 45.336662 252.622196 49.622217 261.193306 45.787773 268.185528 C 36.314441 285.778859 35.186663 304.951079 35.186663 324.799966 C 35.186663 350.062186 43.983329 387.504404 62.929993 413.894401 C 64.734438 416.375512 65.411104 419.307734 65.185549 422.239956 C 64.959993 424.0444 64.734438 425.848845 64.734438 427.653289 L 64.734438 490.357727 C 64.734438 521.935501 90.447768 547.648832 122.025543 547.648832 L 125.859987 547.648832 C 157.212206 547.648832 183.151092 521.935501 183.151092 490.357727 L 183.151092 465.772174 C 183.376648 465.772174 183.602203 465.772174 183.827759 465.772174 C 207.736645 467.802174 277.433305 468.929951 353.219963 468.929951 C 349.611075 452.689953 347.806631 435.998844 347.806631 418.856623 C 347.806631 370.136628 362.693296 323.897744 390.211071 285.102193 Z M 178.865537 410.736624 C 151.798873 410.736624 129.919987 388.857737 129.919987 361.791074 C 129.919987 334.72441 151.798873 312.845523 178.865537 312.845523 C 205.932201 312.845523 227.811087 334.72441 227.811087 361.791074 C 227.811087 388.857737 205.932201 410.736624 178.865537 410.736624 Z M 178.865537 410.736624 " transform="matrix(0.0173184, 0, 0, 0.0173184, 0, 0)"/>
<path fill-rule="nonzero" fill="rgb(30%,30%,30%)" fill-opacity="1" d="M 7.234375 7.253906 C 7.234375 7.550781 7.28125 7.84375 7.367188 8.117188 C 8.390625 8.109375 9.339844 8.09375 9.878906 8.0625 C 9.996094 8.054688 10.09375 8.148438 10.09375 8.265625 L 10.09375 8.492188 C 10.09375 9.039062 10.542969 9.484375 11.085938 9.484375 L 11.152344 9.484375 C 11.695312 9.484375 12.144531 9.039062 12.144531 8.492188 L 12.144531 7.40625 C 12.144531 7.386719 12.144531 7.367188 12.140625 7.34375 C 12.136719 7.296875 12.152344 7.25 12.179688 7.210938 C 12.386719 6.921875 12.511719 6.492188 12.566406 6.117188 C 12.429688 5.808594 12.238281 5.523438 11.992188 5.28125 C 11.515625 4.800781 10.902344 4.535156 10.277344 4.476562 C 9.210938 4.476562 9.160156 4.597656 8.621094 4.839844 C 8.417969 4.957031 8.222656 5.105469 8.046875 5.28125 C 7.523438 5.804688 7.234375 6.507812 7.234375 7.253906 Z M 10.308594 5.417969 C 10.777344 5.417969 11.15625 5.796875 11.15625 6.265625 C 11.15625 6.734375 10.777344 7.113281 10.308594 7.113281 C 9.839844 7.113281 9.460938 6.734375 9.460938 6.265625 C 9.460938 5.796875 9.839844 5.417969 10.308594 5.417969 Z M 10.308594 5.417969 "/>
<path fill-rule="nonzero" fill="rgb(30%,30%,30%)" fill-opacity="1" d="M 16.675781 12.277344 L 13.390625 9.0625 L 13.433594 8.976562 C 13.792969 8.261719 13.917969 7.464844 13.796875 6.671875 C 13.675781 5.863281 13.304688 5.128906 12.722656 4.550781 C 12.003906 3.828125 11.042969 3.429688 10.019531 3.429688 C 8.996094 3.429688 8.039062 3.828125 7.316406 4.550781 C 6.59375 5.269531 6.199219 6.230469 6.199219 7.253906 C 6.199219 8.277344 6.59375 9.234375 7.316406 9.957031 C 7.894531 10.535156 8.628906 10.90625 9.441406 11.03125 C 10.234375 11.152344 11.03125 11.027344 11.742188 10.667969 L 11.828125 10.625 L 15.113281 13.839844 C 15.320312 14.050781 15.597656 14.164062 15.894531 14.164062 C 16.191406 14.164062 16.46875 14.050781 16.675781 13.839844 C 17.109375 13.410156 17.109375 12.707031 16.675781 12.277344 Z M 12.117188 9.351562 C 10.960938 10.507812 9.078125 10.507812 7.921875 9.351562 C 6.765625 8.195312 6.765625 6.3125 7.921875 5.15625 C 9.078125 4 10.960938 4 12.117188 5.15625 C 13.273438 6.3125 13.273438 8.195312 12.117188 9.351562 Z M 12.117188 9.351562 "/>
</g>
</svg>
