<?xml version="1.0" encoding="UTF-8"?>
<svg xmlns="http://www.w3.org/2000/svg" xmlns:xlink="http://www.w3.org/1999/xlink" width="11" height="9.956075" viewBox="0 0 11 9.956075">
<path fill-rule="nonzero" fill="rgb(30%,30%,30%)" fill-opacity="1" d="M 4.503906 6.90625 C 4.503906 5.035156 6.039062 3.515625 7.925781 3.515625 C 8.320312 3.515625 8.699219 3.582031 9.050781 3.703125 L 9.050781 3.65625 L 6.863281 1.886719 L 4.527344 0 L 0 3.65625 L 0 8.648438 L 4.988281 8.648438 C 4.683594 8.140625 4.503906 7.542969 4.503906 6.90625 Z M 4.503906 6.90625 "/>
<path fill-rule="nonzero" fill="rgb(30%,30%,30%)" fill-opacity="1" d="M 7.925781 3.859375 C 6.230469 3.859375 4.855469 5.226562 4.855469 6.90625 C 4.855469 8.589844 6.230469 9.957031 7.925781 9.957031 C 9.625 9.957031 11 8.589844 11 6.90625 C 11 5.226562 9.625 3.859375 7.925781 3.859375 Z M 9.339844 8.84375 C 9.320312 8.902344 9.292969 8.953125 9.257812 8.988281 C 9.226562 9.019531 9.175781 9.054688 9.109375 9.089844 C 9.046875 9.125 8.964844 9.160156 8.871094 9.1875 C 8.777344 9.21875 8.667969 9.246094 8.546875 9.265625 C 8.425781 9.285156 8.289062 9.292969 8.144531 9.292969 C 7.863281 9.292969 7.621094 9.257812 7.40625 9.1875 C 7.191406 9.117188 7.007812 9.015625 6.855469 8.882812 C 6.703125 8.75 6.582031 8.585938 6.488281 8.394531 C 6.390625 8.199219 6.324219 7.980469 6.28125 7.734375 L 5.929688 7.734375 C 5.890625 7.734375 5.863281 7.710938 5.839844 7.660156 C 5.816406 7.613281 5.808594 7.535156 5.808594 7.421875 C 5.808594 7.367188 5.808594 7.320312 5.8125 7.28125 C 5.816406 7.242188 5.820312 7.210938 5.832031 7.1875 C 5.839844 7.164062 5.851562 7.144531 5.863281 7.136719 C 5.878906 7.125 5.894531 7.121094 5.914062 7.121094 L 6.242188 7.121094 C 6.242188 7.082031 6.242188 7.042969 6.238281 7.003906 C 6.238281 6.964844 6.238281 6.925781 6.238281 6.886719 C 6.238281 6.835938 6.238281 6.789062 6.238281 6.742188 C 6.242188 6.691406 6.242188 6.648438 6.242188 6.605469 L 5.914062 6.605469 C 5.875 6.605469 5.847656 6.582031 5.832031 6.535156 C 5.816406 6.492188 5.808594 6.410156 5.808594 6.296875 C 5.808594 6.238281 5.808594 6.191406 5.816406 6.152344 C 5.820312 6.113281 5.832031 6.082031 5.839844 6.058594 C 5.851562 6.035156 5.867188 6.019531 5.878906 6.007812 C 5.894531 6 5.910156 5.992188 5.929688 5.992188 L 6.308594 5.992188 C 6.355469 5.757812 6.429688 5.546875 6.523438 5.351562 C 6.617188 5.160156 6.738281 4.992188 6.886719 4.851562 C 7.035156 4.710938 7.214844 4.601562 7.421875 4.527344 C 7.628906 4.449219 7.871094 4.410156 8.148438 4.410156 C 8.277344 4.410156 8.402344 4.421875 8.519531 4.4375 C 8.640625 4.457031 8.746094 4.480469 8.84375 4.511719 C 8.9375 4.539062 9.019531 4.570312 9.082031 4.597656 C 9.144531 4.628906 9.1875 4.65625 9.214844 4.679688 C 9.242188 4.699219 9.261719 4.722656 9.273438 4.746094 C 9.285156 4.769531 9.296875 4.796875 9.304688 4.832031 C 9.3125 4.867188 9.316406 4.910156 9.320312 4.960938 C 9.328125 5.011719 9.328125 5.078125 9.328125 5.152344 C 9.328125 5.21875 9.328125 5.273438 9.320312 5.3125 C 9.316406 5.355469 9.308594 5.390625 9.296875 5.414062 C 9.285156 5.441406 9.273438 5.457031 9.257812 5.46875 C 9.242188 5.476562 9.222656 5.480469 9.203125 5.480469 C 9.164062 5.480469 9.117188 5.464844 9.066406 5.429688 C 9.011719 5.398438 8.949219 5.359375 8.871094 5.320312 C 8.792969 5.277344 8.699219 5.242188 8.59375 5.210938 C 8.484375 5.175781 8.359375 5.160156 8.210938 5.160156 C 8.074219 5.160156 7.953125 5.179688 7.851562 5.21875 C 7.75 5.253906 7.660156 5.308594 7.585938 5.382812 C 7.507812 5.457031 7.449219 5.542969 7.402344 5.644531 C 7.355469 5.75 7.320312 5.863281 7.296875 5.992188 L 8.304688 5.992188 C 8.320312 5.992188 8.339844 6 8.355469 6.007812 C 8.371094 6.019531 8.382812 6.035156 8.394531 6.058594 C 8.402344 6.082031 8.410156 6.113281 8.417969 6.152344 C 8.421875 6.191406 8.425781 6.238281 8.425781 6.296875 C 8.425781 6.410156 8.414062 6.492188 8.394531 6.535156 C 8.371094 6.582031 8.339844 6.605469 8.304688 6.605469 L 7.222656 6.605469 C 7.21875 6.644531 7.21875 6.683594 7.214844 6.722656 C 7.214844 6.761719 7.214844 6.808594 7.214844 6.855469 C 7.214844 6.898438 7.214844 6.941406 7.214844 6.984375 C 7.21875 7.027344 7.21875 7.074219 7.222656 7.121094 L 8.304688 7.121094 C 8.320312 7.121094 8.339844 7.125 8.355469 7.136719 C 8.371094 7.144531 8.382812 7.164062 8.394531 7.1875 C 8.402344 7.210938 8.410156 7.242188 8.417969 7.28125 C 8.421875 7.320312 8.425781 7.367188 8.425781 7.421875 C 8.425781 7.535156 8.414062 7.613281 8.394531 7.660156 C 8.371094 7.710938 8.339844 7.734375 8.304688 7.734375 L 7.292969 7.734375 C 7.3125 7.855469 7.34375 7.96875 7.390625 8.066406 C 7.4375 8.164062 7.5 8.25 7.578125 8.316406 C 7.65625 8.386719 7.75 8.4375 7.859375 8.476562 C 7.972656 8.511719 8.105469 8.53125 8.261719 8.53125 C 8.40625 8.53125 8.53125 8.511719 8.636719 8.480469 C 8.746094 8.445312 8.839844 8.40625 8.917969 8.367188 C 8.996094 8.324219 9.0625 8.285156 9.113281 8.25 C 9.167969 8.21875 9.210938 8.199219 9.246094 8.199219 C 9.265625 8.199219 9.28125 8.207031 9.296875 8.214844 C 9.3125 8.226562 9.328125 8.242188 9.339844 8.273438 C 9.351562 8.300781 9.359375 8.339844 9.363281 8.390625 C 9.367188 8.4375 9.371094 8.503906 9.371094 8.589844 C 9.371094 8.695312 9.359375 8.78125 9.339844 8.84375 Z M 9.339844 8.84375 "/>
</svg>
