<?xml version="1.0" encoding="UTF-8"?>
<svg xmlns="http://www.w3.org/2000/svg" xmlns:xlink="http://www.w3.org/1999/xlink" width="11" height="9.164814" viewBox="0 0 11 9.164814">
<path fill-rule="nonzero" fill="rgb(30%,30%,30%)" fill-opacity="1" stroke-width="1.2" stroke-linecap="butt" stroke-linejoin="miter" stroke="rgb(11.764706%, 11.764706%, 10.980392%)" stroke-opacity="1" stroke-miterlimit="10" d="M 390.067535 285.143203 C 384.490162 285.143203 378.564203 285.143203 372.98683 285.143203 C 226.232199 285.143203 107.015847 268.062497 111.547463 200.785434 C 122.353624 37.298683 211.243008 27.886866 338.825419 27.53828 L 375.078345 27.53828 C 520.787219 27.53828 637.563469 38.34444 642.792256 196.95099 C 676.256495 206.362807 706.932048 223.443512 733.42457 247.147348 C 755.385477 239.47846 764.100123 230.415229 764.100123 214.380281 C 764.100123 197.299575 750.15669 183.356143 733.075984 183.356143 L 684.273969 183.007557 C 678.34801 183.007557 673.119223 178.127355 672.770637 172.201396 C 667.193264 100.741303 629.894581 0.697172 413.771371 0.697172 L 325.579158 0.697172 C 203.57412 0.697172 156.166448 36.252926 142.920187 49.499187 C 107.015847 86.100698 86.100698 129.32534 82.963426 172.549982 C 82.61484 178.824527 77.386053 183.704728 71.460094 183.704728 L 31.72131 183.356143 C 14.640605 183.356143 0.697172 197.299575 0.697172 214.380281 C 0.697172 228.672299 2.440101 244.707247 37.647269 251.330378 C 45.316157 252.724721 49.499187 261.439367 45.664743 268.062497 C 36.252926 285.840374 35.207168 305.012595 35.207168 324.881986 C 35.207168 349.980166 43.921814 387.627434 63.094034 413.771371 C 64.836963 416.211472 65.534135 419.348744 65.185549 422.137431 C 64.836963 423.88036 64.836963 425.971875 64.836963 427.714804 L 64.836963 490.460252 C 64.836963 521.832976 90.632314 547.628327 122.005038 547.628327 L 125.839482 547.628327 C 157.212206 547.628327 183.007557 521.832976 183.007557 490.460252 L 183.007557 465.710659 C 183.356143 465.710659 183.704728 465.710659 183.704728 465.710659 C 207.75715 467.802174 277.474315 468.847931 353.117438 468.847931 C 349.63158 452.812983 347.540065 435.732278 347.540065 418.651573 C 347.540065 370.198143 362.529255 323.836229 390.067535 285.143203 Z M 178.824527 410.634099 C 151.983419 410.634099 130.022512 389.021778 130.022512 361.832084 C 130.022512 334.990975 151.983419 313.030068 178.824527 313.030068 C 206.014221 313.030068 227.975128 334.990975 227.975128 361.832084 C 227.975128 389.021778 206.014221 410.634099 178.824527 410.634099 Z M 178.824527 410.634099 " transform="matrix(0.011206, 0, 0, 0.011206, 0, 0)"/>
<path fill-rule="nonzero" fill="rgb(30%,30%,30%)" fill-opacity="1" d="M 4.679688 4.691406 C 4.679688 4.886719 4.710938 5.074219 4.769531 5.253906 C 5.429688 5.25 6.042969 5.234375 6.394531 5.214844 C 6.46875 5.210938 6.53125 5.273438 6.53125 5.347656 L 6.53125 5.496094 C 6.53125 5.847656 6.820312 6.136719 7.175781 6.136719 L 7.214844 6.136719 C 7.570312 6.136719 7.859375 5.847656 7.859375 5.496094 L 7.859375 4.792969 C 7.859375 4.78125 7.855469 4.765625 7.855469 4.753906 C 7.851562 4.722656 7.863281 4.691406 7.882812 4.664062 C 8.015625 4.480469 8.09375 4.199219 8.132812 3.957031 C 8.042969 3.757812 7.917969 3.574219 7.761719 3.417969 C 7.449219 3.105469 7.054688 2.933594 6.648438 2.898438 C 5.960938 2.898438 5.925781 2.976562 5.578125 3.132812 C 5.445312 3.207031 5.320312 3.304688 5.207031 3.417969 C 4.867188 3.757812 4.679688 4.210938 4.679688 4.691406 Z M 6.671875 3.507812 C 6.972656 3.507812 7.21875 3.753906 7.21875 4.054688 C 7.21875 4.359375 6.972656 4.601562 6.671875 4.601562 C 6.367188 4.601562 6.121094 4.359375 6.121094 4.054688 C 6.121094 3.753906 6.367188 3.507812 6.671875 3.507812 Z M 6.671875 3.507812 "/>
<path fill-rule="nonzero" fill="rgb(30%,30%,30%)" fill-opacity="1" d="M 10.789062 7.945312 L 8.664062 5.863281 L 8.691406 5.808594 C 8.925781 5.347656 9.007812 4.832031 8.929688 4.316406 C 8.847656 3.792969 8.609375 3.320312 8.234375 2.945312 C 7.765625 2.476562 7.144531 2.21875 6.484375 2.21875 C 5.820312 2.21875 5.199219 2.476562 4.734375 2.945312 C 4.269531 3.410156 4.011719 4.03125 4.011719 4.691406 C 4.011719 5.355469 4.269531 5.976562 4.734375 6.441406 C 5.109375 6.816406 5.585938 7.058594 6.109375 7.136719 C 6.621094 7.214844 7.136719 7.132812 7.597656 6.902344 L 7.652344 6.875 L 9.777344 8.957031 C 9.914062 9.089844 10.09375 9.164062 10.285156 9.164062 C 10.476562 9.164062 10.65625 9.089844 10.789062 8.957031 C 11.070312 8.675781 11.070312 8.222656 10.789062 7.945312 Z M 7.839844 6.050781 C 7.09375 6.796875 5.875 6.796875 5.128906 6.050781 C 4.378906 5.300781 4.378906 4.085938 5.128906 3.335938 C 5.875 2.585938 7.09375 2.585938 7.839844 3.335938 C 8.589844 4.085938 8.589844 5.300781 7.839844 6.050781 Z M 7.839844 6.050781 "/>
</svg>
