<?xml version="1.0" encoding="UTF-8"?>
<svg xmlns="http://www.w3.org/2000/svg" xmlns:xlink="http://www.w3.org/1999/xlink" width="11" height="10.801218" viewBox="0 0 11 10.801218">
<path fill-rule="nonzero" fill="rgb(30%,30%,30%)" fill-opacity="1" d="M 11 10.800781 L 3.109375 10.800781 L 3.109375 8.433594 L 11 8.433594 Z M 0.789062 8.433594 L 0 8.433594 L 0 10.800781 L 0.789062 10.800781 Z M 2.367188 8.433594 L 1.578125 8.433594 L 1.578125 10.800781 L 2.367188 10.800781 Z M 3.207031 0 C 3.207031 0 0.0507812 0.542969 0 1.972656 C -0.0664062 3.996094 2.320312 4.289062 2.417969 5.328125 C 2.503906 6.210938 0.839844 7.496094 0.839844 7.496094 C 0.839844 7.496094 4.085938 7.003906 4.046875 5.472656 C 3.996094 3.5 1.628906 2.664062 1.628906 2.070312 C 1.628906 1.578125 3.207031 0 3.207031 0 Z M 3.207031 0 "/>
</svg>
