<?xml version="1.0" encoding="UTF-8" standalone="no"?>
<!-- Created with Inkscape (http://www.inkscape.org/) -->

<svg
   xmlns:dc="http://purl.org/dc/elements/1.1/"
   xmlns:cc="http://creativecommons.org/ns#"
   xmlns:rdf="http://www.w3.org/1999/02/22-rdf-syntax-ns#"
   xmlns:svg="http://www.w3.org/2000/svg"
   xmlns="http://www.w3.org/2000/svg"
   xmlns:xlink="http://www.w3.org/1999/xlink"
   xmlns:sodipodi="http://sodipodi.sourceforge.net/DTD/sodipodi-0.dtd"
   xmlns:inkscape="http://www.inkscape.org/namespaces/inkscape"
   width="30px"
   height="30px"
   version="1.1"
   id="svg8"
   inkscape:version="0.92.4 5da689c313, 2019-01-14"
   sodipodi:docname="container.svg">
  <defs
     id="defs2" />
  <sodipodi:namedview
     id="base"
     pagecolor="#ffffff"
     bordercolor="#666666"
     borderopacity="1.0"
     inkscape:pageopacity="0.0"
     inkscape:pageshadow="2"
     inkscape:zoom="13.049334"
     inkscape:cx="18.679046"
     inkscape:cy="12.165829"
     inkscape:document-units="px"
     inkscape:current-layer="layer1"
     showgrid="false"
     inkscape:snap-page="false"
     units="px"
     inkscape:window-width="1884"
     inkscape:window-height="1061"
     inkscape:window-x="0"
     inkscape:window-y="0"
     inkscape:window-maximized="1"
     fit-margin-top="0"
     fit-margin-left="0"
     fit-margin-right="0"
     fit-margin-bottom="0" />
  <metadata
     id="metadata5">
    <rdf:RDF>
      <cc:Work
         rdf:about="">
        <dc:format>image/svg+xml</dc:format>
        <dc:type
           rdf:resource="http://purl.org/dc/dcmitype/StillImage" />
        <dc:title></dc:title>
      </cc:Work>
    </rdf:RDF>
  </metadata>
    <circle
       style="color:#000000;clip-rule:nonzero;display:inline;overflow:visible;visibility:visible;opacity:1;isolation:auto;mix-blend-mode:normal;color-interpolation:sRGB;color-interpolation-filters:linearRGB;solid-color:#000000;solid-opacity:1;vector-effect:none;fill:#ffffff;fill-opacity:1;fill-rule:evenodd;stroke:#2a62ac;stroke-width:1;stroke-linecap:butt;stroke-linejoin:miter;stroke-miterlimit:4;stroke-dasharray:none;stroke-dashoffset:0;stroke-opacity:1;marker:none;color-rendering:auto;image-rendering:auto;shape-rendering:auto;text-rendering:auto;enable-background:accumulate"
       id="path815"
       cx="15"
       cy="15"
       r="14.5" />
<g transform="translate(8.5,6.5)"><path fill-rule="nonzero" fill="rgb(30%,30%,30%)" fill-opacity="1" d="M 8.839844 17 L 0.886719 17 C 0.398438 17 0 16.601562 0 16.113281 L 0 4.109375 C 0 3.664062 0.363281 3.300781 0.808594 3.300781 L 8.839844 3.300781 C 9.328125 3.300781 9.722656 3.695312 9.722656 4.1875 L 9.722656 16.113281 C 9.722656 16.601562 9.328125 17 8.839844 17 Z M 0.808594 4.011719 C 0.753906 4.011719 0.710938 4.054688 0.710938 4.109375 L 0.710938 16.113281 C 0.710938 16.210938 0.789062 16.289062 0.886719 16.289062 L 8.839844 16.289062 C 8.9375 16.289062 9.015625 16.210938 9.015625 16.113281 L 9.015625 4.1875 C 9.015625 4.089844 8.9375 4.011719 8.839844 4.011719 Z M 0.808594 4.011719 "/>
<path fill-rule="nonzero" fill="rgb(30%,30%,30%)" fill-opacity="1" d="M 10.367188 15.402344 L 9.902344 15.402344 L 9.902344 14.691406 L 10.367188 14.691406 C 10.460938 14.691406 10.539062 14.613281 10.539062 14.519531 L 10.539062 2.589844 C 10.539062 2.492188 10.460938 2.414062 10.367188 2.414062 L 2.335938 2.414062 C 2.28125 2.414062 2.234375 2.457031 2.234375 2.511719 L 2.234375 2.988281 L 1.527344 2.988281 L 1.527344 2.511719 C 1.527344 2.066406 1.886719 1.703125 2.335938 1.703125 L 10.367188 1.703125 C 10.855469 1.703125 11.25 2.101562 11.25 2.589844 L 11.25 14.519531 C 11.25 15.007812 10.855469 15.402344 10.367188 15.402344 Z M 10.367188 15.402344 "/>
<path fill-rule="nonzero" fill="rgb(30%,30%,30%)" fill-opacity="1" d="M 12.070312 13.699219 L 11.570312 13.699219 L 11.570312 12.988281 L 12.070312 12.988281 C 12.164062 12.988281 12.246094 12.910156 12.246094 12.8125 L 12.246094 0.886719 C 12.246094 0.789062 12.164062 0.710938 12.070312 0.710938 L 4.039062 0.710938 C 3.984375 0.710938 3.941406 0.753906 3.941406 0.808594 L 3.941406 1.386719 L 3.230469 1.386719 L 3.230469 0.808594 C 3.230469 0.363281 3.59375 0 4.039062 0 L 12.070312 0 C 12.558594 0 12.953125 0.398438 12.953125 0.886719 L 12.953125 12.8125 C 12.953125 13.304688 12.558594 13.699219 12.070312 13.699219 Z M 12.070312 13.699219 "/>
<path fill-rule="nonzero" fill="rgb(30%,30%,30%)" fill-opacity="1" d="M 7.84375 8.800781 L 1.667969 8.800781 C 1.511719 8.800781 1.382812 8.675781 1.382812 8.519531 C 1.382812 8.359375 1.511719 8.234375 1.667969 8.234375 L 7.84375 8.234375 C 8 8.234375 8.128906 8.359375 8.128906 8.519531 C 8.128906 8.675781 8 8.800781 7.84375 8.800781 Z M 7.84375 8.800781 "/>
<path fill-rule="nonzero" fill="rgb(30%,30%,30%)" fill-opacity="1" d="M 7.84375 7.167969 L 1.667969 7.167969 C 1.511719 7.167969 1.382812 7.042969 1.382812 6.886719 C 1.382812 6.726562 1.511719 6.601562 1.667969 6.601562 L 7.84375 6.601562 C 8 6.601562 8.128906 6.726562 8.128906 6.886719 C 8.128906 7.042969 8 7.167969 7.84375 7.167969 Z M 7.84375 7.167969 "/>
<path fill-rule="nonzero" fill="rgb(30%,30%,30%)" fill-opacity="1" d="M 7.84375 10.433594 L 1.667969 10.433594 C 1.511719 10.433594 1.382812 10.308594 1.382812 10.148438 C 1.382812 9.992188 1.511719 9.867188 1.667969 9.867188 L 7.84375 9.867188 C 8 9.867188 8.128906 9.992188 8.128906 10.148438 C 8.128906 10.308594 8 10.433594 7.84375 10.433594 Z M 7.84375 10.433594 "/>
<path fill-rule="nonzero" fill="rgb(30%,30%,30%)" fill-opacity="1" d="M 7.84375 12.066406 L 1.667969 12.066406 C 1.511719 12.066406 1.382812 11.941406 1.382812 11.78125 C 1.382812 11.625 1.511719 11.5 1.667969 11.5 L 7.84375 11.5 C 8 11.5 8.128906 11.625 8.128906 11.78125 C 8.128906 11.941406 8 12.066406 7.84375 12.066406 Z M 7.84375 12.066406 "/>
<path fill-rule="nonzero" fill="rgb(30%,30%,30%)" fill-opacity="1" d="M 7.84375 13.699219 L 1.667969 13.699219 C 1.511719 13.699219 1.382812 13.570312 1.382812 13.414062 C 1.382812 13.257812 1.511719 13.132812 1.667969 13.132812 L 7.84375 13.132812 C 8 13.132812 8.128906 13.257812 8.128906 13.414062 C 8.128906 13.570312 8 13.699219 7.84375 13.699219 Z M 7.84375 13.699219 "/>
</g>
</svg>
