<?xml version="1.0" encoding="UTF-8" standalone="no"?>
<!-- Created with Inkscape (http://www.inkscape.org/) -->

<svg
   xmlns:dc="http://purl.org/dc/elements/1.1/"
   xmlns:cc="http://creativecommons.org/ns#"
   xmlns:rdf="http://www.w3.org/1999/02/22-rdf-syntax-ns#"
   xmlns:svg="http://www.w3.org/2000/svg"
   xmlns="http://www.w3.org/2000/svg"
   xmlns:xlink="http://www.w3.org/1999/xlink"
   xmlns:sodipodi="http://sodipodi.sourceforge.net/DTD/sodipodi-0.dtd"
   xmlns:inkscape="http://www.inkscape.org/namespaces/inkscape"
   width="30px"
   height="30px"
   version="1.1"
   id="svg8"
   inkscape:version="0.92.4 5da689c313, 2019-01-14"
   sodipodi:docname="container.svg">
  <defs
     id="defs2" />
  <sodipodi:namedview
     id="base"
     pagecolor="#ffffff"
     bordercolor="#666666"
     borderopacity="1.0"
     inkscape:pageopacity="0.0"
     inkscape:pageshadow="2"
     inkscape:zoom="13.049334"
     inkscape:cx="18.679046"
     inkscape:cy="12.165829"
     inkscape:document-units="px"
     inkscape:current-layer="layer1"
     showgrid="false"
     inkscape:snap-page="false"
     units="px"
     inkscape:window-width="1884"
     inkscape:window-height="1061"
     inkscape:window-x="0"
     inkscape:window-y="0"
     inkscape:window-maximized="1"
     fit-margin-top="0"
     fit-margin-left="0"
     fit-margin-right="0"
     fit-margin-bottom="0" />
  <metadata
     id="metadata5">
    <rdf:RDF>
      <cc:Work
         rdf:about="">
        <dc:format>image/svg+xml</dc:format>
        <dc:type
           rdf:resource="http://purl.org/dc/dcmitype/StillImage" />
        <dc:title></dc:title>
      </cc:Work>
    </rdf:RDF>
  </metadata>
    <circle
       style="color:#000000;clip-rule:nonzero;display:inline;overflow:visible;visibility:visible;opacity:1;isolation:auto;mix-blend-mode:normal;color-interpolation:sRGB;color-interpolation-filters:linearRGB;solid-color:#000000;solid-opacity:1;vector-effect:none;fill:#2a62ac;fill-opacity:1;fill-rule:evenodd;stroke:#ffffff;stroke-width:1;stroke-linecap:butt;stroke-linejoin:miter;stroke-miterlimit:4;stroke-dasharray:none;stroke-dashoffset:0;stroke-opacity:1;marker:none;color-rendering:auto;image-rendering:auto;shape-rendering:auto;text-rendering:auto;enable-background:accumulate"
       id="path815"
       cx="15"
       cy="15"
       r="14.5" />
<g transform="translate(9.5,6.5)"><path fill-rule="nonzero" fill="#FFFFFF" fill-opacity="1" d="M 6.851562 0.00390625 C 4.109375 -0.113281 1.996094 2.394531 2.566406 5.070312 C 2.742188 5.679688 2.460938 5.035156 4.253906 9.117188 C 4.75 10.246094 5.402344 11.734375 6.269531 13.714844 C 7.863281 10.78125 8.851562 8.972656 9.472656 7.828125 C 10.691406 5.585938 10.5 5.917969 10.691406 5.414062 C 11.488281 2.769531 9.574219 0.117188 6.851562 0.00390625 Z M 9.617188 4.390625 C 9.546875 6.015625 8.171875 7.28125 6.546875 7.210938 C 4.917969 7.144531 3.65625 5.769531 3.722656 4.140625 C 3.792969 2.511719 5.167969 1.25 6.792969 1.320312 C 8.421875 1.386719 9.6875 2.761719 9.617188 4.390625 Z M 9.617188 4.390625 "/>
<path fill-rule="nonzero" fill="#FFFFFF" fill-opacity="1" d="M 10.21875 7.199219 C 10.125 7.480469 10.144531 7.390625 9.816406 8.066406 L 9.816406 15.539062 C 9.816406 15.894531 9.585938 16.207031 9.25 16.316406 C 8.5 16.554688 9.039062 16.355469 1.460938 16.355469 C 1.011719 16.355469 0.648438 15.992188 0.644531 15.539062 L 0.644531 8 C 0.644531 7.550781 1.007812 7.1875 1.457031 7.183594 L 2.886719 7.183594 C 2.796875 6.917969 2.75 6.804688 2.710938 6.542969 L 1.457031 6.542969 C 0.652344 6.542969 0 7.195312 0 8 L 0.00390625 15.542969 C 0.00390625 16.347656 0.65625 17 1.460938 17 L 9 16.996094 C 9.808594 16.996094 10.460938 16.34375 10.460938 15.535156 L 10.457031 7.996094 C 10.457031 7.714844 10.375 7.4375 10.21875 7.199219 Z M 10.21875 7.199219 "/>
</g>
</svg>
