<?xml version="1.0" encoding="UTF-8"?>
<svg xmlns="http://www.w3.org/2000/svg" xmlns:xlink="http://www.w3.org/1999/xlink" width="11" height="9.775731" viewBox="0 0 11 9.775731">
<path fill-rule="nonzero" fill="rgb(30%,30%,30%)" fill-opacity="1" d="M 1.785156 3.507812 C 1.785156 3.886719 1.480469 4.191406 1.101562 4.191406 C 0.722656 4.191406 0.417969 3.886719 0.417969 3.507812 C 0.417969 3.132812 0.722656 2.824219 1.101562 2.824219 C 1.480469 2.824219 1.785156 3.132812 1.785156 3.507812 Z M 1.785156 3.507812 "/>
<path fill-rule="nonzero" fill="rgb(30%,30%,30%)" fill-opacity="1" d="M 0.136719 4.574219 L 2.066406 4.574219 C 2.140625 4.574219 2.203125 4.632812 2.203125 4.707031 L 2.203125 6.640625 C 2.203125 6.714844 2.140625 6.777344 2.066406 6.777344 L 0.136719 6.777344 C 0.0625 6.777344 0 6.714844 0 6.640625 L 0 4.707031 C 0 4.632812 0.0625 4.574219 0.136719 4.574219 Z M 0.136719 4.574219 "/>
<path fill-rule="nonzero" fill="rgb(30%,30%,30%)" fill-opacity="1" d="M 10.546875 3.507812 C 10.546875 3.886719 10.242188 4.191406 9.863281 4.191406 C 9.488281 4.191406 9.179688 3.886719 9.179688 3.507812 C 9.179688 3.132812 9.488281 2.824219 9.863281 2.824219 C 10.242188 2.824219 10.546875 3.132812 10.546875 3.507812 Z M 10.546875 3.507812 "/>
<path fill-rule="nonzero" fill="rgb(30%,30%,30%)" fill-opacity="1" d="M 8.933594 4.574219 L 10.863281 4.574219 C 10.9375 4.574219 11 4.632812 11 4.707031 L 11 6.640625 C 11 6.714844 10.9375 6.777344 10.863281 6.777344 L 8.933594 6.777344 C 8.859375 6.777344 8.796875 6.714844 8.796875 6.640625 L 8.796875 4.707031 C 8.796875 4.632812 8.859375 4.574219 8.933594 4.574219 Z M 8.933594 4.574219 "/>
<path fill-rule="nonzero" fill="rgb(30%,30%,30%)" fill-opacity="1" d="M 4.566406 1.617188 L 6.5 1.617188 C 6.574219 1.617188 6.636719 1.679688 6.636719 1.753906 L 6.636719 3.6875 C 6.636719 3.761719 6.574219 3.820312 6.5 3.820312 L 4.566406 3.820312 C 4.492188 3.820312 4.433594 3.761719 4.433594 3.6875 L 4.433594 1.753906 C 4.433594 1.679688 4.492188 1.617188 4.566406 1.617188 Z M 4.566406 1.617188 "/>
<path fill-rule="nonzero" fill="rgb(30%,30%,30%)" fill-opacity="1" d="M 6.226562 0.683594 C 6.226562 1.0625 5.921875 1.367188 5.542969 1.367188 C 5.167969 1.367188 4.859375 1.0625 4.859375 0.683594 C 4.859375 0.304688 5.167969 0 5.542969 0 C 5.921875 0 6.226562 0.304688 6.226562 0.683594 Z M 6.226562 0.683594 "/>
<path fill-rule="nonzero" fill="rgb(30%,30%,30%)" fill-opacity="1" d="M 8.445312 6.699219 L 8.445312 4.765625 C 8.445312 4.644531 8.492188 4.535156 8.570312 4.453125 C 8.207031 3.796875 7.644531 3.269531 6.964844 2.949219 L 6.964844 3.636719 C 6.964844 3.890625 6.761719 4.09375 6.511719 4.09375 L 4.578125 4.09375 C 4.328125 4.09375 4.125 3.890625 4.125 3.636719 L 4.125 2.851562 C 3.394531 3.140625 2.78125 3.660156 2.375 4.316406 C 2.464844 4.402344 2.523438 4.519531 2.523438 4.652344 L 2.523438 6.585938 C 2.523438 6.835938 2.320312 7.039062 2.066406 7.039062 L 1.949219 7.039062 C 2.332031 8.609375 3.746094 9.777344 5.433594 9.777344 C 7.078125 9.777344 8.46875 8.664062 8.886719 7.152344 C 8.640625 7.148438 8.445312 6.945312 8.445312 6.699219 Z M 8.445312 6.699219 "/>
</svg>
