<?xml version="1.0" encoding="UTF-8" standalone="no"?>
<!-- Created with Inkscape (http://www.inkscape.org/) -->

<svg
   xmlns:dc="http://purl.org/dc/elements/1.1/"
   xmlns:cc="http://creativecommons.org/ns#"
   xmlns:rdf="http://www.w3.org/1999/02/22-rdf-syntax-ns#"
   xmlns:svg="http://www.w3.org/2000/svg"
   xmlns="http://www.w3.org/2000/svg"
   xmlns:xlink="http://www.w3.org/1999/xlink"
   xmlns:sodipodi="http://sodipodi.sourceforge.net/DTD/sodipodi-0.dtd"
   xmlns:inkscape="http://www.inkscape.org/namespaces/inkscape"
   width="30px"
   height="30px"
   version="1.1"
   id="svg8"
   inkscape:version="0.92.4 5da689c313, 2019-01-14"
   sodipodi:docname="container.svg">
  <defs
     id="defs2" />
  <sodipodi:namedview
     id="base"
     pagecolor="#ffffff"
     bordercolor="#666666"
     borderopacity="1.0"
     inkscape:pageopacity="0.0"
     inkscape:pageshadow="2"
     inkscape:zoom="13.049334"
     inkscape:cx="18.679046"
     inkscape:cy="12.165829"
     inkscape:document-units="px"
     inkscape:current-layer="layer1"
     showgrid="false"
     inkscape:snap-page="false"
     units="px"
     inkscape:window-width="1884"
     inkscape:window-height="1061"
     inkscape:window-x="0"
     inkscape:window-y="0"
     inkscape:window-maximized="1"
     fit-margin-top="0"
     fit-margin-left="0"
     fit-margin-right="0"
     fit-margin-bottom="0" />
  <metadata
     id="metadata5">
    <rdf:RDF>
      <cc:Work
         rdf:about="">
        <dc:format>image/svg+xml</dc:format>
        <dc:type
           rdf:resource="http://purl.org/dc/dcmitype/StillImage" />
        <dc:title></dc:title>
      </cc:Work>
    </rdf:RDF>
  </metadata>
    <circle
       style="color:#000000;clip-rule:nonzero;display:inline;overflow:visible;visibility:visible;opacity:1;isolation:auto;mix-blend-mode:normal;color-interpolation:sRGB;color-interpolation-filters:linearRGB;solid-color:#000000;solid-opacity:1;vector-effect:none;fill:#2a62ac;fill-opacity:1;fill-rule:evenodd;stroke:#ffffff;stroke-width:1;stroke-linecap:butt;stroke-linejoin:miter;stroke-miterlimit:4;stroke-dasharray:none;stroke-dashoffset:0;stroke-opacity:1;marker:none;color-rendering:auto;image-rendering:auto;shape-rendering:auto;text-rendering:auto;enable-background:accumulate"
       id="path815"
       cx="15"
       cy="15"
       r="14.5" />
<g transform="translate(6.5,6.5)"><path fill-rule="nonzero" fill="#FFFFFF" fill-opacity="1" d="M 6.539062 13.792969 C 5.472656 10.597656 6.179688 7.039062 8.460938 4.175781 C 8.296875 5.921875 10.046875 7.484375 11.507812 7.898438 C 9.609375 9.601562 8.367188 13.261719 8.78125 16.441406 C 8.78125 16.441406 8.894531 16.957031 8.5625 17 C 7.976562 17.074219 6.84375 14.699219 6.539062 13.792969 Z M 6.539062 13.792969 "/>
<path fill-rule="nonzero" fill="#FFFFFF" fill-opacity="1" d="M 14.558594 5.914062 C 13.632812 6.394531 11.550781 6.789062 10.328125 5.542969 C 9.011719 4.195312 9.648438 2.414062 10.375 1.734375 L 8.734375 0.0976562 C 8.605469 -0.03125 8.394531 -0.03125 8.265625 0.0976562 L 0.0976562 8.257812 C -0.03125 8.386719 -0.03125 8.601562 0.0976562 8.734375 L 5.703125 14.335938 C 3.496094 8.078125 8.480469 4.136719 8.480469 4.136719 C 9.347656 6.675781 11.511719 7.441406 13.445312 7.058594 C 11.070312 9.210938 8.964844 12.394531 9.199219 16.425781 L 16.902344 8.734375 C 17.03125 8.601562 17.03125 8.386719 16.902344 8.253906 Z M 14.558594 5.914062 "/>
<path fill-rule="nonzero" fill="#FFFFFF" fill-opacity="1" d="M 14.238281 3.351562 C 14.335938 3.976562 14.132812 4.605469 13.683594 5.050781 C 13.238281 5.496094 12.605469 5.703125 11.984375 5.601562 C 11.15625 5.476562 10.480469 4.800781 10.355469 3.972656 C 10.253906 3.351562 10.460938 2.71875 10.90625 2.273438 C 11.351562 1.828125 11.984375 1.625 12.605469 1.722656 C 13.433594 1.847656 14.109375 2.527344 14.238281 3.351562 Z M 14.238281 3.351562 "/>
</g>
</svg>
