<?xml version="1.0" encoding="UTF-8" standalone="no"?>
<!-- Created with Inkscape (http://www.inkscape.org/) -->

<svg
   xmlns:dc="http://purl.org/dc/elements/1.1/"
   xmlns:cc="http://creativecommons.org/ns#"
   xmlns:rdf="http://www.w3.org/1999/02/22-rdf-syntax-ns#"
   xmlns:svg="http://www.w3.org/2000/svg"
   xmlns="http://www.w3.org/2000/svg"
   xmlns:xlink="http://www.w3.org/1999/xlink"
   xmlns:sodipodi="http://sodipodi.sourceforge.net/DTD/sodipodi-0.dtd"
   xmlns:inkscape="http://www.inkscape.org/namespaces/inkscape"
   width="30px"
   height="30px"
   version="1.1"
   id="svg8"
   inkscape:version="0.92.4 5da689c313, 2019-01-14"
   sodipodi:docname="container.svg">
  <defs
     id="defs2" />
  <sodipodi:namedview
     id="base"
     pagecolor="#ffffff"
     bordercolor="#666666"
     borderopacity="1.0"
     inkscape:pageopacity="0.0"
     inkscape:pageshadow="2"
     inkscape:zoom="13.049334"
     inkscape:cx="18.679046"
     inkscape:cy="12.165829"
     inkscape:document-units="px"
     inkscape:current-layer="layer1"
     showgrid="false"
     inkscape:snap-page="false"
     units="px"
     inkscape:window-width="1884"
     inkscape:window-height="1061"
     inkscape:window-x="0"
     inkscape:window-y="0"
     inkscape:window-maximized="1"
     fit-margin-top="0"
     fit-margin-left="0"
     fit-margin-right="0"
     fit-margin-bottom="0" />
  <metadata
     id="metadata5">
    <rdf:RDF>
      <cc:Work
         rdf:about="">
        <dc:format>image/svg+xml</dc:format>
        <dc:type
           rdf:resource="http://purl.org/dc/dcmitype/StillImage" />
        <dc:title></dc:title>
      </cc:Work>
    </rdf:RDF>
  </metadata>
    <circle
       style="color:#000000;clip-rule:nonzero;display:inline;overflow:visible;visibility:visible;opacity:1;isolation:auto;mix-blend-mode:normal;color-interpolation:sRGB;color-interpolation-filters:linearRGB;solid-color:#000000;solid-opacity:1;vector-effect:none;fill:#7093c3;fill-opacity:1;fill-rule:evenodd;stroke:#ffffff;stroke-width:1;stroke-linecap:butt;stroke-linejoin:miter;stroke-miterlimit:4;stroke-dasharray:none;stroke-dashoffset:0;stroke-opacity:1;marker:none;color-rendering:auto;image-rendering:auto;shape-rendering:auto;text-rendering:auto;enable-background:accumulate"
       id="path815"
       cx="15"
       cy="15"
       r="14.5" />
<g transform="translate(6.5,7.5)"><path fill-rule="nonzero" fill="#FFFFFF" fill-opacity="1" d="M 2.757812 5.421875 C 2.757812 6.007812 2.285156 6.480469 1.703125 6.480469 C 1.121094 6.480469 0.644531 6.007812 0.644531 5.421875 C 0.644531 4.839844 1.121094 4.367188 1.703125 4.367188 C 2.285156 4.367188 2.757812 4.839844 2.757812 5.421875 Z M 2.757812 5.421875 "/>
<path fill-rule="nonzero" fill="#FFFFFF" fill-opacity="1" d="M 0.210938 7.066406 L 3.195312 7.066406 C 3.3125 7.066406 3.40625 7.160156 3.40625 7.277344 L 3.40625 10.265625 C 3.40625 10.378906 3.3125 10.472656 3.195312 10.472656 L 0.210938 10.472656 C 0.09375 10.472656 0 10.378906 0 10.265625 L 0 7.277344 C 0 7.160156 0.09375 7.066406 0.210938 7.066406 Z M 0.210938 7.066406 "/>
<path fill-rule="nonzero" fill="#FFFFFF" fill-opacity="1" d="M 16.300781 5.421875 C 16.300781 6.007812 15.828125 6.480469 15.246094 6.480469 C 14.664062 6.480469 14.1875 6.007812 14.1875 5.421875 C 14.1875 4.839844 14.664062 4.367188 15.246094 4.367188 C 15.828125 4.367188 16.300781 4.839844 16.300781 5.421875 Z M 16.300781 5.421875 "/>
<path fill-rule="nonzero" fill="#FFFFFF" fill-opacity="1" d="M 13.804688 7.066406 L 16.789062 7.066406 C 16.90625 7.066406 17 7.160156 17 7.277344 L 17 10.265625 C 17 10.378906 16.90625 10.472656 16.789062 10.472656 L 13.804688 10.472656 C 13.6875 10.472656 13.59375 10.378906 13.59375 10.265625 L 13.59375 7.277344 C 13.59375 7.160156 13.6875 7.066406 13.804688 7.066406 Z M 13.804688 7.066406 "/>
<path fill-rule="nonzero" fill="#FFFFFF" fill-opacity="1" d="M 7.058594 2.5 L 10.046875 2.5 C 10.160156 2.5 10.253906 2.59375 10.253906 2.710938 L 10.253906 5.699219 C 10.253906 5.8125 10.160156 5.90625 10.046875 5.90625 L 7.058594 5.90625 C 6.941406 5.90625 6.847656 5.8125 6.847656 5.699219 L 6.847656 2.710938 C 6.847656 2.59375 6.941406 2.5 7.058594 2.5 Z M 7.058594 2.5 "/>
<path fill-rule="nonzero" fill="#FFFFFF" fill-opacity="1" d="M 9.625 1.054688 C 9.625 1.640625 9.152344 2.113281 8.570312 2.113281 C 7.984375 2.113281 7.511719 1.640625 7.511719 1.054688 C 7.511719 0.472656 7.984375 0 8.570312 0 C 9.152344 0 9.625 0.472656 9.625 1.054688 Z M 9.625 1.054688 "/>
<path fill-rule="nonzero" fill="#FFFFFF" fill-opacity="1" d="M 13.050781 10.351562 L 13.050781 7.367188 C 13.050781 7.179688 13.125 7.007812 13.242188 6.882812 C 12.683594 5.871094 11.8125 5.054688 10.765625 4.558594 L 10.765625 5.621094 C 10.765625 6.011719 10.449219 6.324219 10.0625 6.324219 L 7.074219 6.324219 C 6.6875 6.324219 6.371094 6.011719 6.371094 5.621094 L 6.371094 4.410156 C 5.246094 4.851562 4.296875 5.652344 3.671875 6.671875 C 3.8125 6.800781 3.898438 6.984375 3.898438 7.1875 L 3.898438 10.175781 C 3.898438 10.5625 3.582031 10.878906 3.195312 10.878906 L 3.011719 10.878906 C 3.601562 13.304688 5.789062 15.109375 8.398438 15.109375 C 10.941406 15.109375 13.085938 13.390625 13.734375 11.054688 C 13.355469 11.046875 13.050781 10.734375 13.050781 10.351562 Z M 13.050781 10.351562 "/>
</g>
</svg>
