<?xml version="1.0" encoding="UTF-8"?>
<svg xmlns="http://www.w3.org/2000/svg" xmlns:xlink="http://www.w3.org/1999/xlink" width="9.02551" height="11" viewBox="0 0 9.02551 11">
<path fill-rule="nonzero" fill="rgb(30%,30%,30%)" fill-opacity="1" d="M 6.992188 8.609375 C 7.214844 8.851562 7.53125 8.992188 7.859375 8.992188 C 8.503906 8.992188 9.027344 8.46875 9.027344 7.824219 C 9.027344 7.59375 8.957031 7.367188 8.828125 7.175781 C 8.472656 6.636719 7.746094 6.492188 7.210938 6.847656 C 7.175781 6.597656 7.109375 6.355469 7.015625 6.117188 L 0.898438 6.117188 C 0.742188 6.503906 0.664062 6.917969 0.664062 7.332031 C 0.664062 8.699219 1.5 9.875 2.6875 10.371094 L 0.433594 10.371094 C 0.195312 10.371094 0 10.511719 0 10.6875 C 0 10.859375 0.195312 11 0.433594 11 L 7.480469 11 C 7.71875 11 7.914062 10.859375 7.914062 10.6875 C 7.914062 10.511719 7.71875 10.371094 7.480469 10.371094 L 5.222656 10.371094 C 6.007812 10.042969 6.652344 9.421875 6.992188 8.609375 Z M 7.871094 7.144531 C 8.253906 7.144531 8.5625 7.453125 8.5625 7.835938 C 8.5625 8.21875 8.253906 8.527344 7.871094 8.527344 C 7.492188 8.527344 7.179688 8.21875 7.179688 7.835938 C 7.179688 7.453125 7.492188 7.144531 7.871094 7.144531 Z M 7.871094 7.144531 "/>
<path fill-rule="nonzero" fill="rgb(30%,30%,30%)" fill-opacity="1" d="M 0.371094 1.75 C 0.386719 1.691406 0.421875 1.636719 0.46875 1.589844 C 0.664062 1.390625 0.851562 1.175781 1.070312 1.007812 C 3.003906 -0.484375 5.839844 -0.296875 7.570312 1.417969 C 7.636719 1.488281 7.691406 1.570312 7.75 1.648438 L 7.761719 1.847656 C 7.5625 2.183594 7.328125 2.214844 7.050781 1.945312 C 5.390625 0.332031 2.761719 0.332031 1.105469 1.945312 C 0.683594 2.386719 0.273438 2.085938 0.371094 1.75 Z M 0.371094 1.75 "/>
<path fill-rule="nonzero" fill="rgb(30%,30%,30%)" fill-opacity="1" d="M 4.191406 1.390625 C 5.125 1.414062 6.003906 1.789062 6.71875 2.539062 C 6.898438 2.730469 6.90625 2.953125 6.742188 3.105469 C 6.582031 3.253906 6.363281 3.234375 6.183594 3.046875 C 5.582031 2.425781 4.855469 2.105469 3.992188 2.128906 C 3.214844 2.152344 2.550781 2.453125 2 3.011719 C 1.929688 3.089844 1.835938 3.160156 1.738281 3.191406 C 1.585938 3.234375 1.449219 3.171875 1.355469 3.035156 C 1.265625 2.902344 1.261719 2.71875 1.390625 2.597656 C 1.625 2.375 1.863281 2.148438 2.132812 1.964844 C 2.71875 1.570312 3.378906 1.394531 4.191406 1.390625 Z M 4.191406 1.390625 "/>
<path fill-rule="nonzero" fill="rgb(30%,30%,30%)" fill-opacity="1" d="M 5.511719 4.292969 C 5.40625 4.261719 5.347656 4.214844 5.285156 4.132812 C 4.679688 3.304688 3.457031 3.328125 2.875 4.132812 C 2.742188 4.316406 2.511719 4.34375 2.34375 4.21875 C 2.171875 4.085938 2.152344 3.875 2.289062 3.679688 C 3.148438 2.484375 5.019531 2.492188 5.871094 3.691406 C 5.964844 3.824219 5.988281 3.960938 5.910156 4.101562 C 5.839844 4.234375 5.722656 4.292969 5.511719 4.292969 Z M 5.511719 4.292969 "/>
<path fill-rule="nonzero" fill="rgb(30%,30%,30%)" fill-opacity="1" d="M 4.082031 4.175781 C 4.539062 4.175781 4.914062 4.550781 4.910156 5.003906 C 4.910156 5.457031 4.535156 5.835938 4.082031 5.839844 C 3.625 5.84375 3.238281 5.457031 3.246094 4.996094 C 3.25 4.539062 3.625 4.175781 4.082031 4.175781 Z M 4.082031 4.175781 "/>
</svg>
