<?xml version="1.0" encoding="UTF-8"?>
<svg xmlns="http://www.w3.org/2000/svg" xmlns:xlink="http://www.w3.org/1999/xlink" width="11" height="10.559438" viewBox="0 0 11 10.559438">
<path fill-rule="nonzero" fill="rgb(30%,30%,30%)" fill-opacity="1" d="M 0 5.578125 L 0.148438 4.976562 L 2.261719 5 L 0.402344 3.933594 L 0.527344 3.421875 L 2.667969 3.328125 L 0.78125 2.378906 L 0.929688 1.773438 L 3.882812 3.265625 L 3.738281 3.855469 L 1.570312 3.953125 L 3.453125 5.03125 L 3.308594 5.613281 Z M 0 5.578125 "/>
<path fill-rule="nonzero" fill="rgb(30%,30%,30%)" fill-opacity="1" d="M 3.476562 0 L 4.101562 0 L 4.578125 2.058594 L 5.171875 0 L 5.699219 0 L 6.296875 2.058594 L 6.773438 0 L 7.394531 0.00390625 L 6.648438 3.226562 L 6.039062 3.222656 L 5.429688 1.140625 L 4.828125 3.222656 L 4.226562 3.222656 Z M 3.476562 0 "/>
<path fill-rule="nonzero" fill="rgb(30%,30%,30%)" fill-opacity="1" d="M 10.078125 1.773438 L 10.222656 2.378906 L 8.335938 3.328125 L 10.476562 3.417969 L 10.601562 3.929688 L 8.742188 5 L 10.855469 4.976562 L 11 5.582031 L 7.691406 5.613281 L 7.546875 5.023438 L 9.429688 3.9375 L 7.261719 3.847656 L 7.121094 3.261719 Z M 10.078125 1.773438 "/>
<path fill-rule="nonzero" fill="rgb(30%,30%,30%)" fill-opacity="1" d="M 10.25 7.960938 L 9.78125 8.367188 L 8.066406 7.132812 L 8.972656 9.074219 L 8.574219 9.417969 L 6.769531 8.261719 L 7.765625 10.125 L 7.296875 10.53125 L 5.742188 7.613281 L 6.199219 7.214844 L 8.027344 8.382812 L 7.113281 6.417969 L 7.566406 6.023438 Z M 10.25 7.960938 "/>
<path fill-rule="nonzero" fill="rgb(30%,30%,30%)" fill-opacity="1" d="M 3.742188 10.558594 L 3.265625 10.164062 L 4.210938 8.273438 L 2.441406 9.476562 L 2.035156 9.144531 L 2.886719 7.175781 L 1.207031 8.457031 L 0.726562 8.058594 L 3.359375 6.054688 L 3.828125 6.441406 L 2.96875 8.4375 L 4.761719 7.214844 L 5.222656 7.597656 Z M 3.742188 10.558594 "/>
</svg>
