<?xml version="1.0" encoding="UTF-8"?>
<svg xmlns="http://www.w3.org/2000/svg" xmlns:xlink="http://www.w3.org/1999/xlink" width="9.701691" height="11" viewBox="0 0 9.701691 11">
<path fill-rule="nonzero" fill="rgb(30%,30%,30%)" fill-opacity="1" d="M 4.863281 2.789062 C 4.953125 1.964844 4.683594 1.226562 4.089844 0.632812 C 3.648438 0.183594 3.109375 -0.0390625 2.476562 0.00390625 C 1.855469 0.0507812 1.359375 0.339844 0.96875 0.820312 C 0.5 1.398438 0.320312 2.066406 0.367188 2.804688 C 0.410156 3.460938 0.660156 4.03125 1.121094 4.496094 C 1.714844 5.085938 2.402344 5.269531 3.179688 5.070312 C 3.398438 5.011719 4.671875 4.550781 4.863281 2.789062 Z M 1.875 4.652344 C 1.316406 4.316406 0.941406 3.875 0.78125 3.257812 C 0.570312 2.429688 0.703125 1.664062 1.25 0.996094 C 1.585938 0.585938 2.023438 0.34375 2.5625 0.328125 C 3.144531 0.308594 3.617188 0.554688 3.984375 0.992188 C 4.441406 1.539062 4.605469 2.175781 4.527344 2.875 C 4.46875 3.421875 4.253906 3.902344 3.863281 4.296875 C 3.542969 4.613281 3.160156 4.800781 2.707031 4.828125 C 2.574219 4.835938 2.105469 4.792969 1.875 4.652344 Z M 1.875 4.652344 "/>
<path fill-rule="nonzero" fill="rgb(30%,30%,30%)" fill-opacity="1" d="M 1.351562 2.90625 C 1.378906 2.890625 1.433594 2.867188 1.46875 2.828125 C 2.042969 2.257812 2.617188 1.683594 3.191406 1.109375 C 3.207031 1.09375 3.222656 1.078125 3.234375 1.0625 C 3.277344 0.988281 3.28125 0.917969 3.21875 0.855469 C 3.164062 0.792969 3.074219 0.785156 3.007812 0.835938 C 2.984375 0.851562 2.96875 0.871094 2.949219 0.886719 C 2.382812 1.453125 1.816406 2.019531 1.25 2.585938 C 1.222656 2.617188 1.195312 2.648438 1.179688 2.683594 C 1.136719 2.785156 1.214844 2.902344 1.351562 2.90625 Z M 1.554688 1.902344 C 1.609375 1.875 1.648438 1.867188 1.671875 1.84375 C 1.894531 1.625 2.117188 1.40625 2.332031 1.183594 C 2.398438 1.117188 2.386719 1.023438 2.328125 0.960938 C 2.265625 0.902344 2.175781 0.898438 2.105469 0.953125 C 2.074219 0.980469 2.046875 1.011719 2.019531 1.039062 C 1.832031 1.226562 1.644531 1.414062 1.457031 1.601562 C 1.402344 1.65625 1.386719 1.726562 1.421875 1.789062 C 1.453125 1.835938 1.511719 1.867188 1.554688 1.902344 Z M 1.554688 1.902344 "/>
<path fill-rule="nonzero" fill="rgb(30%,30%,30%)" fill-opacity="1" d="M 9.535156 6.972656 C 9.484375 6.96875 9.4375 6.972656 9.386719 6.972656 C 9.363281 6.710938 9.332031 6.652344 9.222656 6.652344 C 9.1875 6.652344 9.125 6.667969 9.117188 6.695312 C 9.078125 6.777344 9.058594 6.867188 9.03125 6.964844 L 8.738281 6.964844 C 8.738281 6.917969 8.738281 6.878906 8.738281 6.835938 C 8.738281 6.539062 8.535156 6.328125 8.238281 6.328125 C 7.710938 6.320312 7.183594 6.324219 6.652344 6.328125 C 6.394531 6.328125 6.199219 6.496094 6.164062 6.746094 C 6.152344 6.816406 6.160156 6.890625 6.160156 6.960938 L 5.839844 6.960938 C 5.828125 6.832031 5.875 6.660156 5.683594 6.65625 C 5.476562 6.652344 5.519531 6.832031 5.511719 6.964844 C 5.382812 6.984375 5.203125 6.929688 5.199219 7.125 C 5.1875 7.339844 5.382812 7.285156 5.511719 7.304688 C 5.511719 7.351562 5.511719 7.386719 5.511719 7.425781 C 5.515625 7.542969 5.574219 7.617188 5.671875 7.621094 C 5.773438 7.625 5.835938 7.550781 5.835938 7.425781 C 5.839844 7.382812 5.835938 7.34375 5.835938 7.304688 L 6.15625 7.304688 C 6.15625 7.351562 6.15625 7.386719 6.15625 7.425781 C 6.15625 8.125 6.15625 8.828125 6.15625 9.527344 C 6.15625 9.730469 6.285156 9.871094 6.488281 9.871094 C 6.910156 9.875 7.335938 9.875 7.761719 9.871094 C 7.964844 9.871094 8.09375 9.734375 8.09375 9.53125 C 8.097656 9.488281 8.097656 9.445312 8.097656 9.394531 C 8.191406 9.394531 8.28125 9.394531 8.367188 9.394531 C 8.609375 9.394531 8.738281 9.261719 8.738281 9.019531 C 8.738281 8.480469 8.738281 7.945312 8.738281 7.40625 C 8.738281 7.375 8.738281 7.339844 8.738281 7.304688 L 9.054688 7.304688 C 9.066406 7.433594 9.019531 7.617188 9.21875 7.617188 C 9.421875 7.613281 9.371094 7.433594 9.386719 7.300781 C 9.4375 7.300781 9.484375 7.300781 9.53125 7.300781 C 9.632812 7.292969 9.699219 7.230469 9.703125 7.136719 C 9.703125 7.042969 9.640625 6.980469 9.535156 6.972656 Z M 8.484375 9.167969 L 8.179688 9.167969 L 8.179688 7.414062 L 8.484375 7.414062 Z M 8.488281 7.070312 L 8.175781 7.070312 C 8.175781 6.972656 8.132812 6.863281 8.234375 6.796875 C 8.277344 6.765625 8.359375 6.761719 8.40625 6.785156 C 8.519531 6.84375 8.480469 6.960938 8.488281 7.070312 Z M 8.488281 7.070312 "/>
<path fill-rule="nonzero" fill="rgb(30%,30%,30%)" fill-opacity="1" d="M 1.351562 2.90625 C 1.214844 2.902344 1.136719 2.785156 1.179688 2.683594 C 1.195312 2.648438 1.222656 2.617188 1.25 2.585938 C 1.816406 2.019531 2.382812 1.453125 2.949219 0.886719 C 2.96875 0.871094 2.984375 0.851562 3.007812 0.835938 C 3.074219 0.785156 3.164062 0.792969 3.21875 0.855469 C 3.28125 0.917969 3.277344 0.988281 3.234375 1.0625 C 3.222656 1.078125 3.207031 1.09375 3.191406 1.109375 C 2.617188 1.683594 2.042969 2.257812 1.46875 2.828125 C 1.433594 2.867188 1.378906 2.890625 1.351562 2.90625 Z M 1.351562 2.90625 "/>
<path fill-rule="nonzero" fill="rgb(30%,30%,30%)" fill-opacity="1" d="M 1.554688 1.902344 C 1.511719 1.867188 1.453125 1.835938 1.421875 1.789062 C 1.386719 1.726562 1.402344 1.65625 1.457031 1.601562 C 1.644531 1.414062 1.832031 1.226562 2.019531 1.039062 C 2.046875 1.011719 2.074219 0.980469 2.105469 0.953125 C 2.175781 0.898438 2.265625 0.902344 2.328125 0.960938 C 2.386719 1.023438 2.398438 1.117188 2.332031 1.183594 C 2.117188 1.40625 1.894531 1.625 1.671875 1.84375 C 1.648438 1.867188 1.609375 1.875 1.554688 1.902344 Z M 1.554688 1.902344 "/>
<path fill-rule="nonzero" fill="rgb(30%,30%,30%)" fill-opacity="1" d="M 4.394531 7.632812 C 4.746094 7.285156 4.894531 6.859375 4.871094 6.367188 C 4.867188 6.222656 4.816406 6.167969 4.671875 6.167969 C 4.332031 6.167969 3.996094 6.167969 3.65625 6.167969 C 3.648438 6.167969 3.644531 6.167969 3.636719 6.167969 L 3.589844 6.167969 C 3.589844 5.984375 3.585938 5.8125 3.589844 5.636719 C 3.589844 5.539062 3.65625 5.480469 3.75 5.476562 C 3.800781 5.472656 3.847656 5.476562 3.894531 5.476562 C 3.996094 5.476562 4.046875 5.519531 4.0625 5.625 C 4.078125 5.710938 4.113281 5.773438 4.203125 5.792969 C 4.308594 5.816406 4.402344 5.722656 4.394531 5.605469 C 4.382812 5.371094 4.191406 5.171875 3.957031 5.15625 C 3.867188 5.148438 3.78125 5.148438 3.691406 5.15625 C 3.464844 5.171875 3.273438 5.367188 3.269531 5.597656 C 3.265625 5.785156 3.265625 5.972656 3.265625 6.167969 L 1.96875 6.167969 C 1.972656 5.972656 1.972656 5.785156 1.96875 5.597656 C 1.964844 5.371094 1.773438 5.171875 1.546875 5.15625 C 1.457031 5.148438 1.367188 5.148438 1.28125 5.152344 C 1.046875 5.171875 0.855469 5.367188 0.839844 5.605469 C 0.835938 5.722656 0.929688 5.816406 1.035156 5.792969 C 1.125 5.773438 1.160156 5.710938 1.171875 5.625 C 1.191406 5.519531 1.238281 5.476562 1.34375 5.476562 C 1.390625 5.472656 1.4375 5.472656 1.484375 5.476562 C 1.582031 5.480469 1.644531 5.539062 1.648438 5.636719 C 1.648438 5.8125 1.648438 5.984375 1.648438 6.167969 L 1.238281 6.167969 C 0.914062 6.167969 0.59375 6.167969 0.269531 6.167969 C -0.0625 6.167969 -0.046875 6.410156 0.101562 6.902344 C 0.214844 7.269531 0.410156 7.597656 0.734375 7.820312 C 0.972656 7.984375 1.253906 8.070312 1.542969 8.097656 C 1.566406 8.097656 1.59375 8.101562 1.628906 8.109375 C 1.609375 8.257812 1.597656 8.402344 1.578125 8.546875 C 1.53125 8.972656 1.484375 9.402344 1.4375 9.828125 C 1.402344 10.136719 1.375 10.445312 1.332031 10.753906 C 1.316406 10.863281 1.339844 10.945312 1.4375 11 L 3.472656 11 C 3.574219 10.945312 3.59375 10.863281 3.578125 10.753906 C 3.539062 10.445312 3.507812 10.136719 3.472656 9.828125 C 3.425781 9.398438 3.378906 8.972656 3.332031 8.542969 C 3.316406 8.398438 3.300781 8.253906 3.285156 8.105469 C 3.324219 8.101562 3.355469 8.097656 3.382812 8.09375 C 3.777344 8.066406 4.117188 7.910156 4.394531 7.632812 Z M 4.394531 7.632812 "/>
</svg>
