<?xml version="1.0" encoding="UTF-8" standalone="no"?>
<!-- Created with Inkscape (http://www.inkscape.org/) -->

<svg
   xmlns:dc="http://purl.org/dc/elements/1.1/"
   xmlns:cc="http://creativecommons.org/ns#"
   xmlns:rdf="http://www.w3.org/1999/02/22-rdf-syntax-ns#"
   xmlns:svg="http://www.w3.org/2000/svg"
   xmlns="http://www.w3.org/2000/svg"
   xmlns:xlink="http://www.w3.org/1999/xlink"
   xmlns:sodipodi="http://sodipodi.sourceforge.net/DTD/sodipodi-0.dtd"
   xmlns:inkscape="http://www.inkscape.org/namespaces/inkscape"
   width="30px"
   height="30px"
   version="1.1"
   id="svg8"
   inkscape:version="0.92.4 5da689c313, 2019-01-14"
   sodipodi:docname="container.svg">
  <defs
     id="defs2" />
  <sodipodi:namedview
     id="base"
     pagecolor="#ffffff"
     bordercolor="#666666"
     borderopacity="1.0"
     inkscape:pageopacity="0.0"
     inkscape:pageshadow="2"
     inkscape:zoom="13.049334"
     inkscape:cx="18.679046"
     inkscape:cy="12.165829"
     inkscape:document-units="px"
     inkscape:current-layer="layer1"
     showgrid="false"
     inkscape:snap-page="false"
     units="px"
     inkscape:window-width="1884"
     inkscape:window-height="1061"
     inkscape:window-x="0"
     inkscape:window-y="0"
     inkscape:window-maximized="1"
     fit-margin-top="0"
     fit-margin-left="0"
     fit-margin-right="0"
     fit-margin-bottom="0" />
  <metadata
     id="metadata5">
    <rdf:RDF>
      <cc:Work
         rdf:about="">
        <dc:format>image/svg+xml</dc:format>
        <dc:type
           rdf:resource="http://purl.org/dc/dcmitype/StillImage" />
        <dc:title></dc:title>
      </cc:Work>
    </rdf:RDF>
  </metadata>
    <circle
       style="color:#000000;clip-rule:nonzero;display:inline;overflow:visible;visibility:visible;opacity:1;isolation:auto;mix-blend-mode:normal;color-interpolation:sRGB;color-interpolation-filters:linearRGB;solid-color:#000000;solid-opacity:1;vector-effect:none;fill:#ffffff;fill-opacity:1;fill-rule:evenodd;stroke:#2a62ac;stroke-width:1;stroke-linecap:butt;stroke-linejoin:miter;stroke-miterlimit:4;stroke-dasharray:none;stroke-dashoffset:0;stroke-opacity:1;marker:none;color-rendering:auto;image-rendering:auto;shape-rendering:auto;text-rendering:auto;enable-background:accumulate"
       id="path815"
       cx="15"
       cy="15"
       r="14.5" />
<g transform="translate(6.5,9.0)"><path fill-rule="nonzero" fill="rgb(30%,30%,30%)" fill-opacity="1" d="M 17 10.597656 L 17 10.621094 C 17 11.507812 16.28125 12.226562 15.394531 12.226562 L 1.605469 12.226562 C 0.71875 12.226562 0 11.507812 0 10.621094 L 0 10.597656 C 0 10.449219 0.0664062 10.308594 0.175781 10.210938 C 0.453125 10.75 1.003906 11.085938 1.605469 11.085938 L 15.394531 11.085938 C 15.996094 11.085938 16.546875 10.75 16.824219 10.210938 C 16.933594 10.308594 17 10.449219 17 10.597656 Z M 15.78125 6.1875 L 15.78125 3.679688 C 14.492188 3.679688 13.445312 2.632812 13.445312 1.34375 L 3.652344 1.34375 C 3.652344 2.632812 2.609375 3.679688 1.316406 3.679688 L 1.316406 6.1875 C 2.609375 6.1875 3.652344 7.234375 3.652344 8.523438 L 13.445312 8.523438 C 13.445312 7.234375 14.492188 6.1875 15.78125 6.1875 Z M 15.695312 9.792969 L 1.355469 9.792969 C 0.660156 9.792969 0.0976562 9.230469 0.0976562 8.535156 L 0.0976562 0 L 16.949219 0 L 16.949219 8.535156 C 16.949219 9.230469 16.386719 9.792969 15.695312 9.792969 Z M 8.550781 2.511719 C 6.585938 2.511719 4.996094 3.601562 4.996094 4.945312 C 4.996094 6.292969 6.585938 7.382812 8.550781 7.382812 C 10.511719 7.382812 12.105469 6.292969 12.105469 4.945312 C 12.105469 3.601562 10.511719 2.511719 8.550781 2.511719 Z M 8.550781 2.511719 "/>
</g>
</svg>
