<?xml version="1.0" encoding="UTF-8"?>
<svg xmlns="http://www.w3.org/2000/svg" xmlns:xlink="http://www.w3.org/1999/xlink" width="11" height="9.922901" viewBox="0 0 11 9.922901">
<path fill-rule="nonzero" fill="rgb(30%,30%,30%)" fill-opacity="1" d="M 10 4.925781 C 9.636719 4.253906 8.222656 3.753906 8.222656 3.808594 C 8.222656 4.179688 8.339844 5.359375 7.832031 6 C 7.792969 6.046875 6.703125 5.339844 6.703125 5.339844 C 6.703125 5.339844 7.640625 3.664062 7.714844 3.546875 C 7.789062 3.425781 8.109375 3.152344 7.660156 2.949219 C 7.28125 2.773438 6.621094 2.636719 5.765625 2.601562 L 5.765625 1.730469 C 6.230469 1.628906 6.558594 1.164062 6.429688 0.652344 C 6.359375 0.367188 6.148438 0.140625 5.871094 0.046875 C 5.363281 -0.121094 4.863281 0.175781 4.738281 0.652344 C 4.710938 0.75 4.765625 0.851562 4.863281 0.882812 C 4.964844 0.914062 5.066406 0.863281 5.101562 0.765625 C 5.15625 0.625 5.234375 0.488281 5.371094 0.429688 C 5.808594 0.242188 6.226562 0.671875 6.019531 1.105469 C 5.941406 1.277344 5.757812 1.355469 5.570312 1.367188 C 5.46875 1.378906 5.386719 1.464844 5.382812 1.566406 L 5.378906 2.597656 C 4.449219 2.621094 3.742188 2.765625 3.339844 2.949219 C 2.890625 3.152344 3.210938 3.425781 3.285156 3.546875 C 3.359375 3.664062 4.296875 5.339844 4.296875 5.339844 C 4.296875 5.339844 3.207031 6.046875 3.167969 6 C 2.660156 5.359375 2.777344 4.179688 2.777344 3.808594 C 2.777344 3.753906 1.363281 4.253906 1 4.925781 C 0.414062 6.011719 0 9.921875 0 9.921875 L 1.957031 9.921875 C 1.957031 9.921875 2.167969 8.5625 2.324219 8.304688 C 2.414062 8.15625 2.457031 8.390625 2.457031 8.546875 C 2.460938 8.820312 2.425781 9.921875 2.425781 9.921875 L 5.222656 9.921875 L 5.183594 5.207031 L 4.117188 3.515625 C 4.085938 3.472656 4.121094 3.394531 4.167969 3.371094 C 4.546875 3.179688 5.101562 3.152344 5.378906 3.148438 L 5.761719 3.152344 C 6.058594 3.164062 6.511719 3.210938 6.832031 3.371094 C 6.878906 3.394531 6.914062 3.472656 6.882812 3.515625 L 5.816406 5.207031 L 5.777344 9.921875 L 8.574219 9.921875 C 8.574219 9.921875 8.539062 8.820312 8.542969 8.546875 C 8.542969 8.390625 8.585938 8.15625 8.675781 8.304688 C 8.832031 8.5625 9.042969 9.921875 9.042969 9.921875 L 11 9.921875 C 11 9.921875 10.585938 6.011719 10 4.925781 Z M 10 4.925781 "/>
</svg>
