<?xml version="1.0" encoding="UTF-8"?>
<svg xmlns="http://www.w3.org/2000/svg" xmlns:xlink="http://www.w3.org/1999/xlink" width="8.807112" height="11" viewBox="0 0 8.807112 11">
<path fill-rule="nonzero" fill="rgb(30%,30%,30%)" fill-opacity="1" d="M 0 3.066406 L 0 10.417969 C 0 10.742188 0.261719 11 0.582031 11 L 8.226562 11 C 8.546875 11 8.808594 10.738281 8.808594 10.417969 L 8.808594 3.066406 Z M 4.429688 9.894531 C 2.859375 9.894531 1.582031 8.617188 1.582031 7.046875 C 1.582031 5.480469 2.859375 4.203125 4.429688 4.203125 C 6 4.203125 7.277344 5.480469 7.277344 7.046875 C 7.277344 8.617188 6 9.894531 4.429688 9.894531 Z M 4.429688 9.894531 "/>
<path fill-rule="nonzero" fill="rgb(30%,30%,30%)" fill-opacity="1" d="M 4.429688 9.628906 C 3.007812 9.628906 1.847656 8.472656 1.847656 7.046875 C 1.847656 5.625 3.007812 4.46875 4.429688 4.46875 C 5.851562 4.46875 7.011719 5.625 7.011719 7.050781 C 7.011719 8.472656 5.851562 9.628906 4.429688 9.628906 Z M 4.429688 4.789062 C 3.183594 4.789062 2.167969 5.800781 2.167969 7.050781 C 2.167969 8.296875 3.183594 9.308594 4.429688 9.308594 C 5.675781 9.308594 6.691406 8.296875 6.691406 7.046875 C 6.691406 5.800781 5.675781 4.789062 4.429688 4.789062 Z M 4.429688 4.789062 "/>
<path fill-rule="nonzero" fill="rgb(30%,30%,30%)" fill-opacity="1" d="M 8.808594 2.765625 L 0 2.765625 L 0 0.582031 C 0 0.261719 0.261719 0 0.582031 0 L 8.226562 0 C 8.546875 0 8.808594 0.261719 8.808594 0.582031 Z M 0.867188 0.925781 C 0.667969 0.925781 0.511719 1.085938 0.511719 1.28125 C 0.511719 1.476562 0.667969 1.632812 0.867188 1.632812 C 1.0625 1.632812 1.21875 1.476562 1.21875 1.28125 C 1.21875 1.085938 1.0625 0.925781 0.867188 0.925781 Z M 1.890625 0.925781 C 1.695312 0.925781 1.535156 1.085938 1.535156 1.28125 C 1.535156 1.476562 1.695312 1.632812 1.890625 1.632812 C 2.085938 1.632812 2.242188 1.476562 2.242188 1.28125 C 2.246094 1.085938 2.085938 0.925781 1.890625 0.925781 Z M 2.917969 0.925781 C 2.722656 0.925781 2.5625 1.085938 2.5625 1.28125 C 2.5625 1.476562 2.722656 1.632812 2.917969 1.632812 C 3.113281 1.632812 3.273438 1.476562 3.273438 1.28125 C 3.273438 1.085938 3.113281 0.925781 2.917969 0.925781 Z M 7.691406 0.738281 C 7.390625 0.738281 7.144531 0.980469 7.144531 1.28125 C 7.144531 1.582031 7.390625 1.828125 7.691406 1.828125 C 7.992188 1.828125 8.238281 1.582031 8.238281 1.28125 C 8.238281 0.980469 7.992188 0.738281 7.691406 0.738281 Z M 6.453125 1.386719 L 6.453125 1.152344 C 6.453125 1.019531 6.339844 0.910156 6.207031 0.910156 L 4.660156 0.910156 C 4.523438 0.910156 4.414062 1.019531 4.414062 1.152344 L 4.414062 1.386719 C 4.414062 1.523438 4.523438 1.632812 4.660156 1.632812 L 6.207031 1.632812 C 6.339844 1.632812 6.453125 1.523438 6.453125 1.386719 Z M 6.453125 1.386719 "/>
</svg>
