<?xml version="1.0" encoding="UTF-8"?>
<svg xmlns="http://www.w3.org/2000/svg" xmlns:xlink="http://www.w3.org/1999/xlink" width="11" height="9.733903" viewBox="0 0 11 9.733903">
<path fill-rule="nonzero" fill="rgb(30%,30%,30%)" fill-opacity="1" d="M 10.996094 7.714844 C 9.566406 6.804688 7.550781 6.707031 7.59375 6.683594 C 9.046875 5.957031 10.371094 3.035156 10.304688 3.046875 C 6.605469 4.960938 6.261719 6.1875 6.289062 6.097656 C 6.960938 3.679688 5.511719 0 5.511719 0 L 5.488281 0.0195312 C 5.488281 0.0195312 4.039062 3.699219 4.710938 6.117188 C 4.738281 6.207031 4.394531 4.984375 0.695312 3.070312 C 0.628906 3.054688 1.953125 5.976562 3.40625 6.707031 C 3.449219 6.726562 1.433594 6.824219 0.00390625 7.738281 C -0.078125 7.789062 1.980469 8.199219 3.851562 7.882812 C 3.851562 7.882812 2.460938 8.515625 2.019531 9.0625 C 1.894531 9.21875 5.261719 8.300781 5.257812 8.285156 L 5.257812 9.734375 L 5.742188 9.734375 L 5.742188 8.261719 C 5.738281 8.277344 9.105469 9.199219 8.980469 9.039062 C 8.539062 8.492188 7.148438 7.863281 7.148438 7.863281 C 9.019531 8.179688 11.078125 7.765625 10.996094 7.714844 Z M 10.996094 7.714844 "/>
</svg>
