<?xml version="1.0" encoding="UTF-8" standalone="no"?>
<!-- Created with Inkscape (http://www.inkscape.org/) -->

<svg
   xmlns:dc="http://purl.org/dc/elements/1.1/"
   xmlns:cc="http://creativecommons.org/ns#"
   xmlns:rdf="http://www.w3.org/1999/02/22-rdf-syntax-ns#"
   xmlns:svg="http://www.w3.org/2000/svg"
   xmlns="http://www.w3.org/2000/svg"
   xmlns:xlink="http://www.w3.org/1999/xlink"
   xmlns:sodipodi="http://sodipodi.sourceforge.net/DTD/sodipodi-0.dtd"
   xmlns:inkscape="http://www.inkscape.org/namespaces/inkscape"
   width="30px"
   height="30px"
   version="1.1"
   id="svg8"
   inkscape:version="0.92.4 5da689c313, 2019-01-14"
   sodipodi:docname="container.svg">
  <defs
     id="defs2" />
  <sodipodi:namedview
     id="base"
     pagecolor="#ffffff"
     bordercolor="#666666"
     borderopacity="1.0"
     inkscape:pageopacity="0.0"
     inkscape:pageshadow="2"
     inkscape:zoom="13.049334"
     inkscape:cx="18.679046"
     inkscape:cy="12.165829"
     inkscape:document-units="px"
     inkscape:current-layer="layer1"
     showgrid="false"
     inkscape:snap-page="false"
     units="px"
     inkscape:window-width="1884"
     inkscape:window-height="1061"
     inkscape:window-x="0"
     inkscape:window-y="0"
     inkscape:window-maximized="1"
     fit-margin-top="0"
     fit-margin-left="0"
     fit-margin-right="0"
     fit-margin-bottom="0" />
  <metadata
     id="metadata5">
    <rdf:RDF>
      <cc:Work
         rdf:about="">
        <dc:format>image/svg+xml</dc:format>
        <dc:type
           rdf:resource="http://purl.org/dc/dcmitype/StillImage" />
        <dc:title></dc:title>
      </cc:Work>
    </rdf:RDF>
  </metadata>
    <circle
       style="color:#000000;clip-rule:nonzero;display:inline;overflow:visible;visibility:visible;opacity:1;isolation:auto;mix-blend-mode:normal;color-interpolation:sRGB;color-interpolation-filters:linearRGB;solid-color:#000000;solid-opacity:1;vector-effect:none;fill:#ffffff;fill-opacity:1;fill-rule:evenodd;stroke:#2a62ac;stroke-width:1;stroke-linecap:butt;stroke-linejoin:miter;stroke-miterlimit:4;stroke-dasharray:none;stroke-dashoffset:0;stroke-opacity:1;marker:none;color-rendering:auto;image-rendering:auto;shape-rendering:auto;text-rendering:auto;enable-background:accumulate"
       id="path815"
       cx="15"
       cy="15"
       r="14.5" />
<g transform="translate(6.5,9.0)"><path fill-rule="nonzero" fill="rgb(30%,30%,30%)" fill-opacity="1" d="M 8.707031 0 L 8.429688 0 L 8.429688 0.328125 L 6.929688 0.328125 L 6.929688 1.386719 L 8.429688 1.386719 L 8.429688 2.6875 L 5.296875 3.816406 L 5.296875 11.585938 L 8.25 11.585938 L 8.25 10.128906 L 8.796875 10.128906 L 8.796875 11.585938 L 11.75 11.585938 L 11.75 3.816406 L 8.707031 2.683594 Z M 10.347656 9.5625 L 9.796875 9.5625 L 9.796875 7.636719 L 10.347656 7.636719 Z M 9.796875 4.929688 L 10.347656 4.929688 L 10.347656 6.851562 L 9.796875 6.851562 Z M 6.914062 9.5625 L 6.363281 9.5625 L 6.363281 7.636719 L 6.914062 7.636719 Z M 6.914062 6.851562 L 6.363281 6.851562 L 6.363281 4.929688 L 6.914062 4.929688 Z M 8.628906 9.5625 L 8.082031 9.5625 L 8.082031 7.636719 L 8.628906 7.636719 Z M 8.628906 6.851562 L 8.082031 6.851562 L 8.082031 4.929688 L 8.628906 4.929688 Z M 8.628906 6.851562 "/>
<path fill-rule="nonzero" fill="rgb(30%,30%,30%)" fill-opacity="1" d="M 0 11.585938 L 4.835938 11.585938 L 4.835938 6.464844 L 0 6.464844 Z M 3.003906 7.636719 L 3.550781 7.636719 L 3.550781 9.5625 L 3.003906 9.5625 Z M 1.285156 7.636719 L 1.835938 7.636719 L 1.835938 9.5625 L 1.285156 9.5625 Z M 1.285156 7.636719 "/>
<path fill-rule="nonzero" fill="rgb(30%,30%,30%)" fill-opacity="1" d="M 12.164062 6.417969 L 12.164062 11.535156 L 17 11.535156 L 17 6.417969 Z M 14 9.511719 L 13.449219 9.511719 L 13.449219 7.585938 L 14 7.585938 Z M 15.714844 9.511719 L 15.164062 9.511719 L 15.164062 7.585938 L 15.714844 7.585938 Z M 15.714844 9.511719 "/>
</g>
</svg>
