<?xml version="1.0" encoding="UTF-8"?>
<svg xmlns="http://www.w3.org/2000/svg" xmlns:xlink="http://www.w3.org/1999/xlink" width="11" height="10.038105" viewBox="0 0 11 10.038105">
<path fill-rule="nonzero" fill="rgb(30%,30%,30%)" fill-opacity="1" d="M 10.472656 0 L 0.527344 0 C 0.238281 0 0 0.238281 0 0.527344 L 0 2.871094 C 0 3.164062 0.238281 3.398438 0.527344 3.398438 L 2.609375 3.398438 C 2.050781 4.1875 1.800781 4.804688 1.765625 5.320312 C 1.757812 5.398438 1.695312 5.457031 1.617188 5.457031 L 1.117188 5.453125 C 0.902344 5.453125 0.726562 5.628906 0.726562 5.84375 C 0.726562 6.023438 0.75 6.222656 1.191406 6.308594 C 1.289062 6.324219 1.339844 6.433594 1.292969 6.523438 C 1.175781 6.746094 1.164062 6.984375 1.164062 7.230469 C 1.164062 7.550781 1.273438 8.023438 1.511719 8.355469 C 1.535156 8.382812 1.542969 8.421875 1.539062 8.460938 C 1.535156 8.480469 1.535156 8.503906 1.535156 8.527344 L 1.535156 9.316406 C 1.535156 9.714844 1.859375 10.039062 2.253906 10.039062 L 2.300781 10.039062 C 2.699219 10.039062 3.023438 9.714844 3.023438 9.316406 L 3.023438 9.007812 C 3.027344 9.007812 3.027344 9.007812 3.03125 9.007812 C 3.664062 9.058594 6.847656 9.0625 7.898438 9.003906 C 7.984375 9 8.054688 9.066406 8.054688 9.148438 L 8.054688 9.316406 C 8.054688 9.714844 8.378906 10.039062 8.773438 10.039062 L 8.820312 10.039062 C 9.21875 10.039062 9.542969 9.714844 9.542969 9.316406 L 9.542969 8.527344 C 9.542969 8.515625 9.542969 8.5 9.542969 8.488281 C 9.539062 8.449219 9.546875 8.414062 9.570312 8.382812 C 9.792969 8.074219 9.882812 7.535156 9.882812 7.230469 C 9.882812 6.992188 9.863281 6.730469 9.746094 6.503906 C 9.703125 6.421875 9.742188 6.320312 9.832031 6.292969 C 9.847656 6.289062 9.863281 6.285156 9.875 6.28125 C 10.207031 6.179688 10.332031 6.058594 10.332031 5.84375 C 10.332031 5.628906 10.15625 5.453125 9.941406 5.453125 L 9.363281 5.449219 C 9.289062 5.445312 9.199219 5.386719 9.1875 5.3125 C 9.078125 4.640625 8.851562 4.144531 8.402344 3.398438 L 10.472656 3.398438 C 10.761719 3.398438 11 3.164062 11 2.871094 L 11 0.527344 C 11 0.238281 10.761719 0 10.472656 0 Z M 2.96875 8.3125 C 2.628906 8.3125 2.355469 8.039062 2.355469 7.699219 C 2.355469 7.359375 2.628906 7.082031 2.96875 7.082031 C 3.308594 7.082031 3.585938 7.359375 3.585938 7.699219 C 3.585938 8.039062 3.308594 8.3125 2.96875 8.3125 Z M 8.210938 8.3125 C 7.871094 8.3125 7.59375 8.039062 7.59375 7.699219 C 7.59375 7.359375 7.871094 7.082031 8.210938 7.082031 C 8.550781 7.082031 8.824219 7.359375 8.824219 7.699219 C 8.824219 8.039062 8.550781 8.3125 8.210938 8.3125 Z M 5.410156 6.734375 C 3.566406 6.734375 2.0625 6.519531 2.121094 5.671875 C 2.257812 3.613281 3.375 3.5 4.980469 3.492188 L 5.4375 3.492188 C 7.285156 3.492188 8.765625 3.628906 8.808594 5.671875 C 8.824219 6.519531 7.257812 6.734375 5.410156 6.734375 Z M 1.011719 2.542969 C 0.980469 2.542969 0.945312 2.539062 0.90625 2.53125 C 0.867188 2.523438 0.832031 2.507812 0.804688 2.484375 C 0.773438 2.460938 0.757812 2.429688 0.757812 2.390625 L 0.753906 2.117188 C 0.753906 2.082031 0.742188 2.050781 0.722656 2.03125 C 0.699219 2.015625 0.675781 2.003906 0.652344 2.003906 C 0.625 2.003906 0.597656 2.015625 0.574219 2.035156 C 0.550781 2.054688 0.539062 2.082031 0.535156 2.121094 L 0.527344 2.367188 C 0.523438 2.425781 0.496094 2.472656 0.453125 2.5 C 0.40625 2.527344 0.355469 2.542969 0.296875 2.542969 C 0.257812 2.542969 0.222656 2.535156 0.183594 2.523438 C 0.148438 2.507812 0.117188 2.488281 0.09375 2.460938 C 0.0703125 2.433594 0.0585938 2.398438 0.0585938 2.359375 L 0.0585938 2.351562 C 0.0664062 2.128906 0.0859375 1.914062 0.117188 1.703125 C 0.15625 1.429688 0.214844 1.207031 0.292969 1.035156 C 0.386719 0.832031 0.511719 0.730469 0.664062 0.730469 C 0.757812 0.730469 0.835938 0.773438 0.898438 0.855469 C 0.964844 0.9375 1.019531 1.042969 1.058594 1.171875 C 1.101562 1.300781 1.132812 1.441406 1.152344 1.589844 C 1.175781 1.738281 1.191406 1.882812 1.199219 2.023438 C 1.207031 2.160156 1.214844 2.277344 1.214844 2.375 C 1.214844 2.417969 1.191406 2.457031 1.148438 2.492188 C 1.105469 2.527344 1.058594 2.542969 1.011719 2.542969 Z M 0.652344 1.636719 C 0.667969 1.636719 0.683594 1.625 0.699219 1.605469 C 0.710938 1.582031 0.71875 1.550781 0.71875 1.507812 C 0.71875 1.492188 0.71875 1.472656 0.714844 1.453125 C 0.699219 1.34375 0.679688 1.292969 0.660156 1.292969 C 0.636719 1.292969 0.617188 1.351562 0.59375 1.46875 C 0.589844 1.492188 0.589844 1.511719 0.589844 1.527344 C 0.589844 1.5625 0.59375 1.589844 0.605469 1.609375 C 0.621094 1.625 0.632812 1.636719 0.652344 1.636719 Z M 1.863281 2.542969 L 1.847656 2.542969 C 1.757812 2.542969 1.679688 2.519531 1.617188 2.472656 C 1.550781 2.421875 1.496094 2.359375 1.453125 2.28125 C 1.410156 2.199219 1.378906 2.109375 1.355469 2.007812 C 1.328125 1.90625 1.3125 1.800781 1.300781 1.691406 C 1.292969 1.582031 1.285156 1.476562 1.285156 1.371094 C 1.285156 1.179688 1.296875 1.015625 1.320312 0.871094 C 1.328125 0.824219 1.351562 0.785156 1.390625 0.761719 C 1.429688 0.738281 1.472656 0.730469 1.519531 0.730469 C 1.558594 0.730469 1.597656 0.734375 1.632812 0.75 C 1.671875 0.765625 1.703125 0.789062 1.730469 0.816406 C 1.753906 0.847656 1.765625 0.878906 1.765625 0.921875 C 1.765625 0.957031 1.761719 1.003906 1.757812 1.0625 C 1.742188 1.203125 1.734375 1.332031 1.734375 1.449219 C 1.734375 1.519531 1.738281 1.585938 1.746094 1.644531 C 1.753906 1.707031 1.765625 1.757812 1.785156 1.792969 C 1.800781 1.832031 1.828125 1.851562 1.863281 1.851562 C 1.898438 1.851562 1.929688 1.835938 1.949219 1.800781 C 1.972656 1.769531 1.988281 1.726562 1.996094 1.671875 C 2.003906 1.617188 2.007812 1.554688 2.007812 1.488281 C 2.007812 1.34375 1.992188 1.175781 1.960938 0.980469 C 1.957031 0.96875 1.957031 0.953125 1.957031 0.941406 C 1.957031 0.894531 1.96875 0.855469 1.996094 0.824219 C 2.019531 0.792969 2.050781 0.769531 2.089844 0.753906 C 2.128906 0.738281 2.167969 0.730469 2.207031 0.730469 C 2.25 0.730469 2.289062 0.738281 2.324219 0.757812 C 2.359375 0.78125 2.378906 0.8125 2.390625 0.855469 C 2.421875 1.023438 2.4375 1.210938 2.4375 1.410156 C 2.4375 1.546875 2.429688 1.679688 2.410156 1.8125 C 2.390625 1.945312 2.359375 2.070312 2.316406 2.175781 C 2.269531 2.285156 2.210938 2.375 2.136719 2.441406 C 2.0625 2.507812 1.972656 2.539062 1.863281 2.542969 Z M 3.066406 2.546875 C 3.015625 2.546875 2.96875 2.53125 2.929688 2.503906 C 2.890625 2.472656 2.867188 2.425781 2.859375 2.363281 C 2.839844 2.074219 2.828125 1.789062 2.828125 1.511719 L 2.828125 1.339844 C 2.828125 1.300781 2.828125 1.269531 2.824219 1.25 C 2.816406 1.234375 2.804688 1.222656 2.789062 1.222656 C 2.773438 1.222656 2.757812 1.226562 2.734375 1.234375 C 2.710938 1.242188 2.683594 1.253906 2.648438 1.265625 C 2.636719 1.269531 2.625 1.273438 2.617188 1.273438 C 2.589844 1.273438 2.566406 1.261719 2.550781 1.238281 C 2.535156 1.214844 2.519531 1.1875 2.511719 1.152344 C 2.503906 1.113281 2.5 1.078125 2.5 1.039062 C 2.5 0.972656 2.511719 0.914062 2.53125 0.859375 C 2.550781 0.804688 2.578125 0.773438 2.617188 0.765625 C 2.769531 0.742188 2.921875 0.730469 3.078125 0.730469 C 3.230469 0.730469 3.382812 0.742188 3.535156 0.765625 C 3.578125 0.773438 3.605469 0.804688 3.628906 0.855469 C 3.648438 0.910156 3.660156 0.964844 3.660156 1.027344 C 3.660156 1.070312 3.65625 1.109375 3.644531 1.144531 C 3.636719 1.183594 3.621094 1.210938 3.601562 1.234375 C 3.585938 1.257812 3.5625 1.269531 3.53125 1.269531 C 3.523438 1.269531 3.515625 1.269531 3.503906 1.265625 L 3.460938 1.253906 C 3.414062 1.238281 3.382812 1.230469 3.359375 1.230469 C 3.339844 1.230469 3.324219 1.238281 3.316406 1.257812 C 3.308594 1.277344 3.304688 1.308594 3.304688 1.355469 L 3.304688 1.4375 C 3.304688 1.742188 3.3125 2.039062 3.320312 2.332031 L 3.320312 2.339844 C 3.320312 2.382812 3.308594 2.417969 3.285156 2.449219 C 3.257812 2.480469 3.226562 2.503906 3.1875 2.523438 C 3.148438 2.539062 3.105469 2.546875 3.066406 2.546875 Z M 4.226562 2.53125 C 4.15625 2.53125 4.085938 2.511719 4.015625 2.476562 C 3.945312 2.441406 3.882812 2.382812 3.828125 2.308594 C 3.769531 2.234375 3.726562 2.144531 3.691406 2.03125 C 3.660156 1.921875 3.644531 1.789062 3.644531 1.644531 C 3.644531 1.441406 3.675781 1.273438 3.730469 1.140625 C 3.785156 1.007812 3.859375 0.90625 3.949219 0.839844 C 4.039062 0.773438 4.132812 0.738281 4.226562 0.738281 C 4.328125 0.738281 4.421875 0.773438 4.507812 0.839844 C 4.597656 0.90625 4.671875 1.007812 4.726562 1.140625 C 4.78125 1.273438 4.8125 1.441406 4.8125 1.644531 C 4.8125 1.789062 4.796875 1.921875 4.765625 2.03125 C 4.730469 2.144531 4.6875 2.234375 4.628906 2.308594 C 4.574219 2.382812 4.511719 2.441406 4.441406 2.476562 C 4.371094 2.511719 4.300781 2.53125 4.226562 2.53125 Z M 4.230469 1.792969 C 4.277344 1.789062 4.316406 1.765625 4.335938 1.71875 C 4.359375 1.675781 4.371094 1.625 4.371094 1.566406 C 4.371094 1.527344 4.363281 1.484375 4.355469 1.445312 C 4.34375 1.410156 4.328125 1.375 4.304688 1.351562 C 4.285156 1.328125 4.257812 1.3125 4.226562 1.3125 C 4.199219 1.3125 4.171875 1.328125 4.152344 1.351562 C 4.128906 1.375 4.113281 1.410156 4.101562 1.445312 C 4.089844 1.484375 4.085938 1.527344 4.085938 1.566406 C 4.085938 1.605469 4.089844 1.640625 4.101562 1.675781 C 4.109375 1.710938 4.125 1.738281 4.148438 1.757812 C 4.167969 1.78125 4.195312 1.792969 4.226562 1.792969 Z M 6.0625 2.53125 C 5.996094 2.53125 5.925781 2.53125 5.855469 2.527344 C 5.78125 2.527344 5.722656 2.519531 5.675781 2.503906 C 5.628906 2.488281 5.59375 2.457031 5.566406 2.410156 C 5.539062 2.367188 5.519531 2.296875 5.503906 2.199219 C 5.476562 1.992188 5.460938 1.78125 5.460938 1.570312 C 5.460938 1.363281 5.472656 1.164062 5.496094 0.976562 C 5.503906 0.894531 5.527344 0.835938 5.570312 0.792969 C 5.609375 0.753906 5.675781 0.730469 5.777344 0.730469 L 5.949219 0.730469 C 6.085938 0.730469 6.203125 0.738281 6.304688 0.75 C 6.335938 0.753906 6.359375 0.78125 6.375 0.824219 C 6.390625 0.871094 6.398438 0.917969 6.398438 0.972656 C 6.398438 1.007812 6.394531 1.042969 6.386719 1.078125 C 6.378906 1.113281 6.367188 1.140625 6.351562 1.164062 C 6.335938 1.183594 6.316406 1.195312 6.292969 1.195312 C 6.25 1.195312 6.203125 1.191406 6.160156 1.1875 C 6.117188 1.179688 6.074219 1.179688 6.027344 1.175781 C 5.988281 1.175781 5.964844 1.191406 5.945312 1.21875 C 5.925781 1.25 5.917969 1.277344 5.917969 1.308594 C 5.917969 1.339844 5.925781 1.367188 5.941406 1.390625 C 5.957031 1.414062 5.976562 1.425781 6.007812 1.425781 C 6.042969 1.425781 6.074219 1.421875 6.101562 1.417969 C 6.128906 1.414062 6.160156 1.410156 6.191406 1.410156 L 6.214844 1.410156 C 6.246094 1.414062 6.269531 1.4375 6.289062 1.484375 C 6.304688 1.527344 6.3125 1.574219 6.3125 1.625 C 6.3125 1.664062 6.308594 1.703125 6.292969 1.734375 C 6.28125 1.769531 6.257812 1.785156 6.230469 1.785156 L 6.011719 1.785156 C 5.984375 1.785156 5.964844 1.796875 5.953125 1.820312 C 5.9375 1.84375 5.933594 1.867188 5.933594 1.894531 C 5.933594 1.925781 5.941406 1.957031 5.957031 1.984375 C 5.972656 2.011719 5.996094 2.027344 6.03125 2.027344 C 6.082031 2.027344 6.132812 2.023438 6.171875 2.019531 C 6.214844 2.011719 6.253906 2.007812 6.296875 2.007812 C 6.320312 2.007812 6.339844 2.019531 6.355469 2.046875 C 6.371094 2.070312 6.382812 2.101562 6.390625 2.140625 C 6.398438 2.179688 6.398438 2.21875 6.398438 2.257812 C 6.398438 2.320312 6.390625 2.378906 6.375 2.429688 C 6.359375 2.484375 6.335938 2.511719 6.304688 2.519531 C 6.234375 2.527344 6.152344 2.53125 6.0625 2.53125 Z M 5.867188 0.640625 C 5.847656 0.640625 5.832031 0.628906 5.816406 0.609375 C 5.800781 0.589844 5.792969 0.566406 5.792969 0.539062 C 5.792969 0.507812 5.820312 0.457031 5.878906 0.378906 C 5.910156 0.335938 5.941406 0.296875 5.976562 0.261719 C 6.007812 0.222656 6.03125 0.199219 6.046875 0.1875 C 6.0625 0.175781 6.082031 0.171875 6.09375 0.171875 C 6.125 0.171875 6.152344 0.1875 6.175781 0.21875 C 6.199219 0.246094 6.210938 0.28125 6.210938 0.3125 C 6.210938 0.34375 6.199219 0.371094 6.171875 0.390625 C 6.113281 0.433594 6.0625 0.472656 6.023438 0.507812 C 5.984375 0.539062 5.949219 0.578125 5.910156 0.621094 C 5.894531 0.632812 5.882812 0.640625 5.867188 0.640625 Z M 7.085938 2.535156 C 6.980469 2.535156 6.890625 2.511719 6.8125 2.460938 C 6.734375 2.410156 6.667969 2.339844 6.617188 2.257812 C 6.566406 2.171875 6.527344 2.074219 6.5 1.96875 C 6.476562 1.863281 6.460938 1.753906 6.460938 1.644531 C 6.460938 1.53125 6.476562 1.417969 6.5 1.3125 C 6.527344 1.203125 6.566406 1.105469 6.617188 1.019531 C 6.667969 0.933594 6.734375 0.867188 6.8125 0.816406 C 6.890625 0.761719 6.976562 0.738281 7.082031 0.738281 C 7.164062 0.738281 7.25 0.765625 7.332031 0.820312 C 7.417969 0.875 7.492188 0.957031 7.558594 1.074219 C 7.574219 1.105469 7.585938 1.136719 7.585938 1.167969 C 7.585938 1.210938 7.570312 1.253906 7.542969 1.296875 C 7.511719 1.335938 7.476562 1.367188 7.4375 1.394531 C 7.394531 1.417969 7.355469 1.433594 7.320312 1.433594 C 7.269531 1.433594 7.234375 1.410156 7.210938 1.363281 C 7.171875 1.285156 7.132812 1.246094 7.09375 1.246094 L 7.085938 1.246094 C 7.027344 1.25 6.980469 1.285156 6.949219 1.355469 C 6.917969 1.425781 6.902344 1.503906 6.902344 1.59375 C 6.902344 1.652344 6.910156 1.710938 6.925781 1.765625 C 6.9375 1.820312 6.960938 1.863281 6.988281 1.898438 C 7.015625 1.929688 7.054688 1.949219 7.097656 1.949219 C 7.128906 1.949219 7.15625 1.933594 7.1875 1.902344 C 7.214844 1.875 7.242188 1.828125 7.265625 1.769531 C 7.273438 1.742188 7.296875 1.730469 7.324219 1.730469 C 7.351562 1.730469 7.386719 1.742188 7.421875 1.757812 C 7.457031 1.777344 7.492188 1.800781 7.527344 1.832031 C 7.5625 1.859375 7.589844 1.894531 7.613281 1.933594 C 7.636719 1.972656 7.644531 2.011719 7.644531 2.050781 C 7.644531 2.078125 7.640625 2.105469 7.628906 2.132812 C 7.558594 2.269531 7.476562 2.371094 7.378906 2.4375 C 7.285156 2.503906 7.1875 2.535156 7.085938 2.535156 Z M 8.265625 2.53125 C 8.191406 2.53125 8.121094 2.511719 8.050781 2.476562 C 7.980469 2.441406 7.917969 2.382812 7.863281 2.308594 C 7.804688 2.234375 7.761719 2.144531 7.730469 2.03125 C 7.695312 1.921875 7.679688 1.789062 7.679688 1.644531 C 7.679688 1.441406 7.710938 1.273438 7.765625 1.140625 C 7.820312 1.007812 7.894531 0.90625 7.984375 0.839844 C 8.074219 0.773438 8.167969 0.738281 8.265625 0.738281 C 8.363281 0.738281 8.457031 0.773438 8.546875 0.839844 C 8.632812 0.90625 8.707031 1.007812 8.761719 1.140625 C 8.816406 1.273438 8.847656 1.441406 8.847656 1.644531 C 8.847656 1.789062 8.832031 1.921875 8.800781 2.03125 C 8.765625 2.144531 8.722656 2.234375 8.667969 2.308594 C 8.609375 2.382812 8.546875 2.441406 8.476562 2.476562 C 8.410156 2.511719 8.335938 2.53125 8.265625 2.53125 Z M 8.265625 1.792969 C 8.316406 1.789062 8.351562 1.765625 8.371094 1.71875 C 8.394531 1.675781 8.40625 1.625 8.40625 1.566406 C 8.40625 1.527344 8.402344 1.484375 8.390625 1.445312 C 8.378906 1.410156 8.363281 1.375 8.339844 1.351562 C 8.320312 1.328125 8.292969 1.3125 8.265625 1.3125 C 8.234375 1.3125 8.207031 1.328125 8.1875 1.351562 C 8.164062 1.375 8.148438 1.410156 8.136719 1.445312 C 8.125 1.484375 8.121094 1.527344 8.121094 1.566406 C 8.121094 1.605469 8.125 1.640625 8.136719 1.675781 C 8.144531 1.710938 8.160156 1.738281 8.183594 1.757812 C 8.203125 1.78125 8.230469 1.792969 8.265625 1.792969 Z M 9.410156 2.542969 L 9.382812 2.542969 C 9.3125 2.542969 9.25 2.535156 9.199219 2.523438 C 9.148438 2.511719 9.109375 2.480469 9.078125 2.433594 C 9.046875 2.386719 9.023438 2.3125 9.007812 2.210938 C 8.976562 1.992188 8.960938 1.773438 8.960938 1.554688 C 8.960938 1.289062 8.980469 1.046875 9.023438 0.824219 C 9.03125 0.792969 9.058594 0.769531 9.101562 0.753906 C 9.148438 0.734375 9.195312 0.726562 9.25 0.726562 C 9.316406 0.726562 9.371094 0.738281 9.410156 0.761719 C 9.453125 0.789062 9.476562 0.828125 9.476562 0.882812 C 9.476562 0.902344 9.472656 0.957031 9.46875 1.046875 C 9.453125 1.292969 9.445312 1.480469 9.445312 1.621094 C 9.445312 1.839844 9.457031 1.964844 9.484375 1.988281 C 9.492188 2 9.511719 2.007812 9.539062 2.007812 C 9.5625 2.007812 9.589844 2.003906 9.625 1.996094 C 9.664062 1.992188 9.714844 1.984375 9.777344 1.976562 C 9.78125 1.976562 9.785156 1.976562 9.785156 1.976562 L 9.796875 1.976562 C 9.824219 1.976562 9.847656 1.988281 9.867188 2.011719 C 9.886719 2.035156 9.898438 2.066406 9.90625 2.105469 C 9.914062 2.140625 9.917969 2.179688 9.917969 2.21875 C 9.917969 2.285156 9.910156 2.347656 9.890625 2.40625 C 9.871094 2.464844 9.84375 2.5 9.8125 2.507812 C 9.703125 2.527344 9.566406 2.539062 9.410156 2.542969 Z M 10.566406 2.53125 C 10.5 2.53125 10.433594 2.53125 10.359375 2.527344 C 10.285156 2.527344 10.226562 2.519531 10.179688 2.503906 C 10.136719 2.488281 10.097656 2.457031 10.070312 2.410156 C 10.042969 2.367188 10.023438 2.296875 10.011719 2.199219 C 9.980469 1.992188 9.964844 1.78125 9.964844 1.570312 C 9.964844 1.363281 9.976562 1.164062 10.003906 0.976562 C 10.011719 0.894531 10.035156 0.835938 10.074219 0.792969 C 10.113281 0.753906 10.183594 0.730469 10.28125 0.730469 L 10.453125 0.730469 C 10.589844 0.730469 10.707031 0.738281 10.808594 0.75 C 10.839844 0.753906 10.863281 0.78125 10.878906 0.824219 C 10.894531 0.871094 10.902344 0.917969 10.902344 0.972656 C 10.902344 1.007812 10.898438 1.042969 10.890625 1.078125 C 10.882812 1.113281 10.871094 1.140625 10.855469 1.164062 C 10.839844 1.183594 10.820312 1.195312 10.796875 1.195312 C 10.753906 1.195312 10.710938 1.191406 10.667969 1.1875 C 10.625 1.179688 10.578125 1.179688 10.53125 1.175781 C 10.496094 1.175781 10.46875 1.191406 10.449219 1.21875 C 10.433594 1.25 10.421875 1.277344 10.421875 1.308594 C 10.421875 1.339844 10.429688 1.367188 10.445312 1.390625 C 10.460938 1.414062 10.480469 1.425781 10.511719 1.425781 C 10.546875 1.425781 10.582031 1.421875 10.609375 1.417969 C 10.636719 1.414062 10.664062 1.410156 10.699219 1.410156 L 10.71875 1.410156 C 10.75 1.414062 10.773438 1.4375 10.792969 1.484375 C 10.808594 1.527344 10.820312 1.574219 10.820312 1.625 C 10.820312 1.664062 10.8125 1.703125 10.796875 1.734375 C 10.785156 1.769531 10.761719 1.785156 10.734375 1.785156 L 10.515625 1.785156 C 10.492188 1.785156 10.46875 1.796875 10.457031 1.820312 C 10.445312 1.84375 10.4375 1.867188 10.4375 1.894531 C 10.4375 1.925781 10.445312 1.957031 10.460938 1.984375 C 10.476562 2.011719 10.503906 2.027344 10.535156 2.027344 C 10.589844 2.027344 10.636719 2.023438 10.679688 2.019531 C 10.71875 2.011719 10.757812 2.007812 10.800781 2.007812 C 10.824219 2.007812 10.84375 2.019531 10.859375 2.046875 C 10.875 2.070312 10.886719 2.101562 10.894531 2.140625 C 10.902344 2.179688 10.90625 2.21875 10.90625 2.257812 C 10.90625 2.320312 10.898438 2.378906 10.878906 2.429688 C 10.863281 2.484375 10.839844 2.511719 10.808594 2.519531 C 10.738281 2.527344 10.660156 2.53125 10.566406 2.53125 Z M 10.566406 2.53125 "/>
</svg>
