<?xml version="1.0" encoding="UTF-8"?>
<svg xmlns="http://www.w3.org/2000/svg" xmlns:xlink="http://www.w3.org/1999/xlink" width="11" height="10.645447" viewBox="0 0 11 10.645447">
<path fill-rule="nonzero" fill="rgb(30%,30%,30%)" fill-opacity="1" d="M 6.492188 7.589844 C 6.53125 7.636719 6.574219 7.675781 6.625 7.707031 L 10.617188 7.707031 C 10.636719 7.707031 10.652344 7.699219 10.664062 7.6875 C 10.671875 7.675781 10.679688 7.65625 10.679688 7.640625 L 10.257812 2.101562 C 10.253906 2.070312 10.226562 2.046875 10.195312 2.046875 L 9.113281 2.046875 L 9.113281 1.746094 C 9.113281 0.78125 8.328125 0 7.367188 0 C 6.40625 0 5.621094 0.78125 5.621094 1.746094 L 5.621094 2.046875 L 4.539062 2.046875 C 4.507812 2.046875 4.480469 2.070312 4.476562 2.101562 L 4.152344 6.367188 C 4.21875 6.359375 4.285156 6.351562 4.351562 6.34375 C 5.535156 6.195312 6.195312 7.226562 6.492188 7.589844 Z M 6.117188 1.761719 C 6.117188 1.0625 6.683594 0.496094 7.382812 0.496094 C 8.078125 0.496094 8.644531 1.0625 8.644531 1.761719 L 8.644531 2.0625 L 6.117188 2.0625 Z M 6.117188 1.761719 "/>
<path fill-rule="nonzero" fill="rgb(30%,30%,30%)" fill-opacity="1" d="M 10.375 8.132812 L 8.25 8.695312 C 8.25 8.695312 8.421875 9.265625 8.214844 9.296875 C 7.566406 9.398438 6.039062 9.183594 6.039062 9.183594 C 6.039062 9.183594 5.117188 8.722656 4.8125 8.523438 C 4.679688 8.4375 4.792969 8.378906 4.914062 8.445312 L 6.082031 9.046875 C 6.136719 9.078125 6.199219 9.097656 6.261719 9.101562 L 6.898438 9.171875 C 7.183594 9.203125 8.136719 9.261719 8.175781 9.15625 C 8.246094 8.972656 8.160156 8.507812 7.554688 8.296875 C 7.15625 8.15625 6.828125 8.0625 6.640625 8.011719 C 6.589844 7.996094 6.539062 7.976562 6.496094 7.949219 C 6.445312 7.917969 6.402344 7.878906 6.363281 7.832031 C 6.066406 7.472656 5.40625 6.441406 4.222656 6.585938 C 4.15625 6.59375 4.089844 6.601562 4.023438 6.609375 C 1.863281 6.886719 2.179688 6.988281 0 7.269531 L 0.363281 9.851562 L 2.578125 9.519531 C 2.84375 9.480469 3.097656 9.613281 3.207031 9.652344 L 5.699219 10.628906 C 5.738281 10.644531 5.777344 10.648438 5.820312 10.644531 L 8.480469 10.28125 C 8.5 10.277344 8.726562 10.242188 8.746094 10.230469 C 9 10.0625 10.605469 9.050781 10.902344 8.769531 C 11.15625 8.53125 10.890625 7.972656 10.375 8.132812 Z M 10.375 8.132812 "/>
</svg>
