<?xml version="1.0" encoding="UTF-8" standalone="no"?>
<!-- Created with Inkscape (http://www.inkscape.org/) -->

<svg
   xmlns:dc="http://purl.org/dc/elements/1.1/"
   xmlns:cc="http://creativecommons.org/ns#"
   xmlns:rdf="http://www.w3.org/1999/02/22-rdf-syntax-ns#"
   xmlns:svg="http://www.w3.org/2000/svg"
   xmlns="http://www.w3.org/2000/svg"
   xmlns:xlink="http://www.w3.org/1999/xlink"
   xmlns:sodipodi="http://sodipodi.sourceforge.net/DTD/sodipodi-0.dtd"
   xmlns:inkscape="http://www.inkscape.org/namespaces/inkscape"
   width="30px"
   height="30px"
   version="1.1"
   id="svg8"
   inkscape:version="0.92.4 5da689c313, 2019-01-14"
   sodipodi:docname="container.svg">
  <defs
     id="defs2" />
  <sodipodi:namedview
     id="base"
     pagecolor="#ffffff"
     bordercolor="#666666"
     borderopacity="1.0"
     inkscape:pageopacity="0.0"
     inkscape:pageshadow="2"
     inkscape:zoom="13.049334"
     inkscape:cx="18.679046"
     inkscape:cy="12.165829"
     inkscape:document-units="px"
     inkscape:current-layer="layer1"
     showgrid="false"
     inkscape:snap-page="false"
     units="px"
     inkscape:window-width="1884"
     inkscape:window-height="1061"
     inkscape:window-x="0"
     inkscape:window-y="0"
     inkscape:window-maximized="1"
     fit-margin-top="0"
     fit-margin-left="0"
     fit-margin-right="0"
     fit-margin-bottom="0" />
  <metadata
     id="metadata5">
    <rdf:RDF>
      <cc:Work
         rdf:about="">
        <dc:format>image/svg+xml</dc:format>
        <dc:type
           rdf:resource="http://purl.org/dc/dcmitype/StillImage" />
        <dc:title></dc:title>
      </cc:Work>
    </rdf:RDF>
  </metadata>
    <circle
       style="color:#000000;clip-rule:nonzero;display:inline;overflow:visible;visibility:visible;opacity:1;isolation:auto;mix-blend-mode:normal;color-interpolation:sRGB;color-interpolation-filters:linearRGB;solid-color:#000000;solid-opacity:1;vector-effect:none;fill:#ffffff;fill-opacity:1;fill-rule:evenodd;stroke:#808080;stroke-width:1;stroke-linecap:butt;stroke-linejoin:miter;stroke-miterlimit:4;stroke-dasharray:none;stroke-dashoffset:0;stroke-opacity:1;marker:none;color-rendering:auto;image-rendering:auto;shape-rendering:auto;text-rendering:auto;enable-background:accumulate"
       id="path815"
       cx="15"
       cy="15"
       r="14.5" />
<g transform="translate(8.5,6.5)"><path fill-rule="nonzero" fill="rgb(30%,30%,30%)" fill-opacity="1" d="M 2.34375 4.941406 L 3.769531 2.761719 L 9.546875 4.355469 L 9.210938 5.023438 Z M 7.285156 3.183594 L 7.285156 3.433594 L 10.050781 4.1875 L 9.628906 5.023438 L 11.558594 5.023438 L 11.136719 2.34375 Z M 5.695312 1.003906 L 6.617188 3.183594 L 9.628906 2.175781 L 8.710938 0 Z M 0.0820312 2.175781 L 1.171875 5.023438 L 1.84375 5.023438 L 3.515625 2.261719 L 6.113281 3.015625 L 5.109375 0.503906 Z M 12.644531 17 L 0 16.832031 L 0.585938 5.359375 L 12.058594 5.359375 Z M 9.378906 6.742188 C 9.378906 6.386719 9.121094 6.085938 8.769531 6.035156 C 8.421875 5.984375 8.085938 6.199219 7.984375 6.539062 C 7.882812 6.878906 8.046875 7.238281 8.367188 7.386719 C 8.355469 7.433594 8.351562 7.484375 8.363281 7.53125 C 8.40625 7.726562 8.425781 7.925781 8.425781 8.125 C 8.425781 9.445312 7.484375 10.519531 6.324219 10.519531 C 5.164062 10.519531 4.21875 9.445312 4.21875 8.125 C 4.21875 7.929688 4.238281 7.734375 4.28125 7.542969 C 4.289062 7.503906 4.289062 7.460938 4.277344 7.417969 C 4.605469 7.316406 4.808594 6.996094 4.769531 6.660156 C 4.730469 6.320312 4.457031 6.054688 4.117188 6.03125 C 3.777344 6.003906 3.46875 6.222656 3.375 6.550781 C 3.285156 6.878906 3.4375 7.222656 3.742188 7.378906 C 3.734375 7.390625 3.730469 7.40625 3.726562 7.425781 C 3.675781 7.652344 3.652344 7.886719 3.652344 8.125 C 3.652344 9.757812 4.851562 11.085938 6.324219 11.085938 C 7.792969 11.085938 8.992188 9.757812 8.992188 8.125 C 8.992188 7.882812 8.964844 7.644531 8.914062 7.410156 C 9.195312 7.304688 9.378906 7.039062 9.378906 6.742188 Z M 9.378906 6.742188 "/>
</g>
</svg>
