<?xml version="1.0" encoding="UTF-8" standalone="no"?>
<!-- Created with Inkscape (http://www.inkscape.org/) -->

<svg
   xmlns:dc="http://purl.org/dc/elements/1.1/"
   xmlns:cc="http://creativecommons.org/ns#"
   xmlns:rdf="http://www.w3.org/1999/02/22-rdf-syntax-ns#"
   xmlns:svg="http://www.w3.org/2000/svg"
   xmlns="http://www.w3.org/2000/svg"
   xmlns:xlink="http://www.w3.org/1999/xlink"
   xmlns:sodipodi="http://sodipodi.sourceforge.net/DTD/sodipodi-0.dtd"
   xmlns:inkscape="http://www.inkscape.org/namespaces/inkscape"
   width="30px"
   height="30px"
   version="1.1"
   id="svg8"
   inkscape:version="0.92.4 5da689c313, 2019-01-14"
   sodipodi:docname="container.svg">
  <defs
     id="defs2" />
  <sodipodi:namedview
     id="base"
     pagecolor="#ffffff"
     bordercolor="#666666"
     borderopacity="1.0"
     inkscape:pageopacity="0.0"
     inkscape:pageshadow="2"
     inkscape:zoom="13.049334"
     inkscape:cx="18.679046"
     inkscape:cy="12.165829"
     inkscape:document-units="px"
     inkscape:current-layer="layer1"
     showgrid="false"
     inkscape:snap-page="false"
     units="px"
     inkscape:window-width="1884"
     inkscape:window-height="1061"
     inkscape:window-x="0"
     inkscape:window-y="0"
     inkscape:window-maximized="1"
     fit-margin-top="0"
     fit-margin-left="0"
     fit-margin-right="0"
     fit-margin-bottom="0" />
  <metadata
     id="metadata5">
    <rdf:RDF>
      <cc:Work
         rdf:about="">
        <dc:format>image/svg+xml</dc:format>
        <dc:type
           rdf:resource="http://purl.org/dc/dcmitype/StillImage" />
        <dc:title></dc:title>
      </cc:Work>
    </rdf:RDF>
  </metadata>
    <circle
       style="color:#000000;clip-rule:nonzero;display:inline;overflow:visible;visibility:visible;opacity:1;isolation:auto;mix-blend-mode:normal;color-interpolation:sRGB;color-interpolation-filters:linearRGB;solid-color:#000000;solid-opacity:1;vector-effect:none;fill:#808080;fill-opacity:1;fill-rule:evenodd;stroke:#ffffff;stroke-width:1;stroke-linecap:butt;stroke-linejoin:miter;stroke-miterlimit:4;stroke-dasharray:none;stroke-dashoffset:0;stroke-opacity:1;marker:none;color-rendering:auto;image-rendering:auto;shape-rendering:auto;text-rendering:auto;enable-background:accumulate"
       id="path815"
       cx="15"
       cy="15"
       r="14.5" />
<g transform="translate(6.5,6.5)"><path fill-rule="nonzero" fill="#FFFFFF" fill-opacity="1" d="M 8.046875 12.824219 L 3.21875 2.539062 C 3.011719 2.097656 2.699219 1.753906 2.335938 1.566406 C 1.921875 1.347656 1.46875 1.34375 1.03125 1.546875 C 0.210938 1.9375 -0.191406 2.875 0.0898438 3.734375 C 0.109375 3.789062 0.148438 3.832031 0.199219 3.851562 C 0.25 3.875 0.308594 3.871094 0.355469 3.847656 L 0.535156 3.765625 C 0.621094 3.722656 0.664062 3.625 0.636719 3.53125 C 0.457031 2.953125 0.734375 2.332031 1.277344 2.074219 C 1.550781 1.949219 1.816406 1.949219 2.070312 2.082031 C 2.316406 2.210938 2.539062 2.460938 2.691406 2.785156 L 7.425781 12.867188 C 7.578125 12.832031 7.734375 12.816406 7.890625 12.816406 C 7.941406 12.816406 7.996094 12.820312 8.046875 12.824219 Z M 8.046875 12.824219 "/>
<path fill-rule="nonzero" fill="#FFFFFF" fill-opacity="1" d="M 16.777344 11.148438 L 16.535156 10.617188 L 9.675781 13.757812 C 9.785156 13.921875 9.871094 14.097656 9.933594 14.28125 Z M 16.777344 11.148438 "/>
<path fill-rule="nonzero" fill="#FFFFFF" fill-opacity="1" d="M 7.890625 17 C 6.773438 17 5.867188 16.09375 5.867188 14.976562 C 5.867188 13.859375 6.773438 12.953125 7.890625 12.953125 C 9.007812 12.953125 9.914062 13.859375 9.914062 14.976562 C 9.910156 16.09375 9.007812 17 7.890625 17 Z M 7.890625 13.441406 C 7.039062 13.441406 6.351562 14.128906 6.351562 14.976562 C 6.351562 15.828125 7.039062 16.515625 7.890625 16.515625 C 8.738281 16.515625 9.425781 15.828125 9.425781 14.976562 C 9.425781 14.128906 8.738281 13.441406 7.890625 13.441406 Z M 7.890625 13.441406 "/>
<path fill-rule="nonzero" fill="#FFFFFF" fill-opacity="1" d="M 12.53125 3.683594 L 6.144531 6.527344 L 8.988281 12.914062 L 15.375 10.070312 Z M 11.820312 10.898438 L 11.019531 9.292969 L 10.253906 9.636719 L 10.390625 7.308594 L 12.210938 8.714844 L 11.609375 9.027344 L 12.347656 10.660156 Z M 11.820312 10.898438 "/>
<path fill-rule="nonzero" fill="#FFFFFF" fill-opacity="1" d="M 8.027344 0 L 3.867188 1.851562 L 5.71875 6.011719 L 9.878906 4.160156 Z M 7.550781 4.761719 L 6.910156 3.476562 L 6.300781 3.753906 L 6.410156 1.890625 L 7.867188 3.015625 L 7.382812 3.261719 L 7.972656 4.570312 Z M 7.550781 4.761719 "/>
</g>
</svg>
