<?xml version="1.0" encoding="UTF-8"?>
<svg xmlns="http://www.w3.org/2000/svg" xmlns:xlink="http://www.w3.org/1999/xlink" width="9.169687" height="11" viewBox="0 0 9.169687 11">
<path fill-rule="nonzero" fill="rgb(30%,30%,30%)" fill-opacity="1" d="M 6.832031 0 L 8.644531 5.671875 C 5.253906 9.570312 0 10.890625 0 10.890625 L 1.449219 3.335938 C 5.582031 2.375 6.832031 0 6.832031 0 Z M 2.03125 3.949219 L 1.523438 6.667969 C 3.613281 6.054688 5.636719 5.308594 7.230469 3.769531 L 6.597656 1.539062 C 6.597656 1.539062 5.074219 3.097656 2.03125 3.949219 Z M 8.898438 7.628906 L 8.464844 6.667969 C 7.011719 8.226562 3.132812 10.269531 3.261719 10.183594 C 3.261719 10.183594 7.464844 8.898438 8.898438 7.628906 Z M 9.167969 9.496094 L 8.734375 8.28125 C 7.011719 9.496094 2.9375 10.636719 2.9375 10.636719 C 3.429688 10.847656 9.070312 9.757812 9.167969 9.496094 Z M 9.167969 10.855469 L 8.933594 10.148438 C 7.300781 10.378906 6.050781 10.726562 2.9375 11 Z M 9.167969 10.855469 "/>
</svg>
