<?xml version="1.0" encoding="UTF-8"?>
<svg xmlns="http://www.w3.org/2000/svg" xmlns:xlink="http://www.w3.org/1999/xlink" width="6.402364" height="11" viewBox="0 0 6.402364 11">
<path fill-rule="nonzero" fill="rgb(30%,30%,30%)" fill-opacity="1" d="M 4.964844 5.503906 L 3.496094 5.503906 C 3.476562 5.332031 3.351562 5.191406 3.183594 5.15625 L 3.183594 3.660156 C 3.160156 3.636719 3.128906 3.625 3.097656 3.625 C 3.066406 3.625 3.035156 3.636719 3.011719 3.660156 L 3.011719 5.15625 C 2.90625 5.179688 2.8125 5.246094 2.753906 5.339844 C 2.699219 5.433594 2.679688 5.546875 2.710938 5.652344 C 2.714844 5.675781 2.726562 5.703125 2.738281 5.726562 L 1.8125 6.652344 L 1.816406 6.675781 C 1.820312 6.757812 1.886719 6.824219 1.96875 6.828125 L 1.992188 6.832031 L 2.917969 5.90625 C 2.941406 5.917969 2.96875 5.929688 2.996094 5.9375 C 3.257812 6 3.472656 5.820312 3.496094 5.589844 L 4.964844 5.589844 C 5 5.566406 5 5.527344 4.964844 5.503906 Z M 4.964844 5.503906 "/>
<path fill-rule="nonzero" fill="rgb(30%,30%,30%)" fill-opacity="1" d="M 6.300781 5.210938 L 6.175781 5.210938 C 6.101562 4.53125 5.804688 3.898438 5.335938 3.40625 C 5.246094 2.992188 5.15625 2.578125 5.066406 2.160156 L 4.648438 2.160156 L 4.648438 1.9375 L 4.582031 1.9375 L 4.582031 1.8125 L 4.648438 1.8125 L 4.648438 0.949219 L 4.582031 0.949219 L 4.582031 0.824219 L 4.648438 0.824219 L 4.648438 0.191406 C 4.625 0.1875 4.605469 0.179688 4.582031 0.175781 L 4.457031 0.144531 C 3.628906 -0.046875 2.773438 -0.046875 1.945312 0.144531 C 1.832031 0.171875 1.71875 0.199219 1.605469 0.234375 C 1.585938 0.242188 1.5625 0.246094 1.542969 0.253906 L 1.542969 0.824219 L 1.605469 0.824219 L 1.605469 0.949219 L 1.542969 0.949219 L 1.542969 1.8125 L 1.605469 1.8125 L 1.605469 1.9375 L 1.542969 1.9375 L 1.542969 2.160156 L 1.128906 2.160156 C 1.039062 2.578125 0.949219 2.992188 0.859375 3.40625 C -0.296875 4.613281 -0.285156 6.523438 0.886719 7.714844 C 0.964844 8.089844 1.046875 8.464844 1.128906 8.839844 L 1.605469 8.839844 L 1.605469 9.1875 L 1.542969 9.1875 L 1.542969 10.050781 L 1.605469 10.050781 L 1.605469 10.171875 L 1.542969 10.171875 L 1.542969 10.746094 C 1.5625 10.753906 1.585938 10.757812 1.605469 10.765625 L 1.945312 10.855469 C 2.773438 11.046875 3.628906 11.046875 4.457031 10.855469 C 4.5 10.847656 4.542969 10.835938 4.582031 10.824219 C 4.605469 10.820312 4.625 10.8125 4.648438 10.808594 L 4.648438 10.171875 L 4.582031 10.171875 L 4.582031 10.050781 L 4.648438 10.050781 L 4.648438 9.1875 L 4.582031 9.1875 L 4.582031 8.839844 L 5.066406 8.839844 C 5.148438 8.464844 5.226562 8.089844 5.308594 7.714844 C 5.796875 7.21875 6.101562 6.574219 6.175781 5.886719 L 6.300781 5.886719 C 6.359375 5.886719 6.402344 5.839844 6.402344 5.785156 L 6.402344 5.308594 C 6.402344 5.253906 6.359375 5.210938 6.300781 5.210938 Z M 3.183594 7.980469 L 3.183594 7.601562 C 3.136719 7.554688 3.058594 7.554688 3.011719 7.601562 L 3.011719 7.980469 C 1.734375 7.9375 0.707031 6.910156 0.664062 5.632812 L 1.003906 5.632812 C 1.023438 5.609375 1.039062 5.578125 1.039062 5.546875 C 1.039062 5.515625 1.023438 5.484375 1.003906 5.460938 L 0.664062 5.460938 C 0.707031 4.1875 1.734375 3.160156 3.011719 3.113281 L 3.011719 3.46875 C 3.058594 3.515625 3.136719 3.515625 3.183594 3.46875 L 3.183594 3.113281 C 4.460938 3.160156 5.484375 4.1875 5.53125 5.460938 L 5.203125 5.460938 C 5.179688 5.484375 5.167969 5.515625 5.167969 5.546875 C 5.167969 5.578125 5.179688 5.609375 5.203125 5.632812 L 5.53125 5.632812 C 5.484375 6.910156 4.460938 7.9375 3.183594 7.980469 Z M 3.183594 7.980469 "/>
</svg>
