<?xml version="1.0" encoding="UTF-8"?>
<svg xmlns="http://www.w3.org/2000/svg" xmlns:xlink="http://www.w3.org/1999/xlink" width="9.875912" height="11" viewBox="0 0 9.875912 11">
<path fill-rule="nonzero" fill="rgb(30%,30%,30%)" fill-opacity="1" d="M 4.9375 0 C 4.933594 0 0 3.132812 0 3.132812 L 0 11 L 9.875 11 L 9.875 3.132812 C 9.875 3.132812 4.941406 0 4.9375 0 Z M 4.957031 1.164062 C 5.457031 1.164062 5.859375 1.570312 5.859375 2.066406 C 5.859375 2.566406 5.457031 2.972656 4.957031 2.972656 C 4.460938 2.972656 4.054688 2.566406 4.054688 2.066406 C 4.054688 1.570312 4.460938 1.164062 4.957031 1.164062 Z M 4.96875 9.757812 C 4.96875 9.757812 1.175781 8.054688 1.175781 5.957031 C 1.175781 5.953125 1.175781 5.945312 1.175781 5.941406 C 1.179688 4.894531 2.027344 4.050781 3.070312 4.050781 C 4.117188 4.050781 4.960938 4.894531 4.96875 5.941406 C 4.972656 4.894531 5.820312 4.050781 6.863281 4.050781 C 7.90625 4.050781 8.753906 4.894531 8.757812 5.941406 C 8.757812 5.945312 8.757812 5.953125 8.757812 5.957031 C 8.757812 8.054688 4.96875 9.757812 4.96875 9.757812 Z M 4.96875 9.757812 "/>
</svg>
