<?xml version="1.0" encoding="UTF-8" standalone="no"?>
<!-- Created with Inkscape (http://www.inkscape.org/) -->

<svg
   xmlns:dc="http://purl.org/dc/elements/1.1/"
   xmlns:cc="http://creativecommons.org/ns#"
   xmlns:rdf="http://www.w3.org/1999/02/22-rdf-syntax-ns#"
   xmlns:svg="http://www.w3.org/2000/svg"
   xmlns="http://www.w3.org/2000/svg"
   xmlns:xlink="http://www.w3.org/1999/xlink"
   xmlns:sodipodi="http://sodipodi.sourceforge.net/DTD/sodipodi-0.dtd"
   xmlns:inkscape="http://www.inkscape.org/namespaces/inkscape"
   width="30px"
   height="30px"
   version="1.1"
   id="svg8"
   inkscape:version="0.92.4 5da689c313, 2019-01-14"
   sodipodi:docname="container.svg">
  <defs
     id="defs2" />
  <sodipodi:namedview
     id="base"
     pagecolor="#ffffff"
     bordercolor="#666666"
     borderopacity="1.0"
     inkscape:pageopacity="0.0"
     inkscape:pageshadow="2"
     inkscape:zoom="13.049334"
     inkscape:cx="18.679046"
     inkscape:cy="12.165829"
     inkscape:document-units="px"
     inkscape:current-layer="layer1"
     showgrid="false"
     inkscape:snap-page="false"
     units="px"
     inkscape:window-width="1884"
     inkscape:window-height="1061"
     inkscape:window-x="0"
     inkscape:window-y="0"
     inkscape:window-maximized="1"
     fit-margin-top="0"
     fit-margin-left="0"
     fit-margin-right="0"
     fit-margin-bottom="0" />
  <metadata
     id="metadata5">
    <rdf:RDF>
      <cc:Work
         rdf:about="">
        <dc:format>image/svg+xml</dc:format>
        <dc:type
           rdf:resource="http://purl.org/dc/dcmitype/StillImage" />
        <dc:title></dc:title>
      </cc:Work>
    </rdf:RDF>
  </metadata>
    <circle
       style="color:#000000;clip-rule:nonzero;display:inline;overflow:visible;visibility:visible;opacity:1;isolation:auto;mix-blend-mode:normal;color-interpolation:sRGB;color-interpolation-filters:linearRGB;solid-color:#000000;solid-opacity:1;vector-effect:none;fill:#808080;fill-opacity:1;fill-rule:evenodd;stroke:#ffffff;stroke-width:1;stroke-linecap:butt;stroke-linejoin:miter;stroke-miterlimit:4;stroke-dasharray:none;stroke-dashoffset:0;stroke-opacity:1;marker:none;color-rendering:auto;image-rendering:auto;shape-rendering:auto;text-rendering:auto;enable-background:accumulate"
       id="path815"
       cx="15"
       cy="15"
       r="14.5" />
<g transform="translate(6.5,9.0)"><path fill-rule="nonzero" fill="#FFFFFF" fill-opacity="1" d="M 12.429688 6.351562 C 12.417969 6.351562 12.40625 6.347656 12.394531 6.347656 C 11.957031 6.277344 11.511719 6.277344 11.074219 6.347656 C 11.070312 6.347656 11.0625 6.351562 11.058594 6.351562 C 10.324219 6.476562 9.675781 6.796875 9.199219 7.246094 L 9.199219 2.453125 L 5.320312 2.453125 L 5.320312 1.5 L 6.917969 1.5 L 6.917969 0 L 2.289062 0 L 2.289062 1.5 L 3.816406 1.5 L 3.816406 2.453125 L 0 2.453125 L 0 11.714844 L 9.199219 11.714844 L 9.199219 10.972656 C 9.558594 11.3125 10.015625 11.578125 10.535156 11.742188 L 12.949219 11.742188 C 14.230469 11.335938 15.140625 10.3125 15.140625 9.109375 C 15.140625 7.75 13.976562 6.613281 12.429688 6.351562 Z M 7.011719 8.476562 L 2.195312 8.476562 L 2.195312 5.347656 L 7.011719 5.347656 Z M 13.285156 10.054688 L 10.335938 10.054688 L 10.335938 8.140625 L 13.285156 8.140625 Z M 13.285156 10.054688 "/>
<path fill-rule="nonzero" fill="#FFFFFF" fill-opacity="1" d="M 15.332031 3.9375 C 14.488281 3.9375 13.789062 4.34375 13.679688 4.867188 L 12.410156 4.867188 L 12.410156 4.027344 L 11.074219 4.027344 L 11.074219 4.867188 L 10.640625 4.867188 L 10.640625 5.164062 L 11.074219 5.164062 C 11.074219 5.164062 11.070312 6.039062 11.074219 6.054688 C 11.296875 6.015625 11.519531 6 11.742188 6 C 11.964844 6 12.183594 6.015625 12.402344 6.050781 L 12.402344 5.164062 L 13.679688 5.164062 C 13.789062 5.6875 14.488281 6.09375 15.332031 6.09375 C 16.253906 6.09375 17 5.609375 17 5.015625 C 17 4.421875 16.253906 3.9375 15.332031 3.9375 Z M 15.332031 3.9375 "/>
</g>
</svg>
