<?xml version="1.0" encoding="UTF-8" standalone="no"?>
<!-- Created with Inkscape (http://www.inkscape.org/) -->

<svg
   xmlns:dc="http://purl.org/dc/elements/1.1/"
   xmlns:cc="http://creativecommons.org/ns#"
   xmlns:rdf="http://www.w3.org/1999/02/22-rdf-syntax-ns#"
   xmlns:svg="http://www.w3.org/2000/svg"
   xmlns="http://www.w3.org/2000/svg"
   xmlns:xlink="http://www.w3.org/1999/xlink"
   xmlns:sodipodi="http://sodipodi.sourceforge.net/DTD/sodipodi-0.dtd"
   xmlns:inkscape="http://www.inkscape.org/namespaces/inkscape"
   width="30px"
   height="30px"
   version="1.1"
   id="svg8"
   inkscape:version="0.92.4 5da689c313, 2019-01-14"
   sodipodi:docname="container.svg">
  <defs
     id="defs2" />
  <sodipodi:namedview
     id="base"
     pagecolor="#ffffff"
     bordercolor="#666666"
     borderopacity="1.0"
     inkscape:pageopacity="0.0"
     inkscape:pageshadow="2"
     inkscape:zoom="13.049334"
     inkscape:cx="18.679046"
     inkscape:cy="12.165829"
     inkscape:document-units="px"
     inkscape:current-layer="layer1"
     showgrid="false"
     inkscape:snap-page="false"
     units="px"
     inkscape:window-width="1884"
     inkscape:window-height="1061"
     inkscape:window-x="0"
     inkscape:window-y="0"
     inkscape:window-maximized="1"
     fit-margin-top="0"
     fit-margin-left="0"
     fit-margin-right="0"
     fit-margin-bottom="0" />
  <metadata
     id="metadata5">
    <rdf:RDF>
      <cc:Work
         rdf:about="">
        <dc:format>image/svg+xml</dc:format>
        <dc:type
           rdf:resource="http://purl.org/dc/dcmitype/StillImage" />
        <dc:title></dc:title>
      </cc:Work>
    </rdf:RDF>
  </metadata>
    <circle
       style="color:#000000;clip-rule:nonzero;display:inline;overflow:visible;visibility:visible;opacity:1;isolation:auto;mix-blend-mode:normal;color-interpolation:sRGB;color-interpolation-filters:linearRGB;solid-color:#000000;solid-opacity:1;vector-effect:none;fill:#808080;fill-opacity:1;fill-rule:evenodd;stroke:#ffffff;stroke-width:1;stroke-linecap:butt;stroke-linejoin:miter;stroke-miterlimit:4;stroke-dasharray:none;stroke-dashoffset:0;stroke-opacity:1;marker:none;color-rendering:auto;image-rendering:auto;shape-rendering:auto;text-rendering:auto;enable-background:accumulate"
       id="path815"
       cx="15"
       cy="15"
       r="14.5" />
<g transform="translate(9.5,6.5)"><path fill-rule="nonzero" fill="#FFFFFF" fill-opacity="1" d="M 7.644531 17 L 0 17 L 0 6.796875 L 7.644531 6.796875 Z M 7.761719 2.292969 C 7.75 2.265625 7.441406 1.621094 6.6875 1.3125 C 6.21875 1.121094 5.605469 1.070312 5.144531 1.066406 L 5.144531 0.460938 L 2.5 0.460938 L 2.5 3.191406 L 3.296875 3.191406 L 3.296875 4.484375 L 1.722656 4.484375 L 1.722656 6.09375 L 5.921875 6.09375 L 5.921875 4.484375 L 4.351562 4.484375 L 4.351562 3.191406 L 5.144531 3.191406 L 5.144531 1.769531 C 5.9375 1.777344 6.753906 1.890625 7.125 2.59375 C 7.179688 2.707031 7.289062 2.78125 7.414062 2.792969 C 7.539062 2.804688 7.660156 2.746094 7.734375 2.644531 C 7.804688 2.542969 7.816406 2.40625 7.761719 2.292969 Z M 10.859375 3.359375 L 11.308594 2.933594 L 10.699219 2.835938 L 10.429688 2.277344 L 10.148438 2.832031 L 9.535156 2.910156 L 9.972656 3.347656 L 9.859375 3.957031 L 10.410156 3.675781 L 10.957031 3.972656 Z M 8.984375 1.082031 L 9.433594 0.65625 L 8.824219 0.558594 L 8.554688 0 L 8.273438 0.550781 L 7.660156 0.632812 L 8.097656 1.070312 L 7.984375 1.679688 L 8.539062 1.398438 L 9.082031 1.695312 Z M 9.589844 6.117188 L 10.039062 5.691406 L 9.429688 5.59375 L 9.164062 5.035156 L 8.882812 5.585938 L 8.269531 5.667969 L 8.707031 6.105469 L 8.59375 6.714844 L 9.144531 6.433594 L 9.6875 6.730469 Z M 9.589844 6.117188 "/>
</g>
</svg>
