<?xml version="1.0" encoding="UTF-8" standalone="no"?>
<!-- Created with Inkscape (http://www.inkscape.org/) -->

<svg
   xmlns:dc="http://purl.org/dc/elements/1.1/"
   xmlns:cc="http://creativecommons.org/ns#"
   xmlns:rdf="http://www.w3.org/1999/02/22-rdf-syntax-ns#"
   xmlns:svg="http://www.w3.org/2000/svg"
   xmlns="http://www.w3.org/2000/svg"
   xmlns:xlink="http://www.w3.org/1999/xlink"
   xmlns:sodipodi="http://sodipodi.sourceforge.net/DTD/sodipodi-0.dtd"
   xmlns:inkscape="http://www.inkscape.org/namespaces/inkscape"
   width="30px"
   height="30px"
   version="1.1"
   id="svg8"
   inkscape:version="0.92.4 5da689c313, 2019-01-14"
   sodipodi:docname="container.svg">
  <defs
     id="defs2" />
  <sodipodi:namedview
     id="base"
     pagecolor="#ffffff"
     bordercolor="#666666"
     borderopacity="1.0"
     inkscape:pageopacity="0.0"
     inkscape:pageshadow="2"
     inkscape:zoom="13.049334"
     inkscape:cx="18.679046"
     inkscape:cy="12.165829"
     inkscape:document-units="px"
     inkscape:current-layer="layer1"
     showgrid="false"
     inkscape:snap-page="false"
     units="px"
     inkscape:window-width="1884"
     inkscape:window-height="1061"
     inkscape:window-x="0"
     inkscape:window-y="0"
     inkscape:window-maximized="1"
     fit-margin-top="0"
     fit-margin-left="0"
     fit-margin-right="0"
     fit-margin-bottom="0" />
  <metadata
     id="metadata5">
    <rdf:RDF>
      <cc:Work
         rdf:about="">
        <dc:format>image/svg+xml</dc:format>
        <dc:type
           rdf:resource="http://purl.org/dc/dcmitype/StillImage" />
        <dc:title></dc:title>
      </cc:Work>
    </rdf:RDF>
  </metadata>
    <circle
       style="color:#000000;clip-rule:nonzero;display:inline;overflow:visible;visibility:visible;opacity:1;isolation:auto;mix-blend-mode:normal;color-interpolation:sRGB;color-interpolation-filters:linearRGB;solid-color:#000000;solid-opacity:1;vector-effect:none;fill:#808080;fill-opacity:1;fill-rule:evenodd;stroke:#ffffff;stroke-width:1;stroke-linecap:butt;stroke-linejoin:miter;stroke-miterlimit:4;stroke-dasharray:none;stroke-dashoffset:0;stroke-opacity:1;marker:none;color-rendering:auto;image-rendering:auto;shape-rendering:auto;text-rendering:auto;enable-background:accumulate"
       id="path815"
       cx="15"
       cy="15"
       r="14.5" />
<g transform="translate(7.0,6.5)"><path fill-rule="nonzero" fill="#FFFFFF" fill-opacity="1" d="M 16.203125 12.292969 L 16.003906 12.484375 C 15.765625 12.714844 15.386719 12.707031 15.160156 12.472656 L 10.175781 7.324219 L 8.433594 8.9375 C 8.285156 9.074219 8.054688 9.066406 7.917969 8.917969 C 7.78125 8.769531 7.789062 8.539062 7.9375 8.402344 L 9.667969 6.800781 L 9.40625 6.53125 L 7.652344 8.15625 C 7.503906 8.292969 7.273438 8.28125 7.136719 8.136719 C 7 7.988281 7.007812 7.757812 7.15625 7.621094 L 8.898438 6.007812 L 8.691406 5.789062 L 6.921875 7.425781 C 6.773438 7.5625 6.542969 7.554688 6.40625 7.40625 C 6.269531 7.257812 6.277344 7.027344 6.425781 6.890625 L 8.183594 5.265625 L 7.972656 5.046875 L 6.191406 6.695312 C 6.042969 6.832031 5.8125 6.824219 5.675781 6.675781 C 5.539062 6.527344 5.546875 6.296875 5.695312 6.160156 L 7.464844 4.523438 L 7.253906 4.308594 L 5.460938 5.964844 C 5.3125 6.101562 5.082031 6.09375 4.945312 5.945312 C 4.808594 5.796875 4.820312 5.566406 4.964844 5.429688 L 6.746094 3.78125 L 6.460938 3.488281 L 4.652344 5.15625 C 4.507812 5.292969 4.277344 5.285156 4.140625 5.136719 C 4.003906 4.988281 4.011719 4.757812 4.160156 4.621094 L 5.953125 2.960938 L 5.742188 2.746094 L 3.925781 4.429688 C 3.777344 4.566406 3.546875 4.554688 3.410156 4.40625 C 3.273438 4.261719 3.28125 4.027344 3.429688 3.890625 L 5.234375 2.222656 L 5.027344 2.003906 L 3.195312 3.699219 C 3.046875 3.835938 2.816406 3.824219 2.679688 3.679688 C 2.542969 3.53125 2.550781 3.300781 2.699219 3.164062 L 4.519531 1.480469 L 4.308594 1.261719 L 2.464844 2.96875 C 2.316406 3.105469 2.085938 3.09375 1.949219 2.949219 C 1.8125 2.800781 1.820312 2.570312 1.96875 2.433594 L 4.304688 0.273438 C 4.34375 0.238281 4.386719 0.210938 4.4375 0.195312 L 4.464844 0.167969 C 4.703125 -0.0625 5.082031 -0.0546875 5.3125 0.179688 L 16.214844 11.445312 C 16.445312 11.683594 16.4375 12.0625 16.203125 12.292969 Z M 13.261719 13.613281 L 12.789062 13.066406 C 13.019531 12.429688 12.882812 11.71875 12.433594 11.210938 C 11.988281 10.707031 11.296875 10.484375 10.640625 10.632812 C 9.980469 10.78125 9.453125 11.277344 9.269531 11.929688 L 5.914062 8.347656 C 5.738281 8.171875 0.59375 3.496094 0.0351562 3.957031 C -0.449219 4.332031 4.070312 9.632812 4.246094 9.804688 L 7.683594 13.351562 C 7.683594 13.351562 7.6875 13.351562 7.6875 13.351562 C 6.835938 13.5625 6.246094 14.335938 6.277344 15.214844 C 6.308594 16.089844 6.949219 16.824219 7.8125 16.972656 C 8.675781 17.121094 9.523438 16.648438 9.847656 15.832031 C 10.171875 15.019531 9.878906 14.089844 9.148438 13.605469 C 8.542969 12.878906 6.863281 11.175781 6.328125 10.640625 C 6.277344 10.585938 6.46875 10.5 6.484375 10.484375 L 9.40625 13.351562 C 9.410156 13.34375 9.417969 13.335938 9.425781 13.328125 C 9.695312 13.820312 10.171875 14.160156 10.722656 14.261719 C 11.273438 14.359375 11.839844 14.203125 12.261719 13.835938 L 12.847656 14.394531 C 12.847656 14.394531 14.046875 15.019531 14.203125 14.445312 C 14.359375 13.871094 13.261719 13.613281 13.261719 13.613281 Z M 9.195312 15.148438 C 9.195312 15.738281 8.71875 16.21875 8.128906 16.21875 C 7.539062 16.21875 7.058594 15.738281 7.058594 15.148438 C 7.058594 14.558594 7.539062 14.082031 8.128906 14.082031 C 8.71875 14.082031 9.195312 14.558594 9.195312 15.148438 Z M 12.167969 12.4375 C 12.167969 13.027344 11.691406 13.507812 11.097656 13.507812 C 10.507812 13.507812 10.03125 13.027344 10.03125 12.4375 C 10.03125 11.847656 10.507812 11.371094 11.097656 11.371094 C 11.691406 11.371094 12.167969 11.847656 12.167969 12.4375 Z M 12.167969 12.4375 "/>
</g>
</svg>
