<?xml version="1.0" encoding="UTF-8" standalone="no"?>
<!-- Created with Inkscape (http://www.inkscape.org/) -->

<svg
   xmlns:dc="http://purl.org/dc/elements/1.1/"
   xmlns:cc="http://creativecommons.org/ns#"
   xmlns:rdf="http://www.w3.org/1999/02/22-rdf-syntax-ns#"
   xmlns:svg="http://www.w3.org/2000/svg"
   xmlns="http://www.w3.org/2000/svg"
   xmlns:xlink="http://www.w3.org/1999/xlink"
   xmlns:sodipodi="http://sodipodi.sourceforge.net/DTD/sodipodi-0.dtd"
   xmlns:inkscape="http://www.inkscape.org/namespaces/inkscape"
   width="30px"
   height="30px"
   version="1.1"
   id="svg8"
   inkscape:version="0.92.4 5da689c313, 2019-01-14"
   sodipodi:docname="container.svg">
  <defs
     id="defs2" />
  <sodipodi:namedview
     id="base"
     pagecolor="#ffffff"
     bordercolor="#666666"
     borderopacity="1.0"
     inkscape:pageopacity="0.0"
     inkscape:pageshadow="2"
     inkscape:zoom="13.049334"
     inkscape:cx="18.679046"
     inkscape:cy="12.165829"
     inkscape:document-units="px"
     inkscape:current-layer="layer1"
     showgrid="false"
     inkscape:snap-page="false"
     units="px"
     inkscape:window-width="1884"
     inkscape:window-height="1061"
     inkscape:window-x="0"
     inkscape:window-y="0"
     inkscape:window-maximized="1"
     fit-margin-top="0"
     fit-margin-left="0"
     fit-margin-right="0"
     fit-margin-bottom="0" />
  <metadata
     id="metadata5">
    <rdf:RDF>
      <cc:Work
         rdf:about="">
        <dc:format>image/svg+xml</dc:format>
        <dc:type
           rdf:resource="http://purl.org/dc/dcmitype/StillImage" />
        <dc:title></dc:title>
      </cc:Work>
    </rdf:RDF>
  </metadata>
    <circle
       style="color:#000000;clip-rule:nonzero;display:inline;overflow:visible;visibility:visible;opacity:1;isolation:auto;mix-blend-mode:normal;color-interpolation:sRGB;color-interpolation-filters:linearRGB;solid-color:#000000;solid-opacity:1;vector-effect:none;fill:#808080;fill-opacity:1;fill-rule:evenodd;stroke:#ffffff;stroke-width:1;stroke-linecap:butt;stroke-linejoin:miter;stroke-miterlimit:4;stroke-dasharray:none;stroke-dashoffset:0;stroke-opacity:1;marker:none;color-rendering:auto;image-rendering:auto;shape-rendering:auto;text-rendering:auto;enable-background:accumulate"
       id="path815"
       cx="15"
       cy="15"
       r="14.5" />
<g transform="translate(6.5,10.5)"><path fill-rule="nonzero" fill="#FFFFFF" fill-opacity="1" d="M 17 8.59375 C 17 9.039062 16.539062 9.402344 15.972656 9.402344 L 14.367188 9.402344 C 11.660156 9.402344 12.851562 6.265625 9.171875 6.265625 L 7.828125 6.265625 C 4.171875 6.265625 5.316406 9.402344 2.632812 9.402344 L 1.027344 9.402344 C 0.460938 9.402344 0 9.039062 0 8.59375 L 1.160156 2.816406 C 1.550781 0.796875 2.652344 0 4.628906 0 C 6.160156 0 6.097656 1.097656 8.609375 1.097656 C 10.855469 1.097656 10.839844 0 12.371094 0 C 14.347656 0 15.453125 0.796875 15.839844 2.816406 Z M 12.859375 0.839844 C 11.40625 0.839844 10.226562 2.019531 10.226562 3.476562 C 10.226562 4.929688 11.40625 6.109375 12.859375 6.109375 C 14.316406 6.109375 15.496094 4.929688 15.496094 3.476562 C 15.496094 2.019531 14.316406 0.839844 12.859375 0.839844 Z M 4.140625 0.972656 C 2.683594 0.972656 1.503906 2.152344 1.503906 3.609375 C 1.503906 5.0625 2.683594 6.242188 4.140625 6.242188 C 5.59375 6.242188 6.773438 5.0625 6.773438 3.609375 C 6.773438 2.152344 5.59375 0.972656 4.140625 0.972656 Z M 4.140625 0.972656 "/>
<path fill-rule="nonzero" fill="#FFFFFF" fill-opacity="1" d="M 13.246094 2.359375 C 12.605469 2.621094 12.09375 3.132812 11.832031 3.773438 C 11.71875 4.054688 11.429688 4.222656 11.128906 4.183594 C 10.828125 4.148438 10.59375 3.910156 10.554688 3.609375 C 10.515625 3.308594 10.683594 3.023438 10.964844 2.910156 C 11.609375 2.648438 12.121094 2.136719 12.378906 1.492188 L 12.382812 1.492188 C 12.496094 1.214844 12.78125 1.042969 13.082031 1.082031 C 13.382812 1.121094 13.617188 1.359375 13.65625 1.65625 C 13.695312 1.957031 13.527344 2.246094 13.246094 2.359375 Z M 12.996094 1.1875 C 12.691406 1.1875 12.441406 1.4375 12.441406 1.742188 C 12.441406 2.050781 12.691406 2.296875 12.996094 2.296875 C 13.304688 2.296875 13.550781 2.050781 13.550781 1.742188 C 13.550781 1.4375 13.304688 1.1875 12.996094 1.1875 Z M 11.203125 2.96875 C 10.898438 2.96875 10.648438 3.21875 10.648438 3.523438 C 10.648438 3.832031 10.898438 4.078125 11.203125 4.078125 C 11.511719 4.078125 11.757812 3.832031 11.757812 3.527344 C 11.757812 3.21875 11.511719 2.972656 11.203125 2.96875 Z M 11.203125 2.96875 "/>
<path fill-rule="nonzero" fill="#FFFFFF" fill-opacity="1" d="M 14.804688 3.917969 C 14.160156 4.175781 13.648438 4.6875 13.386719 5.332031 C 13.273438 5.613281 12.988281 5.78125 12.6875 5.742188 C 12.386719 5.703125 12.152344 5.46875 12.113281 5.167969 C 12.074219 4.867188 12.242188 4.578125 12.523438 4.464844 C 13.167969 4.203125 13.675781 3.695312 13.9375 3.050781 C 14.050781 2.769531 14.339844 2.601562 14.640625 2.640625 C 14.9375 2.679688 15.175781 2.914062 15.214844 3.214844 C 15.253906 3.515625 15.085938 3.804688 14.804688 3.917969 Z M 14.554688 2.746094 C 14.25 2.746094 14 2.992188 14 3.300781 C 14 3.605469 14.25 3.855469 14.554688 3.855469 C 14.859375 3.855469 15.109375 3.605469 15.109375 3.300781 C 15.109375 2.992188 14.859375 2.746094 14.554688 2.746094 Z M 12.761719 4.527344 C 12.453125 4.527344 12.207031 4.777344 12.207031 5.082031 C 12.207031 5.386719 12.453125 5.636719 12.761719 5.636719 C 13.066406 5.636719 13.316406 5.386719 13.316406 5.082031 C 13.316406 4.777344 13.066406 4.527344 12.761719 4.527344 Z M 12.761719 4.527344 "/>
<path fill-rule="nonzero" fill="#FFFFFF" fill-opacity="1" d="M 5.757812 2.816406 L 4.746094 2.816406 L 4.746094 1.804688 C 4.746094 1.566406 4.472656 1.371094 4.140625 1.371094 C 3.804688 1.371094 3.53125 1.566406 3.53125 1.804688 L 3.53125 2.816406 L 2.523438 2.816406 C 2.28125 2.816406 2.089844 3.085938 2.089844 3.421875 C 2.089844 3.757812 2.28125 4.027344 2.523438 4.027344 L 3.53125 4.027344 L 3.53125 5.039062 C 3.53125 5.277344 3.804688 5.472656 4.140625 5.472656 C 4.472656 5.472656 4.746094 5.277344 4.746094 5.039062 L 4.746094 4.027344 L 5.757812 4.027344 C 5.996094 4.027344 6.1875 3.757812 6.1875 3.421875 C 6.1875 3.085938 5.996094 2.816406 5.757812 2.816406 Z M 5.757812 2.816406 "/>
</g>
</svg>
