<?xml version="1.0" encoding="UTF-8"?>
<svg xmlns="http://www.w3.org/2000/svg" xmlns:xlink="http://www.w3.org/1999/xlink" width="10.813366" height="11" viewBox="0 0 10.813366 11">
<path fill-rule="nonzero" fill="rgb(30%,30%,30%)" fill-opacity="1" d="M 0.226562 10.441406 C 0.226562 10.75 0.476562 11 0.785156 11 L 4.300781 11 L 4.300781 5.480469 L 0.226562 5.480469 Z M 0.226562 10.441406 "/>
<path fill-rule="nonzero" fill="rgb(30%,30%,30%)" fill-opacity="1" d="M 6.53125 11 L 10.027344 11 C 10.335938 11 10.585938 10.75 10.585938 10.441406 L 10.585938 5.480469 L 6.53125 5.480469 Z M 6.53125 11 "/>
<path fill-rule="nonzero" fill="rgb(30%,30%,30%)" fill-opacity="1" d="M 10.582031 2.933594 L 9.546875 2.933594 L 9.546875 1.628906 L 7.925781 0.00390625 L 7.925781 0 L 6.621094 0 L 6.621094 1.691406 L 4.203125 1.691406 L 4.203125 0 L 2.898438 0 L 2.898438 0.00390625 L 1.277344 1.628906 L 1.277344 2.933594 L 0.230469 2.933594 C 0.105469 2.933594 0 3.035156 0 3.15625 L 0 4.917969 C 0 4.976562 0.046875 5.019531 0.101562 5.019531 L 4.300781 5.019531 L 4.300781 2.933594 L 6.53125 2.933594 L 6.53125 5.019531 L 10.710938 5.019531 C 10.765625 5.019531 10.8125 4.976562 10.8125 4.917969 L 10.8125 3.15625 C 10.8125 3.035156 10.710938 2.933594 10.582031 2.933594 Z M 2.339844 2.101562 L 3.375 1.066406 L 4.203125 2.933594 Z M 6.621094 2.933594 L 7.449219 1.066406 L 8.484375 2.101562 Z M 6.621094 2.933594 "/>
</svg>
