<?xml version="1.0" encoding="UTF-8"?>
<svg xmlns="http://www.w3.org/2000/svg" xmlns:xlink="http://www.w3.org/1999/xlink" width="6.125748" height="11" viewBox="0 0 6.125748 11">
<path fill-rule="nonzero" fill="rgb(30%,30%,30%)" fill-opacity="1" d="M 5.242188 11 L 0.886719 11 C 0.394531 11 0 10.605469 0 10.113281 L 0 0.886719 C 0 0.394531 0.394531 0 0.886719 0 L 5.242188 0 C 5.730469 0 6.125 0.394531 6.125 0.886719 L 6.125 10.113281 C 6.125 10.605469 5.730469 11 5.242188 11 Z M 3.789062 1.25 L 3.789062 0.988281 C 3.789062 0.953125 3.757812 0.921875 3.722656 0.921875 L 2.402344 0.921875 C 2.367188 0.921875 2.339844 0.953125 2.339844 0.988281 L 2.339844 1.25 C 2.339844 1.289062 2.367188 1.316406 2.402344 1.316406 L 3.722656 1.316406 C 3.757812 1.316406 3.789062 1.289062 3.789062 1.25 Z M 5.566406 8.828125 L 5.566406 2.109375 C 5.566406 2.070312 5.535156 2.042969 5.5 2.042969 L 0.625 2.042969 C 0.589844 2.042969 0.558594 2.070312 0.558594 2.109375 L 0.558594 8.828125 C 0.558594 8.863281 0.589844 8.890625 0.625 8.890625 L 5.5 8.890625 C 5.535156 8.890625 5.566406 8.863281 5.566406 8.828125 Z M 3.0625 9.417969 C 2.753906 9.417969 2.503906 9.667969 2.503906 9.980469 C 2.503906 10.289062 2.753906 10.539062 3.0625 10.539062 C 3.371094 10.539062 3.621094 10.289062 3.621094 9.980469 C 3.621094 9.667969 3.371094 9.417969 3.0625 9.417969 Z M 3.0625 9.417969 "/>
</svg>
