<?xml version="1.0" encoding="UTF-8"?>
<svg xmlns="http://www.w3.org/2000/svg" xmlns:xlink="http://www.w3.org/1999/xlink" width="8.197652" height="11" viewBox="0 0 8.197652 11">
<path fill-rule="nonzero" fill="rgb(30%,30%,30%)" fill-opacity="1" d="M 5.5625 3.074219 L 6.320312 2.144531 L 4.140625 0 L 1.960938 2.15625 L 2.699219 3.050781 C 1.125 3.621094 0 5.132812 0 6.902344 C 0 9.160156 1.839844 11 4.097656 11 C 6.359375 11 8.199219 9.160156 8.199219 6.902344 C 8.199219 5.15625 7.101562 3.664062 5.5625 3.074219 Z M 4.871094 1.425781 L 6.226562 2.15625 L 4.652344 1.667969 L 4.140625 0.167969 Z M 3.347656 1.441406 L 4.113281 0.167969 L 3.605469 1.667969 L 2.074219 2.144531 Z M 4.097656 10.285156 C 2.234375 10.285156 0.714844 8.765625 0.714844 6.902344 C 0.714844 5.351562 1.761719 4.042969 3.1875 3.644531 L 4.140625 4.144531 L 5.082031 3.664062 C 6.46875 4.085938 7.484375 5.375 7.484375 6.902344 C 7.484375 8.765625 5.964844 10.285156 4.097656 10.285156 Z M 4.097656 10.285156 "/>
</svg>
