<?xml version="1.0" encoding="UTF-8"?>
<svg xmlns="http://www.w3.org/2000/svg" xmlns:xlink="http://www.w3.org/1999/xlink" width="9.536878" height="11" viewBox="0 0 9.536878 11">
<path fill-rule="nonzero" fill="rgb(30%,30%,30%)" fill-opacity="1" d="M 9.535156 3.574219 C 9.507812 3.433594 8.992188 1.140625 8.882812 0.707031 C 8.777344 0.269531 8.125 0.105469 7.769531 0.105469 C 7.417969 0.105469 6.332031 0 6.332031 0 C 6.332031 0 6.328125 -0.00390625 6.222656 0.214844 C 6.113281 0.429688 5.730469 0.675781 5.214844 0.785156 C 4.699219 0.894531 4.210938 0.652344 4.023438 0.488281 C 3.832031 0.320312 3.585938 0 3.585938 0 C 3.585938 0 2.417969 0.078125 2.144531 0.105469 C 1.875 0.132812 1.550781 0.242188 1.222656 0.429688 C 0.894531 0.625 0.707031 0.8125 0.625 1.058594 C 0.542969 1.304688 0.109375 2.699219 0 3.464844 C 0.457031 3.652344 1.519531 3.679688 1.519531 3.679688 L 1.613281 3.578125 C 1.613281 3.578125 1.734375 4.394531 1.875 4.828125 C 1.949219 5.066406 2.308594 6.085938 2.308594 6.332031 C 2.308594 6.574219 2.117188 7.558594 2.011719 7.886719 C 1.902344 8.214844 1.683594 8.816406 1.628906 9.195312 C 1.578125 9.578125 1.441406 11 1.441406 11 C 1.441406 11 8.097656 10.945312 8.125 10.835938 C 8.152344 10.453125 8.160156 8.941406 7.664062 7.695312 C 7.464844 7.207031 7.472656 5.894531 7.417969 5.484375 C 7.363281 5.074219 7.714844 4.554688 7.824219 4.363281 C 7.933594 4.171875 7.988281 3.871094 7.988281 3.871094 L 8.203125 3.953125 C 8.203125 3.953125 9.5625 3.707031 9.535156 3.574219 Z M 4.761719 6.925781 C 4.761719 6.925781 2.667969 5.984375 2.667969 4.824219 C 2.667969 4.824219 2.667969 4.820312 2.667969 4.816406 C 2.667969 4.238281 3.136719 3.769531 3.714844 3.769531 C 4.292969 3.769531 4.761719 4.238281 4.761719 4.816406 C 4.761719 4.238281 5.230469 3.769531 5.808594 3.769531 C 6.386719 3.769531 6.855469 4.238281 6.855469 4.816406 C 6.855469 4.820312 6.855469 4.824219 6.855469 4.824219 C 6.855469 5.984375 4.761719 6.925781 4.761719 6.925781 Z M 4.761719 6.925781 "/>
</svg>
