<?xml version="1.0" encoding="UTF-8" standalone="no"?>
<!-- Created with Inkscape (http://www.inkscape.org/) -->

<svg
   xmlns:dc="http://purl.org/dc/elements/1.1/"
   xmlns:cc="http://creativecommons.org/ns#"
   xmlns:rdf="http://www.w3.org/1999/02/22-rdf-syntax-ns#"
   xmlns:svg="http://www.w3.org/2000/svg"
   xmlns="http://www.w3.org/2000/svg"
   xmlns:xlink="http://www.w3.org/1999/xlink"
   xmlns:sodipodi="http://sodipodi.sourceforge.net/DTD/sodipodi-0.dtd"
   xmlns:inkscape="http://www.inkscape.org/namespaces/inkscape"
   width="30px"
   height="30px"
   version="1.1"
   id="svg8"
   inkscape:version="0.92.4 5da689c313, 2019-01-14"
   sodipodi:docname="container.svg">
  <defs
     id="defs2" />
  <sodipodi:namedview
     id="base"
     pagecolor="#ffffff"
     bordercolor="#666666"
     borderopacity="1.0"
     inkscape:pageopacity="0.0"
     inkscape:pageshadow="2"
     inkscape:zoom="13.049334"
     inkscape:cx="18.679046"
     inkscape:cy="12.165829"
     inkscape:document-units="px"
     inkscape:current-layer="layer1"
     showgrid="false"
     inkscape:snap-page="false"
     units="px"
     inkscape:window-width="1884"
     inkscape:window-height="1061"
     inkscape:window-x="0"
     inkscape:window-y="0"
     inkscape:window-maximized="1"
     fit-margin-top="0"
     fit-margin-left="0"
     fit-margin-right="0"
     fit-margin-bottom="0" />
  <metadata
     id="metadata5">
    <rdf:RDF>
      <cc:Work
         rdf:about="">
        <dc:format>image/svg+xml</dc:format>
        <dc:type
           rdf:resource="http://purl.org/dc/dcmitype/StillImage" />
        <dc:title></dc:title>
      </cc:Work>
    </rdf:RDF>
  </metadata>
    <circle
       style="color:#000000;clip-rule:nonzero;display:inline;overflow:visible;visibility:visible;opacity:1;isolation:auto;mix-blend-mode:normal;color-interpolation:sRGB;color-interpolation-filters:linearRGB;solid-color:#000000;solid-opacity:1;vector-effect:none;fill:#ffffff;fill-opacity:1;fill-rule:evenodd;stroke:#808080;stroke-width:1;stroke-linecap:butt;stroke-linejoin:miter;stroke-miterlimit:4;stroke-dasharray:none;stroke-dashoffset:0;stroke-opacity:1;marker:none;color-rendering:auto;image-rendering:auto;shape-rendering:auto;text-rendering:auto;enable-background:accumulate"
       id="path815"
       cx="15"
       cy="15"
       r="14.5" />
<g transform="translate(6.5,6.5)"><path fill-rule="evenodd" fill="rgb(30%,30%,30%)" fill-opacity="1" d="M 3.613281 1.605469 L 3.703125 1.933594 C 3.652344 2.109375 3.652344 2.230469 3.699219 2.308594 C 3.742188 2.378906 3.847656 2.429688 4.007812 2.457031 L 4.261719 2.691406 L 5.285156 4.398438 L 5.730469 4.132812 L 10.035156 11.316406 L 9.472656 12.871094 L 7.867188 13.835938 L 6.195312 13.617188 L 1.890625 6.433594 L 2.324219 6.171875 L 1.300781 4.464844 L 1.21875 4.128906 C 1.265625 3.976562 1.273438 3.859375 1.230469 3.785156 C 1.183594 3.710938 1.074219 3.652344 0.898438 3.613281 L 0.648438 3.378906 L 0.0625 2.402344 L 0.0234375 2.253906 L 0 1.191406 L 0.140625 0.933594 L 1.695312 0.00390625 L 1.988281 0 L 2.917969 0.523438 L 3.027344 0.625 Z M 9.898438 13.417969 L 8.382812 14.324219 C 9.378906 15.628906 11.402344 17.65625 13.71875 16.445312 C 15.796875 15.359375 14.90625 12.582031 14.074219 9.972656 C 13.582031 8.429688 13.113281 6.96875 13.386719 6.605469 C 13.902344 5.921875 16.113281 7.78125 17 8.578125 L 17 6.332031 C 15.445312 5.214844 13.140625 4 11.976562 5.546875 C 11.15625 6.632812 11.757812 8.519531 12.390625 10.503906 C 13.007812 12.429688 13.664062 14.480469 12.902344 14.878906 C 11.769531 15.46875 10.597656 14.320312 9.898438 13.417969 Z M 3.085938 6.871094 L 6.617188 12.765625 L 7.167969 12.433594 L 3.636719 6.539062 Z M 2.832031 5.871094 L 4.78125 4.703125 L 3.851562 3.152344 L 1.902344 4.320312 Z M 3.328125 2.777344 C 3.21875 2.671875 3.140625 2.539062 3.101562 2.390625 L 1.582031 3.300781 C 1.695312 3.402344 1.777344 3.535156 1.816406 3.683594 Z M 0.589844 1.351562 L 0.609375 2.164062 L 1.0625 2.921875 L 3.011719 1.753906 L 2.558594 0.996094 L 1.851562 0.597656 Z M 0.589844 1.351562 "/>
</g>
</svg>
