<?xml version="1.0" encoding="UTF-8"?>
<svg xmlns="http://www.w3.org/2000/svg" xmlns:xlink="http://www.w3.org/1999/xlink" width="11" height="10.881425" viewBox="0 0 11 10.881425">
<path fill-rule="evenodd" fill="rgb(30%,30%,30%)" fill-opacity="1" d="M 2.335938 1.039062 L 2.394531 1.25 C 2.363281 1.363281 2.363281 1.445312 2.394531 1.492188 C 2.421875 1.539062 2.488281 1.570312 2.59375 1.589844 L 2.757812 1.742188 L 3.421875 2.847656 L 3.707031 2.675781 L 6.492188 7.324219 L 6.128906 8.328125 L 5.089844 8.953125 L 4.007812 8.8125 L 1.222656 4.164062 L 1.503906 3.996094 L 0.84375 2.890625 L 0.789062 2.671875 C 0.820312 2.570312 0.824219 2.496094 0.796875 2.449219 C 0.765625 2.402344 0.695312 2.363281 0.582031 2.339844 L 0.421875 2.1875 L 0.0429688 1.554688 L 0.015625 1.460938 L 0 0.769531 L 0.09375 0.605469 L 1.097656 0.00390625 L 1.289062 0 L 1.886719 0.335938 L 1.957031 0.40625 Z M 6.40625 8.683594 L 5.425781 9.269531 C 6.066406 10.113281 7.378906 11.425781 8.878906 10.640625 C 10.21875 9.9375 9.644531 8.140625 9.105469 6.453125 C 8.789062 5.453125 8.484375 4.507812 8.660156 4.273438 C 8.996094 3.832031 10.425781 5.035156 11 5.550781 L 11 4.097656 C 9.992188 3.375 8.503906 2.589844 7.75 3.589844 C 7.21875 4.292969 7.609375 5.511719 8.019531 6.796875 C 8.417969 8.042969 8.839844 9.371094 8.347656 9.628906 C 7.617188 10.007812 6.855469 9.265625 6.40625 8.683594 Z M 1.996094 4.445312 L 4.28125 8.257812 L 4.640625 8.042969 L 2.355469 4.230469 Z M 1.832031 3.796875 L 3.09375 3.042969 L 2.492188 2.039062 L 1.230469 2.796875 Z M 2.15625 1.796875 C 2.082031 1.730469 2.03125 1.640625 2.007812 1.546875 L 1.023438 2.136719 C 1.097656 2.203125 1.152344 2.289062 1.175781 2.382812 Z M 0.382812 0.875 L 0.394531 1.398438 L 0.6875 1.890625 L 1.949219 1.136719 L 1.65625 0.644531 L 1.199219 0.386719 Z M 0.382812 0.875 "/>
</svg>
