<?xml version="1.0" encoding="UTF-8" standalone="no"?>
<!-- Created with Inkscape (http://www.inkscape.org/) -->

<svg
   xmlns:dc="http://purl.org/dc/elements/1.1/"
   xmlns:cc="http://creativecommons.org/ns#"
   xmlns:rdf="http://www.w3.org/1999/02/22-rdf-syntax-ns#"
   xmlns:svg="http://www.w3.org/2000/svg"
   xmlns="http://www.w3.org/2000/svg"
   xmlns:xlink="http://www.w3.org/1999/xlink"
   xmlns:sodipodi="http://sodipodi.sourceforge.net/DTD/sodipodi-0.dtd"
   xmlns:inkscape="http://www.inkscape.org/namespaces/inkscape"
   width="30px"
   height="30px"
   version="1.1"
   id="svg8"
   inkscape:version="0.92.4 5da689c313, 2019-01-14"
   sodipodi:docname="container.svg">
  <defs
     id="defs2" />
  <sodipodi:namedview
     id="base"
     pagecolor="#ffffff"
     bordercolor="#666666"
     borderopacity="1.0"
     inkscape:pageopacity="0.0"
     inkscape:pageshadow="2"
     inkscape:zoom="13.049334"
     inkscape:cx="18.679046"
     inkscape:cy="12.165829"
     inkscape:document-units="px"
     inkscape:current-layer="layer1"
     showgrid="false"
     inkscape:snap-page="false"
     units="px"
     inkscape:window-width="1884"
     inkscape:window-height="1061"
     inkscape:window-x="0"
     inkscape:window-y="0"
     inkscape:window-maximized="1"
     fit-margin-top="0"
     fit-margin-left="0"
     fit-margin-right="0"
     fit-margin-bottom="0" />
  <metadata
     id="metadata5">
    <rdf:RDF>
      <cc:Work
         rdf:about="">
        <dc:format>image/svg+xml</dc:format>
        <dc:type
           rdf:resource="http://purl.org/dc/dcmitype/StillImage" />
        <dc:title></dc:title>
      </cc:Work>
    </rdf:RDF>
  </metadata>
    <circle
       style="color:#000000;clip-rule:nonzero;display:inline;overflow:visible;visibility:visible;opacity:1;isolation:auto;mix-blend-mode:normal;color-interpolation:sRGB;color-interpolation-filters:linearRGB;solid-color:#000000;solid-opacity:1;vector-effect:none;fill:#ffffff;fill-opacity:1;fill-rule:evenodd;stroke:#808080;stroke-width:1;stroke-linecap:butt;stroke-linejoin:miter;stroke-miterlimit:4;stroke-dasharray:none;stroke-dashoffset:0;stroke-opacity:1;marker:none;color-rendering:auto;image-rendering:auto;shape-rendering:auto;text-rendering:auto;enable-background:accumulate"
       id="path815"
       cx="15"
       cy="15"
       r="14.5" />
<g transform="translate(6.5,9.5)"><path fill-rule="nonzero" fill="rgb(30%,30%,30%)" fill-opacity="1" d="M 9.65625 9.015625 C 9.65625 9.96875 8.886719 10.742188 7.933594 10.742188 C 6.980469 10.742188 6.210938 9.96875 6.210938 9.015625 C 6.210938 8.066406 6.980469 7.292969 7.933594 7.292969 C 8.886719 7.292969 9.65625 8.066406 9.65625 9.015625 "/>
<path fill-rule="nonzero" fill="rgb(30%,30%,30%)" fill-opacity="1" d="M 16.34375 8.230469 L 15.851562 8.230469 L 15.851562 2.859375 C 15.851562 1.28125 14.574219 0 12.996094 0 L 2.859375 0 C 1.28125 0 0 1.28125 0 2.859375 L 0 6.675781 C 0 7.878906 0.976562 8.855469 2.175781 8.855469 L 5.695312 8.855469 C 5.746094 7.632812 6.746094 6.65625 7.976562 6.65625 C 9.210938 6.65625 10.210938 7.664062 10.261719 8.886719 L 17 8.886719 C 17 8.523438 16.707031 8.230469 16.34375 8.230469 M 8.042969 3.433594 C 8.042969 3.789062 7.753906 4.078125 7.398438 4.078125 L 2.90625 4.078125 C 2.550781 4.078125 2.261719 3.789062 2.261719 3.433594 L 2.261719 2.453125 C 2.261719 2.097656 2.550781 1.808594 2.90625 1.808594 L 7.398438 1.808594 C 7.753906 1.808594 8.042969 2.097656 8.042969 2.453125 Z M 14.054688 3.328125 C 14.054688 3.742188 13.71875 4.078125 13.304688 4.078125 L 11.449219 4.078125 C 11.035156 4.078125 10.699219 3.742188 10.699219 3.328125 L 10.699219 2.558594 C 10.699219 2.144531 11.035156 1.808594 11.449219 1.808594 L 13.304688 1.808594 C 13.71875 1.808594 14.054688 2.144531 14.054688 2.558594 Z M 14.054688 3.328125 "/>
</g>
</svg>
