<?xml version="1.0" encoding="UTF-8"?>
<svg xmlns="http://www.w3.org/2000/svg" xmlns:xlink="http://www.w3.org/1999/xlink" width="9.317896" height="11" viewBox="0 0 9.317896 11">
<path fill="rgb(30%,30%,30%)" stroke-width="2.43" stroke-linecap="butt" stroke-linejoin="miter" stroke="rgb(0%, 0%, 0%)" stroke-opacity="1" stroke-miterlimit="10" d="M 458.331862 116.720377 C 458.331862 116.720377 458.331862 116.720377 457.989307 116.720377 C 457.989307 116.720377 457.989307 116.720377 458.331862 116.720377 Z M 458.331862 116.720377 " transform="matrix(0.0114033, 0, 0, 0.0114033, -1.050713, -0.272403)"/>
<path fill-rule="nonzero" fill="rgb(30%,30%,30%)" fill-opacity="1" stroke-width="2.43" stroke-linecap="butt" stroke-linejoin="miter" stroke="rgb(0%, 0%, 0%)" stroke-opacity="1" stroke-miterlimit="10" d="M 883.09934 422.621472 L 878.988687 419.195928 C 878.988687 419.195928 555.274762 234.216543 539.174704 224.282464 C 508.344807 205.099417 543.627912 185.573815 543.627912 185.573815 C 579.253571 163.992887 594.66852 119.803367 579.596126 80.752163 C 564.866286 41.70096 524.444864 19.092368 483.338334 26.628566 C 442.231804 34.164763 412.42957 69.790422 412.42957 111.582061 C 412.42957 113.637388 412.42957 115.692714 412.772124 117.405486 C 412.772124 117.405486 453.5361 116.377823 457.989307 116.720377 C 457.989307 115.35016 457.989307 114.322496 457.989307 112.952279 C 457.989307 92.399014 476.144692 75.956402 498.068174 75.956402 C 519.991657 75.956402 537.461932 92.399014 537.804487 112.952279 C 538.489596 138.64386 507.317144 149.263047 507.317144 149.263047 C 488.819205 158.512016 468.26594 170.158866 475.117028 212.29306 C 476.487246 219.829257 131.534948 417.140602 131.534948 417.140602 C 105.158257 430.842778 93.511407 450.36838 93.511407 477.430179 C 93.511407 514.083502 122.971087 543.543182 159.281855 543.543182 C 165.790389 543.543182 279.175902 541.487855 279.175902 541.487855 L 279.175902 663.094673 C 279.175902 663.094673 275.065249 722.356588 315.829224 745.992842 C 366.527278 775.109968 726.551971 986.466043 726.551971 986.466043 L 728.264743 536.006984 C 733.403059 537.377202 836.511939 540.460192 841.99281 540.460192 C 870.082272 540.460192 895.088744 522.647362 904.337714 496.270672 C 913.586683 469.551427 905.022822 440.091747 883.09934 422.621472 Z M 287.739762 472.976972 C 287.739762 480.513169 281.916337 486.336594 274.722694 486.336594 L 164.762726 486.336594 C 154.828648 486.336594 151.060549 473.319526 159.62441 468.18121 L 267.529051 402.068207 C 271.639704 399.327772 276.778021 399.327772 281.231228 401.725653 C 285.341881 404.123534 287.739762 408.576741 287.739762 413.372503 Z M 499.780946 480.513169 C 423.733866 480.513169 356.935754 430.157669 335.69738 357.193578 L 501.836273 260.250678 L 664.207067 356.50847 C 642.968693 430.157669 576.170582 480.513169 499.780946 480.513169 Z M 843.705582 486.336594 L 733.745614 486.336594 C 726.551971 486.336594 720.385991 480.513169 720.385991 472.976972 L 720.385991 413.372503 C 720.385991 408.576741 723.126427 404.123534 727.23708 401.725653 C 731.347733 399.327772 736.486049 399.327772 740.596702 402.068207 L 848.843898 468.18121 C 857.407758 473.319526 853.63966 486.336594 843.705582 486.336594 Z M 843.705582 486.336594 " transform="matrix(0.0114033, 0, 0, 0.0114033, -1.050713, -0.272403)"/>
</svg>
