<?xml version="1.0" encoding="UTF-8"?>
<svg xmlns="http://www.w3.org/2000/svg" xmlns:xlink="http://www.w3.org/1999/xlink" width="7.72254" height="11" viewBox="0 0 7.72254 11">
<path fill-rule="nonzero" fill="rgb(30%,30%,30%)" fill-opacity="1" d="M 0.324219 6.710938 C 0.425781 6.460938 0.71875 6.355469 0.960938 6.476562 C 1.472656 6.742188 2.425781 7.113281 3.695312 7.125 C 5.117188 7.132812 6.167969 6.710938 6.753906 6.449219 C 7.019531 6.332031 7.328125 6.46875 7.421875 6.746094 L 7.695312 7.574219 C 7.785156 7.835938 7.644531 8.117188 7.382812 8.203125 C 6.867188 8.382812 6.035156 8.71875 5.4375 9.21875 C 4.722656 9.816406 4.253906 10.832031 4.253906 10.832031 C 4.253906 10.832031 3.855469 11.195312 3.5 10.855469 C 3.417969 10.777344 2.875 9.632812 2.121094 9.039062 C 1.769531 8.761719 0.917969 8.40625 0.34375 8.203125 C 0.0585938 8.101562 -0.0742188 7.808594 0.0390625 7.53125 Z M 0.324219 6.710938 "/>
<path fill-rule="nonzero" fill="rgb(30%,30%,30%)" fill-opacity="1" d="M 7.210938 2.492188 C 7.210938 2.488281 7.214844 2.480469 7.214844 2.476562 C 7.214844 2.476562 6.988281 0.992188 7.0625 0.351562 C 7.089844 0.121094 6.917969 0 6.746094 0 C 6.574219 0 6.417969 0.195312 6.417969 0.441406 C 6.417969 0.441406 6.464844 1.617188 6.503906 2.15625 C 5.40625 2.261719 3.996094 3.746094 3.871094 3.964844 L 3.84375 3.964844 C 3.722656 3.75 2.3125 2.261719 1.210938 2.15625 C 1.253906 1.617188 1.296875 0.441406 1.296875 0.441406 C 1.296875 0.195312 1.144531 0 0.972656 0 C 0.800781 0 0.625 0.121094 0.652344 0.351562 C 0.726562 0.992188 0.503906 2.476562 0.503906 2.476562 C 0.503906 2.480469 0.503906 2.488281 0.503906 2.492188 C 0.339844 2.804688 0.351562 3.261719 0.359375 3.589844 C 0.386719 4.640625 1.179688 5.246094 2.140625 5.246094 C 2.308594 5.246094 2.464844 5.230469 2.609375 5.203125 C 3.105469 5.078125 3.375 4.734375 3.789062 4.757812 C 4.179688 4.738281 4.558594 4.96875 4.832031 5.101562 C 4.871094 5.121094 4.941406 5.152344 4.980469 5.160156 C 5.105469 5.1875 5.398438 5.246094 5.574219 5.246094 C 6.539062 5.246094 7.328125 4.640625 7.355469 3.589844 C 7.363281 3.261719 7.375 2.804688 7.210938 2.492188 Z M 7.210938 2.492188 "/>
</svg>
