<?xml version="1.0" encoding="UTF-8" standalone="no"?>
<!-- Created with Inkscape (http://www.inkscape.org/) -->

<svg
   xmlns:dc="http://purl.org/dc/elements/1.1/"
   xmlns:cc="http://creativecommons.org/ns#"
   xmlns:rdf="http://www.w3.org/1999/02/22-rdf-syntax-ns#"
   xmlns:svg="http://www.w3.org/2000/svg"
   xmlns="http://www.w3.org/2000/svg"
   xmlns:xlink="http://www.w3.org/1999/xlink"
   xmlns:sodipodi="http://sodipodi.sourceforge.net/DTD/sodipodi-0.dtd"
   xmlns:inkscape="http://www.inkscape.org/namespaces/inkscape"
   width="30px"
   height="30px"
   version="1.1"
   id="svg8"
   inkscape:version="0.92.4 5da689c313, 2019-01-14"
   sodipodi:docname="container.svg">
  <defs
     id="defs2" />
  <sodipodi:namedview
     id="base"
     pagecolor="#ffffff"
     bordercolor="#666666"
     borderopacity="1.0"
     inkscape:pageopacity="0.0"
     inkscape:pageshadow="2"
     inkscape:zoom="13.049334"
     inkscape:cx="18.679046"
     inkscape:cy="12.165829"
     inkscape:document-units="px"
     inkscape:current-layer="layer1"
     showgrid="false"
     inkscape:snap-page="false"
     units="px"
     inkscape:window-width="1884"
     inkscape:window-height="1061"
     inkscape:window-x="0"
     inkscape:window-y="0"
     inkscape:window-maximized="1"
     fit-margin-top="0"
     fit-margin-left="0"
     fit-margin-right="0"
     fit-margin-bottom="0" />
  <metadata
     id="metadata5">
    <rdf:RDF>
      <cc:Work
         rdf:about="">
        <dc:format>image/svg+xml</dc:format>
        <dc:type
           rdf:resource="http://purl.org/dc/dcmitype/StillImage" />
        <dc:title></dc:title>
      </cc:Work>
    </rdf:RDF>
  </metadata>
    <circle
       style="color:#000000;clip-rule:nonzero;display:inline;overflow:visible;visibility:visible;opacity:1;isolation:auto;mix-blend-mode:normal;color-interpolation:sRGB;color-interpolation-filters:linearRGB;solid-color:#000000;solid-opacity:1;vector-effect:none;fill:#ffffff;fill-opacity:1;fill-rule:evenodd;stroke:#808080;stroke-width:1;stroke-linecap:butt;stroke-linejoin:miter;stroke-miterlimit:4;stroke-dasharray:none;stroke-dashoffset:0;stroke-opacity:1;marker:none;color-rendering:auto;image-rendering:auto;shape-rendering:auto;text-rendering:auto;enable-background:accumulate"
       id="path815"
       cx="15"
       cy="15"
       r="14.5" />
<g transform="translate(6.5,6.5)"><path fill-rule="nonzero" fill="rgb(30%,30%,30%)" fill-opacity="1" d="M 0.339844 5.355469 C 0.324219 5.355469 0.3125 5.355469 0.296875 5.355469 C 0.117188 5.332031 -0.0117188 5.167969 0.0078125 4.984375 C 0.378906 1.910156 2.121094 0 4.550781 0 C 7.058594 0 8.753906 1.859375 9.082031 4.976562 C 9.101562 5.160156 8.972656 5.324219 8.789062 5.34375 C 8.605469 5.363281 8.441406 5.230469 8.421875 5.046875 C 8.128906 2.261719 6.714844 0.664062 4.550781 0.664062 C 2.453125 0.664062 1 2.308594 0.667969 5.066406 C 0.648438 5.234375 0.503906 5.355469 0.339844 5.355469 Z M 0.339844 5.355469 "/>
<path fill-rule="nonzero" fill="rgb(30%,30%,30%)" fill-opacity="1" d="M 14.554688 12.21875 L 9.691406 8.53125 C 9.414062 8.320312 9.367188 7.933594 9.585938 7.671875 L 10.367188 6.730469 C 10.585938 6.46875 10.992188 6.421875 11.269531 6.632812 L 16.132812 10.320312 C 16.410156 10.53125 16.457031 10.917969 16.238281 11.183594 L 15.457031 12.121094 C 15.238281 12.386719 14.832031 12.429688 14.554688 12.21875 Z M 14.554688 12.21875 "/>
<path fill-rule="nonzero" fill="rgb(30%,30%,30%)" fill-opacity="1" d="M 16.867188 12.042969 L 16.773438 11.964844 L 16.566406 11.796875 L 16.214844 11.515625 L 15.707031 12.136719 L 16.070312 12.429688 L 15.15625 13.597656 L 12.804688 11.839844 C 12.585938 11.671875 12.273438 11.71875 12.109375 11.941406 L 12.101562 11.9375 L 11.796875 12.347656 C 11.648438 12.261719 11.457031 12.300781 11.355469 12.441406 L 8.808594 15.90625 C 8.726562 16.019531 8.75 16.175781 8.863281 16.257812 L 9.402344 16.65625 C 9.515625 16.738281 9.671875 16.710938 9.753906 16.601562 L 12.300781 13.136719 C 12.402344 12.996094 12.382812 12.804688 12.261719 12.6875 L 12.433594 12.460938 L 15.066406 14.445312 C 15.1875 14.546875 15.371094 14.523438 15.472656 14.398438 L 16.925781 12.539062 C 17.042969 12.382812 17.019531 12.164062 16.867188 12.042969 Z M 16.867188 12.042969 "/>
<path fill-rule="nonzero" fill="rgb(30%,30%,30%)" fill-opacity="1" d="M 4.5 5.105469 C 2.015625 5.105469 0 5.53125 0 6.054688 L 0 14.363281 L 0.0742188 14.363281 C 0.460938 14.804688 2.296875 15.140625 4.5 15.140625 C 6.707031 15.140625 8.539062 14.804688 8.925781 14.363281 L 9 14.363281 L 9 6.054688 C 9 5.53125 6.988281 5.105469 4.5 5.105469 Z M 7.539062 6.480469 C 7.871094 6.585938 8.0625 7.007812 8.085938 7.148438 C 8.191406 7.71875 8.378906 9.933594 7.808594 9.933594 C 7.472656 9.933594 7.5 9.589844 7.308594 9.589844 C 6.925781 9.589844 7.167969 11.601562 6.558594 11.601562 C 6.078125 11.601562 5.976562 10.175781 5.871094 9.570312 C 5.871094 9.570312 5.785156 10.59375 5.40625 10.59375 C 4.746094 10.59375 5.09375 8.5 4.816406 8.5 C 4.660156 8.5 4.628906 9.292969 4.347656 9.292969 C 4.039062 9.292969 3.84375 8.640625 3.917969 8.015625 C 3.976562 7.523438 4.054688 7.132812 3.777344 7.132812 C 3.5 7.132812 2.34375 7.132812 2.34375 6.957031 C 2.34375 6.648438 4.898438 6.707031 3.945312 6.707031 C 1.6875 6.707031 0.292969 6.429688 0.292969 6.09375 C 0.292969 5.753906 2.125 5.480469 4.382812 5.480469 C 6.640625 5.480469 8.472656 5.753906 8.472656 6.09375 C 8.472656 6.238281 8.121094 6.375 7.539062 6.480469 Z M 7.539062 6.480469 "/>
</g>
</svg>
