<?xml version="1.0" encoding="UTF-8"?>
<svg xmlns="http://www.w3.org/2000/svg" xmlns:xlink="http://www.w3.org/1999/xlink" width="11" height="9.503585" viewBox="0 0 11 9.503585">
<path fill-rule="nonzero" fill="rgb(30%,30%,30%)" fill-opacity="1" d="M 10.9375 7.882812 C 10.9375 7.882812 9.332031 3.332031 8.667969 3.332031 C 8.667969 3.332031 7.921875 3.460938 8.191406 4.332031 C 8.277344 4.425781 8.328125 4.546875 8.328125 4.675781 C 8.328125 4.945312 8.117188 5.164062 7.859375 5.164062 C 7.601562 5.164062 7.390625 4.945312 7.390625 4.675781 C 7.390625 4.632812 7.394531 4.589844 7.40625 4.550781 C 7.367188 4.15625 7.21875 3.300781 6.585938 3.332031 C 6.585938 3.332031 6.066406 3.332031 5.519531 3.332031 C 5.511719 3.332031 5.507812 3.332031 5.5 3.332031 C 5.492188 3.332031 5.488281 3.332031 5.480469 3.332031 C 4.933594 3.332031 4.414062 3.332031 4.414062 3.332031 C 3.78125 3.300781 3.632812 4.15625 3.59375 4.550781 C 3.605469 4.589844 3.609375 4.632812 3.609375 4.675781 C 3.609375 4.945312 3.398438 5.164062 3.140625 5.164062 C 2.882812 5.164062 2.671875 4.945312 2.671875 4.675781 C 2.671875 4.546875 2.722656 4.425781 2.808594 4.332031 C 3.078125 3.460938 2.332031 3.332031 2.332031 3.332031 C 1.667969 3.332031 0.0625 7.882812 0.0625 7.882812 C -0.1875 8.660156 0.347656 9.480469 1.132812 9.503906 C 1.144531 9.503906 1.15625 9.503906 1.167969 9.503906 L 9.832031 9.503906 C 9.84375 9.503906 9.855469 9.503906 9.867188 9.503906 C 10.652344 9.480469 11.1875 8.660156 10.9375 7.882812 Z M 10.9375 7.882812 "/>
<path fill-rule="nonzero" fill="rgb(30%,30%,30%)" fill-opacity="1" d="M 8 4.398438 L 8 3.523438 C 8 3.414062 7.992188 3.300781 7.980469 3.191406 L 7.980469 2.640625 C 7.980469 1.921875 7.734375 1.261719 7.289062 0.777344 C 6.828125 0.277344 6.1875 0 5.480469 0 C 4.777344 0 4.125 0.273438 3.652344 0.773438 C 3.1875 1.261719 2.929688 1.925781 2.929688 2.640625 C 2.929688 2.664062 2.929688 2.726562 2.929688 2.804688 C 2.921875 3.316406 2.921875 3.609375 2.933594 3.695312 C 2.933594 3.707031 2.9375 4.164062 2.945312 4.417969 C 2.847656 4.507812 2.816406 4.652344 2.867188 4.777344 C 2.917969 4.902344 3.042969 4.984375 3.175781 4.980469 C 3.3125 4.976562 3.429688 4.890625 3.476562 4.765625 C 3.523438 4.636719 3.484375 4.496094 3.382812 4.40625 C 3.382812 4.214844 3.386719 3.851562 3.386719 3.695312 C 3.390625 3.613281 3.390625 3.546875 3.390625 3.523438 C 3.390625 2.921875 3.601562 2.367188 3.988281 1.960938 C 4.378906 1.550781 4.914062 1.324219 5.5 1.324219 C 6.078125 1.324219 6.605469 1.550781 6.980469 1.957031 C 7.289062 2.292969 7.484375 2.734375 7.539062 3.238281 L 7.539062 3.679688 C 7.539062 3.691406 7.550781 4.199219 7.554688 4.433594 C 7.464844 4.53125 7.441406 4.675781 7.503906 4.796875 C 7.5625 4.917969 7.6875 4.988281 7.820312 4.976562 C 7.957031 4.96875 8.070312 4.875 8.109375 4.746094 C 8.148438 4.621094 8.101562 4.480469 8 4.398438 Z M 7.304688 1.660156 C 6.847656 1.160156 6.203125 0.882812 5.5 0.882812 C 4.792969 0.882812 4.144531 1.15625 3.671875 1.65625 C 3.613281 1.71875 3.554688 1.78125 3.503906 1.847656 C 3.605469 1.5625 3.761719 1.296875 3.972656 1.078125 C 4.363281 0.667969 4.898438 0.441406 5.480469 0.441406 C 6.0625 0.441406 6.585938 0.667969 6.964844 1.074219 C 7.140625 1.269531 7.277344 1.492188 7.371094 1.734375 C 7.351562 1.710938 7.328125 1.683594 7.304688 1.660156 Z M 7.304688 1.660156 "/>
</svg>
