<?xml version="1.0" encoding="UTF-8" standalone="no"?>
<!-- Created with Inkscape (http://www.inkscape.org/) -->

<svg
   xmlns:dc="http://purl.org/dc/elements/1.1/"
   xmlns:cc="http://creativecommons.org/ns#"
   xmlns:rdf="http://www.w3.org/1999/02/22-rdf-syntax-ns#"
   xmlns:svg="http://www.w3.org/2000/svg"
   xmlns="http://www.w3.org/2000/svg"
   xmlns:xlink="http://www.w3.org/1999/xlink"
   xmlns:sodipodi="http://sodipodi.sourceforge.net/DTD/sodipodi-0.dtd"
   xmlns:inkscape="http://www.inkscape.org/namespaces/inkscape"
   width="30px"
   height="30px"
   version="1.1"
   id="svg8"
   inkscape:version="0.92.4 5da689c313, 2019-01-14"
   sodipodi:docname="container.svg">
  <defs
     id="defs2" />
  <sodipodi:namedview
     id="base"
     pagecolor="#ffffff"
     bordercolor="#666666"
     borderopacity="1.0"
     inkscape:pageopacity="0.0"
     inkscape:pageshadow="2"
     inkscape:zoom="13.049334"
     inkscape:cx="18.679046"
     inkscape:cy="12.165829"
     inkscape:document-units="px"
     inkscape:current-layer="layer1"
     showgrid="false"
     inkscape:snap-page="false"
     units="px"
     inkscape:window-width="1884"
     inkscape:window-height="1061"
     inkscape:window-x="0"
     inkscape:window-y="0"
     inkscape:window-maximized="1"
     fit-margin-top="0"
     fit-margin-left="0"
     fit-margin-right="0"
     fit-margin-bottom="0" />
  <metadata
     id="metadata5">
    <rdf:RDF>
      <cc:Work
         rdf:about="">
        <dc:format>image/svg+xml</dc:format>
        <dc:type
           rdf:resource="http://purl.org/dc/dcmitype/StillImage" />
        <dc:title></dc:title>
      </cc:Work>
    </rdf:RDF>
  </metadata>
    <circle
       style="color:#000000;clip-rule:nonzero;display:inline;overflow:visible;visibility:visible;opacity:1;isolation:auto;mix-blend-mode:normal;color-interpolation:sRGB;color-interpolation-filters:linearRGB;solid-color:#000000;solid-opacity:1;vector-effect:none;fill:#808080;fill-opacity:1;fill-rule:evenodd;stroke:#ffffff;stroke-width:1;stroke-linecap:butt;stroke-linejoin:miter;stroke-miterlimit:4;stroke-dasharray:none;stroke-dashoffset:0;stroke-opacity:1;marker:none;color-rendering:auto;image-rendering:auto;shape-rendering:auto;text-rendering:auto;enable-background:accumulate"
       id="path815"
       cx="15"
       cy="15"
       r="14.5" />
<g transform="translate(6.5,10.5)"><path fill-rule="nonzero" fill="#FFFFFF" fill-opacity="1" d="M 14.308594 3.457031 C 13.941406 3.457031 13.582031 3.527344 13.25 3.671875 L 12.296875 2.191406 L 12.609375 2.203125 L 12.609375 0.539062 C 11.828125 0.539062 11.515625 0.871094 11.390625 1.109375 L 9.378906 0.0390625 C 9.207031 -0.0507812 8.996094 0.015625 8.902344 0.1875 L 8.808594 0.363281 C 8.71875 0.535156 8.785156 0.746094 8.953125 0.835938 L 10.015625 1.402344 C 6.242188 1.863281 6.089844 3.0625 5.957031 2.972656 C 5.347656 2.566406 2.671875 2.527344 2.671875 2.527344 L 2.671875 3.132812 C 3.371094 3.035156 4.023438 3.175781 4.5625 3.519531 C 4.550781 3.527344 4.542969 3.53125 4.535156 3.539062 L 4.191406 3.910156 C 3.171875 3.226562 1.816406 3.320312 0.898438 4.136719 C -0.0195312 4.957031 -0.265625 6.292969 0.300781 7.386719 C 0.863281 8.476562 2.097656 9.046875 3.292969 8.773438 C 4.492188 8.5 5.351562 7.449219 5.382812 6.21875 L 5.960938 6.148438 C 6.070312 6.371094 8.351562 6.78125 10.378906 6.582031 C 10.949219 6.527344 11.105469 5.8125 11.105469 5.8125 L 11.230469 2.40625 L 11.289062 2.199219 L 12.527344 4.128906 C 11.550781 4.988281 11.332031 6.421875 12 7.535156 C 12.671875 8.652344 14.042969 9.125 15.257812 8.667969 C 16.476562 8.207031 17.191406 6.945312 16.957031 5.664062 C 16.722656 4.386719 15.609375 3.457031 14.308594 3.457031 Z M 4.265625 5.140625 C 4.335938 5.246094 4.390625 5.359375 4.4375 5.472656 L 3.898438 5.539062 Z M 2.691406 8.019531 C 1.90625 8.019531 1.203125 7.53125 0.933594 6.792969 C 0.664062 6.054688 0.882812 5.222656 1.484375 4.71875 C 2.085938 4.210938 2.941406 4.136719 3.621094 4.527344 L 2.429688 5.816406 C 2.289062 5.96875 2.296875 6.207031 2.449219 6.347656 L 2.550781 6.441406 C 2.660156 6.542969 2.820312 6.570312 2.957031 6.507812 L 4.554688 6.316406 C 4.46875 7.28125 3.660156 8.019531 2.691406 8.019531 Z M 5.273438 5.375 C 5.179688 5.066406 5.035156 4.777344 4.839844 4.523438 L 5.1875 4.144531 C 5.199219 4.132812 5.207031 4.121094 5.214844 4.109375 C 5.480469 4.4375 5.683594 4.839844 5.8125 5.308594 Z M 14.269531 8.019531 C 13.511719 8.019531 12.824219 7.558594 12.539062 6.855469 C 12.25 6.148438 12.421875 5.339844 12.964844 4.808594 L 13.9375 6.320312 C 14.0625 6.515625 14.328125 6.574219 14.523438 6.445312 C 14.722656 6.320312 14.78125 6.054688 14.652344 5.859375 L 13.695312 4.367188 C 14.398438 4.140625 15.167969 4.347656 15.664062 4.898438 C 16.15625 5.449219 16.28125 6.234375 15.980469 6.910156 C 15.679688 7.585938 15.011719 8.019531 14.269531 8.019531 Z M 14.269531 8.019531 "/>
</g>
</svg>
