<?xml version="1.0" encoding="UTF-8" standalone="no"?>
<!-- Created with Inkscape (http://www.inkscape.org/) -->

<svg
   xmlns:dc="http://purl.org/dc/elements/1.1/"
   xmlns:cc="http://creativecommons.org/ns#"
   xmlns:rdf="http://www.w3.org/1999/02/22-rdf-syntax-ns#"
   xmlns:svg="http://www.w3.org/2000/svg"
   xmlns="http://www.w3.org/2000/svg"
   xmlns:xlink="http://www.w3.org/1999/xlink"
   xmlns:sodipodi="http://sodipodi.sourceforge.net/DTD/sodipodi-0.dtd"
   xmlns:inkscape="http://www.inkscape.org/namespaces/inkscape"
   width="30px"
   height="30px"
   version="1.1"
   id="svg8"
   inkscape:version="0.92.4 5da689c313, 2019-01-14"
   sodipodi:docname="container.svg">
  <defs
     id="defs2" />
  <sodipodi:namedview
     id="base"
     pagecolor="#ffffff"
     bordercolor="#666666"
     borderopacity="1.0"
     inkscape:pageopacity="0.0"
     inkscape:pageshadow="2"
     inkscape:zoom="13.049334"
     inkscape:cx="18.679046"
     inkscape:cy="12.165829"
     inkscape:document-units="px"
     inkscape:current-layer="layer1"
     showgrid="false"
     inkscape:snap-page="false"
     units="px"
     inkscape:window-width="1884"
     inkscape:window-height="1061"
     inkscape:window-x="0"
     inkscape:window-y="0"
     inkscape:window-maximized="1"
     fit-margin-top="0"
     fit-margin-left="0"
     fit-margin-right="0"
     fit-margin-bottom="0" />
  <metadata
     id="metadata5">
    <rdf:RDF>
      <cc:Work
         rdf:about="">
        <dc:format>image/svg+xml</dc:format>
        <dc:type
           rdf:resource="http://purl.org/dc/dcmitype/StillImage" />
        <dc:title></dc:title>
      </cc:Work>
    </rdf:RDF>
  </metadata>
    <circle
       style="color:#000000;clip-rule:nonzero;display:inline;overflow:visible;visibility:visible;opacity:1;isolation:auto;mix-blend-mode:normal;color-interpolation:sRGB;color-interpolation-filters:linearRGB;solid-color:#000000;solid-opacity:1;vector-effect:none;fill:#808080;fill-opacity:1;fill-rule:evenodd;stroke:#ffffff;stroke-width:1;stroke-linecap:butt;stroke-linejoin:miter;stroke-miterlimit:4;stroke-dasharray:none;stroke-dashoffset:0;stroke-opacity:1;marker:none;color-rendering:auto;image-rendering:auto;shape-rendering:auto;text-rendering:auto;enable-background:accumulate"
       id="path815"
       cx="15"
       cy="15"
       r="14.5" />
<g transform="translate(8.5,6.5)"><path fill-rule="nonzero" fill="#FFFFFF" fill-opacity="1" d="M 12.566406 4.664062 L 9.816406 4.664062 C 9.574219 1.671875 8.414062 0.0273438 6.484375 0 C 5.796875 -0.0078125 5.191406 0.238281 4.683594 0.738281 C 3.886719 1.523438 3.386719 2.894531 3.234375 4.664062 L 0.476562 4.664062 L 0 16.519531 C -0.00390625 16.648438 0.0429688 16.769531 0.128906 16.859375 C 0.214844 16.949219 0.335938 17 0.460938 17 L 12.609375 16.972656 C 12.734375 16.972656 12.855469 16.921875 12.941406 16.832031 C 13.027344 16.742188 13.074219 16.621094 13.070312 16.492188 Z M 5.148438 1.210938 C 5.527344 0.839844 5.972656 0.65625 6.476562 0.664062 C 7.589844 0.679688 8.894531 1.421875 9.152344 4.664062 L 3.898438 4.664062 C 4.046875 3.09375 4.484375 1.867188 5.148438 1.210938 Z M 3.484375 6.742188 C 3.117188 6.714844 2.816406 6.441406 2.746094 6.082031 C 2.679688 5.71875 2.863281 5.359375 3.195312 5.199219 C 3.1875 5.417969 3.183594 5.640625 3.179688 5.871094 C 3.179688 6.042969 3.304688 6.191406 3.476562 6.210938 C 3.570312 6.222656 3.664062 6.191406 3.734375 6.128906 C 3.804688 6.066406 3.84375 5.976562 3.84375 5.878906 C 3.84375 5.644531 3.851562 5.414062 3.863281 5.1875 C 4.226562 5.34375 4.425781 5.738281 4.332031 6.125 C 4.238281 6.507812 3.878906 6.769531 3.484375 6.742188 Z M 9.457031 6.742188 C 9.089844 6.714844 8.785156 6.4375 8.71875 6.074219 C 8.652344 5.707031 8.84375 5.34375 9.183594 5.191406 C 9.191406 5.410156 9.199219 5.636719 9.199219 5.871094 C 9.199219 6.042969 9.324219 6.191406 9.492188 6.210938 C 9.585938 6.222656 9.679688 6.191406 9.75 6.128906 C 9.820312 6.066406 9.863281 5.976562 9.863281 5.878906 C 9.863281 5.644531 9.855469 5.414062 9.847656 5.191406 C 10.207031 5.351562 10.398438 5.75 10.304688 6.128906 C 10.207031 6.511719 9.851562 6.769531 9.457031 6.742188 Z M 9.457031 6.742188 "/>
</g>
</svg>
