<?xml version="1.0" encoding="UTF-8" standalone="no"?>
<!-- Created with Inkscape (http://www.inkscape.org/) -->

<svg
   xmlns:dc="http://purl.org/dc/elements/1.1/"
   xmlns:cc="http://creativecommons.org/ns#"
   xmlns:rdf="http://www.w3.org/1999/02/22-rdf-syntax-ns#"
   xmlns:svg="http://www.w3.org/2000/svg"
   xmlns="http://www.w3.org/2000/svg"
   xmlns:xlink="http://www.w3.org/1999/xlink"
   xmlns:sodipodi="http://sodipodi.sourceforge.net/DTD/sodipodi-0.dtd"
   xmlns:inkscape="http://www.inkscape.org/namespaces/inkscape"
   width="30px"
   height="30px"
   version="1.1"
   id="svg8"
   inkscape:version="0.92.4 5da689c313, 2019-01-14"
   sodipodi:docname="container.svg">
  <defs
     id="defs2" />
  <sodipodi:namedview
     id="base"
     pagecolor="#ffffff"
     bordercolor="#666666"
     borderopacity="1.0"
     inkscape:pageopacity="0.0"
     inkscape:pageshadow="2"
     inkscape:zoom="13.049334"
     inkscape:cx="18.679046"
     inkscape:cy="12.165829"
     inkscape:document-units="px"
     inkscape:current-layer="layer1"
     showgrid="false"
     inkscape:snap-page="false"
     units="px"
     inkscape:window-width="1884"
     inkscape:window-height="1061"
     inkscape:window-x="0"
     inkscape:window-y="0"
     inkscape:window-maximized="1"
     fit-margin-top="0"
     fit-margin-left="0"
     fit-margin-right="0"
     fit-margin-bottom="0" />
  <metadata
     id="metadata5">
    <rdf:RDF>
      <cc:Work
         rdf:about="">
        <dc:format>image/svg+xml</dc:format>
        <dc:type
           rdf:resource="http://purl.org/dc/dcmitype/StillImage" />
        <dc:title></dc:title>
      </cc:Work>
    </rdf:RDF>
  </metadata>
    <circle
       style="color:#000000;clip-rule:nonzero;display:inline;overflow:visible;visibility:visible;opacity:1;isolation:auto;mix-blend-mode:normal;color-interpolation:sRGB;color-interpolation-filters:linearRGB;solid-color:#000000;solid-opacity:1;vector-effect:none;fill:#808080;fill-opacity:1;fill-rule:evenodd;stroke:#ffffff;stroke-width:1;stroke-linecap:butt;stroke-linejoin:miter;stroke-miterlimit:4;stroke-dasharray:none;stroke-dashoffset:0;stroke-opacity:1;marker:none;color-rendering:auto;image-rendering:auto;shape-rendering:auto;text-rendering:auto;enable-background:accumulate"
       id="path815"
       cx="15"
       cy="15"
       r="14.5" />
<g transform="translate(6.5,6.5)"><path fill-rule="nonzero" fill="#FFFFFF" fill-opacity="1" d="M 13.582031 15.097656 L 13.582031 5.300781 L 16.574219 5.300781 L 15.761719 0 L 10.773438 0 L 9.871094 5.300781 L 12.917969 5.300781 L 12.917969 15.09375 C 11.28125 15.132812 10 15.484375 10 15.910156 C 10 16.359375 11.445312 16.726562 13.226562 16.726562 C 15.007812 16.726562 16.453125 16.359375 16.453125 15.910156 C 16.453125 15.488281 15.199219 15.140625 13.582031 15.097656 Z M 13.582031 15.097656 "/>
<path fill-rule="nonzero" fill="#FFFFFF" fill-opacity="1" d="M 9.300781 5.878906 L 6.585938 5.878906 L 6.585938 5.617188 L 6.097656 5.617188 L 6.097656 5.878906 L 3.484375 5.878906 C 2.5625 5.882812 1.820312 6.625 1.816406 7.542969 L 1.820312 7.773438 C 1.894531 7.859375 2.507812 7.949219 2.621094 7.96875 C 2.769531 7.988281 4.367188 8.085938 6.121094 8.132812 L 6.121094 11.980469 C 6.121094 11.980469 6.140625 14.179688 5.4375 15.097656 C 5.414062 15.125 5.378906 15.144531 5.34375 15.152344 C 4.683594 15.25 4.183594 15.457031 4.128906 15.75 C 3.53125 15.644531 2.441406 15.464844 2.003906 15.441406 C 1.429688 15.410156 0.898438 15.933594 0.507812 16.316406 C 0.460938 16.363281 0.417969 16.40625 0.378906 16.445312 C 0.28125 16.539062 0.144531 16.65625 0 16.785156 L 0 17 C 0.1875 16.839844 0.367188 16.679688 0.492188 16.5625 C 0.53125 16.523438 0.574219 16.480469 0.621094 16.433594 C 0.988281 16.074219 1.496094 15.578125 1.996094 15.605469 C 2.429688 15.628906 3.558594 15.816406 4.140625 15.917969 C 4.253906 16.28125 4.886719 16.816406 6.308594 16.84375 C 7.890625 16.878906 8.421875 16.25 8.398438 15.898438 C 8.375 15.539062 7.859375 15.265625 7.136719 15.148438 C 7.101562 15.140625 7.066406 15.121094 7.046875 15.089844 C 6.304688 14.105469 6.453125 12.109375 6.464844 11.988281 C 6.464844 11.984375 6.464844 11.980469 6.464844 11.976562 L 6.464844 8.140625 C 7.8125 8.121094 10.839844 7.976562 10.910156 7.714844 L 10.96875 7.542969 C 10.964844 6.625 10.21875 5.882812 9.300781 5.878906 Z M 9.300781 5.878906 "/>
</g>
</svg>
