<?xml version="1.0" encoding="UTF-8" standalone="no"?>
<!-- Created with Inkscape (http://www.inkscape.org/) -->

<svg
   xmlns:dc="http://purl.org/dc/elements/1.1/"
   xmlns:cc="http://creativecommons.org/ns#"
   xmlns:rdf="http://www.w3.org/1999/02/22-rdf-syntax-ns#"
   xmlns:svg="http://www.w3.org/2000/svg"
   xmlns="http://www.w3.org/2000/svg"
   xmlns:xlink="http://www.w3.org/1999/xlink"
   xmlns:sodipodi="http://sodipodi.sourceforge.net/DTD/sodipodi-0.dtd"
   xmlns:inkscape="http://www.inkscape.org/namespaces/inkscape"
   width="30px"
   height="30px"
   version="1.1"
   id="svg8"
   inkscape:version="0.92.4 5da689c313, 2019-01-14"
   sodipodi:docname="container.svg">
  <defs
     id="defs2" />
  <sodipodi:namedview
     id="base"
     pagecolor="#ffffff"
     bordercolor="#666666"
     borderopacity="1.0"
     inkscape:pageopacity="0.0"
     inkscape:pageshadow="2"
     inkscape:zoom="13.049334"
     inkscape:cx="18.679046"
     inkscape:cy="12.165829"
     inkscape:document-units="px"
     inkscape:current-layer="layer1"
     showgrid="false"
     inkscape:snap-page="false"
     units="px"
     inkscape:window-width="1884"
     inkscape:window-height="1061"
     inkscape:window-x="0"
     inkscape:window-y="0"
     inkscape:window-maximized="1"
     fit-margin-top="0"
     fit-margin-left="0"
     fit-margin-right="0"
     fit-margin-bottom="0" />
  <metadata
     id="metadata5">
    <rdf:RDF>
      <cc:Work
         rdf:about="">
        <dc:format>image/svg+xml</dc:format>
        <dc:type
           rdf:resource="http://purl.org/dc/dcmitype/StillImage" />
        <dc:title></dc:title>
      </cc:Work>
    </rdf:RDF>
  </metadata>
    <circle
       style="color:#000000;clip-rule:nonzero;display:inline;overflow:visible;visibility:visible;opacity:1;isolation:auto;mix-blend-mode:normal;color-interpolation:sRGB;color-interpolation-filters:linearRGB;solid-color:#000000;solid-opacity:1;vector-effect:none;fill:#808080;fill-opacity:1;fill-rule:evenodd;stroke:#ffffff;stroke-width:1;stroke-linecap:butt;stroke-linejoin:miter;stroke-miterlimit:4;stroke-dasharray:none;stroke-dashoffset:0;stroke-opacity:1;marker:none;color-rendering:auto;image-rendering:auto;shape-rendering:auto;text-rendering:auto;enable-background:accumulate"
       id="path815"
       cx="15"
       cy="15"
       r="14.5" />
<g transform="translate(6.5,7.5)"><path fill-rule="nonzero" fill="#FFFFFF" fill-opacity="1" d="M 8.023438 4.742188 C 8 4.738281 7.976562 4.734375 7.957031 4.730469 C 7.097656 4.589844 6.21875 4.59375 5.359375 4.734375 C 5.347656 4.734375 5.335938 4.738281 5.324219 4.738281 C 2.285156 5.257812 0 7.484375 0 10.15625 C 0 12.519531 1.785156 14.535156 4.300781 15.328125 L 9.046875 15.328125 C 11.558594 14.535156 13.347656 12.519531 13.347656 10.15625 C 13.347656 7.484375 11.0625 5.257812 8.023438 4.742188 Z M 8.023438 4.742188 "/>
<path fill-rule="nonzero" fill="#FFFFFF" fill-opacity="1" d="M 13.722656 0 C 12.066406 0 10.695312 0.792969 10.476562 1.828125 L 7.980469 1.828125 L 7.980469 0.171875 L 5.359375 0.171875 L 5.359375 1.828125 L 4.507812 1.828125 L 4.507812 2.40625 L 5.359375 2.40625 C 5.359375 2.40625 5.347656 4.128906 5.359375 4.152344 C 5.792969 4.082031 6.234375 4.046875 6.671875 4.046875 C 7.105469 4.046875 7.539062 4.082031 7.96875 4.148438 L 7.96875 2.40625 L 10.476562 2.40625 C 10.695312 3.4375 12.066406 4.234375 13.722656 4.234375 C 15.53125 4.234375 17 3.285156 17 2.117188 C 17 0.949219 15.53125 0 13.722656 0 Z M 13.722656 0 "/>
</g>
</svg>
