<?xml version="1.0" encoding="UTF-8" standalone="no"?>
<!-- Created with Inkscape (http://www.inkscape.org/) -->

<svg
   xmlns:dc="http://purl.org/dc/elements/1.1/"
   xmlns:cc="http://creativecommons.org/ns#"
   xmlns:rdf="http://www.w3.org/1999/02/22-rdf-syntax-ns#"
   xmlns:svg="http://www.w3.org/2000/svg"
   xmlns="http://www.w3.org/2000/svg"
   xmlns:xlink="http://www.w3.org/1999/xlink"
   xmlns:sodipodi="http://sodipodi.sourceforge.net/DTD/sodipodi-0.dtd"
   xmlns:inkscape="http://www.inkscape.org/namespaces/inkscape"
   width="30px"
   height="30px"
   version="1.1"
   id="svg8"
   inkscape:version="0.92.4 5da689c313, 2019-01-14"
   sodipodi:docname="container.svg">
  <defs
     id="defs2" />
  <sodipodi:namedview
     id="base"
     pagecolor="#ffffff"
     bordercolor="#666666"
     borderopacity="1.0"
     inkscape:pageopacity="0.0"
     inkscape:pageshadow="2"
     inkscape:zoom="13.049334"
     inkscape:cx="18.679046"
     inkscape:cy="12.165829"
     inkscape:document-units="px"
     inkscape:current-layer="layer1"
     showgrid="false"
     inkscape:snap-page="false"
     units="px"
     inkscape:window-width="1884"
     inkscape:window-height="1061"
     inkscape:window-x="0"
     inkscape:window-y="0"
     inkscape:window-maximized="1"
     fit-margin-top="0"
     fit-margin-left="0"
     fit-margin-right="0"
     fit-margin-bottom="0" />
  <metadata
     id="metadata5">
    <rdf:RDF>
      <cc:Work
         rdf:about="">
        <dc:format>image/svg+xml</dc:format>
        <dc:type
           rdf:resource="http://purl.org/dc/dcmitype/StillImage" />
        <dc:title></dc:title>
      </cc:Work>
    </rdf:RDF>
  </metadata>
    <circle
       style="color:#000000;clip-rule:nonzero;display:inline;overflow:visible;visibility:visible;opacity:1;isolation:auto;mix-blend-mode:normal;color-interpolation:sRGB;color-interpolation-filters:linearRGB;solid-color:#000000;solid-opacity:1;vector-effect:none;fill:#ffffff;fill-opacity:1;fill-rule:evenodd;stroke:#808080;stroke-width:1;stroke-linecap:butt;stroke-linejoin:miter;stroke-miterlimit:4;stroke-dasharray:none;stroke-dashoffset:0;stroke-opacity:1;marker:none;color-rendering:auto;image-rendering:auto;shape-rendering:auto;text-rendering:auto;enable-background:accumulate"
       id="path815"
       cx="15"
       cy="15"
       r="14.5" />
<g transform="translate(6.5,8.0)"><path fill-rule="nonzero" fill="rgb(30%,30%,30%)" fill-opacity="1" d="M 0.015625 10.109375 L 2.023438 4.457031 C 2.070312 4.316406 2 4.160156 1.859375 4.109375 C 1.558594 3.996094 1.359375 3.707031 1.359375 3.386719 L 1.359375 1.046875 C 1.359375 0.46875 1.824219 0 2.402344 0 L 14.945312 0 C 16.078125 0 15.90625 0 15.90625 0.691406 L 16.335938 0.691406 L 16.335938 2.078125 L 15.929688 2.078125 C 15.90625 2.769531 15.90625 2.769531 14.945312 2.769531 L 9.175781 2.769531 C 9.09375 2.769531 9.015625 2.808594 8.960938 2.871094 L 7.855469 4.21875 C 7.800781 4.289062 7.679688 4.675781 7.765625 5.023438 C 7.851562 5.367188 8.199219 5.976562 8.199219 5.976562 C 8.199219 5.976562 7.523438 5.855469 7.214844 5.234375 C 7.179688 5.160156 7.15625 5.082031 7.144531 5 L 7.066406 4.363281 C 6.996094 4.257812 6.855469 4.214844 6.738281 4.261719 C 6.660156 4.296875 6.597656 4.363281 6.574219 4.445312 L 5.96875 6.339844 C 6.792969 6.363281 8.179688 6.402344 8.5625 6.40625 C 8.71875 6.199219 8.980469 5.328125 9.175781 4.496094 L 8.632812 4.503906 L 9.324219 3.464844 L 15.558594 3.464844 L 15.386719 4.417969 L 9.710938 4.488281 C 9.167969 6.925781 8.808594 6.925781 8.632812 6.925781 C 8.367188 6.925781 6.65625 6.878906 5.804688 6.855469 L 4.710938 10.285156 C 4.671875 10.398438 4.566406 10.476562 4.445312 10.476562 L 0.273438 10.476562 C 0.1875 10.476562 0.101562 10.433594 0.0507812 10.359375 C 0 10.289062 -0.015625 10.195312 0.015625 10.109375 Z M 17 9.859375 L 16.558594 9.859375 C 16.484375 11.601562 15.082031 13.003906 13.34375 13.078125 L 13.34375 13.683594 L 13.011719 13.683594 L 13.011719 13.074219 C 11.289062 12.980469 9.90625 11.585938 9.835938 9.859375 L 9.351562 9.859375 L 9.351562 9.695312 L 9.832031 9.695312 C 9.84375 7.910156 11.246094 6.449219 13.011719 6.355469 L 13.011719 5.871094 L 13.34375 5.871094 L 13.34375 6.351562 C 15.125 6.429688 16.550781 7.894531 16.5625 9.695312 L 17 9.695312 Z M 13.34375 7.453125 C 14.527344 7.53125 15.449219 8.507812 15.460938 9.695312 L 16.1875 9.695312 C 16.179688 8.101562 14.917969 6.800781 13.34375 6.726562 Z M 10.203125 9.695312 L 10.933594 9.695312 C 10.941406 8.523438 11.84375 7.554688 13.011719 7.457031 L 13.011719 6.730469 C 11.453125 6.824219 10.214844 8.117188 10.203125 9.695312 Z M 13.011719 11.972656 C 11.890625 11.878906 11.007812 10.980469 10.9375 9.859375 L 10.207031 9.859375 C 10.28125 11.382812 11.496094 12.605469 13.011719 12.699219 Z M 14.574219 9.714844 C 14.574219 8.953125 13.957031 8.335938 13.195312 8.335938 C 12.4375 8.335938 11.820312 8.953125 11.820312 9.714844 C 11.820312 10.476562 12.4375 11.09375 13.195312 11.09375 C 13.957031 11.09375 14.574219 10.476562 14.574219 9.714844 Z M 16.1875 9.859375 L 15.457031 9.859375 C 15.382812 10.996094 14.480469 11.902344 13.34375 11.976562 L 13.34375 12.703125 C 14.878906 12.628906 16.113281 11.394531 16.1875 9.859375 Z M 13.195312 8.78125 C 12.703125 8.78125 12.304688 9.179688 12.304688 9.671875 C 12.304688 10.167969 12.703125 10.566406 13.195312 10.566406 C 13.691406 10.566406 14.089844 10.167969 14.089844 9.671875 C 14.089844 9.179688 13.691406 8.78125 13.195312 8.78125 Z M 13.195312 8.78125 "/>
</g>
</svg>
