<?xml version="1.0" encoding="UTF-8" standalone="no"?>
<!-- Created with Inkscape (http://www.inkscape.org/) -->

<svg
   xmlns:dc="http://purl.org/dc/elements/1.1/"
   xmlns:cc="http://creativecommons.org/ns#"
   xmlns:rdf="http://www.w3.org/1999/02/22-rdf-syntax-ns#"
   xmlns:svg="http://www.w3.org/2000/svg"
   xmlns="http://www.w3.org/2000/svg"
   xmlns:xlink="http://www.w3.org/1999/xlink"
   xmlns:sodipodi="http://sodipodi.sourceforge.net/DTD/sodipodi-0.dtd"
   xmlns:inkscape="http://www.inkscape.org/namespaces/inkscape"
   width="30px"
   height="30px"
   version="1.1"
   id="svg8"
   inkscape:version="0.92.4 5da689c313, 2019-01-14"
   sodipodi:docname="container.svg">
  <defs
     id="defs2" />
  <sodipodi:namedview
     id="base"
     pagecolor="#ffffff"
     bordercolor="#666666"
     borderopacity="1.0"
     inkscape:pageopacity="0.0"
     inkscape:pageshadow="2"
     inkscape:zoom="13.049334"
     inkscape:cx="18.679046"
     inkscape:cy="12.165829"
     inkscape:document-units="px"
     inkscape:current-layer="layer1"
     showgrid="false"
     inkscape:snap-page="false"
     units="px"
     inkscape:window-width="1884"
     inkscape:window-height="1061"
     inkscape:window-x="0"
     inkscape:window-y="0"
     inkscape:window-maximized="1"
     fit-margin-top="0"
     fit-margin-left="0"
     fit-margin-right="0"
     fit-margin-bottom="0" />
  <metadata
     id="metadata5">
    <rdf:RDF>
      <cc:Work
         rdf:about="">
        <dc:format>image/svg+xml</dc:format>
        <dc:type
           rdf:resource="http://purl.org/dc/dcmitype/StillImage" />
        <dc:title></dc:title>
      </cc:Work>
    </rdf:RDF>
  </metadata>
    <circle
       style="color:#000000;clip-rule:nonzero;display:inline;overflow:visible;visibility:visible;opacity:1;isolation:auto;mix-blend-mode:normal;color-interpolation:sRGB;color-interpolation-filters:linearRGB;solid-color:#000000;solid-opacity:1;vector-effect:none;fill:#808080;fill-opacity:1;fill-rule:evenodd;stroke:#ffffff;stroke-width:1;stroke-linecap:butt;stroke-linejoin:miter;stroke-miterlimit:4;stroke-dasharray:none;stroke-dashoffset:0;stroke-opacity:1;marker:none;color-rendering:auto;image-rendering:auto;shape-rendering:auto;text-rendering:auto;enable-background:accumulate"
       id="path815"
       cx="15"
       cy="15"
       r="14.5" />
<g transform="translate(7.5,6.5)"><path fill-rule="nonzero" fill="#FFFFFF" fill-opacity="1" d="M 8.875 10.046875 C 8.875 11.246094 7.902344 12.21875 6.703125 12.21875 C 5.503906 12.21875 4.53125 11.246094 4.53125 10.046875 C 4.53125 8.847656 5.503906 7.875 6.703125 7.875 C 7.902344 7.875 8.875 8.847656 8.875 10.046875 Z M 8.875 10.046875 "/>
<path fill-rule="nonzero" fill="#FFFFFF" fill-opacity="1" d="M 9.976562 9.8125 C 9.667969 9.8125 9.410156 9.578125 9.382812 9.273438 C 9.351562 8.964844 9.5625 8.6875 9.863281 8.628906 L 14.777344 7.6875 C 15.101562 7.625 15.414062 7.835938 15.476562 8.160156 C 15.539062 8.484375 15.328125 8.796875 15.003906 8.859375 L 10.085938 9.800781 C 10.050781 9.808594 10.011719 9.8125 9.976562 9.8125 Z M 9.976562 9.8125 "/>
<path fill-rule="nonzero" fill="#FFFFFF" fill-opacity="1" d="M 14.492188 13.4375 C 14.429688 13.4375 14.363281 13.425781 14.300781 13.40625 L 9.882812 11.917969 C 9.570312 11.8125 9.402344 11.472656 9.507812 11.160156 C 9.613281 10.847656 9.953125 10.679688 10.265625 10.785156 L 14.683594 12.273438 C 14.960938 12.367188 15.128906 12.648438 15.082031 12.9375 C 15.035156 13.226562 14.785156 13.4375 14.492188 13.4375 Z M 14.492188 13.4375 "/>
<path fill-rule="nonzero" fill="#FFFFFF" fill-opacity="1" d="M 9.132812 8.175781 C 8.886719 8.175781 8.667969 8.027344 8.578125 7.796875 C 8.484375 7.570312 8.542969 7.3125 8.722656 7.144531 L 12.445312 3.621094 C 12.683594 3.394531 13.0625 3.402344 13.289062 3.640625 C 13.515625 3.882812 13.503906 4.257812 13.265625 4.488281 L 9.542969 8.011719 C 9.429688 8.117188 9.285156 8.175781 9.132812 8.175781 Z M 9.132812 8.175781 "/>
<path fill-rule="nonzero" fill="#FFFFFF" fill-opacity="1" d="M 5.5625 17 C 5.382812 17 5.207031 16.988281 5.03125 16.964844 C 4.019531 16.835938 3.285156 16.285156 2.855469 15.332031 C 2.511719 14.574219 2.398438 13.660156 2.300781 12.851562 C 2.210938 12.117188 2.117188 11.359375 1.875 11.019531 C 0.824219 9.554688 0.207031 8.125 0.0429688 6.765625 C -0.101562 5.542969 0.113281 4.402344 0.683594 3.367188 C 1.417969 2.03125 2.550781 1.226562 3.367188 0.789062 C 4.402344 0.238281 5.53125 -0.046875 6.460938 0.0078125 C 8.417969 0.121094 9.320312 1.105469 9.734375 1.910156 C 10.171875 2.753906 10.15625 3.554688 10.152344 3.640625 C 10.140625 3.960938 9.871094 4.210938 9.550781 4.199219 C 9.230469 4.1875 8.980469 3.921875 8.992188 3.601562 C 8.992188 3.582031 9 2.988281 8.683594 2.40625 C 8.277344 1.648438 7.507812 1.230469 6.394531 1.164062 C 5.679688 1.125 4.753906 1.367188 3.917969 1.8125 C 2.953125 2.328125 2.167969 3.078125 1.699219 3.929688 C 0.707031 5.726562 1.09375 7.945312 2.816406 10.339844 C 3.234375 10.921875 3.339844 11.789062 3.453125 12.710938 C 3.546875 13.472656 3.644531 14.257812 3.914062 14.851562 C 4.179688 15.4375 4.566406 15.734375 5.179688 15.8125 C 5.796875 15.894531 6.289062 15.785156 6.648438 15.492188 C 7.261719 14.984375 7.335938 14.070312 7.339844 14.0625 C 7.359375 13.742188 7.636719 13.5 7.957031 13.519531 C 8.273438 13.542969 8.515625 13.816406 8.496094 14.136719 C 8.492188 14.195312 8.390625 15.558594 7.382812 16.386719 C 6.890625 16.792969 6.277344 17 5.5625 17 Z M 5.5625 17 "/>
</g>
</svg>
