<?xml version="1.0" encoding="UTF-8"?>
<svg xmlns="http://www.w3.org/2000/svg" xmlns:xlink="http://www.w3.org/1999/xlink" width="10.725459" height="11" viewBox="0 0 10.725459 11">
<path fill-rule="nonzero" fill="rgb(30%,30%,30%)" fill-opacity="1" d="M 8.789062 9.769531 L 8.789062 3.429688 L 10.726562 3.429688 L 10.199219 0 L 6.972656 0 L 6.386719 3.429688 L 8.359375 3.429688 L 8.359375 9.765625 C 7.300781 9.792969 6.46875 10.019531 6.46875 10.292969 C 6.46875 10.585938 7.40625 10.824219 8.558594 10.824219 C 9.710938 10.824219 10.648438 10.585938 10.648438 10.292969 C 10.648438 10.023438 9.832031 9.796875 8.789062 9.769531 Z M 8.789062 9.769531 "/>
<path fill-rule="nonzero" fill="rgb(30%,30%,30%)" fill-opacity="1" d="M 6.019531 3.804688 L 4.261719 3.804688 L 4.261719 3.636719 L 3.945312 3.636719 L 3.945312 3.804688 L 2.253906 3.804688 C 1.660156 3.804688 1.175781 4.289062 1.175781 4.882812 L 1.179688 5.027344 C 1.226562 5.085938 1.621094 5.144531 1.695312 5.15625 C 1.792969 5.171875 2.824219 5.230469 3.960938 5.261719 L 3.960938 7.753906 C 3.960938 7.753906 3.972656 9.175781 3.515625 9.769531 C 3.503906 9.789062 3.480469 9.800781 3.457031 9.804688 C 3.03125 9.867188 2.707031 10 2.671875 10.191406 C 2.285156 10.125 1.582031 10.007812 1.296875 9.992188 C 0.925781 9.972656 0.582031 10.3125 0.328125 10.558594 C 0.296875 10.585938 0.269531 10.613281 0.246094 10.640625 C 0.179688 10.699219 0.09375 10.777344 0 10.859375 L 0 11 C 0.121094 10.894531 0.238281 10.792969 0.316406 10.714844 C 0.34375 10.691406 0.371094 10.664062 0.402344 10.632812 C 0.640625 10.402344 0.96875 10.082031 1.292969 10.097656 C 1.574219 10.113281 2.304688 10.234375 2.679688 10.300781 C 2.753906 10.535156 3.160156 10.882812 4.082031 10.898438 C 5.105469 10.921875 5.449219 10.515625 5.433594 10.289062 C 5.417969 10.054688 5.085938 9.878906 4.617188 9.800781 C 4.59375 9.796875 4.574219 9.785156 4.558594 9.765625 C 4.078125 9.125 4.175781 7.835938 4.183594 7.757812 C 4.183594 7.753906 4.183594 7.75 4.183594 7.75 L 4.183594 5.265625 C 5.054688 5.253906 7.011719 5.160156 7.058594 4.992188 L 7.097656 4.882812 C 7.09375 4.289062 6.613281 3.804688 6.019531 3.804688 Z M 6.019531 3.804688 "/>
</svg>
