<?xml version="1.0" encoding="UTF-8"?>
<svg xmlns="http://www.w3.org/2000/svg" xmlns:xlink="http://www.w3.org/1999/xlink" width="7.682898" height="11" viewBox="0 0 7.682898 11">
<path fill-rule="nonzero" fill="rgb(30%,30%,30%)" fill-opacity="1" d="M 2.902344 3.957031 C 2.710938 2.363281 4.816406 0 4.816406 0 C 5.191406 2.996094 6.449219 3.03125 7.371094 5.363281 C 8.351562 7.835938 6.882812 10.46875 4.945312 11 C 4.945312 11 5.839844 9.957031 5.457031 8.808594 C 5.148438 7.886719 4.242188 7.019531 4.242188 6.148438 C 4.242188 6.148438 3.476562 7 3.476562 7.957031 C 3.476562 8.253906 3.050781 7.128906 3.050781 7.128906 C 1.964844 8.636719 1.945312 9.828125 2.734375 10.914062 C 2.863281 11.09375 -0.1875 9.976562 0.0078125 6.488281 C 0.144531 4.085938 2.03125 2.171875 2.03125 2.171875 C 2.203125 2.882812 2.484375 3.488281 2.902344 3.957031 Z M 2.902344 3.957031 "/>
</svg>
