<?xml version="1.0" encoding="UTF-8"?>
<svg xmlns="http://www.w3.org/2000/svg" xmlns:xlink="http://www.w3.org/1999/xlink" width="10.857101" height="11" viewBox="0 0 10.857101 11">
<path fill-rule="nonzero" fill="rgb(30%,30%,30%)" fill-opacity="1" d="M 5.207031 8.296875 L 2.082031 1.640625 C 1.949219 1.359375 1.746094 1.136719 1.511719 1.011719 C 1.242188 0.871094 0.949219 0.867188 0.667969 1.003906 C 0.136719 1.253906 -0.125 1.859375 0.0585938 2.417969 C 0.0703125 2.453125 0.09375 2.480469 0.128906 2.492188 C 0.160156 2.507812 0.199219 2.507812 0.230469 2.492188 L 0.347656 2.4375 C 0.402344 2.410156 0.429688 2.34375 0.410156 2.285156 C 0.296875 1.910156 0.472656 1.511719 0.828125 1.34375 C 1.003906 1.261719 1.175781 1.261719 1.339844 1.347656 C 1.5 1.429688 1.644531 1.59375 1.742188 1.800781 L 4.804688 8.324219 C 4.902344 8.304688 5.003906 8.292969 5.105469 8.292969 C 5.140625 8.292969 5.171875 8.292969 5.207031 8.296875 Z M 5.207031 8.296875 "/>
<path fill-rule="nonzero" fill="rgb(30%,30%,30%)" fill-opacity="1" d="M 10.855469 7.210938 L 10.699219 6.871094 L 6.257812 8.902344 C 6.332031 9.007812 6.386719 9.121094 6.429688 9.242188 Z M 10.855469 7.210938 "/>
<path fill-rule="nonzero" fill="rgb(30%,30%,30%)" fill-opacity="1" d="M 5.105469 11 C 4.382812 11 3.796875 10.414062 3.796875 9.691406 C 3.796875 8.96875 4.382812 8.382812 5.105469 8.382812 C 5.828125 8.382812 6.414062 8.96875 6.414062 9.691406 C 6.414062 10.414062 5.828125 11 5.105469 11 Z M 5.105469 8.695312 C 4.554688 8.695312 4.109375 9.140625 4.109375 9.691406 C 4.109375 10.242188 4.554688 10.6875 5.105469 10.6875 C 5.65625 10.6875 6.101562 10.242188 6.101562 9.691406 C 6.097656 9.140625 5.65625 8.699219 5.105469 8.695312 Z M 5.105469 8.695312 "/>
<path fill-rule="nonzero" fill="rgb(30%,30%,30%)" fill-opacity="1" d="M 8.109375 2.382812 L 3.976562 4.222656 L 5.816406 8.355469 L 9.949219 6.515625 Z M 7.648438 7.050781 L 7.128906 6.011719 L 6.636719 6.238281 L 6.722656 4.730469 L 7.902344 5.640625 L 7.511719 5.839844 L 7.988281 6.898438 Z M 7.648438 7.050781 "/>
<path fill-rule="nonzero" fill="rgb(30%,30%,30%)" fill-opacity="1" d="M 5.195312 0 L 2.503906 1.199219 L 3.703125 3.890625 L 6.394531 2.691406 Z M 4.886719 3.082031 L 4.472656 2.25 L 4.078125 2.429688 L 4.148438 1.222656 L 5.089844 1.949219 L 4.777344 2.109375 L 5.160156 2.957031 Z M 4.886719 3.082031 "/>
</svg>
