<?xml version="1.0" encoding="UTF-8"?>
<svg xmlns="http://www.w3.org/2000/svg" xmlns:xlink="http://www.w3.org/1999/xlink" width="11" height="11" viewBox="0 0 11 11">
<path fill-rule="nonzero" fill="rgb(30%,30%,30%)" fill-opacity="1" d="M 7.464844 9.773438 C 7.050781 9.472656 6.207031 9.3125 5.480469 9.3125 C 4.75 9.3125 3.863281 9.496094 3.546875 9.769531 Z M 7.464844 9.773438 "/>
<path fill-rule="nonzero" fill="rgb(30%,30%,30%)" fill-opacity="1" d="M 3.582031 9.59375 C 3.949219 9.167969 4.617188 8.808594 5.511719 8.808594 C 6.398438 8.808594 7.089844 9.234375 7.4375 9.566406 C 7.4375 9.566406 6.375 9.167969 5.480469 9.167969 C 4.683594 9.167969 4.222656 9.351562 3.875 9.484375 Z M 3.582031 9.59375 "/>
<path fill-rule="nonzero" fill="rgb(30%,30%,30%)" fill-opacity="1" d="M 3.699219 4.195312 C 2.980469 3.855469 2.277344 4.054688 1.917969 4.414062 C 2.550781 4.542969 3.671875 4.867188 4.644531 5.65625 C 4.644531 5.421875 4.371094 4.515625 3.699219 4.195312 Z M 3.699219 4.195312 "/>
<path fill-rule="nonzero" fill="rgb(30%,30%,30%)" fill-opacity="1" d="M 2.675781 6.011719 C 3.484375 6.390625 4.488281 5.972656 4.640625 5.707031 C 4.640625 5.699219 4.644531 5.695312 4.644531 5.6875 C 3.554688 5.054688 2.34375 4.816406 1.789062 4.734375 C 1.820312 5.0625 2.046875 5.714844 2.675781 6.011719 Z M 2.675781 6.011719 "/>
<path fill-rule="nonzero" fill="rgb(30%,30%,30%)" fill-opacity="1" d="M 7.300781 4.195312 C 6.628906 4.515625 6.351562 5.421875 6.351562 5.65625 C 7.328125 4.867188 8.449219 4.542969 9.078125 4.414062 C 8.71875 4.054688 8.019531 3.855469 7.300781 4.195312 Z M 7.300781 4.195312 "/>
<path fill-rule="nonzero" fill="rgb(30%,30%,30%)" fill-opacity="1" d="M 6.359375 5.707031 C 6.507812 5.972656 7.515625 6.390625 8.320312 6.011719 C 8.953125 5.714844 9.179688 5.0625 9.210938 4.734375 C 8.652344 4.816406 7.445312 5.054688 6.355469 5.6875 C 6.355469 5.695312 6.355469 5.699219 6.359375 5.707031 Z M 6.359375 5.707031 "/>
<path fill-rule="nonzero" fill="rgb(30%,30%,30%)" fill-opacity="1" d="M 5.5 0 C 2.460938 0 0 2.460938 0 5.5 C 0 8.539062 2.460938 11 5.5 11 C 8.539062 11 11 8.539062 11 5.5 C 11 2.460938 8.539062 0 5.5 0 Z M 10.195312 3.476562 C 10.195312 3.476562 8.800781 3.75 8.0625 3 C 8.007812 2.945312 9.203125 2.550781 9.6875 3.367188 L 9.957031 3.339844 C 9.957031 3.339844 9.703125 2.710938 9.261719 2.292969 C 9.253906 2.285156 7.390625 2.277344 6.214844 4.0625 C 5.984375 4.410156 5.726562 5.152344 5.488281 5.144531 C 5.285156 5.136719 5.03125 4.414062 4.800781 4.0625 C 3.625 2.277344 1.761719 2.285156 1.753906 2.292969 C 1.3125 2.710938 1.058594 3.339844 1.058594 3.339844 L 1.328125 3.367188 C 1.8125 2.550781 3.007812 2.945312 2.953125 3 C 2.214844 3.75 0.820312 3.476562 0.820312 3.476562 C 0.804688 3.480469 0.863281 3.335938 0.96875 3.125 C 1.207031 2.667969 1.515625 2.246094 1.882812 1.882812 C 1.972656 1.789062 2.070312 1.703125 2.167969 1.617188 C 2.183594 1.609375 2.199219 1.605469 2.214844 1.605469 C 2.742188 1.648438 4.65625 2.363281 5.277344 4.4375 C 5.472656 5.09375 5.507812 4.90625 5.507812 4.90625 C 5.507812 4.90625 5.542969 5.09375 5.738281 4.4375 C 6.359375 2.363281 8.273438 1.648438 8.800781 1.605469 C 8.808594 1.605469 8.8125 1.605469 8.820312 1.605469 C 8.921875 1.695312 9.019531 1.785156 9.117188 1.882812 C 9.574219 2.339844 9.941406 2.878906 10.199219 3.472656 C 10.199219 3.476562 10.199219 3.476562 10.195312 3.476562 Z M 5.5 0.382812 C 6.566406 0.382812 7.605469 0.714844 8.472656 1.332031 C 8.320312 1.375 8.140625 1.429688 7.992188 1.476562 C 6.402344 1.996094 5.695312 3.730469 5.609375 3.792969 C 5.574219 3.816406 5.601562 2.933594 5.601562 2.933594 C 5.601562 2.933594 5.953125 2.4375 6.324219 2.046875 C 6.699219 1.65625 7.125 1.332031 7.125 1.332031 L 7.066406 1.253906 C 7.066406 1.253906 6.546875 1.304688 6.410156 1.238281 C 6.136719 1.109375 6.078125 0.804688 5.960938 0.804688 C 5.839844 0.804688 5.585938 1.070312 5.910156 1.347656 C 6.082031 1.5 6.257812 1.492188 6.257812 1.492188 L 5.515625 2.414062 L 5.515625 2.445312 L 4.757812 1.492188 C 4.757812 1.492188 4.933594 1.5 5.105469 1.347656 C 5.429688 1.070312 5.175781 0.804688 5.054688 0.804688 C 4.9375 0.804688 4.878906 1.109375 4.605469 1.238281 C 4.46875 1.304688 3.949219 1.253906 3.949219 1.253906 L 3.890625 1.332031 C 3.890625 1.332031 4.316406 1.65625 4.691406 2.046875 C 5.0625 2.4375 5.414062 2.933594 5.414062 2.933594 C 5.414062 2.933594 5.441406 3.816406 5.40625 3.792969 C 5.320312 3.730469 4.613281 1.996094 3.023438 1.476562 C 2.871094 1.425781 2.6875 1.375 2.535156 1.332031 C 3.398438 0.714844 4.4375 0.382812 5.5 0.382812 Z M 9.117188 9.117188 C 9.03125 9.203125 8.941406 9.285156 8.851562 9.367188 C 8.699219 9.199219 8.175781 8.648438 7.765625 8.394531 C 8.011719 8.53125 8.941406 8.980469 9.527344 8.359375 C 9.585938 8.296875 8.742188 8.609375 8.296875 8.046875 L 8.257812 8 C 8.179688 7.898438 8.105469 7.621094 8.113281 7.492188 C 8.132812 7.09375 8.472656 6.726562 8.921875 6.726562 C 9.375 6.726562 9.679688 7.027344 9.605469 7.453125 C 9.5625 7.6875 9.289062 7.894531 8.917969 7.8125 C 8.851562 7.796875 8.816406 7.667969 8.890625 7.613281 C 8.945312 7.578125 9.148438 7.578125 9.148438 7.578125 C 9.652344 7.398438 9.175781 6.804688 8.710938 7.09375 C 8.246094 7.382812 8.539062 8.160156 9.121094 8.140625 C 9.640625 8.121094 10.003906 7.765625 10.003906 7.21875 C 10.003906 6.859375 9.851562 6.566406 9.585938 6.386719 L 9.820312 6.003906 C 9.902344 5.867188 9.878906 5.746094 9.78125 5.585938 C 9.773438 5.574219 9.894531 5.59375 9.894531 5.59375 C 10.164062 5.59375 10.382812 5.375 10.382812 5.105469 C 10.382812 4.839844 10.164062 4.621094 9.894531 4.621094 C 9.894531 4.621094 9.757812 4.621094 9.640625 4.679688 C 9.246094 4.890625 9.351562 5.410156 9.128906 5.828125 C 8.957031 6.152344 8.757812 6.359375 8.757812 6.359375 C 8.757812 6.359375 8.34375 6.71875 7.652344 6.585938 C 6.609375 6.382812 6.488281 5.976562 6.0625 5.988281 C 5.546875 6.003906 5.59375 7.015625 5.734375 7.3125 C 5.914062 7.703125 6.328125 7.796875 6.71875 7.417969 C 6.882812 7.253906 7.234375 6.917969 7.410156 7.925781 L 5.597656 7.933594 L 5.601562 8.308594 C 5.601562 8.308594 7.480469 8.195312 8.363281 9.742188 C 6.636719 10.90625 4.375 10.910156 2.648438 9.75 C 3.53125 8.226562 5.394531 8.308594 5.394531 8.308594 L 5.398438 7.933594 L 3.589844 7.925781 C 3.761719 6.917969 4.117188 7.253906 4.28125 7.417969 C 4.671875 7.796875 5.085938 7.703125 5.265625 7.3125 C 5.40625 7.015625 5.453125 6.003906 4.9375 5.988281 C 4.507812 5.976562 4.390625 6.382812 3.34375 6.585938 C 2.65625 6.71875 2.242188 6.359375 2.242188 6.359375 C 2.242188 6.359375 2.042969 6.152344 1.867188 5.828125 C 1.648438 5.410156 1.75 4.890625 1.359375 4.679688 C 1.242188 4.621094 1.101562 4.621094 1.101562 4.621094 C 0.835938 4.621094 0.617188 4.839844 0.617188 5.105469 C 0.617188 5.375 0.835938 5.59375 1.101562 5.59375 C 1.101562 5.59375 1.222656 5.574219 1.21875 5.585938 C 1.121094 5.746094 1.09375 5.867188 1.179688 6.003906 L 1.414062 6.386719 C 1.144531 6.566406 0.996094 6.859375 0.996094 7.21875 C 0.996094 7.765625 1.359375 8.121094 1.878906 8.140625 C 2.457031 8.160156 2.753906 7.382812 2.289062 7.09375 C 1.824219 6.804688 1.347656 7.398438 1.847656 7.578125 C 1.847656 7.578125 2.054688 7.578125 2.105469 7.613281 C 2.183594 7.667969 2.148438 7.796875 2.082031 7.8125 C 1.710938 7.894531 1.433594 7.6875 1.394531 7.453125 C 1.316406 7.027344 1.625 6.726562 2.074219 6.726562 C 2.527344 6.726562 2.867188 7.09375 2.886719 7.492188 C 2.894531 7.621094 2.820312 7.898438 2.742188 8 L 2.699219 8.046875 C 2.257812 8.609375 1.414062 8.296875 1.472656 8.359375 C 2.054688 8.980469 2.988281 8.53125 3.234375 8.394531 C 2.820312 8.648438 2.300781 9.199219 2.148438 9.367188 C 2.058594 9.285156 1.96875 9.203125 1.882812 9.117188 C 0.492188 7.726562 0.0234375 5.664062 0.667969 3.808594 C 1.1875 3.863281 1.710938 3.859375 2.230469 3.800781 C 2.945312 3.71875 3.351562 3.164062 3.398438 3.1875 C 4.375 3.722656 4.765625 5.230469 4.902344 5.425781 C 5.078125 5.675781 5.375 5.699219 5.464844 5.699219 C 5.464844 5.703125 5.464844 5.707031 5.464844 5.707031 C 5.464844 5.707031 5.90625 5.722656 6.113281 5.425781 C 6.25 5.230469 6.640625 3.722656 7.617188 3.1875 C 7.664062 3.164062 8.070312 3.71875 8.785156 3.800781 C 9.296875 3.859375 9.816406 3.863281 10.332031 3.8125 C 10.980469 5.667969 10.507812 7.730469 9.117188 9.117188 Z M 9.648438 5.109375 C 9.648438 4.96875 9.761719 4.859375 9.898438 4.859375 C 10.039062 4.859375 10.148438 4.96875 10.148438 5.109375 C 10.148438 5.246094 10.039062 5.359375 9.898438 5.359375 C 9.761719 5.359375 9.648438 5.246094 9.648438 5.109375 Z M 1.351562 5.109375 C 1.351562 5.246094 1.238281 5.359375 1.097656 5.359375 C 0.960938 5.359375 0.847656 5.246094 0.847656 5.109375 C 0.847656 4.96875 0.960938 4.859375 1.097656 4.859375 C 1.238281 4.859375 1.351562 4.96875 1.351562 5.109375 Z M 1.351562 5.109375 "/>
</svg>
