<?xml version="1.0" encoding="UTF-8"?>
<svg xmlns="http://www.w3.org/2000/svg" xmlns:xlink="http://www.w3.org/1999/xlink" width="11" height="10.682418" viewBox="0 0 11 10.682418">
<path fill-rule="nonzero" fill="rgb(30%,30%,30%)" fill-opacity="1" d="M 8.402344 1.304688 C 8.398438 1.304688 8.398438 1.304688 8.398438 1.304688 L 5.074219 9.261719 C 4.800781 9.898438 4.347656 10.261719 3.828125 10.261719 L 1.644531 10.261719 C 1.042969 10.261719 0.527344 9.769531 0.535156 9.167969 C 0.546875 8.550781 1.046875 8.105469 1.734375 8.105469 L 3.851562 8.105469 C 4.042969 8.105469 4.214844 8.246094 4.230469 8.433594 C 4.238281 8.535156 4.203125 8.636719 4.136719 8.710938 C 4.066406 8.785156 3.96875 8.828125 3.867188 8.828125 L 1.734375 8.828125 C 1.449219 8.828125 1.265625 8.964844 1.261719 9.175781 C 1.253906 9.375 1.433594 9.539062 1.632812 9.539062 L 3.828125 9.539062 C 4.042969 9.539062 4.484375 9.183594 4.632812 8.832031 L 8.035156 0.871094 L 8.035156 0.867188 C 8.085938 0.539062 8.046875 0.03125 7.902344 0 L 4.128906 0 C 4.128906 0 4.125 0 4.125 0.00390625 C 4.125 0.00390625 0.144531 7.964844 0.0742188 8.398438 C 0 8.832031 0 9.265625 0 9.265625 C 0.0273438 9.628906 0.144531 10.699219 1.328125 10.683594 L 7.339844 10.683594 C 7.34375 10.683594 7.34375 10.679688 7.34375 10.679688 L 11 1.292969 C 11 1.292969 11 1.289062 11 1.289062 C 11 1.289062 10.996094 1.289062 10.996094 1.289062 Z M 8.507812 3.332031 C 8.367188 3.332031 8.253906 3.21875 8.253906 3.078125 C 8.253906 2.9375 8.367188 2.824219 8.507812 2.824219 C 8.648438 2.824219 8.761719 2.9375 8.761719 3.078125 C 8.761719 3.21875 8.648438 3.332031 8.507812 3.332031 Z M 8.867188 2.390625 C 8.730469 2.390625 8.617188 2.277344 8.617188 2.136719 C 8.617188 1.996094 8.730469 1.882812 8.867188 1.882812 C 9.007812 1.882812 9.121094 1.996094 9.121094 2.136719 C 9.121094 2.277344 9.007812 2.390625 8.867188 2.390625 Z M 9.59375 3.113281 C 9.453125 3.113281 9.339844 3 9.339844 2.859375 C 9.339844 2.71875 9.453125 2.605469 9.59375 2.605469 C 9.734375 2.605469 9.847656 2.71875 9.847656 2.859375 C 9.847656 3 9.734375 3.113281 9.59375 3.113281 Z M 8.144531 4.273438 C 8.003906 4.273438 7.890625 4.15625 7.890625 4.019531 C 7.890625 3.878906 8.003906 3.765625 8.144531 3.765625 C 8.285156 3.765625 8.398438 3.878906 8.398438 4.019531 C 8.398438 4.15625 8.285156 4.273438 8.144531 4.273438 Z M 9.230469 4.054688 C 9.089844 4.054688 8.976562 3.941406 8.976562 3.800781 C 8.976562 3.660156 9.089844 3.546875 9.230469 3.546875 C 9.371094 3.546875 9.484375 3.660156 9.484375 3.800781 C 9.484375 3.941406 9.371094 4.054688 9.230469 4.054688 Z M 7.710938 5.359375 C 7.570312 5.359375 7.457031 5.242188 7.457031 5.105469 C 7.457031 4.964844 7.570312 4.851562 7.710938 4.851562 C 7.851562 4.851562 7.964844 4.964844 7.964844 5.105469 C 7.964844 5.242188 7.851562 5.359375 7.710938 5.359375 Z M 8.796875 5.140625 C 8.65625 5.140625 8.542969 5.027344 8.542969 4.886719 C 8.542969 4.746094 8.65625 4.632812 8.796875 4.632812 C 8.9375 4.632812 9.050781 4.746094 9.050781 4.886719 C 9.050781 5.027344 8.9375 5.140625 8.796875 5.140625 Z M 7.347656 6.515625 C 7.207031 6.515625 7.09375 6.402344 7.09375 6.261719 C 7.09375 6.121094 7.207031 6.007812 7.347656 6.007812 C 7.488281 6.007812 7.601562 6.121094 7.601562 6.261719 C 7.601562 6.402344 7.488281 6.515625 7.347656 6.515625 Z M 8.433594 6.296875 C 8.292969 6.296875 8.179688 6.183594 8.179688 6.046875 C 8.179688 5.90625 8.292969 5.792969 8.433594 5.792969 C 8.574219 5.792969 8.6875 5.90625 8.6875 6.046875 C 8.6875 6.183594 8.574219 6.296875 8.433594 6.296875 Z M 6.695312 7.675781 C 6.558594 7.675781 6.445312 7.5625 6.445312 7.421875 C 6.445312 7.28125 6.558594 7.167969 6.695312 7.167969 C 6.835938 7.167969 6.949219 7.28125 6.949219 7.421875 C 6.949219 7.5625 6.835938 7.675781 6.695312 7.675781 Z M 7.78125 7.457031 C 7.644531 7.457031 7.53125 7.34375 7.53125 7.203125 C 7.53125 7.0625 7.644531 6.949219 7.78125 6.949219 C 7.921875 6.949219 8.035156 7.0625 8.035156 7.203125 C 8.035156 7.34375 7.921875 7.457031 7.78125 7.457031 Z M 6.261719 8.761719 C 6.121094 8.761719 6.007812 8.648438 6.007812 8.507812 C 6.007812 8.367188 6.121094 8.253906 6.261719 8.253906 C 6.402344 8.253906 6.515625 8.367188 6.515625 8.507812 C 6.515625 8.648438 6.402344 8.761719 6.261719 8.761719 Z M 7.347656 8.542969 C 7.207031 8.542969 7.09375 8.429688 7.09375 8.289062 C 7.09375 8.148438 7.207031 8.035156 7.347656 8.035156 C 7.488281 8.035156 7.601562 8.148438 7.601562 8.289062 C 7.601562 8.429688 7.488281 8.542969 7.347656 8.542969 Z M 5.753906 10.0625 C 5.617188 10.0625 5.503906 9.949219 5.503906 9.808594 C 5.503906 9.671875 5.617188 9.554688 5.753906 9.554688 C 5.894531 9.554688 6.007812 9.671875 6.007812 9.808594 C 6.007812 9.949219 5.894531 10.0625 5.753906 10.0625 Z M 6.839844 9.847656 C 6.703125 9.847656 6.589844 9.734375 6.589844 9.59375 C 6.589844 9.453125 6.703125 9.339844 6.839844 9.339844 C 6.980469 9.339844 7.09375 9.453125 7.09375 9.59375 C 7.09375 9.734375 6.980469 9.847656 6.839844 9.847656 Z M 9.953125 2.246094 C 9.816406 2.246094 9.703125 2.132812 9.703125 1.992188 C 9.703125 1.851562 9.816406 1.738281 9.953125 1.738281 C 10.09375 1.738281 10.207031 1.851562 10.207031 1.992188 C 10.207031 2.132812 10.09375 2.246094 9.953125 2.246094 Z M 9.953125 2.246094 "/>
</svg>
