<?xml version="1.0" encoding="UTF-8" standalone="no"?>
<!-- Created with Inkscape (http://www.inkscape.org/) -->

<svg
   xmlns:dc="http://purl.org/dc/elements/1.1/"
   xmlns:cc="http://creativecommons.org/ns#"
   xmlns:rdf="http://www.w3.org/1999/02/22-rdf-syntax-ns#"
   xmlns:svg="http://www.w3.org/2000/svg"
   xmlns="http://www.w3.org/2000/svg"
   xmlns:xlink="http://www.w3.org/1999/xlink"
   xmlns:sodipodi="http://sodipodi.sourceforge.net/DTD/sodipodi-0.dtd"
   xmlns:inkscape="http://www.inkscape.org/namespaces/inkscape"
   width="30px"
   height="30px"
   version="1.1"
   id="svg8"
   inkscape:version="0.92.4 5da689c313, 2019-01-14"
   sodipodi:docname="container.svg">
  <defs
     id="defs2" />
  <sodipodi:namedview
     id="base"
     pagecolor="#ffffff"
     bordercolor="#666666"
     borderopacity="1.0"
     inkscape:pageopacity="0.0"
     inkscape:pageshadow="2"
     inkscape:zoom="13.049334"
     inkscape:cx="18.679046"
     inkscape:cy="12.165829"
     inkscape:document-units="px"
     inkscape:current-layer="layer1"
     showgrid="false"
     inkscape:snap-page="false"
     units="px"
     inkscape:window-width="1884"
     inkscape:window-height="1061"
     inkscape:window-x="0"
     inkscape:window-y="0"
     inkscape:window-maximized="1"
     fit-margin-top="0"
     fit-margin-left="0"
     fit-margin-right="0"
     fit-margin-bottom="0" />
  <metadata
     id="metadata5">
    <rdf:RDF>
      <cc:Work
         rdf:about="">
        <dc:format>image/svg+xml</dc:format>
        <dc:type
           rdf:resource="http://purl.org/dc/dcmitype/StillImage" />
        <dc:title></dc:title>
      </cc:Work>
    </rdf:RDF>
  </metadata>
    <circle
       style="color:#000000;clip-rule:nonzero;display:inline;overflow:visible;visibility:visible;opacity:1;isolation:auto;mix-blend-mode:normal;color-interpolation:sRGB;color-interpolation-filters:linearRGB;solid-color:#000000;solid-opacity:1;vector-effect:none;fill:#808080;fill-opacity:1;fill-rule:evenodd;stroke:#ffffff;stroke-width:1;stroke-linecap:butt;stroke-linejoin:miter;stroke-miterlimit:4;stroke-dasharray:none;stroke-dashoffset:0;stroke-opacity:1;marker:none;color-rendering:auto;image-rendering:auto;shape-rendering:auto;text-rendering:auto;enable-background:accumulate"
       id="path815"
       cx="15"
       cy="15"
       r="14.5" />
<g transform="translate(6.5,9.5)"><path fill-rule="nonzero" fill="#FFFFFF" fill-opacity="1" d="M 0.253906 8.914062 C 0.0859375 9.1875 -0.0117188 9.492188 0 9.816406 C 1.878906 11.078125 7.691406 10.796875 10.078125 10.585938 C 10.082031 10.71875 10.09375 10.90625 10.089844 11.152344 C 10.882812 11.25 15.734375 10.925781 16.75 10.628906 C 16.769531 10.292969 16.703125 9.066406 16.691406 8.765625 C 15.136719 8.792969 12.011719 8.460938 10.335938 9.535156 C 7.988281 9.742188 2.402344 10.007812 0.253906 8.914062 Z M 0.253906 8.914062 "/>
<path fill-rule="nonzero" fill="#FFFFFF" fill-opacity="1" d="M 16.96875 6.078125 C 16.859375 5.035156 16.449219 3.941406 15.574219 3.371094 C 15.574219 2.65625 15.5 1.410156 15.5 0.695312 C 14.117188 0.679688 12.570312 0.667969 11.226562 0.679688 C 10.765625 0.386719 10.09375 -0.03125 9.789062 0 C 9.757812 0.00390625 9.726562 0.0117188 9.699219 0.0195312 C 9.25 0.15625 8.726562 1.023438 8.304688 1.722656 C 8.144531 1.988281 7.933594 2.59375 7.933594 2.59375 L 7.933594 2.597656 C 7.929688 2.664062 7.925781 2.734375 7.933594 2.800781 C 7.714844 2.980469 7.507812 3.175781 7.3125 3.382812 L 7.742188 3.851562 L 8.945312 4.183594 C 9.183594 4.25 9.378906 4.441406 9.382812 4.621094 C 9.386719 4.742188 9.308594 4.824219 9.171875 4.84375 C 9.101562 4.855469 9.03125 4.847656 8.960938 4.828125 L 8.523438 4.707031 C 8.644531 4.859375 8.691406 5.058594 8.625 5.167969 C 8.601562 5.210938 8.5625 5.234375 8.515625 5.242188 C 8.433594 5.253906 8.328125 5.203125 8.242188 5.109375 L 7.65625 4.46875 L 6.730469 4.214844 C 6.730469 4.214844 6.726562 4.214844 6.722656 4.214844 C 6.5625 4.445312 6.359375 4.671875 6.128906 4.886719 L 6.25 5.089844 L 7.316406 5.273438 C 7.511719 5.304688 7.675781 5.480469 7.683594 5.660156 C 7.691406 5.796875 7.597656 5.90625 7.457031 5.925781 C 7.421875 5.929688 7.382812 5.929688 7.34375 5.921875 L 6.683594 5.808594 L 6.742188 5.90625 C 6.824219 6.042969 6.832031 6.226562 6.757812 6.320312 C 6.738281 6.347656 6.710938 6.363281 6.675781 6.367188 C 6.609375 6.378906 6.53125 6.328125 6.476562 6.238281 L 6.164062 5.71875 L 5.519531 5.609375 C 5.453125 5.597656 5.390625 5.570312 5.339844 5.53125 C 5.160156 5.660156 4.976562 5.78125 4.789062 5.894531 L 4.875 6.105469 L 5.503906 6.300781 C 5.65625 6.347656 5.78125 6.527344 5.78125 6.707031 C 5.78125 6.839844 5.710938 6.9375 5.605469 6.953125 C 5.570312 6.957031 5.535156 6.953125 5.503906 6.941406 L 5.164062 6.839844 L 5.195312 6.925781 C 5.253906 7.070312 5.234375 7.261719 5.152344 7.34375 C 5.132812 7.363281 5.109375 7.378906 5.082031 7.382812 C 5.011719 7.394531 4.941406 7.332031 4.898438 7.226562 L 4.6875 6.695312 L 4.082031 6.507812 C 4.011719 6.484375 3.953125 6.445312 3.910156 6.386719 C 3.457031 6.617188 3.035156 6.789062 2.714844 6.898438 C 1.871094 7.175781 0.210938 7.175781 0.265625 8.328125 C 2.109375 9.589844 6.359375 9.699219 10.171875 9.097656 C 12.417969 7.800781 15.597656 8.601562 16.707031 8.273438 C 16.941406 7.800781 17.0625 6.957031 16.96875 6.078125 Z M 8.082031 2.765625 C 8.074219 2.695312 8.089844 2.621094 8.128906 2.558594 C 8.238281 2.402344 8.359375 2.199219 8.484375 1.988281 C 8.871094 1.347656 9.402344 0.46875 9.800781 0.351562 L 9.804688 0.347656 L 9.808594 0.347656 C 9.828125 0.339844 9.847656 0.335938 9.863281 0.335938 C 9.882812 0.332031 9.898438 0.332031 9.914062 0.332031 C 10.164062 0.332031 10.578125 0.480469 10.945312 0.679688 C 10.921875 0.679688 11.40625 0.984375 11.566406 1.144531 C 11.609375 1.1875 11.648438 1.234375 11.679688 1.285156 C 11.6875 1.300781 11.691406 1.3125 11.691406 1.328125 L 11.691406 1.335938 C 11.753906 1.976562 11.265625 2.433594 10.84375 2.703125 C 10.253906 3.085938 9.535156 3.277344 9.058594 3.328125 L 9.046875 3.328125 C 8.957031 3.339844 8.867188 3.34375 8.777344 3.34375 C 8.671875 3.347656 8.566406 3.335938 8.464844 3.3125 C 8.308594 3.273438 8.210938 3.1875 8.152344 3.085938 C 8.117188 3.007812 8.09375 2.867188 8.082031 2.765625 Z M 8.082031 2.765625 "/>
</g>
</svg>
