<?xml version="1.0" encoding="UTF-8"?>
<svg xmlns="http://www.w3.org/2000/svg" xmlns:xlink="http://www.w3.org/1999/xlink" width="8.582263" height="11" viewBox="0 0 8.582263 11">
<path fill-rule="nonzero" fill="rgb(30%,30%,30%)" fill-opacity="1" d="M 1.160156 6.738281 C 1.160156 6.738281 1.933594 7.476562 3.445312 7.476562 C 3.734375 7.476562 2.800781 7.949219 1.804688 7.503906 C 1.195312 7.234375 1.160156 6.738281 1.160156 6.738281 Z M 1.160156 6.738281 "/>
<path fill-rule="nonzero" fill="rgb(30%,30%,30%)" fill-opacity="1" d="M 4.859375 7.585938 C 4.828125 7.582031 4.828125 7.53125 4.859375 7.527344 L 5.058594 7.492188 C 5.964844 7.347656 6.339844 7.207031 6.984375 6.839844 L 7.140625 6.753906 C 7.140625 6.753906 6.957031 7.339844 6.273438 7.53125 C 5.75 7.679688 5.160156 7.613281 4.859375 7.585938 Z M 4.859375 7.585938 "/>
<path fill-rule="nonzero" fill="rgb(30%,30%,30%)" fill-opacity="1" d="M 3.027344 10.191406 C 3.027344 10.191406 3.371094 10.667969 3.617188 10.894531 C 3.75 11.015625 4.375 11.023438 4.570312 10.964844 C 4.761719 10.90625 4.957031 10.4375 5.242188 10.214844 C 5.242188 10.214844 4.667969 9.925781 4.507812 9.925781 C 4.347656 9.925781 4.089844 10.25 4.089844 10.25 C 4.089844 10.25 3.929688 9.953125 3.800781 9.953125 C 3.671875 9.953125 3.027344 10.191406 3.027344 10.191406 Z M 3.027344 10.191406 "/>
<path fill-rule="nonzero" fill="rgb(30%,30%,30%)" fill-opacity="1" d="M 8.402344 2.871094 C 8.402344 2.871094 8.023438 0.03125 4.355469 0 C 1.269531 -0.0234375 0.816406 2.132812 0.703125 2.871094 C 0.679688 3.007812 0.625 3.136719 0.535156 3.242188 C 0.335938 3.476562 0 4.046875 0 5.230469 C 0 6.179688 0.40625 7.199219 0.664062 7.75 C 0.679688 7.777344 0.679688 7.8125 0.664062 7.839844 L 0.410156 8.367188 C 0.316406 8.542969 0.128906 8.6875 0.386719 9.011719 C 0.617188 9.300781 0.84375 9.707031 0.871094 9.851562 C 0.886719 9.722656 0.9375 9.382812 0.835938 9.1875 C 0.714844 8.949219 0.691406 8.675781 0.726562 8.414062 C 0.75 8.242188 0.804688 8.070312 0.832031 7.898438 C 0.855469 7.734375 0.84375 7.574219 0.847656 7.410156 C 0.855469 7.097656 0.878906 6.765625 1 6.472656 C 1.09375 6.234375 1.964844 6.292969 3.671875 5.261719 C 4.277344 4.894531 4.699219 4.648438 4.941406 4.472656 C 5.105469 4.359375 5.394531 4.304688 5.589844 4.359375 L 5.761719 4.40625 L 6.40625 4.804688 C 6.71875 5 6.964844 5.277344 7.101562 5.601562 C 7.316406 6.113281 7.578125 6.902344 7.4375 7.476562 C 7.34375 7.859375 7.40625 8.507812 7.824219 8.746094 C 8.089844 8.894531 8.265625 8.71875 8.359375 8.574219 C 8.386719 8.53125 8.335938 8.480469 8.285156 8.5 C 8.164062 8.550781 8 8.578125 7.921875 8.421875 C 7.664062 7.917969 8.273438 7.003906 8.46875 5.617188 C 8.757812 3.523438 8.402344 2.871094 8.402344 2.871094 Z M 8.402344 2.871094 "/>
<path fill-rule="nonzero" fill="rgb(30%,30%,30%)" fill-opacity="1" d="M 6.554688 5.714844 C 6.34375 5.707031 6.136719 5.722656 5.9375 5.785156 C 5.792969 5.828125 5.65625 5.886719 5.539062 5.976562 C 5.421875 6.058594 5.296875 6.121094 5.164062 6.179688 C 5.09375 6.207031 5.019531 6.238281 4.9375 6.25 C 4.9375 6.25 4.921875 6.230469 4.921875 6.230469 C 5.023438 6.019531 5.195312 5.824219 5.414062 5.738281 C 5.5625 5.683594 5.714844 5.636719 5.875 5.617188 C 6.027344 5.597656 6.1875 5.601562 6.339844 5.632812 C 6.414062 5.644531 6.488281 5.664062 6.558594 5.6875 C 6.558594 5.6875 6.554688 5.714844 6.554688 5.714844 Z M 6.554688 5.714844 "/>
<path fill-rule="nonzero" fill="rgb(30%,30%,30%)" fill-opacity="1" d="M 2.058594 5.785156 C 2.265625 5.730469 2.488281 5.703125 2.707031 5.71875 C 2.707031 5.71875 2.761719 5.722656 2.761719 5.722656 L 2.816406 5.730469 C 2.890625 5.738281 2.964844 5.753906 3.039062 5.769531 C 3.089844 5.78125 3.152344 5.796875 3.203125 5.8125 C 3.324219 5.855469 3.433594 5.933594 3.53125 6.019531 C 3.585938 6.070312 3.632812 6.125 3.679688 6.1875 C 3.679688 6.1875 3.667969 6.210938 3.667969 6.210938 C 3.589844 6.203125 3.519531 6.183594 3.449219 6.164062 C 3.363281 6.136719 3.28125 6.109375 3.203125 6.074219 C 3.109375 6.039062 3.023438 5.984375 2.929688 5.945312 C 2.722656 5.871094 2.496094 5.824219 2.273438 5.8125 C 2.203125 5.808594 2.128906 5.8125 2.058594 5.808594 C 2.058594 5.808594 2.058594 5.785156 2.058594 5.785156 Z M 2.058594 5.785156 "/>
</svg>
