<?xml version="1.0" encoding="UTF-8"?>
<svg xmlns="http://www.w3.org/2000/svg" xmlns:xlink="http://www.w3.org/1999/xlink" width="11" height="10.153875" viewBox="0 0 11 10.153875">
<path fill-rule="nonzero" fill="rgb(30%,30%,30%)" fill-opacity="1" d="M 8.730469 1.375 L 8.730469 1.648438 L 7.984375 2.339844 L 7.609375 1.945312 L 7.195312 2.367188 L 6.824219 1.945312 L 6.449219 2.390625 L 6.054688 1.964844 L 5.503906 2.457031 L 4.863281 2.457031 C 4.488281 3.085938 3.738281 3.390625 3.03125 3.191406 C 2.328125 2.996094 1.839844 2.355469 1.839844 1.621094 C 1.84375 0.886719 2.335938 0.246094 3.042969 0.0546875 C 3.75 -0.136719 4.5 0.171875 4.871094 0.804688 L 8.140625 0.804688 Z M 2.769531 1.164062 C 2.519531 1.164062 2.316406 1.367188 2.316406 1.621094 C 2.316406 1.871094 2.519531 2.074219 2.769531 2.074219 C 3.023438 2.074219 3.226562 1.871094 3.226562 1.621094 C 3.226562 1.367188 3.023438 1.164062 2.769531 1.164062 Z M 2.769531 1.164062 "/>
<path fill-rule="nonzero" fill="rgb(30%,30%,30%)" fill-opacity="1" d="M 0 8.5625 C 0 8.5625 0.863281 7.082031 1.621094 6.371094 C 2.101562 5.917969 3.722656 4.71875 5.285156 4.265625 C 6.980469 3.777344 7.027344 5.226562 6.277344 5.617188 C 5.527344 6.007812 5.257812 6.1875 5.257812 6.1875 C 5.257812 6.1875 7.148438 6.21875 7.480469 6.097656 C 7.714844 6.011719 8.75 5.082031 9.320312 4.558594 C 9.652344 4.257812 10.101562 4.109375 10.542969 4.191406 C 10.96875 4.269531 11.269531 4.546875 10.632812 5.378906 C 9.699219 6.59375 8.882812 7.574219 8.558594 7.660156 C 7.570312 7.929688 6.488281 7.929688 4.925781 8.652344 C 3.363281 9.371094 2.3125 10.152344 2.3125 10.152344 Z M 0 8.5625 "/>
</svg>
