<?xml version="1.0" encoding="UTF-8"?>
<svg xmlns="http://www.w3.org/2000/svg" xmlns:xlink="http://www.w3.org/1999/xlink" width="11" height="7.596893" viewBox="0 0 11 7.596893">
<path fill-rule="nonzero" fill="rgb(30%,30%,30%)" fill-opacity="1" d="M 8.042969 4.109375 C 8.035156 4.109375 8.027344 4.105469 8.019531 4.105469 C 7.738281 4.0625 7.449219 4.0625 7.167969 4.109375 C 7.164062 4.109375 7.160156 4.109375 7.15625 4.109375 C 6.679688 4.191406 6.261719 4.398438 5.953125 4.6875 L 5.953125 1.589844 L 3.441406 1.589844 L 3.441406 0.972656 L 4.476562 0.972656 L 4.476562 0 L 1.480469 0 L 1.480469 0.972656 L 2.46875 0.972656 L 2.46875 1.589844 L 0 1.589844 L 0 7.582031 L 5.953125 7.582031 L 5.953125 7.101562 C 6.183594 7.320312 6.480469 7.492188 6.816406 7.597656 L 8.378906 7.597656 C 9.207031 7.335938 9.796875 6.671875 9.796875 5.894531 C 9.796875 5.015625 9.042969 4.28125 8.042969 4.109375 Z M 4.535156 5.484375 L 1.417969 5.484375 L 1.417969 3.460938 L 4.535156 3.460938 Z M 8.597656 6.507812 L 6.6875 6.507812 L 6.6875 5.265625 L 8.597656 5.265625 Z M 8.597656 6.507812 "/>
<path fill-rule="nonzero" fill="rgb(30%,30%,30%)" fill-opacity="1" d="M 9.921875 2.546875 C 9.375 2.546875 8.921875 2.808594 8.851562 3.148438 L 8.027344 3.148438 L 8.027344 2.605469 L 7.164062 2.605469 L 7.164062 3.148438 L 6.886719 3.148438 L 6.886719 3.339844 L 7.164062 3.339844 C 7.164062 3.339844 7.164062 3.910156 7.167969 3.917969 C 7.308594 3.894531 7.453125 3.882812 7.597656 3.882812 C 7.742188 3.882812 7.882812 3.890625 8.023438 3.914062 L 8.023438 3.339844 L 8.851562 3.339844 C 8.921875 3.679688 9.375 3.941406 9.921875 3.941406 C 10.515625 3.941406 11 3.628906 11 3.246094 C 11 2.859375 10.515625 2.546875 9.921875 2.546875 Z M 9.921875 2.546875 "/>
</svg>
