<?xml version="1.0" encoding="UTF-8"?>
<svg xmlns="http://www.w3.org/2000/svg" xmlns:xlink="http://www.w3.org/1999/xlink" width="8.182266" height="11" viewBox="0 0 8.182266 11">
<path fill-rule="nonzero" fill="rgb(30%,30%,30%)" fill-opacity="1" d="M 1.515625 3.195312 L 2.4375 1.789062 L 6.175781 2.816406 L 5.960938 3.25 Z M 4.714844 2.058594 L 4.714844 2.222656 L 6.503906 2.710938 L 6.230469 3.25 L 7.476562 3.25 L 7.207031 1.515625 Z M 3.683594 0.648438 L 4.28125 2.058594 L 6.230469 1.410156 L 5.636719 0 Z M 0.0546875 1.410156 L 0.757812 3.25 L 1.191406 3.25 L 2.277344 1.464844 L 3.957031 1.949219 L 3.304688 0.324219 Z M 8.183594 11 L 0 10.890625 L 0.378906 3.46875 L 7.804688 3.46875 Z M 6.070312 4.363281 C 6.070312 4.132812 5.902344 3.9375 5.675781 3.90625 C 5.449219 3.871094 5.230469 4.011719 5.167969 4.230469 C 5.101562 4.449219 5.207031 4.683594 5.414062 4.78125 C 5.40625 4.808594 5.402344 4.84375 5.410156 4.875 C 5.4375 5 5.453125 5.128906 5.453125 5.257812 C 5.453125 6.109375 4.839844 6.808594 4.089844 6.808594 C 3.339844 6.808594 2.730469 6.109375 2.730469 5.257812 C 2.730469 5.128906 2.742188 5.003906 2.769531 4.882812 C 2.777344 4.855469 2.773438 4.828125 2.769531 4.800781 C 2.980469 4.734375 3.113281 4.527344 3.085938 4.308594 C 3.0625 4.089844 2.882812 3.917969 2.664062 3.902344 C 2.445312 3.882812 2.242188 4.023438 2.183594 4.238281 C 2.125 4.449219 2.226562 4.675781 2.421875 4.773438 C 2.417969 4.785156 2.414062 4.792969 2.410156 4.804688 C 2.378906 4.953125 2.363281 5.105469 2.363281 5.257812 C 2.363281 6.3125 3.136719 7.171875 4.089844 7.171875 C 5.042969 7.171875 5.820312 6.3125 5.820312 5.257812 C 5.820312 5.101562 5.800781 4.945312 5.769531 4.792969 C 5.949219 4.726562 6.070312 4.554688 6.070312 4.363281 Z M 6.070312 4.363281 "/>
</svg>
