<?xml version="1.0" encoding="UTF-8"?>
<svg xmlns="http://www.w3.org/2000/svg" xmlns:xlink="http://www.w3.org/1999/xlink" width="11" height="7.917248" viewBox="0 0 11 7.917248">
<path fill-rule="nonzero" fill="rgb(30%,30%,30%)" fill-opacity="1" d="M 2.464844 7.617188 C 2.464844 7.816406 2.359375 7.917969 2.160156 7.917969 L 1.554688 7.917969 C 1.355469 7.917969 1.253906 7.816406 1.253906 7.617188 L 1.253906 6.707031 L 0.410156 5.203125 C 0.160156 4.972656 0 4.644531 0 4.289062 C 0 3.589844 0.53125 3.023438 1.230469 3.023438 C 1.929688 3.023438 2.464844 3.589844 2.464844 4.289062 Z M 7.902344 5.5 L 7.902344 7.3125 L 3.066406 7.3125 L 3.066406 5.226562 C 3.671875 4.566406 4.609375 4.230469 5.515625 4.230469 C 6.421875 4.230469 7.25 4.566406 7.929688 5.183594 Z M 7.902344 4.289062 L 7.902344 4.757812 L 7.832031 4.667969 C 7.171875 4.074219 6.34375 3.746094 5.46875 3.746094 C 4.59375 3.746094 3.789062 4.074219 3.128906 4.667969 L 3.066406 4.757812 L 3.066406 4.289062 C 3.066406 3.613281 2.636719 2.992188 2.015625 2.703125 L 1.953125 2.683594 L 1.960938 2.632812 C 2.421875 1.082031 3.871094 0 5.488281 0 C 7.105469 0 8.554688 1.082031 9.019531 2.632812 L 9.03125 2.683594 L 8.953125 2.703125 C 8.332031 2.992188 7.902344 3.613281 7.902344 4.289062 Z M 10.585938 5.21875 L 9.742188 6.738281 L 9.714844 7.085938 L 9.714844 7.617188 C 9.714844 7.816406 9.613281 7.917969 9.414062 7.917969 L 8.808594 7.917969 C 8.609375 7.917969 8.507812 7.816406 8.507812 7.617188 L 8.507812 4.289062 C 8.507812 3.589844 9.046875 3.023438 9.746094 3.023438 C 10.445312 3.023438 11 3.589844 11 4.289062 C 11 4.644531 10.847656 4.972656 10.585938 5.21875 Z M 10.585938 5.21875 "/>
</svg>
