<?xml version="1.0" encoding="UTF-8"?>
<svg xmlns="http://www.w3.org/2000/svg" xmlns:xlink="http://www.w3.org/1999/xlink" width="10.168318" height="11" viewBox="0 0 10.168318 11">
<path fill-rule="nonzero" fill="rgb(30%,30%,30%)" fill-opacity="1" d="M 1.25 10.429688 L 1.25 10.816406 L 1.609375 10.816406 L 1.609375 10.429688 Z M 1.25 10.429688 "/>
<path fill-rule="nonzero" fill="rgb(30%,30%,30%)" fill-opacity="1" d="M 3.070312 2.113281 C 3.941406 3.644531 4.664062 6.894531 5.277344 7.753906 C 5.453125 8 5.714844 8.230469 6.066406 8.449219 C 3.90625 8.019531 3.777344 3.953125 3.070312 2.113281 M 1.96875 0 C 1.964844 0 1.960938 0.00390625 1.953125 0.00390625 C 2.242188 0.621094 2.859375 1.964844 3.03125 2.523438 C 3.433594 3.828125 3.820312 6.65625 4.707031 7.722656 C 5.230469 8.355469 5.929688 8.796875 6.722656 8.601562 C 6.175781 8.347656 5.691406 8.039062 5.414062 7.652344 C 4.9375 6.984375 4.117188 3.992188 3.609375 2.785156 C 3.296875 2.042969 1.96875 0 1.96875 0 Z M 1.96875 0 "/>
<path fill-rule="nonzero" fill="rgb(30%,30%,30%)" fill-opacity="1" d="M 9.644531 9.640625 C 9.261719 9.414062 7.855469 9.128906 6.722656 8.601562 C 6.28125 8.710938 5.511719 8.695312 4.707031 7.722656 C 3.820312 6.65625 3.433594 3.828125 3.03125 2.523438 C 2.859375 1.964844 2.242188 0.621094 1.953125 0.00390625 C 0.773438 0.480469 -0.0351562 1.886719 0 2.488281 C 0.0078125 2.617188 0.140625 2.847656 0.183594 2.96875 C 1.042969 5.347656 1.207031 4.859375 1.261719 10.335938 L 1.570312 10.335938 C 1.585938 9.671875 1.65625 5.078125 2.308594 5.070312 C 2.613281 5.070312 2.6875 5.902344 2.789062 6.191406 C 3.144531 7.21875 3.125 9.640625 3.90625 10.394531 C 4.777344 11.234375 8.648438 11.160156 9.894531 10.417969 C 9.988281 10.363281 10.179688 10.183594 10.167969 10.074219 C 10.152344 9.90625 9.789062 9.730469 9.644531 9.640625 Z M 9.644531 9.640625 "/>
</svg>
