<?xml version="1.0" encoding="UTF-8"?>
<svg xmlns="http://www.w3.org/2000/svg" xmlns:xlink="http://www.w3.org/1999/xlink" width="11" height="9.917281" viewBox="0 0 11 9.917281">
<path fill-rule="nonzero" fill="rgb(30%,30%,30%)" fill-opacity="1" d="M 5.191406 3.066406 C 5.175781 3.066406 5.164062 3.0625 5.148438 3.058594 C 4.589844 2.96875 4.023438 2.972656 3.46875 3.0625 C 3.460938 3.0625 3.453125 3.066406 3.445312 3.066406 C 1.480469 3.402344 0 4.84375 0 6.570312 C 0 8.101562 1.15625 9.40625 2.785156 9.917969 L 5.851562 9.917969 C 7.480469 9.40625 8.636719 8.101562 8.636719 6.570312 C 8.636719 4.84375 7.15625 3.402344 5.191406 3.066406 Z M 5.191406 3.066406 "/>
<path fill-rule="nonzero" fill="rgb(30%,30%,30%)" fill-opacity="1" d="M 8.878906 0 C 7.808594 0 6.921875 0.515625 6.777344 1.183594 L 5.164062 1.183594 L 5.164062 0.109375 L 3.46875 0.109375 L 3.46875 1.183594 L 2.914062 1.183594 L 2.914062 1.558594 L 3.46875 1.558594 C 3.46875 1.558594 3.460938 2.671875 3.46875 2.6875 C 3.75 2.640625 4.035156 2.617188 4.316406 2.617188 C 4.597656 2.617188 4.878906 2.640625 5.15625 2.683594 L 5.15625 1.558594 L 6.777344 1.558594 C 6.921875 2.226562 7.808594 2.738281 8.878906 2.738281 C 10.050781 2.738281 11 2.125 11 1.371094 C 11 0.613281 10.050781 0 8.878906 0 Z M 8.878906 0 "/>
</svg>
