<?xml version="1.0" encoding="UTF-8"?>
<svg xmlns="http://www.w3.org/2000/svg" xmlns:xlink="http://www.w3.org/1999/xlink" width="11" height="6.950215" viewBox="0 0 11 6.950215">
<path fill-rule="nonzero" fill="rgb(30%,30%,30%)" fill-opacity="1" d="M 6.25 5.835938 C 6.25 6.449219 5.75 6.949219 5.132812 6.949219 C 4.519531 6.949219 4.019531 6.449219 4.019531 5.835938 C 4.019531 5.21875 4.519531 4.71875 5.132812 4.71875 C 5.75 4.71875 6.25 5.21875 6.25 5.835938 "/>
<path fill-rule="nonzero" fill="rgb(30%,30%,30%)" fill-opacity="1" d="M 10.574219 5.324219 L 10.257812 5.324219 L 10.257812 1.851562 C 10.257812 0.828125 9.429688 0 8.410156 0 L 1.851562 0 C 0.828125 0 0 0.828125 0 1.851562 L 0 4.320312 C 0 5.097656 0.628906 5.730469 1.410156 5.730469 L 3.683594 5.730469 C 3.71875 4.941406 4.363281 4.308594 5.164062 4.308594 C 5.960938 4.308594 6.605469 4.960938 6.640625 5.75 L 11 5.75 C 11 5.515625 10.808594 5.324219 10.574219 5.324219 M 5.203125 2.21875 C 5.203125 2.453125 5.015625 2.640625 4.785156 2.640625 L 1.882812 2.640625 C 1.648438 2.640625 1.464844 2.453125 1.464844 2.21875 L 1.464844 1.589844 C 1.464844 1.355469 1.648438 1.171875 1.882812 1.171875 L 4.785156 1.171875 C 5.015625 1.171875 5.203125 1.355469 5.203125 1.589844 Z M 9.09375 2.152344 C 9.09375 2.421875 8.878906 2.640625 8.609375 2.640625 L 7.410156 2.640625 C 7.140625 2.640625 6.921875 2.421875 6.921875 2.152344 L 6.921875 1.65625 C 6.921875 1.386719 7.140625 1.171875 7.410156 1.171875 L 8.609375 1.171875 C 8.878906 1.171875 9.09375 1.386719 9.09375 1.65625 Z M 9.09375 2.152344 "/>
</svg>
