<?xml version="1.0" encoding="UTF-8"?>
<svg xmlns="http://www.w3.org/2000/svg" xmlns:xlink="http://www.w3.org/1999/xlink" width="11" height="10.808069" viewBox="0 0 11 10.808069">
<path fill-rule="nonzero" fill="rgb(30%,30%,30%)" fill-opacity="1" d="M 0.21875 3.464844 C 0.210938 3.464844 0.203125 3.464844 0.191406 3.464844 C 0.0742188 3.449219 -0.0078125 3.34375 0.00390625 3.226562 C 0.246094 1.234375 1.371094 0 2.945312 0 C 4.566406 0 5.664062 1.203125 5.878906 3.222656 C 5.890625 3.339844 5.804688 3.445312 5.6875 3.457031 C 5.570312 3.46875 5.464844 3.382812 5.449219 3.265625 C 5.257812 1.464844 4.34375 0.429688 2.945312 0.429688 C 1.585938 0.429688 0.648438 1.492188 0.433594 3.277344 C 0.417969 3.386719 0.324219 3.464844 0.21875 3.464844 Z M 0.21875 3.464844 "/>
<path fill-rule="nonzero" fill="rgb(30%,30%,30%)" fill-opacity="1" d="M 9.417969 7.90625 L 6.269531 5.519531 C 6.089844 5.386719 6.0625 5.132812 6.203125 4.964844 L 6.707031 4.355469 C 6.851562 4.183594 7.113281 4.15625 7.292969 4.292969 L 10.441406 6.679688 C 10.617188 6.816406 10.648438 7.066406 10.507812 7.234375 L 10 7.84375 C 9.859375 8.015625 9.597656 8.042969 9.417969 7.90625 Z M 9.417969 7.90625 "/>
<path fill-rule="nonzero" fill="rgb(30%,30%,30%)" fill-opacity="1" d="M 10.914062 7.792969 L 10.855469 7.742188 L 10.71875 7.632812 L 10.492188 7.453125 L 10.164062 7.851562 L 10.398438 8.042969 L 9.808594 8.796875 L 8.285156 7.660156 C 8.144531 7.554688 7.941406 7.582031 7.835938 7.726562 L 7.832031 7.722656 L 7.632812 7.988281 C 7.539062 7.933594 7.414062 7.960938 7.347656 8.050781 L 5.699219 10.292969 C 5.648438 10.363281 5.664062 10.46875 5.734375 10.519531 L 6.082031 10.777344 C 6.15625 10.828125 6.257812 10.8125 6.3125 10.742188 L 7.957031 8.5 C 8.023438 8.410156 8.011719 8.285156 7.933594 8.210938 L 8.046875 8.0625 L 9.746094 9.347656 C 9.828125 9.410156 9.945312 9.398438 10.011719 9.316406 L 10.953125 8.113281 C 11.027344 8.011719 11.011719 7.871094 10.914062 7.792969 Z M 10.914062 7.792969 "/>
<path fill-rule="nonzero" fill="rgb(30%,30%,30%)" fill-opacity="1" d="M 2.914062 3.304688 C 1.304688 3.304688 0 3.578125 0 3.917969 L 0 9.292969 L 0.0507812 9.292969 C 0.300781 9.578125 1.484375 9.796875 2.914062 9.796875 C 4.339844 9.796875 5.527344 9.578125 5.777344 9.292969 L 5.824219 9.292969 L 5.824219 3.917969 C 5.824219 3.578125 4.519531 3.304688 2.914062 3.304688 Z M 4.878906 4.195312 C 5.09375 4.261719 5.214844 4.535156 5.234375 4.625 C 5.300781 4.996094 5.421875 6.429688 5.054688 6.429688 C 4.835938 6.429688 4.851562 6.203125 4.730469 6.203125 C 4.484375 6.203125 4.640625 7.507812 4.242188 7.507812 C 3.933594 7.507812 3.867188 6.585938 3.800781 6.191406 C 3.800781 6.191406 3.742188 6.855469 3.496094 6.855469 C 3.070312 6.855469 3.296875 5.5 3.117188 5.5 C 3.015625 5.5 2.996094 6.015625 2.8125 6.015625 C 2.613281 6.015625 2.488281 5.589844 2.535156 5.183594 C 2.570312 4.867188 2.625 4.613281 2.445312 4.613281 C 2.265625 4.613281 1.515625 4.613281 1.515625 4.503906 C 1.515625 4.300781 3.171875 4.339844 2.554688 4.339844 C 1.09375 4.339844 0.191406 4.160156 0.191406 3.941406 C 0.191406 3.722656 1.375 3.546875 2.835938 3.546875 C 4.296875 3.546875 5.480469 3.722656 5.480469 3.941406 C 5.480469 4.039062 5.253906 4.125 4.878906 4.195312 Z M 4.878906 4.195312 "/>
</svg>
