<?xml version="1.0" encoding="UTF-8"?>
<svg xmlns="http://www.w3.org/2000/svg" xmlns:xlink="http://www.w3.org/1999/xlink" width="10.360129" height="11" viewBox="0 0 10.360129 11">
<path fill-rule="nonzero" fill="rgb(30%,30%,30%)" fill-opacity="1" d="M 9.679688 4.664062 C 9.453125 3.855469 7.859375 3.210938 5.824219 3.097656 C 4.0625 3 1.039062 3.402344 0.6875 4.664062 C 0.878906 4.613281 9.394531 4.585938 9.679688 4.664062 Z M 9.679688 4.664062 "/>
<path fill-rule="nonzero" fill="rgb(30%,30%,30%)" fill-opacity="1" d="M 0.96875 7.023438 C 0.976562 7.34375 1.238281 7.597656 1.558594 7.597656 L 8.808594 7.597656 C 9.128906 7.597656 9.390625 7.34375 9.398438 7.023438 Z M 0.96875 7.023438 "/>
<path fill-rule="nonzero" fill="rgb(30%,30%,30%)" fill-opacity="1" d="M 1.828125 7.804688 C 1.792969 8.175781 2.085938 8.480469 2.445312 8.480469 L 7.921875 8.480469 C 8.277344 8.480469 8.574219 8.179688 8.535156 7.804688 Z M 1.828125 7.804688 "/>
<path fill-rule="nonzero" fill="rgb(30%,30%,30%)" fill-opacity="1" d="M 5.703125 2.929688 C 5.925781 2.066406 6.132812 1.1875 6.132812 0.941406 C 6.132812 -0.3125 4.230469 -0.316406 4.230469 0.941406 C 4.230469 1.1875 4.441406 2.066406 4.664062 2.929688 C 5.007812 2.914062 5.351562 2.914062 5.703125 2.929688 Z M 5.703125 2.929688 "/>
<path fill-rule="nonzero" fill="rgb(30%,30%,30%)" fill-opacity="1" d="M 9.390625 4.867188 C 0.292969 4.867188 0.828125 4.820312 0.511719 4.988281 C -0.375 5.464844 -0.0390625 6.816406 0.988281 6.816406 C 9.992188 6.816406 9.417969 6.820312 9.539062 6.804688 C 10.722656 6.625 10.585938 4.867188 9.390625 4.867188 Z M 9.390625 4.867188 "/>
<path fill-rule="nonzero" fill="rgb(30%,30%,30%)" fill-opacity="1" d="M 5.1875 11 C 5.191406 10.957031 5.195312 10.960938 5.316406 10.277344 L 5.058594 10.277344 C 5.148438 10.796875 5.148438 10.796875 5.1875 11 Z M 5.1875 11 "/>
<path fill-rule="nonzero" fill="rgb(30%,30%,30%)" fill-opacity="1" d="M 3.796875 9.460938 C 3.742188 9.792969 4.003906 10.097656 4.347656 10.097656 L 6.019531 10.097656 C 6.363281 10.097656 6.621094 9.792969 6.570312 9.460938 Z M 3.796875 9.460938 "/>
<path fill-rule="nonzero" fill="rgb(30%,30%,30%)" fill-opacity="1" d="M 2.921875 8.691406 C 2.890625 8.984375 3.121094 9.253906 3.425781 9.253906 L 6.9375 9.253906 C 7.242188 9.253906 7.476562 8.984375 7.441406 8.691406 Z M 2.921875 8.691406 "/>
</svg>
