<?xml version="1.0" encoding="UTF-8"?>
<svg xmlns="http://www.w3.org/2000/svg" xmlns:xlink="http://www.w3.org/1999/xlink" width="11" height="10.489092" viewBox="0 0 11 10.489092">
<path fill-rule="nonzero" fill="rgb(30%,30%,30%)" fill-opacity="1" d="M 5.058594 1.664062 C 5.246094 2.703125 4.832031 3.648438 4.132812 3.777344 C 3.433594 3.902344 2.710938 3.164062 2.519531 2.128906 C 2.332031 1.089844 2.746094 0.144531 3.445312 0.015625 C 4.144531 -0.113281 4.867188 0.625 5.058594 1.664062 Z M 5.058594 1.664062 "/>
<path fill-rule="nonzero" fill="rgb(30%,30%,30%)" fill-opacity="1" d="M 2.488281 3.8125 C 2.90625 4.648438 2.734375 5.578125 2.109375 5.886719 C 1.484375 6.199219 0.644531 5.773438 0.226562 4.9375 C -0.1875 4.101562 -0.0195312 3.175781 0.605469 2.863281 C 1.230469 2.554688 2.074219 2.976562 2.488281 3.8125 Z M 2.488281 3.8125 "/>
<path fill-rule="nonzero" fill="rgb(30%,30%,30%)" fill-opacity="1" d="M 10.191406 2.820312 C 10.859375 3.027344 11.175781 3.917969 10.902344 4.808594 C 10.625 5.699219 9.859375 6.253906 9.195312 6.050781 C 8.527344 5.84375 8.210938 4.953125 8.488281 4.0625 C 8.761719 3.171875 9.527344 2.617188 10.191406 2.820312 Z M 10.191406 2.820312 "/>
<path fill-rule="nonzero" fill="rgb(30%,30%,30%)" fill-opacity="1" d="M 7.613281 0.015625 C 8.3125 0.144531 8.722656 1.089844 8.53125 2.128906 C 8.34375 3.167969 7.621094 3.90625 6.917969 3.777344 C 6.21875 3.648438 5.804688 2.699219 5.996094 1.660156 C 6.1875 0.625 6.910156 -0.113281 7.613281 0.015625 Z M 7.613281 0.015625 "/>
<path fill-rule="nonzero" fill="rgb(30%,30%,30%)" fill-opacity="1" d="M 1.886719 7.632812 C 1.886719 7.632812 2.734375 6.558594 3.132812 6.144531 C 3.53125 5.730469 4.066406 4.753906 4.066406 4.753906 C 4.851562 3.714844 6.417969 3.730469 7.183594 4.78125 C 7.183594 4.78125 7.652344 5.796875 8 6.222656 C 8.347656 6.644531 9.257812 7.625 9.257812 7.625 C 10.09375 8.882812 9.261719 10.542969 7.84375 10.488281 C 7.8125 10.484375 7.777344 10.480469 7.746094 10.46875 C 7.476562 10.378906 6.117188 9.96875 5.527344 9.96875 C 4.875 9.96875 3.554688 10.378906 3.316406 10.445312 C 3.292969 10.453125 3.265625 10.453125 3.242188 10.453125 C 1.816406 10.417969 1.023438 8.777344 1.886719 7.632812 Z M 1.886719 7.632812 "/>
</svg>
