<?xml version="1.0" encoding="UTF-8" standalone="no"?>
<!-- Created with Inkscape (http://www.inkscape.org/) -->

<svg
   xmlns:dc="http://purl.org/dc/elements/1.1/"
   xmlns:cc="http://creativecommons.org/ns#"
   xmlns:rdf="http://www.w3.org/1999/02/22-rdf-syntax-ns#"
   xmlns:svg="http://www.w3.org/2000/svg"
   xmlns="http://www.w3.org/2000/svg"
   xmlns:xlink="http://www.w3.org/1999/xlink"
   xmlns:sodipodi="http://sodipodi.sourceforge.net/DTD/sodipodi-0.dtd"
   xmlns:inkscape="http://www.inkscape.org/namespaces/inkscape"
   width="30px"
   height="30px"
   version="1.1"
   id="svg8"
   inkscape:version="0.92.4 5da689c313, 2019-01-14"
   sodipodi:docname="container.svg">
  <defs
     id="defs2" />
  <sodipodi:namedview
     id="base"
     pagecolor="#ffffff"
     bordercolor="#666666"
     borderopacity="1.0"
     inkscape:pageopacity="0.0"
     inkscape:pageshadow="2"
     inkscape:zoom="13.049334"
     inkscape:cx="18.679046"
     inkscape:cy="12.165829"
     inkscape:document-units="px"
     inkscape:current-layer="layer1"
     showgrid="false"
     inkscape:snap-page="false"
     units="px"
     inkscape:window-width="1884"
     inkscape:window-height="1061"
     inkscape:window-x="0"
     inkscape:window-y="0"
     inkscape:window-maximized="1"
     fit-margin-top="0"
     fit-margin-left="0"
     fit-margin-right="0"
     fit-margin-bottom="0" />
  <metadata
     id="metadata5">
    <rdf:RDF>
      <cc:Work
         rdf:about="">
        <dc:format>image/svg+xml</dc:format>
        <dc:type
           rdf:resource="http://purl.org/dc/dcmitype/StillImage" />
        <dc:title></dc:title>
      </cc:Work>
    </rdf:RDF>
  </metadata>
    <circle
       style="color:#000000;clip-rule:nonzero;display:inline;overflow:visible;visibility:visible;opacity:1;isolation:auto;mix-blend-mode:normal;color-interpolation:sRGB;color-interpolation-filters:linearRGB;solid-color:#000000;solid-opacity:1;vector-effect:none;fill:#808080;fill-opacity:1;fill-rule:evenodd;stroke:#ffffff;stroke-width:1;stroke-linecap:butt;stroke-linejoin:miter;stroke-miterlimit:4;stroke-dasharray:none;stroke-dashoffset:0;stroke-opacity:1;marker:none;color-rendering:auto;image-rendering:auto;shape-rendering:auto;text-rendering:auto;enable-background:accumulate"
       id="path815"
       cx="15"
       cy="15"
       r="14.5" />
<g transform="translate(10.0,6.5)"><path fill-rule="nonzero" fill="#FFFFFF" fill-opacity="1" d="M 8.765625 0 L 1.367188 0 C 0.613281 0 0 0.613281 0 1.367188 L 0 16.128906 L 0.625 16.128906 L 0.625 16.609375 C 0.625 16.824219 0.800781 17 1.019531 17 L 2.085938 17 C 2.304688 17 2.480469 16.824219 2.480469 16.609375 L 2.480469 16.128906 L 7.601562 16.128906 L 7.601562 16.609375 C 7.601562 16.824219 7.777344 17 7.996094 17 L 9.0625 17 C 9.28125 17 9.457031 16.824219 9.457031 16.609375 L 9.457031 16.128906 L 10.132812 16.128906 L 10.132812 1.367188 C 10.132812 0.613281 9.523438 0 8.765625 0 Z M 4.039062 1.445312 C 5.082031 1.007812 6.285156 1.304688 7.003906 2.175781 C 7.722656 3.042969 7.789062 4.28125 7.164062 5.222656 C 6.539062 6.160156 5.371094 6.582031 4.292969 6.253906 C 3.210938 5.929688 2.472656 4.933594 2.472656 3.804688 C 2.46875 2.773438 3.089844 1.84375 4.039062 1.445312 Z M 5.085938 14.78125 C 2.980469 14.78125 1.277344 13.074219 1.277344 10.96875 C 1.277344 8.867188 2.980469 7.160156 5.085938 7.160156 C 7.191406 7.160156 8.894531 8.867188 8.894531 10.96875 C 8.894531 13.074219 7.191406 14.78125 5.085938 14.78125 Z M 5.035156 1.757812 C 3.90625 1.757812 2.988281 2.671875 2.988281 3.804688 C 2.988281 4.933594 3.90625 5.847656 5.035156 5.847656 C 6.164062 5.847656 7.082031 4.933594 7.082031 3.804688 C 7.082031 3.261719 6.867188 2.738281 6.484375 2.355469 C 6.101562 1.96875 5.578125 1.753906 5.035156 1.757812 Z M 5.503906 4.851562 C 5.039062 5.058594 4.492188 4.933594 4.164062 4.542969 C 3.835938 4.15625 3.800781 3.597656 4.078125 3.171875 C 4.355469 2.742188 4.882812 2.550781 5.371094 2.695312 C 5.859375 2.84375 6.195312 3.289062 6.195312 3.800781 C 6.195312 4.257812 5.925781 4.671875 5.503906 4.851562 Z M 5.128906 7.65625 C 3.320312 7.65625 1.851562 9.125 1.851562 10.933594 C 1.851562 12.742188 3.320312 14.210938 5.128906 14.210938 C 6.9375 14.210938 8.40625 12.742188 8.40625 10.933594 C 8.40625 9.125 6.9375 7.65625 5.128906 7.65625 Z M 5.128906 12.898438 C 4.042969 12.898438 3.164062 12.019531 3.164062 10.933594 C 3.164062 9.847656 4.042969 8.96875 5.128906 8.96875 C 6.214844 8.96875 7.09375 9.847656 7.09375 10.933594 C 7.09375 12.019531 6.214844 12.898438 5.128906 12.898438 Z M 5.128906 12.898438 "/>
</g>
</svg>
