<?xml version="1.0" encoding="UTF-8" standalone="no"?>
<!-- Created with Inkscape (http://www.inkscape.org/) -->

<svg
   xmlns:dc="http://purl.org/dc/elements/1.1/"
   xmlns:cc="http://creativecommons.org/ns#"
   xmlns:rdf="http://www.w3.org/1999/02/22-rdf-syntax-ns#"
   xmlns:svg="http://www.w3.org/2000/svg"
   xmlns="http://www.w3.org/2000/svg"
   xmlns:xlink="http://www.w3.org/1999/xlink"
   xmlns:sodipodi="http://sodipodi.sourceforge.net/DTD/sodipodi-0.dtd"
   xmlns:inkscape="http://www.inkscape.org/namespaces/inkscape"
   width="30px"
   height="30px"
   version="1.1"
   id="svg8"
   inkscape:version="0.92.4 5da689c313, 2019-01-14"
   sodipodi:docname="container.svg">
  <defs
     id="defs2" />
  <sodipodi:namedview
     id="base"
     pagecolor="#ffffff"
     bordercolor="#666666"
     borderopacity="1.0"
     inkscape:pageopacity="0.0"
     inkscape:pageshadow="2"
     inkscape:zoom="13.049334"
     inkscape:cx="18.679046"
     inkscape:cy="12.165829"
     inkscape:document-units="px"
     inkscape:current-layer="layer1"
     showgrid="false"
     inkscape:snap-page="false"
     units="px"
     inkscape:window-width="1884"
     inkscape:window-height="1061"
     inkscape:window-x="0"
     inkscape:window-y="0"
     inkscape:window-maximized="1"
     fit-margin-top="0"
     fit-margin-left="0"
     fit-margin-right="0"
     fit-margin-bottom="0" />
  <metadata
     id="metadata5">
    <rdf:RDF>
      <cc:Work
         rdf:about="">
        <dc:format>image/svg+xml</dc:format>
        <dc:type
           rdf:resource="http://purl.org/dc/dcmitype/StillImage" />
        <dc:title></dc:title>
      </cc:Work>
    </rdf:RDF>
  </metadata>
    <circle
       style="color:#000000;clip-rule:nonzero;display:inline;overflow:visible;visibility:visible;opacity:1;isolation:auto;mix-blend-mode:normal;color-interpolation:sRGB;color-interpolation-filters:linearRGB;solid-color:#000000;solid-opacity:1;vector-effect:none;fill:#808080;fill-opacity:1;fill-rule:evenodd;stroke:#ffffff;stroke-width:1;stroke-linecap:butt;stroke-linejoin:miter;stroke-miterlimit:4;stroke-dasharray:none;stroke-dashoffset:0;stroke-opacity:1;marker:none;color-rendering:auto;image-rendering:auto;shape-rendering:auto;text-rendering:auto;enable-background:accumulate"
       id="path815"
       cx="15"
       cy="15"
       r="14.5" />
<g transform="translate(6.5,11.5)"><path fill-rule="nonzero" fill="#FFFFFF" fill-opacity="1" d="M 17 2.542969 L 16.363281 2.542969 C 15.808594 0.722656 14.019531 -0.355469 12.25 0.109375 C 10.972656 0.445312 9.984375 1.566406 9.699219 2.9375 C 9.15625 2.171875 7.960938 2.09375 7.289062 2.953125 C 6.925781 0.957031 5.105469 -0.316406 3.230469 0.0703125 C 1.992188 0.324219 0.988281 1.277344 0.601562 2.542969 L 0 2.542969 L 0 3.582031 L 0.429688 3.582031 C 0.429688 3.617188 0.429688 3.652344 0.429688 3.6875 C 0.429688 5.726562 1.976562 7.375 3.886719 7.375 C 5.722656 7.375 7.21875 5.855469 7.339844 3.929688 C 7.523438 3.445312 8.046875 3.078125 8.519531 3.054688 C 8.960938 3.078125 9.402344 3.472656 9.613281 3.90625 C 9.675781 5.941406 11.28125 7.441406 13.191406 7.375 C 15.058594 7.308594 16.535156 5.675781 16.535156 3.6875 C 16.535156 3.652344 16.535156 3.617188 16.53125 3.582031 L 17 3.582031 Z M 6.269531 3.6875 C 6.269531 5.089844 5.203125 6.226562 3.886719 6.226562 C 2.574219 6.226562 1.507812 5.089844 1.507812 3.6875 C 1.507812 2.285156 2.574219 1.148438 3.886719 1.148438 C 5.203125 1.148438 6.269531 2.285156 6.269531 3.6875 Z M 15.457031 3.6875 C 15.457031 5.089844 14.390625 6.226562 13.078125 6.226562 C 11.761719 6.226562 10.695312 5.089844 10.695312 3.6875 C 10.695312 2.285156 11.761719 1.148438 13.078125 1.148438 C 14.390625 1.148438 15.457031 2.285156 15.457031 3.6875 Z M 15.457031 3.6875 "/>
</g>
</svg>
