<?xml version="1.0" encoding="UTF-8"?>
<svg xmlns="http://www.w3.org/2000/svg" xmlns:xlink="http://www.w3.org/1999/xlink" width="11" height="10.827369" viewBox="0 0 11 10.827369">
<path fill-rule="nonzero" fill="rgb(30%,30%,30%)" fill-opacity="1" d="M 0.980469 7.183594 C 0.789062 6.371094 1.746094 5.832031 2.875 5.816406 C 3.238281 5.808594 3.714844 6.121094 3.824219 6.25 C 3.882812 6.320312 3.8125 6.609375 3.769531 6.566406 C 3.660156 6.453125 3.242188 6.066406 2.863281 6.058594 C 2.554688 6.089844 2.3125 6.351562 2.09375 6.796875 C 1.257812 6.703125 1.0625 6.8125 0.980469 7.183594 Z M 8.472656 5.8125 C 8.109375 5.808594 7.632812 6.121094 7.519531 6.25 C 7.460938 6.316406 7.535156 6.609375 7.574219 6.566406 C 7.683594 6.453125 8.105469 6.066406 8.480469 6.058594 C 8.792969 6.089844 9.035156 6.351562 9.25 6.796875 C 10.070312 6.707031 10.28125 6.800781 10.367188 7.183594 C 10.558594 6.367188 9.601562 5.832031 8.472656 5.8125 Z M 10.140625 9.253906 C 9.828125 10.066406 9.359375 10.335938 8.957031 10.542969 C 8.582031 10.738281 7.558594 10.941406 7.152344 10.753906 C 6.507812 10.457031 6.292969 9.8125 6.066406 9.417969 C 5.980469 9.273438 5.945312 9.195312 5.730469 9.183594 C 5.640625 9.183594 5.480469 9.175781 5.386719 9.261719 C 5.171875 9.457031 4.980469 10.390625 4.195312 10.753906 C 3.789062 10.941406 2.765625 10.738281 2.386719 10.542969 C 1.929688 10.304688 1.503906 10.023438 1.207031 9.253906 C 1.050781 8.847656 0.851562 7.394531 1.160156 7.105469 C 1.339844 6.9375 1.808594 6.988281 2.097656 7.023438 C 3.214844 7.148438 4.035156 7.53125 5.007812 8.105469 C 5.398438 8.339844 5.988281 8.3125 6.339844 8.105469 C 7.25 7.566406 8.121094 7.144531 9.207031 7.027344 C 9.46875 7 9.992188 6.925781 10.1875 7.105469 C 10.492188 7.390625 10.296875 8.84375 10.140625 9.253906 Z M 6.179688 3.605469 Z M 10.558594 5.890625 C 10.511719 5.976562 10.433594 6.039062 10.335938 5.988281 L 3.675781 2.714844 C 3.613281 2.6875 3.574219 2.625 3.582031 2.554688 C 3.589844 2.488281 3.636719 2.417969 3.667969 2.359375 C 4.59375 0.511719 6.824219 -0.289062 8.726562 0.570312 C 8.632812 0.464844 8.609375 0.316406 8.667969 0.1875 C 8.753906 0.0195312 8.957031 -0.046875 9.125 0.0351562 C 9.292969 0.117188 9.363281 0.320312 9.277344 0.488281 C 9.214844 0.613281 9.082031 0.6875 8.945312 0.675781 C 10.835938 1.679688 11.539062 4.03125 10.558594 5.890625 Z M 8.09375 4.546875 C 8.332031 4.0625 8.871094 2.699219 8.917969 1.699219 C 9.003906 -0.0390625 7.621094 1.273438 6.6875 2.734375 C 6.507812 3.019531 6.347656 3.3125 6.179688 3.605469 Z M 6.179688 3.605469 Z M 6.039062 4.128906 C 5.921875 4.21875 5.789062 4.296875 5.660156 4.367188 C 4.21875 5.171875 2.8125 5.105469 1.464844 4.320312 C 0.808594 3.9375 0.253906 3.425781 0 3.117188 C 0.0117188 3.121094 0.015625 3.121094 0 3.117188 C 1.132812 3.28125 2.265625 3.210938 3.367188 2.882812 C 3.386719 2.878906 3.441406 2.851562 3.457031 2.859375 Z M 0.0429688 3.125 C 0.0351562 3.125 0.03125 3.125 0.0273438 3.121094 C 0.03125 3.125 0.0390625 3.125 0.0429688 3.125 Z M 0.0703125 3.128906 C 0.0664062 3.128906 0.0625 3.128906 0.0585938 3.125 C 0.0625 3.128906 0.0664062 3.128906 0.0703125 3.128906 Z M 0.0976562 3.132812 C 0.0898438 3.132812 0.0859375 3.132812 0.078125 3.128906 C 0.0859375 3.132812 0.0898438 3.132812 0.0976562 3.132812 Z M 0.175781 3.144531 C 0.167969 3.144531 0.160156 3.140625 0.152344 3.140625 C 0.160156 3.140625 0.167969 3.144531 0.175781 3.144531 Z M 0.226562 3.152344 C 0.214844 3.148438 0.207031 3.148438 0.195312 3.148438 C 0.207031 3.148438 0.214844 3.148438 0.226562 3.152344 Z M 0.292969 3.160156 C 0.296875 3.160156 0.304688 3.164062 0.308594 3.164062 C 0.304688 3.164062 0.296875 3.160156 0.292969 3.160156 Z M 0.398438 3.175781 C 0.382812 3.171875 0.363281 3.171875 0.34375 3.167969 C 0.363281 3.171875 0.382812 3.175781 0.398438 3.175781 Z M 0.429688 3.179688 C 0.421875 3.179688 0.410156 3.179688 0.402344 3.175781 C 0.414062 3.179688 0.421875 3.179688 0.429688 3.179688 Z M 0.480469 3.1875 C 0.46875 3.1875 0.460938 3.183594 0.449219 3.183594 C 0.460938 3.1875 0.46875 3.1875 0.480469 3.1875 Z M 0.507812 3.191406 C 0.503906 3.191406 0.503906 3.191406 0.5 3.191406 C 0.503906 3.191406 0.503906 3.191406 0.507812 3.191406 Z M 0.523438 3.195312 Z M 0.523438 3.195312 "/>
</svg>
