<?xml version="1.0" encoding="UTF-8"?>
<svg xmlns="http://www.w3.org/2000/svg" xmlns:xlink="http://www.w3.org/1999/xlink" width="7.683308" height="11" viewBox="0 0 7.683308 11">
<path fill-rule="nonzero" fill="rgb(30%,30%,30%)" fill-opacity="1" d="M 5.949219 3.441406 L 6.433594 3.398438 L 7.683594 10.027344 L 5.1875 11 Z M 4.941406 3.269531 L 5.6875 3.429688 L 4.925781 10.988281 L 0 9.394531 L 1.179688 2.460938 L 1.964844 2.628906 L 1.964844 1.835938 C 1.964844 1.015625 2.632812 0.347656 3.453125 0.347656 C 3.5 0.347656 3.550781 0.347656 3.597656 0.355469 C 3.867188 0.125 4.207031 0 4.5625 0 C 5.382812 0 6.050781 0.667969 6.050781 1.488281 L 6.070312 3.144531 L 5.324219 2.972656 L 5.324219 1.488281 C 5.328125 1.265625 5.230469 1.054688 5.0625 0.910156 C 4.894531 0.765625 4.671875 0.699219 4.453125 0.734375 C 4.761719 1.015625 4.941406 1.414062 4.941406 1.835938 Z M 2.6875 2.691406 L 4.214844 3.019531 L 4.214844 1.835938 C 4.214844 1.574219 4.082031 1.332031 3.859375 1.191406 C 3.820312 1.285156 3.796875 1.386719 3.796875 1.488281 L 3.78125 2.554688 L 3.054688 2.394531 L 3.074219 1.488281 C 3.074219 1.375 3.085938 1.261719 3.113281 1.152344 C 2.851562 1.28125 2.6875 1.546875 2.6875 1.835938 Z M 1.910156 3.492188 C 1.910156 3.664062 2.046875 3.804688 2.21875 3.804688 C 2.390625 3.804688 2.53125 3.664062 2.53125 3.492188 C 2.53125 3.320312 2.390625 3.183594 2.21875 3.183594 C 2.046875 3.183594 1.910156 3.320312 1.910156 3.492188 Z M 4.097656 5.972656 L 1.730469 5.414062 L 1.457031 7.042969 L 3.851562 7.625 Z M 4.675781 4 C 4.675781 3.828125 4.535156 3.691406 4.363281 3.691406 C 4.191406 3.691406 4.054688 3.828125 4.054688 4 C 4.054688 4.171875 4.191406 4.3125 4.363281 4.3125 C 4.535156 4.3125 4.675781 4.171875 4.675781 4 Z M 4.675781 4 "/>
</svg>
