<?xml version="1.0" encoding="UTF-8"?>
<svg xmlns="http://www.w3.org/2000/svg" xmlns:xlink="http://www.w3.org/1999/xlink" width="7.31748" height="11" viewBox="0 0 7.31748 11">
<path fill-rule="nonzero" fill="rgb(30%,30%,30%)" fill-opacity="1" d="M 4.949219 11 L 0 11 L 0 4.398438 L 4.949219 4.398438 Z M 5.023438 1.484375 C 5.015625 1.464844 4.816406 1.050781 4.328125 0.847656 C 4.023438 0.726562 3.628906 0.691406 3.328125 0.6875 L 3.328125 0.296875 L 1.617188 0.296875 L 1.617188 2.0625 L 2.132812 2.0625 L 2.132812 2.902344 L 1.117188 2.902344 L 1.117188 3.941406 L 3.832031 3.941406 L 3.832031 2.902344 L 2.816406 2.902344 L 2.816406 2.0625 L 3.328125 2.0625 L 3.328125 1.144531 C 3.839844 1.152344 4.371094 1.222656 4.609375 1.675781 C 4.644531 1.75 4.714844 1.800781 4.796875 1.808594 C 4.878906 1.816406 4.957031 1.777344 5.003906 1.710938 C 5.050781 1.644531 5.058594 1.558594 5.023438 1.484375 Z M 7.027344 2.175781 L 7.316406 1.898438 L 6.921875 1.835938 L 6.75 1.472656 L 6.566406 1.832031 L 6.171875 1.882812 L 6.453125 2.167969 L 6.378906 2.5625 L 6.738281 2.378906 L 7.089844 2.570312 Z M 5.8125 0.699219 L 6.105469 0.425781 L 5.707031 0.363281 L 5.535156 0 L 5.355469 0.355469 L 4.957031 0.410156 L 5.242188 0.691406 L 5.167969 1.085938 L 5.523438 0.90625 L 5.875 1.097656 Z M 6.207031 3.957031 L 6.496094 3.683594 L 6.101562 3.621094 L 5.929688 3.257812 L 5.746094 3.613281 L 5.351562 3.667969 L 5.632812 3.949219 L 5.558594 4.34375 L 5.917969 4.164062 L 6.269531 4.355469 Z M 6.207031 3.957031 "/>
</svg>
