<?xml version="1.0" encoding="UTF-8" standalone="no"?>
<!-- Created with Inkscape (http://www.inkscape.org/) -->

<svg
   xmlns:dc="http://purl.org/dc/elements/1.1/"
   xmlns:cc="http://creativecommons.org/ns#"
   xmlns:rdf="http://www.w3.org/1999/02/22-rdf-syntax-ns#"
   xmlns:svg="http://www.w3.org/2000/svg"
   xmlns="http://www.w3.org/2000/svg"
   xmlns:xlink="http://www.w3.org/1999/xlink"
   xmlns:sodipodi="http://sodipodi.sourceforge.net/DTD/sodipodi-0.dtd"
   xmlns:inkscape="http://www.inkscape.org/namespaces/inkscape"
   width="30px"
   height="30px"
   version="1.1"
   id="svg8"
   inkscape:version="0.92.4 5da689c313, 2019-01-14"
   sodipodi:docname="container.svg">
  <defs
     id="defs2" />
  <sodipodi:namedview
     id="base"
     pagecolor="#ffffff"
     bordercolor="#666666"
     borderopacity="1.0"
     inkscape:pageopacity="0.0"
     inkscape:pageshadow="2"
     inkscape:zoom="13.049334"
     inkscape:cx="18.679046"
     inkscape:cy="12.165829"
     inkscape:document-units="px"
     inkscape:current-layer="layer1"
     showgrid="false"
     inkscape:snap-page="false"
     units="px"
     inkscape:window-width="1884"
     inkscape:window-height="1061"
     inkscape:window-x="0"
     inkscape:window-y="0"
     inkscape:window-maximized="1"
     fit-margin-top="0"
     fit-margin-left="0"
     fit-margin-right="0"
     fit-margin-bottom="0" />
  <metadata
     id="metadata5">
    <rdf:RDF>
      <cc:Work
         rdf:about="">
        <dc:format>image/svg+xml</dc:format>
        <dc:type
           rdf:resource="http://purl.org/dc/dcmitype/StillImage" />
        <dc:title></dc:title>
      </cc:Work>
    </rdf:RDF>
  </metadata>
    <circle
       style="color:#000000;clip-rule:nonzero;display:inline;overflow:visible;visibility:visible;opacity:1;isolation:auto;mix-blend-mode:normal;color-interpolation:sRGB;color-interpolation-filters:linearRGB;solid-color:#000000;solid-opacity:1;vector-effect:none;fill:#808080;fill-opacity:1;fill-rule:evenodd;stroke:#ffffff;stroke-width:1;stroke-linecap:butt;stroke-linejoin:miter;stroke-miterlimit:4;stroke-dasharray:none;stroke-dashoffset:0;stroke-opacity:1;marker:none;color-rendering:auto;image-rendering:auto;shape-rendering:auto;text-rendering:auto;enable-background:accumulate"
       id="path815"
       cx="15"
       cy="15"
       r="14.5" />
<g transform="translate(6.5,8.0)"><path fill-rule="nonzero" fill="#FFFFFF" fill-opacity="1" d="M 8.203125 9.964844 L 7.664062 9.960938 C 7.597656 9.960938 7.542969 9.90625 7.539062 9.839844 C 7.496094 9.304688 7.222656 8.820312 6.8125 8.480469 C 6.566406 8.277344 6.296875 8.132812 5.984375 8.074219 C 5.757812 8.03125 5.53125 7.976562 5.296875 7.960938 C 4.5625 7.914062 3.847656 7.894531 3.128906 7.960938 C 2.984375 7.972656 2.835938 7.988281 2.691406 8.007812 C 2.5 8.03125 2.316406 8.097656 2.144531 8.183594 C 1.980469 8.265625 1.8125 8.355469 1.683594 8.488281 C 1.285156 8.890625 1.054688 9.371094 1.019531 9.847656 C 1.015625 9.917969 0.960938 9.96875 0.890625 9.96875 L 0.453125 9.964844 C 0.265625 9.964844 0.109375 10.121094 0.109375 10.308594 C 0.109375 10.464844 0.132812 10.640625 0.519531 10.714844 C 0.605469 10.730469 0.648438 10.828125 0.609375 10.90625 C 0.503906 11.101562 0.492188 11.3125 0.492188 11.527344 C 0.492188 11.808594 0.589844 12.222656 0.800781 12.511719 C 0.820312 12.539062 0.828125 12.574219 0.824219 12.605469 C 0.820312 12.625 0.820312 12.644531 0.820312 12.667969 L 0.820312 13.359375 C 0.820312 13.707031 1.105469 13.992188 1.453125 13.992188 L 1.492188 13.992188 C 1.84375 13.992188 2.128906 13.707031 2.128906 13.359375 L 2.128906 13.085938 C 2.128906 13.085938 2.132812 13.085938 2.132812 13.085938 C 2.6875 13.132812 5.488281 13.136719 6.40625 13.082031 C 6.480469 13.078125 6.542969 13.136719 6.542969 13.210938 L 6.542969 13.359375 C 6.542969 13.707031 6.828125 13.992188 7.179688 13.992188 L 7.21875 13.992188 C 7.566406 13.992188 7.851562 13.707031 7.851562 13.359375 L 7.851562 12.667969 C 7.851562 12.65625 7.851562 12.644531 7.851562 12.632812 C 7.847656 12.597656 7.855469 12.566406 7.875 12.539062 C 8.074219 12.265625 8.148438 11.796875 8.148438 11.527344 C 8.148438 11.316406 8.136719 11.089844 8.03125 10.886719 C 7.992188 10.816406 8.03125 10.726562 8.109375 10.703125 C 8.121094 10.699219 8.132812 10.695312 8.144531 10.691406 C 8.433594 10.601562 8.546875 10.5 8.546875 10.308594 C 8.546875 10.121094 8.394531 9.964844 8.203125 9.964844 Z M 2.082031 12.476562 C 1.78125 12.476562 1.539062 12.238281 1.539062 11.9375 C 1.539062 11.640625 1.78125 11.398438 2.082031 11.398438 C 2.378906 11.398438 2.621094 11.640625 2.621094 11.9375 C 2.621094 12.238281 2.378906 12.476562 2.082031 12.476562 Z M 1.335938 10.15625 C 1.453125 8.351562 2.4375 8.25 3.847656 8.246094 L 4.25 8.246094 C 5.871094 8.246094 7.171875 8.363281 7.207031 10.15625 C 7.222656 10.902344 5.847656 11.089844 4.226562 11.089844 C 2.601562 11.089844 1.285156 10.902344 1.335938 10.15625 Z M 6.679688 12.476562 C 6.382812 12.476562 6.140625 12.238281 6.140625 11.9375 C 6.140625 11.640625 6.382812 11.398438 6.679688 11.398438 C 6.980469 11.398438 7.222656 11.640625 7.222656 11.9375 C 7.222656 12.238281 6.980469 12.476562 6.679688 12.476562 Z M 6.679688 12.476562 "/>
<path fill-rule="nonzero" fill="#FFFFFF" fill-opacity="1" d="M 16.65625 9.964844 L 16.117188 9.957031 C 16.050781 9.957031 15.996094 9.90625 15.992188 9.839844 C 15.949219 9.304688 15.675781 8.816406 15.265625 8.476562 C 15.019531 8.277344 14.75 8.128906 14.4375 8.070312 C 14.207031 8.027344 13.980469 7.972656 13.75 7.960938 C 13.015625 7.910156 12.300781 7.890625 11.582031 7.957031 C 11.433594 7.96875 11.289062 7.984375 11.144531 8.003906 C 10.953125 8.027344 10.769531 8.097656 10.597656 8.179688 C 10.429688 8.261719 10.265625 8.351562 10.136719 8.484375 C 9.738281 8.890625 9.507812 9.367188 9.472656 9.84375 C 9.46875 9.914062 9.414062 9.964844 9.34375 9.964844 L 8.90625 9.964844 C 8.71875 9.964844 8.5625 10.117188 8.5625 10.308594 C 8.5625 10.464844 8.582031 10.640625 8.972656 10.714844 C 9.058594 10.730469 9.101562 10.824219 9.0625 10.902344 C 8.957031 11.097656 8.945312 11.308594 8.945312 11.523438 C 8.945312 11.804688 9.042969 12.21875 9.253906 12.511719 C 9.269531 12.539062 9.28125 12.570312 9.277344 12.601562 C 9.273438 12.621094 9.273438 12.644531 9.273438 12.664062 L 9.273438 13.355469 C 9.273438 13.703125 9.558594 13.988281 9.90625 13.988281 L 9.945312 13.988281 C 10.292969 13.988281 10.578125 13.703125 10.578125 13.355469 L 10.578125 13.082031 C 10.582031 13.082031 10.585938 13.082031 10.585938 13.085938 C 11.140625 13.128906 13.941406 13.132812 14.859375 13.082031 C 14.933594 13.078125 14.996094 13.136719 14.996094 13.210938 L 14.996094 13.355469 C 14.996094 13.703125 15.28125 13.988281 15.632812 13.988281 L 15.671875 13.988281 C 16.019531 13.988281 16.304688 13.703125 16.304688 13.355469 L 16.304688 12.664062 C 16.304688 12.652344 16.304688 12.640625 16.304688 12.628906 C 16.300781 12.597656 16.308594 12.5625 16.328125 12.535156 C 16.523438 12.265625 16.601562 11.792969 16.601562 11.523438 C 16.601562 11.316406 16.589844 11.085938 16.484375 10.886719 C 16.445312 10.8125 16.480469 10.722656 16.5625 10.699219 C 16.574219 10.695312 16.585938 10.691406 16.597656 10.6875 C 16.886719 10.601562 17 10.496094 17 10.308594 C 17 10.117188 16.84375 9.964844 16.65625 9.964844 Z M 10.535156 12.476562 C 10.234375 12.476562 9.992188 12.234375 9.992188 11.933594 C 9.992188 11.636719 10.234375 11.394531 10.535156 11.394531 C 10.832031 11.394531 11.074219 11.636719 11.074219 11.933594 C 11.074219 12.234375 10.832031 12.476562 10.535156 12.476562 Z M 9.789062 10.152344 C 9.90625 8.347656 10.890625 8.246094 12.300781 8.242188 L 12.703125 8.242188 C 14.324219 8.242188 15.625 8.363281 15.660156 10.152344 C 15.675781 10.898438 14.300781 11.085938 12.675781 11.085938 C 11.054688 11.085938 9.738281 10.898438 9.789062 10.152344 Z M 15.132812 12.476562 C 14.835938 12.476562 14.59375 12.234375 14.59375 11.933594 C 14.59375 11.636719 14.835938 11.394531 15.132812 11.394531 C 15.433594 11.394531 15.675781 11.636719 15.675781 11.933594 C 15.675781 12.234375 15.433594 12.476562 15.132812 12.476562 Z M 15.132812 12.476562 "/>
<path fill-rule="nonzero" fill="#FFFFFF" fill-opacity="1" d="M 8.09375 2.050781 L 7.554688 2.046875 C 7.488281 2.042969 7.433594 1.992188 7.429688 1.925781 C 7.386719 1.390625 7.113281 0.902344 6.703125 0.566406 C 6.457031 0.363281 6.1875 0.21875 5.875 0.15625 C 5.644531 0.113281 5.417969 0.0625 5.1875 0.046875 C 4.453125 0 3.738281 -0.0195312 3.019531 0.0429688 C 2.871094 0.0585938 2.726562 0.0742188 2.582031 0.09375 C 2.390625 0.117188 2.207031 0.183594 2.035156 0.269531 C 1.867188 0.347656 1.703125 0.441406 1.574219 0.570312 C 1.175781 0.976562 0.945312 1.453125 0.910156 1.933594 C 0.90625 2 0.851562 2.054688 0.78125 2.054688 L 0.34375 2.050781 C 0.15625 2.050781 0 2.207031 0 2.394531 C 0 2.550781 0.0195312 2.726562 0.410156 2.800781 C 0.496094 2.816406 0.539062 2.914062 0.5 2.988281 C 0.394531 3.183594 0.382812 3.394531 0.382812 3.613281 C 0.382812 3.890625 0.480469 4.304688 0.691406 4.597656 C 0.707031 4.625 0.71875 4.65625 0.714844 4.691406 C 0.710938 4.710938 0.710938 4.730469 0.710938 4.75 L 0.710938 5.445312 C 0.710938 5.792969 0.996094 6.078125 1.34375 6.078125 L 1.382812 6.078125 C 1.730469 6.078125 2.015625 5.792969 2.015625 5.445312 L 2.015625 5.171875 C 2.019531 5.171875 2.023438 5.171875 2.023438 5.171875 C 2.578125 5.21875 5.378906 5.222656 6.296875 5.167969 C 6.371094 5.164062 6.433594 5.222656 6.433594 5.296875 L 6.433594 5.445312 C 6.433594 5.792969 6.71875 6.078125 7.070312 6.078125 L 7.109375 6.078125 C 7.457031 6.078125 7.742188 5.792969 7.742188 5.445312 L 7.742188 4.75 C 7.742188 4.738281 7.742188 4.726562 7.742188 4.714844 C 7.738281 4.683594 7.746094 4.652344 7.765625 4.625 C 7.960938 4.351562 8.039062 3.878906 8.039062 3.613281 C 8.039062 3.402344 8.023438 3.171875 7.921875 2.972656 C 7.882812 2.898438 7.917969 2.808594 8 2.789062 C 8.011719 2.785156 8.023438 2.78125 8.035156 2.777344 C 8.324219 2.6875 8.4375 2.582031 8.4375 2.394531 C 8.4375 2.207031 8.28125 2.050781 8.09375 2.050781 Z M 1.96875 4.5625 C 1.671875 4.5625 1.429688 4.320312 1.429688 4.023438 C 1.429688 3.722656 1.671875 3.480469 1.96875 3.480469 C 2.269531 3.480469 2.511719 3.722656 2.511719 4.023438 C 2.511719 4.320312 2.269531 4.5625 1.96875 4.5625 Z M 1.222656 2.242188 C 1.34375 0.4375 2.328125 0.332031 3.738281 0.328125 L 4.136719 0.328125 C 5.761719 0.328125 7.0625 0.449219 7.097656 2.242188 C 7.113281 2.988281 5.738281 3.175781 4.113281 3.175781 C 2.492188 3.175781 1.175781 2.984375 1.222656 2.242188 Z M 6.570312 4.5625 C 6.273438 4.5625 6.03125 4.320312 6.03125 4.023438 C 6.03125 3.722656 6.273438 3.480469 6.570312 3.480469 C 6.871094 3.480469 7.113281 3.722656 7.113281 4.023438 C 7.113281 4.320312 6.871094 4.5625 6.570312 4.5625 Z M 6.570312 4.5625 "/>
<path fill-rule="nonzero" fill="#FFFFFF" fill-opacity="1" d="M 16.546875 2.046875 L 16.007812 2.042969 C 15.941406 2.042969 15.886719 1.988281 15.882812 1.921875 C 15.839844 1.386719 15.566406 0.902344 15.15625 0.5625 C 14.910156 0.359375 14.640625 0.214844 14.328125 0.15625 C 14.097656 0.113281 13.871094 0.0585938 13.640625 0.0429688 C 12.90625 -0.00390625 12.191406 -0.0234375 11.472656 0.0429688 C 11.324219 0.0546875 11.179688 0.0703125 11.035156 0.0898438 C 10.84375 0.113281 10.660156 0.179688 10.488281 0.265625 C 10.320312 0.347656 10.15625 0.4375 10.027344 0.570312 C 9.628906 0.972656 9.398438 1.453125 9.363281 1.929688 C 9.359375 2 9.304688 2.050781 9.234375 2.050781 L 8.796875 2.046875 C 8.605469 2.046875 8.453125 2.203125 8.453125 2.390625 C 8.453125 2.546875 8.472656 2.722656 8.863281 2.796875 C 8.949219 2.8125 8.992188 2.910156 8.949219 2.988281 C 8.847656 3.183594 8.835938 3.394531 8.835938 3.609375 C 8.835938 3.890625 8.929688 4.304688 9.140625 4.59375 C 9.160156 4.621094 9.167969 4.65625 9.164062 4.6875 C 9.164062 4.707031 9.160156 4.726562 9.160156 4.75 L 9.160156 5.441406 C 9.160156 5.789062 9.445312 6.074219 9.796875 6.074219 L 9.835938 6.074219 C 10.183594 6.074219 10.46875 5.789062 10.46875 5.441406 L 10.46875 5.167969 C 10.472656 5.167969 10.476562 5.167969 10.476562 5.167969 C 11.03125 5.214844 13.828125 5.21875 14.75 5.164062 C 14.824219 5.160156 14.886719 5.21875 14.886719 5.292969 L 14.886719 5.441406 C 14.886719 5.789062 15.171875 6.074219 15.519531 6.074219 L 15.5625 6.074219 C 15.910156 6.074219 16.195312 5.789062 16.195312 5.441406 L 16.195312 4.75 C 16.195312 4.738281 16.195312 4.726562 16.195312 4.714844 C 16.191406 4.679688 16.199219 4.648438 16.21875 4.621094 C 16.414062 4.347656 16.492188 3.878906 16.492188 3.609375 C 16.492188 3.398438 16.476562 3.171875 16.375 2.96875 C 16.335938 2.898438 16.371094 2.808594 16.449219 2.785156 C 16.464844 2.78125 16.476562 2.777344 16.488281 2.773438 C 16.777344 2.683594 16.890625 2.582031 16.890625 2.390625 C 16.890625 2.203125 16.734375 2.046875 16.546875 2.046875 Z M 10.421875 4.558594 C 10.125 4.558594 9.882812 4.320312 9.882812 4.019531 C 9.882812 3.722656 10.125 3.480469 10.421875 3.480469 C 10.722656 3.480469 10.964844 3.722656 10.964844 4.019531 C 10.964844 4.320312 10.722656 4.558594 10.421875 4.558594 Z M 9.675781 2.238281 C 9.796875 0.433594 10.78125 0.332031 12.191406 0.328125 L 12.589844 0.328125 C 14.214844 0.328125 15.515625 0.445312 15.550781 2.238281 C 15.566406 2.984375 14.191406 3.171875 12.566406 3.171875 C 10.945312 3.171875 9.628906 2.984375 9.675781 2.238281 Z M 15.023438 4.558594 C 14.726562 4.558594 14.484375 4.320312 14.484375 4.019531 C 14.484375 3.722656 14.726562 3.480469 15.023438 3.480469 C 15.324219 3.480469 15.566406 3.722656 15.566406 4.019531 C 15.566406 4.320312 15.324219 4.558594 15.023438 4.558594 Z M 15.023438 4.558594 "/>
</g>
</svg>
