<?xml version="1.0" encoding="UTF-8" standalone="no"?>
<!-- Created with Inkscape (http://www.inkscape.org/) -->

<svg
   xmlns:dc="http://purl.org/dc/elements/1.1/"
   xmlns:cc="http://creativecommons.org/ns#"
   xmlns:rdf="http://www.w3.org/1999/02/22-rdf-syntax-ns#"
   xmlns:svg="http://www.w3.org/2000/svg"
   xmlns="http://www.w3.org/2000/svg"
   xmlns:xlink="http://www.w3.org/1999/xlink"
   xmlns:sodipodi="http://sodipodi.sourceforge.net/DTD/sodipodi-0.dtd"
   xmlns:inkscape="http://www.inkscape.org/namespaces/inkscape"
   width="30px"
   height="30px"
   version="1.1"
   id="svg8"
   inkscape:version="0.92.4 5da689c313, 2019-01-14"
   sodipodi:docname="container.svg">
  <defs
     id="defs2" />
  <sodipodi:namedview
     id="base"
     pagecolor="#ffffff"
     bordercolor="#666666"
     borderopacity="1.0"
     inkscape:pageopacity="0.0"
     inkscape:pageshadow="2"
     inkscape:zoom="13.049334"
     inkscape:cx="18.679046"
     inkscape:cy="12.165829"
     inkscape:document-units="px"
     inkscape:current-layer="layer1"
     showgrid="false"
     inkscape:snap-page="false"
     units="px"
     inkscape:window-width="1884"
     inkscape:window-height="1061"
     inkscape:window-x="0"
     inkscape:window-y="0"
     inkscape:window-maximized="1"
     fit-margin-top="0"
     fit-margin-left="0"
     fit-margin-right="0"
     fit-margin-bottom="0" />
  <metadata
     id="metadata5">
    <rdf:RDF>
      <cc:Work
         rdf:about="">
        <dc:format>image/svg+xml</dc:format>
        <dc:type
           rdf:resource="http://purl.org/dc/dcmitype/StillImage" />
        <dc:title></dc:title>
      </cc:Work>
    </rdf:RDF>
  </metadata>
    <circle
       style="color:#000000;clip-rule:nonzero;display:inline;overflow:visible;visibility:visible;opacity:1;isolation:auto;mix-blend-mode:normal;color-interpolation:sRGB;color-interpolation-filters:linearRGB;solid-color:#000000;solid-opacity:1;vector-effect:none;fill:#ffffff;fill-opacity:1;fill-rule:evenodd;stroke:#808080;stroke-width:1;stroke-linecap:butt;stroke-linejoin:miter;stroke-miterlimit:4;stroke-dasharray:none;stroke-dashoffset:0;stroke-opacity:1;marker:none;color-rendering:auto;image-rendering:auto;shape-rendering:auto;text-rendering:auto;enable-background:accumulate"
       id="path815"
       cx="15"
       cy="15"
       r="14.5" />
<g transform="translate(6.5,7.0)"><path fill-rule="nonzero" fill="rgb(30%,30%,30%)" fill-opacity="1" d="M 8.203125 0.964844 C 8.3125 1.566406 8.070312 2.117188 7.664062 2.191406 C 7.257812 2.265625 6.839844 1.835938 6.730469 1.234375 C 6.621094 0.632812 6.859375 0.0820312 7.265625 0.0078125 C 7.671875 -0.0664062 8.089844 0.363281 8.203125 0.964844 Z M 8.203125 0.964844 "/>
<path fill-rule="nonzero" fill="rgb(30%,30%,30%)" fill-opacity="1" d="M 6.710938 2.210938 C 6.953125 2.695312 6.855469 3.234375 6.492188 3.414062 C 6.128906 3.59375 5.640625 3.347656 5.402344 2.863281 C 5.160156 2.378906 5.257812 1.839844 5.621094 1.660156 C 5.984375 1.480469 6.472656 1.726562 6.710938 2.210938 Z M 6.710938 2.210938 "/>
<path fill-rule="nonzero" fill="rgb(30%,30%,30%)" fill-opacity="1" d="M 11.179688 1.636719 C 11.566406 1.757812 11.75 2.273438 11.589844 2.789062 C 11.429688 3.304688 10.988281 3.628906 10.601562 3.507812 C 10.214844 3.390625 10.03125 2.871094 10.191406 2.355469 C 10.351562 1.839844 10.792969 1.515625 11.179688 1.636719 Z M 11.179688 1.636719 "/>
<path fill-rule="nonzero" fill="rgb(30%,30%,30%)" fill-opacity="1" d="M 9.683594 0.0078125 C 10.089844 0.0820312 10.328125 0.632812 10.21875 1.234375 C 10.105469 1.835938 9.6875 2.265625 9.28125 2.191406 C 8.875 2.113281 8.636719 1.566406 8.746094 0.964844 C 8.859375 0.363281 9.277344 -0.0664062 9.683594 0.0078125 Z M 9.683594 0.0078125 "/>
<path fill-rule="nonzero" fill="rgb(30%,30%,30%)" fill-opacity="1" d="M 6.363281 4.425781 C 6.363281 4.425781 6.855469 3.804688 7.085938 3.5625 C 7.316406 3.324219 7.625 2.757812 7.625 2.757812 C 7.839844 2.472656 8.179688 2.308594 8.535156 2.308594 C 8.890625 2.3125 9.226562 2.484375 9.433594 2.773438 C 9.433594 2.773438 9.707031 3.363281 9.90625 3.609375 C 10.109375 3.855469 10.636719 4.421875 10.636719 4.421875 C 11.121094 5.152344 10.640625 6.117188 9.816406 6.082031 C 9.796875 6.082031 9.78125 6.078125 9.761719 6.070312 C 9.605469 6.019531 8.816406 5.78125 8.472656 5.78125 C 8.09375 5.78125 7.328125 6.019531 7.191406 6.058594 C 7.175781 6.0625 7.164062 6.0625 7.148438 6.0625 C 6.324219 6.042969 5.863281 5.089844 6.363281 4.425781 Z M 6.363281 4.425781 "/>
<path fill-rule="nonzero" fill="rgb(30%,30%,30%)" fill-opacity="1" d="M 8.128906 8.375 C 7.9375 8.234375 0.9375 3.375 0.472656 3.898438 C 0.132812 4.261719 4.664062 8.242188 6.234375 9.589844 L 8.160156 8.402344 Z M 8.128906 8.375 "/>
<path fill-rule="nonzero" fill="rgb(30%,30%,30%)" fill-opacity="1" d="M 7.085938 10.273438 L 7.261719 10.40625 L 7.152344 10.234375 Z M 7.085938 10.273438 "/>
<path fill-rule="nonzero" fill="rgb(30%,30%,30%)" fill-opacity="1" d="M 15.972656 12.28125 L 15.433594 11.832031 C 15.554688 11.1875 15.316406 10.527344 14.808594 10.113281 C 14.300781 9.699219 13.609375 9.589844 13 9.835938 C 12.394531 10.078125 11.96875 10.636719 11.890625 11.285156 L 10.628906 10.308594 C 10.636719 10.417969 10.558594 10.542969 10.425781 10.628906 C 10.253906 10.738281 10.050781 10.726562 9.972656 10.609375 L 8.988281 9.105469 L 8.730469 9.265625 L 9.710938 10.769531 C 9.730469 10.792969 9.738281 10.824219 9.742188 10.851562 L 12.238281 12.625 C 12.246094 12.617188 12.292969 12.664062 12.300781 12.65625 C 12.6875 13.15625 13.285156 13.378906 13.957031 13.269531 C 14.382812 13.203125 14.769531 12.980469 15.046875 12.648438 L 15.691406 13.09375 C 15.691406 13.09375 16.9375 13.507812 16.996094 12.933594 C 17.058594 12.359375 15.972656 12.28125 15.972656 12.28125 Z M 13.886719 12.515625 C 13.320312 12.605469 12.789062 12.21875 12.699219 11.65625 C 12.605469 11.089844 12.992188 10.558594 13.554688 10.46875 C 14.121094 10.378906 14.652344 10.761719 14.742188 11.328125 C 14.832031 11.890625 14.449219 12.421875 13.886719 12.515625 Z M 13.886719 12.515625 "/>
<path fill-rule="nonzero" fill="rgb(30%,30%,30%)" fill-opacity="1" d="M 9.539062 11.175781 C 9.367188 11.285156 9.164062 11.273438 9.085938 11.15625 L 8.253906 9.882812 C 8.378906 9.753906 8.394531 9.550781 8.289062 9.40625 C 8.183594 9.257812 7.988281 9.207031 7.824219 9.28125 C 7.976562 9.214844 8.15625 9.257812 8.261719 9.382812 C 8.371094 9.511719 8.378906 9.695312 8.289062 9.832031 C 8.195312 9.96875 8.023438 10.03125 7.863281 9.980469 L 8.761719 11.355469 C 8.796875 11.40625 8.796875 11.46875 8.773438 11.53125 L 10.59375 12.890625 C 9.8125 13.222656 9.371094 14.054688 9.535156 14.890625 C 9.699219 15.722656 10.421875 16.324219 11.273438 16.335938 C 12.121094 16.347656 12.859375 15.761719 13.046875 14.933594 C 13.230469 14.101562 12.808594 13.257812 12.035156 12.910156 C 11.542969 12.480469 10.457031 11.664062 9.65625 11.074219 C 9.621094 11.113281 9.582031 11.148438 9.539062 11.175781 Z M 12.316406 14.378906 C 12.40625 14.941406 12.023438 15.472656 11.460938 15.566406 C 10.894531 15.65625 10.363281 15.273438 10.273438 14.707031 C 10.179688 14.140625 10.566406 13.609375 11.128906 13.519531 C 11.695312 13.429688 12.226562 13.8125 12.316406 14.378906 Z M 12.316406 14.378906 "/>
<path fill-rule="nonzero" fill="rgb(30%,30%,30%)" fill-opacity="1" d="M 6.035156 9.695312 L 0.253906 13.253906 C -0.128906 13.496094 0.00390625 13.8125 0.117188 13.996094 C 0.160156 14.074219 0.207031 14.152344 0.257812 14.222656 L 1.429688 16.050781 C 1.460938 16.089844 1.535156 16.09375 1.597656 16.050781 C 1.660156 16.007812 1.6875 15.941406 1.65625 15.898438 L 0.578125 14.21875 C 0.648438 14.199219 0.714844 14.171875 0.773438 14.132812 L 1.839844 15.792969 C 1.871094 15.835938 1.949219 15.839844 2.007812 15.796875 C 2.070312 15.753906 2.097656 15.6875 2.066406 15.644531 L 1.007812 13.992188 L 1.1875 13.882812 L 2.246094 15.535156 C 2.277344 15.578125 2.359375 15.585938 2.421875 15.542969 C 2.484375 15.5 2.507812 15.433594 2.476562 15.390625 L 1.417969 13.738281 L 1.601562 13.628906 L 2.660156 15.28125 C 2.691406 15.324219 2.769531 15.332031 2.832031 15.289062 C 2.894531 15.246094 2.921875 15.179688 2.890625 15.140625 L 1.832031 13.488281 L 2.011719 13.375 L 3.070312 15.027344 C 3.101562 15.070312 3.183594 15.078125 3.242188 15.035156 C 3.304688 14.992188 3.332031 14.925781 3.300781 14.886719 L 2.242188 13.234375 L 2.421875 13.121094 L 3.480469 14.773438 C 3.511719 14.816406 3.59375 14.824219 3.65625 14.78125 C 3.71875 14.738281 3.742188 14.671875 3.710938 14.632812 L 2.65625 12.980469 L 2.835938 12.871094 L 3.894531 14.519531 C 3.925781 14.5625 4.003906 14.570312 4.066406 14.527344 C 4.128906 14.484375 4.15625 14.417969 4.125 14.378906 L 3.066406 12.726562 L 3.246094 12.617188 L 4.304688 14.265625 C 4.335938 14.308594 4.417969 14.316406 4.476562 14.273438 C 4.539062 14.230469 4.566406 14.164062 4.535156 14.125 L 3.480469 12.472656 L 3.660156 12.363281 L 4.714844 14.011719 C 4.746094 14.054688 4.828125 14.0625 4.890625 14.019531 C 4.953125 13.976562 4.976562 13.910156 4.949219 13.871094 L 3.890625 12.222656 L 4.070312 12.109375 L 5.128906 13.757812 C 5.160156 13.800781 5.238281 13.808594 5.300781 13.765625 C 5.363281 13.722656 5.390625 13.65625 5.359375 13.617188 L 4.304688 11.96875 L 4.484375 11.855469 L 5.539062 13.503906 C 5.570312 13.546875 5.652344 13.554688 5.714844 13.511719 C 5.773438 13.46875 5.800781 13.402344 5.769531 13.363281 L 4.714844 11.714844 L 4.894531 11.605469 L 5.953125 13.25 C 5.980469 13.292969 6.0625 13.300781 6.125 13.257812 C 6.1875 13.214844 6.214844 13.148438 6.183594 13.109375 L 5.128906 11.460938 L 5.308594 11.351562 L 6.363281 12.996094 C 6.394531 13.039062 6.472656 13.046875 6.535156 13.003906 C 6.597656 12.960938 6.625 12.894531 6.59375 12.855469 L 5.539062 11.207031 L 5.71875 11.097656 L 6.773438 12.742188 C 6.804688 12.785156 6.886719 12.792969 6.949219 12.75 C 7.007812 12.707031 7.035156 12.640625 7.003906 12.601562 L 5.953125 10.957031 L 6.132812 10.84375 L 7.1875 12.488281 C 7.21875 12.53125 7.296875 12.539062 7.359375 12.496094 C 7.421875 12.453125 7.449219 12.386719 7.417969 12.347656 L 6.363281 10.703125 L 6.5625 10.582031 L 7.59375 12.242188 C 7.625 12.285156 7.703125 12.289062 7.761719 12.246094 C 7.824219 12.207031 7.851562 12.136719 7.820312 12.097656 L 6.792969 10.4375 L 6.886719 10.378906 L 6.558594 10.132812 C 6.527344 10.109375 6.335938 9.949219 6.035156 9.695312 Z M 6.035156 9.695312 "/>
<path fill-rule="nonzero" fill="rgb(30%,30%,30%)" fill-opacity="1" d="M 7.9375 11.847656 C 8.015625 11.964844 8.203125 11.984375 8.371094 11.878906 C 8.46875 11.816406 8.546875 11.726562 8.574219 11.636719 L 7.0625 10.511719 Z M 7.9375 11.847656 "/>
<path fill-rule="nonzero" fill="rgb(30%,30%,30%)" fill-opacity="1" d="M 10.785156 10.117188 L 9.804688 8.617188 L 10.0625 8.457031 L 11.050781 9.953125 C 11.128906 10.070312 11.320312 10.089844 11.488281 9.980469 C 11.660156 9.875 11.757812 9.683594 11.679688 9.566406 L 10.691406 8.070312 L 10.949219 7.910156 L 11.9375 9.40625 C 12.015625 9.523438 12.222656 9.535156 12.394531 9.425781 C 12.5625 9.316406 12.644531 9.136719 12.566406 9.019531 L 11.578125 7.527344 L 11.933594 7.308594 L 12.921875 8.800781 C 13 8.917969 13.203125 8.929688 13.375 8.820312 C 13.546875 8.710938 13.625 8.53125 13.546875 8.414062 L 12.5625 6.921875 L 12.820312 6.761719 L 13.800781 8.257812 C 13.878906 8.375 14.089844 8.382812 14.257812 8.273438 C 14.429688 8.164062 14.507812 7.988281 14.429688 7.871094 L 13.449219 6.375 L 13.707031 6.21875 L 14.6875 7.710938 C 14.765625 7.828125 14.972656 7.835938 15.144531 7.726562 C 15.316406 7.617188 15.394531 7.441406 15.316406 7.324219 L 14.335938 5.832031 L 14.59375 5.671875 L 15.53125 7.1875 C 15.609375 7.308594 15.816406 7.316406 15.988281 7.207031 C 16.15625 7.097656 16.210938 6.9375 16.132812 6.816406 L 14.9375 4.902344 C 14.914062 4.867188 14.855469 4.785156 14.855469 4.785156 C 14.734375 4.585938 14.402344 4.566406 14.121094 4.738281 L 8.324219 8.308594 L 10.789062 10.214844 C 10.789062 10.183594 10.804688 10.144531 10.785156 10.117188 Z M 10.785156 10.117188 "/>
<path fill-rule="nonzero" fill="rgb(30%,30%,30%)" fill-opacity="1" d="M 7.621094 9.707031 C 7.582031 9.535156 7.664062 9.359375 7.824219 9.28125 C 7.683594 9.347656 7.597656 9.488281 7.605469 9.644531 C 7.613281 9.796875 7.714844 9.933594 7.863281 9.980469 L 7.859375 9.972656 C 7.742188 9.929688 7.652344 9.832031 7.621094 9.707031 Z M 7.621094 9.707031 "/>
<path fill-rule="nonzero" fill="rgb(30%,30%,30%)" fill-opacity="1" d="M 8.730469 9.265625 L 8.988281 9.105469 L 9.972656 10.609375 C 10.050781 10.726562 10.253906 10.738281 10.425781 10.628906 C 10.558594 10.542969 10.636719 10.417969 10.628906 10.308594 L 8.160156 8.402344 L 6.234375 9.589844 C 6.53125 9.84375 6.726562 10.003906 6.753906 10.027344 L 7.085938 10.273438 L 7.152344 10.234375 L 7.261719 10.40625 L 8.773438 11.53125 C 8.796875 11.46875 8.796875 11.40625 8.761719 11.355469 L 7.863281 9.980469 C 7.703125 9.925781 7.59375 9.777344 7.601562 9.605469 C 7.605469 9.4375 7.722656 9.292969 7.886719 9.253906 C 8.050781 9.210938 8.222656 9.28125 8.308594 9.429688 C 8.390625 9.574219 8.371094 9.761719 8.253906 9.882812 L 9.085938 11.15625 C 9.164062 11.273438 9.367188 11.285156 9.539062 11.175781 C 9.582031 11.148438 9.621094 11.113281 9.65625 11.074219 C 9.332031 10.832031 9.050781 10.628906 8.878906 10.503906 C 8.820312 10.464844 8.988281 10.351562 9.003906 10.332031 L 9.742188 10.851562 C 9.738281 10.824219 9.730469 10.792969 9.710938 10.769531 Z M 8.730469 9.265625 "/>
</g>
</svg>
