<?xml version="1.0" encoding="UTF-8" standalone="no"?>
<!-- Created with Inkscape (http://www.inkscape.org/) -->

<svg
   xmlns:dc="http://purl.org/dc/elements/1.1/"
   xmlns:cc="http://creativecommons.org/ns#"
   xmlns:rdf="http://www.w3.org/1999/02/22-rdf-syntax-ns#"
   xmlns:svg="http://www.w3.org/2000/svg"
   xmlns="http://www.w3.org/2000/svg"
   xmlns:xlink="http://www.w3.org/1999/xlink"
   xmlns:sodipodi="http://sodipodi.sourceforge.net/DTD/sodipodi-0.dtd"
   xmlns:inkscape="http://www.inkscape.org/namespaces/inkscape"
   width="30px"
   height="30px"
   version="1.1"
   id="svg8"
   inkscape:version="0.92.4 5da689c313, 2019-01-14"
   sodipodi:docname="container.svg">
  <defs
     id="defs2" />
  <sodipodi:namedview
     id="base"
     pagecolor="#ffffff"
     bordercolor="#666666"
     borderopacity="1.0"
     inkscape:pageopacity="0.0"
     inkscape:pageshadow="2"
     inkscape:zoom="13.049334"
     inkscape:cx="18.679046"
     inkscape:cy="12.165829"
     inkscape:document-units="px"
     inkscape:current-layer="layer1"
     showgrid="false"
     inkscape:snap-page="false"
     units="px"
     inkscape:window-width="1884"
     inkscape:window-height="1061"
     inkscape:window-x="0"
     inkscape:window-y="0"
     inkscape:window-maximized="1"
     fit-margin-top="0"
     fit-margin-left="0"
     fit-margin-right="0"
     fit-margin-bottom="0" />
  <metadata
     id="metadata5">
    <rdf:RDF>
      <cc:Work
         rdf:about="">
        <dc:format>image/svg+xml</dc:format>
        <dc:type
           rdf:resource="http://purl.org/dc/dcmitype/StillImage" />
        <dc:title></dc:title>
      </cc:Work>
    </rdf:RDF>
  </metadata>
    <circle
       style="color:#000000;clip-rule:nonzero;display:inline;overflow:visible;visibility:visible;opacity:1;isolation:auto;mix-blend-mode:normal;color-interpolation:sRGB;color-interpolation-filters:linearRGB;solid-color:#000000;solid-opacity:1;vector-effect:none;fill:#808080;fill-opacity:1;fill-rule:evenodd;stroke:#ffffff;stroke-width:1;stroke-linecap:butt;stroke-linejoin:miter;stroke-miterlimit:4;stroke-dasharray:none;stroke-dashoffset:0;stroke-opacity:1;marker:none;color-rendering:auto;image-rendering:auto;shape-rendering:auto;text-rendering:auto;enable-background:accumulate"
       id="path815"
       cx="15"
       cy="15"
       r="14.5" />
<g transform="translate(9.0,6.5)"><path fill-rule="nonzero" fill="#FFFFFF" fill-opacity="1" d="M 0.5 10.371094 C 0.65625 9.984375 1.109375 9.820312 1.484375 10.011719 C 2.277344 10.417969 3.746094 10.992188 5.714844 11.007812 C 7.910156 11.027344 9.53125 10.375 10.4375 9.96875 C 10.847656 9.785156 11.324219 9.996094 11.46875 10.421875 L 11.894531 11.707031 C 12.03125 12.109375 11.8125 12.542969 11.410156 12.679688 C 10.613281 12.953125 9.328125 13.476562 8.40625 14.246094 C 7.300781 15.171875 6.574219 16.742188 6.574219 16.742188 C 6.574219 16.742188 5.957031 17.300781 5.410156 16.777344 C 5.285156 16.65625 4.441406 14.886719 3.277344 13.96875 C 2.734375 13.539062 1.417969 12.992188 0.527344 12.675781 C 0.09375 12.519531 -0.113281 12.066406 0.0625 11.636719 Z M 0.5 10.371094 "/>
<path fill-rule="nonzero" fill="#FFFFFF" fill-opacity="1" d="M 11.144531 3.851562 C 11.144531 3.84375 11.148438 3.835938 11.148438 3.828125 C 11.148438 3.828125 10.800781 1.53125 10.917969 0.546875 C 10.960938 0.1875 10.691406 0 10.425781 0 C 10.160156 0 9.921875 0.300781 9.921875 0.679688 C 9.921875 0.679688 9.988281 2.496094 10.054688 3.332031 C 8.351562 3.496094 6.171875 5.789062 5.984375 6.128906 L 5.941406 6.128906 C 5.753906 5.792969 3.574219 3.496094 1.871094 3.332031 C 1.9375 2.496094 2.003906 0.679688 2.003906 0.679688 C 2.003906 0.300781 1.765625 0 1.5 0 C 1.234375 0 0.96875 0.1875 1.007812 0.546875 C 1.125 1.53125 0.777344 3.828125 0.777344 3.828125 C 0.777344 3.835938 0.78125 3.84375 0.78125 3.851562 C 0.527344 4.332031 0.546875 5.039062 0.558594 5.546875 C 0.597656 7.171875 1.820312 8.105469 3.3125 8.105469 C 3.566406 8.105469 3.804688 8.082031 4.03125 8.039062 C 4.796875 7.847656 5.214844 7.320312 5.851562 7.351562 C 6.457031 7.320312 7.046875 7.683594 7.46875 7.886719 C 7.527344 7.914062 7.636719 7.960938 7.699219 7.976562 C 7.890625 8.015625 8.34375 8.105469 8.613281 8.105469 C 10.105469 8.105469 11.328125 7.171875 11.367188 5.546875 C 11.382812 5.039062 11.398438 4.332031 11.144531 3.851562 Z M 11.144531 3.851562 "/>
</g>
</svg>
