<?xml version="1.0" encoding="UTF-8" standalone="no"?>
<!-- Created with Inkscape (http://www.inkscape.org/) -->

<svg
   xmlns:dc="http://purl.org/dc/elements/1.1/"
   xmlns:cc="http://creativecommons.org/ns#"
   xmlns:rdf="http://www.w3.org/1999/02/22-rdf-syntax-ns#"
   xmlns:svg="http://www.w3.org/2000/svg"
   xmlns="http://www.w3.org/2000/svg"
   xmlns:xlink="http://www.w3.org/1999/xlink"
   xmlns:sodipodi="http://sodipodi.sourceforge.net/DTD/sodipodi-0.dtd"
   xmlns:inkscape="http://www.inkscape.org/namespaces/inkscape"
   width="30px"
   height="30px"
   version="1.1"
   id="svg8"
   inkscape:version="0.92.4 5da689c313, 2019-01-14"
   sodipodi:docname="container.svg">
  <defs
     id="defs2" />
  <sodipodi:namedview
     id="base"
     pagecolor="#ffffff"
     bordercolor="#666666"
     borderopacity="1.0"
     inkscape:pageopacity="0.0"
     inkscape:pageshadow="2"
     inkscape:zoom="13.049334"
     inkscape:cx="18.679046"
     inkscape:cy="12.165829"
     inkscape:document-units="px"
     inkscape:current-layer="layer1"
     showgrid="false"
     inkscape:snap-page="false"
     units="px"
     inkscape:window-width="1884"
     inkscape:window-height="1061"
     inkscape:window-x="0"
     inkscape:window-y="0"
     inkscape:window-maximized="1"
     fit-margin-top="0"
     fit-margin-left="0"
     fit-margin-right="0"
     fit-margin-bottom="0" />
  <metadata
     id="metadata5">
    <rdf:RDF>
      <cc:Work
         rdf:about="">
        <dc:format>image/svg+xml</dc:format>
        <dc:type
           rdf:resource="http://purl.org/dc/dcmitype/StillImage" />
        <dc:title></dc:title>
      </cc:Work>
    </rdf:RDF>
  </metadata>
    <circle
       style="color:#000000;clip-rule:nonzero;display:inline;overflow:visible;visibility:visible;opacity:1;isolation:auto;mix-blend-mode:normal;color-interpolation:sRGB;color-interpolation-filters:linearRGB;solid-color:#000000;solid-opacity:1;vector-effect:none;fill:#ffffff;fill-opacity:1;fill-rule:evenodd;stroke:#808080;stroke-width:1;stroke-linecap:butt;stroke-linejoin:miter;stroke-miterlimit:4;stroke-dasharray:none;stroke-dashoffset:0;stroke-opacity:1;marker:none;color-rendering:auto;image-rendering:auto;shape-rendering:auto;text-rendering:auto;enable-background:accumulate"
       id="path815"
       cx="15"
       cy="15"
       r="14.5" />
<g transform="translate(6.5,7.0)"><path fill-rule="nonzero" fill="rgb(30%,30%,30%)" fill-opacity="1" d="M 14.445312 14.71875 L 14.445312 5.414062 L 11.851562 5.414062 L 11.851562 14.71875 C 11.851562 15.320312 12.339844 15.808594 12.945312 15.808594 L 13.355469 15.808594 C 13.957031 15.808594 14.445312 15.320312 14.445312 14.71875 Z M 13.1875 0 C 12.394531 0 11.617188 0.199219 10.925781 0.582031 C 10.300781 0.925781 9.761719 1.40625 9.34375 1.984375 L 10.667969 3.601562 L 11.851562 5.054688 L 12.671875 5.039062 L 12.316406 2.527344 L 12.6875 2.484375 L 13.046875 5.035156 L 13.199219 5.03125 L 13.175781 1.507812 L 13.597656 1.507812 L 13.621094 5.027344 L 14.488281 5.007812 L 17 1.945312 C 16.128906 0.765625 14.746094 0 13.1875 0 Z M 5.496094 9.507812 C 8.53125 9.507812 10.992188 9.191406 10.992188 8.800781 L 10.992188 6.488281 L 10.9375 6.488281 C 10.554688 6.144531 8.265625 5.882812 5.496094 5.882812 C 2.726562 5.882812 0.4375 6.144531 0.0546875 6.488281 L 0.00390625 6.488281 L 0.00390625 6.566406 C 0 6.582031 0 6.59375 0.00390625 6.609375 L 0.00390625 8.820312 C 0.0859375 9.203125 2.511719 9.507812 5.496094 9.507812 Z M 5.496094 10.277344 C 2.492188 10.277344 0.0507812 9.964844 0.00390625 9.582031 L 0.00390625 15.195312 L 0 15.195312 C 0 15.585938 2.460938 15.902344 5.496094 15.902344 C 8.484375 15.902344 10.914062 15.597656 10.992188 15.214844 L 10.992188 9.582031 C 10.941406 9.964844 8.5 10.277344 5.496094 10.277344 Z M 8.203125 11.730469 L 8.203125 13.628906 C 7.40625 13.6875 6.480469 13.71875 5.496094 13.71875 C 4.464844 13.71875 3.496094 13.683594 2.667969 13.621094 L 2.667969 11.71875 C 3.496094 11.785156 4.464844 11.820312 5.496094 11.820312 C 6.480469 11.820312 7.40625 11.789062 8.203125 11.730469 Z M 8.203125 11.730469 "/>
</g>
</svg>
