<?xml version="1.0" encoding="UTF-8"?>
<svg xmlns="http://www.w3.org/2000/svg" xmlns:xlink="http://www.w3.org/1999/xlink" width="11" height="10.290651" viewBox="0 0 11 10.290651">
<path fill-rule="nonzero" fill="rgb(30%,30%,30%)" fill-opacity="1" d="M 9.347656 9.523438 L 9.347656 3.503906 L 7.667969 3.503906 L 7.667969 9.523438 C 7.667969 9.914062 7.984375 10.230469 8.375 10.230469 L 8.640625 10.230469 C 9.03125 10.230469 9.347656 9.914062 9.347656 9.523438 Z M 8.53125 0 C 8.019531 0 7.519531 0.128906 7.070312 0.375 C 6.664062 0.597656 6.316406 0.910156 6.046875 1.285156 L 6.902344 2.332031 L 7.667969 3.269531 L 8.199219 3.261719 L 7.96875 1.636719 L 8.210938 1.609375 L 8.441406 3.257812 L 8.539062 3.253906 L 8.527344 0.976562 L 8.796875 0.972656 L 8.8125 3.253906 L 9.375 3.242188 L 11 1.257812 C 10.4375 0.496094 9.539062 0 8.53125 0 Z M 3.554688 6.152344 C 5.519531 6.152344 7.113281 5.949219 7.113281 5.695312 L 7.113281 4.199219 L 7.078125 4.199219 C 6.832031 3.976562 5.347656 3.804688 3.554688 3.804688 C 1.765625 3.804688 0.28125 3.976562 0.0351562 4.199219 L 0 4.199219 L 0 4.25 C 0 4.257812 0 4.269531 0 4.277344 L 0 5.707031 C 0.0546875 5.953125 1.625 6.152344 3.554688 6.152344 Z M 3.558594 6.648438 C 1.613281 6.648438 0.0351562 6.449219 0 6.199219 L 0 9.832031 C 0 10.085938 1.59375 10.289062 3.554688 10.289062 C 5.488281 10.289062 7.0625 10.09375 7.113281 9.84375 L 7.113281 6.199219 C 7.082031 6.449219 5.5 6.648438 3.558594 6.648438 Z M 5.308594 7.589844 L 5.308594 8.820312 C 4.792969 8.855469 4.195312 8.878906 3.558594 8.878906 C 2.886719 8.878906 2.261719 8.855469 1.726562 8.8125 L 1.726562 7.582031 C 2.261719 7.625 2.886719 7.648438 3.558594 7.648438 C 4.195312 7.648438 4.792969 7.628906 5.308594 7.589844 Z M 5.308594 7.589844 "/>
</svg>
