<?xml version="1.0" encoding="UTF-8"?>
<svg xmlns="http://www.w3.org/2000/svg" xmlns:xlink="http://www.w3.org/1999/xlink" width="11" height="5.721291" viewBox="0 0 11 5.721291">
<path fill-rule="nonzero" fill="rgb(30%,30%,30%)" fill-opacity="1" d="M 9.257812 2.234375 C 9.023438 2.234375 8.789062 2.285156 8.574219 2.375 L 7.957031 1.417969 L 8.15625 1.425781 L 8.15625 0.347656 C 7.652344 0.347656 7.453125 0.5625 7.371094 0.71875 L 6.066406 0.0273438 C 5.957031 -0.03125 5.820312 0.0117188 5.761719 0.121094 L 5.699219 0.234375 C 5.640625 0.347656 5.683594 0.484375 5.792969 0.542969 L 6.480469 0.90625 C 4.039062 1.207031 3.941406 1.980469 3.855469 1.921875 C 3.460938 1.660156 1.730469 1.632812 1.730469 1.632812 L 1.730469 2.027344 C 2.183594 1.964844 2.605469 2.054688 2.953125 2.277344 C 2.945312 2.28125 2.941406 2.285156 2.933594 2.292969 L 2.710938 2.53125 C 2.050781 2.089844 1.175781 2.148438 0.582031 2.679688 C -0.0117188 3.207031 -0.171875 4.070312 0.195312 4.777344 C 0.558594 5.484375 1.355469 5.855469 2.132812 5.675781 C 2.90625 5.5 3.464844 4.820312 3.484375 4.023438 L 3.859375 3.980469 C 3.925781 4.121094 5.402344 4.386719 6.714844 4.257812 C 7.082031 4.222656 7.1875 3.761719 7.1875 3.761719 L 7.265625 1.554688 L 7.304688 1.421875 L 8.105469 2.671875 C 7.476562 3.226562 7.332031 4.15625 7.765625 4.875 C 8.199219 5.597656 9.085938 5.90625 9.875 5.609375 C 10.660156 5.3125 11.121094 4.492188 10.972656 3.664062 C 10.820312 2.835938 10.097656 2.234375 9.257812 2.234375 Z M 2.761719 3.328125 C 2.804688 3.394531 2.839844 3.464844 2.871094 3.542969 L 2.523438 3.582031 Z M 1.742188 5.1875 C 1.234375 5.191406 0.777344 4.871094 0.605469 4.394531 C 0.429688 3.917969 0.570312 3.378906 0.960938 3.050781 C 1.351562 2.726562 1.902344 2.675781 2.34375 2.929688 L 1.570312 3.761719 C 1.480469 3.863281 1.488281 4.015625 1.585938 4.105469 L 1.648438 4.167969 C 1.722656 4.234375 1.824219 4.25 1.914062 4.210938 L 2.949219 4.089844 C 2.890625 4.710938 2.367188 5.1875 1.742188 5.1875 Z M 3.410156 3.476562 C 3.351562 3.277344 3.257812 3.09375 3.132812 2.925781 L 3.359375 2.683594 C 3.363281 2.675781 3.371094 2.667969 3.375 2.660156 C 3.546875 2.871094 3.675781 3.132812 3.761719 3.433594 Z M 9.234375 5.1875 C 8.742188 5.191406 8.296875 4.890625 8.113281 4.433594 C 7.925781 3.980469 8.035156 3.457031 8.390625 3.113281 L 9.019531 4.089844 C 9.101562 4.214844 9.269531 4.253906 9.398438 4.171875 C 9.527344 4.089844 9.5625 3.917969 9.480469 3.789062 L 8.863281 2.828125 C 9.316406 2.679688 9.816406 2.8125 10.136719 3.167969 C 10.453125 3.523438 10.535156 4.035156 10.339844 4.472656 C 10.144531 4.910156 9.710938 5.191406 9.234375 5.1875 Z M 9.234375 5.1875 "/>
</svg>
