<?xml version="1.0" encoding="UTF-8" standalone="no"?>
<!-- Created with Inkscape (http://www.inkscape.org/) -->

<svg
   xmlns:dc="http://purl.org/dc/elements/1.1/"
   xmlns:cc="http://creativecommons.org/ns#"
   xmlns:rdf="http://www.w3.org/1999/02/22-rdf-syntax-ns#"
   xmlns:svg="http://www.w3.org/2000/svg"
   xmlns="http://www.w3.org/2000/svg"
   xmlns:xlink="http://www.w3.org/1999/xlink"
   xmlns:sodipodi="http://sodipodi.sourceforge.net/DTD/sodipodi-0.dtd"
   xmlns:inkscape="http://www.inkscape.org/namespaces/inkscape"
   width="30px"
   height="30px"
   version="1.1"
   id="svg8"
   inkscape:version="0.92.4 5da689c313, 2019-01-14"
   sodipodi:docname="container.svg">
  <defs
     id="defs2" />
  <sodipodi:namedview
     id="base"
     pagecolor="#ffffff"
     bordercolor="#666666"
     borderopacity="1.0"
     inkscape:pageopacity="0.0"
     inkscape:pageshadow="2"
     inkscape:zoom="13.049334"
     inkscape:cx="18.679046"
     inkscape:cy="12.165829"
     inkscape:document-units="px"
     inkscape:current-layer="layer1"
     showgrid="false"
     inkscape:snap-page="false"
     units="px"
     inkscape:window-width="1884"
     inkscape:window-height="1061"
     inkscape:window-x="0"
     inkscape:window-y="0"
     inkscape:window-maximized="1"
     fit-margin-top="0"
     fit-margin-left="0"
     fit-margin-right="0"
     fit-margin-bottom="0" />
  <metadata
     id="metadata5">
    <rdf:RDF>
      <cc:Work
         rdf:about="">
        <dc:format>image/svg+xml</dc:format>
        <dc:type
           rdf:resource="http://purl.org/dc/dcmitype/StillImage" />
        <dc:title></dc:title>
      </cc:Work>
    </rdf:RDF>
  </metadata>
    <circle
       style="color:#000000;clip-rule:nonzero;display:inline;overflow:visible;visibility:visible;opacity:1;isolation:auto;mix-blend-mode:normal;color-interpolation:sRGB;color-interpolation-filters:linearRGB;solid-color:#000000;solid-opacity:1;vector-effect:none;fill:#ffffff;fill-opacity:1;fill-rule:evenodd;stroke:#808080;stroke-width:1;stroke-linecap:butt;stroke-linejoin:miter;stroke-miterlimit:4;stroke-dasharray:none;stroke-dashoffset:0;stroke-opacity:1;marker:none;color-rendering:auto;image-rendering:auto;shape-rendering:auto;text-rendering:auto;enable-background:accumulate"
       id="path815"
       cx="15"
       cy="15"
       r="14.5" />
<g transform="translate(9.0,6.5)"><path fill-rule="nonzero" fill="rgb(30%,30%,30%)" fill-opacity="1" d="M 9.195312 5.316406 L 9.945312 5.25 L 11.875 15.5 L 8.015625 17 Z M 7.636719 5.054688 L 8.789062 5.300781 L 7.609375 16.984375 L 0 14.519531 L 1.820312 3.800781 L 3.035156 4.0625 L 3.035156 2.835938 C 3.035156 1.566406 4.066406 0.535156 5.335938 0.535156 C 5.410156 0.535156 5.488281 0.539062 5.5625 0.546875 C 5.976562 0.195312 6.503906 0 7.050781 0 C 8.316406 0 9.351562 1.03125 9.351562 2.300781 L 9.378906 4.859375 L 8.230469 4.59375 L 8.230469 2.300781 C 8.230469 1.957031 8.082031 1.628906 7.824219 1.40625 C 7.566406 1.183594 7.21875 1.082031 6.878906 1.132812 C 7.359375 1.570312 7.636719 2.1875 7.636719 2.835938 Z M 4.15625 4.160156 L 6.515625 4.667969 L 6.515625 2.835938 C 6.511719 2.433594 6.304688 2.054688 5.964844 1.839844 C 5.902344 1.984375 5.871094 2.140625 5.871094 2.300781 L 5.839844 3.949219 L 4.722656 3.699219 L 4.75 2.300781 C 4.75 2.125 4.769531 1.953125 4.808594 1.78125 C 4.410156 1.980469 4.15625 2.390625 4.15625 2.835938 Z M 2.949219 5.398438 C 2.949219 5.664062 3.164062 5.878906 3.429688 5.878906 C 3.695312 5.878906 3.910156 5.664062 3.910156 5.398438 C 3.910156 5.132812 3.695312 4.917969 3.429688 4.917969 C 3.164062 4.917969 2.949219 5.132812 2.949219 5.398438 Z M 6.332031 9.230469 L 2.671875 8.363281 L 2.253906 10.882812 L 5.949219 11.78125 Z M 7.222656 6.183594 C 7.222656 5.917969 7.007812 5.703125 6.742188 5.703125 C 6.476562 5.703125 6.261719 5.917969 6.261719 6.183594 C 6.261719 6.449219 6.476562 6.664062 6.742188 6.664062 C 7.007812 6.664062 7.222656 6.449219 7.222656 6.183594 Z M 7.222656 6.183594 "/>
</g>
</svg>
