<?xml version="1.0" encoding="UTF-8"?>
<svg xmlns="http://www.w3.org/2000/svg" xmlns:xlink="http://www.w3.org/1999/xlink" width="11" height="4.77237" viewBox="0 0 11 4.77237">
<path fill-rule="nonzero" fill="rgb(30%,30%,30%)" fill-opacity="1" d="M 11 1.644531 L 10.589844 1.644531 C 10.230469 0.46875 9.070312 -0.230469 7.925781 0.0703125 C 7.101562 0.289062 6.460938 1.015625 6.277344 1.902344 C 5.925781 1.40625 5.152344 1.355469 4.714844 1.910156 C 4.480469 0.617188 3.304688 -0.207031 2.089844 0.0429688 C 1.289062 0.210938 0.640625 0.828125 0.386719 1.644531 L 0 1.644531 L 0 2.316406 L 0.277344 2.316406 C 0.277344 2.339844 0.277344 2.363281 0.277344 2.386719 C 0.277344 3.703125 1.28125 4.773438 2.515625 4.773438 C 3.703125 4.773438 4.671875 3.789062 4.75 2.542969 C 4.867188 2.230469 5.207031 1.992188 5.511719 1.976562 C 5.796875 1.992188 6.085938 2.246094 6.21875 2.527344 C 6.261719 3.84375 7.300781 4.816406 8.535156 4.769531 C 9.742188 4.726562 10.699219 3.671875 10.699219 2.386719 C 10.699219 2.363281 10.699219 2.339844 10.699219 2.316406 L 11 2.316406 Z M 4.054688 2.386719 C 4.054688 3.292969 3.367188 4.027344 2.515625 4.027344 C 1.664062 4.027344 0.972656 3.292969 0.972656 2.386719 C 0.972656 1.480469 1.664062 0.746094 2.515625 0.746094 C 3.367188 0.746094 4.054688 1.480469 4.054688 2.386719 Z M 10.003906 2.386719 C 10.003906 3.292969 9.3125 4.027344 8.460938 4.027344 C 7.609375 4.027344 6.921875 3.292969 6.921875 2.386719 C 6.921875 1.480469 7.609375 0.746094 8.460938 0.746094 C 9.3125 0.746094 10.003906 1.480469 10.003906 2.386719 Z M 10.003906 2.386719 "/>
</svg>
