<?xml version="1.0" encoding="UTF-8"?>
<svg xmlns="http://www.w3.org/2000/svg" xmlns:xlink="http://www.w3.org/1999/xlink" width="11" height="10.969955" viewBox="0 0 11 10.969955">
<path fill-rule="nonzero" fill="rgb(30%,30%,30%)" fill-opacity="1" d="M 6.277344 10.210938 L 4.664062 6.769531 C 6.246094 6.425781 6.195312 4.855469 6.101562 4.164062 C 6.03125 3.671875 4.519531 3.8125 4.34375 3.8125 C 4.171875 3.8125 3.875 3.449219 3.527344 3.347656 C 3.183594 3.25 1.15625 3.324219 1.039062 3.335938 C 0.921875 3.347656 0.0117188 3.511719 0.0859375 4.046875 C 0.289062 5.527344 0.941406 6.230469 1.789062 6.558594 L 0.0195312 9.90625 C -0.0234375 9.988281 0.0078125 10.089844 0.0898438 10.132812 C 0.171875 10.175781 0.273438 10.144531 0.316406 10.0625 L 2.109375 6.664062 C 2.210938 6.691406 2.3125 6.714844 2.417969 6.734375 L 1.722656 10.5 C 1.703125 10.589844 1.765625 10.675781 1.855469 10.695312 C 1.945312 10.710938 2.03125 10.652344 2.050781 10.558594 L 2.75 6.78125 C 2.921875 6.804688 3.101562 6.816406 3.28125 6.824219 L 4.019531 10.636719 C 4.03125 10.695312 4.074219 10.742188 4.128906 10.761719 C 4.1875 10.78125 4.25 10.769531 4.292969 10.730469 C 4.339844 10.691406 4.359375 10.632812 4.347656 10.570312 L 3.625 6.835938 C 3.761719 6.835938 3.898438 6.835938 4.035156 6.835938 C 4.136719 6.832031 4.230469 6.828125 4.320312 6.820312 L 5.972656 10.355469 C 6.011719 10.4375 6.113281 10.472656 6.195312 10.433594 C 6.277344 10.394531 6.316406 10.296875 6.277344 10.210938 Z M 2.824219 6.445312 C 2.824219 6.445312 2.230469 6.125 2.164062 5.59375 C 2.09375 5.0625 2.175781 4.722656 1.984375 4.546875 C 1.792969 4.375 1.347656 4.375 1.027344 4.265625 C 0.617188 4.121094 0.671875 3.855469 0.816406 3.800781 C 1.0625 3.707031 2.996094 3.640625 3.4375 3.769531 C 3.875 3.898438 4.042969 4.203125 4.226562 4.207031 C 4.414062 4.214844 5.476562 4.191406 5.566406 4.234375 C 5.730469 4.308594 5.863281 4.695312 5.730469 5.238281 C 5.574219 5.863281 5.265625 6.199219 4.652344 6.414062 C 4.4375 6.492188 2.824219 6.445312 2.824219 6.445312 Z M 8.996094 9.878906 L 8.996094 3.546875 L 11 3.546875 L 10.457031 0 L 7.121094 0 L 6.511719 3.546875 L 8.554688 3.546875 L 8.554688 9.878906 C 7.457031 9.902344 6.601562 10.136719 6.601562 10.421875 C 6.601562 10.726562 7.566406 10.96875 8.757812 10.96875 C 9.953125 10.96875 10.917969 10.726562 10.917969 10.421875 C 10.917969 10.140625 10.078125 9.910156 8.996094 9.878906 Z M 8.996094 9.878906 "/>
</svg>
