<?xml version="1.0" encoding="UTF-8"?>
<svg xmlns="http://www.w3.org/2000/svg" xmlns:xlink="http://www.w3.org/1999/xlink" width="11" height="6.933158" viewBox="0 0 11 6.933158">
<path fill-rule="nonzero" fill="rgb(30%,30%,30%)" fill-opacity="1" d="M 10.796875 4.355469 C 9.914062 4.140625 9.394531 3.421875 8.980469 2.703125 C 8.613281 2.617188 8.40625 2.582031 8.273438 2.613281 C 8.3125 2.785156 8.445312 3.039062 8.6875 3.472656 C 8.425781 3.042969 8.273438 2.800781 8.144531 2.679688 C 8.074219 2.75 8.03125 2.859375 7.96875 3.023438 C 8.003906 2.820312 8.023438 2.691406 7.96875 2.59375 C 7.867188 2.578125 7.75 2.628906 7.578125 2.710938 C 7.710938 2.617188 7.800781 2.550781 7.851562 2.472656 C 7.703125 2.375 7.429688 2.292969 6.945312 2.152344 C 7.441406 2.273438 7.71875 2.339844 7.894531 2.328125 C 7.898438 2.15625 7.761719 1.898438 7.46875 1.367188 C 7.800781 1.914062 7.953125 2.160156 8.113281 2.230469 C 8.171875 2.160156 8.214844 2.054688 8.269531 1.910156 C 8.242188 2.054688 8.226562 2.164062 8.238281 2.25 C 8.328125 2.246094 8.433594 2.199219 8.578125 2.132812 C 8.4375 2.230469 8.34375 2.300781 8.296875 2.382812 C 8.382812 2.492188 8.582031 2.570312 8.972656 2.6875 C 8.503906 1.875 8.160156 1.070312 7.558594 1.023438 C 7.417969 0.988281 7.273438 0.984375 7.132812 1.011719 C 6.613281 1.113281 6.203125 1.394531 5.875 1.621094 C 5.613281 1.796875 5.367188 1.964844 5.230469 1.925781 C 5.160156 1.90625 5.015625 1.808594 4.832031 1.375 C 4.46875 0.53125 4.148438 0.128906 3.753906 0.0273438 C 3.324219 -0.0898438 2.941406 0.199219 2.601562 0.457031 C 1.933594 0.957031 0.277344 1.292969 0.261719 1.292969 L 0 1.347656 L 0.0625 1.605469 C 0.0625 1.617188 0.0664062 1.628906 0.0703125 1.640625 C 0.0703125 1.644531 0.0742188 1.652344 0.0742188 1.660156 C 0.710938 4.34375 1.800781 5.996094 3.453125 6.628906 C 3.613281 6.6875 3.972656 6.824219 4.140625 6.867188 C 4.488281 6.953125 4.726562 6.929688 5.109375 6.929688 C 5.875 6.929688 6.710938 6.757812 7.601562 6.414062 C 8.480469 6.074219 9.390625 5.574219 10.316406 4.925781 C 10.449219 4.832031 10.539062 4.769531 10.570312 4.742188 C 10.582031 4.734375 10.589844 4.730469 10.589844 4.730469 L 11 4.410156 Z M 3.621094 0.207031 C 3.773438 0.179688 4.371094 1.476562 4.453125 1.484375 L 4.421875 1.519531 C 4.257812 1.644531 3.640625 0.402344 3.453125 0.511719 C 3.265625 0.621094 2.78125 0.589844 2.78125 0.589844 C 3.007812 0.539062 3.378906 0.246094 3.621094 0.207031 Z M 7.773438 3.644531 C 7.078125 3.511719 5.914062 4.730469 4.660156 4.628906 C 3.769531 4.554688 2.722656 2.964844 2.210938 2.535156 C 1.890625 2.261719 0.929688 1.851562 0.257812 1.582031 C 0.304688 1.574219 0.0625 1.417969 0.113281 1.40625 C 0.964844 1.664062 2.585938 2.273438 2.9375 2.789062 C 3.449219 3.539062 4.5 4.972656 6.503906 3.617188 C 7.402344 3.007812 8.585938 3.527344 9.476562 4.007812 C 9.695312 4.269531 10.402344 4.359375 10.703125 4.539062 C 9.511719 4.394531 8.300781 3.742188 7.773438 3.644531 Z M 7.773438 3.644531 "/>
</svg>
