<?xml version="1.0" encoding="UTF-8" standalone="no"?>
<!-- Created with Inkscape (http://www.inkscape.org/) -->

<svg
   xmlns:dc="http://purl.org/dc/elements/1.1/"
   xmlns:cc="http://creativecommons.org/ns#"
   xmlns:rdf="http://www.w3.org/1999/02/22-rdf-syntax-ns#"
   xmlns:svg="http://www.w3.org/2000/svg"
   xmlns="http://www.w3.org/2000/svg"
   xmlns:xlink="http://www.w3.org/1999/xlink"
   xmlns:sodipodi="http://sodipodi.sourceforge.net/DTD/sodipodi-0.dtd"
   xmlns:inkscape="http://www.inkscape.org/namespaces/inkscape"
   width="30px"
   height="30px"
   version="1.1"
   id="svg8"
   inkscape:version="0.92.4 5da689c313, 2019-01-14"
   sodipodi:docname="container.svg">
  <defs
     id="defs2" />
  <sodipodi:namedview
     id="base"
     pagecolor="#ffffff"
     bordercolor="#666666"
     borderopacity="1.0"
     inkscape:pageopacity="0.0"
     inkscape:pageshadow="2"
     inkscape:zoom="13.049334"
     inkscape:cx="18.679046"
     inkscape:cy="12.165829"
     inkscape:document-units="px"
     inkscape:current-layer="layer1"
     showgrid="false"
     inkscape:snap-page="false"
     units="px"
     inkscape:window-width="1884"
     inkscape:window-height="1061"
     inkscape:window-x="0"
     inkscape:window-y="0"
     inkscape:window-maximized="1"
     fit-margin-top="0"
     fit-margin-left="0"
     fit-margin-right="0"
     fit-margin-bottom="0" />
  <metadata
     id="metadata5">
    <rdf:RDF>
      <cc:Work
         rdf:about="">
        <dc:format>image/svg+xml</dc:format>
        <dc:type
           rdf:resource="http://purl.org/dc/dcmitype/StillImage" />
        <dc:title></dc:title>
      </cc:Work>
    </rdf:RDF>
  </metadata>
    <circle
       style="color:#000000;clip-rule:nonzero;display:inline;overflow:visible;visibility:visible;opacity:1;isolation:auto;mix-blend-mode:normal;color-interpolation:sRGB;color-interpolation-filters:linearRGB;solid-color:#000000;solid-opacity:1;vector-effect:none;fill:#808080;fill-opacity:1;fill-rule:evenodd;stroke:#ffffff;stroke-width:1;stroke-linecap:butt;stroke-linejoin:miter;stroke-miterlimit:4;stroke-dasharray:none;stroke-dashoffset:0;stroke-opacity:1;marker:none;color-rendering:auto;image-rendering:auto;shape-rendering:auto;text-rendering:auto;enable-background:accumulate"
       id="path815"
       cx="15"
       cy="15"
       r="14.5" />
<g transform="translate(6.5,9.5)"><path fill-rule="nonzero" fill="#FFFFFF" fill-opacity="1" d="M 16.683594 6.730469 C 15.320312 6.402344 14.523438 5.289062 13.882812 4.179688 C 13.3125 4.046875 12.992188 3.992188 12.785156 4.039062 C 12.84375 4.304688 13.054688 4.695312 13.425781 5.367188 C 13.023438 4.703125 12.789062 4.324219 12.585938 4.144531 C 12.476562 4.246094 12.410156 4.417969 12.316406 4.671875 C 12.371094 4.359375 12.398438 4.160156 12.316406 4.007812 C 12.15625 3.988281 11.980469 4.0625 11.710938 4.1875 C 11.914062 4.046875 12.058594 3.9375 12.136719 3.820312 C 11.90625 3.671875 11.484375 3.542969 10.734375 3.328125 C 11.5 3.515625 11.933594 3.617188 12.203125 3.601562 C 12.207031 3.332031 11.996094 2.933594 11.542969 2.117188 C 12.054688 2.960938 12.292969 3.339844 12.539062 3.445312 C 12.632812 3.339844 12.695312 3.179688 12.777344 2.949219 C 12.738281 3.175781 12.710938 3.34375 12.730469 3.476562 C 12.871094 3.46875 13.035156 3.398438 13.257812 3.292969 C 13.039062 3.445312 12.894531 3.554688 12.820312 3.683594 C 12.957031 3.851562 13.261719 3.96875 13.863281 4.152344 C 13.140625 2.894531 12.613281 1.652344 11.683594 1.578125 C 11.464844 1.527344 11.238281 1.519531 11.019531 1.566406 C 10.222656 1.71875 9.585938 2.15625 9.078125 2.503906 C 8.675781 2.777344 8.296875 3.039062 8.082031 2.976562 C 7.976562 2.945312 7.753906 2.792969 7.464844 2.121094 C 6.90625 0.824219 6.410156 0.203125 5.804688 0.0390625 C 5.140625 -0.136719 4.542969 0.308594 4.019531 0.703125 C 2.988281 1.476562 0.429688 1.996094 0.40625 2 L 0 2.082031 L 0.09375 2.484375 C 0.0976562 2.5 0.101562 2.515625 0.105469 2.53125 C 0.109375 2.542969 0.113281 2.554688 0.113281 2.566406 C 1.101562 6.710938 2.78125 9.269531 5.335938 10.242188 C 5.582031 10.335938 6.140625 10.546875 6.398438 10.609375 C 6.9375 10.742188 7.304688 10.710938 7.894531 10.710938 C 9.082031 10.710938 10.371094 10.445312 11.75 9.910156 C 13.105469 9.386719 14.515625 8.613281 15.945312 7.613281 C 16.148438 7.46875 16.285156 7.367188 16.332031 7.332031 C 16.351562 7.316406 16.363281 7.308594 16.363281 7.308594 L 17 6.8125 Z M 5.59375 0.320312 C 5.832031 0.28125 6.753906 2.28125 6.882812 2.292969 L 6.835938 2.347656 C 6.582031 2.542969 5.628906 0.621094 5.335938 0.789062 C 5.046875 0.960938 4.300781 0.910156 4.300781 0.910156 C 4.648438 0.835938 5.222656 0.378906 5.59375 0.320312 Z M 12.011719 5.628906 C 10.9375 5.425781 9.140625 7.3125 7.203125 7.152344 C 5.828125 7.042969 4.207031 4.585938 3.414062 3.917969 C 2.917969 3.496094 1.4375 2.863281 0.398438 2.445312 C 0.46875 2.429688 0.09375 2.195312 0.171875 2.171875 C 1.488281 2.570312 3.996094 3.511719 4.539062 4.3125 C 5.332031 5.472656 6.957031 7.6875 10.050781 5.589844 C 11.441406 4.648438 13.269531 5.453125 14.648438 6.191406 C 14.988281 6.597656 16.074219 6.738281 16.542969 7.015625 C 14.703125 6.789062 12.828125 5.785156 12.011719 5.628906 Z M 12.011719 5.628906 "/>
</g>
</svg>
