<?xml version="1.0" encoding="UTF-8" standalone="no"?>
<!-- Created with Inkscape (http://www.inkscape.org/) -->

<svg
   xmlns:dc="http://purl.org/dc/elements/1.1/"
   xmlns:cc="http://creativecommons.org/ns#"
   xmlns:rdf="http://www.w3.org/1999/02/22-rdf-syntax-ns#"
   xmlns:svg="http://www.w3.org/2000/svg"
   xmlns="http://www.w3.org/2000/svg"
   xmlns:xlink="http://www.w3.org/1999/xlink"
   xmlns:sodipodi="http://sodipodi.sourceforge.net/DTD/sodipodi-0.dtd"
   xmlns:inkscape="http://www.inkscape.org/namespaces/inkscape"
   width="30px"
   height="30px"
   version="1.1"
   id="svg8"
   inkscape:version="0.92.4 5da689c313, 2019-01-14"
   sodipodi:docname="container.svg">
  <defs
     id="defs2" />
  <sodipodi:namedview
     id="base"
     pagecolor="#ffffff"
     bordercolor="#666666"
     borderopacity="1.0"
     inkscape:pageopacity="0.0"
     inkscape:pageshadow="2"
     inkscape:zoom="13.049334"
     inkscape:cx="18.679046"
     inkscape:cy="12.165829"
     inkscape:document-units="px"
     inkscape:current-layer="layer1"
     showgrid="false"
     inkscape:snap-page="false"
     units="px"
     inkscape:window-width="1884"
     inkscape:window-height="1061"
     inkscape:window-x="0"
     inkscape:window-y="0"
     inkscape:window-maximized="1"
     fit-margin-top="0"
     fit-margin-left="0"
     fit-margin-right="0"
     fit-margin-bottom="0" />
  <metadata
     id="metadata5">
    <rdf:RDF>
      <cc:Work
         rdf:about="">
        <dc:format>image/svg+xml</dc:format>
        <dc:type
           rdf:resource="http://purl.org/dc/dcmitype/StillImage" />
        <dc:title></dc:title>
      </cc:Work>
    </rdf:RDF>
  </metadata>
    <circle
       style="color:#000000;clip-rule:nonzero;display:inline;overflow:visible;visibility:visible;opacity:1;isolation:auto;mix-blend-mode:normal;color-interpolation:sRGB;color-interpolation-filters:linearRGB;solid-color:#000000;solid-opacity:1;vector-effect:none;fill:#ffffff;fill-opacity:1;fill-rule:evenodd;stroke:#808080;stroke-width:1;stroke-linecap:butt;stroke-linejoin:miter;stroke-miterlimit:4;stroke-dasharray:none;stroke-dashoffset:0;stroke-opacity:1;marker:none;color-rendering:auto;image-rendering:auto;shape-rendering:auto;text-rendering:auto;enable-background:accumulate"
       id="path815"
       cx="15"
       cy="15"
       r="14.5" />
<g transform="translate(6.5,9.0)"><path fill-rule="nonzero" fill="rgb(30%,30%,30%)" fill-opacity="1" d="M 16.292969 9.738281 L 16.292969 1.289062 C 16.292969 0.542969 15.75 0.00390625 14.949219 0 L 2.050781 0 C 1.25 0.00390625 0.707031 0.542969 0.707031 1.289062 L 0.707031 9.738281 L 0 9.738281 L 0 10.8125 C 0 11.199219 0.40625 11.511719 0.90625 11.511719 L 16.140625 11.511719 C 16.640625 11.511719 17 11.148438 17 10.761719 L 17 9.738281 Z M 1.417969 1.152344 C 1.417969 0.90625 1.613281 0.707031 1.859375 0.707031 L 15.140625 0.707031 C 15.386719 0.707031 15.582031 0.90625 15.582031 1.152344 L 15.582031 9.386719 L 1.417969 9.386719 Z M 1.769531 10.800781 L 1.417969 10.800781 L 1.417969 10.449219 L 1.769531 10.449219 Z M 2.832031 10.800781 L 2.480469 10.800781 L 2.480469 10.449219 L 2.832031 10.449219 Z M 9.917969 10.09375 L 7.082031 10.09375 C 6.671875 10.09375 6.582031 9.738281 6.582031 9.738281 L 10.417969 9.738281 C 10.417969 9.738281 10.328125 10.09375 9.917969 10.09375 Z M 9.917969 10.09375 "/>
</g>
</svg>
