<?xml version="1.0" encoding="UTF-8" standalone="no"?>
<!-- Created with Inkscape (http://www.inkscape.org/) -->

<svg
   xmlns:dc="http://purl.org/dc/elements/1.1/"
   xmlns:cc="http://creativecommons.org/ns#"
   xmlns:rdf="http://www.w3.org/1999/02/22-rdf-syntax-ns#"
   xmlns:svg="http://www.w3.org/2000/svg"
   xmlns="http://www.w3.org/2000/svg"
   xmlns:xlink="http://www.w3.org/1999/xlink"
   xmlns:sodipodi="http://sodipodi.sourceforge.net/DTD/sodipodi-0.dtd"
   xmlns:inkscape="http://www.inkscape.org/namespaces/inkscape"
   width="30px"
   height="30px"
   version="1.1"
   id="svg8"
   inkscape:version="0.92.4 5da689c313, 2019-01-14"
   sodipodi:docname="container.svg">
  <defs
     id="defs2" />
  <sodipodi:namedview
     id="base"
     pagecolor="#ffffff"
     bordercolor="#666666"
     borderopacity="1.0"
     inkscape:pageopacity="0.0"
     inkscape:pageshadow="2"
     inkscape:zoom="13.049334"
     inkscape:cx="18.679046"
     inkscape:cy="12.165829"
     inkscape:document-units="px"
     inkscape:current-layer="layer1"
     showgrid="false"
     inkscape:snap-page="false"
     units="px"
     inkscape:window-width="1884"
     inkscape:window-height="1061"
     inkscape:window-x="0"
     inkscape:window-y="0"
     inkscape:window-maximized="1"
     fit-margin-top="0"
     fit-margin-left="0"
     fit-margin-right="0"
     fit-margin-bottom="0" />
  <metadata
     id="metadata5">
    <rdf:RDF>
      <cc:Work
         rdf:about="">
        <dc:format>image/svg+xml</dc:format>
        <dc:type
           rdf:resource="http://purl.org/dc/dcmitype/StillImage" />
        <dc:title></dc:title>
      </cc:Work>
    </rdf:RDF>
  </metadata>
    <circle
       style="color:#000000;clip-rule:nonzero;display:inline;overflow:visible;visibility:visible;opacity:1;isolation:auto;mix-blend-mode:normal;color-interpolation:sRGB;color-interpolation-filters:linearRGB;solid-color:#000000;solid-opacity:1;vector-effect:none;fill:#808080;fill-opacity:1;fill-rule:evenodd;stroke:#ffffff;stroke-width:1;stroke-linecap:butt;stroke-linejoin:miter;stroke-miterlimit:4;stroke-dasharray:none;stroke-dashoffset:0;stroke-opacity:1;marker:none;color-rendering:auto;image-rendering:auto;shape-rendering:auto;text-rendering:auto;enable-background:accumulate"
       id="path815"
       cx="15"
       cy="15"
       r="14.5" />
<g transform="translate(7.5,6.5)"><path fill-rule="nonzero" fill="#FFFFFF" fill-opacity="1" d="M 7.519531 4.308594 C 7.65625 3.039062 7.234375 1.898438 6.324219 0.976562 C 5.640625 0.285156 4.804688 -0.0585938 3.828125 0.0078125 C 2.867188 0.0742188 2.097656 0.527344 1.5 1.265625 C 0.773438 2.160156 0.496094 3.195312 0.570312 4.335938 C 0.632812 5.351562 1.019531 6.230469 1.734375 6.945312 C 2.648438 7.859375 3.710938 8.140625 4.914062 7.832031 C 5.253906 7.746094 7.21875 7.03125 7.519531 4.308594 Z M 2.898438 7.1875 C 2.035156 6.671875 1.457031 5.984375 1.210938 5.03125 C 0.878906 3.757812 1.085938 2.574219 1.929688 1.539062 C 2.449219 0.90625 3.128906 0.535156 3.957031 0.507812 C 4.855469 0.476562 5.589844 0.855469 6.160156 1.535156 C 6.867188 2.375 7.113281 3.359375 7 4.441406 C 6.90625 5.292969 6.578125 6.03125 5.96875 6.640625 C 5.476562 7.132812 4.882812 7.417969 4.1875 7.460938 C 3.980469 7.472656 3.257812 7.40625 2.898438 7.1875 Z M 2.898438 7.1875 "/>
<path fill-rule="nonzero" fill="#FFFFFF" fill-opacity="1" d="M 2.089844 4.492188 C 2.132812 4.464844 2.210938 4.429688 2.269531 4.371094 C 3.160156 3.488281 4.042969 2.601562 4.929688 1.714844 C 4.953125 1.691406 4.980469 1.667969 4.996094 1.640625 C 5.066406 1.527344 5.066406 1.417969 4.976562 1.320312 C 4.886719 1.226562 4.753906 1.214844 4.644531 1.292969 C 4.613281 1.316406 4.589844 1.34375 4.5625 1.371094 C 3.683594 2.246094 2.808594 3.121094 1.933594 4 C 1.890625 4.042969 1.847656 4.089844 1.824219 4.148438 C 1.753906 4.304688 1.878906 4.484375 2.089844 4.492188 Z M 2.402344 2.941406 C 2.484375 2.898438 2.546875 2.886719 2.585938 2.847656 C 2.929688 2.511719 3.269531 2.171875 3.605469 1.828125 C 3.703125 1.726562 3.691406 1.578125 3.597656 1.484375 C 3.503906 1.390625 3.363281 1.386719 3.253906 1.476562 C 3.207031 1.515625 3.164062 1.5625 3.121094 1.609375 C 2.832031 1.894531 2.542969 2.183594 2.253906 2.472656 C 2.167969 2.558594 2.140625 2.667969 2.199219 2.765625 C 2.246094 2.839844 2.335938 2.882812 2.402344 2.941406 Z M 2.402344 2.941406 "/>
<path fill-rule="nonzero" fill="#FFFFFF" fill-opacity="1" d="M 14.734375 10.777344 C 14.660156 10.769531 14.582031 10.777344 14.507812 10.777344 C 14.46875 10.371094 14.421875 10.277344 14.253906 10.28125 C 14.195312 10.28125 14.105469 10.304688 14.085938 10.347656 C 14.03125 10.472656 14.003906 10.613281 13.957031 10.765625 L 13.503906 10.765625 C 13.503906 10.691406 13.503906 10.628906 13.503906 10.566406 C 13.503906 10.109375 13.191406 9.78125 12.730469 9.777344 C 11.914062 9.769531 11.097656 9.769531 10.28125 9.777344 C 9.878906 9.78125 9.582031 10.039062 9.523438 10.425781 C 9.507812 10.535156 9.519531 10.648438 9.519531 10.761719 L 9.027344 10.761719 C 9.007812 10.558594 9.082031 10.296875 8.785156 10.285156 C 8.460938 10.277344 8.53125 10.558594 8.515625 10.761719 C 8.320312 10.796875 8.042969 10.707031 8.03125 11.011719 C 8.019531 11.347656 8.316406 11.261719 8.519531 11.292969 C 8.519531 11.359375 8.519531 11.417969 8.519531 11.476562 C 8.523438 11.65625 8.617188 11.773438 8.765625 11.777344 C 8.921875 11.78125 9.019531 11.667969 9.023438 11.472656 C 9.023438 11.414062 9.023438 11.351562 9.023438 11.285156 L 9.511719 11.285156 C 9.511719 11.359375 9.511719 11.417969 9.511719 11.472656 C 9.511719 12.558594 9.511719 13.640625 9.515625 14.722656 C 9.515625 15.039062 9.710938 15.253906 10.023438 15.257812 C 10.679688 15.265625 11.335938 15.261719 11.992188 15.257812 C 12.308594 15.253906 12.503906 15.042969 12.511719 14.730469 C 12.511719 14.664062 12.511719 14.597656 12.511719 14.519531 C 12.664062 14.519531 12.796875 14.519531 12.933594 14.519531 C 13.304688 14.515625 13.503906 14.316406 13.503906 13.9375 C 13.503906 13.109375 13.503906 12.277344 13.503906 11.445312 C 13.503906 11.394531 13.503906 11.34375 13.503906 11.289062 L 13.992188 11.289062 C 14.011719 11.492188 13.9375 11.769531 14.25 11.769531 C 14.558594 11.765625 14.484375 11.488281 14.503906 11.28125 C 14.582031 11.28125 14.65625 11.285156 14.726562 11.28125 C 14.886719 11.273438 14.992188 11.171875 14.992188 11.03125 C 14.996094 10.886719 14.898438 10.789062 14.734375 10.777344 Z M 13.109375 14.164062 L 12.640625 14.164062 L 12.640625 11.460938 L 13.109375 11.460938 Z M 13.117188 10.929688 L 12.632812 10.929688 C 12.636719 10.773438 12.570312 10.605469 12.726562 10.503906 C 12.792969 10.457031 12.921875 10.453125 12.992188 10.488281 C 13.167969 10.578125 13.109375 10.757812 13.117188 10.929688 Z M 13.117188 10.929688 "/>
<path fill-rule="nonzero" fill="#FFFFFF" fill-opacity="1" d="M 2.089844 4.492188 C 1.878906 4.484375 1.753906 4.304688 1.824219 4.148438 C 1.847656 4.089844 1.890625 4.042969 1.933594 4 C 2.808594 3.121094 3.683594 2.246094 4.5625 1.371094 C 4.589844 1.34375 4.613281 1.316406 4.644531 1.292969 C 4.753906 1.214844 4.886719 1.226562 4.976562 1.320312 C 5.066406 1.417969 5.066406 1.527344 4.996094 1.640625 C 4.980469 1.667969 4.953125 1.691406 4.929688 1.714844 C 4.042969 2.601562 3.160156 3.488281 2.269531 4.371094 C 2.210938 4.429688 2.132812 4.464844 2.089844 4.492188 Z M 2.089844 4.492188 "/>
<path fill-rule="nonzero" fill="#FFFFFF" fill-opacity="1" d="M 2.402344 2.941406 C 2.335938 2.882812 2.246094 2.839844 2.199219 2.765625 C 2.140625 2.667969 2.167969 2.558594 2.253906 2.472656 C 2.542969 2.183594 2.832031 1.894531 3.121094 1.609375 C 3.164062 1.5625 3.207031 1.515625 3.253906 1.476562 C 3.363281 1.386719 3.503906 1.390625 3.597656 1.484375 C 3.691406 1.578125 3.703125 1.726562 3.605469 1.828125 C 3.269531 2.171875 2.929688 2.511719 2.585938 2.847656 C 2.546875 2.886719 2.484375 2.898438 2.402344 2.941406 Z M 2.402344 2.941406 "/>
<path fill-rule="nonzero" fill="#FFFFFF" fill-opacity="1" d="M 6.792969 11.796875 C 7.332031 11.257812 7.5625 10.601562 7.527344 9.84375 C 7.519531 9.617188 7.445312 9.535156 7.222656 9.535156 C 6.699219 9.535156 6.171875 9.535156 5.648438 9.535156 C 5.640625 9.535156 5.628906 9.535156 5.621094 9.53125 L 5.546875 9.53125 C 5.546875 9.25 5.542969 8.980469 5.546875 8.710938 C 5.550781 8.5625 5.652344 8.46875 5.796875 8.464844 C 5.871094 8.460938 5.945312 8.460938 6.015625 8.460938 C 6.179688 8.464844 6.253906 8.53125 6.28125 8.691406 C 6.300781 8.824219 6.355469 8.925781 6.496094 8.953125 C 6.660156 8.988281 6.804688 8.84375 6.792969 8.664062 C 6.773438 8.300781 6.480469 7.992188 6.113281 7.964844 C 5.980469 7.957031 5.84375 7.957031 5.707031 7.96875 C 5.355469 7.996094 5.058594 8.296875 5.050781 8.652344 C 5.042969 8.941406 5.046875 9.230469 5.050781 9.53125 L 3.042969 9.53125 C 3.046875 9.230469 3.050781 8.941406 3.042969 8.652344 C 3.035156 8.296875 2.742188 7.996094 2.386719 7.96875 C 2.253906 7.957031 2.117188 7.957031 1.980469 7.964844 C 1.617188 7.992188 1.320312 8.296875 1.300781 8.664062 C 1.289062 8.84375 1.433594 8.988281 1.597656 8.953125 C 1.738281 8.925781 1.792969 8.824219 1.8125 8.691406 C 1.839844 8.53125 1.917969 8.464844 2.078125 8.460938 C 2.148438 8.460938 2.222656 8.460938 2.296875 8.464844 C 2.445312 8.46875 2.542969 8.5625 2.546875 8.710938 C 2.550781 8.980469 2.546875 9.25 2.546875 9.53125 L 2.070312 9.53125 C 2.070312 9.535156 2.074219 9.535156 2.074219 9.535156 L 1.914062 9.535156 C 1.414062 9.535156 0.914062 9.53125 0.414062 9.53125 C -0.0976562 9.53125 -0.0742188 9.90625 0.160156 10.664062 C 0.332031 11.230469 0.632812 11.738281 1.132812 12.085938 C 1.5 12.339844 1.941406 12.472656 2.386719 12.511719 C 2.421875 12.515625 2.460938 12.523438 2.515625 12.53125 C 2.488281 12.761719 2.464844 12.984375 2.441406 13.210938 C 2.367188 13.871094 2.292969 14.527344 2.222656 15.1875 C 2.167969 15.664062 2.121094 16.144531 2.058594 16.617188 C 2.035156 16.789062 2.070312 16.914062 2.21875 17 L 5.371094 17 C 5.519531 16.914062 5.554688 16.789062 5.53125 16.617188 C 5.46875 16.140625 5.421875 15.664062 5.367188 15.1875 C 5.296875 14.527344 5.222656 13.863281 5.148438 13.203125 C 5.121094 12.980469 5.101562 12.757812 5.074219 12.527344 C 5.140625 12.519531 5.183594 12.515625 5.226562 12.511719 C 5.835938 12.46875 6.359375 12.226562 6.792969 11.796875 Z M 6.792969 11.796875 "/>
</g>
</svg>
