<?xml version="1.0" encoding="UTF-8"?>
<svg xmlns="http://www.w3.org/2000/svg" xmlns:xlink="http://www.w3.org/1999/xlink" width="11" height="6.083501" viewBox="0 0 11 6.083501">
<path fill-rule="nonzero" fill="rgb(30%,30%,30%)" fill-opacity="1" d="M 11 5.558594 C 11 5.847656 10.703125 6.082031 10.335938 6.082031 L 9.296875 6.082031 C 7.542969 6.082031 8.316406 4.054688 5.933594 4.054688 L 5.066406 4.054688 C 2.699219 4.054688 3.441406 6.082031 1.703125 6.082031 L 0.664062 6.082031 C 0.296875 6.082031 0 5.847656 0 5.558594 L 0.75 1.824219 C 1.003906 0.515625 1.714844 0 2.996094 0 C 3.984375 0 3.945312 0.710938 5.570312 0.710938 C 7.023438 0.710938 7.015625 0 8.003906 0 C 9.285156 0 9.996094 0.515625 10.25 1.824219 Z M 8.320312 0.542969 C 7.378906 0.542969 6.617188 1.308594 6.617188 2.25 C 6.617188 3.191406 7.378906 3.953125 8.320312 3.953125 C 9.261719 3.953125 10.027344 3.191406 10.027344 2.25 C 10.027344 1.308594 9.261719 0.542969 8.320312 0.542969 Z M 2.679688 0.628906 C 1.738281 0.628906 0.972656 1.394531 0.972656 2.335938 C 0.972656 3.277344 1.738281 4.039062 2.679688 4.039062 C 3.621094 4.039062 4.382812 3.277344 4.382812 2.335938 C 4.382812 1.394531 3.621094 0.628906 2.679688 0.628906 Z M 2.679688 0.628906 "/>
<path fill-rule="nonzero" fill="rgb(30%,30%,30%)" fill-opacity="1" d="M 8.570312 1.527344 C 8.15625 1.695312 7.824219 2.027344 7.65625 2.441406 C 7.582031 2.625 7.394531 2.734375 7.203125 2.707031 C 7.007812 2.683594 6.855469 2.53125 6.828125 2.335938 C 6.804688 2.140625 6.914062 1.957031 7.09375 1.882812 C 7.511719 1.714844 7.84375 1.382812 8.011719 0.964844 C 8.085938 0.785156 8.269531 0.675781 8.464844 0.699219 C 8.660156 0.726562 8.8125 0.878906 8.835938 1.074219 C 8.863281 1.265625 8.753906 1.453125 8.570312 1.527344 Z M 8.410156 0.769531 C 8.210938 0.769531 8.050781 0.929688 8.050781 1.128906 C 8.050781 1.324219 8.210938 1.488281 8.410156 1.488281 C 8.609375 1.488281 8.769531 1.324219 8.769531 1.128906 C 8.769531 0.929688 8.609375 0.769531 8.410156 0.769531 Z M 7.25 1.921875 C 7.050781 1.921875 6.890625 2.082031 6.890625 2.28125 C 6.890625 2.480469 7.050781 2.640625 7.25 2.640625 C 7.449219 2.640625 7.609375 2.480469 7.609375 2.28125 C 7.609375 2.082031 7.449219 1.921875 7.25 1.921875 Z M 7.25 1.921875 "/>
<path fill-rule="nonzero" fill="rgb(30%,30%,30%)" fill-opacity="1" d="M 9.578125 2.535156 C 9.164062 2.703125 8.832031 3.035156 8.664062 3.449219 C 8.589844 3.632812 8.402344 3.742188 8.207031 3.714844 C 8.015625 3.691406 7.863281 3.539062 7.835938 3.34375 C 7.8125 3.148438 7.921875 2.960938 8.101562 2.890625 C 8.519531 2.71875 8.851562 2.390625 9.019531 1.972656 C 9.09375 1.792969 9.277344 1.683594 9.472656 1.707031 C 9.667969 1.734375 9.820312 1.886719 9.84375 2.078125 C 9.871094 2.273438 9.761719 2.460938 9.578125 2.535156 Z M 9.417969 1.777344 C 9.21875 1.777344 9.058594 1.9375 9.058594 2.136719 C 9.058594 2.332031 9.21875 2.492188 9.417969 2.492188 C 9.617188 2.492188 9.777344 2.332031 9.777344 2.136719 C 9.777344 1.9375 9.617188 1.777344 9.417969 1.777344 Z M 8.257812 2.929688 C 8.058594 2.929688 7.898438 3.089844 7.898438 3.289062 C 7.898438 3.488281 8.058594 3.648438 8.257812 3.648438 C 8.457031 3.648438 8.617188 3.488281 8.617188 3.289062 C 8.617188 3.089844 8.457031 2.929688 8.257812 2.929688 Z M 8.257812 2.929688 "/>
<path fill-rule="nonzero" fill="rgb(30%,30%,30%)" fill-opacity="1" d="M 3.722656 1.820312 L 3.070312 1.820312 L 3.070312 1.167969 C 3.070312 1.011719 2.894531 0.886719 2.679688 0.886719 C 2.460938 0.886719 2.285156 1.011719 2.285156 1.167969 L 2.285156 1.820312 L 1.632812 1.820312 C 1.476562 1.820312 1.351562 1.996094 1.351562 2.214844 C 1.351562 2.429688 1.476562 2.605469 1.632812 2.605469 L 2.285156 2.605469 L 2.285156 3.261719 C 2.285156 3.414062 2.460938 3.539062 2.679688 3.539062 C 2.894531 3.539062 3.070312 3.414062 3.070312 3.261719 L 3.070312 2.605469 L 3.722656 2.605469 C 3.878906 2.605469 4.003906 2.429688 4.003906 2.214844 C 4.003906 1.996094 3.878906 1.820312 3.722656 1.820312 Z M 3.722656 1.820312 "/>
</svg>
