<?xml version="1.0" encoding="UTF-8"?>
<svg xmlns="http://www.w3.org/2000/svg" xmlns:xlink="http://www.w3.org/1999/xlink" width="11" height="6.948954" viewBox="0 0 11 6.948954">
<path fill-rule="nonzero" fill="rgb(30%,30%,30%)" fill-opacity="1" d="M 4.882812 2.390625 L 6.089844 2.390625 L 6.089844 2.878906 L 4.882812 2.878906 Z M 4.882812 2.390625 "/>
<path fill-rule="nonzero" fill="rgb(30%,30%,30%)" fill-opacity="1" d="M 2.445312 2.390625 C 2.367188 2.390625 2.296875 2.425781 2.25 2.484375 L 0.0507812 5.675781 C -0.03125 5.78125 -0.0117188 5.933594 0.09375 6.015625 C 0.203125 6.097656 0.355469 6.078125 0.4375 5.972656 L 2.5625 2.878906 L 4.15625 2.878906 L 4.15625 2.390625 Z M 2.445312 2.390625 "/>
<path fill-rule="nonzero" fill="rgb(30%,30%,30%)" fill-opacity="1" d="M 10.949219 5.640625 L 8.613281 2.484375 C 8.566406 2.425781 8.496094 2.390625 8.421875 2.390625 L 6.800781 2.390625 L 6.800781 2.878906 L 8.300781 2.878906 L 10.5625 5.9375 C 10.609375 6 10.683594 6.03125 10.757812 6.03125 C 10.808594 6.03125 10.859375 6.015625 10.90625 5.980469 C 11.011719 5.898438 11.03125 5.746094 10.949219 5.640625 Z M 10.949219 5.640625 "/>
<path fill-rule="nonzero" fill="rgb(30%,30%,30%)" fill-opacity="1" d="M 4.792969 2.210938 L 6.199219 2.210938 L 6.199219 2.902344 C 6.402344 3.023438 6.589844 3.171875 6.667969 3.265625 L 6.667969 0.234375 C 6.667969 0.105469 6.5625 0 6.433594 0 C 6.304688 0 6.199219 0.105469 6.199219 0.234375 L 6.199219 1.839844 L 4.792969 1.839844 L 4.792969 0.234375 C 4.792969 0.105469 4.6875 0 4.558594 0 L 4.539062 0 C 4.410156 0 4.304688 0.105469 4.304688 0.234375 L 4.304688 3.253906 C 4.410156 3.199219 4.59375 3.070312 4.792969 2.941406 Z M 4.792969 2.210938 "/>
<path fill-rule="nonzero" fill="rgb(30%,30%,30%)" fill-opacity="1" d="M 8.054688 3.523438 L 2.878906 3.523438 L 0.578125 6.90625 L 10.332031 6.949219 Z M 2.988281 4.109375 C 3.253906 3.972656 3.511719 4.035156 3.742188 4.199219 C 3.84375 4.265625 3.9375 4.351562 4.03125 4.410156 C 4.046875 4.417969 4.0625 4.425781 4.078125 4.433594 C 4.085938 4.4375 4.09375 4.441406 4.101562 4.441406 C 4.113281 4.445312 4.125 4.449219 4.136719 4.453125 C 4.136719 4.453125 4.140625 4.453125 4.140625 4.453125 C 4.144531 4.453125 4.148438 4.453125 4.152344 4.453125 L 4.171875 4.453125 C 4.210938 4.453125 4.253906 4.449219 4.292969 4.445312 C 4.519531 4.425781 4.691406 4.296875 4.878906 4.171875 C 4.996094 4.097656 5.128906 4.03125 5.269531 4.011719 C 5.410156 3.984375 5.5625 4.003906 5.691406 4.058594 C 6 4.175781 6.230469 4.441406 6.554688 4.496094 C 6.582031 4.5 6.609375 4.503906 6.636719 4.503906 C 6.695312 4.503906 6.75 4.496094 6.808594 4.472656 C 7.164062 4.332031 7.441406 3.976562 7.878906 4.082031 C 7.984375 4.109375 8.085938 4.160156 8.175781 4.222656 C 8.175781 4.222656 8.15625 4.25 8.15625 4.25 C 7.457031 3.84375 7.203125 4.617188 6.664062 4.664062 C 6.460938 4.679688 6.261719 4.609375 6.089844 4.515625 C 5.839844 4.386719 5.605469 4.1875 5.316406 4.253906 C 5.089844 4.308594 4.9375 4.515625 4.726562 4.628906 C 4.574219 4.714844 4.390625 4.761719 4.214844 4.753906 C 4.171875 4.753906 4.125 4.75 4.082031 4.742188 C 4.054688 4.738281 4.027344 4.726562 4.003906 4.71875 C 3.957031 4.699219 3.914062 4.671875 3.875 4.644531 C 3.617188 4.449219 3.453125 4.140625 3.085938 4.1875 C 2.996094 4.199219 2.914062 4.226562 2.828125 4.257812 C 2.828125 4.257812 2.8125 4.230469 2.8125 4.230469 C 2.867188 4.1875 2.925781 4.144531 2.988281 4.109375 Z M 2.324219 4.96875 C 2.375 4.925781 2.433594 4.890625 2.492188 4.859375 C 2.808594 4.707031 3.105469 4.78125 3.378906 4.980469 C 3.496094 5.0625 3.609375 5.164062 3.726562 5.234375 C 3.742188 5.246094 3.765625 5.257812 3.78125 5.269531 C 3.789062 5.269531 3.804688 5.277344 3.8125 5.277344 C 3.828125 5.285156 3.84375 5.289062 3.859375 5.292969 C 3.867188 5.292969 3.875 5.292969 3.882812 5.292969 C 3.882812 5.292969 3.90625 5.292969 3.90625 5.292969 C 3.953125 5.292969 4.007812 5.292969 4.054688 5.285156 C 4.445312 5.25 4.648438 4.992188 4.984375 4.832031 C 5.210938 4.722656 5.492188 4.714844 5.726562 4.808594 C 6.085938 4.949219 6.355469 5.257812 6.742188 5.328125 C 6.78125 5.335938 6.824219 5.339844 6.867188 5.34375 C 6.9375 5.34375 7.007812 5.332031 7.078125 5.304688 C 7.210938 5.253906 7.332031 5.171875 7.449219 5.097656 C 7.695312 4.933594 7.984375 4.757812 8.296875 4.8125 C 8.347656 4.820312 8.363281 4.828125 8.40625 4.839844 C 8.515625 4.875 8.617188 4.929688 8.707031 4.992188 C 8.707031 4.992188 8.691406 5.015625 8.691406 5.015625 C 8.429688 4.863281 8.160156 4.816406 7.882812 4.957031 C 7.53125 5.125 7.25 5.507812 6.835938 5.503906 C 6.617188 5.507812 6.40625 5.425781 6.21875 5.320312 C 5.855469 5.125 5.519531 4.84375 5.101562 5.070312 C 4.988281 5.128906 4.882812 5.222656 4.757812 5.316406 C 4.632812 5.410156 4.488281 5.5 4.328125 5.546875 C 4.191406 5.589844 4.042969 5.601562 3.894531 5.59375 C 3.867188 5.59375 3.835938 5.589844 3.804688 5.582031 C 3.777344 5.574219 3.742188 5.566406 3.714844 5.554688 C 3.625 5.519531 3.542969 5.457031 3.472656 5.394531 C 3.164062 5.113281 2.960938 4.835938 2.5 4.957031 C 2.429688 4.972656 2.359375 5 2.292969 5.027344 C 2.292969 5.027344 2.277344 5 2.277344 5 C 2.292969 4.988281 2.308594 4.976562 2.324219 4.96875 Z M 7.175781 6.363281 C 7.082031 6.371094 6.984375 6.363281 6.886719 6.34375 C 6.527344 6.28125 6.210938 6.046875 5.902344 5.886719 C 5.703125 5.78125 5.484375 5.710938 5.257812 5.757812 C 5 5.804688 4.835938 5.972656 4.613281 6.136719 C 4.378906 6.316406 4.101562 6.449219 3.800781 6.472656 C 3.800781 6.472656 3.722656 6.476562 3.722656 6.476562 L 3.648438 6.476562 C 3.636719 6.476562 3.625 6.476562 3.613281 6.472656 C 3.578125 6.472656 3.527344 6.46875 3.492188 6.464844 C 3.191406 6.410156 2.992188 6.148438 2.777344 5.960938 C 2.601562 5.796875 2.394531 5.664062 2.144531 5.671875 C 1.976562 5.671875 1.808594 5.726562 1.652344 5.792969 C 1.652344 5.792969 1.632812 5.761719 1.632812 5.761719 C 1.777344 5.644531 1.941406 5.550781 2.128906 5.511719 C 2.425781 5.445312 2.714844 5.5625 2.957031 5.734375 C 3.03125 5.789062 3.101562 5.84375 3.171875 5.898438 C 3.28125 5.984375 3.417969 6.097656 3.542969 6.109375 C 4.019531 6.128906 4.25 5.957031 4.628906 5.699219 C 4.839844 5.5625 5.070312 5.457031 5.328125 5.453125 C 5.574219 5.441406 5.820312 5.535156 6.027344 5.65625 C 6.375 5.855469 6.671875 6.128906 7.078125 6.167969 C 7.363281 6.199219 7.613281 6.023438 7.84375 5.875 C 8.191406 5.640625 8.554688 5.429688 8.992188 5.566406 C 9.121094 5.609375 9.242188 5.675781 9.351562 5.75 C 9.351562 5.75 9.332031 5.78125 9.332031 5.78125 C 8.324219 5.1875 7.9375 6.296875 7.175781 6.363281 Z M 7.175781 6.363281 "/>
</svg>
