<?xml version="1.0" encoding="UTF-8"?>
<svg xmlns="http://www.w3.org/2000/svg" xmlns:xlink="http://www.w3.org/1999/xlink" width="11" height="7.606702" viewBox="0 0 11 7.606702">
<path fill-rule="nonzero" fill="rgb(30%,30%,30%)" fill-opacity="1" d="M 3.613281 2.671875 C 2.414062 2.90625 2.035156 3.777344 1.828125 4.15625 L 1.828125 3.03125 C 3.085938 2.972656 2.863281 1.535156 2.898438 1.414062 C 2.9375 1.289062 3.191406 0.617188 3.375 0.574219 C 3.554688 0.53125 2.519531 0.507812 2.09375 1.097656 C 2.09375 1.097656 1.800781 0 1.707031 0 C 1.539062 0 1.269531 1.121094 1.269531 1.121094 C 1.269531 1.121094 1.085938 0.574219 0.0234375 0.574219 C 0.0234375 0.574219 0.511719 0.878906 0.546875 1.40625 C 0.582031 1.90625 0.527344 2.9375 1.597656 3.027344 L 1.597656 4.269531 C 1.578125 4.238281 1.554688 4.199219 1.53125 4.140625 C 1.058594 3.035156 0 2.929688 0 2.929688 C 0.585938 3.015625 1.160156 4.269531 1.390625 4.890625 L 0.246094 4.890625 L 0.246094 5.3125 L 0.46875 5.3125 L 0.652344 7.320312 C 0.667969 7.484375 0.804688 7.609375 0.96875 7.605469 L 2.628906 7.597656 C 2.792969 7.597656 2.929688 7.472656 2.941406 7.3125 L 3.117188 5.3125 L 3.300781 5.3125 L 3.300781 4.890625 L 2.058594 4.890625 C 2.359375 3.710938 3.613281 2.671875 3.613281 2.671875 Z M 3.613281 2.671875 "/>
<path fill-rule="nonzero" fill="rgb(30%,30%,30%)" fill-opacity="1" d="M 7.308594 2.671875 C 6.109375 2.90625 5.730469 3.777344 5.523438 4.15625 L 5.523438 3.03125 C 6.78125 2.972656 6.558594 1.535156 6.59375 1.414062 C 6.628906 1.289062 6.882812 0.617188 7.066406 0.574219 C 7.25 0.53125 6.214844 0.507812 5.785156 1.097656 C 5.785156 1.097656 5.492188 0 5.402344 0 C 5.230469 0 4.960938 1.121094 4.960938 1.121094 C 4.960938 1.121094 4.78125 0.574219 3.71875 0.574219 C 3.71875 0.574219 4.207031 0.878906 4.242188 1.40625 C 4.277344 1.90625 4.21875 2.9375 5.289062 3.027344 L 5.289062 4.269531 C 5.269531 4.238281 5.25 4.199219 5.226562 4.140625 C 4.75 3.035156 3.414062 2.871094 3.414062 2.871094 C 4 2.957031 4.851562 4.269531 5.085938 4.890625 L 3.9375 4.890625 L 3.9375 5.3125 L 4.160156 5.3125 L 4.347656 7.320312 C 4.363281 7.484375 4.5 7.609375 4.664062 7.605469 L 6.324219 7.597656 C 6.488281 7.597656 6.621094 7.472656 6.636719 7.3125 L 6.8125 5.3125 L 6.996094 5.3125 L 6.996094 4.890625 L 5.753906 4.890625 C 6.050781 3.710938 7.308594 2.671875 7.308594 2.671875 Z M 7.308594 2.671875 "/>
<path fill-rule="nonzero" fill="rgb(30%,30%,30%)" fill-opacity="1" d="M 11 2.671875 C 9.800781 2.90625 9.421875 3.777344 9.214844 4.15625 L 9.214844 3.03125 C 10.472656 2.972656 10.25 1.535156 10.285156 1.414062 C 10.324219 1.289062 10.578125 0.617188 10.761719 0.574219 C 10.941406 0.53125 9.90625 0.507812 9.480469 1.097656 C 9.480469 1.097656 9.1875 0 9.09375 0 C 8.925781 0 8.65625 1.121094 8.65625 1.121094 C 8.65625 1.121094 8.472656 0.574219 7.410156 0.574219 C 7.410156 0.574219 7.898438 0.878906 7.933594 1.40625 C 7.96875 1.90625 7.914062 2.9375 8.984375 3.027344 L 8.984375 4.269531 C 8.964844 4.238281 8.941406 4.199219 8.917969 4.140625 C 8.445312 3.035156 7.109375 2.871094 7.109375 2.871094 C 7.695312 2.957031 8.546875 4.269531 8.777344 4.890625 L 7.632812 4.890625 L 7.632812 5.3125 L 7.855469 5.3125 L 8.039062 7.320312 C 8.054688 7.484375 8.191406 7.609375 8.355469 7.605469 L 10.015625 7.597656 C 10.179688 7.597656 10.316406 7.472656 10.328125 7.3125 L 10.503906 5.3125 L 10.6875 5.3125 L 10.6875 4.890625 L 9.445312 4.890625 C 9.746094 3.710938 11 2.671875 11 2.671875 Z M 11 2.671875 "/>
</svg>
