<?xml version="1.0" encoding="UTF-8" standalone="no"?>
<!-- Created with Inkscape (http://www.inkscape.org/) -->

<svg
   xmlns:dc="http://purl.org/dc/elements/1.1/"
   xmlns:cc="http://creativecommons.org/ns#"
   xmlns:rdf="http://www.w3.org/1999/02/22-rdf-syntax-ns#"
   xmlns:svg="http://www.w3.org/2000/svg"
   xmlns="http://www.w3.org/2000/svg"
   xmlns:xlink="http://www.w3.org/1999/xlink"
   xmlns:sodipodi="http://sodipodi.sourceforge.net/DTD/sodipodi-0.dtd"
   xmlns:inkscape="http://www.inkscape.org/namespaces/inkscape"
   width="30px"
   height="30px"
   version="1.1"
   id="svg8"
   inkscape:version="0.92.4 5da689c313, 2019-01-14"
   sodipodi:docname="container.svg">
  <defs
     id="defs2" />
  <sodipodi:namedview
     id="base"
     pagecolor="#ffffff"
     bordercolor="#666666"
     borderopacity="1.0"
     inkscape:pageopacity="0.0"
     inkscape:pageshadow="2"
     inkscape:zoom="13.049334"
     inkscape:cx="18.679046"
     inkscape:cy="12.165829"
     inkscape:document-units="px"
     inkscape:current-layer="layer1"
     showgrid="false"
     inkscape:snap-page="false"
     units="px"
     inkscape:window-width="1884"
     inkscape:window-height="1061"
     inkscape:window-x="0"
     inkscape:window-y="0"
     inkscape:window-maximized="1"
     fit-margin-top="0"
     fit-margin-left="0"
     fit-margin-right="0"
     fit-margin-bottom="0" />
  <metadata
     id="metadata5">
    <rdf:RDF>
      <cc:Work
         rdf:about="">
        <dc:format>image/svg+xml</dc:format>
        <dc:type
           rdf:resource="http://purl.org/dc/dcmitype/StillImage" />
        <dc:title></dc:title>
      </cc:Work>
    </rdf:RDF>
  </metadata>
    <circle
       style="color:#000000;clip-rule:nonzero;display:inline;overflow:visible;visibility:visible;opacity:1;isolation:auto;mix-blend-mode:normal;color-interpolation:sRGB;color-interpolation-filters:linearRGB;solid-color:#000000;solid-opacity:1;vector-effect:none;fill:#808080;fill-opacity:1;fill-rule:evenodd;stroke:#ffffff;stroke-width:1;stroke-linecap:butt;stroke-linejoin:miter;stroke-miterlimit:4;stroke-dasharray:none;stroke-dashoffset:0;stroke-opacity:1;marker:none;color-rendering:auto;image-rendering:auto;shape-rendering:auto;text-rendering:auto;enable-background:accumulate"
       id="path815"
       cx="15"
       cy="15"
       r="14.5" />
<g transform="translate(7.0,6.5)"><path fill-rule="nonzero" fill="#FFFFFF" fill-opacity="1" d="M 2.667969 4.527344 L 3.84375 4.527344 C 3.988281 4.527344 4.109375 4.472656 4.109375 4.410156 L 4.109375 3.429688 C 4.109375 3.367188 3.988281 3.3125 3.84375 3.3125 L 2.667969 3.3125 C 2.523438 3.3125 2.402344 3.367188 2.402344 3.429688 L 2.402344 4.410156 C 2.402344 4.472656 2.523438 4.527344 2.667969 4.527344 Z M 2.667969 4.527344 "/>
<path fill-rule="nonzero" fill="#FFFFFF" fill-opacity="1" d="M 15.867188 16.539062 C 15.867188 16.792969 15.660156 17 15.40625 17 L 12.695312 17 C 12.441406 17 12.234375 16.792969 12.234375 16.539062 L 12.234375 6.292969 C 12.234375 6.039062 12.371094 5.675781 12.535156 5.488281 L 13.429688 4.457031 L 13.429688 1.003906 L 13.347656 1.003906 L 13.347656 0 L 14.753906 0 L 14.753906 1.003906 L 14.667969 1.003906 L 14.667969 4.457031 L 15.566406 5.488281 C 15.730469 5.675781 15.867188 6.039062 15.867188 6.292969 Z M 15.867188 16.539062 "/>
<path fill-rule="nonzero" fill="#FFFFFF" fill-opacity="1" d="M 11.039062 5.695312 L 10.042969 5.257812 C 9.796875 5.148438 9.59375 4.835938 9.59375 4.5625 L 9.59375 2.773438 C 9.59375 2.5 9.722656 2.28125 9.886719 2.28125 C 10.046875 2.28125 10.179688 2.058594 10.179688 1.785156 L 10.179688 0.808594 C 10.179688 0.535156 9.960938 0.316406 9.6875 0.3125 L 7.308594 0.3125 C 7.035156 0.316406 6.8125 0.535156 6.8125 0.808594 L 6.8125 1.785156 C 6.8125 2.058594 6.945312 2.28125 7.109375 2.28125 C 7.269531 2.28125 7.402344 2.5 7.402344 2.773438 L 7.402344 4.5625 C 7.402344 4.835938 7.199219 5.148438 6.949219 5.257812 L 5.957031 5.695312 C 5.707031 5.804688 5.503906 6.117188 5.503906 6.386719 L 5.503906 9.394531 C 5.121094 9.214844 4.660156 9.121094 4.167969 9.089844 L 4.167969 5.921875 L 4.21875 5.921875 C 4.429688 5.921875 4.625 5.808594 4.726562 5.628906 C 4.832031 5.445312 4.832031 5.222656 4.726562 5.039062 C 4.621094 4.859375 4.425781 4.75 4.214844 4.75 L 2.292969 4.75 C 1.96875 4.75 1.707031 5.011719 1.707031 5.335938 C 1.707031 5.628906 1.921875 5.921875 2.34375 5.921875 L 2.34375 9.089844 C 0.800781 9.191406 0 9.871094 0 10.875 L 0 16.257812 C 0 16.644531 0.3125 16.960938 0.703125 16.960938 L 5.808594 16.960938 C 5.847656 16.960938 5.882812 16.957031 5.917969 16.953125 C 5.945312 16.957031 5.96875 16.957031 5.996094 16.957031 L 10.996094 16.957031 C 11.269531 16.957031 11.488281 16.738281 11.492188 16.464844 L 11.492188 6.386719 C 11.492188 6.117188 11.285156 5.804688 11.039062 5.695312 Z M 2.265625 14.105469 L 2.265625 11.980469 C 2.265625 11.410156 2.730469 10.945312 3.300781 10.945312 L 5.503906 10.945312 L 5.503906 11.359375 L 3.300781 11.359375 C 2.957031 11.359375 2.679688 11.636719 2.679688 11.980469 L 2.679688 14.105469 C 2.679688 14.449219 2.957031 14.730469 3.300781 14.730469 L 5.503906 14.730469 L 5.503906 15.144531 L 3.300781 15.144531 C 2.730469 15.144531 2.265625 14.679688 2.265625 14.105469 Z M 2.265625 14.105469 "/>
</g>
</svg>
