<?xml version="1.0" encoding="UTF-8" standalone="no"?>
<!-- Created with Inkscape (http://www.inkscape.org/) -->

<svg
   xmlns:dc="http://purl.org/dc/elements/1.1/"
   xmlns:cc="http://creativecommons.org/ns#"
   xmlns:rdf="http://www.w3.org/1999/02/22-rdf-syntax-ns#"
   xmlns:svg="http://www.w3.org/2000/svg"
   xmlns="http://www.w3.org/2000/svg"
   xmlns:xlink="http://www.w3.org/1999/xlink"
   xmlns:sodipodi="http://sodipodi.sourceforge.net/DTD/sodipodi-0.dtd"
   xmlns:inkscape="http://www.inkscape.org/namespaces/inkscape"
   width="30px"
   height="30px"
   version="1.1"
   id="svg8"
   inkscape:version="0.92.4 5da689c313, 2019-01-14"
   sodipodi:docname="container.svg">
  <defs
     id="defs2" />
  <sodipodi:namedview
     id="base"
     pagecolor="#ffffff"
     bordercolor="#666666"
     borderopacity="1.0"
     inkscape:pageopacity="0.0"
     inkscape:pageshadow="2"
     inkscape:zoom="13.049334"
     inkscape:cx="18.679046"
     inkscape:cy="12.165829"
     inkscape:document-units="px"
     inkscape:current-layer="layer1"
     showgrid="false"
     inkscape:snap-page="false"
     units="px"
     inkscape:window-width="1884"
     inkscape:window-height="1061"
     inkscape:window-x="0"
     inkscape:window-y="0"
     inkscape:window-maximized="1"
     fit-margin-top="0"
     fit-margin-left="0"
     fit-margin-right="0"
     fit-margin-bottom="0" />
  <metadata
     id="metadata5">
    <rdf:RDF>
      <cc:Work
         rdf:about="">
        <dc:format>image/svg+xml</dc:format>
        <dc:type
           rdf:resource="http://purl.org/dc/dcmitype/StillImage" />
        <dc:title></dc:title>
      </cc:Work>
    </rdf:RDF>
  </metadata>
    <circle
       style="color:#000000;clip-rule:nonzero;display:inline;overflow:visible;visibility:visible;opacity:1;isolation:auto;mix-blend-mode:normal;color-interpolation:sRGB;color-interpolation-filters:linearRGB;solid-color:#000000;solid-opacity:1;vector-effect:none;fill:#808080;fill-opacity:1;fill-rule:evenodd;stroke:#ffffff;stroke-width:1;stroke-linecap:butt;stroke-linejoin:miter;stroke-miterlimit:4;stroke-dasharray:none;stroke-dashoffset:0;stroke-opacity:1;marker:none;color-rendering:auto;image-rendering:auto;shape-rendering:auto;text-rendering:auto;enable-background:accumulate"
       id="path815"
       cx="15"
       cy="15"
       r="14.5" />
<g transform="translate(6.5,6.5)"><path fill-rule="nonzero" fill="#FFFFFF" fill-opacity="1" d="M 1.515625 11.101562 C 1.21875 9.84375 2.699219 9.011719 4.441406 8.988281 C 5.003906 8.976562 5.738281 9.457031 5.910156 9.660156 C 6.003906 9.765625 5.890625 10.214844 5.828125 10.148438 C 5.660156 9.972656 5.011719 9.375 4.425781 9.363281 C 3.949219 9.410156 3.570312 9.816406 3.238281 10.503906 C 1.945312 10.359375 1.644531 10.53125 1.515625 11.101562 Z M 13.09375 8.984375 C 12.53125 8.976562 11.796875 9.457031 11.621094 9.660156 C 11.53125 9.765625 11.644531 10.214844 11.707031 10.148438 C 11.875 9.972656 12.523438 9.375 13.109375 9.363281 C 13.585938 9.410156 13.964844 9.8125 14.296875 10.503906 C 15.5625 10.363281 15.886719 10.511719 16.019531 11.101562 C 16.320312 9.84375 14.835938 9.011719 13.09375 8.984375 Z M 15.671875 14.300781 C 15.1875 15.554688 14.464844 15.972656 13.84375 16.292969 C 13.265625 16.59375 11.679688 16.90625 11.050781 16.617188 C 10.054688 16.15625 9.722656 15.167969 9.375 14.558594 C 9.246094 14.328125 9.183594 14.210938 8.855469 14.195312 C 8.714844 14.195312 8.46875 14.183594 8.328125 14.3125 C 7.992188 14.613281 7.699219 16.058594 6.484375 16.617188 C 5.855469 16.90625 4.269531 16.59375 3.691406 16.292969 C 2.980469 15.925781 2.320312 15.488281 1.863281 14.300781 C 1.621094 13.675781 1.3125 11.425781 1.792969 10.980469 C 2.070312 10.722656 2.792969 10.800781 3.242188 10.851562 C 4.96875 11.046875 6.234375 11.636719 7.738281 12.527344 C 8.34375 12.886719 9.257812 12.847656 9.796875 12.527344 C 11.203125 11.695312 12.550781 11.042969 14.230469 10.859375 C 14.632812 10.816406 15.445312 10.703125 15.742188 10.980469 C 16.21875 11.421875 15.917969 13.664062 15.671875 14.300781 Z M 9.554688 5.574219 Z M 16.316406 9.105469 C 16.246094 9.238281 16.125 9.332031 15.972656 9.253906 L 5.679688 4.195312 C 5.585938 4.152344 5.523438 4.058594 5.535156 3.949219 C 5.550781 3.847656 5.621094 3.738281 5.667969 3.648438 C 7.101562 0.792969 10.546875 -0.449219 13.484375 0.878906 C 13.339844 0.71875 13.304688 0.488281 13.398438 0.292969 C 13.527344 0.03125 13.839844 -0.0742188 14.101562 0.0507812 C 14.359375 0.179688 14.46875 0.496094 14.339844 0.753906 C 14.242188 0.949219 14.039062 1.0625 13.820312 1.042969 C 16.746094 2.597656 17.835938 6.230469 16.316406 9.105469 Z M 12.507812 7.027344 C 12.878906 6.277344 13.707031 4.175781 13.785156 2.625 C 13.914062 -0.0585938 11.78125 1.96875 10.335938 4.226562 C 10.058594 4.667969 9.808594 5.121094 9.550781 5.574219 Z M 9.550781 5.574219 C 9.550781 5.574219 9.554688 5.574219 9.554688 5.574219 Z M 9.335938 6.378906 C 9.148438 6.519531 8.949219 6.636719 8.746094 6.75 C 6.519531 7.992188 4.347656 7.886719 2.265625 6.675781 C 1.25 6.085938 0.394531 5.292969 0 4.820312 C 0.015625 4.820312 0.0234375 4.824219 0 4.820312 C 1.753906 5.074219 3.5 4.960938 5.207031 4.457031 C 5.234375 4.445312 5.316406 4.402344 5.34375 4.417969 Z M 0.0664062 4.828125 C 0.0546875 4.828125 0.0507812 4.828125 0.0429688 4.824219 C 0.0507812 4.828125 0.0585938 4.828125 0.0664062 4.828125 Z M 0.105469 4.835938 C 0.101562 4.835938 0.09375 4.832031 0.0898438 4.832031 C 0.09375 4.832031 0.101562 4.835938 0.105469 4.835938 Z M 0.148438 4.839844 C 0.140625 4.839844 0.132812 4.839844 0.121094 4.839844 C 0.132812 4.839844 0.140625 4.839844 0.148438 4.839844 Z M 0.273438 4.859375 C 0.257812 4.855469 0.246094 4.855469 0.234375 4.855469 C 0.246094 4.855469 0.257812 4.855469 0.273438 4.859375 Z M 0.347656 4.871094 C 0.332031 4.867188 0.320312 4.867188 0.304688 4.863281 C 0.320312 4.867188 0.332031 4.867188 0.347656 4.871094 Z M 0.453125 4.886719 C 0.460938 4.886719 0.46875 4.886719 0.480469 4.890625 C 0.46875 4.886719 0.460938 4.886719 0.453125 4.886719 Z M 0.617188 4.910156 C 0.589844 4.90625 0.558594 4.902344 0.527344 4.894531 C 0.5625 4.902344 0.589844 4.90625 0.617188 4.910156 Z M 0.664062 4.914062 C 0.648438 4.914062 0.636719 4.914062 0.621094 4.910156 C 0.636719 4.910156 0.652344 4.914062 0.664062 4.914062 Z M 0.738281 4.925781 C 0.726562 4.925781 0.710938 4.921875 0.695312 4.921875 C 0.710938 4.921875 0.726562 4.925781 0.738281 4.925781 Z M 0.785156 4.933594 C 0.78125 4.933594 0.777344 4.933594 0.773438 4.933594 C 0.777344 4.933594 0.78125 4.933594 0.785156 4.933594 Z M 0.808594 4.9375 Z M 0.808594 4.9375 "/>
</g>
</svg>
