<?xml version="1.0" encoding="UTF-8"?>
<svg xmlns="http://www.w3.org/2000/svg" xmlns:xlink="http://www.w3.org/1999/xlink" width="10.021014" height="11" viewBox="0 0 10.021014 11">
<path fill-rule="nonzero" fill="rgb(30%,30%,30%)" fill-opacity="1" d="M 5.742188 6.5 C 5.742188 7.277344 5.113281 7.90625 4.335938 7.90625 C 3.5625 7.90625 2.933594 7.277344 2.933594 6.5 C 2.933594 5.722656 3.5625 5.09375 4.335938 5.09375 C 5.113281 5.09375 5.742188 5.722656 5.742188 6.5 Z M 5.742188 6.5 "/>
<path fill-rule="nonzero" fill="rgb(30%,30%,30%)" fill-opacity="1" d="M 6.453125 6.347656 C 6.253906 6.347656 6.089844 6.199219 6.070312 6 C 6.050781 5.800781 6.1875 5.621094 6.382812 5.582031 L 9.5625 4.972656 C 9.769531 4.933594 9.972656 5.070312 10.015625 5.28125 C 10.054688 5.488281 9.917969 5.691406 9.707031 5.730469 L 6.527344 6.34375 C 6.503906 6.347656 6.480469 6.347656 6.453125 6.347656 Z M 6.453125 6.347656 "/>
<path fill-rule="nonzero" fill="rgb(30%,30%,30%)" fill-opacity="1" d="M 9.378906 8.695312 C 9.335938 8.695312 9.292969 8.6875 9.253906 8.675781 L 6.394531 7.710938 C 6.191406 7.640625 6.085938 7.421875 6.152344 7.222656 C 6.222656 7.019531 6.441406 6.910156 6.640625 6.976562 L 9.5 7.941406 C 9.679688 8.003906 9.789062 8.183594 9.757812 8.371094 C 9.726562 8.558594 9.566406 8.695312 9.378906 8.695312 Z M 9.378906 8.695312 "/>
<path fill-rule="nonzero" fill="rgb(30%,30%,30%)" fill-opacity="1" d="M 5.910156 5.289062 C 5.75 5.289062 5.609375 5.191406 5.550781 5.046875 C 5.492188 4.898438 5.527344 4.730469 5.644531 4.621094 L 8.050781 2.34375 C 8.207031 2.195312 8.453125 2.203125 8.597656 2.355469 C 8.746094 2.511719 8.738281 2.757812 8.582031 2.902344 L 6.175781 5.183594 C 6.101562 5.25 6.007812 5.289062 5.910156 5.289062 Z M 5.910156 5.289062 "/>
<path fill-rule="nonzero" fill="rgb(30%,30%,30%)" fill-opacity="1" d="M 3.597656 11 C 3.484375 11 3.367188 10.992188 3.253906 10.976562 C 2.601562 10.894531 2.125 10.539062 1.847656 9.921875 C 1.625 9.429688 1.554688 8.839844 1.488281 8.316406 C 1.429688 7.839844 1.371094 7.351562 1.214844 7.128906 C 0.53125 6.183594 0.132812 5.257812 0.0273438 4.375 C -0.0664062 3.585938 0.0742188 2.847656 0.441406 2.179688 C 0.917969 1.3125 1.648438 0.792969 2.179688 0.511719 C 2.847656 0.152344 3.578125 -0.03125 4.179688 0.00390625 C 5.445312 0.078125 6.03125 0.714844 6.300781 1.234375 C 6.582031 1.78125 6.570312 2.300781 6.570312 2.355469 C 6.5625 2.5625 6.386719 2.726562 6.179688 2.71875 C 5.972656 2.710938 5.8125 2.535156 5.816406 2.328125 C 5.820312 2.316406 5.824219 1.933594 5.621094 1.554688 C 5.355469 1.066406 4.855469 0.796875 4.136719 0.753906 C 3.675781 0.726562 3.078125 0.882812 2.535156 1.171875 C 1.910156 1.507812 1.402344 1.992188 1.097656 2.542969 C 0.457031 3.707031 0.707031 5.140625 1.824219 6.691406 C 2.09375 7.066406 2.164062 7.628906 2.234375 8.222656 C 2.296875 8.714844 2.359375 9.226562 2.53125 9.609375 C 2.703125 9.988281 2.957031 10.179688 3.351562 10.230469 C 3.75 10.285156 4.070312 10.214844 4.300781 10.023438 C 4.699219 9.695312 4.746094 9.105469 4.75 9.097656 C 4.761719 8.890625 4.941406 8.734375 5.148438 8.75 C 5.355469 8.761719 5.511719 8.941406 5.496094 9.148438 C 5.496094 9.183594 5.429688 10.066406 4.777344 10.605469 C 4.457031 10.867188 4.0625 11 3.597656 11 Z M 3.597656 11 "/>
</svg>
