<?xml version="1.0" encoding="UTF-8" standalone="no"?>
<!-- Created with Inkscape (http://www.inkscape.org/) -->

<svg
   xmlns:dc="http://purl.org/dc/elements/1.1/"
   xmlns:cc="http://creativecommons.org/ns#"
   xmlns:rdf="http://www.w3.org/1999/02/22-rdf-syntax-ns#"
   xmlns:svg="http://www.w3.org/2000/svg"
   xmlns="http://www.w3.org/2000/svg"
   xmlns:xlink="http://www.w3.org/1999/xlink"
   xmlns:sodipodi="http://sodipodi.sourceforge.net/DTD/sodipodi-0.dtd"
   xmlns:inkscape="http://www.inkscape.org/namespaces/inkscape"
   width="30px"
   height="30px"
   version="1.1"
   id="svg8"
   inkscape:version="0.92.4 5da689c313, 2019-01-14"
   sodipodi:docname="container.svg">
  <defs
     id="defs2" />
  <sodipodi:namedview
     id="base"
     pagecolor="#ffffff"
     bordercolor="#666666"
     borderopacity="1.0"
     inkscape:pageopacity="0.0"
     inkscape:pageshadow="2"
     inkscape:zoom="13.049334"
     inkscape:cx="18.679046"
     inkscape:cy="12.165829"
     inkscape:document-units="px"
     inkscape:current-layer="layer1"
     showgrid="false"
     inkscape:snap-page="false"
     units="px"
     inkscape:window-width="1884"
     inkscape:window-height="1061"
     inkscape:window-x="0"
     inkscape:window-y="0"
     inkscape:window-maximized="1"
     fit-margin-top="0"
     fit-margin-left="0"
     fit-margin-right="0"
     fit-margin-bottom="0" />
  <metadata
     id="metadata5">
    <rdf:RDF>
      <cc:Work
         rdf:about="">
        <dc:format>image/svg+xml</dc:format>
        <dc:type
           rdf:resource="http://purl.org/dc/dcmitype/StillImage" />
        <dc:title></dc:title>
      </cc:Work>
    </rdf:RDF>
  </metadata>
    <circle
       style="color:#000000;clip-rule:nonzero;display:inline;overflow:visible;visibility:visible;opacity:1;isolation:auto;mix-blend-mode:normal;color-interpolation:sRGB;color-interpolation-filters:linearRGB;solid-color:#000000;solid-opacity:1;vector-effect:none;fill:#ffffff;fill-opacity:1;fill-rule:evenodd;stroke:#808080;stroke-width:1;stroke-linecap:butt;stroke-linejoin:miter;stroke-miterlimit:4;stroke-dasharray:none;stroke-dashoffset:0;stroke-opacity:1;marker:none;color-rendering:auto;image-rendering:auto;shape-rendering:auto;text-rendering:auto;enable-background:accumulate"
       id="path815"
       cx="15"
       cy="15"
       r="14.5" />
<g transform="translate(6.5,6.5)"><path fill-rule="nonzero" fill="rgb(30%,30%,30%)" fill-opacity="1" d="M 9.699219 15.78125 L 7.210938 10.460938 C 9.65625 9.933594 9.574219 7.503906 9.425781 6.4375 C 9.320312 5.671875 6.980469 5.890625 6.714844 5.890625 C 6.445312 5.890625 5.988281 5.328125 5.453125 5.175781 C 4.917969 5.023438 1.785156 5.136719 1.605469 5.15625 C 1.421875 5.175781 0.0195312 5.429688 0.132812 6.253906 C 0.449219 8.542969 1.457031 9.625 2.765625 10.132812 L 0.03125 15.3125 C -0.0351562 15.4375 0.0117188 15.59375 0.136719 15.660156 C 0.265625 15.726562 0.421875 15.679688 0.488281 15.554688 L 3.261719 10.296875 C 3.417969 10.339844 3.574219 10.375 3.738281 10.40625 L 2.660156 16.226562 C 2.632812 16.367188 2.726562 16.5 2.867188 16.527344 C 3.007812 16.554688 3.140625 16.460938 3.167969 16.320312 L 4.25 10.484375 C 4.519531 10.515625 4.792969 10.535156 5.070312 10.546875 L 6.210938 16.4375 C 6.230469 16.527344 6.292969 16.601562 6.382812 16.632812 C 6.46875 16.664062 6.566406 16.644531 6.636719 16.585938 C 6.707031 16.523438 6.738281 16.429688 6.71875 16.339844 L 5.601562 10.5625 C 5.8125 10.566406 6.023438 10.566406 6.238281 10.5625 C 6.390625 10.5625 6.535156 10.550781 6.675781 10.539062 L 9.230469 16 C 9.292969 16.128906 9.445312 16.1875 9.574219 16.125 C 9.703125 16.066406 9.757812 15.910156 9.699219 15.78125 Z M 4.363281 9.960938 C 4.363281 9.960938 3.449219 9.464844 3.34375 8.644531 C 3.238281 7.820312 3.363281 7.296875 3.066406 7.027344 C 2.769531 6.761719 2.082031 6.761719 1.585938 6.589844 C 0.957031 6.371094 1.035156 5.957031 1.261719 5.875 C 1.644531 5.730469 4.632812 5.625 5.3125 5.824219 C 5.988281 6.027344 6.246094 6.492188 6.53125 6.503906 C 6.820312 6.511719 8.464844 6.476562 8.605469 6.542969 C 8.855469 6.65625 9.0625 7.257812 8.855469 8.097656 C 8.613281 9.0625 8.136719 9.578125 7.191406 9.914062 C 6.855469 10.03125 4.363281 9.960938 4.363281 9.960938 Z M 13.90625 15.265625 L 13.90625 5.480469 L 17 5.480469 L 16.160156 0 L 11.003906 0 L 10.066406 5.480469 L 13.21875 5.480469 L 13.21875 15.265625 C 11.523438 15.304688 10.199219 15.667969 10.199219 16.109375 C 10.199219 16.574219 11.695312 16.953125 13.539062 16.953125 C 15.378906 16.953125 16.875 16.574219 16.875 16.109375 C 16.875 15.671875 15.574219 15.3125 13.90625 15.265625 Z M 13.90625 15.265625 "/>
</g>
</svg>
