<?xml version="1.0" encoding="UTF-8"?>
<svg xmlns="http://www.w3.org/2000/svg" xmlns:xlink="http://www.w3.org/1999/xlink" width="6.557695" height="11" viewBox="0 0 6.557695 11">
<path fill-rule="nonzero" fill="rgb(30%,30%,30%)" fill-opacity="1" d="M 5.671875 0 L 0.886719 0 C 0.394531 0 0 0.394531 0 0.886719 L 0 10.4375 L 0.40625 10.4375 L 0.40625 10.746094 C 0.40625 10.886719 0.519531 11 0.660156 11 L 1.351562 11 C 1.492188 11 1.605469 10.886719 1.605469 10.746094 L 1.605469 10.4375 L 4.917969 10.4375 L 4.917969 10.746094 C 4.917969 10.886719 5.03125 11 5.171875 11 L 5.863281 11 C 6.003906 11 6.117188 10.886719 6.117188 10.746094 L 6.117188 10.4375 L 6.558594 10.4375 L 6.558594 0.886719 C 6.558594 0.394531 6.160156 0 5.671875 0 Z M 2.613281 0.933594 C 3.289062 0.652344 4.066406 0.84375 4.53125 1.40625 C 4.996094 1.96875 5.039062 2.769531 4.636719 3.378906 C 4.230469 3.984375 3.476562 4.257812 2.777344 4.046875 C 2.078125 3.835938 1.601562 3.191406 1.601562 2.460938 C 1.597656 1.792969 2 1.191406 2.613281 0.933594 Z M 3.289062 9.5625 C 1.929688 9.5625 0.824219 8.460938 0.824219 7.097656 C 0.824219 5.738281 1.929688 4.632812 3.289062 4.632812 C 4.652344 4.632812 5.757812 5.738281 5.757812 7.097656 C 5.757812 8.460938 4.652344 9.5625 3.289062 9.5625 Z M 3.257812 1.136719 C 2.527344 1.136719 1.933594 1.730469 1.933594 2.460938 C 1.933594 3.191406 2.527344 3.785156 3.257812 3.785156 C 3.988281 3.785156 4.582031 3.191406 4.582031 2.460938 C 4.582031 2.109375 4.445312 1.773438 4.195312 1.523438 C 3.949219 1.273438 3.609375 1.136719 3.257812 1.136719 Z M 3.5625 3.140625 C 3.261719 3.273438 2.90625 3.191406 2.695312 2.941406 C 2.480469 2.6875 2.457031 2.328125 2.640625 2.050781 C 2.820312 1.777344 3.160156 1.652344 3.476562 1.746094 C 3.792969 1.839844 4.007812 2.128906 4.007812 2.457031 C 4.007812 2.753906 3.832031 3.023438 3.5625 3.140625 Z M 3.320312 4.953125 C 2.148438 4.953125 1.199219 5.902344 1.199219 7.074219 C 1.199219 8.246094 2.148438 9.195312 3.320312 9.195312 C 4.488281 9.195312 5.4375 8.246094 5.4375 7.074219 C 5.4375 5.902344 4.488281 4.953125 3.320312 4.953125 Z M 3.320312 8.347656 C 2.617188 8.347656 2.046875 7.777344 2.046875 7.074219 C 2.046875 6.371094 2.617188 5.804688 3.320312 5.804688 C 4.023438 5.804688 4.589844 6.371094 4.589844 7.074219 C 4.589844 7.777344 4.023438 8.347656 3.320312 8.347656 Z M 3.320312 8.347656 "/>
</svg>
