<?xml version="1.0" encoding="UTF-8"?>
<svg xmlns="http://www.w3.org/2000/svg" xmlns:xlink="http://www.w3.org/1999/xlink" width="9.546889" height="11" viewBox="0 0 9.546889 11">
<path fill-rule="nonzero" fill="rgb(30%,30%,30%)" fill-opacity="1" d="M 4.542969 5.855469 C 4.542969 5.855469 4.597656 7.492188 4.042969 8.105469 C 4.042969 8.105469 3.96875 7.214844 3.726562 7.214844 C 3.636719 7.214844 3.9375 7.632812 3.265625 8.4375 C 3.023438 8.726562 3.097656 10.042969 4.457031 10.164062 C 6.679688 10.363281 6.605469 8.007812 5.878906 7.28125 C 5.878906 7.28125 5.699219 7.738281 5.589844 7.738281 C 5.589844 7.738281 5.847656 6.765625 4.542969 5.855469 Z M 4.542969 5.855469 "/>
<path fill-rule="nonzero" fill="rgb(30%,30%,30%)" fill-opacity="1" d="M 0.660156 5.460938 L 2.144531 5.460938 L 2.144531 10.175781 L 0.660156 10.175781 Z M 0.660156 5.460938 "/>
<path fill-rule="nonzero" fill="rgb(30%,30%,30%)" fill-opacity="1" d="M 7.347656 5.460938 L 8.832031 5.460938 L 8.832031 10.175781 L 7.347656 10.175781 Z M 7.347656 5.460938 "/>
<path fill-rule="nonzero" fill="rgb(30%,30%,30%)" fill-opacity="1" d="M 0 10.378906 L 9.546875 10.378906 L 9.546875 11 L 0 11 Z M 0 10.378906 "/>
<path fill-rule="nonzero" fill="rgb(30%,30%,30%)" fill-opacity="1" d="M 0.371094 4.222656 L 9.074219 4.222656 L 9.074219 5.246094 L 0.371094 5.246094 Z M 0.371094 4.222656 "/>
<path fill-rule="nonzero" fill="rgb(30%,30%,30%)" fill-opacity="1" d="M 8.25 4.007812 L 1.199219 4.007812 L 2.667969 0 L 6.800781 0 Z M 8.25 4.007812 "/>
</svg>
