<?xml version="1.0" encoding="UTF-8"?>
<svg xmlns="http://www.w3.org/2000/svg" xmlns:xlink="http://www.w3.org/1999/xlink" width="11" height="7.447887" viewBox="0 0 11 7.447887">
<path fill-rule="nonzero" fill="rgb(30%,30%,30%)" fill-opacity="1" d="M 10.542969 6.300781 L 10.542969 0.832031 C 10.542969 0.351562 10.191406 0.00390625 9.671875 0 L 1.328125 0 C 0.808594 0.00390625 0.457031 0.351562 0.457031 0.832031 L 0.457031 6.300781 L 0 6.300781 L 0 6.996094 C 0 7.246094 0.261719 7.449219 0.585938 7.449219 L 10.445312 7.449219 C 10.765625 7.449219 11 7.214844 11 6.964844 L 11 6.300781 Z M 0.917969 0.746094 C 0.917969 0.585938 1.046875 0.457031 1.203125 0.457031 L 9.796875 0.457031 C 9.953125 0.457031 10.082031 0.585938 10.082031 0.746094 L 10.082031 6.074219 L 0.917969 6.074219 Z M 1.144531 6.988281 L 0.917969 6.988281 L 0.917969 6.761719 L 1.144531 6.761719 Z M 1.832031 6.988281 L 1.605469 6.988281 L 1.605469 6.761719 L 1.832031 6.761719 Z M 6.417969 6.53125 L 4.582031 6.53125 C 4.316406 6.53125 4.257812 6.300781 4.257812 6.300781 L 6.742188 6.300781 C 6.742188 6.300781 6.683594 6.53125 6.417969 6.53125 Z M 6.417969 6.53125 "/>
</svg>
