<?xml version="1.0" encoding="UTF-8" standalone="no"?>
<!-- Created with Inkscape (http://www.inkscape.org/) -->

<svg
   xmlns:dc="http://purl.org/dc/elements/1.1/"
   xmlns:cc="http://creativecommons.org/ns#"
   xmlns:rdf="http://www.w3.org/1999/02/22-rdf-syntax-ns#"
   xmlns:svg="http://www.w3.org/2000/svg"
   xmlns="http://www.w3.org/2000/svg"
   xmlns:xlink="http://www.w3.org/1999/xlink"
   xmlns:sodipodi="http://sodipodi.sourceforge.net/DTD/sodipodi-0.dtd"
   xmlns:inkscape="http://www.inkscape.org/namespaces/inkscape"
   width="30px"
   height="30px"
   version="1.1"
   id="svg8"
   inkscape:version="0.92.4 5da689c313, 2019-01-14"
   sodipodi:docname="container.svg">
  <defs
     id="defs2" />
  <sodipodi:namedview
     id="base"
     pagecolor="#ffffff"
     bordercolor="#666666"
     borderopacity="1.0"
     inkscape:pageopacity="0.0"
     inkscape:pageshadow="2"
     inkscape:zoom="13.049334"
     inkscape:cx="18.679046"
     inkscape:cy="12.165829"
     inkscape:document-units="px"
     inkscape:current-layer="layer1"
     showgrid="false"
     inkscape:snap-page="false"
     units="px"
     inkscape:window-width="1884"
     inkscape:window-height="1061"
     inkscape:window-x="0"
     inkscape:window-y="0"
     inkscape:window-maximized="1"
     fit-margin-top="0"
     fit-margin-left="0"
     fit-margin-right="0"
     fit-margin-bottom="0" />
  <metadata
     id="metadata5">
    <rdf:RDF>
      <cc:Work
         rdf:about="">
        <dc:format>image/svg+xml</dc:format>
        <dc:type
           rdf:resource="http://purl.org/dc/dcmitype/StillImage" />
        <dc:title></dc:title>
      </cc:Work>
    </rdf:RDF>
  </metadata>
    <circle
       style="color:#000000;clip-rule:nonzero;display:inline;overflow:visible;visibility:visible;opacity:1;isolation:auto;mix-blend-mode:normal;color-interpolation:sRGB;color-interpolation-filters:linearRGB;solid-color:#000000;solid-opacity:1;vector-effect:none;fill:#ffffff;fill-opacity:1;fill-rule:evenodd;stroke:#808080;stroke-width:1;stroke-linecap:butt;stroke-linejoin:miter;stroke-miterlimit:4;stroke-dasharray:none;stroke-dashoffset:0;stroke-opacity:1;marker:none;color-rendering:auto;image-rendering:auto;shape-rendering:auto;text-rendering:auto;enable-background:accumulate"
       id="path815"
       cx="15"
       cy="15"
       r="14.5" />
<g transform="translate(6.5,6.5)"><path fill-rule="nonzero" fill="rgb(30%,30%,30%)" fill-opacity="1" d="M 12.984375 2.015625 C 12.980469 2.015625 12.980469 2.015625 12.976562 2.015625 L 7.84375 14.3125 C 7.421875 15.296875 6.71875 15.859375 5.917969 15.859375 L 2.542969 15.859375 C 1.613281 15.859375 0.816406 15.097656 0.828125 14.167969 C 0.84375 13.214844 1.617188 12.527344 2.679688 12.527344 L 5.949219 12.527344 C 6.246094 12.527344 6.511719 12.742188 6.535156 13.035156 C 6.550781 13.191406 6.5 13.347656 6.390625 13.460938 C 6.285156 13.578125 6.136719 13.644531 5.980469 13.644531 L 2.679688 13.644531 C 2.238281 13.644531 1.953125 13.855469 1.945312 14.179688 C 1.941406 14.488281 2.214844 14.742188 2.523438 14.742188 L 5.917969 14.742188 C 6.246094 14.742188 6.925781 14.195312 7.160156 13.652344 L 12.417969 1.34375 C 12.5 0.832031 12.4375 0.046875 12.214844 0 L 6.382812 0 C 6.378906 0 6.378906 0 6.375 0.00390625 C 6.375 0.00390625 0.222656 12.308594 0.113281 12.980469 C 0 13.652344 0 14.320312 0 14.320312 C 0.0390625 14.878906 0.222656 16.535156 2.054688 16.507812 L 11.347656 16.507812 C 11.347656 16.507812 11.351562 16.507812 11.351562 16.503906 L 17 2 C 17 1.996094 17 1.996094 17 1.992188 C 16.996094 1.992188 16.996094 1.992188 16.996094 1.992188 Z M 13.148438 5.148438 C 12.929688 5.148438 12.753906 4.972656 12.753906 4.753906 C 12.753906 4.539062 12.929688 4.363281 13.148438 4.363281 C 13.363281 4.363281 13.539062 4.539062 13.539062 4.753906 C 13.539062 4.972656 13.363281 5.148438 13.148438 5.148438 Z M 13.707031 3.691406 C 13.488281 3.691406 13.316406 3.515625 13.316406 3.300781 C 13.316406 3.085938 13.488281 2.910156 13.707031 2.910156 C 13.921875 2.910156 14.097656 3.085938 14.097656 3.300781 C 14.097656 3.515625 13.921875 3.691406 13.707031 3.691406 Z M 14.824219 4.8125 C 14.609375 4.8125 14.433594 4.636719 14.433594 4.417969 C 14.433594 4.203125 14.609375 4.027344 14.824219 4.027344 C 15.042969 4.027344 15.21875 4.203125 15.21875 4.417969 C 15.21875 4.636719 15.042969 4.8125 14.824219 4.8125 Z M 12.585938 6.601562 C 12.371094 6.601562 12.195312 6.425781 12.195312 6.210938 C 12.195312 5.992188 12.371094 5.816406 12.585938 5.816406 C 12.804688 5.816406 12.980469 5.992188 12.980469 6.210938 C 12.980469 6.425781 12.804688 6.601562 12.585938 6.601562 Z M 14.265625 6.265625 C 14.050781 6.265625 13.875 6.089844 13.875 5.875 C 13.875 5.65625 14.050781 5.484375 14.265625 5.484375 C 14.480469 5.484375 14.65625 5.65625 14.65625 5.875 C 14.65625 6.089844 14.480469 6.265625 14.265625 6.265625 Z M 11.917969 8.28125 C 11.699219 8.28125 11.523438 8.105469 11.523438 7.886719 C 11.523438 7.671875 11.699219 7.496094 11.917969 7.496094 C 12.132812 7.496094 12.308594 7.671875 12.308594 7.886719 C 12.308594 8.105469 12.132812 8.28125 11.917969 8.28125 Z M 13.59375 7.945312 C 13.378906 7.945312 13.203125 7.769531 13.203125 7.550781 C 13.203125 7.335938 13.378906 7.160156 13.59375 7.160156 C 13.8125 7.160156 13.984375 7.335938 13.984375 7.550781 C 13.984375 7.769531 13.8125 7.945312 13.59375 7.945312 Z M 11.355469 10.070312 C 11.140625 10.070312 10.964844 9.894531 10.964844 9.679688 C 10.964844 9.460938 11.140625 9.285156 11.355469 9.285156 C 11.574219 9.285156 11.75 9.460938 11.75 9.679688 C 11.75 9.894531 11.574219 10.070312 11.355469 10.070312 Z M 13.035156 9.734375 C 12.820312 9.734375 12.644531 9.558594 12.644531 9.34375 C 12.644531 9.125 12.820312 8.949219 13.035156 8.949219 C 13.25 8.949219 13.425781 9.125 13.425781 9.34375 C 13.425781 9.558594 13.25 9.734375 13.035156 9.734375 Z M 10.351562 11.859375 C 10.132812 11.859375 9.957031 11.683594 9.957031 11.46875 C 9.957031 11.253906 10.132812 11.078125 10.351562 11.078125 C 10.566406 11.078125 10.742188 11.253906 10.742188 11.46875 C 10.742188 11.683594 10.566406 11.859375 10.351562 11.859375 Z M 12.027344 11.523438 C 11.8125 11.523438 11.636719 11.347656 11.636719 11.132812 C 11.636719 10.917969 11.8125 10.742188 12.027344 10.742188 C 12.246094 10.742188 12.417969 10.917969 12.417969 11.132812 C 12.417969 11.347656 12.246094 11.523438 12.027344 11.523438 Z M 9.679688 13.539062 C 9.460938 13.539062 9.285156 13.363281 9.285156 13.148438 C 9.285156 12.929688 9.460938 12.753906 9.679688 12.753906 C 9.894531 12.753906 10.070312 12.929688 10.070312 13.148438 C 10.070312 13.363281 9.894531 13.539062 9.679688 13.539062 Z M 11.355469 13.203125 C 11.140625 13.203125 10.964844 13.027344 10.964844 12.8125 C 10.964844 12.59375 11.140625 12.417969 11.355469 12.417969 C 11.574219 12.417969 11.75 12.59375 11.75 12.8125 C 11.75 13.027344 11.574219 13.203125 11.355469 13.203125 Z M 8.894531 15.550781 C 8.679688 15.550781 8.503906 15.378906 8.503906 15.160156 C 8.503906 14.945312 8.679688 14.769531 8.894531 14.769531 C 9.113281 14.769531 9.285156 14.945312 9.285156 15.160156 C 9.285156 15.378906 9.113281 15.550781 8.894531 15.550781 Z M 10.574219 15.21875 C 10.355469 15.21875 10.183594 15.042969 10.183594 14.824219 C 10.183594 14.609375 10.355469 14.433594 10.574219 14.433594 C 10.789062 14.433594 10.964844 14.609375 10.964844 14.824219 C 10.964844 15.042969 10.789062 15.21875 10.574219 15.21875 Z M 15.382812 3.46875 C 15.167969 3.46875 14.992188 3.292969 14.992188 3.078125 C 14.992188 2.859375 15.167969 2.683594 15.382812 2.683594 C 15.601562 2.683594 15.777344 2.859375 15.777344 3.078125 C 15.777344 3.292969 15.601562 3.46875 15.382812 3.46875 Z M 15.382812 3.46875 "/>
</g>
</svg>
