<?xml version="1.0" encoding="UTF-8"?>
<svg xmlns="http://www.w3.org/2000/svg" xmlns:xlink="http://www.w3.org/1999/xlink" width="11" height="6.672657" viewBox="0 0 11 6.672657">
<path fill-rule="nonzero" fill="rgb(30%,30%,30%)" fill-opacity="1" d="M 8.890625 3.390625 C 8.890625 3.390625 8.746094 1.082031 8.683594 0.875 C 8.625 0.667969 8.167969 -0.113281 7.027344 0.449219 C 7.027344 0.449219 4.972656 -0.410156 3.65625 0.25 C 2.34375 0.90625 2.414062 1.734375 2.414062 1.734375 L 2.269531 3.199219 C 2.269531 3.199219 0.125 3.90625 0.00390625 4.914062 C -0.113281 5.917969 1.625 6.425781 1.914062 6.464844 C 2.910156 6.597656 4.921875 7.167969 8.847656 5.5625 C 10.175781 5.019531 11 4.484375 11 3.9375 C 11 3.570312 8.890625 3.390625 8.890625 3.390625 Z M 7.621094 4.820312 C 7.535156 4.859375 7.148438 5.03125 7.058594 5.0625 C 6.519531 5.253906 5.179688 5.710938 3.199219 5.5625 C 2.386719 5.503906 2.128906 5.179688 2.128906 5.179688 L 2.179688 4.484375 C 2.179688 4.484375 2.699219 4.792969 3.289062 4.832031 C 4.058594 4.882812 4.46875 4.914062 5.5 4.832031 C 6.703125 4.738281 8.855469 3.734375 8.855469 3.734375 L 8.867188 4.1875 Z M 7.621094 4.820312 "/>
</svg>
