<?xml version="1.0" encoding="UTF-8" standalone="no"?>
<!-- Created with Inkscape (http://www.inkscape.org/) -->

<svg
   xmlns:dc="http://purl.org/dc/elements/1.1/"
   xmlns:cc="http://creativecommons.org/ns#"
   xmlns:rdf="http://www.w3.org/1999/02/22-rdf-syntax-ns#"
   xmlns:svg="http://www.w3.org/2000/svg"
   xmlns="http://www.w3.org/2000/svg"
   xmlns:xlink="http://www.w3.org/1999/xlink"
   xmlns:sodipodi="http://sodipodi.sourceforge.net/DTD/sodipodi-0.dtd"
   xmlns:inkscape="http://www.inkscape.org/namespaces/inkscape"
   width="30px"
   height="30px"
   version="1.1"
   id="svg8"
   inkscape:version="0.92.4 5da689c313, 2019-01-14"
   sodipodi:docname="container.svg">
  <defs
     id="defs2" />
  <sodipodi:namedview
     id="base"
     pagecolor="#ffffff"
     bordercolor="#666666"
     borderopacity="1.0"
     inkscape:pageopacity="0.0"
     inkscape:pageshadow="2"
     inkscape:zoom="13.049334"
     inkscape:cx="18.679046"
     inkscape:cy="12.165829"
     inkscape:document-units="px"
     inkscape:current-layer="layer1"
     showgrid="false"
     inkscape:snap-page="false"
     units="px"
     inkscape:window-width="1884"
     inkscape:window-height="1061"
     inkscape:window-x="0"
     inkscape:window-y="0"
     inkscape:window-maximized="1"
     fit-margin-top="0"
     fit-margin-left="0"
     fit-margin-right="0"
     fit-margin-bottom="0" />
  <metadata
     id="metadata5">
    <rdf:RDF>
      <cc:Work
         rdf:about="">
        <dc:format>image/svg+xml</dc:format>
        <dc:type
           rdf:resource="http://purl.org/dc/dcmitype/StillImage" />
        <dc:title></dc:title>
      </cc:Work>
    </rdf:RDF>
  </metadata>
    <circle
       style="color:#000000;clip-rule:nonzero;display:inline;overflow:visible;visibility:visible;opacity:1;isolation:auto;mix-blend-mode:normal;color-interpolation:sRGB;color-interpolation-filters:linearRGB;solid-color:#000000;solid-opacity:1;vector-effect:none;fill:#ffffff;fill-opacity:1;fill-rule:evenodd;stroke:#808080;stroke-width:1;stroke-linecap:butt;stroke-linejoin:miter;stroke-miterlimit:4;stroke-dasharray:none;stroke-dashoffset:0;stroke-opacity:1;marker:none;color-rendering:auto;image-rendering:auto;shape-rendering:auto;text-rendering:auto;enable-background:accumulate"
       id="path815"
       cx="15"
       cy="15"
       r="14.5" />
<g transform="translate(12.0,6.5)"><path fill-rule="nonzero" fill="rgb(30%,30%,30%)" fill-opacity="1" d="M 5.679688 4.839844 C 6.035156 4.148438 6.371094 3.425781 6.375 1.941406 C 6.378906 1.261719 6.046875 0.015625 5.515625 0 C 4.320312 -0.0351562 3.609375 2.0625 3.542969 2.566406 C 3.476562 3.066406 3.5625 5.207031 3.5625 5.207031 C 1.835938 6.164062 1.398438 6.390625 0.535156 7.625 C -0.628906 9.296875 -0.0117188 13.054688 3.519531 13.160156 L 3.542969 15.296875 C 3.566406 15.738281 3.132812 16.753906 2.148438 16.5625 C 1.542969 16.441406 1.25 16.246094 1.117188 16.019531 C 1.117188 16.019531 1.121094 16.019531 1.121094 16.019531 C 1.445312 16.019531 1.742188 15.851562 1.90625 15.570312 C 2.066406 15.292969 2.066406 14.949219 1.90625 14.667969 C 1.742188 14.390625 1.445312 14.21875 1.121094 14.21875 C 0.621094 14.21875 0.191406 14.699219 0.191406 15.199219 C 0.191406 15.199219 -0.0078125 16.125 0.988281 16.679688 C 2.355469 17.4375 3.785156 16.777344 3.875 15.46875 C 3.902344 15.066406 3.902344 14.222656 3.914062 13.15625 C 6.851562 12.933594 6.835938 8.335938 3.9375 8.191406 C 3.9375 7.617188 3.9375 7.054688 3.941406 6.527344 C 4.648438 6.136719 5.226562 5.726562 5.679688 4.839844 Z M 5.582031 1.210938 C 6.261719 1.160156 6.027344 2.984375 5.449219 3.730469 C 5.175781 4.082031 4.835938 4.464844 3.941406 4.992188 C 3.941406 4.273438 3.941406 3.710938 3.941406 3.394531 C 4.136719 1.96875 5.222656 1.238281 5.582031 1.210938 Z M 5.222656 11.316406 C 5.15625 11.980469 4.679688 12.574219 3.917969 12.734375 C 3.925781 11.765625 3.929688 10.644531 3.933594 9.523438 C 4.734375 9.617188 5.335938 10.191406 5.222656 11.316406 Z M 3.546875 8.199219 C 2.015625 8.347656 1.433594 10.011719 1.917969 11.15625 C 2.179688 11.777344 2.8125 11.921875 2.8125 11.921875 C 2.289062 11.140625 2.015625 9.59375 3.539062 9.523438 L 3.523438 12.78125 C 3.03125 12.796875 2.449219 12.652344 1.800781 12.253906 C 0.191406 11.257812 0.402344 8.917969 1.683594 7.910156 C 2.378906 7.363281 3 7.03125 3.554688 6.738281 Z M 3.546875 8.199219 "/>
</g>
</svg>
