<?xml version="1.0" encoding="UTF-8" standalone="no"?>
<!-- Created with Inkscape (http://www.inkscape.org/) -->

<svg
   xmlns:dc="http://purl.org/dc/elements/1.1/"
   xmlns:cc="http://creativecommons.org/ns#"
   xmlns:rdf="http://www.w3.org/1999/02/22-rdf-syntax-ns#"
   xmlns:svg="http://www.w3.org/2000/svg"
   xmlns="http://www.w3.org/2000/svg"
   xmlns:xlink="http://www.w3.org/1999/xlink"
   xmlns:sodipodi="http://sodipodi.sourceforge.net/DTD/sodipodi-0.dtd"
   xmlns:inkscape="http://www.inkscape.org/namespaces/inkscape"
   width="30px"
   height="30px"
   version="1.1"
   id="svg8"
   inkscape:version="0.92.4 5da689c313, 2019-01-14"
   sodipodi:docname="container.svg">
  <defs
     id="defs2" />
  <sodipodi:namedview
     id="base"
     pagecolor="#ffffff"
     bordercolor="#666666"
     borderopacity="1.0"
     inkscape:pageopacity="0.0"
     inkscape:pageshadow="2"
     inkscape:zoom="13.049334"
     inkscape:cx="18.679046"
     inkscape:cy="12.165829"
     inkscape:document-units="px"
     inkscape:current-layer="layer1"
     showgrid="false"
     inkscape:snap-page="false"
     units="px"
     inkscape:window-width="1884"
     inkscape:window-height="1061"
     inkscape:window-x="0"
     inkscape:window-y="0"
     inkscape:window-maximized="1"
     fit-margin-top="0"
     fit-margin-left="0"
     fit-margin-right="0"
     fit-margin-bottom="0" />
  <metadata
     id="metadata5">
    <rdf:RDF>
      <cc:Work
         rdf:about="">
        <dc:format>image/svg+xml</dc:format>
        <dc:type
           rdf:resource="http://purl.org/dc/dcmitype/StillImage" />
        <dc:title></dc:title>
      </cc:Work>
    </rdf:RDF>
  </metadata>
    <circle
       style="color:#000000;clip-rule:nonzero;display:inline;overflow:visible;visibility:visible;opacity:1;isolation:auto;mix-blend-mode:normal;color-interpolation:sRGB;color-interpolation-filters:linearRGB;solid-color:#000000;solid-opacity:1;vector-effect:none;fill:#ffffff;fill-opacity:1;fill-rule:evenodd;stroke:#808080;stroke-width:1;stroke-linecap:butt;stroke-linejoin:miter;stroke-miterlimit:4;stroke-dasharray:none;stroke-dashoffset:0;stroke-opacity:1;marker:none;color-rendering:auto;image-rendering:auto;shape-rendering:auto;text-rendering:auto;enable-background:accumulate"
       id="path815"
       cx="15"
       cy="15"
       r="14.5" />
<g transform="translate(6.5,6.5)"><path fill-rule="nonzero" fill="rgb(30%,30%,30%)" fill-opacity="1" d="M 2.757812 2.820312 C 2.757812 3.519531 2.761719 4.21875 2.757812 4.921875 C 2.753906 5.421875 2.734375 5.925781 2.722656 6.425781 C 2.71875 6.605469 2.640625 6.738281 2.488281 6.835938 C 2.4375 6.867188 2.390625 6.949219 2.390625 7.007812 C 2.386719 8.234375 2.382812 9.464844 2.390625 10.695312 C 2.390625 10.765625 2.445312 10.859375 2.503906 10.894531 C 3.089844 11.269531 3.574219 11.734375 3.808594 12.398438 C 3.914062 12.703125 3.976562 13.03125 4.003906 13.351562 C 4.078125 14.28125 3.953125 15.175781 3.46875 15.996094 C 3.226562 16.40625 2.910156 16.746094 2.445312 16.914062 C 1.882812 17.113281 1.390625 16.953125 0.976562 16.5625 C 0.558594 16.171875 0.300781 15.6875 0.167969 15.125 C -0.00390625 14.40625 -0.0585938 13.691406 0.0742188 12.964844 C 0.242188 12.0625 0.691406 11.347656 1.5 10.886719 C 1.613281 10.820312 1.660156 10.75 1.660156 10.613281 C 1.65625 10.039062 1.667969 9.46875 1.667969 8.894531 C 1.667969 8.261719 1.664062 7.625 1.652344 6.988281 C 1.648438 6.933594 1.605469 6.863281 1.558594 6.832031 C 1.367188 6.699219 1.296875 6.539062 1.34375 6.308594 C 1.355469 6.238281 1.355469 6.167969 1.355469 6.101562 C 1.355469 4.265625 1.355469 2.429688 1.355469 0.597656 C 1.355469 0.144531 1.5 0 1.949219 0 C 2.058594 0 2.164062 0 2.269531 0 C 2.585938 0.0078125 2.753906 0.175781 2.757812 0.492188 C 2.757812 1.269531 2.757812 2.042969 2.757812 2.820312 Z M 2.085938 0.289062 C 1.964844 0.292969 1.859375 0.398438 1.871094 0.519531 C 1.886719 0.648438 1.964844 0.714844 2.097656 0.714844 C 2.21875 0.710938 2.316406 0.621094 2.316406 0.507812 C 2.316406 0.386719 2.207031 0.285156 2.085938 0.289062 Z M 2.085938 0.289062 "/>
<path fill-rule="nonzero" fill="rgb(30%,30%,30%)" fill-opacity="1" d="M 7.855469 12.941406 C 7.855469 12.878906 7.855469 12.828125 7.855469 12.773438 C 7.855469 10.855469 7.855469 8.933594 7.859375 7.015625 C 7.859375 6.902344 7.832031 6.832031 7.726562 6.777344 C 7.574219 6.695312 7.519531 6.546875 7.519531 6.386719 C 7.523438 6.1875 7.546875 5.992188 7.546875 5.796875 C 7.550781 4.050781 7.550781 2.308594 7.550781 0.566406 C 7.550781 0.160156 7.707031 0.00390625 8.109375 0 C 8.238281 0 8.367188 -0.00390625 8.496094 0.00390625 C 8.773438 0.015625 8.945312 0.1875 8.945312 0.460938 C 8.949219 1.949219 8.949219 3.433594 8.945312 4.921875 C 8.945312 5.394531 8.921875 5.871094 8.917969 6.34375 C 8.917969 6.550781 8.847656 6.699219 8.671875 6.8125 C 8.621094 6.84375 8.585938 6.941406 8.585938 7.003906 C 8.582031 8.476562 8.582031 9.945312 8.582031 11.417969 C 8.582031 11.875 8.585938 12.335938 8.578125 12.796875 C 8.578125 12.9375 8.632812 12.976562 8.765625 12.984375 C 9.480469 13.03125 10.199219 13.039062 10.894531 13.226562 C 11.039062 13.265625 11.179688 13.320312 11.308594 13.390625 C 11.363281 13.417969 11.421875 13.527344 11.40625 13.574219 C 11.371094 13.667969 11.289062 13.714844 11.160156 13.679688 C 10.882812 13.597656 10.597656 13.519531 10.308594 13.480469 C 9.898438 13.421875 9.480469 13.410156 9.066406 13.351562 C 8.269531 13.246094 7.476562 13.328125 6.6875 13.402344 C 6.308594 13.4375 5.9375 13.554688 5.570312 13.648438 C 5.445312 13.679688 5.367188 13.636719 5.339844 13.546875 C 5.324219 13.496094 5.382812 13.378906 5.429688 13.363281 C 5.734375 13.261719 6.035156 13.148438 6.347656 13.101562 C 6.773438 13.03125 7.207031 13.015625 7.636719 12.972656 C 7.707031 12.96875 7.773438 12.953125 7.855469 12.941406 Z M 8.3125 0.8125 C 8.433594 0.808594 8.53125 0.714844 8.53125 0.601562 C 8.53125 0.488281 8.414062 0.375 8.300781 0.378906 C 8.195312 0.382812 8.082031 0.496094 8.082031 0.597656 C 8.078125 0.710938 8.191406 0.816406 8.3125 0.8125 Z M 8.3125 0.8125 "/>
<path fill-rule="nonzero" fill="rgb(30%,30%,30%)" fill-opacity="1" d="M 11.414062 13.746094 C 11.472656 14.421875 11.28125 15.039062 10.828125 15.5625 C 10.492188 15.945312 10.074219 16.21875 9.605469 16.410156 C 8.984375 16.660156 8.34375 16.703125 7.699219 16.585938 C 6.957031 16.445312 6.300781 16.105469 5.847656 15.484375 C 5.484375 14.992188 5.273438 14.425781 5.320312 13.796875 C 5.320312 13.769531 5.324219 13.742188 5.328125 13.714844 C 5.328125 13.707031 5.339844 13.699219 5.351562 13.683594 C 5.667969 13.894531 6.03125 13.945312 6.394531 14 C 7.332031 14.144531 8.277344 14.132812 9.226562 14.113281 C 9.726562 14.105469 10.21875 14.070312 10.703125 13.960938 C 10.9375 13.910156 11.167969 13.824219 11.414062 13.746094 Z M 11.414062 13.746094 "/>
<path fill-rule="nonzero" fill="rgb(30%,30%,30%)" fill-opacity="1" d="M 10.703125 13.960938 C 10.21875 14.070312 9.726562 14.105469 9.226562 14.113281 C 8.277344 14.132812 7.332031 14.144531 6.394531 14 C 6.03125 13.945312 5.667969 13.894531 5.351562 13.683594 C 5.339844 13.699219 5.328125 13.707031 5.328125 13.714844 C 5.324219 13.742188 5.320312 13.769531 5.320312 13.796875 C 5.273438 14.425781 5.484375 14.992188 5.847656 15.484375 C 6.300781 16.105469 6.957031 16.445312 7.699219 16.585938 C 8.34375 16.703125 8.984375 16.660156 9.605469 16.410156 C 10.074219 16.21875 10.492188 15.945312 10.828125 15.5625 C 11.28125 15.039062 11.472656 14.421875 11.414062 13.746094 C 11.167969 13.824219 10.9375 13.910156 10.703125 13.960938 Z M 10.703125 13.960938 "/>
<path fill-rule="nonzero" fill="rgb(30%,30%,30%)" fill-opacity="1" d="M 4.003906 13.351562 C 3.976562 13.03125 3.914062 12.703125 3.808594 12.398438 C 3.574219 11.734375 3.089844 11.269531 2.503906 10.894531 C 2.445312 10.859375 2.390625 10.765625 2.390625 10.695312 C 2.382812 9.464844 2.386719 8.234375 2.390625 7.007812 C 2.390625 6.949219 2.4375 6.867188 2.488281 6.835938 C 2.640625 6.738281 2.71875 6.605469 2.722656 6.425781 C 2.734375 5.925781 2.753906 5.421875 2.757812 4.921875 C 2.761719 4.21875 2.757812 3.519531 2.757812 2.820312 C 2.757812 2.042969 2.757812 1.269531 2.757812 0.492188 C 2.753906 0.175781 2.585938 0.0078125 2.269531 0 C 2.164062 0 2.058594 0 1.949219 0 C 1.5 0 1.355469 0.144531 1.355469 0.597656 C 1.355469 2.429688 1.355469 4.265625 1.355469 6.101562 C 1.355469 6.167969 1.355469 6.238281 1.34375 6.308594 C 1.296875 6.539062 1.367188 6.699219 1.558594 6.832031 C 1.605469 6.863281 1.648438 6.933594 1.652344 6.988281 C 1.664062 7.625 1.667969 8.261719 1.667969 8.894531 C 1.667969 9.46875 1.65625 10.039062 1.660156 10.613281 C 1.660156 10.75 1.613281 10.820312 1.5 10.886719 C 0.691406 11.347656 0.242188 12.0625 0.0742188 12.964844 C -0.0585938 13.691406 -0.00390625 14.40625 0.167969 15.125 C 0.300781 15.6875 0.558594 16.171875 0.976562 16.5625 C 1.390625 16.953125 1.882812 17.113281 2.445312 16.914062 C 2.910156 16.746094 3.226562 16.40625 3.46875 15.996094 C 3.953125 15.175781 4.078125 14.28125 4.003906 13.351562 Z M 2.015625 0.808594 C 1.882812 0.808594 1.804688 0.746094 1.789062 0.613281 C 1.777344 0.496094 1.882812 0.390625 2.003906 0.382812 C 2.125 0.378906 2.234375 0.484375 2.234375 0.601562 C 2.234375 0.714844 2.136719 0.808594 2.015625 0.808594 Z M 2.015625 0.808594 "/>
<path fill-rule="nonzero" fill="rgb(30%,30%,30%)" fill-opacity="1" d="M 11.308594 13.390625 C 11.179688 13.320312 11.039062 13.265625 10.894531 13.226562 C 10.199219 13.039062 9.480469 13.03125 8.765625 12.984375 C 8.632812 12.976562 8.578125 12.9375 8.578125 12.796875 C 8.585938 12.335938 8.582031 11.875 8.582031 11.417969 C 8.582031 9.945312 8.582031 8.476562 8.585938 7.003906 C 8.585938 6.941406 8.621094 6.84375 8.671875 6.8125 C 8.847656 6.699219 8.917969 6.550781 8.917969 6.34375 C 8.921875 5.871094 8.945312 5.394531 8.945312 4.921875 C 8.949219 3.433594 8.949219 1.949219 8.945312 0.460938 C 8.945312 0.1875 8.773438 0.015625 8.496094 0.00390625 C 8.367188 -0.00390625 8.238281 0 8.109375 0 C 7.707031 0.00390625 7.550781 0.160156 7.550781 0.566406 C 7.550781 2.308594 7.550781 4.050781 7.546875 5.796875 C 7.546875 5.992188 7.523438 6.1875 7.519531 6.386719 C 7.519531 6.546875 7.574219 6.695312 7.726562 6.777344 C 7.832031 6.832031 7.859375 6.902344 7.859375 7.015625 C 7.855469 8.933594 7.855469 10.855469 7.855469 12.773438 C 7.855469 12.828125 7.855469 12.878906 7.855469 12.941406 C 7.773438 12.953125 7.707031 12.96875 7.636719 12.972656 C 7.207031 13.015625 6.773438 13.03125 6.347656 13.101562 C 6.035156 13.148438 5.734375 13.261719 5.429688 13.363281 C 5.382812 13.378906 5.324219 13.496094 5.339844 13.546875 C 5.367188 13.636719 5.445312 13.679688 5.570312 13.648438 C 5.9375 13.554688 6.308594 13.4375 6.6875 13.402344 C 7.476562 13.328125 8.269531 13.246094 9.066406 13.351562 C 9.480469 13.410156 9.898438 13.421875 10.308594 13.480469 C 10.597656 13.519531 10.882812 13.597656 11.160156 13.679688 C 11.289062 13.714844 11.371094 13.667969 11.40625 13.574219 C 11.421875 13.527344 11.363281 13.417969 11.308594 13.390625 Z M 8.3125 0.8125 C 8.191406 0.816406 8.078125 0.710938 8.082031 0.597656 C 8.082031 0.496094 8.195312 0.382812 8.300781 0.378906 C 8.414062 0.375 8.53125 0.488281 8.53125 0.601562 C 8.53125 0.714844 8.433594 0.808594 8.3125 0.8125 Z M 8.3125 0.8125 "/>
<path fill-rule="nonzero" fill="rgb(30%,30%,30%)" fill-opacity="1" d="M 16.789062 13.328125 C 16.78125 13.015625 16.769531 12.703125 16.726562 12.398438 C 16.691406 12.160156 16.636719 11.925781 16.546875 11.703125 C 16.339844 11.183594 15.976562 10.835938 15.511719 10.542969 C 15.410156 10.480469 15.308594 10.414062 15.234375 10.320312 C 15.082031 10.136719 15.136719 9.859375 15.140625 9.640625 C 15.144531 9.347656 15.144531 9.054688 15.148438 8.765625 C 15.152344 8.179688 15.15625 7.597656 15.160156 7.015625 C 15.164062 7.003906 15.160156 6.992188 15.164062 6.980469 C 15.183594 6.945312 15.195312 6.890625 15.226562 6.871094 C 15.449219 6.75 15.5 6.558594 15.5 6.324219 C 15.496094 4.476562 15.496094 2.632812 15.5 0.789062 C 15.5 0.714844 15.5 0.636719 15.515625 0.566406 C 15.578125 0.277344 15.394531 0.03125 15.09375 0.015625 C 14.921875 0.0078125 14.75 0.0117188 14.578125 0.015625 C 14.316406 0.0234375 14.144531 0.199219 14.136719 0.464844 C 14.125 1 14.109375 1.53125 14.105469 2.066406 C 14.097656 2.703125 14.101562 3.339844 14.101562 3.976562 C 14.101562 4.789062 14.105469 5.601562 14.101562 6.414062 C 14.101562 6.585938 14.152344 6.734375 14.304688 6.820312 C 14.402344 6.875 14.433594 6.9375 14.433594 7.046875 C 14.425781 7.59375 14.425781 8.144531 14.425781 8.691406 C 14.425781 8.96875 14.425781 9.242188 14.425781 9.519531 C 14.425781 9.855469 14.472656 10.203125 14.226562 10.472656 C 14.121094 10.585938 13.992188 10.675781 13.871094 10.769531 C 13.558594 11 13.257812 11.269531 13.101562 11.625 C 12.988281 11.886719 12.957031 12.179688 12.929688 12.464844 C 12.800781 13.800781 12.761719 15.113281 12.96875 16.445312 C 13.015625 16.761719 13.195312 16.976562 13.472656 16.980469 C 14.371094 16.992188 15.273438 16.992188 16.171875 16.980469 C 16.484375 16.976562 16.597656 16.71875 16.648438 16.460938 C 16.71875 16.117188 16.765625 15.773438 16.789062 15.425781 C 16.839844 14.726562 16.8125 14.027344 16.789062 13.328125 Z M 13.753906 13.988281 C 13.753906 14.671875 13.75 15.351562 13.75 16.035156 C 13.75 16.078125 13.78125 16.292969 13.644531 16.292969 C 13.480469 16.292969 13.5 16.082031 13.5 16.039062 C 13.5 15.601562 13.5 15.164062 13.5 14.726562 C 13.5 14.285156 13.5 13.84375 13.5 13.398438 C 13.5 13.390625 13.5 13.378906 13.5 13.367188 C 13.503906 13.28125 13.496094 13.179688 13.617188 13.175781 C 13.738281 13.171875 13.753906 13.265625 13.753906 13.363281 C 13.75 13.570312 13.753906 13.78125 13.753906 13.988281 Z M 14.542969 13.988281 C 14.542969 14.671875 14.542969 15.351562 14.542969 16.035156 C 14.542969 16.078125 14.574219 16.292969 14.4375 16.292969 C 14.269531 16.292969 14.292969 16.082031 14.292969 16.039062 C 14.292969 15.601562 14.292969 15.164062 14.292969 14.726562 C 14.292969 14.285156 14.292969 13.84375 14.292969 13.398438 C 14.292969 13.390625 14.292969 13.378906 14.292969 13.367188 C 14.292969 13.28125 14.285156 13.179688 14.40625 13.175781 C 14.53125 13.171875 14.546875 13.265625 14.546875 13.363281 C 14.542969 13.570312 14.542969 13.78125 14.542969 13.988281 Z M 14.832031 0.738281 C 14.710938 0.734375 14.613281 0.648438 14.609375 0.53125 C 14.605469 0.421875 14.71875 0.308594 14.832031 0.308594 C 14.9375 0.308594 15.050781 0.414062 15.054688 0.515625 C 15.058594 0.632812 14.953125 0.738281 14.832031 0.738281 Z M 15.339844 13.988281 C 15.339844 14.671875 15.339844 15.351562 15.335938 16.035156 C 15.335938 16.078125 15.367188 16.292969 15.234375 16.292969 C 15.066406 16.292969 15.089844 16.082031 15.089844 16.039062 C 15.085938 15.601562 15.089844 15.164062 15.085938 14.726562 C 15.085938 14.285156 15.085938 13.84375 15.085938 13.398438 C 15.085938 13.390625 15.085938 13.378906 15.085938 13.367188 C 15.089844 13.28125 15.082031 13.179688 15.203125 13.175781 C 15.324219 13.171875 15.339844 13.265625 15.339844 13.363281 C 15.339844 13.570312 15.339844 13.78125 15.339844 13.988281 Z M 16.132812 13.988281 C 16.132812 14.671875 16.132812 15.351562 16.132812 16.035156 C 16.132812 16.078125 16.164062 16.292969 16.027344 16.292969 C 15.863281 16.292969 15.882812 16.082031 15.882812 16.039062 C 15.882812 15.601562 15.882812 15.164062 15.882812 14.726562 C 15.882812 14.285156 15.882812 13.84375 15.882812 13.398438 C 15.882812 13.390625 15.882812 13.378906 15.882812 13.367188 C 15.882812 13.28125 15.875 13.179688 15.996094 13.175781 C 16.121094 13.171875 16.136719 13.265625 16.136719 13.363281 C 16.132812 13.570312 16.132812 13.78125 16.132812 13.988281 Z M 16.132812 13.988281 "/>
</g>
</svg>
