<?xml version="1.0" encoding="UTF-8" standalone="no"?>
<!-- Created with Inkscape (http://www.inkscape.org/) -->

<svg
   xmlns:dc="http://purl.org/dc/elements/1.1/"
   xmlns:cc="http://creativecommons.org/ns#"
   xmlns:rdf="http://www.w3.org/1999/02/22-rdf-syntax-ns#"
   xmlns:svg="http://www.w3.org/2000/svg"
   xmlns="http://www.w3.org/2000/svg"
   xmlns:xlink="http://www.w3.org/1999/xlink"
   xmlns:sodipodi="http://sodipodi.sourceforge.net/DTD/sodipodi-0.dtd"
   xmlns:inkscape="http://www.inkscape.org/namespaces/inkscape"
   width="30px"
   height="30px"
   version="1.1"
   id="svg8"
   inkscape:version="0.92.4 5da689c313, 2019-01-14"
   sodipodi:docname="container.svg">
  <defs
     id="defs2" />
  <sodipodi:namedview
     id="base"
     pagecolor="#ffffff"
     bordercolor="#666666"
     borderopacity="1.0"
     inkscape:pageopacity="0.0"
     inkscape:pageshadow="2"
     inkscape:zoom="13.049334"
     inkscape:cx="18.679046"
     inkscape:cy="12.165829"
     inkscape:document-units="px"
     inkscape:current-layer="layer1"
     showgrid="false"
     inkscape:snap-page="false"
     units="px"
     inkscape:window-width="1884"
     inkscape:window-height="1061"
     inkscape:window-x="0"
     inkscape:window-y="0"
     inkscape:window-maximized="1"
     fit-margin-top="0"
     fit-margin-left="0"
     fit-margin-right="0"
     fit-margin-bottom="0" />
  <metadata
     id="metadata5">
    <rdf:RDF>
      <cc:Work
         rdf:about="">
        <dc:format>image/svg+xml</dc:format>
        <dc:type
           rdf:resource="http://purl.org/dc/dcmitype/StillImage" />
        <dc:title></dc:title>
      </cc:Work>
    </rdf:RDF>
  </metadata>
    <circle
       style="color:#000000;clip-rule:nonzero;display:inline;overflow:visible;visibility:visible;opacity:1;isolation:auto;mix-blend-mode:normal;color-interpolation:sRGB;color-interpolation-filters:linearRGB;solid-color:#000000;solid-opacity:1;vector-effect:none;fill:#808080;fill-opacity:1;fill-rule:evenodd;stroke:#ffffff;stroke-width:1;stroke-linecap:butt;stroke-linejoin:miter;stroke-miterlimit:4;stroke-dasharray:none;stroke-dashoffset:0;stroke-opacity:1;marker:none;color-rendering:auto;image-rendering:auto;shape-rendering:auto;text-rendering:auto;enable-background:accumulate"
       id="path815"
       cx="15"
       cy="15"
       r="14.5" />
<g transform="translate(6.5,7.0)"><path fill-rule="nonzero" fill="#FFFFFF" fill-opacity="1" d="M 16.867188 3.472656 C 16.609375 2.855469 15.3125 2.921875 15.3125 2.921875 L 16.4375 2.449219 L 16.222656 1.9375 L 15.300781 2.324219 C 15.300781 2.324219 16.011719 1.429688 15.707031 0.707031 C 15.402344 -0.0117188 14.804688 0 14.804688 0 L 12.449219 0.992188 L 14.535156 1.078125 L 14.363281 0.667969 C 14.363281 0.667969 15.019531 0.511719 15.191406 0.921875 C 15.367188 1.332031 15.273438 1.972656 14.496094 2.421875 C 13.722656 2.867188 12.933594 3.289062 12.933594 3.289062 L 12.890625 3.304688 C 12.691406 3.296875 12.496094 3.328125 12.3125 3.402344 C 12.125 3.476562 11.996094 3.613281 11.941406 3.761719 C 11.898438 3.742188 11.855469 3.726562 11.808594 3.71875 C 11.667969 3.695312 11.523438 3.71875 11.394531 3.78125 C 11.363281 3.796875 11.332031 3.808594 11.296875 3.824219 C 11.238281 3.847656 11.175781 3.875 11.109375 3.90625 C 10.347656 3.632812 8.128906 3.003906 5.421875 3.921875 C 3.25 4.65625 1.683594 6.960938 1.492188 8.183594 C 1.292969 8.121094 -0.261719 8.695312 0.0390625 9.347656 L 0.0898438 9.433594 C 0.457031 9.992188 1.914062 9.085938 1.929688 9.0625 C 2.566406 9.378906 3.808594 9.207031 5.472656 8.628906 C 5.777344 8.550781 6.082031 8.453125 6.378906 8.339844 C 6.382812 8.347656 6.386719 8.359375 6.390625 8.367188 C 6.398438 8.386719 6.40625 8.40625 6.414062 8.425781 C 6.46875 8.558594 6.5625 8.667969 6.679688 8.746094 C 6.707031 8.761719 6.730469 8.773438 6.757812 8.785156 C 6.679688 8.929688 6.667969 9.125 6.738281 9.320312 C 6.800781 9.46875 6.882812 9.605469 6.992188 9.726562 L 8.703125 14.15625 C 8.703125 14.15625 8.789062 15.421875 8.15625 15.640625 C 7.527344 15.859375 7.308594 15.226562 7.308594 15.226562 L 7.730469 15.082031 L 6.164062 13.625 L 6.964844 15.933594 C 6.964844 15.933594 7.605469 16.417969 8.445312 16.128906 C 9.074219 15.910156 9.09375 14.609375 9.09375 14.609375 L 9.496094 15.765625 L 10.019531 15.582031 L 9.691406 14.636719 C 9.691406 14.636719 10.535156 15.402344 11.277344 15.144531 C 12.015625 14.890625 12.109375 14.046875 12.109375 14.046875 L 11.207031 11.878906 L 10.984375 13.953125 L 11.402344 13.808594 C 11.402344 13.808594 11.515625 14.476562 11.097656 14.621094 C 10.675781 14.765625 10.042969 14.632812 9.648438 13.828125 C 9.46875 13.46875 7.71875 9.617188 7.71875 9.617188 L 7.703125 9.570312 C 7.71875 9.371094 7.695312 9.175781 7.632812 8.988281 C 7.5625 8.800781 7.433594 8.664062 7.285156 8.601562 C 7.308594 8.5625 7.324219 8.515625 7.335938 8.472656 C 7.363281 8.332031 7.347656 8.183594 7.292969 8.054688 C 7.285156 8.039062 7.277344 8.023438 7.273438 8.007812 C 7.269531 7.992188 7.261719 7.976562 7.257812 7.964844 C 8.441406 7.40625 10.046875 6.421875 11.574219 4.75 C 11.617188 4.699219 11.695312 4.695312 11.746094 4.667969 C 11.765625 4.660156 11.785156 4.648438 11.800781 4.640625 C 11.929688 4.582031 12.039062 4.484375 12.109375 4.359375 C 12.125 4.335938 12.136719 4.308594 12.148438 4.28125 C 12.292969 4.355469 12.488281 4.359375 12.679688 4.277344 C 12.828125 4.210938 12.960938 4.121094 13.078125 4.007812 L 14.886719 3.34375 C 14.886719 3.34375 16.140625 3.175781 16.398438 3.789062 C 16.65625 4.40625 16.042969 4.664062 16.042969 4.664062 L 15.871094 4.253906 L 14.519531 5.90625 L 16.769531 4.960938 C 16.769531 4.960938 17.214844 4.292969 16.867188 3.472656 Z M 1.117188 9.136719 C 0.753906 9.304688 0.417969 9.34375 0.359375 9.222656 C 0.304688 9.101562 0.550781 8.867188 0.914062 8.699219 C 1.273438 8.53125 1.613281 8.492188 1.667969 8.613281 C 1.726562 8.730469 1.476562 8.964844 1.117188 9.136719 Z M 3.3125 8.117188 C 3.011719 8.242188 2.671875 8.117188 2.550781 7.835938 C 2.433594 7.554688 2.582031 7.222656 2.882812 7.097656 C 3.183594 6.96875 3.527344 7.09375 3.644531 7.375 C 3.761719 7.660156 3.613281 7.988281 3.3125 8.117188 Z M 7.347656 9.117188 C 7.417969 9.300781 7.425781 9.578125 7.394531 9.699219 C 7.292969 9.625 7.121094 9.410156 7.050781 9.226562 C 6.988281 9.054688 7.035156 8.910156 7.09375 8.886719 C 7.152344 8.863281 7.285156 8.945312 7.347656 9.117188 Z M 12.574219 3.96875 C 12.40625 4.042969 12.257812 4 12.234375 3.941406 C 12.207031 3.882812 12.285156 3.75 12.453125 3.679688 C 12.632812 3.601562 12.910156 3.582031 13.03125 3.605469 C 12.960938 3.710938 12.757812 3.894531 12.574219 3.96875 Z M 12.574219 3.96875 "/>
</g>
</svg>
