<?xml version="1.0" encoding="UTF-8"?>
<svg xmlns="http://www.w3.org/2000/svg" xmlns:xlink="http://www.w3.org/1999/xlink" width="11" height="8.854484" viewBox="0 0 11 8.854484">
<path fill-rule="nonzero" fill="rgb(30%,30%,30%)" fill-opacity="1" d="M 0.0117188 6.542969 L 1.308594 2.882812 C 1.339844 2.792969 1.292969 2.691406 1.203125 2.65625 C 1.007812 2.585938 0.878906 2.398438 0.878906 2.191406 L 0.878906 0.675781 C 0.878906 0.304688 1.179688 0 1.554688 0 L 9.671875 0 C 10.402344 0 10.292969 0 10.292969 0.449219 L 10.570312 0.449219 L 10.570312 1.34375 L 10.308594 1.34375 C 10.292969 1.792969 10.292969 1.792969 9.671875 1.792969 L 5.9375 1.792969 C 5.882812 1.792969 5.832031 1.816406 5.796875 1.859375 L 5.082031 2.730469 C 5.046875 2.773438 4.96875 3.027344 5.023438 3.25 C 5.082031 3.472656 5.304688 3.867188 5.304688 3.867188 C 5.304688 3.867188 4.867188 3.789062 4.667969 3.386719 C 4.644531 3.339844 4.628906 3.289062 4.625 3.234375 L 4.574219 2.824219 C 4.527344 2.753906 4.4375 2.726562 4.359375 2.757812 C 4.308594 2.78125 4.269531 2.824219 4.253906 2.875 L 3.863281 4.101562 C 4.394531 4.117188 5.292969 4.140625 5.539062 4.144531 C 5.640625 4.011719 5.8125 3.449219 5.9375 2.910156 L 5.585938 2.914062 L 6.03125 2.242188 L 10.066406 2.242188 L 9.957031 2.859375 L 6.28125 2.90625 C 5.933594 4.480469 5.699219 4.480469 5.585938 4.480469 C 5.414062 4.480469 4.304688 4.449219 3.757812 4.433594 L 3.046875 6.65625 C 3.023438 6.730469 2.953125 6.78125 2.878906 6.78125 L 0.179688 6.78125 C 0.121094 6.78125 0.0664062 6.75 0.03125 6.703125 C 0 6.65625 -0.0078125 6.597656 0.0117188 6.542969 Z M 11 6.378906 L 10.714844 6.378906 C 10.667969 7.507812 9.757812 8.414062 8.632812 8.460938 L 8.632812 8.855469 L 8.417969 8.855469 L 8.417969 8.460938 C 7.304688 8.398438 6.410156 7.496094 6.363281 6.378906 L 6.050781 6.378906 L 6.050781 6.273438 L 6.359375 6.273438 C 6.367188 5.117188 7.277344 4.175781 8.417969 4.109375 L 8.417969 3.796875 L 8.632812 3.796875 L 8.632812 4.109375 C 9.785156 4.160156 10.710938 5.109375 10.71875 6.273438 L 11 6.273438 Z M 8.632812 4.824219 C 9.398438 4.875 9.996094 5.503906 10.003906 6.273438 L 10.476562 6.273438 C 10.46875 5.242188 9.652344 4.402344 8.632812 4.351562 Z M 6.601562 6.273438 L 7.074219 6.273438 C 7.082031 5.515625 7.664062 4.886719 8.417969 4.824219 L 8.417969 4.355469 C 7.410156 4.417969 6.609375 5.25 6.601562 6.273438 Z M 8.417969 7.746094 C 7.695312 7.6875 7.125 7.105469 7.078125 6.378906 L 6.605469 6.378906 C 6.652344 7.363281 7.4375 8.15625 8.417969 8.21875 Z M 9.429688 6.285156 C 9.429688 5.792969 9.03125 5.394531 8.539062 5.394531 C 8.046875 5.394531 7.648438 5.792969 7.648438 6.285156 C 7.648438 6.777344 8.046875 7.175781 8.539062 7.175781 C 9.03125 7.175781 9.429688 6.777344 9.429688 6.285156 Z M 10.472656 6.378906 L 10 6.378906 C 9.953125 7.117188 9.367188 7.703125 8.632812 7.75 L 8.632812 8.21875 C 9.625 8.171875 10.425781 7.375 10.472656 6.378906 Z M 8.539062 5.679688 C 8.21875 5.679688 7.960938 5.941406 7.960938 6.257812 C 7.960938 6.578125 8.21875 6.835938 8.539062 6.835938 C 8.859375 6.835938 9.117188 6.578125 9.117188 6.257812 C 9.117188 5.941406 8.859375 5.679688 8.539062 5.679688 Z M 8.539062 5.679688 "/>
</svg>
