<?xml version="1.0" encoding="UTF-8" standalone="no"?>
<!-- Created with Inkscape (http://www.inkscape.org/) -->

<svg
   xmlns:dc="http://purl.org/dc/elements/1.1/"
   xmlns:cc="http://creativecommons.org/ns#"
   xmlns:rdf="http://www.w3.org/1999/02/22-rdf-syntax-ns#"
   xmlns:svg="http://www.w3.org/2000/svg"
   xmlns="http://www.w3.org/2000/svg"
   xmlns:xlink="http://www.w3.org/1999/xlink"
   xmlns:sodipodi="http://sodipodi.sourceforge.net/DTD/sodipodi-0.dtd"
   xmlns:inkscape="http://www.inkscape.org/namespaces/inkscape"
   width="30px"
   height="30px"
   version="1.1"
   id="svg8"
   inkscape:version="0.92.4 5da689c313, 2019-01-14"
   sodipodi:docname="container.svg">
  <defs
     id="defs2" />
  <sodipodi:namedview
     id="base"
     pagecolor="#ffffff"
     bordercolor="#666666"
     borderopacity="1.0"
     inkscape:pageopacity="0.0"
     inkscape:pageshadow="2"
     inkscape:zoom="13.049334"
     inkscape:cx="18.679046"
     inkscape:cy="12.165829"
     inkscape:document-units="px"
     inkscape:current-layer="layer1"
     showgrid="false"
     inkscape:snap-page="false"
     units="px"
     inkscape:window-width="1884"
     inkscape:window-height="1061"
     inkscape:window-x="0"
     inkscape:window-y="0"
     inkscape:window-maximized="1"
     fit-margin-top="0"
     fit-margin-left="0"
     fit-margin-right="0"
     fit-margin-bottom="0" />
  <metadata
     id="metadata5">
    <rdf:RDF>
      <cc:Work
         rdf:about="">
        <dc:format>image/svg+xml</dc:format>
        <dc:type
           rdf:resource="http://purl.org/dc/dcmitype/StillImage" />
        <dc:title></dc:title>
      </cc:Work>
    </rdf:RDF>
  </metadata>
    <circle
       style="color:#000000;clip-rule:nonzero;display:inline;overflow:visible;visibility:visible;opacity:1;isolation:auto;mix-blend-mode:normal;color-interpolation:sRGB;color-interpolation-filters:linearRGB;solid-color:#000000;solid-opacity:1;vector-effect:none;fill:#ffffff;fill-opacity:1;fill-rule:evenodd;stroke:#808080;stroke-width:1;stroke-linecap:butt;stroke-linejoin:miter;stroke-miterlimit:4;stroke-dasharray:none;stroke-dashoffset:0;stroke-opacity:1;marker:none;color-rendering:auto;image-rendering:auto;shape-rendering:auto;text-rendering:auto;enable-background:accumulate"
       id="path815"
       cx="15"
       cy="15"
       r="14.5" />
<g transform="translate(8.5,6.5)"><path fill-rule="nonzero" fill="rgb(30%,30%,30%)" fill-opacity="1" d="M 1.792969 10.414062 C 1.792969 10.414062 2.984375 11.554688 5.324219 11.554688 C 5.773438 11.554688 4.328125 12.28125 2.785156 11.597656 C 1.84375 11.179688 1.792969 10.414062 1.792969 10.414062 Z M 1.792969 10.414062 "/>
<path fill-rule="nonzero" fill="rgb(30%,30%,30%)" fill-opacity="1" d="M 7.511719 11.722656 C 7.460938 11.714844 7.460938 11.640625 7.511719 11.632812 L 7.816406 11.582031 C 9.21875 11.355469 9.800781 11.136719 10.792969 10.574219 L 11.039062 10.4375 C 11.039062 10.4375 10.75 11.34375 9.695312 11.640625 C 8.882812 11.867188 7.972656 11.769531 7.511719 11.722656 Z M 7.511719 11.722656 "/>
<path fill-rule="nonzero" fill="rgb(30%,30%,30%)" fill-opacity="1" d="M 4.675781 15.75 C 4.675781 15.75 5.210938 16.488281 5.59375 16.835938 C 5.796875 17.023438 6.765625 17.035156 7.0625 16.945312 C 7.359375 16.855469 7.660156 16.128906 8.105469 15.785156 C 8.105469 15.785156 7.214844 15.339844 6.964844 15.339844 C 6.71875 15.339844 6.320312 15.839844 6.320312 15.839844 C 6.320312 15.839844 6.070312 15.386719 5.871094 15.386719 C 5.671875 15.386719 4.675781 15.75 4.675781 15.75 Z M 4.675781 15.75 "/>
<path fill-rule="nonzero" fill="rgb(30%,30%,30%)" fill-opacity="1" d="M 12.988281 4.4375 C 12.988281 4.4375 12.402344 0.046875 6.730469 0 C 1.960938 -0.0390625 1.265625 3.296875 1.085938 4.4375 C 1.054688 4.648438 0.964844 4.847656 0.824219 5.011719 C 0.519531 5.375 0 6.253906 0 8.085938 C 0 9.550781 0.628906 11.128906 1.027344 11.976562 C 1.050781 12.023438 1.050781 12.074219 1.027344 12.117188 L 0.636719 12.929688 C 0.488281 13.203125 0.199219 13.421875 0.597656 13.925781 C 0.953125 14.371094 1.304688 15 1.34375 15.226562 C 1.371094 15.027344 1.449219 14.496094 1.292969 14.199219 C 1.105469 13.832031 1.066406 13.410156 1.121094 13.007812 C 1.160156 12.734375 1.242188 12.476562 1.285156 12.207031 C 1.324219 11.957031 1.304688 11.707031 1.3125 11.453125 C 1.324219 10.972656 1.359375 10.453125 1.542969 10.003906 C 1.691406 9.636719 3.035156 9.726562 5.671875 8.132812 C 6.613281 7.5625 7.257812 7.183594 7.640625 6.914062 C 7.890625 6.738281 8.339844 6.65625 8.640625 6.738281 L 8.90625 6.808594 L 9.902344 7.425781 C 10.386719 7.726562 10.761719 8.152344 10.972656 8.65625 C 11.308594 9.445312 11.710938 10.667969 11.492188 11.554688 C 11.347656 12.148438 11.445312 13.148438 12.089844 13.515625 C 12.503906 13.746094 12.777344 13.476562 12.917969 13.253906 C 12.960938 13.183594 12.882812 13.105469 12.804688 13.136719 C 12.617188 13.214844 12.363281 13.253906 12.242188 13.011719 C 11.84375 12.238281 12.789062 10.824219 13.085938 8.679688 C 13.535156 5.445312 12.988281 4.4375 12.988281 4.4375 Z M 12.988281 4.4375 "/>
<path fill-rule="nonzero" fill="rgb(30%,30%,30%)" fill-opacity="1" d="M 10.128906 8.832031 C 9.808594 8.820312 9.480469 8.84375 9.175781 8.9375 C 8.953125 9.003906 8.746094 9.097656 8.558594 9.234375 C 8.378906 9.363281 8.1875 9.457031 7.980469 9.546875 C 7.871094 9.59375 7.757812 9.640625 7.632812 9.660156 C 7.632812 9.660156 7.609375 9.625 7.609375 9.625 C 7.765625 9.304688 8.03125 9.003906 8.367188 8.867188 C 8.597656 8.78125 8.835938 8.710938 9.078125 8.679688 C 9.316406 8.648438 9.558594 8.660156 9.796875 8.703125 C 9.910156 8.726562 10.023438 8.757812 10.136719 8.792969 C 10.136719 8.792969 10.128906 8.832031 10.128906 8.832031 Z M 10.128906 8.832031 "/>
<path fill-rule="nonzero" fill="rgb(30%,30%,30%)" fill-opacity="1" d="M 3.179688 8.941406 C 3.503906 8.855469 3.847656 8.8125 4.183594 8.839844 C 4.183594 8.839844 4.269531 8.84375 4.269531 8.84375 L 4.355469 8.855469 C 4.46875 8.871094 4.582031 8.894531 4.695312 8.917969 C 4.777344 8.933594 4.867188 8.957031 4.949219 8.984375 C 5.140625 9.050781 5.308594 9.167969 5.457031 9.304688 C 5.539062 9.382812 5.617188 9.464844 5.683594 9.566406 C 5.683594 9.566406 5.667969 9.597656 5.667969 9.597656 C 5.550781 9.585938 5.4375 9.558594 5.328125 9.523438 C 5.195312 9.484375 5.074219 9.441406 4.949219 9.390625 C 4.804688 9.332031 4.671875 9.25 4.523438 9.191406 C 4.207031 9.070312 3.855469 9 3.511719 8.984375 C 3.40625 8.976562 3.292969 8.980469 3.183594 8.976562 C 3.183594 8.976562 3.179688 8.941406 3.179688 8.941406 Z M 3.179688 8.941406 "/>
</g>
</svg>
