<?xml version="1.0" encoding="UTF-8" standalone="no"?>
<!-- Created with Inkscape (http://www.inkscape.org/) -->

<svg
   xmlns:dc="http://purl.org/dc/elements/1.1/"
   xmlns:cc="http://creativecommons.org/ns#"
   xmlns:rdf="http://www.w3.org/1999/02/22-rdf-syntax-ns#"
   xmlns:svg="http://www.w3.org/2000/svg"
   xmlns="http://www.w3.org/2000/svg"
   xmlns:xlink="http://www.w3.org/1999/xlink"
   xmlns:sodipodi="http://sodipodi.sourceforge.net/DTD/sodipodi-0.dtd"
   xmlns:inkscape="http://www.inkscape.org/namespaces/inkscape"
   width="30px"
   height="30px"
   version="1.1"
   id="svg8"
   inkscape:version="0.92.4 5da689c313, 2019-01-14"
   sodipodi:docname="container.svg">
  <defs
     id="defs2" />
  <sodipodi:namedview
     id="base"
     pagecolor="#ffffff"
     bordercolor="#666666"
     borderopacity="1.0"
     inkscape:pageopacity="0.0"
     inkscape:pageshadow="2"
     inkscape:zoom="13.049334"
     inkscape:cx="18.679046"
     inkscape:cy="12.165829"
     inkscape:document-units="px"
     inkscape:current-layer="layer1"
     showgrid="false"
     inkscape:snap-page="false"
     units="px"
     inkscape:window-width="1884"
     inkscape:window-height="1061"
     inkscape:window-x="0"
     inkscape:window-y="0"
     inkscape:window-maximized="1"
     fit-margin-top="0"
     fit-margin-left="0"
     fit-margin-right="0"
     fit-margin-bottom="0" />
  <metadata
     id="metadata5">
    <rdf:RDF>
      <cc:Work
         rdf:about="">
        <dc:format>image/svg+xml</dc:format>
        <dc:type
           rdf:resource="http://purl.org/dc/dcmitype/StillImage" />
        <dc:title></dc:title>
      </cc:Work>
    </rdf:RDF>
  </metadata>
    <circle
       style="color:#000000;clip-rule:nonzero;display:inline;overflow:visible;visibility:visible;opacity:1;isolation:auto;mix-blend-mode:normal;color-interpolation:sRGB;color-interpolation-filters:linearRGB;solid-color:#000000;solid-opacity:1;vector-effect:none;fill:#808080;fill-opacity:1;fill-rule:evenodd;stroke:#ffffff;stroke-width:1;stroke-linecap:butt;stroke-linejoin:miter;stroke-miterlimit:4;stroke-dasharray:none;stroke-dashoffset:0;stroke-opacity:1;marker:none;color-rendering:auto;image-rendering:auto;shape-rendering:auto;text-rendering:auto;enable-background:accumulate"
       id="path815"
       cx="15"
       cy="15"
       r="14.5" />
<g transform="translate(10.0,6.5)"><path fill-rule="nonzero" fill="#FFFFFF" fill-opacity="1" d="M 7.675781 8.507812 L 5.402344 8.507812 C 5.371094 8.242188 5.179688 8.023438 4.917969 7.96875 L 4.917969 5.65625 C 4.882812 5.621094 4.835938 5.601562 4.785156 5.601562 C 4.738281 5.601562 4.6875 5.621094 4.652344 5.65625 L 4.652344 7.96875 C 4.488281 8.003906 4.34375 8.105469 4.257812 8.25 C 4.167969 8.394531 4.144531 8.570312 4.1875 8.734375 C 4.195312 8.773438 4.210938 8.816406 4.230469 8.851562 L 2.800781 10.28125 L 2.804688 10.316406 C 2.816406 10.441406 2.917969 10.542969 3.042969 10.554688 L 3.078125 10.558594 L 4.507812 9.128906 C 4.546875 9.148438 4.585938 9.164062 4.628906 9.171875 C 5.035156 9.273438 5.363281 8.996094 5.402344 8.640625 L 7.675781 8.640625 C 7.730469 8.605469 7.730469 8.542969 7.675781 8.507812 Z M 7.675781 8.507812 "/>
<path fill-rule="nonzero" fill="#FFFFFF" fill-opacity="1" d="M 9.742188 8.050781 L 9.542969 8.050781 C 9.429688 7.003906 8.972656 6.027344 8.246094 5.265625 C 8.105469 4.625 7.96875 3.980469 7.828125 3.339844 L 7.183594 3.339844 L 7.183594 2.996094 L 7.082031 2.996094 L 7.082031 2.800781 L 7.183594 2.800781 L 7.183594 1.46875 L 7.082031 1.46875 L 7.082031 1.277344 L 7.183594 1.277344 L 7.183594 0.296875 C 7.148438 0.289062 7.117188 0.277344 7.082031 0.269531 L 6.886719 0.222656 C 5.609375 -0.0742188 4.285156 -0.0742188 3.007812 0.222656 C 2.828125 0.261719 2.65625 0.308594 2.480469 0.363281 C 2.449219 0.371094 2.417969 0.382812 2.382812 0.394531 L 2.382812 1.277344 L 2.480469 1.277344 L 2.480469 1.46875 L 2.382812 1.46875 L 2.382812 2.800781 L 2.480469 2.800781 L 2.480469 2.996094 L 2.382812 2.996094 L 2.382812 3.339844 L 1.742188 3.339844 C 1.605469 3.980469 1.464844 4.625 1.328125 5.265625 C -0.457031 7.132812 -0.441406 10.078125 1.367188 11.921875 C 1.492188 12.503906 1.617188 13.082031 1.742188 13.660156 L 2.480469 13.660156 L 2.480469 14.195312 L 2.382812 14.195312 L 2.382812 15.53125 L 2.480469 15.53125 L 2.480469 15.722656 L 2.382812 15.722656 L 2.382812 16.605469 C 2.417969 16.617188 2.449219 16.628906 2.480469 16.636719 L 3.007812 16.777344 C 4.285156 17.074219 5.609375 17.074219 6.886719 16.777344 C 6.953125 16.761719 7.019531 16.746094 7.082031 16.730469 C 7.117188 16.71875 7.148438 16.710938 7.183594 16.703125 L 7.183594 15.722656 L 7.082031 15.722656 L 7.082031 15.53125 L 7.183594 15.53125 L 7.183594 14.195312 L 7.082031 14.195312 L 7.082031 13.660156 L 7.828125 13.660156 C 7.953125 13.082031 8.078125 12.503906 8.203125 11.921875 C 8.957031 11.15625 9.429688 10.160156 9.542969 9.09375 L 9.742188 9.09375 C 9.824219 9.09375 9.894531 9.027344 9.894531 8.941406 L 9.894531 8.207031 C 9.894531 8.121094 9.824219 8.050781 9.742188 8.050781 Z M 4.917969 12.332031 L 4.917969 11.75 C 4.84375 11.675781 4.726562 11.675781 4.652344 11.75 L 4.652344 12.332031 C 2.679688 12.265625 1.09375 10.679688 1.027344 8.707031 L 1.546875 8.707031 C 1.582031 8.671875 1.601562 8.625 1.601562 8.574219 C 1.601562 8.523438 1.582031 8.476562 1.546875 8.441406 L 1.027344 8.441406 C 1.09375 6.46875 2.679688 4.882812 4.652344 4.8125 L 4.652344 5.359375 C 4.726562 5.429688 4.84375 5.429688 4.917969 5.359375 L 4.917969 4.8125 C 6.890625 4.882812 8.476562 6.46875 8.546875 8.441406 L 8.039062 8.441406 C 8.003906 8.476562 7.984375 8.523438 7.984375 8.574219 C 7.984375 8.625 8.003906 8.671875 8.039062 8.707031 L 8.546875 8.707031 C 8.476562 10.679688 6.890625 12.265625 4.917969 12.332031 Z M 4.917969 12.332031 "/>
</g>
</svg>
