<?xml version="1.0" encoding="UTF-8"?>
<svg xmlns="http://www.w3.org/2000/svg" xmlns:xlink="http://www.w3.org/1999/xlink" width="8.456943" height="11" viewBox="0 0 8.456943 11">
<path fill-rule="nonzero" fill="rgb(30%,30%,30%)" fill-opacity="1" d="M 8.128906 3.019531 L 6.351562 3.019531 C 6.195312 1.082031 5.445312 0.0195312 4.195312 0 C 3.753906 -0.0078125 3.359375 0.15625 3.03125 0.476562 C 2.515625 0.984375 2.191406 1.871094 2.089844 3.019531 L 0.308594 3.019531 L 0 10.691406 C -0.00390625 10.769531 0.0273438 10.851562 0.0820312 10.910156 C 0.140625 10.96875 0.21875 11 0.296875 11 L 8.160156 10.984375 C 8.242188 10.984375 8.316406 10.949219 8.375 10.890625 C 8.429688 10.832031 8.460938 10.753906 8.457031 10.671875 Z M 3.332031 0.785156 C 3.574219 0.542969 3.867188 0.425781 4.191406 0.429688 C 4.910156 0.441406 5.757812 0.921875 5.921875 3.019531 L 2.523438 3.019531 C 2.617188 2.003906 2.902344 1.207031 3.332031 0.785156 Z M 2.253906 4.363281 C 2.015625 4.34375 1.820312 4.167969 1.777344 3.933594 C 1.734375 3.699219 1.851562 3.464844 2.070312 3.363281 C 2.0625 3.507812 2.058594 3.652344 2.058594 3.800781 C 2.058594 3.910156 2.140625 4.007812 2.25 4.019531 C 2.308594 4.027344 2.371094 4.007812 2.417969 3.964844 C 2.460938 3.925781 2.488281 3.867188 2.488281 3.804688 C 2.488281 3.652344 2.492188 3.503906 2.5 3.355469 C 2.734375 3.457031 2.863281 3.714844 2.804688 3.960938 C 2.742188 4.210938 2.511719 4.378906 2.253906 4.363281 Z M 6.121094 4.363281 C 5.878906 4.34375 5.683594 4.167969 5.640625 3.929688 C 5.597656 3.695312 5.722656 3.457031 5.941406 3.359375 C 5.949219 3.5 5.953125 3.644531 5.953125 3.800781 C 5.953125 3.910156 6.03125 4.007812 6.140625 4.019531 C 6.203125 4.027344 6.261719 4.007812 6.308594 3.964844 C 6.355469 3.925781 6.382812 3.867188 6.382812 3.804688 C 6.382812 3.652344 6.378906 3.503906 6.371094 3.359375 C 6.605469 3.464844 6.730469 3.71875 6.667969 3.964844 C 6.605469 4.214844 6.375 4.378906 6.121094 4.363281 Z M 6.121094 4.363281 "/>
</svg>
