<?xml version="1.0" encoding="UTF-8" standalone="no"?>
<!-- Created with Inkscape (http://www.inkscape.org/) -->

<svg
   xmlns:dc="http://purl.org/dc/elements/1.1/"
   xmlns:cc="http://creativecommons.org/ns#"
   xmlns:rdf="http://www.w3.org/1999/02/22-rdf-syntax-ns#"
   xmlns:svg="http://www.w3.org/2000/svg"
   xmlns="http://www.w3.org/2000/svg"
   xmlns:xlink="http://www.w3.org/1999/xlink"
   xmlns:sodipodi="http://sodipodi.sourceforge.net/DTD/sodipodi-0.dtd"
   xmlns:inkscape="http://www.inkscape.org/namespaces/inkscape"
   width="30px"
   height="30px"
   version="1.1"
   id="svg8"
   inkscape:version="0.92.4 5da689c313, 2019-01-14"
   sodipodi:docname="container.svg">
  <defs
     id="defs2" />
  <sodipodi:namedview
     id="base"
     pagecolor="#ffffff"
     bordercolor="#666666"
     borderopacity="1.0"
     inkscape:pageopacity="0.0"
     inkscape:pageshadow="2"
     inkscape:zoom="13.049334"
     inkscape:cx="18.679046"
     inkscape:cy="12.165829"
     inkscape:document-units="px"
     inkscape:current-layer="layer1"
     showgrid="false"
     inkscape:snap-page="false"
     units="px"
     inkscape:window-width="1884"
     inkscape:window-height="1061"
     inkscape:window-x="0"
     inkscape:window-y="0"
     inkscape:window-maximized="1"
     fit-margin-top="0"
     fit-margin-left="0"
     fit-margin-right="0"
     fit-margin-bottom="0" />
  <metadata
     id="metadata5">
    <rdf:RDF>
      <cc:Work
         rdf:about="">
        <dc:format>image/svg+xml</dc:format>
        <dc:type
           rdf:resource="http://purl.org/dc/dcmitype/StillImage" />
        <dc:title></dc:title>
      </cc:Work>
    </rdf:RDF>
  </metadata>
    <circle
       style="color:#000000;clip-rule:nonzero;display:inline;overflow:visible;visibility:visible;opacity:1;isolation:auto;mix-blend-mode:normal;color-interpolation:sRGB;color-interpolation-filters:linearRGB;solid-color:#000000;solid-opacity:1;vector-effect:none;fill:#ffffff;fill-opacity:1;fill-rule:evenodd;stroke:#808080;stroke-width:1;stroke-linecap:butt;stroke-linejoin:miter;stroke-miterlimit:4;stroke-dasharray:none;stroke-dashoffset:0;stroke-opacity:1;marker:none;color-rendering:auto;image-rendering:auto;shape-rendering:auto;text-rendering:auto;enable-background:accumulate"
       id="path815"
       cx="15"
       cy="15"
       r="14.5" />
<g transform="translate(6.5,8.0)"><path fill-rule="nonzero" fill="rgb(30%,30%,30%)" fill-opacity="1" d="M 15.703125 9.628906 L 15.703125 8.234375 L 14.839844 8.234375 L 14.839844 7.785156 L 15.703125 7.785156 L 15.703125 6.882812 L 14.839844 6.882812 L 14.839844 6.429688 L 15.703125 6.429688 L 15.703125 5.339844 C 15.703125 4.964844 12.882812 4.398438 12.019531 4.285156 C 11.707031 4.246094 11.144531 4.238281 10.550781 4.246094 L 10.550781 1.335938 L 10.402344 1.335938 L 10.402344 1.089844 L 9.875 1.089844 L 9.875 1.335938 L 9.648438 1.335938 L 9.648438 4.269531 C 9.394531 4.277344 9.160156 4.285156 8.957031 4.296875 L 8.058594 0.800781 C 8.21875 0.746094 8.332031 0.59375 8.332031 0.414062 C 8.332031 0.1875 8.148438 0 7.921875 0 L 2.28125 0 C 2.050781 0 1.867188 0.1875 1.867188 0.414062 C 1.867188 0.640625 2.050781 0.828125 2.28125 0.828125 L 2.503906 0.828125 L 2.503906 5.160156 C 1.175781 5.40625 0.371094 6.632812 0.0976562 7.144531 C -0.203125 7.707031 0.738281 7.746094 0.738281 7.746094 C 0.273438 8.417969 0 9.230469 0 10.109375 C 0 12.410156 1.863281 14.277344 4.164062 14.277344 C 6.246094 14.277344 7.96875 12.75 8.277344 10.753906 L 12.324219 10.734375 C 12.171875 11.054688 12.082031 11.414062 12.082031 11.796875 C 12.082031 13.15625 13.183594 14.253906 14.539062 14.253906 C 15.898438 14.253906 17 13.15625 17 11.796875 C 17 10.859375 16.476562 10.042969 15.703125 9.628906 Z M 4.164062 11.621094 C 3.332031 11.621094 2.652344 10.945312 2.652344 10.109375 C 2.652344 9.277344 3.332031 8.597656 4.164062 8.597656 C 5 8.597656 5.679688 9.277344 5.679688 10.109375 C 5.679688 10.945312 5 11.621094 4.164062 11.621094 Z M 3.484375 5.15625 L 3.484375 0.828125 L 7.261719 0.828125 L 8.375 5.15625 C 8.375 5.15625 5.265625 5.144531 3.484375 5.15625 Z M 14.507812 12.605469 C 14.03125 12.605469 13.644531 12.21875 13.644531 11.742188 C 13.644531 11.265625 14.03125 10.878906 14.507812 10.878906 C 14.984375 10.878906 15.371094 11.265625 15.371094 11.742188 C 15.371094 12.21875 14.984375 12.605469 14.507812 12.605469 Z M 14.507812 12.605469 "/>
</g>
</svg>
