<?xml version="1.0" encoding="UTF-8"?>
<svg xmlns="http://www.w3.org/2000/svg" xmlns:xlink="http://www.w3.org/1999/xlink" width="11" height="7.002975" viewBox="0 0 11 7.002975">
<path fill-rule="nonzero" fill="rgb(30%,30%,30%)" fill-opacity="1" d="M 10.890625 4.1875 L 0.109375 4.1875 C 0.0507812 4.1875 0 4.238281 0 4.296875 L 0 6.894531 C 0 6.953125 0.0507812 7.003906 0.109375 7.003906 L 0.445312 7.003906 C 0.503906 7.003906 0.550781 6.953125 0.550781 6.894531 L 0.550781 6.511719 C 0.550781 6.453125 0.601562 6.402344 0.660156 6.402344 L 10.527344 6.402344 C 10.589844 6.402344 10.636719 6.453125 10.636719 6.511719 L 10.636719 6.894531 C 10.636719 6.953125 10.6875 7.003906 10.746094 7.003906 L 10.890625 7.003906 C 10.949219 7.003906 11 6.953125 11 6.894531 L 11 4.296875 C 11 4.238281 10.949219 4.1875 10.890625 4.1875 Z M 10.527344 5.984375 L 0.660156 5.984375 C 0.601562 5.984375 0.550781 5.9375 0.550781 5.875 L 0.550781 4.898438 C 0.550781 4.835938 0.601562 4.789062 0.660156 4.789062 L 10.527344 4.789062 C 10.589844 4.789062 10.636719 4.835938 10.636719 4.898438 L 10.636719 5.875 C 10.636719 5.9375 10.589844 5.984375 10.527344 5.984375 Z M 10.527344 5.984375 "/>
<path fill-rule="nonzero" fill="rgb(30%,30%,30%)" fill-opacity="1" d="M 10.191406 3.738281 L 9.140625 2.507812 C 9.121094 2.488281 9.113281 2.464844 9.113281 2.4375 L 9.113281 0.109375 C 9.113281 0.0507812 9.066406 0 9.003906 0 L 2.003906 0 C 1.945312 0 1.894531 0.0507812 1.894531 0.109375 L 1.894531 2.503906 L 1.917969 2.503906 L 1.070312 3.710938 C 1.046875 3.742188 1.046875 3.789062 1.0625 3.824219 C 1.082031 3.859375 1.121094 3.882812 1.160156 3.882812 L 10.109375 3.917969 C 10.152344 3.917969 10.191406 3.890625 10.207031 3.855469 C 10.226562 3.816406 10.21875 3.769531 10.191406 3.738281 Z M 8.75 2.359375 L 8.339844 2.359375 C 8.441406 2.253906 8.472656 2.101562 8.417969 1.964844 C 8.363281 1.832031 8.230469 1.746094 8.085938 1.746094 L 6.355469 1.746094 C 6.210938 1.746094 6.078125 1.832031 6.023438 1.964844 C 5.96875 2.101562 6 2.253906 6.101562 2.359375 L 5.152344 2.359375 C 5.257812 2.253906 5.289062 2.101562 5.230469 1.964844 C 5.175781 1.832031 5.046875 1.746094 4.898438 1.746094 L 3.167969 1.746094 C 3.023438 1.746094 2.894531 1.832031 2.835938 1.964844 C 2.78125 2.101562 2.8125 2.253906 2.917969 2.359375 L 2.402344 2.359375 L 2.402344 0.472656 L 8.75 0.472656 Z M 8.75 2.359375 "/>
</svg>
