<?xml version="1.0" encoding="UTF-8" standalone="no"?>
<!-- Created with Inkscape (http://www.inkscape.org/) -->

<svg
   xmlns:dc="http://purl.org/dc/elements/1.1/"
   xmlns:cc="http://creativecommons.org/ns#"
   xmlns:rdf="http://www.w3.org/1999/02/22-rdf-syntax-ns#"
   xmlns:svg="http://www.w3.org/2000/svg"
   xmlns="http://www.w3.org/2000/svg"
   xmlns:xlink="http://www.w3.org/1999/xlink"
   xmlns:sodipodi="http://sodipodi.sourceforge.net/DTD/sodipodi-0.dtd"
   xmlns:inkscape="http://www.inkscape.org/namespaces/inkscape"
   width="30px"
   height="30px"
   version="1.1"
   id="svg8"
   inkscape:version="0.92.4 5da689c313, 2019-01-14"
   sodipodi:docname="container.svg">
  <defs
     id="defs2" />
  <sodipodi:namedview
     id="base"
     pagecolor="#ffffff"
     bordercolor="#666666"
     borderopacity="1.0"
     inkscape:pageopacity="0.0"
     inkscape:pageshadow="2"
     inkscape:zoom="13.049334"
     inkscape:cx="18.679046"
     inkscape:cy="12.165829"
     inkscape:document-units="px"
     inkscape:current-layer="layer1"
     showgrid="false"
     inkscape:snap-page="false"
     units="px"
     inkscape:window-width="1884"
     inkscape:window-height="1061"
     inkscape:window-x="0"
     inkscape:window-y="0"
     inkscape:window-maximized="1"
     fit-margin-top="0"
     fit-margin-left="0"
     fit-margin-right="0"
     fit-margin-bottom="0" />
  <metadata
     id="metadata5">
    <rdf:RDF>
      <cc:Work
         rdf:about="">
        <dc:format>image/svg+xml</dc:format>
        <dc:type
           rdf:resource="http://purl.org/dc/dcmitype/StillImage" />
        <dc:title></dc:title>
      </cc:Work>
    </rdf:RDF>
  </metadata>
    <circle
       style="color:#000000;clip-rule:nonzero;display:inline;overflow:visible;visibility:visible;opacity:1;isolation:auto;mix-blend-mode:normal;color-interpolation:sRGB;color-interpolation-filters:linearRGB;solid-color:#000000;solid-opacity:1;vector-effect:none;fill:#ffffff;fill-opacity:1;fill-rule:evenodd;stroke:#808080;stroke-width:1;stroke-linecap:butt;stroke-linejoin:miter;stroke-miterlimit:4;stroke-dasharray:none;stroke-dashoffset:0;stroke-opacity:1;marker:none;color-rendering:auto;image-rendering:auto;shape-rendering:auto;text-rendering:auto;enable-background:accumulate"
       id="path815"
       cx="15"
       cy="15"
       r="14.5" />
<g transform="translate(7.0,6.5)"><path fill-rule="nonzero" fill="rgb(30%,30%,30%)" fill-opacity="1" d="M 14.957031 7.210938 C 14.609375 5.960938 12.144531 4.964844 9 4.789062 C 6.277344 4.636719 1.605469 5.253906 1.0625 7.210938 C 1.355469 7.128906 14.515625 7.085938 14.957031 7.210938 Z M 14.957031 7.210938 "/>
<path fill-rule="nonzero" fill="rgb(30%,30%,30%)" fill-opacity="1" d="M 1.496094 10.855469 C 1.507812 11.347656 1.914062 11.742188 2.40625 11.742188 L 13.613281 11.742188 C 14.105469 11.742188 14.511719 11.347656 14.523438 10.855469 Z M 1.496094 10.855469 "/>
<path fill-rule="nonzero" fill="rgb(30%,30%,30%)" fill-opacity="1" d="M 2.824219 12.0625 C 2.769531 12.636719 3.226562 13.109375 3.777344 13.109375 L 12.242188 13.109375 C 12.792969 13.109375 13.25 12.640625 13.191406 12.0625 Z M 2.824219 12.0625 "/>
<path fill-rule="nonzero" fill="rgb(30%,30%,30%)" fill-opacity="1" d="M 8.8125 4.53125 C 9.15625 3.195312 9.480469 1.839844 9.480469 1.457031 C 9.480469 -0.484375 6.539062 -0.488281 6.539062 1.457031 C 6.539062 1.839844 6.863281 3.195312 7.207031 4.53125 C 7.738281 4.507812 8.269531 4.503906 8.8125 4.53125 Z M 8.8125 4.53125 "/>
<path fill-rule="nonzero" fill="rgb(30%,30%,30%)" fill-opacity="1" d="M 14.515625 7.523438 C 0.457031 7.523438 1.277344 7.449219 0.792969 7.710938 C -0.582031 8.445312 -0.0625 10.535156 1.523438 10.535156 C 15.445312 10.535156 14.558594 10.542969 14.742188 10.515625 C 16.570312 10.238281 16.363281 7.523438 14.515625 7.523438 Z M 14.515625 7.523438 "/>
<path fill-rule="nonzero" fill="rgb(30%,30%,30%)" fill-opacity="1" d="M 8.015625 17 C 8.027344 16.9375 8.027344 16.9375 8.214844 15.886719 L 7.816406 15.886719 C 7.957031 16.6875 7.957031 16.6875 8.015625 17 Z M 8.015625 17 "/>
<path fill-rule="nonzero" fill="rgb(30%,30%,30%)" fill-opacity="1" d="M 5.863281 14.621094 C 5.785156 15.136719 6.191406 15.605469 6.71875 15.605469 L 9.304688 15.605469 C 9.832031 15.605469 10.234375 15.132812 10.15625 14.621094 Z M 5.863281 14.621094 "/>
<path fill-rule="nonzero" fill="rgb(30%,30%,30%)" fill-opacity="1" d="M 4.515625 13.429688 C 4.464844 13.882812 4.824219 14.300781 5.296875 14.300781 L 10.722656 14.300781 C 11.195312 14.300781 11.554688 13.882812 11.503906 13.429688 Z M 4.515625 13.429688 "/>
</g>
</svg>
