<?xml version="1.0" encoding="UTF-8"?>
<svg xmlns="http://www.w3.org/2000/svg" xmlns:xlink="http://www.w3.org/1999/xlink" width="11" height="9.547131" viewBox="0 0 11 9.547131">
<path fill-rule="nonzero" fill="rgb(30%,30%,30%)" fill-opacity="1" d="M 5.597656 1.386719 C 5.597656 2.152344 4.976562 2.773438 4.210938 2.773438 C 3.445312 2.773438 2.824219 2.152344 2.824219 1.386719 C 2.824219 0.621094 3.445312 0 4.210938 0 C 4.976562 0 5.597656 0.621094 5.597656 1.386719 Z M 8.710938 5.136719 C 7.945312 5.136719 7.324219 5.757812 7.324219 6.523438 C 7.324219 7.289062 7.945312 7.910156 8.710938 7.910156 C 9.476562 7.910156 10.097656 7.289062 10.097656 6.523438 C 10.097656 5.757812 9.476562 5.136719 8.710938 5.136719 Z M 10.363281 8.320312 L 8.023438 8.320312 C 8.023438 8.320312 8.675781 8.578125 8.023438 8.320312 C 7.371094 8.0625 6.921875 6.417969 5.871094 6.523438 L 0.507812 6.523438 C 0.226562 6.523438 0 6.75 0 7.03125 L 0 8.308594 C 0 8.589844 0.226562 8.816406 0.507812 8.816406 L 6.65625 8.816406 C 6.683594 8.816406 6.710938 8.828125 6.730469 8.847656 L 7.191406 9.273438 C 7.199219 9.277344 7.203125 9.28125 7.207031 9.285156 C 7.320312 9.445312 7.539062 9.542969 7.714844 9.546875 L 10.386719 9.546875 C 10.554688 9.546875 10.71875 9.476562 10.832031 9.355469 C 10.949219 9.230469 11.007812 9.066406 11 8.894531 C 10.980469 8.570312 10.691406 8.320312 10.363281 8.320312 Z M 7.003906 5.019531 L 5.933594 4.585938 C 5.8125 4.53125 5.496094 4.378906 5.496094 4.378906 C 5.496094 4.378906 3.941406 2.890625 3.625 2.855469 L 3.199219 2.8125 C 3.027344 2.789062 2.671875 2.757812 2.574219 2.78125 C 2.398438 2.804688 2.242188 2.921875 2.179688 3.089844 L 1.421875 5.003906 L 1.359375 5.15625 L 1.363281 5.15625 L 0.976562 6.171875 L 3.253906 6.171875 L 4.320312 4.890625 C 4.359375 4.84375 4.429688 4.835938 4.480469 4.875 L 5.066406 5.34375 C 5.089844 5.363281 5.117188 5.378906 5.148438 5.390625 L 6.527344 5.898438 C 6.789062 6.015625 7.152344 5.964844 7.269531 5.703125 C 7.382812 5.441406 7.261719 5.136719 7.003906 5.019531 Z M 7.003906 5.019531 "/>
</svg>
