<?xml version="1.0" encoding="UTF-8" standalone="no"?>
<!-- Created with Inkscape (http://www.inkscape.org/) -->

<svg
   xmlns:dc="http://purl.org/dc/elements/1.1/"
   xmlns:cc="http://creativecommons.org/ns#"
   xmlns:rdf="http://www.w3.org/1999/02/22-rdf-syntax-ns#"
   xmlns:svg="http://www.w3.org/2000/svg"
   xmlns="http://www.w3.org/2000/svg"
   xmlns:xlink="http://www.w3.org/1999/xlink"
   xmlns:sodipodi="http://sodipodi.sourceforge.net/DTD/sodipodi-0.dtd"
   xmlns:inkscape="http://www.inkscape.org/namespaces/inkscape"
   width="30px"
   height="30px"
   version="1.1"
   id="svg8"
   inkscape:version="0.92.4 5da689c313, 2019-01-14"
   sodipodi:docname="container.svg">
  <defs
     id="defs2" />
  <sodipodi:namedview
     id="base"
     pagecolor="#ffffff"
     bordercolor="#666666"
     borderopacity="1.0"
     inkscape:pageopacity="0.0"
     inkscape:pageshadow="2"
     inkscape:zoom="13.049334"
     inkscape:cx="18.679046"
     inkscape:cy="12.165829"
     inkscape:document-units="px"
     inkscape:current-layer="layer1"
     showgrid="false"
     inkscape:snap-page="false"
     units="px"
     inkscape:window-width="1884"
     inkscape:window-height="1061"
     inkscape:window-x="0"
     inkscape:window-y="0"
     inkscape:window-maximized="1"
     fit-margin-top="0"
     fit-margin-left="0"
     fit-margin-right="0"
     fit-margin-bottom="0" />
  <metadata
     id="metadata5">
    <rdf:RDF>
      <cc:Work
         rdf:about="">
        <dc:format>image/svg+xml</dc:format>
        <dc:type
           rdf:resource="http://purl.org/dc/dcmitype/StillImage" />
        <dc:title></dc:title>
      </cc:Work>
    </rdf:RDF>
  </metadata>
    <circle
       style="color:#000000;clip-rule:nonzero;display:inline;overflow:visible;visibility:visible;opacity:1;isolation:auto;mix-blend-mode:normal;color-interpolation:sRGB;color-interpolation-filters:linearRGB;solid-color:#000000;solid-opacity:1;vector-effect:none;fill:#ffffff;fill-opacity:1;fill-rule:evenodd;stroke:#808080;stroke-width:1;stroke-linecap:butt;stroke-linejoin:miter;stroke-miterlimit:4;stroke-dasharray:none;stroke-dashoffset:0;stroke-opacity:1;marker:none;color-rendering:auto;image-rendering:auto;shape-rendering:auto;text-rendering:auto;enable-background:accumulate"
       id="path815"
       cx="15"
       cy="15"
       r="14.5" />
<g transform="translate(6.5,9.5)"><path fill-rule="nonzero" fill="rgb(30%,30%,30%)" fill-opacity="1" d="M 7.546875 3.695312 L 9.410156 3.695312 L 9.410156 4.449219 L 7.546875 4.449219 Z M 7.546875 3.695312 "/>
<path fill-rule="nonzero" fill="rgb(30%,30%,30%)" fill-opacity="1" d="M 3.777344 3.695312 C 3.660156 3.695312 3.550781 3.75 3.480469 3.839844 L 0.078125 8.769531 C -0.046875 8.933594 -0.0195312 9.171875 0.148438 9.296875 C 0.3125 9.425781 0.546875 9.394531 0.675781 9.230469 L 3.960938 4.449219 L 6.425781 4.449219 L 6.425781 3.695312 Z M 3.777344 3.695312 "/>
<path fill-rule="nonzero" fill="rgb(30%,30%,30%)" fill-opacity="1" d="M 16.921875 8.714844 L 13.3125 3.839844 C 13.238281 3.75 13.128906 3.695312 13.011719 3.695312 L 10.511719 3.695312 L 10.511719 4.449219 L 12.828125 4.449219 L 16.324219 9.175781 C 16.398438 9.273438 16.511719 9.324219 16.625 9.324219 C 16.703125 9.324219 16.785156 9.296875 16.851562 9.242188 C 17.019531 9.117188 17.046875 8.878906 16.921875 8.714844 Z M 16.921875 8.714844 "/>
<path fill-rule="nonzero" fill="rgb(30%,30%,30%)" fill-opacity="1" d="M 7.40625 3.417969 L 9.578125 3.417969 L 9.578125 4.484375 C 9.894531 4.671875 10.1875 4.902344 10.304688 5.046875 L 10.304688 0.363281 C 10.304688 0.164062 10.140625 0 9.941406 0 C 9.742188 0 9.578125 0.164062 9.578125 0.363281 L 9.578125 2.839844 L 7.40625 2.839844 L 7.40625 0.363281 C 7.40625 0.164062 7.246094 0 7.042969 0 L 7.015625 0 C 6.816406 0 6.65625 0.164062 6.65625 0.363281 L 6.65625 5.03125 C 6.816406 4.945312 7.101562 4.746094 7.40625 4.542969 Z M 7.40625 3.417969 "/>
<path fill-rule="nonzero" fill="rgb(30%,30%,30%)" fill-opacity="1" d="M 12.445312 5.441406 L 4.449219 5.441406 L 0.894531 10.671875 L 15.964844 10.738281 Z M 4.621094 6.351562 C 5.027344 6.140625 5.425781 6.238281 5.785156 6.492188 C 5.9375 6.59375 6.085938 6.726562 6.234375 6.816406 C 6.253906 6.828125 6.28125 6.84375 6.304688 6.855469 C 6.3125 6.855469 6.328125 6.863281 6.335938 6.867188 C 6.355469 6.871094 6.375 6.878906 6.394531 6.878906 C 6.394531 6.878906 6.402344 6.878906 6.402344 6.878906 C 6.40625 6.878906 6.410156 6.878906 6.417969 6.882812 L 6.449219 6.882812 C 6.507812 6.882812 6.574219 6.878906 6.632812 6.871094 C 6.984375 6.839844 7.25 6.644531 7.542969 6.449219 C 7.71875 6.335938 7.925781 6.230469 8.140625 6.199219 C 8.359375 6.160156 8.59375 6.1875 8.796875 6.269531 C 9.273438 6.453125 9.628906 6.867188 10.128906 6.949219 C 10.171875 6.957031 10.214844 6.960938 10.257812 6.960938 C 10.347656 6.964844 10.433594 6.949219 10.523438 6.914062 C 11.074219 6.699219 11.5 6.148438 12.171875 6.308594 C 12.339844 6.347656 12.496094 6.433594 12.632812 6.527344 C 12.632812 6.527344 12.605469 6.566406 12.605469 6.566406 C 11.523438 5.941406 11.128906 7.132812 10.296875 7.210938 C 9.988281 7.234375 9.679688 7.125 9.410156 6.980469 C 9.027344 6.777344 8.660156 6.472656 8.214844 6.574219 C 7.867188 6.660156 7.632812 6.976562 7.304688 7.152344 C 7.070312 7.289062 6.785156 7.355469 6.511719 7.347656 C 6.445312 7.347656 6.375 7.34375 6.308594 7.332031 C 6.269531 7.320312 6.226562 7.308594 6.1875 7.292969 C 6.117188 7.261719 6.046875 7.21875 5.988281 7.175781 C 5.589844 6.875 5.339844 6.398438 4.769531 6.472656 C 4.632812 6.488281 4.503906 6.53125 4.371094 6.578125 C 4.371094 6.578125 4.347656 6.539062 4.347656 6.539062 C 4.429688 6.46875 4.519531 6.402344 4.621094 6.351562 Z M 3.589844 7.675781 C 3.667969 7.613281 3.761719 7.558594 3.851562 7.511719 C 4.339844 7.273438 4.796875 7.390625 5.222656 7.695312 C 5.402344 7.820312 5.578125 7.980469 5.757812 8.09375 C 5.785156 8.109375 5.816406 8.125 5.847656 8.140625 C 5.859375 8.144531 5.878906 8.152344 5.890625 8.160156 C 5.917969 8.167969 5.9375 8.171875 5.964844 8.179688 C 5.980469 8.179688 5.988281 8.179688 6 8.179688 C 6 8.179688 6.039062 8.179688 6.039062 8.179688 C 6.109375 8.183594 6.191406 8.179688 6.265625 8.171875 C 6.871094 8.109375 7.183594 7.714844 7.703125 7.46875 C 8.054688 7.300781 8.488281 7.289062 8.847656 7.433594 C 9.40625 7.648438 9.824219 8.125 10.417969 8.234375 C 10.480469 8.246094 10.546875 8.253906 10.609375 8.257812 C 10.722656 8.257812 10.828125 8.238281 10.941406 8.195312 C 11.140625 8.121094 11.332031 7.996094 11.515625 7.875 C 11.894531 7.621094 12.34375 7.351562 12.820312 7.4375 C 12.898438 7.449219 12.925781 7.460938 12.996094 7.480469 C 13.160156 7.53125 13.316406 7.617188 13.457031 7.714844 C 13.457031 7.714844 13.433594 7.753906 13.433594 7.753906 C 13.027344 7.511719 12.613281 7.445312 12.179688 7.664062 C 11.640625 7.921875 11.207031 8.515625 10.5625 8.507812 C 10.226562 8.507812 9.898438 8.382812 9.609375 8.226562 C 9.046875 7.917969 8.53125 7.484375 7.882812 7.835938 C 7.710938 7.925781 7.542969 8.070312 7.355469 8.214844 C 7.160156 8.363281 6.933594 8.5 6.691406 8.570312 C 6.476562 8.636719 6.246094 8.660156 6.023438 8.644531 C 5.980469 8.644531 5.925781 8.636719 5.882812 8.628906 C 5.835938 8.617188 5.785156 8.601562 5.742188 8.585938 C 5.601562 8.527344 5.476562 8.433594 5.363281 8.335938 C 4.890625 7.902344 4.574219 7.472656 3.863281 7.660156 C 3.753906 7.6875 3.644531 7.730469 3.542969 7.769531 C 3.542969 7.769531 3.519531 7.730469 3.519531 7.730469 C 3.542969 7.710938 3.566406 7.695312 3.589844 7.675781 Z M 11.09375 9.832031 C 10.945312 9.84375 10.792969 9.832031 10.644531 9.804688 C 10.089844 9.710938 9.601562 9.347656 9.121094 9.097656 C 8.8125 8.933594 8.472656 8.828125 8.125 8.898438 C 7.726562 8.972656 7.472656 9.230469 7.128906 9.484375 C 6.765625 9.765625 6.335938 9.96875 5.871094 10 C 5.871094 10 5.757812 10.007812 5.757812 10.007812 L 5.640625 10.007812 C 5.621094 10.007812 5.601562 10.007812 5.585938 10.003906 C 5.527344 10 5.453125 10 5.398438 9.988281 C 4.929688 9.90625 4.625 9.503906 4.292969 9.210938 C 4.019531 8.960938 3.699219 8.757812 3.316406 8.765625 C 3.058594 8.769531 2.796875 8.851562 2.554688 8.949219 C 2.554688 8.949219 2.527344 8.902344 2.527344 8.902344 C 2.746094 8.722656 3 8.578125 3.289062 8.515625 C 3.75 8.414062 4.199219 8.59375 4.566406 8.863281 C 4.6875 8.945312 4.796875 9.035156 4.902344 9.117188 C 5.074219 9.246094 5.28125 9.421875 5.476562 9.445312 C 6.210938 9.472656 6.570312 9.207031 7.15625 8.808594 C 7.476562 8.597656 7.835938 8.433594 8.230469 8.429688 C 8.617188 8.410156 8.996094 8.550781 9.316406 8.742188 C 9.851562 9.046875 10.3125 9.46875 10.941406 9.53125 C 11.378906 9.582031 11.765625 9.308594 12.121094 9.078125 C 12.660156 8.71875 13.21875 8.390625 13.894531 8.601562 C 14.09375 8.667969 14.28125 8.769531 14.453125 8.886719 C 14.453125 8.886719 14.421875 8.933594 14.421875 8.933594 C 12.863281 8.019531 12.269531 9.730469 11.09375 9.832031 Z M 11.09375 9.832031 "/>
</g>
</svg>
