<?xml version="1.0" encoding="UTF-8" standalone="no"?>
<!-- Created with Inkscape (http://www.inkscape.org/) -->

<svg
   xmlns:dc="http://purl.org/dc/elements/1.1/"
   xmlns:cc="http://creativecommons.org/ns#"
   xmlns:rdf="http://www.w3.org/1999/02/22-rdf-syntax-ns#"
   xmlns:svg="http://www.w3.org/2000/svg"
   xmlns="http://www.w3.org/2000/svg"
   xmlns:xlink="http://www.w3.org/1999/xlink"
   xmlns:sodipodi="http://sodipodi.sourceforge.net/DTD/sodipodi-0.dtd"
   xmlns:inkscape="http://www.inkscape.org/namespaces/inkscape"
   width="30px"
   height="30px"
   version="1.1"
   id="svg8"
   inkscape:version="0.92.4 5da689c313, 2019-01-14"
   sodipodi:docname="container.svg">
  <defs
     id="defs2" />
  <sodipodi:namedview
     id="base"
     pagecolor="#ffffff"
     bordercolor="#666666"
     borderopacity="1.0"
     inkscape:pageopacity="0.0"
     inkscape:pageshadow="2"
     inkscape:zoom="13.049334"
     inkscape:cx="18.679046"
     inkscape:cy="12.165829"
     inkscape:document-units="px"
     inkscape:current-layer="layer1"
     showgrid="false"
     inkscape:snap-page="false"
     units="px"
     inkscape:window-width="1884"
     inkscape:window-height="1061"
     inkscape:window-x="0"
     inkscape:window-y="0"
     inkscape:window-maximized="1"
     fit-margin-top="0"
     fit-margin-left="0"
     fit-margin-right="0"
     fit-margin-bottom="0" />
  <metadata
     id="metadata5">
    <rdf:RDF>
      <cc:Work
         rdf:about="">
        <dc:format>image/svg+xml</dc:format>
        <dc:type
           rdf:resource="http://purl.org/dc/dcmitype/StillImage" />
        <dc:title></dc:title>
      </cc:Work>
    </rdf:RDF>
  </metadata>
    <circle
       style="color:#000000;clip-rule:nonzero;display:inline;overflow:visible;visibility:visible;opacity:1;isolation:auto;mix-blend-mode:normal;color-interpolation:sRGB;color-interpolation-filters:linearRGB;solid-color:#000000;solid-opacity:1;vector-effect:none;fill:#ffffff;fill-opacity:1;fill-rule:evenodd;stroke:#808080;stroke-width:1;stroke-linecap:butt;stroke-linejoin:miter;stroke-miterlimit:4;stroke-dasharray:none;stroke-dashoffset:0;stroke-opacity:1;marker:none;color-rendering:auto;image-rendering:auto;shape-rendering:auto;text-rendering:auto;enable-background:accumulate"
       id="path815"
       cx="15"
       cy="15"
       r="14.5" />
<g transform="translate(6.5,10.0)"><path fill-rule="nonzero" fill="rgb(30%,30%,30%)" fill-opacity="1" d="M 13.742188 5.238281 C 13.742188 5.238281 13.515625 1.675781 13.421875 1.355469 C 13.332031 1.035156 12.621094 -0.175781 10.863281 0.691406 C 10.863281 0.691406 7.6875 -0.632812 5.652344 0.382812 C 3.621094 1.398438 3.734375 2.679688 3.734375 2.679688 L 3.503906 4.941406 C 3.503906 4.941406 0.191406 6.039062 0.0078125 7.59375 C -0.175781 9.148438 2.511719 9.933594 2.957031 9.992188 C 4.496094 10.195312 7.605469 11.082031 13.675781 8.597656 C 15.726562 7.757812 17 6.929688 17 6.085938 C 17 5.515625 13.742188 5.238281 13.742188 5.238281 Z M 11.773438 7.445312 C 11.644531 7.507812 11.046875 7.777344 10.910156 7.824219 C 10.078125 8.121094 8.007812 8.828125 4.945312 8.597656 C 3.6875 8.503906 3.292969 8.003906 3.292969 8.003906 L 3.367188 6.929688 C 3.367188 6.929688 4.171875 7.410156 5.082031 7.46875 C 6.269531 7.546875 6.910156 7.59375 8.5 7.46875 C 10.359375 7.324219 13.6875 5.773438 13.6875 5.773438 L 13.703125 6.472656 Z M 11.773438 7.445312 "/>
</g>
</svg>
