<?xml version="1.0" encoding="UTF-8" standalone="no"?>
<!-- Created with Inkscape (http://www.inkscape.org/) -->

<svg
   xmlns:dc="http://purl.org/dc/elements/1.1/"
   xmlns:cc="http://creativecommons.org/ns#"
   xmlns:rdf="http://www.w3.org/1999/02/22-rdf-syntax-ns#"
   xmlns:svg="http://www.w3.org/2000/svg"
   xmlns="http://www.w3.org/2000/svg"
   xmlns:xlink="http://www.w3.org/1999/xlink"
   xmlns:sodipodi="http://sodipodi.sourceforge.net/DTD/sodipodi-0.dtd"
   xmlns:inkscape="http://www.inkscape.org/namespaces/inkscape"
   width="30px"
   height="30px"
   version="1.1"
   id="svg8"
   inkscape:version="0.92.4 5da689c313, 2019-01-14"
   sodipodi:docname="container.svg">
  <defs
     id="defs2" />
  <sodipodi:namedview
     id="base"
     pagecolor="#ffffff"
     bordercolor="#666666"
     borderopacity="1.0"
     inkscape:pageopacity="0.0"
     inkscape:pageshadow="2"
     inkscape:zoom="13.049334"
     inkscape:cx="18.679046"
     inkscape:cy="12.165829"
     inkscape:document-units="px"
     inkscape:current-layer="layer1"
     showgrid="false"
     inkscape:snap-page="false"
     units="px"
     inkscape:window-width="1884"
     inkscape:window-height="1061"
     inkscape:window-x="0"
     inkscape:window-y="0"
     inkscape:window-maximized="1"
     fit-margin-top="0"
     fit-margin-left="0"
     fit-margin-right="0"
     fit-margin-bottom="0" />
  <metadata
     id="metadata5">
    <rdf:RDF>
      <cc:Work
         rdf:about="">
        <dc:format>image/svg+xml</dc:format>
        <dc:type
           rdf:resource="http://purl.org/dc/dcmitype/StillImage" />
        <dc:title></dc:title>
      </cc:Work>
    </rdf:RDF>
  </metadata>
    <circle
       style="color:#000000;clip-rule:nonzero;display:inline;overflow:visible;visibility:visible;opacity:1;isolation:auto;mix-blend-mode:normal;color-interpolation:sRGB;color-interpolation-filters:linearRGB;solid-color:#000000;solid-opacity:1;vector-effect:none;fill:#ffffff;fill-opacity:1;fill-rule:evenodd;stroke:#808080;stroke-width:1;stroke-linecap:butt;stroke-linejoin:miter;stroke-miterlimit:4;stroke-dasharray:none;stroke-dashoffset:0;stroke-opacity:1;marker:none;color-rendering:auto;image-rendering:auto;shape-rendering:auto;text-rendering:auto;enable-background:accumulate"
       id="path815"
       cx="15"
       cy="15"
       r="14.5" />
<g transform="translate(6.5,7.0)"><path fill-rule="nonzero" fill="rgb(30%,30%,30%)" fill-opacity="1" d="M 7.816406 2.570312 C 8.109375 4.175781 7.46875 5.636719 6.386719 5.835938 C 5.304688 6.035156 4.191406 4.894531 3.894531 3.289062 C 3.601562 1.683594 4.242188 0.21875 5.324219 0.0234375 C 6.40625 -0.175781 7.523438 0.964844 7.816406 2.570312 Z M 7.816406 2.570312 "/>
<path fill-rule="nonzero" fill="rgb(30%,30%,30%)" fill-opacity="1" d="M 3.847656 5.894531 C 4.488281 7.183594 4.226562 8.621094 3.261719 9.101562 C 2.296875 9.582031 0.992188 8.921875 0.351562 7.632812 C -0.289062 6.339844 -0.0273438 4.90625 0.9375 4.425781 C 1.902344 3.945312 3.207031 4.601562 3.847656 5.894531 Z M 3.847656 5.894531 "/>
<path fill-rule="nonzero" fill="rgb(30%,30%,30%)" fill-opacity="1" d="M 15.753906 4.359375 C 16.78125 4.679688 17.273438 6.054688 16.847656 7.429688 C 16.421875 8.808594 15.238281 9.667969 14.210938 9.347656 C 13.179688 9.03125 12.691406 7.65625 13.117188 6.277344 C 13.542969 4.902344 14.722656 4.042969 15.753906 4.359375 Z M 15.753906 4.359375 "/>
<path fill-rule="nonzero" fill="rgb(30%,30%,30%)" fill-opacity="1" d="M 11.761719 0.0234375 C 12.84375 0.222656 13.484375 1.683594 13.1875 3.289062 C 12.890625 4.894531 11.777344 6.035156 10.695312 5.835938 C 9.613281 5.636719 8.972656 4.171875 9.269531 2.566406 C 9.566406 0.964844 10.679688 -0.175781 11.761719 0.0234375 Z M 11.761719 0.0234375 "/>
<path fill-rule="nonzero" fill="rgb(30%,30%,30%)" fill-opacity="1" d="M 2.917969 11.796875 C 2.917969 11.796875 4.222656 10.136719 4.839844 9.496094 C 5.457031 8.855469 6.28125 7.347656 6.28125 7.347656 C 7.496094 5.742188 9.917969 5.761719 11.101562 7.390625 C 11.101562 7.390625 11.824219 8.957031 12.363281 9.613281 C 12.898438 10.269531 14.308594 11.785156 14.308594 11.785156 C 15.597656 13.726562 14.3125 16.296875 12.121094 16.207031 C 12.070312 16.207031 12.019531 16.195312 11.972656 16.179688 C 11.554688 16.039062 9.457031 15.402344 8.542969 15.40625 C 7.53125 15.40625 5.492188 16.039062 5.125 16.140625 C 5.085938 16.152344 5.050781 16.15625 5.011719 16.15625 C 2.808594 16.097656 1.578125 13.566406 2.917969 11.796875 Z M 2.917969 11.796875 "/>
</g>
</svg>
