<?xml version="1.0" encoding="UTF-8" standalone="no"?>
<!-- Created with Inkscape (http://www.inkscape.org/) -->

<svg
   xmlns:dc="http://purl.org/dc/elements/1.1/"
   xmlns:cc="http://creativecommons.org/ns#"
   xmlns:rdf="http://www.w3.org/1999/02/22-rdf-syntax-ns#"
   xmlns:svg="http://www.w3.org/2000/svg"
   xmlns="http://www.w3.org/2000/svg"
   xmlns:xlink="http://www.w3.org/1999/xlink"
   xmlns:sodipodi="http://sodipodi.sourceforge.net/DTD/sodipodi-0.dtd"
   xmlns:inkscape="http://www.inkscape.org/namespaces/inkscape"
   width="30px"
   height="30px"
   version="1.1"
   id="svg8"
   inkscape:version="0.92.4 5da689c313, 2019-01-14"
   sodipodi:docname="container.svg">
  <defs
     id="defs2" />
  <sodipodi:namedview
     id="base"
     pagecolor="#ffffff"
     bordercolor="#666666"
     borderopacity="1.0"
     inkscape:pageopacity="0.0"
     inkscape:pageshadow="2"
     inkscape:zoom="13.049334"
     inkscape:cx="18.679046"
     inkscape:cy="12.165829"
     inkscape:document-units="px"
     inkscape:current-layer="layer1"
     showgrid="false"
     inkscape:snap-page="false"
     units="px"
     inkscape:window-width="1884"
     inkscape:window-height="1061"
     inkscape:window-x="0"
     inkscape:window-y="0"
     inkscape:window-maximized="1"
     fit-margin-top="0"
     fit-margin-left="0"
     fit-margin-right="0"
     fit-margin-bottom="0" />
  <metadata
     id="metadata5">
    <rdf:RDF>
      <cc:Work
         rdf:about="">
        <dc:format>image/svg+xml</dc:format>
        <dc:type
           rdf:resource="http://purl.org/dc/dcmitype/StillImage" />
        <dc:title></dc:title>
      </cc:Work>
    </rdf:RDF>
  </metadata>
    <circle
       style="color:#000000;clip-rule:nonzero;display:inline;overflow:visible;visibility:visible;opacity:1;isolation:auto;mix-blend-mode:normal;color-interpolation:sRGB;color-interpolation-filters:linearRGB;solid-color:#000000;solid-opacity:1;vector-effect:none;fill:#808080;fill-opacity:1;fill-rule:evenodd;stroke:#ffffff;stroke-width:1;stroke-linecap:butt;stroke-linejoin:miter;stroke-miterlimit:4;stroke-dasharray:none;stroke-dashoffset:0;stroke-opacity:1;marker:none;color-rendering:auto;image-rendering:auto;shape-rendering:auto;text-rendering:auto;enable-background:accumulate"
       id="path815"
       cx="15"
       cy="15"
       r="14.5" />
<g transform="translate(6.5,9.0)"><path fill-rule="nonzero" fill="#FFFFFF" fill-opacity="1" d="M 3.804688 11.769531 C 3.804688 12.078125 3.648438 12.234375 3.339844 12.234375 L 2.40625 12.234375 C 2.097656 12.234375 1.9375 12.078125 1.9375 11.769531 L 1.9375 10.367188 L 0.636719 8.039062 C 0.25 7.6875 0 7.179688 0 6.632812 C 0 5.550781 0.820312 4.671875 1.902344 4.671875 C 2.984375 4.671875 3.804688 5.550781 3.804688 6.632812 Z M 12.214844 8.5 L 12.214844 11.300781 L 4.742188 11.300781 L 4.742188 8.078125 C 5.675781 7.058594 7.121094 6.539062 8.523438 6.539062 C 9.925781 6.539062 11.203125 7.058594 12.253906 8.007812 Z M 12.214844 6.632812 L 12.214844 7.355469 L 12.101562 7.214844 C 11.085938 6.296875 9.804688 5.789062 8.453125 5.789062 C 7.101562 5.789062 5.855469 6.296875 4.839844 7.214844 L 4.742188 7.355469 L 4.742188 6.632812 C 4.742188 5.585938 4.074219 4.621094 3.113281 4.179688 L 3.019531 4.144531 L 3.03125 4.066406 C 3.746094 1.671875 5.984375 0 8.480469 0 C 10.980469 0 13.222656 1.671875 13.9375 4.066406 L 13.960938 4.144531 L 13.839844 4.179688 C 12.878906 4.621094 12.214844 5.585938 12.214844 6.632812 Z M 16.359375 8.066406 L 15.058594 10.410156 L 15.015625 10.953125 L 15.015625 11.769531 C 15.015625 12.078125 14.855469 12.234375 14.550781 12.234375 L 13.613281 12.234375 C 13.304688 12.234375 13.148438 12.078125 13.148438 11.769531 L 13.148438 6.632812 C 13.148438 5.550781 13.980469 4.671875 15.0625 4.671875 C 16.144531 4.671875 17 5.550781 17 6.632812 C 17 7.179688 16.765625 7.6875 16.359375 8.066406 Z M 16.359375 8.066406 "/>
</g>
</svg>
