<?xml version="1.0" encoding="UTF-8"?>
<svg xmlns="http://www.w3.org/2000/svg" xmlns:xlink="http://www.w3.org/1999/xlink" width="11" height="10.994845" viewBox="0 0 11 10.994845">
<path fill-rule="nonzero" fill="rgb(30%,30%,30%)" fill-opacity="1" d="M 5.671875 3.84375 L 3.753906 2.738281 L 3.023438 4.003906 L 3.925781 4.003906 C 4.097656 4.003906 4.234375 4.140625 4.234375 4.3125 C 4.234375 4.480469 4.097656 4.617188 3.925781 4.617188 L 2.667969 4.617188 L 2.207031 5.417969 L 4.765625 5.417969 Z M 5.671875 3.84375 "/>
<path fill-rule="nonzero" fill="rgb(30%,30%,30%)" fill-opacity="1" d="M 3.75 0 L 8.015625 2.460938 L 7.023438 4.183594 L 2.757812 1.71875 Z M 3.75 0 "/>
<path fill-rule="nonzero" fill="rgb(30%,30%,30%)" fill-opacity="1" d="M 1.339844 8.746094 C 1.339844 8.574219 1.476562 8.4375 1.648438 8.4375 L 3.023438 8.4375 L 3.589844 7.453125 L 1.03125 7.453125 L 0 9.238281 L 1.917969 10.347656 L 2.667969 9.054688 L 1.648438 9.054688 C 1.476562 9.054688 1.339844 8.914062 1.339844 8.746094 Z M 1.339844 8.746094 "/>
<path fill-rule="nonzero" fill="rgb(30%,30%,30%)" fill-opacity="1" d="M 4.410156 6.035156 L 1.851562 6.035156 L 1.386719 6.835938 L 3.945312 6.835938 Z M 4.410156 6.035156 "/>
<path fill-rule="nonzero" fill="rgb(30%,30%,30%)" fill-opacity="1" d="M 9.558594 6 L 6.675781 6 L 5.230469 8.496094 L 6.675781 10.996094 L 9.558594 10.996094 L 11 8.496094 Z M 8.117188 9.65625 C 7.441406 9.65625 6.898438 9.109375 6.898438 8.4375 C 6.898438 7.765625 7.441406 7.21875 8.117188 7.21875 C 8.789062 7.21875 9.335938 7.765625 9.335938 8.4375 C 9.335938 9.109375 8.789062 9.65625 8.117188 9.65625 Z M 8.117188 9.65625 "/>
</svg>
