<?xml version="1.0" encoding="UTF-8"?>
<svg xmlns="http://www.w3.org/2000/svg" xmlns:xlink="http://www.w3.org/1999/xlink" width="11" height="10.853152" viewBox="0 0 11 10.853152">
<path fill-rule="nonzero" fill="rgb(30%,30%,30%)" fill-opacity="1" d="M 4.65625 5.910156 C 4.730469 5.902344 4.804688 5.914062 4.875 5.945312 C 5 5.996094 5.085938 6.097656 5.105469 6.203125 C 5.164062 6.1875 5.527344 6.105469 5.636719 6.441406 C 5.636719 6.441406 5.652344 6.441406 5.683594 6.441406 C 5.816406 6.441406 6.0625 6.414062 6.171875 6.722656 C 6.171875 6.722656 7.59375 7.011719 8.550781 7.5 C 8.699219 7.574219 8.847656 7.636719 9.003906 7.691406 L 9.011719 3.078125 C 8.878906 3 8.753906 2.902344 8.652344 2.78125 C 8.445312 2.542969 8.332031 2.234375 8.332031 1.917969 L 8.332031 0 L 7.632812 0 L 7.632812 0.472656 C 7.632812 1.214844 7.027344 1.8125 6.28125 1.8125 L 6.253906 1.8125 C 5.507812 1.8125 4.902344 1.214844 4.902344 0.472656 L 4.902344 0 L 4.203125 0 L 4.203125 1.917969 C 4.203125 2.234375 4.089844 2.542969 3.882812 2.78125 C 3.78125 2.902344 3.65625 3 3.519531 3.078125 L 3.519531 5.160156 Z M 4.65625 5.910156 "/>
<path fill-rule="nonzero" fill="rgb(30%,30%,30%)" fill-opacity="1" d="M 8.410156 7.972656 C 7.453125 7.484375 6.03125 7.195312 6.03125 7.195312 C 5.921875 6.886719 5.675781 6.914062 5.542969 6.917969 C 5.511719 6.917969 5.496094 6.917969 5.496094 6.917969 C 5.386719 6.578125 5.023438 6.660156 4.964844 6.675781 C 4.945312 6.574219 4.859375 6.472656 4.734375 6.417969 C 4.664062 6.386719 4.589844 6.375 4.511719 6.382812 L 2.894531 5.3125 C 2.863281 5.289062 2.828125 5.277344 2.789062 5.28125 C 2.734375 5.28125 2.6875 5.308594 2.65625 5.355469 L 2.667969 5.375 C 2.347656 5.820312 3.382812 6.960938 3.21875 7.121094 C 3.109375 7.226562 2.824219 7.339844 2.449219 7.347656 C 2.207031 7.351562 1.96875 7.3125 1.738281 7.234375 C 1.21875 7.058594 0.886719 6.324219 0.640625 6.328125 C 0.558594 6.332031 0.613281 6.417969 0.441406 6.644531 C -0.242188 7.53125 0.0664062 8.933594 0.09375 9.839844 C 0.109375 10.367188 0.316406 10.488281 0.714844 10.503906 L 0.796875 10.804688 L 0.863281 10.851562 L 1.492188 10.839844 C 1.523438 10.839844 1.554688 10.824219 1.554688 10.792969 L 1.613281 10.496094 C 1.699219 10.496094 1.789062 10.496094 1.882812 10.5 C 1.960938 10.503906 2.089844 10.507812 2.261719 10.511719 L 2.34375 10.808594 C 2.351562 10.835938 2.378906 10.851562 2.40625 10.851562 L 3.035156 10.84375 C 3.066406 10.839844 3.089844 10.820312 3.097656 10.792969 L 3.15625 10.527344 C 3.363281 10.53125 3.589844 10.535156 3.824219 10.539062 L 3.898438 10.808594 C 3.910156 10.835938 3.933594 10.851562 3.964844 10.851562 L 4.59375 10.84375 C 4.621094 10.839844 4.644531 10.820312 4.65625 10.792969 L 4.707031 10.550781 C 4.929688 10.554688 5.15625 10.558594 5.382812 10.5625 L 5.453125 10.808594 C 5.464844 10.835938 5.488281 10.851562 5.519531 10.851562 L 6.148438 10.84375 C 6.175781 10.839844 6.203125 10.820312 6.210938 10.792969 L 6.261719 10.570312 C 6.496094 10.574219 6.722656 10.578125 6.945312 10.578125 L 7.011719 10.808594 C 7.019531 10.835938 7.046875 10.851562 7.074219 10.851562 L 7.703125 10.84375 C 7.734375 10.839844 7.757812 10.820312 7.765625 10.792969 L 7.8125 10.585938 C 8.035156 10.585938 8.230469 10.585938 8.394531 10.585938 L 8.457031 10.78125 C 8.460938 10.808594 8.492188 10.828125 8.515625 10.828125 L 9.152344 10.820312 C 9.175781 10.820312 9.207031 10.792969 9.207031 10.769531 L 9.261719 10.542969 C 10.140625 10.421875 11.011719 10.042969 11 9.378906 C 10.988281 8.578125 9.367188 8.464844 8.410156 7.972656 Z M 8.410156 7.972656 "/>
</svg>
