<?xml version="1.0" encoding="UTF-8" standalone="no"?>
<!-- Created with Inkscape (http://www.inkscape.org/) -->

<svg
   xmlns:dc="http://purl.org/dc/elements/1.1/"
   xmlns:cc="http://creativecommons.org/ns#"
   xmlns:rdf="http://www.w3.org/1999/02/22-rdf-syntax-ns#"
   xmlns:svg="http://www.w3.org/2000/svg"
   xmlns="http://www.w3.org/2000/svg"
   xmlns:xlink="http://www.w3.org/1999/xlink"
   xmlns:sodipodi="http://sodipodi.sourceforge.net/DTD/sodipodi-0.dtd"
   xmlns:inkscape="http://www.inkscape.org/namespaces/inkscape"
   width="30px"
   height="30px"
   version="1.1"
   id="svg8"
   inkscape:version="0.92.4 5da689c313, 2019-01-14"
   sodipodi:docname="container.svg">
  <defs
     id="defs2" />
  <sodipodi:namedview
     id="base"
     pagecolor="#ffffff"
     bordercolor="#666666"
     borderopacity="1.0"
     inkscape:pageopacity="0.0"
     inkscape:pageshadow="2"
     inkscape:zoom="13.049334"
     inkscape:cx="18.679046"
     inkscape:cy="12.165829"
     inkscape:document-units="px"
     inkscape:current-layer="layer1"
     showgrid="false"
     inkscape:snap-page="false"
     units="px"
     inkscape:window-width="1884"
     inkscape:window-height="1061"
     inkscape:window-x="0"
     inkscape:window-y="0"
     inkscape:window-maximized="1"
     fit-margin-top="0"
     fit-margin-left="0"
     fit-margin-right="0"
     fit-margin-bottom="0" />
  <metadata
     id="metadata5">
    <rdf:RDF>
      <cc:Work
         rdf:about="">
        <dc:format>image/svg+xml</dc:format>
        <dc:type
           rdf:resource="http://purl.org/dc/dcmitype/StillImage" />
        <dc:title></dc:title>
      </cc:Work>
    </rdf:RDF>
  </metadata>
    <circle
       style="color:#000000;clip-rule:nonzero;display:inline;overflow:visible;visibility:visible;opacity:1;isolation:auto;mix-blend-mode:normal;color-interpolation:sRGB;color-interpolation-filters:linearRGB;solid-color:#000000;solid-opacity:1;vector-effect:none;fill:#808080;fill-opacity:1;fill-rule:evenodd;stroke:#ffffff;stroke-width:1;stroke-linecap:butt;stroke-linejoin:miter;stroke-miterlimit:4;stroke-dasharray:none;stroke-dashoffset:0;stroke-opacity:1;marker:none;color-rendering:auto;image-rendering:auto;shape-rendering:auto;text-rendering:auto;enable-background:accumulate"
       id="path815"
       cx="15"
       cy="15"
       r="14.5" />
<g transform="translate(6.5,7.0)"><path fill-rule="nonzero" fill="#FFFFFF" fill-opacity="1" d="M 13.496094 2.125 L 13.496094 2.550781 L 12.339844 3.617188 L 11.761719 3.007812 L 11.121094 3.65625 L 10.542969 3.007812 L 9.964844 3.695312 L 9.355469 3.039062 L 8.503906 3.796875 L 7.515625 3.796875 C 6.9375 4.773438 5.777344 5.238281 4.6875 4.933594 C 3.59375 4.632812 2.839844 3.636719 2.84375 2.503906 C 2.847656 1.371094 3.609375 0.382812 4.703125 0.0859375 C 5.796875 -0.207031 6.953125 0.265625 7.527344 1.242188 L 12.582031 1.242188 Z M 4.28125 1.796875 C 3.890625 1.796875 3.578125 2.113281 3.578125 2.503906 C 3.578125 2.890625 3.890625 3.207031 4.28125 3.207031 C 4.667969 3.207031 4.984375 2.890625 4.984375 2.503906 C 4.984375 2.113281 4.667969 1.796875 4.28125 1.796875 Z M 4.28125 1.796875 "/>
<path fill-rule="nonzero" fill="#FFFFFF" fill-opacity="1" d="M 0 13.230469 C 0 13.230469 1.332031 10.945312 2.507812 9.84375 C 3.25 9.148438 5.757812 7.289062 8.171875 6.59375 C 10.789062 5.839844 10.863281 8.078125 9.703125 8.683594 C 8.542969 9.285156 8.125 9.566406 8.125 9.566406 C 8.125 9.566406 11.046875 9.609375 11.558594 9.425781 C 11.921875 9.292969 13.523438 7.855469 14.402344 7.046875 C 14.914062 6.578125 15.613281 6.347656 16.296875 6.476562 C 16.953125 6.597656 17.417969 7.027344 16.433594 8.3125 C 14.988281 10.1875 13.730469 11.703125 13.230469 11.839844 C 11.699219 12.257812 10.027344 12.257812 7.613281 13.371094 C 5.199219 14.484375 3.574219 15.691406 3.574219 15.691406 Z M 0 13.230469 "/>
</g>
</svg>
