<?xml version="1.0" encoding="UTF-8" standalone="no"?>
<!-- Created with Inkscape (http://www.inkscape.org/) -->

<svg
   xmlns:dc="http://purl.org/dc/elements/1.1/"
   xmlns:cc="http://creativecommons.org/ns#"
   xmlns:rdf="http://www.w3.org/1999/02/22-rdf-syntax-ns#"
   xmlns:svg="http://www.w3.org/2000/svg"
   xmlns="http://www.w3.org/2000/svg"
   xmlns:xlink="http://www.w3.org/1999/xlink"
   xmlns:sodipodi="http://sodipodi.sourceforge.net/DTD/sodipodi-0.dtd"
   xmlns:inkscape="http://www.inkscape.org/namespaces/inkscape"
   width="30px"
   height="30px"
   version="1.1"
   id="svg8"
   inkscape:version="0.92.4 5da689c313, 2019-01-14"
   sodipodi:docname="container.svg">
  <defs
     id="defs2" />
  <sodipodi:namedview
     id="base"
     pagecolor="#ffffff"
     bordercolor="#666666"
     borderopacity="1.0"
     inkscape:pageopacity="0.0"
     inkscape:pageshadow="2"
     inkscape:zoom="13.049334"
     inkscape:cx="18.679046"
     inkscape:cy="12.165829"
     inkscape:document-units="px"
     inkscape:current-layer="layer1"
     showgrid="false"
     inkscape:snap-page="false"
     units="px"
     inkscape:window-width="1884"
     inkscape:window-height="1061"
     inkscape:window-x="0"
     inkscape:window-y="0"
     inkscape:window-maximized="1"
     fit-margin-top="0"
     fit-margin-left="0"
     fit-margin-right="0"
     fit-margin-bottom="0" />
  <metadata
     id="metadata5">
    <rdf:RDF>
      <cc:Work
         rdf:about="">
        <dc:format>image/svg+xml</dc:format>
        <dc:type
           rdf:resource="http://purl.org/dc/dcmitype/StillImage" />
        <dc:title></dc:title>
      </cc:Work>
    </rdf:RDF>
  </metadata>
    <circle
       style="color:#000000;clip-rule:nonzero;display:inline;overflow:visible;visibility:visible;opacity:1;isolation:auto;mix-blend-mode:normal;color-interpolation:sRGB;color-interpolation-filters:linearRGB;solid-color:#000000;solid-opacity:1;vector-effect:none;fill:#ffffff;fill-opacity:1;fill-rule:evenodd;stroke:#808080;stroke-width:1;stroke-linecap:butt;stroke-linejoin:miter;stroke-miterlimit:4;stroke-dasharray:none;stroke-dashoffset:0;stroke-opacity:1;marker:none;color-rendering:auto;image-rendering:auto;shape-rendering:auto;text-rendering:auto;enable-background:accumulate"
       id="path815"
       cx="15"
       cy="15"
       r="14.5" />
<g transform="translate(6.5,9.0)"><path fill-rule="nonzero" fill="rgb(30%,30%,30%)" fill-opacity="1" d="M 2.890625 1.46875 C 2.914062 1.328125 3.050781 1.226562 3.195312 1.226562 L 13.261719 1.226562 C 14.226562 1.230469 14.035156 0 13.300781 0.0195312 L 3.339844 0 C 2.558594 0 1.871094 0.574219 1.796875 1.351562 C 1.707031 2.246094 2.414062 3.003906 3.292969 3.003906 L 14.410156 3.003906 C 15.207031 2.992188 15.226562 1.804688 14.460938 1.8125 L 3.179688 1.808594 C 3.003906 1.808594 2.859375 1.652344 2.890625 1.46875 Z M 2.890625 1.46875 "/>
<path fill-rule="nonzero" fill="rgb(30%,30%,30%)" fill-opacity="1" d="M 2.890625 4.949219 C 2.914062 4.804688 3.050781 4.707031 3.195312 4.707031 L 14.425781 4.707031 C 15.152344 4.742188 15.199219 3.476562 14.460938 3.5 L 3.339844 3.480469 C 2.558594 3.480469 1.871094 4.054688 1.796875 4.832031 C 1.707031 5.726562 2.414062 6.484375 3.292969 6.484375 L 14.410156 6.484375 C 15.207031 6.472656 15.226562 5.285156 14.460938 5.292969 L 3.179688 5.289062 C 3.003906 5.289062 2.859375 5.128906 2.890625 4.949219 Z M 2.890625 4.949219 "/>
<path fill-rule="nonzero" fill="rgb(30%,30%,30%)" fill-opacity="1" d="M 2.890625 8.398438 C 2.914062 8.253906 3.050781 8.15625 3.195312 8.15625 L 13.261719 8.15625 C 14.226562 8.15625 14.035156 6.925781 13.300781 6.949219 L 3.339844 6.929688 C 2.558594 6.929688 1.871094 7.503906 1.796875 8.28125 C 1.707031 9.175781 2.414062 9.933594 3.292969 9.933594 L 14.410156 9.933594 C 15.207031 9.921875 15.226562 8.734375 14.460938 8.742188 L 3.179688 8.738281 C 3.003906 8.738281 2.859375 8.578125 2.890625 8.398438 Z M 2.890625 8.398438 "/>
<path fill-rule="nonzero" fill="rgb(30%,30%,30%)" fill-opacity="1" d="M 0 10.796875 L 17 10.796875 L 17 12.238281 L 0 12.238281 Z M 0 10.796875 "/>
</g>
</svg>
