<?xml version="1.0" encoding="UTF-8" standalone="no"?>
<!-- Created with Inkscape (http://www.inkscape.org/) -->

<svg
   xmlns:dc="http://purl.org/dc/elements/1.1/"
   xmlns:cc="http://creativecommons.org/ns#"
   xmlns:rdf="http://www.w3.org/1999/02/22-rdf-syntax-ns#"
   xmlns:svg="http://www.w3.org/2000/svg"
   xmlns="http://www.w3.org/2000/svg"
   xmlns:xlink="http://www.w3.org/1999/xlink"
   xmlns:sodipodi="http://sodipodi.sourceforge.net/DTD/sodipodi-0.dtd"
   xmlns:inkscape="http://www.inkscape.org/namespaces/inkscape"
   width="30px"
   height="30px"
   version="1.1"
   id="svg8"
   inkscape:version="0.92.4 5da689c313, 2019-01-14"
   sodipodi:docname="container.svg">
  <defs
     id="defs2" />
  <sodipodi:namedview
     id="base"
     pagecolor="#ffffff"
     bordercolor="#666666"
     borderopacity="1.0"
     inkscape:pageopacity="0.0"
     inkscape:pageshadow="2"
     inkscape:zoom="13.049334"
     inkscape:cx="18.679046"
     inkscape:cy="12.165829"
     inkscape:document-units="px"
     inkscape:current-layer="layer1"
     showgrid="false"
     inkscape:snap-page="false"
     units="px"
     inkscape:window-width="1884"
     inkscape:window-height="1061"
     inkscape:window-x="0"
     inkscape:window-y="0"
     inkscape:window-maximized="1"
     fit-margin-top="0"
     fit-margin-left="0"
     fit-margin-right="0"
     fit-margin-bottom="0" />
  <metadata
     id="metadata5">
    <rdf:RDF>
      <cc:Work
         rdf:about="">
        <dc:format>image/svg+xml</dc:format>
        <dc:type
           rdf:resource="http://purl.org/dc/dcmitype/StillImage" />
        <dc:title></dc:title>
      </cc:Work>
    </rdf:RDF>
  </metadata>
    <circle
       style="color:#000000;clip-rule:nonzero;display:inline;overflow:visible;visibility:visible;opacity:1;isolation:auto;mix-blend-mode:normal;color-interpolation:sRGB;color-interpolation-filters:linearRGB;solid-color:#000000;solid-opacity:1;vector-effect:none;fill:#808080;fill-opacity:1;fill-rule:evenodd;stroke:#ffffff;stroke-width:1;stroke-linecap:butt;stroke-linejoin:miter;stroke-miterlimit:4;stroke-dasharray:none;stroke-dashoffset:0;stroke-opacity:1;marker:none;color-rendering:auto;image-rendering:auto;shape-rendering:auto;text-rendering:auto;enable-background:accumulate"
       id="path815"
       cx="15"
       cy="15"
       r="14.5" />
<g transform="translate(6.5,6.5)"><path fill-rule="nonzero" fill="#FFFFFF" fill-opacity="1" d="M 11.535156 15.105469 C 10.894531 14.640625 9.59375 14.394531 8.46875 14.394531 C 7.339844 14.394531 5.96875 14.671875 5.484375 15.097656 Z M 11.535156 15.105469 "/>
<path fill-rule="nonzero" fill="#FFFFFF" fill-opacity="1" d="M 5.539062 14.824219 C 6.105469 14.171875 7.136719 13.609375 8.515625 13.613281 C 9.886719 13.613281 10.960938 14.273438 11.496094 14.785156 C 11.496094 14.785156 9.851562 14.171875 8.46875 14.171875 C 7.238281 14.171875 6.527344 14.449219 5.984375 14.65625 Z M 5.539062 14.824219 "/>
<path fill-rule="nonzero" fill="#FFFFFF" fill-opacity="1" d="M 5.714844 6.484375 C 4.601562 5.957031 3.519531 6.269531 2.964844 6.820312 C 3.941406 7.019531 5.675781 7.523438 7.179688 8.742188 C 7.179688 8.378906 6.753906 6.980469 5.714844 6.484375 Z M 5.714844 6.484375 "/>
<path fill-rule="nonzero" fill="#FFFFFF" fill-opacity="1" d="M 4.136719 9.292969 C 5.382812 9.878906 6.9375 9.230469 7.167969 8.816406 C 7.171875 8.808594 7.175781 8.800781 7.175781 8.792969 C 5.492188 7.808594 3.625 7.441406 2.761719 7.316406 C 2.8125 7.824219 3.164062 8.832031 4.136719 9.292969 Z M 4.136719 9.292969 "/>
<path fill-rule="nonzero" fill="#FFFFFF" fill-opacity="1" d="M 11.285156 6.484375 C 10.246094 6.980469 9.820312 8.378906 9.816406 8.742188 C 11.324219 7.523438 13.054688 7.019531 14.03125 6.820312 C 13.476562 6.269531 12.394531 5.957031 11.285156 6.484375 Z M 11.285156 6.484375 "/>
<path fill-rule="nonzero" fill="#FFFFFF" fill-opacity="1" d="M 9.828125 8.816406 C 10.058594 9.230469 11.613281 9.878906 12.863281 9.292969 C 13.832031 8.832031 14.183594 7.824219 14.234375 7.316406 C 13.371094 7.441406 11.507812 7.808594 9.820312 8.792969 C 9.820312 8.800781 9.824219 8.808594 9.828125 8.816406 Z M 9.828125 8.816406 "/>
<path fill-rule="nonzero" fill="#FFFFFF" fill-opacity="1" d="M 8.5 0 C 3.804688 0 0 3.804688 0 8.5 C 0 13.195312 3.804688 17 8.5 17 C 13.195312 17 17 13.195312 17 8.5 C 17 3.804688 13.195312 0 8.5 0 Z M 15.757812 5.371094 C 15.757812 5.371094 13.601562 5.792969 12.457031 4.636719 C 12.375 4.554688 14.21875 3.941406 14.96875 5.203125 L 15.390625 5.164062 C 15.390625 5.164062 14.996094 4.1875 14.3125 3.546875 C 14.300781 3.53125 11.421875 3.519531 9.605469 6.28125 C 9.25 6.816406 8.851562 7.964844 8.484375 7.949219 C 8.167969 7.9375 7.773438 6.820312 7.417969 6.28125 C 5.601562 3.519531 2.726562 3.53125 2.710938 3.546875 C 2.027344 4.1875 1.632812 5.164062 1.632812 5.164062 L 2.054688 5.203125 C 2.804688 3.941406 4.648438 4.554688 4.566406 4.636719 C 3.421875 5.792969 1.265625 5.371094 1.265625 5.371094 C 1.246094 5.375 1.332031 5.152344 1.496094 4.828125 C 1.867188 4.121094 2.34375 3.472656 2.910156 2.910156 C 3.050781 2.765625 3.199219 2.628906 3.351562 2.5 C 3.371094 2.488281 3.398438 2.480469 3.421875 2.480469 C 4.242188 2.546875 7.195312 3.648438 8.15625 6.859375 C 8.460938 7.875 8.511719 7.582031 8.511719 7.582031 C 8.511719 7.582031 8.566406 7.875 8.867188 6.859375 C 9.828125 3.648438 12.785156 2.546875 13.601562 2.480469 C 13.613281 2.480469 13.621094 2.480469 13.628906 2.484375 C 13.789062 2.617188 13.941406 2.761719 14.089844 2.910156 C 14.796875 3.613281 15.367188 4.449219 15.761719 5.367188 C 15.761719 5.371094 15.761719 5.375 15.757812 5.371094 Z M 8.5 0.59375 C 10.144531 0.589844 11.753906 1.105469 13.089844 2.0625 C 12.855469 2.128906 12.582031 2.207031 12.351562 2.28125 C 9.894531 3.085938 8.804688 5.765625 8.671875 5.859375 C 8.617188 5.898438 8.660156 4.53125 8.660156 4.53125 C 8.660156 4.53125 9.199219 3.769531 9.777344 3.164062 C 10.355469 2.558594 11.011719 2.058594 11.011719 2.058594 L 10.921875 1.941406 C 10.921875 1.941406 10.121094 2.015625 9.90625 1.914062 C 9.488281 1.71875 9.394531 1.242188 9.210938 1.242188 C 9.027344 1.242188 8.632812 1.652344 9.132812 2.085938 C 9.398438 2.316406 9.671875 2.308594 9.671875 2.308594 L 8.527344 3.730469 L 8.527344 3.78125 L 7.351562 2.308594 C 7.351562 2.308594 7.625 2.316406 7.894531 2.085938 C 8.390625 1.652344 7.996094 1.242188 7.8125 1.242188 C 7.628906 1.242188 7.539062 1.71875 7.117188 1.914062 C 6.902344 2.015625 6.105469 1.941406 6.105469 1.941406 L 6.011719 2.058594 C 6.011719 2.058594 6.667969 2.558594 7.25 3.164062 C 7.828125 3.769531 8.367188 4.53125 8.367188 4.53125 C 8.367188 4.53125 8.40625 5.898438 8.351562 5.859375 C 8.222656 5.765625 7.128906 3.085938 4.671875 2.28125 C 4.4375 2.207031 4.152344 2.125 3.914062 2.054688 C 5.253906 1.101562 6.855469 0.589844 8.5 0.59375 Z M 14.089844 14.089844 C 13.957031 14.222656 13.820312 14.351562 13.679688 14.476562 C 13.441406 14.21875 12.636719 13.363281 12 12.976562 C 12.378906 13.183594 13.820312 13.875 14.722656 12.917969 C 14.8125 12.820312 13.507812 13.304688 12.824219 12.4375 L 12.761719 12.367188 C 12.640625 12.207031 12.527344 11.78125 12.535156 11.574219 C 12.570312 10.960938 13.09375 10.394531 13.789062 10.394531 C 14.488281 10.394531 14.960938 10.859375 14.84375 11.519531 C 14.78125 11.878906 14.355469 12.203125 13.78125 12.070312 C 13.679688 12.046875 13.625 11.847656 13.742188 11.765625 C 13.820312 11.710938 14.140625 11.710938 14.140625 11.710938 C 14.914062 11.433594 14.179688 10.515625 13.460938 10.960938 C 12.742188 11.410156 13.199219 12.613281 14.09375 12.582031 C 14.898438 12.554688 15.457031 12.003906 15.457031 11.15625 C 15.457031 10.597656 15.226562 10.148438 14.8125 9.867188 L 15.175781 9.28125 C 15.304688 9.066406 15.265625 8.878906 15.113281 8.628906 C 15.105469 8.617188 15.292969 8.644531 15.292969 8.644531 C 15.707031 8.644531 16.042969 8.308594 16.042969 7.890625 C 16.042969 7.476562 15.707031 7.140625 15.292969 7.140625 C 15.292969 7.140625 15.078125 7.140625 14.898438 7.234375 C 14.289062 7.554688 14.449219 8.363281 14.109375 9.003906 C 13.84375 9.507812 13.53125 9.828125 13.53125 9.828125 C 13.53125 9.828125 12.894531 10.382812 11.828125 10.175781 C 10.214844 9.867188 10.03125 9.238281 9.367188 9.257812 C 8.570312 9.277344 8.644531 10.839844 8.859375 11.304688 C 9.140625 11.902344 9.78125 12.046875 10.378906 11.460938 C 10.632812 11.214844 11.183594 10.691406 11.449219 12.25 L 8.652344 12.261719 L 8.65625 12.835938 C 8.65625 12.835938 11.558594 12.664062 12.925781 15.054688 C 10.257812 16.855469 6.761719 16.863281 4.089844 15.066406 C 5.457031 12.714844 8.339844 12.835938 8.339844 12.835938 L 8.34375 12.261719 L 5.546875 12.25 C 5.816406 10.691406 6.363281 11.214844 6.617188 11.460938 C 7.21875 12.046875 7.859375 11.902344 8.136719 11.304688 C 8.355469 10.839844 8.429688 9.277344 7.628906 9.257812 C 6.96875 9.238281 6.785156 9.867188 5.171875 10.175781 C 4.105469 10.382812 3.464844 9.828125 3.464844 9.828125 C 3.464844 9.828125 3.15625 9.507812 2.886719 9.003906 C 2.546875 8.363281 2.707031 7.554688 2.097656 7.234375 C 1.921875 7.140625 1.707031 7.140625 1.707031 7.140625 C 1.289062 7.140625 0.953125 7.476562 0.953125 7.890625 C 0.953125 8.308594 1.289062 8.644531 1.707031 8.644531 C 1.707031 8.644531 1.890625 8.617188 1.882812 8.628906 C 1.730469 8.878906 1.691406 9.066406 1.824219 9.28125 L 2.1875 9.867188 C 1.769531 10.148438 1.539062 10.597656 1.539062 11.15625 C 1.539062 12.003906 2.097656 12.554688 2.90625 12.582031 C 3.796875 12.613281 4.253906 11.410156 3.535156 10.960938 C 2.816406 10.515625 2.082031 11.433594 2.855469 11.710938 C 2.855469 11.710938 3.175781 11.710938 3.253906 11.765625 C 3.371094 11.847656 3.320312 12.046875 3.214844 12.070312 C 2.640625 12.203125 2.21875 11.878906 2.152344 11.519531 C 2.035156 10.859375 2.507812 10.394531 3.207031 10.394531 C 3.90625 10.394531 4.429688 10.960938 4.460938 11.574219 C 4.472656 11.78125 4.355469 12.207031 4.238281 12.367188 L 4.171875 12.4375 C 3.488281 13.304688 2.183594 12.820312 2.273438 12.917969 C 3.179688 13.875 4.617188 13.183594 4.996094 12.976562 C 4.359375 13.363281 3.558594 14.214844 3.320312 14.472656 C 3.179688 14.351562 3.042969 14.222656 2.910156 14.089844 C 0.761719 11.941406 0.0351562 8.753906 1.035156 5.886719 C 1.835938 5.96875 2.648438 5.964844 3.449219 5.871094 C 4.550781 5.746094 5.179688 4.886719 5.25 4.925781 C 6.761719 5.753906 7.367188 8.082031 7.578125 8.382812 C 7.847656 8.773438 8.308594 8.804688 8.445312 8.804688 C 8.445312 8.8125 8.445312 8.816406 8.445312 8.816406 C 8.445312 8.816406 9.125 8.847656 9.445312 8.382812 C 9.65625 8.082031 10.261719 5.753906 11.773438 4.925781 C 11.84375 4.886719 12.476562 5.746094 13.578125 5.871094 C 14.371094 5.964844 15.171875 5.96875 15.964844 5.890625 C 16.96875 8.757812 16.242188 11.945312 14.089844 14.089844 Z M 14.910156 7.894531 C 14.910156 7.683594 15.085938 7.507812 15.296875 7.507812 C 15.511719 7.507812 15.6875 7.683594 15.6875 7.894531 C 15.6875 8.109375 15.511719 8.28125 15.296875 8.28125 C 15.085938 8.28125 14.910156 8.109375 14.910156 7.894531 Z M 2.085938 7.894531 C 2.085938 8.109375 1.914062 8.28125 1.699219 8.28125 C 1.484375 8.28125 1.3125 8.109375 1.3125 7.894531 C 1.3125 7.683594 1.484375 7.507812 1.699219 7.507812 C 1.914062 7.507812 2.085938 7.683594 2.085938 7.894531 Z M 2.085938 7.894531 "/>
</g>
</svg>
