<?xml version="1.0" encoding="UTF-8" standalone="no"?>
<!-- Created with Inkscape (http://www.inkscape.org/) -->

<svg
   xmlns:dc="http://purl.org/dc/elements/1.1/"
   xmlns:cc="http://creativecommons.org/ns#"
   xmlns:rdf="http://www.w3.org/1999/02/22-rdf-syntax-ns#"
   xmlns:svg="http://www.w3.org/2000/svg"
   xmlns="http://www.w3.org/2000/svg"
   xmlns:xlink="http://www.w3.org/1999/xlink"
   xmlns:sodipodi="http://sodipodi.sourceforge.net/DTD/sodipodi-0.dtd"
   xmlns:inkscape="http://www.inkscape.org/namespaces/inkscape"
   width="30px"
   height="30px"
   version="1.1"
   id="svg8"
   inkscape:version="0.92.4 5da689c313, 2019-01-14"
   sodipodi:docname="container.svg">
  <defs
     id="defs2" />
  <sodipodi:namedview
     id="base"
     pagecolor="#ffffff"
     bordercolor="#666666"
     borderopacity="1.0"
     inkscape:pageopacity="0.0"
     inkscape:pageshadow="2"
     inkscape:zoom="13.049334"
     inkscape:cx="18.679046"
     inkscape:cy="12.165829"
     inkscape:document-units="px"
     inkscape:current-layer="layer1"
     showgrid="false"
     inkscape:snap-page="false"
     units="px"
     inkscape:window-width="1884"
     inkscape:window-height="1061"
     inkscape:window-x="0"
     inkscape:window-y="0"
     inkscape:window-maximized="1"
     fit-margin-top="0"
     fit-margin-left="0"
     fit-margin-right="0"
     fit-margin-bottom="0" />
  <metadata
     id="metadata5">
    <rdf:RDF>
      <cc:Work
         rdf:about="">
        <dc:format>image/svg+xml</dc:format>
        <dc:type
           rdf:resource="http://purl.org/dc/dcmitype/StillImage" />
        <dc:title></dc:title>
      </cc:Work>
    </rdf:RDF>
  </metadata>
    <circle
       style="color:#000000;clip-rule:nonzero;display:inline;overflow:visible;visibility:visible;opacity:1;isolation:auto;mix-blend-mode:normal;color-interpolation:sRGB;color-interpolation-filters:linearRGB;solid-color:#000000;solid-opacity:1;vector-effect:none;fill:#808080;fill-opacity:1;fill-rule:evenodd;stroke:#ffffff;stroke-width:1;stroke-linecap:butt;stroke-linejoin:miter;stroke-miterlimit:4;stroke-dasharray:none;stroke-dashoffset:0;stroke-opacity:1;marker:none;color-rendering:auto;image-rendering:auto;shape-rendering:auto;text-rendering:auto;enable-background:accumulate"
       id="path815"
       cx="15"
       cy="15"
       r="14.5" />
<g transform="translate(6.5,6.5)"><path fill-rule="nonzero" fill="#FFFFFF" fill-opacity="1" d="M 0.351562 16.136719 C 0.351562 16.613281 0.738281 17 1.210938 17 L 6.644531 17 L 6.644531 8.46875 L 0.351562 8.46875 Z M 0.351562 16.136719 "/>
<path fill-rule="nonzero" fill="#FFFFFF" fill-opacity="1" d="M 10.09375 17 L 15.5 17 C 15.976562 17 16.359375 16.613281 16.359375 16.136719 L 16.359375 8.46875 L 10.09375 8.46875 Z M 10.09375 17 "/>
<path fill-rule="nonzero" fill="#FFFFFF" fill-opacity="1" d="M 16.355469 4.535156 L 14.757812 4.535156 L 14.757812 2.515625 L 14.753906 2.519531 L 14.757812 2.515625 L 12.246094 0.0078125 L 12.25 0 L 10.230469 0 L 10.230469 2.613281 L 6.5 2.613281 L 6.5 0 L 4.480469 0 L 4.480469 0.0078125 L 1.972656 2.515625 L 1.976562 2.519531 L 1.972656 2.515625 L 1.972656 4.535156 L 0.359375 4.535156 C 0.160156 4.535156 0 4.6875 0 4.878906 L 0 7.601562 C 0 7.6875 0.0703125 7.761719 0.160156 7.761719 L 6.644531 7.761719 L 6.644531 4.535156 L 10.09375 4.535156 L 10.09375 7.761719 L 16.554688 7.761719 C 16.640625 7.761719 16.710938 7.6875 16.710938 7.601562 L 16.710938 4.878906 C 16.710938 4.6875 16.550781 4.535156 16.355469 4.535156 Z M 3.617188 3.25 L 5.214844 1.652344 L 6.5 4.535156 Z M 10.230469 4.535156 L 11.515625 1.652344 L 13.113281 3.25 Z M 10.230469 4.535156 "/>
</g>
</svg>
