<?xml version="1.0" encoding="UTF-8"?>
<svg xmlns="http://www.w3.org/2000/svg" xmlns:xlink="http://www.w3.org/1999/xlink" width="11" height="10.999999" viewBox="0 0 11 10.999999">
<path fill-rule="nonzero" fill="rgb(30%,30%,30%)" fill-opacity="1" d="M 8.617188 0 L 2.382812 0 C 1.070312 0 0 1.070312 0 2.382812 L 0 8.617188 C 0 9.929688 1.070312 11 2.382812 11 L 8.617188 11 C 9.929688 11 11 9.929688 11 8.617188 L 11 2.382812 C 11 1.070312 9.929688 0 8.617188 0 Z M 1.765625 9.15625 C 1.667969 9.085938 4.300781 5.617188 5.640625 0.625 L 5.632812 8.65625 C 5.632812 8.65625 2.660156 8.589844 2.914062 8.648438 C 5.207031 9.207031 6.296875 8.921875 6.296875 8.921875 L 6.296875 1.332031 L 9.347656 9.261719 C 6.785156 10.222656 2.769531 9.859375 1.765625 9.15625 Z M 1.765625 9.15625 "/>
</svg>
