<?xml version="1.0" encoding="UTF-8"?>
<svg xmlns="http://www.w3.org/2000/svg" xmlns:xlink="http://www.w3.org/1999/xlink" width="10.601591" height="11" viewBox="0 0 10.601591 11">
<path fill-rule="nonzero" fill="rgb(30%,30%,30%)" fill-opacity="1" d="M 10.484375 7.953125 L 10.355469 8.078125 C 10.203125 8.226562 9.957031 8.222656 9.808594 8.070312 L 6.585938 4.738281 L 5.457031 5.78125 C 5.359375 5.871094 5.210938 5.867188 5.125 5.769531 C 5.035156 5.675781 5.039062 5.523438 5.136719 5.4375 L 6.257812 4.402344 L 6.085938 4.226562 L 4.949219 5.277344 C 4.855469 5.367188 4.707031 5.359375 4.617188 5.265625 C 4.527344 5.167969 4.535156 5.019531 4.628906 4.929688 L 5.757812 3.886719 L 5.625 3.746094 L 4.480469 4.804688 C 4.382812 4.894531 4.234375 4.886719 4.144531 4.792969 C 4.058594 4.695312 4.0625 4.546875 4.15625 4.457031 L 5.292969 3.40625 L 5.160156 3.265625 L 4.007812 4.332031 C 3.910156 4.421875 3.761719 4.414062 3.671875 4.320312 C 3.585938 4.222656 3.589844 4.074219 3.6875 3.984375 L 4.832031 2.925781 L 4.695312 2.789062 L 3.535156 3.859375 C 3.4375 3.949219 3.289062 3.941406 3.199219 3.847656 C 3.113281 3.75 3.117188 3.601562 3.214844 3.515625 L 4.367188 2.449219 L 4.179688 2.257812 L 3.011719 3.335938 C 2.914062 3.425781 2.765625 3.417969 2.679688 3.324219 C 2.589844 3.230469 2.59375 3.078125 2.691406 2.992188 L 3.851562 1.917969 L 3.714844 1.777344 L 2.539062 2.867188 C 2.445312 2.953125 2.292969 2.949219 2.207031 2.851562 C 2.117188 2.757812 2.121094 2.605469 2.21875 2.519531 L 3.386719 1.4375 L 3.253906 1.296875 L 2.066406 2.394531 C 1.972656 2.480469 1.820312 2.476562 1.734375 2.378906 C 1.644531 2.285156 1.652344 2.136719 1.746094 2.046875 L 2.921875 0.957031 L 2.789062 0.816406 L 1.59375 1.921875 C 1.5 2.007812 1.351562 2.003906 1.261719 1.90625 C 1.171875 1.8125 1.179688 1.664062 1.273438 1.574219 L 2.785156 0.175781 C 2.808594 0.152344 2.839844 0.136719 2.871094 0.125 L 2.890625 0.109375 C 3.042969 -0.0390625 3.289062 -0.0351562 3.4375 0.117188 L 10.492188 7.40625 C 10.640625 7.558594 10.636719 7.804688 10.484375 7.953125 Z M 8.582031 8.808594 L 8.277344 8.453125 C 8.421875 8.042969 8.335938 7.582031 8.046875 7.253906 C 7.757812 6.925781 7.3125 6.785156 6.882812 6.878906 C 6.457031 6.976562 6.117188 7.296875 5.996094 7.71875 L 3.824219 5.398438 C 3.714844 5.289062 0.386719 2.261719 0.0234375 2.558594 C -0.289062 2.804688 2.632812 6.234375 2.746094 6.34375 L 4.972656 8.640625 C 4.421875 8.773438 4.042969 9.277344 4.0625 9.84375 C 4.082031 10.410156 4.496094 10.886719 5.054688 10.984375 C 5.613281 11.078125 6.164062 10.773438 6.371094 10.246094 C 6.582031 9.71875 6.394531 9.117188 5.921875 8.804688 C 5.527344 8.332031 4.441406 7.230469 4.09375 6.882812 C 4.0625 6.851562 4.183594 6.796875 4.195312 6.785156 L 6.085938 8.640625 C 6.089844 8.632812 6.09375 8.628906 6.097656 8.625 C 6.273438 8.941406 6.582031 9.164062 6.9375 9.226562 C 7.292969 9.289062 7.660156 9.191406 7.933594 8.953125 L 8.3125 9.3125 C 8.3125 9.3125 9.089844 9.71875 9.1875 9.347656 C 9.289062 8.976562 8.582031 8.808594 8.582031 8.808594 Z M 5.949219 9.800781 C 5.949219 10.183594 5.640625 10.492188 5.257812 10.492188 C 4.878906 10.492188 4.566406 10.183594 4.566406 9.800781 C 4.566406 9.421875 4.878906 9.109375 5.257812 9.109375 C 5.640625 9.109375 5.949219 9.421875 5.949219 9.800781 Z M 7.875 8.046875 C 7.875 8.429688 7.5625 8.738281 7.183594 8.738281 C 6.800781 8.738281 6.492188 8.429688 6.492188 8.046875 C 6.492188 7.667969 6.800781 7.355469 7.183594 7.355469 C 7.5625 7.355469 7.875 7.667969 7.875 8.046875 Z M 7.875 8.046875 "/>
</svg>
