<?xml version="1.0" encoding="UTF-8"?>
<svg xmlns="http://www.w3.org/2000/svg" xmlns:xlink="http://www.w3.org/1999/xlink" width="10.059161" height="11" viewBox="0 0 10.059161 11">
<path fill-rule="nonzero" fill="rgb(30%,30%,30%)" fill-opacity="1" d="M 5.203125 8.503906 C 5.265625 7.910156 5.332031 5.96875 5.878906 4.976562 C 6.144531 4.496094 5.46875 2.726562 5.46875 2.726562 C 5.46875 2.726562 5.574219 2.679688 5.65625 2.304688 L 4.988281 2.316406 L 4.734375 2.324219 L 4.671875 2.570312 C 4.65625 2.628906 4.503906 3.160156 3.964844 3.1875 C 3.957031 3.1875 3.949219 3.1875 3.941406 3.1875 L 3.921875 3.1875 C 3.914062 3.1875 3.90625 3.1875 3.902344 3.1875 C 3.363281 3.160156 3.207031 2.628906 3.195312 2.570312 L 3.132812 2.324219 L 1.8125 2.296875 L 0 3.773438 L 1.183594 5.769531 L 1.652344 5.5625 L 1.652344 9.25 L 3.933594 9.210938 L 5.0625 9.230469 C 5.132812 8.9375 5.1875 8.667969 5.203125 8.503906 Z M 5.203125 8.503906 "/>
<path fill-rule="nonzero" fill="rgb(30%,30%,30%)" fill-opacity="1" d="M 5.789062 0.355469 L 6.425781 0.015625 C 6.425781 0.015625 6.46875 1.269531 7.503906 1.285156 C 8.539062 1.300781 8.65625 0 8.65625 0 L 9.203125 0.324219 C 9.203125 0.324219 8.996094 2.066406 9.171875 2.378906 L 9.351562 2.6875 C 9.351562 2.6875 8.757812 4.507812 8.90625 4.890625 C 9 5.121094 9.394531 5.65625 9.558594 8.359375 C 9.644531 9.816406 10.058594 10.8125 10.058594 10.8125 C 10.058594 10.8125 7.695312 11.179688 4.859375 10.886719 C 4.859375 10.886719 5.390625 9.070312 5.449219 8.476562 C 5.511719 7.886719 5.578125 5.941406 6.125 4.953125 C 6.390625 4.472656 5.714844 2.703125 5.714844 2.703125 C 5.714844 2.703125 5.910156 2.613281 5.96875 1.757812 C 6.027344 0.902344 5.789062 0.355469 5.789062 0.355469 Z M 5.789062 0.355469 "/>
</svg>
