<?xml version="1.0" encoding="UTF-8"?>
<svg xmlns="http://www.w3.org/2000/svg" xmlns:xlink="http://www.w3.org/1999/xlink" width="10.267008" height="11" viewBox="0 0 10.267008 11">
<path fill-rule="nonzero" fill="rgb(30%,30%,30%)" fill-opacity="1" d="M 1.726562 2.929688 L 2.488281 2.929688 C 2.582031 2.929688 2.65625 2.894531 2.65625 2.855469 L 2.65625 2.21875 C 2.65625 2.179688 2.582031 2.144531 2.488281 2.144531 L 1.726562 2.144531 C 1.632812 2.144531 1.554688 2.179688 1.554688 2.21875 L 1.554688 2.855469 C 1.554688 2.894531 1.632812 2.929688 1.726562 2.929688 Z M 1.726562 2.929688 "/>
<path fill-rule="nonzero" fill="rgb(30%,30%,30%)" fill-opacity="1" d="M 10.265625 10.703125 C 10.265625 10.867188 10.132812 11 9.96875 11 L 8.214844 11 C 8.050781 11 7.917969 10.867188 7.917969 10.703125 L 7.917969 4.070312 C 7.917969 3.910156 8.003906 3.671875 8.113281 3.550781 L 8.691406 2.882812 L 8.691406 0.648438 L 8.636719 0.648438 L 8.636719 0 L 9.546875 0 L 9.546875 0.648438 L 9.492188 0.648438 L 9.492188 2.882812 L 10.070312 3.550781 C 10.179688 3.671875 10.265625 3.910156 10.265625 4.070312 Z M 10.265625 10.703125 "/>
<path fill-rule="nonzero" fill="rgb(30%,30%,30%)" fill-opacity="1" d="M 7.140625 3.683594 L 6.5 3.402344 C 6.339844 3.332031 6.207031 3.128906 6.207031 2.953125 L 6.207031 1.792969 C 6.207031 1.617188 6.292969 1.476562 6.398438 1.476562 C 6.503906 1.476562 6.585938 1.332031 6.585938 1.15625 L 6.585938 0.523438 C 6.585938 0.347656 6.445312 0.203125 6.269531 0.203125 L 4.726562 0.203125 C 4.550781 0.203125 4.410156 0.347656 4.410156 0.523438 L 4.410156 1.15625 C 4.410156 1.332031 4.492188 1.476562 4.597656 1.476562 C 4.703125 1.476562 4.789062 1.617188 4.789062 1.792969 L 4.789062 2.953125 C 4.789062 3.128906 4.65625 3.332031 4.496094 3.402344 L 3.855469 3.683594 C 3.691406 3.753906 3.5625 3.957031 3.5625 4.132812 L 3.5625 6.078125 C 3.316406 5.964844 3.015625 5.902344 2.699219 5.882812 L 2.699219 3.832031 L 2.730469 3.832031 C 2.867188 3.832031 2.992188 3.757812 3.058594 3.640625 C 3.125 3.523438 3.125 3.378906 3.058594 3.261719 C 2.988281 3.144531 2.863281 3.074219 2.726562 3.074219 L 1.484375 3.074219 C 1.273438 3.074219 1.105469 3.242188 1.105469 3.453125 C 1.105469 3.644531 1.246094 3.832031 1.515625 3.832031 L 1.515625 5.882812 C 0.519531 5.949219 0 6.386719 0 7.035156 L 0 10.519531 C 0 10.769531 0.203125 10.972656 0.453125 10.972656 L 3.757812 10.972656 C 3.78125 10.972656 3.804688 10.972656 3.828125 10.96875 C 3.847656 10.972656 3.863281 10.972656 3.882812 10.972656 L 7.113281 10.972656 C 7.292969 10.972656 7.433594 10.828125 7.433594 10.652344 L 7.433594 4.132812 C 7.433594 3.957031 7.304688 3.753906 7.140625 3.683594 Z M 1.464844 9.128906 L 1.464844 7.753906 C 1.464844 7.382812 1.765625 7.082031 2.136719 7.082031 L 3.5625 7.082031 L 3.5625 7.351562 L 2.136719 7.351562 C 1.914062 7.351562 1.734375 7.53125 1.734375 7.753906 L 1.734375 9.128906 C 1.734375 9.351562 1.914062 9.53125 2.136719 9.53125 L 3.5625 9.53125 L 3.5625 9.800781 L 2.136719 9.800781 C 1.765625 9.796875 1.464844 9.5 1.464844 9.128906 Z M 1.464844 9.128906 "/>
</svg>
