<?xml version="1.0" encoding="UTF-8"?>
<svg xmlns="http://www.w3.org/2000/svg" xmlns:xlink="http://www.w3.org/1999/xlink" width="11" height="10.570722" viewBox="0 0 11 10.570722">
<path fill-rule="nonzero" fill="rgb(30%,30%,30%)" fill-opacity="1" d="M 5.308594 0.625 C 5.378906 1.015625 5.222656 1.367188 4.960938 1.417969 C 4.699219 1.464844 4.425781 1.1875 4.355469 0.796875 C 4.285156 0.410156 4.4375 0.0546875 4.703125 0.00390625 C 4.964844 -0.0429688 5.234375 0.234375 5.308594 0.625 Z M 5.308594 0.625 "/>
<path fill-rule="nonzero" fill="rgb(30%,30%,30%)" fill-opacity="1" d="M 4.34375 1.429688 C 4.5 1.746094 4.4375 2.09375 4.203125 2.210938 C 3.96875 2.328125 3.648438 2.167969 3.496094 1.851562 C 3.339844 1.539062 3.402344 1.191406 3.636719 1.074219 C 3.871094 0.957031 4.1875 1.117188 4.34375 1.429688 Z M 4.34375 1.429688 "/>
<path fill-rule="nonzero" fill="rgb(30%,30%,30%)" fill-opacity="1" d="M 7.234375 1.058594 C 7.484375 1.136719 7.601562 1.46875 7.5 1.804688 C 7.394531 2.140625 7.109375 2.347656 6.859375 2.269531 C 6.609375 2.191406 6.492188 1.859375 6.59375 1.523438 C 6.699219 1.191406 6.984375 0.980469 7.234375 1.058594 Z M 7.234375 1.058594 "/>
<path fill-rule="nonzero" fill="rgb(30%,30%,30%)" fill-opacity="1" d="M 6.265625 0.00390625 C 6.527344 0.0546875 6.683594 0.410156 6.613281 0.796875 C 6.539062 1.1875 6.269531 1.464844 6.003906 1.417969 C 5.742188 1.367188 5.589844 1.011719 5.660156 0.625 C 5.730469 0.234375 6.003906 -0.0429688 6.265625 0.00390625 Z M 6.265625 0.00390625 "/>
<path fill-rule="nonzero" fill="rgb(30%,30%,30%)" fill-opacity="1" d="M 4.117188 2.863281 C 4.117188 2.863281 4.433594 2.460938 4.585938 2.304688 C 4.734375 2.148438 4.933594 1.785156 4.933594 1.785156 C 5.074219 1.601562 5.292969 1.492188 5.523438 1.496094 C 5.753906 1.496094 5.96875 1.609375 6.105469 1.792969 C 6.105469 1.792969 6.28125 2.175781 6.410156 2.335938 C 6.542969 2.492188 6.882812 2.863281 6.882812 2.863281 C 7.195312 3.332031 6.882812 3.957031 6.351562 3.9375 C 6.339844 3.933594 6.328125 3.933594 6.316406 3.929688 C 6.214844 3.894531 5.707031 3.742188 5.484375 3.742188 C 5.238281 3.742188 4.742188 3.894531 4.652344 3.917969 C 4.644531 3.921875 4.636719 3.921875 4.625 3.921875 C 4.089844 3.910156 3.792969 3.292969 4.117188 2.863281 Z M 4.117188 2.863281 "/>
<path fill-rule="nonzero" fill="rgb(30%,30%,30%)" fill-opacity="1" d="M 5.257812 5.417969 C 5.136719 5.328125 0.605469 2.183594 0.308594 2.523438 C 0.0859375 2.757812 3.015625 5.332031 4.035156 6.203125 L 5.28125 5.4375 Z M 5.257812 5.417969 "/>
<path fill-rule="nonzero" fill="rgb(30%,30%,30%)" fill-opacity="1" d="M 4.585938 6.648438 L 4.699219 6.734375 L 4.628906 6.621094 Z M 4.585938 6.648438 "/>
<path fill-rule="nonzero" fill="rgb(30%,30%,30%)" fill-opacity="1" d="M 10.335938 7.945312 L 9.988281 7.65625 C 10.066406 7.238281 9.910156 6.8125 9.582031 6.542969 C 9.253906 6.273438 8.804688 6.207031 8.414062 6.363281 C 8.019531 6.523438 7.742188 6.882812 7.695312 7.300781 L 6.875 6.671875 C 6.882812 6.742188 6.832031 6.824219 6.746094 6.878906 C 6.636719 6.949219 6.503906 6.941406 6.453125 6.863281 L 5.816406 5.890625 L 5.648438 5.996094 L 6.285156 6.96875 C 6.296875 6.984375 6.300781 7.003906 6.304688 7.023438 L 7.917969 8.167969 C 7.921875 8.164062 7.953125 8.195312 7.957031 8.1875 C 8.210938 8.511719 8.597656 8.65625 9.03125 8.585938 C 9.304688 8.542969 9.558594 8.398438 9.734375 8.183594 L 10.152344 8.472656 C 10.152344 8.472656 10.957031 8.738281 11 8.367188 C 11.039062 8 10.335938 7.945312 10.335938 7.945312 Z M 8.984375 8.097656 C 8.617188 8.15625 8.273438 7.90625 8.214844 7.542969 C 8.15625 7.175781 8.40625 6.832031 8.769531 6.773438 C 9.136719 6.714844 9.480469 6.964844 9.539062 7.328125 C 9.597656 7.695312 9.351562 8.039062 8.984375 8.097656 Z M 8.984375 8.097656 "/>
<path fill-rule="nonzero" fill="rgb(30%,30%,30%)" fill-opacity="1" d="M 6.171875 7.230469 C 6.0625 7.300781 5.929688 7.296875 5.878906 7.21875 L 5.339844 6.394531 C 5.421875 6.308594 5.429688 6.179688 5.363281 6.085938 C 5.296875 5.988281 5.167969 5.957031 5.0625 6.007812 C 5.164062 5.960938 5.277344 5.988281 5.347656 6.070312 C 5.417969 6.15625 5.421875 6.273438 5.363281 6.363281 C 5.300781 6.453125 5.191406 6.488281 5.089844 6.457031 L 5.667969 7.347656 C 5.691406 7.378906 5.691406 7.421875 5.675781 7.460938 L 6.855469 8.339844 C 6.351562 8.554688 6.0625 9.09375 6.167969 9.632812 C 6.273438 10.171875 6.746094 10.5625 7.292969 10.570312 C 7.84375 10.578125 8.320312 10.199219 8.441406 9.660156 C 8.558594 9.125 8.289062 8.578125 7.785156 8.351562 C 7.46875 8.074219 6.765625 7.546875 6.25 7.164062 C 6.226562 7.191406 6.199219 7.214844 6.171875 7.230469 Z M 7.96875 9.304688 C 8.027344 9.667969 7.78125 10.011719 7.414062 10.070312 C 7.050781 10.128906 6.707031 9.882812 6.648438 9.515625 C 6.585938 9.152344 6.835938 8.808594 7.203125 8.75 C 7.566406 8.691406 7.910156 8.9375 7.96875 9.304688 Z M 7.96875 9.304688 "/>
<path fill-rule="nonzero" fill="rgb(30%,30%,30%)" fill-opacity="1" d="M 3.90625 6.273438 L 0.164062 8.578125 C -0.0820312 8.730469 0.00390625 8.9375 0.078125 9.058594 C 0.105469 9.109375 0.132812 9.15625 0.167969 9.203125 L 0.925781 10.386719 C 0.945312 10.414062 0.992188 10.414062 1.035156 10.386719 C 1.074219 10.359375 1.089844 10.316406 1.070312 10.289062 L 0.375 9.199219 C 0.417969 9.1875 0.460938 9.167969 0.5 9.144531 L 1.191406 10.21875 C 1.210938 10.246094 1.261719 10.25 1.300781 10.222656 C 1.339844 10.195312 1.359375 10.152344 1.335938 10.125 L 0.652344 9.054688 L 0.769531 8.980469 L 1.453125 10.050781 C 1.472656 10.078125 1.527344 10.085938 1.566406 10.058594 C 1.605469 10.03125 1.625 9.988281 1.605469 9.960938 L 0.917969 8.890625 L 1.035156 8.820312 L 1.722656 9.886719 C 1.742188 9.914062 1.792969 9.917969 1.832031 9.894531 C 1.871094 9.867188 1.890625 9.824219 1.871094 9.796875 L 1.183594 8.726562 L 1.300781 8.65625 L 1.988281 9.722656 C 2.007812 9.75 2.058594 9.753906 2.097656 9.730469 C 2.140625 9.703125 2.15625 9.660156 2.136719 9.632812 L 1.453125 8.5625 L 1.566406 8.492188 L 2.253906 9.558594 C 2.273438 9.585938 2.324219 9.589844 2.367188 9.5625 C 2.40625 9.539062 2.421875 9.496094 2.402344 9.46875 L 1.71875 8.398438 L 1.835938 8.328125 L 2.519531 9.394531 C 2.539062 9.421875 2.589844 9.425781 2.632812 9.398438 C 2.671875 9.375 2.6875 9.332031 2.667969 9.304688 L 1.984375 8.234375 L 2.101562 8.164062 L 2.785156 9.230469 C 2.804688 9.257812 2.859375 9.261719 2.898438 9.234375 C 2.9375 9.207031 2.953125 9.164062 2.933594 9.136719 L 2.25 8.070312 L 2.367188 8 L 3.050781 9.066406 C 3.070312 9.09375 3.125 9.097656 3.164062 9.070312 C 3.203125 9.042969 3.222656 9 3.203125 8.972656 L 2.519531 7.90625 L 2.636719 7.835938 L 3.316406 8.902344 C 3.339844 8.929688 3.390625 8.933594 3.429688 8.90625 C 3.46875 8.878906 3.488281 8.835938 3.46875 8.808594 L 2.785156 7.742188 L 2.902344 7.671875 L 3.585938 8.738281 C 3.605469 8.765625 3.65625 8.769531 3.695312 8.742188 C 3.738281 8.714844 3.753906 8.671875 3.734375 8.644531 L 3.050781 7.582031 L 3.167969 7.507812 L 3.851562 8.574219 C 3.871094 8.601562 3.921875 8.605469 3.964844 8.578125 C 4.003906 8.550781 4.019531 8.507812 4 8.480469 L 3.316406 7.417969 L 3.433594 7.34375 L 4.117188 8.410156 C 4.136719 8.4375 4.1875 8.441406 4.230469 8.414062 C 4.269531 8.386719 4.285156 8.34375 4.265625 8.316406 L 3.585938 7.253906 L 3.703125 7.179688 L 4.382812 8.246094 C 4.402344 8.273438 4.457031 8.277344 4.496094 8.25 C 4.535156 8.222656 4.550781 8.179688 4.53125 8.152344 L 3.851562 7.089844 L 3.96875 7.015625 L 4.648438 8.082031 C 4.667969 8.109375 4.722656 8.113281 4.761719 8.085938 C 4.800781 8.058594 4.820312 8.015625 4.796875 7.988281 L 4.117188 6.925781 L 4.246094 6.847656 L 4.914062 7.921875 C 4.933594 7.949219 4.984375 7.949219 5.023438 7.925781 C 5.0625 7.898438 5.082031 7.855469 5.0625 7.828125 L 4.394531 6.753906 L 4.457031 6.714844 L 4.242188 6.554688 C 4.222656 6.542969 4.097656 6.4375 3.90625 6.273438 Z M 3.90625 6.273438 "/>
<path fill-rule="nonzero" fill="rgb(30%,30%,30%)" fill-opacity="1" d="M 5.136719 7.664062 C 5.1875 7.742188 5.308594 7.753906 5.417969 7.683594 C 5.480469 7.644531 5.527344 7.585938 5.550781 7.53125 L 4.570312 6.800781 Z M 5.136719 7.664062 "/>
<path fill-rule="nonzero" fill="rgb(30%,30%,30%)" fill-opacity="1" d="M 6.980469 6.546875 L 6.34375 5.574219 L 6.511719 5.472656 L 7.152344 6.441406 C 7.203125 6.515625 7.324219 6.527344 7.433594 6.457031 C 7.546875 6.386719 7.609375 6.265625 7.558594 6.1875 L 6.917969 5.222656 L 7.085938 5.117188 L 7.726562 6.085938 C 7.777344 6.164062 7.910156 6.167969 8.019531 6.097656 C 8.128906 6.027344 8.179688 5.914062 8.132812 5.835938 L 7.492188 4.871094 L 7.722656 4.730469 L 8.359375 5.695312 C 8.410156 5.769531 8.542969 5.777344 8.652344 5.707031 C 8.765625 5.636719 8.816406 5.519531 8.765625 5.445312 L 8.128906 4.480469 L 8.296875 4.375 L 8.929688 5.34375 C 8.980469 5.417969 9.117188 5.421875 9.226562 5.351562 C 9.335938 5.28125 9.386719 5.167969 9.335938 5.09375 L 8.703125 4.125 L 8.871094 4.023438 L 9.503906 4.988281 C 9.554688 5.066406 9.6875 5.070312 9.800781 5 C 9.910156 4.929688 9.960938 4.816406 9.910156 4.738281 L 9.277344 3.773438 L 9.445312 3.671875 L 10.050781 4.652344 C 10.101562 4.730469 10.234375 4.734375 10.34375 4.664062 C 10.457031 4.59375 10.488281 4.488281 10.441406 4.410156 L 9.664062 3.171875 C 9.652344 3.152344 9.613281 3.097656 9.613281 3.097656 C 9.535156 2.96875 9.320312 2.953125 9.136719 3.066406 L 5.386719 5.375 L 6.980469 6.609375 C 6.980469 6.589844 6.988281 6.5625 6.980469 6.546875 Z M 6.980469 6.546875 "/>
<path fill-rule="nonzero" fill="rgb(30%,30%,30%)" fill-opacity="1" d="M 4.933594 6.28125 C 4.90625 6.171875 4.960938 6.054688 5.0625 6.007812 C 4.972656 6.046875 4.914062 6.140625 4.921875 6.238281 C 4.925781 6.339844 4.992188 6.425781 5.089844 6.457031 L 5.085938 6.453125 C 5.007812 6.425781 4.949219 6.359375 4.933594 6.28125 Z M 4.933594 6.28125 "/>
<path fill-rule="nonzero" fill="rgb(30%,30%,30%)" fill-opacity="1" d="M 5.648438 5.996094 L 5.816406 5.890625 L 6.453125 6.863281 C 6.503906 6.941406 6.636719 6.949219 6.746094 6.878906 C 6.832031 6.824219 6.882812 6.742188 6.875 6.671875 L 5.28125 5.4375 L 4.035156 6.203125 C 4.226562 6.371094 4.351562 6.472656 4.371094 6.488281 L 4.585938 6.648438 L 4.628906 6.621094 L 4.699219 6.734375 L 5.675781 7.460938 C 5.691406 7.421875 5.691406 7.378906 5.667969 7.347656 L 5.089844 6.457031 C 4.984375 6.421875 4.914062 6.324219 4.917969 6.214844 C 4.921875 6.105469 4.996094 6.011719 5.101562 5.988281 C 5.210938 5.960938 5.320312 6.007812 5.375 6.101562 C 5.429688 6.195312 5.414062 6.316406 5.339844 6.394531 L 5.878906 7.21875 C 5.929688 7.296875 6.0625 7.300781 6.171875 7.230469 C 6.199219 7.214844 6.226562 7.191406 6.25 7.164062 C 6.039062 7.007812 5.855469 6.878906 5.746094 6.796875 C 5.707031 6.769531 5.816406 6.699219 5.828125 6.683594 L 6.304688 7.023438 C 6.300781 7.003906 6.296875 6.984375 6.285156 6.96875 Z M 5.648438 5.996094 "/>
</svg>
