<?xml version="1.0" encoding="UTF-8"?>
<svg xmlns="http://www.w3.org/2000/svg" xmlns:xlink="http://www.w3.org/1999/xlink" width="11" height="10.496039" viewBox="0 0 11 10.496039">
<path fill-rule="nonzero" fill="rgb(30%,30%,30%)" fill-opacity="1" d="M 10.914062 2.246094 C 10.746094 1.847656 9.90625 1.890625 9.90625 1.890625 L 10.636719 1.582031 L 10.496094 1.253906 L 9.898438 1.503906 C 9.898438 1.503906 10.359375 0.925781 10.164062 0.457031 C 9.96875 -0.0078125 9.578125 0 9.578125 0 L 8.054688 0.640625 L 9.40625 0.699219 L 9.292969 0.433594 C 9.292969 0.433594 9.71875 0.332031 9.832031 0.597656 C 9.941406 0.863281 9.882812 1.277344 9.378906 1.566406 C 8.878906 1.855469 8.371094 2.128906 8.371094 2.128906 L 8.339844 2.140625 C 8.210938 2.132812 8.085938 2.15625 7.964844 2.199219 C 7.847656 2.25 7.761719 2.339844 7.726562 2.433594 C 7.699219 2.421875 7.671875 2.410156 7.640625 2.40625 C 7.546875 2.390625 7.457031 2.40625 7.371094 2.445312 C 7.351562 2.457031 7.332031 2.464844 7.308594 2.472656 C 7.273438 2.488281 7.230469 2.507812 7.191406 2.527344 C 6.695312 2.347656 5.257812 1.941406 3.507812 2.535156 C 2.105469 3.011719 1.089844 4.503906 0.964844 5.296875 C 0.835938 5.257812 -0.171875 5.625 0.0234375 6.046875 L 0.0585938 6.105469 C 0.296875 6.464844 1.238281 5.878906 1.25 5.863281 C 1.660156 6.070312 2.464844 5.957031 3.539062 5.582031 C 3.738281 5.53125 3.933594 5.46875 4.128906 5.394531 C 4.128906 5.402344 4.132812 5.410156 4.132812 5.414062 C 4.140625 5.429688 4.144531 5.441406 4.148438 5.453125 C 4.183594 5.535156 4.246094 5.609375 4.324219 5.660156 C 4.339844 5.667969 4.355469 5.679688 4.375 5.683594 C 4.320312 5.777344 4.3125 5.90625 4.359375 6.03125 C 4.398438 6.125 4.453125 6.214844 4.523438 6.292969 L 5.632812 9.160156 C 5.632812 9.160156 5.6875 9.976562 5.277344 10.121094 C 4.871094 10.261719 4.730469 9.851562 4.730469 9.851562 L 5 9.757812 L 3.988281 8.816406 L 4.507812 10.3125 C 4.507812 10.3125 4.921875 10.625 5.464844 10.4375 C 5.871094 10.292969 5.882812 9.453125 5.882812 9.453125 L 6.144531 10.199219 L 6.484375 10.082031 L 6.269531 9.472656 C 6.269531 9.472656 6.816406 9.96875 7.296875 9.800781 C 7.773438 9.636719 7.835938 9.089844 7.835938 9.089844 L 7.25 7.6875 L 7.105469 9.03125 L 7.378906 8.933594 C 7.378906 8.933594 7.453125 9.367188 7.179688 9.460938 C 6.910156 9.554688 6.5 9.46875 6.242188 8.949219 C 6.128906 8.714844 4.996094 6.222656 4.996094 6.222656 L 4.984375 6.191406 C 4.996094 6.066406 4.980469 5.9375 4.9375 5.816406 C 4.894531 5.695312 4.808594 5.605469 4.714844 5.566406 C 4.730469 5.539062 4.738281 5.511719 4.746094 5.480469 C 4.765625 5.390625 4.753906 5.296875 4.71875 5.210938 C 4.714844 5.203125 4.710938 5.191406 4.707031 5.183594 C 4.703125 5.171875 4.699219 5.160156 4.695312 5.152344 C 5.460938 4.792969 6.5 4.15625 7.488281 3.074219 C 7.519531 3.039062 7.566406 3.039062 7.601562 3.019531 C 7.613281 3.015625 7.625 3.007812 7.636719 3.003906 C 7.71875 2.964844 7.789062 2.902344 7.835938 2.820312 C 7.847656 2.804688 7.851562 2.789062 7.859375 2.769531 C 7.953125 2.816406 8.082031 2.820312 8.203125 2.769531 C 8.300781 2.726562 8.386719 2.667969 8.460938 2.59375 L 9.632812 2.164062 C 9.632812 2.164062 10.445312 2.054688 10.613281 2.453125 C 10.777344 2.851562 10.382812 3.015625 10.382812 3.015625 L 10.269531 2.753906 L 9.394531 3.824219 L 10.851562 3.210938 C 10.851562 3.210938 11.136719 2.777344 10.914062 2.246094 Z M 0.722656 5.910156 C 0.488281 6.019531 0.269531 6.046875 0.234375 5.96875 C 0.195312 5.890625 0.355469 5.738281 0.589844 5.628906 C 0.824219 5.519531 1.042969 5.492188 1.078125 5.570312 C 1.117188 5.648438 0.957031 5.800781 0.722656 5.910156 Z M 2.144531 5.25 C 1.949219 5.332031 1.726562 5.253906 1.652344 5.070312 C 1.574219 4.886719 1.671875 4.675781 1.867188 4.59375 C 2.0625 4.511719 2.28125 4.589844 2.359375 4.773438 C 2.433594 4.957031 2.339844 5.167969 2.144531 5.25 Z M 4.753906 5.898438 C 4.796875 6.019531 4.804688 6.195312 4.785156 6.277344 C 4.71875 6.226562 4.605469 6.089844 4.5625 5.96875 C 4.523438 5.859375 4.550781 5.765625 4.589844 5.75 C 4.628906 5.734375 4.714844 5.789062 4.753906 5.898438 Z M 8.136719 2.570312 C 8.027344 2.613281 7.929688 2.589844 7.914062 2.550781 C 7.898438 2.511719 7.949219 2.425781 8.058594 2.378906 C 8.175781 2.332031 8.351562 2.320312 8.433594 2.332031 C 8.386719 2.402344 8.253906 2.519531 8.136719 2.570312 Z M 8.136719 2.570312 "/>
</svg>
