<?xml version="1.0" encoding="UTF-8"?>
<svg xmlns="http://www.w3.org/2000/svg" xmlns:xlink="http://www.w3.org/1999/xlink" width="11" height="10.632772" viewBox="0 0 11 10.632772">
<path fill-rule="nonzero" fill="rgb(30%,30%,30%)" fill-opacity="1" d="M 0.125 0.0351562 C 0.25 -0.0351562 0.40625 0.00390625 0.480469 0.125 L 3.730469 5.617188 C 3.800781 5.742188 3.761719 5.898438 3.640625 5.972656 C 3.515625 6.042969 3.359375 6.003906 3.285156 5.878906 L 0.0351562 0.390625 C -0.0351562 0.265625 0.00390625 0.109375 0.125 0.0351562 Z M 0.125 0.0351562 "/>
<path fill-rule="nonzero" fill="rgb(30%,30%,30%)" fill-opacity="1" d="M 3.253906 10.632812 C 2.496094 10.632812 1.882812 10.019531 1.882812 9.261719 C 1.882812 8.507812 2.496094 7.894531 3.253906 7.894531 C 4.007812 7.894531 4.621094 8.507812 4.621094 9.261719 C 4.621094 10.019531 4.007812 10.632812 3.253906 10.632812 Z M 3.253906 8.667969 C 2.925781 8.667969 2.65625 8.933594 2.65625 9.261719 C 2.65625 9.589844 2.925781 9.859375 3.253906 9.859375 C 3.582031 9.859375 3.847656 9.589844 3.847656 9.261719 C 3.847656 8.933594 3.582031 8.667969 3.253906 8.667969 Z M 3.253906 8.667969 "/>
<path fill-rule="nonzero" fill="rgb(30%,30%,30%)" fill-opacity="1" d="M 9.628906 10.632812 C 8.875 10.632812 8.261719 10.019531 8.261719 9.261719 C 8.261719 8.507812 8.875 7.894531 9.628906 7.894531 C 10.386719 7.894531 11 8.507812 11 9.261719 C 11 10.019531 10.386719 10.632812 9.628906 10.632812 Z M 9.628906 8.667969 C 9.300781 8.667969 9.035156 8.933594 9.035156 9.261719 C 9.035156 9.589844 9.300781 9.859375 9.628906 9.859375 C 9.957031 9.859375 10.226562 9.589844 10.226562 9.261719 C 10.226562 8.933594 9.957031 8.667969 9.628906 8.667969 Z M 9.628906 8.667969 "/>
<path fill-rule="nonzero" fill="rgb(30%,30%,30%)" fill-opacity="1" d="M 8.449219 7.539062 L 4.132812 6.207031 L 4.132812 5.308594 L 4.339844 5.132812 C 4.425781 5.054688 4.535156 5.015625 4.652344 5.015625 L 6.691406 5.015625 C 6.816406 5.015625 6.933594 5.054688 7.03125 5.132812 L 8.207031 6.039062 C 8.316406 6.125 8.386719 6.253906 8.390625 6.390625 Z M 8.449219 7.539062 "/>
<path fill-rule="nonzero" fill="rgb(30%,30%,30%)" fill-opacity="1" stroke-width="0.70866" stroke-linecap="butt" stroke-linejoin="miter" stroke="rgb(11.372549%, 11.372549%, 10.588235%)" stroke-opacity="1" stroke-miterlimit="10" d="M 185.272962 709.869921 L 185.272962 638.162423 C 185.272962 638.162423 228.503319 568.513513 285.800698 566.111827 C 406.914319 560.965356 779.861929 689.970233 779.861929 689.970233 C 780.891223 687.225448 690.313331 708.154431 712.271608 867.351938 L 424.755419 867.351938 C 424.755419 867.351938 458.722129 732.171296 350.989333 682.078977 C 250.804694 635.07454 185.272962 709.869921 185.272962 709.869921 Z M 185.272962 709.869921 " transform="matrix(0.0113852, 0, 0, 0.0113852, 0, 0)"/>
</svg>
