<?xml version="1.0" encoding="UTF-8"?>
<svg xmlns="http://www.w3.org/2000/svg" xmlns:xlink="http://www.w3.org/1999/xlink" width="10.881858" height="11" viewBox="0 0 10.881858 11">
<path fill-rule="nonzero" fill="rgb(30%,30%,30%)" fill-opacity="1" d="M 1.785156 1.824219 C 1.785156 2.277344 1.785156 2.730469 1.785156 3.183594 C 1.78125 3.507812 1.769531 3.832031 1.761719 4.15625 C 1.761719 4.273438 1.707031 4.359375 1.609375 4.421875 C 1.578125 4.445312 1.546875 4.496094 1.546875 4.535156 C 1.542969 5.328125 1.542969 6.125 1.546875 6.921875 C 1.546875 6.964844 1.582031 7.027344 1.621094 7.050781 C 2 7.289062 2.3125 7.59375 2.464844 8.023438 C 2.53125 8.21875 2.574219 8.429688 2.589844 8.640625 C 2.640625 9.238281 2.558594 9.820312 2.246094 10.347656 C 2.085938 10.617188 1.882812 10.835938 1.582031 10.945312 C 1.21875 11.074219 0.902344 10.96875 0.632812 10.71875 C 0.359375 10.464844 0.195312 10.152344 0.109375 9.785156 C -0.00390625 9.324219 -0.0390625 8.859375 0.046875 8.386719 C 0.15625 7.804688 0.449219 7.34375 0.96875 7.042969 C 1.042969 7 1.074219 6.953125 1.074219 6.867188 C 1.070312 6.496094 1.082031 6.125 1.082031 5.757812 C 1.078125 5.34375 1.074219 4.933594 1.066406 4.523438 C 1.066406 4.488281 1.039062 4.441406 1.007812 4.421875 C 0.882812 4.332031 0.839844 4.230469 0.871094 4.082031 C 0.878906 4.039062 0.878906 3.992188 0.878906 3.949219 C 0.878906 2.761719 0.878906 1.574219 0.878906 0.386719 C 0.878906 0.09375 0.96875 0 1.261719 0 C 1.332031 0 1.402344 0 1.46875 0 C 1.671875 0.00390625 1.78125 0.113281 1.785156 0.320312 C 1.785156 0.820312 1.785156 1.320312 1.785156 1.824219 Z M 1.351562 0.1875 C 1.269531 0.191406 1.203125 0.257812 1.210938 0.335938 C 1.21875 0.421875 1.273438 0.460938 1.359375 0.460938 C 1.4375 0.460938 1.5 0.402344 1.5 0.328125 C 1.5 0.25 1.429688 0.183594 1.351562 0.1875 Z M 1.351562 0.1875 "/>
<path fill-rule="nonzero" fill="rgb(30%,30%,30%)" fill-opacity="1" d="M 5.082031 8.375 C 5.082031 8.332031 5.082031 8.300781 5.082031 8.265625 C 5.082031 7.023438 5.082031 5.78125 5.085938 4.539062 C 5.085938 4.464844 5.066406 4.417969 5 4.382812 C 4.902344 4.332031 4.863281 4.238281 4.867188 4.132812 C 4.867188 4.003906 4.882812 3.878906 4.882812 3.75 C 4.886719 2.621094 4.886719 1.496094 4.886719 0.367188 C 4.886719 0.105469 4.988281 0 5.246094 0 C 5.332031 0 5.414062 0 5.496094 0 C 5.675781 0.0117188 5.789062 0.121094 5.789062 0.296875 C 5.789062 1.261719 5.792969 2.222656 5.789062 3.183594 C 5.789062 3.492188 5.773438 3.796875 5.769531 4.105469 C 5.769531 4.238281 5.726562 4.335938 5.613281 4.40625 C 5.578125 4.429688 5.554688 4.492188 5.554688 4.53125 C 5.554688 5.484375 5.554688 6.4375 5.554688 7.386719 C 5.554688 7.683594 5.554688 7.980469 5.550781 8.28125 C 5.550781 8.371094 5.585938 8.394531 5.671875 8.402344 C 6.132812 8.433594 6.597656 8.4375 7.050781 8.558594 C 7.144531 8.582031 7.234375 8.617188 7.316406 8.664062 C 7.351562 8.683594 7.390625 8.753906 7.378906 8.78125 C 7.355469 8.84375 7.304688 8.875 7.222656 8.851562 C 7.039062 8.796875 6.855469 8.75 6.671875 8.722656 C 6.40625 8.683594 6.132812 8.675781 5.867188 8.640625 C 5.351562 8.570312 4.839844 8.625 4.328125 8.671875 C 4.082031 8.695312 3.84375 8.769531 3.601562 8.832031 C 3.523438 8.851562 3.472656 8.824219 3.453125 8.765625 C 3.445312 8.734375 3.484375 8.65625 3.515625 8.644531 C 3.710938 8.582031 3.90625 8.507812 4.109375 8.476562 C 4.382812 8.433594 4.664062 8.421875 4.941406 8.394531 C 4.988281 8.390625 5.03125 8.382812 5.082031 8.375 Z M 5.378906 0.527344 C 5.457031 0.523438 5.519531 0.464844 5.519531 0.390625 C 5.519531 0.316406 5.445312 0.242188 5.371094 0.246094 C 5.300781 0.25 5.230469 0.320312 5.230469 0.386719 C 5.226562 0.460938 5.300781 0.527344 5.378906 0.527344 Z M 5.378906 0.527344 "/>
<path fill-rule="nonzero" fill="rgb(30%,30%,30%)" fill-opacity="1" d="M 7.386719 8.894531 C 7.421875 9.332031 7.300781 9.730469 7.003906 10.070312 C 6.789062 10.316406 6.519531 10.496094 6.214844 10.617188 C 5.8125 10.777344 5.398438 10.808594 4.984375 10.730469 C 4.5 10.640625 4.078125 10.421875 3.785156 10.019531 C 3.546875 9.703125 3.414062 9.335938 3.441406 8.925781 C 3.441406 8.910156 3.445312 8.890625 3.449219 8.875 C 3.449219 8.871094 3.457031 8.863281 3.460938 8.855469 C 3.667969 8.992188 3.902344 9.023438 4.136719 9.058594 C 4.746094 9.152344 5.355469 9.144531 5.96875 9.132812 C 6.292969 9.125 6.609375 9.105469 6.925781 9.035156 C 7.078125 9 7.226562 8.945312 7.386719 8.894531 Z M 7.386719 8.894531 "/>
<path fill-rule="nonzero" fill="rgb(30%,30%,30%)" fill-opacity="1" d="M 6.925781 9.035156 C 6.609375 9.105469 6.292969 9.125 5.96875 9.132812 C 5.355469 9.144531 4.746094 9.152344 4.136719 9.058594 C 3.902344 9.023438 3.667969 8.992188 3.460938 8.855469 C 3.457031 8.863281 3.449219 8.871094 3.449219 8.875 C 3.445312 8.890625 3.441406 8.910156 3.441406 8.925781 C 3.414062 9.335938 3.546875 9.703125 3.785156 10.019531 C 4.078125 10.421875 4.5 10.640625 4.984375 10.730469 C 5.398438 10.808594 5.8125 10.777344 6.214844 10.617188 C 6.519531 10.496094 6.789062 10.316406 7.003906 10.070312 C 7.300781 9.730469 7.421875 9.332031 7.386719 8.894531 C 7.226562 8.945312 7.078125 9 6.925781 9.035156 Z M 6.925781 9.035156 "/>
<path fill-rule="nonzero" fill="rgb(30%,30%,30%)" fill-opacity="1" d="M 2.589844 8.640625 C 2.574219 8.429688 2.53125 8.21875 2.464844 8.023438 C 2.3125 7.59375 2 7.289062 1.621094 7.050781 C 1.582031 7.027344 1.546875 6.964844 1.546875 6.921875 C 1.542969 6.125 1.542969 5.328125 1.546875 4.535156 C 1.546875 4.496094 1.578125 4.445312 1.609375 4.421875 C 1.707031 4.359375 1.761719 4.273438 1.761719 4.15625 C 1.769531 3.832031 1.78125 3.507812 1.785156 3.183594 C 1.785156 2.730469 1.785156 2.277344 1.785156 1.824219 C 1.785156 1.320312 1.785156 0.820312 1.785156 0.320312 C 1.78125 0.113281 1.671875 0.00390625 1.46875 0 C 1.402344 0 1.332031 0 1.261719 0 C 0.96875 0 0.878906 0.09375 0.878906 0.386719 C 0.878906 1.574219 0.878906 2.761719 0.878906 3.949219 C 0.878906 3.992188 0.878906 4.039062 0.871094 4.082031 C 0.839844 4.230469 0.882812 4.332031 1.007812 4.421875 C 1.039062 4.441406 1.066406 4.488281 1.066406 4.523438 C 1.074219 4.933594 1.078125 5.34375 1.082031 5.757812 C 1.082031 6.125 1.070312 6.496094 1.074219 6.867188 C 1.074219 6.953125 1.042969 7 0.96875 7.042969 C 0.449219 7.34375 0.15625 7.804688 0.046875 8.386719 C -0.0390625 8.859375 -0.00390625 9.324219 0.109375 9.785156 C 0.195312 10.152344 0.359375 10.464844 0.632812 10.71875 C 0.902344 10.96875 1.21875 11.074219 1.582031 10.945312 C 1.882812 10.835938 2.085938 10.617188 2.246094 10.347656 C 2.558594 9.820312 2.640625 9.238281 2.589844 8.640625 Z M 1.304688 0.523438 C 1.21875 0.523438 1.167969 0.480469 1.15625 0.398438 C 1.148438 0.320312 1.21875 0.25 1.296875 0.25 C 1.375 0.246094 1.445312 0.3125 1.445312 0.390625 C 1.445312 0.460938 1.382812 0.523438 1.304688 0.523438 Z M 1.304688 0.523438 "/>
<path fill-rule="nonzero" fill="rgb(30%,30%,30%)" fill-opacity="1" d="M 7.316406 8.664062 C 7.234375 8.617188 7.144531 8.582031 7.050781 8.558594 C 6.597656 8.4375 6.132812 8.433594 5.671875 8.402344 C 5.585938 8.394531 5.550781 8.371094 5.550781 8.28125 C 5.554688 7.980469 5.554688 7.683594 5.554688 7.386719 C 5.554688 6.4375 5.554688 5.484375 5.554688 4.53125 C 5.554688 4.492188 5.578125 4.429688 5.613281 4.40625 C 5.726562 4.335938 5.769531 4.238281 5.769531 4.105469 C 5.773438 3.796875 5.789062 3.492188 5.789062 3.183594 C 5.792969 2.222656 5.789062 1.261719 5.789062 0.296875 C 5.789062 0.121094 5.675781 0.0117188 5.496094 0 C 5.414062 0 5.332031 0 5.246094 0 C 4.988281 0 4.886719 0.105469 4.886719 0.367188 C 4.886719 1.496094 4.886719 2.621094 4.882812 3.75 C 4.882812 3.878906 4.867188 4.003906 4.867188 4.132812 C 4.863281 4.238281 4.902344 4.332031 5 4.382812 C 5.066406 4.417969 5.085938 4.464844 5.085938 4.539062 C 5.082031 5.78125 5.082031 7.023438 5.082031 8.265625 C 5.082031 8.300781 5.082031 8.332031 5.082031 8.375 C 5.03125 8.382812 4.988281 8.390625 4.941406 8.394531 C 4.664062 8.421875 4.382812 8.433594 4.109375 8.476562 C 3.90625 8.507812 3.710938 8.582031 3.515625 8.644531 C 3.484375 8.65625 3.445312 8.734375 3.453125 8.765625 C 3.472656 8.824219 3.523438 8.851562 3.601562 8.832031 C 3.84375 8.769531 4.082031 8.695312 4.328125 8.671875 C 4.839844 8.625 5.351562 8.570312 5.867188 8.640625 C 6.132812 8.675781 6.40625 8.683594 6.671875 8.722656 C 6.855469 8.75 7.039062 8.796875 7.222656 8.851562 C 7.304688 8.875 7.355469 8.84375 7.378906 8.78125 C 7.390625 8.753906 7.351562 8.683594 7.316406 8.664062 Z M 5.378906 0.527344 C 5.300781 0.527344 5.226562 0.460938 5.230469 0.386719 C 5.230469 0.320312 5.300781 0.25 5.371094 0.246094 C 5.445312 0.242188 5.519531 0.316406 5.519531 0.390625 C 5.519531 0.464844 5.457031 0.523438 5.378906 0.527344 Z M 5.378906 0.527344 "/>
<path fill-rule="nonzero" fill="rgb(30%,30%,30%)" fill-opacity="1" d="M 10.863281 8.625 C 10.859375 8.421875 10.851562 8.21875 10.824219 8.023438 C 10.800781 7.867188 10.765625 7.71875 10.707031 7.574219 C 10.570312 7.238281 10.335938 7.011719 10.039062 6.820312 C 9.972656 6.78125 9.90625 6.738281 9.855469 6.679688 C 9.761719 6.558594 9.796875 6.378906 9.796875 6.238281 C 9.796875 6.050781 9.800781 5.859375 9.800781 5.671875 C 9.804688 5.292969 9.808594 4.914062 9.8125 4.539062 C 9.8125 4.53125 9.808594 4.523438 9.8125 4.519531 C 9.824219 4.492188 9.832031 4.457031 9.851562 4.445312 C 9.996094 4.367188 10.03125 4.246094 10.03125 4.089844 C 10.027344 2.898438 10.027344 1.703125 10.027344 0.511719 C 10.027344 0.460938 10.03125 0.414062 10.039062 0.367188 C 10.078125 0.179688 9.960938 0.0195312 9.765625 0.0117188 C 9.65625 0.00390625 9.542969 0.0078125 9.433594 0.0117188 C 9.261719 0.015625 9.152344 0.128906 9.148438 0.300781 C 9.140625 0.644531 9.128906 0.992188 9.125 1.335938 C 9.121094 1.75 9.125 2.160156 9.125 2.570312 C 9.125 3.097656 9.125 3.625 9.125 4.148438 C 9.125 4.261719 9.15625 4.355469 9.257812 4.414062 C 9.316406 4.449219 9.339844 4.488281 9.339844 4.558594 C 9.335938 4.914062 9.335938 5.269531 9.335938 5.625 C 9.335938 5.800781 9.335938 5.980469 9.335938 6.160156 C 9.332031 6.375 9.363281 6.601562 9.207031 6.777344 C 9.136719 6.851562 9.054688 6.910156 8.972656 6.96875 C 8.773438 7.117188 8.578125 7.292969 8.476562 7.523438 C 8.402344 7.691406 8.382812 7.878906 8.367188 8.066406 C 8.285156 8.929688 8.257812 9.777344 8.390625 10.640625 C 8.421875 10.847656 8.539062 10.984375 8.714844 10.988281 C 9.300781 10.996094 9.882812 10.996094 10.464844 10.988281 C 10.667969 10.984375 10.738281 10.816406 10.773438 10.652344 C 10.820312 10.429688 10.847656 10.207031 10.863281 9.980469 C 10.894531 9.527344 10.878906 9.074219 10.863281 8.625 Z M 8.898438 9.050781 C 8.898438 9.492188 8.898438 9.933594 8.898438 10.375 C 8.898438 10.402344 8.917969 10.542969 8.828125 10.542969 C 8.722656 10.542969 8.738281 10.40625 8.738281 10.378906 C 8.738281 10.09375 8.738281 9.8125 8.734375 9.53125 C 8.734375 9.242188 8.734375 8.957031 8.734375 8.671875 C 8.734375 8.664062 8.734375 8.65625 8.734375 8.648438 C 8.738281 8.59375 8.730469 8.527344 8.808594 8.527344 C 8.890625 8.523438 8.902344 8.582031 8.898438 8.648438 C 8.898438 8.78125 8.898438 8.917969 8.898438 9.050781 Z M 9.410156 9.050781 C 9.410156 9.492188 9.410156 9.933594 9.410156 10.375 C 9.410156 10.402344 9.429688 10.542969 9.34375 10.542969 C 9.234375 10.542969 9.25 10.40625 9.25 10.378906 C 9.25 10.09375 9.25 9.8125 9.25 9.53125 C 9.25 9.242188 9.25 8.957031 9.25 8.671875 C 9.25 8.664062 9.246094 8.65625 9.246094 8.648438 C 9.25 8.59375 9.242188 8.527344 9.320312 8.527344 C 9.402344 8.523438 9.414062 8.582031 9.410156 8.648438 C 9.410156 8.78125 9.410156 8.917969 9.410156 9.050781 Z M 9.597656 0.476562 C 9.519531 0.476562 9.457031 0.417969 9.453125 0.34375 C 9.449219 0.273438 9.523438 0.199219 9.597656 0.199219 C 9.667969 0.199219 9.738281 0.265625 9.742188 0.335938 C 9.746094 0.410156 9.675781 0.476562 9.597656 0.476562 Z M 9.925781 9.050781 C 9.925781 9.492188 9.925781 9.933594 9.925781 10.375 C 9.925781 10.402344 9.945312 10.542969 9.855469 10.542969 C 9.75 10.542969 9.761719 10.40625 9.761719 10.378906 C 9.761719 10.09375 9.761719 9.8125 9.761719 9.53125 C 9.761719 9.242188 9.761719 8.957031 9.761719 8.671875 C 9.761719 8.664062 9.761719 8.65625 9.761719 8.648438 C 9.765625 8.59375 9.757812 8.527344 9.835938 8.527344 C 9.917969 8.523438 9.925781 8.582031 9.925781 8.648438 C 9.925781 8.78125 9.925781 8.917969 9.925781 9.050781 Z M 10.441406 9.050781 C 10.441406 9.492188 10.4375 9.933594 10.4375 10.375 C 10.4375 10.402344 10.457031 10.542969 10.371094 10.542969 C 10.261719 10.542969 10.277344 10.40625 10.277344 10.378906 C 10.277344 10.09375 10.277344 9.8125 10.277344 9.53125 C 10.277344 9.242188 10.277344 8.957031 10.277344 8.671875 C 10.277344 8.664062 10.277344 8.65625 10.277344 8.648438 C 10.277344 8.59375 10.273438 8.527344 10.351562 8.527344 C 10.429688 8.523438 10.441406 8.582031 10.441406 8.648438 C 10.4375 8.78125 10.441406 8.917969 10.441406 9.050781 Z M 10.441406 9.050781 "/>
</svg>
