<?xml version="1.0" encoding="UTF-8" standalone="no"?>
<!-- Created with Inkscape (http://www.inkscape.org/) -->

<svg
   xmlns:dc="http://purl.org/dc/elements/1.1/"
   xmlns:cc="http://creativecommons.org/ns#"
   xmlns:rdf="http://www.w3.org/1999/02/22-rdf-syntax-ns#"
   xmlns:svg="http://www.w3.org/2000/svg"
   xmlns="http://www.w3.org/2000/svg"
   xmlns:xlink="http://www.w3.org/1999/xlink"
   xmlns:sodipodi="http://sodipodi.sourceforge.net/DTD/sodipodi-0.dtd"
   xmlns:inkscape="http://www.inkscape.org/namespaces/inkscape"
   width="30px"
   height="30px"
   version="1.1"
   id="svg8"
   inkscape:version="0.92.4 5da689c313, 2019-01-14"
   sodipodi:docname="container.svg">
  <defs
     id="defs2" />
  <sodipodi:namedview
     id="base"
     pagecolor="#ffffff"
     bordercolor="#666666"
     borderopacity="1.0"
     inkscape:pageopacity="0.0"
     inkscape:pageshadow="2"
     inkscape:zoom="13.049334"
     inkscape:cx="18.679046"
     inkscape:cy="12.165829"
     inkscape:document-units="px"
     inkscape:current-layer="layer1"
     showgrid="false"
     inkscape:snap-page="false"
     units="px"
     inkscape:window-width="1884"
     inkscape:window-height="1061"
     inkscape:window-x="0"
     inkscape:window-y="0"
     inkscape:window-maximized="1"
     fit-margin-top="0"
     fit-margin-left="0"
     fit-margin-right="0"
     fit-margin-bottom="0" />
  <metadata
     id="metadata5">
    <rdf:RDF>
      <cc:Work
         rdf:about="">
        <dc:format>image/svg+xml</dc:format>
        <dc:type
           rdf:resource="http://purl.org/dc/dcmitype/StillImage" />
        <dc:title></dc:title>
      </cc:Work>
    </rdf:RDF>
  </metadata>
    <circle
       style="color:#000000;clip-rule:nonzero;display:inline;overflow:visible;visibility:visible;opacity:1;isolation:auto;mix-blend-mode:normal;color-interpolation:sRGB;color-interpolation-filters:linearRGB;solid-color:#000000;solid-opacity:1;vector-effect:none;fill:#ffffff;fill-opacity:1;fill-rule:evenodd;stroke:#808080;stroke-width:1;stroke-linecap:butt;stroke-linejoin:miter;stroke-miterlimit:4;stroke-dasharray:none;stroke-dashoffset:0;stroke-opacity:1;marker:none;color-rendering:auto;image-rendering:auto;shape-rendering:auto;text-rendering:auto;enable-background:accumulate"
       id="path815"
       cx="15"
       cy="15"
       r="14.5" />
<g transform="translate(6.5,7.5)"><path fill-rule="evenodd" fill="rgb(30%,30%,30%)" fill-opacity="1" d="M 15.546875 1.246094 C 14.621094 0.414062 13.496094 0 12.167969 0 C 10.414062 0 9.191406 0.734375 8.5 2.203125 C 7.808594 0.734375 6.585938 0 4.832031 0 C 3.503906 0 2.378906 0.414062 1.453125 1.246094 C 0.484375 2.113281 0 3.1875 0 4.46875 C 0 10.347656 8.085938 14.746094 8.5 14.871094 C 8.914062 14.746094 17 10.347656 17 4.46875 C 17 3.1875 16.515625 2.113281 15.546875 1.246094 Z M 8.878906 7.480469 L 8.203125 8.433594 C 10.457031 8.429688 12.945312 8.445312 12.945312 8.480469 C 12.945312 9.699219 12.101562 10.765625 10.847656 11.328125 L 10.847656 11.652344 C 10.847656 11.75 10.730469 11.832031 10.589844 11.832031 L 6.992188 11.832031 C 6.847656 11.832031 6.734375 11.75 6.734375 11.652344 L 6.734375 11.328125 C 5.480469 10.765625 4.632812 9.699219 4.632812 8.480469 C 4.632812 8.457031 5.992188 8.441406 7.613281 8.433594 C 7.515625 7.84375 7.203125 7.664062 7.203125 7.664062 C 5.722656 8.773438 4.066406 4.847656 4.066406 4.847656 C 8.707031 4.925781 7.574219 7.4375 7.574219 7.4375 C 7.132812 6.859375 6.042969 6.191406 6.042969 6.191406 C 6.765625 6.714844 7.464844 7.667969 7.8125 8.183594 C 8.363281 7.5 9.96875 5.601562 11.667969 4.476562 C 11.667969 4.476562 9.773438 5.234375 8.339844 7.0625 C 8.339844 7.0625 6.367188 3.039062 13.515625 3.039062 C 13.515625 3.039062 11.585938 10.285156 8.878906 7.480469 Z M 8.878906 7.480469 "/>
</g>
</svg>
