<?xml version="1.0" encoding="UTF-8"?>
<svg xmlns="http://www.w3.org/2000/svg" xmlns:xlink="http://www.w3.org/1999/xlink" width="11" height="9.237789" viewBox="0 0 11 9.237789">
<path fill-rule="nonzero" fill="rgb(30%,30%,30%)" fill-opacity="1" d="M 10.160156 6.230469 L 10.160156 5.328125 L 9.601562 5.328125 L 9.601562 5.035156 L 10.160156 5.035156 L 10.160156 4.453125 L 9.601562 4.453125 L 9.601562 4.160156 L 10.160156 4.160156 L 10.160156 3.453125 C 10.160156 3.210938 8.335938 2.847656 7.777344 2.773438 C 7.574219 2.746094 7.210938 2.742188 6.828125 2.75 L 6.828125 0.863281 L 6.730469 0.863281 L 6.730469 0.707031 L 6.390625 0.707031 L 6.390625 0.863281 L 6.242188 0.863281 L 6.242188 2.761719 C 6.078125 2.769531 5.925781 2.773438 5.796875 2.777344 L 5.214844 0.519531 C 5.316406 0.480469 5.390625 0.382812 5.390625 0.269531 C 5.390625 0.121094 5.273438 0 5.125 0 L 1.476562 0 C 1.328125 0 1.207031 0.121094 1.207031 0.269531 C 1.207031 0.414062 1.328125 0.535156 1.476562 0.535156 L 1.621094 0.535156 L 1.621094 3.339844 C 0.761719 3.5 0.242188 4.292969 0.0625 4.621094 C -0.128906 4.988281 0.476562 5.011719 0.476562 5.011719 C 0.175781 5.445312 0 5.972656 0 6.542969 C 0 8.03125 1.207031 9.238281 2.695312 9.238281 C 4.042969 9.238281 5.15625 8.25 5.355469 6.957031 L 7.976562 6.945312 C 7.875 7.152344 7.816406 7.386719 7.816406 7.632812 C 7.816406 8.511719 8.53125 9.222656 9.410156 9.222656 C 10.289062 9.222656 11 8.511719 11 7.632812 C 11 7.027344 10.660156 6.5 10.160156 6.230469 Z M 2.695312 7.519531 C 2.15625 7.519531 1.71875 7.082031 1.71875 6.542969 C 1.71875 6 2.15625 5.5625 2.695312 5.5625 C 3.234375 5.5625 3.675781 6 3.675781 6.542969 C 3.675781 7.082031 3.234375 7.519531 2.695312 7.519531 Z M 2.253906 3.335938 L 2.253906 0.535156 L 4.699219 0.535156 L 5.421875 3.335938 C 5.421875 3.335938 3.40625 3.328125 2.253906 3.335938 Z M 9.386719 8.15625 C 9.078125 8.15625 8.828125 7.90625 8.828125 7.597656 C 8.828125 7.289062 9.078125 7.039062 9.386719 7.039062 C 9.695312 7.039062 9.945312 7.289062 9.945312 7.597656 C 9.945312 7.90625 9.695312 8.15625 9.386719 8.15625 Z M 9.386719 8.15625 "/>
</svg>
