<?xml version="1.0" encoding="UTF-8"?>
<svg xmlns="http://www.w3.org/2000/svg" xmlns:xlink="http://www.w3.org/1999/xlink" width="11" height="7.227645" viewBox="0 0 11 7.227645">
<path fill-rule="nonzero" fill="rgb(30%,30%,30%)" fill-opacity="1" d="M 0.164062 5.765625 C 0.0546875 5.945312 -0.0078125 6.140625 0 6.351562 C 1.214844 7.167969 4.976562 6.988281 6.519531 6.847656 C 6.523438 6.9375 6.53125 7.054688 6.53125 7.214844 C 7.042969 7.28125 10.179688 7.070312 10.835938 6.878906 C 10.851562 6.660156 10.808594 5.867188 10.800781 5.671875 C 9.796875 5.6875 7.773438 5.476562 6.6875 6.171875 C 5.167969 6.300781 1.554688 6.476562 0.164062 5.765625 Z M 0.164062 5.765625 "/>
<path fill-rule="nonzero" fill="rgb(30%,30%,30%)" fill-opacity="1" d="M 10.980469 3.933594 C 10.910156 3.257812 10.644531 2.550781 10.078125 2.179688 C 10.078125 1.71875 10.03125 0.910156 10.03125 0.449219 C 9.136719 0.441406 8.132812 0.433594 7.265625 0.4375 C 6.964844 0.25 6.53125 -0.0195312 6.332031 0 C 6.3125 0.00390625 6.292969 0.0078125 6.277344 0.015625 C 5.984375 0.101562 5.644531 0.664062 5.375 1.113281 C 5.269531 1.285156 5.132812 1.679688 5.132812 1.679688 C 5.128906 1.726562 5.128906 1.769531 5.132812 1.8125 C 4.992188 1.929688 4.859375 2.054688 4.730469 2.1875 L 5.011719 2.492188 L 5.789062 2.707031 C 5.941406 2.75 6.066406 2.875 6.070312 2.992188 C 6.074219 3.070312 6.023438 3.121094 5.933594 3.136719 C 5.886719 3.140625 5.84375 3.136719 5.800781 3.125 L 5.515625 3.046875 C 5.59375 3.144531 5.625 3.273438 5.582031 3.34375 C 5.566406 3.371094 5.539062 3.386719 5.511719 3.390625 C 5.457031 3.398438 5.390625 3.367188 5.332031 3.304688 L 4.953125 2.890625 L 4.355469 2.726562 C 4.355469 2.726562 4.351562 2.726562 4.351562 2.726562 C 4.246094 2.875 4.113281 3.023438 3.964844 3.164062 L 4.042969 3.292969 L 4.734375 3.410156 C 4.859375 3.433594 4.96875 3.546875 4.972656 3.660156 C 4.976562 3.75 4.917969 3.820312 4.824219 3.832031 C 4.800781 3.835938 4.777344 3.835938 4.753906 3.832031 L 4.324219 3.757812 L 4.363281 3.820312 C 4.414062 3.910156 4.421875 4.03125 4.371094 4.089844 C 4.359375 4.105469 4.339844 4.117188 4.320312 4.121094 C 4.277344 4.128906 4.226562 4.09375 4.191406 4.035156 L 3.988281 3.699219 L 3.570312 3.628906 C 3.53125 3.621094 3.488281 3.605469 3.453125 3.578125 C 3.339844 3.660156 3.21875 3.738281 3.101562 3.8125 L 3.152344 3.953125 L 3.5625 4.078125 C 3.660156 4.105469 3.742188 4.222656 3.742188 4.339844 C 3.742188 4.425781 3.695312 4.488281 3.625 4.5 C 3.605469 4.5 3.582031 4.5 3.5625 4.492188 L 3.339844 4.425781 L 3.363281 4.480469 C 3.398438 4.574219 3.386719 4.699219 3.335938 4.753906 C 3.324219 4.765625 3.304688 4.773438 3.289062 4.777344 C 3.242188 4.785156 3.195312 4.746094 3.171875 4.675781 L 3.035156 4.332031 L 2.640625 4.210938 C 2.597656 4.195312 2.558594 4.167969 2.53125 4.132812 C 2.238281 4.28125 1.964844 4.394531 1.757812 4.464844 C 1.210938 4.644531 0.136719 4.640625 0.171875 5.386719 C 1.363281 6.207031 4.113281 6.277344 6.582031 5.886719 C 8.035156 5.046875 10.09375 5.566406 10.808594 5.351562 C 10.960938 5.046875 11.039062 4.5 10.980469 3.933594 Z M 5.230469 1.789062 C 5.222656 1.742188 5.234375 1.695312 5.261719 1.65625 C 5.332031 1.554688 5.410156 1.421875 5.492188 1.285156 C 5.742188 0.871094 6.085938 0.304688 6.34375 0.226562 L 6.347656 0.226562 C 6.359375 0.222656 6.371094 0.21875 6.382812 0.21875 C 6.394531 0.214844 6.40625 0.214844 6.414062 0.214844 C 6.578125 0.214844 6.84375 0.3125 7.082031 0.441406 C 7.066406 0.441406 7.378906 0.636719 7.484375 0.742188 C 7.511719 0.769531 7.539062 0.800781 7.558594 0.832031 C 7.5625 0.839844 7.5625 0.851562 7.566406 0.859375 L 7.566406 0.863281 C 7.605469 1.277344 7.289062 1.574219 7.019531 1.75 C 6.632812 1.996094 6.167969 2.121094 5.863281 2.152344 L 5.855469 2.15625 C 5.796875 2.160156 5.738281 2.164062 5.679688 2.164062 C 5.609375 2.164062 5.542969 2.160156 5.476562 2.144531 C 5.375 2.117188 5.3125 2.0625 5.273438 1.996094 C 5.253906 1.945312 5.238281 1.855469 5.230469 1.789062 Z M 5.230469 1.789062 "/>
</svg>
