<?xml version="1.0" encoding="UTF-8" standalone="no"?>
<!-- Created with Inkscape (http://www.inkscape.org/) -->

<svg
   xmlns:dc="http://purl.org/dc/elements/1.1/"
   xmlns:cc="http://creativecommons.org/ns#"
   xmlns:rdf="http://www.w3.org/1999/02/22-rdf-syntax-ns#"
   xmlns:svg="http://www.w3.org/2000/svg"
   xmlns="http://www.w3.org/2000/svg"
   xmlns:xlink="http://www.w3.org/1999/xlink"
   xmlns:sodipodi="http://sodipodi.sourceforge.net/DTD/sodipodi-0.dtd"
   xmlns:inkscape="http://www.inkscape.org/namespaces/inkscape"
   width="30px"
   height="30px"
   version="1.1"
   id="svg8"
   inkscape:version="0.92.4 5da689c313, 2019-01-14"
   sodipodi:docname="container.svg">
  <defs
     id="defs2" />
  <sodipodi:namedview
     id="base"
     pagecolor="#ffffff"
     bordercolor="#666666"
     borderopacity="1.0"
     inkscape:pageopacity="0.0"
     inkscape:pageshadow="2"
     inkscape:zoom="13.049334"
     inkscape:cx="18.679046"
     inkscape:cy="12.165829"
     inkscape:document-units="px"
     inkscape:current-layer="layer1"
     showgrid="false"
     inkscape:snap-page="false"
     units="px"
     inkscape:window-width="1884"
     inkscape:window-height="1061"
     inkscape:window-x="0"
     inkscape:window-y="0"
     inkscape:window-maximized="1"
     fit-margin-top="0"
     fit-margin-left="0"
     fit-margin-right="0"
     fit-margin-bottom="0" />
  <metadata
     id="metadata5">
    <rdf:RDF>
      <cc:Work
         rdf:about="">
        <dc:format>image/svg+xml</dc:format>
        <dc:type
           rdf:resource="http://purl.org/dc/dcmitype/StillImage" />
        <dc:title></dc:title>
      </cc:Work>
    </rdf:RDF>
  </metadata>
    <circle
       style="color:#000000;clip-rule:nonzero;display:inline;overflow:visible;visibility:visible;opacity:1;isolation:auto;mix-blend-mode:normal;color-interpolation:sRGB;color-interpolation-filters:linearRGB;solid-color:#000000;solid-opacity:1;vector-effect:none;fill:#ffffff;fill-opacity:1;fill-rule:evenodd;stroke:#808080;stroke-width:1;stroke-linecap:butt;stroke-linejoin:miter;stroke-miterlimit:4;stroke-dasharray:none;stroke-dashoffset:0;stroke-opacity:1;marker:none;color-rendering:auto;image-rendering:auto;shape-rendering:auto;text-rendering:auto;enable-background:accumulate"
       id="path815"
       cx="15"
       cy="15"
       r="14.5" />
<g transform="translate(6.5,6.5)"><path fill-rule="nonzero" fill="rgb(30%,30%,30%)" fill-opacity="1" d="M 7.191406 9.132812 C 7.308594 9.121094 7.425781 9.140625 7.53125 9.1875 C 7.726562 9.269531 7.859375 9.425781 7.890625 9.585938 C 7.980469 9.5625 8.542969 9.433594 8.707031 9.957031 C 8.707031 9.957031 8.734375 9.957031 8.78125 9.957031 C 8.992188 9.953125 9.371094 9.914062 9.535156 10.386719 C 9.535156 10.386719 11.738281 10.835938 13.214844 11.589844 C 13.441406 11.703125 13.675781 11.804688 13.914062 11.890625 L 13.929688 4.757812 C 13.71875 4.640625 13.53125 4.484375 13.371094 4.296875 C 13.054688 3.925781 12.878906 3.453125 12.878906 2.964844 L 12.878906 0 L 11.796875 0 L 11.796875 0.734375 C 11.796875 1.875 10.859375 2.804688 9.707031 2.804688 L 9.664062 2.804688 C 8.511719 2.804688 7.578125 1.875 7.578125 0.734375 L 7.578125 0 L 6.492188 0 L 6.492188 2.964844 C 6.496094 3.453125 6.320312 3.925781 6 4.296875 C 5.84375 4.484375 5.652344 4.640625 5.441406 4.757812 L 5.441406 7.972656 Z M 7.191406 9.132812 "/>
<path fill-rule="nonzero" fill="rgb(30%,30%,30%)" fill-opacity="1" d="M 12.996094 12.324219 C 11.519531 11.566406 9.320312 11.121094 9.320312 11.121094 C 9.152344 10.644531 8.773438 10.6875 8.566406 10.691406 C 8.515625 10.691406 8.492188 10.691406 8.492188 10.691406 C 8.324219 10.167969 7.761719 10.292969 7.671875 10.316406 C 7.640625 10.15625 7.511719 10 7.316406 9.917969 C 7.207031 9.871094 7.089844 9.855469 6.976562 9.867188 L 4.472656 8.207031 C 4.425781 8.175781 4.371094 8.160156 4.3125 8.164062 C 4.230469 8.164062 4.152344 8.207031 4.105469 8.277344 L 4.121094 8.304688 C 3.628906 8.996094 5.230469 10.757812 4.972656 11.007812 C 4.804688 11.167969 4.363281 11.347656 3.785156 11.355469 C 3.414062 11.363281 3.042969 11.304688 2.6875 11.179688 C 1.882812 10.910156 1.367188 9.777344 0.988281 9.78125 C 0.863281 9.785156 0.949219 9.921875 0.683594 10.265625 C -0.375 11.636719 0.101562 13.808594 0.148438 15.210938 C 0.171875 16.023438 0.488281 16.207031 1.101562 16.234375 L 1.230469 16.695312 L 1.332031 16.769531 L 2.304688 16.753906 C 2.351562 16.75 2.402344 16.726562 2.402344 16.675781 L 2.496094 16.222656 C 2.628906 16.222656 2.765625 16.222656 2.90625 16.226562 C 3.027344 16.230469 3.230469 16.238281 3.496094 16.242188 L 3.621094 16.703125 C 3.636719 16.742188 3.675781 16.773438 3.71875 16.773438 L 4.691406 16.757812 C 4.738281 16.753906 4.777344 16.726562 4.789062 16.683594 L 4.878906 16.269531 C 5.199219 16.277344 5.546875 16.28125 5.910156 16.289062 L 6.023438 16.703125 C 6.039062 16.742188 6.078125 16.773438 6.125 16.773438 L 7.097656 16.757812 C 7.140625 16.753906 7.179688 16.726562 7.195312 16.683594 L 7.277344 16.308594 C 7.621094 16.3125 7.96875 16.316406 8.320312 16.324219 L 8.429688 16.703125 C 8.445312 16.742188 8.484375 16.773438 8.527344 16.773438 L 9.5 16.757812 C 9.546875 16.753906 9.585938 16.726562 9.597656 16.683594 L 9.675781 16.339844 C 10.039062 16.34375 10.390625 16.347656 10.730469 16.351562 L 10.835938 16.703125 C 10.847656 16.742188 10.890625 16.773438 10.933594 16.773438 L 11.90625 16.757812 C 11.949219 16.753906 11.988281 16.726562 12.003906 16.683594 L 12.078125 16.359375 C 12.417969 16.363281 12.722656 16.363281 12.972656 16.363281 L 13.074219 16.664062 C 13.074219 16.703125 13.125 16.738281 13.160156 16.738281 L 14.144531 16.71875 C 14.179688 16.71875 14.230469 16.683594 14.230469 16.644531 L 14.3125 16.292969 C 15.667969 16.109375 17.015625 15.523438 17 14.492188 C 16.980469 13.261719 14.472656 13.082031 12.996094 12.324219 Z M 12.996094 12.324219 "/>
</g>
</svg>
