<?xml version="1.0" encoding="UTF-8"?>
<svg xmlns="http://www.w3.org/2000/svg" xmlns:xlink="http://www.w3.org/1999/xlink" width="11" height="7.918506" viewBox="0 0 11 7.918506">
<path fill-rule="nonzero" fill="rgb(30%,30%,30%)" fill-opacity="1" d="M 1.871094 0.949219 C 1.886719 0.859375 1.972656 0.792969 2.066406 0.792969 L 8.582031 0.792969 C 9.207031 0.796875 9.082031 0 8.605469 0.0117188 L 2.160156 0 C 1.65625 0 1.210938 0.371094 1.164062 0.875 C 1.105469 1.453125 1.5625 1.945312 2.128906 1.945312 L 9.324219 1.945312 C 9.839844 1.9375 9.851562 1.167969 9.355469 1.171875 L 2.058594 1.171875 C 1.941406 1.171875 1.851562 1.066406 1.871094 0.949219 Z M 1.871094 0.949219 "/>
<path fill-rule="nonzero" fill="rgb(30%,30%,30%)" fill-opacity="1" d="M 1.871094 3.203125 C 1.886719 3.109375 1.972656 3.046875 2.066406 3.046875 L 9.332031 3.046875 C 9.804688 3.070312 9.835938 2.25 9.359375 2.261719 L 2.160156 2.25 C 1.65625 2.25 1.210938 2.625 1.164062 3.128906 C 1.105469 3.703125 1.5625 4.195312 2.128906 4.195312 L 9.324219 4.195312 C 9.839844 4.1875 9.851562 3.417969 9.355469 3.425781 L 2.058594 3.421875 C 1.941406 3.421875 1.851562 3.320312 1.871094 3.203125 Z M 1.871094 3.203125 "/>
<path fill-rule="nonzero" fill="rgb(30%,30%,30%)" fill-opacity="1" d="M 1.871094 5.433594 C 1.886719 5.339844 1.972656 5.277344 2.066406 5.277344 L 8.582031 5.277344 C 9.207031 5.277344 9.082031 4.484375 8.605469 4.496094 L 2.160156 4.484375 C 1.65625 4.484375 1.210938 4.855469 1.164062 5.359375 C 1.105469 5.9375 1.5625 6.429688 2.128906 6.429688 L 9.324219 6.429688 C 9.839844 6.421875 9.851562 5.652344 9.355469 5.65625 L 2.058594 5.65625 C 1.941406 5.65625 1.851562 5.550781 1.871094 5.433594 Z M 1.871094 5.433594 "/>
<path fill-rule="nonzero" fill="rgb(30%,30%,30%)" fill-opacity="1" d="M 0 6.984375 L 11 6.984375 L 11 7.917969 L 0 7.917969 Z M 0 6.984375 "/>
</svg>
