<?xml version="1.0" encoding="UTF-8"?>
<svg xmlns="http://www.w3.org/2000/svg" xmlns:xlink="http://www.w3.org/1999/xlink" width="11" height="9.621405" viewBox="0 0 11 9.621405">
<path fill-rule="evenodd" fill="rgb(30%,30%,30%)" fill-opacity="1" d="M 10.0625 0.804688 C 9.460938 0.269531 8.734375 0 7.875 0 C 6.738281 0 5.945312 0.476562 5.5 1.425781 C 5.054688 0.476562 4.261719 0 3.125 0 C 2.265625 0 1.539062 0.269531 0.9375 0.804688 C 0.3125 1.367188 0 2.0625 0 2.890625 C 0 6.695312 5.230469 9.542969 5.5 9.621094 C 5.769531 9.542969 11 6.695312 11 2.890625 C 11 2.0625 10.6875 1.367188 10.0625 0.804688 Z M 5.746094 4.839844 L 5.308594 5.457031 C 6.765625 5.457031 8.378906 5.464844 8.378906 5.488281 C 8.378906 6.277344 7.828125 6.964844 7.019531 7.332031 L 7.019531 7.539062 C 7.019531 7.601562 6.945312 7.65625 6.851562 7.65625 L 4.523438 7.65625 C 4.433594 7.65625 4.359375 7.601562 4.359375 7.539062 L 4.359375 7.332031 C 3.546875 6.964844 3 6.277344 3 5.488281 C 3 5.472656 3.878906 5.460938 4.925781 5.457031 C 4.863281 5.074219 4.660156 4.957031 4.660156 4.957031 C 3.703125 5.675781 2.628906 3.136719 2.628906 3.136719 C 5.632812 3.1875 4.902344 4.8125 4.902344 4.8125 C 4.617188 4.4375 3.910156 4.007812 3.910156 4.007812 C 4.378906 4.34375 4.832031 4.960938 5.054688 5.296875 C 5.410156 4.851562 6.449219 3.625 7.550781 2.894531 C 7.550781 2.894531 6.324219 3.386719 5.394531 4.570312 C 5.394531 4.570312 4.121094 1.964844 8.746094 1.964844 C 8.746094 1.964844 7.496094 6.65625 5.746094 4.839844 Z M 5.746094 4.839844 "/>
</svg>
