<?xml version="1.0" encoding="UTF-8" standalone="no"?>
<!-- Created with Inkscape (http://www.inkscape.org/) -->

<svg
   xmlns:dc="http://purl.org/dc/elements/1.1/"
   xmlns:cc="http://creativecommons.org/ns#"
   xmlns:rdf="http://www.w3.org/1999/02/22-rdf-syntax-ns#"
   xmlns:svg="http://www.w3.org/2000/svg"
   xmlns="http://www.w3.org/2000/svg"
   xmlns:xlink="http://www.w3.org/1999/xlink"
   xmlns:sodipodi="http://sodipodi.sourceforge.net/DTD/sodipodi-0.dtd"
   xmlns:inkscape="http://www.inkscape.org/namespaces/inkscape"
   width="30px"
   height="30px"
   version="1.1"
   id="svg8"
   inkscape:version="0.92.4 5da689c313, 2019-01-14"
   sodipodi:docname="container.svg">
  <defs
     id="defs2" />
  <sodipodi:namedview
     id="base"
     pagecolor="#ffffff"
     bordercolor="#666666"
     borderopacity="1.0"
     inkscape:pageopacity="0.0"
     inkscape:pageshadow="2"
     inkscape:zoom="13.049334"
     inkscape:cx="18.679046"
     inkscape:cy="12.165829"
     inkscape:document-units="px"
     inkscape:current-layer="layer1"
     showgrid="false"
     inkscape:snap-page="false"
     units="px"
     inkscape:window-width="1884"
     inkscape:window-height="1061"
     inkscape:window-x="0"
     inkscape:window-y="0"
     inkscape:window-maximized="1"
     fit-margin-top="0"
     fit-margin-left="0"
     fit-margin-right="0"
     fit-margin-bottom="0" />
  <metadata
     id="metadata5">
    <rdf:RDF>
      <cc:Work
         rdf:about="">
        <dc:format>image/svg+xml</dc:format>
        <dc:type
           rdf:resource="http://purl.org/dc/dcmitype/StillImage" />
        <dc:title></dc:title>
      </cc:Work>
    </rdf:RDF>
  </metadata>
    <circle
       style="color:#000000;clip-rule:nonzero;display:inline;overflow:visible;visibility:visible;opacity:1;isolation:auto;mix-blend-mode:normal;color-interpolation:sRGB;color-interpolation-filters:linearRGB;solid-color:#000000;solid-opacity:1;vector-effect:none;fill:#808080;fill-opacity:1;fill-rule:evenodd;stroke:#ffffff;stroke-width:1;stroke-linecap:butt;stroke-linejoin:miter;stroke-miterlimit:4;stroke-dasharray:none;stroke-dashoffset:0;stroke-opacity:1;marker:none;color-rendering:auto;image-rendering:auto;shape-rendering:auto;text-rendering:auto;enable-background:accumulate"
       id="path815"
       cx="15"
       cy="15"
       r="14.5" />
<g transform="translate(10.5,6.5)"><path fill-rule="nonzero" fill="#FFFFFF" fill-opacity="1" d="M 8.097656 17 L 1.367188 17 C 0.613281 17 0 16.386719 0 15.632812 L 0 1.367188 C 0 0.613281 0.613281 0 1.367188 0 L 8.097656 0 C 8.855469 0 9.46875 0.613281 9.46875 1.367188 L 9.46875 15.632812 C 9.46875 16.386719 8.855469 17 8.097656 17 Z M 5.851562 1.933594 L 5.851562 1.527344 C 5.851562 1.472656 5.808594 1.425781 5.75 1.425781 L 3.714844 1.425781 C 3.660156 1.425781 3.613281 1.472656 3.613281 1.527344 L 3.613281 1.933594 C 3.613281 1.992188 3.660156 2.035156 3.714844 2.035156 L 5.75 2.035156 C 5.808594 2.035156 5.851562 1.992188 5.851562 1.933594 Z M 8.601562 13.640625 L 8.601562 3.257812 C 8.601562 3.203125 8.554688 3.15625 8.5 3.15625 L 0.96875 3.15625 C 0.910156 3.15625 0.867188 3.203125 0.867188 3.257812 L 0.867188 13.640625 C 0.867188 13.695312 0.910156 13.742188 0.96875 13.742188 L 8.5 13.742188 C 8.554688 13.742188 8.601562 13.695312 8.601562 13.640625 Z M 4.734375 14.558594 C 4.253906 14.558594 3.867188 14.945312 3.867188 15.421875 C 3.867188 15.898438 4.253906 16.289062 4.734375 16.289062 C 5.210938 16.289062 5.597656 15.898438 5.597656 15.421875 C 5.597656 14.945312 5.210938 14.558594 4.734375 14.558594 Z M 4.734375 14.558594 "/>
</g>
</svg>
