<?xml version="1.0" encoding="UTF-8"?>
<svg xmlns="http://www.w3.org/2000/svg" xmlns:xlink="http://www.w3.org/1999/xlink" width="4.126099" height="11" viewBox="0 0 4.126099 11">
<path fill-rule="nonzero" fill="rgb(30%,30%,30%)" fill-opacity="1" d="M 3.675781 3.132812 C 3.902344 2.683594 4.121094 2.21875 4.125 1.253906 C 4.128906 0.816406 3.910156 0.0117188 3.566406 0 C 2.796875 -0.0234375 2.335938 1.335938 2.292969 1.660156 C 2.25 1.984375 2.304688 3.367188 2.304688 3.367188 C 1.1875 3.988281 0.90625 4.132812 0.347656 4.933594 C -0.40625 6.015625 -0.0078125 8.449219 2.277344 8.515625 L 2.292969 9.898438 C 2.308594 10.183594 2.027344 10.839844 1.390625 10.71875 C 0.996094 10.640625 0.808594 10.511719 0.722656 10.367188 C 0.722656 10.367188 0.726562 10.367188 0.726562 10.367188 C 0.933594 10.367188 1.128906 10.257812 1.230469 10.074219 C 1.335938 9.894531 1.335938 9.671875 1.230469 9.492188 C 1.128906 9.3125 0.933594 9.199219 0.726562 9.203125 C 0.402344 9.203125 0.125 9.511719 0.125 9.832031 C 0.125 9.832031 -0.00390625 10.433594 0.640625 10.792969 C 1.523438 11.285156 2.449219 10.855469 2.507812 10.007812 C 2.523438 9.75 2.527344 9.203125 2.53125 8.511719 C 4.433594 8.367188 4.425781 5.394531 2.546875 5.300781 C 2.546875 4.929688 2.546875 4.566406 2.550781 4.222656 C 3.007812 3.96875 3.382812 3.707031 3.675781 3.132812 Z M 3.609375 0.785156 C 4.050781 0.75 3.902344 1.929688 3.523438 2.414062 C 3.347656 2.640625 3.128906 2.890625 2.550781 3.230469 C 2.550781 2.765625 2.550781 2.402344 2.550781 2.199219 C 2.679688 1.273438 3.378906 0.800781 3.609375 0.785156 Z M 3.378906 7.324219 C 3.335938 7.753906 3.027344 8.136719 2.535156 8.242188 C 2.539062 7.613281 2.542969 6.886719 2.546875 6.160156 C 3.0625 6.222656 3.453125 6.59375 3.378906 7.324219 Z M 2.292969 5.304688 C 1.304688 5.402344 0.925781 6.480469 1.242188 7.21875 C 1.410156 7.621094 1.820312 7.714844 1.820312 7.714844 C 1.480469 7.210938 1.304688 6.207031 2.289062 6.160156 L 2.277344 8.269531 C 1.960938 8.277344 1.585938 8.1875 1.164062 7.929688 C 0.125 7.285156 0.261719 5.773438 1.089844 5.117188 C 1.539062 4.761719 1.941406 4.550781 2.300781 4.359375 Z M 2.292969 5.304688 "/>
</svg>
