<?xml version="1.0" encoding="UTF-8" standalone="no"?>
<!-- Created with Inkscape (http://www.inkscape.org/) -->

<svg
   xmlns:dc="http://purl.org/dc/elements/1.1/"
   xmlns:cc="http://creativecommons.org/ns#"
   xmlns:rdf="http://www.w3.org/1999/02/22-rdf-syntax-ns#"
   xmlns:svg="http://www.w3.org/2000/svg"
   xmlns="http://www.w3.org/2000/svg"
   xmlns:xlink="http://www.w3.org/1999/xlink"
   xmlns:sodipodi="http://sodipodi.sourceforge.net/DTD/sodipodi-0.dtd"
   xmlns:inkscape="http://www.inkscape.org/namespaces/inkscape"
   width="30px"
   height="30px"
   version="1.1"
   id="svg8"
   inkscape:version="0.92.4 5da689c313, 2019-01-14"
   sodipodi:docname="container.svg">
  <defs
     id="defs2" />
  <sodipodi:namedview
     id="base"
     pagecolor="#ffffff"
     bordercolor="#666666"
     borderopacity="1.0"
     inkscape:pageopacity="0.0"
     inkscape:pageshadow="2"
     inkscape:zoom="13.049334"
     inkscape:cx="18.679046"
     inkscape:cy="12.165829"
     inkscape:document-units="px"
     inkscape:current-layer="layer1"
     showgrid="false"
     inkscape:snap-page="false"
     units="px"
     inkscape:window-width="1884"
     inkscape:window-height="1061"
     inkscape:window-x="0"
     inkscape:window-y="0"
     inkscape:window-maximized="1"
     fit-margin-top="0"
     fit-margin-left="0"
     fit-margin-right="0"
     fit-margin-bottom="0" />
  <metadata
     id="metadata5">
    <rdf:RDF>
      <cc:Work
         rdf:about="">
        <dc:format>image/svg+xml</dc:format>
        <dc:type
           rdf:resource="http://purl.org/dc/dcmitype/StillImage" />
        <dc:title></dc:title>
      </cc:Work>
    </rdf:RDF>
  </metadata>
    <circle
       style="color:#000000;clip-rule:nonzero;display:inline;overflow:visible;visibility:visible;opacity:1;isolation:auto;mix-blend-mode:normal;color-interpolation:sRGB;color-interpolation-filters:linearRGB;solid-color:#000000;solid-opacity:1;vector-effect:none;fill:#808080;fill-opacity:1;fill-rule:evenodd;stroke:#ffffff;stroke-width:1;stroke-linecap:butt;stroke-linejoin:miter;stroke-miterlimit:4;stroke-dasharray:none;stroke-dashoffset:0;stroke-opacity:1;marker:none;color-rendering:auto;image-rendering:auto;shape-rendering:auto;text-rendering:auto;enable-background:accumulate"
       id="path815"
       cx="15"
       cy="15"
       r="14.5" />
<g transform="translate(6.5,7.5)"><path fill-rule="nonzero" fill="#FFFFFF" fill-opacity="1" d="M 16.90625 12.183594 C 16.90625 12.183594 14.421875 5.152344 13.398438 5.152344 C 13.398438 5.152344 12.242188 5.351562 12.65625 6.695312 C 12.792969 6.839844 12.871094 7.027344 12.867188 7.226562 C 12.867188 7.640625 12.542969 7.980469 12.144531 7.980469 C 11.746094 7.980469 11.421875 7.640625 11.421875 7.226562 C 11.421875 7.160156 11.429688 7.097656 11.445312 7.035156 C 11.382812 6.425781 11.160156 5.101562 10.179688 5.152344 C 10.179688 5.152344 9.375 5.152344 8.527344 5.152344 C 8.519531 5.152344 8.507812 5.152344 8.5 5.152344 C 8.492188 5.152344 8.480469 5.152344 8.472656 5.152344 C 7.625 5.152344 6.820312 5.152344 6.820312 5.152344 C 5.839844 5.101562 5.617188 6.425781 5.554688 7.035156 C 5.570312 7.097656 5.578125 7.160156 5.578125 7.226562 C 5.578125 7.640625 5.253906 7.980469 4.855469 7.980469 C 4.457031 7.980469 4.132812 7.640625 4.132812 7.226562 C 4.128906 7.027344 4.207031 6.839844 4.34375 6.695312 C 4.757812 5.351562 3.601562 5.152344 3.601562 5.152344 C 2.578125 5.152344 0.09375 12.183594 0.09375 12.183594 C -0.289062 13.382812 0.539062 14.648438 1.753906 14.6875 C 1.769531 14.6875 1.789062 14.6875 1.808594 14.6875 L 15.191406 14.6875 C 15.210938 14.6875 15.230469 14.6875 15.246094 14.6875 C 16.460938 14.648438 17.289062 13.382812 16.90625 12.183594 Z M 16.90625 12.183594 "/>
<path fill-rule="nonzero" fill="#FFFFFF" fill-opacity="1" d="M 12.359375 6.796875 L 12.359375 5.445312 C 12.359375 5.273438 12.351562 5.105469 12.332031 4.933594 L 12.332031 4.078125 C 12.332031 2.972656 11.953125 1.949219 11.265625 1.199219 C 10.554688 0.425781 9.5625 0 8.472656 0 C 7.382812 0 6.375 0.425781 5.644531 1.195312 C 4.925781 1.953125 4.53125 2.976562 4.53125 4.078125 C 4.53125 4.117188 4.527344 4.210938 4.527344 4.335938 C 4.515625 5.125 4.515625 5.578125 4.53125 5.707031 C 4.535156 5.730469 4.539062 6.433594 4.550781 6.824219 C 4.398438 6.96875 4.351562 7.191406 4.429688 7.382812 C 4.511719 7.578125 4.699219 7.699219 4.910156 7.695312 C 5.117188 7.691406 5.300781 7.558594 5.371094 7.363281 C 5.445312 7.167969 5.386719 6.949219 5.230469 6.808594 C 5.226562 6.515625 5.234375 5.953125 5.238281 5.710938 C 5.238281 5.582031 5.238281 5.484375 5.238281 5.445312 C 5.238281 4.515625 5.570312 3.660156 6.167969 3.03125 C 6.769531 2.394531 7.597656 2.046875 8.5 2.046875 C 9.394531 2.046875 10.207031 2.394531 10.789062 3.027344 C 11.265625 3.542969 11.5625 4.222656 11.652344 5.003906 L 11.652344 5.6875 C 11.652344 5.703125 11.667969 6.488281 11.675781 6.851562 C 11.535156 7.003906 11.503906 7.226562 11.59375 7.410156 C 11.683594 7.597656 11.882812 7.710938 12.085938 7.695312 C 12.292969 7.675781 12.46875 7.535156 12.53125 7.335938 C 12.589844 7.140625 12.523438 6.925781 12.359375 6.796875 Z M 11.292969 2.5625 C 10.578125 1.789062 9.589844 1.363281 8.5 1.363281 C 7.40625 1.363281 6.402344 1.789062 5.671875 2.558594 C 5.582031 2.65625 5.496094 2.753906 5.414062 2.859375 C 5.570312 2.414062 5.816406 2.007812 6.140625 1.664062 C 6.742188 1.03125 7.570312 0.683594 8.472656 0.683594 C 9.367188 0.683594 10.179688 1.03125 10.761719 1.660156 C 11.035156 1.960938 11.246094 2.304688 11.394531 2.679688 C 11.359375 2.640625 11.328125 2.601562 11.292969 2.5625 Z M 11.292969 2.5625 "/>
</g>
</svg>
