<?xml version="1.0" encoding="UTF-8" standalone="no"?>
<!-- Created with Inkscape (http://www.inkscape.org/) -->

<svg
   xmlns:dc="http://purl.org/dc/elements/1.1/"
   xmlns:cc="http://creativecommons.org/ns#"
   xmlns:rdf="http://www.w3.org/1999/02/22-rdf-syntax-ns#"
   xmlns:svg="http://www.w3.org/2000/svg"
   xmlns="http://www.w3.org/2000/svg"
   xmlns:xlink="http://www.w3.org/1999/xlink"
   xmlns:sodipodi="http://sodipodi.sourceforge.net/DTD/sodipodi-0.dtd"
   xmlns:inkscape="http://www.inkscape.org/namespaces/inkscape"
   width="30px"
   height="30px"
   version="1.1"
   id="svg8"
   inkscape:version="0.92.4 5da689c313, 2019-01-14"
   sodipodi:docname="container.svg">
  <defs
     id="defs2" />
  <sodipodi:namedview
     id="base"
     pagecolor="#ffffff"
     bordercolor="#666666"
     borderopacity="1.0"
     inkscape:pageopacity="0.0"
     inkscape:pageshadow="2"
     inkscape:zoom="13.049334"
     inkscape:cx="18.679046"
     inkscape:cy="12.165829"
     inkscape:document-units="px"
     inkscape:current-layer="layer1"
     showgrid="false"
     inkscape:snap-page="false"
     units="px"
     inkscape:window-width="1884"
     inkscape:window-height="1061"
     inkscape:window-x="0"
     inkscape:window-y="0"
     inkscape:window-maximized="1"
     fit-margin-top="0"
     fit-margin-left="0"
     fit-margin-right="0"
     fit-margin-bottom="0" />
  <metadata
     id="metadata5">
    <rdf:RDF>
      <cc:Work
         rdf:about="">
        <dc:format>image/svg+xml</dc:format>
        <dc:type
           rdf:resource="http://purl.org/dc/dcmitype/StillImage" />
        <dc:title></dc:title>
      </cc:Work>
    </rdf:RDF>
  </metadata>
    <circle
       style="color:#000000;clip-rule:nonzero;display:inline;overflow:visible;visibility:visible;opacity:1;isolation:auto;mix-blend-mode:normal;color-interpolation:sRGB;color-interpolation-filters:linearRGB;solid-color:#000000;solid-opacity:1;vector-effect:none;fill:#808080;fill-opacity:1;fill-rule:evenodd;stroke:#ffffff;stroke-width:1;stroke-linecap:butt;stroke-linejoin:miter;stroke-miterlimit:4;stroke-dasharray:none;stroke-dashoffset:0;stroke-opacity:1;marker:none;color-rendering:auto;image-rendering:auto;shape-rendering:auto;text-rendering:auto;enable-background:accumulate"
       id="path815"
       cx="15"
       cy="15"
       r="14.5" />
<g transform="translate(6.5,9.5)"><path fill-rule="nonzero" fill="#FFFFFF" fill-opacity="1" d="M 16.832031 6.472656 L 0.167969 6.472656 C 0.0742188 6.472656 0 6.546875 0 6.640625 L 0 10.652344 C 0 10.746094 0.0742188 10.824219 0.167969 10.824219 L 0.683594 10.824219 C 0.777344 10.824219 0.855469 10.746094 0.855469 10.652344 L 0.855469 10.0625 C 0.855469 9.96875 0.929688 9.894531 1.023438 9.894531 L 16.269531 9.894531 C 16.363281 9.894531 16.4375 9.96875 16.4375 10.0625 L 16.4375 10.652344 C 16.4375 10.746094 16.515625 10.824219 16.609375 10.824219 L 16.832031 10.824219 C 16.925781 10.824219 17 10.746094 17 10.652344 L 17 6.640625 C 17 6.546875 16.925781 6.472656 16.832031 6.472656 Z M 16.269531 9.25 L 1.023438 9.25 C 0.929688 9.25 0.855469 9.175781 0.855469 9.082031 L 0.855469 7.570312 C 0.855469 7.476562 0.929688 7.398438 1.023438 7.398438 L 16.269531 7.398438 C 16.363281 7.398438 16.4375 7.476562 16.4375 7.570312 L 16.4375 9.082031 C 16.4375 9.175781 16.363281 9.25 16.269531 9.25 Z M 16.269531 9.25 "/>
<path fill-rule="nonzero" fill="#FFFFFF" fill-opacity="1" d="M 15.75 5.773438 L 14.125 3.878906 C 14.097656 3.847656 14.085938 3.808594 14.085938 3.769531 L 14.085938 0.167969 C 14.085938 0.0742188 14.007812 0 13.917969 0 L 3.097656 0 C 3.003906 0 2.929688 0.0742188 2.929688 0.167969 L 2.929688 3.867188 L 2.960938 3.867188 L 1.65625 5.734375 C 1.621094 5.785156 1.613281 5.851562 1.644531 5.910156 C 1.671875 5.964844 1.730469 6 1.792969 6 L 15.621094 6.054688 C 15.6875 6.054688 15.75 6.015625 15.777344 5.957031 C 15.804688 5.894531 15.792969 5.824219 15.75 5.773438 Z M 13.523438 3.644531 L 12.886719 3.644531 C 13.046875 3.484375 13.09375 3.246094 13.007812 3.039062 C 12.925781 2.832031 12.722656 2.695312 12.496094 2.695312 L 9.824219 2.695312 C 9.597656 2.695312 9.394531 2.832031 9.308594 3.039062 C 9.222656 3.246094 9.273438 3.484375 9.429688 3.644531 L 7.964844 3.644531 C 8.125 3.484375 8.171875 3.246094 8.085938 3.039062 C 8 2.832031 7.796875 2.695312 7.574219 2.695312 L 4.898438 2.695312 C 4.675781 2.695312 4.472656 2.832031 4.386719 3.039062 C 4.300781 3.246094 4.347656 3.484375 4.507812 3.644531 L 3.714844 3.644531 L 3.714844 0.730469 L 13.523438 0.730469 Z M 13.523438 3.644531 "/>
</g>
</svg>
