<?xml version="1.0" encoding="UTF-8"?>
<svg xmlns="http://www.w3.org/2000/svg" xmlns:xlink="http://www.w3.org/1999/xlink" width="11" height="9.053848" viewBox="0 0 11 9.053848">
<path fill-rule="nonzero" fill="rgb(30%,30%,30%)" fill-opacity="1" d="M 5.308594 6.449219 L 4.960938 6.445312 C 4.917969 6.445312 4.882812 6.410156 4.878906 6.367188 C 4.851562 6.023438 4.675781 5.707031 4.40625 5.488281 C 4.25 5.355469 4.074219 5.261719 3.871094 5.222656 C 3.722656 5.195312 3.578125 5.160156 3.425781 5.152344 C 2.953125 5.121094 2.488281 5.109375 2.023438 5.152344 C 1.929688 5.160156 1.835938 5.167969 1.742188 5.179688 C 1.617188 5.195312 1.5 5.242188 1.386719 5.296875 C 1.28125 5.347656 1.171875 5.40625 1.089844 5.492188 C 0.832031 5.753906 0.683594 6.0625 0.660156 6.371094 C 0.65625 6.417969 0.621094 6.449219 0.578125 6.449219 L 0.292969 6.449219 C 0.171875 6.449219 0.0703125 6.550781 0.0703125 6.671875 C 0.0703125 6.773438 0.0859375 6.886719 0.335938 6.933594 C 0.390625 6.945312 0.421875 7.007812 0.394531 7.054688 C 0.324219 7.183594 0.320312 7.320312 0.320312 7.460938 C 0.320312 7.640625 0.382812 7.90625 0.515625 8.097656 C 0.53125 8.113281 0.535156 8.136719 0.53125 8.15625 C 0.53125 8.167969 0.53125 8.183594 0.53125 8.195312 L 0.53125 8.644531 C 0.53125 8.871094 0.714844 9.054688 0.941406 9.054688 L 0.964844 9.054688 C 1.191406 9.054688 1.375 8.871094 1.375 8.644531 L 1.375 8.46875 C 1.378906 8.46875 1.378906 8.46875 1.382812 8.46875 C 1.738281 8.496094 3.550781 8.5 4.144531 8.464844 C 4.195312 8.464844 4.234375 8.5 4.234375 8.550781 L 4.234375 8.644531 C 4.234375 8.871094 4.417969 9.054688 4.644531 9.054688 L 4.671875 9.054688 C 4.898438 9.054688 5.082031 8.871094 5.082031 8.644531 L 5.082031 8.195312 C 5.082031 8.1875 5.082031 8.179688 5.082031 8.171875 C 5.078125 8.152344 5.082031 8.132812 5.097656 8.113281 C 5.222656 7.9375 5.273438 7.632812 5.273438 7.460938 C 5.273438 7.324219 5.265625 7.175781 5.195312 7.046875 C 5.171875 6.996094 5.195312 6.941406 5.246094 6.925781 C 5.253906 6.921875 5.261719 6.921875 5.269531 6.917969 C 5.457031 6.859375 5.53125 6.792969 5.53125 6.671875 C 5.53125 6.550781 5.429688 6.449219 5.308594 6.449219 Z M 1.347656 8.074219 C 1.152344 8.074219 0.996094 7.917969 0.996094 7.722656 C 0.996094 7.53125 1.152344 7.375 1.347656 7.375 C 1.539062 7.375 1.695312 7.53125 1.695312 7.722656 C 1.695312 7.917969 1.539062 8.074219 1.347656 8.074219 Z M 0.863281 6.570312 C 0.941406 5.402344 1.578125 5.335938 2.488281 5.335938 L 2.75 5.335938 C 3.796875 5.335938 4.640625 5.414062 4.664062 6.570312 C 4.671875 7.054688 3.78125 7.175781 2.734375 7.175781 C 1.683594 7.175781 0.832031 7.054688 0.863281 6.570312 Z M 4.324219 8.074219 C 4.128906 8.074219 3.972656 7.917969 3.972656 7.722656 C 3.972656 7.53125 4.128906 7.375 4.324219 7.375 C 4.515625 7.375 4.671875 7.53125 4.671875 7.722656 C 4.671875 7.917969 4.515625 8.074219 4.324219 8.074219 Z M 4.324219 8.074219 "/>
<path fill-rule="nonzero" fill="rgb(30%,30%,30%)" fill-opacity="1" d="M 10.777344 6.445312 L 10.429688 6.441406 C 10.386719 6.441406 10.351562 6.410156 10.347656 6.367188 C 10.320312 6.019531 10.144531 5.703125 9.878906 5.484375 C 9.71875 5.355469 9.542969 5.261719 9.339844 5.222656 C 9.195312 5.195312 9.046875 5.160156 8.898438 5.148438 C 8.421875 5.121094 7.960938 5.105469 7.492188 5.148438 C 7.398438 5.15625 7.304688 5.167969 7.210938 5.179688 C 7.085938 5.195312 6.96875 5.238281 6.855469 5.292969 C 6.75 5.347656 6.644531 5.40625 6.558594 5.488281 C 6.300781 5.75 6.152344 6.0625 6.128906 6.371094 C 6.128906 6.414062 6.089844 6.449219 6.046875 6.449219 L 5.761719 6.445312 C 5.640625 6.445312 5.539062 6.546875 5.539062 6.667969 C 5.539062 6.769531 5.554688 6.882812 5.804688 6.933594 C 5.859375 6.941406 5.890625 7.003906 5.863281 7.054688 C 5.796875 7.179688 5.789062 7.316406 5.789062 7.457031 C 5.789062 7.636719 5.851562 7.90625 5.988281 8.09375 C 6 8.113281 6.003906 8.132812 6 8.15625 C 6 8.167969 6 8.179688 6 8.195312 L 6 8.640625 C 6 8.867188 6.183594 9.050781 6.410156 9.050781 L 6.4375 9.050781 C 6.660156 9.050781 6.847656 8.867188 6.847656 8.640625 L 6.847656 8.464844 C 6.847656 8.464844 6.847656 8.464844 6.851562 8.464844 C 7.210938 8.496094 9.019531 8.496094 9.617188 8.464844 C 9.664062 8.460938 9.703125 8.5 9.703125 8.546875 L 9.703125 8.640625 C 9.703125 8.867188 9.890625 9.050781 10.113281 9.050781 L 10.140625 9.050781 C 10.367188 9.050781 10.550781 8.867188 10.550781 8.640625 L 10.550781 8.195312 C 10.550781 8.1875 10.550781 8.179688 10.550781 8.171875 C 10.546875 8.148438 10.554688 8.128906 10.566406 8.113281 C 10.691406 7.9375 10.742188 7.628906 10.742188 7.457031 C 10.742188 7.320312 10.734375 7.171875 10.664062 7.042969 C 10.640625 6.996094 10.664062 6.9375 10.714844 6.921875 C 10.722656 6.921875 10.730469 6.917969 10.738281 6.917969 C 10.925781 6.859375 11 6.792969 11 6.667969 C 11 6.546875 10.898438 6.445312 10.777344 6.445312 Z M 6.816406 8.074219 C 6.621094 8.074219 6.464844 7.914062 6.464844 7.722656 C 6.464844 7.53125 6.621094 7.371094 6.816406 7.371094 C 7.007812 7.371094 7.164062 7.53125 7.164062 7.722656 C 7.164062 7.914062 7.007812 8.074219 6.816406 8.074219 Z M 6.332031 6.570312 C 6.410156 5.402344 7.046875 5.335938 7.957031 5.332031 L 8.21875 5.332031 C 9.269531 5.332031 10.109375 5.410156 10.132812 6.570312 C 10.144531 7.054688 9.253906 7.175781 8.203125 7.175781 C 7.152344 7.175781 6.300781 7.050781 6.332031 6.570312 Z M 9.792969 8.074219 C 9.601562 8.074219 9.441406 7.914062 9.441406 7.722656 C 9.441406 7.53125 9.601562 7.371094 9.792969 7.371094 C 9.984375 7.371094 10.140625 7.53125 10.140625 7.722656 C 10.140625 7.914062 9.984375 8.074219 9.792969 8.074219 Z M 9.792969 8.074219 "/>
<path fill-rule="nonzero" fill="rgb(30%,30%,30%)" fill-opacity="1" d="M 5.238281 1.328125 L 4.890625 1.324219 C 4.847656 1.324219 4.808594 1.289062 4.804688 1.246094 C 4.78125 0.898438 4.601562 0.585938 4.335938 0.367188 C 4.179688 0.234375 4.003906 0.140625 3.800781 0.101562 C 3.652344 0.0742188 3.507812 0.0390625 3.355469 0.03125 C 2.882812 0 2.417969 -0.015625 1.953125 0.0273438 C 1.859375 0.0390625 1.765625 0.046875 1.671875 0.0585938 C 1.546875 0.0742188 1.425781 0.121094 1.316406 0.175781 C 1.210938 0.226562 1.101562 0.285156 1.019531 0.371094 C 0.761719 0.632812 0.609375 0.941406 0.589844 1.25 C 0.585938 1.292969 0.550781 1.328125 0.503906 1.328125 L 0.222656 1.328125 C 0.101562 1.328125 0 1.425781 0 1.550781 C 0 1.648438 0.0117188 1.765625 0.265625 1.8125 C 0.320312 1.824219 0.347656 1.882812 0.324219 1.933594 C 0.253906 2.0625 0.246094 2.199219 0.246094 2.335938 C 0.246094 2.519531 0.308594 2.785156 0.445312 2.976562 C 0.457031 2.992188 0.464844 3.015625 0.460938 3.035156 C 0.460938 3.046875 0.457031 3.0625 0.457031 3.074219 L 0.457031 3.523438 C 0.457031 3.746094 0.644531 3.933594 0.867188 3.933594 L 0.894531 3.933594 C 1.121094 3.933594 1.304688 3.746094 1.304688 3.523438 L 1.304688 3.347656 C 1.308594 3.347656 1.308594 3.347656 1.308594 3.347656 C 1.667969 3.375 3.480469 3.378906 4.074219 3.34375 C 4.125 3.339844 4.164062 3.378906 4.164062 3.425781 L 4.164062 3.523438 C 4.164062 3.746094 4.347656 3.933594 4.574219 3.933594 L 4.601562 3.933594 C 4.824219 3.933594 5.011719 3.746094 5.011719 3.523438 L 5.011719 3.074219 C 5.011719 3.066406 5.007812 3.058594 5.007812 3.050781 C 5.007812 3.03125 5.011719 3.007812 5.023438 2.992188 C 5.152344 2.816406 5.203125 2.511719 5.203125 2.335938 C 5.203125 2.203125 5.191406 2.054688 5.125 1.921875 C 5.101562 1.875 5.125 1.820312 5.175781 1.804688 C 5.183594 1.800781 5.191406 1.800781 5.199219 1.796875 C 5.386719 1.738281 5.460938 1.671875 5.460938 1.550781 C 5.460938 1.425781 5.359375 1.328125 5.238281 1.328125 Z M 1.273438 2.953125 C 1.082031 2.953125 0.925781 2.796875 0.925781 2.601562 C 0.925781 2.410156 1.082031 2.253906 1.273438 2.253906 C 1.46875 2.253906 1.625 2.410156 1.625 2.601562 C 1.625 2.796875 1.46875 2.953125 1.273438 2.953125 Z M 0.792969 1.449219 C 0.871094 0.28125 1.507812 0.214844 2.417969 0.210938 L 2.679688 0.210938 C 3.726562 0.210938 4.570312 0.289062 4.59375 1.449219 C 4.601562 1.933594 3.710938 2.054688 2.664062 2.054688 C 1.613281 2.054688 0.761719 1.933594 0.792969 1.449219 Z M 4.253906 2.953125 C 4.058594 2.953125 3.902344 2.796875 3.902344 2.601562 C 3.902344 2.410156 4.058594 2.253906 4.253906 2.253906 C 4.445312 2.253906 4.601562 2.410156 4.601562 2.601562 C 4.601562 2.796875 4.445312 2.953125 4.253906 2.953125 Z M 4.253906 2.953125 "/>
<path fill-rule="nonzero" fill="rgb(30%,30%,30%)" fill-opacity="1" d="M 10.707031 1.324219 L 10.359375 1.320312 C 10.316406 1.320312 10.28125 1.289062 10.277344 1.246094 C 10.25 0.898438 10.074219 0.582031 9.804688 0.363281 C 9.648438 0.234375 9.472656 0.140625 9.269531 0.101562 C 9.121094 0.0703125 8.976562 0.0390625 8.824219 0.0273438 C 8.351562 -0.00390625 7.886719 -0.015625 7.421875 0.0273438 C 7.328125 0.0351562 7.234375 0.046875 7.140625 0.0585938 C 7.015625 0.0742188 6.898438 0.117188 6.785156 0.171875 C 6.679688 0.222656 6.570312 0.285156 6.488281 0.367188 C 6.230469 0.628906 6.082031 0.9375 6.058594 1.25 C 6.054688 1.292969 6.019531 1.328125 5.976562 1.328125 L 5.691406 1.324219 C 5.570312 1.324219 5.46875 1.425781 5.46875 1.546875 C 5.46875 1.648438 5.484375 1.761719 5.734375 1.808594 C 5.789062 1.820312 5.820312 1.882812 5.792969 1.933594 C 5.722656 2.058594 5.71875 2.195312 5.71875 2.335938 C 5.71875 2.515625 5.777344 2.785156 5.914062 2.972656 C 5.929688 2.992188 5.933594 3.011719 5.929688 3.03125 C 5.929688 3.046875 5.929688 3.058594 5.929688 3.074219 L 5.929688 3.519531 C 5.929688 3.746094 6.113281 3.929688 6.339844 3.929688 L 6.363281 3.929688 C 6.589844 3.929688 6.773438 3.746094 6.773438 3.519531 L 6.773438 3.34375 C 6.777344 3.34375 6.777344 3.34375 6.78125 3.34375 C 7.136719 3.375 8.949219 3.375 9.542969 3.34375 C 9.59375 3.339844 9.632812 3.378906 9.632812 3.425781 L 9.632812 3.519531 C 9.632812 3.746094 9.816406 3.929688 10.042969 3.929688 L 10.070312 3.929688 C 10.296875 3.929688 10.480469 3.746094 10.480469 3.519531 L 10.480469 3.074219 C 10.480469 3.066406 10.480469 3.058594 10.480469 3.050781 C 10.476562 3.027344 10.480469 3.007812 10.496094 2.992188 C 10.621094 2.8125 10.671875 2.507812 10.671875 2.335938 C 10.671875 2.199219 10.664062 2.050781 10.59375 1.921875 C 10.570312 1.875 10.59375 1.816406 10.644531 1.800781 C 10.652344 1.800781 10.660156 1.796875 10.667969 1.792969 C 10.855469 1.738281 10.929688 1.667969 10.929688 1.546875 C 10.929688 1.425781 10.828125 1.324219 10.707031 1.324219 Z M 6.746094 2.949219 C 6.550781 2.949219 6.394531 2.792969 6.394531 2.601562 C 6.394531 2.40625 6.550781 2.25 6.746094 2.25 C 6.9375 2.25 7.09375 2.40625 7.09375 2.601562 C 7.09375 2.792969 6.9375 2.949219 6.746094 2.949219 Z M 6.261719 1.449219 C 6.339844 0.28125 6.976562 0.214844 7.886719 0.210938 L 8.148438 0.210938 C 9.195312 0.210938 10.039062 0.289062 10.0625 1.449219 C 10.070312 1.929688 9.179688 2.054688 8.132812 2.054688 C 7.082031 2.054688 6.230469 1.929688 6.261719 1.449219 Z M 9.722656 2.949219 C 9.527344 2.949219 9.371094 2.792969 9.371094 2.601562 C 9.371094 2.40625 9.527344 2.25 9.722656 2.25 C 9.914062 2.25 10.070312 2.40625 10.070312 2.601562 C 10.070312 2.792969 9.914062 2.949219 9.722656 2.949219 Z M 9.722656 2.949219 "/>
</svg>
