<?xml version="1.0" encoding="UTF-8"?>
<svg xmlns="http://www.w3.org/2000/svg" xmlns:xlink="http://www.w3.org/1999/xlink" width="10.182238" height="11" viewBox="0 0 10.182238 11">
<path fill-rule="nonzero" fill="rgb(30%,30%,30%)" fill-opacity="1" d="M 1.804688 0.933594 C 1.804688 1.449219 2.226562 1.867188 2.742188 1.867188 C 3.128906 1.867188 3.460938 1.632812 3.601562 1.296875 C 3.609375 1.277344 3.617188 1.253906 3.625 1.234375 C 3.628906 1.226562 3.632812 1.21875 3.632812 1.207031 C 3.640625 1.195312 3.640625 1.179688 3.644531 1.164062 C 3.648438 1.148438 3.652344 1.132812 3.65625 1.117188 C 3.65625 1.117188 3.65625 1.117188 3.65625 1.113281 C 3.675781 1.027344 3.679688 0.941406 3.671875 0.855469 C 3.671875 0.851562 3.671875 0.851562 3.671875 0.847656 C 3.65625 0.699219 3.605469 0.550781 3.515625 0.414062 C 3.304688 0.09375 2.925781 -0.0507812 2.570312 0.015625 C 2.566406 0.015625 2.566406 0.015625 2.5625 0.015625 C 2.539062 0.0195312 2.515625 0.0273438 2.492188 0.0351562 C 2.484375 0.0351562 2.476562 0.0351562 2.472656 0.0390625 C 2.449219 0.046875 2.429688 0.0507812 2.410156 0.0585938 C 2.402344 0.0625 2.390625 0.0664062 2.382812 0.0703125 C 2.367188 0.078125 2.347656 0.0859375 2.332031 0.09375 C 2.320312 0.101562 2.308594 0.105469 2.296875 0.109375 C 2.289062 0.117188 2.277344 0.125 2.265625 0.128906 C 1.992188 0.292969 1.804688 0.589844 1.804688 0.933594 Z M 1.804688 0.933594 "/>
<path fill-rule="nonzero" fill="rgb(30%,30%,30%)" fill-opacity="1" d="M 0.605469 5.996094 C 0.566406 6.0625 0.621094 6.050781 0.605469 5.996094 Z M 0.605469 5.996094 "/>
<path fill-rule="nonzero" fill="rgb(30%,30%,30%)" fill-opacity="1" d="M 10.164062 5.667969 L 9.214844 2.753906 C 9.046875 2.398438 8.695312 2.171875 8.304688 2.167969 L 7.867188 2.167969 C 7.867188 2.167969 7.683594 2.222656 7.585938 2.21875 C 7.488281 2.21875 7.375 2.195312 7.285156 2.167969 L 6.917969 2.167969 C 6.527344 2.171875 6.171875 2.398438 6.003906 2.753906 L 5.324219 4.722656 L 4.175781 2.289062 C 4.085938 2.109375 3.894531 2 3.691406 2.003906 C 3.535156 2.007812 3.375 2.023438 3.21875 2.074219 C 3.21875 2.074219 2.800781 2.15625 2.6875 2.152344 C 2.566406 2.152344 2.179688 2.074219 2.179688 2.074219 C 2.035156 2.023438 1.886719 2.007812 1.742188 2.003906 C 1.542969 2.003906 1.359375 2.117188 1.273438 2.300781 L 0.421875 5.371094 C 0.421875 5.375 0.421875 5.382812 0.414062 5.386719 C 0.234375 5.492188 0.0585938 5.695312 0.00390625 6.101562 L 0.00390625 6.105469 C -0.0234375 6.234375 0.0585938 6.359375 0.1875 6.386719 C 0.300781 6.410156 0.417969 6.347656 0.457031 6.234375 C 0.464844 6.210938 0.472656 6.1875 0.472656 6.160156 C 0.484375 6.078125 0.507812 5.992188 0.542969 5.914062 C 0.582031 5.949219 0.597656 5.976562 0.605469 5.996094 C 0.613281 5.980469 0.628906 5.960938 0.65625 5.933594 C 0.703125 6.003906 0.726562 6.089844 0.722656 6.175781 L 0.722656 10.695312 C 0.722656 10.839844 0.835938 10.953125 0.980469 10.953125 C 1.125 10.953125 1.242188 10.839844 1.242188 10.695312 L 1.242188 6.175781 C 1.246094 5.914062 1.140625 5.664062 0.945312 5.484375 L 1.519531 4.207031 L 1.519531 10.445312 C 1.503906 10.734375 1.730469 10.984375 2.023438 10.996094 C 2.316406 11.007812 2.5625 10.78125 2.574219 10.492188 C 2.578125 10.476562 2.578125 10.460938 2.574219 10.445312 L 2.574219 6.792969 L 2.910156 6.792969 L 2.910156 10.445312 C 2.898438 10.738281 3.125 10.988281 3.417969 11 C 3.710938 11.011719 3.957031 10.785156 3.96875 10.496094 C 3.96875 10.480469 3.96875 10.460938 3.96875 10.445312 L 3.96875 5.804688 C 3.96875 5.773438 3.964844 5.746094 3.960938 5.71875 L 3.960938 4.171875 L 4.707031 5.753906 C 4.800781 5.976562 5.039062 6.097656 5.269531 6.050781 C 5.378906 6.0625 5.492188 6.011719 5.558594 5.917969 L 5.597656 5.820312 C 5.625 5.769531 5.648438 5.714844 5.660156 5.660156 L 6.417969 3.722656 C 6.421875 3.710938 6.4375 3.703125 6.449219 3.707031 C 6.464844 3.710938 6.472656 3.726562 6.46875 3.738281 L 5.882812 8.351562 L 6.636719 8.351562 L 6.636719 10.570312 C 6.632812 10.785156 6.800781 10.960938 7.011719 10.964844 C 7.023438 10.964844 7.03125 10.964844 7.042969 10.964844 C 7.257812 10.980469 7.441406 10.816406 7.457031 10.601562 C 7.457031 10.589844 7.457031 10.582031 7.457031 10.570312 L 7.457031 8.351562 L 7.769531 8.351562 L 7.796875 10.570312 C 7.808594 10.792969 8 10.96875 8.226562 10.957031 C 8.4375 10.945312 8.605469 10.777344 8.613281 10.570312 L 8.589844 8.351562 L 9.445312 8.347656 L 8.757812 3.726562 C 8.75 3.726562 8.769531 3.671875 8.773438 3.683594 C 8.777344 3.683594 8.804688 3.71875 8.804688 3.722656 L 9.503906 5.832031 C 9.503906 5.832031 9.640625 6.136719 9.957031 6.074219 C 10.097656 6.046875 10.234375 5.878906 10.164062 5.667969 Z M 10.164062 5.667969 "/>
<path fill-rule="nonzero" fill="rgb(30%,30%,30%)" fill-opacity="1" d="M 6.679688 0.953125 C 6.679688 1.46875 7.101562 1.886719 7.617188 1.886719 C 8.003906 1.886719 8.335938 1.652344 8.476562 1.316406 C 8.484375 1.296875 8.492188 1.273438 8.5 1.25 C 8.503906 1.242188 8.507812 1.234375 8.507812 1.226562 C 8.515625 1.214844 8.515625 1.199219 8.519531 1.183594 C 8.523438 1.167969 8.527344 1.152344 8.53125 1.136719 C 8.53125 1.136719 8.53125 1.132812 8.53125 1.132812 C 8.550781 1.046875 8.554688 0.960938 8.546875 0.871094 C 8.546875 0.871094 8.546875 0.867188 8.546875 0.867188 C 8.53125 0.71875 8.480469 0.570312 8.394531 0.433594 C 8.179688 0.113281 7.800781 -0.03125 7.445312 0.0351562 C 7.441406 0.0351562 7.441406 0.0351562 7.4375 0.0351562 C 7.414062 0.0390625 7.390625 0.046875 7.367188 0.0507812 C 7.359375 0.0546875 7.351562 0.0546875 7.347656 0.0585938 C 7.328125 0.0625 7.304688 0.0703125 7.285156 0.078125 C 7.277344 0.0820312 7.265625 0.0859375 7.257812 0.0898438 C 7.242188 0.0976562 7.222656 0.105469 7.207031 0.113281 C 7.195312 0.117188 7.183594 0.125 7.171875 0.128906 C 7.164062 0.136719 7.152344 0.140625 7.140625 0.148438 C 6.867188 0.3125 6.679688 0.609375 6.679688 0.953125 Z M 6.679688 0.953125 "/>
</svg>
