<?xml version="1.0" encoding="UTF-8"?>
<svg xmlns="http://www.w3.org/2000/svg" xmlns:xlink="http://www.w3.org/1999/xlink" width="10.989263" height="11" viewBox="0 0 10.989263 11">
<path fill-rule="nonzero" fill="rgb(30%,30%,30%)" fill-opacity="1" d="M 3.710938 4.792969 C 3.710938 5.339844 3.265625 5.78125 2.71875 5.78125 C 2.171875 5.78125 1.730469 5.339844 1.730469 4.792969 C 1.730469 4.246094 2.171875 3.804688 2.71875 3.804688 C 3.265625 3.804688 3.710938 4.246094 3.710938 4.792969 Z M 3.710938 4.792969 "/>
<path fill-rule="nonzero" fill="rgb(30%,30%,30%)" fill-opacity="1" d="M 10.941406 3.480469 L 6.984375 0.0507812 C 6.910156 -0.015625 6.785156 -0.015625 6.710938 0.0507812 L 2.777344 3.476562 C 2.703125 3.542969 2.722656 3.597656 2.820312 3.597656 L 3.730469 3.597656 C 3.828125 3.597656 3.910156 3.679688 3.910156 3.78125 L 3.910156 6.175781 C 3.792969 6.136719 3.664062 6.113281 3.535156 6.113281 L 1.957031 6.113281 C 1.535156 6.113281 1.152344 6.34375 0.957031 6.71875 L 0.046875 10.421875 C -0.0078125 10.523438 -0.015625 10.632812 0.0273438 10.726562 C 0.0664062 10.8125 0.140625 10.878906 0.242188 10.902344 C 0.371094 10.9375 0.507812 10.890625 0.589844 10.785156 L 1.382812 8.394531 C 1.390625 8.367188 1.417969 8.359375 1.441406 8.363281 C 1.460938 8.371094 1.480469 8.390625 1.472656 8.417969 L 1.460938 11 L 4.027344 11 L 4.015625 8.417969 C 4.011719 8.390625 4.027344 8.371094 4.050781 8.363281 C 4.070312 8.355469 4.097656 8.363281 4.105469 8.394531 L 4.910156 10.71875 C 4.992188 10.828125 5.128906 10.875 5.261719 10.839844 C 5.351562 10.8125 5.421875 10.761719 5.457031 10.691406 C 5.503906 10.601562 5.503906 10.484375 5.457031 10.355469 L 4.675781 7.28125 L 9.601562 7.28125 C 9.703125 7.28125 9.78125 7.199219 9.78125 7.097656 L 9.78125 3.78125 C 9.78125 3.679688 9.863281 3.597656 9.964844 3.597656 L 10.898438 3.597656 C 11 3.597656 11.019531 3.542969 10.941406 3.480469 Z M 9.03125 4.890625 C 9.03125 5 8.941406 5.089844 8.828125 5.089844 L 7.699219 5.089844 C 7.585938 5.089844 7.496094 5.179688 7.496094 5.289062 L 7.496094 6.421875 C 7.496094 6.535156 7.40625 6.621094 7.296875 6.621094 L 6.378906 6.621094 C 6.269531 6.621094 6.179688 6.535156 6.179688 6.421875 L 6.179688 5.289062 C 6.179688 5.179688 6.089844 5.089844 5.980469 5.089844 L 4.847656 5.089844 C 4.738281 5.089844 4.648438 5 4.644531 4.890625 L 4.644531 3.972656 C 4.648438 3.863281 4.738281 3.773438 4.847656 3.773438 L 5.980469 3.773438 C 6.089844 3.773438 6.179688 3.683594 6.179688 3.570312 L 6.179688 2.441406 C 6.179688 2.328125 6.269531 2.238281 6.378906 2.238281 L 7.296875 2.238281 C 7.40625 2.238281 7.496094 2.328125 7.496094 2.441406 L 7.496094 3.570312 C 7.496094 3.683594 7.585938 3.773438 7.699219 3.773438 L 8.828125 3.773438 C 8.941406 3.773438 9.03125 3.863281 9.03125 3.972656 Z M 9.03125 4.890625 "/>
</svg>
