<?xml version="1.0" encoding="UTF-8"?>
<svg xmlns="http://www.w3.org/2000/svg" xmlns:xlink="http://www.w3.org/1999/xlink" width="11" height="10.926187" viewBox="0 0 11 10.926187">
<path fill-rule="nonzero" fill="rgb(30%,30%,30%)" fill-opacity="1" stroke-width="1" stroke-linecap="butt" stroke-linejoin="miter" stroke="rgb(11.372549%, 11.372549%, 10.588235%)" stroke-opacity="1" stroke-miterlimit="10" d="M 423.493675 847.998075 C 423.493675 781.627149 369.588354 727.721828 303.217428 727.721828 L 120.950063 727.721828 C 54.242229 727.721828 0.336908 781.627149 0.336908 847.998075 L 0.336908 940.984753 L 423.493675 940.984753 Z M 423.493675 847.998075 " transform="matrix(0.0115944, 0, 0, 0.0115944, 0, 0)"/>
<path fill-rule="nonzero" fill="rgb(30%,30%,30%)" fill-opacity="1" stroke-width="1" stroke-linecap="butt" stroke-linejoin="miter" stroke="rgb(11.372549%, 11.372549%, 10.588235%)" stroke-opacity="1" stroke-miterlimit="10" d="M 948.396734 848.671891 C 948.396734 782.300965 894.491414 728.395645 827.783579 728.395645 L 645.516214 728.395645 C 579.145288 728.395645 525.239968 782.300965 525.239968 848.671891 L 525.239968 941.995478 L 948.396734 941.995478 Z M 948.396734 848.671891 " transform="matrix(0.0115944, 0, 0, 0.0115944, 0, 0)"/>
<path fill-rule="nonzero" fill="rgb(30%,30%,30%)" fill-opacity="1" stroke-width="1" stroke-linecap="butt" stroke-linejoin="miter" stroke="rgb(11.372549%, 11.372549%, 10.588235%)" stroke-opacity="1" stroke-miterlimit="10" d="M 318.041392 590.937077 C 318.041392 655.286554 265.820612 707.170425 201.471136 707.170425 C 137.458568 707.170425 85.237788 655.286554 85.237788 590.937077 C 85.237788 526.587601 137.458568 474.70373 201.471136 474.70373 C 265.820612 474.70373 318.041392 526.587601 318.041392 590.937077 Z M 318.041392 590.937077 " transform="matrix(0.0115944, 0, 0, 0.0115944, 0, 0)"/>
<path fill-rule="nonzero" fill="rgb(30%,30%,30%)" fill-opacity="1" stroke-width="1" stroke-linecap="butt" stroke-linejoin="miter" stroke="rgb(11.372549%, 11.372549%, 10.588235%)" stroke-opacity="1" stroke-miterlimit="10" d="M 837.217011 591.610894 C 837.217011 655.96037 784.996231 708.181149 720.983663 708.181149 C 656.634187 708.181149 604.413407 655.96037 604.413407 591.610894 C 604.413407 527.598325 656.634187 475.377546 720.983663 475.377546 C 784.996231 475.377546 837.217011 527.598325 837.217011 591.610894 Z M 837.217011 591.610894 " transform="matrix(0.0115944, 0, 0, 0.0115944, 0, 0)"/>
<path fill-rule="nonzero" fill="rgb(30%,30%,30%)" fill-opacity="1" stroke-width="1" stroke-linecap="butt" stroke-linejoin="miter" stroke="rgb(11.372549%, 11.372549%, 10.588235%)" stroke-opacity="1" stroke-miterlimit="10" d="M 754.33758 317.367575 L 680.554673 275.590952 C 657.98182 287.045832 632.039884 293.783997 604.413407 294.120906 C 514.795812 294.794722 441.686721 230.108337 440.675996 148.913448 C 440.002179 68.055467 511.763637 1.347633 601.044325 0.673817 C 690.66192 -0.336908 763.771011 64.349476 764.781736 145.544366 C 765.118644 180.245916 751.979222 212.589108 729.743278 237.857227 Z M 516.143445 127.014412 C 506.710014 127.014412 498.961124 134.763302 498.961124 144.533641 C 498.961124 153.967072 507.046922 161.715962 516.480353 161.715962 C 526.250692 161.715962 533.999582 153.630164 533.999582 144.196733 C 533.662674 134.426393 525.913784 126.677503 516.143445 127.014412 Z M 575.776206 126.340595 C 566.005866 126.340595 558.256976 134.089485 558.593885 143.859824 C 558.593885 153.293255 566.342775 161.042145 576.113114 161.042145 C 585.546545 161.042145 593.295435 152.956347 593.295435 143.522916 C 593.295435 133.752577 585.209637 126.003687 575.776206 126.340595 Z M 632.713701 125.666779 C 622.943361 125.666779 615.53138 133.415668 615.53138 143.186008 C 615.53138 152.956347 623.617178 160.368329 633.050609 160.368329 C 642.820948 160.368329 650.569838 152.282531 650.23293 142.8491 C 650.23293 133.07876 642.48404 125.32987 632.713701 125.666779 Z M 683.249939 124.992962 C 673.816508 124.992962 666.067618 133.07876 666.067618 142.512191 C 666.067618 152.282531 674.153416 160.031421 683.586847 159.694512 C 693.357186 159.694512 701.106076 151.945622 700.769168 142.175283 C 700.769168 132.741852 693.020278 124.992962 683.249939 124.992962 Z M 683.249939 124.992962 " transform="matrix(0.0115944, 0, 0, 0.0115944, 0, 0)"/>
<path fill-rule="nonzero" fill="rgb(30%,30%,30%)" fill-opacity="1" stroke-width="1" stroke-linecap="butt" stroke-linejoin="miter" stroke="rgb(11.372549%, 11.372549%, 10.588235%)" stroke-opacity="1" stroke-miterlimit="10" d="M 415.070969 158.683788 C 414.73406 128.698953 423.156767 99.724843 437.98073 73.445999 C 433.937831 73.445999 429.894932 73.445999 425.515124 73.445999 C 313.661584 74.456724 224.043989 156.662338 225.054714 257.060998 C 225.72853 300.859071 243.584667 340.951153 272.895686 371.946712 L 242.573943 472.008464 L 331.85463 414.73406 C 361.165648 428.884207 394.182657 436.633097 429.558024 435.95928 C 515.13272 435.285464 587.567995 386.770675 616.542104 319.389025 C 507.046922 318.715208 416.081693 257.397906 415.070969 158.683788 Z M 415.070969 158.683788 " transform="matrix(0.0115944, 0, 0, 0.0115944, 0, 0)"/>
</svg>
