<?xml version="1.0" encoding="UTF-8" standalone="no"?>
<!-- Created with Inkscape (http://www.inkscape.org/) -->

<svg
   xmlns:dc="http://purl.org/dc/elements/1.1/"
   xmlns:cc="http://creativecommons.org/ns#"
   xmlns:rdf="http://www.w3.org/1999/02/22-rdf-syntax-ns#"
   xmlns:svg="http://www.w3.org/2000/svg"
   xmlns="http://www.w3.org/2000/svg"
   xmlns:xlink="http://www.w3.org/1999/xlink"
   xmlns:sodipodi="http://sodipodi.sourceforge.net/DTD/sodipodi-0.dtd"
   xmlns:inkscape="http://www.inkscape.org/namespaces/inkscape"
   width="30px"
   height="30px"
   version="1.1"
   id="svg8"
   inkscape:version="0.92.4 5da689c313, 2019-01-14"
   sodipodi:docname="container.svg">
  <defs
     id="defs2" />
  <sodipodi:namedview
     id="base"
     pagecolor="#ffffff"
     bordercolor="#666666"
     borderopacity="1.0"
     inkscape:pageopacity="0.0"
     inkscape:pageshadow="2"
     inkscape:zoom="13.049334"
     inkscape:cx="18.679046"
     inkscape:cy="12.165829"
     inkscape:document-units="px"
     inkscape:current-layer="layer1"
     showgrid="false"
     inkscape:snap-page="false"
     units="px"
     inkscape:window-width="1884"
     inkscape:window-height="1061"
     inkscape:window-x="0"
     inkscape:window-y="0"
     inkscape:window-maximized="1"
     fit-margin-top="0"
     fit-margin-left="0"
     fit-margin-right="0"
     fit-margin-bottom="0" />
  <metadata
     id="metadata5">
    <rdf:RDF>
      <cc:Work
         rdf:about="">
        <dc:format>image/svg+xml</dc:format>
        <dc:type
           rdf:resource="http://purl.org/dc/dcmitype/StillImage" />
        <dc:title></dc:title>
      </cc:Work>
    </rdf:RDF>
  </metadata>
    <circle
       style="color:#000000;clip-rule:nonzero;display:inline;overflow:visible;visibility:visible;opacity:1;isolation:auto;mix-blend-mode:normal;color-interpolation:sRGB;color-interpolation-filters:linearRGB;solid-color:#000000;solid-opacity:1;vector-effect:none;fill:#006660;fill-opacity:1;fill-rule:evenodd;stroke:#ffffff;stroke-width:1;stroke-linecap:butt;stroke-linejoin:miter;stroke-miterlimit:4;stroke-dasharray:none;stroke-dashoffset:0;stroke-opacity:1;marker:none;color-rendering:auto;image-rendering:auto;shape-rendering:auto;text-rendering:auto;enable-background:accumulate"
       id="path815"
       cx="15"
       cy="15"
       r="14.5" />
<g transform="translate(6.5,6.5)"><path fill-rule="nonzero" fill="#FFFFFF" fill-opacity="1" d="M 5.730469 7.410156 C 5.730469 8.253906 5.046875 8.9375 4.203125 8.9375 C 3.359375 8.9375 2.675781 8.253906 2.675781 7.410156 C 2.675781 6.5625 3.359375 5.878906 4.203125 5.878906 C 5.046875 5.878906 5.730469 6.5625 5.730469 7.410156 Z M 5.730469 7.410156 "/>
<path fill-rule="nonzero" fill="#FFFFFF" fill-opacity="1" d="M 16.910156 5.378906 L 10.796875 0.078125 C 10.679688 -0.0273438 10.488281 -0.0273438 10.371094 0.078125 L 4.292969 5.375 C 4.175781 5.476562 4.207031 5.5625 4.359375 5.5625 L 5.761719 5.5625 C 5.917969 5.5625 6.042969 5.6875 6.042969 5.84375 L 6.042969 9.546875 C 5.859375 9.480469 5.664062 9.445312 5.460938 9.445312 L 3.023438 9.445312 C 2.371094 9.445312 1.78125 9.804688 1.480469 10.382812 L 0.0703125 16.105469 C -0.0117188 16.265625 -0.0234375 16.433594 0.0390625 16.574219 C 0.101562 16.710938 0.21875 16.808594 0.371094 16.851562 C 0.574219 16.90625 0.785156 16.832031 0.910156 16.667969 L 2.136719 12.972656 C 2.152344 12.929688 2.195312 12.917969 2.226562 12.925781 C 2.257812 12.9375 2.285156 12.96875 2.277344 13.011719 L 2.257812 17 L 6.226562 17 L 6.207031 13.011719 C 6.199219 12.96875 6.226562 12.9375 6.257812 12.925781 C 6.289062 12.914062 6.332031 12.929688 6.347656 12.972656 L 7.589844 16.566406 C 7.714844 16.730469 7.925781 16.804688 8.128906 16.75 C 8.269531 16.710938 8.375 16.632812 8.433594 16.523438 C 8.503906 16.386719 8.503906 16.203125 8.433594 16.007812 L 8.433594 16.003906 L 7.226562 11.25 L 14.835938 11.25 C 14.992188 11.25 15.121094 11.125 15.121094 10.96875 L 15.121094 5.84375 C 15.121094 5.6875 15.246094 5.5625 15.402344 5.5625 L 16.84375 5.5625 C 17 5.5625 17.027344 5.476562 16.910156 5.378906 Z M 13.957031 7.558594 C 13.953125 7.726562 13.816406 7.867188 13.644531 7.867188 L 11.894531 7.867188 C 11.726562 7.867188 11.585938 8.003906 11.585938 8.175781 L 11.585938 9.925781 C 11.585938 10.097656 11.449219 10.234375 11.277344 10.234375 L 9.859375 10.234375 C 9.6875 10.234375 9.550781 10.097656 9.550781 9.925781 L 9.550781 8.175781 C 9.550781 8.003906 9.410156 7.867188 9.242188 7.867188 L 7.492188 7.867188 C 7.320312 7.867188 7.183594 7.726562 7.179688 7.558594 L 7.179688 6.140625 C 7.183594 5.972656 7.320312 5.832031 7.492188 5.832031 L 9.242188 5.832031 C 9.410156 5.832031 9.550781 5.691406 9.550781 5.519531 L 9.550781 3.769531 C 9.550781 3.597656 9.6875 3.460938 9.859375 3.460938 L 11.277344 3.460938 C 11.449219 3.460938 11.585938 3.597656 11.585938 3.769531 L 11.585938 5.519531 C 11.585938 5.691406 11.726562 5.832031 11.894531 5.832031 L 13.644531 5.832031 C 13.816406 5.832031 13.953125 5.972656 13.957031 6.140625 Z M 13.957031 7.558594 "/>
</g>
</svg>
