<?xml version="1.0" encoding="UTF-8"?>
<svg xmlns="http://www.w3.org/2000/svg" xmlns:xlink="http://www.w3.org/1999/xlink" width="10.474572" height="11" viewBox="0 0 10.474572 11">
<path fill-rule="nonzero" fill="rgb(30%,30%,30%)" fill-opacity="1" d="M 5.03125 2.640625 C 5.03125 3.074219 4.679688 3.425781 4.246094 3.425781 C 3.808594 3.425781 3.457031 3.074219 3.457031 2.640625 C 3.457031 2.207031 3.808594 1.855469 4.246094 1.855469 C 4.679688 1.855469 5.03125 2.207031 5.03125 2.640625 Z M 5.03125 2.640625 "/>
<path fill-rule="nonzero" fill="rgb(30%,30%,30%)" fill-opacity="1" d="M 5.035156 10.167969 C 3.734375 10.167969 2.679688 9.113281 2.679688 7.808594 C 2.679688 7.011719 3.074219 6.308594 3.679688 5.882812 L 3.453125 5.042969 C 2.496094 5.59375 1.847656 6.628906 1.847656 7.808594 C 1.847656 9.570312 3.277344 11 5.035156 11 C 6.121094 11 7.082031 10.457031 7.65625 9.625 L 7.183594 8.785156 C 6.8125 9.601562 5.992188 10.167969 5.035156 10.167969 Z M 5.035156 10.167969 "/>
<path fill-rule="nonzero" fill="rgb(30%,30%,30%)" fill-opacity="1" d="M 8.808594 9.152344 L 8.105469 7.792969 L 7.546875 6.695312 C 7.488281 6.578125 7.375 6.507812 7.253906 6.492188 C 7.226562 6.484375 7.195312 6.480469 7.164062 6.480469 L 5.597656 6.496094 L 5.386719 5.785156 L 6.917969 5.78125 C 7.128906 5.78125 7.304688 5.605469 7.304688 5.394531 C 7.304688 5.183594 7.128906 5.007812 6.917969 5.007812 L 5.222656 5.007812 L 4.945312 3.996094 C 4.867188 3.703125 4.566406 3.53125 4.273438 3.609375 L 4.125 3.648438 C 3.835938 3.730469 3.664062 4.03125 3.742188 4.320312 C 3.742188 4.320312 4.46875 6.917969 4.46875 6.917969 C 4.503906 7.144531 4.640625 7.304688 4.855469 7.304688 L 6.96875 7.289062 L 7.730469 8.746094 L 8.125 9.503906 C 8.132812 9.523438 8.140625 9.539062 8.152344 9.550781 L 8.152344 9.554688 C 8.15625 9.558594 8.15625 9.558594 8.160156 9.558594 C 8.269531 9.707031 8.472656 9.757812 8.644531 9.671875 C 8.832031 9.574219 8.90625 9.339844 8.808594 9.152344 Z M 8.808594 9.152344 "/>
</svg>
