<?xml version="1.0" encoding="UTF-8" standalone="no"?>
<!-- Created with Inkscape (http://www.inkscape.org/) -->

<svg
   xmlns:dc="http://purl.org/dc/elements/1.1/"
   xmlns:cc="http://creativecommons.org/ns#"
   xmlns:rdf="http://www.w3.org/1999/02/22-rdf-syntax-ns#"
   xmlns:svg="http://www.w3.org/2000/svg"
   xmlns="http://www.w3.org/2000/svg"
   xmlns:xlink="http://www.w3.org/1999/xlink"
   xmlns:sodipodi="http://sodipodi.sourceforge.net/DTD/sodipodi-0.dtd"
   xmlns:inkscape="http://www.inkscape.org/namespaces/inkscape"
   width="30px"
   height="30px"
   version="1.1"
   id="svg8"
   inkscape:version="0.92.4 5da689c313, 2019-01-14"
   sodipodi:docname="container.svg">
  <defs
     id="defs2" />
  <sodipodi:namedview
     id="base"
     pagecolor="#ffffff"
     bordercolor="#666666"
     borderopacity="1.0"
     inkscape:pageopacity="0.0"
     inkscape:pageshadow="2"
     inkscape:zoom="13.049334"
     inkscape:cx="18.679046"
     inkscape:cy="12.165829"
     inkscape:document-units="px"
     inkscape:current-layer="layer1"
     showgrid="false"
     inkscape:snap-page="false"
     units="px"
     inkscape:window-width="1884"
     inkscape:window-height="1061"
     inkscape:window-x="0"
     inkscape:window-y="0"
     inkscape:window-maximized="1"
     fit-margin-top="0"
     fit-margin-left="0"
     fit-margin-right="0"
     fit-margin-bottom="0" />
  <metadata
     id="metadata5">
    <rdf:RDF>
      <cc:Work
         rdf:about="">
        <dc:format>image/svg+xml</dc:format>
        <dc:type
           rdf:resource="http://purl.org/dc/dcmitype/StillImage" />
        <dc:title></dc:title>
      </cc:Work>
    </rdf:RDF>
  </metadata>
    <circle
       style="color:#000000;clip-rule:nonzero;display:inline;overflow:visible;visibility:visible;opacity:1;isolation:auto;mix-blend-mode:normal;color-interpolation:sRGB;color-interpolation-filters:linearRGB;solid-color:#000000;solid-opacity:1;vector-effect:none;fill:#ffffff;fill-opacity:1;fill-rule:evenodd;stroke:#006660;stroke-width:1;stroke-linecap:butt;stroke-linejoin:miter;stroke-miterlimit:4;stroke-dasharray:none;stroke-dashoffset:0;stroke-opacity:1;marker:none;color-rendering:auto;image-rendering:auto;shape-rendering:auto;text-rendering:auto;enable-background:accumulate"
       id="path815"
       cx="15"
       cy="15"
       r="14.5" />
<g transform="translate(6.5,7.5)"><path fill-rule="nonzero" fill="rgb(30%,30%,30%)" fill-opacity="1" d="M 14.910156 9.761719 L 14.777344 4.972656 L 15.488281 5.289062 L 17 2.480469 L 14.53125 0 L 12.523438 0.0390625 L 12.429688 0.417969 C 12.40625 0.507812 12.175781 1.316406 11.355469 1.355469 C 10.539062 1.316406 10.304688 0.507812 10.28125 0.417969 L 10.1875 0.0390625 L 8.179688 0 L 5.472656 2.429688 L 7.292969 5.277344 L 7.933594 4.972656 L 7.886719 10.410156 L 13.324219 10.414062 C 13.066406 10.515625 12.804688 10.625 12.539062 10.730469 C 12.539062 10.730469 10.183594 11.660156 10.03125 11.722656 C 9.949219 11.753906 9.882812 11.855469 9.871094 11.945312 C 9.808594 12.492188 9.457031 12.898438 8.789062 13.019531 C 8.078125 13.148438 6.359375 11.90625 5.78125 11.5 C 5.476562 11.289062 5.628906 10.984375 5.84375 10.863281 C 6.304688 10.601562 8.179688 12.59375 8.847656 12.289062 C 9.105469 12.171875 9.332031 11.613281 9.0625 11.410156 C 8.957031 11.332031 8.285156 10.828125 7.460938 10.15625 L 6.558594 9.347656 C 6.085938 8.886719 5.359375 8.191406 4.78125 7.765625 C 4.609375 7.640625 4.34375 7.546875 4.050781 7.476562 C 3.253906 7.25 2.8125 7.335938 2.597656 7.320312 C 2.507812 7.3125 1.933594 7.359375 1.804688 7.359375 C 1.804688 7.363281 1.800781 7.367188 1.800781 7.371094 C 1.144531 7.445312 0.351562 7.589844 0.105469 7.855469 C -0.230469 8.21875 0.308594 9.097656 0.742188 11.257812 C 0.832031 11.710938 1.46875 11.589844 2.441406 11.863281 C 3.488281 12.160156 5.417969 14.113281 6.238281 14.382812 C 8.175781 15.03125 9.273438 14.902344 11.277344 13.566406 C 11.886719 13.15625 15.847656 10.636719 15.984375 10.5 C 16.3125 10.167969 15.558594 9.511719 14.910156 9.761719 Z M 11.433594 5.660156 C 11.433594 5.660156 9.304688 4.726562 9.304688 3.574219 L 9.304688 3.566406 C 9.304688 2.992188 9.78125 2.527344 10.371094 2.527344 C 10.957031 2.527344 11.433594 2.992188 11.433594 3.566406 C 11.4375 2.992188 11.914062 2.527344 12.5 2.527344 C 13.089844 2.527344 13.566406 2.992188 13.566406 3.566406 L 13.566406 3.574219 C 13.566406 4.726562 11.433594 5.660156 11.433594 5.660156 Z M 11.433594 5.660156 "/>
</g>
</svg>
