<?xml version="1.0" encoding="UTF-8"?>
<svg xmlns="http://www.w3.org/2000/svg" xmlns:xlink="http://www.w3.org/1999/xlink" width="11" height="9.55174" viewBox="0 0 11 9.55174">
<path fill-rule="nonzero" fill="rgb(30%,30%,30%)" fill-opacity="1" d="M 9.648438 6.316406 L 9.5625 3.21875 L 10.023438 3.421875 L 11 1.605469 L 9.402344 0 L 8.101562 0.0234375 L 8.042969 0.269531 C 8.027344 0.328125 7.878906 0.851562 7.347656 0.875 C 6.816406 0.851562 6.667969 0.328125 6.652344 0.269531 L 6.59375 0.0234375 L 5.292969 0 L 3.542969 1.570312 L 4.71875 3.414062 L 5.132812 3.21875 L 5.101562 6.734375 L 8.621094 6.738281 C 8.457031 6.804688 8.285156 6.875 8.113281 6.945312 C 8.113281 6.945312 6.589844 7.542969 6.492188 7.585938 C 6.4375 7.605469 6.394531 7.671875 6.386719 7.726562 C 6.347656 8.082031 6.117188 8.34375 5.6875 8.421875 C 5.226562 8.507812 4.117188 7.703125 3.742188 7.441406 C 3.542969 7.304688 3.644531 7.105469 3.78125 7.027344 C 4.078125 6.859375 5.292969 8.148438 5.726562 7.953125 C 5.890625 7.875 6.039062 7.515625 5.863281 7.382812 C 5.796875 7.332031 5.359375 7.007812 4.828125 6.574219 L 4.242188 6.050781 C 3.9375 5.75 3.46875 5.300781 3.09375 5.023438 C 2.980469 4.945312 2.8125 4.882812 2.621094 4.835938 C 2.105469 4.691406 1.820312 4.746094 1.679688 4.734375 C 1.625 4.730469 1.25 4.761719 1.167969 4.761719 C 1.167969 4.765625 1.167969 4.765625 1.167969 4.769531 C 0.742188 4.816406 0.226562 4.910156 0.0664062 5.082031 C -0.148438 5.316406 0.199219 5.886719 0.480469 7.285156 C 0.539062 7.578125 0.953125 7.5 1.582031 7.675781 C 2.257812 7.867188 3.503906 9.132812 4.035156 9.308594 C 5.292969 9.726562 6 9.640625 7.296875 8.777344 C 7.691406 8.515625 10.253906 6.882812 10.34375 6.792969 C 10.554688 6.578125 10.066406 6.152344 9.648438 6.316406 Z M 7.398438 3.664062 C 7.398438 3.664062 6.019531 3.058594 6.019531 2.3125 L 6.019531 2.308594 C 6.023438 1.9375 6.328125 1.636719 6.710938 1.636719 C 7.089844 1.636719 7.398438 1.9375 7.398438 2.308594 C 7.402344 1.9375 7.710938 1.636719 8.089844 1.636719 C 8.46875 1.636719 8.777344 1.9375 8.777344 2.308594 L 8.777344 2.3125 C 8.777344 3.058594 7.398438 3.664062 7.398438 3.664062 Z M 7.398438 3.664062 "/>
</svg>
