<?xml version="1.0" encoding="UTF-8"?>
<svg xmlns="http://www.w3.org/2000/svg" xmlns:xlink="http://www.w3.org/1999/xlink" width="11" height="10.60675" viewBox="0 0 11 10.60675">
<path fill-rule="nonzero" fill="rgb(30%,30%,30%)" fill-opacity="1" d="M 0 9.59375 L 1.707031 10.605469 C 1.707031 10.605469 2.480469 9.871094 2.828125 9.765625 C 3.175781 9.660156 7.082031 9.417969 7.464844 9.277344 C 7.847656 9.136719 10.882812 6.628906 10.988281 6.171875 C 11.09375 5.71875 10.511719 5.472656 10.117188 5.6875 C 9.703125 5.90625 7.621094 7.648438 7.203125 7.71875 C 6.222656 7.878906 4.851562 7.488281 4.914062 7.417969 C 5.234375 7.203125 6.457031 6.289062 6.550781 6.164062 C 6.710938 5.949219 6.945312 5.273438 6.28125 5.449219 C 5.46875 6.023438 4.132812 6.550781 4.046875 6.589844 C 3.980469 6.636719 3.824219 6.675781 3.746094 6.691406 C 3.371094 6.753906 2.292969 6.976562 1.710938 7.5 C 1.015625 8.125 0 9.59375 0 9.59375 Z M 0 9.59375 "/>
<path fill-rule="nonzero" fill="rgb(30%,30%,30%)" fill-opacity="1" d="M 10.664062 3.097656 C 10.539062 2.167969 10.0625 1.742188 9.316406 1.699219 C 9.089844 1.675781 8.917969 1.746094 8.773438 1.820312 C 8.886719 1.730469 9 1.613281 9.078125 1.464844 C 9.296875 1.042969 9.132812 0.523438 9.132812 0.523438 C 9.132812 0.523438 8.808594 0.632812 8.566406 0.886719 C 8.5625 0.890625 8.558594 0.894531 8.554688 0.898438 C 8.496094 0.960938 8.441406 1.035156 8.398438 1.117188 C 8.382812 1.144531 8.371094 1.175781 8.359375 1.207031 C 8.339844 1.078125 8.304688 0.949219 8.25 0.824219 C 8.003906 0.257812 7.351562 0 7.351562 0 C 7.351562 0 7.101562 0.65625 7.347656 1.21875 C 7.507812 1.578125 7.859375 1.816406 8.09375 1.941406 C 7.898438 1.84375 7.679688 1.664062 7.332031 1.699219 C 6.585938 1.742188 6.109375 2.167969 5.984375 3.097656 C 5.828125 4.242188 6.636719 5.683594 7.3125 5.949219 C 7.648438 6.082031 7.925781 5.839844 8.324219 5.851562 C 8.6875 5.863281 9 6.082031 9.335938 5.949219 C 10.011719 5.683594 10.820312 4.242188 10.664062 3.097656 Z M 10.664062 3.097656 "/>
</svg>
