<?xml version="1.0" encoding="UTF-8" standalone="no"?>
<!-- Created with Inkscape (http://www.inkscape.org/) -->

<svg
   xmlns:dc="http://purl.org/dc/elements/1.1/"
   xmlns:cc="http://creativecommons.org/ns#"
   xmlns:rdf="http://www.w3.org/1999/02/22-rdf-syntax-ns#"
   xmlns:svg="http://www.w3.org/2000/svg"
   xmlns="http://www.w3.org/2000/svg"
   xmlns:xlink="http://www.w3.org/1999/xlink"
   xmlns:sodipodi="http://sodipodi.sourceforge.net/DTD/sodipodi-0.dtd"
   xmlns:inkscape="http://www.inkscape.org/namespaces/inkscape"
   width="30px"
   height="30px"
   version="1.1"
   id="svg8"
   inkscape:version="0.92.4 5da689c313, 2019-01-14"
   sodipodi:docname="container.svg">
  <defs
     id="defs2" />
  <sodipodi:namedview
     id="base"
     pagecolor="#ffffff"
     bordercolor="#666666"
     borderopacity="1.0"
     inkscape:pageopacity="0.0"
     inkscape:pageshadow="2"
     inkscape:zoom="13.049334"
     inkscape:cx="18.679046"
     inkscape:cy="12.165829"
     inkscape:document-units="px"
     inkscape:current-layer="layer1"
     showgrid="false"
     inkscape:snap-page="false"
     units="px"
     inkscape:window-width="1884"
     inkscape:window-height="1061"
     inkscape:window-x="0"
     inkscape:window-y="0"
     inkscape:window-maximized="1"
     fit-margin-top="0"
     fit-margin-left="0"
     fit-margin-right="0"
     fit-margin-bottom="0" />
  <metadata
     id="metadata5">
    <rdf:RDF>
      <cc:Work
         rdf:about="">
        <dc:format>image/svg+xml</dc:format>
        <dc:type
           rdf:resource="http://purl.org/dc/dcmitype/StillImage" />
        <dc:title></dc:title>
      </cc:Work>
    </rdf:RDF>
  </metadata>
    <circle
       style="color:#000000;clip-rule:nonzero;display:inline;overflow:visible;visibility:visible;opacity:1;isolation:auto;mix-blend-mode:normal;color-interpolation:sRGB;color-interpolation-filters:linearRGB;solid-color:#000000;solid-opacity:1;vector-effect:none;fill:#006660;fill-opacity:1;fill-rule:evenodd;stroke:#ffffff;stroke-width:1;stroke-linecap:butt;stroke-linejoin:miter;stroke-miterlimit:4;stroke-dasharray:none;stroke-dashoffset:0;stroke-opacity:1;marker:none;color-rendering:auto;image-rendering:auto;shape-rendering:auto;text-rendering:auto;enable-background:accumulate"
       id="path815"
       cx="15"
       cy="15"
       r="14.5" />
<g transform="translate(7.0,6.5)"><path fill-rule="nonzero" fill="#FFFFFF" fill-opacity="1" d="M 7.773438 4.082031 C 7.773438 4.75 7.230469 5.296875 6.558594 5.296875 C 5.886719 5.296875 5.34375 4.75 5.34375 4.082031 C 5.34375 3.410156 5.886719 2.867188 6.558594 2.867188 C 7.230469 2.867188 7.773438 3.410156 7.773438 4.082031 Z M 7.773438 4.082031 "/>
<path fill-rule="nonzero" fill="#FFFFFF" fill-opacity="1" d="M 7.785156 15.714844 C 5.773438 15.714844 4.140625 14.082031 4.140625 12.070312 C 4.140625 10.839844 4.753906 9.75 5.6875 9.089844 L 5.339844 7.792969 C 3.855469 8.644531 2.855469 10.242188 2.855469 12.070312 C 2.855469 14.789062 5.066406 17 7.785156 17 C 9.460938 17 10.941406 16.160156 11.832031 14.878906 L 11.101562 13.578125 C 10.527344 14.839844 9.257812 15.714844 7.785156 15.714844 Z M 7.785156 15.714844 "/>
<path fill-rule="nonzero" fill="#FFFFFF" fill-opacity="1" d="M 13.613281 14.144531 L 12.523438 12.042969 L 11.664062 10.347656 C 11.570312 10.167969 11.398438 10.054688 11.210938 10.03125 C 11.164062 10.019531 11.121094 10.015625 11.074219 10.015625 L 8.652344 10.039062 L 8.324219 8.941406 L 10.691406 8.933594 C 11.019531 8.933594 11.285156 8.664062 11.285156 8.335938 C 11.285156 8.011719 11.019531 7.742188 10.691406 7.742188 L 8.070312 7.742188 L 7.644531 6.171875 C 7.523438 5.722656 7.054688 5.457031 6.605469 5.578125 L 6.375 5.640625 C 5.929688 5.761719 5.660156 6.230469 5.78125 6.675781 C 5.78125 6.675781 6.90625 10.691406 6.90625 10.695312 C 6.960938 11.042969 7.175781 11.289062 7.5 11.289062 L 10.769531 11.265625 L 11.949219 13.519531 L 12.554688 14.691406 C 12.566406 14.714844 12.582031 14.738281 12.601562 14.761719 L 12.601562 14.765625 C 12.605469 14.769531 12.605469 14.773438 12.609375 14.773438 C 12.78125 15 13.097656 15.082031 13.355469 14.945312 C 13.648438 14.796875 13.761719 14.433594 13.613281 14.144531 Z M 13.613281 14.144531 "/>
</g>
</svg>
