<?xml version="1.0" encoding="UTF-8" standalone="no"?>
<!-- Created with Inkscape (http://www.inkscape.org/) -->

<svg
   xmlns:dc="http://purl.org/dc/elements/1.1/"
   xmlns:cc="http://creativecommons.org/ns#"
   xmlns:rdf="http://www.w3.org/1999/02/22-rdf-syntax-ns#"
   xmlns:svg="http://www.w3.org/2000/svg"
   xmlns="http://www.w3.org/2000/svg"
   xmlns:xlink="http://www.w3.org/1999/xlink"
   xmlns:sodipodi="http://sodipodi.sourceforge.net/DTD/sodipodi-0.dtd"
   xmlns:inkscape="http://www.inkscape.org/namespaces/inkscape"
   width="30px"
   height="30px"
   version="1.1"
   id="svg8"
   inkscape:version="0.92.4 5da689c313, 2019-01-14"
   sodipodi:docname="container.svg">
  <defs
     id="defs2" />
  <sodipodi:namedview
     id="base"
     pagecolor="#ffffff"
     bordercolor="#666666"
     borderopacity="1.0"
     inkscape:pageopacity="0.0"
     inkscape:pageshadow="2"
     inkscape:zoom="13.049334"
     inkscape:cx="18.679046"
     inkscape:cy="12.165829"
     inkscape:document-units="px"
     inkscape:current-layer="layer1"
     showgrid="false"
     inkscape:snap-page="false"
     units="px"
     inkscape:window-width="1884"
     inkscape:window-height="1061"
     inkscape:window-x="0"
     inkscape:window-y="0"
     inkscape:window-maximized="1"
     fit-margin-top="0"
     fit-margin-left="0"
     fit-margin-right="0"
     fit-margin-bottom="0" />
  <metadata
     id="metadata5">
    <rdf:RDF>
      <cc:Work
         rdf:about="">
        <dc:format>image/svg+xml</dc:format>
        <dc:type
           rdf:resource="http://purl.org/dc/dcmitype/StillImage" />
        <dc:title></dc:title>
      </cc:Work>
    </rdf:RDF>
  </metadata>
    <circle
       style="color:#000000;clip-rule:nonzero;display:inline;overflow:visible;visibility:visible;opacity:1;isolation:auto;mix-blend-mode:normal;color-interpolation:sRGB;color-interpolation-filters:linearRGB;solid-color:#000000;solid-opacity:1;vector-effect:none;fill:#006660;fill-opacity:1;fill-rule:evenodd;stroke:#ffffff;stroke-width:1;stroke-linecap:butt;stroke-linejoin:miter;stroke-miterlimit:4;stroke-dasharray:none;stroke-dashoffset:0;stroke-opacity:1;marker:none;color-rendering:auto;image-rendering:auto;shape-rendering:auto;text-rendering:auto;enable-background:accumulate"
       id="path815"
       cx="15"
       cy="15"
       r="14.5" />
<g transform="translate(7.0,6.5)"><path fill-rule="nonzero" fill="#FFFFFF" fill-opacity="1" d="M 6.445312 7.046875 C 6.335938 6.84375 6.121094 6.714844 5.890625 6.722656 C 5.707031 6.726562 5.527344 6.742188 5.347656 6.773438 C 5.839844 6.445312 5.972656 5.78125 5.644531 5.289062 C 5.316406 4.796875 4.652344 4.664062 4.160156 4.992188 C 3.671875 5.320312 3.539062 5.984375 3.867188 6.476562 C 3.945312 6.59375 4.042969 6.695312 4.160156 6.773438 C 3.996094 6.742188 3.828125 6.726562 3.660156 6.722656 C 3.433594 6.71875 3.222656 6.851562 3.128906 7.058594 L 1.566406 10.554688 C 1.566406 10.5625 1.566406 10.570312 1.558594 10.578125 C 1.328125 10.707031 1.109375 10.964844 1.042969 11.472656 L 1.042969 11.484375 C 1.007812 11.644531 1.109375 11.800781 1.269531 11.835938 C 1.417969 11.867188 1.5625 11.785156 1.613281 11.644531 C 1.621094 11.613281 1.628906 11.582031 1.632812 11.550781 C 1.644531 11.445312 1.671875 11.339844 1.722656 11.242188 C 1.925781 11.417969 2.230469 11.40625 2.421875 11.210938 C 2.472656 11.292969 2.5 11.390625 2.496094 11.488281 L 2.496094 16.652344 C 2.496094 16.816406 2.628906 16.949219 2.792969 16.949219 C 2.957031 16.949219 3.089844 16.816406 3.089844 16.652344 L 3.089844 11.488281 C 3.09375 11.191406 2.972656 10.902344 2.75 10.699219 L 3.40625 9.234375 L 3.40625 16.363281 C 3.390625 16.699219 3.648438 16.980469 3.984375 16.996094 C 4.316406 17.011719 4.597656 16.753906 4.613281 16.417969 C 4.613281 16.402344 4.613281 16.382812 4.613281 16.363281 L 4.613281 12.191406 L 4.996094 12.191406 L 4.996094 16.367188 C 4.984375 16.703125 5.242188 16.984375 5.574219 17 C 5.910156 17.015625 6.191406 16.753906 6.207031 16.421875 C 6.207031 16.402344 6.207031 16.386719 6.207031 16.367188 L 6.207031 11.0625 C 6.207031 11.03125 6.203125 10.996094 6.195312 10.964844 L 6.195312 9.199219 L 7.050781 11.003906 C 7.171875 11.296875 7.507812 11.433594 7.796875 11.3125 C 8.085938 11.191406 8.226562 10.855469 8.101562 10.566406 C 8.097656 10.550781 8.089844 10.535156 8.082031 10.519531 Z M 6.445312 7.046875 "/>
<path fill-rule="nonzero" fill="#FFFFFF" fill-opacity="1" d="M 15.09375 11.484375 L 15.09375 11.476562 C 14.972656 10.546875 14.34375 10.457031 14.078125 10.457031 L 13.128906 7.5625 C 12.933594 7.160156 12.53125 6.902344 12.085938 6.894531 L 11.582031 6.894531 C 12.144531 6.710938 12.453125 6.109375 12.269531 5.546875 C 12.085938 4.984375 11.480469 4.679688 10.921875 4.863281 C 10.359375 5.046875 10.050781 5.648438 10.234375 6.210938 C 10.339844 6.535156 10.597656 6.789062 10.921875 6.894531 L 10.5 6.894531 C 10.054688 6.902344 9.648438 7.160156 9.457031 7.5625 L 8.347656 10.769531 C 8.246094 10.953125 8.308594 11.183594 8.488281 11.289062 C 8.511719 11.300781 8.539062 11.3125 8.566406 11.320312 C 8.707031 11.359375 8.863281 11.304688 8.945312 11.179688 L 9.929688 8.671875 C 9.9375 8.65625 9.953125 8.648438 9.96875 8.652344 C 9.980469 8.660156 9.992188 8.675781 9.984375 8.691406 L 9.320312 13.960938 L 10.179688 13.960938 L 10.179688 16.496094 C 10.171875 16.742188 10.367188 16.941406 10.609375 16.949219 C 10.621094 16.949219 10.632812 16.949219 10.644531 16.945312 C 10.890625 16.960938 11.101562 16.777344 11.117188 16.53125 C 11.117188 16.519531 11.117188 16.507812 11.117188 16.496094 L 11.117188 13.960938 L 11.472656 13.960938 L 11.503906 16.496094 C 11.519531 16.753906 11.738281 16.953125 11.996094 16.9375 C 12.238281 16.925781 12.429688 16.734375 12.441406 16.496094 L 12.410156 13.960938 L 13.046875 13.960938 L 13.046875 16.652344 C 13.046875 16.816406 13.179688 16.949219 13.34375 16.949219 C 13.507812 16.949219 13.640625 16.816406 13.640625 16.652344 L 13.640625 11.488281 C 13.640625 11.429688 13.648438 11.367188 13.667969 11.308594 C 13.761719 11.359375 13.871094 11.378906 13.972656 11.359375 C 14.121094 11.34375 14.175781 11.199219 14.191406 11.058594 C 14.308594 11.082031 14.453125 11.179688 14.503906 11.554688 C 14.507812 11.585938 14.511719 11.617188 14.523438 11.648438 C 14.582031 11.800781 14.753906 11.878906 14.90625 11.820312 C 15.042969 11.769531 15.121094 11.628906 15.09375 11.484375 Z M 13.046875 11.484375 L 13.046875 12.5625 L 12.601562 8.6875 C 12.59375 8.675781 12.601562 8.65625 12.613281 8.648438 C 12.628906 8.640625 12.644531 8.648438 12.652344 8.660156 C 12.652344 8.664062 12.65625 8.667969 12.65625 8.671875 L 13.398438 10.691406 C 13.167969 10.890625 13.039062 11.183594 13.046875 11.488281 Z M 13.046875 11.484375 "/>
</g>
</svg>
