<?xml version="1.0" encoding="UTF-8" standalone="no"?>
<!-- Created with Inkscape (http://www.inkscape.org/) -->

<svg
   xmlns:dc="http://purl.org/dc/elements/1.1/"
   xmlns:cc="http://creativecommons.org/ns#"
   xmlns:rdf="http://www.w3.org/1999/02/22-rdf-syntax-ns#"
   xmlns:svg="http://www.w3.org/2000/svg"
   xmlns="http://www.w3.org/2000/svg"
   xmlns:xlink="http://www.w3.org/1999/xlink"
   xmlns:sodipodi="http://sodipodi.sourceforge.net/DTD/sodipodi-0.dtd"
   xmlns:inkscape="http://www.inkscape.org/namespaces/inkscape"
   width="30px"
   height="30px"
   version="1.1"
   id="svg8"
   inkscape:version="0.92.4 5da689c313, 2019-01-14"
   sodipodi:docname="container.svg">
  <defs
     id="defs2" />
  <sodipodi:namedview
     id="base"
     pagecolor="#ffffff"
     bordercolor="#666666"
     borderopacity="1.0"
     inkscape:pageopacity="0.0"
     inkscape:pageshadow="2"
     inkscape:zoom="13.049334"
     inkscape:cx="18.679046"
     inkscape:cy="12.165829"
     inkscape:document-units="px"
     inkscape:current-layer="layer1"
     showgrid="false"
     inkscape:snap-page="false"
     units="px"
     inkscape:window-width="1884"
     inkscape:window-height="1061"
     inkscape:window-x="0"
     inkscape:window-y="0"
     inkscape:window-maximized="1"
     fit-margin-top="0"
     fit-margin-left="0"
     fit-margin-right="0"
     fit-margin-bottom="0" />
  <metadata
     id="metadata5">
    <rdf:RDF>
      <cc:Work
         rdf:about="">
        <dc:format>image/svg+xml</dc:format>
        <dc:type
           rdf:resource="http://purl.org/dc/dcmitype/StillImage" />
        <dc:title></dc:title>
      </cc:Work>
    </rdf:RDF>
  </metadata>
    <circle
       style="color:#000000;clip-rule:nonzero;display:inline;overflow:visible;visibility:visible;opacity:1;isolation:auto;mix-blend-mode:normal;color-interpolation:sRGB;color-interpolation-filters:linearRGB;solid-color:#000000;solid-opacity:1;vector-effect:none;fill:#006660;fill-opacity:1;fill-rule:evenodd;stroke:#ffffff;stroke-width:1;stroke-linecap:butt;stroke-linejoin:miter;stroke-miterlimit:4;stroke-dasharray:none;stroke-dashoffset:0;stroke-opacity:1;marker:none;color-rendering:auto;image-rendering:auto;shape-rendering:auto;text-rendering:auto;enable-background:accumulate"
       id="path815"
       cx="15"
       cy="15"
       r="14.5" />
<g transform="translate(6.5,6.5)"><path fill-rule="nonzero" fill="#FFFFFF" fill-opacity="1" stroke-width="1" stroke-linecap="butt" stroke-linejoin="miter" stroke="rgb(11.372549%, 11.372549%, 10.588235%)" stroke-opacity="1" stroke-miterlimit="10" d="M 423.572948 848.017893 C 423.572948 781.528058 369.727081 727.682192 303.237247 727.682192 L 120.7717 727.682192 C 54.281865 727.682192 0.435999 781.528058 0.435999 848.017893 L 0.435999 941.103662 L 423.572948 941.103662 Z M 423.572948 848.017893 " transform="matrix(0.0179186, 0, 0, 0.0179186, 0, 0)"/>
<path fill-rule="nonzero" fill="#FFFFFF" fill-opacity="1" stroke-width="1" stroke-linecap="butt" stroke-linejoin="miter" stroke="rgb(11.372549%, 11.372549%, 10.588235%)" stroke-opacity="1" stroke-miterlimit="10" d="M 948.297644 848.671891 C 948.297644 782.400056 894.451777 728.33619 827.961943 728.33619 L 645.496396 728.33619 C 579.006561 728.33619 525.160695 782.400056 525.160695 848.671891 L 525.160695 941.975659 L 948.297644 941.975659 Z M 948.297644 848.671891 " transform="matrix(0.0179186, 0, 0, 0.0179186, 0, 0)"/>
<path fill-rule="nonzero" fill="#FFFFFF" fill-opacity="1" stroke-width="1" stroke-linecap="butt" stroke-linejoin="miter" stroke="rgb(11.372549%, 11.372549%, 10.588235%)" stroke-opacity="1" stroke-miterlimit="10" d="M 317.84321 590.996531 C 317.84321 655.306372 265.74134 707.408242 201.649499 707.408242 C 137.339659 707.408242 85.237788 655.306372 85.237788 590.996531 C 85.237788 526.686691 137.339659 474.584821 201.649499 474.584821 C 265.74134 474.584821 317.84321 526.686691 317.84321 590.996531 Z M 317.84321 590.996531 " transform="matrix(0.0179186, 0, 0, 0.0179186, 0, 0)"/>
<path fill-rule="nonzero" fill="#FFFFFF" fill-opacity="1" stroke-width="1" stroke-linecap="butt" stroke-linejoin="miter" stroke="rgb(11.372549%, 11.372549%, 10.588235%)" stroke-opacity="1" stroke-miterlimit="10" d="M 837.335919 591.65053 C 837.335919 655.96037 785.234049 708.062241 720.924209 708.062241 C 656.614368 708.062241 604.512498 655.96037 604.512498 591.65053 C 604.512498 527.558689 656.614368 475.456819 720.924209 475.456819 C 785.234049 475.456819 837.335919 527.558689 837.335919 591.65053 Z M 837.335919 591.65053 " transform="matrix(0.0179186, 0, 0, 0.0179186, 0, 0)"/>
<path fill-rule="nonzero" fill="#FFFFFF" fill-opacity="1" stroke-width="1" stroke-linecap="butt" stroke-linejoin="miter" stroke="rgb(11.372549%, 11.372549%, 10.588235%)" stroke-opacity="1" stroke-miterlimit="10" d="M 754.278126 317.625211 L 680.594309 275.769315 C 657.922365 287.105287 631.98043 293.64527 604.294498 294.081269 C 514.914721 294.953267 441.666903 229.989429 440.794905 149.111629 C 439.922907 68.015831 511.644729 1.525996 601.024507 0.435999 C 690.622284 -0.435999 763.652102 64.52784 764.5241 145.405639 C 764.960099 180.285552 751.880132 212.549472 729.644187 238.055408 Z M 516.222717 126.875685 C 506.630741 126.875685 499.00076 134.941665 499.00076 144.533641 C 499.21876 154.125617 507.06674 161.755598 516.658716 161.755598 C 526.250692 161.537599 533.880673 153.689618 533.880673 144.097642 C 533.662674 134.505666 525.814693 126.657685 516.222717 126.875685 Z M 575.736569 126.221686 C 566.144593 126.221686 558.296613 134.287666 558.514612 143.879642 C 558.514612 153.471619 566.362593 161.1016 576.172568 161.1016 C 585.764544 160.8836 593.394526 153.03562 593.394526 143.443644 C 593.176526 133.851667 585.328546 126.003687 575.736569 126.221686 Z M 632.634428 125.567688 C 623.042452 125.785687 615.412471 133.633668 615.412471 143.225644 C 615.63047 152.81762 623.478451 160.447601 633.070427 160.447601 C 642.662403 160.229602 650.510384 152.381621 650.292384 142.789645 C 650.292384 133.197669 642.444404 125.567688 632.634428 125.567688 Z M 683.210302 125.131689 C 673.618326 125.131689 665.988345 132.97967 665.988345 142.571646 C 666.206345 152.163622 674.054325 160.011602 683.646301 159.793603 C 693.238277 159.793603 701.086258 151.945622 700.868258 142.353646 C 700.868258 132.543671 693.020278 124.91369 683.210302 125.131689 Z M 683.210302 125.131689 " transform="matrix(0.0179186, 0, 0, 0.0179186, 0, 0)"/>
<path fill-rule="nonzero" fill="#FFFFFF" fill-opacity="1" stroke-width="1" stroke-linecap="butt" stroke-linejoin="miter" stroke="rgb(11.372549%, 11.372549%, 10.588235%)" stroke-opacity="1" stroke-miterlimit="10" d="M 415.070969 158.703606 C 414.852969 128.61968 423.136949 99.625752 437.960912 73.683817 C 433.818922 73.465817 429.676932 73.247818 425.534943 73.465817 C 313.701221 74.555815 224.103443 156.741611 225.19344 257.021361 C 225.629439 300.839252 243.505395 340.951153 272.717322 371.907076 L 242.633397 471.968827 L 332.013175 414.852969 C 361.007103 428.804935 394.36102 436.434916 429.458933 435.998917 C 514.914721 435.126919 587.50854 386.949039 616.502468 319.369206 C 507.06674 318.715208 416.160966 257.45736 415.070969 158.703606 Z M 415.070969 158.703606 " transform="matrix(0.0179186, 0, 0, 0.0179186, 0, 0)"/>
</g>
</svg>
