<?xml version="1.0" encoding="UTF-8" standalone="no"?>
<!-- Created with Inkscape (http://www.inkscape.org/) -->

<svg
   xmlns:dc="http://purl.org/dc/elements/1.1/"
   xmlns:cc="http://creativecommons.org/ns#"
   xmlns:rdf="http://www.w3.org/1999/02/22-rdf-syntax-ns#"
   xmlns:svg="http://www.w3.org/2000/svg"
   xmlns="http://www.w3.org/2000/svg"
   xmlns:xlink="http://www.w3.org/1999/xlink"
   xmlns:sodipodi="http://sodipodi.sourceforge.net/DTD/sodipodi-0.dtd"
   xmlns:inkscape="http://www.inkscape.org/namespaces/inkscape"
   width="30px"
   height="30px"
   version="1.1"
   id="svg8"
   inkscape:version="0.92.4 5da689c313, 2019-01-14"
   sodipodi:docname="container.svg">
  <defs
     id="defs2" />
  <sodipodi:namedview
     id="base"
     pagecolor="#ffffff"
     bordercolor="#666666"
     borderopacity="1.0"
     inkscape:pageopacity="0.0"
     inkscape:pageshadow="2"
     inkscape:zoom="13.049334"
     inkscape:cx="18.679046"
     inkscape:cy="12.165829"
     inkscape:document-units="px"
     inkscape:current-layer="layer1"
     showgrid="false"
     inkscape:snap-page="false"
     units="px"
     inkscape:window-width="1884"
     inkscape:window-height="1061"
     inkscape:window-x="0"
     inkscape:window-y="0"
     inkscape:window-maximized="1"
     fit-margin-top="0"
     fit-margin-left="0"
     fit-margin-right="0"
     fit-margin-bottom="0" />
  <metadata
     id="metadata5">
    <rdf:RDF>
      <cc:Work
         rdf:about="">
        <dc:format>image/svg+xml</dc:format>
        <dc:type
           rdf:resource="http://purl.org/dc/dcmitype/StillImage" />
        <dc:title></dc:title>
      </cc:Work>
    </rdf:RDF>
  </metadata>
    <circle
       style="color:#000000;clip-rule:nonzero;display:inline;overflow:visible;visibility:visible;opacity:1;isolation:auto;mix-blend-mode:normal;color-interpolation:sRGB;color-interpolation-filters:linearRGB;solid-color:#000000;solid-opacity:1;vector-effect:none;fill:#ffffff;fill-opacity:1;fill-rule:evenodd;stroke:#006660;stroke-width:1;stroke-linecap:butt;stroke-linejoin:miter;stroke-miterlimit:4;stroke-dasharray:none;stroke-dashoffset:0;stroke-opacity:1;marker:none;color-rendering:auto;image-rendering:auto;shape-rendering:auto;text-rendering:auto;enable-background:accumulate"
       id="path815"
       cx="15"
       cy="15"
       r="14.5" />
<g transform="translate(7.0,6.5)"><path fill-rule="nonzero" fill="rgb(30%,30%,30%)" fill-opacity="1" d="M 2.792969 1.441406 C 2.792969 2.242188 3.4375 2.886719 4.234375 2.886719 C 4.835938 2.886719 5.347656 2.523438 5.566406 2.003906 C 5.582031 1.972656 5.59375 1.9375 5.601562 1.90625 C 5.609375 1.894531 5.613281 1.878906 5.617188 1.867188 C 5.625 1.847656 5.628906 1.824219 5.632812 1.800781 C 5.640625 1.777344 5.648438 1.753906 5.652344 1.726562 C 5.652344 1.726562 5.652344 1.722656 5.652344 1.722656 C 5.679688 1.589844 5.6875 1.453125 5.675781 1.320312 C 5.675781 1.316406 5.675781 1.316406 5.675781 1.3125 C 5.652344 1.082031 5.574219 0.851562 5.4375 0.640625 C 5.105469 0.148438 4.523438 -0.078125 3.972656 0.0234375 C 3.96875 0.0234375 3.964844 0.0234375 3.960938 0.0273438 C 3.921875 0.03125 3.886719 0.0429688 3.851562 0.0507812 C 3.839844 0.0546875 3.828125 0.0585938 3.820312 0.0585938 C 3.789062 0.0703125 3.757812 0.0820312 3.726562 0.09375 C 3.710938 0.0976562 3.695312 0.101562 3.683594 0.109375 C 3.65625 0.121094 3.628906 0.132812 3.605469 0.144531 C 3.585938 0.152344 3.570312 0.160156 3.550781 0.171875 C 3.535156 0.179688 3.519531 0.191406 3.503906 0.199219 C 3.078125 0.453125 2.792969 0.914062 2.792969 1.441406 Z M 2.792969 1.441406 "/>
<path fill-rule="nonzero" fill="rgb(30%,30%,30%)" fill-opacity="1" d="M 0.933594 9.265625 C 0.875 9.367188 0.960938 9.351562 0.933594 9.265625 Z M 0.933594 9.265625 "/>
<path fill-rule="nonzero" fill="rgb(30%,30%,30%)" fill-opacity="1" d="M 15.707031 8.761719 L 14.242188 4.253906 C 13.984375 3.707031 13.4375 3.359375 12.832031 3.351562 L 12.15625 3.351562 C 12.15625 3.351562 11.875 3.4375 11.726562 3.433594 C 11.574219 3.425781 11.398438 3.394531 11.257812 3.351562 L 10.691406 3.351562 C 10.085938 3.359375 9.539062 3.707031 9.28125 4.253906 L 8.230469 7.296875 L 6.457031 3.539062 C 6.3125 3.261719 6.019531 3.089844 5.707031 3.101562 C 5.460938 3.105469 5.21875 3.125 4.976562 3.203125 C 4.976562 3.203125 4.324219 3.328125 4.15625 3.324219 C 3.96875 3.324219 3.367188 3.203125 3.367188 3.203125 C 3.144531 3.125 2.917969 3.101562 2.691406 3.097656 C 2.382812 3.09375 2.101562 3.273438 1.972656 3.554688 L 0.648438 8.296875 C 0.648438 8.308594 0.648438 8.320312 0.640625 8.328125 C 0.359375 8.484375 0.0898438 8.800781 0.0078125 9.425781 L 0.0078125 9.4375 C -0.0351562 9.636719 0.09375 9.828125 0.289062 9.871094 C 0.46875 9.910156 0.644531 9.808594 0.707031 9.636719 C 0.71875 9.601562 0.726562 9.5625 0.734375 9.523438 C 0.746094 9.390625 0.78125 9.261719 0.839844 9.144531 C 0.898438 9.191406 0.925781 9.234375 0.933594 9.265625 C 0.949219 9.242188 0.976562 9.210938 1.015625 9.167969 C 1.085938 9.28125 1.121094 9.410156 1.113281 9.542969 L 1.113281 16.527344 C 1.113281 16.75 1.292969 16.929688 1.515625 16.929688 C 1.738281 16.929688 1.917969 16.75 1.917969 16.527344 L 1.917969 9.546875 C 1.925781 9.140625 1.761719 8.75 1.460938 8.480469 L 2.347656 6.5 L 2.347656 16.140625 C 2.328125 16.59375 2.675781 16.972656 3.128906 16.996094 C 3.578125 17.015625 3.960938 16.664062 3.980469 16.214844 C 3.980469 16.1875 3.980469 16.164062 3.980469 16.140625 L 3.980469 10.496094 L 4.5 10.496094 L 4.5 16.144531 C 4.480469 16.597656 4.828125 16.980469 5.28125 17 C 5.730469 17.019531 6.113281 16.667969 6.132812 16.21875 C 6.136719 16.195312 6.136719 16.167969 6.132812 16.144531 L 6.132812 8.96875 C 6.132812 8.925781 6.128906 8.878906 6.121094 8.835938 L 6.121094 6.449219 L 7.277344 8.890625 C 7.421875 9.238281 7.789062 9.421875 8.140625 9.351562 C 8.316406 9.371094 8.488281 9.292969 8.589844 9.144531 L 8.648438 8.992188 C 8.695312 8.917969 8.726562 8.832031 8.746094 8.746094 L 9.921875 5.753906 C 9.925781 5.734375 9.949219 5.722656 9.96875 5.730469 C 9.988281 5.734375 10 5.757812 9.996094 5.777344 L 9.09375 12.90625 L 10.257812 12.90625 L 10.257812 16.339844 C 10.25 16.667969 10.507812 16.9375 10.835938 16.945312 C 10.851562 16.945312 10.867188 16.945312 10.882812 16.945312 C 11.214844 16.96875 11.503906 16.714844 11.523438 16.382812 C 11.527344 16.367188 11.527344 16.351562 11.527344 16.339844 L 11.527344 12.90625 L 12.007812 12.90625 L 12.050781 16.332031 C 12.066406 16.683594 12.363281 16.953125 12.714844 16.933594 C 13.039062 16.917969 13.296875 16.65625 13.3125 16.332031 L 13.273438 12.90625 L 14.601562 12.902344 L 13.53125 5.757812 C 13.523438 5.757812 13.550781 5.671875 13.5625 5.691406 C 13.5625 5.695312 13.605469 5.746094 13.605469 5.75 L 14.6875 9.011719 C 14.6875 9.011719 14.902344 9.488281 15.390625 9.390625 C 15.609375 9.347656 15.8125 9.085938 15.707031 8.761719 Z M 15.707031 8.761719 "/>
<path fill-rule="nonzero" fill="rgb(30%,30%,30%)" fill-opacity="1" d="M 10.324219 1.472656 C 10.324219 2.269531 10.972656 2.914062 11.769531 2.914062 C 12.367188 2.914062 12.882812 2.550781 13.101562 2.035156 C 13.113281 2 13.125 1.96875 13.136719 1.933594 C 13.140625 1.921875 13.148438 1.910156 13.152344 1.898438 C 13.15625 1.875 13.164062 1.851562 13.167969 1.828125 C 13.175781 1.804688 13.179688 1.78125 13.1875 1.757812 C 13.1875 1.753906 13.1875 1.753906 13.1875 1.75 C 13.214844 1.617188 13.21875 1.484375 13.207031 1.347656 C 13.207031 1.34375 13.207031 1.34375 13.207031 1.339844 C 13.1875 1.109375 13.109375 0.878906 12.96875 0.671875 C 12.640625 0.175781 12.054688 -0.0507812 11.503906 0.0507812 C 11.5 0.0546875 11.5 0.0546875 11.496094 0.0546875 C 11.457031 0.0625 11.421875 0.0703125 11.386719 0.0820312 C 11.375 0.0820312 11.363281 0.0859375 11.355469 0.0898438 C 11.324219 0.0976562 11.292969 0.109375 11.257812 0.121094 C 11.246094 0.128906 11.230469 0.132812 11.21875 0.136719 C 11.191406 0.148438 11.164062 0.160156 11.140625 0.175781 C 11.121094 0.183594 11.101562 0.191406 11.085938 0.199219 C 11.070312 0.207031 11.054688 0.21875 11.035156 0.230469 C 10.613281 0.480469 10.324219 0.941406 10.324219 1.472656 Z M 10.324219 1.472656 "/>
</g>
</svg>
