<?xml version="1.0" encoding="UTF-8"?>
<svg xmlns="http://www.w3.org/2000/svg" xmlns:xlink="http://www.w3.org/1999/xlink" width="10.443984" height="11" viewBox="0 0 10.443984 11">
<path fill-rule="nonzero" fill="rgb(30%,30%,30%)" fill-opacity="1" d="M 4.167969 4.5625 C 4.101562 4.425781 3.960938 4.34375 3.8125 4.351562 C 3.695312 4.351562 3.578125 4.363281 3.460938 4.382812 C 3.777344 4.167969 3.863281 3.738281 3.652344 3.421875 C 3.441406 3.105469 3.011719 3.019531 2.691406 3.230469 C 2.375 3.441406 2.289062 3.871094 2.5 4.191406 C 2.550781 4.265625 2.617188 4.332031 2.691406 4.382812 C 2.585938 4.363281 2.476562 4.351562 2.367188 4.347656 C 2.21875 4.347656 2.085938 4.433594 2.023438 4.566406 L 1.011719 6.828125 C 1.011719 6.835938 1.011719 6.839844 1.007812 6.84375 C 0.859375 6.925781 0.71875 7.09375 0.675781 7.425781 L 0.675781 7.429688 C 0.652344 7.535156 0.71875 7.636719 0.824219 7.65625 C 0.917969 7.679688 1.011719 7.625 1.042969 7.535156 C 1.050781 7.515625 1.054688 7.496094 1.054688 7.472656 C 1.0625 7.40625 1.082031 7.335938 1.113281 7.273438 C 1.246094 7.386719 1.445312 7.378906 1.566406 7.253906 C 1.601562 7.308594 1.617188 7.371094 1.613281 7.433594 L 1.613281 10.773438 C 1.613281 10.878906 1.699219 10.964844 1.804688 10.964844 C 1.914062 10.964844 2 10.878906 2 10.773438 L 2 7.433594 C 2.003906 7.242188 1.921875 7.054688 1.777344 6.921875 L 2.203125 5.976562 L 2.203125 10.589844 C 2.195312 10.804688 2.359375 10.988281 2.578125 10.996094 C 2.792969 11.007812 2.976562 10.839844 2.984375 10.625 C 2.984375 10.613281 2.984375 10.601562 2.984375 10.589844 L 2.984375 7.890625 L 3.234375 7.890625 L 3.234375 10.589844 C 3.222656 10.808594 3.390625 10.988281 3.609375 11 C 3.824219 11.007812 4.007812 10.84375 4.015625 10.625 C 4.015625 10.613281 4.015625 10.601562 4.015625 10.589844 L 4.015625 7.160156 C 4.015625 7.136719 4.011719 7.117188 4.007812 7.09375 L 4.007812 5.953125 L 4.5625 7.121094 C 4.640625 7.308594 4.855469 7.398438 5.046875 7.320312 C 5.234375 7.242188 5.320312 7.023438 5.242188 6.835938 C 5.238281 6.828125 5.234375 6.816406 5.230469 6.808594 Z M 4.167969 4.5625 "/>
<path fill-rule="nonzero" fill="rgb(30%,30%,30%)" fill-opacity="1" d="M 9.765625 7.429688 L 9.765625 7.425781 C 9.6875 6.824219 9.28125 6.765625 9.109375 6.765625 L 8.492188 4.894531 C 8.371094 4.632812 8.109375 4.464844 7.820312 4.460938 L 7.496094 4.460938 C 7.859375 4.34375 8.058594 3.953125 7.9375 3.589844 C 7.820312 3.226562 7.429688 3.027344 7.066406 3.144531 C 6.703125 3.265625 6.503906 3.65625 6.621094 4.019531 C 6.691406 4.226562 6.855469 4.394531 7.066406 4.460938 L 6.796875 4.460938 C 6.507812 4.464844 6.246094 4.632812 6.121094 4.894531 L 5.402344 6.96875 C 5.335938 7.085938 5.375 7.234375 5.492188 7.304688 C 5.507812 7.3125 5.523438 7.320312 5.542969 7.324219 C 5.636719 7.351562 5.734375 7.316406 5.789062 7.234375 L 6.425781 5.613281 C 6.429688 5.601562 6.441406 5.597656 6.449219 5.601562 C 6.460938 5.601562 6.464844 5.613281 6.460938 5.625 L 6.03125 9.03125 L 6.585938 9.03125 L 6.585938 10.675781 C 6.582031 10.832031 6.707031 10.960938 6.863281 10.964844 C 6.871094 10.964844 6.878906 10.964844 6.886719 10.964844 C 7.046875 10.976562 7.183594 10.855469 7.195312 10.695312 C 7.195312 10.6875 7.195312 10.683594 7.195312 10.675781 L 7.195312 9.03125 L 7.425781 9.03125 L 7.445312 10.671875 C 7.453125 10.839844 7.59375 10.96875 7.761719 10.960938 C 7.917969 10.953125 8.042969 10.828125 8.050781 10.671875 L 8.03125 9.03125 L 8.441406 9.03125 L 8.441406 10.773438 C 8.441406 10.878906 8.527344 10.964844 8.632812 10.964844 C 8.742188 10.964844 8.828125 10.878906 8.828125 10.773438 L 8.828125 7.433594 C 8.828125 7.394531 8.832031 7.355469 8.84375 7.316406 C 8.90625 7.351562 8.972656 7.363281 9.042969 7.351562 C 9.136719 7.339844 9.171875 7.246094 9.183594 7.15625 C 9.257812 7.171875 9.351562 7.234375 9.386719 7.476562 C 9.386719 7.496094 9.390625 7.515625 9.398438 7.535156 C 9.4375 7.636719 9.546875 7.6875 9.644531 7.648438 C 9.734375 7.613281 9.785156 7.523438 9.765625 7.429688 Z M 8.441406 7.429688 L 8.441406 8.128906 L 8.152344 5.621094 C 8.148438 5.613281 8.152344 5.601562 8.164062 5.597656 C 8.171875 5.59375 8.183594 5.597656 8.1875 5.605469 C 8.1875 5.605469 8.1875 5.609375 8.1875 5.609375 L 8.667969 6.917969 C 8.519531 7.046875 8.4375 7.238281 8.441406 7.433594 Z M 8.441406 7.429688 "/>
</svg>
